M48
; DRILL file {KiCad (6.0.4)} date Tue Sep 20 15:17:25 2022
; FORMAT={-:-/ absolute / metric / decimal}
; #@! TF.CreationDate,2022-09-20T15:17:25+09:00
; #@! TF.GenerationSoftware,Kicad,Pcbnew,(6.0.4)
; #@! TF.FileFunction,MixedPlating,1,2
FMAT,2
METRIC
; #@! TA.AperFunction,Plated,PTH,ViaDrill
T1C0.200
; #@! TA.AperFunction,Plated,PTH,ComponentDrill
T2C0.350
; #@! TA.AperFunction,Plated,PTH,ViaDrill
T3C0.400
; #@! TA.AperFunction,Plated,PTH,ComponentDrill
T4C0.600
; #@! TA.AperFunction,Plated,PTH,ComponentDrill
T5C0.750
; #@! TA.AperFunction,NonPlated,NPTH,ComponentDrill
T6C0.650
; #@! TA.AperFunction,NonPlated,NPTH,ComponentDrill
T7C2.200
%
G90
G05
T1
X118.687Y-71.266
X118.687Y-109.266
X121.2Y-71.2
X121.2Y-109.2
X124.636Y-74.416
X124.636Y-112.416
X124.75Y-77.565
X124.75Y-115.565
X126.311Y-77.163
X126.311Y-115.163
X126.375Y-73.489
X126.375Y-111.489
X126.6Y-78.414
X126.6Y-116.414
X128.992Y-80.003
X128.992Y-118.003
X131.278Y-81.959
X131.278Y-119.959
X132.15Y-79.5
X132.15Y-117.5
X132.6Y-79.9
X132.6Y-117.9
X162.687Y-71.266
X162.687Y-109.266
X165.2Y-71.2
X165.2Y-109.2
X168.636Y-74.416
X168.636Y-112.416
X168.75Y-77.565
X168.75Y-115.565
X170.311Y-77.163
X170.311Y-115.163
X170.375Y-73.489
X170.375Y-111.489
X170.6Y-78.414
X170.6Y-116.414
X172.992Y-80.003
X172.992Y-118.003
X175.278Y-81.959
X175.278Y-119.959
X176.15Y-79.5
X176.15Y-117.5
X176.6Y-79.9
X176.6Y-117.9
T2
X119.113Y-74.402
X119.113Y-75.677
X119.113Y-76.952
X119.113Y-112.402
X119.113Y-113.677
X119.113Y-114.952
X120.388Y-74.402
X120.388Y-75.677
X120.388Y-76.952
X120.388Y-112.402
X120.388Y-113.677
X120.388Y-114.952
X121.663Y-74.402
X121.663Y-75.677
X121.663Y-76.952
X121.663Y-112.402
X121.663Y-113.677
X121.663Y-114.952
X163.113Y-74.402
X163.113Y-75.677
X163.113Y-76.952
X163.113Y-112.402
X163.113Y-113.677
X163.113Y-114.952
X164.388Y-74.402
X164.388Y-75.677
X164.388Y-76.952
X164.388Y-112.402
X164.388Y-113.677
X164.388Y-114.952
X165.663Y-74.402
X165.663Y-75.677
X165.663Y-76.952
X165.663Y-112.402
X165.663Y-113.677
X165.663Y-114.952
T3
X96.4Y-78.4
X96.4Y-116.4
X96.6Y-70.2
X96.6Y-71.4
X96.6Y-108.2
X96.6Y-109.4
X97.0Y-61.0
X97.0Y-67.0
X97.0Y-74.0
X97.0Y-81.5
X97.0Y-83.0
X97.0Y-85.0
X97.0Y-89.0
X97.0Y-94.0
X97.0Y-99.0
X97.0Y-105.0
X97.0Y-112.0
X97.0Y-119.5
X97.0Y-121.0
X97.0Y-123.0
X97.0Y-127.0
X97.0Y-132.0
X97.5Y-62.0
X97.5Y-65.5
X97.5Y-68.5
X97.5Y-100.0
X97.5Y-103.5
X97.5Y-106.5
X97.6Y-69.4
X97.6Y-107.4
X97.8Y-64.0
X97.8Y-102.0
X97.978Y-84.093
X97.978Y-122.093
X98.0Y-71.6
X98.0Y-90.5
X98.0Y-92.5
X98.0Y-109.6
X98.0Y-128.5
X98.0Y-130.5
X98.41Y-65.805
X98.41Y-103.805
X98.486Y-84.55
X98.486Y-122.55
X98.791Y-60.725
X98.791Y-62.046
X98.791Y-98.725
X98.791Y-100.046
X98.8Y-88.0
X98.8Y-126.0
X99.02Y-84.118
X99.02Y-122.118
X99.321Y-94.0
X99.321Y-132.0
X99.38Y-62.91
X99.38Y-100.91
X99.4Y-71.6
X99.4Y-109.6
X99.496Y-74.491
X99.496Y-112.491
X99.5Y-76.5
X99.5Y-77.5
X99.5Y-79.5
X99.5Y-81.5
X99.5Y-114.5
X99.5Y-115.5
X99.5Y-117.5
X99.5Y-119.5
X99.592Y-60.801
X99.592Y-98.801
X99.8Y-69.8
X99.8Y-73.2
X99.8Y-107.8
X99.8Y-111.2
X100.0Y-92.5
X100.0Y-130.5
X100.123Y-89.874
X100.123Y-127.874
X100.417Y-67.786
X100.417Y-105.786
X101.232Y-60.684
X101.232Y-98.684
X101.241Y-61.36
X101.241Y-99.36
X101.28Y-62.122
X101.28Y-100.122
X101.4Y-87.0
X101.4Y-125.0
X101.5Y-93.978
X101.5Y-131.978
X101.737Y-67.786
X101.737Y-105.786
X102.25Y-81.5
X102.25Y-93.0
X102.25Y-119.5
X102.25Y-131.0
X102.5Y-74.0
X102.5Y-92.0
X102.5Y-112.0
X102.5Y-130.0
X102.722Y-69.616
X102.722Y-107.616
X102.75Y-75.25
X102.75Y-113.25
X103.0Y-64.382
X103.0Y-102.382
X103.2Y-72.6
X103.2Y-110.6
X103.388Y-62.35
X103.388Y-100.35
X103.566Y-61.665
X103.566Y-99.665
X103.592Y-61.004
X103.592Y-99.004
X103.6Y-70.4
X103.6Y-108.4
X103.75Y-74.0
X103.75Y-112.0
X103.8Y-87.0
X103.8Y-125.0
X103.85Y-67.375
X103.85Y-105.375
X104.0Y-66.0
X104.0Y-104.0
X104.1Y-64.382
X104.1Y-102.382
X104.2Y-80.0
X104.2Y-118.0
X104.379Y-71.367
X104.379Y-109.367
X104.4Y-81.6
X104.4Y-119.6
X104.5Y-92.15
X104.5Y-130.15
X105.2Y-64.4
X105.2Y-102.4
X105.25Y-80.75
X105.25Y-82.25
X105.25Y-118.75
X105.25Y-120.25
X105.446Y-67.38
X105.446Y-105.38
X105.475Y-60.575
X105.475Y-98.575
X105.5Y-75.5
X105.5Y-113.5
X105.625Y-93.975
X105.625Y-131.975
X105.827Y-72.866
X105.827Y-110.866
X105.878Y-85.287
X105.878Y-123.287
X105.979Y-86.201
X105.979Y-124.201
X106.5Y-74.5
X106.5Y-112.5
X106.504Y-84.577
X106.504Y-122.577
X106.514Y-90.086
X106.514Y-128.086
X107.122Y-75.685
X107.122Y-113.685
X107.49Y-63.995
X107.49Y-101.995
X107.5Y-61.0
X107.5Y-62.5
X107.5Y-67.0
X107.5Y-99.0
X107.5Y-100.5
X107.5Y-105.0
X107.529Y-81.172
X107.529Y-119.172
X107.554Y-81.832
X107.554Y-119.832
X107.579Y-83.722
X107.579Y-121.722
X107.605Y-77.54
X107.605Y-115.54
X108.0Y-69.0
X108.0Y-107.0
X108.25Y-73.75
X108.25Y-111.75
X108.4Y-70.4
X108.4Y-108.4
X108.575Y-91.4
X108.575Y-129.4
X108.773Y-85.353
X108.773Y-123.353
X108.849Y-87.598
X108.849Y-125.598
X109.0Y-61.0
X109.0Y-65.5
X109.0Y-67.0
X109.0Y-99.0
X109.0Y-103.5
X109.0Y-105.0
X109.8Y-69.2
X109.8Y-107.2
X109.891Y-85.363
X109.891Y-123.363
X110.13Y-79.1
X110.13Y-117.1
X110.134Y-80.757
X110.134Y-118.757
X110.221Y-74.629
X110.221Y-112.629
X110.734Y-71.24
X110.734Y-109.24
X110.754Y-77.387
X110.754Y-115.387
X110.764Y-69.937
X110.764Y-107.937
X110.78Y-79.114
X110.78Y-117.114
X110.831Y-80.689
X110.831Y-118.689
X110.922Y-72.018
X110.922Y-110.018
X111.2Y-85.8
X111.2Y-123.8
X111.3Y-84.2
X111.3Y-122.2
X111.339Y-75.152
X111.339Y-113.152
X111.5Y-63.4
X111.5Y-101.4
X111.646Y-70.501
X111.646Y-108.501
X111.7Y-66.5
X111.7Y-104.5
X111.8Y-64.9
X111.8Y-102.9
X112.0Y-79.165
X112.0Y-117.165
X112.006Y-62.25
X112.006Y-100.25
X112.4Y-68.4
X112.4Y-106.4
X112.812Y-75.628
X112.812Y-113.628
X113.046Y-79.046
X113.046Y-117.046
X113.1Y-63.524
X113.1Y-101.524
X113.325Y-89.3
X113.325Y-127.3
X113.575Y-92.125
X113.575Y-130.125
X113.7Y-65.4
X113.7Y-103.4
X113.75Y-66.5
X113.75Y-104.5
X113.775Y-90.975
X113.775Y-128.975
X113.8Y-84.4
X113.8Y-122.4
X113.813Y-74.809
X113.813Y-112.809
X114.0Y-86.6
X114.0Y-94.0
X114.0Y-124.6
X114.0Y-132.0
X114.006Y-85.261
X114.006Y-123.261
X114.178Y-73.301
X114.178Y-111.301
X114.336Y-72.358
X114.336Y-110.358
X114.585Y-61.296
X114.585Y-99.296
X114.75Y-66.25
X114.75Y-104.25
X114.763Y-73.923
X114.763Y-111.923
X114.8Y-70.6
X114.8Y-108.6
X114.853Y-82.271
X114.853Y-120.271
X115.195Y-76.048
X115.195Y-114.048
X115.2Y-80.4
X115.2Y-118.4
X115.492Y-93.994
X115.492Y-131.994
X115.572Y-63.028
X115.572Y-101.028
X115.707Y-70.478
X115.707Y-108.478
X115.75Y-65.75
X115.75Y-103.75
X115.775Y-71.845
X115.775Y-109.845
X115.8Y-90.6
X115.8Y-128.6
X115.855Y-72.754
X115.855Y-110.754
X116.0Y-68.6
X116.0Y-84.0
X116.0Y-106.6
X116.0Y-122.0
X116.013Y-76.077
X116.013Y-114.077
X116.25Y-79.25
X116.25Y-117.25
X116.448Y-66.631
X116.448Y-104.631
X116.5Y-63.5
X116.5Y-101.5
X116.7Y-91.5
X116.7Y-129.5
X116.843Y-71.146
X116.843Y-109.146
X116.901Y-86.684
X116.901Y-124.684
X117.4Y-80.2
X117.4Y-118.2
X117.471Y-68.6
X117.471Y-106.6
X117.5Y-84.0
X117.5Y-122.0
X118.0Y-63.0
X118.0Y-101.0
X118.011Y-89.2
X118.011Y-127.2
X118.8Y-66.8
X118.8Y-104.8
X119.0Y-62.2
X119.0Y-100.2
X119.238Y-77.876
X119.238Y-115.876
X119.3Y-89.3
X119.3Y-127.3
X119.5Y-63.5
X119.5Y-91.5
X119.5Y-101.5
X119.5Y-129.5
X119.546Y-71.271
X119.546Y-109.271
X119.594Y-65.153
X119.594Y-103.153
X119.771Y-73.603
X119.771Y-111.603
X120.0Y-62.5
X120.0Y-100.5
X120.2Y-60.6
X120.2Y-98.6
X120.252Y-68.997
X120.252Y-106.997
X120.288Y-80.384
X120.288Y-118.384
X120.7Y-89.3
X120.7Y-127.3
X121.0Y-61.5
X121.0Y-63.0
X121.0Y-99.5
X121.0Y-101.0
X121.245Y-69.322
X121.245Y-107.322
X121.5Y-64.5
X121.5Y-102.5
X121.88Y-84.245
X121.88Y-122.245
X121.9Y-91.2
X121.9Y-129.2
X122.3Y-93.9
X122.3Y-131.9
X122.4Y-89.9
X122.4Y-127.9
X122.469Y-70.25
X122.469Y-108.25
X122.493Y-63.993
X122.493Y-101.993
X122.5Y-61.0
X122.5Y-62.5
X122.5Y-65.5
X122.5Y-85.0
X122.5Y-86.5
X122.5Y-99.0
X122.5Y-100.5
X122.5Y-103.5
X122.5Y-123.0
X122.5Y-124.5
X122.87Y-73.247
X122.87Y-111.247
X124.0Y-79.5
X124.0Y-94.4
X124.0Y-117.5
X124.0Y-132.4
X124.168Y-70.678
X124.168Y-108.678
X124.575Y-64.825
X124.575Y-102.825
X124.6Y-92.8
X124.6Y-130.8
X124.8Y-65.8
X124.8Y-69.8
X124.8Y-103.8
X124.8Y-107.8
X124.801Y-79.038
X124.801Y-117.038
X125.0Y-60.5
X125.0Y-62.5
X125.0Y-67.6
X125.0Y-68.6
X125.0Y-90.8
X125.0Y-98.5
X125.0Y-100.5
X125.0Y-105.6
X125.0Y-106.6
X125.0Y-128.8
X125.334Y-88.245
X125.334Y-126.245
X125.735Y-74.588
X125.735Y-112.588
X125.8Y-83.8
X125.8Y-85.8
X125.8Y-121.8
X125.8Y-123.8
X125.918Y-62.325
X125.918Y-100.325
X126.121Y-63.443
X126.121Y-101.443
X126.172Y-67.608
X126.172Y-105.608
X126.5Y-72.434
X126.5Y-110.434
X126.54Y-60.877
X126.54Y-61.614
X126.54Y-98.877
X126.54Y-99.614
X126.8Y-92.4
X126.8Y-130.4
X126.995Y-84.481
X126.995Y-122.481
X127.0Y-83.0
X127.0Y-86.0
X127.0Y-121.0
X127.0Y-124.0
X127.8Y-91.2
X127.8Y-94.0
X127.8Y-129.2
X127.8Y-132.0
X128.19Y-61.0
X128.19Y-61.715
X128.19Y-99.0
X128.19Y-99.715
X128.29Y-70.378
X128.29Y-108.378
X128.5Y-62.307
X128.5Y-100.307
X129.0Y-83.0
X129.0Y-84.5
X129.0Y-86.0
X129.0Y-92.4
X129.0Y-121.0
X129.0Y-122.5
X129.0Y-124.0
X129.0Y-130.4
X130.4Y-61.8
X130.4Y-99.8
X130.5Y-69.5
X130.5Y-71.5
X130.5Y-107.5
X130.5Y-109.5
X130.687Y-77.101
X130.687Y-115.101
X130.922Y-61.004
X130.922Y-99.004
X131.127Y-61.782
X131.127Y-99.782
X131.201Y-90.9
X131.201Y-128.9
X131.5Y-65.5
X131.5Y-103.5
X132.0Y-62.0
X132.0Y-63.5
X132.0Y-92.5
X132.0Y-100.0
X132.0Y-101.5
X132.0Y-130.5
X132.192Y-75.101
X132.192Y-113.101
X132.475Y-89.2
X132.475Y-127.2
X132.5Y-67.0
X132.5Y-87.5
X132.5Y-94.0
X132.5Y-105.0
X132.5Y-125.5
X132.5Y-132.0
X133.0Y-61.0
X133.0Y-99.0
X133.31Y-78.099
X133.31Y-116.099
X140.4Y-78.4
X140.4Y-116.4
X140.6Y-70.2
X140.6Y-71.4
X140.6Y-108.2
X140.6Y-109.4
X141.0Y-61.0
X141.0Y-67.0
X141.0Y-74.0
X141.0Y-81.5
X141.0Y-83.0
X141.0Y-85.0
X141.0Y-89.0
X141.0Y-94.0
X141.0Y-99.0
X141.0Y-105.0
X141.0Y-112.0
X141.0Y-119.5
X141.0Y-121.0
X141.0Y-123.0
X141.0Y-127.0
X141.0Y-132.0
X141.5Y-62.0
X141.5Y-65.5
X141.5Y-68.5
X141.5Y-100.0
X141.5Y-103.5
X141.5Y-106.5
X141.6Y-69.4
X141.6Y-107.4
X141.8Y-64.0
X141.8Y-102.0
X141.978Y-84.093
X141.978Y-122.093
X142.0Y-71.6
X142.0Y-90.5
X142.0Y-92.5
X142.0Y-109.6
X142.0Y-128.5
X142.0Y-130.5
X142.41Y-65.805
X142.41Y-103.805
X142.486Y-84.55
X142.486Y-122.55
X142.791Y-60.725
X142.791Y-62.046
X142.791Y-98.725
X142.791Y-100.046
X142.8Y-88.0
X142.8Y-126.0
X143.02Y-84.118
X143.02Y-122.118
X143.321Y-94.0
X143.321Y-132.0
X143.38Y-62.91
X143.38Y-100.91
X143.4Y-71.6
X143.4Y-109.6
X143.496Y-74.491
X143.496Y-112.491
X143.5Y-76.5
X143.5Y-77.5
X143.5Y-79.5
X143.5Y-81.5
X143.5Y-114.5
X143.5Y-115.5
X143.5Y-117.5
X143.5Y-119.5
X143.592Y-60.801
X143.592Y-98.801
X143.8Y-69.8
X143.8Y-73.2
X143.8Y-107.8
X143.8Y-111.2
X144.0Y-92.5
X144.0Y-130.5
X144.123Y-89.874
X144.123Y-127.874
X144.417Y-67.786
X144.417Y-105.786
X145.232Y-60.684
X145.232Y-98.684
X145.241Y-61.36
X145.241Y-99.36
X145.28Y-62.122
X145.28Y-100.122
X145.4Y-87.0
X145.4Y-125.0
X145.5Y-93.978
X145.5Y-131.978
X145.737Y-67.786
X145.737Y-105.786
X146.25Y-81.5
X146.25Y-93.0
X146.25Y-119.5
X146.25Y-131.0
X146.5Y-74.0
X146.5Y-92.0
X146.5Y-112.0
X146.5Y-130.0
X146.722Y-69.616
X146.722Y-107.616
X146.75Y-75.25
X146.75Y-113.25
X147.0Y-64.382
X147.0Y-102.382
X147.2Y-72.6
X147.2Y-110.6
X147.388Y-62.35
X147.388Y-100.35
X147.566Y-61.665
X147.566Y-99.665
X147.592Y-61.004
X147.592Y-99.004
X147.6Y-70.4
X147.6Y-108.4
X147.75Y-74.0
X147.75Y-112.0
X147.8Y-87.0
X147.8Y-125.0
X147.85Y-67.375
X147.85Y-105.375
X148.0Y-66.0
X148.0Y-104.0
X148.1Y-64.382
X148.1Y-102.382
X148.2Y-80.0
X148.2Y-118.0
X148.379Y-71.367
X148.379Y-109.367
X148.4Y-81.6
X148.4Y-119.6
X148.5Y-92.15
X148.5Y-130.15
X149.2Y-64.4
X149.2Y-102.4
X149.25Y-80.75
X149.25Y-82.25
X149.25Y-118.75
X149.25Y-120.25
X149.446Y-67.38
X149.446Y-105.38
X149.475Y-60.575
X149.475Y-98.575
X149.5Y-75.5
X149.5Y-113.5
X149.625Y-93.975
X149.625Y-131.975
X149.827Y-72.866
X149.827Y-110.866
X149.878Y-85.287
X149.878Y-123.287
X149.979Y-86.201
X149.979Y-124.201
X150.5Y-74.5
X150.5Y-112.5
X150.504Y-84.577
X150.504Y-122.577
X150.514Y-90.086
X150.514Y-128.086
X151.122Y-75.685
X151.122Y-113.685
X151.49Y-63.995
X151.49Y-101.995
X151.5Y-61.0
X151.5Y-62.5
X151.5Y-67.0
X151.5Y-99.0
X151.5Y-100.5
X151.5Y-105.0
X151.529Y-81.172
X151.529Y-119.172
X151.554Y-81.832
X151.554Y-119.832
X151.579Y-83.722
X151.579Y-121.722
X151.605Y-77.54
X151.605Y-115.54
X152.0Y-69.0
X152.0Y-107.0
X152.25Y-73.75
X152.25Y-111.75
X152.4Y-70.4
X152.4Y-108.4
X152.575Y-91.4
X152.575Y-129.4
X152.773Y-85.353
X152.773Y-123.353
X152.849Y-87.598
X152.849Y-125.598
X153.0Y-61.0
X153.0Y-65.5
X153.0Y-67.0
X153.0Y-99.0
X153.0Y-103.5
X153.0Y-105.0
X153.8Y-69.2
X153.8Y-107.2
X153.891Y-85.363
X153.891Y-123.363
X154.13Y-79.1
X154.13Y-117.1
X154.134Y-80.757
X154.134Y-118.757
X154.221Y-74.629
X154.221Y-112.629
X154.734Y-71.24
X154.734Y-109.24
X154.754Y-77.387
X154.754Y-115.387
X154.764Y-69.937
X154.764Y-107.937
X154.78Y-79.114
X154.78Y-117.114
X154.831Y-80.689
X154.831Y-118.689
X154.922Y-72.018
X154.922Y-110.018
X155.2Y-85.8
X155.2Y-123.8
X155.3Y-84.2
X155.3Y-122.2
X155.339Y-75.152
X155.339Y-113.152
X155.5Y-63.4
X155.5Y-101.4
X155.646Y-70.501
X155.646Y-108.501
X155.7Y-66.5
X155.7Y-104.5
X155.8Y-64.9
X155.8Y-102.9
X156.0Y-79.165
X156.0Y-117.165
X156.006Y-62.25
X156.006Y-100.25
X156.4Y-68.4
X156.4Y-106.4
X156.812Y-75.628
X156.812Y-113.628
X157.046Y-79.046
X157.046Y-117.046
X157.1Y-63.524
X157.1Y-101.524
X157.325Y-89.3
X157.325Y-127.3
X157.575Y-92.125
X157.575Y-130.125
X157.7Y-65.4
X157.7Y-103.4
X157.75Y-66.5
X157.75Y-104.5
X157.775Y-90.975
X157.775Y-128.975
X157.8Y-84.4
X157.8Y-122.4
X157.813Y-74.809
X157.813Y-112.809
X158.0Y-86.6
X158.0Y-94.0
X158.0Y-124.6
X158.0Y-132.0
X158.006Y-85.261
X158.006Y-123.261
X158.178Y-73.301
X158.178Y-111.301
X158.336Y-72.358
X158.336Y-110.358
X158.585Y-61.296
X158.585Y-99.296
X158.75Y-66.25
X158.75Y-104.25
X158.763Y-73.923
X158.763Y-111.923
X158.8Y-70.6
X158.8Y-108.6
X158.853Y-82.271
X158.853Y-120.271
X159.195Y-76.048
X159.195Y-114.048
X159.2Y-80.4
X159.2Y-118.4
X159.492Y-93.994
X159.492Y-131.994
X159.572Y-63.028
X159.572Y-101.028
X159.707Y-70.478
X159.707Y-108.478
X159.75Y-65.75
X159.75Y-103.75
X159.775Y-71.845
X159.775Y-109.845
X159.8Y-90.6
X159.8Y-128.6
X159.855Y-72.754
X159.855Y-110.754
X160.0Y-68.6
X160.0Y-84.0
X160.0Y-106.6
X160.0Y-122.0
X160.013Y-76.077
X160.013Y-114.077
X160.25Y-79.25
X160.25Y-117.25
X160.448Y-66.631
X160.448Y-104.631
X160.5Y-63.5
X160.5Y-101.5
X160.7Y-91.5
X160.7Y-129.5
X160.843Y-71.146
X160.843Y-109.146
X160.901Y-86.684
X160.901Y-124.684
X161.4Y-80.2
X161.4Y-118.2
X161.471Y-68.6
X161.471Y-106.6
X161.5Y-84.0
X161.5Y-122.0
X162.0Y-63.0
X162.0Y-101.0
X162.011Y-89.2
X162.011Y-127.2
X162.8Y-66.8
X162.8Y-104.8
X163.0Y-62.2
X163.0Y-100.2
X163.238Y-77.876
X163.238Y-115.876
X163.3Y-89.3
X163.3Y-127.3
X163.5Y-63.5
X163.5Y-91.5
X163.5Y-101.5
X163.5Y-129.5
X163.546Y-71.271
X163.546Y-109.271
X163.594Y-65.153
X163.594Y-103.153
X163.771Y-73.603
X163.771Y-111.603
X164.0Y-62.5
X164.0Y-100.5
X164.2Y-60.6
X164.2Y-98.6
X164.252Y-68.997
X164.252Y-106.997
X164.288Y-80.384
X164.288Y-118.384
X164.7Y-89.3
X164.7Y-127.3
X165.0Y-61.5
X165.0Y-63.0
X165.0Y-99.5
X165.0Y-101.0
X165.245Y-69.322
X165.245Y-107.322
X165.5Y-64.5
X165.5Y-102.5
X165.88Y-84.245
X165.88Y-122.245
X165.9Y-91.2
X165.9Y-129.2
X166.3Y-93.9
X166.3Y-131.9
X166.4Y-89.9
X166.4Y-127.9
X166.469Y-70.25
X166.469Y-108.25
X166.493Y-63.993
X166.493Y-101.993
X166.5Y-61.0
X166.5Y-62.5
X166.5Y-65.5
X166.5Y-85.0
X166.5Y-86.5
X166.5Y-99.0
X166.5Y-100.5
X166.5Y-103.5
X166.5Y-123.0
X166.5Y-124.5
X166.87Y-73.247
X166.87Y-111.247
X168.0Y-79.5
X168.0Y-94.4
X168.0Y-117.5
X168.0Y-132.4
X168.168Y-70.678
X168.168Y-108.678
X168.575Y-64.825
X168.575Y-102.825
X168.6Y-92.8
X168.6Y-130.8
X168.8Y-65.8
X168.8Y-69.8
X168.8Y-103.8
X168.8Y-107.8
X168.801Y-79.038
X168.801Y-117.038
X169.0Y-60.5
X169.0Y-62.5
X169.0Y-67.6
X169.0Y-68.6
X169.0Y-90.8
X169.0Y-98.5
X169.0Y-100.5
X169.0Y-105.6
X169.0Y-106.6
X169.0Y-128.8
X169.334Y-88.245
X169.334Y-126.245
X169.735Y-74.588
X169.735Y-112.588
X169.8Y-83.8
X169.8Y-85.8
X169.8Y-121.8
X169.8Y-123.8
X169.918Y-62.325
X169.918Y-100.325
X170.121Y-63.443
X170.121Y-101.443
X170.172Y-67.608
X170.172Y-105.608
X170.5Y-72.434
X170.5Y-110.434
X170.54Y-60.877
X170.54Y-61.614
X170.54Y-98.877
X170.54Y-99.614
X170.8Y-92.4
X170.8Y-130.4
X170.995Y-84.481
X170.995Y-122.481
X171.0Y-83.0
X171.0Y-86.0
X171.0Y-121.0
X171.0Y-124.0
X171.8Y-91.2
X171.8Y-94.0
X171.8Y-129.2
X171.8Y-132.0
X172.19Y-61.0
X172.19Y-61.715
X172.19Y-99.0
X172.19Y-99.715
X172.29Y-70.378
X172.29Y-108.378
X172.5Y-62.307
X172.5Y-100.307
X173.0Y-83.0
X173.0Y-84.5
X173.0Y-86.0
X173.0Y-92.4
X173.0Y-121.0
X173.0Y-122.5
X173.0Y-124.0
X173.0Y-130.4
X174.4Y-61.8
X174.4Y-99.8
X174.5Y-69.5
X174.5Y-71.5
X174.5Y-107.5
X174.5Y-109.5
X174.687Y-77.101
X174.687Y-115.101
X174.922Y-61.004
X174.922Y-99.004
X175.127Y-61.782
X175.127Y-99.782
X175.201Y-90.9
X175.201Y-128.9
X175.5Y-65.5
X175.5Y-103.5
X176.0Y-62.0
X176.0Y-63.5
X176.0Y-92.5
X176.0Y-100.0
X176.0Y-101.5
X176.0Y-130.5
X176.192Y-75.101
X176.192Y-113.101
X176.475Y-89.2
X176.475Y-127.2
X176.5Y-67.0
X176.5Y-87.5
X176.5Y-94.0
X176.5Y-105.0
X176.5Y-125.5
X176.5Y-132.0
X177.0Y-61.0
X177.0Y-99.0
X177.31Y-78.099
X177.31Y-116.099
T5
X100.836Y-88.309
X100.836Y-126.309
X102.836Y-88.309
X102.836Y-126.309
X104.836Y-88.309
X104.836Y-126.309
X144.836Y-88.309
X144.836Y-126.309
X146.836Y-88.309
X146.836Y-126.309
X148.836Y-88.309
X148.836Y-126.309
T6
X116.36Y-88.97
X116.36Y-126.97
X122.14Y-88.97
X122.14Y-126.97
X160.36Y-88.97
X160.36Y-126.97
X166.14Y-88.97
X166.14Y-126.97
T7
X96.0Y-64.0
X96.0Y-91.0
X96.0Y-102.0
X96.0Y-129.0
X134.0Y-63.925
X134.0Y-91.0
X134.0Y-91.0
X134.0Y-101.925
X134.0Y-129.0
X134.0Y-129.0
X140.0Y-64.0
X140.0Y-91.0
X140.0Y-102.0
X140.0Y-129.0
X178.0Y-63.925
X178.0Y-91.0
X178.0Y-91.0
X178.0Y-101.925
X178.0Y-129.0
X178.0Y-129.0
T4
G00X114.93Y-89.02
M15
G01X114.93Y-87.92
M16
G05
G00X114.93Y-93.05
M15
G01X114.93Y-92.25
M16
G05
G00X114.93Y-127.02
M15
G01X114.93Y-125.92
M16
G05
G00X114.93Y-131.05
M15
G01X114.93Y-130.25
M16
G05
G00X123.57Y-89.02
M15
G01X123.57Y-87.92
M16
G05
G00X123.57Y-93.05
M15
G01X123.57Y-92.25
M16
G05
G00X123.57Y-127.02
M15
G01X123.57Y-125.92
M16
G05
G00X123.57Y-131.05
M15
G01X123.57Y-130.25
M16
G05
G00X158.93Y-89.02
M15
G01X158.93Y-87.92
M16
G05
G00X158.93Y-93.05
M15
G01X158.93Y-92.25
M16
G05
G00X158.93Y-127.02
M15
G01X158.93Y-125.92
M16
G05
G00X158.93Y-131.05
M15
G01X158.93Y-130.25
M16
G05
G00X167.57Y-89.02
M15
G01X167.57Y-87.92
M16
G05
G00X167.57Y-93.05
M15
G01X167.57Y-92.25
M16
G05
G00X167.57Y-127.02
M15
G01X167.57Y-125.92
M16
G05
G00X167.57Y-131.05
M15
G01X167.57Y-130.25
M16
G05
T0
M30
