%TF.GenerationSoftware,KiCad,Pcbnew,(6.0.4)*%
%TF.CreationDate,2022-09-20T15:17:21+09:00*%
%TF.ProjectId,mainboard_p_rev3,6d61696e-626f-4617-9264-5f705f726576,rev?*%
%TF.SameCoordinates,Original*%
%TF.FileFunction,Paste,Top*%
%TF.FilePolarity,Positive*%
%FSLAX46Y46*%
G04 Gerber Fmt 4.6, Leading zero omitted, Abs format (unit mm)*
G04 Created by KiCad (PCBNEW (6.0.4)) date 2022-09-20 15:17:21*
%MOMM*%
%LPD*%
G01*
G04 APERTURE LIST*
G04 Aperture macros list*
%AMRoundRect*
0 Rectangle with rounded corners*
0 $1 Rounding radius*
0 $2 $3 $4 $5 $6 $7 $8 $9 X,Y pos of 4 corners*
0 Add a 4 corners polygon primitive as box body*
4,1,4,$2,$3,$4,$5,$6,$7,$8,$9,$2,$3,0*
0 Add four circle primitives for the rounded corners*
1,1,$1+$1,$2,$3*
1,1,$1+$1,$4,$5*
1,1,$1+$1,$6,$7*
1,1,$1+$1,$8,$9*
0 Add four rect primitives between the rounded corners*
20,1,$1+$1,$2,$3,$4,$5,0*
20,1,$1+$1,$4,$5,$6,$7,0*
20,1,$1+$1,$6,$7,$8,$9,0*
20,1,$1+$1,$8,$9,$2,$3,0*%
G04 Aperture macros list end*
%ADD10RoundRect,0.225000X-0.225000X-0.250000X0.225000X-0.250000X0.225000X0.250000X-0.225000X0.250000X0*%
%ADD11R,1.650000X0.650000*%
%ADD12RoundRect,0.225000X0.225000X0.250000X-0.225000X0.250000X-0.225000X-0.250000X0.225000X-0.250000X0*%
%ADD13RoundRect,0.250000X0.650000X-0.325000X0.650000X0.325000X-0.650000X0.325000X-0.650000X-0.325000X0*%
%ADD14RoundRect,0.225000X0.250000X-0.225000X0.250000X0.225000X-0.250000X0.225000X-0.250000X-0.225000X0*%
%ADD15RoundRect,0.150000X-0.150000X0.512500X-0.150000X-0.512500X0.150000X-0.512500X0.150000X0.512500X0*%
%ADD16RoundRect,0.225000X-0.250000X0.225000X-0.250000X-0.225000X0.250000X-0.225000X0.250000X0.225000X0*%
%ADD17RoundRect,0.237500X-0.250000X-0.237500X0.250000X-0.237500X0.250000X0.237500X-0.250000X0.237500X0*%
%ADD18R,1.000000X1.800000*%
%ADD19R,0.600000X1.300000*%
%ADD20R,2.000000X1.350000*%
%ADD21O,2.000000X1.350000*%
%ADD22RoundRect,0.250000X0.292217X0.292217X-0.292217X0.292217X-0.292217X-0.292217X0.292217X-0.292217X0*%
%ADD23RoundRect,0.050000X0.387500X0.050000X-0.387500X0.050000X-0.387500X-0.050000X0.387500X-0.050000X0*%
%ADD24RoundRect,0.050000X0.050000X0.387500X-0.050000X0.387500X-0.050000X-0.387500X0.050000X-0.387500X0*%
%ADD25R,0.600000X0.510000*%
%ADD26R,0.900000X0.700000*%
%ADD27R,1.050000X0.650000*%
%ADD28R,0.650000X1.525000*%
%ADD29R,2.390000X2.390000*%
%ADD30R,0.250000X0.675000*%
%ADD31R,0.575000X0.250000*%
%ADD32RoundRect,0.250000X0.325000X0.650000X-0.325000X0.650000X-0.325000X-0.650000X0.325000X-0.650000X0*%
%ADD33R,0.600000X1.140000*%
%ADD34R,0.300000X1.140000*%
%ADD35RoundRect,0.150000X-0.150000X0.712500X-0.150000X-0.712500X0.150000X-0.712500X0.150000X0.712500X0*%
%ADD36RoundRect,0.250000X-0.312500X-0.625000X0.312500X-0.625000X0.312500X0.625000X-0.312500X0.625000X0*%
G04 APERTURE END LIST*
D10*
%TO.C,R73*%
X141037800Y-124353400D03*
X142587800Y-124353400D03*
%TD*%
D11*
%TO.C,IC13*%
X175296200Y-124201000D03*
X175296200Y-122931000D03*
X175296200Y-121661000D03*
X175296200Y-120391000D03*
X168096200Y-120391000D03*
X168096200Y-121661000D03*
X168096200Y-122931000D03*
X168096200Y-124201000D03*
%TD*%
D12*
%TO.C,R82*%
X150982800Y-107818000D03*
X149432800Y-107818000D03*
%TD*%
D10*
%TO.C,C118*%
X161396200Y-99131200D03*
X162946200Y-99131200D03*
%TD*%
D12*
%TO.C,R78*%
X156901000Y-122804000D03*
X155351000Y-122804000D03*
%TD*%
D13*
%TO.C,C115*%
X152519200Y-127352400D03*
X152519200Y-124402400D03*
%TD*%
D14*
%TO.C,C120*%
X154475000Y-102243000D03*
X154475000Y-100693000D03*
%TD*%
D15*
%TO.C,Y7*%
X165270000Y-105834800D03*
X164320000Y-105834800D03*
X163370000Y-105834800D03*
X163370000Y-108109800D03*
X165270000Y-108109800D03*
%TD*%
D16*
%TO.C,R80*%
X154475000Y-103741000D03*
X154475000Y-105291000D03*
%TD*%
D12*
%TO.C,R71*%
X173411000Y-127833200D03*
X171861000Y-127833200D03*
%TD*%
D14*
%TO.C,R74*%
X163725700Y-120925000D03*
X163725700Y-119375000D03*
%TD*%
%TO.C,D8*%
X170045200Y-117102000D03*
X170045200Y-115552000D03*
%TD*%
D16*
%TO.C,R91*%
X157777000Y-119743000D03*
X157777000Y-121293000D03*
%TD*%
%TO.C,C104*%
X170096000Y-126245400D03*
X170096000Y-127795400D03*
%TD*%
%TO.C,C91*%
X165270000Y-120886000D03*
X165270000Y-122436000D03*
%TD*%
D17*
%TO.C,R72*%
X171594600Y-126283800D03*
X173419600Y-126283800D03*
%TD*%
D12*
%TO.C,C100*%
X156939400Y-111043800D03*
X155389400Y-111043800D03*
%TD*%
D16*
%TO.C,C97*%
X159301000Y-119349000D03*
X159301000Y-120899000D03*
%TD*%
D18*
%TO.C,Y8*%
X159835310Y-99296208D03*
X157335310Y-99296208D03*
%TD*%
D19*
%TO.C,Q11*%
X157025200Y-124522600D03*
X155125200Y-124522600D03*
X156075200Y-126622600D03*
%TD*%
D20*
%TO.C,J30*%
X173144000Y-117114400D03*
D21*
X173144000Y-115114400D03*
X173144000Y-113114400D03*
X173144000Y-111114400D03*
%TD*%
D22*
%TO.C,U13*%
X165025100Y-113039400D03*
X163750100Y-114314400D03*
X163750100Y-113039400D03*
X165025100Y-114314400D03*
D23*
X167825100Y-116276900D03*
X167825100Y-115876900D03*
X167825100Y-115476900D03*
X167825100Y-115076900D03*
X167825100Y-114676900D03*
X167825100Y-114276900D03*
X167825100Y-113876900D03*
X167825100Y-113476900D03*
X167825100Y-113076900D03*
X167825100Y-112676900D03*
X167825100Y-112276900D03*
X167825100Y-111876900D03*
X167825100Y-111476900D03*
X167825100Y-111076900D03*
D24*
X166987600Y-110239400D03*
X166587600Y-110239400D03*
X166187600Y-110239400D03*
X165787600Y-110239400D03*
X165387600Y-110239400D03*
X164987600Y-110239400D03*
X164587600Y-110239400D03*
X164187600Y-110239400D03*
X163787600Y-110239400D03*
X163387600Y-110239400D03*
X162987600Y-110239400D03*
X162587600Y-110239400D03*
X162187600Y-110239400D03*
X161787600Y-110239400D03*
D23*
X160950100Y-111076900D03*
X160950100Y-111476900D03*
X160950100Y-111876900D03*
X160950100Y-112276900D03*
X160950100Y-112676900D03*
X160950100Y-113076900D03*
X160950100Y-113476900D03*
X160950100Y-113876900D03*
X160950100Y-114276900D03*
X160950100Y-114676900D03*
X160950100Y-115076900D03*
X160950100Y-115476900D03*
X160950100Y-115876900D03*
X160950100Y-116276900D03*
D24*
X161787600Y-117114400D03*
X162187600Y-117114400D03*
X162587600Y-117114400D03*
X162987600Y-117114400D03*
X163387600Y-117114400D03*
X163787600Y-117114400D03*
X164187600Y-117114400D03*
X164587600Y-117114400D03*
X164987600Y-117114400D03*
X165387600Y-117114400D03*
X165787600Y-117114400D03*
X166187600Y-117114400D03*
X166587600Y-117114400D03*
X166987600Y-117114400D03*
%TD*%
D10*
%TO.C,C117*%
X156646400Y-107792600D03*
X158196400Y-107792600D03*
%TD*%
D25*
%TO.C,SW4*%
X145829600Y-128131600D03*
X147829600Y-128131600D03*
X146829600Y-128131600D03*
D26*
X143829600Y-129486600D03*
X149829600Y-129486600D03*
%TD*%
D19*
%TO.C,Q10*%
X144104200Y-124177000D03*
X146004200Y-124177000D03*
X145054200Y-122077000D03*
%TD*%
D13*
%TO.C,C114*%
X152544600Y-132026000D03*
X152544600Y-129076000D03*
%TD*%
D16*
%TO.C,R83*%
X147312200Y-118676200D03*
X147312200Y-120226200D03*
%TD*%
D12*
%TO.C,C119*%
X155681800Y-99182000D03*
X154131800Y-99182000D03*
%TD*%
D20*
%TO.C,J31*%
X176192000Y-109101200D03*
D21*
X176192000Y-111101200D03*
X176192000Y-113101200D03*
X176192000Y-115101200D03*
X176192000Y-117101200D03*
%TD*%
D16*
%TO.C,R84*%
X147337600Y-115679000D03*
X147337600Y-117229000D03*
%TD*%
D27*
%TO.C,S7*%
X170002200Y-129450600D03*
X174152200Y-129450600D03*
X170002200Y-131600600D03*
X174152200Y-131600600D03*
%TD*%
D28*
%TO.C,IC16*%
X143146600Y-104967400D03*
X144416600Y-104967400D03*
X145686600Y-104967400D03*
X146956600Y-104967400D03*
X146956600Y-99543400D03*
X145686600Y-99543400D03*
X144416600Y-99543400D03*
X143146600Y-99543400D03*
D29*
X145051600Y-102255400D03*
%TD*%
D14*
%TO.C,C102*%
X152900200Y-102268400D03*
X152900200Y-100718400D03*
%TD*%
D30*
%TO.C,AC4*%
X156771600Y-102439400D03*
D31*
X156708600Y-103252400D03*
X156708600Y-103752400D03*
X156708600Y-104252400D03*
X156708600Y-104752400D03*
D30*
X156771600Y-105565400D03*
X157271600Y-105565400D03*
X157771600Y-105565400D03*
X158271600Y-105565400D03*
X158771600Y-105565400D03*
X159271600Y-105565400D03*
X159771600Y-105565400D03*
X160271600Y-105565400D03*
X160771600Y-105565400D03*
X161271600Y-105565400D03*
D31*
X161334600Y-104752400D03*
X161334600Y-104252400D03*
X161334600Y-103752400D03*
X161334600Y-103252400D03*
D30*
X161271600Y-102439400D03*
X160771600Y-102439400D03*
X160271600Y-102439400D03*
X159771600Y-102439400D03*
X159271600Y-102439400D03*
X158771600Y-102439400D03*
X158271600Y-102439400D03*
X157771600Y-102439400D03*
X157271600Y-102439400D03*
%TD*%
D15*
%TO.C,U15*%
X157812600Y-113157500D03*
X156862600Y-113157500D03*
X155912600Y-113157500D03*
X155912600Y-115432500D03*
X157812600Y-115432500D03*
%TD*%
D32*
%TO.C,C111*%
X150311200Y-122118200D03*
X147361200Y-122118200D03*
%TD*%
D33*
%TO.C,U14*%
X160050000Y-125900000D03*
X160850000Y-125900000D03*
D34*
X161500000Y-125900000D03*
X162000000Y-125900000D03*
X162500000Y-125900000D03*
X163000000Y-125900000D03*
X163500000Y-125900000D03*
X164000000Y-125900000D03*
X164500000Y-125900000D03*
X165000000Y-125900000D03*
D33*
X165650000Y-125900000D03*
X166450000Y-125900000D03*
%TD*%
D16*
%TO.C,C94*%
X160825000Y-119362000D03*
X160825000Y-120912000D03*
%TD*%
D20*
%TO.C,J26*%
X155795800Y-131135200D03*
D21*
X155795800Y-129135200D03*
%TD*%
D27*
%TO.C,S8*%
X141925000Y-108425000D03*
X146075000Y-108425000D03*
X141925000Y-110575000D03*
X146075000Y-110575000D03*
%TD*%
D16*
%TO.C,C106*%
X152747800Y-121317800D03*
X152747800Y-122867800D03*
%TD*%
D28*
%TO.C,IC15*%
X170095000Y-104713400D03*
X171365000Y-104713400D03*
X172635000Y-104713400D03*
X173905000Y-104713400D03*
X173905000Y-99289400D03*
X172635000Y-99289400D03*
X171365000Y-99289400D03*
X170095000Y-99289400D03*
D29*
X172000000Y-102001400D03*
%TD*%
D14*
%TO.C,R75*%
X162349000Y-120925000D03*
X162349000Y-119375000D03*
%TD*%
D16*
%TO.C,R92*%
X158666000Y-123032000D03*
X158666000Y-124582000D03*
%TD*%
D35*
%TO.C,U16*%
X153535200Y-109818900D03*
X152265200Y-109818900D03*
X150995200Y-109818900D03*
X149725200Y-109818900D03*
X149725200Y-117043900D03*
X150995200Y-117043900D03*
X152265200Y-117043900D03*
X153535200Y-117043900D03*
%TD*%
D10*
%TO.C,R70*%
X141025400Y-125801200D03*
X142575400Y-125801200D03*
%TD*%
D36*
%TO.C,R79*%
X151437700Y-119425800D03*
X154362700Y-119425800D03*
%TD*%
D16*
%TO.C,R77*%
X155999000Y-119743000D03*
X155999000Y-121293000D03*
%TD*%
D10*
%TO.C,R50*%
X97037800Y-124353400D03*
X98587800Y-124353400D03*
%TD*%
D11*
%TO.C,IC5*%
X131296200Y-124201000D03*
X131296200Y-122931000D03*
X131296200Y-121661000D03*
X131296200Y-120391000D03*
X124096200Y-120391000D03*
X124096200Y-121661000D03*
X124096200Y-122931000D03*
X124096200Y-124201000D03*
%TD*%
D12*
%TO.C,R59*%
X106982800Y-107818000D03*
X105432800Y-107818000D03*
%TD*%
D10*
%TO.C,C88*%
X117396200Y-99131200D03*
X118946200Y-99131200D03*
%TD*%
D12*
%TO.C,R55*%
X112901000Y-122804000D03*
X111351000Y-122804000D03*
%TD*%
D13*
%TO.C,C85*%
X108519200Y-127352400D03*
X108519200Y-124402400D03*
%TD*%
D14*
%TO.C,C90*%
X110475000Y-102243000D03*
X110475000Y-100693000D03*
%TD*%
D15*
%TO.C,Y5*%
X121270000Y-105834800D03*
X120320000Y-105834800D03*
X119370000Y-105834800D03*
X119370000Y-108109800D03*
X121270000Y-108109800D03*
%TD*%
D16*
%TO.C,R57*%
X110475000Y-103741000D03*
X110475000Y-105291000D03*
%TD*%
D12*
%TO.C,R48*%
X129411000Y-127833200D03*
X127861000Y-127833200D03*
%TD*%
D14*
%TO.C,R51*%
X119725700Y-120925000D03*
X119725700Y-119375000D03*
%TD*%
%TO.C,D6*%
X126045200Y-117102000D03*
X126045200Y-115552000D03*
%TD*%
D16*
%TO.C,R68*%
X113777000Y-119743000D03*
X113777000Y-121293000D03*
%TD*%
%TO.C,C74*%
X126096000Y-126245400D03*
X126096000Y-127795400D03*
%TD*%
%TO.C,C61*%
X121270000Y-120886000D03*
X121270000Y-122436000D03*
%TD*%
D17*
%TO.C,R49*%
X127594600Y-126283800D03*
X129419600Y-126283800D03*
%TD*%
D12*
%TO.C,C70*%
X112939400Y-111043800D03*
X111389400Y-111043800D03*
%TD*%
D16*
%TO.C,C67*%
X115301000Y-119349000D03*
X115301000Y-120899000D03*
%TD*%
D18*
%TO.C,Y6*%
X115835310Y-99296208D03*
X113335310Y-99296208D03*
%TD*%
D19*
%TO.C,Q6*%
X113025200Y-124522600D03*
X111125200Y-124522600D03*
X112075200Y-126622600D03*
%TD*%
D20*
%TO.C,J22*%
X129144000Y-117114400D03*
D21*
X129144000Y-115114400D03*
X129144000Y-113114400D03*
X129144000Y-111114400D03*
%TD*%
D22*
%TO.C,U3*%
X121025100Y-113039400D03*
X119750100Y-114314400D03*
X119750100Y-113039400D03*
X121025100Y-114314400D03*
D23*
X123825100Y-116276900D03*
X123825100Y-115876900D03*
X123825100Y-115476900D03*
X123825100Y-115076900D03*
X123825100Y-114676900D03*
X123825100Y-114276900D03*
X123825100Y-113876900D03*
X123825100Y-113476900D03*
X123825100Y-113076900D03*
X123825100Y-112676900D03*
X123825100Y-112276900D03*
X123825100Y-111876900D03*
X123825100Y-111476900D03*
X123825100Y-111076900D03*
D24*
X122987600Y-110239400D03*
X122587600Y-110239400D03*
X122187600Y-110239400D03*
X121787600Y-110239400D03*
X121387600Y-110239400D03*
X120987600Y-110239400D03*
X120587600Y-110239400D03*
X120187600Y-110239400D03*
X119787600Y-110239400D03*
X119387600Y-110239400D03*
X118987600Y-110239400D03*
X118587600Y-110239400D03*
X118187600Y-110239400D03*
X117787600Y-110239400D03*
D23*
X116950100Y-111076900D03*
X116950100Y-111476900D03*
X116950100Y-111876900D03*
X116950100Y-112276900D03*
X116950100Y-112676900D03*
X116950100Y-113076900D03*
X116950100Y-113476900D03*
X116950100Y-113876900D03*
X116950100Y-114276900D03*
X116950100Y-114676900D03*
X116950100Y-115076900D03*
X116950100Y-115476900D03*
X116950100Y-115876900D03*
X116950100Y-116276900D03*
D24*
X117787600Y-117114400D03*
X118187600Y-117114400D03*
X118587600Y-117114400D03*
X118987600Y-117114400D03*
X119387600Y-117114400D03*
X119787600Y-117114400D03*
X120187600Y-117114400D03*
X120587600Y-117114400D03*
X120987600Y-117114400D03*
X121387600Y-117114400D03*
X121787600Y-117114400D03*
X122187600Y-117114400D03*
X122587600Y-117114400D03*
X122987600Y-117114400D03*
%TD*%
D10*
%TO.C,C87*%
X112646400Y-107792600D03*
X114196400Y-107792600D03*
%TD*%
D25*
%TO.C,SW3*%
X101829600Y-128131600D03*
X103829600Y-128131600D03*
X102829600Y-128131600D03*
D26*
X99829600Y-129486600D03*
X105829600Y-129486600D03*
%TD*%
D19*
%TO.C,Q5*%
X100104200Y-124177000D03*
X102004200Y-124177000D03*
X101054200Y-122077000D03*
%TD*%
D13*
%TO.C,C84*%
X108544600Y-132026000D03*
X108544600Y-129076000D03*
%TD*%
D16*
%TO.C,R60*%
X103312200Y-118676200D03*
X103312200Y-120226200D03*
%TD*%
D12*
%TO.C,C89*%
X111681800Y-99182000D03*
X110131800Y-99182000D03*
%TD*%
D20*
%TO.C,J23*%
X132192000Y-109101200D03*
D21*
X132192000Y-111101200D03*
X132192000Y-113101200D03*
X132192000Y-115101200D03*
X132192000Y-117101200D03*
%TD*%
D16*
%TO.C,R61*%
X103337600Y-115679000D03*
X103337600Y-117229000D03*
%TD*%
D27*
%TO.C,S5*%
X126002200Y-129450600D03*
X130152200Y-129450600D03*
X126002200Y-131600600D03*
X130152200Y-131600600D03*
%TD*%
D28*
%TO.C,IC12*%
X99146600Y-104967400D03*
X100416600Y-104967400D03*
X101686600Y-104967400D03*
X102956600Y-104967400D03*
X102956600Y-99543400D03*
X101686600Y-99543400D03*
X100416600Y-99543400D03*
X99146600Y-99543400D03*
D29*
X101051600Y-102255400D03*
%TD*%
D14*
%TO.C,C72*%
X108900200Y-102268400D03*
X108900200Y-100718400D03*
%TD*%
D30*
%TO.C,AC3*%
X112771600Y-102439400D03*
D31*
X112708600Y-103252400D03*
X112708600Y-103752400D03*
X112708600Y-104252400D03*
X112708600Y-104752400D03*
D30*
X112771600Y-105565400D03*
X113271600Y-105565400D03*
X113771600Y-105565400D03*
X114271600Y-105565400D03*
X114771600Y-105565400D03*
X115271600Y-105565400D03*
X115771600Y-105565400D03*
X116271600Y-105565400D03*
X116771600Y-105565400D03*
X117271600Y-105565400D03*
D31*
X117334600Y-104752400D03*
X117334600Y-104252400D03*
X117334600Y-103752400D03*
X117334600Y-103252400D03*
D30*
X117271600Y-102439400D03*
X116771600Y-102439400D03*
X116271600Y-102439400D03*
X115771600Y-102439400D03*
X115271600Y-102439400D03*
X114771600Y-102439400D03*
X114271600Y-102439400D03*
X113771600Y-102439400D03*
X113271600Y-102439400D03*
%TD*%
D15*
%TO.C,U11*%
X113812600Y-113157500D03*
X112862600Y-113157500D03*
X111912600Y-113157500D03*
X111912600Y-115432500D03*
X113812600Y-115432500D03*
%TD*%
D32*
%TO.C,C81*%
X106311200Y-122118200D03*
X103361200Y-122118200D03*
%TD*%
D33*
%TO.C,U10*%
X116050000Y-125900000D03*
X116850000Y-125900000D03*
D34*
X117500000Y-125900000D03*
X118000000Y-125900000D03*
X118500000Y-125900000D03*
X119000000Y-125900000D03*
X119500000Y-125900000D03*
X120000000Y-125900000D03*
X120500000Y-125900000D03*
X121000000Y-125900000D03*
D33*
X121650000Y-125900000D03*
X122450000Y-125900000D03*
%TD*%
D16*
%TO.C,C64*%
X116825000Y-119362000D03*
X116825000Y-120912000D03*
%TD*%
D20*
%TO.C,J18*%
X111795800Y-131135200D03*
D21*
X111795800Y-129135200D03*
%TD*%
D27*
%TO.C,S6*%
X97925000Y-108425000D03*
X102075000Y-108425000D03*
X97925000Y-110575000D03*
X102075000Y-110575000D03*
%TD*%
D16*
%TO.C,C76*%
X108747800Y-121317800D03*
X108747800Y-122867800D03*
%TD*%
D28*
%TO.C,IC11*%
X126095000Y-104713400D03*
X127365000Y-104713400D03*
X128635000Y-104713400D03*
X129905000Y-104713400D03*
X129905000Y-99289400D03*
X128635000Y-99289400D03*
X127365000Y-99289400D03*
X126095000Y-99289400D03*
D29*
X128000000Y-102001400D03*
%TD*%
D14*
%TO.C,R52*%
X118349000Y-120925000D03*
X118349000Y-119375000D03*
%TD*%
D16*
%TO.C,R69*%
X114666000Y-123032000D03*
X114666000Y-124582000D03*
%TD*%
D35*
%TO.C,U12*%
X109535200Y-109818900D03*
X108265200Y-109818900D03*
X106995200Y-109818900D03*
X105725200Y-109818900D03*
X105725200Y-117043900D03*
X106995200Y-117043900D03*
X108265200Y-117043900D03*
X109535200Y-117043900D03*
%TD*%
D10*
%TO.C,R47*%
X97025400Y-125801200D03*
X98575400Y-125801200D03*
%TD*%
D36*
%TO.C,R56*%
X107437700Y-119425800D03*
X110362700Y-119425800D03*
%TD*%
D16*
%TO.C,R54*%
X111999000Y-119743000D03*
X111999000Y-121293000D03*
%TD*%
D10*
%TO.C,R27*%
X141037800Y-86353400D03*
X142587800Y-86353400D03*
%TD*%
D11*
%TO.C,IC3*%
X175296200Y-86201000D03*
X175296200Y-84931000D03*
X175296200Y-83661000D03*
X175296200Y-82391000D03*
X168096200Y-82391000D03*
X168096200Y-83661000D03*
X168096200Y-84931000D03*
X168096200Y-86201000D03*
%TD*%
D12*
%TO.C,R36*%
X150982800Y-69818000D03*
X149432800Y-69818000D03*
%TD*%
D10*
%TO.C,C58*%
X161396200Y-61131200D03*
X162946200Y-61131200D03*
%TD*%
D12*
%TO.C,R32*%
X156901000Y-84804000D03*
X155351000Y-84804000D03*
%TD*%
D13*
%TO.C,C55*%
X152519200Y-89352400D03*
X152519200Y-86402400D03*
%TD*%
D14*
%TO.C,C60*%
X154475000Y-64243000D03*
X154475000Y-62693000D03*
%TD*%
D15*
%TO.C,Y3*%
X165270000Y-67834800D03*
X164320000Y-67834800D03*
X163370000Y-67834800D03*
X163370000Y-70109800D03*
X165270000Y-70109800D03*
%TD*%
D16*
%TO.C,R34*%
X154475000Y-65741000D03*
X154475000Y-67291000D03*
%TD*%
D12*
%TO.C,R25*%
X173411000Y-89833200D03*
X171861000Y-89833200D03*
%TD*%
D14*
%TO.C,R28*%
X163725700Y-82925000D03*
X163725700Y-81375000D03*
%TD*%
%TO.C,D4*%
X170045200Y-79102000D03*
X170045200Y-77552000D03*
%TD*%
D16*
%TO.C,R45*%
X157777000Y-81743000D03*
X157777000Y-83293000D03*
%TD*%
%TO.C,C44*%
X170096000Y-88245400D03*
X170096000Y-89795400D03*
%TD*%
%TO.C,C24*%
X165270000Y-82886000D03*
X165270000Y-84436000D03*
%TD*%
D17*
%TO.C,R26*%
X171594600Y-88283800D03*
X173419600Y-88283800D03*
%TD*%
D12*
%TO.C,C40*%
X156939400Y-73043800D03*
X155389400Y-73043800D03*
%TD*%
D16*
%TO.C,C32*%
X159301000Y-81349000D03*
X159301000Y-82899000D03*
%TD*%
D18*
%TO.C,Y4*%
X159835310Y-61296208D03*
X157335310Y-61296208D03*
%TD*%
D19*
%TO.C,Q4*%
X157025200Y-86522600D03*
X155125200Y-86522600D03*
X156075200Y-88622600D03*
%TD*%
D20*
%TO.C,J14*%
X173144000Y-79114400D03*
D21*
X173144000Y-77114400D03*
X173144000Y-75114400D03*
X173144000Y-73114400D03*
%TD*%
D22*
%TO.C,U2*%
X165025100Y-75039400D03*
X163750100Y-76314400D03*
X163750100Y-75039400D03*
X165025100Y-76314400D03*
D23*
X167825100Y-78276900D03*
X167825100Y-77876900D03*
X167825100Y-77476900D03*
X167825100Y-77076900D03*
X167825100Y-76676900D03*
X167825100Y-76276900D03*
X167825100Y-75876900D03*
X167825100Y-75476900D03*
X167825100Y-75076900D03*
X167825100Y-74676900D03*
X167825100Y-74276900D03*
X167825100Y-73876900D03*
X167825100Y-73476900D03*
X167825100Y-73076900D03*
D24*
X166987600Y-72239400D03*
X166587600Y-72239400D03*
X166187600Y-72239400D03*
X165787600Y-72239400D03*
X165387600Y-72239400D03*
X164987600Y-72239400D03*
X164587600Y-72239400D03*
X164187600Y-72239400D03*
X163787600Y-72239400D03*
X163387600Y-72239400D03*
X162987600Y-72239400D03*
X162587600Y-72239400D03*
X162187600Y-72239400D03*
X161787600Y-72239400D03*
D23*
X160950100Y-73076900D03*
X160950100Y-73476900D03*
X160950100Y-73876900D03*
X160950100Y-74276900D03*
X160950100Y-74676900D03*
X160950100Y-75076900D03*
X160950100Y-75476900D03*
X160950100Y-75876900D03*
X160950100Y-76276900D03*
X160950100Y-76676900D03*
X160950100Y-77076900D03*
X160950100Y-77476900D03*
X160950100Y-77876900D03*
X160950100Y-78276900D03*
D24*
X161787600Y-79114400D03*
X162187600Y-79114400D03*
X162587600Y-79114400D03*
X162987600Y-79114400D03*
X163387600Y-79114400D03*
X163787600Y-79114400D03*
X164187600Y-79114400D03*
X164587600Y-79114400D03*
X164987600Y-79114400D03*
X165387600Y-79114400D03*
X165787600Y-79114400D03*
X166187600Y-79114400D03*
X166587600Y-79114400D03*
X166987600Y-79114400D03*
%TD*%
D10*
%TO.C,C57*%
X156646400Y-69792600D03*
X158196400Y-69792600D03*
%TD*%
D25*
%TO.C,SW2*%
X145829600Y-90131600D03*
X147829600Y-90131600D03*
X146829600Y-90131600D03*
D26*
X143829600Y-91486600D03*
X149829600Y-91486600D03*
%TD*%
D19*
%TO.C,Q3*%
X144104200Y-86177000D03*
X146004200Y-86177000D03*
X145054200Y-84077000D03*
%TD*%
D13*
%TO.C,C54*%
X152544600Y-94026000D03*
X152544600Y-91076000D03*
%TD*%
D16*
%TO.C,R37*%
X147312200Y-80676200D03*
X147312200Y-82226200D03*
%TD*%
D12*
%TO.C,C59*%
X155681800Y-61182000D03*
X154131800Y-61182000D03*
%TD*%
D20*
%TO.C,J15*%
X176192000Y-71101200D03*
D21*
X176192000Y-73101200D03*
X176192000Y-75101200D03*
X176192000Y-77101200D03*
X176192000Y-79101200D03*
%TD*%
D16*
%TO.C,R38*%
X147337600Y-77679000D03*
X147337600Y-79229000D03*
%TD*%
D27*
%TO.C,S3*%
X170002200Y-91450600D03*
X174152200Y-91450600D03*
X170002200Y-93600600D03*
X174152200Y-93600600D03*
%TD*%
D28*
%TO.C,IC10*%
X143146600Y-66967400D03*
X144416600Y-66967400D03*
X145686600Y-66967400D03*
X146956600Y-66967400D03*
X146956600Y-61543400D03*
X145686600Y-61543400D03*
X144416600Y-61543400D03*
X143146600Y-61543400D03*
D29*
X145051600Y-64255400D03*
%TD*%
D14*
%TO.C,C42*%
X152900200Y-64268400D03*
X152900200Y-62718400D03*
%TD*%
D30*
%TO.C,AC2*%
X156771600Y-64439400D03*
D31*
X156708600Y-65252400D03*
X156708600Y-65752400D03*
X156708600Y-66252400D03*
X156708600Y-66752400D03*
D30*
X156771600Y-67565400D03*
X157271600Y-67565400D03*
X157771600Y-67565400D03*
X158271600Y-67565400D03*
X158771600Y-67565400D03*
X159271600Y-67565400D03*
X159771600Y-67565400D03*
X160271600Y-67565400D03*
X160771600Y-67565400D03*
X161271600Y-67565400D03*
D31*
X161334600Y-66752400D03*
X161334600Y-66252400D03*
X161334600Y-65752400D03*
X161334600Y-65252400D03*
D30*
X161271600Y-64439400D03*
X160771600Y-64439400D03*
X160271600Y-64439400D03*
X159771600Y-64439400D03*
X159271600Y-64439400D03*
X158771600Y-64439400D03*
X158271600Y-64439400D03*
X157771600Y-64439400D03*
X157271600Y-64439400D03*
%TD*%
D15*
%TO.C,U8*%
X157812600Y-75157500D03*
X156862600Y-75157500D03*
X155912600Y-75157500D03*
X155912600Y-77432500D03*
X157812600Y-77432500D03*
%TD*%
D32*
%TO.C,C51*%
X150311200Y-84118200D03*
X147361200Y-84118200D03*
%TD*%
D33*
%TO.C,U7*%
X160050000Y-87900000D03*
X160850000Y-87900000D03*
D34*
X161500000Y-87900000D03*
X162000000Y-87900000D03*
X162500000Y-87900000D03*
X163000000Y-87900000D03*
X163500000Y-87900000D03*
X164000000Y-87900000D03*
X164500000Y-87900000D03*
X165000000Y-87900000D03*
D33*
X165650000Y-87900000D03*
X166450000Y-87900000D03*
%TD*%
D16*
%TO.C,C28*%
X160825000Y-81362000D03*
X160825000Y-82912000D03*
%TD*%
D20*
%TO.C,J8*%
X155795800Y-93135200D03*
D21*
X155795800Y-91135200D03*
%TD*%
D27*
%TO.C,S4*%
X141925000Y-70425000D03*
X146075000Y-70425000D03*
X141925000Y-72575000D03*
X146075000Y-72575000D03*
%TD*%
D16*
%TO.C,C46*%
X152747800Y-83317800D03*
X152747800Y-84867800D03*
%TD*%
D28*
%TO.C,IC9*%
X170095000Y-66713400D03*
X171365000Y-66713400D03*
X172635000Y-66713400D03*
X173905000Y-66713400D03*
X173905000Y-61289400D03*
X172635000Y-61289400D03*
X171365000Y-61289400D03*
X170095000Y-61289400D03*
D29*
X172000000Y-64001400D03*
%TD*%
D14*
%TO.C,R29*%
X162349000Y-82925000D03*
X162349000Y-81375000D03*
%TD*%
D16*
%TO.C,R46*%
X158666000Y-85032000D03*
X158666000Y-86582000D03*
%TD*%
D35*
%TO.C,U9*%
X153535200Y-71818900D03*
X152265200Y-71818900D03*
X150995200Y-71818900D03*
X149725200Y-71818900D03*
X149725200Y-79043900D03*
X150995200Y-79043900D03*
X152265200Y-79043900D03*
X153535200Y-79043900D03*
%TD*%
D10*
%TO.C,R24*%
X141025400Y-87801200D03*
X142575400Y-87801200D03*
%TD*%
D36*
%TO.C,R33*%
X151437700Y-81425800D03*
X154362700Y-81425800D03*
%TD*%
D16*
%TO.C,R31*%
X155999000Y-81743000D03*
X155999000Y-83293000D03*
%TD*%
D28*
%TO.C,IC7*%
X126095000Y-66713400D03*
X127365000Y-66713400D03*
X128635000Y-66713400D03*
X129905000Y-66713400D03*
X129905000Y-61289400D03*
X128635000Y-61289400D03*
X127365000Y-61289400D03*
X126095000Y-61289400D03*
D29*
X128000000Y-64001400D03*
%TD*%
D11*
%TO.C,IC1*%
X131296200Y-86201000D03*
X131296200Y-84931000D03*
X131296200Y-83661000D03*
X131296200Y-82391000D03*
X124096200Y-82391000D03*
X124096200Y-83661000D03*
X124096200Y-84931000D03*
X124096200Y-86201000D03*
%TD*%
D27*
%TO.C,S2*%
X97925000Y-70425000D03*
X102075000Y-70425000D03*
X97925000Y-72575000D03*
X102075000Y-72575000D03*
%TD*%
D16*
%TO.C,R23*%
X114666000Y-85032000D03*
X114666000Y-86582000D03*
%TD*%
D14*
%TO.C,R6*%
X118349000Y-82925000D03*
X118349000Y-81375000D03*
%TD*%
D10*
%TO.C,R4*%
X97037800Y-86353400D03*
X98587800Y-86353400D03*
%TD*%
D16*
%TO.C,C16*%
X108747800Y-83317800D03*
X108747800Y-84867800D03*
%TD*%
D20*
%TO.C,J3*%
X111795800Y-93135200D03*
D21*
X111795800Y-91135200D03*
%TD*%
D36*
%TO.C,R10*%
X107437700Y-81425800D03*
X110362700Y-81425800D03*
%TD*%
D10*
%TO.C,R1*%
X97025400Y-87801200D03*
X98575400Y-87801200D03*
%TD*%
D35*
%TO.C,U6*%
X109535200Y-71818900D03*
X108265200Y-71818900D03*
X106995200Y-71818900D03*
X105725200Y-71818900D03*
X105725200Y-79043900D03*
X106995200Y-79043900D03*
X108265200Y-79043900D03*
X109535200Y-79043900D03*
%TD*%
D16*
%TO.C,R8*%
X111999000Y-81743000D03*
X111999000Y-83293000D03*
%TD*%
D22*
%TO.C,U1*%
X121025100Y-75039400D03*
X119750100Y-76314400D03*
X119750100Y-75039400D03*
X121025100Y-76314400D03*
D23*
X123825100Y-78276900D03*
X123825100Y-77876900D03*
X123825100Y-77476900D03*
X123825100Y-77076900D03*
X123825100Y-76676900D03*
X123825100Y-76276900D03*
X123825100Y-75876900D03*
X123825100Y-75476900D03*
X123825100Y-75076900D03*
X123825100Y-74676900D03*
X123825100Y-74276900D03*
X123825100Y-73876900D03*
X123825100Y-73476900D03*
X123825100Y-73076900D03*
D24*
X122987600Y-72239400D03*
X122587600Y-72239400D03*
X122187600Y-72239400D03*
X121787600Y-72239400D03*
X121387600Y-72239400D03*
X120987600Y-72239400D03*
X120587600Y-72239400D03*
X120187600Y-72239400D03*
X119787600Y-72239400D03*
X119387600Y-72239400D03*
X118987600Y-72239400D03*
X118587600Y-72239400D03*
X118187600Y-72239400D03*
X117787600Y-72239400D03*
D23*
X116950100Y-73076900D03*
X116950100Y-73476900D03*
X116950100Y-73876900D03*
X116950100Y-74276900D03*
X116950100Y-74676900D03*
X116950100Y-75076900D03*
X116950100Y-75476900D03*
X116950100Y-75876900D03*
X116950100Y-76276900D03*
X116950100Y-76676900D03*
X116950100Y-77076900D03*
X116950100Y-77476900D03*
X116950100Y-77876900D03*
X116950100Y-78276900D03*
D24*
X117787600Y-79114400D03*
X118187600Y-79114400D03*
X118587600Y-79114400D03*
X118987600Y-79114400D03*
X119387600Y-79114400D03*
X119787600Y-79114400D03*
X120187600Y-79114400D03*
X120587600Y-79114400D03*
X120987600Y-79114400D03*
X121387600Y-79114400D03*
X121787600Y-79114400D03*
X122187600Y-79114400D03*
X122587600Y-79114400D03*
X122987600Y-79114400D03*
%TD*%
D30*
%TO.C,AC1*%
X112771600Y-64439400D03*
D31*
X112708600Y-65252400D03*
X112708600Y-65752400D03*
X112708600Y-66252400D03*
X112708600Y-66752400D03*
D30*
X112771600Y-67565400D03*
X113271600Y-67565400D03*
X113771600Y-67565400D03*
X114271600Y-67565400D03*
X114771600Y-67565400D03*
X115271600Y-67565400D03*
X115771600Y-67565400D03*
X116271600Y-67565400D03*
X116771600Y-67565400D03*
X117271600Y-67565400D03*
D31*
X117334600Y-66752400D03*
X117334600Y-66252400D03*
X117334600Y-65752400D03*
X117334600Y-65252400D03*
D30*
X117271600Y-64439400D03*
X116771600Y-64439400D03*
X116271600Y-64439400D03*
X115771600Y-64439400D03*
X115271600Y-64439400D03*
X114771600Y-64439400D03*
X114271600Y-64439400D03*
X113771600Y-64439400D03*
X113271600Y-64439400D03*
%TD*%
D16*
%TO.C,C4*%
X116825000Y-81362000D03*
X116825000Y-82912000D03*
%TD*%
D12*
%TO.C,C36*%
X111681800Y-61182000D03*
X110131800Y-61182000D03*
%TD*%
D27*
%TO.C,S1*%
X126002200Y-91450600D03*
X130152200Y-91450600D03*
X126002200Y-93600600D03*
X130152200Y-93600600D03*
%TD*%
D16*
%TO.C,R14*%
X103312200Y-80676200D03*
X103312200Y-82226200D03*
%TD*%
D20*
%TO.C,J7*%
X129144000Y-79114400D03*
D21*
X129144000Y-77114400D03*
X129144000Y-75114400D03*
X129144000Y-73114400D03*
%TD*%
D13*
%TO.C,C26*%
X108544600Y-94026000D03*
X108544600Y-91076000D03*
%TD*%
D32*
%TO.C,C21*%
X106311200Y-84118200D03*
X103361200Y-84118200D03*
%TD*%
D15*
%TO.C,U5*%
X113812600Y-75157500D03*
X112862600Y-75157500D03*
X111912600Y-75157500D03*
X111912600Y-77432500D03*
X113812600Y-77432500D03*
%TD*%
D16*
%TO.C,R15*%
X103337600Y-77679000D03*
X103337600Y-79229000D03*
%TD*%
D14*
%TO.C,C12*%
X108900200Y-64268400D03*
X108900200Y-62718400D03*
%TD*%
D28*
%TO.C,IC8*%
X99146600Y-66967400D03*
X100416600Y-66967400D03*
X101686600Y-66967400D03*
X102956600Y-66967400D03*
X102956600Y-61543400D03*
X101686600Y-61543400D03*
X100416600Y-61543400D03*
X99146600Y-61543400D03*
D29*
X101051600Y-64255400D03*
%TD*%
D20*
%TO.C,J10*%
X132192000Y-71101200D03*
D21*
X132192000Y-73101200D03*
X132192000Y-75101200D03*
X132192000Y-77101200D03*
X132192000Y-79101200D03*
%TD*%
D19*
%TO.C,Q1*%
X100104200Y-86177000D03*
X102004200Y-86177000D03*
X101054200Y-84077000D03*
%TD*%
D25*
%TO.C,SW1*%
X101829600Y-90131600D03*
X103829600Y-90131600D03*
X102829600Y-90131600D03*
D26*
X99829600Y-91486600D03*
X105829600Y-91486600D03*
%TD*%
D10*
%TO.C,C34*%
X112646400Y-69792600D03*
X114196400Y-69792600D03*
%TD*%
D33*
%TO.C,U4*%
X116050000Y-87900000D03*
X116850000Y-87900000D03*
D34*
X117500000Y-87900000D03*
X118000000Y-87900000D03*
X118500000Y-87900000D03*
X119000000Y-87900000D03*
X119500000Y-87900000D03*
X120000000Y-87900000D03*
X120500000Y-87900000D03*
X121000000Y-87900000D03*
D33*
X121650000Y-87900000D03*
X122450000Y-87900000D03*
%TD*%
D12*
%TO.C,R2*%
X129411000Y-89833200D03*
X127861000Y-89833200D03*
%TD*%
D14*
%TO.C,C37*%
X110475000Y-64243000D03*
X110475000Y-62693000D03*
%TD*%
%TO.C,R5*%
X119725700Y-82925000D03*
X119725700Y-81375000D03*
%TD*%
D19*
%TO.C,Q2*%
X113025200Y-86522600D03*
X111125200Y-86522600D03*
X112075200Y-88622600D03*
%TD*%
D16*
%TO.C,C1*%
X121270000Y-82886000D03*
X121270000Y-84436000D03*
%TD*%
D18*
%TO.C,Y2*%
X115835310Y-61296208D03*
X113335310Y-61296208D03*
%TD*%
D16*
%TO.C,R11*%
X110475000Y-65741000D03*
X110475000Y-67291000D03*
%TD*%
D15*
%TO.C,Y1*%
X121270000Y-67834800D03*
X120320000Y-67834800D03*
X119370000Y-67834800D03*
X119370000Y-70109800D03*
X121270000Y-70109800D03*
%TD*%
D16*
%TO.C,C14*%
X126096000Y-88245400D03*
X126096000Y-89795400D03*
%TD*%
%TO.C,R22*%
X113777000Y-81743000D03*
X113777000Y-83293000D03*
%TD*%
%TO.C,C7*%
X115301000Y-81349000D03*
X115301000Y-82899000D03*
%TD*%
D14*
%TO.C,D3*%
X126045200Y-79102000D03*
X126045200Y-77552000D03*
%TD*%
D12*
%TO.C,C10*%
X112939400Y-73043800D03*
X111389400Y-73043800D03*
%TD*%
D17*
%TO.C,R3*%
X127594600Y-88283800D03*
X129419600Y-88283800D03*
%TD*%
D12*
%TO.C,R9*%
X112901000Y-84804000D03*
X111351000Y-84804000D03*
%TD*%
%TO.C,R13*%
X106982800Y-69818000D03*
X105432800Y-69818000D03*
%TD*%
D13*
%TO.C,C30*%
X108519200Y-89352400D03*
X108519200Y-86402400D03*
%TD*%
D10*
%TO.C,C35*%
X117396200Y-61131200D03*
X118946200Y-61131200D03*
%TD*%
M02*
