%TF.GenerationSoftware,KiCad,Pcbnew,(6.0.4)*%
%TF.CreationDate,2022-09-20T15:17:21+09:00*%
%TF.ProjectId,mainboard_p_rev3,6d61696e-626f-4617-9264-5f705f726576,rev?*%
%TF.SameCoordinates,Original*%
%TF.FileFunction,Legend,Bot*%
%TF.FilePolarity,Positive*%
%FSLAX46Y46*%
G04 Gerber Fmt 4.6, Leading zero omitted, Abs format (unit mm)*
G04 Created by KiCad (PCBNEW (6.0.4)) date 2022-09-20 15:17:21*
%MOMM*%
%LPD*%
G01*
G04 APERTURE LIST*
%ADD10C,0.150000*%
%ADD11C,0.254000*%
%ADD12C,0.120000*%
%ADD13C,0.200000*%
G04 APERTURE END LIST*
D10*
%TO.C,J32*%
X176976123Y-106521780D02*
X176976123Y-107236066D01*
X177023742Y-107378923D01*
X177118980Y-107474161D01*
X177261838Y-107521780D01*
X177357076Y-107521780D01*
X176595171Y-106521780D02*
X175976123Y-106521780D01*
X176309457Y-106902733D01*
X176166600Y-106902733D01*
X176071361Y-106950352D01*
X176023742Y-106997971D01*
X175976123Y-107093209D01*
X175976123Y-107331304D01*
X176023742Y-107426542D01*
X176071361Y-107474161D01*
X176166600Y-107521780D01*
X176452314Y-107521780D01*
X176547552Y-107474161D01*
X176595171Y-107426542D01*
X175595171Y-106617019D02*
X175547552Y-106569400D01*
X175452314Y-106521780D01*
X175214219Y-106521780D01*
X175118980Y-106569400D01*
X175071361Y-106617019D01*
X175023742Y-106712257D01*
X175023742Y-106807495D01*
X175071361Y-106950352D01*
X175642790Y-107521780D01*
X175023742Y-107521780D01*
%TO.C,R81*%
X152958857Y-115110580D02*
X153292190Y-114634390D01*
X153530285Y-115110580D02*
X153530285Y-114110580D01*
X153149333Y-114110580D01*
X153054095Y-114158200D01*
X153006476Y-114205819D01*
X152958857Y-114301057D01*
X152958857Y-114443914D01*
X153006476Y-114539152D01*
X153054095Y-114586771D01*
X153149333Y-114634390D01*
X153530285Y-114634390D01*
X152387428Y-114539152D02*
X152482666Y-114491533D01*
X152530285Y-114443914D01*
X152577904Y-114348676D01*
X152577904Y-114301057D01*
X152530285Y-114205819D01*
X152482666Y-114158200D01*
X152387428Y-114110580D01*
X152196952Y-114110580D01*
X152101714Y-114158200D01*
X152054095Y-114205819D01*
X152006476Y-114301057D01*
X152006476Y-114348676D01*
X152054095Y-114443914D01*
X152101714Y-114491533D01*
X152196952Y-114539152D01*
X152387428Y-114539152D01*
X152482666Y-114586771D01*
X152530285Y-114634390D01*
X152577904Y-114729628D01*
X152577904Y-114920104D01*
X152530285Y-115015342D01*
X152482666Y-115062961D01*
X152387428Y-115110580D01*
X152196952Y-115110580D01*
X152101714Y-115062961D01*
X152054095Y-115015342D01*
X152006476Y-114920104D01*
X152006476Y-114729628D01*
X152054095Y-114634390D01*
X152101714Y-114586771D01*
X152196952Y-114539152D01*
X151054095Y-115110580D02*
X151625523Y-115110580D01*
X151339809Y-115110580D02*
X151339809Y-114110580D01*
X151435047Y-114253438D01*
X151530285Y-114348676D01*
X151625523Y-114396295D01*
%TO.C,J28*%
X142762323Y-121012380D02*
X142762323Y-121726666D01*
X142809942Y-121869523D01*
X142905180Y-121964761D01*
X143048038Y-122012380D01*
X143143276Y-122012380D01*
X142333752Y-121107619D02*
X142286133Y-121060000D01*
X142190895Y-121012380D01*
X141952800Y-121012380D01*
X141857561Y-121060000D01*
X141809942Y-121107619D01*
X141762323Y-121202857D01*
X141762323Y-121298095D01*
X141809942Y-121440952D01*
X142381371Y-122012380D01*
X141762323Y-122012380D01*
X141190895Y-121440952D02*
X141286133Y-121393333D01*
X141333752Y-121345714D01*
X141381371Y-121250476D01*
X141381371Y-121202857D01*
X141333752Y-121107619D01*
X141286133Y-121060000D01*
X141190895Y-121012380D01*
X141000419Y-121012380D01*
X140905180Y-121060000D01*
X140857561Y-121107619D01*
X140809942Y-121202857D01*
X140809942Y-121250476D01*
X140857561Y-121345714D01*
X140905180Y-121393333D01*
X141000419Y-121440952D01*
X141190895Y-121440952D01*
X141286133Y-121488571D01*
X141333752Y-121536190D01*
X141381371Y-121631428D01*
X141381371Y-121821904D01*
X141333752Y-121917142D01*
X141286133Y-121964761D01*
X141190895Y-122012380D01*
X141000419Y-122012380D01*
X140905180Y-121964761D01*
X140857561Y-121917142D01*
X140809942Y-121821904D01*
X140809942Y-121631428D01*
X140857561Y-121536190D01*
X140905180Y-121488571D01*
X141000419Y-121440952D01*
%TO.C,R89*%
X171521180Y-102298342D02*
X171044990Y-101965009D01*
X171521180Y-101726914D02*
X170521180Y-101726914D01*
X170521180Y-102107866D01*
X170568800Y-102203104D01*
X170616419Y-102250723D01*
X170711657Y-102298342D01*
X170854514Y-102298342D01*
X170949752Y-102250723D01*
X170997371Y-102203104D01*
X171044990Y-102107866D01*
X171044990Y-101726914D01*
X170949752Y-102869771D02*
X170902133Y-102774533D01*
X170854514Y-102726914D01*
X170759276Y-102679295D01*
X170711657Y-102679295D01*
X170616419Y-102726914D01*
X170568800Y-102774533D01*
X170521180Y-102869771D01*
X170521180Y-103060247D01*
X170568800Y-103155485D01*
X170616419Y-103203104D01*
X170711657Y-103250723D01*
X170759276Y-103250723D01*
X170854514Y-103203104D01*
X170902133Y-103155485D01*
X170949752Y-103060247D01*
X170949752Y-102869771D01*
X170997371Y-102774533D01*
X171044990Y-102726914D01*
X171140228Y-102679295D01*
X171330704Y-102679295D01*
X171425942Y-102726914D01*
X171473561Y-102774533D01*
X171521180Y-102869771D01*
X171521180Y-103060247D01*
X171473561Y-103155485D01*
X171425942Y-103203104D01*
X171330704Y-103250723D01*
X171140228Y-103250723D01*
X171044990Y-103203104D01*
X170997371Y-103155485D01*
X170949752Y-103060247D01*
X171521180Y-103726914D02*
X171521180Y-103917390D01*
X171473561Y-104012628D01*
X171425942Y-104060247D01*
X171283085Y-104155485D01*
X171092609Y-104203104D01*
X170711657Y-104203104D01*
X170616419Y-104155485D01*
X170568800Y-104107866D01*
X170521180Y-104012628D01*
X170521180Y-103822152D01*
X170568800Y-103726914D01*
X170616419Y-103679295D01*
X170711657Y-103631676D01*
X170949752Y-103631676D01*
X171044990Y-103679295D01*
X171092609Y-103726914D01*
X171140228Y-103822152D01*
X171140228Y-104012628D01*
X171092609Y-104107866D01*
X171044990Y-104155485D01*
X170949752Y-104203104D01*
%TO.C,C95*%
X172514742Y-102857142D02*
X172562361Y-102809523D01*
X172609980Y-102666666D01*
X172609980Y-102571428D01*
X172562361Y-102428571D01*
X172467123Y-102333333D01*
X172371885Y-102285714D01*
X172181409Y-102238095D01*
X172038552Y-102238095D01*
X171848076Y-102285714D01*
X171752838Y-102333333D01*
X171657600Y-102428571D01*
X171609980Y-102571428D01*
X171609980Y-102666666D01*
X171657600Y-102809523D01*
X171705219Y-102857142D01*
X172609980Y-103333333D02*
X172609980Y-103523809D01*
X172562361Y-103619047D01*
X172514742Y-103666666D01*
X172371885Y-103761904D01*
X172181409Y-103809523D01*
X171800457Y-103809523D01*
X171705219Y-103761904D01*
X171657600Y-103714285D01*
X171609980Y-103619047D01*
X171609980Y-103428571D01*
X171657600Y-103333333D01*
X171705219Y-103285714D01*
X171800457Y-103238095D01*
X172038552Y-103238095D01*
X172133790Y-103285714D01*
X172181409Y-103333333D01*
X172229028Y-103428571D01*
X172229028Y-103619047D01*
X172181409Y-103714285D01*
X172133790Y-103761904D01*
X172038552Y-103809523D01*
X171609980Y-104714285D02*
X171609980Y-104238095D01*
X172086171Y-104190476D01*
X172038552Y-104238095D01*
X171990933Y-104333333D01*
X171990933Y-104571428D01*
X172038552Y-104666666D01*
X172086171Y-104714285D01*
X172181409Y-104761904D01*
X172419504Y-104761904D01*
X172514742Y-104714285D01*
X172562361Y-104666666D01*
X172609980Y-104571428D01*
X172609980Y-104333333D01*
X172562361Y-104238095D01*
X172514742Y-104190476D01*
%TO.C,R90*%
X145181380Y-101841142D02*
X144705190Y-101507809D01*
X145181380Y-101269714D02*
X144181380Y-101269714D01*
X144181380Y-101650666D01*
X144229000Y-101745904D01*
X144276619Y-101793523D01*
X144371857Y-101841142D01*
X144514714Y-101841142D01*
X144609952Y-101793523D01*
X144657571Y-101745904D01*
X144705190Y-101650666D01*
X144705190Y-101269714D01*
X145181380Y-102317333D02*
X145181380Y-102507809D01*
X145133761Y-102603047D01*
X145086142Y-102650666D01*
X144943285Y-102745904D01*
X144752809Y-102793523D01*
X144371857Y-102793523D01*
X144276619Y-102745904D01*
X144229000Y-102698285D01*
X144181380Y-102603047D01*
X144181380Y-102412571D01*
X144229000Y-102317333D01*
X144276619Y-102269714D01*
X144371857Y-102222095D01*
X144609952Y-102222095D01*
X144705190Y-102269714D01*
X144752809Y-102317333D01*
X144800428Y-102412571D01*
X144800428Y-102603047D01*
X144752809Y-102698285D01*
X144705190Y-102745904D01*
X144609952Y-102793523D01*
X144181380Y-103412571D02*
X144181380Y-103507809D01*
X144229000Y-103603047D01*
X144276619Y-103650666D01*
X144371857Y-103698285D01*
X144562333Y-103745904D01*
X144800428Y-103745904D01*
X144990904Y-103698285D01*
X145086142Y-103650666D01*
X145133761Y-103603047D01*
X145181380Y-103507809D01*
X145181380Y-103412571D01*
X145133761Y-103317333D01*
X145086142Y-103269714D01*
X144990904Y-103222095D01*
X144800428Y-103174476D01*
X144562333Y-103174476D01*
X144371857Y-103222095D01*
X144276619Y-103269714D01*
X144229000Y-103317333D01*
X144181380Y-103412571D01*
%TO.C,R86*%
X161022380Y-127957142D02*
X160546190Y-127623809D01*
X161022380Y-127385714D02*
X160022380Y-127385714D01*
X160022380Y-127766666D01*
X160070000Y-127861904D01*
X160117619Y-127909523D01*
X160212857Y-127957142D01*
X160355714Y-127957142D01*
X160450952Y-127909523D01*
X160498571Y-127861904D01*
X160546190Y-127766666D01*
X160546190Y-127385714D01*
X160450952Y-128528571D02*
X160403333Y-128433333D01*
X160355714Y-128385714D01*
X160260476Y-128338095D01*
X160212857Y-128338095D01*
X160117619Y-128385714D01*
X160070000Y-128433333D01*
X160022380Y-128528571D01*
X160022380Y-128719047D01*
X160070000Y-128814285D01*
X160117619Y-128861904D01*
X160212857Y-128909523D01*
X160260476Y-128909523D01*
X160355714Y-128861904D01*
X160403333Y-128814285D01*
X160450952Y-128719047D01*
X160450952Y-128528571D01*
X160498571Y-128433333D01*
X160546190Y-128385714D01*
X160641428Y-128338095D01*
X160831904Y-128338095D01*
X160927142Y-128385714D01*
X160974761Y-128433333D01*
X161022380Y-128528571D01*
X161022380Y-128719047D01*
X160974761Y-128814285D01*
X160927142Y-128861904D01*
X160831904Y-128909523D01*
X160641428Y-128909523D01*
X160546190Y-128861904D01*
X160498571Y-128814285D01*
X160450952Y-128719047D01*
X160022380Y-129766666D02*
X160022380Y-129576190D01*
X160070000Y-129480952D01*
X160117619Y-129433333D01*
X160260476Y-129338095D01*
X160450952Y-129290476D01*
X160831904Y-129290476D01*
X160927142Y-129338095D01*
X160974761Y-129385714D01*
X161022380Y-129480952D01*
X161022380Y-129671428D01*
X160974761Y-129766666D01*
X160927142Y-129814285D01*
X160831904Y-129861904D01*
X160593809Y-129861904D01*
X160498571Y-129814285D01*
X160450952Y-129766666D01*
X160403333Y-129671428D01*
X160403333Y-129480952D01*
X160450952Y-129385714D01*
X160498571Y-129338095D01*
X160593809Y-129290476D01*
%TO.C,C98*%
X173899942Y-126428342D02*
X173947561Y-126380723D01*
X173995180Y-126237866D01*
X173995180Y-126142628D01*
X173947561Y-125999771D01*
X173852323Y-125904533D01*
X173757085Y-125856914D01*
X173566609Y-125809295D01*
X173423752Y-125809295D01*
X173233276Y-125856914D01*
X173138038Y-125904533D01*
X173042800Y-125999771D01*
X172995180Y-126142628D01*
X172995180Y-126237866D01*
X173042800Y-126380723D01*
X173090419Y-126428342D01*
X173995180Y-126904533D02*
X173995180Y-127095009D01*
X173947561Y-127190247D01*
X173899942Y-127237866D01*
X173757085Y-127333104D01*
X173566609Y-127380723D01*
X173185657Y-127380723D01*
X173090419Y-127333104D01*
X173042800Y-127285485D01*
X172995180Y-127190247D01*
X172995180Y-126999771D01*
X173042800Y-126904533D01*
X173090419Y-126856914D01*
X173185657Y-126809295D01*
X173423752Y-126809295D01*
X173518990Y-126856914D01*
X173566609Y-126904533D01*
X173614228Y-126999771D01*
X173614228Y-127190247D01*
X173566609Y-127285485D01*
X173518990Y-127333104D01*
X173423752Y-127380723D01*
X173423752Y-127952152D02*
X173376133Y-127856914D01*
X173328514Y-127809295D01*
X173233276Y-127761676D01*
X173185657Y-127761676D01*
X173090419Y-127809295D01*
X173042800Y-127856914D01*
X172995180Y-127952152D01*
X172995180Y-128142628D01*
X173042800Y-128237866D01*
X173090419Y-128285485D01*
X173185657Y-128333104D01*
X173233276Y-128333104D01*
X173328514Y-128285485D01*
X173376133Y-128237866D01*
X173423752Y-128142628D01*
X173423752Y-127952152D01*
X173471371Y-127856914D01*
X173518990Y-127809295D01*
X173614228Y-127761676D01*
X173804704Y-127761676D01*
X173899942Y-127809295D01*
X173947561Y-127856914D01*
X173995180Y-127952152D01*
X173995180Y-128142628D01*
X173947561Y-128237866D01*
X173899942Y-128285485D01*
X173804704Y-128333104D01*
X173614228Y-128333104D01*
X173518990Y-128285485D01*
X173471371Y-128237866D01*
X173423752Y-128142628D01*
%TO.C,C109*%
X146450047Y-120803142D02*
X146497666Y-120850761D01*
X146640523Y-120898380D01*
X146735761Y-120898380D01*
X146878619Y-120850761D01*
X146973857Y-120755523D01*
X147021476Y-120660285D01*
X147069095Y-120469809D01*
X147069095Y-120326952D01*
X147021476Y-120136476D01*
X146973857Y-120041238D01*
X146878619Y-119946000D01*
X146735761Y-119898380D01*
X146640523Y-119898380D01*
X146497666Y-119946000D01*
X146450047Y-119993619D01*
X145497666Y-120898380D02*
X146069095Y-120898380D01*
X145783380Y-120898380D02*
X145783380Y-119898380D01*
X145878619Y-120041238D01*
X145973857Y-120136476D01*
X146069095Y-120184095D01*
X144878619Y-119898380D02*
X144783380Y-119898380D01*
X144688142Y-119946000D01*
X144640523Y-119993619D01*
X144592904Y-120088857D01*
X144545285Y-120279333D01*
X144545285Y-120517428D01*
X144592904Y-120707904D01*
X144640523Y-120803142D01*
X144688142Y-120850761D01*
X144783380Y-120898380D01*
X144878619Y-120898380D01*
X144973857Y-120850761D01*
X145021476Y-120803142D01*
X145069095Y-120707904D01*
X145116714Y-120517428D01*
X145116714Y-120279333D01*
X145069095Y-120088857D01*
X145021476Y-119993619D01*
X144973857Y-119946000D01*
X144878619Y-119898380D01*
X144069095Y-120898380D02*
X143878619Y-120898380D01*
X143783380Y-120850761D01*
X143735761Y-120803142D01*
X143640523Y-120660285D01*
X143592904Y-120469809D01*
X143592904Y-120088857D01*
X143640523Y-119993619D01*
X143688142Y-119946000D01*
X143783380Y-119898380D01*
X143973857Y-119898380D01*
X144069095Y-119946000D01*
X144116714Y-119993619D01*
X144164333Y-120088857D01*
X144164333Y-120326952D01*
X144116714Y-120422190D01*
X144069095Y-120469809D01*
X143973857Y-120517428D01*
X143783380Y-120517428D01*
X143688142Y-120469809D01*
X143640523Y-120422190D01*
X143592904Y-120326952D01*
%TO.C,M8*%
X141681980Y-98601076D02*
X140681980Y-98601076D01*
X141396266Y-98934409D01*
X140681980Y-99267742D01*
X141681980Y-99267742D01*
X141110552Y-99886790D02*
X141062933Y-99791552D01*
X141015314Y-99743933D01*
X140920076Y-99696314D01*
X140872457Y-99696314D01*
X140777219Y-99743933D01*
X140729600Y-99791552D01*
X140681980Y-99886790D01*
X140681980Y-100077266D01*
X140729600Y-100172504D01*
X140777219Y-100220123D01*
X140872457Y-100267742D01*
X140920076Y-100267742D01*
X141015314Y-100220123D01*
X141062933Y-100172504D01*
X141110552Y-100077266D01*
X141110552Y-99886790D01*
X141158171Y-99791552D01*
X141205790Y-99743933D01*
X141301028Y-99696314D01*
X141491504Y-99696314D01*
X141586742Y-99743933D01*
X141634361Y-99791552D01*
X141681980Y-99886790D01*
X141681980Y-100077266D01*
X141634361Y-100172504D01*
X141586742Y-100220123D01*
X141491504Y-100267742D01*
X141301028Y-100267742D01*
X141205790Y-100220123D01*
X141158171Y-100172504D01*
X141110552Y-100077266D01*
%TO.C,C108*%
X154751742Y-129431952D02*
X154799361Y-129384333D01*
X154846980Y-129241476D01*
X154846980Y-129146238D01*
X154799361Y-129003380D01*
X154704123Y-128908142D01*
X154608885Y-128860523D01*
X154418409Y-128812904D01*
X154275552Y-128812904D01*
X154085076Y-128860523D01*
X153989838Y-128908142D01*
X153894600Y-129003380D01*
X153846980Y-129146238D01*
X153846980Y-129241476D01*
X153894600Y-129384333D01*
X153942219Y-129431952D01*
X154846980Y-130384333D02*
X154846980Y-129812904D01*
X154846980Y-130098619D02*
X153846980Y-130098619D01*
X153989838Y-130003380D01*
X154085076Y-129908142D01*
X154132695Y-129812904D01*
X153846980Y-131003380D02*
X153846980Y-131098619D01*
X153894600Y-131193857D01*
X153942219Y-131241476D01*
X154037457Y-131289095D01*
X154227933Y-131336714D01*
X154466028Y-131336714D01*
X154656504Y-131289095D01*
X154751742Y-131241476D01*
X154799361Y-131193857D01*
X154846980Y-131098619D01*
X154846980Y-131003380D01*
X154799361Y-130908142D01*
X154751742Y-130860523D01*
X154656504Y-130812904D01*
X154466028Y-130765285D01*
X154227933Y-130765285D01*
X154037457Y-130812904D01*
X153942219Y-130860523D01*
X153894600Y-130908142D01*
X153846980Y-131003380D01*
X154275552Y-131908142D02*
X154227933Y-131812904D01*
X154180314Y-131765285D01*
X154085076Y-131717666D01*
X154037457Y-131717666D01*
X153942219Y-131765285D01*
X153894600Y-131812904D01*
X153846980Y-131908142D01*
X153846980Y-132098619D01*
X153894600Y-132193857D01*
X153942219Y-132241476D01*
X154037457Y-132289095D01*
X154085076Y-132289095D01*
X154180314Y-132241476D01*
X154227933Y-132193857D01*
X154275552Y-132098619D01*
X154275552Y-131908142D01*
X154323171Y-131812904D01*
X154370790Y-131765285D01*
X154466028Y-131717666D01*
X154656504Y-131717666D01*
X154751742Y-131765285D01*
X154799361Y-131812904D01*
X154846980Y-131908142D01*
X154846980Y-132098619D01*
X154799361Y-132193857D01*
X154751742Y-132241476D01*
X154656504Y-132289095D01*
X154466028Y-132289095D01*
X154370790Y-132241476D01*
X154323171Y-132193857D01*
X154275552Y-132098619D01*
%TO.C,C113*%
X173149742Y-115231552D02*
X173197361Y-115183933D01*
X173244980Y-115041076D01*
X173244980Y-114945838D01*
X173197361Y-114802980D01*
X173102123Y-114707742D01*
X173006885Y-114660123D01*
X172816409Y-114612504D01*
X172673552Y-114612504D01*
X172483076Y-114660123D01*
X172387838Y-114707742D01*
X172292600Y-114802980D01*
X172244980Y-114945838D01*
X172244980Y-115041076D01*
X172292600Y-115183933D01*
X172340219Y-115231552D01*
X173244980Y-116183933D02*
X173244980Y-115612504D01*
X173244980Y-115898219D02*
X172244980Y-115898219D01*
X172387838Y-115802980D01*
X172483076Y-115707742D01*
X172530695Y-115612504D01*
X173244980Y-117136314D02*
X173244980Y-116564885D01*
X173244980Y-116850600D02*
X172244980Y-116850600D01*
X172387838Y-116755361D01*
X172483076Y-116660123D01*
X172530695Y-116564885D01*
X172244980Y-117469647D02*
X172244980Y-118088695D01*
X172625933Y-117755361D01*
X172625933Y-117898219D01*
X172673552Y-117993457D01*
X172721171Y-118041076D01*
X172816409Y-118088695D01*
X173054504Y-118088695D01*
X173149742Y-118041076D01*
X173197361Y-117993457D01*
X173244980Y-117898219D01*
X173244980Y-117612504D01*
X173197361Y-117517266D01*
X173149742Y-117469647D01*
%TO.C,C96*%
X170688057Y-118850742D02*
X170735676Y-118898361D01*
X170878533Y-118945980D01*
X170973771Y-118945980D01*
X171116628Y-118898361D01*
X171211866Y-118803123D01*
X171259485Y-118707885D01*
X171307104Y-118517409D01*
X171307104Y-118374552D01*
X171259485Y-118184076D01*
X171211866Y-118088838D01*
X171116628Y-117993600D01*
X170973771Y-117945980D01*
X170878533Y-117945980D01*
X170735676Y-117993600D01*
X170688057Y-118041219D01*
X170211866Y-118945980D02*
X170021390Y-118945980D01*
X169926152Y-118898361D01*
X169878533Y-118850742D01*
X169783295Y-118707885D01*
X169735676Y-118517409D01*
X169735676Y-118136457D01*
X169783295Y-118041219D01*
X169830914Y-117993600D01*
X169926152Y-117945980D01*
X170116628Y-117945980D01*
X170211866Y-117993600D01*
X170259485Y-118041219D01*
X170307104Y-118136457D01*
X170307104Y-118374552D01*
X170259485Y-118469790D01*
X170211866Y-118517409D01*
X170116628Y-118565028D01*
X169926152Y-118565028D01*
X169830914Y-118517409D01*
X169783295Y-118469790D01*
X169735676Y-118374552D01*
X168878533Y-117945980D02*
X169069009Y-117945980D01*
X169164247Y-117993600D01*
X169211866Y-118041219D01*
X169307104Y-118184076D01*
X169354723Y-118374552D01*
X169354723Y-118755504D01*
X169307104Y-118850742D01*
X169259485Y-118898361D01*
X169164247Y-118945980D01*
X168973771Y-118945980D01*
X168878533Y-118898361D01*
X168830914Y-118850742D01*
X168783295Y-118755504D01*
X168783295Y-118517409D01*
X168830914Y-118422171D01*
X168878533Y-118374552D01*
X168973771Y-118326933D01*
X169164247Y-118326933D01*
X169259485Y-118374552D01*
X169307104Y-118422171D01*
X169354723Y-118517409D01*
%TO.C,C92*%
X166980942Y-106019142D02*
X167028561Y-105971523D01*
X167076180Y-105828666D01*
X167076180Y-105733428D01*
X167028561Y-105590571D01*
X166933323Y-105495333D01*
X166838085Y-105447714D01*
X166647609Y-105400095D01*
X166504752Y-105400095D01*
X166314276Y-105447714D01*
X166219038Y-105495333D01*
X166123800Y-105590571D01*
X166076180Y-105733428D01*
X166076180Y-105828666D01*
X166123800Y-105971523D01*
X166171419Y-106019142D01*
X167076180Y-106495333D02*
X167076180Y-106685809D01*
X167028561Y-106781047D01*
X166980942Y-106828666D01*
X166838085Y-106923904D01*
X166647609Y-106971523D01*
X166266657Y-106971523D01*
X166171419Y-106923904D01*
X166123800Y-106876285D01*
X166076180Y-106781047D01*
X166076180Y-106590571D01*
X166123800Y-106495333D01*
X166171419Y-106447714D01*
X166266657Y-106400095D01*
X166504752Y-106400095D01*
X166599990Y-106447714D01*
X166647609Y-106495333D01*
X166695228Y-106590571D01*
X166695228Y-106781047D01*
X166647609Y-106876285D01*
X166599990Y-106923904D01*
X166504752Y-106971523D01*
X166171419Y-107352476D02*
X166123800Y-107400095D01*
X166076180Y-107495333D01*
X166076180Y-107733428D01*
X166123800Y-107828666D01*
X166171419Y-107876285D01*
X166266657Y-107923904D01*
X166361895Y-107923904D01*
X166504752Y-107876285D01*
X167076180Y-107304857D01*
X167076180Y-107923904D01*
%TO.C,M7*%
X168798780Y-98804276D02*
X167798780Y-98804276D01*
X168513066Y-99137609D01*
X167798780Y-99470942D01*
X168798780Y-99470942D01*
X167798780Y-99851895D02*
X167798780Y-100518561D01*
X168798780Y-100089990D01*
%TO.C,R85*%
X163722380Y-128057142D02*
X163246190Y-127723809D01*
X163722380Y-127485714D02*
X162722380Y-127485714D01*
X162722380Y-127866666D01*
X162770000Y-127961904D01*
X162817619Y-128009523D01*
X162912857Y-128057142D01*
X163055714Y-128057142D01*
X163150952Y-128009523D01*
X163198571Y-127961904D01*
X163246190Y-127866666D01*
X163246190Y-127485714D01*
X163150952Y-128628571D02*
X163103333Y-128533333D01*
X163055714Y-128485714D01*
X162960476Y-128438095D01*
X162912857Y-128438095D01*
X162817619Y-128485714D01*
X162770000Y-128533333D01*
X162722380Y-128628571D01*
X162722380Y-128819047D01*
X162770000Y-128914285D01*
X162817619Y-128961904D01*
X162912857Y-129009523D01*
X162960476Y-129009523D01*
X163055714Y-128961904D01*
X163103333Y-128914285D01*
X163150952Y-128819047D01*
X163150952Y-128628571D01*
X163198571Y-128533333D01*
X163246190Y-128485714D01*
X163341428Y-128438095D01*
X163531904Y-128438095D01*
X163627142Y-128485714D01*
X163674761Y-128533333D01*
X163722380Y-128628571D01*
X163722380Y-128819047D01*
X163674761Y-128914285D01*
X163627142Y-128961904D01*
X163531904Y-129009523D01*
X163341428Y-129009523D01*
X163246190Y-128961904D01*
X163198571Y-128914285D01*
X163150952Y-128819047D01*
X162722380Y-129914285D02*
X162722380Y-129438095D01*
X163198571Y-129390476D01*
X163150952Y-129438095D01*
X163103333Y-129533333D01*
X163103333Y-129771428D01*
X163150952Y-129866666D01*
X163198571Y-129914285D01*
X163293809Y-129961904D01*
X163531904Y-129961904D01*
X163627142Y-129914285D01*
X163674761Y-129866666D01*
X163722380Y-129771428D01*
X163722380Y-129533333D01*
X163674761Y-129438095D01*
X163627142Y-129390476D01*
%TO.C,C93*%
X163626857Y-107049942D02*
X163674476Y-107097561D01*
X163817333Y-107145180D01*
X163912571Y-107145180D01*
X164055428Y-107097561D01*
X164150666Y-107002323D01*
X164198285Y-106907085D01*
X164245904Y-106716609D01*
X164245904Y-106573752D01*
X164198285Y-106383276D01*
X164150666Y-106288038D01*
X164055428Y-106192800D01*
X163912571Y-106145180D01*
X163817333Y-106145180D01*
X163674476Y-106192800D01*
X163626857Y-106240419D01*
X163150666Y-107145180D02*
X162960190Y-107145180D01*
X162864952Y-107097561D01*
X162817333Y-107049942D01*
X162722095Y-106907085D01*
X162674476Y-106716609D01*
X162674476Y-106335657D01*
X162722095Y-106240419D01*
X162769714Y-106192800D01*
X162864952Y-106145180D01*
X163055428Y-106145180D01*
X163150666Y-106192800D01*
X163198285Y-106240419D01*
X163245904Y-106335657D01*
X163245904Y-106573752D01*
X163198285Y-106668990D01*
X163150666Y-106716609D01*
X163055428Y-106764228D01*
X162864952Y-106764228D01*
X162769714Y-106716609D01*
X162722095Y-106668990D01*
X162674476Y-106573752D01*
X162341142Y-106145180D02*
X161722095Y-106145180D01*
X162055428Y-106526133D01*
X161912571Y-106526133D01*
X161817333Y-106573752D01*
X161769714Y-106621371D01*
X161722095Y-106716609D01*
X161722095Y-106954704D01*
X161769714Y-107049942D01*
X161817333Y-107097561D01*
X161912571Y-107145180D01*
X162198285Y-107145180D01*
X162293523Y-107097561D01*
X162341142Y-107049942D01*
%TO.C,C101*%
X167082542Y-122624752D02*
X167130161Y-122577133D01*
X167177780Y-122434276D01*
X167177780Y-122339038D01*
X167130161Y-122196180D01*
X167034923Y-122100942D01*
X166939685Y-122053323D01*
X166749209Y-122005704D01*
X166606352Y-122005704D01*
X166415876Y-122053323D01*
X166320638Y-122100942D01*
X166225400Y-122196180D01*
X166177780Y-122339038D01*
X166177780Y-122434276D01*
X166225400Y-122577133D01*
X166273019Y-122624752D01*
X167177780Y-123577133D02*
X167177780Y-123005704D01*
X167177780Y-123291419D02*
X166177780Y-123291419D01*
X166320638Y-123196180D01*
X166415876Y-123100942D01*
X166463495Y-123005704D01*
X166177780Y-124196180D02*
X166177780Y-124291419D01*
X166225400Y-124386657D01*
X166273019Y-124434276D01*
X166368257Y-124481895D01*
X166558733Y-124529514D01*
X166796828Y-124529514D01*
X166987304Y-124481895D01*
X167082542Y-124434276D01*
X167130161Y-124386657D01*
X167177780Y-124291419D01*
X167177780Y-124196180D01*
X167130161Y-124100942D01*
X167082542Y-124053323D01*
X166987304Y-124005704D01*
X166796828Y-123958085D01*
X166558733Y-123958085D01*
X166368257Y-124005704D01*
X166273019Y-124053323D01*
X166225400Y-124100942D01*
X166177780Y-124196180D01*
X167177780Y-125481895D02*
X167177780Y-124910466D01*
X167177780Y-125196180D02*
X166177780Y-125196180D01*
X166320638Y-125100942D01*
X166415876Y-125005704D01*
X166463495Y-124910466D01*
%TO.C,D7*%
X158997980Y-120999104D02*
X157997980Y-120999104D01*
X157997980Y-121237200D01*
X158045600Y-121380057D01*
X158140838Y-121475295D01*
X158236076Y-121522914D01*
X158426552Y-121570533D01*
X158569409Y-121570533D01*
X158759885Y-121522914D01*
X158855123Y-121475295D01*
X158950361Y-121380057D01*
X158997980Y-121237200D01*
X158997980Y-120999104D01*
X157997980Y-121903866D02*
X157997980Y-122570533D01*
X158997980Y-122141961D01*
%TO.C,C99*%
X157276857Y-120450942D02*
X157324476Y-120498561D01*
X157467333Y-120546180D01*
X157562571Y-120546180D01*
X157705428Y-120498561D01*
X157800666Y-120403323D01*
X157848285Y-120308085D01*
X157895904Y-120117609D01*
X157895904Y-119974752D01*
X157848285Y-119784276D01*
X157800666Y-119689038D01*
X157705428Y-119593800D01*
X157562571Y-119546180D01*
X157467333Y-119546180D01*
X157324476Y-119593800D01*
X157276857Y-119641419D01*
X156800666Y-120546180D02*
X156610190Y-120546180D01*
X156514952Y-120498561D01*
X156467333Y-120450942D01*
X156372095Y-120308085D01*
X156324476Y-120117609D01*
X156324476Y-119736657D01*
X156372095Y-119641419D01*
X156419714Y-119593800D01*
X156514952Y-119546180D01*
X156705428Y-119546180D01*
X156800666Y-119593800D01*
X156848285Y-119641419D01*
X156895904Y-119736657D01*
X156895904Y-119974752D01*
X156848285Y-120069990D01*
X156800666Y-120117609D01*
X156705428Y-120165228D01*
X156514952Y-120165228D01*
X156419714Y-120117609D01*
X156372095Y-120069990D01*
X156324476Y-119974752D01*
X155848285Y-120546180D02*
X155657809Y-120546180D01*
X155562571Y-120498561D01*
X155514952Y-120450942D01*
X155419714Y-120308085D01*
X155372095Y-120117609D01*
X155372095Y-119736657D01*
X155419714Y-119641419D01*
X155467333Y-119593800D01*
X155562571Y-119546180D01*
X155753047Y-119546180D01*
X155848285Y-119593800D01*
X155895904Y-119641419D01*
X155943523Y-119736657D01*
X155943523Y-119974752D01*
X155895904Y-120069990D01*
X155848285Y-120117609D01*
X155753047Y-120165228D01*
X155562571Y-120165228D01*
X155467333Y-120117609D01*
X155419714Y-120069990D01*
X155372095Y-119974752D01*
%TO.C,C107*%
X164319047Y-133907142D02*
X164366666Y-133954761D01*
X164509523Y-134002380D01*
X164604761Y-134002380D01*
X164747619Y-133954761D01*
X164842857Y-133859523D01*
X164890476Y-133764285D01*
X164938095Y-133573809D01*
X164938095Y-133430952D01*
X164890476Y-133240476D01*
X164842857Y-133145238D01*
X164747619Y-133050000D01*
X164604761Y-133002380D01*
X164509523Y-133002380D01*
X164366666Y-133050000D01*
X164319047Y-133097619D01*
X163366666Y-134002380D02*
X163938095Y-134002380D01*
X163652380Y-134002380D02*
X163652380Y-133002380D01*
X163747619Y-133145238D01*
X163842857Y-133240476D01*
X163938095Y-133288095D01*
X162747619Y-133002380D02*
X162652380Y-133002380D01*
X162557142Y-133050000D01*
X162509523Y-133097619D01*
X162461904Y-133192857D01*
X162414285Y-133383333D01*
X162414285Y-133621428D01*
X162461904Y-133811904D01*
X162509523Y-133907142D01*
X162557142Y-133954761D01*
X162652380Y-134002380D01*
X162747619Y-134002380D01*
X162842857Y-133954761D01*
X162890476Y-133907142D01*
X162938095Y-133811904D01*
X162985714Y-133621428D01*
X162985714Y-133383333D01*
X162938095Y-133192857D01*
X162890476Y-133097619D01*
X162842857Y-133050000D01*
X162747619Y-133002380D01*
X162080952Y-133002380D02*
X161414285Y-133002380D01*
X161842857Y-134002380D01*
D11*
%TO.C,Q12*%
X156353914Y-126293476D02*
X156474866Y-126233000D01*
X156595819Y-126112047D01*
X156777247Y-125930619D01*
X156898200Y-125870142D01*
X157019152Y-125870142D01*
X156958676Y-126172523D02*
X157079628Y-126112047D01*
X157200580Y-125991095D01*
X157261057Y-125749190D01*
X157261057Y-125325857D01*
X157200580Y-125083952D01*
X157079628Y-124963000D01*
X156958676Y-124902523D01*
X156716771Y-124902523D01*
X156595819Y-124963000D01*
X156474866Y-125083952D01*
X156414390Y-125325857D01*
X156414390Y-125749190D01*
X156474866Y-125991095D01*
X156595819Y-126112047D01*
X156716771Y-126172523D01*
X156958676Y-126172523D01*
X155204866Y-126172523D02*
X155930580Y-126172523D01*
X155567723Y-126172523D02*
X155567723Y-124902523D01*
X155688676Y-125083952D01*
X155809628Y-125204904D01*
X155930580Y-125265380D01*
X154721057Y-125023476D02*
X154660580Y-124963000D01*
X154539628Y-124902523D01*
X154237247Y-124902523D01*
X154116295Y-124963000D01*
X154055819Y-125023476D01*
X153995342Y-125144428D01*
X153995342Y-125265380D01*
X154055819Y-125446809D01*
X154781533Y-126172523D01*
X153995342Y-126172523D01*
%TO.C,IC14*%
X152153923Y-117352676D02*
X150883923Y-117352676D01*
X152032971Y-118683152D02*
X152093447Y-118622676D01*
X152153923Y-118441247D01*
X152153923Y-118320295D01*
X152093447Y-118138866D01*
X151972495Y-118017914D01*
X151851542Y-117957438D01*
X151609638Y-117896961D01*
X151428209Y-117896961D01*
X151186304Y-117957438D01*
X151065352Y-118017914D01*
X150944400Y-118138866D01*
X150883923Y-118320295D01*
X150883923Y-118441247D01*
X150944400Y-118622676D01*
X151004876Y-118683152D01*
X152153923Y-119892676D02*
X152153923Y-119166961D01*
X152153923Y-119529819D02*
X150883923Y-119529819D01*
X151065352Y-119408866D01*
X151186304Y-119287914D01*
X151246780Y-119166961D01*
X151307257Y-120981247D02*
X152153923Y-120981247D01*
X150823447Y-120678866D02*
X151730590Y-120376485D01*
X151730590Y-121162676D01*
D10*
%TO.C,R87*%
X173019780Y-102298342D02*
X172543590Y-101965009D01*
X173019780Y-101726914D02*
X172019780Y-101726914D01*
X172019780Y-102107866D01*
X172067400Y-102203104D01*
X172115019Y-102250723D01*
X172210257Y-102298342D01*
X172353114Y-102298342D01*
X172448352Y-102250723D01*
X172495971Y-102203104D01*
X172543590Y-102107866D01*
X172543590Y-101726914D01*
X172448352Y-102869771D02*
X172400733Y-102774533D01*
X172353114Y-102726914D01*
X172257876Y-102679295D01*
X172210257Y-102679295D01*
X172115019Y-102726914D01*
X172067400Y-102774533D01*
X172019780Y-102869771D01*
X172019780Y-103060247D01*
X172067400Y-103155485D01*
X172115019Y-103203104D01*
X172210257Y-103250723D01*
X172257876Y-103250723D01*
X172353114Y-103203104D01*
X172400733Y-103155485D01*
X172448352Y-103060247D01*
X172448352Y-102869771D01*
X172495971Y-102774533D01*
X172543590Y-102726914D01*
X172638828Y-102679295D01*
X172829304Y-102679295D01*
X172924542Y-102726914D01*
X172972161Y-102774533D01*
X173019780Y-102869771D01*
X173019780Y-103060247D01*
X172972161Y-103155485D01*
X172924542Y-103203104D01*
X172829304Y-103250723D01*
X172638828Y-103250723D01*
X172543590Y-103203104D01*
X172495971Y-103155485D01*
X172448352Y-103060247D01*
X172019780Y-103584057D02*
X172019780Y-104250723D01*
X173019780Y-103822152D01*
%TO.C,C103*%
X171240447Y-112221342D02*
X171288066Y-112268961D01*
X171430923Y-112316580D01*
X171526161Y-112316580D01*
X171669019Y-112268961D01*
X171764257Y-112173723D01*
X171811876Y-112078485D01*
X171859495Y-111888009D01*
X171859495Y-111745152D01*
X171811876Y-111554676D01*
X171764257Y-111459438D01*
X171669019Y-111364200D01*
X171526161Y-111316580D01*
X171430923Y-111316580D01*
X171288066Y-111364200D01*
X171240447Y-111411819D01*
X170288066Y-112316580D02*
X170859495Y-112316580D01*
X170573780Y-112316580D02*
X170573780Y-111316580D01*
X170669019Y-111459438D01*
X170764257Y-111554676D01*
X170859495Y-111602295D01*
X169669019Y-111316580D02*
X169573780Y-111316580D01*
X169478542Y-111364200D01*
X169430923Y-111411819D01*
X169383304Y-111507057D01*
X169335685Y-111697533D01*
X169335685Y-111935628D01*
X169383304Y-112126104D01*
X169430923Y-112221342D01*
X169478542Y-112268961D01*
X169573780Y-112316580D01*
X169669019Y-112316580D01*
X169764257Y-112268961D01*
X169811876Y-112221342D01*
X169859495Y-112126104D01*
X169907114Y-111935628D01*
X169907114Y-111697533D01*
X169859495Y-111507057D01*
X169811876Y-111411819D01*
X169764257Y-111364200D01*
X169669019Y-111316580D01*
X169002352Y-111316580D02*
X168383304Y-111316580D01*
X168716638Y-111697533D01*
X168573780Y-111697533D01*
X168478542Y-111745152D01*
X168430923Y-111792771D01*
X168383304Y-111888009D01*
X168383304Y-112126104D01*
X168430923Y-112221342D01*
X168478542Y-112268961D01*
X168573780Y-112316580D01*
X168859495Y-112316580D01*
X168954733Y-112268961D01*
X169002352Y-112221342D01*
%TO.C,J25*%
X141309523Y-123452380D02*
X141309523Y-124166666D01*
X141357142Y-124309523D01*
X141452380Y-124404761D01*
X141595238Y-124452380D01*
X141690476Y-124452380D01*
X140880952Y-123547619D02*
X140833333Y-123500000D01*
X140738095Y-123452380D01*
X140500000Y-123452380D01*
X140404761Y-123500000D01*
X140357142Y-123547619D01*
X140309523Y-123642857D01*
X140309523Y-123738095D01*
X140357142Y-123880952D01*
X140928571Y-124452380D01*
X140309523Y-124452380D01*
X139404761Y-123452380D02*
X139880952Y-123452380D01*
X139928571Y-123928571D01*
X139880952Y-123880952D01*
X139785714Y-123833333D01*
X139547619Y-123833333D01*
X139452380Y-123880952D01*
X139404761Y-123928571D01*
X139357142Y-124023809D01*
X139357142Y-124261904D01*
X139404761Y-124357142D01*
X139452380Y-124404761D01*
X139547619Y-124452380D01*
X139785714Y-124452380D01*
X139880952Y-124404761D01*
X139928571Y-124357142D01*
%TO.C,R76*%
X170738857Y-117421980D02*
X171072190Y-116945790D01*
X171310285Y-117421980D02*
X171310285Y-116421980D01*
X170929333Y-116421980D01*
X170834095Y-116469600D01*
X170786476Y-116517219D01*
X170738857Y-116612457D01*
X170738857Y-116755314D01*
X170786476Y-116850552D01*
X170834095Y-116898171D01*
X170929333Y-116945790D01*
X171310285Y-116945790D01*
X170405523Y-116421980D02*
X169738857Y-116421980D01*
X170167428Y-117421980D01*
X168929333Y-116421980D02*
X169119809Y-116421980D01*
X169215047Y-116469600D01*
X169262666Y-116517219D01*
X169357904Y-116660076D01*
X169405523Y-116850552D01*
X169405523Y-117231504D01*
X169357904Y-117326742D01*
X169310285Y-117374361D01*
X169215047Y-117421980D01*
X169024571Y-117421980D01*
X168929333Y-117374361D01*
X168881714Y-117326742D01*
X168834095Y-117231504D01*
X168834095Y-116993409D01*
X168881714Y-116898171D01*
X168929333Y-116850552D01*
X169024571Y-116802933D01*
X169215047Y-116802933D01*
X169310285Y-116850552D01*
X169357904Y-116898171D01*
X169405523Y-116993409D01*
%TO.C,J29*%
X145886523Y-120966380D02*
X145886523Y-121680666D01*
X145934142Y-121823523D01*
X146029380Y-121918761D01*
X146172238Y-121966380D01*
X146267476Y-121966380D01*
X145457952Y-121061619D02*
X145410333Y-121014000D01*
X145315095Y-120966380D01*
X145077000Y-120966380D01*
X144981761Y-121014000D01*
X144934142Y-121061619D01*
X144886523Y-121156857D01*
X144886523Y-121252095D01*
X144934142Y-121394952D01*
X145505571Y-121966380D01*
X144886523Y-121966380D01*
X144410333Y-121966380D02*
X144219857Y-121966380D01*
X144124619Y-121918761D01*
X144077000Y-121871142D01*
X143981761Y-121728285D01*
X143934142Y-121537809D01*
X143934142Y-121156857D01*
X143981761Y-121061619D01*
X144029380Y-121014000D01*
X144124619Y-120966380D01*
X144315095Y-120966380D01*
X144410333Y-121014000D01*
X144457952Y-121061619D01*
X144505571Y-121156857D01*
X144505571Y-121394952D01*
X144457952Y-121490190D01*
X144410333Y-121537809D01*
X144315095Y-121585428D01*
X144124619Y-121585428D01*
X144029380Y-121537809D01*
X143981761Y-121490190D01*
X143934142Y-121394952D01*
%TO.C,J27*%
X156554523Y-132682380D02*
X156554523Y-133396666D01*
X156602142Y-133539523D01*
X156697380Y-133634761D01*
X156840238Y-133682380D01*
X156935476Y-133682380D01*
X156125952Y-132777619D02*
X156078333Y-132730000D01*
X155983095Y-132682380D01*
X155745000Y-132682380D01*
X155649761Y-132730000D01*
X155602142Y-132777619D01*
X155554523Y-132872857D01*
X155554523Y-132968095D01*
X155602142Y-133110952D01*
X156173571Y-133682380D01*
X155554523Y-133682380D01*
X155221190Y-132682380D02*
X154554523Y-132682380D01*
X154983095Y-133682380D01*
X157199000Y-132760000D02*
X156665666Y-132760000D01*
X156932333Y-133026666D02*
X156932333Y-132493333D01*
X156332333Y-133026666D02*
X156332333Y-132326666D01*
X155932333Y-133026666D01*
X155932333Y-132326666D01*
X155599000Y-133026666D02*
X155599000Y-132560000D01*
X155599000Y-132693333D02*
X155565666Y-132626666D01*
X155532333Y-132593333D01*
X155465666Y-132560000D01*
X155399000Y-132560000D01*
X154932333Y-132660000D02*
X154832333Y-132693333D01*
X154799000Y-132726666D01*
X154765666Y-132793333D01*
X154765666Y-132893333D01*
X154799000Y-132960000D01*
X154832333Y-132993333D01*
X154899000Y-133026666D01*
X155165666Y-133026666D01*
X155165666Y-132326666D01*
X154932333Y-132326666D01*
X154865666Y-132360000D01*
X154832333Y-132393333D01*
X154799000Y-132460000D01*
X154799000Y-132526666D01*
X154832333Y-132593333D01*
X154865666Y-132626666D01*
X154932333Y-132660000D01*
X155165666Y-132660000D01*
%TO.C,C116*%
X173323247Y-110583942D02*
X173370866Y-110631561D01*
X173513723Y-110679180D01*
X173608961Y-110679180D01*
X173751819Y-110631561D01*
X173847057Y-110536323D01*
X173894676Y-110441085D01*
X173942295Y-110250609D01*
X173942295Y-110107752D01*
X173894676Y-109917276D01*
X173847057Y-109822038D01*
X173751819Y-109726800D01*
X173608961Y-109679180D01*
X173513723Y-109679180D01*
X173370866Y-109726800D01*
X173323247Y-109774419D01*
X172370866Y-110679180D02*
X172942295Y-110679180D01*
X172656580Y-110679180D02*
X172656580Y-109679180D01*
X172751819Y-109822038D01*
X172847057Y-109917276D01*
X172942295Y-109964895D01*
X171418485Y-110679180D02*
X171989914Y-110679180D01*
X171704200Y-110679180D02*
X171704200Y-109679180D01*
X171799438Y-109822038D01*
X171894676Y-109917276D01*
X171989914Y-109964895D01*
X170561342Y-109679180D02*
X170751819Y-109679180D01*
X170847057Y-109726800D01*
X170894676Y-109774419D01*
X170989914Y-109917276D01*
X171037533Y-110107752D01*
X171037533Y-110488704D01*
X170989914Y-110583942D01*
X170942295Y-110631561D01*
X170847057Y-110679180D01*
X170656580Y-110679180D01*
X170561342Y-110631561D01*
X170513723Y-110583942D01*
X170466104Y-110488704D01*
X170466104Y-110250609D01*
X170513723Y-110155371D01*
X170561342Y-110107752D01*
X170656580Y-110060133D01*
X170847057Y-110060133D01*
X170942295Y-110107752D01*
X170989914Y-110155371D01*
X171037533Y-110250609D01*
%TO.C,C105*%
X164077647Y-105576742D02*
X164125266Y-105624361D01*
X164268123Y-105671980D01*
X164363361Y-105671980D01*
X164506219Y-105624361D01*
X164601457Y-105529123D01*
X164649076Y-105433885D01*
X164696695Y-105243409D01*
X164696695Y-105100552D01*
X164649076Y-104910076D01*
X164601457Y-104814838D01*
X164506219Y-104719600D01*
X164363361Y-104671980D01*
X164268123Y-104671980D01*
X164125266Y-104719600D01*
X164077647Y-104767219D01*
X163125266Y-105671980D02*
X163696695Y-105671980D01*
X163410980Y-105671980D02*
X163410980Y-104671980D01*
X163506219Y-104814838D01*
X163601457Y-104910076D01*
X163696695Y-104957695D01*
X162506219Y-104671980D02*
X162410980Y-104671980D01*
X162315742Y-104719600D01*
X162268123Y-104767219D01*
X162220504Y-104862457D01*
X162172885Y-105052933D01*
X162172885Y-105291028D01*
X162220504Y-105481504D01*
X162268123Y-105576742D01*
X162315742Y-105624361D01*
X162410980Y-105671980D01*
X162506219Y-105671980D01*
X162601457Y-105624361D01*
X162649076Y-105576742D01*
X162696695Y-105481504D01*
X162744314Y-105291028D01*
X162744314Y-105052933D01*
X162696695Y-104862457D01*
X162649076Y-104767219D01*
X162601457Y-104719600D01*
X162506219Y-104671980D01*
X161268123Y-104671980D02*
X161744314Y-104671980D01*
X161791933Y-105148171D01*
X161744314Y-105100552D01*
X161649076Y-105052933D01*
X161410980Y-105052933D01*
X161315742Y-105100552D01*
X161268123Y-105148171D01*
X161220504Y-105243409D01*
X161220504Y-105481504D01*
X161268123Y-105576742D01*
X161315742Y-105624361D01*
X161410980Y-105671980D01*
X161649076Y-105671980D01*
X161744314Y-105624361D01*
X161791933Y-105576742D01*
%TO.C,C110*%
X151051742Y-124783752D02*
X151099361Y-124736133D01*
X151146980Y-124593276D01*
X151146980Y-124498038D01*
X151099361Y-124355180D01*
X151004123Y-124259942D01*
X150908885Y-124212323D01*
X150718409Y-124164704D01*
X150575552Y-124164704D01*
X150385076Y-124212323D01*
X150289838Y-124259942D01*
X150194600Y-124355180D01*
X150146980Y-124498038D01*
X150146980Y-124593276D01*
X150194600Y-124736133D01*
X150242219Y-124783752D01*
X151146980Y-125736133D02*
X151146980Y-125164704D01*
X151146980Y-125450419D02*
X150146980Y-125450419D01*
X150289838Y-125355180D01*
X150385076Y-125259942D01*
X150432695Y-125164704D01*
X151146980Y-126688514D02*
X151146980Y-126117085D01*
X151146980Y-126402800D02*
X150146980Y-126402800D01*
X150289838Y-126307561D01*
X150385076Y-126212323D01*
X150432695Y-126117085D01*
X150146980Y-127307561D02*
X150146980Y-127402800D01*
X150194600Y-127498038D01*
X150242219Y-127545657D01*
X150337457Y-127593276D01*
X150527933Y-127640895D01*
X150766028Y-127640895D01*
X150956504Y-127593276D01*
X151051742Y-127545657D01*
X151099361Y-127498038D01*
X151146980Y-127402800D01*
X151146980Y-127307561D01*
X151099361Y-127212323D01*
X151051742Y-127164704D01*
X150956504Y-127117085D01*
X150766028Y-127069466D01*
X150527933Y-127069466D01*
X150337457Y-127117085D01*
X150242219Y-127164704D01*
X150194600Y-127212323D01*
X150146980Y-127307561D01*
%TO.C,C112*%
X146606742Y-101263352D02*
X146654361Y-101215733D01*
X146701980Y-101072876D01*
X146701980Y-100977638D01*
X146654361Y-100834780D01*
X146559123Y-100739542D01*
X146463885Y-100691923D01*
X146273409Y-100644304D01*
X146130552Y-100644304D01*
X145940076Y-100691923D01*
X145844838Y-100739542D01*
X145749600Y-100834780D01*
X145701980Y-100977638D01*
X145701980Y-101072876D01*
X145749600Y-101215733D01*
X145797219Y-101263352D01*
X146701980Y-102215733D02*
X146701980Y-101644304D01*
X146701980Y-101930019D02*
X145701980Y-101930019D01*
X145844838Y-101834780D01*
X145940076Y-101739542D01*
X145987695Y-101644304D01*
X146701980Y-103168114D02*
X146701980Y-102596685D01*
X146701980Y-102882400D02*
X145701980Y-102882400D01*
X145844838Y-102787161D01*
X145940076Y-102691923D01*
X145987695Y-102596685D01*
X145797219Y-103549066D02*
X145749600Y-103596685D01*
X145701980Y-103691923D01*
X145701980Y-103930019D01*
X145749600Y-104025257D01*
X145797219Y-104072876D01*
X145892457Y-104120495D01*
X145987695Y-104120495D01*
X146130552Y-104072876D01*
X146701980Y-103501447D01*
X146701980Y-104120495D01*
%TO.C,R88*%
X146654580Y-101841142D02*
X146178390Y-101507809D01*
X146654580Y-101269714D02*
X145654580Y-101269714D01*
X145654580Y-101650666D01*
X145702200Y-101745904D01*
X145749819Y-101793523D01*
X145845057Y-101841142D01*
X145987914Y-101841142D01*
X146083152Y-101793523D01*
X146130771Y-101745904D01*
X146178390Y-101650666D01*
X146178390Y-101269714D01*
X146083152Y-102412571D02*
X146035533Y-102317333D01*
X145987914Y-102269714D01*
X145892676Y-102222095D01*
X145845057Y-102222095D01*
X145749819Y-102269714D01*
X145702200Y-102317333D01*
X145654580Y-102412571D01*
X145654580Y-102603047D01*
X145702200Y-102698285D01*
X145749819Y-102745904D01*
X145845057Y-102793523D01*
X145892676Y-102793523D01*
X145987914Y-102745904D01*
X146035533Y-102698285D01*
X146083152Y-102603047D01*
X146083152Y-102412571D01*
X146130771Y-102317333D01*
X146178390Y-102269714D01*
X146273628Y-102222095D01*
X146464104Y-102222095D01*
X146559342Y-102269714D01*
X146606961Y-102317333D01*
X146654580Y-102412571D01*
X146654580Y-102603047D01*
X146606961Y-102698285D01*
X146559342Y-102745904D01*
X146464104Y-102793523D01*
X146273628Y-102793523D01*
X146178390Y-102745904D01*
X146130771Y-102698285D01*
X146083152Y-102603047D01*
X146083152Y-103364952D02*
X146035533Y-103269714D01*
X145987914Y-103222095D01*
X145892676Y-103174476D01*
X145845057Y-103174476D01*
X145749819Y-103222095D01*
X145702200Y-103269714D01*
X145654580Y-103364952D01*
X145654580Y-103555428D01*
X145702200Y-103650666D01*
X145749819Y-103698285D01*
X145845057Y-103745904D01*
X145892676Y-103745904D01*
X145987914Y-103698285D01*
X146035533Y-103650666D01*
X146083152Y-103555428D01*
X146083152Y-103364952D01*
X146130771Y-103269714D01*
X146178390Y-103222095D01*
X146273628Y-103174476D01*
X146464104Y-103174476D01*
X146559342Y-103222095D01*
X146606961Y-103269714D01*
X146654580Y-103364952D01*
X146654580Y-103555428D01*
X146606961Y-103650666D01*
X146559342Y-103698285D01*
X146464104Y-103745904D01*
X146273628Y-103745904D01*
X146178390Y-103698285D01*
X146130771Y-103650666D01*
X146083152Y-103555428D01*
%TO.C,J24*%
X132976123Y-106521780D02*
X132976123Y-107236066D01*
X133023742Y-107378923D01*
X133118980Y-107474161D01*
X133261838Y-107521780D01*
X133357076Y-107521780D01*
X132547552Y-106617019D02*
X132499933Y-106569400D01*
X132404695Y-106521780D01*
X132166600Y-106521780D01*
X132071361Y-106569400D01*
X132023742Y-106617019D01*
X131976123Y-106712257D01*
X131976123Y-106807495D01*
X132023742Y-106950352D01*
X132595171Y-107521780D01*
X131976123Y-107521780D01*
X131118980Y-106855114D02*
X131118980Y-107521780D01*
X131357076Y-106474161D02*
X131595171Y-107188447D01*
X130976123Y-107188447D01*
%TO.C,R58*%
X108958857Y-115110580D02*
X109292190Y-114634390D01*
X109530285Y-115110580D02*
X109530285Y-114110580D01*
X109149333Y-114110580D01*
X109054095Y-114158200D01*
X109006476Y-114205819D01*
X108958857Y-114301057D01*
X108958857Y-114443914D01*
X109006476Y-114539152D01*
X109054095Y-114586771D01*
X109149333Y-114634390D01*
X109530285Y-114634390D01*
X108054095Y-114110580D02*
X108530285Y-114110580D01*
X108577904Y-114586771D01*
X108530285Y-114539152D01*
X108435047Y-114491533D01*
X108196952Y-114491533D01*
X108101714Y-114539152D01*
X108054095Y-114586771D01*
X108006476Y-114682009D01*
X108006476Y-114920104D01*
X108054095Y-115015342D01*
X108101714Y-115062961D01*
X108196952Y-115110580D01*
X108435047Y-115110580D01*
X108530285Y-115062961D01*
X108577904Y-115015342D01*
X107435047Y-114539152D02*
X107530285Y-114491533D01*
X107577904Y-114443914D01*
X107625523Y-114348676D01*
X107625523Y-114301057D01*
X107577904Y-114205819D01*
X107530285Y-114158200D01*
X107435047Y-114110580D01*
X107244571Y-114110580D01*
X107149333Y-114158200D01*
X107101714Y-114205819D01*
X107054095Y-114301057D01*
X107054095Y-114348676D01*
X107101714Y-114443914D01*
X107149333Y-114491533D01*
X107244571Y-114539152D01*
X107435047Y-114539152D01*
X107530285Y-114586771D01*
X107577904Y-114634390D01*
X107625523Y-114729628D01*
X107625523Y-114920104D01*
X107577904Y-115015342D01*
X107530285Y-115062961D01*
X107435047Y-115110580D01*
X107244571Y-115110580D01*
X107149333Y-115062961D01*
X107101714Y-115015342D01*
X107054095Y-114920104D01*
X107054095Y-114729628D01*
X107101714Y-114634390D01*
X107149333Y-114586771D01*
X107244571Y-114539152D01*
%TO.C,J20*%
X98762323Y-121012380D02*
X98762323Y-121726666D01*
X98809942Y-121869523D01*
X98905180Y-121964761D01*
X99048038Y-122012380D01*
X99143276Y-122012380D01*
X98333752Y-121107619D02*
X98286133Y-121060000D01*
X98190895Y-121012380D01*
X97952800Y-121012380D01*
X97857561Y-121060000D01*
X97809942Y-121107619D01*
X97762323Y-121202857D01*
X97762323Y-121298095D01*
X97809942Y-121440952D01*
X98381371Y-122012380D01*
X97762323Y-122012380D01*
X97143276Y-121012380D02*
X97048038Y-121012380D01*
X96952800Y-121060000D01*
X96905180Y-121107619D01*
X96857561Y-121202857D01*
X96809942Y-121393333D01*
X96809942Y-121631428D01*
X96857561Y-121821904D01*
X96905180Y-121917142D01*
X96952800Y-121964761D01*
X97048038Y-122012380D01*
X97143276Y-122012380D01*
X97238514Y-121964761D01*
X97286133Y-121917142D01*
X97333752Y-121821904D01*
X97381371Y-121631428D01*
X97381371Y-121393333D01*
X97333752Y-121202857D01*
X97286133Y-121107619D01*
X97238514Y-121060000D01*
X97143276Y-121012380D01*
%TO.C,R66*%
X127521180Y-102298342D02*
X127044990Y-101965009D01*
X127521180Y-101726914D02*
X126521180Y-101726914D01*
X126521180Y-102107866D01*
X126568800Y-102203104D01*
X126616419Y-102250723D01*
X126711657Y-102298342D01*
X126854514Y-102298342D01*
X126949752Y-102250723D01*
X126997371Y-102203104D01*
X127044990Y-102107866D01*
X127044990Y-101726914D01*
X126521180Y-103155485D02*
X126521180Y-102965009D01*
X126568800Y-102869771D01*
X126616419Y-102822152D01*
X126759276Y-102726914D01*
X126949752Y-102679295D01*
X127330704Y-102679295D01*
X127425942Y-102726914D01*
X127473561Y-102774533D01*
X127521180Y-102869771D01*
X127521180Y-103060247D01*
X127473561Y-103155485D01*
X127425942Y-103203104D01*
X127330704Y-103250723D01*
X127092609Y-103250723D01*
X126997371Y-103203104D01*
X126949752Y-103155485D01*
X126902133Y-103060247D01*
X126902133Y-102869771D01*
X126949752Y-102774533D01*
X126997371Y-102726914D01*
X127092609Y-102679295D01*
X126521180Y-104107866D02*
X126521180Y-103917390D01*
X126568800Y-103822152D01*
X126616419Y-103774533D01*
X126759276Y-103679295D01*
X126949752Y-103631676D01*
X127330704Y-103631676D01*
X127425942Y-103679295D01*
X127473561Y-103726914D01*
X127521180Y-103822152D01*
X127521180Y-104012628D01*
X127473561Y-104107866D01*
X127425942Y-104155485D01*
X127330704Y-104203104D01*
X127092609Y-104203104D01*
X126997371Y-104155485D01*
X126949752Y-104107866D01*
X126902133Y-104012628D01*
X126902133Y-103822152D01*
X126949752Y-103726914D01*
X126997371Y-103679295D01*
X127092609Y-103631676D01*
%TO.C,C65*%
X128514742Y-102857142D02*
X128562361Y-102809523D01*
X128609980Y-102666666D01*
X128609980Y-102571428D01*
X128562361Y-102428571D01*
X128467123Y-102333333D01*
X128371885Y-102285714D01*
X128181409Y-102238095D01*
X128038552Y-102238095D01*
X127848076Y-102285714D01*
X127752838Y-102333333D01*
X127657600Y-102428571D01*
X127609980Y-102571428D01*
X127609980Y-102666666D01*
X127657600Y-102809523D01*
X127705219Y-102857142D01*
X127609980Y-103714285D02*
X127609980Y-103523809D01*
X127657600Y-103428571D01*
X127705219Y-103380952D01*
X127848076Y-103285714D01*
X128038552Y-103238095D01*
X128419504Y-103238095D01*
X128514742Y-103285714D01*
X128562361Y-103333333D01*
X128609980Y-103428571D01*
X128609980Y-103619047D01*
X128562361Y-103714285D01*
X128514742Y-103761904D01*
X128419504Y-103809523D01*
X128181409Y-103809523D01*
X128086171Y-103761904D01*
X128038552Y-103714285D01*
X127990933Y-103619047D01*
X127990933Y-103428571D01*
X128038552Y-103333333D01*
X128086171Y-103285714D01*
X128181409Y-103238095D01*
X127609980Y-104714285D02*
X127609980Y-104238095D01*
X128086171Y-104190476D01*
X128038552Y-104238095D01*
X127990933Y-104333333D01*
X127990933Y-104571428D01*
X128038552Y-104666666D01*
X128086171Y-104714285D01*
X128181409Y-104761904D01*
X128419504Y-104761904D01*
X128514742Y-104714285D01*
X128562361Y-104666666D01*
X128609980Y-104571428D01*
X128609980Y-104333333D01*
X128562361Y-104238095D01*
X128514742Y-104190476D01*
%TO.C,R67*%
X101181380Y-101841142D02*
X100705190Y-101507809D01*
X101181380Y-101269714D02*
X100181380Y-101269714D01*
X100181380Y-101650666D01*
X100229000Y-101745904D01*
X100276619Y-101793523D01*
X100371857Y-101841142D01*
X100514714Y-101841142D01*
X100609952Y-101793523D01*
X100657571Y-101745904D01*
X100705190Y-101650666D01*
X100705190Y-101269714D01*
X100181380Y-102698285D02*
X100181380Y-102507809D01*
X100229000Y-102412571D01*
X100276619Y-102364952D01*
X100419476Y-102269714D01*
X100609952Y-102222095D01*
X100990904Y-102222095D01*
X101086142Y-102269714D01*
X101133761Y-102317333D01*
X101181380Y-102412571D01*
X101181380Y-102603047D01*
X101133761Y-102698285D01*
X101086142Y-102745904D01*
X100990904Y-102793523D01*
X100752809Y-102793523D01*
X100657571Y-102745904D01*
X100609952Y-102698285D01*
X100562333Y-102603047D01*
X100562333Y-102412571D01*
X100609952Y-102317333D01*
X100657571Y-102269714D01*
X100752809Y-102222095D01*
X100181380Y-103126857D02*
X100181380Y-103793523D01*
X101181380Y-103364952D01*
%TO.C,R63*%
X117022380Y-127957142D02*
X116546190Y-127623809D01*
X117022380Y-127385714D02*
X116022380Y-127385714D01*
X116022380Y-127766666D01*
X116070000Y-127861904D01*
X116117619Y-127909523D01*
X116212857Y-127957142D01*
X116355714Y-127957142D01*
X116450952Y-127909523D01*
X116498571Y-127861904D01*
X116546190Y-127766666D01*
X116546190Y-127385714D01*
X116022380Y-128814285D02*
X116022380Y-128623809D01*
X116070000Y-128528571D01*
X116117619Y-128480952D01*
X116260476Y-128385714D01*
X116450952Y-128338095D01*
X116831904Y-128338095D01*
X116927142Y-128385714D01*
X116974761Y-128433333D01*
X117022380Y-128528571D01*
X117022380Y-128719047D01*
X116974761Y-128814285D01*
X116927142Y-128861904D01*
X116831904Y-128909523D01*
X116593809Y-128909523D01*
X116498571Y-128861904D01*
X116450952Y-128814285D01*
X116403333Y-128719047D01*
X116403333Y-128528571D01*
X116450952Y-128433333D01*
X116498571Y-128385714D01*
X116593809Y-128338095D01*
X116022380Y-129242857D02*
X116022380Y-129861904D01*
X116403333Y-129528571D01*
X116403333Y-129671428D01*
X116450952Y-129766666D01*
X116498571Y-129814285D01*
X116593809Y-129861904D01*
X116831904Y-129861904D01*
X116927142Y-129814285D01*
X116974761Y-129766666D01*
X117022380Y-129671428D01*
X117022380Y-129385714D01*
X116974761Y-129290476D01*
X116927142Y-129242857D01*
%TO.C,C68*%
X129899942Y-126428342D02*
X129947561Y-126380723D01*
X129995180Y-126237866D01*
X129995180Y-126142628D01*
X129947561Y-125999771D01*
X129852323Y-125904533D01*
X129757085Y-125856914D01*
X129566609Y-125809295D01*
X129423752Y-125809295D01*
X129233276Y-125856914D01*
X129138038Y-125904533D01*
X129042800Y-125999771D01*
X128995180Y-126142628D01*
X128995180Y-126237866D01*
X129042800Y-126380723D01*
X129090419Y-126428342D01*
X128995180Y-127285485D02*
X128995180Y-127095009D01*
X129042800Y-126999771D01*
X129090419Y-126952152D01*
X129233276Y-126856914D01*
X129423752Y-126809295D01*
X129804704Y-126809295D01*
X129899942Y-126856914D01*
X129947561Y-126904533D01*
X129995180Y-126999771D01*
X129995180Y-127190247D01*
X129947561Y-127285485D01*
X129899942Y-127333104D01*
X129804704Y-127380723D01*
X129566609Y-127380723D01*
X129471371Y-127333104D01*
X129423752Y-127285485D01*
X129376133Y-127190247D01*
X129376133Y-126999771D01*
X129423752Y-126904533D01*
X129471371Y-126856914D01*
X129566609Y-126809295D01*
X129423752Y-127952152D02*
X129376133Y-127856914D01*
X129328514Y-127809295D01*
X129233276Y-127761676D01*
X129185657Y-127761676D01*
X129090419Y-127809295D01*
X129042800Y-127856914D01*
X128995180Y-127952152D01*
X128995180Y-128142628D01*
X129042800Y-128237866D01*
X129090419Y-128285485D01*
X129185657Y-128333104D01*
X129233276Y-128333104D01*
X129328514Y-128285485D01*
X129376133Y-128237866D01*
X129423752Y-128142628D01*
X129423752Y-127952152D01*
X129471371Y-127856914D01*
X129518990Y-127809295D01*
X129614228Y-127761676D01*
X129804704Y-127761676D01*
X129899942Y-127809295D01*
X129947561Y-127856914D01*
X129995180Y-127952152D01*
X129995180Y-128142628D01*
X129947561Y-128237866D01*
X129899942Y-128285485D01*
X129804704Y-128333104D01*
X129614228Y-128333104D01*
X129518990Y-128285485D01*
X129471371Y-128237866D01*
X129423752Y-128142628D01*
%TO.C,C79*%
X101973857Y-120803142D02*
X102021476Y-120850761D01*
X102164333Y-120898380D01*
X102259571Y-120898380D01*
X102402428Y-120850761D01*
X102497666Y-120755523D01*
X102545285Y-120660285D01*
X102592904Y-120469809D01*
X102592904Y-120326952D01*
X102545285Y-120136476D01*
X102497666Y-120041238D01*
X102402428Y-119946000D01*
X102259571Y-119898380D01*
X102164333Y-119898380D01*
X102021476Y-119946000D01*
X101973857Y-119993619D01*
X101640523Y-119898380D02*
X100973857Y-119898380D01*
X101402428Y-120898380D01*
X100545285Y-120898380D02*
X100354809Y-120898380D01*
X100259571Y-120850761D01*
X100211952Y-120803142D01*
X100116714Y-120660285D01*
X100069095Y-120469809D01*
X100069095Y-120088857D01*
X100116714Y-119993619D01*
X100164333Y-119946000D01*
X100259571Y-119898380D01*
X100450047Y-119898380D01*
X100545285Y-119946000D01*
X100592904Y-119993619D01*
X100640523Y-120088857D01*
X100640523Y-120326952D01*
X100592904Y-120422190D01*
X100545285Y-120469809D01*
X100450047Y-120517428D01*
X100259571Y-120517428D01*
X100164333Y-120469809D01*
X100116714Y-120422190D01*
X100069095Y-120326952D01*
%TO.C,M6*%
X97681980Y-98601076D02*
X96681980Y-98601076D01*
X97396266Y-98934409D01*
X96681980Y-99267742D01*
X97681980Y-99267742D01*
X96681980Y-100172504D02*
X96681980Y-99982028D01*
X96729600Y-99886790D01*
X96777219Y-99839171D01*
X96920076Y-99743933D01*
X97110552Y-99696314D01*
X97491504Y-99696314D01*
X97586742Y-99743933D01*
X97634361Y-99791552D01*
X97681980Y-99886790D01*
X97681980Y-100077266D01*
X97634361Y-100172504D01*
X97586742Y-100220123D01*
X97491504Y-100267742D01*
X97253409Y-100267742D01*
X97158171Y-100220123D01*
X97110552Y-100172504D01*
X97062933Y-100077266D01*
X97062933Y-99886790D01*
X97110552Y-99791552D01*
X97158171Y-99743933D01*
X97253409Y-99696314D01*
%TO.C,C78*%
X110751742Y-129908142D02*
X110799361Y-129860523D01*
X110846980Y-129717666D01*
X110846980Y-129622428D01*
X110799361Y-129479571D01*
X110704123Y-129384333D01*
X110608885Y-129336714D01*
X110418409Y-129289095D01*
X110275552Y-129289095D01*
X110085076Y-129336714D01*
X109989838Y-129384333D01*
X109894600Y-129479571D01*
X109846980Y-129622428D01*
X109846980Y-129717666D01*
X109894600Y-129860523D01*
X109942219Y-129908142D01*
X109846980Y-130241476D02*
X109846980Y-130908142D01*
X110846980Y-130479571D01*
X110275552Y-131431952D02*
X110227933Y-131336714D01*
X110180314Y-131289095D01*
X110085076Y-131241476D01*
X110037457Y-131241476D01*
X109942219Y-131289095D01*
X109894600Y-131336714D01*
X109846980Y-131431952D01*
X109846980Y-131622428D01*
X109894600Y-131717666D01*
X109942219Y-131765285D01*
X110037457Y-131812904D01*
X110085076Y-131812904D01*
X110180314Y-131765285D01*
X110227933Y-131717666D01*
X110275552Y-131622428D01*
X110275552Y-131431952D01*
X110323171Y-131336714D01*
X110370790Y-131289095D01*
X110466028Y-131241476D01*
X110656504Y-131241476D01*
X110751742Y-131289095D01*
X110799361Y-131336714D01*
X110846980Y-131431952D01*
X110846980Y-131622428D01*
X110799361Y-131717666D01*
X110751742Y-131765285D01*
X110656504Y-131812904D01*
X110466028Y-131812904D01*
X110370790Y-131765285D01*
X110323171Y-131717666D01*
X110275552Y-131622428D01*
%TO.C,C83*%
X129149742Y-115707742D02*
X129197361Y-115660123D01*
X129244980Y-115517266D01*
X129244980Y-115422028D01*
X129197361Y-115279171D01*
X129102123Y-115183933D01*
X129006885Y-115136314D01*
X128816409Y-115088695D01*
X128673552Y-115088695D01*
X128483076Y-115136314D01*
X128387838Y-115183933D01*
X128292600Y-115279171D01*
X128244980Y-115422028D01*
X128244980Y-115517266D01*
X128292600Y-115660123D01*
X128340219Y-115707742D01*
X128673552Y-116279171D02*
X128625933Y-116183933D01*
X128578314Y-116136314D01*
X128483076Y-116088695D01*
X128435457Y-116088695D01*
X128340219Y-116136314D01*
X128292600Y-116183933D01*
X128244980Y-116279171D01*
X128244980Y-116469647D01*
X128292600Y-116564885D01*
X128340219Y-116612504D01*
X128435457Y-116660123D01*
X128483076Y-116660123D01*
X128578314Y-116612504D01*
X128625933Y-116564885D01*
X128673552Y-116469647D01*
X128673552Y-116279171D01*
X128721171Y-116183933D01*
X128768790Y-116136314D01*
X128864028Y-116088695D01*
X129054504Y-116088695D01*
X129149742Y-116136314D01*
X129197361Y-116183933D01*
X129244980Y-116279171D01*
X129244980Y-116469647D01*
X129197361Y-116564885D01*
X129149742Y-116612504D01*
X129054504Y-116660123D01*
X128864028Y-116660123D01*
X128768790Y-116612504D01*
X128721171Y-116564885D01*
X128673552Y-116469647D01*
X128244980Y-116993457D02*
X128244980Y-117612504D01*
X128625933Y-117279171D01*
X128625933Y-117422028D01*
X128673552Y-117517266D01*
X128721171Y-117564885D01*
X128816409Y-117612504D01*
X129054504Y-117612504D01*
X129149742Y-117564885D01*
X129197361Y-117517266D01*
X129244980Y-117422028D01*
X129244980Y-117136314D01*
X129197361Y-117041076D01*
X129149742Y-116993457D01*
%TO.C,C66*%
X126688057Y-118850742D02*
X126735676Y-118898361D01*
X126878533Y-118945980D01*
X126973771Y-118945980D01*
X127116628Y-118898361D01*
X127211866Y-118803123D01*
X127259485Y-118707885D01*
X127307104Y-118517409D01*
X127307104Y-118374552D01*
X127259485Y-118184076D01*
X127211866Y-118088838D01*
X127116628Y-117993600D01*
X126973771Y-117945980D01*
X126878533Y-117945980D01*
X126735676Y-117993600D01*
X126688057Y-118041219D01*
X125830914Y-117945980D02*
X126021390Y-117945980D01*
X126116628Y-117993600D01*
X126164247Y-118041219D01*
X126259485Y-118184076D01*
X126307104Y-118374552D01*
X126307104Y-118755504D01*
X126259485Y-118850742D01*
X126211866Y-118898361D01*
X126116628Y-118945980D01*
X125926152Y-118945980D01*
X125830914Y-118898361D01*
X125783295Y-118850742D01*
X125735676Y-118755504D01*
X125735676Y-118517409D01*
X125783295Y-118422171D01*
X125830914Y-118374552D01*
X125926152Y-118326933D01*
X126116628Y-118326933D01*
X126211866Y-118374552D01*
X126259485Y-118422171D01*
X126307104Y-118517409D01*
X124878533Y-117945980D02*
X125069009Y-117945980D01*
X125164247Y-117993600D01*
X125211866Y-118041219D01*
X125307104Y-118184076D01*
X125354723Y-118374552D01*
X125354723Y-118755504D01*
X125307104Y-118850742D01*
X125259485Y-118898361D01*
X125164247Y-118945980D01*
X124973771Y-118945980D01*
X124878533Y-118898361D01*
X124830914Y-118850742D01*
X124783295Y-118755504D01*
X124783295Y-118517409D01*
X124830914Y-118422171D01*
X124878533Y-118374552D01*
X124973771Y-118326933D01*
X125164247Y-118326933D01*
X125259485Y-118374552D01*
X125307104Y-118422171D01*
X125354723Y-118517409D01*
%TO.C,C62*%
X122980942Y-106019142D02*
X123028561Y-105971523D01*
X123076180Y-105828666D01*
X123076180Y-105733428D01*
X123028561Y-105590571D01*
X122933323Y-105495333D01*
X122838085Y-105447714D01*
X122647609Y-105400095D01*
X122504752Y-105400095D01*
X122314276Y-105447714D01*
X122219038Y-105495333D01*
X122123800Y-105590571D01*
X122076180Y-105733428D01*
X122076180Y-105828666D01*
X122123800Y-105971523D01*
X122171419Y-106019142D01*
X122076180Y-106876285D02*
X122076180Y-106685809D01*
X122123800Y-106590571D01*
X122171419Y-106542952D01*
X122314276Y-106447714D01*
X122504752Y-106400095D01*
X122885704Y-106400095D01*
X122980942Y-106447714D01*
X123028561Y-106495333D01*
X123076180Y-106590571D01*
X123076180Y-106781047D01*
X123028561Y-106876285D01*
X122980942Y-106923904D01*
X122885704Y-106971523D01*
X122647609Y-106971523D01*
X122552371Y-106923904D01*
X122504752Y-106876285D01*
X122457133Y-106781047D01*
X122457133Y-106590571D01*
X122504752Y-106495333D01*
X122552371Y-106447714D01*
X122647609Y-106400095D01*
X122171419Y-107352476D02*
X122123800Y-107400095D01*
X122076180Y-107495333D01*
X122076180Y-107733428D01*
X122123800Y-107828666D01*
X122171419Y-107876285D01*
X122266657Y-107923904D01*
X122361895Y-107923904D01*
X122504752Y-107876285D01*
X123076180Y-107304857D01*
X123076180Y-107923904D01*
%TO.C,M5*%
X124798780Y-98804276D02*
X123798780Y-98804276D01*
X124513066Y-99137609D01*
X123798780Y-99470942D01*
X124798780Y-99470942D01*
X123798780Y-100423323D02*
X123798780Y-99947133D01*
X124274971Y-99899514D01*
X124227352Y-99947133D01*
X124179733Y-100042371D01*
X124179733Y-100280466D01*
X124227352Y-100375704D01*
X124274971Y-100423323D01*
X124370209Y-100470942D01*
X124608304Y-100470942D01*
X124703542Y-100423323D01*
X124751161Y-100375704D01*
X124798780Y-100280466D01*
X124798780Y-100042371D01*
X124751161Y-99947133D01*
X124703542Y-99899514D01*
%TO.C,R62*%
X119722380Y-128057142D02*
X119246190Y-127723809D01*
X119722380Y-127485714D02*
X118722380Y-127485714D01*
X118722380Y-127866666D01*
X118770000Y-127961904D01*
X118817619Y-128009523D01*
X118912857Y-128057142D01*
X119055714Y-128057142D01*
X119150952Y-128009523D01*
X119198571Y-127961904D01*
X119246190Y-127866666D01*
X119246190Y-127485714D01*
X118722380Y-128914285D02*
X118722380Y-128723809D01*
X118770000Y-128628571D01*
X118817619Y-128580952D01*
X118960476Y-128485714D01*
X119150952Y-128438095D01*
X119531904Y-128438095D01*
X119627142Y-128485714D01*
X119674761Y-128533333D01*
X119722380Y-128628571D01*
X119722380Y-128819047D01*
X119674761Y-128914285D01*
X119627142Y-128961904D01*
X119531904Y-129009523D01*
X119293809Y-129009523D01*
X119198571Y-128961904D01*
X119150952Y-128914285D01*
X119103333Y-128819047D01*
X119103333Y-128628571D01*
X119150952Y-128533333D01*
X119198571Y-128485714D01*
X119293809Y-128438095D01*
X118817619Y-129390476D02*
X118770000Y-129438095D01*
X118722380Y-129533333D01*
X118722380Y-129771428D01*
X118770000Y-129866666D01*
X118817619Y-129914285D01*
X118912857Y-129961904D01*
X119008095Y-129961904D01*
X119150952Y-129914285D01*
X119722380Y-129342857D01*
X119722380Y-129961904D01*
%TO.C,C63*%
X119626857Y-107049942D02*
X119674476Y-107097561D01*
X119817333Y-107145180D01*
X119912571Y-107145180D01*
X120055428Y-107097561D01*
X120150666Y-107002323D01*
X120198285Y-106907085D01*
X120245904Y-106716609D01*
X120245904Y-106573752D01*
X120198285Y-106383276D01*
X120150666Y-106288038D01*
X120055428Y-106192800D01*
X119912571Y-106145180D01*
X119817333Y-106145180D01*
X119674476Y-106192800D01*
X119626857Y-106240419D01*
X118769714Y-106145180D02*
X118960190Y-106145180D01*
X119055428Y-106192800D01*
X119103047Y-106240419D01*
X119198285Y-106383276D01*
X119245904Y-106573752D01*
X119245904Y-106954704D01*
X119198285Y-107049942D01*
X119150666Y-107097561D01*
X119055428Y-107145180D01*
X118864952Y-107145180D01*
X118769714Y-107097561D01*
X118722095Y-107049942D01*
X118674476Y-106954704D01*
X118674476Y-106716609D01*
X118722095Y-106621371D01*
X118769714Y-106573752D01*
X118864952Y-106526133D01*
X119055428Y-106526133D01*
X119150666Y-106573752D01*
X119198285Y-106621371D01*
X119245904Y-106716609D01*
X118341142Y-106145180D02*
X117722095Y-106145180D01*
X118055428Y-106526133D01*
X117912571Y-106526133D01*
X117817333Y-106573752D01*
X117769714Y-106621371D01*
X117722095Y-106716609D01*
X117722095Y-106954704D01*
X117769714Y-107049942D01*
X117817333Y-107097561D01*
X117912571Y-107145180D01*
X118198285Y-107145180D01*
X118293523Y-107097561D01*
X118341142Y-107049942D01*
%TO.C,C71*%
X123082542Y-123100942D02*
X123130161Y-123053323D01*
X123177780Y-122910466D01*
X123177780Y-122815228D01*
X123130161Y-122672371D01*
X123034923Y-122577133D01*
X122939685Y-122529514D01*
X122749209Y-122481895D01*
X122606352Y-122481895D01*
X122415876Y-122529514D01*
X122320638Y-122577133D01*
X122225400Y-122672371D01*
X122177780Y-122815228D01*
X122177780Y-122910466D01*
X122225400Y-123053323D01*
X122273019Y-123100942D01*
X122177780Y-123434276D02*
X122177780Y-124100942D01*
X123177780Y-123672371D01*
X123177780Y-125005704D02*
X123177780Y-124434276D01*
X123177780Y-124719990D02*
X122177780Y-124719990D01*
X122320638Y-124624752D01*
X122415876Y-124529514D01*
X122463495Y-124434276D01*
%TO.C,D5*%
X114997980Y-120999104D02*
X113997980Y-120999104D01*
X113997980Y-121237200D01*
X114045600Y-121380057D01*
X114140838Y-121475295D01*
X114236076Y-121522914D01*
X114426552Y-121570533D01*
X114569409Y-121570533D01*
X114759885Y-121522914D01*
X114855123Y-121475295D01*
X114950361Y-121380057D01*
X114997980Y-121237200D01*
X114997980Y-120999104D01*
X113997980Y-122475295D02*
X113997980Y-121999104D01*
X114474171Y-121951485D01*
X114426552Y-121999104D01*
X114378933Y-122094342D01*
X114378933Y-122332438D01*
X114426552Y-122427676D01*
X114474171Y-122475295D01*
X114569409Y-122522914D01*
X114807504Y-122522914D01*
X114902742Y-122475295D01*
X114950361Y-122427676D01*
X114997980Y-122332438D01*
X114997980Y-122094342D01*
X114950361Y-121999104D01*
X114902742Y-121951485D01*
%TO.C,C69*%
X113276857Y-120450942D02*
X113324476Y-120498561D01*
X113467333Y-120546180D01*
X113562571Y-120546180D01*
X113705428Y-120498561D01*
X113800666Y-120403323D01*
X113848285Y-120308085D01*
X113895904Y-120117609D01*
X113895904Y-119974752D01*
X113848285Y-119784276D01*
X113800666Y-119689038D01*
X113705428Y-119593800D01*
X113562571Y-119546180D01*
X113467333Y-119546180D01*
X113324476Y-119593800D01*
X113276857Y-119641419D01*
X112419714Y-119546180D02*
X112610190Y-119546180D01*
X112705428Y-119593800D01*
X112753047Y-119641419D01*
X112848285Y-119784276D01*
X112895904Y-119974752D01*
X112895904Y-120355704D01*
X112848285Y-120450942D01*
X112800666Y-120498561D01*
X112705428Y-120546180D01*
X112514952Y-120546180D01*
X112419714Y-120498561D01*
X112372095Y-120450942D01*
X112324476Y-120355704D01*
X112324476Y-120117609D01*
X112372095Y-120022371D01*
X112419714Y-119974752D01*
X112514952Y-119927133D01*
X112705428Y-119927133D01*
X112800666Y-119974752D01*
X112848285Y-120022371D01*
X112895904Y-120117609D01*
X111848285Y-120546180D02*
X111657809Y-120546180D01*
X111562571Y-120498561D01*
X111514952Y-120450942D01*
X111419714Y-120308085D01*
X111372095Y-120117609D01*
X111372095Y-119736657D01*
X111419714Y-119641419D01*
X111467333Y-119593800D01*
X111562571Y-119546180D01*
X111753047Y-119546180D01*
X111848285Y-119593800D01*
X111895904Y-119641419D01*
X111943523Y-119736657D01*
X111943523Y-119974752D01*
X111895904Y-120069990D01*
X111848285Y-120117609D01*
X111753047Y-120165228D01*
X111562571Y-120165228D01*
X111467333Y-120117609D01*
X111419714Y-120069990D01*
X111372095Y-119974752D01*
%TO.C,C77*%
X119842857Y-133907142D02*
X119890476Y-133954761D01*
X120033333Y-134002380D01*
X120128571Y-134002380D01*
X120271428Y-133954761D01*
X120366666Y-133859523D01*
X120414285Y-133764285D01*
X120461904Y-133573809D01*
X120461904Y-133430952D01*
X120414285Y-133240476D01*
X120366666Y-133145238D01*
X120271428Y-133050000D01*
X120128571Y-133002380D01*
X120033333Y-133002380D01*
X119890476Y-133050000D01*
X119842857Y-133097619D01*
X119509523Y-133002380D02*
X118842857Y-133002380D01*
X119271428Y-134002380D01*
X118557142Y-133002380D02*
X117890476Y-133002380D01*
X118319047Y-134002380D01*
D11*
%TO.C,Q9*%
X111749152Y-126293476D02*
X111870104Y-126233000D01*
X111991057Y-126112047D01*
X112172485Y-125930619D01*
X112293438Y-125870142D01*
X112414390Y-125870142D01*
X112353914Y-126172523D02*
X112474866Y-126112047D01*
X112595819Y-125991095D01*
X112656295Y-125749190D01*
X112656295Y-125325857D01*
X112595819Y-125083952D01*
X112474866Y-124963000D01*
X112353914Y-124902523D01*
X112112009Y-124902523D01*
X111991057Y-124963000D01*
X111870104Y-125083952D01*
X111809628Y-125325857D01*
X111809628Y-125749190D01*
X111870104Y-125991095D01*
X111991057Y-126112047D01*
X112112009Y-126172523D01*
X112353914Y-126172523D01*
X111204866Y-126172523D02*
X110962961Y-126172523D01*
X110842009Y-126112047D01*
X110781533Y-126051571D01*
X110660580Y-125870142D01*
X110600104Y-125628238D01*
X110600104Y-125144428D01*
X110660580Y-125023476D01*
X110721057Y-124963000D01*
X110842009Y-124902523D01*
X111083914Y-124902523D01*
X111204866Y-124963000D01*
X111265342Y-125023476D01*
X111325819Y-125144428D01*
X111325819Y-125446809D01*
X111265342Y-125567761D01*
X111204866Y-125628238D01*
X111083914Y-125688714D01*
X110842009Y-125688714D01*
X110721057Y-125628238D01*
X110660580Y-125567761D01*
X110600104Y-125446809D01*
%TO.C,IC6*%
X108153923Y-117957438D02*
X106883923Y-117957438D01*
X108032971Y-119287914D02*
X108093447Y-119227438D01*
X108153923Y-119046009D01*
X108153923Y-118925057D01*
X108093447Y-118743628D01*
X107972495Y-118622676D01*
X107851542Y-118562200D01*
X107609638Y-118501723D01*
X107428209Y-118501723D01*
X107186304Y-118562200D01*
X107065352Y-118622676D01*
X106944400Y-118743628D01*
X106883923Y-118925057D01*
X106883923Y-119046009D01*
X106944400Y-119227438D01*
X107004876Y-119287914D01*
X106883923Y-120376485D02*
X106883923Y-120134580D01*
X106944400Y-120013628D01*
X107004876Y-119953152D01*
X107186304Y-119832200D01*
X107428209Y-119771723D01*
X107912019Y-119771723D01*
X108032971Y-119832200D01*
X108093447Y-119892676D01*
X108153923Y-120013628D01*
X108153923Y-120255533D01*
X108093447Y-120376485D01*
X108032971Y-120436961D01*
X107912019Y-120497438D01*
X107609638Y-120497438D01*
X107488685Y-120436961D01*
X107428209Y-120376485D01*
X107367733Y-120255533D01*
X107367733Y-120013628D01*
X107428209Y-119892676D01*
X107488685Y-119832200D01*
X107609638Y-119771723D01*
D10*
%TO.C,R64*%
X129019780Y-102298342D02*
X128543590Y-101965009D01*
X129019780Y-101726914D02*
X128019780Y-101726914D01*
X128019780Y-102107866D01*
X128067400Y-102203104D01*
X128115019Y-102250723D01*
X128210257Y-102298342D01*
X128353114Y-102298342D01*
X128448352Y-102250723D01*
X128495971Y-102203104D01*
X128543590Y-102107866D01*
X128543590Y-101726914D01*
X128019780Y-103155485D02*
X128019780Y-102965009D01*
X128067400Y-102869771D01*
X128115019Y-102822152D01*
X128257876Y-102726914D01*
X128448352Y-102679295D01*
X128829304Y-102679295D01*
X128924542Y-102726914D01*
X128972161Y-102774533D01*
X129019780Y-102869771D01*
X129019780Y-103060247D01*
X128972161Y-103155485D01*
X128924542Y-103203104D01*
X128829304Y-103250723D01*
X128591209Y-103250723D01*
X128495971Y-103203104D01*
X128448352Y-103155485D01*
X128400733Y-103060247D01*
X128400733Y-102869771D01*
X128448352Y-102774533D01*
X128495971Y-102726914D01*
X128591209Y-102679295D01*
X128353114Y-104107866D02*
X129019780Y-104107866D01*
X127972161Y-103869771D02*
X128686447Y-103631676D01*
X128686447Y-104250723D01*
%TO.C,C73*%
X126764257Y-112221342D02*
X126811876Y-112268961D01*
X126954733Y-112316580D01*
X127049971Y-112316580D01*
X127192828Y-112268961D01*
X127288066Y-112173723D01*
X127335685Y-112078485D01*
X127383304Y-111888009D01*
X127383304Y-111745152D01*
X127335685Y-111554676D01*
X127288066Y-111459438D01*
X127192828Y-111364200D01*
X127049971Y-111316580D01*
X126954733Y-111316580D01*
X126811876Y-111364200D01*
X126764257Y-111411819D01*
X126430923Y-111316580D02*
X125764257Y-111316580D01*
X126192828Y-112316580D01*
X125478542Y-111316580D02*
X124859495Y-111316580D01*
X125192828Y-111697533D01*
X125049971Y-111697533D01*
X124954733Y-111745152D01*
X124907114Y-111792771D01*
X124859495Y-111888009D01*
X124859495Y-112126104D01*
X124907114Y-112221342D01*
X124954733Y-112268961D01*
X125049971Y-112316580D01*
X125335685Y-112316580D01*
X125430923Y-112268961D01*
X125478542Y-112221342D01*
%TO.C,J17*%
X97309523Y-123452380D02*
X97309523Y-124166666D01*
X97357142Y-124309523D01*
X97452380Y-124404761D01*
X97595238Y-124452380D01*
X97690476Y-124452380D01*
X96309523Y-124452380D02*
X96880952Y-124452380D01*
X96595238Y-124452380D02*
X96595238Y-123452380D01*
X96690476Y-123595238D01*
X96785714Y-123690476D01*
X96880952Y-123738095D01*
X95976190Y-123452380D02*
X95309523Y-123452380D01*
X95738095Y-124452380D01*
%TO.C,R53*%
X126738857Y-117421980D02*
X127072190Y-116945790D01*
X127310285Y-117421980D02*
X127310285Y-116421980D01*
X126929333Y-116421980D01*
X126834095Y-116469600D01*
X126786476Y-116517219D01*
X126738857Y-116612457D01*
X126738857Y-116755314D01*
X126786476Y-116850552D01*
X126834095Y-116898171D01*
X126929333Y-116945790D01*
X127310285Y-116945790D01*
X125834095Y-116421980D02*
X126310285Y-116421980D01*
X126357904Y-116898171D01*
X126310285Y-116850552D01*
X126215047Y-116802933D01*
X125976952Y-116802933D01*
X125881714Y-116850552D01*
X125834095Y-116898171D01*
X125786476Y-116993409D01*
X125786476Y-117231504D01*
X125834095Y-117326742D01*
X125881714Y-117374361D01*
X125976952Y-117421980D01*
X126215047Y-117421980D01*
X126310285Y-117374361D01*
X126357904Y-117326742D01*
X125453142Y-116421980D02*
X124834095Y-116421980D01*
X125167428Y-116802933D01*
X125024571Y-116802933D01*
X124929333Y-116850552D01*
X124881714Y-116898171D01*
X124834095Y-116993409D01*
X124834095Y-117231504D01*
X124881714Y-117326742D01*
X124929333Y-117374361D01*
X125024571Y-117421980D01*
X125310285Y-117421980D01*
X125405523Y-117374361D01*
X125453142Y-117326742D01*
%TO.C,J21*%
X101886523Y-120966380D02*
X101886523Y-121680666D01*
X101934142Y-121823523D01*
X102029380Y-121918761D01*
X102172238Y-121966380D01*
X102267476Y-121966380D01*
X101457952Y-121061619D02*
X101410333Y-121014000D01*
X101315095Y-120966380D01*
X101077000Y-120966380D01*
X100981761Y-121014000D01*
X100934142Y-121061619D01*
X100886523Y-121156857D01*
X100886523Y-121252095D01*
X100934142Y-121394952D01*
X101505571Y-121966380D01*
X100886523Y-121966380D01*
X99934142Y-121966380D02*
X100505571Y-121966380D01*
X100219857Y-121966380D02*
X100219857Y-120966380D01*
X100315095Y-121109238D01*
X100410333Y-121204476D01*
X100505571Y-121252095D01*
%TO.C,J19*%
X112554523Y-132682380D02*
X112554523Y-133396666D01*
X112602142Y-133539523D01*
X112697380Y-133634761D01*
X112840238Y-133682380D01*
X112935476Y-133682380D01*
X111554523Y-133682380D02*
X112125952Y-133682380D01*
X111840238Y-133682380D02*
X111840238Y-132682380D01*
X111935476Y-132825238D01*
X112030714Y-132920476D01*
X112125952Y-132968095D01*
X111078333Y-133682380D02*
X110887857Y-133682380D01*
X110792619Y-133634761D01*
X110745000Y-133587142D01*
X110649761Y-133444285D01*
X110602142Y-133253809D01*
X110602142Y-132872857D01*
X110649761Y-132777619D01*
X110697380Y-132730000D01*
X110792619Y-132682380D01*
X110983095Y-132682380D01*
X111078333Y-132730000D01*
X111125952Y-132777619D01*
X111173571Y-132872857D01*
X111173571Y-133110952D01*
X111125952Y-133206190D01*
X111078333Y-133253809D01*
X110983095Y-133301428D01*
X110792619Y-133301428D01*
X110697380Y-133253809D01*
X110649761Y-133206190D01*
X110602142Y-133110952D01*
X113199000Y-132760000D02*
X112665666Y-132760000D01*
X112932333Y-133026666D02*
X112932333Y-132493333D01*
X112332333Y-133026666D02*
X112332333Y-132326666D01*
X111932333Y-133026666D01*
X111932333Y-132326666D01*
X111599000Y-133026666D02*
X111599000Y-132560000D01*
X111599000Y-132693333D02*
X111565666Y-132626666D01*
X111532333Y-132593333D01*
X111465666Y-132560000D01*
X111399000Y-132560000D01*
X110932333Y-132660000D02*
X110832333Y-132693333D01*
X110799000Y-132726666D01*
X110765666Y-132793333D01*
X110765666Y-132893333D01*
X110799000Y-132960000D01*
X110832333Y-132993333D01*
X110899000Y-133026666D01*
X111165666Y-133026666D01*
X111165666Y-132326666D01*
X110932333Y-132326666D01*
X110865666Y-132360000D01*
X110832333Y-132393333D01*
X110799000Y-132460000D01*
X110799000Y-132526666D01*
X110832333Y-132593333D01*
X110865666Y-132626666D01*
X110932333Y-132660000D01*
X111165666Y-132660000D01*
%TO.C,C86*%
X128847057Y-110583942D02*
X128894676Y-110631561D01*
X129037533Y-110679180D01*
X129132771Y-110679180D01*
X129275628Y-110631561D01*
X129370866Y-110536323D01*
X129418485Y-110441085D01*
X129466104Y-110250609D01*
X129466104Y-110107752D01*
X129418485Y-109917276D01*
X129370866Y-109822038D01*
X129275628Y-109726800D01*
X129132771Y-109679180D01*
X129037533Y-109679180D01*
X128894676Y-109726800D01*
X128847057Y-109774419D01*
X128275628Y-110107752D02*
X128370866Y-110060133D01*
X128418485Y-110012514D01*
X128466104Y-109917276D01*
X128466104Y-109869657D01*
X128418485Y-109774419D01*
X128370866Y-109726800D01*
X128275628Y-109679180D01*
X128085152Y-109679180D01*
X127989914Y-109726800D01*
X127942295Y-109774419D01*
X127894676Y-109869657D01*
X127894676Y-109917276D01*
X127942295Y-110012514D01*
X127989914Y-110060133D01*
X128085152Y-110107752D01*
X128275628Y-110107752D01*
X128370866Y-110155371D01*
X128418485Y-110202990D01*
X128466104Y-110298228D01*
X128466104Y-110488704D01*
X128418485Y-110583942D01*
X128370866Y-110631561D01*
X128275628Y-110679180D01*
X128085152Y-110679180D01*
X127989914Y-110631561D01*
X127942295Y-110583942D01*
X127894676Y-110488704D01*
X127894676Y-110298228D01*
X127942295Y-110202990D01*
X127989914Y-110155371D01*
X128085152Y-110107752D01*
X127037533Y-109679180D02*
X127228009Y-109679180D01*
X127323247Y-109726800D01*
X127370866Y-109774419D01*
X127466104Y-109917276D01*
X127513723Y-110107752D01*
X127513723Y-110488704D01*
X127466104Y-110583942D01*
X127418485Y-110631561D01*
X127323247Y-110679180D01*
X127132771Y-110679180D01*
X127037533Y-110631561D01*
X126989914Y-110583942D01*
X126942295Y-110488704D01*
X126942295Y-110250609D01*
X126989914Y-110155371D01*
X127037533Y-110107752D01*
X127132771Y-110060133D01*
X127323247Y-110060133D01*
X127418485Y-110107752D01*
X127466104Y-110155371D01*
X127513723Y-110250609D01*
%TO.C,C75*%
X119601457Y-105576742D02*
X119649076Y-105624361D01*
X119791933Y-105671980D01*
X119887171Y-105671980D01*
X120030028Y-105624361D01*
X120125266Y-105529123D01*
X120172885Y-105433885D01*
X120220504Y-105243409D01*
X120220504Y-105100552D01*
X120172885Y-104910076D01*
X120125266Y-104814838D01*
X120030028Y-104719600D01*
X119887171Y-104671980D01*
X119791933Y-104671980D01*
X119649076Y-104719600D01*
X119601457Y-104767219D01*
X119268123Y-104671980D02*
X118601457Y-104671980D01*
X119030028Y-105671980D01*
X117744314Y-104671980D02*
X118220504Y-104671980D01*
X118268123Y-105148171D01*
X118220504Y-105100552D01*
X118125266Y-105052933D01*
X117887171Y-105052933D01*
X117791933Y-105100552D01*
X117744314Y-105148171D01*
X117696695Y-105243409D01*
X117696695Y-105481504D01*
X117744314Y-105576742D01*
X117791933Y-105624361D01*
X117887171Y-105671980D01*
X118125266Y-105671980D01*
X118220504Y-105624361D01*
X118268123Y-105576742D01*
%TO.C,C80*%
X107051742Y-125259942D02*
X107099361Y-125212323D01*
X107146980Y-125069466D01*
X107146980Y-124974228D01*
X107099361Y-124831371D01*
X107004123Y-124736133D01*
X106908885Y-124688514D01*
X106718409Y-124640895D01*
X106575552Y-124640895D01*
X106385076Y-124688514D01*
X106289838Y-124736133D01*
X106194600Y-124831371D01*
X106146980Y-124974228D01*
X106146980Y-125069466D01*
X106194600Y-125212323D01*
X106242219Y-125259942D01*
X106575552Y-125831371D02*
X106527933Y-125736133D01*
X106480314Y-125688514D01*
X106385076Y-125640895D01*
X106337457Y-125640895D01*
X106242219Y-125688514D01*
X106194600Y-125736133D01*
X106146980Y-125831371D01*
X106146980Y-126021847D01*
X106194600Y-126117085D01*
X106242219Y-126164704D01*
X106337457Y-126212323D01*
X106385076Y-126212323D01*
X106480314Y-126164704D01*
X106527933Y-126117085D01*
X106575552Y-126021847D01*
X106575552Y-125831371D01*
X106623171Y-125736133D01*
X106670790Y-125688514D01*
X106766028Y-125640895D01*
X106956504Y-125640895D01*
X107051742Y-125688514D01*
X107099361Y-125736133D01*
X107146980Y-125831371D01*
X107146980Y-126021847D01*
X107099361Y-126117085D01*
X107051742Y-126164704D01*
X106956504Y-126212323D01*
X106766028Y-126212323D01*
X106670790Y-126164704D01*
X106623171Y-126117085D01*
X106575552Y-126021847D01*
X106146980Y-126831371D02*
X106146980Y-126926609D01*
X106194600Y-127021847D01*
X106242219Y-127069466D01*
X106337457Y-127117085D01*
X106527933Y-127164704D01*
X106766028Y-127164704D01*
X106956504Y-127117085D01*
X107051742Y-127069466D01*
X107099361Y-127021847D01*
X107146980Y-126926609D01*
X107146980Y-126831371D01*
X107099361Y-126736133D01*
X107051742Y-126688514D01*
X106956504Y-126640895D01*
X106766028Y-126593276D01*
X106527933Y-126593276D01*
X106337457Y-126640895D01*
X106242219Y-126688514D01*
X106194600Y-126736133D01*
X106146980Y-126831371D01*
%TO.C,C82*%
X102606742Y-101739542D02*
X102654361Y-101691923D01*
X102701980Y-101549066D01*
X102701980Y-101453828D01*
X102654361Y-101310971D01*
X102559123Y-101215733D01*
X102463885Y-101168114D01*
X102273409Y-101120495D01*
X102130552Y-101120495D01*
X101940076Y-101168114D01*
X101844838Y-101215733D01*
X101749600Y-101310971D01*
X101701980Y-101453828D01*
X101701980Y-101549066D01*
X101749600Y-101691923D01*
X101797219Y-101739542D01*
X102130552Y-102310971D02*
X102082933Y-102215733D01*
X102035314Y-102168114D01*
X101940076Y-102120495D01*
X101892457Y-102120495D01*
X101797219Y-102168114D01*
X101749600Y-102215733D01*
X101701980Y-102310971D01*
X101701980Y-102501447D01*
X101749600Y-102596685D01*
X101797219Y-102644304D01*
X101892457Y-102691923D01*
X101940076Y-102691923D01*
X102035314Y-102644304D01*
X102082933Y-102596685D01*
X102130552Y-102501447D01*
X102130552Y-102310971D01*
X102178171Y-102215733D01*
X102225790Y-102168114D01*
X102321028Y-102120495D01*
X102511504Y-102120495D01*
X102606742Y-102168114D01*
X102654361Y-102215733D01*
X102701980Y-102310971D01*
X102701980Y-102501447D01*
X102654361Y-102596685D01*
X102606742Y-102644304D01*
X102511504Y-102691923D01*
X102321028Y-102691923D01*
X102225790Y-102644304D01*
X102178171Y-102596685D01*
X102130552Y-102501447D01*
X101797219Y-103072876D02*
X101749600Y-103120495D01*
X101701980Y-103215733D01*
X101701980Y-103453828D01*
X101749600Y-103549066D01*
X101797219Y-103596685D01*
X101892457Y-103644304D01*
X101987695Y-103644304D01*
X102130552Y-103596685D01*
X102701980Y-103025257D01*
X102701980Y-103644304D01*
%TO.C,R65*%
X102654580Y-101841142D02*
X102178390Y-101507809D01*
X102654580Y-101269714D02*
X101654580Y-101269714D01*
X101654580Y-101650666D01*
X101702200Y-101745904D01*
X101749819Y-101793523D01*
X101845057Y-101841142D01*
X101987914Y-101841142D01*
X102083152Y-101793523D01*
X102130771Y-101745904D01*
X102178390Y-101650666D01*
X102178390Y-101269714D01*
X101654580Y-102698285D02*
X101654580Y-102507809D01*
X101702200Y-102412571D01*
X101749819Y-102364952D01*
X101892676Y-102269714D01*
X102083152Y-102222095D01*
X102464104Y-102222095D01*
X102559342Y-102269714D01*
X102606961Y-102317333D01*
X102654580Y-102412571D01*
X102654580Y-102603047D01*
X102606961Y-102698285D01*
X102559342Y-102745904D01*
X102464104Y-102793523D01*
X102226009Y-102793523D01*
X102130771Y-102745904D01*
X102083152Y-102698285D01*
X102035533Y-102603047D01*
X102035533Y-102412571D01*
X102083152Y-102317333D01*
X102130771Y-102269714D01*
X102226009Y-102222095D01*
X101654580Y-103698285D02*
X101654580Y-103222095D01*
X102130771Y-103174476D01*
X102083152Y-103222095D01*
X102035533Y-103317333D01*
X102035533Y-103555428D01*
X102083152Y-103650666D01*
X102130771Y-103698285D01*
X102226009Y-103745904D01*
X102464104Y-103745904D01*
X102559342Y-103698285D01*
X102606961Y-103650666D01*
X102654580Y-103555428D01*
X102654580Y-103317333D01*
X102606961Y-103222095D01*
X102559342Y-103174476D01*
%TO.C,J16*%
X176976123Y-68521780D02*
X176976123Y-69236066D01*
X177023742Y-69378923D01*
X177118980Y-69474161D01*
X177261838Y-69521780D01*
X177357076Y-69521780D01*
X175976123Y-69521780D02*
X176547552Y-69521780D01*
X176261838Y-69521780D02*
X176261838Y-68521780D01*
X176357076Y-68664638D01*
X176452314Y-68759876D01*
X176547552Y-68807495D01*
X175118980Y-68521780D02*
X175309457Y-68521780D01*
X175404695Y-68569400D01*
X175452314Y-68617019D01*
X175547552Y-68759876D01*
X175595171Y-68950352D01*
X175595171Y-69331304D01*
X175547552Y-69426542D01*
X175499933Y-69474161D01*
X175404695Y-69521780D01*
X175214219Y-69521780D01*
X175118980Y-69474161D01*
X175071361Y-69426542D01*
X175023742Y-69331304D01*
X175023742Y-69093209D01*
X175071361Y-68997971D01*
X175118980Y-68950352D01*
X175214219Y-68902733D01*
X175404695Y-68902733D01*
X175499933Y-68950352D01*
X175547552Y-68997971D01*
X175595171Y-69093209D01*
%TO.C,R35*%
X152958857Y-77110580D02*
X153292190Y-76634390D01*
X153530285Y-77110580D02*
X153530285Y-76110580D01*
X153149333Y-76110580D01*
X153054095Y-76158200D01*
X153006476Y-76205819D01*
X152958857Y-76301057D01*
X152958857Y-76443914D01*
X153006476Y-76539152D01*
X153054095Y-76586771D01*
X153149333Y-76634390D01*
X153530285Y-76634390D01*
X152625523Y-76110580D02*
X152006476Y-76110580D01*
X152339809Y-76491533D01*
X152196952Y-76491533D01*
X152101714Y-76539152D01*
X152054095Y-76586771D01*
X152006476Y-76682009D01*
X152006476Y-76920104D01*
X152054095Y-77015342D01*
X152101714Y-77062961D01*
X152196952Y-77110580D01*
X152482666Y-77110580D01*
X152577904Y-77062961D01*
X152625523Y-77015342D01*
X151101714Y-76110580D02*
X151577904Y-76110580D01*
X151625523Y-76586771D01*
X151577904Y-76539152D01*
X151482666Y-76491533D01*
X151244571Y-76491533D01*
X151149333Y-76539152D01*
X151101714Y-76586771D01*
X151054095Y-76682009D01*
X151054095Y-76920104D01*
X151101714Y-77015342D01*
X151149333Y-77062961D01*
X151244571Y-77110580D01*
X151482666Y-77110580D01*
X151577904Y-77062961D01*
X151625523Y-77015342D01*
%TO.C,J12*%
X142762323Y-83012380D02*
X142762323Y-83726666D01*
X142809942Y-83869523D01*
X142905180Y-83964761D01*
X143048038Y-84012380D01*
X143143276Y-84012380D01*
X141762323Y-84012380D02*
X142333752Y-84012380D01*
X142048038Y-84012380D02*
X142048038Y-83012380D01*
X142143276Y-83155238D01*
X142238514Y-83250476D01*
X142333752Y-83298095D01*
X141381371Y-83107619D02*
X141333752Y-83060000D01*
X141238514Y-83012380D01*
X141000419Y-83012380D01*
X140905180Y-83060000D01*
X140857561Y-83107619D01*
X140809942Y-83202857D01*
X140809942Y-83298095D01*
X140857561Y-83440952D01*
X141428990Y-84012380D01*
X140809942Y-84012380D01*
%TO.C,R43*%
X171521180Y-64298342D02*
X171044990Y-63965009D01*
X171521180Y-63726914D02*
X170521180Y-63726914D01*
X170521180Y-64107866D01*
X170568800Y-64203104D01*
X170616419Y-64250723D01*
X170711657Y-64298342D01*
X170854514Y-64298342D01*
X170949752Y-64250723D01*
X170997371Y-64203104D01*
X171044990Y-64107866D01*
X171044990Y-63726914D01*
X170854514Y-65155485D02*
X171521180Y-65155485D01*
X170473561Y-64917390D02*
X171187847Y-64679295D01*
X171187847Y-65298342D01*
X170521180Y-65584057D02*
X170521180Y-66203104D01*
X170902133Y-65869771D01*
X170902133Y-66012628D01*
X170949752Y-66107866D01*
X170997371Y-66155485D01*
X171092609Y-66203104D01*
X171330704Y-66203104D01*
X171425942Y-66155485D01*
X171473561Y-66107866D01*
X171521180Y-66012628D01*
X171521180Y-65726914D01*
X171473561Y-65631676D01*
X171425942Y-65584057D01*
%TO.C,C29*%
X172514742Y-64857142D02*
X172562361Y-64809523D01*
X172609980Y-64666666D01*
X172609980Y-64571428D01*
X172562361Y-64428571D01*
X172467123Y-64333333D01*
X172371885Y-64285714D01*
X172181409Y-64238095D01*
X172038552Y-64238095D01*
X171848076Y-64285714D01*
X171752838Y-64333333D01*
X171657600Y-64428571D01*
X171609980Y-64571428D01*
X171609980Y-64666666D01*
X171657600Y-64809523D01*
X171705219Y-64857142D01*
X171705219Y-65238095D02*
X171657600Y-65285714D01*
X171609980Y-65380952D01*
X171609980Y-65619047D01*
X171657600Y-65714285D01*
X171705219Y-65761904D01*
X171800457Y-65809523D01*
X171895695Y-65809523D01*
X172038552Y-65761904D01*
X172609980Y-65190476D01*
X172609980Y-65809523D01*
X172609980Y-66285714D02*
X172609980Y-66476190D01*
X172562361Y-66571428D01*
X172514742Y-66619047D01*
X172371885Y-66714285D01*
X172181409Y-66761904D01*
X171800457Y-66761904D01*
X171705219Y-66714285D01*
X171657600Y-66666666D01*
X171609980Y-66571428D01*
X171609980Y-66380952D01*
X171657600Y-66285714D01*
X171705219Y-66238095D01*
X171800457Y-66190476D01*
X172038552Y-66190476D01*
X172133790Y-66238095D01*
X172181409Y-66285714D01*
X172229028Y-66380952D01*
X172229028Y-66571428D01*
X172181409Y-66666666D01*
X172133790Y-66714285D01*
X172038552Y-66761904D01*
%TO.C,R44*%
X145181380Y-63841142D02*
X144705190Y-63507809D01*
X145181380Y-63269714D02*
X144181380Y-63269714D01*
X144181380Y-63650666D01*
X144229000Y-63745904D01*
X144276619Y-63793523D01*
X144371857Y-63841142D01*
X144514714Y-63841142D01*
X144609952Y-63793523D01*
X144657571Y-63745904D01*
X144705190Y-63650666D01*
X144705190Y-63269714D01*
X144514714Y-64698285D02*
X145181380Y-64698285D01*
X144133761Y-64460190D02*
X144848047Y-64222095D01*
X144848047Y-64841142D01*
X144514714Y-65650666D02*
X145181380Y-65650666D01*
X144133761Y-65412571D02*
X144848047Y-65174476D01*
X144848047Y-65793523D01*
%TO.C,R40*%
X161022380Y-89957142D02*
X160546190Y-89623809D01*
X161022380Y-89385714D02*
X160022380Y-89385714D01*
X160022380Y-89766666D01*
X160070000Y-89861904D01*
X160117619Y-89909523D01*
X160212857Y-89957142D01*
X160355714Y-89957142D01*
X160450952Y-89909523D01*
X160498571Y-89861904D01*
X160546190Y-89766666D01*
X160546190Y-89385714D01*
X160355714Y-90814285D02*
X161022380Y-90814285D01*
X159974761Y-90576190D02*
X160689047Y-90338095D01*
X160689047Y-90957142D01*
X160022380Y-91528571D02*
X160022380Y-91623809D01*
X160070000Y-91719047D01*
X160117619Y-91766666D01*
X160212857Y-91814285D01*
X160403333Y-91861904D01*
X160641428Y-91861904D01*
X160831904Y-91814285D01*
X160927142Y-91766666D01*
X160974761Y-91719047D01*
X161022380Y-91623809D01*
X161022380Y-91528571D01*
X160974761Y-91433333D01*
X160927142Y-91385714D01*
X160831904Y-91338095D01*
X160641428Y-91290476D01*
X160403333Y-91290476D01*
X160212857Y-91338095D01*
X160117619Y-91385714D01*
X160070000Y-91433333D01*
X160022380Y-91528571D01*
%TO.C,C38*%
X173899942Y-88428342D02*
X173947561Y-88380723D01*
X173995180Y-88237866D01*
X173995180Y-88142628D01*
X173947561Y-87999771D01*
X173852323Y-87904533D01*
X173757085Y-87856914D01*
X173566609Y-87809295D01*
X173423752Y-87809295D01*
X173233276Y-87856914D01*
X173138038Y-87904533D01*
X173042800Y-87999771D01*
X172995180Y-88142628D01*
X172995180Y-88237866D01*
X173042800Y-88380723D01*
X173090419Y-88428342D01*
X172995180Y-88761676D02*
X172995180Y-89380723D01*
X173376133Y-89047390D01*
X173376133Y-89190247D01*
X173423752Y-89285485D01*
X173471371Y-89333104D01*
X173566609Y-89380723D01*
X173804704Y-89380723D01*
X173899942Y-89333104D01*
X173947561Y-89285485D01*
X173995180Y-89190247D01*
X173995180Y-88904533D01*
X173947561Y-88809295D01*
X173899942Y-88761676D01*
X173423752Y-89952152D02*
X173376133Y-89856914D01*
X173328514Y-89809295D01*
X173233276Y-89761676D01*
X173185657Y-89761676D01*
X173090419Y-89809295D01*
X173042800Y-89856914D01*
X172995180Y-89952152D01*
X172995180Y-90142628D01*
X173042800Y-90237866D01*
X173090419Y-90285485D01*
X173185657Y-90333104D01*
X173233276Y-90333104D01*
X173328514Y-90285485D01*
X173376133Y-90237866D01*
X173423752Y-90142628D01*
X173423752Y-89952152D01*
X173471371Y-89856914D01*
X173518990Y-89809295D01*
X173614228Y-89761676D01*
X173804704Y-89761676D01*
X173899942Y-89809295D01*
X173947561Y-89856914D01*
X173995180Y-89952152D01*
X173995180Y-90142628D01*
X173947561Y-90237866D01*
X173899942Y-90285485D01*
X173804704Y-90333104D01*
X173614228Y-90333104D01*
X173518990Y-90285485D01*
X173471371Y-90237866D01*
X173423752Y-90142628D01*
%TO.C,C49*%
X145973857Y-82803142D02*
X146021476Y-82850761D01*
X146164333Y-82898380D01*
X146259571Y-82898380D01*
X146402428Y-82850761D01*
X146497666Y-82755523D01*
X146545285Y-82660285D01*
X146592904Y-82469809D01*
X146592904Y-82326952D01*
X146545285Y-82136476D01*
X146497666Y-82041238D01*
X146402428Y-81946000D01*
X146259571Y-81898380D01*
X146164333Y-81898380D01*
X146021476Y-81946000D01*
X145973857Y-81993619D01*
X145116714Y-82231714D02*
X145116714Y-82898380D01*
X145354809Y-81850761D02*
X145592904Y-82565047D01*
X144973857Y-82565047D01*
X144545285Y-82898380D02*
X144354809Y-82898380D01*
X144259571Y-82850761D01*
X144211952Y-82803142D01*
X144116714Y-82660285D01*
X144069095Y-82469809D01*
X144069095Y-82088857D01*
X144116714Y-81993619D01*
X144164333Y-81946000D01*
X144259571Y-81898380D01*
X144450047Y-81898380D01*
X144545285Y-81946000D01*
X144592904Y-81993619D01*
X144640523Y-82088857D01*
X144640523Y-82326952D01*
X144592904Y-82422190D01*
X144545285Y-82469809D01*
X144450047Y-82517428D01*
X144259571Y-82517428D01*
X144164333Y-82469809D01*
X144116714Y-82422190D01*
X144069095Y-82326952D01*
%TO.C,M4*%
X141681980Y-60601076D02*
X140681980Y-60601076D01*
X141396266Y-60934409D01*
X140681980Y-61267742D01*
X141681980Y-61267742D01*
X141015314Y-62172504D02*
X141681980Y-62172504D01*
X140634361Y-61934409D02*
X141348647Y-61696314D01*
X141348647Y-62315361D01*
%TO.C,C48*%
X154751742Y-91908142D02*
X154799361Y-91860523D01*
X154846980Y-91717666D01*
X154846980Y-91622428D01*
X154799361Y-91479571D01*
X154704123Y-91384333D01*
X154608885Y-91336714D01*
X154418409Y-91289095D01*
X154275552Y-91289095D01*
X154085076Y-91336714D01*
X153989838Y-91384333D01*
X153894600Y-91479571D01*
X153846980Y-91622428D01*
X153846980Y-91717666D01*
X153894600Y-91860523D01*
X153942219Y-91908142D01*
X154180314Y-92765285D02*
X154846980Y-92765285D01*
X153799361Y-92527190D02*
X154513647Y-92289095D01*
X154513647Y-92908142D01*
X154275552Y-93431952D02*
X154227933Y-93336714D01*
X154180314Y-93289095D01*
X154085076Y-93241476D01*
X154037457Y-93241476D01*
X153942219Y-93289095D01*
X153894600Y-93336714D01*
X153846980Y-93431952D01*
X153846980Y-93622428D01*
X153894600Y-93717666D01*
X153942219Y-93765285D01*
X154037457Y-93812904D01*
X154085076Y-93812904D01*
X154180314Y-93765285D01*
X154227933Y-93717666D01*
X154275552Y-93622428D01*
X154275552Y-93431952D01*
X154323171Y-93336714D01*
X154370790Y-93289095D01*
X154466028Y-93241476D01*
X154656504Y-93241476D01*
X154751742Y-93289095D01*
X154799361Y-93336714D01*
X154846980Y-93431952D01*
X154846980Y-93622428D01*
X154799361Y-93717666D01*
X154751742Y-93765285D01*
X154656504Y-93812904D01*
X154466028Y-93812904D01*
X154370790Y-93765285D01*
X154323171Y-93717666D01*
X154275552Y-93622428D01*
%TO.C,C53*%
X173149742Y-77707742D02*
X173197361Y-77660123D01*
X173244980Y-77517266D01*
X173244980Y-77422028D01*
X173197361Y-77279171D01*
X173102123Y-77183933D01*
X173006885Y-77136314D01*
X172816409Y-77088695D01*
X172673552Y-77088695D01*
X172483076Y-77136314D01*
X172387838Y-77183933D01*
X172292600Y-77279171D01*
X172244980Y-77422028D01*
X172244980Y-77517266D01*
X172292600Y-77660123D01*
X172340219Y-77707742D01*
X172244980Y-78612504D02*
X172244980Y-78136314D01*
X172721171Y-78088695D01*
X172673552Y-78136314D01*
X172625933Y-78231552D01*
X172625933Y-78469647D01*
X172673552Y-78564885D01*
X172721171Y-78612504D01*
X172816409Y-78660123D01*
X173054504Y-78660123D01*
X173149742Y-78612504D01*
X173197361Y-78564885D01*
X173244980Y-78469647D01*
X173244980Y-78231552D01*
X173197361Y-78136314D01*
X173149742Y-78088695D01*
X172244980Y-78993457D02*
X172244980Y-79612504D01*
X172625933Y-79279171D01*
X172625933Y-79422028D01*
X172673552Y-79517266D01*
X172721171Y-79564885D01*
X172816409Y-79612504D01*
X173054504Y-79612504D01*
X173149742Y-79564885D01*
X173197361Y-79517266D01*
X173244980Y-79422028D01*
X173244980Y-79136314D01*
X173197361Y-79041076D01*
X173149742Y-78993457D01*
%TO.C,C31*%
X170688057Y-80850742D02*
X170735676Y-80898361D01*
X170878533Y-80945980D01*
X170973771Y-80945980D01*
X171116628Y-80898361D01*
X171211866Y-80803123D01*
X171259485Y-80707885D01*
X171307104Y-80517409D01*
X171307104Y-80374552D01*
X171259485Y-80184076D01*
X171211866Y-80088838D01*
X171116628Y-79993600D01*
X170973771Y-79945980D01*
X170878533Y-79945980D01*
X170735676Y-79993600D01*
X170688057Y-80041219D01*
X170354723Y-79945980D02*
X169735676Y-79945980D01*
X170069009Y-80326933D01*
X169926152Y-80326933D01*
X169830914Y-80374552D01*
X169783295Y-80422171D01*
X169735676Y-80517409D01*
X169735676Y-80755504D01*
X169783295Y-80850742D01*
X169830914Y-80898361D01*
X169926152Y-80945980D01*
X170211866Y-80945980D01*
X170307104Y-80898361D01*
X170354723Y-80850742D01*
X168783295Y-80945980D02*
X169354723Y-80945980D01*
X169069009Y-80945980D02*
X169069009Y-79945980D01*
X169164247Y-80088838D01*
X169259485Y-80184076D01*
X169354723Y-80231695D01*
%TO.C,C25*%
X166980942Y-68019142D02*
X167028561Y-67971523D01*
X167076180Y-67828666D01*
X167076180Y-67733428D01*
X167028561Y-67590571D01*
X166933323Y-67495333D01*
X166838085Y-67447714D01*
X166647609Y-67400095D01*
X166504752Y-67400095D01*
X166314276Y-67447714D01*
X166219038Y-67495333D01*
X166123800Y-67590571D01*
X166076180Y-67733428D01*
X166076180Y-67828666D01*
X166123800Y-67971523D01*
X166171419Y-68019142D01*
X166171419Y-68400095D02*
X166123800Y-68447714D01*
X166076180Y-68542952D01*
X166076180Y-68781047D01*
X166123800Y-68876285D01*
X166171419Y-68923904D01*
X166266657Y-68971523D01*
X166361895Y-68971523D01*
X166504752Y-68923904D01*
X167076180Y-68352476D01*
X167076180Y-68971523D01*
X166076180Y-69876285D02*
X166076180Y-69400095D01*
X166552371Y-69352476D01*
X166504752Y-69400095D01*
X166457133Y-69495333D01*
X166457133Y-69733428D01*
X166504752Y-69828666D01*
X166552371Y-69876285D01*
X166647609Y-69923904D01*
X166885704Y-69923904D01*
X166980942Y-69876285D01*
X167028561Y-69828666D01*
X167076180Y-69733428D01*
X167076180Y-69495333D01*
X167028561Y-69400095D01*
X166980942Y-69352476D01*
%TO.C,M3*%
X168798780Y-60804276D02*
X167798780Y-60804276D01*
X168513066Y-61137609D01*
X167798780Y-61470942D01*
X168798780Y-61470942D01*
X167798780Y-61851895D02*
X167798780Y-62470942D01*
X168179733Y-62137609D01*
X168179733Y-62280466D01*
X168227352Y-62375704D01*
X168274971Y-62423323D01*
X168370209Y-62470942D01*
X168608304Y-62470942D01*
X168703542Y-62423323D01*
X168751161Y-62375704D01*
X168798780Y-62280466D01*
X168798780Y-61994752D01*
X168751161Y-61899514D01*
X168703542Y-61851895D01*
%TO.C,R39*%
X163722380Y-90057142D02*
X163246190Y-89723809D01*
X163722380Y-89485714D02*
X162722380Y-89485714D01*
X162722380Y-89866666D01*
X162770000Y-89961904D01*
X162817619Y-90009523D01*
X162912857Y-90057142D01*
X163055714Y-90057142D01*
X163150952Y-90009523D01*
X163198571Y-89961904D01*
X163246190Y-89866666D01*
X163246190Y-89485714D01*
X162722380Y-90390476D02*
X162722380Y-91009523D01*
X163103333Y-90676190D01*
X163103333Y-90819047D01*
X163150952Y-90914285D01*
X163198571Y-90961904D01*
X163293809Y-91009523D01*
X163531904Y-91009523D01*
X163627142Y-90961904D01*
X163674761Y-90914285D01*
X163722380Y-90819047D01*
X163722380Y-90533333D01*
X163674761Y-90438095D01*
X163627142Y-90390476D01*
X163722380Y-91485714D02*
X163722380Y-91676190D01*
X163674761Y-91771428D01*
X163627142Y-91819047D01*
X163484285Y-91914285D01*
X163293809Y-91961904D01*
X162912857Y-91961904D01*
X162817619Y-91914285D01*
X162770000Y-91866666D01*
X162722380Y-91771428D01*
X162722380Y-91580952D01*
X162770000Y-91485714D01*
X162817619Y-91438095D01*
X162912857Y-91390476D01*
X163150952Y-91390476D01*
X163246190Y-91438095D01*
X163293809Y-91485714D01*
X163341428Y-91580952D01*
X163341428Y-91771428D01*
X163293809Y-91866666D01*
X163246190Y-91914285D01*
X163150952Y-91961904D01*
%TO.C,C27*%
X163626857Y-69049942D02*
X163674476Y-69097561D01*
X163817333Y-69145180D01*
X163912571Y-69145180D01*
X164055428Y-69097561D01*
X164150666Y-69002323D01*
X164198285Y-68907085D01*
X164245904Y-68716609D01*
X164245904Y-68573752D01*
X164198285Y-68383276D01*
X164150666Y-68288038D01*
X164055428Y-68192800D01*
X163912571Y-68145180D01*
X163817333Y-68145180D01*
X163674476Y-68192800D01*
X163626857Y-68240419D01*
X163245904Y-68240419D02*
X163198285Y-68192800D01*
X163103047Y-68145180D01*
X162864952Y-68145180D01*
X162769714Y-68192800D01*
X162722095Y-68240419D01*
X162674476Y-68335657D01*
X162674476Y-68430895D01*
X162722095Y-68573752D01*
X163293523Y-69145180D01*
X162674476Y-69145180D01*
X162341142Y-68145180D02*
X161674476Y-68145180D01*
X162103047Y-69145180D01*
%TO.C,C41*%
X167082542Y-85100942D02*
X167130161Y-85053323D01*
X167177780Y-84910466D01*
X167177780Y-84815228D01*
X167130161Y-84672371D01*
X167034923Y-84577133D01*
X166939685Y-84529514D01*
X166749209Y-84481895D01*
X166606352Y-84481895D01*
X166415876Y-84529514D01*
X166320638Y-84577133D01*
X166225400Y-84672371D01*
X166177780Y-84815228D01*
X166177780Y-84910466D01*
X166225400Y-85053323D01*
X166273019Y-85100942D01*
X166511114Y-85958085D02*
X167177780Y-85958085D01*
X166130161Y-85719990D02*
X166844447Y-85481895D01*
X166844447Y-86100942D01*
X167177780Y-87005704D02*
X167177780Y-86434276D01*
X167177780Y-86719990D02*
X166177780Y-86719990D01*
X166320638Y-86624752D01*
X166415876Y-86529514D01*
X166463495Y-86434276D01*
%TO.C,D2*%
X158997980Y-82999104D02*
X157997980Y-82999104D01*
X157997980Y-83237200D01*
X158045600Y-83380057D01*
X158140838Y-83475295D01*
X158236076Y-83522914D01*
X158426552Y-83570533D01*
X158569409Y-83570533D01*
X158759885Y-83522914D01*
X158855123Y-83475295D01*
X158950361Y-83380057D01*
X158997980Y-83237200D01*
X158997980Y-82999104D01*
X158093219Y-83951485D02*
X158045600Y-83999104D01*
X157997980Y-84094342D01*
X157997980Y-84332438D01*
X158045600Y-84427676D01*
X158093219Y-84475295D01*
X158188457Y-84522914D01*
X158283695Y-84522914D01*
X158426552Y-84475295D01*
X158997980Y-83903866D01*
X158997980Y-84522914D01*
%TO.C,C39*%
X157276857Y-82450942D02*
X157324476Y-82498561D01*
X157467333Y-82546180D01*
X157562571Y-82546180D01*
X157705428Y-82498561D01*
X157800666Y-82403323D01*
X157848285Y-82308085D01*
X157895904Y-82117609D01*
X157895904Y-81974752D01*
X157848285Y-81784276D01*
X157800666Y-81689038D01*
X157705428Y-81593800D01*
X157562571Y-81546180D01*
X157467333Y-81546180D01*
X157324476Y-81593800D01*
X157276857Y-81641419D01*
X156943523Y-81546180D02*
X156324476Y-81546180D01*
X156657809Y-81927133D01*
X156514952Y-81927133D01*
X156419714Y-81974752D01*
X156372095Y-82022371D01*
X156324476Y-82117609D01*
X156324476Y-82355704D01*
X156372095Y-82450942D01*
X156419714Y-82498561D01*
X156514952Y-82546180D01*
X156800666Y-82546180D01*
X156895904Y-82498561D01*
X156943523Y-82450942D01*
X155848285Y-82546180D02*
X155657809Y-82546180D01*
X155562571Y-82498561D01*
X155514952Y-82450942D01*
X155419714Y-82308085D01*
X155372095Y-82117609D01*
X155372095Y-81736657D01*
X155419714Y-81641419D01*
X155467333Y-81593800D01*
X155562571Y-81546180D01*
X155753047Y-81546180D01*
X155848285Y-81593800D01*
X155895904Y-81641419D01*
X155943523Y-81736657D01*
X155943523Y-81974752D01*
X155895904Y-82069990D01*
X155848285Y-82117609D01*
X155753047Y-82165228D01*
X155562571Y-82165228D01*
X155467333Y-82117609D01*
X155419714Y-82069990D01*
X155372095Y-81974752D01*
%TO.C,C47*%
X163842857Y-95907142D02*
X163890476Y-95954761D01*
X164033333Y-96002380D01*
X164128571Y-96002380D01*
X164271428Y-95954761D01*
X164366666Y-95859523D01*
X164414285Y-95764285D01*
X164461904Y-95573809D01*
X164461904Y-95430952D01*
X164414285Y-95240476D01*
X164366666Y-95145238D01*
X164271428Y-95050000D01*
X164128571Y-95002380D01*
X164033333Y-95002380D01*
X163890476Y-95050000D01*
X163842857Y-95097619D01*
X162985714Y-95335714D02*
X162985714Y-96002380D01*
X163223809Y-94954761D02*
X163461904Y-95669047D01*
X162842857Y-95669047D01*
X162557142Y-95002380D02*
X161890476Y-95002380D01*
X162319047Y-96002380D01*
D11*
%TO.C,Q8*%
X155749152Y-88293476D02*
X155870104Y-88233000D01*
X155991057Y-88112047D01*
X156172485Y-87930619D01*
X156293438Y-87870142D01*
X156414390Y-87870142D01*
X156353914Y-88172523D02*
X156474866Y-88112047D01*
X156595819Y-87991095D01*
X156656295Y-87749190D01*
X156656295Y-87325857D01*
X156595819Y-87083952D01*
X156474866Y-86963000D01*
X156353914Y-86902523D01*
X156112009Y-86902523D01*
X155991057Y-86963000D01*
X155870104Y-87083952D01*
X155809628Y-87325857D01*
X155809628Y-87749190D01*
X155870104Y-87991095D01*
X155991057Y-88112047D01*
X156112009Y-88172523D01*
X156353914Y-88172523D01*
X155083914Y-87446809D02*
X155204866Y-87386333D01*
X155265342Y-87325857D01*
X155325819Y-87204904D01*
X155325819Y-87144428D01*
X155265342Y-87023476D01*
X155204866Y-86963000D01*
X155083914Y-86902523D01*
X154842009Y-86902523D01*
X154721057Y-86963000D01*
X154660580Y-87023476D01*
X154600104Y-87144428D01*
X154600104Y-87204904D01*
X154660580Y-87325857D01*
X154721057Y-87386333D01*
X154842009Y-87446809D01*
X155083914Y-87446809D01*
X155204866Y-87507285D01*
X155265342Y-87567761D01*
X155325819Y-87688714D01*
X155325819Y-87930619D01*
X155265342Y-88051571D01*
X155204866Y-88112047D01*
X155083914Y-88172523D01*
X154842009Y-88172523D01*
X154721057Y-88112047D01*
X154660580Y-88051571D01*
X154600104Y-87930619D01*
X154600104Y-87688714D01*
X154660580Y-87567761D01*
X154721057Y-87507285D01*
X154842009Y-87446809D01*
%TO.C,IC4*%
X152153923Y-79957438D02*
X150883923Y-79957438D01*
X152032971Y-81287914D02*
X152093447Y-81227438D01*
X152153923Y-81046009D01*
X152153923Y-80925057D01*
X152093447Y-80743628D01*
X151972495Y-80622676D01*
X151851542Y-80562200D01*
X151609638Y-80501723D01*
X151428209Y-80501723D01*
X151186304Y-80562200D01*
X151065352Y-80622676D01*
X150944400Y-80743628D01*
X150883923Y-80925057D01*
X150883923Y-81046009D01*
X150944400Y-81227438D01*
X151004876Y-81287914D01*
X151307257Y-82376485D02*
X152153923Y-82376485D01*
X150823447Y-82074104D02*
X151730590Y-81771723D01*
X151730590Y-82557914D01*
D10*
%TO.C,R41*%
X173019780Y-64298342D02*
X172543590Y-63965009D01*
X173019780Y-63726914D02*
X172019780Y-63726914D01*
X172019780Y-64107866D01*
X172067400Y-64203104D01*
X172115019Y-64250723D01*
X172210257Y-64298342D01*
X172353114Y-64298342D01*
X172448352Y-64250723D01*
X172495971Y-64203104D01*
X172543590Y-64107866D01*
X172543590Y-63726914D01*
X172353114Y-65155485D02*
X173019780Y-65155485D01*
X171972161Y-64917390D02*
X172686447Y-64679295D01*
X172686447Y-65298342D01*
X173019780Y-66203104D02*
X173019780Y-65631676D01*
X173019780Y-65917390D02*
X172019780Y-65917390D01*
X172162638Y-65822152D01*
X172257876Y-65726914D01*
X172305495Y-65631676D01*
%TO.C,C43*%
X170764257Y-74221342D02*
X170811876Y-74268961D01*
X170954733Y-74316580D01*
X171049971Y-74316580D01*
X171192828Y-74268961D01*
X171288066Y-74173723D01*
X171335685Y-74078485D01*
X171383304Y-73888009D01*
X171383304Y-73745152D01*
X171335685Y-73554676D01*
X171288066Y-73459438D01*
X171192828Y-73364200D01*
X171049971Y-73316580D01*
X170954733Y-73316580D01*
X170811876Y-73364200D01*
X170764257Y-73411819D01*
X169907114Y-73649914D02*
X169907114Y-74316580D01*
X170145209Y-73268961D02*
X170383304Y-73983247D01*
X169764257Y-73983247D01*
X169478542Y-73316580D02*
X168859495Y-73316580D01*
X169192828Y-73697533D01*
X169049971Y-73697533D01*
X168954733Y-73745152D01*
X168907114Y-73792771D01*
X168859495Y-73888009D01*
X168859495Y-74126104D01*
X168907114Y-74221342D01*
X168954733Y-74268961D01*
X169049971Y-74316580D01*
X169335685Y-74316580D01*
X169430923Y-74268961D01*
X169478542Y-74221342D01*
%TO.C,J2*%
X140833333Y-85452380D02*
X140833333Y-86166666D01*
X140880952Y-86309523D01*
X140976190Y-86404761D01*
X141119047Y-86452380D01*
X141214285Y-86452380D01*
X140404761Y-85547619D02*
X140357142Y-85500000D01*
X140261904Y-85452380D01*
X140023809Y-85452380D01*
X139928571Y-85500000D01*
X139880952Y-85547619D01*
X139833333Y-85642857D01*
X139833333Y-85738095D01*
X139880952Y-85880952D01*
X140452380Y-86452380D01*
X139833333Y-86452380D01*
%TO.C,R30*%
X170738857Y-79421980D02*
X171072190Y-78945790D01*
X171310285Y-79421980D02*
X171310285Y-78421980D01*
X170929333Y-78421980D01*
X170834095Y-78469600D01*
X170786476Y-78517219D01*
X170738857Y-78612457D01*
X170738857Y-78755314D01*
X170786476Y-78850552D01*
X170834095Y-78898171D01*
X170929333Y-78945790D01*
X171310285Y-78945790D01*
X170405523Y-78421980D02*
X169786476Y-78421980D01*
X170119809Y-78802933D01*
X169976952Y-78802933D01*
X169881714Y-78850552D01*
X169834095Y-78898171D01*
X169786476Y-78993409D01*
X169786476Y-79231504D01*
X169834095Y-79326742D01*
X169881714Y-79374361D01*
X169976952Y-79421980D01*
X170262666Y-79421980D01*
X170357904Y-79374361D01*
X170405523Y-79326742D01*
X169167428Y-78421980D02*
X169072190Y-78421980D01*
X168976952Y-78469600D01*
X168929333Y-78517219D01*
X168881714Y-78612457D01*
X168834095Y-78802933D01*
X168834095Y-79041028D01*
X168881714Y-79231504D01*
X168929333Y-79326742D01*
X168976952Y-79374361D01*
X169072190Y-79421980D01*
X169167428Y-79421980D01*
X169262666Y-79374361D01*
X169310285Y-79326742D01*
X169357904Y-79231504D01*
X169405523Y-79041028D01*
X169405523Y-78802933D01*
X169357904Y-78612457D01*
X169310285Y-78517219D01*
X169262666Y-78469600D01*
X169167428Y-78421980D01*
%TO.C,J13*%
X145886523Y-82966380D02*
X145886523Y-83680666D01*
X145934142Y-83823523D01*
X146029380Y-83918761D01*
X146172238Y-83966380D01*
X146267476Y-83966380D01*
X144886523Y-83966380D02*
X145457952Y-83966380D01*
X145172238Y-83966380D02*
X145172238Y-82966380D01*
X145267476Y-83109238D01*
X145362714Y-83204476D01*
X145457952Y-83252095D01*
X144553190Y-82966380D02*
X143934142Y-82966380D01*
X144267476Y-83347333D01*
X144124619Y-83347333D01*
X144029380Y-83394952D01*
X143981761Y-83442571D01*
X143934142Y-83537809D01*
X143934142Y-83775904D01*
X143981761Y-83871142D01*
X144029380Y-83918761D01*
X144124619Y-83966380D01*
X144410333Y-83966380D01*
X144505571Y-83918761D01*
X144553190Y-83871142D01*
%TO.C,J9*%
X156078333Y-94682380D02*
X156078333Y-95396666D01*
X156125952Y-95539523D01*
X156221190Y-95634761D01*
X156364047Y-95682380D01*
X156459285Y-95682380D01*
X155554523Y-95682380D02*
X155364047Y-95682380D01*
X155268809Y-95634761D01*
X155221190Y-95587142D01*
X155125952Y-95444285D01*
X155078333Y-95253809D01*
X155078333Y-94872857D01*
X155125952Y-94777619D01*
X155173571Y-94730000D01*
X155268809Y-94682380D01*
X155459285Y-94682380D01*
X155554523Y-94730000D01*
X155602142Y-94777619D01*
X155649761Y-94872857D01*
X155649761Y-95110952D01*
X155602142Y-95206190D01*
X155554523Y-95253809D01*
X155459285Y-95301428D01*
X155268809Y-95301428D01*
X155173571Y-95253809D01*
X155125952Y-95206190D01*
X155078333Y-95110952D01*
X157199000Y-94760000D02*
X156665666Y-94760000D01*
X156932333Y-95026666D02*
X156932333Y-94493333D01*
X156332333Y-95026666D02*
X156332333Y-94326666D01*
X155932333Y-95026666D01*
X155932333Y-94326666D01*
X155599000Y-95026666D02*
X155599000Y-94560000D01*
X155599000Y-94693333D02*
X155565666Y-94626666D01*
X155532333Y-94593333D01*
X155465666Y-94560000D01*
X155399000Y-94560000D01*
X154932333Y-94660000D02*
X154832333Y-94693333D01*
X154799000Y-94726666D01*
X154765666Y-94793333D01*
X154765666Y-94893333D01*
X154799000Y-94960000D01*
X154832333Y-94993333D01*
X154899000Y-95026666D01*
X155165666Y-95026666D01*
X155165666Y-94326666D01*
X154932333Y-94326666D01*
X154865666Y-94360000D01*
X154832333Y-94393333D01*
X154799000Y-94460000D01*
X154799000Y-94526666D01*
X154832333Y-94593333D01*
X154865666Y-94626666D01*
X154932333Y-94660000D01*
X155165666Y-94660000D01*
%TO.C,C56*%
X172847057Y-72583942D02*
X172894676Y-72631561D01*
X173037533Y-72679180D01*
X173132771Y-72679180D01*
X173275628Y-72631561D01*
X173370866Y-72536323D01*
X173418485Y-72441085D01*
X173466104Y-72250609D01*
X173466104Y-72107752D01*
X173418485Y-71917276D01*
X173370866Y-71822038D01*
X173275628Y-71726800D01*
X173132771Y-71679180D01*
X173037533Y-71679180D01*
X172894676Y-71726800D01*
X172847057Y-71774419D01*
X171942295Y-71679180D02*
X172418485Y-71679180D01*
X172466104Y-72155371D01*
X172418485Y-72107752D01*
X172323247Y-72060133D01*
X172085152Y-72060133D01*
X171989914Y-72107752D01*
X171942295Y-72155371D01*
X171894676Y-72250609D01*
X171894676Y-72488704D01*
X171942295Y-72583942D01*
X171989914Y-72631561D01*
X172085152Y-72679180D01*
X172323247Y-72679180D01*
X172418485Y-72631561D01*
X172466104Y-72583942D01*
X171037533Y-71679180D02*
X171228009Y-71679180D01*
X171323247Y-71726800D01*
X171370866Y-71774419D01*
X171466104Y-71917276D01*
X171513723Y-72107752D01*
X171513723Y-72488704D01*
X171466104Y-72583942D01*
X171418485Y-72631561D01*
X171323247Y-72679180D01*
X171132771Y-72679180D01*
X171037533Y-72631561D01*
X170989914Y-72583942D01*
X170942295Y-72488704D01*
X170942295Y-72250609D01*
X170989914Y-72155371D01*
X171037533Y-72107752D01*
X171132771Y-72060133D01*
X171323247Y-72060133D01*
X171418485Y-72107752D01*
X171466104Y-72155371D01*
X171513723Y-72250609D01*
%TO.C,C45*%
X163601457Y-67576742D02*
X163649076Y-67624361D01*
X163791933Y-67671980D01*
X163887171Y-67671980D01*
X164030028Y-67624361D01*
X164125266Y-67529123D01*
X164172885Y-67433885D01*
X164220504Y-67243409D01*
X164220504Y-67100552D01*
X164172885Y-66910076D01*
X164125266Y-66814838D01*
X164030028Y-66719600D01*
X163887171Y-66671980D01*
X163791933Y-66671980D01*
X163649076Y-66719600D01*
X163601457Y-66767219D01*
X162744314Y-67005314D02*
X162744314Y-67671980D01*
X162982409Y-66624361D02*
X163220504Y-67338647D01*
X162601457Y-67338647D01*
X161744314Y-66671980D02*
X162220504Y-66671980D01*
X162268123Y-67148171D01*
X162220504Y-67100552D01*
X162125266Y-67052933D01*
X161887171Y-67052933D01*
X161791933Y-67100552D01*
X161744314Y-67148171D01*
X161696695Y-67243409D01*
X161696695Y-67481504D01*
X161744314Y-67576742D01*
X161791933Y-67624361D01*
X161887171Y-67671980D01*
X162125266Y-67671980D01*
X162220504Y-67624361D01*
X162268123Y-67576742D01*
%TO.C,C50*%
X151051742Y-87259942D02*
X151099361Y-87212323D01*
X151146980Y-87069466D01*
X151146980Y-86974228D01*
X151099361Y-86831371D01*
X151004123Y-86736133D01*
X150908885Y-86688514D01*
X150718409Y-86640895D01*
X150575552Y-86640895D01*
X150385076Y-86688514D01*
X150289838Y-86736133D01*
X150194600Y-86831371D01*
X150146980Y-86974228D01*
X150146980Y-87069466D01*
X150194600Y-87212323D01*
X150242219Y-87259942D01*
X150146980Y-88164704D02*
X150146980Y-87688514D01*
X150623171Y-87640895D01*
X150575552Y-87688514D01*
X150527933Y-87783752D01*
X150527933Y-88021847D01*
X150575552Y-88117085D01*
X150623171Y-88164704D01*
X150718409Y-88212323D01*
X150956504Y-88212323D01*
X151051742Y-88164704D01*
X151099361Y-88117085D01*
X151146980Y-88021847D01*
X151146980Y-87783752D01*
X151099361Y-87688514D01*
X151051742Y-87640895D01*
X150146980Y-88831371D02*
X150146980Y-88926609D01*
X150194600Y-89021847D01*
X150242219Y-89069466D01*
X150337457Y-89117085D01*
X150527933Y-89164704D01*
X150766028Y-89164704D01*
X150956504Y-89117085D01*
X151051742Y-89069466D01*
X151099361Y-89021847D01*
X151146980Y-88926609D01*
X151146980Y-88831371D01*
X151099361Y-88736133D01*
X151051742Y-88688514D01*
X150956504Y-88640895D01*
X150766028Y-88593276D01*
X150527933Y-88593276D01*
X150337457Y-88640895D01*
X150242219Y-88688514D01*
X150194600Y-88736133D01*
X150146980Y-88831371D01*
%TO.C,C52*%
X146606742Y-63739542D02*
X146654361Y-63691923D01*
X146701980Y-63549066D01*
X146701980Y-63453828D01*
X146654361Y-63310971D01*
X146559123Y-63215733D01*
X146463885Y-63168114D01*
X146273409Y-63120495D01*
X146130552Y-63120495D01*
X145940076Y-63168114D01*
X145844838Y-63215733D01*
X145749600Y-63310971D01*
X145701980Y-63453828D01*
X145701980Y-63549066D01*
X145749600Y-63691923D01*
X145797219Y-63739542D01*
X145701980Y-64644304D02*
X145701980Y-64168114D01*
X146178171Y-64120495D01*
X146130552Y-64168114D01*
X146082933Y-64263352D01*
X146082933Y-64501447D01*
X146130552Y-64596685D01*
X146178171Y-64644304D01*
X146273409Y-64691923D01*
X146511504Y-64691923D01*
X146606742Y-64644304D01*
X146654361Y-64596685D01*
X146701980Y-64501447D01*
X146701980Y-64263352D01*
X146654361Y-64168114D01*
X146606742Y-64120495D01*
X145797219Y-65072876D02*
X145749600Y-65120495D01*
X145701980Y-65215733D01*
X145701980Y-65453828D01*
X145749600Y-65549066D01*
X145797219Y-65596685D01*
X145892457Y-65644304D01*
X145987695Y-65644304D01*
X146130552Y-65596685D01*
X146701980Y-65025257D01*
X146701980Y-65644304D01*
%TO.C,R42*%
X146654580Y-63841142D02*
X146178390Y-63507809D01*
X146654580Y-63269714D02*
X145654580Y-63269714D01*
X145654580Y-63650666D01*
X145702200Y-63745904D01*
X145749819Y-63793523D01*
X145845057Y-63841142D01*
X145987914Y-63841142D01*
X146083152Y-63793523D01*
X146130771Y-63745904D01*
X146178390Y-63650666D01*
X146178390Y-63269714D01*
X145987914Y-64698285D02*
X146654580Y-64698285D01*
X145606961Y-64460190D02*
X146321247Y-64222095D01*
X146321247Y-64841142D01*
X145749819Y-65174476D02*
X145702200Y-65222095D01*
X145654580Y-65317333D01*
X145654580Y-65555428D01*
X145702200Y-65650666D01*
X145749819Y-65698285D01*
X145845057Y-65745904D01*
X145940295Y-65745904D01*
X146083152Y-65698285D01*
X146654580Y-65126857D01*
X146654580Y-65745904D01*
%TO.C,C33*%
X128847057Y-72583942D02*
X128894676Y-72631561D01*
X129037533Y-72679180D01*
X129132771Y-72679180D01*
X129275628Y-72631561D01*
X129370866Y-72536323D01*
X129418485Y-72441085D01*
X129466104Y-72250609D01*
X129466104Y-72107752D01*
X129418485Y-71917276D01*
X129370866Y-71822038D01*
X129275628Y-71726800D01*
X129132771Y-71679180D01*
X129037533Y-71679180D01*
X128894676Y-71726800D01*
X128847057Y-71774419D01*
X128513723Y-71679180D02*
X127894676Y-71679180D01*
X128228009Y-72060133D01*
X128085152Y-72060133D01*
X127989914Y-72107752D01*
X127942295Y-72155371D01*
X127894676Y-72250609D01*
X127894676Y-72488704D01*
X127942295Y-72583942D01*
X127989914Y-72631561D01*
X128085152Y-72679180D01*
X128370866Y-72679180D01*
X128466104Y-72631561D01*
X128513723Y-72583942D01*
X127561342Y-71679180D02*
X126942295Y-71679180D01*
X127275628Y-72060133D01*
X127132771Y-72060133D01*
X127037533Y-72107752D01*
X126989914Y-72155371D01*
X126942295Y-72250609D01*
X126942295Y-72488704D01*
X126989914Y-72583942D01*
X127037533Y-72631561D01*
X127132771Y-72679180D01*
X127418485Y-72679180D01*
X127513723Y-72631561D01*
X127561342Y-72583942D01*
%TO.C,C22*%
X102606742Y-63739542D02*
X102654361Y-63691923D01*
X102701980Y-63549066D01*
X102701980Y-63453828D01*
X102654361Y-63310971D01*
X102559123Y-63215733D01*
X102463885Y-63168114D01*
X102273409Y-63120495D01*
X102130552Y-63120495D01*
X101940076Y-63168114D01*
X101844838Y-63215733D01*
X101749600Y-63310971D01*
X101701980Y-63453828D01*
X101701980Y-63549066D01*
X101749600Y-63691923D01*
X101797219Y-63739542D01*
X101797219Y-64120495D02*
X101749600Y-64168114D01*
X101701980Y-64263352D01*
X101701980Y-64501447D01*
X101749600Y-64596685D01*
X101797219Y-64644304D01*
X101892457Y-64691923D01*
X101987695Y-64691923D01*
X102130552Y-64644304D01*
X102701980Y-64072876D01*
X102701980Y-64691923D01*
X101797219Y-65072876D02*
X101749600Y-65120495D01*
X101701980Y-65215733D01*
X101701980Y-65453828D01*
X101749600Y-65549066D01*
X101797219Y-65596685D01*
X101892457Y-65644304D01*
X101987695Y-65644304D01*
X102130552Y-65596685D01*
X102701980Y-65025257D01*
X102701980Y-65644304D01*
%TO.C,D1*%
X114997980Y-82999104D02*
X113997980Y-82999104D01*
X113997980Y-83237200D01*
X114045600Y-83380057D01*
X114140838Y-83475295D01*
X114236076Y-83522914D01*
X114426552Y-83570533D01*
X114569409Y-83570533D01*
X114759885Y-83522914D01*
X114855123Y-83475295D01*
X114950361Y-83380057D01*
X114997980Y-83237200D01*
X114997980Y-82999104D01*
X114997980Y-84522914D02*
X114997980Y-83951485D01*
X114997980Y-84237200D02*
X113997980Y-84237200D01*
X114140838Y-84141961D01*
X114236076Y-84046723D01*
X114283695Y-83951485D01*
%TO.C,C20*%
X107051742Y-87259942D02*
X107099361Y-87212323D01*
X107146980Y-87069466D01*
X107146980Y-86974228D01*
X107099361Y-86831371D01*
X107004123Y-86736133D01*
X106908885Y-86688514D01*
X106718409Y-86640895D01*
X106575552Y-86640895D01*
X106385076Y-86688514D01*
X106289838Y-86736133D01*
X106194600Y-86831371D01*
X106146980Y-86974228D01*
X106146980Y-87069466D01*
X106194600Y-87212323D01*
X106242219Y-87259942D01*
X106242219Y-87640895D02*
X106194600Y-87688514D01*
X106146980Y-87783752D01*
X106146980Y-88021847D01*
X106194600Y-88117085D01*
X106242219Y-88164704D01*
X106337457Y-88212323D01*
X106432695Y-88212323D01*
X106575552Y-88164704D01*
X107146980Y-87593276D01*
X107146980Y-88212323D01*
X106146980Y-88831371D02*
X106146980Y-88926609D01*
X106194600Y-89021847D01*
X106242219Y-89069466D01*
X106337457Y-89117085D01*
X106527933Y-89164704D01*
X106766028Y-89164704D01*
X106956504Y-89117085D01*
X107051742Y-89069466D01*
X107099361Y-89021847D01*
X107146980Y-88926609D01*
X107146980Y-88831371D01*
X107099361Y-88736133D01*
X107051742Y-88688514D01*
X106956504Y-88640895D01*
X106766028Y-88593276D01*
X106527933Y-88593276D01*
X106337457Y-88640895D01*
X106242219Y-88688514D01*
X106194600Y-88736133D01*
X106146980Y-88831371D01*
%TO.C,C15*%
X119601457Y-67576742D02*
X119649076Y-67624361D01*
X119791933Y-67671980D01*
X119887171Y-67671980D01*
X120030028Y-67624361D01*
X120125266Y-67529123D01*
X120172885Y-67433885D01*
X120220504Y-67243409D01*
X120220504Y-67100552D01*
X120172885Y-66910076D01*
X120125266Y-66814838D01*
X120030028Y-66719600D01*
X119887171Y-66671980D01*
X119791933Y-66671980D01*
X119649076Y-66719600D01*
X119601457Y-66767219D01*
X118649076Y-67671980D02*
X119220504Y-67671980D01*
X118934790Y-67671980D02*
X118934790Y-66671980D01*
X119030028Y-66814838D01*
X119125266Y-66910076D01*
X119220504Y-66957695D01*
X117744314Y-66671980D02*
X118220504Y-66671980D01*
X118268123Y-67148171D01*
X118220504Y-67100552D01*
X118125266Y-67052933D01*
X117887171Y-67052933D01*
X117791933Y-67100552D01*
X117744314Y-67148171D01*
X117696695Y-67243409D01*
X117696695Y-67481504D01*
X117744314Y-67576742D01*
X117791933Y-67624361D01*
X117887171Y-67671980D01*
X118125266Y-67671980D01*
X118220504Y-67624361D01*
X118268123Y-67576742D01*
%TO.C,J4*%
X112078333Y-94682380D02*
X112078333Y-95396666D01*
X112125952Y-95539523D01*
X112221190Y-95634761D01*
X112364047Y-95682380D01*
X112459285Y-95682380D01*
X111173571Y-95015714D02*
X111173571Y-95682380D01*
X111411666Y-94634761D02*
X111649761Y-95349047D01*
X111030714Y-95349047D01*
X113199000Y-94760000D02*
X112665666Y-94760000D01*
X112932333Y-95026666D02*
X112932333Y-94493333D01*
X112332333Y-95026666D02*
X112332333Y-94326666D01*
X111932333Y-95026666D01*
X111932333Y-94326666D01*
X111599000Y-95026666D02*
X111599000Y-94560000D01*
X111599000Y-94693333D02*
X111565666Y-94626666D01*
X111532333Y-94593333D01*
X111465666Y-94560000D01*
X111399000Y-94560000D01*
X110932333Y-94660000D02*
X110832333Y-94693333D01*
X110799000Y-94726666D01*
X110765666Y-94793333D01*
X110765666Y-94893333D01*
X110799000Y-94960000D01*
X110832333Y-94993333D01*
X110899000Y-95026666D01*
X111165666Y-95026666D01*
X111165666Y-94326666D01*
X110932333Y-94326666D01*
X110865666Y-94360000D01*
X110832333Y-94393333D01*
X110799000Y-94460000D01*
X110799000Y-94526666D01*
X110832333Y-94593333D01*
X110865666Y-94626666D01*
X110932333Y-94660000D01*
X111165666Y-94660000D01*
%TO.C,J6*%
X101410333Y-82966380D02*
X101410333Y-83680666D01*
X101457952Y-83823523D01*
X101553190Y-83918761D01*
X101696047Y-83966380D01*
X101791285Y-83966380D01*
X100505571Y-82966380D02*
X100696047Y-82966380D01*
X100791285Y-83014000D01*
X100838904Y-83061619D01*
X100934142Y-83204476D01*
X100981761Y-83394952D01*
X100981761Y-83775904D01*
X100934142Y-83871142D01*
X100886523Y-83918761D01*
X100791285Y-83966380D01*
X100600809Y-83966380D01*
X100505571Y-83918761D01*
X100457952Y-83871142D01*
X100410333Y-83775904D01*
X100410333Y-83537809D01*
X100457952Y-83442571D01*
X100505571Y-83394952D01*
X100600809Y-83347333D01*
X100791285Y-83347333D01*
X100886523Y-83394952D01*
X100934142Y-83442571D01*
X100981761Y-83537809D01*
%TO.C,C9*%
X112800666Y-82450942D02*
X112848285Y-82498561D01*
X112991142Y-82546180D01*
X113086380Y-82546180D01*
X113229238Y-82498561D01*
X113324476Y-82403323D01*
X113372095Y-82308085D01*
X113419714Y-82117609D01*
X113419714Y-81974752D01*
X113372095Y-81784276D01*
X113324476Y-81689038D01*
X113229238Y-81593800D01*
X113086380Y-81546180D01*
X112991142Y-81546180D01*
X112848285Y-81593800D01*
X112800666Y-81641419D01*
X112324476Y-82546180D02*
X112134000Y-82546180D01*
X112038761Y-82498561D01*
X111991142Y-82450942D01*
X111895904Y-82308085D01*
X111848285Y-82117609D01*
X111848285Y-81736657D01*
X111895904Y-81641419D01*
X111943523Y-81593800D01*
X112038761Y-81546180D01*
X112229238Y-81546180D01*
X112324476Y-81593800D01*
X112372095Y-81641419D01*
X112419714Y-81736657D01*
X112419714Y-81974752D01*
X112372095Y-82069990D01*
X112324476Y-82117609D01*
X112229238Y-82165228D01*
X112038761Y-82165228D01*
X111943523Y-82117609D01*
X111895904Y-82069990D01*
X111848285Y-81974752D01*
%TO.C,R7*%
X126262666Y-79421980D02*
X126596000Y-78945790D01*
X126834095Y-79421980D02*
X126834095Y-78421980D01*
X126453142Y-78421980D01*
X126357904Y-78469600D01*
X126310285Y-78517219D01*
X126262666Y-78612457D01*
X126262666Y-78755314D01*
X126310285Y-78850552D01*
X126357904Y-78898171D01*
X126453142Y-78945790D01*
X126834095Y-78945790D01*
X125929333Y-78421980D02*
X125262666Y-78421980D01*
X125691238Y-79421980D01*
%TO.C,J1*%
X96833333Y-85452380D02*
X96833333Y-86166666D01*
X96880952Y-86309523D01*
X96976190Y-86404761D01*
X97119047Y-86452380D01*
X97214285Y-86452380D01*
X95833333Y-86452380D02*
X96404761Y-86452380D01*
X96119047Y-86452380D02*
X96119047Y-85452380D01*
X96214285Y-85595238D01*
X96309523Y-85690476D01*
X96404761Y-85738095D01*
%TO.C,C13*%
X126764257Y-74221342D02*
X126811876Y-74268961D01*
X126954733Y-74316580D01*
X127049971Y-74316580D01*
X127192828Y-74268961D01*
X127288066Y-74173723D01*
X127335685Y-74078485D01*
X127383304Y-73888009D01*
X127383304Y-73745152D01*
X127335685Y-73554676D01*
X127288066Y-73459438D01*
X127192828Y-73364200D01*
X127049971Y-73316580D01*
X126954733Y-73316580D01*
X126811876Y-73364200D01*
X126764257Y-73411819D01*
X125811876Y-74316580D02*
X126383304Y-74316580D01*
X126097590Y-74316580D02*
X126097590Y-73316580D01*
X126192828Y-73459438D01*
X126288066Y-73554676D01*
X126383304Y-73602295D01*
X125478542Y-73316580D02*
X124859495Y-73316580D01*
X125192828Y-73697533D01*
X125049971Y-73697533D01*
X124954733Y-73745152D01*
X124907114Y-73792771D01*
X124859495Y-73888009D01*
X124859495Y-74126104D01*
X124907114Y-74221342D01*
X124954733Y-74268961D01*
X125049971Y-74316580D01*
X125335685Y-74316580D01*
X125430923Y-74268961D01*
X125478542Y-74221342D01*
%TO.C,R18*%
X129019780Y-64298342D02*
X128543590Y-63965009D01*
X129019780Y-63726914D02*
X128019780Y-63726914D01*
X128019780Y-64107866D01*
X128067400Y-64203104D01*
X128115019Y-64250723D01*
X128210257Y-64298342D01*
X128353114Y-64298342D01*
X128448352Y-64250723D01*
X128495971Y-64203104D01*
X128543590Y-64107866D01*
X128543590Y-63726914D01*
X129019780Y-65250723D02*
X129019780Y-64679295D01*
X129019780Y-64965009D02*
X128019780Y-64965009D01*
X128162638Y-64869771D01*
X128257876Y-64774533D01*
X128305495Y-64679295D01*
X128448352Y-65822152D02*
X128400733Y-65726914D01*
X128353114Y-65679295D01*
X128257876Y-65631676D01*
X128210257Y-65631676D01*
X128115019Y-65679295D01*
X128067400Y-65726914D01*
X128019780Y-65822152D01*
X128019780Y-66012628D01*
X128067400Y-66107866D01*
X128115019Y-66155485D01*
X128210257Y-66203104D01*
X128257876Y-66203104D01*
X128353114Y-66155485D01*
X128400733Y-66107866D01*
X128448352Y-66012628D01*
X128448352Y-65822152D01*
X128495971Y-65726914D01*
X128543590Y-65679295D01*
X128638828Y-65631676D01*
X128829304Y-65631676D01*
X128924542Y-65679295D01*
X128972161Y-65726914D01*
X129019780Y-65822152D01*
X129019780Y-66012628D01*
X128972161Y-66107866D01*
X128924542Y-66155485D01*
X128829304Y-66203104D01*
X128638828Y-66203104D01*
X128543590Y-66155485D01*
X128495971Y-66107866D01*
X128448352Y-66012628D01*
D11*
%TO.C,IC2*%
X108153923Y-79957438D02*
X106883923Y-79957438D01*
X108032971Y-81287914D02*
X108093447Y-81227438D01*
X108153923Y-81046009D01*
X108153923Y-80925057D01*
X108093447Y-80743628D01*
X107972495Y-80622676D01*
X107851542Y-80562200D01*
X107609638Y-80501723D01*
X107428209Y-80501723D01*
X107186304Y-80562200D01*
X107065352Y-80622676D01*
X106944400Y-80743628D01*
X106883923Y-80925057D01*
X106883923Y-81046009D01*
X106944400Y-81227438D01*
X107004876Y-81287914D01*
X107004876Y-81771723D02*
X106944400Y-81832200D01*
X106883923Y-81953152D01*
X106883923Y-82255533D01*
X106944400Y-82376485D01*
X107004876Y-82436961D01*
X107125828Y-82497438D01*
X107246780Y-82497438D01*
X107428209Y-82436961D01*
X108153923Y-81711247D01*
X108153923Y-82497438D01*
%TO.C,Q7*%
X111749152Y-88293476D02*
X111870104Y-88233000D01*
X111991057Y-88112047D01*
X112172485Y-87930619D01*
X112293438Y-87870142D01*
X112414390Y-87870142D01*
X112353914Y-88172523D02*
X112474866Y-88112047D01*
X112595819Y-87991095D01*
X112656295Y-87749190D01*
X112656295Y-87325857D01*
X112595819Y-87083952D01*
X112474866Y-86963000D01*
X112353914Y-86902523D01*
X112112009Y-86902523D01*
X111991057Y-86963000D01*
X111870104Y-87083952D01*
X111809628Y-87325857D01*
X111809628Y-87749190D01*
X111870104Y-87991095D01*
X111991057Y-88112047D01*
X112112009Y-88172523D01*
X112353914Y-88172523D01*
X111386295Y-86902523D02*
X110539628Y-86902523D01*
X111083914Y-88172523D01*
D10*
%TO.C,C17*%
X119842857Y-95907142D02*
X119890476Y-95954761D01*
X120033333Y-96002380D01*
X120128571Y-96002380D01*
X120271428Y-95954761D01*
X120366666Y-95859523D01*
X120414285Y-95764285D01*
X120461904Y-95573809D01*
X120461904Y-95430952D01*
X120414285Y-95240476D01*
X120366666Y-95145238D01*
X120271428Y-95050000D01*
X120128571Y-95002380D01*
X120033333Y-95002380D01*
X119890476Y-95050000D01*
X119842857Y-95097619D01*
X118890476Y-96002380D02*
X119461904Y-96002380D01*
X119176190Y-96002380D02*
X119176190Y-95002380D01*
X119271428Y-95145238D01*
X119366666Y-95240476D01*
X119461904Y-95288095D01*
X118557142Y-95002380D02*
X117890476Y-95002380D01*
X118319047Y-96002380D01*
%TO.C,R19*%
X102654580Y-63841142D02*
X102178390Y-63507809D01*
X102654580Y-63269714D02*
X101654580Y-63269714D01*
X101654580Y-63650666D01*
X101702200Y-63745904D01*
X101749819Y-63793523D01*
X101845057Y-63841142D01*
X101987914Y-63841142D01*
X102083152Y-63793523D01*
X102130771Y-63745904D01*
X102178390Y-63650666D01*
X102178390Y-63269714D01*
X102654580Y-64793523D02*
X102654580Y-64222095D01*
X102654580Y-64507809D02*
X101654580Y-64507809D01*
X101797438Y-64412571D01*
X101892676Y-64317333D01*
X101940295Y-64222095D01*
X102654580Y-65269714D02*
X102654580Y-65460190D01*
X102606961Y-65555428D01*
X102559342Y-65603047D01*
X102416485Y-65698285D01*
X102226009Y-65745904D01*
X101845057Y-65745904D01*
X101749819Y-65698285D01*
X101702200Y-65650666D01*
X101654580Y-65555428D01*
X101654580Y-65364952D01*
X101702200Y-65269714D01*
X101749819Y-65222095D01*
X101845057Y-65174476D01*
X102083152Y-65174476D01*
X102178390Y-65222095D01*
X102226009Y-65269714D01*
X102273628Y-65364952D01*
X102273628Y-65555428D01*
X102226009Y-65650666D01*
X102178390Y-65698285D01*
X102083152Y-65745904D01*
%TO.C,C6*%
X126211866Y-80850742D02*
X126259485Y-80898361D01*
X126402342Y-80945980D01*
X126497580Y-80945980D01*
X126640438Y-80898361D01*
X126735676Y-80803123D01*
X126783295Y-80707885D01*
X126830914Y-80517409D01*
X126830914Y-80374552D01*
X126783295Y-80184076D01*
X126735676Y-80088838D01*
X126640438Y-79993600D01*
X126497580Y-79945980D01*
X126402342Y-79945980D01*
X126259485Y-79993600D01*
X126211866Y-80041219D01*
X125354723Y-79945980D02*
X125545200Y-79945980D01*
X125640438Y-79993600D01*
X125688057Y-80041219D01*
X125783295Y-80184076D01*
X125830914Y-80374552D01*
X125830914Y-80755504D01*
X125783295Y-80850742D01*
X125735676Y-80898361D01*
X125640438Y-80945980D01*
X125449961Y-80945980D01*
X125354723Y-80898361D01*
X125307104Y-80850742D01*
X125259485Y-80755504D01*
X125259485Y-80517409D01*
X125307104Y-80422171D01*
X125354723Y-80374552D01*
X125449961Y-80326933D01*
X125640438Y-80326933D01*
X125735676Y-80374552D01*
X125783295Y-80422171D01*
X125830914Y-80517409D01*
%TO.C,R17*%
X117022380Y-89957142D02*
X116546190Y-89623809D01*
X117022380Y-89385714D02*
X116022380Y-89385714D01*
X116022380Y-89766666D01*
X116070000Y-89861904D01*
X116117619Y-89909523D01*
X116212857Y-89957142D01*
X116355714Y-89957142D01*
X116450952Y-89909523D01*
X116498571Y-89861904D01*
X116546190Y-89766666D01*
X116546190Y-89385714D01*
X117022380Y-90909523D02*
X117022380Y-90338095D01*
X117022380Y-90623809D02*
X116022380Y-90623809D01*
X116165238Y-90528571D01*
X116260476Y-90433333D01*
X116308095Y-90338095D01*
X116022380Y-91242857D02*
X116022380Y-91909523D01*
X117022380Y-91480952D01*
%TO.C,R16*%
X119722380Y-90057142D02*
X119246190Y-89723809D01*
X119722380Y-89485714D02*
X118722380Y-89485714D01*
X118722380Y-89866666D01*
X118770000Y-89961904D01*
X118817619Y-90009523D01*
X118912857Y-90057142D01*
X119055714Y-90057142D01*
X119150952Y-90009523D01*
X119198571Y-89961904D01*
X119246190Y-89866666D01*
X119246190Y-89485714D01*
X119722380Y-91009523D02*
X119722380Y-90438095D01*
X119722380Y-90723809D02*
X118722380Y-90723809D01*
X118865238Y-90628571D01*
X118960476Y-90533333D01*
X119008095Y-90438095D01*
X118722380Y-91866666D02*
X118722380Y-91676190D01*
X118770000Y-91580952D01*
X118817619Y-91533333D01*
X118960476Y-91438095D01*
X119150952Y-91390476D01*
X119531904Y-91390476D01*
X119627142Y-91438095D01*
X119674761Y-91485714D01*
X119722380Y-91580952D01*
X119722380Y-91771428D01*
X119674761Y-91866666D01*
X119627142Y-91914285D01*
X119531904Y-91961904D01*
X119293809Y-91961904D01*
X119198571Y-91914285D01*
X119150952Y-91866666D01*
X119103333Y-91771428D01*
X119103333Y-91580952D01*
X119150952Y-91485714D01*
X119198571Y-91438095D01*
X119293809Y-91390476D01*
%TO.C,M2*%
X97681980Y-60601076D02*
X96681980Y-60601076D01*
X97396266Y-60934409D01*
X96681980Y-61267742D01*
X97681980Y-61267742D01*
X96777219Y-61696314D02*
X96729600Y-61743933D01*
X96681980Y-61839171D01*
X96681980Y-62077266D01*
X96729600Y-62172504D01*
X96777219Y-62220123D01*
X96872457Y-62267742D01*
X96967695Y-62267742D01*
X97110552Y-62220123D01*
X97681980Y-61648695D01*
X97681980Y-62267742D01*
%TO.C,J5*%
X98286133Y-83012380D02*
X98286133Y-83726666D01*
X98333752Y-83869523D01*
X98428990Y-83964761D01*
X98571847Y-84012380D01*
X98667085Y-84012380D01*
X97333752Y-83012380D02*
X97809942Y-83012380D01*
X97857561Y-83488571D01*
X97809942Y-83440952D01*
X97714704Y-83393333D01*
X97476609Y-83393333D01*
X97381371Y-83440952D01*
X97333752Y-83488571D01*
X97286133Y-83583809D01*
X97286133Y-83821904D01*
X97333752Y-83917142D01*
X97381371Y-83964761D01*
X97476609Y-84012380D01*
X97714704Y-84012380D01*
X97809942Y-83964761D01*
X97857561Y-83917142D01*
%TO.C,C23*%
X129149742Y-77707742D02*
X129197361Y-77660123D01*
X129244980Y-77517266D01*
X129244980Y-77422028D01*
X129197361Y-77279171D01*
X129102123Y-77183933D01*
X129006885Y-77136314D01*
X128816409Y-77088695D01*
X128673552Y-77088695D01*
X128483076Y-77136314D01*
X128387838Y-77183933D01*
X128292600Y-77279171D01*
X128244980Y-77422028D01*
X128244980Y-77517266D01*
X128292600Y-77660123D01*
X128340219Y-77707742D01*
X128340219Y-78088695D02*
X128292600Y-78136314D01*
X128244980Y-78231552D01*
X128244980Y-78469647D01*
X128292600Y-78564885D01*
X128340219Y-78612504D01*
X128435457Y-78660123D01*
X128530695Y-78660123D01*
X128673552Y-78612504D01*
X129244980Y-78041076D01*
X129244980Y-78660123D01*
X128244980Y-78993457D02*
X128244980Y-79612504D01*
X128625933Y-79279171D01*
X128625933Y-79422028D01*
X128673552Y-79517266D01*
X128721171Y-79564885D01*
X128816409Y-79612504D01*
X129054504Y-79612504D01*
X129149742Y-79564885D01*
X129197361Y-79517266D01*
X129244980Y-79422028D01*
X129244980Y-79136314D01*
X129197361Y-79041076D01*
X129149742Y-78993457D01*
%TO.C,C8*%
X129899942Y-88904533D02*
X129947561Y-88856914D01*
X129995180Y-88714057D01*
X129995180Y-88618819D01*
X129947561Y-88475961D01*
X129852323Y-88380723D01*
X129757085Y-88333104D01*
X129566609Y-88285485D01*
X129423752Y-88285485D01*
X129233276Y-88333104D01*
X129138038Y-88380723D01*
X129042800Y-88475961D01*
X128995180Y-88618819D01*
X128995180Y-88714057D01*
X129042800Y-88856914D01*
X129090419Y-88904533D01*
X129423752Y-89475961D02*
X129376133Y-89380723D01*
X129328514Y-89333104D01*
X129233276Y-89285485D01*
X129185657Y-89285485D01*
X129090419Y-89333104D01*
X129042800Y-89380723D01*
X128995180Y-89475961D01*
X128995180Y-89666438D01*
X129042800Y-89761676D01*
X129090419Y-89809295D01*
X129185657Y-89856914D01*
X129233276Y-89856914D01*
X129328514Y-89809295D01*
X129376133Y-89761676D01*
X129423752Y-89666438D01*
X129423752Y-89475961D01*
X129471371Y-89380723D01*
X129518990Y-89333104D01*
X129614228Y-89285485D01*
X129804704Y-89285485D01*
X129899942Y-89333104D01*
X129947561Y-89380723D01*
X129995180Y-89475961D01*
X129995180Y-89666438D01*
X129947561Y-89761676D01*
X129899942Y-89809295D01*
X129804704Y-89856914D01*
X129614228Y-89856914D01*
X129518990Y-89809295D01*
X129471371Y-89761676D01*
X129423752Y-89666438D01*
%TO.C,R12*%
X108958857Y-77110580D02*
X109292190Y-76634390D01*
X109530285Y-77110580D02*
X109530285Y-76110580D01*
X109149333Y-76110580D01*
X109054095Y-76158200D01*
X109006476Y-76205819D01*
X108958857Y-76301057D01*
X108958857Y-76443914D01*
X109006476Y-76539152D01*
X109054095Y-76586771D01*
X109149333Y-76634390D01*
X109530285Y-76634390D01*
X108006476Y-77110580D02*
X108577904Y-77110580D01*
X108292190Y-77110580D02*
X108292190Y-76110580D01*
X108387428Y-76253438D01*
X108482666Y-76348676D01*
X108577904Y-76396295D01*
X107625523Y-76205819D02*
X107577904Y-76158200D01*
X107482666Y-76110580D01*
X107244571Y-76110580D01*
X107149333Y-76158200D01*
X107101714Y-76205819D01*
X107054095Y-76301057D01*
X107054095Y-76396295D01*
X107101714Y-76539152D01*
X107673142Y-77110580D01*
X107054095Y-77110580D01*
%TO.C,C18*%
X110751742Y-91908142D02*
X110799361Y-91860523D01*
X110846980Y-91717666D01*
X110846980Y-91622428D01*
X110799361Y-91479571D01*
X110704123Y-91384333D01*
X110608885Y-91336714D01*
X110418409Y-91289095D01*
X110275552Y-91289095D01*
X110085076Y-91336714D01*
X109989838Y-91384333D01*
X109894600Y-91479571D01*
X109846980Y-91622428D01*
X109846980Y-91717666D01*
X109894600Y-91860523D01*
X109942219Y-91908142D01*
X110846980Y-92860523D02*
X110846980Y-92289095D01*
X110846980Y-92574809D02*
X109846980Y-92574809D01*
X109989838Y-92479571D01*
X110085076Y-92384333D01*
X110132695Y-92289095D01*
X110275552Y-93431952D02*
X110227933Y-93336714D01*
X110180314Y-93289095D01*
X110085076Y-93241476D01*
X110037457Y-93241476D01*
X109942219Y-93289095D01*
X109894600Y-93336714D01*
X109846980Y-93431952D01*
X109846980Y-93622428D01*
X109894600Y-93717666D01*
X109942219Y-93765285D01*
X110037457Y-93812904D01*
X110085076Y-93812904D01*
X110180314Y-93765285D01*
X110227933Y-93717666D01*
X110275552Y-93622428D01*
X110275552Y-93431952D01*
X110323171Y-93336714D01*
X110370790Y-93289095D01*
X110466028Y-93241476D01*
X110656504Y-93241476D01*
X110751742Y-93289095D01*
X110799361Y-93336714D01*
X110846980Y-93431952D01*
X110846980Y-93622428D01*
X110799361Y-93717666D01*
X110751742Y-93765285D01*
X110656504Y-93812904D01*
X110466028Y-93812904D01*
X110370790Y-93765285D01*
X110323171Y-93717666D01*
X110275552Y-93622428D01*
%TO.C,C19*%
X101973857Y-82803142D02*
X102021476Y-82850761D01*
X102164333Y-82898380D01*
X102259571Y-82898380D01*
X102402428Y-82850761D01*
X102497666Y-82755523D01*
X102545285Y-82660285D01*
X102592904Y-82469809D01*
X102592904Y-82326952D01*
X102545285Y-82136476D01*
X102497666Y-82041238D01*
X102402428Y-81946000D01*
X102259571Y-81898380D01*
X102164333Y-81898380D01*
X102021476Y-81946000D01*
X101973857Y-81993619D01*
X101021476Y-82898380D02*
X101592904Y-82898380D01*
X101307190Y-82898380D02*
X101307190Y-81898380D01*
X101402428Y-82041238D01*
X101497666Y-82136476D01*
X101592904Y-82184095D01*
X100545285Y-82898380D02*
X100354809Y-82898380D01*
X100259571Y-82850761D01*
X100211952Y-82803142D01*
X100116714Y-82660285D01*
X100069095Y-82469809D01*
X100069095Y-82088857D01*
X100116714Y-81993619D01*
X100164333Y-81946000D01*
X100259571Y-81898380D01*
X100450047Y-81898380D01*
X100545285Y-81946000D01*
X100592904Y-81993619D01*
X100640523Y-82088857D01*
X100640523Y-82326952D01*
X100592904Y-82422190D01*
X100545285Y-82469809D01*
X100450047Y-82517428D01*
X100259571Y-82517428D01*
X100164333Y-82469809D01*
X100116714Y-82422190D01*
X100069095Y-82326952D01*
%TO.C,R20*%
X127521180Y-64298342D02*
X127044990Y-63965009D01*
X127521180Y-63726914D02*
X126521180Y-63726914D01*
X126521180Y-64107866D01*
X126568800Y-64203104D01*
X126616419Y-64250723D01*
X126711657Y-64298342D01*
X126854514Y-64298342D01*
X126949752Y-64250723D01*
X126997371Y-64203104D01*
X127044990Y-64107866D01*
X127044990Y-63726914D01*
X126616419Y-64679295D02*
X126568800Y-64726914D01*
X126521180Y-64822152D01*
X126521180Y-65060247D01*
X126568800Y-65155485D01*
X126616419Y-65203104D01*
X126711657Y-65250723D01*
X126806895Y-65250723D01*
X126949752Y-65203104D01*
X127521180Y-64631676D01*
X127521180Y-65250723D01*
X126521180Y-65869771D02*
X126521180Y-65965009D01*
X126568800Y-66060247D01*
X126616419Y-66107866D01*
X126711657Y-66155485D01*
X126902133Y-66203104D01*
X127140228Y-66203104D01*
X127330704Y-66155485D01*
X127425942Y-66107866D01*
X127473561Y-66060247D01*
X127521180Y-65965009D01*
X127521180Y-65869771D01*
X127473561Y-65774533D01*
X127425942Y-65726914D01*
X127330704Y-65679295D01*
X127140228Y-65631676D01*
X126902133Y-65631676D01*
X126711657Y-65679295D01*
X126616419Y-65726914D01*
X126568800Y-65774533D01*
X126521180Y-65869771D01*
%TO.C,C5*%
X128514742Y-65333333D02*
X128562361Y-65285714D01*
X128609980Y-65142857D01*
X128609980Y-65047619D01*
X128562361Y-64904761D01*
X128467123Y-64809523D01*
X128371885Y-64761904D01*
X128181409Y-64714285D01*
X128038552Y-64714285D01*
X127848076Y-64761904D01*
X127752838Y-64809523D01*
X127657600Y-64904761D01*
X127609980Y-65047619D01*
X127609980Y-65142857D01*
X127657600Y-65285714D01*
X127705219Y-65333333D01*
X127609980Y-66238095D02*
X127609980Y-65761904D01*
X128086171Y-65714285D01*
X128038552Y-65761904D01*
X127990933Y-65857142D01*
X127990933Y-66095238D01*
X128038552Y-66190476D01*
X128086171Y-66238095D01*
X128181409Y-66285714D01*
X128419504Y-66285714D01*
X128514742Y-66238095D01*
X128562361Y-66190476D01*
X128609980Y-66095238D01*
X128609980Y-65857142D01*
X128562361Y-65761904D01*
X128514742Y-65714285D01*
%TO.C,M1*%
X124798780Y-60804276D02*
X123798780Y-60804276D01*
X124513066Y-61137609D01*
X123798780Y-61470942D01*
X124798780Y-61470942D01*
X124798780Y-62470942D02*
X124798780Y-61899514D01*
X124798780Y-62185228D02*
X123798780Y-62185228D01*
X123941638Y-62089990D01*
X124036876Y-61994752D01*
X124084495Y-61899514D01*
%TO.C,R21*%
X101181380Y-63841142D02*
X100705190Y-63507809D01*
X101181380Y-63269714D02*
X100181380Y-63269714D01*
X100181380Y-63650666D01*
X100229000Y-63745904D01*
X100276619Y-63793523D01*
X100371857Y-63841142D01*
X100514714Y-63841142D01*
X100609952Y-63793523D01*
X100657571Y-63745904D01*
X100705190Y-63650666D01*
X100705190Y-63269714D01*
X100276619Y-64222095D02*
X100229000Y-64269714D01*
X100181380Y-64364952D01*
X100181380Y-64603047D01*
X100229000Y-64698285D01*
X100276619Y-64745904D01*
X100371857Y-64793523D01*
X100467095Y-64793523D01*
X100609952Y-64745904D01*
X101181380Y-64174476D01*
X101181380Y-64793523D01*
X101181380Y-65745904D02*
X101181380Y-65174476D01*
X101181380Y-65460190D02*
X100181380Y-65460190D01*
X100324238Y-65364952D01*
X100419476Y-65269714D01*
X100467095Y-65174476D01*
%TO.C,J11*%
X132976123Y-68521780D02*
X132976123Y-69236066D01*
X133023742Y-69378923D01*
X133118980Y-69474161D01*
X133261838Y-69521780D01*
X133357076Y-69521780D01*
X131976123Y-69521780D02*
X132547552Y-69521780D01*
X132261838Y-69521780D02*
X132261838Y-68521780D01*
X132357076Y-68664638D01*
X132452314Y-68759876D01*
X132547552Y-68807495D01*
X131023742Y-69521780D02*
X131595171Y-69521780D01*
X131309457Y-69521780D02*
X131309457Y-68521780D01*
X131404695Y-68664638D01*
X131499933Y-68759876D01*
X131595171Y-68807495D01*
%TO.C,C11*%
X123082542Y-85100942D02*
X123130161Y-85053323D01*
X123177780Y-84910466D01*
X123177780Y-84815228D01*
X123130161Y-84672371D01*
X123034923Y-84577133D01*
X122939685Y-84529514D01*
X122749209Y-84481895D01*
X122606352Y-84481895D01*
X122415876Y-84529514D01*
X122320638Y-84577133D01*
X122225400Y-84672371D01*
X122177780Y-84815228D01*
X122177780Y-84910466D01*
X122225400Y-85053323D01*
X122273019Y-85100942D01*
X123177780Y-86053323D02*
X123177780Y-85481895D01*
X123177780Y-85767609D02*
X122177780Y-85767609D01*
X122320638Y-85672371D01*
X122415876Y-85577133D01*
X122463495Y-85481895D01*
X123177780Y-87005704D02*
X123177780Y-86434276D01*
X123177780Y-86719990D02*
X122177780Y-86719990D01*
X122320638Y-86624752D01*
X122415876Y-86529514D01*
X122463495Y-86434276D01*
%TO.C,C3*%
X119150666Y-69049942D02*
X119198285Y-69097561D01*
X119341142Y-69145180D01*
X119436380Y-69145180D01*
X119579238Y-69097561D01*
X119674476Y-69002323D01*
X119722095Y-68907085D01*
X119769714Y-68716609D01*
X119769714Y-68573752D01*
X119722095Y-68383276D01*
X119674476Y-68288038D01*
X119579238Y-68192800D01*
X119436380Y-68145180D01*
X119341142Y-68145180D01*
X119198285Y-68192800D01*
X119150666Y-68240419D01*
X118817333Y-68145180D02*
X118198285Y-68145180D01*
X118531619Y-68526133D01*
X118388761Y-68526133D01*
X118293523Y-68573752D01*
X118245904Y-68621371D01*
X118198285Y-68716609D01*
X118198285Y-68954704D01*
X118245904Y-69049942D01*
X118293523Y-69097561D01*
X118388761Y-69145180D01*
X118674476Y-69145180D01*
X118769714Y-69097561D01*
X118817333Y-69049942D01*
%TO.C,C2*%
X122980942Y-68495333D02*
X123028561Y-68447714D01*
X123076180Y-68304857D01*
X123076180Y-68209619D01*
X123028561Y-68066761D01*
X122933323Y-67971523D01*
X122838085Y-67923904D01*
X122647609Y-67876285D01*
X122504752Y-67876285D01*
X122314276Y-67923904D01*
X122219038Y-67971523D01*
X122123800Y-68066761D01*
X122076180Y-68209619D01*
X122076180Y-68304857D01*
X122123800Y-68447714D01*
X122171419Y-68495333D01*
X122171419Y-68876285D02*
X122123800Y-68923904D01*
X122076180Y-69019142D01*
X122076180Y-69257238D01*
X122123800Y-69352476D01*
X122171419Y-69400095D01*
X122266657Y-69447714D01*
X122361895Y-69447714D01*
X122504752Y-69400095D01*
X123076180Y-68828666D01*
X123076180Y-69447714D01*
D12*
%TO.C,J32*%
X177226600Y-110129400D02*
X177226600Y-112189400D01*
X177226600Y-108069400D02*
X176166600Y-108069400D01*
X177226600Y-110129400D02*
X175106600Y-110129400D01*
X177226600Y-112189400D02*
X175106600Y-112189400D01*
X175106600Y-110129400D02*
X175106600Y-112189400D01*
X177226600Y-109129400D02*
X177226600Y-108069400D01*
%TO.C,R81*%
X152175420Y-113738200D02*
X152456580Y-113738200D01*
X152175420Y-112718200D02*
X152456580Y-112718200D01*
%TO.C,J28*%
X140892800Y-118500000D02*
X143012800Y-118500000D01*
X140892800Y-120560000D02*
X141952800Y-120560000D01*
X140892800Y-118500000D02*
X140892800Y-112440000D01*
X140892800Y-112440000D02*
X143012800Y-112440000D01*
X143012800Y-118500000D02*
X143012800Y-112440000D01*
X140892800Y-119500000D02*
X140892800Y-120560000D01*
%TO.C,R89*%
X170161300Y-103195924D02*
X170161300Y-102686476D01*
X169116300Y-103195924D02*
X169116300Y-102686476D01*
%TO.C,C95*%
X173097600Y-102788748D02*
X173097600Y-104211252D01*
X174917600Y-102788748D02*
X174917600Y-104211252D01*
%TO.C,R90*%
X142776500Y-102738724D02*
X142776500Y-102229276D01*
X143821500Y-102738724D02*
X143821500Y-102229276D01*
%TO.C,R86*%
X161477500Y-128362742D02*
X161477500Y-128837258D01*
X162522500Y-128362742D02*
X162522500Y-128837258D01*
%TO.C,C98*%
X174462800Y-126930620D02*
X174462800Y-127211780D01*
X175482800Y-126930620D02*
X175482800Y-127211780D01*
%TO.C,C109*%
X146042252Y-123206000D02*
X144619748Y-123206000D01*
X146042252Y-121386000D02*
X144619748Y-121386000D01*
%TO.C,M8*%
X144289600Y-98350600D02*
X146349600Y-98350600D01*
X146349600Y-98350600D02*
X146349600Y-100470600D01*
X144289600Y-98350600D02*
X144289600Y-100470600D01*
X144289600Y-100470600D02*
X146349600Y-100470600D01*
X142229600Y-98350600D02*
X142229600Y-99410600D01*
X143289600Y-98350600D02*
X142229600Y-98350600D01*
%TO.C,C108*%
X153454600Y-131262252D02*
X153454600Y-129839748D01*
X151634600Y-131262252D02*
X151634600Y-129839748D01*
%TO.C,C113*%
X175552600Y-115639348D02*
X175552600Y-117061852D01*
X173732600Y-115639348D02*
X173732600Y-117061852D01*
%TO.C,C96*%
X169904620Y-117573600D02*
X170185780Y-117573600D01*
X169904620Y-116553600D02*
X170185780Y-116553600D01*
%TO.C,C92*%
X164683800Y-106802580D02*
X164683800Y-106521420D01*
X165703800Y-106802580D02*
X165703800Y-106521420D01*
%TO.C,REF\u002A\u002A17*%
X149480400Y-98258400D02*
X148150400Y-98258400D01*
X149480400Y-100858400D02*
X149480400Y-100918400D01*
X149480400Y-99588400D02*
X149480400Y-98258400D01*
X146820400Y-100858400D02*
X146820400Y-100918400D01*
X149480400Y-100858400D02*
X146820400Y-100858400D01*
X149480400Y-100918400D02*
X146820400Y-100918400D01*
%TO.C,M7*%
X171406400Y-100673800D02*
X173466400Y-100673800D01*
X171406400Y-98553800D02*
X173466400Y-98553800D01*
X169346400Y-98553800D02*
X169346400Y-99613800D01*
X173466400Y-98553800D02*
X173466400Y-100673800D01*
X170406400Y-98553800D02*
X169346400Y-98553800D01*
X171406400Y-98553800D02*
X171406400Y-100673800D01*
%TO.C,R85*%
X164177500Y-128462742D02*
X164177500Y-128937258D01*
X165222500Y-128462742D02*
X165222500Y-128937258D01*
%TO.C,C93*%
X163124580Y-107612800D02*
X162843420Y-107612800D01*
X163124580Y-108632800D02*
X162843420Y-108632800D01*
%TO.C,C101*%
X164785400Y-123884380D02*
X164785400Y-123603220D01*
X165805400Y-123884380D02*
X165805400Y-123603220D01*
%TO.C,D7*%
X161545600Y-119487200D02*
X161545600Y-123387200D01*
X159545600Y-119487200D02*
X161545600Y-119487200D01*
X159545600Y-119487200D02*
X159545600Y-123387200D01*
%TO.C,C99*%
X156493420Y-118153800D02*
X156774580Y-118153800D01*
X156493420Y-119173800D02*
X156774580Y-119173800D01*
%TO.C,C107*%
X162488748Y-132610000D02*
X163911252Y-132610000D01*
X162488748Y-130790000D02*
X163911252Y-130790000D01*
D13*
%TO.C,Q12*%
X157328200Y-124098000D02*
X156028200Y-124098000D01*
X155578200Y-124138000D02*
X155578200Y-127058000D01*
X155578200Y-127058000D02*
X155678200Y-127058000D01*
X155678200Y-127058000D02*
X155678200Y-124138000D01*
X155678200Y-124138000D02*
X155578200Y-124138000D01*
%TO.C,IC14*%
X154829400Y-117447200D02*
X148329400Y-117447200D01*
X148329400Y-120947200D02*
X154829400Y-120947200D01*
X154704400Y-123222200D02*
X154704400Y-121472200D01*
X148329400Y-117447200D02*
X148329400Y-120947200D01*
X154829400Y-120947200D02*
X154829400Y-117447200D01*
D12*
%TO.C,R87*%
X170614900Y-103195924D02*
X170614900Y-102686476D01*
X171659900Y-103195924D02*
X171659900Y-102686476D01*
%TO.C,C103*%
X169980820Y-109924200D02*
X170261980Y-109924200D01*
X169980820Y-110944200D02*
X170261980Y-110944200D01*
%TO.C,J25*%
X148336200Y-128309200D02*
X145336200Y-128309200D01*
X142776200Y-124849200D02*
X143696200Y-124849200D01*
X149136200Y-130409200D02*
X149136200Y-132669200D01*
X143696200Y-126449200D02*
X143976200Y-126449200D01*
X149136200Y-130409200D02*
X149136200Y-128809200D01*
X149696200Y-126449200D02*
X149696200Y-125234200D01*
X143536200Y-130409200D02*
X144536200Y-130409200D01*
X150136200Y-128809200D02*
X150136200Y-130409200D01*
X145336200Y-128309200D02*
X145336200Y-132669200D01*
X150136200Y-130409200D02*
X149136200Y-130409200D01*
X143696200Y-124849200D02*
X143696200Y-126449200D01*
X148336200Y-132669200D02*
X148336200Y-128309200D01*
X150896200Y-124849200D02*
X150896200Y-132669200D01*
X149976200Y-124849200D02*
X150896200Y-124849200D01*
X149696200Y-126449200D02*
X149976200Y-126449200D01*
X150896200Y-126449200D02*
X149976200Y-126449200D01*
X143536200Y-128809200D02*
X143536200Y-130409200D01*
X149136200Y-128809200D02*
X150136200Y-128809200D01*
X142776200Y-132669200D02*
X142776200Y-124849200D01*
X149976200Y-126449200D02*
X149976200Y-124849200D01*
X144536200Y-130409200D02*
X144536200Y-128809200D01*
X144536200Y-128809200D02*
X143536200Y-128809200D01*
X142776200Y-126449200D02*
X143696200Y-126449200D01*
X149636200Y-130409200D02*
X149636200Y-132669200D01*
X150896200Y-132669200D02*
X142776200Y-132669200D01*
%TO.C,R76*%
X169955420Y-116049600D02*
X170236580Y-116049600D01*
X169955420Y-115029600D02*
X170236580Y-115029600D01*
%TO.C,J29*%
X144017000Y-112394000D02*
X146137000Y-112394000D01*
X144017000Y-120514000D02*
X145077000Y-120514000D01*
X144017000Y-119454000D02*
X144017000Y-120514000D01*
X146137000Y-118454000D02*
X146137000Y-112394000D01*
X144017000Y-118454000D02*
X144017000Y-112394000D01*
X144017000Y-118454000D02*
X146137000Y-118454000D01*
%TO.C,J27*%
X154685000Y-130170000D02*
X154685000Y-128110000D01*
X154685000Y-132230000D02*
X155745000Y-132230000D01*
X156805000Y-130170000D02*
X156805000Y-128110000D01*
X154685000Y-128110000D02*
X156805000Y-128110000D01*
X154685000Y-131170000D02*
X154685000Y-132230000D01*
X154685000Y-130170000D02*
X156805000Y-130170000D01*
%TO.C,C116*%
X171492948Y-109286800D02*
X172915452Y-109286800D01*
X171492948Y-107466800D02*
X172915452Y-107466800D01*
%TO.C,C105*%
X163099180Y-106139600D02*
X162818020Y-106139600D01*
X163099180Y-107159600D02*
X162818020Y-107159600D01*
%TO.C,C110*%
X153454600Y-125191548D02*
X153454600Y-126614052D01*
X151634600Y-125191548D02*
X151634600Y-126614052D01*
%TO.C,C112*%
X147189600Y-101671148D02*
X147189600Y-103093652D01*
X149009600Y-101671148D02*
X149009600Y-103093652D01*
%TO.C,REF\u002A\u002A18*%
X175830000Y-99500000D02*
X175830000Y-98170000D01*
X175830000Y-100770000D02*
X175830000Y-100830000D01*
X175830000Y-98170000D02*
X174500000Y-98170000D01*
X175830000Y-100770000D02*
X173170000Y-100770000D01*
X175830000Y-100830000D02*
X173170000Y-100830000D01*
X173170000Y-100770000D02*
X173170000Y-100830000D01*
%TO.C,R88*%
X144249700Y-102738724D02*
X144249700Y-102229276D01*
X145294700Y-102738724D02*
X145294700Y-102229276D01*
%TO.C,J24*%
X133226600Y-110129400D02*
X133226600Y-112189400D01*
X133226600Y-108069400D02*
X132166600Y-108069400D01*
X133226600Y-110129400D02*
X131106600Y-110129400D01*
X133226600Y-112189400D02*
X131106600Y-112189400D01*
X131106600Y-110129400D02*
X131106600Y-112189400D01*
X133226600Y-109129400D02*
X133226600Y-108069400D01*
%TO.C,R58*%
X108175420Y-113738200D02*
X108456580Y-113738200D01*
X108175420Y-112718200D02*
X108456580Y-112718200D01*
%TO.C,J20*%
X96892800Y-118500000D02*
X99012800Y-118500000D01*
X96892800Y-120560000D02*
X97952800Y-120560000D01*
X96892800Y-118500000D02*
X96892800Y-112440000D01*
X96892800Y-112440000D02*
X99012800Y-112440000D01*
X99012800Y-118500000D02*
X99012800Y-112440000D01*
X96892800Y-119500000D02*
X96892800Y-120560000D01*
%TO.C,R66*%
X126161300Y-103195924D02*
X126161300Y-102686476D01*
X125116300Y-103195924D02*
X125116300Y-102686476D01*
%TO.C,C65*%
X129097600Y-102788748D02*
X129097600Y-104211252D01*
X130917600Y-102788748D02*
X130917600Y-104211252D01*
%TO.C,R67*%
X98776500Y-102738724D02*
X98776500Y-102229276D01*
X99821500Y-102738724D02*
X99821500Y-102229276D01*
%TO.C,R63*%
X117477500Y-128362742D02*
X117477500Y-128837258D01*
X118522500Y-128362742D02*
X118522500Y-128837258D01*
%TO.C,C68*%
X130462800Y-126930620D02*
X130462800Y-127211780D01*
X131482800Y-126930620D02*
X131482800Y-127211780D01*
%TO.C,C79*%
X102042252Y-123206000D02*
X100619748Y-123206000D01*
X102042252Y-121386000D02*
X100619748Y-121386000D01*
%TO.C,M6*%
X100289600Y-98350600D02*
X102349600Y-98350600D01*
X102349600Y-98350600D02*
X102349600Y-100470600D01*
X100289600Y-98350600D02*
X100289600Y-100470600D01*
X100289600Y-100470600D02*
X102349600Y-100470600D01*
X98229600Y-98350600D02*
X98229600Y-99410600D01*
X99289600Y-98350600D02*
X98229600Y-98350600D01*
%TO.C,C78*%
X109454600Y-131262252D02*
X109454600Y-129839748D01*
X107634600Y-131262252D02*
X107634600Y-129839748D01*
%TO.C,C83*%
X131552600Y-115639348D02*
X131552600Y-117061852D01*
X129732600Y-115639348D02*
X129732600Y-117061852D01*
%TO.C,C66*%
X125904620Y-117573600D02*
X126185780Y-117573600D01*
X125904620Y-116553600D02*
X126185780Y-116553600D01*
%TO.C,C62*%
X120683800Y-106802580D02*
X120683800Y-106521420D01*
X121703800Y-106802580D02*
X121703800Y-106521420D01*
%TO.C,REF\u002A\u002A11*%
X105480400Y-98258400D02*
X104150400Y-98258400D01*
X105480400Y-100858400D02*
X105480400Y-100918400D01*
X105480400Y-99588400D02*
X105480400Y-98258400D01*
X102820400Y-100858400D02*
X102820400Y-100918400D01*
X105480400Y-100858400D02*
X102820400Y-100858400D01*
X105480400Y-100918400D02*
X102820400Y-100918400D01*
%TO.C,M5*%
X127406400Y-100673800D02*
X129466400Y-100673800D01*
X127406400Y-98553800D02*
X129466400Y-98553800D01*
X125346400Y-98553800D02*
X125346400Y-99613800D01*
X129466400Y-98553800D02*
X129466400Y-100673800D01*
X126406400Y-98553800D02*
X125346400Y-98553800D01*
X127406400Y-98553800D02*
X127406400Y-100673800D01*
%TO.C,R62*%
X120177500Y-128462742D02*
X120177500Y-128937258D01*
X121222500Y-128462742D02*
X121222500Y-128937258D01*
%TO.C,C63*%
X119124580Y-107612800D02*
X118843420Y-107612800D01*
X119124580Y-108632800D02*
X118843420Y-108632800D01*
%TO.C,C71*%
X120785400Y-123884380D02*
X120785400Y-123603220D01*
X121805400Y-123884380D02*
X121805400Y-123603220D01*
%TO.C,D5*%
X117545600Y-119487200D02*
X117545600Y-123387200D01*
X115545600Y-119487200D02*
X117545600Y-119487200D01*
X115545600Y-119487200D02*
X115545600Y-123387200D01*
%TO.C,C69*%
X112493420Y-118153800D02*
X112774580Y-118153800D01*
X112493420Y-119173800D02*
X112774580Y-119173800D01*
%TO.C,C77*%
X118488748Y-132610000D02*
X119911252Y-132610000D01*
X118488748Y-130790000D02*
X119911252Y-130790000D01*
D13*
%TO.C,Q9*%
X113328200Y-124098000D02*
X112028200Y-124098000D01*
X111578200Y-124138000D02*
X111578200Y-127058000D01*
X111578200Y-127058000D02*
X111678200Y-127058000D01*
X111678200Y-127058000D02*
X111678200Y-124138000D01*
X111678200Y-124138000D02*
X111578200Y-124138000D01*
%TO.C,IC6*%
X110829400Y-117447200D02*
X104329400Y-117447200D01*
X104329400Y-120947200D02*
X110829400Y-120947200D01*
X110704400Y-123222200D02*
X110704400Y-121472200D01*
X104329400Y-117447200D02*
X104329400Y-120947200D01*
X110829400Y-120947200D02*
X110829400Y-117447200D01*
D12*
%TO.C,R64*%
X126614900Y-103195924D02*
X126614900Y-102686476D01*
X127659900Y-103195924D02*
X127659900Y-102686476D01*
%TO.C,C73*%
X125980820Y-109924200D02*
X126261980Y-109924200D01*
X125980820Y-110944200D02*
X126261980Y-110944200D01*
%TO.C,J17*%
X104336200Y-128309200D02*
X101336200Y-128309200D01*
X98776200Y-124849200D02*
X99696200Y-124849200D01*
X105136200Y-130409200D02*
X105136200Y-132669200D01*
X99696200Y-126449200D02*
X99976200Y-126449200D01*
X105136200Y-130409200D02*
X105136200Y-128809200D01*
X105696200Y-126449200D02*
X105696200Y-125234200D01*
X99536200Y-130409200D02*
X100536200Y-130409200D01*
X106136200Y-128809200D02*
X106136200Y-130409200D01*
X101336200Y-128309200D02*
X101336200Y-132669200D01*
X106136200Y-130409200D02*
X105136200Y-130409200D01*
X99696200Y-124849200D02*
X99696200Y-126449200D01*
X104336200Y-132669200D02*
X104336200Y-128309200D01*
X106896200Y-124849200D02*
X106896200Y-132669200D01*
X105976200Y-124849200D02*
X106896200Y-124849200D01*
X105696200Y-126449200D02*
X105976200Y-126449200D01*
X106896200Y-126449200D02*
X105976200Y-126449200D01*
X99536200Y-128809200D02*
X99536200Y-130409200D01*
X105136200Y-128809200D02*
X106136200Y-128809200D01*
X98776200Y-132669200D02*
X98776200Y-124849200D01*
X105976200Y-126449200D02*
X105976200Y-124849200D01*
X100536200Y-130409200D02*
X100536200Y-128809200D01*
X100536200Y-128809200D02*
X99536200Y-128809200D01*
X98776200Y-126449200D02*
X99696200Y-126449200D01*
X105636200Y-130409200D02*
X105636200Y-132669200D01*
X106896200Y-132669200D02*
X98776200Y-132669200D01*
%TO.C,R53*%
X125955420Y-116049600D02*
X126236580Y-116049600D01*
X125955420Y-115029600D02*
X126236580Y-115029600D01*
%TO.C,J21*%
X100017000Y-112394000D02*
X102137000Y-112394000D01*
X100017000Y-120514000D02*
X101077000Y-120514000D01*
X100017000Y-119454000D02*
X100017000Y-120514000D01*
X102137000Y-118454000D02*
X102137000Y-112394000D01*
X100017000Y-118454000D02*
X100017000Y-112394000D01*
X100017000Y-118454000D02*
X102137000Y-118454000D01*
%TO.C,J19*%
X110685000Y-130170000D02*
X110685000Y-128110000D01*
X110685000Y-132230000D02*
X111745000Y-132230000D01*
X112805000Y-130170000D02*
X112805000Y-128110000D01*
X110685000Y-128110000D02*
X112805000Y-128110000D01*
X110685000Y-131170000D02*
X110685000Y-132230000D01*
X110685000Y-130170000D02*
X112805000Y-130170000D01*
%TO.C,C86*%
X127492948Y-109286800D02*
X128915452Y-109286800D01*
X127492948Y-107466800D02*
X128915452Y-107466800D01*
%TO.C,C75*%
X119099180Y-106139600D02*
X118818020Y-106139600D01*
X119099180Y-107159600D02*
X118818020Y-107159600D01*
%TO.C,C80*%
X109454600Y-125191548D02*
X109454600Y-126614052D01*
X107634600Y-125191548D02*
X107634600Y-126614052D01*
%TO.C,C82*%
X103189600Y-101671148D02*
X103189600Y-103093652D01*
X105009600Y-101671148D02*
X105009600Y-103093652D01*
%TO.C,REF\u002A\u002A12*%
X131830000Y-99500000D02*
X131830000Y-98170000D01*
X131830000Y-100770000D02*
X131830000Y-100830000D01*
X131830000Y-98170000D02*
X130500000Y-98170000D01*
X131830000Y-100770000D02*
X129170000Y-100770000D01*
X131830000Y-100830000D02*
X129170000Y-100830000D01*
X129170000Y-100770000D02*
X129170000Y-100830000D01*
%TO.C,R65*%
X100249700Y-102738724D02*
X100249700Y-102229276D01*
X101294700Y-102738724D02*
X101294700Y-102229276D01*
%TO.C,J16*%
X177226600Y-72129400D02*
X177226600Y-74189400D01*
X177226600Y-70069400D02*
X176166600Y-70069400D01*
X177226600Y-72129400D02*
X175106600Y-72129400D01*
X177226600Y-74189400D02*
X175106600Y-74189400D01*
X175106600Y-72129400D02*
X175106600Y-74189400D01*
X177226600Y-71129400D02*
X177226600Y-70069400D01*
%TO.C,R35*%
X152175420Y-75738200D02*
X152456580Y-75738200D01*
X152175420Y-74718200D02*
X152456580Y-74718200D01*
%TO.C,J12*%
X140892800Y-80500000D02*
X143012800Y-80500000D01*
X140892800Y-82560000D02*
X141952800Y-82560000D01*
X140892800Y-80500000D02*
X140892800Y-74440000D01*
X140892800Y-74440000D02*
X143012800Y-74440000D01*
X143012800Y-80500000D02*
X143012800Y-74440000D01*
X140892800Y-81500000D02*
X140892800Y-82560000D01*
%TO.C,R43*%
X170161300Y-65195924D02*
X170161300Y-64686476D01*
X169116300Y-65195924D02*
X169116300Y-64686476D01*
%TO.C,C29*%
X173097600Y-64788748D02*
X173097600Y-66211252D01*
X174917600Y-64788748D02*
X174917600Y-66211252D01*
%TO.C,R44*%
X142776500Y-64738724D02*
X142776500Y-64229276D01*
X143821500Y-64738724D02*
X143821500Y-64229276D01*
%TO.C,R40*%
X161477500Y-90362742D02*
X161477500Y-90837258D01*
X162522500Y-90362742D02*
X162522500Y-90837258D01*
%TO.C,C38*%
X174462800Y-88930620D02*
X174462800Y-89211780D01*
X175482800Y-88930620D02*
X175482800Y-89211780D01*
%TO.C,C49*%
X146042252Y-85206000D02*
X144619748Y-85206000D01*
X146042252Y-83386000D02*
X144619748Y-83386000D01*
%TO.C,M4*%
X144289600Y-60350600D02*
X146349600Y-60350600D01*
X146349600Y-60350600D02*
X146349600Y-62470600D01*
X144289600Y-60350600D02*
X144289600Y-62470600D01*
X144289600Y-62470600D02*
X146349600Y-62470600D01*
X142229600Y-60350600D02*
X142229600Y-61410600D01*
X143289600Y-60350600D02*
X142229600Y-60350600D01*
%TO.C,C48*%
X153454600Y-93262252D02*
X153454600Y-91839748D01*
X151634600Y-93262252D02*
X151634600Y-91839748D01*
%TO.C,C53*%
X175552600Y-77639348D02*
X175552600Y-79061852D01*
X173732600Y-77639348D02*
X173732600Y-79061852D01*
%TO.C,C31*%
X169904620Y-79573600D02*
X170185780Y-79573600D01*
X169904620Y-78553600D02*
X170185780Y-78553600D01*
%TO.C,C25*%
X164683800Y-68802580D02*
X164683800Y-68521420D01*
X165703800Y-68802580D02*
X165703800Y-68521420D01*
%TO.C,REF\u002A\u002A5*%
X149480400Y-60258400D02*
X148150400Y-60258400D01*
X149480400Y-62858400D02*
X149480400Y-62918400D01*
X149480400Y-61588400D02*
X149480400Y-60258400D01*
X146820400Y-62858400D02*
X146820400Y-62918400D01*
X149480400Y-62858400D02*
X146820400Y-62858400D01*
X149480400Y-62918400D02*
X146820400Y-62918400D01*
%TO.C,M3*%
X171406400Y-62673800D02*
X173466400Y-62673800D01*
X171406400Y-60553800D02*
X173466400Y-60553800D01*
X169346400Y-60553800D02*
X169346400Y-61613800D01*
X173466400Y-60553800D02*
X173466400Y-62673800D01*
X170406400Y-60553800D02*
X169346400Y-60553800D01*
X171406400Y-60553800D02*
X171406400Y-62673800D01*
%TO.C,R39*%
X164177500Y-90462742D02*
X164177500Y-90937258D01*
X165222500Y-90462742D02*
X165222500Y-90937258D01*
%TO.C,C27*%
X163124580Y-69612800D02*
X162843420Y-69612800D01*
X163124580Y-70632800D02*
X162843420Y-70632800D01*
%TO.C,C41*%
X164785400Y-85884380D02*
X164785400Y-85603220D01*
X165805400Y-85884380D02*
X165805400Y-85603220D01*
%TO.C,D2*%
X161545600Y-81487200D02*
X161545600Y-85387200D01*
X159545600Y-81487200D02*
X161545600Y-81487200D01*
X159545600Y-81487200D02*
X159545600Y-85387200D01*
%TO.C,C39*%
X156493420Y-80153800D02*
X156774580Y-80153800D01*
X156493420Y-81173800D02*
X156774580Y-81173800D01*
%TO.C,C47*%
X162488748Y-94610000D02*
X163911252Y-94610000D01*
X162488748Y-92790000D02*
X163911252Y-92790000D01*
D13*
%TO.C,Q8*%
X157328200Y-86098000D02*
X156028200Y-86098000D01*
X155578200Y-86138000D02*
X155578200Y-89058000D01*
X155578200Y-89058000D02*
X155678200Y-89058000D01*
X155678200Y-89058000D02*
X155678200Y-86138000D01*
X155678200Y-86138000D02*
X155578200Y-86138000D01*
%TO.C,IC4*%
X154829400Y-79447200D02*
X148329400Y-79447200D01*
X148329400Y-82947200D02*
X154829400Y-82947200D01*
X154704400Y-85222200D02*
X154704400Y-83472200D01*
X148329400Y-79447200D02*
X148329400Y-82947200D01*
X154829400Y-82947200D02*
X154829400Y-79447200D01*
D12*
%TO.C,R41*%
X170614900Y-65195924D02*
X170614900Y-64686476D01*
X171659900Y-65195924D02*
X171659900Y-64686476D01*
%TO.C,C43*%
X169980820Y-71924200D02*
X170261980Y-71924200D01*
X169980820Y-72944200D02*
X170261980Y-72944200D01*
%TO.C,J2*%
X148336200Y-90309200D02*
X145336200Y-90309200D01*
X142776200Y-86849200D02*
X143696200Y-86849200D01*
X149136200Y-92409200D02*
X149136200Y-94669200D01*
X143696200Y-88449200D02*
X143976200Y-88449200D01*
X149136200Y-92409200D02*
X149136200Y-90809200D01*
X149696200Y-88449200D02*
X149696200Y-87234200D01*
X143536200Y-92409200D02*
X144536200Y-92409200D01*
X150136200Y-90809200D02*
X150136200Y-92409200D01*
X145336200Y-90309200D02*
X145336200Y-94669200D01*
X150136200Y-92409200D02*
X149136200Y-92409200D01*
X143696200Y-86849200D02*
X143696200Y-88449200D01*
X148336200Y-94669200D02*
X148336200Y-90309200D01*
X150896200Y-86849200D02*
X150896200Y-94669200D01*
X149976200Y-86849200D02*
X150896200Y-86849200D01*
X149696200Y-88449200D02*
X149976200Y-88449200D01*
X150896200Y-88449200D02*
X149976200Y-88449200D01*
X143536200Y-90809200D02*
X143536200Y-92409200D01*
X149136200Y-90809200D02*
X150136200Y-90809200D01*
X142776200Y-94669200D02*
X142776200Y-86849200D01*
X149976200Y-88449200D02*
X149976200Y-86849200D01*
X144536200Y-92409200D02*
X144536200Y-90809200D01*
X144536200Y-90809200D02*
X143536200Y-90809200D01*
X142776200Y-88449200D02*
X143696200Y-88449200D01*
X149636200Y-92409200D02*
X149636200Y-94669200D01*
X150896200Y-94669200D02*
X142776200Y-94669200D01*
%TO.C,R30*%
X169955420Y-78049600D02*
X170236580Y-78049600D01*
X169955420Y-77029600D02*
X170236580Y-77029600D01*
%TO.C,J13*%
X144017000Y-74394000D02*
X146137000Y-74394000D01*
X144017000Y-82514000D02*
X145077000Y-82514000D01*
X144017000Y-81454000D02*
X144017000Y-82514000D01*
X146137000Y-80454000D02*
X146137000Y-74394000D01*
X144017000Y-80454000D02*
X144017000Y-74394000D01*
X144017000Y-80454000D02*
X146137000Y-80454000D01*
%TO.C,J9*%
X154685000Y-92170000D02*
X154685000Y-90110000D01*
X154685000Y-94230000D02*
X155745000Y-94230000D01*
X156805000Y-92170000D02*
X156805000Y-90110000D01*
X154685000Y-90110000D02*
X156805000Y-90110000D01*
X154685000Y-93170000D02*
X154685000Y-94230000D01*
X154685000Y-92170000D02*
X156805000Y-92170000D01*
%TO.C,C56*%
X171492948Y-71286800D02*
X172915452Y-71286800D01*
X171492948Y-69466800D02*
X172915452Y-69466800D01*
%TO.C,C45*%
X163099180Y-68139600D02*
X162818020Y-68139600D01*
X163099180Y-69159600D02*
X162818020Y-69159600D01*
%TO.C,C50*%
X153454600Y-87191548D02*
X153454600Y-88614052D01*
X151634600Y-87191548D02*
X151634600Y-88614052D01*
%TO.C,C52*%
X147189600Y-63671148D02*
X147189600Y-65093652D01*
X149009600Y-63671148D02*
X149009600Y-65093652D01*
%TO.C,REF\u002A\u002A6*%
X175830000Y-61500000D02*
X175830000Y-60170000D01*
X175830000Y-62770000D02*
X175830000Y-62830000D01*
X175830000Y-60170000D02*
X174500000Y-60170000D01*
X175830000Y-62770000D02*
X173170000Y-62770000D01*
X175830000Y-62830000D02*
X173170000Y-62830000D01*
X173170000Y-62770000D02*
X173170000Y-62830000D01*
%TO.C,R42*%
X144249700Y-64738724D02*
X144249700Y-64229276D01*
X145294700Y-64738724D02*
X145294700Y-64229276D01*
%TO.C,C33*%
X127492948Y-71286800D02*
X128915452Y-71286800D01*
X127492948Y-69466800D02*
X128915452Y-69466800D01*
%TO.C,C22*%
X103189600Y-63671148D02*
X103189600Y-65093652D01*
X105009600Y-63671148D02*
X105009600Y-65093652D01*
%TO.C,D1*%
X117545600Y-81487200D02*
X117545600Y-85387200D01*
X115545600Y-81487200D02*
X117545600Y-81487200D01*
X115545600Y-81487200D02*
X115545600Y-85387200D01*
%TO.C,C20*%
X109454600Y-87191548D02*
X109454600Y-88614052D01*
X107634600Y-87191548D02*
X107634600Y-88614052D01*
%TO.C,C15*%
X119099180Y-68139600D02*
X118818020Y-68139600D01*
X119099180Y-69159600D02*
X118818020Y-69159600D01*
%TO.C,J4*%
X110685000Y-92170000D02*
X110685000Y-90110000D01*
X110685000Y-94230000D02*
X111745000Y-94230000D01*
X112805000Y-92170000D02*
X112805000Y-90110000D01*
X110685000Y-90110000D02*
X112805000Y-90110000D01*
X110685000Y-93170000D02*
X110685000Y-94230000D01*
X110685000Y-92170000D02*
X112805000Y-92170000D01*
%TO.C,J6*%
X100017000Y-74394000D02*
X102137000Y-74394000D01*
X100017000Y-82514000D02*
X101077000Y-82514000D01*
X100017000Y-81454000D02*
X100017000Y-82514000D01*
X102137000Y-80454000D02*
X102137000Y-74394000D01*
X100017000Y-80454000D02*
X100017000Y-74394000D01*
X100017000Y-80454000D02*
X102137000Y-80454000D01*
%TO.C,C9*%
X112493420Y-80153800D02*
X112774580Y-80153800D01*
X112493420Y-81173800D02*
X112774580Y-81173800D01*
%TO.C,R7*%
X125955420Y-78049600D02*
X126236580Y-78049600D01*
X125955420Y-77029600D02*
X126236580Y-77029600D01*
%TO.C,J1*%
X104336200Y-90309200D02*
X101336200Y-90309200D01*
X98776200Y-86849200D02*
X99696200Y-86849200D01*
X105136200Y-92409200D02*
X105136200Y-94669200D01*
X99696200Y-88449200D02*
X99976200Y-88449200D01*
X105136200Y-92409200D02*
X105136200Y-90809200D01*
X105696200Y-88449200D02*
X105696200Y-87234200D01*
X99536200Y-92409200D02*
X100536200Y-92409200D01*
X106136200Y-90809200D02*
X106136200Y-92409200D01*
X101336200Y-90309200D02*
X101336200Y-94669200D01*
X106136200Y-92409200D02*
X105136200Y-92409200D01*
X99696200Y-86849200D02*
X99696200Y-88449200D01*
X104336200Y-94669200D02*
X104336200Y-90309200D01*
X106896200Y-86849200D02*
X106896200Y-94669200D01*
X105976200Y-86849200D02*
X106896200Y-86849200D01*
X105696200Y-88449200D02*
X105976200Y-88449200D01*
X106896200Y-88449200D02*
X105976200Y-88449200D01*
X99536200Y-90809200D02*
X99536200Y-92409200D01*
X105136200Y-90809200D02*
X106136200Y-90809200D01*
X98776200Y-94669200D02*
X98776200Y-86849200D01*
X105976200Y-88449200D02*
X105976200Y-86849200D01*
X100536200Y-92409200D02*
X100536200Y-90809200D01*
X100536200Y-90809200D02*
X99536200Y-90809200D01*
X98776200Y-88449200D02*
X99696200Y-88449200D01*
X105636200Y-92409200D02*
X105636200Y-94669200D01*
X106896200Y-94669200D02*
X98776200Y-94669200D01*
%TO.C,C13*%
X125980820Y-71924200D02*
X126261980Y-71924200D01*
X125980820Y-72944200D02*
X126261980Y-72944200D01*
%TO.C,R18*%
X126614900Y-65195924D02*
X126614900Y-64686476D01*
X127659900Y-65195924D02*
X127659900Y-64686476D01*
D13*
%TO.C,IC2*%
X110829400Y-79447200D02*
X104329400Y-79447200D01*
X104329400Y-82947200D02*
X110829400Y-82947200D01*
X110704400Y-85222200D02*
X110704400Y-83472200D01*
X104329400Y-79447200D02*
X104329400Y-82947200D01*
X110829400Y-82947200D02*
X110829400Y-79447200D01*
%TO.C,Q7*%
X113328200Y-86098000D02*
X112028200Y-86098000D01*
X111578200Y-86138000D02*
X111578200Y-89058000D01*
X111578200Y-89058000D02*
X111678200Y-89058000D01*
X111678200Y-89058000D02*
X111678200Y-86138000D01*
X111678200Y-86138000D02*
X111578200Y-86138000D01*
D12*
%TO.C,C17*%
X118488748Y-94610000D02*
X119911252Y-94610000D01*
X118488748Y-92790000D02*
X119911252Y-92790000D01*
%TO.C,R19*%
X100249700Y-64738724D02*
X100249700Y-64229276D01*
X101294700Y-64738724D02*
X101294700Y-64229276D01*
%TO.C,REF\u002A\u002A*%
X131830000Y-61500000D02*
X131830000Y-60170000D01*
X131830000Y-62770000D02*
X131830000Y-62830000D01*
X131830000Y-60170000D02*
X130500000Y-60170000D01*
X131830000Y-62770000D02*
X129170000Y-62770000D01*
X131830000Y-62830000D02*
X129170000Y-62830000D01*
X129170000Y-62770000D02*
X129170000Y-62830000D01*
%TO.C,C6*%
X125904620Y-79573600D02*
X126185780Y-79573600D01*
X125904620Y-78553600D02*
X126185780Y-78553600D01*
%TO.C,R17*%
X117477500Y-90362742D02*
X117477500Y-90837258D01*
X118522500Y-90362742D02*
X118522500Y-90837258D01*
%TO.C,R16*%
X120177500Y-90462742D02*
X120177500Y-90937258D01*
X121222500Y-90462742D02*
X121222500Y-90937258D01*
%TO.C,M2*%
X100289600Y-60350600D02*
X102349600Y-60350600D01*
X102349600Y-60350600D02*
X102349600Y-62470600D01*
X100289600Y-60350600D02*
X100289600Y-62470600D01*
X100289600Y-62470600D02*
X102349600Y-62470600D01*
X98229600Y-60350600D02*
X98229600Y-61410600D01*
X99289600Y-60350600D02*
X98229600Y-60350600D01*
%TO.C,J5*%
X96892800Y-80500000D02*
X99012800Y-80500000D01*
X96892800Y-82560000D02*
X97952800Y-82560000D01*
X96892800Y-80500000D02*
X96892800Y-74440000D01*
X96892800Y-74440000D02*
X99012800Y-74440000D01*
X99012800Y-80500000D02*
X99012800Y-74440000D01*
X96892800Y-81500000D02*
X96892800Y-82560000D01*
%TO.C,C23*%
X131552600Y-77639348D02*
X131552600Y-79061852D01*
X129732600Y-77639348D02*
X129732600Y-79061852D01*
%TO.C,C8*%
X130462800Y-88930620D02*
X130462800Y-89211780D01*
X131482800Y-88930620D02*
X131482800Y-89211780D01*
%TO.C,R12*%
X108175420Y-75738200D02*
X108456580Y-75738200D01*
X108175420Y-74718200D02*
X108456580Y-74718200D01*
%TO.C,C18*%
X109454600Y-93262252D02*
X109454600Y-91839748D01*
X107634600Y-93262252D02*
X107634600Y-91839748D01*
%TO.C,C19*%
X102042252Y-85206000D02*
X100619748Y-85206000D01*
X102042252Y-83386000D02*
X100619748Y-83386000D01*
%TO.C,R20*%
X126161300Y-65195924D02*
X126161300Y-64686476D01*
X125116300Y-65195924D02*
X125116300Y-64686476D01*
%TO.C,REF\u002A\u002A*%
X105480400Y-60258400D02*
X104150400Y-60258400D01*
X105480400Y-62858400D02*
X105480400Y-62918400D01*
X105480400Y-61588400D02*
X105480400Y-60258400D01*
X102820400Y-62858400D02*
X102820400Y-62918400D01*
X105480400Y-62858400D02*
X102820400Y-62858400D01*
X105480400Y-62918400D02*
X102820400Y-62918400D01*
%TO.C,C5*%
X129097600Y-64788748D02*
X129097600Y-66211252D01*
X130917600Y-64788748D02*
X130917600Y-66211252D01*
%TO.C,M1*%
X127406400Y-62673800D02*
X129466400Y-62673800D01*
X127406400Y-60553800D02*
X129466400Y-60553800D01*
X125346400Y-60553800D02*
X125346400Y-61613800D01*
X129466400Y-60553800D02*
X129466400Y-62673800D01*
X126406400Y-60553800D02*
X125346400Y-60553800D01*
X127406400Y-60553800D02*
X127406400Y-62673800D01*
%TO.C,R21*%
X98776500Y-64738724D02*
X98776500Y-64229276D01*
X99821500Y-64738724D02*
X99821500Y-64229276D01*
%TO.C,J11*%
X133226600Y-72129400D02*
X133226600Y-74189400D01*
X133226600Y-70069400D02*
X132166600Y-70069400D01*
X133226600Y-72129400D02*
X131106600Y-72129400D01*
X133226600Y-74189400D02*
X131106600Y-74189400D01*
X131106600Y-72129400D02*
X131106600Y-74189400D01*
X133226600Y-71129400D02*
X133226600Y-70069400D01*
%TO.C,C11*%
X120785400Y-85884380D02*
X120785400Y-85603220D01*
X121805400Y-85884380D02*
X121805400Y-85603220D01*
%TO.C,C3*%
X119124580Y-69612800D02*
X118843420Y-69612800D01*
X119124580Y-70632800D02*
X118843420Y-70632800D01*
%TO.C,C2*%
X120683800Y-68802580D02*
X120683800Y-68521420D01*
X121703800Y-68802580D02*
X121703800Y-68521420D01*
%TD*%
M02*
