%FSLAX45Y45*%
G04 Gerber Fmt 4.5, Leading zero omitted, Abs format (unit mm)*
G04 Created by KiCad (PCBNEW (6.0.4)) date 2022-09-16 03:16:32*
%MOMM*%
%LPD*%
G01*
G04 APERTURE LIST*
%TA.AperFunction,Profile*%
%ADD10C,0.050000*%
%TD*%
%ADD11C,0.200000*%
%ADD12C,0.040000*%
%ADD13C,0.120000*%
%ADD14C,0.320000*%
G04 APERTURE END LIST*
D10*
X17500000Y-12000000D02*
X11000000Y-12000000D01*
X11000000Y-12000000D02*
X11000000Y-3000000D01*
X11000000Y-3000000D02*
X17500000Y-3000000D01*
X17500000Y-3000000D02*
X17500000Y-12000000D01*
D11*
D12*
X11145800Y-4565700D02*
X11185800Y-4605700D01*
X11185800Y-4565700D02*
X11145800Y-4605700D01*
X11145800Y-7865700D02*
X11185800Y-7905700D01*
X11185800Y-7865700D02*
X11145800Y-7905700D01*
X11222000Y-4172000D02*
X11262000Y-4212000D01*
X11262000Y-4172000D02*
X11222000Y-4212000D01*
X11222000Y-5315000D02*
X11262000Y-5355000D01*
X11262000Y-5315000D02*
X11222000Y-5355000D01*
X11222000Y-5696000D02*
X11262000Y-5736000D01*
X11262000Y-5696000D02*
X11222000Y-5736000D01*
X11222000Y-6077000D02*
X11262000Y-6117000D01*
X11262000Y-6077000D02*
X11222000Y-6117000D01*
X11222000Y-6458000D02*
X11262000Y-6498000D01*
X11262000Y-6458000D02*
X11222000Y-6498000D01*
X11222000Y-6839000D02*
X11262000Y-6879000D01*
X11262000Y-6839000D02*
X11222000Y-6879000D01*
X11222000Y-7093000D02*
X11262000Y-7133000D01*
X11262000Y-7093000D02*
X11222000Y-7133000D01*
X11222000Y-7472000D02*
X11262000Y-7512000D01*
X11262000Y-7472000D02*
X11222000Y-7512000D01*
X11222000Y-8615000D02*
X11262000Y-8655000D01*
X11262000Y-8615000D02*
X11222000Y-8655000D01*
X11222000Y-8996000D02*
X11262000Y-9036000D01*
X11262000Y-8996000D02*
X11222000Y-9036000D01*
X11222000Y-9377000D02*
X11262000Y-9417000D01*
X11262000Y-9377000D02*
X11222000Y-9417000D01*
X11222000Y-9758000D02*
X11262000Y-9798000D01*
X11262000Y-9758000D02*
X11222000Y-9798000D01*
X11222000Y-10139000D02*
X11262000Y-10179000D01*
X11262000Y-10139000D02*
X11222000Y-10179000D01*
X11222000Y-10393000D02*
X11262000Y-10433000D01*
X11262000Y-10393000D02*
X11222000Y-10433000D01*
X11437900Y-5480100D02*
X11477900Y-5520100D01*
X11477900Y-5480100D02*
X11437900Y-5520100D01*
X11437900Y-8780100D02*
X11477900Y-8820100D01*
X11477900Y-8780100D02*
X11437900Y-8820100D01*
X11476000Y-4426000D02*
X11516000Y-4466000D01*
X11516000Y-4426000D02*
X11476000Y-4466000D01*
X11476000Y-4997500D02*
X11516000Y-5037500D01*
X11516000Y-4997500D02*
X11476000Y-5037500D01*
X11476000Y-7726000D02*
X11516000Y-7766000D01*
X11516000Y-7726000D02*
X11476000Y-7766000D01*
X11476000Y-8297500D02*
X11516000Y-8337500D01*
X11516000Y-8297500D02*
X11476000Y-8337500D01*
X11539500Y-4680000D02*
X11579500Y-4720000D01*
X11579500Y-4680000D02*
X11539500Y-4720000D01*
X11539500Y-7980000D02*
X11579500Y-8020000D01*
X11579500Y-7980000D02*
X11539500Y-8020000D01*
X11602488Y-6838233D02*
X11642488Y-6878233D01*
X11642488Y-6838233D02*
X11602488Y-6878233D01*
X11602488Y-10138233D02*
X11642488Y-10178233D01*
X11642488Y-10138233D02*
X11602488Y-10178233D01*
X11603000Y-5696000D02*
X11643000Y-5736000D01*
X11643000Y-5696000D02*
X11603000Y-5736000D01*
X11603000Y-6077000D02*
X11643000Y-6117000D01*
X11643000Y-6077000D02*
X11603000Y-6117000D01*
X11603000Y-6458000D02*
X11643000Y-6498000D01*
X11643000Y-6458000D02*
X11603000Y-6498000D01*
X11603000Y-7093000D02*
X11643000Y-7133000D01*
X11643000Y-7093000D02*
X11603000Y-7133000D01*
X11603000Y-8996000D02*
X11643000Y-9036000D01*
X11643000Y-8996000D02*
X11603000Y-9036000D01*
X11603000Y-9377000D02*
X11643000Y-9417000D01*
X11643000Y-9377000D02*
X11603000Y-9417000D01*
X11603000Y-9758000D02*
X11643000Y-9798000D01*
X11643000Y-9758000D02*
X11603000Y-9798000D01*
X11603000Y-10393000D02*
X11643000Y-10433000D01*
X11643000Y-10393000D02*
X11603000Y-10433000D01*
X11666500Y-4172000D02*
X11706500Y-4212000D01*
X11706500Y-4172000D02*
X11666500Y-4212000D01*
X11666500Y-7472000D02*
X11706500Y-7512000D01*
X11706500Y-7472000D02*
X11666500Y-7512000D01*
X11793500Y-5315000D02*
X11833500Y-5355000D01*
X11833500Y-5315000D02*
X11793500Y-5355000D01*
X11793500Y-8615000D02*
X11833500Y-8655000D01*
X11833500Y-8615000D02*
X11793500Y-8655000D01*
X11982721Y-5694285D02*
X12022721Y-5734285D01*
X12022721Y-5694285D02*
X11982721Y-5734285D01*
X11982721Y-6074517D02*
X12022721Y-6114517D01*
X12022721Y-6074517D02*
X11982721Y-6114517D01*
X11982721Y-8994285D02*
X12022721Y-9034285D01*
X12022721Y-8994285D02*
X11982721Y-9034285D01*
X11982721Y-9374517D02*
X12022721Y-9414517D01*
X12022721Y-9374517D02*
X11982721Y-9414517D01*
X11984000Y-4172000D02*
X12024000Y-4212000D01*
X12024000Y-4172000D02*
X11984000Y-4212000D01*
X11984000Y-4489500D02*
X12024000Y-4529500D01*
X12024000Y-4489500D02*
X11984000Y-4529500D01*
X11984000Y-6458000D02*
X12024000Y-6498000D01*
X12024000Y-6458000D02*
X11984000Y-6498000D01*
X11984000Y-6839000D02*
X12024000Y-6879000D01*
X12024000Y-6839000D02*
X11984000Y-6879000D01*
X11984000Y-7093000D02*
X12024000Y-7133000D01*
X12024000Y-7093000D02*
X11984000Y-7133000D01*
X11984000Y-7472000D02*
X12024000Y-7512000D01*
X12024000Y-7472000D02*
X11984000Y-7512000D01*
X11984000Y-7789500D02*
X12024000Y-7829500D01*
X12024000Y-7789500D02*
X11984000Y-7829500D01*
X11984000Y-9758000D02*
X12024000Y-9798000D01*
X12024000Y-9758000D02*
X11984000Y-9798000D01*
X11984000Y-10139000D02*
X12024000Y-10179000D01*
X12024000Y-10139000D02*
X11984000Y-10179000D01*
X11984000Y-10393000D02*
X12024000Y-10433000D01*
X12024000Y-10393000D02*
X11984000Y-10433000D01*
X12098300Y-5315000D02*
X12138300Y-5355000D01*
X12138300Y-5315000D02*
X12098300Y-5355000D01*
X12098300Y-8615000D02*
X12138300Y-8655000D01*
X12138300Y-8615000D02*
X12098300Y-8655000D01*
X12236209Y-7091721D02*
X12276209Y-7131721D01*
X12276209Y-7091721D02*
X12236209Y-7131721D01*
X12236209Y-10391721D02*
X12276209Y-10431721D01*
X12276209Y-10391721D02*
X12236209Y-10431721D01*
X12238000Y-5696000D02*
X12278000Y-5736000D01*
X12278000Y-5696000D02*
X12238000Y-5736000D01*
X12238000Y-6077000D02*
X12278000Y-6117000D01*
X12278000Y-6077000D02*
X12238000Y-6117000D01*
X12238000Y-6458000D02*
X12278000Y-6498000D01*
X12278000Y-6458000D02*
X12238000Y-6498000D01*
X12238000Y-6839000D02*
X12278000Y-6879000D01*
X12278000Y-6839000D02*
X12238000Y-6879000D01*
X12238000Y-8996000D02*
X12278000Y-9036000D01*
X12278000Y-8996000D02*
X12238000Y-9036000D01*
X12238000Y-9377000D02*
X12278000Y-9417000D01*
X12278000Y-9377000D02*
X12238000Y-9417000D01*
X12238000Y-9758000D02*
X12278000Y-9798000D01*
X12278000Y-9758000D02*
X12238000Y-9798000D01*
X12238000Y-10139000D02*
X12278000Y-10179000D01*
X12278000Y-10139000D02*
X12238000Y-10179000D01*
X12339600Y-5823000D02*
X12379600Y-5863000D01*
X12379600Y-5823000D02*
X12339600Y-5863000D01*
X12339600Y-9123000D02*
X12379600Y-9163000D01*
X12379600Y-9123000D02*
X12339600Y-9163000D01*
X12365000Y-4172000D02*
X12405000Y-4212000D01*
X12405000Y-4172000D02*
X12365000Y-4212000D01*
X12365000Y-4553000D02*
X12405000Y-4593000D01*
X12405000Y-4553000D02*
X12365000Y-4593000D01*
X12365000Y-5188000D02*
X12405000Y-5228000D01*
X12405000Y-5188000D02*
X12365000Y-5228000D01*
X12365000Y-5975400D02*
X12405000Y-6015400D01*
X12405000Y-5975400D02*
X12365000Y-6015400D01*
X12365000Y-6077000D02*
X12405000Y-6117000D01*
X12405000Y-6077000D02*
X12365000Y-6117000D01*
X12365000Y-7472000D02*
X12405000Y-7512000D01*
X12405000Y-7472000D02*
X12365000Y-7512000D01*
X12365000Y-7853000D02*
X12405000Y-7893000D01*
X12405000Y-7853000D02*
X12365000Y-7893000D01*
X12365000Y-8488000D02*
X12405000Y-8528000D01*
X12405000Y-8488000D02*
X12365000Y-8528000D01*
X12365000Y-9275400D02*
X12405000Y-9315400D01*
X12405000Y-9275400D02*
X12365000Y-9315400D01*
X12365000Y-9377000D02*
X12405000Y-9417000D01*
X12405000Y-9377000D02*
X12365000Y-9417000D01*
X12415800Y-5670600D02*
X12455800Y-5710600D01*
X12455800Y-5670600D02*
X12415800Y-5710600D01*
X12415800Y-8970600D02*
X12455800Y-9010600D01*
X12455800Y-8970600D02*
X12415800Y-9010600D01*
X12428500Y-6204000D02*
X12468500Y-6244000D01*
X12468500Y-6204000D02*
X12428500Y-6244000D01*
X12428500Y-6331000D02*
X12468500Y-6371000D01*
X12468500Y-6331000D02*
X12428500Y-6371000D01*
X12428500Y-6521500D02*
X12468500Y-6561500D01*
X12468500Y-6521500D02*
X12428500Y-6561500D01*
X12428500Y-6712000D02*
X12468500Y-6752000D01*
X12468500Y-6712000D02*
X12428500Y-6752000D01*
X12428500Y-6902500D02*
X12468500Y-6942500D01*
X12468500Y-6902500D02*
X12428500Y-6942500D01*
X12428500Y-7093000D02*
X12468500Y-7133000D01*
X12468500Y-7093000D02*
X12428500Y-7133000D01*
X12428500Y-9504000D02*
X12468500Y-9544000D01*
X12468500Y-9504000D02*
X12428500Y-9544000D01*
X12428500Y-9631000D02*
X12468500Y-9671000D01*
X12468500Y-9631000D02*
X12428500Y-9671000D01*
X12428500Y-9821500D02*
X12468500Y-9861500D01*
X12468500Y-9821500D02*
X12428500Y-9861500D01*
X12428500Y-10012000D02*
X12468500Y-10052000D01*
X12468500Y-10012000D02*
X12428500Y-10052000D01*
X12428500Y-10202500D02*
X12468500Y-10242500D01*
X12468500Y-10202500D02*
X12428500Y-10242500D01*
X12428500Y-10393000D02*
X12468500Y-10433000D01*
X12468500Y-10393000D02*
X12428500Y-10433000D01*
X12441200Y-4857800D02*
X12481200Y-4897800D01*
X12481200Y-4857800D02*
X12441200Y-4897800D01*
X12441200Y-8157800D02*
X12481200Y-8197800D01*
X12481200Y-8157800D02*
X12441200Y-8197800D01*
X12555500Y-4362500D02*
X12595500Y-4402500D01*
X12595500Y-4362500D02*
X12555500Y-4402500D01*
X12555500Y-7662500D02*
X12595500Y-7702500D01*
X12595500Y-7662500D02*
X12555500Y-7702500D01*
X12580900Y-5302300D02*
X12620900Y-5342300D01*
X12620900Y-5302300D02*
X12580900Y-5342300D01*
X12580900Y-8602300D02*
X12620900Y-8642300D01*
X12620900Y-8602300D02*
X12580900Y-8642300D01*
X12582000Y-5605000D02*
X12622000Y-5645000D01*
X12622000Y-5605000D02*
X12582000Y-5645000D01*
X12582000Y-8905000D02*
X12622000Y-8945000D01*
X12622000Y-8905000D02*
X12582000Y-8945000D01*
X12682500Y-7067600D02*
X12722500Y-7107600D01*
X12722500Y-7067600D02*
X12682500Y-7107600D01*
X12682500Y-10367600D02*
X12722500Y-10407600D01*
X12722500Y-10367600D02*
X12682500Y-10407600D01*
X12720600Y-6204000D02*
X12760600Y-6244000D01*
X12760600Y-6204000D02*
X12720600Y-6244000D01*
X12720600Y-6331000D02*
X12760600Y-6371000D01*
X12760600Y-6331000D02*
X12720600Y-6371000D01*
X12720600Y-6458000D02*
X12760600Y-6498000D01*
X12760600Y-6458000D02*
X12720600Y-6498000D01*
X12720600Y-6610400D02*
X12760600Y-6650400D01*
X12760600Y-6610400D02*
X12720600Y-6650400D01*
X12720600Y-9504000D02*
X12760600Y-9544000D01*
X12760600Y-9504000D02*
X12720600Y-9544000D01*
X12720600Y-9631000D02*
X12760600Y-9671000D01*
X12760600Y-9631000D02*
X12720600Y-9671000D01*
X12720600Y-9758000D02*
X12760600Y-9798000D01*
X12760600Y-9758000D02*
X12720600Y-9798000D01*
X12720600Y-9910400D02*
X12760600Y-9950400D01*
X12760600Y-9910400D02*
X12720600Y-9950400D01*
X12746000Y-4172000D02*
X12786000Y-4212000D01*
X12786000Y-4172000D02*
X12746000Y-4212000D01*
X12746000Y-4553000D02*
X12786000Y-4593000D01*
X12786000Y-4553000D02*
X12746000Y-4593000D01*
X12746000Y-5670600D02*
X12786000Y-5710600D01*
X12786000Y-5670600D02*
X12746000Y-5710600D01*
X12746000Y-6077000D02*
X12786000Y-6117000D01*
X12786000Y-6077000D02*
X12746000Y-6117000D01*
X12746000Y-7472000D02*
X12786000Y-7512000D01*
X12786000Y-7472000D02*
X12746000Y-7512000D01*
X12746000Y-7853000D02*
X12786000Y-7893000D01*
X12786000Y-7853000D02*
X12746000Y-7893000D01*
X12746000Y-8970600D02*
X12786000Y-9010600D01*
X12786000Y-8970600D02*
X12746000Y-9010600D01*
X12746000Y-9377000D02*
X12786000Y-9417000D01*
X12786000Y-9377000D02*
X12746000Y-9417000D01*
X12809500Y-5950000D02*
X12849500Y-5990000D01*
X12849500Y-5950000D02*
X12809500Y-5990000D01*
X12809500Y-7093000D02*
X12849500Y-7133000D01*
X12849500Y-7093000D02*
X12809500Y-7133000D01*
X12809500Y-9250000D02*
X12849500Y-9290000D01*
X12849500Y-9250000D02*
X12809500Y-9290000D01*
X12809500Y-10393000D02*
X12849500Y-10433000D01*
X12849500Y-10393000D02*
X12809500Y-10433000D01*
X12822200Y-5823000D02*
X12862200Y-5863000D01*
X12862200Y-5823000D02*
X12822200Y-5863000D01*
X12822200Y-9123000D02*
X12862200Y-9163000D01*
X12862200Y-9123000D02*
X12822200Y-9163000D01*
X12936500Y-6508800D02*
X12976500Y-6548800D01*
X12976500Y-6508800D02*
X12936500Y-6548800D01*
X12936500Y-9808800D02*
X12976500Y-9848800D01*
X12976500Y-9808800D02*
X12936500Y-9848800D01*
X12949200Y-6381800D02*
X12989200Y-6421800D01*
X12989200Y-6381800D02*
X12949200Y-6421800D01*
X12949200Y-9681800D02*
X12989200Y-9721800D01*
X12989200Y-9681800D02*
X12949200Y-9721800D01*
X12974600Y-6762800D02*
X13014600Y-6802800D01*
X13014600Y-6762800D02*
X12974600Y-6802800D01*
X12974600Y-10062800D02*
X13014600Y-10102800D01*
X13014600Y-10062800D02*
X12974600Y-10102800D01*
X13000000Y-5569000D02*
X13040000Y-5609000D01*
X13040000Y-5569000D02*
X13000000Y-5609000D01*
X13000000Y-5823000D02*
X13040000Y-5863000D01*
X13040000Y-5823000D02*
X13000000Y-5863000D01*
X13000000Y-8869000D02*
X13040000Y-8909000D01*
X13040000Y-8869000D02*
X13000000Y-8909000D01*
X13000000Y-9123000D02*
X13040000Y-9163000D01*
X13040000Y-9123000D02*
X13000000Y-9163000D01*
X13002000Y-5145000D02*
X13042000Y-5185000D01*
X13042000Y-5145000D02*
X13002000Y-5185000D01*
X13002000Y-8445000D02*
X13042000Y-8485000D01*
X13042000Y-8445000D02*
X13002000Y-8485000D01*
X13012000Y-4575000D02*
X13052000Y-4615000D01*
X13052000Y-4575000D02*
X13012000Y-4615000D01*
X13012000Y-7875000D02*
X13052000Y-7915000D01*
X13052000Y-7875000D02*
X13012000Y-7915000D01*
X13052000Y-4815000D02*
X13092000Y-4855000D01*
X13092000Y-4815000D02*
X13052000Y-4855000D01*
X13052000Y-8115000D02*
X13092000Y-8155000D01*
X13092000Y-8115000D02*
X13052000Y-8155000D01*
X13061747Y-4361770D02*
X13101747Y-4401770D01*
X13101747Y-4361770D02*
X13061747Y-4401770D01*
X13061747Y-7661770D02*
X13101747Y-7701770D01*
X13101747Y-7661770D02*
X13061747Y-7701770D01*
X13063500Y-7093000D02*
X13103500Y-7133000D01*
X13103500Y-7093000D02*
X13063500Y-7133000D01*
X13063500Y-10393000D02*
X13103500Y-10433000D01*
X13103500Y-10393000D02*
X13063500Y-10433000D01*
X13127000Y-5950000D02*
X13167000Y-5990000D01*
X13167000Y-5950000D02*
X13127000Y-5990000D01*
X13127000Y-9250000D02*
X13167000Y-9290000D01*
X13167000Y-9250000D02*
X13127000Y-9290000D01*
X13203200Y-6356400D02*
X13243200Y-6396400D01*
X13243200Y-6356400D02*
X13203200Y-6396400D01*
X13203200Y-9656400D02*
X13243200Y-9696400D01*
X13243200Y-9656400D02*
X13203200Y-9696400D01*
X13252000Y-4675000D02*
X13292000Y-4715000D01*
X13292000Y-4675000D02*
X13252000Y-4715000D01*
X13252000Y-7975000D02*
X13292000Y-8015000D01*
X13292000Y-7975000D02*
X13252000Y-8015000D01*
X13254000Y-5569000D02*
X13294000Y-5609000D01*
X13294000Y-5569000D02*
X13254000Y-5609000D01*
X13254000Y-5823000D02*
X13294000Y-5863000D01*
X13294000Y-5823000D02*
X13254000Y-5863000D01*
X13254000Y-8869000D02*
X13294000Y-8909000D01*
X13294000Y-8869000D02*
X13254000Y-8909000D01*
X13254000Y-9123000D02*
X13294000Y-9163000D01*
X13294000Y-9123000D02*
X13254000Y-9163000D01*
X13304800Y-6458000D02*
X13344800Y-6498000D01*
X13344800Y-6458000D02*
X13304800Y-6498000D01*
X13304800Y-6610400D02*
X13344800Y-6650400D01*
X13344800Y-6610400D02*
X13304800Y-6650400D01*
X13304800Y-6762800D02*
X13344800Y-6802800D01*
X13344800Y-6762800D02*
X13304800Y-6802800D01*
X13304800Y-9758000D02*
X13344800Y-9798000D01*
X13344800Y-9758000D02*
X13304800Y-9798000D01*
X13304800Y-9910400D02*
X13344800Y-9950400D01*
X13344800Y-9910400D02*
X13304800Y-9950400D01*
X13304800Y-10062800D02*
X13344800Y-10102800D01*
X13344800Y-10062800D02*
X13304800Y-10102800D01*
X13362000Y-4345000D02*
X13402000Y-4385000D01*
X13402000Y-4345000D02*
X13362000Y-4385000D01*
X13362000Y-7645000D02*
X13402000Y-7685000D01*
X13402000Y-7645000D02*
X13362000Y-7685000D01*
X13381000Y-4172000D02*
X13421000Y-4212000D01*
X13421000Y-4172000D02*
X13381000Y-4212000D01*
X13381000Y-7472000D02*
X13421000Y-7512000D01*
X13421000Y-7472000D02*
X13381000Y-7512000D01*
X13442000Y-4745000D02*
X13482000Y-4785000D01*
X13482000Y-4745000D02*
X13442000Y-4785000D01*
X13442000Y-8045000D02*
X13482000Y-8085000D01*
X13482000Y-8045000D02*
X13442000Y-8085000D01*
X13457200Y-6737400D02*
X13497200Y-6777400D01*
X13497200Y-6737400D02*
X13457200Y-6777400D01*
X13457200Y-10037400D02*
X13497200Y-10077400D01*
X13497200Y-10037400D02*
X13457200Y-10077400D01*
X13492000Y-4495000D02*
X13532000Y-4535000D01*
X13532000Y-4495000D02*
X13492000Y-4535000D01*
X13492000Y-7795000D02*
X13532000Y-7835000D01*
X13532000Y-7795000D02*
X13492000Y-7835000D01*
X13508000Y-5569000D02*
X13548000Y-5609000D01*
X13548000Y-5569000D02*
X13508000Y-5609000D01*
X13508000Y-5823000D02*
X13548000Y-5863000D01*
X13548000Y-5823000D02*
X13508000Y-5863000D01*
X13508000Y-5950000D02*
X13548000Y-5990000D01*
X13548000Y-5950000D02*
X13508000Y-5990000D01*
X13508000Y-8869000D02*
X13548000Y-8909000D01*
X13548000Y-8869000D02*
X13508000Y-8909000D01*
X13508000Y-9123000D02*
X13548000Y-9163000D01*
X13548000Y-9123000D02*
X13508000Y-9163000D01*
X13508000Y-9250000D02*
X13548000Y-9290000D01*
X13548000Y-9250000D02*
X13508000Y-9290000D01*
X13635000Y-6712000D02*
X13675000Y-6752000D01*
X13675000Y-6712000D02*
X13635000Y-6752000D01*
X13635000Y-10012000D02*
X13675000Y-10052000D01*
X13675000Y-10012000D02*
X13635000Y-10052000D01*
X13652000Y-4695000D02*
X13692000Y-4735000D01*
X13692000Y-4695000D02*
X13652000Y-4735000D01*
X13652000Y-7995000D02*
X13692000Y-8035000D01*
X13692000Y-7995000D02*
X13652000Y-8035000D01*
X13698500Y-4362500D02*
X13738500Y-4402500D01*
X13738500Y-4362500D02*
X13698500Y-4402500D01*
X13698500Y-7093000D02*
X13738500Y-7133000D01*
X13738500Y-7093000D02*
X13698500Y-7133000D01*
X13698500Y-7662500D02*
X13738500Y-7702500D01*
X13738500Y-7662500D02*
X13698500Y-7702500D01*
X13698500Y-10393000D02*
X13738500Y-10433000D01*
X13738500Y-10393000D02*
X13698500Y-10433000D01*
X13711200Y-6915200D02*
X13751200Y-6955200D01*
X13751200Y-6915200D02*
X13711200Y-6955200D01*
X13711200Y-10215200D02*
X13751200Y-10255200D01*
X13751200Y-10215200D02*
X13711200Y-10255200D01*
X13762000Y-5569000D02*
X13802000Y-5609000D01*
X13802000Y-5569000D02*
X13762000Y-5609000D01*
X13762000Y-5823000D02*
X13802000Y-5863000D01*
X13802000Y-5823000D02*
X13762000Y-5863000D01*
X13762000Y-6000800D02*
X13802000Y-6040800D01*
X13802000Y-6000800D02*
X13762000Y-6040800D01*
X13762000Y-8869000D02*
X13802000Y-8909000D01*
X13802000Y-8869000D02*
X13762000Y-8909000D01*
X13762000Y-9123000D02*
X13802000Y-9163000D01*
X13802000Y-9123000D02*
X13762000Y-9163000D01*
X13762000Y-9300800D02*
X13802000Y-9340800D01*
X13802000Y-9300800D02*
X13762000Y-9340800D01*
X13842000Y-4695000D02*
X13882000Y-4735000D01*
X13882000Y-4695000D02*
X13842000Y-4735000D01*
X13842000Y-7995000D02*
X13882000Y-8035000D01*
X13882000Y-7995000D02*
X13842000Y-8035000D01*
X13889000Y-6712000D02*
X13929000Y-6752000D01*
X13929000Y-6712000D02*
X13889000Y-6752000D01*
X13889000Y-10012000D02*
X13929000Y-10052000D01*
X13929000Y-10012000D02*
X13889000Y-10052000D01*
X13972000Y-4375000D02*
X14012000Y-4415000D01*
X14012000Y-4375000D02*
X13972000Y-4415000D01*
X13972000Y-7675000D02*
X14012000Y-7715000D01*
X14012000Y-7675000D02*
X13972000Y-7715000D01*
X14016000Y-4172000D02*
X14056000Y-4212000D01*
X14056000Y-4172000D02*
X14016000Y-4212000D01*
X14016000Y-5569000D02*
X14056000Y-5609000D01*
X14056000Y-5569000D02*
X14016000Y-5609000D01*
X14016000Y-5823000D02*
X14056000Y-5863000D01*
X14056000Y-5823000D02*
X14016000Y-5863000D01*
X14016000Y-6102400D02*
X14056000Y-6142400D01*
X14056000Y-6102400D02*
X14016000Y-6142400D01*
X14016000Y-6331000D02*
X14056000Y-6371000D01*
X14056000Y-6331000D02*
X14016000Y-6371000D01*
X14016000Y-6585000D02*
X14056000Y-6625000D01*
X14056000Y-6585000D02*
X14016000Y-6625000D01*
X14016000Y-6966000D02*
X14056000Y-7006000D01*
X14056000Y-6966000D02*
X14016000Y-7006000D01*
X14016000Y-7472000D02*
X14056000Y-7512000D01*
X14056000Y-7472000D02*
X14016000Y-7512000D01*
X14016000Y-8869000D02*
X14056000Y-8909000D01*
X14056000Y-8869000D02*
X14016000Y-8909000D01*
X14016000Y-9123000D02*
X14056000Y-9163000D01*
X14056000Y-9123000D02*
X14016000Y-9163000D01*
X14016000Y-9402400D02*
X14056000Y-9442400D01*
X14056000Y-9402400D02*
X14016000Y-9442400D01*
X14016000Y-9631000D02*
X14056000Y-9671000D01*
X14056000Y-9631000D02*
X14016000Y-9671000D01*
X14016000Y-9885000D02*
X14056000Y-9925000D01*
X14056000Y-9885000D02*
X14016000Y-9925000D01*
X14016000Y-10266000D02*
X14056000Y-10306000D01*
X14056000Y-10266000D02*
X14016000Y-10306000D01*
X14032000Y-4695000D02*
X14072000Y-4735000D01*
X14072000Y-4695000D02*
X14032000Y-4735000D01*
X14032000Y-7995000D02*
X14072000Y-8035000D01*
X14072000Y-7995000D02*
X14032000Y-8035000D01*
X14052000Y-5325000D02*
X14092000Y-5365000D01*
X14092000Y-5325000D02*
X14052000Y-5365000D01*
X14052000Y-8625000D02*
X14092000Y-8665000D01*
X14092000Y-8625000D02*
X14052000Y-8665000D01*
X14445800Y-4565700D02*
X14485800Y-4605700D01*
X14485800Y-4565700D02*
X14445800Y-4605700D01*
X14445800Y-7865700D02*
X14485800Y-7905700D01*
X14485800Y-7865700D02*
X14445800Y-7905700D01*
X14522000Y-4172000D02*
X14562000Y-4212000D01*
X14562000Y-4172000D02*
X14522000Y-4212000D01*
X14522000Y-5315000D02*
X14562000Y-5355000D01*
X14562000Y-5315000D02*
X14522000Y-5355000D01*
X14522000Y-5696000D02*
X14562000Y-5736000D01*
X14562000Y-5696000D02*
X14522000Y-5736000D01*
X14522000Y-6077000D02*
X14562000Y-6117000D01*
X14562000Y-6077000D02*
X14522000Y-6117000D01*
X14522000Y-6458000D02*
X14562000Y-6498000D01*
X14562000Y-6458000D02*
X14522000Y-6498000D01*
X14522000Y-6839000D02*
X14562000Y-6879000D01*
X14562000Y-6839000D02*
X14522000Y-6879000D01*
X14522000Y-7093000D02*
X14562000Y-7133000D01*
X14562000Y-7093000D02*
X14522000Y-7133000D01*
X14522000Y-7472000D02*
X14562000Y-7512000D01*
X14562000Y-7472000D02*
X14522000Y-7512000D01*
X14522000Y-8615000D02*
X14562000Y-8655000D01*
X14562000Y-8615000D02*
X14522000Y-8655000D01*
X14522000Y-8996000D02*
X14562000Y-9036000D01*
X14562000Y-8996000D02*
X14522000Y-9036000D01*
X14522000Y-9377000D02*
X14562000Y-9417000D01*
X14562000Y-9377000D02*
X14522000Y-9417000D01*
X14522000Y-9758000D02*
X14562000Y-9798000D01*
X14562000Y-9758000D02*
X14522000Y-9798000D01*
X14522000Y-10139000D02*
X14562000Y-10179000D01*
X14562000Y-10139000D02*
X14522000Y-10179000D01*
X14522000Y-10393000D02*
X14562000Y-10433000D01*
X14562000Y-10393000D02*
X14522000Y-10433000D01*
X14737900Y-5480100D02*
X14777900Y-5520100D01*
X14777900Y-5480100D02*
X14737900Y-5520100D01*
X14737900Y-8780100D02*
X14777900Y-8820100D01*
X14777900Y-8780100D02*
X14737900Y-8820100D01*
X14776000Y-4426000D02*
X14816000Y-4466000D01*
X14816000Y-4426000D02*
X14776000Y-4466000D01*
X14776000Y-4997500D02*
X14816000Y-5037500D01*
X14816000Y-4997500D02*
X14776000Y-5037500D01*
X14776000Y-7726000D02*
X14816000Y-7766000D01*
X14816000Y-7726000D02*
X14776000Y-7766000D01*
X14776000Y-8297500D02*
X14816000Y-8337500D01*
X14816000Y-8297500D02*
X14776000Y-8337500D01*
X14839500Y-4680000D02*
X14879500Y-4720000D01*
X14879500Y-4680000D02*
X14839500Y-4720000D01*
X14839500Y-7980000D02*
X14879500Y-8020000D01*
X14879500Y-7980000D02*
X14839500Y-8020000D01*
X14902488Y-6838233D02*
X14942488Y-6878233D01*
X14942488Y-6838233D02*
X14902488Y-6878233D01*
X14902488Y-10138233D02*
X14942488Y-10178233D01*
X14942488Y-10138233D02*
X14902488Y-10178233D01*
X14903000Y-5696000D02*
X14943000Y-5736000D01*
X14943000Y-5696000D02*
X14903000Y-5736000D01*
X14903000Y-6077000D02*
X14943000Y-6117000D01*
X14943000Y-6077000D02*
X14903000Y-6117000D01*
X14903000Y-6458000D02*
X14943000Y-6498000D01*
X14943000Y-6458000D02*
X14903000Y-6498000D01*
X14903000Y-7093000D02*
X14943000Y-7133000D01*
X14943000Y-7093000D02*
X14903000Y-7133000D01*
X14903000Y-8996000D02*
X14943000Y-9036000D01*
X14943000Y-8996000D02*
X14903000Y-9036000D01*
X14903000Y-9377000D02*
X14943000Y-9417000D01*
X14943000Y-9377000D02*
X14903000Y-9417000D01*
X14903000Y-9758000D02*
X14943000Y-9798000D01*
X14943000Y-9758000D02*
X14903000Y-9798000D01*
X14903000Y-10393000D02*
X14943000Y-10433000D01*
X14943000Y-10393000D02*
X14903000Y-10433000D01*
X14966500Y-4172000D02*
X15006500Y-4212000D01*
X15006500Y-4172000D02*
X14966500Y-4212000D01*
X14966500Y-7472000D02*
X15006500Y-7512000D01*
X15006500Y-7472000D02*
X14966500Y-7512000D01*
X15093500Y-5315000D02*
X15133500Y-5355000D01*
X15133500Y-5315000D02*
X15093500Y-5355000D01*
X15093500Y-8615000D02*
X15133500Y-8655000D01*
X15133500Y-8615000D02*
X15093500Y-8655000D01*
X15282721Y-5694285D02*
X15322721Y-5734285D01*
X15322721Y-5694285D02*
X15282721Y-5734285D01*
X15282721Y-6074517D02*
X15322721Y-6114517D01*
X15322721Y-6074517D02*
X15282721Y-6114517D01*
X15282721Y-8994285D02*
X15322721Y-9034285D01*
X15322721Y-8994285D02*
X15282721Y-9034285D01*
X15282721Y-9374517D02*
X15322721Y-9414517D01*
X15322721Y-9374517D02*
X15282721Y-9414517D01*
X15284000Y-4172000D02*
X15324000Y-4212000D01*
X15324000Y-4172000D02*
X15284000Y-4212000D01*
X15284000Y-4489500D02*
X15324000Y-4529500D01*
X15324000Y-4489500D02*
X15284000Y-4529500D01*
X15284000Y-6458000D02*
X15324000Y-6498000D01*
X15324000Y-6458000D02*
X15284000Y-6498000D01*
X15284000Y-6839000D02*
X15324000Y-6879000D01*
X15324000Y-6839000D02*
X15284000Y-6879000D01*
X15284000Y-7093000D02*
X15324000Y-7133000D01*
X15324000Y-7093000D02*
X15284000Y-7133000D01*
X15284000Y-7472000D02*
X15324000Y-7512000D01*
X15324000Y-7472000D02*
X15284000Y-7512000D01*
X15284000Y-7789500D02*
X15324000Y-7829500D01*
X15324000Y-7789500D02*
X15284000Y-7829500D01*
X15284000Y-9758000D02*
X15324000Y-9798000D01*
X15324000Y-9758000D02*
X15284000Y-9798000D01*
X15284000Y-10139000D02*
X15324000Y-10179000D01*
X15324000Y-10139000D02*
X15284000Y-10179000D01*
X15284000Y-10393000D02*
X15324000Y-10433000D01*
X15324000Y-10393000D02*
X15284000Y-10433000D01*
X15398300Y-5315000D02*
X15438300Y-5355000D01*
X15438300Y-5315000D02*
X15398300Y-5355000D01*
X15398300Y-8615000D02*
X15438300Y-8655000D01*
X15438300Y-8615000D02*
X15398300Y-8655000D01*
X15536209Y-7091721D02*
X15576209Y-7131721D01*
X15576209Y-7091721D02*
X15536209Y-7131721D01*
X15536209Y-10391721D02*
X15576209Y-10431721D01*
X15576209Y-10391721D02*
X15536209Y-10431721D01*
X15538000Y-5696000D02*
X15578000Y-5736000D01*
X15578000Y-5696000D02*
X15538000Y-5736000D01*
X15538000Y-6077000D02*
X15578000Y-6117000D01*
X15578000Y-6077000D02*
X15538000Y-6117000D01*
X15538000Y-6458000D02*
X15578000Y-6498000D01*
X15578000Y-6458000D02*
X15538000Y-6498000D01*
X15538000Y-6839000D02*
X15578000Y-6879000D01*
X15578000Y-6839000D02*
X15538000Y-6879000D01*
X15538000Y-8996000D02*
X15578000Y-9036000D01*
X15578000Y-8996000D02*
X15538000Y-9036000D01*
X15538000Y-9377000D02*
X15578000Y-9417000D01*
X15578000Y-9377000D02*
X15538000Y-9417000D01*
X15538000Y-9758000D02*
X15578000Y-9798000D01*
X15578000Y-9758000D02*
X15538000Y-9798000D01*
X15538000Y-10139000D02*
X15578000Y-10179000D01*
X15578000Y-10139000D02*
X15538000Y-10179000D01*
X15639600Y-5823000D02*
X15679600Y-5863000D01*
X15679600Y-5823000D02*
X15639600Y-5863000D01*
X15639600Y-9123000D02*
X15679600Y-9163000D01*
X15679600Y-9123000D02*
X15639600Y-9163000D01*
X15665000Y-4172000D02*
X15705000Y-4212000D01*
X15705000Y-4172000D02*
X15665000Y-4212000D01*
X15665000Y-4553000D02*
X15705000Y-4593000D01*
X15705000Y-4553000D02*
X15665000Y-4593000D01*
X15665000Y-5188000D02*
X15705000Y-5228000D01*
X15705000Y-5188000D02*
X15665000Y-5228000D01*
X15665000Y-5975400D02*
X15705000Y-6015400D01*
X15705000Y-5975400D02*
X15665000Y-6015400D01*
X15665000Y-6077000D02*
X15705000Y-6117000D01*
X15705000Y-6077000D02*
X15665000Y-6117000D01*
X15665000Y-7472000D02*
X15705000Y-7512000D01*
X15705000Y-7472000D02*
X15665000Y-7512000D01*
X15665000Y-7853000D02*
X15705000Y-7893000D01*
X15705000Y-7853000D02*
X15665000Y-7893000D01*
X15665000Y-8488000D02*
X15705000Y-8528000D01*
X15705000Y-8488000D02*
X15665000Y-8528000D01*
X15665000Y-9275400D02*
X15705000Y-9315400D01*
X15705000Y-9275400D02*
X15665000Y-9315400D01*
X15665000Y-9377000D02*
X15705000Y-9417000D01*
X15705000Y-9377000D02*
X15665000Y-9417000D01*
X15715800Y-5670600D02*
X15755800Y-5710600D01*
X15755800Y-5670600D02*
X15715800Y-5710600D01*
X15715800Y-8970600D02*
X15755800Y-9010600D01*
X15755800Y-8970600D02*
X15715800Y-9010600D01*
X15728500Y-6204000D02*
X15768500Y-6244000D01*
X15768500Y-6204000D02*
X15728500Y-6244000D01*
X15728500Y-6331000D02*
X15768500Y-6371000D01*
X15768500Y-6331000D02*
X15728500Y-6371000D01*
X15728500Y-6521500D02*
X15768500Y-6561500D01*
X15768500Y-6521500D02*
X15728500Y-6561500D01*
X15728500Y-6712000D02*
X15768500Y-6752000D01*
X15768500Y-6712000D02*
X15728500Y-6752000D01*
X15728500Y-6902500D02*
X15768500Y-6942500D01*
X15768500Y-6902500D02*
X15728500Y-6942500D01*
X15728500Y-7093000D02*
X15768500Y-7133000D01*
X15768500Y-7093000D02*
X15728500Y-7133000D01*
X15728500Y-9504000D02*
X15768500Y-9544000D01*
X15768500Y-9504000D02*
X15728500Y-9544000D01*
X15728500Y-9631000D02*
X15768500Y-9671000D01*
X15768500Y-9631000D02*
X15728500Y-9671000D01*
X15728500Y-9821500D02*
X15768500Y-9861500D01*
X15768500Y-9821500D02*
X15728500Y-9861500D01*
X15728500Y-10012000D02*
X15768500Y-10052000D01*
X15768500Y-10012000D02*
X15728500Y-10052000D01*
X15728500Y-10202500D02*
X15768500Y-10242500D01*
X15768500Y-10202500D02*
X15728500Y-10242500D01*
X15728500Y-10393000D02*
X15768500Y-10433000D01*
X15768500Y-10393000D02*
X15728500Y-10433000D01*
X15741200Y-4857800D02*
X15781200Y-4897800D01*
X15781200Y-4857800D02*
X15741200Y-4897800D01*
X15741200Y-8157800D02*
X15781200Y-8197800D01*
X15781200Y-8157800D02*
X15741200Y-8197800D01*
X15855500Y-4362500D02*
X15895500Y-4402500D01*
X15895500Y-4362500D02*
X15855500Y-4402500D01*
X15855500Y-7662500D02*
X15895500Y-7702500D01*
X15895500Y-7662500D02*
X15855500Y-7702500D01*
X15880900Y-5302300D02*
X15920900Y-5342300D01*
X15920900Y-5302300D02*
X15880900Y-5342300D01*
X15880900Y-8602300D02*
X15920900Y-8642300D01*
X15920900Y-8602300D02*
X15880900Y-8642300D01*
X15882000Y-5605000D02*
X15922000Y-5645000D01*
X15922000Y-5605000D02*
X15882000Y-5645000D01*
X15882000Y-8905000D02*
X15922000Y-8945000D01*
X15922000Y-8905000D02*
X15882000Y-8945000D01*
X15982500Y-7067600D02*
X16022500Y-7107600D01*
X16022500Y-7067600D02*
X15982500Y-7107600D01*
X15982500Y-10367600D02*
X16022500Y-10407600D01*
X16022500Y-10367600D02*
X15982500Y-10407600D01*
X16020600Y-6204000D02*
X16060600Y-6244000D01*
X16060600Y-6204000D02*
X16020600Y-6244000D01*
X16020600Y-6331000D02*
X16060600Y-6371000D01*
X16060600Y-6331000D02*
X16020600Y-6371000D01*
X16020600Y-6458000D02*
X16060600Y-6498000D01*
X16060600Y-6458000D02*
X16020600Y-6498000D01*
X16020600Y-6610400D02*
X16060600Y-6650400D01*
X16060600Y-6610400D02*
X16020600Y-6650400D01*
X16020600Y-9504000D02*
X16060600Y-9544000D01*
X16060600Y-9504000D02*
X16020600Y-9544000D01*
X16020600Y-9631000D02*
X16060600Y-9671000D01*
X16060600Y-9631000D02*
X16020600Y-9671000D01*
X16020600Y-9758000D02*
X16060600Y-9798000D01*
X16060600Y-9758000D02*
X16020600Y-9798000D01*
X16020600Y-9910400D02*
X16060600Y-9950400D01*
X16060600Y-9910400D02*
X16020600Y-9950400D01*
X16046000Y-4172000D02*
X16086000Y-4212000D01*
X16086000Y-4172000D02*
X16046000Y-4212000D01*
X16046000Y-4553000D02*
X16086000Y-4593000D01*
X16086000Y-4553000D02*
X16046000Y-4593000D01*
X16046000Y-5670600D02*
X16086000Y-5710600D01*
X16086000Y-5670600D02*
X16046000Y-5710600D01*
X16046000Y-6077000D02*
X16086000Y-6117000D01*
X16086000Y-6077000D02*
X16046000Y-6117000D01*
X16046000Y-7472000D02*
X16086000Y-7512000D01*
X16086000Y-7472000D02*
X16046000Y-7512000D01*
X16046000Y-7853000D02*
X16086000Y-7893000D01*
X16086000Y-7853000D02*
X16046000Y-7893000D01*
X16046000Y-8970600D02*
X16086000Y-9010600D01*
X16086000Y-8970600D02*
X16046000Y-9010600D01*
X16046000Y-9377000D02*
X16086000Y-9417000D01*
X16086000Y-9377000D02*
X16046000Y-9417000D01*
X16109500Y-5950000D02*
X16149500Y-5990000D01*
X16149500Y-5950000D02*
X16109500Y-5990000D01*
X16109500Y-7093000D02*
X16149500Y-7133000D01*
X16149500Y-7093000D02*
X16109500Y-7133000D01*
X16109500Y-9250000D02*
X16149500Y-9290000D01*
X16149500Y-9250000D02*
X16109500Y-9290000D01*
X16109500Y-10393000D02*
X16149500Y-10433000D01*
X16149500Y-10393000D02*
X16109500Y-10433000D01*
X16122200Y-5823000D02*
X16162200Y-5863000D01*
X16162200Y-5823000D02*
X16122200Y-5863000D01*
X16122200Y-9123000D02*
X16162200Y-9163000D01*
X16162200Y-9123000D02*
X16122200Y-9163000D01*
X16236500Y-6508800D02*
X16276500Y-6548800D01*
X16276500Y-6508800D02*
X16236500Y-6548800D01*
X16236500Y-9808800D02*
X16276500Y-9848800D01*
X16276500Y-9808800D02*
X16236500Y-9848800D01*
X16249200Y-6381800D02*
X16289200Y-6421800D01*
X16289200Y-6381800D02*
X16249200Y-6421800D01*
X16249200Y-9681800D02*
X16289200Y-9721800D01*
X16289200Y-9681800D02*
X16249200Y-9721800D01*
X16274600Y-6762800D02*
X16314600Y-6802800D01*
X16314600Y-6762800D02*
X16274600Y-6802800D01*
X16274600Y-10062800D02*
X16314600Y-10102800D01*
X16314600Y-10062800D02*
X16274600Y-10102800D01*
X16300000Y-5569000D02*
X16340000Y-5609000D01*
X16340000Y-5569000D02*
X16300000Y-5609000D01*
X16300000Y-5823000D02*
X16340000Y-5863000D01*
X16340000Y-5823000D02*
X16300000Y-5863000D01*
X16300000Y-8869000D02*
X16340000Y-8909000D01*
X16340000Y-8869000D02*
X16300000Y-8909000D01*
X16300000Y-9123000D02*
X16340000Y-9163000D01*
X16340000Y-9123000D02*
X16300000Y-9163000D01*
X16302000Y-5145000D02*
X16342000Y-5185000D01*
X16342000Y-5145000D02*
X16302000Y-5185000D01*
X16302000Y-8445000D02*
X16342000Y-8485000D01*
X16342000Y-8445000D02*
X16302000Y-8485000D01*
X16312000Y-4575000D02*
X16352000Y-4615000D01*
X16352000Y-4575000D02*
X16312000Y-4615000D01*
X16312000Y-7875000D02*
X16352000Y-7915000D01*
X16352000Y-7875000D02*
X16312000Y-7915000D01*
X16352000Y-4815000D02*
X16392000Y-4855000D01*
X16392000Y-4815000D02*
X16352000Y-4855000D01*
X16352000Y-8115000D02*
X16392000Y-8155000D01*
X16392000Y-8115000D02*
X16352000Y-8155000D01*
X16361747Y-4361770D02*
X16401747Y-4401770D01*
X16401747Y-4361770D02*
X16361747Y-4401770D01*
X16361747Y-7661770D02*
X16401747Y-7701770D01*
X16401747Y-7661770D02*
X16361747Y-7701770D01*
X16363500Y-7093000D02*
X16403500Y-7133000D01*
X16403500Y-7093000D02*
X16363500Y-7133000D01*
X16363500Y-10393000D02*
X16403500Y-10433000D01*
X16403500Y-10393000D02*
X16363500Y-10433000D01*
X16427000Y-5950000D02*
X16467000Y-5990000D01*
X16467000Y-5950000D02*
X16427000Y-5990000D01*
X16427000Y-9250000D02*
X16467000Y-9290000D01*
X16467000Y-9250000D02*
X16427000Y-9290000D01*
X16503200Y-6356400D02*
X16543200Y-6396400D01*
X16543200Y-6356400D02*
X16503200Y-6396400D01*
X16503200Y-9656400D02*
X16543200Y-9696400D01*
X16543200Y-9656400D02*
X16503200Y-9696400D01*
X16552000Y-4675000D02*
X16592000Y-4715000D01*
X16592000Y-4675000D02*
X16552000Y-4715000D01*
X16552000Y-7975000D02*
X16592000Y-8015000D01*
X16592000Y-7975000D02*
X16552000Y-8015000D01*
X16554000Y-5569000D02*
X16594000Y-5609000D01*
X16594000Y-5569000D02*
X16554000Y-5609000D01*
X16554000Y-5823000D02*
X16594000Y-5863000D01*
X16594000Y-5823000D02*
X16554000Y-5863000D01*
X16554000Y-8869000D02*
X16594000Y-8909000D01*
X16594000Y-8869000D02*
X16554000Y-8909000D01*
X16554000Y-9123000D02*
X16594000Y-9163000D01*
X16594000Y-9123000D02*
X16554000Y-9163000D01*
X16604800Y-6458000D02*
X16644800Y-6498000D01*
X16644800Y-6458000D02*
X16604800Y-6498000D01*
X16604800Y-6610400D02*
X16644800Y-6650400D01*
X16644800Y-6610400D02*
X16604800Y-6650400D01*
X16604800Y-6762800D02*
X16644800Y-6802800D01*
X16644800Y-6762800D02*
X16604800Y-6802800D01*
X16604800Y-9758000D02*
X16644800Y-9798000D01*
X16644800Y-9758000D02*
X16604800Y-9798000D01*
X16604800Y-9910400D02*
X16644800Y-9950400D01*
X16644800Y-9910400D02*
X16604800Y-9950400D01*
X16604800Y-10062800D02*
X16644800Y-10102800D01*
X16644800Y-10062800D02*
X16604800Y-10102800D01*
X16662000Y-4345000D02*
X16702000Y-4385000D01*
X16702000Y-4345000D02*
X16662000Y-4385000D01*
X16662000Y-7645000D02*
X16702000Y-7685000D01*
X16702000Y-7645000D02*
X16662000Y-7685000D01*
X16681000Y-4172000D02*
X16721000Y-4212000D01*
X16721000Y-4172000D02*
X16681000Y-4212000D01*
X16681000Y-7472000D02*
X16721000Y-7512000D01*
X16721000Y-7472000D02*
X16681000Y-7512000D01*
X16742000Y-4745000D02*
X16782000Y-4785000D01*
X16782000Y-4745000D02*
X16742000Y-4785000D01*
X16742000Y-8045000D02*
X16782000Y-8085000D01*
X16782000Y-8045000D02*
X16742000Y-8085000D01*
X16757200Y-6737400D02*
X16797200Y-6777400D01*
X16797200Y-6737400D02*
X16757200Y-6777400D01*
X16757200Y-10037400D02*
X16797200Y-10077400D01*
X16797200Y-10037400D02*
X16757200Y-10077400D01*
X16792000Y-4495000D02*
X16832000Y-4535000D01*
X16832000Y-4495000D02*
X16792000Y-4535000D01*
X16792000Y-7795000D02*
X16832000Y-7835000D01*
X16832000Y-7795000D02*
X16792000Y-7835000D01*
X16808000Y-5569000D02*
X16848000Y-5609000D01*
X16848000Y-5569000D02*
X16808000Y-5609000D01*
X16808000Y-5823000D02*
X16848000Y-5863000D01*
X16848000Y-5823000D02*
X16808000Y-5863000D01*
X16808000Y-5950000D02*
X16848000Y-5990000D01*
X16848000Y-5950000D02*
X16808000Y-5990000D01*
X16808000Y-8869000D02*
X16848000Y-8909000D01*
X16848000Y-8869000D02*
X16808000Y-8909000D01*
X16808000Y-9123000D02*
X16848000Y-9163000D01*
X16848000Y-9123000D02*
X16808000Y-9163000D01*
X16808000Y-9250000D02*
X16848000Y-9290000D01*
X16848000Y-9250000D02*
X16808000Y-9290000D01*
X16935000Y-6712000D02*
X16975000Y-6752000D01*
X16975000Y-6712000D02*
X16935000Y-6752000D01*
X16935000Y-10012000D02*
X16975000Y-10052000D01*
X16975000Y-10012000D02*
X16935000Y-10052000D01*
X16952000Y-4695000D02*
X16992000Y-4735000D01*
X16992000Y-4695000D02*
X16952000Y-4735000D01*
X16952000Y-7995000D02*
X16992000Y-8035000D01*
X16992000Y-7995000D02*
X16952000Y-8035000D01*
X16998500Y-4362500D02*
X17038500Y-4402500D01*
X17038500Y-4362500D02*
X16998500Y-4402500D01*
X16998500Y-7093000D02*
X17038500Y-7133000D01*
X17038500Y-7093000D02*
X16998500Y-7133000D01*
X16998500Y-7662500D02*
X17038500Y-7702500D01*
X17038500Y-7662500D02*
X16998500Y-7702500D01*
X16998500Y-10393000D02*
X17038500Y-10433000D01*
X17038500Y-10393000D02*
X16998500Y-10433000D01*
X17011200Y-6915200D02*
X17051200Y-6955200D01*
X17051200Y-6915200D02*
X17011200Y-6955200D01*
X17011200Y-10215200D02*
X17051200Y-10255200D01*
X17051200Y-10215200D02*
X17011200Y-10255200D01*
X17062000Y-5569000D02*
X17102000Y-5609000D01*
X17102000Y-5569000D02*
X17062000Y-5609000D01*
X17062000Y-5823000D02*
X17102000Y-5863000D01*
X17102000Y-5823000D02*
X17062000Y-5863000D01*
X17062000Y-6000800D02*
X17102000Y-6040800D01*
X17102000Y-6000800D02*
X17062000Y-6040800D01*
X17062000Y-8869000D02*
X17102000Y-8909000D01*
X17102000Y-8869000D02*
X17062000Y-8909000D01*
X17062000Y-9123000D02*
X17102000Y-9163000D01*
X17102000Y-9123000D02*
X17062000Y-9163000D01*
X17062000Y-9300800D02*
X17102000Y-9340800D01*
X17102000Y-9300800D02*
X17062000Y-9340800D01*
X17142000Y-4695000D02*
X17182000Y-4735000D01*
X17182000Y-4695000D02*
X17142000Y-4735000D01*
X17142000Y-7995000D02*
X17182000Y-8035000D01*
X17182000Y-7995000D02*
X17142000Y-8035000D01*
X17189000Y-6712000D02*
X17229000Y-6752000D01*
X17229000Y-6712000D02*
X17189000Y-6752000D01*
X17189000Y-10012000D02*
X17229000Y-10052000D01*
X17229000Y-10012000D02*
X17189000Y-10052000D01*
X17272000Y-4375000D02*
X17312000Y-4415000D01*
X17312000Y-4375000D02*
X17272000Y-4415000D01*
X17272000Y-7675000D02*
X17312000Y-7715000D01*
X17312000Y-7675000D02*
X17272000Y-7715000D01*
X17316000Y-4172000D02*
X17356000Y-4212000D01*
X17356000Y-4172000D02*
X17316000Y-4212000D01*
X17316000Y-5569000D02*
X17356000Y-5609000D01*
X17356000Y-5569000D02*
X17316000Y-5609000D01*
X17316000Y-5823000D02*
X17356000Y-5863000D01*
X17356000Y-5823000D02*
X17316000Y-5863000D01*
X17316000Y-6102400D02*
X17356000Y-6142400D01*
X17356000Y-6102400D02*
X17316000Y-6142400D01*
X17316000Y-6331000D02*
X17356000Y-6371000D01*
X17356000Y-6331000D02*
X17316000Y-6371000D01*
X17316000Y-6585000D02*
X17356000Y-6625000D01*
X17356000Y-6585000D02*
X17316000Y-6625000D01*
X17316000Y-6966000D02*
X17356000Y-7006000D01*
X17356000Y-6966000D02*
X17316000Y-7006000D01*
X17316000Y-7472000D02*
X17356000Y-7512000D01*
X17356000Y-7472000D02*
X17316000Y-7512000D01*
X17316000Y-8869000D02*
X17356000Y-8909000D01*
X17356000Y-8869000D02*
X17316000Y-8909000D01*
X17316000Y-9123000D02*
X17356000Y-9163000D01*
X17356000Y-9123000D02*
X17316000Y-9163000D01*
X17316000Y-9402400D02*
X17356000Y-9442400D01*
X17356000Y-9402400D02*
X17316000Y-9442400D01*
X17316000Y-9631000D02*
X17356000Y-9671000D01*
X17356000Y-9631000D02*
X17316000Y-9671000D01*
X17316000Y-9885000D02*
X17356000Y-9925000D01*
X17356000Y-9885000D02*
X17316000Y-9925000D01*
X17316000Y-10266000D02*
X17356000Y-10306000D01*
X17356000Y-10266000D02*
X17316000Y-10306000D01*
X17332000Y-4695000D02*
X17372000Y-4735000D01*
X17372000Y-4695000D02*
X17332000Y-4735000D01*
X17332000Y-7995000D02*
X17372000Y-8035000D01*
X17372000Y-7995000D02*
X17332000Y-8035000D01*
X17352000Y-5325000D02*
X17392000Y-5365000D01*
X17392000Y-5325000D02*
X17352000Y-5365000D01*
X17352000Y-8625000D02*
X17392000Y-8665000D01*
X17392000Y-8625000D02*
X17352000Y-8665000D01*
D13*
X12662000Y-5875000D02*
G75*
G03*
X12662000Y-5875000I-60000J0D01*
G01*
X12662000Y-9175000D02*
G75*
G03*
X12662000Y-9175000I-60000J0D01*
G01*
X15962000Y-5875000D02*
G75*
G03*
X15962000Y-5875000I-60000J0D01*
G01*
X15962000Y-9175000D02*
G75*
G03*
X15962000Y-9175000I-60000J0D01*
G01*
D14*
X11500000Y-3340000D02*
X11500000Y-3660000D01*
X11340000Y-3500000D02*
X11660000Y-3500000D01*
X11500000Y-11340000D02*
X11500000Y-11660000D01*
X11340000Y-11500000D02*
X11660000Y-11500000D01*
X17000000Y-3340000D02*
X17000000Y-3660000D01*
X16840000Y-3500000D02*
X17160000Y-3500000D01*
X17000000Y-11340000D02*
X17000000Y-11660000D01*
X16840000Y-11500000D02*
X17160000Y-11500000D01*
D11*
X11255119Y-12312976D02*
X11255119Y-12112976D01*
X11302738Y-12112976D01*
X11331309Y-12122500D01*
X11350357Y-12141548D01*
X11359881Y-12160595D01*
X11369405Y-12198690D01*
X11369405Y-12227262D01*
X11359881Y-12265357D01*
X11350357Y-12284405D01*
X11331309Y-12303452D01*
X11302738Y-12312976D01*
X11255119Y-12312976D01*
X11455119Y-12312976D02*
X11455119Y-12179643D01*
X11455119Y-12217738D02*
X11464643Y-12198690D01*
X11474167Y-12189167D01*
X11493214Y-12179643D01*
X11512262Y-12179643D01*
X11578928Y-12312976D02*
X11578928Y-12179643D01*
X11578928Y-12112976D02*
X11569405Y-12122500D01*
X11578928Y-12132024D01*
X11588452Y-12122500D01*
X11578928Y-12112976D01*
X11578928Y-12132024D01*
X11702738Y-12312976D02*
X11683690Y-12303452D01*
X11674167Y-12284405D01*
X11674167Y-12112976D01*
X11807500Y-12312976D02*
X11788452Y-12303452D01*
X11778928Y-12284405D01*
X11778928Y-12112976D01*
X12036071Y-12312976D02*
X12036071Y-12112976D01*
X12102738Y-12255833D01*
X12169405Y-12112976D01*
X12169405Y-12312976D01*
X12350357Y-12312976D02*
X12350357Y-12208214D01*
X12340833Y-12189167D01*
X12321786Y-12179643D01*
X12283690Y-12179643D01*
X12264643Y-12189167D01*
X12350357Y-12303452D02*
X12331309Y-12312976D01*
X12283690Y-12312976D01*
X12264643Y-12303452D01*
X12255119Y-12284405D01*
X12255119Y-12265357D01*
X12264643Y-12246309D01*
X12283690Y-12236786D01*
X12331309Y-12236786D01*
X12350357Y-12227262D01*
X12445595Y-12179643D02*
X12445595Y-12379643D01*
X12445595Y-12189167D02*
X12464643Y-12179643D01*
X12502738Y-12179643D01*
X12521786Y-12189167D01*
X12531309Y-12198690D01*
X12540833Y-12217738D01*
X12540833Y-12274881D01*
X12531309Y-12293928D01*
X12521786Y-12303452D01*
X12502738Y-12312976D01*
X12464643Y-12312976D01*
X12445595Y-12303452D01*
X12626548Y-12293928D02*
X12636071Y-12303452D01*
X12626548Y-12312976D01*
X12617024Y-12303452D01*
X12626548Y-12293928D01*
X12626548Y-12312976D01*
X12626548Y-12189167D02*
X12636071Y-12198690D01*
X12626548Y-12208214D01*
X12617024Y-12198690D01*
X12626548Y-12189167D01*
X12626548Y-12208214D01*
D12*
X10957500Y-12622500D02*
X10997500Y-12662500D01*
X10997500Y-12622500D02*
X10957500Y-12662500D01*
D11*
X11293214Y-12532976D02*
X11312262Y-12532976D01*
X11331309Y-12542500D01*
X11340833Y-12552024D01*
X11350357Y-12571071D01*
X11359881Y-12609167D01*
X11359881Y-12656786D01*
X11350357Y-12694881D01*
X11340833Y-12713928D01*
X11331309Y-12723452D01*
X11312262Y-12732976D01*
X11293214Y-12732976D01*
X11274167Y-12723452D01*
X11264643Y-12713928D01*
X11255119Y-12694881D01*
X11245595Y-12656786D01*
X11245595Y-12609167D01*
X11255119Y-12571071D01*
X11264643Y-12552024D01*
X11274167Y-12542500D01*
X11293214Y-12532976D01*
X11445595Y-12713928D02*
X11455119Y-12723452D01*
X11445595Y-12732976D01*
X11436071Y-12723452D01*
X11445595Y-12713928D01*
X11445595Y-12732976D01*
X11626548Y-12599643D02*
X11626548Y-12732976D01*
X11578928Y-12523452D02*
X11531309Y-12666309D01*
X11655119Y-12666309D01*
X11769405Y-12532976D02*
X11788452Y-12532976D01*
X11807500Y-12542500D01*
X11817024Y-12552024D01*
X11826548Y-12571071D01*
X11836071Y-12609167D01*
X11836071Y-12656786D01*
X11826548Y-12694881D01*
X11817024Y-12713928D01*
X11807500Y-12723452D01*
X11788452Y-12732976D01*
X11769405Y-12732976D01*
X11750357Y-12723452D01*
X11740833Y-12713928D01*
X11731309Y-12694881D01*
X11721786Y-12656786D01*
X11721786Y-12609167D01*
X11731309Y-12571071D01*
X11740833Y-12552024D01*
X11750357Y-12542500D01*
X11769405Y-12532976D01*
X11959881Y-12532976D02*
X11978928Y-12532976D01*
X11997976Y-12542500D01*
X12007500Y-12552024D01*
X12017024Y-12571071D01*
X12026548Y-12609167D01*
X12026548Y-12656786D01*
X12017024Y-12694881D01*
X12007500Y-12713928D01*
X11997976Y-12723452D01*
X11978928Y-12732976D01*
X11959881Y-12732976D01*
X11940833Y-12723452D01*
X11931309Y-12713928D01*
X11921786Y-12694881D01*
X11912262Y-12656786D01*
X11912262Y-12609167D01*
X11921786Y-12571071D01*
X11931309Y-12552024D01*
X11940833Y-12542500D01*
X11959881Y-12532976D01*
X12112262Y-12732976D02*
X12112262Y-12599643D01*
X12112262Y-12618690D02*
X12121786Y-12609167D01*
X12140833Y-12599643D01*
X12169405Y-12599643D01*
X12188452Y-12609167D01*
X12197976Y-12628214D01*
X12197976Y-12732976D01*
X12197976Y-12628214D02*
X12207500Y-12609167D01*
X12226548Y-12599643D01*
X12255119Y-12599643D01*
X12274167Y-12609167D01*
X12283690Y-12628214D01*
X12283690Y-12732976D01*
X12378928Y-12732976D02*
X12378928Y-12599643D01*
X12378928Y-12618690D02*
X12388452Y-12609167D01*
X12407500Y-12599643D01*
X12436071Y-12599643D01*
X12455119Y-12609167D01*
X12464643Y-12628214D01*
X12464643Y-12732976D01*
X12464643Y-12628214D02*
X12474167Y-12609167D01*
X12493214Y-12599643D01*
X12521786Y-12599643D01*
X12540833Y-12609167D01*
X12550357Y-12628214D01*
X12550357Y-12732976D01*
X12940833Y-12523452D02*
X12769405Y-12780595D01*
X13197976Y-12532976D02*
X13217024Y-12532976D01*
X13236071Y-12542500D01*
X13245595Y-12552024D01*
X13255119Y-12571071D01*
X13264643Y-12609167D01*
X13264643Y-12656786D01*
X13255119Y-12694881D01*
X13245595Y-12713928D01*
X13236071Y-12723452D01*
X13217024Y-12732976D01*
X13197976Y-12732976D01*
X13178928Y-12723452D01*
X13169405Y-12713928D01*
X13159881Y-12694881D01*
X13150357Y-12656786D01*
X13150357Y-12609167D01*
X13159881Y-12571071D01*
X13169405Y-12552024D01*
X13178928Y-12542500D01*
X13197976Y-12532976D01*
X13350357Y-12713928D02*
X13359881Y-12723452D01*
X13350357Y-12732976D01*
X13340833Y-12723452D01*
X13350357Y-12713928D01*
X13350357Y-12732976D01*
X13483690Y-12532976D02*
X13502738Y-12532976D01*
X13521786Y-12542500D01*
X13531309Y-12552024D01*
X13540833Y-12571071D01*
X13550357Y-12609167D01*
X13550357Y-12656786D01*
X13540833Y-12694881D01*
X13531309Y-12713928D01*
X13521786Y-12723452D01*
X13502738Y-12732976D01*
X13483690Y-12732976D01*
X13464643Y-12723452D01*
X13455119Y-12713928D01*
X13445595Y-12694881D01*
X13436071Y-12656786D01*
X13436071Y-12609167D01*
X13445595Y-12571071D01*
X13455119Y-12552024D01*
X13464643Y-12542500D01*
X13483690Y-12532976D01*
X13740833Y-12732976D02*
X13626548Y-12732976D01*
X13683690Y-12732976D02*
X13683690Y-12532976D01*
X13664643Y-12561548D01*
X13645595Y-12580595D01*
X13626548Y-12590119D01*
X13921786Y-12532976D02*
X13826548Y-12532976D01*
X13817024Y-12628214D01*
X13826548Y-12618690D01*
X13845595Y-12609167D01*
X13893214Y-12609167D01*
X13912262Y-12618690D01*
X13921786Y-12628214D01*
X13931309Y-12647262D01*
X13931309Y-12694881D01*
X13921786Y-12713928D01*
X13912262Y-12723452D01*
X13893214Y-12732976D01*
X13845595Y-12732976D01*
X13826548Y-12723452D01*
X13817024Y-12713928D01*
X13997976Y-12532976D02*
X14131309Y-12532976D01*
X14045595Y-12732976D01*
X14197976Y-12532976D02*
X14197976Y-12571071D01*
X14274167Y-12532976D02*
X14274167Y-12571071D01*
X14569405Y-12809167D02*
X14559881Y-12799643D01*
X14540833Y-12771071D01*
X14531309Y-12752024D01*
X14521786Y-12723452D01*
X14512262Y-12675833D01*
X14512262Y-12637738D01*
X14521786Y-12590119D01*
X14531309Y-12561548D01*
X14540833Y-12542500D01*
X14559881Y-12513928D01*
X14569405Y-12504405D01*
X14731309Y-12599643D02*
X14731309Y-12732976D01*
X14683690Y-12523452D02*
X14636071Y-12666309D01*
X14759881Y-12666309D01*
X14826548Y-12552024D02*
X14836071Y-12542500D01*
X14855119Y-12532976D01*
X14902738Y-12532976D01*
X14921786Y-12542500D01*
X14931309Y-12552024D01*
X14940833Y-12571071D01*
X14940833Y-12590119D01*
X14931309Y-12618690D01*
X14817024Y-12732976D01*
X14940833Y-12732976D01*
X15055119Y-12618690D02*
X15036071Y-12609167D01*
X15026548Y-12599643D01*
X15017024Y-12580595D01*
X15017024Y-12571071D01*
X15026548Y-12552024D01*
X15036071Y-12542500D01*
X15055119Y-12532976D01*
X15093214Y-12532976D01*
X15112262Y-12542500D01*
X15121786Y-12552024D01*
X15131309Y-12571071D01*
X15131309Y-12580595D01*
X15121786Y-12599643D01*
X15112262Y-12609167D01*
X15093214Y-12618690D01*
X15055119Y-12618690D01*
X15036071Y-12628214D01*
X15026548Y-12637738D01*
X15017024Y-12656786D01*
X15017024Y-12694881D01*
X15026548Y-12713928D01*
X15036071Y-12723452D01*
X15055119Y-12732976D01*
X15093214Y-12732976D01*
X15112262Y-12723452D01*
X15121786Y-12713928D01*
X15131309Y-12694881D01*
X15131309Y-12656786D01*
X15121786Y-12637738D01*
X15112262Y-12628214D01*
X15093214Y-12618690D01*
X15369405Y-12732976D02*
X15369405Y-12532976D01*
X15455119Y-12732976D02*
X15455119Y-12628214D01*
X15445595Y-12609167D01*
X15426548Y-12599643D01*
X15397976Y-12599643D01*
X15378928Y-12609167D01*
X15369405Y-12618690D01*
X15578928Y-12732976D02*
X15559881Y-12723452D01*
X15550357Y-12713928D01*
X15540833Y-12694881D01*
X15540833Y-12637738D01*
X15550357Y-12618690D01*
X15559881Y-12609167D01*
X15578928Y-12599643D01*
X15607500Y-12599643D01*
X15626548Y-12609167D01*
X15636071Y-12618690D01*
X15645595Y-12637738D01*
X15645595Y-12694881D01*
X15636071Y-12713928D01*
X15626548Y-12723452D01*
X15607500Y-12732976D01*
X15578928Y-12732976D01*
X15759881Y-12732976D02*
X15740833Y-12723452D01*
X15731309Y-12704405D01*
X15731309Y-12532976D01*
X15912262Y-12723452D02*
X15893214Y-12732976D01*
X15855119Y-12732976D01*
X15836071Y-12723452D01*
X15826548Y-12704405D01*
X15826548Y-12628214D01*
X15836071Y-12609167D01*
X15855119Y-12599643D01*
X15893214Y-12599643D01*
X15912262Y-12609167D01*
X15921786Y-12628214D01*
X15921786Y-12647262D01*
X15826548Y-12666309D01*
X15997976Y-12723452D02*
X16017024Y-12732976D01*
X16055119Y-12732976D01*
X16074167Y-12723452D01*
X16083690Y-12704405D01*
X16083690Y-12694881D01*
X16074167Y-12675833D01*
X16055119Y-12666309D01*
X16026548Y-12666309D01*
X16007500Y-12656786D01*
X15997976Y-12637738D01*
X15997976Y-12628214D01*
X16007500Y-12609167D01*
X16026548Y-12599643D01*
X16055119Y-12599643D01*
X16074167Y-12609167D01*
X16150357Y-12809167D02*
X16159881Y-12799643D01*
X16178928Y-12771071D01*
X16188452Y-12752024D01*
X16197976Y-12723452D01*
X16207500Y-12675833D01*
X16207500Y-12637738D01*
X16197976Y-12590119D01*
X16188452Y-12561548D01*
X16178928Y-12542500D01*
X16159881Y-12513928D01*
X16150357Y-12504405D01*
D13*
X10997500Y-12906500D02*
G75*
G03*
X10997500Y-12906500I-60000J0D01*
G01*
D11*
X11359881Y-12996976D02*
X11245595Y-12996976D01*
X11302738Y-12996976D02*
X11302738Y-12796976D01*
X11283690Y-12825548D01*
X11264643Y-12844595D01*
X11245595Y-12854119D01*
X11445595Y-12977928D02*
X11455119Y-12987452D01*
X11445595Y-12996976D01*
X11436071Y-12987452D01*
X11445595Y-12977928D01*
X11445595Y-12996976D01*
X11531309Y-12816024D02*
X11540833Y-12806500D01*
X11559881Y-12796976D01*
X11607500Y-12796976D01*
X11626548Y-12806500D01*
X11636071Y-12816024D01*
X11645595Y-12835071D01*
X11645595Y-12854119D01*
X11636071Y-12882690D01*
X11521786Y-12996976D01*
X11645595Y-12996976D01*
X11769405Y-12796976D02*
X11788452Y-12796976D01*
X11807500Y-12806500D01*
X11817024Y-12816024D01*
X11826548Y-12835071D01*
X11836071Y-12873167D01*
X11836071Y-12920786D01*
X11826548Y-12958881D01*
X11817024Y-12977928D01*
X11807500Y-12987452D01*
X11788452Y-12996976D01*
X11769405Y-12996976D01*
X11750357Y-12987452D01*
X11740833Y-12977928D01*
X11731309Y-12958881D01*
X11721786Y-12920786D01*
X11721786Y-12873167D01*
X11731309Y-12835071D01*
X11740833Y-12816024D01*
X11750357Y-12806500D01*
X11769405Y-12796976D01*
X11959881Y-12796976D02*
X11978928Y-12796976D01*
X11997976Y-12806500D01*
X12007500Y-12816024D01*
X12017024Y-12835071D01*
X12026548Y-12873167D01*
X12026548Y-12920786D01*
X12017024Y-12958881D01*
X12007500Y-12977928D01*
X11997976Y-12987452D01*
X11978928Y-12996976D01*
X11959881Y-12996976D01*
X11940833Y-12987452D01*
X11931309Y-12977928D01*
X11921786Y-12958881D01*
X11912262Y-12920786D01*
X11912262Y-12873167D01*
X11921786Y-12835071D01*
X11931309Y-12816024D01*
X11940833Y-12806500D01*
X11959881Y-12796976D01*
X12112262Y-12996976D02*
X12112262Y-12863643D01*
X12112262Y-12882690D02*
X12121786Y-12873167D01*
X12140833Y-12863643D01*
X12169405Y-12863643D01*
X12188452Y-12873167D01*
X12197976Y-12892214D01*
X12197976Y-12996976D01*
X12197976Y-12892214D02*
X12207500Y-12873167D01*
X12226548Y-12863643D01*
X12255119Y-12863643D01*
X12274167Y-12873167D01*
X12283690Y-12892214D01*
X12283690Y-12996976D01*
X12378928Y-12996976D02*
X12378928Y-12863643D01*
X12378928Y-12882690D02*
X12388452Y-12873167D01*
X12407500Y-12863643D01*
X12436071Y-12863643D01*
X12455119Y-12873167D01*
X12464643Y-12892214D01*
X12464643Y-12996976D01*
X12464643Y-12892214D02*
X12474167Y-12873167D01*
X12493214Y-12863643D01*
X12521786Y-12863643D01*
X12540833Y-12873167D01*
X12550357Y-12892214D01*
X12550357Y-12996976D01*
X12940833Y-12787452D02*
X12769405Y-13044595D01*
X13197976Y-12796976D02*
X13217024Y-12796976D01*
X13236071Y-12806500D01*
X13245595Y-12816024D01*
X13255119Y-12835071D01*
X13264643Y-12873167D01*
X13264643Y-12920786D01*
X13255119Y-12958881D01*
X13245595Y-12977928D01*
X13236071Y-12987452D01*
X13217024Y-12996976D01*
X13197976Y-12996976D01*
X13178928Y-12987452D01*
X13169405Y-12977928D01*
X13159881Y-12958881D01*
X13150357Y-12920786D01*
X13150357Y-12873167D01*
X13159881Y-12835071D01*
X13169405Y-12816024D01*
X13178928Y-12806500D01*
X13197976Y-12796976D01*
X13350357Y-12977928D02*
X13359881Y-12987452D01*
X13350357Y-12996976D01*
X13340833Y-12987452D01*
X13350357Y-12977928D01*
X13350357Y-12996976D01*
X13483690Y-12796976D02*
X13502738Y-12796976D01*
X13521786Y-12806500D01*
X13531309Y-12816024D01*
X13540833Y-12835071D01*
X13550357Y-12873167D01*
X13550357Y-12920786D01*
X13540833Y-12958881D01*
X13531309Y-12977928D01*
X13521786Y-12987452D01*
X13502738Y-12996976D01*
X13483690Y-12996976D01*
X13464643Y-12987452D01*
X13455119Y-12977928D01*
X13445595Y-12958881D01*
X13436071Y-12920786D01*
X13436071Y-12873167D01*
X13445595Y-12835071D01*
X13455119Y-12816024D01*
X13464643Y-12806500D01*
X13483690Y-12796976D01*
X13721786Y-12863643D02*
X13721786Y-12996976D01*
X13674167Y-12787452D02*
X13626548Y-12930309D01*
X13750357Y-12930309D01*
X13807500Y-12796976D02*
X13940833Y-12796976D01*
X13855119Y-12996976D01*
X14007500Y-12816024D02*
X14017024Y-12806500D01*
X14036071Y-12796976D01*
X14083690Y-12796976D01*
X14102738Y-12806500D01*
X14112262Y-12816024D01*
X14121786Y-12835071D01*
X14121786Y-12854119D01*
X14112262Y-12882690D01*
X13997976Y-12996976D01*
X14121786Y-12996976D01*
X14197976Y-12796976D02*
X14197976Y-12835071D01*
X14274167Y-12796976D02*
X14274167Y-12835071D01*
X14569405Y-13073167D02*
X14559881Y-13063643D01*
X14540833Y-13035071D01*
X14531309Y-13016024D01*
X14521786Y-12987452D01*
X14512262Y-12939833D01*
X14512262Y-12901738D01*
X14521786Y-12854119D01*
X14531309Y-12825548D01*
X14540833Y-12806500D01*
X14559881Y-12777928D01*
X14569405Y-12768405D01*
X14731309Y-12863643D02*
X14731309Y-12996976D01*
X14683690Y-12787452D02*
X14636071Y-12930309D01*
X14759881Y-12930309D01*
X14988452Y-12996976D02*
X14988452Y-12796976D01*
X15074167Y-12996976D02*
X15074167Y-12892214D01*
X15064643Y-12873167D01*
X15045595Y-12863643D01*
X15017024Y-12863643D01*
X14997976Y-12873167D01*
X14988452Y-12882690D01*
X15197976Y-12996976D02*
X15178928Y-12987452D01*
X15169405Y-12977928D01*
X15159881Y-12958881D01*
X15159881Y-12901738D01*
X15169405Y-12882690D01*
X15178928Y-12873167D01*
X15197976Y-12863643D01*
X15226548Y-12863643D01*
X15245595Y-12873167D01*
X15255119Y-12882690D01*
X15264643Y-12901738D01*
X15264643Y-12958881D01*
X15255119Y-12977928D01*
X15245595Y-12987452D01*
X15226548Y-12996976D01*
X15197976Y-12996976D01*
X15378928Y-12996976D02*
X15359881Y-12987452D01*
X15350357Y-12968405D01*
X15350357Y-12796976D01*
X15531309Y-12987452D02*
X15512262Y-12996976D01*
X15474167Y-12996976D01*
X15455119Y-12987452D01*
X15445595Y-12968405D01*
X15445595Y-12892214D01*
X15455119Y-12873167D01*
X15474167Y-12863643D01*
X15512262Y-12863643D01*
X15531309Y-12873167D01*
X15540833Y-12892214D01*
X15540833Y-12911262D01*
X15445595Y-12930309D01*
X15617024Y-12987452D02*
X15636071Y-12996976D01*
X15674167Y-12996976D01*
X15693214Y-12987452D01*
X15702738Y-12968405D01*
X15702738Y-12958881D01*
X15693214Y-12939833D01*
X15674167Y-12930309D01*
X15645595Y-12930309D01*
X15626548Y-12920786D01*
X15617024Y-12901738D01*
X15617024Y-12892214D01*
X15626548Y-12873167D01*
X15645595Y-12863643D01*
X15674167Y-12863643D01*
X15693214Y-12873167D01*
X15769405Y-13073167D02*
X15778928Y-13063643D01*
X15797976Y-13035071D01*
X15807500Y-13016024D01*
X15817024Y-12987452D01*
X15826548Y-12939833D01*
X15826548Y-12901738D01*
X15817024Y-12854119D01*
X15807500Y-12825548D01*
X15797976Y-12806500D01*
X15778928Y-12777928D01*
X15769405Y-12768405D01*
X10897500Y-13070500D02*
X10897500Y-13270500D01*
X10797500Y-13170500D02*
X10997500Y-13170500D01*
X11236071Y-13060976D02*
X11359881Y-13060976D01*
X11293214Y-13137167D01*
X11321786Y-13137167D01*
X11340833Y-13146690D01*
X11350357Y-13156214D01*
X11359881Y-13175262D01*
X11359881Y-13222881D01*
X11350357Y-13241928D01*
X11340833Y-13251452D01*
X11321786Y-13260976D01*
X11264643Y-13260976D01*
X11245595Y-13251452D01*
X11236071Y-13241928D01*
X11445595Y-13241928D02*
X11455119Y-13251452D01*
X11445595Y-13260976D01*
X11436071Y-13251452D01*
X11445595Y-13241928D01*
X11445595Y-13260976D01*
X11531309Y-13080024D02*
X11540833Y-13070500D01*
X11559881Y-13060976D01*
X11607500Y-13060976D01*
X11626548Y-13070500D01*
X11636071Y-13080024D01*
X11645595Y-13099071D01*
X11645595Y-13118119D01*
X11636071Y-13146690D01*
X11521786Y-13260976D01*
X11645595Y-13260976D01*
X11769405Y-13060976D02*
X11788452Y-13060976D01*
X11807500Y-13070500D01*
X11817024Y-13080024D01*
X11826548Y-13099071D01*
X11836071Y-13137167D01*
X11836071Y-13184786D01*
X11826548Y-13222881D01*
X11817024Y-13241928D01*
X11807500Y-13251452D01*
X11788452Y-13260976D01*
X11769405Y-13260976D01*
X11750357Y-13251452D01*
X11740833Y-13241928D01*
X11731309Y-13222881D01*
X11721786Y-13184786D01*
X11721786Y-13137167D01*
X11731309Y-13099071D01*
X11740833Y-13080024D01*
X11750357Y-13070500D01*
X11769405Y-13060976D01*
X11959881Y-13060976D02*
X11978928Y-13060976D01*
X11997976Y-13070500D01*
X12007500Y-13080024D01*
X12017024Y-13099071D01*
X12026548Y-13137167D01*
X12026548Y-13184786D01*
X12017024Y-13222881D01*
X12007500Y-13241928D01*
X11997976Y-13251452D01*
X11978928Y-13260976D01*
X11959881Y-13260976D01*
X11940833Y-13251452D01*
X11931309Y-13241928D01*
X11921786Y-13222881D01*
X11912262Y-13184786D01*
X11912262Y-13137167D01*
X11921786Y-13099071D01*
X11931309Y-13080024D01*
X11940833Y-13070500D01*
X11959881Y-13060976D01*
X12112262Y-13260976D02*
X12112262Y-13127643D01*
X12112262Y-13146690D02*
X12121786Y-13137167D01*
X12140833Y-13127643D01*
X12169405Y-13127643D01*
X12188452Y-13137167D01*
X12197976Y-13156214D01*
X12197976Y-13260976D01*
X12197976Y-13156214D02*
X12207500Y-13137167D01*
X12226548Y-13127643D01*
X12255119Y-13127643D01*
X12274167Y-13137167D01*
X12283690Y-13156214D01*
X12283690Y-13260976D01*
X12378928Y-13260976D02*
X12378928Y-13127643D01*
X12378928Y-13146690D02*
X12388452Y-13137167D01*
X12407500Y-13127643D01*
X12436071Y-13127643D01*
X12455119Y-13137167D01*
X12464643Y-13156214D01*
X12464643Y-13260976D01*
X12464643Y-13156214D02*
X12474167Y-13137167D01*
X12493214Y-13127643D01*
X12521786Y-13127643D01*
X12540833Y-13137167D01*
X12550357Y-13156214D01*
X12550357Y-13260976D01*
X12940833Y-13051452D02*
X12769405Y-13308595D01*
X13197976Y-13060976D02*
X13217024Y-13060976D01*
X13236071Y-13070500D01*
X13245595Y-13080024D01*
X13255119Y-13099071D01*
X13264643Y-13137167D01*
X13264643Y-13184786D01*
X13255119Y-13222881D01*
X13245595Y-13241928D01*
X13236071Y-13251452D01*
X13217024Y-13260976D01*
X13197976Y-13260976D01*
X13178928Y-13251452D01*
X13169405Y-13241928D01*
X13159881Y-13222881D01*
X13150357Y-13184786D01*
X13150357Y-13137167D01*
X13159881Y-13099071D01*
X13169405Y-13080024D01*
X13178928Y-13070500D01*
X13197976Y-13060976D01*
X13350357Y-13241928D02*
X13359881Y-13251452D01*
X13350357Y-13260976D01*
X13340833Y-13251452D01*
X13350357Y-13241928D01*
X13350357Y-13260976D01*
X13550357Y-13260976D02*
X13436071Y-13260976D01*
X13493214Y-13260976D02*
X13493214Y-13060976D01*
X13474167Y-13089548D01*
X13455119Y-13108595D01*
X13436071Y-13118119D01*
X13626548Y-13080024D02*
X13636071Y-13070500D01*
X13655119Y-13060976D01*
X13702738Y-13060976D01*
X13721786Y-13070500D01*
X13731309Y-13080024D01*
X13740833Y-13099071D01*
X13740833Y-13118119D01*
X13731309Y-13146690D01*
X13617024Y-13260976D01*
X13740833Y-13260976D01*
X13912262Y-13060976D02*
X13874167Y-13060976D01*
X13855119Y-13070500D01*
X13845595Y-13080024D01*
X13826548Y-13108595D01*
X13817024Y-13146690D01*
X13817024Y-13222881D01*
X13826548Y-13241928D01*
X13836071Y-13251452D01*
X13855119Y-13260976D01*
X13893214Y-13260976D01*
X13912262Y-13251452D01*
X13921786Y-13241928D01*
X13931309Y-13222881D01*
X13931309Y-13175262D01*
X13921786Y-13156214D01*
X13912262Y-13146690D01*
X13893214Y-13137167D01*
X13855119Y-13137167D01*
X13836071Y-13146690D01*
X13826548Y-13156214D01*
X13817024Y-13175262D01*
X14055119Y-13060976D02*
X14074167Y-13060976D01*
X14093214Y-13070500D01*
X14102738Y-13080024D01*
X14112262Y-13099071D01*
X14121786Y-13137167D01*
X14121786Y-13184786D01*
X14112262Y-13222881D01*
X14102738Y-13241928D01*
X14093214Y-13251452D01*
X14074167Y-13260976D01*
X14055119Y-13260976D01*
X14036071Y-13251452D01*
X14026548Y-13241928D01*
X14017024Y-13222881D01*
X14007500Y-13184786D01*
X14007500Y-13137167D01*
X14017024Y-13099071D01*
X14026548Y-13080024D01*
X14036071Y-13070500D01*
X14055119Y-13060976D01*
X14197976Y-13060976D02*
X14197976Y-13099071D01*
X14274167Y-13060976D02*
X14274167Y-13099071D01*
X14569405Y-13337167D02*
X14559881Y-13327643D01*
X14540833Y-13299071D01*
X14531309Y-13280024D01*
X14521786Y-13251452D01*
X14512262Y-13203833D01*
X14512262Y-13165738D01*
X14521786Y-13118119D01*
X14531309Y-13089548D01*
X14540833Y-13070500D01*
X14559881Y-13041928D01*
X14569405Y-13032405D01*
X14731309Y-13127643D02*
X14731309Y-13260976D01*
X14683690Y-13051452D02*
X14636071Y-13194309D01*
X14759881Y-13194309D01*
X14988452Y-13260976D02*
X14988452Y-13060976D01*
X15074167Y-13260976D02*
X15074167Y-13156214D01*
X15064643Y-13137167D01*
X15045595Y-13127643D01*
X15017024Y-13127643D01*
X14997976Y-13137167D01*
X14988452Y-13146690D01*
X15197976Y-13260976D02*
X15178928Y-13251452D01*
X15169405Y-13241928D01*
X15159881Y-13222881D01*
X15159881Y-13165738D01*
X15169405Y-13146690D01*
X15178928Y-13137167D01*
X15197976Y-13127643D01*
X15226548Y-13127643D01*
X15245595Y-13137167D01*
X15255119Y-13146690D01*
X15264643Y-13165738D01*
X15264643Y-13222881D01*
X15255119Y-13241928D01*
X15245595Y-13251452D01*
X15226548Y-13260976D01*
X15197976Y-13260976D01*
X15378928Y-13260976D02*
X15359881Y-13251452D01*
X15350357Y-13232405D01*
X15350357Y-13060976D01*
X15531309Y-13251452D02*
X15512262Y-13260976D01*
X15474167Y-13260976D01*
X15455119Y-13251452D01*
X15445595Y-13232405D01*
X15445595Y-13156214D01*
X15455119Y-13137167D01*
X15474167Y-13127643D01*
X15512262Y-13127643D01*
X15531309Y-13137167D01*
X15540833Y-13156214D01*
X15540833Y-13175262D01*
X15445595Y-13194309D01*
X15617024Y-13251452D02*
X15636071Y-13260976D01*
X15674167Y-13260976D01*
X15693214Y-13251452D01*
X15702738Y-13232405D01*
X15702738Y-13222881D01*
X15693214Y-13203833D01*
X15674167Y-13194309D01*
X15645595Y-13194309D01*
X15626548Y-13184786D01*
X15617024Y-13165738D01*
X15617024Y-13156214D01*
X15626548Y-13137167D01*
X15645595Y-13127643D01*
X15674167Y-13127643D01*
X15693214Y-13137167D01*
X15769405Y-13337167D02*
X15778928Y-13327643D01*
X15797976Y-13299071D01*
X15807500Y-13280024D01*
X15817024Y-13251452D01*
X15826548Y-13203833D01*
X15826548Y-13165738D01*
X15817024Y-13118119D01*
X15807500Y-13089548D01*
X15797976Y-13070500D01*
X15778928Y-13041928D01*
X15769405Y-13032405D01*
X16131309Y-13337167D02*
X16121786Y-13327643D01*
X16102738Y-13299071D01*
X16093214Y-13280024D01*
X16083690Y-13251452D01*
X16074167Y-13203833D01*
X16074167Y-13165738D01*
X16083690Y-13118119D01*
X16093214Y-13089548D01*
X16102738Y-13070500D01*
X16121786Y-13041928D01*
X16131309Y-13032405D01*
X16207500Y-13127643D02*
X16207500Y-13260976D01*
X16207500Y-13146690D02*
X16217024Y-13137167D01*
X16236071Y-13127643D01*
X16264643Y-13127643D01*
X16283690Y-13137167D01*
X16293214Y-13156214D01*
X16293214Y-13260976D01*
X16417024Y-13260976D02*
X16397976Y-13251452D01*
X16388452Y-13241928D01*
X16378928Y-13222881D01*
X16378928Y-13165738D01*
X16388452Y-13146690D01*
X16397976Y-13137167D01*
X16417024Y-13127643D01*
X16445595Y-13127643D01*
X16464643Y-13137167D01*
X16474167Y-13146690D01*
X16483690Y-13165738D01*
X16483690Y-13222881D01*
X16474167Y-13241928D01*
X16464643Y-13251452D01*
X16445595Y-13260976D01*
X16417024Y-13260976D01*
X16540833Y-13127643D02*
X16617024Y-13127643D01*
X16569405Y-13060976D02*
X16569405Y-13232405D01*
X16578928Y-13251452D01*
X16597976Y-13260976D01*
X16617024Y-13260976D01*
X16836071Y-13127643D02*
X16836071Y-13327643D01*
X16836071Y-13137167D02*
X16855119Y-13127643D01*
X16893214Y-13127643D01*
X16912262Y-13137167D01*
X16921786Y-13146690D01*
X16931310Y-13165738D01*
X16931310Y-13222881D01*
X16921786Y-13241928D01*
X16912262Y-13251452D01*
X16893214Y-13260976D01*
X16855119Y-13260976D01*
X16836071Y-13251452D01*
X17045595Y-13260976D02*
X17026548Y-13251452D01*
X17017024Y-13232405D01*
X17017024Y-13060976D01*
X17207500Y-13260976D02*
X17207500Y-13156214D01*
X17197976Y-13137167D01*
X17178929Y-13127643D01*
X17140833Y-13127643D01*
X17121786Y-13137167D01*
X17207500Y-13251452D02*
X17188452Y-13260976D01*
X17140833Y-13260976D01*
X17121786Y-13251452D01*
X17112262Y-13232405D01*
X17112262Y-13213357D01*
X17121786Y-13194309D01*
X17140833Y-13184786D01*
X17188452Y-13184786D01*
X17207500Y-13175262D01*
X17274167Y-13127643D02*
X17350357Y-13127643D01*
X17302738Y-13060976D02*
X17302738Y-13232405D01*
X17312262Y-13251452D01*
X17331310Y-13260976D01*
X17350357Y-13260976D01*
X17493214Y-13251452D02*
X17474167Y-13260976D01*
X17436071Y-13260976D01*
X17417024Y-13251452D01*
X17407500Y-13232405D01*
X17407500Y-13156214D01*
X17417024Y-13137167D01*
X17436071Y-13127643D01*
X17474167Y-13127643D01*
X17493214Y-13137167D01*
X17502738Y-13156214D01*
X17502738Y-13175262D01*
X17407500Y-13194309D01*
X17674167Y-13260976D02*
X17674167Y-13060976D01*
X17674167Y-13251452D02*
X17655119Y-13260976D01*
X17617024Y-13260976D01*
X17597976Y-13251452D01*
X17588452Y-13241928D01*
X17578929Y-13222881D01*
X17578929Y-13165738D01*
X17588452Y-13146690D01*
X17597976Y-13137167D01*
X17617024Y-13127643D01*
X17655119Y-13127643D01*
X17674167Y-13137167D01*
X17750357Y-13337167D02*
X17759881Y-13327643D01*
X17778929Y-13299071D01*
X17788452Y-13280024D01*
X17797976Y-13251452D01*
X17807500Y-13203833D01*
X17807500Y-13165738D01*
X17797976Y-13118119D01*
X17788452Y-13089548D01*
X17778929Y-13070500D01*
X17759881Y-13041928D01*
X17750357Y-13032405D01*
M02*
