M48
; DRILL file {KiCad (6.0.4)} date Fri Sep 16 03:16:21 2022
; FORMAT={-:-/ absolute / metric / decimal}
; #@! TF.CreationDate,2022-09-16T03:16:21+09:00
; #@! TF.GenerationSoftware,Kicad,Pcbnew,(6.0.4)
; #@! TF.FileFunction,MixedPlating,1,2
FMAT,2
METRIC
; #@! TA.AperFunction,Plated,PTH,ViaDrill
T1C0.400
; #@! TA.AperFunction,Plated,PTH,ComponentDrill
T2C1.200
; #@! TA.AperFunction,NonPlated,NPTH,ComponentDrill
T3C3.200
%
G90
G05
T1
X111.658Y-45.857
X111.658Y-78.857
X112.42Y-41.92
X112.42Y-53.35
X112.42Y-57.16
X112.42Y-60.97
X112.42Y-64.78
X112.42Y-68.59
X112.42Y-71.13
X112.42Y-74.92
X112.42Y-86.35
X112.42Y-90.16
X112.42Y-93.97
X112.42Y-97.78
X112.42Y-101.59
X112.42Y-104.13
X114.579Y-55.001
X114.579Y-88.001
X114.96Y-44.46
X114.96Y-50.175
X114.96Y-77.46
X114.96Y-83.175
X115.595Y-47.0
X115.595Y-80.0
X116.225Y-68.582
X116.225Y-101.582
X116.23Y-57.16
X116.23Y-60.97
X116.23Y-64.78
X116.23Y-71.13
X116.23Y-90.16
X116.23Y-93.97
X116.23Y-97.78
X116.23Y-104.13
X116.865Y-41.92
X116.865Y-74.92
X118.135Y-53.35
X118.135Y-86.35
X120.027Y-57.143
X120.027Y-60.945
X120.027Y-90.143
X120.027Y-93.945
X120.04Y-41.92
X120.04Y-45.095
X120.04Y-64.78
X120.04Y-68.59
X120.04Y-71.13
X120.04Y-74.92
X120.04Y-78.095
X120.04Y-97.78
X120.04Y-101.59
X120.04Y-104.13
X121.183Y-53.35
X121.183Y-86.35
X122.562Y-71.117
X122.562Y-104.117
X122.58Y-57.16
X122.58Y-60.97
X122.58Y-64.78
X122.58Y-68.59
X122.58Y-90.16
X122.58Y-93.97
X122.58Y-97.78
X122.58Y-101.59
X123.596Y-58.43
X123.596Y-91.43
X123.85Y-41.92
X123.85Y-45.73
X123.85Y-52.08
X123.85Y-59.954
X123.85Y-60.97
X123.85Y-74.92
X123.85Y-78.73
X123.85Y-85.08
X123.85Y-92.954
X123.85Y-93.97
X124.358Y-56.906
X124.358Y-89.906
X124.485Y-62.24
X124.485Y-63.51
X124.485Y-65.415
X124.485Y-67.32
X124.485Y-69.225
X124.485Y-71.13
X124.485Y-95.24
X124.485Y-96.51
X124.485Y-98.415
X124.485Y-100.32
X124.485Y-102.225
X124.485Y-104.13
X124.612Y-48.778
X124.612Y-81.778
X125.755Y-43.825
X125.755Y-76.825
X126.009Y-53.223
X126.009Y-86.223
X126.02Y-56.25
X126.02Y-89.25
X127.025Y-70.876
X127.025Y-103.876
X127.406Y-62.24
X127.406Y-63.51
X127.406Y-64.78
X127.406Y-66.304
X127.406Y-95.24
X127.406Y-96.51
X127.406Y-97.78
X127.406Y-99.304
X127.66Y-41.92
X127.66Y-45.73
X127.66Y-56.906
X127.66Y-60.97
X127.66Y-74.92
X127.66Y-78.73
X127.66Y-89.906
X127.66Y-93.97
X128.295Y-59.7
X128.295Y-71.13
X128.295Y-92.7
X128.295Y-104.13
X128.422Y-58.43
X128.422Y-91.43
X129.565Y-65.288
X129.565Y-98.288
X129.692Y-64.018
X129.692Y-97.018
X129.946Y-67.828
X129.946Y-100.828
X130.2Y-55.89
X130.2Y-58.43
X130.2Y-88.89
X130.2Y-91.43
X130.22Y-51.65
X130.22Y-84.65
X130.32Y-45.95
X130.32Y-78.95
X130.72Y-48.35
X130.72Y-81.35
X130.817Y-43.818
X130.817Y-76.818
X130.835Y-71.13
X130.835Y-104.13
X131.47Y-59.7
X131.47Y-92.7
X132.232Y-63.764
X132.232Y-96.764
X132.72Y-46.95
X132.72Y-79.95
X132.74Y-55.89
X132.74Y-58.43
X132.74Y-88.89
X132.74Y-91.43
X133.248Y-64.78
X133.248Y-66.304
X133.248Y-67.828
X133.248Y-97.78
X133.248Y-99.304
X133.248Y-100.828
X133.82Y-43.65
X133.82Y-76.65
X134.01Y-41.92
X134.01Y-74.92
X134.62Y-47.65
X134.62Y-80.65
X134.772Y-67.574
X134.772Y-100.574
X135.12Y-45.15
X135.12Y-78.15
X135.28Y-55.89
X135.28Y-58.43
X135.28Y-59.7
X135.28Y-88.89
X135.28Y-91.43
X135.28Y-92.7
X136.55Y-67.32
X136.55Y-100.32
X136.72Y-47.15
X136.72Y-80.15
X137.185Y-43.825
X137.185Y-71.13
X137.185Y-76.825
X137.185Y-104.13
X137.312Y-69.352
X137.312Y-102.352
X137.82Y-55.89
X137.82Y-58.43
X137.82Y-60.208
X137.82Y-88.89
X137.82Y-91.43
X137.82Y-93.208
X138.62Y-47.15
X138.62Y-80.15
X139.09Y-67.32
X139.09Y-100.32
X139.92Y-43.95
X139.92Y-76.95
X140.36Y-41.92
X140.36Y-55.89
X140.36Y-58.43
X140.36Y-61.224
X140.36Y-63.51
X140.36Y-66.05
X140.36Y-69.86
X140.36Y-74.92
X140.36Y-88.89
X140.36Y-91.43
X140.36Y-94.224
X140.36Y-96.51
X140.36Y-99.05
X140.36Y-102.86
X140.52Y-47.15
X140.52Y-80.15
X140.72Y-53.45
X140.72Y-86.45
X144.658Y-45.857
X144.658Y-78.857
X145.42Y-41.92
X145.42Y-53.35
X145.42Y-57.16
X145.42Y-60.97
X145.42Y-64.78
X145.42Y-68.59
X145.42Y-71.13
X145.42Y-74.92
X145.42Y-86.35
X145.42Y-90.16
X145.42Y-93.97
X145.42Y-97.78
X145.42Y-101.59
X145.42Y-104.13
X147.579Y-55.001
X147.579Y-88.001
X147.96Y-44.46
X147.96Y-50.175
X147.96Y-77.46
X147.96Y-83.175
X148.595Y-47.0
X148.595Y-80.0
X149.225Y-68.582
X149.225Y-101.582
X149.23Y-57.16
X149.23Y-60.97
X149.23Y-64.78
X149.23Y-71.13
X149.23Y-90.16
X149.23Y-93.97
X149.23Y-97.78
X149.23Y-104.13
X149.865Y-41.92
X149.865Y-74.92
X151.135Y-53.35
X151.135Y-86.35
X153.027Y-57.143
X153.027Y-60.945
X153.027Y-90.143
X153.027Y-93.945
X153.04Y-41.92
X153.04Y-45.095
X153.04Y-64.78
X153.04Y-68.59
X153.04Y-71.13
X153.04Y-74.92
X153.04Y-78.095
X153.04Y-97.78
X153.04Y-101.59
X153.04Y-104.13
X154.183Y-53.35
X154.183Y-86.35
X155.562Y-71.117
X155.562Y-104.117
X155.58Y-57.16
X155.58Y-60.97
X155.58Y-64.78
X155.58Y-68.59
X155.58Y-90.16
X155.58Y-93.97
X155.58Y-97.78
X155.58Y-101.59
X156.596Y-58.43
X156.596Y-91.43
X156.85Y-41.92
X156.85Y-45.73
X156.85Y-52.08
X156.85Y-59.954
X156.85Y-60.97
X156.85Y-74.92
X156.85Y-78.73
X156.85Y-85.08
X156.85Y-92.954
X156.85Y-93.97
X157.358Y-56.906
X157.358Y-89.906
X157.485Y-62.24
X157.485Y-63.51
X157.485Y-65.415
X157.485Y-67.32
X157.485Y-69.225
X157.485Y-71.13
X157.485Y-95.24
X157.485Y-96.51
X157.485Y-98.415
X157.485Y-100.32
X157.485Y-102.225
X157.485Y-104.13
X157.612Y-48.778
X157.612Y-81.778
X158.755Y-43.825
X158.755Y-76.825
X159.009Y-53.223
X159.009Y-86.223
X159.02Y-56.25
X159.02Y-89.25
X160.025Y-70.876
X160.025Y-103.876
X160.406Y-62.24
X160.406Y-63.51
X160.406Y-64.78
X160.406Y-66.304
X160.406Y-95.24
X160.406Y-96.51
X160.406Y-97.78
X160.406Y-99.304
X160.66Y-41.92
X160.66Y-45.73
X160.66Y-56.906
X160.66Y-60.97
X160.66Y-74.92
X160.66Y-78.73
X160.66Y-89.906
X160.66Y-93.97
X161.295Y-59.7
X161.295Y-71.13
X161.295Y-92.7
X161.295Y-104.13
X161.422Y-58.43
X161.422Y-91.43
X162.565Y-65.288
X162.565Y-98.288
X162.692Y-64.018
X162.692Y-97.018
X162.946Y-67.828
X162.946Y-100.828
X163.2Y-55.89
X163.2Y-58.43
X163.2Y-88.89
X163.2Y-91.43
X163.22Y-51.65
X163.22Y-84.65
X163.32Y-45.95
X163.32Y-78.95
X163.72Y-48.35
X163.72Y-81.35
X163.817Y-43.818
X163.817Y-76.818
X163.835Y-71.13
X163.835Y-104.13
X164.47Y-59.7
X164.47Y-92.7
X165.232Y-63.764
X165.232Y-96.764
X165.72Y-46.95
X165.72Y-79.95
X165.74Y-55.89
X165.74Y-58.43
X165.74Y-88.89
X165.74Y-91.43
X166.248Y-64.78
X166.248Y-66.304
X166.248Y-67.828
X166.248Y-97.78
X166.248Y-99.304
X166.248Y-100.828
X166.82Y-43.65
X166.82Y-76.65
X167.01Y-41.92
X167.01Y-74.92
X167.62Y-47.65
X167.62Y-80.65
X167.772Y-67.574
X167.772Y-100.574
X168.12Y-45.15
X168.12Y-78.15
X168.28Y-55.89
X168.28Y-58.43
X168.28Y-59.7
X168.28Y-88.89
X168.28Y-91.43
X168.28Y-92.7
X169.55Y-67.32
X169.55Y-100.32
X169.72Y-47.15
X169.72Y-80.15
X170.185Y-43.825
X170.185Y-71.13
X170.185Y-76.825
X170.185Y-104.13
X170.312Y-69.352
X170.312Y-102.352
X170.82Y-55.89
X170.82Y-58.43
X170.82Y-60.208
X170.82Y-88.89
X170.82Y-91.43
X170.82Y-93.208
X171.62Y-47.15
X171.62Y-80.15
X172.09Y-67.32
X172.09Y-100.32
X172.92Y-43.95
X172.92Y-76.95
X173.36Y-41.92
X173.36Y-55.89
X173.36Y-58.43
X173.36Y-61.224
X173.36Y-63.51
X173.36Y-66.05
X173.36Y-69.86
X173.36Y-74.92
X173.36Y-88.89
X173.36Y-91.43
X173.36Y-94.224
X173.36Y-96.51
X173.36Y-99.05
X173.36Y-102.86
X173.52Y-47.15
X173.52Y-80.15
X173.72Y-53.45
X173.72Y-86.45
T2
X126.02Y-58.75
X126.02Y-91.75
X159.02Y-58.75
X159.02Y-91.75
T3
X115.0Y-35.0
X115.0Y-115.0
X170.0Y-35.0
X170.0Y-115.0
T0
M30
