%TF.GenerationSoftware,KiCad,Pcbnew,(6.0.4)*%
%TF.CreationDate,2022-09-20T18:54:46+09:00*%
%TF.ProjectId,mainboard_p_rev4,6d61696e-626f-4617-9264-5f705f726576,rev?*%
%TF.SameCoordinates,Original*%
%TF.FileFunction,Legend,Bot*%
%TF.FilePolarity,Positive*%
%FSLAX46Y46*%
G04 Gerber Fmt 4.6, Leading zero omitted, Abs format (unit mm)*
G04 Created by KiCad (PCBNEW (6.0.4)) date 2022-09-20 18:54:46*
%MOMM*%
%LPD*%
G01*
G04 APERTURE LIST*
%ADD10C,0.150000*%
%ADD11C,0.254000*%
%ADD12C,0.120000*%
%ADD13C,0.200000*%
G04 APERTURE END LIST*
D10*
X178567695Y-143752371D02*
X178424838Y-143799990D01*
X178377219Y-143847609D01*
X178329600Y-143942847D01*
X178329600Y-144085704D01*
X178377219Y-144180942D01*
X178424838Y-144228561D01*
X178520076Y-144276180D01*
X178901028Y-144276180D01*
X178901028Y-143276180D01*
X178567695Y-143276180D01*
X178472457Y-143323800D01*
X178424838Y-143371419D01*
X178377219Y-143466657D01*
X178377219Y-143561895D01*
X178424838Y-143657133D01*
X178472457Y-143704752D01*
X178567695Y-143752371D01*
X178901028Y-143752371D01*
X177948647Y-143990466D02*
X177472457Y-143990466D01*
X178043885Y-144276180D02*
X177710552Y-143276180D01*
X177377219Y-144276180D01*
X177186742Y-143276180D02*
X176615314Y-143276180D01*
X176901028Y-144276180D02*
X176901028Y-143276180D01*
X175615314Y-143276180D02*
X174948647Y-143276180D01*
X175377219Y-144276180D01*
X174567695Y-144180942D02*
X174520076Y-144228561D01*
X174567695Y-144276180D01*
X174615314Y-144228561D01*
X174567695Y-144180942D01*
X174567695Y-144276180D01*
X173662933Y-143609514D02*
X173662933Y-144276180D01*
X173901028Y-143228561D02*
X174139123Y-143942847D01*
X173520076Y-143942847D01*
X173281980Y-143276180D02*
X172948647Y-144276180D01*
X172615314Y-143276180D01*
X134567695Y-143752371D02*
X134424838Y-143799990D01*
X134377219Y-143847609D01*
X134329600Y-143942847D01*
X134329600Y-144085704D01*
X134377219Y-144180942D01*
X134424838Y-144228561D01*
X134520076Y-144276180D01*
X134901028Y-144276180D01*
X134901028Y-143276180D01*
X134567695Y-143276180D01*
X134472457Y-143323800D01*
X134424838Y-143371419D01*
X134377219Y-143466657D01*
X134377219Y-143561895D01*
X134424838Y-143657133D01*
X134472457Y-143704752D01*
X134567695Y-143752371D01*
X134901028Y-143752371D01*
X133948647Y-143990466D02*
X133472457Y-143990466D01*
X134043885Y-144276180D02*
X133710552Y-143276180D01*
X133377219Y-144276180D01*
X133186742Y-143276180D02*
X132615314Y-143276180D01*
X132901028Y-144276180D02*
X132901028Y-143276180D01*
X131615314Y-143276180D02*
X130948647Y-143276180D01*
X131377219Y-144276180D01*
X130567695Y-144180942D02*
X130520076Y-144228561D01*
X130567695Y-144276180D01*
X130615314Y-144228561D01*
X130567695Y-144180942D01*
X130567695Y-144276180D01*
X129662933Y-143609514D02*
X129662933Y-144276180D01*
X129901028Y-143228561D02*
X130139123Y-143942847D01*
X129520076Y-143942847D01*
X129281980Y-143276180D02*
X128948647Y-144276180D01*
X128615314Y-143276180D01*
X178567695Y-105752371D02*
X178424838Y-105799990D01*
X178377219Y-105847609D01*
X178329600Y-105942847D01*
X178329600Y-106085704D01*
X178377219Y-106180942D01*
X178424838Y-106228561D01*
X178520076Y-106276180D01*
X178901028Y-106276180D01*
X178901028Y-105276180D01*
X178567695Y-105276180D01*
X178472457Y-105323800D01*
X178424838Y-105371419D01*
X178377219Y-105466657D01*
X178377219Y-105561895D01*
X178424838Y-105657133D01*
X178472457Y-105704752D01*
X178567695Y-105752371D01*
X178901028Y-105752371D01*
X177948647Y-105990466D02*
X177472457Y-105990466D01*
X178043885Y-106276180D02*
X177710552Y-105276180D01*
X177377219Y-106276180D01*
X177186742Y-105276180D02*
X176615314Y-105276180D01*
X176901028Y-106276180D02*
X176901028Y-105276180D01*
X175615314Y-105276180D02*
X174948647Y-105276180D01*
X175377219Y-106276180D01*
X174567695Y-106180942D02*
X174520076Y-106228561D01*
X174567695Y-106276180D01*
X174615314Y-106228561D01*
X174567695Y-106180942D01*
X174567695Y-106276180D01*
X173662933Y-105609514D02*
X173662933Y-106276180D01*
X173901028Y-105228561D02*
X174139123Y-105942847D01*
X173520076Y-105942847D01*
X173281980Y-105276180D02*
X172948647Y-106276180D01*
X172615314Y-105276180D01*
X134567695Y-105752371D02*
X134424838Y-105799990D01*
X134377219Y-105847609D01*
X134329600Y-105942847D01*
X134329600Y-106085704D01*
X134377219Y-106180942D01*
X134424838Y-106228561D01*
X134520076Y-106276180D01*
X134901028Y-106276180D01*
X134901028Y-105276180D01*
X134567695Y-105276180D01*
X134472457Y-105323800D01*
X134424838Y-105371419D01*
X134377219Y-105466657D01*
X134377219Y-105561895D01*
X134424838Y-105657133D01*
X134472457Y-105704752D01*
X134567695Y-105752371D01*
X134901028Y-105752371D01*
X133948647Y-105990466D02*
X133472457Y-105990466D01*
X134043885Y-106276180D02*
X133710552Y-105276180D01*
X133377219Y-106276180D01*
X133186742Y-105276180D02*
X132615314Y-105276180D01*
X132901028Y-106276180D02*
X132901028Y-105276180D01*
X131615314Y-105276180D02*
X130948647Y-105276180D01*
X131377219Y-106276180D01*
X130567695Y-106180942D02*
X130520076Y-106228561D01*
X130567695Y-106276180D01*
X130615314Y-106228561D01*
X130567695Y-106180942D01*
X130567695Y-106276180D01*
X129662933Y-105609514D02*
X129662933Y-106276180D01*
X129901028Y-105228561D02*
X130139123Y-105942847D01*
X129520076Y-105942847D01*
X129281980Y-105276180D02*
X128948647Y-106276180D01*
X128615314Y-105276180D01*
%TO.C,R90*%
X174181380Y-116841142D02*
X173705190Y-116507809D01*
X174181380Y-116269714D02*
X173181380Y-116269714D01*
X173181380Y-116650666D01*
X173229000Y-116745904D01*
X173276619Y-116793523D01*
X173371857Y-116841142D01*
X173514714Y-116841142D01*
X173609952Y-116793523D01*
X173657571Y-116745904D01*
X173705190Y-116650666D01*
X173705190Y-116269714D01*
X174181380Y-117317333D02*
X174181380Y-117507809D01*
X174133761Y-117603047D01*
X174086142Y-117650666D01*
X173943285Y-117745904D01*
X173752809Y-117793523D01*
X173371857Y-117793523D01*
X173276619Y-117745904D01*
X173229000Y-117698285D01*
X173181380Y-117603047D01*
X173181380Y-117412571D01*
X173229000Y-117317333D01*
X173276619Y-117269714D01*
X173371857Y-117222095D01*
X173609952Y-117222095D01*
X173705190Y-117269714D01*
X173752809Y-117317333D01*
X173800428Y-117412571D01*
X173800428Y-117603047D01*
X173752809Y-117698285D01*
X173705190Y-117745904D01*
X173609952Y-117793523D01*
X173181380Y-118412571D02*
X173181380Y-118507809D01*
X173229000Y-118603047D01*
X173276619Y-118650666D01*
X173371857Y-118698285D01*
X173562333Y-118745904D01*
X173800428Y-118745904D01*
X173990904Y-118698285D01*
X174086142Y-118650666D01*
X174133761Y-118603047D01*
X174181380Y-118507809D01*
X174181380Y-118412571D01*
X174133761Y-118317333D01*
X174086142Y-118269714D01*
X173990904Y-118222095D01*
X173800428Y-118174476D01*
X173562333Y-118174476D01*
X173371857Y-118222095D01*
X173276619Y-118269714D01*
X173229000Y-118317333D01*
X173181380Y-118412571D01*
%TO.C,M7*%
X197798780Y-113804276D02*
X196798780Y-113804276D01*
X197513066Y-114137609D01*
X196798780Y-114470942D01*
X197798780Y-114470942D01*
X196798780Y-114851895D02*
X196798780Y-115518561D01*
X197798780Y-115089990D01*
%TO.C,C109*%
X175450047Y-135803142D02*
X175497666Y-135850761D01*
X175640523Y-135898380D01*
X175735761Y-135898380D01*
X175878619Y-135850761D01*
X175973857Y-135755523D01*
X176021476Y-135660285D01*
X176069095Y-135469809D01*
X176069095Y-135326952D01*
X176021476Y-135136476D01*
X175973857Y-135041238D01*
X175878619Y-134946000D01*
X175735761Y-134898380D01*
X175640523Y-134898380D01*
X175497666Y-134946000D01*
X175450047Y-134993619D01*
X174497666Y-135898380D02*
X175069095Y-135898380D01*
X174783380Y-135898380D02*
X174783380Y-134898380D01*
X174878619Y-135041238D01*
X174973857Y-135136476D01*
X175069095Y-135184095D01*
X173878619Y-134898380D02*
X173783380Y-134898380D01*
X173688142Y-134946000D01*
X173640523Y-134993619D01*
X173592904Y-135088857D01*
X173545285Y-135279333D01*
X173545285Y-135517428D01*
X173592904Y-135707904D01*
X173640523Y-135803142D01*
X173688142Y-135850761D01*
X173783380Y-135898380D01*
X173878619Y-135898380D01*
X173973857Y-135850761D01*
X174021476Y-135803142D01*
X174069095Y-135707904D01*
X174116714Y-135517428D01*
X174116714Y-135279333D01*
X174069095Y-135088857D01*
X174021476Y-134993619D01*
X173973857Y-134946000D01*
X173878619Y-134898380D01*
X173069095Y-135898380D02*
X172878619Y-135898380D01*
X172783380Y-135850761D01*
X172735761Y-135803142D01*
X172640523Y-135660285D01*
X172592904Y-135469809D01*
X172592904Y-135088857D01*
X172640523Y-134993619D01*
X172688142Y-134946000D01*
X172783380Y-134898380D01*
X172973857Y-134898380D01*
X173069095Y-134946000D01*
X173116714Y-134993619D01*
X173164333Y-135088857D01*
X173164333Y-135326952D01*
X173116714Y-135422190D01*
X173069095Y-135469809D01*
X172973857Y-135517428D01*
X172783380Y-135517428D01*
X172688142Y-135469809D01*
X172640523Y-135422190D01*
X172592904Y-135326952D01*
%TO.C,C92*%
X195980942Y-121019142D02*
X196028561Y-120971523D01*
X196076180Y-120828666D01*
X196076180Y-120733428D01*
X196028561Y-120590571D01*
X195933323Y-120495333D01*
X195838085Y-120447714D01*
X195647609Y-120400095D01*
X195504752Y-120400095D01*
X195314276Y-120447714D01*
X195219038Y-120495333D01*
X195123800Y-120590571D01*
X195076180Y-120733428D01*
X195076180Y-120828666D01*
X195123800Y-120971523D01*
X195171419Y-121019142D01*
X196076180Y-121495333D02*
X196076180Y-121685809D01*
X196028561Y-121781047D01*
X195980942Y-121828666D01*
X195838085Y-121923904D01*
X195647609Y-121971523D01*
X195266657Y-121971523D01*
X195171419Y-121923904D01*
X195123800Y-121876285D01*
X195076180Y-121781047D01*
X195076180Y-121590571D01*
X195123800Y-121495333D01*
X195171419Y-121447714D01*
X195266657Y-121400095D01*
X195504752Y-121400095D01*
X195599990Y-121447714D01*
X195647609Y-121495333D01*
X195695228Y-121590571D01*
X195695228Y-121781047D01*
X195647609Y-121876285D01*
X195599990Y-121923904D01*
X195504752Y-121971523D01*
X195171419Y-122352476D02*
X195123800Y-122400095D01*
X195076180Y-122495333D01*
X195076180Y-122733428D01*
X195123800Y-122828666D01*
X195171419Y-122876285D01*
X195266657Y-122923904D01*
X195361895Y-122923904D01*
X195504752Y-122876285D01*
X196076180Y-122304857D01*
X196076180Y-122923904D01*
%TO.C,C93*%
X192626857Y-122049942D02*
X192674476Y-122097561D01*
X192817333Y-122145180D01*
X192912571Y-122145180D01*
X193055428Y-122097561D01*
X193150666Y-122002323D01*
X193198285Y-121907085D01*
X193245904Y-121716609D01*
X193245904Y-121573752D01*
X193198285Y-121383276D01*
X193150666Y-121288038D01*
X193055428Y-121192800D01*
X192912571Y-121145180D01*
X192817333Y-121145180D01*
X192674476Y-121192800D01*
X192626857Y-121240419D01*
X192150666Y-122145180D02*
X191960190Y-122145180D01*
X191864952Y-122097561D01*
X191817333Y-122049942D01*
X191722095Y-121907085D01*
X191674476Y-121716609D01*
X191674476Y-121335657D01*
X191722095Y-121240419D01*
X191769714Y-121192800D01*
X191864952Y-121145180D01*
X192055428Y-121145180D01*
X192150666Y-121192800D01*
X192198285Y-121240419D01*
X192245904Y-121335657D01*
X192245904Y-121573752D01*
X192198285Y-121668990D01*
X192150666Y-121716609D01*
X192055428Y-121764228D01*
X191864952Y-121764228D01*
X191769714Y-121716609D01*
X191722095Y-121668990D01*
X191674476Y-121573752D01*
X191341142Y-121145180D02*
X190722095Y-121145180D01*
X191055428Y-121526133D01*
X190912571Y-121526133D01*
X190817333Y-121573752D01*
X190769714Y-121621371D01*
X190722095Y-121716609D01*
X190722095Y-121954704D01*
X190769714Y-122049942D01*
X190817333Y-122097561D01*
X190912571Y-122145180D01*
X191198285Y-122145180D01*
X191293523Y-122097561D01*
X191341142Y-122049942D01*
%TO.C,M8*%
X170681980Y-113601076D02*
X169681980Y-113601076D01*
X170396266Y-113934409D01*
X169681980Y-114267742D01*
X170681980Y-114267742D01*
X170110552Y-114886790D02*
X170062933Y-114791552D01*
X170015314Y-114743933D01*
X169920076Y-114696314D01*
X169872457Y-114696314D01*
X169777219Y-114743933D01*
X169729600Y-114791552D01*
X169681980Y-114886790D01*
X169681980Y-115077266D01*
X169729600Y-115172504D01*
X169777219Y-115220123D01*
X169872457Y-115267742D01*
X169920076Y-115267742D01*
X170015314Y-115220123D01*
X170062933Y-115172504D01*
X170110552Y-115077266D01*
X170110552Y-114886790D01*
X170158171Y-114791552D01*
X170205790Y-114743933D01*
X170301028Y-114696314D01*
X170491504Y-114696314D01*
X170586742Y-114743933D01*
X170634361Y-114791552D01*
X170681980Y-114886790D01*
X170681980Y-115077266D01*
X170634361Y-115172504D01*
X170586742Y-115220123D01*
X170491504Y-115267742D01*
X170301028Y-115267742D01*
X170205790Y-115220123D01*
X170158171Y-115172504D01*
X170110552Y-115077266D01*
%TO.C,R89*%
X200521180Y-117298342D02*
X200044990Y-116965009D01*
X200521180Y-116726914D02*
X199521180Y-116726914D01*
X199521180Y-117107866D01*
X199568800Y-117203104D01*
X199616419Y-117250723D01*
X199711657Y-117298342D01*
X199854514Y-117298342D01*
X199949752Y-117250723D01*
X199997371Y-117203104D01*
X200044990Y-117107866D01*
X200044990Y-116726914D01*
X199949752Y-117869771D02*
X199902133Y-117774533D01*
X199854514Y-117726914D01*
X199759276Y-117679295D01*
X199711657Y-117679295D01*
X199616419Y-117726914D01*
X199568800Y-117774533D01*
X199521180Y-117869771D01*
X199521180Y-118060247D01*
X199568800Y-118155485D01*
X199616419Y-118203104D01*
X199711657Y-118250723D01*
X199759276Y-118250723D01*
X199854514Y-118203104D01*
X199902133Y-118155485D01*
X199949752Y-118060247D01*
X199949752Y-117869771D01*
X199997371Y-117774533D01*
X200044990Y-117726914D01*
X200140228Y-117679295D01*
X200330704Y-117679295D01*
X200425942Y-117726914D01*
X200473561Y-117774533D01*
X200521180Y-117869771D01*
X200521180Y-118060247D01*
X200473561Y-118155485D01*
X200425942Y-118203104D01*
X200330704Y-118250723D01*
X200140228Y-118250723D01*
X200044990Y-118203104D01*
X199997371Y-118155485D01*
X199949752Y-118060247D01*
X200521180Y-118726914D02*
X200521180Y-118917390D01*
X200473561Y-119012628D01*
X200425942Y-119060247D01*
X200283085Y-119155485D01*
X200092609Y-119203104D01*
X199711657Y-119203104D01*
X199616419Y-119155485D01*
X199568800Y-119107866D01*
X199521180Y-119012628D01*
X199521180Y-118822152D01*
X199568800Y-118726914D01*
X199616419Y-118679295D01*
X199711657Y-118631676D01*
X199949752Y-118631676D01*
X200044990Y-118679295D01*
X200092609Y-118726914D01*
X200140228Y-118822152D01*
X200140228Y-119012628D01*
X200092609Y-119107866D01*
X200044990Y-119155485D01*
X199949752Y-119203104D01*
%TO.C,R81*%
X181958857Y-130110580D02*
X182292190Y-129634390D01*
X182530285Y-130110580D02*
X182530285Y-129110580D01*
X182149333Y-129110580D01*
X182054095Y-129158200D01*
X182006476Y-129205819D01*
X181958857Y-129301057D01*
X181958857Y-129443914D01*
X182006476Y-129539152D01*
X182054095Y-129586771D01*
X182149333Y-129634390D01*
X182530285Y-129634390D01*
X181387428Y-129539152D02*
X181482666Y-129491533D01*
X181530285Y-129443914D01*
X181577904Y-129348676D01*
X181577904Y-129301057D01*
X181530285Y-129205819D01*
X181482666Y-129158200D01*
X181387428Y-129110580D01*
X181196952Y-129110580D01*
X181101714Y-129158200D01*
X181054095Y-129205819D01*
X181006476Y-129301057D01*
X181006476Y-129348676D01*
X181054095Y-129443914D01*
X181101714Y-129491533D01*
X181196952Y-129539152D01*
X181387428Y-129539152D01*
X181482666Y-129586771D01*
X181530285Y-129634390D01*
X181577904Y-129729628D01*
X181577904Y-129920104D01*
X181530285Y-130015342D01*
X181482666Y-130062961D01*
X181387428Y-130110580D01*
X181196952Y-130110580D01*
X181101714Y-130062961D01*
X181054095Y-130015342D01*
X181006476Y-129920104D01*
X181006476Y-129729628D01*
X181054095Y-129634390D01*
X181101714Y-129586771D01*
X181196952Y-129539152D01*
X180054095Y-130110580D02*
X180625523Y-130110580D01*
X180339809Y-130110580D02*
X180339809Y-129110580D01*
X180435047Y-129253438D01*
X180530285Y-129348676D01*
X180625523Y-129396295D01*
%TO.C,C113*%
X202149742Y-130231552D02*
X202197361Y-130183933D01*
X202244980Y-130041076D01*
X202244980Y-129945838D01*
X202197361Y-129802980D01*
X202102123Y-129707742D01*
X202006885Y-129660123D01*
X201816409Y-129612504D01*
X201673552Y-129612504D01*
X201483076Y-129660123D01*
X201387838Y-129707742D01*
X201292600Y-129802980D01*
X201244980Y-129945838D01*
X201244980Y-130041076D01*
X201292600Y-130183933D01*
X201340219Y-130231552D01*
X202244980Y-131183933D02*
X202244980Y-130612504D01*
X202244980Y-130898219D02*
X201244980Y-130898219D01*
X201387838Y-130802980D01*
X201483076Y-130707742D01*
X201530695Y-130612504D01*
X202244980Y-132136314D02*
X202244980Y-131564885D01*
X202244980Y-131850600D02*
X201244980Y-131850600D01*
X201387838Y-131755361D01*
X201483076Y-131660123D01*
X201530695Y-131564885D01*
X201244980Y-132469647D02*
X201244980Y-133088695D01*
X201625933Y-132755361D01*
X201625933Y-132898219D01*
X201673552Y-132993457D01*
X201721171Y-133041076D01*
X201816409Y-133088695D01*
X202054504Y-133088695D01*
X202149742Y-133041076D01*
X202197361Y-132993457D01*
X202244980Y-132898219D01*
X202244980Y-132612504D01*
X202197361Y-132517266D01*
X202149742Y-132469647D01*
%TO.C,J32*%
X205976123Y-121521780D02*
X205976123Y-122236066D01*
X206023742Y-122378923D01*
X206118980Y-122474161D01*
X206261838Y-122521780D01*
X206357076Y-122521780D01*
X205595171Y-121521780D02*
X204976123Y-121521780D01*
X205309457Y-121902733D01*
X205166600Y-121902733D01*
X205071361Y-121950352D01*
X205023742Y-121997971D01*
X204976123Y-122093209D01*
X204976123Y-122331304D01*
X205023742Y-122426542D01*
X205071361Y-122474161D01*
X205166600Y-122521780D01*
X205452314Y-122521780D01*
X205547552Y-122474161D01*
X205595171Y-122426542D01*
X204595171Y-121617019D02*
X204547552Y-121569400D01*
X204452314Y-121521780D01*
X204214219Y-121521780D01*
X204118980Y-121569400D01*
X204071361Y-121617019D01*
X204023742Y-121712257D01*
X204023742Y-121807495D01*
X204071361Y-121950352D01*
X204642790Y-122521780D01*
X204023742Y-122521780D01*
%TO.C,J28*%
X171762323Y-136012380D02*
X171762323Y-136726666D01*
X171809942Y-136869523D01*
X171905180Y-136964761D01*
X172048038Y-137012380D01*
X172143276Y-137012380D01*
X171333752Y-136107619D02*
X171286133Y-136060000D01*
X171190895Y-136012380D01*
X170952800Y-136012380D01*
X170857561Y-136060000D01*
X170809942Y-136107619D01*
X170762323Y-136202857D01*
X170762323Y-136298095D01*
X170809942Y-136440952D01*
X171381371Y-137012380D01*
X170762323Y-137012380D01*
X170190895Y-136440952D02*
X170286133Y-136393333D01*
X170333752Y-136345714D01*
X170381371Y-136250476D01*
X170381371Y-136202857D01*
X170333752Y-136107619D01*
X170286133Y-136060000D01*
X170190895Y-136012380D01*
X170000419Y-136012380D01*
X169905180Y-136060000D01*
X169857561Y-136107619D01*
X169809942Y-136202857D01*
X169809942Y-136250476D01*
X169857561Y-136345714D01*
X169905180Y-136393333D01*
X170000419Y-136440952D01*
X170190895Y-136440952D01*
X170286133Y-136488571D01*
X170333752Y-136536190D01*
X170381371Y-136631428D01*
X170381371Y-136821904D01*
X170333752Y-136917142D01*
X170286133Y-136964761D01*
X170190895Y-137012380D01*
X170000419Y-137012380D01*
X169905180Y-136964761D01*
X169857561Y-136917142D01*
X169809942Y-136821904D01*
X169809942Y-136631428D01*
X169857561Y-136536190D01*
X169905180Y-136488571D01*
X170000419Y-136440952D01*
%TO.C,C108*%
X183751742Y-144431952D02*
X183799361Y-144384333D01*
X183846980Y-144241476D01*
X183846980Y-144146238D01*
X183799361Y-144003380D01*
X183704123Y-143908142D01*
X183608885Y-143860523D01*
X183418409Y-143812904D01*
X183275552Y-143812904D01*
X183085076Y-143860523D01*
X182989838Y-143908142D01*
X182894600Y-144003380D01*
X182846980Y-144146238D01*
X182846980Y-144241476D01*
X182894600Y-144384333D01*
X182942219Y-144431952D01*
X183846980Y-145384333D02*
X183846980Y-144812904D01*
X183846980Y-145098619D02*
X182846980Y-145098619D01*
X182989838Y-145003380D01*
X183085076Y-144908142D01*
X183132695Y-144812904D01*
X182846980Y-146003380D02*
X182846980Y-146098619D01*
X182894600Y-146193857D01*
X182942219Y-146241476D01*
X183037457Y-146289095D01*
X183227933Y-146336714D01*
X183466028Y-146336714D01*
X183656504Y-146289095D01*
X183751742Y-146241476D01*
X183799361Y-146193857D01*
X183846980Y-146098619D01*
X183846980Y-146003380D01*
X183799361Y-145908142D01*
X183751742Y-145860523D01*
X183656504Y-145812904D01*
X183466028Y-145765285D01*
X183227933Y-145765285D01*
X183037457Y-145812904D01*
X182942219Y-145860523D01*
X182894600Y-145908142D01*
X182846980Y-146003380D01*
X183275552Y-146908142D02*
X183227933Y-146812904D01*
X183180314Y-146765285D01*
X183085076Y-146717666D01*
X183037457Y-146717666D01*
X182942219Y-146765285D01*
X182894600Y-146812904D01*
X182846980Y-146908142D01*
X182846980Y-147098619D01*
X182894600Y-147193857D01*
X182942219Y-147241476D01*
X183037457Y-147289095D01*
X183085076Y-147289095D01*
X183180314Y-147241476D01*
X183227933Y-147193857D01*
X183275552Y-147098619D01*
X183275552Y-146908142D01*
X183323171Y-146812904D01*
X183370790Y-146765285D01*
X183466028Y-146717666D01*
X183656504Y-146717666D01*
X183751742Y-146765285D01*
X183799361Y-146812904D01*
X183846980Y-146908142D01*
X183846980Y-147098619D01*
X183799361Y-147193857D01*
X183751742Y-147241476D01*
X183656504Y-147289095D01*
X183466028Y-147289095D01*
X183370790Y-147241476D01*
X183323171Y-147193857D01*
X183275552Y-147098619D01*
%TO.C,C98*%
X202899942Y-141428342D02*
X202947561Y-141380723D01*
X202995180Y-141237866D01*
X202995180Y-141142628D01*
X202947561Y-140999771D01*
X202852323Y-140904533D01*
X202757085Y-140856914D01*
X202566609Y-140809295D01*
X202423752Y-140809295D01*
X202233276Y-140856914D01*
X202138038Y-140904533D01*
X202042800Y-140999771D01*
X201995180Y-141142628D01*
X201995180Y-141237866D01*
X202042800Y-141380723D01*
X202090419Y-141428342D01*
X202995180Y-141904533D02*
X202995180Y-142095009D01*
X202947561Y-142190247D01*
X202899942Y-142237866D01*
X202757085Y-142333104D01*
X202566609Y-142380723D01*
X202185657Y-142380723D01*
X202090419Y-142333104D01*
X202042800Y-142285485D01*
X201995180Y-142190247D01*
X201995180Y-141999771D01*
X202042800Y-141904533D01*
X202090419Y-141856914D01*
X202185657Y-141809295D01*
X202423752Y-141809295D01*
X202518990Y-141856914D01*
X202566609Y-141904533D01*
X202614228Y-141999771D01*
X202614228Y-142190247D01*
X202566609Y-142285485D01*
X202518990Y-142333104D01*
X202423752Y-142380723D01*
X202423752Y-142952152D02*
X202376133Y-142856914D01*
X202328514Y-142809295D01*
X202233276Y-142761676D01*
X202185657Y-142761676D01*
X202090419Y-142809295D01*
X202042800Y-142856914D01*
X201995180Y-142952152D01*
X201995180Y-143142628D01*
X202042800Y-143237866D01*
X202090419Y-143285485D01*
X202185657Y-143333104D01*
X202233276Y-143333104D01*
X202328514Y-143285485D01*
X202376133Y-143237866D01*
X202423752Y-143142628D01*
X202423752Y-142952152D01*
X202471371Y-142856914D01*
X202518990Y-142809295D01*
X202614228Y-142761676D01*
X202804704Y-142761676D01*
X202899942Y-142809295D01*
X202947561Y-142856914D01*
X202995180Y-142952152D01*
X202995180Y-143142628D01*
X202947561Y-143237866D01*
X202899942Y-143285485D01*
X202804704Y-143333104D01*
X202614228Y-143333104D01*
X202518990Y-143285485D01*
X202471371Y-143237866D01*
X202423752Y-143142628D01*
%TO.C,C101*%
X196082542Y-137624752D02*
X196130161Y-137577133D01*
X196177780Y-137434276D01*
X196177780Y-137339038D01*
X196130161Y-137196180D01*
X196034923Y-137100942D01*
X195939685Y-137053323D01*
X195749209Y-137005704D01*
X195606352Y-137005704D01*
X195415876Y-137053323D01*
X195320638Y-137100942D01*
X195225400Y-137196180D01*
X195177780Y-137339038D01*
X195177780Y-137434276D01*
X195225400Y-137577133D01*
X195273019Y-137624752D01*
X196177780Y-138577133D02*
X196177780Y-138005704D01*
X196177780Y-138291419D02*
X195177780Y-138291419D01*
X195320638Y-138196180D01*
X195415876Y-138100942D01*
X195463495Y-138005704D01*
X195177780Y-139196180D02*
X195177780Y-139291419D01*
X195225400Y-139386657D01*
X195273019Y-139434276D01*
X195368257Y-139481895D01*
X195558733Y-139529514D01*
X195796828Y-139529514D01*
X195987304Y-139481895D01*
X196082542Y-139434276D01*
X196130161Y-139386657D01*
X196177780Y-139291419D01*
X196177780Y-139196180D01*
X196130161Y-139100942D01*
X196082542Y-139053323D01*
X195987304Y-139005704D01*
X195796828Y-138958085D01*
X195558733Y-138958085D01*
X195368257Y-139005704D01*
X195273019Y-139053323D01*
X195225400Y-139100942D01*
X195177780Y-139196180D01*
X196177780Y-140481895D02*
X196177780Y-139910466D01*
X196177780Y-140196180D02*
X195177780Y-140196180D01*
X195320638Y-140100942D01*
X195415876Y-140005704D01*
X195463495Y-139910466D01*
%TO.C,C95*%
X201514742Y-117857142D02*
X201562361Y-117809523D01*
X201609980Y-117666666D01*
X201609980Y-117571428D01*
X201562361Y-117428571D01*
X201467123Y-117333333D01*
X201371885Y-117285714D01*
X201181409Y-117238095D01*
X201038552Y-117238095D01*
X200848076Y-117285714D01*
X200752838Y-117333333D01*
X200657600Y-117428571D01*
X200609980Y-117571428D01*
X200609980Y-117666666D01*
X200657600Y-117809523D01*
X200705219Y-117857142D01*
X201609980Y-118333333D02*
X201609980Y-118523809D01*
X201562361Y-118619047D01*
X201514742Y-118666666D01*
X201371885Y-118761904D01*
X201181409Y-118809523D01*
X200800457Y-118809523D01*
X200705219Y-118761904D01*
X200657600Y-118714285D01*
X200609980Y-118619047D01*
X200609980Y-118428571D01*
X200657600Y-118333333D01*
X200705219Y-118285714D01*
X200800457Y-118238095D01*
X201038552Y-118238095D01*
X201133790Y-118285714D01*
X201181409Y-118333333D01*
X201229028Y-118428571D01*
X201229028Y-118619047D01*
X201181409Y-118714285D01*
X201133790Y-118761904D01*
X201038552Y-118809523D01*
X200609980Y-119714285D02*
X200609980Y-119238095D01*
X201086171Y-119190476D01*
X201038552Y-119238095D01*
X200990933Y-119333333D01*
X200990933Y-119571428D01*
X201038552Y-119666666D01*
X201086171Y-119714285D01*
X201181409Y-119761904D01*
X201419504Y-119761904D01*
X201514742Y-119714285D01*
X201562361Y-119666666D01*
X201609980Y-119571428D01*
X201609980Y-119333333D01*
X201562361Y-119238095D01*
X201514742Y-119190476D01*
D11*
%TO.C,IC14*%
X181153923Y-132352676D02*
X179883923Y-132352676D01*
X181032971Y-133683152D02*
X181093447Y-133622676D01*
X181153923Y-133441247D01*
X181153923Y-133320295D01*
X181093447Y-133138866D01*
X180972495Y-133017914D01*
X180851542Y-132957438D01*
X180609638Y-132896961D01*
X180428209Y-132896961D01*
X180186304Y-132957438D01*
X180065352Y-133017914D01*
X179944400Y-133138866D01*
X179883923Y-133320295D01*
X179883923Y-133441247D01*
X179944400Y-133622676D01*
X180004876Y-133683152D01*
X181153923Y-134892676D02*
X181153923Y-134166961D01*
X181153923Y-134529819D02*
X179883923Y-134529819D01*
X180065352Y-134408866D01*
X180186304Y-134287914D01*
X180246780Y-134166961D01*
X180307257Y-135981247D02*
X181153923Y-135981247D01*
X179823447Y-135678866D02*
X180730590Y-135376485D01*
X180730590Y-136162676D01*
D10*
%TO.C,R87*%
X202019780Y-117298342D02*
X201543590Y-116965009D01*
X202019780Y-116726914D02*
X201019780Y-116726914D01*
X201019780Y-117107866D01*
X201067400Y-117203104D01*
X201115019Y-117250723D01*
X201210257Y-117298342D01*
X201353114Y-117298342D01*
X201448352Y-117250723D01*
X201495971Y-117203104D01*
X201543590Y-117107866D01*
X201543590Y-116726914D01*
X201448352Y-117869771D02*
X201400733Y-117774533D01*
X201353114Y-117726914D01*
X201257876Y-117679295D01*
X201210257Y-117679295D01*
X201115019Y-117726914D01*
X201067400Y-117774533D01*
X201019780Y-117869771D01*
X201019780Y-118060247D01*
X201067400Y-118155485D01*
X201115019Y-118203104D01*
X201210257Y-118250723D01*
X201257876Y-118250723D01*
X201353114Y-118203104D01*
X201400733Y-118155485D01*
X201448352Y-118060247D01*
X201448352Y-117869771D01*
X201495971Y-117774533D01*
X201543590Y-117726914D01*
X201638828Y-117679295D01*
X201829304Y-117679295D01*
X201924542Y-117726914D01*
X201972161Y-117774533D01*
X202019780Y-117869771D01*
X202019780Y-118060247D01*
X201972161Y-118155485D01*
X201924542Y-118203104D01*
X201829304Y-118250723D01*
X201638828Y-118250723D01*
X201543590Y-118203104D01*
X201495971Y-118155485D01*
X201448352Y-118060247D01*
X201019780Y-118584057D02*
X201019780Y-119250723D01*
X202019780Y-118822152D01*
%TO.C,J25*%
X170309523Y-138452380D02*
X170309523Y-139166666D01*
X170357142Y-139309523D01*
X170452380Y-139404761D01*
X170595238Y-139452380D01*
X170690476Y-139452380D01*
X169880952Y-138547619D02*
X169833333Y-138500000D01*
X169738095Y-138452380D01*
X169500000Y-138452380D01*
X169404761Y-138500000D01*
X169357142Y-138547619D01*
X169309523Y-138642857D01*
X169309523Y-138738095D01*
X169357142Y-138880952D01*
X169928571Y-139452380D01*
X169309523Y-139452380D01*
X168404761Y-138452380D02*
X168880952Y-138452380D01*
X168928571Y-138928571D01*
X168880952Y-138880952D01*
X168785714Y-138833333D01*
X168547619Y-138833333D01*
X168452380Y-138880952D01*
X168404761Y-138928571D01*
X168357142Y-139023809D01*
X168357142Y-139261904D01*
X168404761Y-139357142D01*
X168452380Y-139404761D01*
X168547619Y-139452380D01*
X168785714Y-139452380D01*
X168880952Y-139404761D01*
X168928571Y-139357142D01*
%TO.C,J27*%
X185554523Y-147682380D02*
X185554523Y-148396666D01*
X185602142Y-148539523D01*
X185697380Y-148634761D01*
X185840238Y-148682380D01*
X185935476Y-148682380D01*
X185125952Y-147777619D02*
X185078333Y-147730000D01*
X184983095Y-147682380D01*
X184745000Y-147682380D01*
X184649761Y-147730000D01*
X184602142Y-147777619D01*
X184554523Y-147872857D01*
X184554523Y-147968095D01*
X184602142Y-148110952D01*
X185173571Y-148682380D01*
X184554523Y-148682380D01*
X184221190Y-147682380D02*
X183554523Y-147682380D01*
X183983095Y-148682380D01*
X186199000Y-147760000D02*
X185665666Y-147760000D01*
X185932333Y-148026666D02*
X185932333Y-147493333D01*
X185332333Y-148026666D02*
X185332333Y-147326666D01*
X184932333Y-148026666D01*
X184932333Y-147326666D01*
X184599000Y-148026666D02*
X184599000Y-147560000D01*
X184599000Y-147693333D02*
X184565666Y-147626666D01*
X184532333Y-147593333D01*
X184465666Y-147560000D01*
X184399000Y-147560000D01*
X183932333Y-147660000D02*
X183832333Y-147693333D01*
X183799000Y-147726666D01*
X183765666Y-147793333D01*
X183765666Y-147893333D01*
X183799000Y-147960000D01*
X183832333Y-147993333D01*
X183899000Y-148026666D01*
X184165666Y-148026666D01*
X184165666Y-147326666D01*
X183932333Y-147326666D01*
X183865666Y-147360000D01*
X183832333Y-147393333D01*
X183799000Y-147460000D01*
X183799000Y-147526666D01*
X183832333Y-147593333D01*
X183865666Y-147626666D01*
X183932333Y-147660000D01*
X184165666Y-147660000D01*
%TO.C,C103*%
X200240447Y-127221342D02*
X200288066Y-127268961D01*
X200430923Y-127316580D01*
X200526161Y-127316580D01*
X200669019Y-127268961D01*
X200764257Y-127173723D01*
X200811876Y-127078485D01*
X200859495Y-126888009D01*
X200859495Y-126745152D01*
X200811876Y-126554676D01*
X200764257Y-126459438D01*
X200669019Y-126364200D01*
X200526161Y-126316580D01*
X200430923Y-126316580D01*
X200288066Y-126364200D01*
X200240447Y-126411819D01*
X199288066Y-127316580D02*
X199859495Y-127316580D01*
X199573780Y-127316580D02*
X199573780Y-126316580D01*
X199669019Y-126459438D01*
X199764257Y-126554676D01*
X199859495Y-126602295D01*
X198669019Y-126316580D02*
X198573780Y-126316580D01*
X198478542Y-126364200D01*
X198430923Y-126411819D01*
X198383304Y-126507057D01*
X198335685Y-126697533D01*
X198335685Y-126935628D01*
X198383304Y-127126104D01*
X198430923Y-127221342D01*
X198478542Y-127268961D01*
X198573780Y-127316580D01*
X198669019Y-127316580D01*
X198764257Y-127268961D01*
X198811876Y-127221342D01*
X198859495Y-127126104D01*
X198907114Y-126935628D01*
X198907114Y-126697533D01*
X198859495Y-126507057D01*
X198811876Y-126411819D01*
X198764257Y-126364200D01*
X198669019Y-126316580D01*
X198002352Y-126316580D02*
X197383304Y-126316580D01*
X197716638Y-126697533D01*
X197573780Y-126697533D01*
X197478542Y-126745152D01*
X197430923Y-126792771D01*
X197383304Y-126888009D01*
X197383304Y-127126104D01*
X197430923Y-127221342D01*
X197478542Y-127268961D01*
X197573780Y-127316580D01*
X197859495Y-127316580D01*
X197954733Y-127268961D01*
X198002352Y-127221342D01*
%TO.C,C99*%
X186276857Y-135450942D02*
X186324476Y-135498561D01*
X186467333Y-135546180D01*
X186562571Y-135546180D01*
X186705428Y-135498561D01*
X186800666Y-135403323D01*
X186848285Y-135308085D01*
X186895904Y-135117609D01*
X186895904Y-134974752D01*
X186848285Y-134784276D01*
X186800666Y-134689038D01*
X186705428Y-134593800D01*
X186562571Y-134546180D01*
X186467333Y-134546180D01*
X186324476Y-134593800D01*
X186276857Y-134641419D01*
X185800666Y-135546180D02*
X185610190Y-135546180D01*
X185514952Y-135498561D01*
X185467333Y-135450942D01*
X185372095Y-135308085D01*
X185324476Y-135117609D01*
X185324476Y-134736657D01*
X185372095Y-134641419D01*
X185419714Y-134593800D01*
X185514952Y-134546180D01*
X185705428Y-134546180D01*
X185800666Y-134593800D01*
X185848285Y-134641419D01*
X185895904Y-134736657D01*
X185895904Y-134974752D01*
X185848285Y-135069990D01*
X185800666Y-135117609D01*
X185705428Y-135165228D01*
X185514952Y-135165228D01*
X185419714Y-135117609D01*
X185372095Y-135069990D01*
X185324476Y-134974752D01*
X184848285Y-135546180D02*
X184657809Y-135546180D01*
X184562571Y-135498561D01*
X184514952Y-135450942D01*
X184419714Y-135308085D01*
X184372095Y-135117609D01*
X184372095Y-134736657D01*
X184419714Y-134641419D01*
X184467333Y-134593800D01*
X184562571Y-134546180D01*
X184753047Y-134546180D01*
X184848285Y-134593800D01*
X184895904Y-134641419D01*
X184943523Y-134736657D01*
X184943523Y-134974752D01*
X184895904Y-135069990D01*
X184848285Y-135117609D01*
X184753047Y-135165228D01*
X184562571Y-135165228D01*
X184467333Y-135117609D01*
X184419714Y-135069990D01*
X184372095Y-134974752D01*
%TO.C,J29*%
X174886523Y-135966380D02*
X174886523Y-136680666D01*
X174934142Y-136823523D01*
X175029380Y-136918761D01*
X175172238Y-136966380D01*
X175267476Y-136966380D01*
X174457952Y-136061619D02*
X174410333Y-136014000D01*
X174315095Y-135966380D01*
X174077000Y-135966380D01*
X173981761Y-136014000D01*
X173934142Y-136061619D01*
X173886523Y-136156857D01*
X173886523Y-136252095D01*
X173934142Y-136394952D01*
X174505571Y-136966380D01*
X173886523Y-136966380D01*
X173410333Y-136966380D02*
X173219857Y-136966380D01*
X173124619Y-136918761D01*
X173077000Y-136871142D01*
X172981761Y-136728285D01*
X172934142Y-136537809D01*
X172934142Y-136156857D01*
X172981761Y-136061619D01*
X173029380Y-136014000D01*
X173124619Y-135966380D01*
X173315095Y-135966380D01*
X173410333Y-136014000D01*
X173457952Y-136061619D01*
X173505571Y-136156857D01*
X173505571Y-136394952D01*
X173457952Y-136490190D01*
X173410333Y-136537809D01*
X173315095Y-136585428D01*
X173124619Y-136585428D01*
X173029380Y-136537809D01*
X172981761Y-136490190D01*
X172934142Y-136394952D01*
%TO.C,C110*%
X180051742Y-139783752D02*
X180099361Y-139736133D01*
X180146980Y-139593276D01*
X180146980Y-139498038D01*
X180099361Y-139355180D01*
X180004123Y-139259942D01*
X179908885Y-139212323D01*
X179718409Y-139164704D01*
X179575552Y-139164704D01*
X179385076Y-139212323D01*
X179289838Y-139259942D01*
X179194600Y-139355180D01*
X179146980Y-139498038D01*
X179146980Y-139593276D01*
X179194600Y-139736133D01*
X179242219Y-139783752D01*
X180146980Y-140736133D02*
X180146980Y-140164704D01*
X180146980Y-140450419D02*
X179146980Y-140450419D01*
X179289838Y-140355180D01*
X179385076Y-140259942D01*
X179432695Y-140164704D01*
X180146980Y-141688514D02*
X180146980Y-141117085D01*
X180146980Y-141402800D02*
X179146980Y-141402800D01*
X179289838Y-141307561D01*
X179385076Y-141212323D01*
X179432695Y-141117085D01*
X179146980Y-142307561D02*
X179146980Y-142402800D01*
X179194600Y-142498038D01*
X179242219Y-142545657D01*
X179337457Y-142593276D01*
X179527933Y-142640895D01*
X179766028Y-142640895D01*
X179956504Y-142593276D01*
X180051742Y-142545657D01*
X180099361Y-142498038D01*
X180146980Y-142402800D01*
X180146980Y-142307561D01*
X180099361Y-142212323D01*
X180051742Y-142164704D01*
X179956504Y-142117085D01*
X179766028Y-142069466D01*
X179527933Y-142069466D01*
X179337457Y-142117085D01*
X179242219Y-142164704D01*
X179194600Y-142212323D01*
X179146980Y-142307561D01*
%TO.C,R76*%
X199738857Y-132421980D02*
X200072190Y-131945790D01*
X200310285Y-132421980D02*
X200310285Y-131421980D01*
X199929333Y-131421980D01*
X199834095Y-131469600D01*
X199786476Y-131517219D01*
X199738857Y-131612457D01*
X199738857Y-131755314D01*
X199786476Y-131850552D01*
X199834095Y-131898171D01*
X199929333Y-131945790D01*
X200310285Y-131945790D01*
X199405523Y-131421980D02*
X198738857Y-131421980D01*
X199167428Y-132421980D01*
X197929333Y-131421980D02*
X198119809Y-131421980D01*
X198215047Y-131469600D01*
X198262666Y-131517219D01*
X198357904Y-131660076D01*
X198405523Y-131850552D01*
X198405523Y-132231504D01*
X198357904Y-132326742D01*
X198310285Y-132374361D01*
X198215047Y-132421980D01*
X198024571Y-132421980D01*
X197929333Y-132374361D01*
X197881714Y-132326742D01*
X197834095Y-132231504D01*
X197834095Y-131993409D01*
X197881714Y-131898171D01*
X197929333Y-131850552D01*
X198024571Y-131802933D01*
X198215047Y-131802933D01*
X198310285Y-131850552D01*
X198357904Y-131898171D01*
X198405523Y-131993409D01*
%TO.C,C112*%
X175606742Y-116263352D02*
X175654361Y-116215733D01*
X175701980Y-116072876D01*
X175701980Y-115977638D01*
X175654361Y-115834780D01*
X175559123Y-115739542D01*
X175463885Y-115691923D01*
X175273409Y-115644304D01*
X175130552Y-115644304D01*
X174940076Y-115691923D01*
X174844838Y-115739542D01*
X174749600Y-115834780D01*
X174701980Y-115977638D01*
X174701980Y-116072876D01*
X174749600Y-116215733D01*
X174797219Y-116263352D01*
X175701980Y-117215733D02*
X175701980Y-116644304D01*
X175701980Y-116930019D02*
X174701980Y-116930019D01*
X174844838Y-116834780D01*
X174940076Y-116739542D01*
X174987695Y-116644304D01*
X175701980Y-118168114D02*
X175701980Y-117596685D01*
X175701980Y-117882400D02*
X174701980Y-117882400D01*
X174844838Y-117787161D01*
X174940076Y-117691923D01*
X174987695Y-117596685D01*
X174797219Y-118549066D02*
X174749600Y-118596685D01*
X174701980Y-118691923D01*
X174701980Y-118930019D01*
X174749600Y-119025257D01*
X174797219Y-119072876D01*
X174892457Y-119120495D01*
X174987695Y-119120495D01*
X175130552Y-119072876D01*
X175701980Y-118501447D01*
X175701980Y-119120495D01*
%TO.C,R85*%
X192722380Y-143057142D02*
X192246190Y-142723809D01*
X192722380Y-142485714D02*
X191722380Y-142485714D01*
X191722380Y-142866666D01*
X191770000Y-142961904D01*
X191817619Y-143009523D01*
X191912857Y-143057142D01*
X192055714Y-143057142D01*
X192150952Y-143009523D01*
X192198571Y-142961904D01*
X192246190Y-142866666D01*
X192246190Y-142485714D01*
X192150952Y-143628571D02*
X192103333Y-143533333D01*
X192055714Y-143485714D01*
X191960476Y-143438095D01*
X191912857Y-143438095D01*
X191817619Y-143485714D01*
X191770000Y-143533333D01*
X191722380Y-143628571D01*
X191722380Y-143819047D01*
X191770000Y-143914285D01*
X191817619Y-143961904D01*
X191912857Y-144009523D01*
X191960476Y-144009523D01*
X192055714Y-143961904D01*
X192103333Y-143914285D01*
X192150952Y-143819047D01*
X192150952Y-143628571D01*
X192198571Y-143533333D01*
X192246190Y-143485714D01*
X192341428Y-143438095D01*
X192531904Y-143438095D01*
X192627142Y-143485714D01*
X192674761Y-143533333D01*
X192722380Y-143628571D01*
X192722380Y-143819047D01*
X192674761Y-143914285D01*
X192627142Y-143961904D01*
X192531904Y-144009523D01*
X192341428Y-144009523D01*
X192246190Y-143961904D01*
X192198571Y-143914285D01*
X192150952Y-143819047D01*
X191722380Y-144914285D02*
X191722380Y-144438095D01*
X192198571Y-144390476D01*
X192150952Y-144438095D01*
X192103333Y-144533333D01*
X192103333Y-144771428D01*
X192150952Y-144866666D01*
X192198571Y-144914285D01*
X192293809Y-144961904D01*
X192531904Y-144961904D01*
X192627142Y-144914285D01*
X192674761Y-144866666D01*
X192722380Y-144771428D01*
X192722380Y-144533333D01*
X192674761Y-144438095D01*
X192627142Y-144390476D01*
%TO.C,R86*%
X190022380Y-142957142D02*
X189546190Y-142623809D01*
X190022380Y-142385714D02*
X189022380Y-142385714D01*
X189022380Y-142766666D01*
X189070000Y-142861904D01*
X189117619Y-142909523D01*
X189212857Y-142957142D01*
X189355714Y-142957142D01*
X189450952Y-142909523D01*
X189498571Y-142861904D01*
X189546190Y-142766666D01*
X189546190Y-142385714D01*
X189450952Y-143528571D02*
X189403333Y-143433333D01*
X189355714Y-143385714D01*
X189260476Y-143338095D01*
X189212857Y-143338095D01*
X189117619Y-143385714D01*
X189070000Y-143433333D01*
X189022380Y-143528571D01*
X189022380Y-143719047D01*
X189070000Y-143814285D01*
X189117619Y-143861904D01*
X189212857Y-143909523D01*
X189260476Y-143909523D01*
X189355714Y-143861904D01*
X189403333Y-143814285D01*
X189450952Y-143719047D01*
X189450952Y-143528571D01*
X189498571Y-143433333D01*
X189546190Y-143385714D01*
X189641428Y-143338095D01*
X189831904Y-143338095D01*
X189927142Y-143385714D01*
X189974761Y-143433333D01*
X190022380Y-143528571D01*
X190022380Y-143719047D01*
X189974761Y-143814285D01*
X189927142Y-143861904D01*
X189831904Y-143909523D01*
X189641428Y-143909523D01*
X189546190Y-143861904D01*
X189498571Y-143814285D01*
X189450952Y-143719047D01*
X189022380Y-144766666D02*
X189022380Y-144576190D01*
X189070000Y-144480952D01*
X189117619Y-144433333D01*
X189260476Y-144338095D01*
X189450952Y-144290476D01*
X189831904Y-144290476D01*
X189927142Y-144338095D01*
X189974761Y-144385714D01*
X190022380Y-144480952D01*
X190022380Y-144671428D01*
X189974761Y-144766666D01*
X189927142Y-144814285D01*
X189831904Y-144861904D01*
X189593809Y-144861904D01*
X189498571Y-144814285D01*
X189450952Y-144766666D01*
X189403333Y-144671428D01*
X189403333Y-144480952D01*
X189450952Y-144385714D01*
X189498571Y-144338095D01*
X189593809Y-144290476D01*
%TO.C,C96*%
X199688057Y-133850742D02*
X199735676Y-133898361D01*
X199878533Y-133945980D01*
X199973771Y-133945980D01*
X200116628Y-133898361D01*
X200211866Y-133803123D01*
X200259485Y-133707885D01*
X200307104Y-133517409D01*
X200307104Y-133374552D01*
X200259485Y-133184076D01*
X200211866Y-133088838D01*
X200116628Y-132993600D01*
X199973771Y-132945980D01*
X199878533Y-132945980D01*
X199735676Y-132993600D01*
X199688057Y-133041219D01*
X199211866Y-133945980D02*
X199021390Y-133945980D01*
X198926152Y-133898361D01*
X198878533Y-133850742D01*
X198783295Y-133707885D01*
X198735676Y-133517409D01*
X198735676Y-133136457D01*
X198783295Y-133041219D01*
X198830914Y-132993600D01*
X198926152Y-132945980D01*
X199116628Y-132945980D01*
X199211866Y-132993600D01*
X199259485Y-133041219D01*
X199307104Y-133136457D01*
X199307104Y-133374552D01*
X199259485Y-133469790D01*
X199211866Y-133517409D01*
X199116628Y-133565028D01*
X198926152Y-133565028D01*
X198830914Y-133517409D01*
X198783295Y-133469790D01*
X198735676Y-133374552D01*
X197878533Y-132945980D02*
X198069009Y-132945980D01*
X198164247Y-132993600D01*
X198211866Y-133041219D01*
X198307104Y-133184076D01*
X198354723Y-133374552D01*
X198354723Y-133755504D01*
X198307104Y-133850742D01*
X198259485Y-133898361D01*
X198164247Y-133945980D01*
X197973771Y-133945980D01*
X197878533Y-133898361D01*
X197830914Y-133850742D01*
X197783295Y-133755504D01*
X197783295Y-133517409D01*
X197830914Y-133422171D01*
X197878533Y-133374552D01*
X197973771Y-133326933D01*
X198164247Y-133326933D01*
X198259485Y-133374552D01*
X198307104Y-133422171D01*
X198354723Y-133517409D01*
%TO.C,C107*%
X193319047Y-148907142D02*
X193366666Y-148954761D01*
X193509523Y-149002380D01*
X193604761Y-149002380D01*
X193747619Y-148954761D01*
X193842857Y-148859523D01*
X193890476Y-148764285D01*
X193938095Y-148573809D01*
X193938095Y-148430952D01*
X193890476Y-148240476D01*
X193842857Y-148145238D01*
X193747619Y-148050000D01*
X193604761Y-148002380D01*
X193509523Y-148002380D01*
X193366666Y-148050000D01*
X193319047Y-148097619D01*
X192366666Y-149002380D02*
X192938095Y-149002380D01*
X192652380Y-149002380D02*
X192652380Y-148002380D01*
X192747619Y-148145238D01*
X192842857Y-148240476D01*
X192938095Y-148288095D01*
X191747619Y-148002380D02*
X191652380Y-148002380D01*
X191557142Y-148050000D01*
X191509523Y-148097619D01*
X191461904Y-148192857D01*
X191414285Y-148383333D01*
X191414285Y-148621428D01*
X191461904Y-148811904D01*
X191509523Y-148907142D01*
X191557142Y-148954761D01*
X191652380Y-149002380D01*
X191747619Y-149002380D01*
X191842857Y-148954761D01*
X191890476Y-148907142D01*
X191938095Y-148811904D01*
X191985714Y-148621428D01*
X191985714Y-148383333D01*
X191938095Y-148192857D01*
X191890476Y-148097619D01*
X191842857Y-148050000D01*
X191747619Y-148002380D01*
X191080952Y-148002380D02*
X190414285Y-148002380D01*
X190842857Y-149002380D01*
%TO.C,C105*%
X193077647Y-120576742D02*
X193125266Y-120624361D01*
X193268123Y-120671980D01*
X193363361Y-120671980D01*
X193506219Y-120624361D01*
X193601457Y-120529123D01*
X193649076Y-120433885D01*
X193696695Y-120243409D01*
X193696695Y-120100552D01*
X193649076Y-119910076D01*
X193601457Y-119814838D01*
X193506219Y-119719600D01*
X193363361Y-119671980D01*
X193268123Y-119671980D01*
X193125266Y-119719600D01*
X193077647Y-119767219D01*
X192125266Y-120671980D02*
X192696695Y-120671980D01*
X192410980Y-120671980D02*
X192410980Y-119671980D01*
X192506219Y-119814838D01*
X192601457Y-119910076D01*
X192696695Y-119957695D01*
X191506219Y-119671980D02*
X191410980Y-119671980D01*
X191315742Y-119719600D01*
X191268123Y-119767219D01*
X191220504Y-119862457D01*
X191172885Y-120052933D01*
X191172885Y-120291028D01*
X191220504Y-120481504D01*
X191268123Y-120576742D01*
X191315742Y-120624361D01*
X191410980Y-120671980D01*
X191506219Y-120671980D01*
X191601457Y-120624361D01*
X191649076Y-120576742D01*
X191696695Y-120481504D01*
X191744314Y-120291028D01*
X191744314Y-120052933D01*
X191696695Y-119862457D01*
X191649076Y-119767219D01*
X191601457Y-119719600D01*
X191506219Y-119671980D01*
X190268123Y-119671980D02*
X190744314Y-119671980D01*
X190791933Y-120148171D01*
X190744314Y-120100552D01*
X190649076Y-120052933D01*
X190410980Y-120052933D01*
X190315742Y-120100552D01*
X190268123Y-120148171D01*
X190220504Y-120243409D01*
X190220504Y-120481504D01*
X190268123Y-120576742D01*
X190315742Y-120624361D01*
X190410980Y-120671980D01*
X190649076Y-120671980D01*
X190744314Y-120624361D01*
X190791933Y-120576742D01*
%TO.C,R88*%
X175654580Y-116841142D02*
X175178390Y-116507809D01*
X175654580Y-116269714D02*
X174654580Y-116269714D01*
X174654580Y-116650666D01*
X174702200Y-116745904D01*
X174749819Y-116793523D01*
X174845057Y-116841142D01*
X174987914Y-116841142D01*
X175083152Y-116793523D01*
X175130771Y-116745904D01*
X175178390Y-116650666D01*
X175178390Y-116269714D01*
X175083152Y-117412571D02*
X175035533Y-117317333D01*
X174987914Y-117269714D01*
X174892676Y-117222095D01*
X174845057Y-117222095D01*
X174749819Y-117269714D01*
X174702200Y-117317333D01*
X174654580Y-117412571D01*
X174654580Y-117603047D01*
X174702200Y-117698285D01*
X174749819Y-117745904D01*
X174845057Y-117793523D01*
X174892676Y-117793523D01*
X174987914Y-117745904D01*
X175035533Y-117698285D01*
X175083152Y-117603047D01*
X175083152Y-117412571D01*
X175130771Y-117317333D01*
X175178390Y-117269714D01*
X175273628Y-117222095D01*
X175464104Y-117222095D01*
X175559342Y-117269714D01*
X175606961Y-117317333D01*
X175654580Y-117412571D01*
X175654580Y-117603047D01*
X175606961Y-117698285D01*
X175559342Y-117745904D01*
X175464104Y-117793523D01*
X175273628Y-117793523D01*
X175178390Y-117745904D01*
X175130771Y-117698285D01*
X175083152Y-117603047D01*
X175083152Y-118364952D02*
X175035533Y-118269714D01*
X174987914Y-118222095D01*
X174892676Y-118174476D01*
X174845057Y-118174476D01*
X174749819Y-118222095D01*
X174702200Y-118269714D01*
X174654580Y-118364952D01*
X174654580Y-118555428D01*
X174702200Y-118650666D01*
X174749819Y-118698285D01*
X174845057Y-118745904D01*
X174892676Y-118745904D01*
X174987914Y-118698285D01*
X175035533Y-118650666D01*
X175083152Y-118555428D01*
X175083152Y-118364952D01*
X175130771Y-118269714D01*
X175178390Y-118222095D01*
X175273628Y-118174476D01*
X175464104Y-118174476D01*
X175559342Y-118222095D01*
X175606961Y-118269714D01*
X175654580Y-118364952D01*
X175654580Y-118555428D01*
X175606961Y-118650666D01*
X175559342Y-118698285D01*
X175464104Y-118745904D01*
X175273628Y-118745904D01*
X175178390Y-118698285D01*
X175130771Y-118650666D01*
X175083152Y-118555428D01*
D11*
%TO.C,Q12*%
X185353914Y-141293476D02*
X185474866Y-141233000D01*
X185595819Y-141112047D01*
X185777247Y-140930619D01*
X185898200Y-140870142D01*
X186019152Y-140870142D01*
X185958676Y-141172523D02*
X186079628Y-141112047D01*
X186200580Y-140991095D01*
X186261057Y-140749190D01*
X186261057Y-140325857D01*
X186200580Y-140083952D01*
X186079628Y-139963000D01*
X185958676Y-139902523D01*
X185716771Y-139902523D01*
X185595819Y-139963000D01*
X185474866Y-140083952D01*
X185414390Y-140325857D01*
X185414390Y-140749190D01*
X185474866Y-140991095D01*
X185595819Y-141112047D01*
X185716771Y-141172523D01*
X185958676Y-141172523D01*
X184204866Y-141172523D02*
X184930580Y-141172523D01*
X184567723Y-141172523D02*
X184567723Y-139902523D01*
X184688676Y-140083952D01*
X184809628Y-140204904D01*
X184930580Y-140265380D01*
X183721057Y-140023476D02*
X183660580Y-139963000D01*
X183539628Y-139902523D01*
X183237247Y-139902523D01*
X183116295Y-139963000D01*
X183055819Y-140023476D01*
X182995342Y-140144428D01*
X182995342Y-140265380D01*
X183055819Y-140446809D01*
X183781533Y-141172523D01*
X182995342Y-141172523D01*
D10*
%TO.C,D7*%
X187997980Y-135999104D02*
X186997980Y-135999104D01*
X186997980Y-136237200D01*
X187045600Y-136380057D01*
X187140838Y-136475295D01*
X187236076Y-136522914D01*
X187426552Y-136570533D01*
X187569409Y-136570533D01*
X187759885Y-136522914D01*
X187855123Y-136475295D01*
X187950361Y-136380057D01*
X187997980Y-136237200D01*
X187997980Y-135999104D01*
X186997980Y-136903866D02*
X186997980Y-137570533D01*
X187997980Y-137141961D01*
%TO.C,C116*%
X202323247Y-125583942D02*
X202370866Y-125631561D01*
X202513723Y-125679180D01*
X202608961Y-125679180D01*
X202751819Y-125631561D01*
X202847057Y-125536323D01*
X202894676Y-125441085D01*
X202942295Y-125250609D01*
X202942295Y-125107752D01*
X202894676Y-124917276D01*
X202847057Y-124822038D01*
X202751819Y-124726800D01*
X202608961Y-124679180D01*
X202513723Y-124679180D01*
X202370866Y-124726800D01*
X202323247Y-124774419D01*
X201370866Y-125679180D02*
X201942295Y-125679180D01*
X201656580Y-125679180D02*
X201656580Y-124679180D01*
X201751819Y-124822038D01*
X201847057Y-124917276D01*
X201942295Y-124964895D01*
X200418485Y-125679180D02*
X200989914Y-125679180D01*
X200704200Y-125679180D02*
X200704200Y-124679180D01*
X200799438Y-124822038D01*
X200894676Y-124917276D01*
X200989914Y-124964895D01*
X199561342Y-124679180D02*
X199751819Y-124679180D01*
X199847057Y-124726800D01*
X199894676Y-124774419D01*
X199989914Y-124917276D01*
X200037533Y-125107752D01*
X200037533Y-125488704D01*
X199989914Y-125583942D01*
X199942295Y-125631561D01*
X199847057Y-125679180D01*
X199656580Y-125679180D01*
X199561342Y-125631561D01*
X199513723Y-125583942D01*
X199466104Y-125488704D01*
X199466104Y-125250609D01*
X199513723Y-125155371D01*
X199561342Y-125107752D01*
X199656580Y-125060133D01*
X199847057Y-125060133D01*
X199942295Y-125107752D01*
X199989914Y-125155371D01*
X200037533Y-125250609D01*
%TO.C,R67*%
X130181380Y-116841142D02*
X129705190Y-116507809D01*
X130181380Y-116269714D02*
X129181380Y-116269714D01*
X129181380Y-116650666D01*
X129229000Y-116745904D01*
X129276619Y-116793523D01*
X129371857Y-116841142D01*
X129514714Y-116841142D01*
X129609952Y-116793523D01*
X129657571Y-116745904D01*
X129705190Y-116650666D01*
X129705190Y-116269714D01*
X129181380Y-117698285D02*
X129181380Y-117507809D01*
X129229000Y-117412571D01*
X129276619Y-117364952D01*
X129419476Y-117269714D01*
X129609952Y-117222095D01*
X129990904Y-117222095D01*
X130086142Y-117269714D01*
X130133761Y-117317333D01*
X130181380Y-117412571D01*
X130181380Y-117603047D01*
X130133761Y-117698285D01*
X130086142Y-117745904D01*
X129990904Y-117793523D01*
X129752809Y-117793523D01*
X129657571Y-117745904D01*
X129609952Y-117698285D01*
X129562333Y-117603047D01*
X129562333Y-117412571D01*
X129609952Y-117317333D01*
X129657571Y-117269714D01*
X129752809Y-117222095D01*
X129181380Y-118126857D02*
X129181380Y-118793523D01*
X130181380Y-118364952D01*
%TO.C,M5*%
X153798780Y-113804276D02*
X152798780Y-113804276D01*
X153513066Y-114137609D01*
X152798780Y-114470942D01*
X153798780Y-114470942D01*
X152798780Y-115423323D02*
X152798780Y-114947133D01*
X153274971Y-114899514D01*
X153227352Y-114947133D01*
X153179733Y-115042371D01*
X153179733Y-115280466D01*
X153227352Y-115375704D01*
X153274971Y-115423323D01*
X153370209Y-115470942D01*
X153608304Y-115470942D01*
X153703542Y-115423323D01*
X153751161Y-115375704D01*
X153798780Y-115280466D01*
X153798780Y-115042371D01*
X153751161Y-114947133D01*
X153703542Y-114899514D01*
%TO.C,C79*%
X130973857Y-135803142D02*
X131021476Y-135850761D01*
X131164333Y-135898380D01*
X131259571Y-135898380D01*
X131402428Y-135850761D01*
X131497666Y-135755523D01*
X131545285Y-135660285D01*
X131592904Y-135469809D01*
X131592904Y-135326952D01*
X131545285Y-135136476D01*
X131497666Y-135041238D01*
X131402428Y-134946000D01*
X131259571Y-134898380D01*
X131164333Y-134898380D01*
X131021476Y-134946000D01*
X130973857Y-134993619D01*
X130640523Y-134898380D02*
X129973857Y-134898380D01*
X130402428Y-135898380D01*
X129545285Y-135898380D02*
X129354809Y-135898380D01*
X129259571Y-135850761D01*
X129211952Y-135803142D01*
X129116714Y-135660285D01*
X129069095Y-135469809D01*
X129069095Y-135088857D01*
X129116714Y-134993619D01*
X129164333Y-134946000D01*
X129259571Y-134898380D01*
X129450047Y-134898380D01*
X129545285Y-134946000D01*
X129592904Y-134993619D01*
X129640523Y-135088857D01*
X129640523Y-135326952D01*
X129592904Y-135422190D01*
X129545285Y-135469809D01*
X129450047Y-135517428D01*
X129259571Y-135517428D01*
X129164333Y-135469809D01*
X129116714Y-135422190D01*
X129069095Y-135326952D01*
%TO.C,C62*%
X151980942Y-121019142D02*
X152028561Y-120971523D01*
X152076180Y-120828666D01*
X152076180Y-120733428D01*
X152028561Y-120590571D01*
X151933323Y-120495333D01*
X151838085Y-120447714D01*
X151647609Y-120400095D01*
X151504752Y-120400095D01*
X151314276Y-120447714D01*
X151219038Y-120495333D01*
X151123800Y-120590571D01*
X151076180Y-120733428D01*
X151076180Y-120828666D01*
X151123800Y-120971523D01*
X151171419Y-121019142D01*
X151076180Y-121876285D02*
X151076180Y-121685809D01*
X151123800Y-121590571D01*
X151171419Y-121542952D01*
X151314276Y-121447714D01*
X151504752Y-121400095D01*
X151885704Y-121400095D01*
X151980942Y-121447714D01*
X152028561Y-121495333D01*
X152076180Y-121590571D01*
X152076180Y-121781047D01*
X152028561Y-121876285D01*
X151980942Y-121923904D01*
X151885704Y-121971523D01*
X151647609Y-121971523D01*
X151552371Y-121923904D01*
X151504752Y-121876285D01*
X151457133Y-121781047D01*
X151457133Y-121590571D01*
X151504752Y-121495333D01*
X151552371Y-121447714D01*
X151647609Y-121400095D01*
X151171419Y-122352476D02*
X151123800Y-122400095D01*
X151076180Y-122495333D01*
X151076180Y-122733428D01*
X151123800Y-122828666D01*
X151171419Y-122876285D01*
X151266657Y-122923904D01*
X151361895Y-122923904D01*
X151504752Y-122876285D01*
X152076180Y-122304857D01*
X152076180Y-122923904D01*
%TO.C,C63*%
X148626857Y-122049942D02*
X148674476Y-122097561D01*
X148817333Y-122145180D01*
X148912571Y-122145180D01*
X149055428Y-122097561D01*
X149150666Y-122002323D01*
X149198285Y-121907085D01*
X149245904Y-121716609D01*
X149245904Y-121573752D01*
X149198285Y-121383276D01*
X149150666Y-121288038D01*
X149055428Y-121192800D01*
X148912571Y-121145180D01*
X148817333Y-121145180D01*
X148674476Y-121192800D01*
X148626857Y-121240419D01*
X147769714Y-121145180D02*
X147960190Y-121145180D01*
X148055428Y-121192800D01*
X148103047Y-121240419D01*
X148198285Y-121383276D01*
X148245904Y-121573752D01*
X148245904Y-121954704D01*
X148198285Y-122049942D01*
X148150666Y-122097561D01*
X148055428Y-122145180D01*
X147864952Y-122145180D01*
X147769714Y-122097561D01*
X147722095Y-122049942D01*
X147674476Y-121954704D01*
X147674476Y-121716609D01*
X147722095Y-121621371D01*
X147769714Y-121573752D01*
X147864952Y-121526133D01*
X148055428Y-121526133D01*
X148150666Y-121573752D01*
X148198285Y-121621371D01*
X148245904Y-121716609D01*
X147341142Y-121145180D02*
X146722095Y-121145180D01*
X147055428Y-121526133D01*
X146912571Y-121526133D01*
X146817333Y-121573752D01*
X146769714Y-121621371D01*
X146722095Y-121716609D01*
X146722095Y-121954704D01*
X146769714Y-122049942D01*
X146817333Y-122097561D01*
X146912571Y-122145180D01*
X147198285Y-122145180D01*
X147293523Y-122097561D01*
X147341142Y-122049942D01*
%TO.C,M6*%
X126681980Y-113601076D02*
X125681980Y-113601076D01*
X126396266Y-113934409D01*
X125681980Y-114267742D01*
X126681980Y-114267742D01*
X125681980Y-115172504D02*
X125681980Y-114982028D01*
X125729600Y-114886790D01*
X125777219Y-114839171D01*
X125920076Y-114743933D01*
X126110552Y-114696314D01*
X126491504Y-114696314D01*
X126586742Y-114743933D01*
X126634361Y-114791552D01*
X126681980Y-114886790D01*
X126681980Y-115077266D01*
X126634361Y-115172504D01*
X126586742Y-115220123D01*
X126491504Y-115267742D01*
X126253409Y-115267742D01*
X126158171Y-115220123D01*
X126110552Y-115172504D01*
X126062933Y-115077266D01*
X126062933Y-114886790D01*
X126110552Y-114791552D01*
X126158171Y-114743933D01*
X126253409Y-114696314D01*
%TO.C,R66*%
X156521180Y-117298342D02*
X156044990Y-116965009D01*
X156521180Y-116726914D02*
X155521180Y-116726914D01*
X155521180Y-117107866D01*
X155568800Y-117203104D01*
X155616419Y-117250723D01*
X155711657Y-117298342D01*
X155854514Y-117298342D01*
X155949752Y-117250723D01*
X155997371Y-117203104D01*
X156044990Y-117107866D01*
X156044990Y-116726914D01*
X155521180Y-118155485D02*
X155521180Y-117965009D01*
X155568800Y-117869771D01*
X155616419Y-117822152D01*
X155759276Y-117726914D01*
X155949752Y-117679295D01*
X156330704Y-117679295D01*
X156425942Y-117726914D01*
X156473561Y-117774533D01*
X156521180Y-117869771D01*
X156521180Y-118060247D01*
X156473561Y-118155485D01*
X156425942Y-118203104D01*
X156330704Y-118250723D01*
X156092609Y-118250723D01*
X155997371Y-118203104D01*
X155949752Y-118155485D01*
X155902133Y-118060247D01*
X155902133Y-117869771D01*
X155949752Y-117774533D01*
X155997371Y-117726914D01*
X156092609Y-117679295D01*
X155521180Y-119107866D02*
X155521180Y-118917390D01*
X155568800Y-118822152D01*
X155616419Y-118774533D01*
X155759276Y-118679295D01*
X155949752Y-118631676D01*
X156330704Y-118631676D01*
X156425942Y-118679295D01*
X156473561Y-118726914D01*
X156521180Y-118822152D01*
X156521180Y-119012628D01*
X156473561Y-119107866D01*
X156425942Y-119155485D01*
X156330704Y-119203104D01*
X156092609Y-119203104D01*
X155997371Y-119155485D01*
X155949752Y-119107866D01*
X155902133Y-119012628D01*
X155902133Y-118822152D01*
X155949752Y-118726914D01*
X155997371Y-118679295D01*
X156092609Y-118631676D01*
%TO.C,R58*%
X137958857Y-130110580D02*
X138292190Y-129634390D01*
X138530285Y-130110580D02*
X138530285Y-129110580D01*
X138149333Y-129110580D01*
X138054095Y-129158200D01*
X138006476Y-129205819D01*
X137958857Y-129301057D01*
X137958857Y-129443914D01*
X138006476Y-129539152D01*
X138054095Y-129586771D01*
X138149333Y-129634390D01*
X138530285Y-129634390D01*
X137054095Y-129110580D02*
X137530285Y-129110580D01*
X137577904Y-129586771D01*
X137530285Y-129539152D01*
X137435047Y-129491533D01*
X137196952Y-129491533D01*
X137101714Y-129539152D01*
X137054095Y-129586771D01*
X137006476Y-129682009D01*
X137006476Y-129920104D01*
X137054095Y-130015342D01*
X137101714Y-130062961D01*
X137196952Y-130110580D01*
X137435047Y-130110580D01*
X137530285Y-130062961D01*
X137577904Y-130015342D01*
X136435047Y-129539152D02*
X136530285Y-129491533D01*
X136577904Y-129443914D01*
X136625523Y-129348676D01*
X136625523Y-129301057D01*
X136577904Y-129205819D01*
X136530285Y-129158200D01*
X136435047Y-129110580D01*
X136244571Y-129110580D01*
X136149333Y-129158200D01*
X136101714Y-129205819D01*
X136054095Y-129301057D01*
X136054095Y-129348676D01*
X136101714Y-129443914D01*
X136149333Y-129491533D01*
X136244571Y-129539152D01*
X136435047Y-129539152D01*
X136530285Y-129586771D01*
X136577904Y-129634390D01*
X136625523Y-129729628D01*
X136625523Y-129920104D01*
X136577904Y-130015342D01*
X136530285Y-130062961D01*
X136435047Y-130110580D01*
X136244571Y-130110580D01*
X136149333Y-130062961D01*
X136101714Y-130015342D01*
X136054095Y-129920104D01*
X136054095Y-129729628D01*
X136101714Y-129634390D01*
X136149333Y-129586771D01*
X136244571Y-129539152D01*
%TO.C,C83*%
X158149742Y-130707742D02*
X158197361Y-130660123D01*
X158244980Y-130517266D01*
X158244980Y-130422028D01*
X158197361Y-130279171D01*
X158102123Y-130183933D01*
X158006885Y-130136314D01*
X157816409Y-130088695D01*
X157673552Y-130088695D01*
X157483076Y-130136314D01*
X157387838Y-130183933D01*
X157292600Y-130279171D01*
X157244980Y-130422028D01*
X157244980Y-130517266D01*
X157292600Y-130660123D01*
X157340219Y-130707742D01*
X157673552Y-131279171D02*
X157625933Y-131183933D01*
X157578314Y-131136314D01*
X157483076Y-131088695D01*
X157435457Y-131088695D01*
X157340219Y-131136314D01*
X157292600Y-131183933D01*
X157244980Y-131279171D01*
X157244980Y-131469647D01*
X157292600Y-131564885D01*
X157340219Y-131612504D01*
X157435457Y-131660123D01*
X157483076Y-131660123D01*
X157578314Y-131612504D01*
X157625933Y-131564885D01*
X157673552Y-131469647D01*
X157673552Y-131279171D01*
X157721171Y-131183933D01*
X157768790Y-131136314D01*
X157864028Y-131088695D01*
X158054504Y-131088695D01*
X158149742Y-131136314D01*
X158197361Y-131183933D01*
X158244980Y-131279171D01*
X158244980Y-131469647D01*
X158197361Y-131564885D01*
X158149742Y-131612504D01*
X158054504Y-131660123D01*
X157864028Y-131660123D01*
X157768790Y-131612504D01*
X157721171Y-131564885D01*
X157673552Y-131469647D01*
X157244980Y-131993457D02*
X157244980Y-132612504D01*
X157625933Y-132279171D01*
X157625933Y-132422028D01*
X157673552Y-132517266D01*
X157721171Y-132564885D01*
X157816409Y-132612504D01*
X158054504Y-132612504D01*
X158149742Y-132564885D01*
X158197361Y-132517266D01*
X158244980Y-132422028D01*
X158244980Y-132136314D01*
X158197361Y-132041076D01*
X158149742Y-131993457D01*
%TO.C,J24*%
X161976123Y-121521780D02*
X161976123Y-122236066D01*
X162023742Y-122378923D01*
X162118980Y-122474161D01*
X162261838Y-122521780D01*
X162357076Y-122521780D01*
X161547552Y-121617019D02*
X161499933Y-121569400D01*
X161404695Y-121521780D01*
X161166600Y-121521780D01*
X161071361Y-121569400D01*
X161023742Y-121617019D01*
X160976123Y-121712257D01*
X160976123Y-121807495D01*
X161023742Y-121950352D01*
X161595171Y-122521780D01*
X160976123Y-122521780D01*
X160118980Y-121855114D02*
X160118980Y-122521780D01*
X160357076Y-121474161D02*
X160595171Y-122188447D01*
X159976123Y-122188447D01*
%TO.C,J20*%
X127762323Y-136012380D02*
X127762323Y-136726666D01*
X127809942Y-136869523D01*
X127905180Y-136964761D01*
X128048038Y-137012380D01*
X128143276Y-137012380D01*
X127333752Y-136107619D02*
X127286133Y-136060000D01*
X127190895Y-136012380D01*
X126952800Y-136012380D01*
X126857561Y-136060000D01*
X126809942Y-136107619D01*
X126762323Y-136202857D01*
X126762323Y-136298095D01*
X126809942Y-136440952D01*
X127381371Y-137012380D01*
X126762323Y-137012380D01*
X126143276Y-136012380D02*
X126048038Y-136012380D01*
X125952800Y-136060000D01*
X125905180Y-136107619D01*
X125857561Y-136202857D01*
X125809942Y-136393333D01*
X125809942Y-136631428D01*
X125857561Y-136821904D01*
X125905180Y-136917142D01*
X125952800Y-136964761D01*
X126048038Y-137012380D01*
X126143276Y-137012380D01*
X126238514Y-136964761D01*
X126286133Y-136917142D01*
X126333752Y-136821904D01*
X126381371Y-136631428D01*
X126381371Y-136393333D01*
X126333752Y-136202857D01*
X126286133Y-136107619D01*
X126238514Y-136060000D01*
X126143276Y-136012380D01*
%TO.C,C78*%
X139751742Y-144908142D02*
X139799361Y-144860523D01*
X139846980Y-144717666D01*
X139846980Y-144622428D01*
X139799361Y-144479571D01*
X139704123Y-144384333D01*
X139608885Y-144336714D01*
X139418409Y-144289095D01*
X139275552Y-144289095D01*
X139085076Y-144336714D01*
X138989838Y-144384333D01*
X138894600Y-144479571D01*
X138846980Y-144622428D01*
X138846980Y-144717666D01*
X138894600Y-144860523D01*
X138942219Y-144908142D01*
X138846980Y-145241476D02*
X138846980Y-145908142D01*
X139846980Y-145479571D01*
X139275552Y-146431952D02*
X139227933Y-146336714D01*
X139180314Y-146289095D01*
X139085076Y-146241476D01*
X139037457Y-146241476D01*
X138942219Y-146289095D01*
X138894600Y-146336714D01*
X138846980Y-146431952D01*
X138846980Y-146622428D01*
X138894600Y-146717666D01*
X138942219Y-146765285D01*
X139037457Y-146812904D01*
X139085076Y-146812904D01*
X139180314Y-146765285D01*
X139227933Y-146717666D01*
X139275552Y-146622428D01*
X139275552Y-146431952D01*
X139323171Y-146336714D01*
X139370790Y-146289095D01*
X139466028Y-146241476D01*
X139656504Y-146241476D01*
X139751742Y-146289095D01*
X139799361Y-146336714D01*
X139846980Y-146431952D01*
X139846980Y-146622428D01*
X139799361Y-146717666D01*
X139751742Y-146765285D01*
X139656504Y-146812904D01*
X139466028Y-146812904D01*
X139370790Y-146765285D01*
X139323171Y-146717666D01*
X139275552Y-146622428D01*
%TO.C,C68*%
X158899942Y-141428342D02*
X158947561Y-141380723D01*
X158995180Y-141237866D01*
X158995180Y-141142628D01*
X158947561Y-140999771D01*
X158852323Y-140904533D01*
X158757085Y-140856914D01*
X158566609Y-140809295D01*
X158423752Y-140809295D01*
X158233276Y-140856914D01*
X158138038Y-140904533D01*
X158042800Y-140999771D01*
X157995180Y-141142628D01*
X157995180Y-141237866D01*
X158042800Y-141380723D01*
X158090419Y-141428342D01*
X157995180Y-142285485D02*
X157995180Y-142095009D01*
X158042800Y-141999771D01*
X158090419Y-141952152D01*
X158233276Y-141856914D01*
X158423752Y-141809295D01*
X158804704Y-141809295D01*
X158899942Y-141856914D01*
X158947561Y-141904533D01*
X158995180Y-141999771D01*
X158995180Y-142190247D01*
X158947561Y-142285485D01*
X158899942Y-142333104D01*
X158804704Y-142380723D01*
X158566609Y-142380723D01*
X158471371Y-142333104D01*
X158423752Y-142285485D01*
X158376133Y-142190247D01*
X158376133Y-141999771D01*
X158423752Y-141904533D01*
X158471371Y-141856914D01*
X158566609Y-141809295D01*
X158423752Y-142952152D02*
X158376133Y-142856914D01*
X158328514Y-142809295D01*
X158233276Y-142761676D01*
X158185657Y-142761676D01*
X158090419Y-142809295D01*
X158042800Y-142856914D01*
X157995180Y-142952152D01*
X157995180Y-143142628D01*
X158042800Y-143237866D01*
X158090419Y-143285485D01*
X158185657Y-143333104D01*
X158233276Y-143333104D01*
X158328514Y-143285485D01*
X158376133Y-143237866D01*
X158423752Y-143142628D01*
X158423752Y-142952152D01*
X158471371Y-142856914D01*
X158518990Y-142809295D01*
X158614228Y-142761676D01*
X158804704Y-142761676D01*
X158899942Y-142809295D01*
X158947561Y-142856914D01*
X158995180Y-142952152D01*
X158995180Y-143142628D01*
X158947561Y-143237866D01*
X158899942Y-143285485D01*
X158804704Y-143333104D01*
X158614228Y-143333104D01*
X158518990Y-143285485D01*
X158471371Y-143237866D01*
X158423752Y-143142628D01*
%TO.C,C71*%
X152082542Y-138100942D02*
X152130161Y-138053323D01*
X152177780Y-137910466D01*
X152177780Y-137815228D01*
X152130161Y-137672371D01*
X152034923Y-137577133D01*
X151939685Y-137529514D01*
X151749209Y-137481895D01*
X151606352Y-137481895D01*
X151415876Y-137529514D01*
X151320638Y-137577133D01*
X151225400Y-137672371D01*
X151177780Y-137815228D01*
X151177780Y-137910466D01*
X151225400Y-138053323D01*
X151273019Y-138100942D01*
X151177780Y-138434276D02*
X151177780Y-139100942D01*
X152177780Y-138672371D01*
X152177780Y-140005704D02*
X152177780Y-139434276D01*
X152177780Y-139719990D02*
X151177780Y-139719990D01*
X151320638Y-139624752D01*
X151415876Y-139529514D01*
X151463495Y-139434276D01*
%TO.C,C65*%
X157514742Y-117857142D02*
X157562361Y-117809523D01*
X157609980Y-117666666D01*
X157609980Y-117571428D01*
X157562361Y-117428571D01*
X157467123Y-117333333D01*
X157371885Y-117285714D01*
X157181409Y-117238095D01*
X157038552Y-117238095D01*
X156848076Y-117285714D01*
X156752838Y-117333333D01*
X156657600Y-117428571D01*
X156609980Y-117571428D01*
X156609980Y-117666666D01*
X156657600Y-117809523D01*
X156705219Y-117857142D01*
X156609980Y-118714285D02*
X156609980Y-118523809D01*
X156657600Y-118428571D01*
X156705219Y-118380952D01*
X156848076Y-118285714D01*
X157038552Y-118238095D01*
X157419504Y-118238095D01*
X157514742Y-118285714D01*
X157562361Y-118333333D01*
X157609980Y-118428571D01*
X157609980Y-118619047D01*
X157562361Y-118714285D01*
X157514742Y-118761904D01*
X157419504Y-118809523D01*
X157181409Y-118809523D01*
X157086171Y-118761904D01*
X157038552Y-118714285D01*
X156990933Y-118619047D01*
X156990933Y-118428571D01*
X157038552Y-118333333D01*
X157086171Y-118285714D01*
X157181409Y-118238095D01*
X156609980Y-119714285D02*
X156609980Y-119238095D01*
X157086171Y-119190476D01*
X157038552Y-119238095D01*
X156990933Y-119333333D01*
X156990933Y-119571428D01*
X157038552Y-119666666D01*
X157086171Y-119714285D01*
X157181409Y-119761904D01*
X157419504Y-119761904D01*
X157514742Y-119714285D01*
X157562361Y-119666666D01*
X157609980Y-119571428D01*
X157609980Y-119333333D01*
X157562361Y-119238095D01*
X157514742Y-119190476D01*
D11*
%TO.C,IC6*%
X137153923Y-132957438D02*
X135883923Y-132957438D01*
X137032971Y-134287914D02*
X137093447Y-134227438D01*
X137153923Y-134046009D01*
X137153923Y-133925057D01*
X137093447Y-133743628D01*
X136972495Y-133622676D01*
X136851542Y-133562200D01*
X136609638Y-133501723D01*
X136428209Y-133501723D01*
X136186304Y-133562200D01*
X136065352Y-133622676D01*
X135944400Y-133743628D01*
X135883923Y-133925057D01*
X135883923Y-134046009D01*
X135944400Y-134227438D01*
X136004876Y-134287914D01*
X135883923Y-135376485D02*
X135883923Y-135134580D01*
X135944400Y-135013628D01*
X136004876Y-134953152D01*
X136186304Y-134832200D01*
X136428209Y-134771723D01*
X136912019Y-134771723D01*
X137032971Y-134832200D01*
X137093447Y-134892676D01*
X137153923Y-135013628D01*
X137153923Y-135255533D01*
X137093447Y-135376485D01*
X137032971Y-135436961D01*
X136912019Y-135497438D01*
X136609638Y-135497438D01*
X136488685Y-135436961D01*
X136428209Y-135376485D01*
X136367733Y-135255533D01*
X136367733Y-135013628D01*
X136428209Y-134892676D01*
X136488685Y-134832200D01*
X136609638Y-134771723D01*
D10*
%TO.C,R64*%
X158019780Y-117298342D02*
X157543590Y-116965009D01*
X158019780Y-116726914D02*
X157019780Y-116726914D01*
X157019780Y-117107866D01*
X157067400Y-117203104D01*
X157115019Y-117250723D01*
X157210257Y-117298342D01*
X157353114Y-117298342D01*
X157448352Y-117250723D01*
X157495971Y-117203104D01*
X157543590Y-117107866D01*
X157543590Y-116726914D01*
X157019780Y-118155485D02*
X157019780Y-117965009D01*
X157067400Y-117869771D01*
X157115019Y-117822152D01*
X157257876Y-117726914D01*
X157448352Y-117679295D01*
X157829304Y-117679295D01*
X157924542Y-117726914D01*
X157972161Y-117774533D01*
X158019780Y-117869771D01*
X158019780Y-118060247D01*
X157972161Y-118155485D01*
X157924542Y-118203104D01*
X157829304Y-118250723D01*
X157591209Y-118250723D01*
X157495971Y-118203104D01*
X157448352Y-118155485D01*
X157400733Y-118060247D01*
X157400733Y-117869771D01*
X157448352Y-117774533D01*
X157495971Y-117726914D01*
X157591209Y-117679295D01*
X157353114Y-119107866D02*
X158019780Y-119107866D01*
X156972161Y-118869771D02*
X157686447Y-118631676D01*
X157686447Y-119250723D01*
%TO.C,J17*%
X126309523Y-138452380D02*
X126309523Y-139166666D01*
X126357142Y-139309523D01*
X126452380Y-139404761D01*
X126595238Y-139452380D01*
X126690476Y-139452380D01*
X125309523Y-139452380D02*
X125880952Y-139452380D01*
X125595238Y-139452380D02*
X125595238Y-138452380D01*
X125690476Y-138595238D01*
X125785714Y-138690476D01*
X125880952Y-138738095D01*
X124976190Y-138452380D02*
X124309523Y-138452380D01*
X124738095Y-139452380D01*
%TO.C,J19*%
X141554523Y-147682380D02*
X141554523Y-148396666D01*
X141602142Y-148539523D01*
X141697380Y-148634761D01*
X141840238Y-148682380D01*
X141935476Y-148682380D01*
X140554523Y-148682380D02*
X141125952Y-148682380D01*
X140840238Y-148682380D02*
X140840238Y-147682380D01*
X140935476Y-147825238D01*
X141030714Y-147920476D01*
X141125952Y-147968095D01*
X140078333Y-148682380D02*
X139887857Y-148682380D01*
X139792619Y-148634761D01*
X139745000Y-148587142D01*
X139649761Y-148444285D01*
X139602142Y-148253809D01*
X139602142Y-147872857D01*
X139649761Y-147777619D01*
X139697380Y-147730000D01*
X139792619Y-147682380D01*
X139983095Y-147682380D01*
X140078333Y-147730000D01*
X140125952Y-147777619D01*
X140173571Y-147872857D01*
X140173571Y-148110952D01*
X140125952Y-148206190D01*
X140078333Y-148253809D01*
X139983095Y-148301428D01*
X139792619Y-148301428D01*
X139697380Y-148253809D01*
X139649761Y-148206190D01*
X139602142Y-148110952D01*
X142199000Y-147760000D02*
X141665666Y-147760000D01*
X141932333Y-148026666D02*
X141932333Y-147493333D01*
X141332333Y-148026666D02*
X141332333Y-147326666D01*
X140932333Y-148026666D01*
X140932333Y-147326666D01*
X140599000Y-148026666D02*
X140599000Y-147560000D01*
X140599000Y-147693333D02*
X140565666Y-147626666D01*
X140532333Y-147593333D01*
X140465666Y-147560000D01*
X140399000Y-147560000D01*
X139932333Y-147660000D02*
X139832333Y-147693333D01*
X139799000Y-147726666D01*
X139765666Y-147793333D01*
X139765666Y-147893333D01*
X139799000Y-147960000D01*
X139832333Y-147993333D01*
X139899000Y-148026666D01*
X140165666Y-148026666D01*
X140165666Y-147326666D01*
X139932333Y-147326666D01*
X139865666Y-147360000D01*
X139832333Y-147393333D01*
X139799000Y-147460000D01*
X139799000Y-147526666D01*
X139832333Y-147593333D01*
X139865666Y-147626666D01*
X139932333Y-147660000D01*
X140165666Y-147660000D01*
%TO.C,C73*%
X155764257Y-127221342D02*
X155811876Y-127268961D01*
X155954733Y-127316580D01*
X156049971Y-127316580D01*
X156192828Y-127268961D01*
X156288066Y-127173723D01*
X156335685Y-127078485D01*
X156383304Y-126888009D01*
X156383304Y-126745152D01*
X156335685Y-126554676D01*
X156288066Y-126459438D01*
X156192828Y-126364200D01*
X156049971Y-126316580D01*
X155954733Y-126316580D01*
X155811876Y-126364200D01*
X155764257Y-126411819D01*
X155430923Y-126316580D02*
X154764257Y-126316580D01*
X155192828Y-127316580D01*
X154478542Y-126316580D02*
X153859495Y-126316580D01*
X154192828Y-126697533D01*
X154049971Y-126697533D01*
X153954733Y-126745152D01*
X153907114Y-126792771D01*
X153859495Y-126888009D01*
X153859495Y-127126104D01*
X153907114Y-127221342D01*
X153954733Y-127268961D01*
X154049971Y-127316580D01*
X154335685Y-127316580D01*
X154430923Y-127268961D01*
X154478542Y-127221342D01*
%TO.C,C69*%
X142276857Y-135450942D02*
X142324476Y-135498561D01*
X142467333Y-135546180D01*
X142562571Y-135546180D01*
X142705428Y-135498561D01*
X142800666Y-135403323D01*
X142848285Y-135308085D01*
X142895904Y-135117609D01*
X142895904Y-134974752D01*
X142848285Y-134784276D01*
X142800666Y-134689038D01*
X142705428Y-134593800D01*
X142562571Y-134546180D01*
X142467333Y-134546180D01*
X142324476Y-134593800D01*
X142276857Y-134641419D01*
X141419714Y-134546180D02*
X141610190Y-134546180D01*
X141705428Y-134593800D01*
X141753047Y-134641419D01*
X141848285Y-134784276D01*
X141895904Y-134974752D01*
X141895904Y-135355704D01*
X141848285Y-135450942D01*
X141800666Y-135498561D01*
X141705428Y-135546180D01*
X141514952Y-135546180D01*
X141419714Y-135498561D01*
X141372095Y-135450942D01*
X141324476Y-135355704D01*
X141324476Y-135117609D01*
X141372095Y-135022371D01*
X141419714Y-134974752D01*
X141514952Y-134927133D01*
X141705428Y-134927133D01*
X141800666Y-134974752D01*
X141848285Y-135022371D01*
X141895904Y-135117609D01*
X140848285Y-135546180D02*
X140657809Y-135546180D01*
X140562571Y-135498561D01*
X140514952Y-135450942D01*
X140419714Y-135308085D01*
X140372095Y-135117609D01*
X140372095Y-134736657D01*
X140419714Y-134641419D01*
X140467333Y-134593800D01*
X140562571Y-134546180D01*
X140753047Y-134546180D01*
X140848285Y-134593800D01*
X140895904Y-134641419D01*
X140943523Y-134736657D01*
X140943523Y-134974752D01*
X140895904Y-135069990D01*
X140848285Y-135117609D01*
X140753047Y-135165228D01*
X140562571Y-135165228D01*
X140467333Y-135117609D01*
X140419714Y-135069990D01*
X140372095Y-134974752D01*
%TO.C,J21*%
X130886523Y-135966380D02*
X130886523Y-136680666D01*
X130934142Y-136823523D01*
X131029380Y-136918761D01*
X131172238Y-136966380D01*
X131267476Y-136966380D01*
X130457952Y-136061619D02*
X130410333Y-136014000D01*
X130315095Y-135966380D01*
X130077000Y-135966380D01*
X129981761Y-136014000D01*
X129934142Y-136061619D01*
X129886523Y-136156857D01*
X129886523Y-136252095D01*
X129934142Y-136394952D01*
X130505571Y-136966380D01*
X129886523Y-136966380D01*
X128934142Y-136966380D02*
X129505571Y-136966380D01*
X129219857Y-136966380D02*
X129219857Y-135966380D01*
X129315095Y-136109238D01*
X129410333Y-136204476D01*
X129505571Y-136252095D01*
%TO.C,C80*%
X136051742Y-140259942D02*
X136099361Y-140212323D01*
X136146980Y-140069466D01*
X136146980Y-139974228D01*
X136099361Y-139831371D01*
X136004123Y-139736133D01*
X135908885Y-139688514D01*
X135718409Y-139640895D01*
X135575552Y-139640895D01*
X135385076Y-139688514D01*
X135289838Y-139736133D01*
X135194600Y-139831371D01*
X135146980Y-139974228D01*
X135146980Y-140069466D01*
X135194600Y-140212323D01*
X135242219Y-140259942D01*
X135575552Y-140831371D02*
X135527933Y-140736133D01*
X135480314Y-140688514D01*
X135385076Y-140640895D01*
X135337457Y-140640895D01*
X135242219Y-140688514D01*
X135194600Y-140736133D01*
X135146980Y-140831371D01*
X135146980Y-141021847D01*
X135194600Y-141117085D01*
X135242219Y-141164704D01*
X135337457Y-141212323D01*
X135385076Y-141212323D01*
X135480314Y-141164704D01*
X135527933Y-141117085D01*
X135575552Y-141021847D01*
X135575552Y-140831371D01*
X135623171Y-140736133D01*
X135670790Y-140688514D01*
X135766028Y-140640895D01*
X135956504Y-140640895D01*
X136051742Y-140688514D01*
X136099361Y-140736133D01*
X136146980Y-140831371D01*
X136146980Y-141021847D01*
X136099361Y-141117085D01*
X136051742Y-141164704D01*
X135956504Y-141212323D01*
X135766028Y-141212323D01*
X135670790Y-141164704D01*
X135623171Y-141117085D01*
X135575552Y-141021847D01*
X135146980Y-141831371D02*
X135146980Y-141926609D01*
X135194600Y-142021847D01*
X135242219Y-142069466D01*
X135337457Y-142117085D01*
X135527933Y-142164704D01*
X135766028Y-142164704D01*
X135956504Y-142117085D01*
X136051742Y-142069466D01*
X136099361Y-142021847D01*
X136146980Y-141926609D01*
X136146980Y-141831371D01*
X136099361Y-141736133D01*
X136051742Y-141688514D01*
X135956504Y-141640895D01*
X135766028Y-141593276D01*
X135527933Y-141593276D01*
X135337457Y-141640895D01*
X135242219Y-141688514D01*
X135194600Y-141736133D01*
X135146980Y-141831371D01*
%TO.C,R53*%
X155738857Y-132421980D02*
X156072190Y-131945790D01*
X156310285Y-132421980D02*
X156310285Y-131421980D01*
X155929333Y-131421980D01*
X155834095Y-131469600D01*
X155786476Y-131517219D01*
X155738857Y-131612457D01*
X155738857Y-131755314D01*
X155786476Y-131850552D01*
X155834095Y-131898171D01*
X155929333Y-131945790D01*
X156310285Y-131945790D01*
X154834095Y-131421980D02*
X155310285Y-131421980D01*
X155357904Y-131898171D01*
X155310285Y-131850552D01*
X155215047Y-131802933D01*
X154976952Y-131802933D01*
X154881714Y-131850552D01*
X154834095Y-131898171D01*
X154786476Y-131993409D01*
X154786476Y-132231504D01*
X154834095Y-132326742D01*
X154881714Y-132374361D01*
X154976952Y-132421980D01*
X155215047Y-132421980D01*
X155310285Y-132374361D01*
X155357904Y-132326742D01*
X154453142Y-131421980D02*
X153834095Y-131421980D01*
X154167428Y-131802933D01*
X154024571Y-131802933D01*
X153929333Y-131850552D01*
X153881714Y-131898171D01*
X153834095Y-131993409D01*
X153834095Y-132231504D01*
X153881714Y-132326742D01*
X153929333Y-132374361D01*
X154024571Y-132421980D01*
X154310285Y-132421980D01*
X154405523Y-132374361D01*
X154453142Y-132326742D01*
%TO.C,C82*%
X131606742Y-116739542D02*
X131654361Y-116691923D01*
X131701980Y-116549066D01*
X131701980Y-116453828D01*
X131654361Y-116310971D01*
X131559123Y-116215733D01*
X131463885Y-116168114D01*
X131273409Y-116120495D01*
X131130552Y-116120495D01*
X130940076Y-116168114D01*
X130844838Y-116215733D01*
X130749600Y-116310971D01*
X130701980Y-116453828D01*
X130701980Y-116549066D01*
X130749600Y-116691923D01*
X130797219Y-116739542D01*
X131130552Y-117310971D02*
X131082933Y-117215733D01*
X131035314Y-117168114D01*
X130940076Y-117120495D01*
X130892457Y-117120495D01*
X130797219Y-117168114D01*
X130749600Y-117215733D01*
X130701980Y-117310971D01*
X130701980Y-117501447D01*
X130749600Y-117596685D01*
X130797219Y-117644304D01*
X130892457Y-117691923D01*
X130940076Y-117691923D01*
X131035314Y-117644304D01*
X131082933Y-117596685D01*
X131130552Y-117501447D01*
X131130552Y-117310971D01*
X131178171Y-117215733D01*
X131225790Y-117168114D01*
X131321028Y-117120495D01*
X131511504Y-117120495D01*
X131606742Y-117168114D01*
X131654361Y-117215733D01*
X131701980Y-117310971D01*
X131701980Y-117501447D01*
X131654361Y-117596685D01*
X131606742Y-117644304D01*
X131511504Y-117691923D01*
X131321028Y-117691923D01*
X131225790Y-117644304D01*
X131178171Y-117596685D01*
X131130552Y-117501447D01*
X130797219Y-118072876D02*
X130749600Y-118120495D01*
X130701980Y-118215733D01*
X130701980Y-118453828D01*
X130749600Y-118549066D01*
X130797219Y-118596685D01*
X130892457Y-118644304D01*
X130987695Y-118644304D01*
X131130552Y-118596685D01*
X131701980Y-118025257D01*
X131701980Y-118644304D01*
%TO.C,R62*%
X148722380Y-143057142D02*
X148246190Y-142723809D01*
X148722380Y-142485714D02*
X147722380Y-142485714D01*
X147722380Y-142866666D01*
X147770000Y-142961904D01*
X147817619Y-143009523D01*
X147912857Y-143057142D01*
X148055714Y-143057142D01*
X148150952Y-143009523D01*
X148198571Y-142961904D01*
X148246190Y-142866666D01*
X148246190Y-142485714D01*
X147722380Y-143914285D02*
X147722380Y-143723809D01*
X147770000Y-143628571D01*
X147817619Y-143580952D01*
X147960476Y-143485714D01*
X148150952Y-143438095D01*
X148531904Y-143438095D01*
X148627142Y-143485714D01*
X148674761Y-143533333D01*
X148722380Y-143628571D01*
X148722380Y-143819047D01*
X148674761Y-143914285D01*
X148627142Y-143961904D01*
X148531904Y-144009523D01*
X148293809Y-144009523D01*
X148198571Y-143961904D01*
X148150952Y-143914285D01*
X148103333Y-143819047D01*
X148103333Y-143628571D01*
X148150952Y-143533333D01*
X148198571Y-143485714D01*
X148293809Y-143438095D01*
X147817619Y-144390476D02*
X147770000Y-144438095D01*
X147722380Y-144533333D01*
X147722380Y-144771428D01*
X147770000Y-144866666D01*
X147817619Y-144914285D01*
X147912857Y-144961904D01*
X148008095Y-144961904D01*
X148150952Y-144914285D01*
X148722380Y-144342857D01*
X148722380Y-144961904D01*
%TO.C,R63*%
X146022380Y-142957142D02*
X145546190Y-142623809D01*
X146022380Y-142385714D02*
X145022380Y-142385714D01*
X145022380Y-142766666D01*
X145070000Y-142861904D01*
X145117619Y-142909523D01*
X145212857Y-142957142D01*
X145355714Y-142957142D01*
X145450952Y-142909523D01*
X145498571Y-142861904D01*
X145546190Y-142766666D01*
X145546190Y-142385714D01*
X145022380Y-143814285D02*
X145022380Y-143623809D01*
X145070000Y-143528571D01*
X145117619Y-143480952D01*
X145260476Y-143385714D01*
X145450952Y-143338095D01*
X145831904Y-143338095D01*
X145927142Y-143385714D01*
X145974761Y-143433333D01*
X146022380Y-143528571D01*
X146022380Y-143719047D01*
X145974761Y-143814285D01*
X145927142Y-143861904D01*
X145831904Y-143909523D01*
X145593809Y-143909523D01*
X145498571Y-143861904D01*
X145450952Y-143814285D01*
X145403333Y-143719047D01*
X145403333Y-143528571D01*
X145450952Y-143433333D01*
X145498571Y-143385714D01*
X145593809Y-143338095D01*
X145022380Y-144242857D02*
X145022380Y-144861904D01*
X145403333Y-144528571D01*
X145403333Y-144671428D01*
X145450952Y-144766666D01*
X145498571Y-144814285D01*
X145593809Y-144861904D01*
X145831904Y-144861904D01*
X145927142Y-144814285D01*
X145974761Y-144766666D01*
X146022380Y-144671428D01*
X146022380Y-144385714D01*
X145974761Y-144290476D01*
X145927142Y-144242857D01*
%TO.C,C66*%
X155688057Y-133850742D02*
X155735676Y-133898361D01*
X155878533Y-133945980D01*
X155973771Y-133945980D01*
X156116628Y-133898361D01*
X156211866Y-133803123D01*
X156259485Y-133707885D01*
X156307104Y-133517409D01*
X156307104Y-133374552D01*
X156259485Y-133184076D01*
X156211866Y-133088838D01*
X156116628Y-132993600D01*
X155973771Y-132945980D01*
X155878533Y-132945980D01*
X155735676Y-132993600D01*
X155688057Y-133041219D01*
X154830914Y-132945980D02*
X155021390Y-132945980D01*
X155116628Y-132993600D01*
X155164247Y-133041219D01*
X155259485Y-133184076D01*
X155307104Y-133374552D01*
X155307104Y-133755504D01*
X155259485Y-133850742D01*
X155211866Y-133898361D01*
X155116628Y-133945980D01*
X154926152Y-133945980D01*
X154830914Y-133898361D01*
X154783295Y-133850742D01*
X154735676Y-133755504D01*
X154735676Y-133517409D01*
X154783295Y-133422171D01*
X154830914Y-133374552D01*
X154926152Y-133326933D01*
X155116628Y-133326933D01*
X155211866Y-133374552D01*
X155259485Y-133422171D01*
X155307104Y-133517409D01*
X153878533Y-132945980D02*
X154069009Y-132945980D01*
X154164247Y-132993600D01*
X154211866Y-133041219D01*
X154307104Y-133184076D01*
X154354723Y-133374552D01*
X154354723Y-133755504D01*
X154307104Y-133850742D01*
X154259485Y-133898361D01*
X154164247Y-133945980D01*
X153973771Y-133945980D01*
X153878533Y-133898361D01*
X153830914Y-133850742D01*
X153783295Y-133755504D01*
X153783295Y-133517409D01*
X153830914Y-133422171D01*
X153878533Y-133374552D01*
X153973771Y-133326933D01*
X154164247Y-133326933D01*
X154259485Y-133374552D01*
X154307104Y-133422171D01*
X154354723Y-133517409D01*
%TO.C,C77*%
X148842857Y-148907142D02*
X148890476Y-148954761D01*
X149033333Y-149002380D01*
X149128571Y-149002380D01*
X149271428Y-148954761D01*
X149366666Y-148859523D01*
X149414285Y-148764285D01*
X149461904Y-148573809D01*
X149461904Y-148430952D01*
X149414285Y-148240476D01*
X149366666Y-148145238D01*
X149271428Y-148050000D01*
X149128571Y-148002380D01*
X149033333Y-148002380D01*
X148890476Y-148050000D01*
X148842857Y-148097619D01*
X148509523Y-148002380D02*
X147842857Y-148002380D01*
X148271428Y-149002380D01*
X147557142Y-148002380D02*
X146890476Y-148002380D01*
X147319047Y-149002380D01*
%TO.C,C75*%
X148601457Y-120576742D02*
X148649076Y-120624361D01*
X148791933Y-120671980D01*
X148887171Y-120671980D01*
X149030028Y-120624361D01*
X149125266Y-120529123D01*
X149172885Y-120433885D01*
X149220504Y-120243409D01*
X149220504Y-120100552D01*
X149172885Y-119910076D01*
X149125266Y-119814838D01*
X149030028Y-119719600D01*
X148887171Y-119671980D01*
X148791933Y-119671980D01*
X148649076Y-119719600D01*
X148601457Y-119767219D01*
X148268123Y-119671980D02*
X147601457Y-119671980D01*
X148030028Y-120671980D01*
X146744314Y-119671980D02*
X147220504Y-119671980D01*
X147268123Y-120148171D01*
X147220504Y-120100552D01*
X147125266Y-120052933D01*
X146887171Y-120052933D01*
X146791933Y-120100552D01*
X146744314Y-120148171D01*
X146696695Y-120243409D01*
X146696695Y-120481504D01*
X146744314Y-120576742D01*
X146791933Y-120624361D01*
X146887171Y-120671980D01*
X147125266Y-120671980D01*
X147220504Y-120624361D01*
X147268123Y-120576742D01*
%TO.C,R65*%
X131654580Y-116841142D02*
X131178390Y-116507809D01*
X131654580Y-116269714D02*
X130654580Y-116269714D01*
X130654580Y-116650666D01*
X130702200Y-116745904D01*
X130749819Y-116793523D01*
X130845057Y-116841142D01*
X130987914Y-116841142D01*
X131083152Y-116793523D01*
X131130771Y-116745904D01*
X131178390Y-116650666D01*
X131178390Y-116269714D01*
X130654580Y-117698285D02*
X130654580Y-117507809D01*
X130702200Y-117412571D01*
X130749819Y-117364952D01*
X130892676Y-117269714D01*
X131083152Y-117222095D01*
X131464104Y-117222095D01*
X131559342Y-117269714D01*
X131606961Y-117317333D01*
X131654580Y-117412571D01*
X131654580Y-117603047D01*
X131606961Y-117698285D01*
X131559342Y-117745904D01*
X131464104Y-117793523D01*
X131226009Y-117793523D01*
X131130771Y-117745904D01*
X131083152Y-117698285D01*
X131035533Y-117603047D01*
X131035533Y-117412571D01*
X131083152Y-117317333D01*
X131130771Y-117269714D01*
X131226009Y-117222095D01*
X130654580Y-118698285D02*
X130654580Y-118222095D01*
X131130771Y-118174476D01*
X131083152Y-118222095D01*
X131035533Y-118317333D01*
X131035533Y-118555428D01*
X131083152Y-118650666D01*
X131130771Y-118698285D01*
X131226009Y-118745904D01*
X131464104Y-118745904D01*
X131559342Y-118698285D01*
X131606961Y-118650666D01*
X131654580Y-118555428D01*
X131654580Y-118317333D01*
X131606961Y-118222095D01*
X131559342Y-118174476D01*
D11*
%TO.C,Q9*%
X140749152Y-141293476D02*
X140870104Y-141233000D01*
X140991057Y-141112047D01*
X141172485Y-140930619D01*
X141293438Y-140870142D01*
X141414390Y-140870142D01*
X141353914Y-141172523D02*
X141474866Y-141112047D01*
X141595819Y-140991095D01*
X141656295Y-140749190D01*
X141656295Y-140325857D01*
X141595819Y-140083952D01*
X141474866Y-139963000D01*
X141353914Y-139902523D01*
X141112009Y-139902523D01*
X140991057Y-139963000D01*
X140870104Y-140083952D01*
X140809628Y-140325857D01*
X140809628Y-140749190D01*
X140870104Y-140991095D01*
X140991057Y-141112047D01*
X141112009Y-141172523D01*
X141353914Y-141172523D01*
X140204866Y-141172523D02*
X139962961Y-141172523D01*
X139842009Y-141112047D01*
X139781533Y-141051571D01*
X139660580Y-140870142D01*
X139600104Y-140628238D01*
X139600104Y-140144428D01*
X139660580Y-140023476D01*
X139721057Y-139963000D01*
X139842009Y-139902523D01*
X140083914Y-139902523D01*
X140204866Y-139963000D01*
X140265342Y-140023476D01*
X140325819Y-140144428D01*
X140325819Y-140446809D01*
X140265342Y-140567761D01*
X140204866Y-140628238D01*
X140083914Y-140688714D01*
X139842009Y-140688714D01*
X139721057Y-140628238D01*
X139660580Y-140567761D01*
X139600104Y-140446809D01*
D10*
%TO.C,D5*%
X143997980Y-135999104D02*
X142997980Y-135999104D01*
X142997980Y-136237200D01*
X143045600Y-136380057D01*
X143140838Y-136475295D01*
X143236076Y-136522914D01*
X143426552Y-136570533D01*
X143569409Y-136570533D01*
X143759885Y-136522914D01*
X143855123Y-136475295D01*
X143950361Y-136380057D01*
X143997980Y-136237200D01*
X143997980Y-135999104D01*
X142997980Y-137475295D02*
X142997980Y-136999104D01*
X143474171Y-136951485D01*
X143426552Y-136999104D01*
X143378933Y-137094342D01*
X143378933Y-137332438D01*
X143426552Y-137427676D01*
X143474171Y-137475295D01*
X143569409Y-137522914D01*
X143807504Y-137522914D01*
X143902742Y-137475295D01*
X143950361Y-137427676D01*
X143997980Y-137332438D01*
X143997980Y-137094342D01*
X143950361Y-136999104D01*
X143902742Y-136951485D01*
%TO.C,C86*%
X157847057Y-125583942D02*
X157894676Y-125631561D01*
X158037533Y-125679180D01*
X158132771Y-125679180D01*
X158275628Y-125631561D01*
X158370866Y-125536323D01*
X158418485Y-125441085D01*
X158466104Y-125250609D01*
X158466104Y-125107752D01*
X158418485Y-124917276D01*
X158370866Y-124822038D01*
X158275628Y-124726800D01*
X158132771Y-124679180D01*
X158037533Y-124679180D01*
X157894676Y-124726800D01*
X157847057Y-124774419D01*
X157275628Y-125107752D02*
X157370866Y-125060133D01*
X157418485Y-125012514D01*
X157466104Y-124917276D01*
X157466104Y-124869657D01*
X157418485Y-124774419D01*
X157370866Y-124726800D01*
X157275628Y-124679180D01*
X157085152Y-124679180D01*
X156989914Y-124726800D01*
X156942295Y-124774419D01*
X156894676Y-124869657D01*
X156894676Y-124917276D01*
X156942295Y-125012514D01*
X156989914Y-125060133D01*
X157085152Y-125107752D01*
X157275628Y-125107752D01*
X157370866Y-125155371D01*
X157418485Y-125202990D01*
X157466104Y-125298228D01*
X157466104Y-125488704D01*
X157418485Y-125583942D01*
X157370866Y-125631561D01*
X157275628Y-125679180D01*
X157085152Y-125679180D01*
X156989914Y-125631561D01*
X156942295Y-125583942D01*
X156894676Y-125488704D01*
X156894676Y-125298228D01*
X156942295Y-125202990D01*
X156989914Y-125155371D01*
X157085152Y-125107752D01*
X156037533Y-124679180D02*
X156228009Y-124679180D01*
X156323247Y-124726800D01*
X156370866Y-124774419D01*
X156466104Y-124917276D01*
X156513723Y-125107752D01*
X156513723Y-125488704D01*
X156466104Y-125583942D01*
X156418485Y-125631561D01*
X156323247Y-125679180D01*
X156132771Y-125679180D01*
X156037533Y-125631561D01*
X155989914Y-125583942D01*
X155942295Y-125488704D01*
X155942295Y-125250609D01*
X155989914Y-125155371D01*
X156037533Y-125107752D01*
X156132771Y-125060133D01*
X156323247Y-125060133D01*
X156418485Y-125107752D01*
X156466104Y-125155371D01*
X156513723Y-125250609D01*
%TO.C,R44*%
X174181380Y-78841142D02*
X173705190Y-78507809D01*
X174181380Y-78269714D02*
X173181380Y-78269714D01*
X173181380Y-78650666D01*
X173229000Y-78745904D01*
X173276619Y-78793523D01*
X173371857Y-78841142D01*
X173514714Y-78841142D01*
X173609952Y-78793523D01*
X173657571Y-78745904D01*
X173705190Y-78650666D01*
X173705190Y-78269714D01*
X173514714Y-79698285D02*
X174181380Y-79698285D01*
X173133761Y-79460190D02*
X173848047Y-79222095D01*
X173848047Y-79841142D01*
X173514714Y-80650666D02*
X174181380Y-80650666D01*
X173133761Y-80412571D02*
X173848047Y-80174476D01*
X173848047Y-80793523D01*
%TO.C,M3*%
X197798780Y-75804276D02*
X196798780Y-75804276D01*
X197513066Y-76137609D01*
X196798780Y-76470942D01*
X197798780Y-76470942D01*
X196798780Y-76851895D02*
X196798780Y-77470942D01*
X197179733Y-77137609D01*
X197179733Y-77280466D01*
X197227352Y-77375704D01*
X197274971Y-77423323D01*
X197370209Y-77470942D01*
X197608304Y-77470942D01*
X197703542Y-77423323D01*
X197751161Y-77375704D01*
X197798780Y-77280466D01*
X197798780Y-76994752D01*
X197751161Y-76899514D01*
X197703542Y-76851895D01*
%TO.C,C49*%
X174973857Y-97803142D02*
X175021476Y-97850761D01*
X175164333Y-97898380D01*
X175259571Y-97898380D01*
X175402428Y-97850761D01*
X175497666Y-97755523D01*
X175545285Y-97660285D01*
X175592904Y-97469809D01*
X175592904Y-97326952D01*
X175545285Y-97136476D01*
X175497666Y-97041238D01*
X175402428Y-96946000D01*
X175259571Y-96898380D01*
X175164333Y-96898380D01*
X175021476Y-96946000D01*
X174973857Y-96993619D01*
X174116714Y-97231714D02*
X174116714Y-97898380D01*
X174354809Y-96850761D02*
X174592904Y-97565047D01*
X173973857Y-97565047D01*
X173545285Y-97898380D02*
X173354809Y-97898380D01*
X173259571Y-97850761D01*
X173211952Y-97803142D01*
X173116714Y-97660285D01*
X173069095Y-97469809D01*
X173069095Y-97088857D01*
X173116714Y-96993619D01*
X173164333Y-96946000D01*
X173259571Y-96898380D01*
X173450047Y-96898380D01*
X173545285Y-96946000D01*
X173592904Y-96993619D01*
X173640523Y-97088857D01*
X173640523Y-97326952D01*
X173592904Y-97422190D01*
X173545285Y-97469809D01*
X173450047Y-97517428D01*
X173259571Y-97517428D01*
X173164333Y-97469809D01*
X173116714Y-97422190D01*
X173069095Y-97326952D01*
%TO.C,C25*%
X195980942Y-83019142D02*
X196028561Y-82971523D01*
X196076180Y-82828666D01*
X196076180Y-82733428D01*
X196028561Y-82590571D01*
X195933323Y-82495333D01*
X195838085Y-82447714D01*
X195647609Y-82400095D01*
X195504752Y-82400095D01*
X195314276Y-82447714D01*
X195219038Y-82495333D01*
X195123800Y-82590571D01*
X195076180Y-82733428D01*
X195076180Y-82828666D01*
X195123800Y-82971523D01*
X195171419Y-83019142D01*
X195171419Y-83400095D02*
X195123800Y-83447714D01*
X195076180Y-83542952D01*
X195076180Y-83781047D01*
X195123800Y-83876285D01*
X195171419Y-83923904D01*
X195266657Y-83971523D01*
X195361895Y-83971523D01*
X195504752Y-83923904D01*
X196076180Y-83352476D01*
X196076180Y-83971523D01*
X195076180Y-84876285D02*
X195076180Y-84400095D01*
X195552371Y-84352476D01*
X195504752Y-84400095D01*
X195457133Y-84495333D01*
X195457133Y-84733428D01*
X195504752Y-84828666D01*
X195552371Y-84876285D01*
X195647609Y-84923904D01*
X195885704Y-84923904D01*
X195980942Y-84876285D01*
X196028561Y-84828666D01*
X196076180Y-84733428D01*
X196076180Y-84495333D01*
X196028561Y-84400095D01*
X195980942Y-84352476D01*
%TO.C,C27*%
X192626857Y-84049942D02*
X192674476Y-84097561D01*
X192817333Y-84145180D01*
X192912571Y-84145180D01*
X193055428Y-84097561D01*
X193150666Y-84002323D01*
X193198285Y-83907085D01*
X193245904Y-83716609D01*
X193245904Y-83573752D01*
X193198285Y-83383276D01*
X193150666Y-83288038D01*
X193055428Y-83192800D01*
X192912571Y-83145180D01*
X192817333Y-83145180D01*
X192674476Y-83192800D01*
X192626857Y-83240419D01*
X192245904Y-83240419D02*
X192198285Y-83192800D01*
X192103047Y-83145180D01*
X191864952Y-83145180D01*
X191769714Y-83192800D01*
X191722095Y-83240419D01*
X191674476Y-83335657D01*
X191674476Y-83430895D01*
X191722095Y-83573752D01*
X192293523Y-84145180D01*
X191674476Y-84145180D01*
X191341142Y-83145180D02*
X190674476Y-83145180D01*
X191103047Y-84145180D01*
%TO.C,M4*%
X170681980Y-75601076D02*
X169681980Y-75601076D01*
X170396266Y-75934409D01*
X169681980Y-76267742D01*
X170681980Y-76267742D01*
X170015314Y-77172504D02*
X170681980Y-77172504D01*
X169634361Y-76934409D02*
X170348647Y-76696314D01*
X170348647Y-77315361D01*
%TO.C,R43*%
X200521180Y-79298342D02*
X200044990Y-78965009D01*
X200521180Y-78726914D02*
X199521180Y-78726914D01*
X199521180Y-79107866D01*
X199568800Y-79203104D01*
X199616419Y-79250723D01*
X199711657Y-79298342D01*
X199854514Y-79298342D01*
X199949752Y-79250723D01*
X199997371Y-79203104D01*
X200044990Y-79107866D01*
X200044990Y-78726914D01*
X199854514Y-80155485D02*
X200521180Y-80155485D01*
X199473561Y-79917390D02*
X200187847Y-79679295D01*
X200187847Y-80298342D01*
X199521180Y-80584057D02*
X199521180Y-81203104D01*
X199902133Y-80869771D01*
X199902133Y-81012628D01*
X199949752Y-81107866D01*
X199997371Y-81155485D01*
X200092609Y-81203104D01*
X200330704Y-81203104D01*
X200425942Y-81155485D01*
X200473561Y-81107866D01*
X200521180Y-81012628D01*
X200521180Y-80726914D01*
X200473561Y-80631676D01*
X200425942Y-80584057D01*
%TO.C,R35*%
X181958857Y-92110580D02*
X182292190Y-91634390D01*
X182530285Y-92110580D02*
X182530285Y-91110580D01*
X182149333Y-91110580D01*
X182054095Y-91158200D01*
X182006476Y-91205819D01*
X181958857Y-91301057D01*
X181958857Y-91443914D01*
X182006476Y-91539152D01*
X182054095Y-91586771D01*
X182149333Y-91634390D01*
X182530285Y-91634390D01*
X181625523Y-91110580D02*
X181006476Y-91110580D01*
X181339809Y-91491533D01*
X181196952Y-91491533D01*
X181101714Y-91539152D01*
X181054095Y-91586771D01*
X181006476Y-91682009D01*
X181006476Y-91920104D01*
X181054095Y-92015342D01*
X181101714Y-92062961D01*
X181196952Y-92110580D01*
X181482666Y-92110580D01*
X181577904Y-92062961D01*
X181625523Y-92015342D01*
X180101714Y-91110580D02*
X180577904Y-91110580D01*
X180625523Y-91586771D01*
X180577904Y-91539152D01*
X180482666Y-91491533D01*
X180244571Y-91491533D01*
X180149333Y-91539152D01*
X180101714Y-91586771D01*
X180054095Y-91682009D01*
X180054095Y-91920104D01*
X180101714Y-92015342D01*
X180149333Y-92062961D01*
X180244571Y-92110580D01*
X180482666Y-92110580D01*
X180577904Y-92062961D01*
X180625523Y-92015342D01*
%TO.C,C53*%
X202149742Y-92707742D02*
X202197361Y-92660123D01*
X202244980Y-92517266D01*
X202244980Y-92422028D01*
X202197361Y-92279171D01*
X202102123Y-92183933D01*
X202006885Y-92136314D01*
X201816409Y-92088695D01*
X201673552Y-92088695D01*
X201483076Y-92136314D01*
X201387838Y-92183933D01*
X201292600Y-92279171D01*
X201244980Y-92422028D01*
X201244980Y-92517266D01*
X201292600Y-92660123D01*
X201340219Y-92707742D01*
X201244980Y-93612504D02*
X201244980Y-93136314D01*
X201721171Y-93088695D01*
X201673552Y-93136314D01*
X201625933Y-93231552D01*
X201625933Y-93469647D01*
X201673552Y-93564885D01*
X201721171Y-93612504D01*
X201816409Y-93660123D01*
X202054504Y-93660123D01*
X202149742Y-93612504D01*
X202197361Y-93564885D01*
X202244980Y-93469647D01*
X202244980Y-93231552D01*
X202197361Y-93136314D01*
X202149742Y-93088695D01*
X201244980Y-93993457D02*
X201244980Y-94612504D01*
X201625933Y-94279171D01*
X201625933Y-94422028D01*
X201673552Y-94517266D01*
X201721171Y-94564885D01*
X201816409Y-94612504D01*
X202054504Y-94612504D01*
X202149742Y-94564885D01*
X202197361Y-94517266D01*
X202244980Y-94422028D01*
X202244980Y-94136314D01*
X202197361Y-94041076D01*
X202149742Y-93993457D01*
%TO.C,J16*%
X205976123Y-83521780D02*
X205976123Y-84236066D01*
X206023742Y-84378923D01*
X206118980Y-84474161D01*
X206261838Y-84521780D01*
X206357076Y-84521780D01*
X204976123Y-84521780D02*
X205547552Y-84521780D01*
X205261838Y-84521780D02*
X205261838Y-83521780D01*
X205357076Y-83664638D01*
X205452314Y-83759876D01*
X205547552Y-83807495D01*
X204118980Y-83521780D02*
X204309457Y-83521780D01*
X204404695Y-83569400D01*
X204452314Y-83617019D01*
X204547552Y-83759876D01*
X204595171Y-83950352D01*
X204595171Y-84331304D01*
X204547552Y-84426542D01*
X204499933Y-84474161D01*
X204404695Y-84521780D01*
X204214219Y-84521780D01*
X204118980Y-84474161D01*
X204071361Y-84426542D01*
X204023742Y-84331304D01*
X204023742Y-84093209D01*
X204071361Y-83997971D01*
X204118980Y-83950352D01*
X204214219Y-83902733D01*
X204404695Y-83902733D01*
X204499933Y-83950352D01*
X204547552Y-83997971D01*
X204595171Y-84093209D01*
%TO.C,J12*%
X171762323Y-98012380D02*
X171762323Y-98726666D01*
X171809942Y-98869523D01*
X171905180Y-98964761D01*
X172048038Y-99012380D01*
X172143276Y-99012380D01*
X170762323Y-99012380D02*
X171333752Y-99012380D01*
X171048038Y-99012380D02*
X171048038Y-98012380D01*
X171143276Y-98155238D01*
X171238514Y-98250476D01*
X171333752Y-98298095D01*
X170381371Y-98107619D02*
X170333752Y-98060000D01*
X170238514Y-98012380D01*
X170000419Y-98012380D01*
X169905180Y-98060000D01*
X169857561Y-98107619D01*
X169809942Y-98202857D01*
X169809942Y-98298095D01*
X169857561Y-98440952D01*
X170428990Y-99012380D01*
X169809942Y-99012380D01*
%TO.C,C48*%
X183751742Y-106908142D02*
X183799361Y-106860523D01*
X183846980Y-106717666D01*
X183846980Y-106622428D01*
X183799361Y-106479571D01*
X183704123Y-106384333D01*
X183608885Y-106336714D01*
X183418409Y-106289095D01*
X183275552Y-106289095D01*
X183085076Y-106336714D01*
X182989838Y-106384333D01*
X182894600Y-106479571D01*
X182846980Y-106622428D01*
X182846980Y-106717666D01*
X182894600Y-106860523D01*
X182942219Y-106908142D01*
X183180314Y-107765285D02*
X183846980Y-107765285D01*
X182799361Y-107527190D02*
X183513647Y-107289095D01*
X183513647Y-107908142D01*
X183275552Y-108431952D02*
X183227933Y-108336714D01*
X183180314Y-108289095D01*
X183085076Y-108241476D01*
X183037457Y-108241476D01*
X182942219Y-108289095D01*
X182894600Y-108336714D01*
X182846980Y-108431952D01*
X182846980Y-108622428D01*
X182894600Y-108717666D01*
X182942219Y-108765285D01*
X183037457Y-108812904D01*
X183085076Y-108812904D01*
X183180314Y-108765285D01*
X183227933Y-108717666D01*
X183275552Y-108622428D01*
X183275552Y-108431952D01*
X183323171Y-108336714D01*
X183370790Y-108289095D01*
X183466028Y-108241476D01*
X183656504Y-108241476D01*
X183751742Y-108289095D01*
X183799361Y-108336714D01*
X183846980Y-108431952D01*
X183846980Y-108622428D01*
X183799361Y-108717666D01*
X183751742Y-108765285D01*
X183656504Y-108812904D01*
X183466028Y-108812904D01*
X183370790Y-108765285D01*
X183323171Y-108717666D01*
X183275552Y-108622428D01*
%TO.C,C38*%
X202899942Y-103428342D02*
X202947561Y-103380723D01*
X202995180Y-103237866D01*
X202995180Y-103142628D01*
X202947561Y-102999771D01*
X202852323Y-102904533D01*
X202757085Y-102856914D01*
X202566609Y-102809295D01*
X202423752Y-102809295D01*
X202233276Y-102856914D01*
X202138038Y-102904533D01*
X202042800Y-102999771D01*
X201995180Y-103142628D01*
X201995180Y-103237866D01*
X202042800Y-103380723D01*
X202090419Y-103428342D01*
X201995180Y-103761676D02*
X201995180Y-104380723D01*
X202376133Y-104047390D01*
X202376133Y-104190247D01*
X202423752Y-104285485D01*
X202471371Y-104333104D01*
X202566609Y-104380723D01*
X202804704Y-104380723D01*
X202899942Y-104333104D01*
X202947561Y-104285485D01*
X202995180Y-104190247D01*
X202995180Y-103904533D01*
X202947561Y-103809295D01*
X202899942Y-103761676D01*
X202423752Y-104952152D02*
X202376133Y-104856914D01*
X202328514Y-104809295D01*
X202233276Y-104761676D01*
X202185657Y-104761676D01*
X202090419Y-104809295D01*
X202042800Y-104856914D01*
X201995180Y-104952152D01*
X201995180Y-105142628D01*
X202042800Y-105237866D01*
X202090419Y-105285485D01*
X202185657Y-105333104D01*
X202233276Y-105333104D01*
X202328514Y-105285485D01*
X202376133Y-105237866D01*
X202423752Y-105142628D01*
X202423752Y-104952152D01*
X202471371Y-104856914D01*
X202518990Y-104809295D01*
X202614228Y-104761676D01*
X202804704Y-104761676D01*
X202899942Y-104809295D01*
X202947561Y-104856914D01*
X202995180Y-104952152D01*
X202995180Y-105142628D01*
X202947561Y-105237866D01*
X202899942Y-105285485D01*
X202804704Y-105333104D01*
X202614228Y-105333104D01*
X202518990Y-105285485D01*
X202471371Y-105237866D01*
X202423752Y-105142628D01*
%TO.C,C41*%
X196082542Y-100100942D02*
X196130161Y-100053323D01*
X196177780Y-99910466D01*
X196177780Y-99815228D01*
X196130161Y-99672371D01*
X196034923Y-99577133D01*
X195939685Y-99529514D01*
X195749209Y-99481895D01*
X195606352Y-99481895D01*
X195415876Y-99529514D01*
X195320638Y-99577133D01*
X195225400Y-99672371D01*
X195177780Y-99815228D01*
X195177780Y-99910466D01*
X195225400Y-100053323D01*
X195273019Y-100100942D01*
X195511114Y-100958085D02*
X196177780Y-100958085D01*
X195130161Y-100719990D02*
X195844447Y-100481895D01*
X195844447Y-101100942D01*
X196177780Y-102005704D02*
X196177780Y-101434276D01*
X196177780Y-101719990D02*
X195177780Y-101719990D01*
X195320638Y-101624752D01*
X195415876Y-101529514D01*
X195463495Y-101434276D01*
%TO.C,C29*%
X201514742Y-79857142D02*
X201562361Y-79809523D01*
X201609980Y-79666666D01*
X201609980Y-79571428D01*
X201562361Y-79428571D01*
X201467123Y-79333333D01*
X201371885Y-79285714D01*
X201181409Y-79238095D01*
X201038552Y-79238095D01*
X200848076Y-79285714D01*
X200752838Y-79333333D01*
X200657600Y-79428571D01*
X200609980Y-79571428D01*
X200609980Y-79666666D01*
X200657600Y-79809523D01*
X200705219Y-79857142D01*
X200705219Y-80238095D02*
X200657600Y-80285714D01*
X200609980Y-80380952D01*
X200609980Y-80619047D01*
X200657600Y-80714285D01*
X200705219Y-80761904D01*
X200800457Y-80809523D01*
X200895695Y-80809523D01*
X201038552Y-80761904D01*
X201609980Y-80190476D01*
X201609980Y-80809523D01*
X201609980Y-81285714D02*
X201609980Y-81476190D01*
X201562361Y-81571428D01*
X201514742Y-81619047D01*
X201371885Y-81714285D01*
X201181409Y-81761904D01*
X200800457Y-81761904D01*
X200705219Y-81714285D01*
X200657600Y-81666666D01*
X200609980Y-81571428D01*
X200609980Y-81380952D01*
X200657600Y-81285714D01*
X200705219Y-81238095D01*
X200800457Y-81190476D01*
X201038552Y-81190476D01*
X201133790Y-81238095D01*
X201181409Y-81285714D01*
X201229028Y-81380952D01*
X201229028Y-81571428D01*
X201181409Y-81666666D01*
X201133790Y-81714285D01*
X201038552Y-81761904D01*
D11*
%TO.C,IC4*%
X181153923Y-94957438D02*
X179883923Y-94957438D01*
X181032971Y-96287914D02*
X181093447Y-96227438D01*
X181153923Y-96046009D01*
X181153923Y-95925057D01*
X181093447Y-95743628D01*
X180972495Y-95622676D01*
X180851542Y-95562200D01*
X180609638Y-95501723D01*
X180428209Y-95501723D01*
X180186304Y-95562200D01*
X180065352Y-95622676D01*
X179944400Y-95743628D01*
X179883923Y-95925057D01*
X179883923Y-96046009D01*
X179944400Y-96227438D01*
X180004876Y-96287914D01*
X180307257Y-97376485D02*
X181153923Y-97376485D01*
X179823447Y-97074104D02*
X180730590Y-96771723D01*
X180730590Y-97557914D01*
D10*
%TO.C,R41*%
X202019780Y-79298342D02*
X201543590Y-78965009D01*
X202019780Y-78726914D02*
X201019780Y-78726914D01*
X201019780Y-79107866D01*
X201067400Y-79203104D01*
X201115019Y-79250723D01*
X201210257Y-79298342D01*
X201353114Y-79298342D01*
X201448352Y-79250723D01*
X201495971Y-79203104D01*
X201543590Y-79107866D01*
X201543590Y-78726914D01*
X201353114Y-80155485D02*
X202019780Y-80155485D01*
X200972161Y-79917390D02*
X201686447Y-79679295D01*
X201686447Y-80298342D01*
X202019780Y-81203104D02*
X202019780Y-80631676D01*
X202019780Y-80917390D02*
X201019780Y-80917390D01*
X201162638Y-80822152D01*
X201257876Y-80726914D01*
X201305495Y-80631676D01*
%TO.C,J2*%
X169833333Y-100452380D02*
X169833333Y-101166666D01*
X169880952Y-101309523D01*
X169976190Y-101404761D01*
X170119047Y-101452380D01*
X170214285Y-101452380D01*
X169404761Y-100547619D02*
X169357142Y-100500000D01*
X169261904Y-100452380D01*
X169023809Y-100452380D01*
X168928571Y-100500000D01*
X168880952Y-100547619D01*
X168833333Y-100642857D01*
X168833333Y-100738095D01*
X168880952Y-100880952D01*
X169452380Y-101452380D01*
X168833333Y-101452380D01*
%TO.C,J9*%
X185078333Y-109682380D02*
X185078333Y-110396666D01*
X185125952Y-110539523D01*
X185221190Y-110634761D01*
X185364047Y-110682380D01*
X185459285Y-110682380D01*
X184554523Y-110682380D02*
X184364047Y-110682380D01*
X184268809Y-110634761D01*
X184221190Y-110587142D01*
X184125952Y-110444285D01*
X184078333Y-110253809D01*
X184078333Y-109872857D01*
X184125952Y-109777619D01*
X184173571Y-109730000D01*
X184268809Y-109682380D01*
X184459285Y-109682380D01*
X184554523Y-109730000D01*
X184602142Y-109777619D01*
X184649761Y-109872857D01*
X184649761Y-110110952D01*
X184602142Y-110206190D01*
X184554523Y-110253809D01*
X184459285Y-110301428D01*
X184268809Y-110301428D01*
X184173571Y-110253809D01*
X184125952Y-110206190D01*
X184078333Y-110110952D01*
X186199000Y-109760000D02*
X185665666Y-109760000D01*
X185932333Y-110026666D02*
X185932333Y-109493333D01*
X185332333Y-110026666D02*
X185332333Y-109326666D01*
X184932333Y-110026666D01*
X184932333Y-109326666D01*
X184599000Y-110026666D02*
X184599000Y-109560000D01*
X184599000Y-109693333D02*
X184565666Y-109626666D01*
X184532333Y-109593333D01*
X184465666Y-109560000D01*
X184399000Y-109560000D01*
X183932333Y-109660000D02*
X183832333Y-109693333D01*
X183799000Y-109726666D01*
X183765666Y-109793333D01*
X183765666Y-109893333D01*
X183799000Y-109960000D01*
X183832333Y-109993333D01*
X183899000Y-110026666D01*
X184165666Y-110026666D01*
X184165666Y-109326666D01*
X183932333Y-109326666D01*
X183865666Y-109360000D01*
X183832333Y-109393333D01*
X183799000Y-109460000D01*
X183799000Y-109526666D01*
X183832333Y-109593333D01*
X183865666Y-109626666D01*
X183932333Y-109660000D01*
X184165666Y-109660000D01*
%TO.C,C43*%
X199764257Y-89221342D02*
X199811876Y-89268961D01*
X199954733Y-89316580D01*
X200049971Y-89316580D01*
X200192828Y-89268961D01*
X200288066Y-89173723D01*
X200335685Y-89078485D01*
X200383304Y-88888009D01*
X200383304Y-88745152D01*
X200335685Y-88554676D01*
X200288066Y-88459438D01*
X200192828Y-88364200D01*
X200049971Y-88316580D01*
X199954733Y-88316580D01*
X199811876Y-88364200D01*
X199764257Y-88411819D01*
X198907114Y-88649914D02*
X198907114Y-89316580D01*
X199145209Y-88268961D02*
X199383304Y-88983247D01*
X198764257Y-88983247D01*
X198478542Y-88316580D02*
X197859495Y-88316580D01*
X198192828Y-88697533D01*
X198049971Y-88697533D01*
X197954733Y-88745152D01*
X197907114Y-88792771D01*
X197859495Y-88888009D01*
X197859495Y-89126104D01*
X197907114Y-89221342D01*
X197954733Y-89268961D01*
X198049971Y-89316580D01*
X198335685Y-89316580D01*
X198430923Y-89268961D01*
X198478542Y-89221342D01*
%TO.C,C39*%
X186276857Y-97450942D02*
X186324476Y-97498561D01*
X186467333Y-97546180D01*
X186562571Y-97546180D01*
X186705428Y-97498561D01*
X186800666Y-97403323D01*
X186848285Y-97308085D01*
X186895904Y-97117609D01*
X186895904Y-96974752D01*
X186848285Y-96784276D01*
X186800666Y-96689038D01*
X186705428Y-96593800D01*
X186562571Y-96546180D01*
X186467333Y-96546180D01*
X186324476Y-96593800D01*
X186276857Y-96641419D01*
X185943523Y-96546180D02*
X185324476Y-96546180D01*
X185657809Y-96927133D01*
X185514952Y-96927133D01*
X185419714Y-96974752D01*
X185372095Y-97022371D01*
X185324476Y-97117609D01*
X185324476Y-97355704D01*
X185372095Y-97450942D01*
X185419714Y-97498561D01*
X185514952Y-97546180D01*
X185800666Y-97546180D01*
X185895904Y-97498561D01*
X185943523Y-97450942D01*
X184848285Y-97546180D02*
X184657809Y-97546180D01*
X184562571Y-97498561D01*
X184514952Y-97450942D01*
X184419714Y-97308085D01*
X184372095Y-97117609D01*
X184372095Y-96736657D01*
X184419714Y-96641419D01*
X184467333Y-96593800D01*
X184562571Y-96546180D01*
X184753047Y-96546180D01*
X184848285Y-96593800D01*
X184895904Y-96641419D01*
X184943523Y-96736657D01*
X184943523Y-96974752D01*
X184895904Y-97069990D01*
X184848285Y-97117609D01*
X184753047Y-97165228D01*
X184562571Y-97165228D01*
X184467333Y-97117609D01*
X184419714Y-97069990D01*
X184372095Y-96974752D01*
%TO.C,J13*%
X174886523Y-97966380D02*
X174886523Y-98680666D01*
X174934142Y-98823523D01*
X175029380Y-98918761D01*
X175172238Y-98966380D01*
X175267476Y-98966380D01*
X173886523Y-98966380D02*
X174457952Y-98966380D01*
X174172238Y-98966380D02*
X174172238Y-97966380D01*
X174267476Y-98109238D01*
X174362714Y-98204476D01*
X174457952Y-98252095D01*
X173553190Y-97966380D02*
X172934142Y-97966380D01*
X173267476Y-98347333D01*
X173124619Y-98347333D01*
X173029380Y-98394952D01*
X172981761Y-98442571D01*
X172934142Y-98537809D01*
X172934142Y-98775904D01*
X172981761Y-98871142D01*
X173029380Y-98918761D01*
X173124619Y-98966380D01*
X173410333Y-98966380D01*
X173505571Y-98918761D01*
X173553190Y-98871142D01*
%TO.C,C50*%
X180051742Y-102259942D02*
X180099361Y-102212323D01*
X180146980Y-102069466D01*
X180146980Y-101974228D01*
X180099361Y-101831371D01*
X180004123Y-101736133D01*
X179908885Y-101688514D01*
X179718409Y-101640895D01*
X179575552Y-101640895D01*
X179385076Y-101688514D01*
X179289838Y-101736133D01*
X179194600Y-101831371D01*
X179146980Y-101974228D01*
X179146980Y-102069466D01*
X179194600Y-102212323D01*
X179242219Y-102259942D01*
X179146980Y-103164704D02*
X179146980Y-102688514D01*
X179623171Y-102640895D01*
X179575552Y-102688514D01*
X179527933Y-102783752D01*
X179527933Y-103021847D01*
X179575552Y-103117085D01*
X179623171Y-103164704D01*
X179718409Y-103212323D01*
X179956504Y-103212323D01*
X180051742Y-103164704D01*
X180099361Y-103117085D01*
X180146980Y-103021847D01*
X180146980Y-102783752D01*
X180099361Y-102688514D01*
X180051742Y-102640895D01*
X179146980Y-103831371D02*
X179146980Y-103926609D01*
X179194600Y-104021847D01*
X179242219Y-104069466D01*
X179337457Y-104117085D01*
X179527933Y-104164704D01*
X179766028Y-104164704D01*
X179956504Y-104117085D01*
X180051742Y-104069466D01*
X180099361Y-104021847D01*
X180146980Y-103926609D01*
X180146980Y-103831371D01*
X180099361Y-103736133D01*
X180051742Y-103688514D01*
X179956504Y-103640895D01*
X179766028Y-103593276D01*
X179527933Y-103593276D01*
X179337457Y-103640895D01*
X179242219Y-103688514D01*
X179194600Y-103736133D01*
X179146980Y-103831371D01*
%TO.C,R30*%
X199738857Y-94421980D02*
X200072190Y-93945790D01*
X200310285Y-94421980D02*
X200310285Y-93421980D01*
X199929333Y-93421980D01*
X199834095Y-93469600D01*
X199786476Y-93517219D01*
X199738857Y-93612457D01*
X199738857Y-93755314D01*
X199786476Y-93850552D01*
X199834095Y-93898171D01*
X199929333Y-93945790D01*
X200310285Y-93945790D01*
X199405523Y-93421980D02*
X198786476Y-93421980D01*
X199119809Y-93802933D01*
X198976952Y-93802933D01*
X198881714Y-93850552D01*
X198834095Y-93898171D01*
X198786476Y-93993409D01*
X198786476Y-94231504D01*
X198834095Y-94326742D01*
X198881714Y-94374361D01*
X198976952Y-94421980D01*
X199262666Y-94421980D01*
X199357904Y-94374361D01*
X199405523Y-94326742D01*
X198167428Y-93421980D02*
X198072190Y-93421980D01*
X197976952Y-93469600D01*
X197929333Y-93517219D01*
X197881714Y-93612457D01*
X197834095Y-93802933D01*
X197834095Y-94041028D01*
X197881714Y-94231504D01*
X197929333Y-94326742D01*
X197976952Y-94374361D01*
X198072190Y-94421980D01*
X198167428Y-94421980D01*
X198262666Y-94374361D01*
X198310285Y-94326742D01*
X198357904Y-94231504D01*
X198405523Y-94041028D01*
X198405523Y-93802933D01*
X198357904Y-93612457D01*
X198310285Y-93517219D01*
X198262666Y-93469600D01*
X198167428Y-93421980D01*
%TO.C,C52*%
X175606742Y-78739542D02*
X175654361Y-78691923D01*
X175701980Y-78549066D01*
X175701980Y-78453828D01*
X175654361Y-78310971D01*
X175559123Y-78215733D01*
X175463885Y-78168114D01*
X175273409Y-78120495D01*
X175130552Y-78120495D01*
X174940076Y-78168114D01*
X174844838Y-78215733D01*
X174749600Y-78310971D01*
X174701980Y-78453828D01*
X174701980Y-78549066D01*
X174749600Y-78691923D01*
X174797219Y-78739542D01*
X174701980Y-79644304D02*
X174701980Y-79168114D01*
X175178171Y-79120495D01*
X175130552Y-79168114D01*
X175082933Y-79263352D01*
X175082933Y-79501447D01*
X175130552Y-79596685D01*
X175178171Y-79644304D01*
X175273409Y-79691923D01*
X175511504Y-79691923D01*
X175606742Y-79644304D01*
X175654361Y-79596685D01*
X175701980Y-79501447D01*
X175701980Y-79263352D01*
X175654361Y-79168114D01*
X175606742Y-79120495D01*
X174797219Y-80072876D02*
X174749600Y-80120495D01*
X174701980Y-80215733D01*
X174701980Y-80453828D01*
X174749600Y-80549066D01*
X174797219Y-80596685D01*
X174892457Y-80644304D01*
X174987695Y-80644304D01*
X175130552Y-80596685D01*
X175701980Y-80025257D01*
X175701980Y-80644304D01*
%TO.C,R39*%
X192722380Y-105057142D02*
X192246190Y-104723809D01*
X192722380Y-104485714D02*
X191722380Y-104485714D01*
X191722380Y-104866666D01*
X191770000Y-104961904D01*
X191817619Y-105009523D01*
X191912857Y-105057142D01*
X192055714Y-105057142D01*
X192150952Y-105009523D01*
X192198571Y-104961904D01*
X192246190Y-104866666D01*
X192246190Y-104485714D01*
X191722380Y-105390476D02*
X191722380Y-106009523D01*
X192103333Y-105676190D01*
X192103333Y-105819047D01*
X192150952Y-105914285D01*
X192198571Y-105961904D01*
X192293809Y-106009523D01*
X192531904Y-106009523D01*
X192627142Y-105961904D01*
X192674761Y-105914285D01*
X192722380Y-105819047D01*
X192722380Y-105533333D01*
X192674761Y-105438095D01*
X192627142Y-105390476D01*
X192722380Y-106485714D02*
X192722380Y-106676190D01*
X192674761Y-106771428D01*
X192627142Y-106819047D01*
X192484285Y-106914285D01*
X192293809Y-106961904D01*
X191912857Y-106961904D01*
X191817619Y-106914285D01*
X191770000Y-106866666D01*
X191722380Y-106771428D01*
X191722380Y-106580952D01*
X191770000Y-106485714D01*
X191817619Y-106438095D01*
X191912857Y-106390476D01*
X192150952Y-106390476D01*
X192246190Y-106438095D01*
X192293809Y-106485714D01*
X192341428Y-106580952D01*
X192341428Y-106771428D01*
X192293809Y-106866666D01*
X192246190Y-106914285D01*
X192150952Y-106961904D01*
%TO.C,R40*%
X190022380Y-104957142D02*
X189546190Y-104623809D01*
X190022380Y-104385714D02*
X189022380Y-104385714D01*
X189022380Y-104766666D01*
X189070000Y-104861904D01*
X189117619Y-104909523D01*
X189212857Y-104957142D01*
X189355714Y-104957142D01*
X189450952Y-104909523D01*
X189498571Y-104861904D01*
X189546190Y-104766666D01*
X189546190Y-104385714D01*
X189355714Y-105814285D02*
X190022380Y-105814285D01*
X188974761Y-105576190D02*
X189689047Y-105338095D01*
X189689047Y-105957142D01*
X189022380Y-106528571D02*
X189022380Y-106623809D01*
X189070000Y-106719047D01*
X189117619Y-106766666D01*
X189212857Y-106814285D01*
X189403333Y-106861904D01*
X189641428Y-106861904D01*
X189831904Y-106814285D01*
X189927142Y-106766666D01*
X189974761Y-106719047D01*
X190022380Y-106623809D01*
X190022380Y-106528571D01*
X189974761Y-106433333D01*
X189927142Y-106385714D01*
X189831904Y-106338095D01*
X189641428Y-106290476D01*
X189403333Y-106290476D01*
X189212857Y-106338095D01*
X189117619Y-106385714D01*
X189070000Y-106433333D01*
X189022380Y-106528571D01*
%TO.C,C31*%
X199688057Y-95850742D02*
X199735676Y-95898361D01*
X199878533Y-95945980D01*
X199973771Y-95945980D01*
X200116628Y-95898361D01*
X200211866Y-95803123D01*
X200259485Y-95707885D01*
X200307104Y-95517409D01*
X200307104Y-95374552D01*
X200259485Y-95184076D01*
X200211866Y-95088838D01*
X200116628Y-94993600D01*
X199973771Y-94945980D01*
X199878533Y-94945980D01*
X199735676Y-94993600D01*
X199688057Y-95041219D01*
X199354723Y-94945980D02*
X198735676Y-94945980D01*
X199069009Y-95326933D01*
X198926152Y-95326933D01*
X198830914Y-95374552D01*
X198783295Y-95422171D01*
X198735676Y-95517409D01*
X198735676Y-95755504D01*
X198783295Y-95850742D01*
X198830914Y-95898361D01*
X198926152Y-95945980D01*
X199211866Y-95945980D01*
X199307104Y-95898361D01*
X199354723Y-95850742D01*
X197783295Y-95945980D02*
X198354723Y-95945980D01*
X198069009Y-95945980D02*
X198069009Y-94945980D01*
X198164247Y-95088838D01*
X198259485Y-95184076D01*
X198354723Y-95231695D01*
%TO.C,C47*%
X192842857Y-110907142D02*
X192890476Y-110954761D01*
X193033333Y-111002380D01*
X193128571Y-111002380D01*
X193271428Y-110954761D01*
X193366666Y-110859523D01*
X193414285Y-110764285D01*
X193461904Y-110573809D01*
X193461904Y-110430952D01*
X193414285Y-110240476D01*
X193366666Y-110145238D01*
X193271428Y-110050000D01*
X193128571Y-110002380D01*
X193033333Y-110002380D01*
X192890476Y-110050000D01*
X192842857Y-110097619D01*
X191985714Y-110335714D02*
X191985714Y-111002380D01*
X192223809Y-109954761D02*
X192461904Y-110669047D01*
X191842857Y-110669047D01*
X191557142Y-110002380D02*
X190890476Y-110002380D01*
X191319047Y-111002380D01*
%TO.C,C45*%
X192601457Y-82576742D02*
X192649076Y-82624361D01*
X192791933Y-82671980D01*
X192887171Y-82671980D01*
X193030028Y-82624361D01*
X193125266Y-82529123D01*
X193172885Y-82433885D01*
X193220504Y-82243409D01*
X193220504Y-82100552D01*
X193172885Y-81910076D01*
X193125266Y-81814838D01*
X193030028Y-81719600D01*
X192887171Y-81671980D01*
X192791933Y-81671980D01*
X192649076Y-81719600D01*
X192601457Y-81767219D01*
X191744314Y-82005314D02*
X191744314Y-82671980D01*
X191982409Y-81624361D02*
X192220504Y-82338647D01*
X191601457Y-82338647D01*
X190744314Y-81671980D02*
X191220504Y-81671980D01*
X191268123Y-82148171D01*
X191220504Y-82100552D01*
X191125266Y-82052933D01*
X190887171Y-82052933D01*
X190791933Y-82100552D01*
X190744314Y-82148171D01*
X190696695Y-82243409D01*
X190696695Y-82481504D01*
X190744314Y-82576742D01*
X190791933Y-82624361D01*
X190887171Y-82671980D01*
X191125266Y-82671980D01*
X191220504Y-82624361D01*
X191268123Y-82576742D01*
%TO.C,R42*%
X175654580Y-78841142D02*
X175178390Y-78507809D01*
X175654580Y-78269714D02*
X174654580Y-78269714D01*
X174654580Y-78650666D01*
X174702200Y-78745904D01*
X174749819Y-78793523D01*
X174845057Y-78841142D01*
X174987914Y-78841142D01*
X175083152Y-78793523D01*
X175130771Y-78745904D01*
X175178390Y-78650666D01*
X175178390Y-78269714D01*
X174987914Y-79698285D02*
X175654580Y-79698285D01*
X174606961Y-79460190D02*
X175321247Y-79222095D01*
X175321247Y-79841142D01*
X174749819Y-80174476D02*
X174702200Y-80222095D01*
X174654580Y-80317333D01*
X174654580Y-80555428D01*
X174702200Y-80650666D01*
X174749819Y-80698285D01*
X174845057Y-80745904D01*
X174940295Y-80745904D01*
X175083152Y-80698285D01*
X175654580Y-80126857D01*
X175654580Y-80745904D01*
D11*
%TO.C,Q8*%
X184749152Y-103293476D02*
X184870104Y-103233000D01*
X184991057Y-103112047D01*
X185172485Y-102930619D01*
X185293438Y-102870142D01*
X185414390Y-102870142D01*
X185353914Y-103172523D02*
X185474866Y-103112047D01*
X185595819Y-102991095D01*
X185656295Y-102749190D01*
X185656295Y-102325857D01*
X185595819Y-102083952D01*
X185474866Y-101963000D01*
X185353914Y-101902523D01*
X185112009Y-101902523D01*
X184991057Y-101963000D01*
X184870104Y-102083952D01*
X184809628Y-102325857D01*
X184809628Y-102749190D01*
X184870104Y-102991095D01*
X184991057Y-103112047D01*
X185112009Y-103172523D01*
X185353914Y-103172523D01*
X184083914Y-102446809D02*
X184204866Y-102386333D01*
X184265342Y-102325857D01*
X184325819Y-102204904D01*
X184325819Y-102144428D01*
X184265342Y-102023476D01*
X184204866Y-101963000D01*
X184083914Y-101902523D01*
X183842009Y-101902523D01*
X183721057Y-101963000D01*
X183660580Y-102023476D01*
X183600104Y-102144428D01*
X183600104Y-102204904D01*
X183660580Y-102325857D01*
X183721057Y-102386333D01*
X183842009Y-102446809D01*
X184083914Y-102446809D01*
X184204866Y-102507285D01*
X184265342Y-102567761D01*
X184325819Y-102688714D01*
X184325819Y-102930619D01*
X184265342Y-103051571D01*
X184204866Y-103112047D01*
X184083914Y-103172523D01*
X183842009Y-103172523D01*
X183721057Y-103112047D01*
X183660580Y-103051571D01*
X183600104Y-102930619D01*
X183600104Y-102688714D01*
X183660580Y-102567761D01*
X183721057Y-102507285D01*
X183842009Y-102446809D01*
D10*
%TO.C,D2*%
X187997980Y-97999104D02*
X186997980Y-97999104D01*
X186997980Y-98237200D01*
X187045600Y-98380057D01*
X187140838Y-98475295D01*
X187236076Y-98522914D01*
X187426552Y-98570533D01*
X187569409Y-98570533D01*
X187759885Y-98522914D01*
X187855123Y-98475295D01*
X187950361Y-98380057D01*
X187997980Y-98237200D01*
X187997980Y-97999104D01*
X187093219Y-98951485D02*
X187045600Y-98999104D01*
X186997980Y-99094342D01*
X186997980Y-99332438D01*
X187045600Y-99427676D01*
X187093219Y-99475295D01*
X187188457Y-99522914D01*
X187283695Y-99522914D01*
X187426552Y-99475295D01*
X187997980Y-98903866D01*
X187997980Y-99522914D01*
%TO.C,C56*%
X201847057Y-87583942D02*
X201894676Y-87631561D01*
X202037533Y-87679180D01*
X202132771Y-87679180D01*
X202275628Y-87631561D01*
X202370866Y-87536323D01*
X202418485Y-87441085D01*
X202466104Y-87250609D01*
X202466104Y-87107752D01*
X202418485Y-86917276D01*
X202370866Y-86822038D01*
X202275628Y-86726800D01*
X202132771Y-86679180D01*
X202037533Y-86679180D01*
X201894676Y-86726800D01*
X201847057Y-86774419D01*
X200942295Y-86679180D02*
X201418485Y-86679180D01*
X201466104Y-87155371D01*
X201418485Y-87107752D01*
X201323247Y-87060133D01*
X201085152Y-87060133D01*
X200989914Y-87107752D01*
X200942295Y-87155371D01*
X200894676Y-87250609D01*
X200894676Y-87488704D01*
X200942295Y-87583942D01*
X200989914Y-87631561D01*
X201085152Y-87679180D01*
X201323247Y-87679180D01*
X201418485Y-87631561D01*
X201466104Y-87583942D01*
X200037533Y-86679180D02*
X200228009Y-86679180D01*
X200323247Y-86726800D01*
X200370866Y-86774419D01*
X200466104Y-86917276D01*
X200513723Y-87107752D01*
X200513723Y-87488704D01*
X200466104Y-87583942D01*
X200418485Y-87631561D01*
X200323247Y-87679180D01*
X200132771Y-87679180D01*
X200037533Y-87631561D01*
X199989914Y-87583942D01*
X199942295Y-87488704D01*
X199942295Y-87250609D01*
X199989914Y-87155371D01*
X200037533Y-87107752D01*
X200132771Y-87060133D01*
X200323247Y-87060133D01*
X200418485Y-87107752D01*
X200466104Y-87155371D01*
X200513723Y-87250609D01*
%TO.C,C33*%
X157847057Y-87583942D02*
X157894676Y-87631561D01*
X158037533Y-87679180D01*
X158132771Y-87679180D01*
X158275628Y-87631561D01*
X158370866Y-87536323D01*
X158418485Y-87441085D01*
X158466104Y-87250609D01*
X158466104Y-87107752D01*
X158418485Y-86917276D01*
X158370866Y-86822038D01*
X158275628Y-86726800D01*
X158132771Y-86679180D01*
X158037533Y-86679180D01*
X157894676Y-86726800D01*
X157847057Y-86774419D01*
X157513723Y-86679180D02*
X156894676Y-86679180D01*
X157228009Y-87060133D01*
X157085152Y-87060133D01*
X156989914Y-87107752D01*
X156942295Y-87155371D01*
X156894676Y-87250609D01*
X156894676Y-87488704D01*
X156942295Y-87583942D01*
X156989914Y-87631561D01*
X157085152Y-87679180D01*
X157370866Y-87679180D01*
X157466104Y-87631561D01*
X157513723Y-87583942D01*
X156561342Y-86679180D02*
X155942295Y-86679180D01*
X156275628Y-87060133D01*
X156132771Y-87060133D01*
X156037533Y-87107752D01*
X155989914Y-87155371D01*
X155942295Y-87250609D01*
X155942295Y-87488704D01*
X155989914Y-87583942D01*
X156037533Y-87631561D01*
X156132771Y-87679180D01*
X156418485Y-87679180D01*
X156513723Y-87631561D01*
X156561342Y-87583942D01*
%TO.C,C22*%
X131606742Y-78739542D02*
X131654361Y-78691923D01*
X131701980Y-78549066D01*
X131701980Y-78453828D01*
X131654361Y-78310971D01*
X131559123Y-78215733D01*
X131463885Y-78168114D01*
X131273409Y-78120495D01*
X131130552Y-78120495D01*
X130940076Y-78168114D01*
X130844838Y-78215733D01*
X130749600Y-78310971D01*
X130701980Y-78453828D01*
X130701980Y-78549066D01*
X130749600Y-78691923D01*
X130797219Y-78739542D01*
X130797219Y-79120495D02*
X130749600Y-79168114D01*
X130701980Y-79263352D01*
X130701980Y-79501447D01*
X130749600Y-79596685D01*
X130797219Y-79644304D01*
X130892457Y-79691923D01*
X130987695Y-79691923D01*
X131130552Y-79644304D01*
X131701980Y-79072876D01*
X131701980Y-79691923D01*
X130797219Y-80072876D02*
X130749600Y-80120495D01*
X130701980Y-80215733D01*
X130701980Y-80453828D01*
X130749600Y-80549066D01*
X130797219Y-80596685D01*
X130892457Y-80644304D01*
X130987695Y-80644304D01*
X131130552Y-80596685D01*
X131701980Y-80025257D01*
X131701980Y-80644304D01*
%TO.C,D1*%
X143997980Y-97999104D02*
X142997980Y-97999104D01*
X142997980Y-98237200D01*
X143045600Y-98380057D01*
X143140838Y-98475295D01*
X143236076Y-98522914D01*
X143426552Y-98570533D01*
X143569409Y-98570533D01*
X143759885Y-98522914D01*
X143855123Y-98475295D01*
X143950361Y-98380057D01*
X143997980Y-98237200D01*
X143997980Y-97999104D01*
X143997980Y-99522914D02*
X143997980Y-98951485D01*
X143997980Y-99237200D02*
X142997980Y-99237200D01*
X143140838Y-99141961D01*
X143236076Y-99046723D01*
X143283695Y-98951485D01*
%TO.C,C20*%
X136051742Y-102259942D02*
X136099361Y-102212323D01*
X136146980Y-102069466D01*
X136146980Y-101974228D01*
X136099361Y-101831371D01*
X136004123Y-101736133D01*
X135908885Y-101688514D01*
X135718409Y-101640895D01*
X135575552Y-101640895D01*
X135385076Y-101688514D01*
X135289838Y-101736133D01*
X135194600Y-101831371D01*
X135146980Y-101974228D01*
X135146980Y-102069466D01*
X135194600Y-102212323D01*
X135242219Y-102259942D01*
X135242219Y-102640895D02*
X135194600Y-102688514D01*
X135146980Y-102783752D01*
X135146980Y-103021847D01*
X135194600Y-103117085D01*
X135242219Y-103164704D01*
X135337457Y-103212323D01*
X135432695Y-103212323D01*
X135575552Y-103164704D01*
X136146980Y-102593276D01*
X136146980Y-103212323D01*
X135146980Y-103831371D02*
X135146980Y-103926609D01*
X135194600Y-104021847D01*
X135242219Y-104069466D01*
X135337457Y-104117085D01*
X135527933Y-104164704D01*
X135766028Y-104164704D01*
X135956504Y-104117085D01*
X136051742Y-104069466D01*
X136099361Y-104021847D01*
X136146980Y-103926609D01*
X136146980Y-103831371D01*
X136099361Y-103736133D01*
X136051742Y-103688514D01*
X135956504Y-103640895D01*
X135766028Y-103593276D01*
X135527933Y-103593276D01*
X135337457Y-103640895D01*
X135242219Y-103688514D01*
X135194600Y-103736133D01*
X135146980Y-103831371D01*
%TO.C,C15*%
X148601457Y-82576742D02*
X148649076Y-82624361D01*
X148791933Y-82671980D01*
X148887171Y-82671980D01*
X149030028Y-82624361D01*
X149125266Y-82529123D01*
X149172885Y-82433885D01*
X149220504Y-82243409D01*
X149220504Y-82100552D01*
X149172885Y-81910076D01*
X149125266Y-81814838D01*
X149030028Y-81719600D01*
X148887171Y-81671980D01*
X148791933Y-81671980D01*
X148649076Y-81719600D01*
X148601457Y-81767219D01*
X147649076Y-82671980D02*
X148220504Y-82671980D01*
X147934790Y-82671980D02*
X147934790Y-81671980D01*
X148030028Y-81814838D01*
X148125266Y-81910076D01*
X148220504Y-81957695D01*
X146744314Y-81671980D02*
X147220504Y-81671980D01*
X147268123Y-82148171D01*
X147220504Y-82100552D01*
X147125266Y-82052933D01*
X146887171Y-82052933D01*
X146791933Y-82100552D01*
X146744314Y-82148171D01*
X146696695Y-82243409D01*
X146696695Y-82481504D01*
X146744314Y-82576742D01*
X146791933Y-82624361D01*
X146887171Y-82671980D01*
X147125266Y-82671980D01*
X147220504Y-82624361D01*
X147268123Y-82576742D01*
%TO.C,J4*%
X141078333Y-109682380D02*
X141078333Y-110396666D01*
X141125952Y-110539523D01*
X141221190Y-110634761D01*
X141364047Y-110682380D01*
X141459285Y-110682380D01*
X140173571Y-110015714D02*
X140173571Y-110682380D01*
X140411666Y-109634761D02*
X140649761Y-110349047D01*
X140030714Y-110349047D01*
X142199000Y-109760000D02*
X141665666Y-109760000D01*
X141932333Y-110026666D02*
X141932333Y-109493333D01*
X141332333Y-110026666D02*
X141332333Y-109326666D01*
X140932333Y-110026666D01*
X140932333Y-109326666D01*
X140599000Y-110026666D02*
X140599000Y-109560000D01*
X140599000Y-109693333D02*
X140565666Y-109626666D01*
X140532333Y-109593333D01*
X140465666Y-109560000D01*
X140399000Y-109560000D01*
X139932333Y-109660000D02*
X139832333Y-109693333D01*
X139799000Y-109726666D01*
X139765666Y-109793333D01*
X139765666Y-109893333D01*
X139799000Y-109960000D01*
X139832333Y-109993333D01*
X139899000Y-110026666D01*
X140165666Y-110026666D01*
X140165666Y-109326666D01*
X139932333Y-109326666D01*
X139865666Y-109360000D01*
X139832333Y-109393333D01*
X139799000Y-109460000D01*
X139799000Y-109526666D01*
X139832333Y-109593333D01*
X139865666Y-109626666D01*
X139932333Y-109660000D01*
X140165666Y-109660000D01*
%TO.C,J6*%
X130410333Y-97966380D02*
X130410333Y-98680666D01*
X130457952Y-98823523D01*
X130553190Y-98918761D01*
X130696047Y-98966380D01*
X130791285Y-98966380D01*
X129505571Y-97966380D02*
X129696047Y-97966380D01*
X129791285Y-98014000D01*
X129838904Y-98061619D01*
X129934142Y-98204476D01*
X129981761Y-98394952D01*
X129981761Y-98775904D01*
X129934142Y-98871142D01*
X129886523Y-98918761D01*
X129791285Y-98966380D01*
X129600809Y-98966380D01*
X129505571Y-98918761D01*
X129457952Y-98871142D01*
X129410333Y-98775904D01*
X129410333Y-98537809D01*
X129457952Y-98442571D01*
X129505571Y-98394952D01*
X129600809Y-98347333D01*
X129791285Y-98347333D01*
X129886523Y-98394952D01*
X129934142Y-98442571D01*
X129981761Y-98537809D01*
%TO.C,C9*%
X141800666Y-97450942D02*
X141848285Y-97498561D01*
X141991142Y-97546180D01*
X142086380Y-97546180D01*
X142229238Y-97498561D01*
X142324476Y-97403323D01*
X142372095Y-97308085D01*
X142419714Y-97117609D01*
X142419714Y-96974752D01*
X142372095Y-96784276D01*
X142324476Y-96689038D01*
X142229238Y-96593800D01*
X142086380Y-96546180D01*
X141991142Y-96546180D01*
X141848285Y-96593800D01*
X141800666Y-96641419D01*
X141324476Y-97546180D02*
X141134000Y-97546180D01*
X141038761Y-97498561D01*
X140991142Y-97450942D01*
X140895904Y-97308085D01*
X140848285Y-97117609D01*
X140848285Y-96736657D01*
X140895904Y-96641419D01*
X140943523Y-96593800D01*
X141038761Y-96546180D01*
X141229238Y-96546180D01*
X141324476Y-96593800D01*
X141372095Y-96641419D01*
X141419714Y-96736657D01*
X141419714Y-96974752D01*
X141372095Y-97069990D01*
X141324476Y-97117609D01*
X141229238Y-97165228D01*
X141038761Y-97165228D01*
X140943523Y-97117609D01*
X140895904Y-97069990D01*
X140848285Y-96974752D01*
%TO.C,R7*%
X155262666Y-94421980D02*
X155596000Y-93945790D01*
X155834095Y-94421980D02*
X155834095Y-93421980D01*
X155453142Y-93421980D01*
X155357904Y-93469600D01*
X155310285Y-93517219D01*
X155262666Y-93612457D01*
X155262666Y-93755314D01*
X155310285Y-93850552D01*
X155357904Y-93898171D01*
X155453142Y-93945790D01*
X155834095Y-93945790D01*
X154929333Y-93421980D02*
X154262666Y-93421980D01*
X154691238Y-94421980D01*
%TO.C,J1*%
X125833333Y-100452380D02*
X125833333Y-101166666D01*
X125880952Y-101309523D01*
X125976190Y-101404761D01*
X126119047Y-101452380D01*
X126214285Y-101452380D01*
X124833333Y-101452380D02*
X125404761Y-101452380D01*
X125119047Y-101452380D02*
X125119047Y-100452380D01*
X125214285Y-100595238D01*
X125309523Y-100690476D01*
X125404761Y-100738095D01*
%TO.C,C13*%
X155764257Y-89221342D02*
X155811876Y-89268961D01*
X155954733Y-89316580D01*
X156049971Y-89316580D01*
X156192828Y-89268961D01*
X156288066Y-89173723D01*
X156335685Y-89078485D01*
X156383304Y-88888009D01*
X156383304Y-88745152D01*
X156335685Y-88554676D01*
X156288066Y-88459438D01*
X156192828Y-88364200D01*
X156049971Y-88316580D01*
X155954733Y-88316580D01*
X155811876Y-88364200D01*
X155764257Y-88411819D01*
X154811876Y-89316580D02*
X155383304Y-89316580D01*
X155097590Y-89316580D02*
X155097590Y-88316580D01*
X155192828Y-88459438D01*
X155288066Y-88554676D01*
X155383304Y-88602295D01*
X154478542Y-88316580D02*
X153859495Y-88316580D01*
X154192828Y-88697533D01*
X154049971Y-88697533D01*
X153954733Y-88745152D01*
X153907114Y-88792771D01*
X153859495Y-88888009D01*
X153859495Y-89126104D01*
X153907114Y-89221342D01*
X153954733Y-89268961D01*
X154049971Y-89316580D01*
X154335685Y-89316580D01*
X154430923Y-89268961D01*
X154478542Y-89221342D01*
%TO.C,R18*%
X158019780Y-79298342D02*
X157543590Y-78965009D01*
X158019780Y-78726914D02*
X157019780Y-78726914D01*
X157019780Y-79107866D01*
X157067400Y-79203104D01*
X157115019Y-79250723D01*
X157210257Y-79298342D01*
X157353114Y-79298342D01*
X157448352Y-79250723D01*
X157495971Y-79203104D01*
X157543590Y-79107866D01*
X157543590Y-78726914D01*
X158019780Y-80250723D02*
X158019780Y-79679295D01*
X158019780Y-79965009D02*
X157019780Y-79965009D01*
X157162638Y-79869771D01*
X157257876Y-79774533D01*
X157305495Y-79679295D01*
X157448352Y-80822152D02*
X157400733Y-80726914D01*
X157353114Y-80679295D01*
X157257876Y-80631676D01*
X157210257Y-80631676D01*
X157115019Y-80679295D01*
X157067400Y-80726914D01*
X157019780Y-80822152D01*
X157019780Y-81012628D01*
X157067400Y-81107866D01*
X157115019Y-81155485D01*
X157210257Y-81203104D01*
X157257876Y-81203104D01*
X157353114Y-81155485D01*
X157400733Y-81107866D01*
X157448352Y-81012628D01*
X157448352Y-80822152D01*
X157495971Y-80726914D01*
X157543590Y-80679295D01*
X157638828Y-80631676D01*
X157829304Y-80631676D01*
X157924542Y-80679295D01*
X157972161Y-80726914D01*
X158019780Y-80822152D01*
X158019780Y-81012628D01*
X157972161Y-81107866D01*
X157924542Y-81155485D01*
X157829304Y-81203104D01*
X157638828Y-81203104D01*
X157543590Y-81155485D01*
X157495971Y-81107866D01*
X157448352Y-81012628D01*
D11*
%TO.C,IC2*%
X137153923Y-94957438D02*
X135883923Y-94957438D01*
X137032971Y-96287914D02*
X137093447Y-96227438D01*
X137153923Y-96046009D01*
X137153923Y-95925057D01*
X137093447Y-95743628D01*
X136972495Y-95622676D01*
X136851542Y-95562200D01*
X136609638Y-95501723D01*
X136428209Y-95501723D01*
X136186304Y-95562200D01*
X136065352Y-95622676D01*
X135944400Y-95743628D01*
X135883923Y-95925057D01*
X135883923Y-96046009D01*
X135944400Y-96227438D01*
X136004876Y-96287914D01*
X136004876Y-96771723D02*
X135944400Y-96832200D01*
X135883923Y-96953152D01*
X135883923Y-97255533D01*
X135944400Y-97376485D01*
X136004876Y-97436961D01*
X136125828Y-97497438D01*
X136246780Y-97497438D01*
X136428209Y-97436961D01*
X137153923Y-96711247D01*
X137153923Y-97497438D01*
%TO.C,Q7*%
X140749152Y-103293476D02*
X140870104Y-103233000D01*
X140991057Y-103112047D01*
X141172485Y-102930619D01*
X141293438Y-102870142D01*
X141414390Y-102870142D01*
X141353914Y-103172523D02*
X141474866Y-103112047D01*
X141595819Y-102991095D01*
X141656295Y-102749190D01*
X141656295Y-102325857D01*
X141595819Y-102083952D01*
X141474866Y-101963000D01*
X141353914Y-101902523D01*
X141112009Y-101902523D01*
X140991057Y-101963000D01*
X140870104Y-102083952D01*
X140809628Y-102325857D01*
X140809628Y-102749190D01*
X140870104Y-102991095D01*
X140991057Y-103112047D01*
X141112009Y-103172523D01*
X141353914Y-103172523D01*
X140386295Y-101902523D02*
X139539628Y-101902523D01*
X140083914Y-103172523D01*
D10*
%TO.C,C17*%
X148842857Y-110907142D02*
X148890476Y-110954761D01*
X149033333Y-111002380D01*
X149128571Y-111002380D01*
X149271428Y-110954761D01*
X149366666Y-110859523D01*
X149414285Y-110764285D01*
X149461904Y-110573809D01*
X149461904Y-110430952D01*
X149414285Y-110240476D01*
X149366666Y-110145238D01*
X149271428Y-110050000D01*
X149128571Y-110002380D01*
X149033333Y-110002380D01*
X148890476Y-110050000D01*
X148842857Y-110097619D01*
X147890476Y-111002380D02*
X148461904Y-111002380D01*
X148176190Y-111002380D02*
X148176190Y-110002380D01*
X148271428Y-110145238D01*
X148366666Y-110240476D01*
X148461904Y-110288095D01*
X147557142Y-110002380D02*
X146890476Y-110002380D01*
X147319047Y-111002380D01*
%TO.C,R19*%
X131654580Y-78841142D02*
X131178390Y-78507809D01*
X131654580Y-78269714D02*
X130654580Y-78269714D01*
X130654580Y-78650666D01*
X130702200Y-78745904D01*
X130749819Y-78793523D01*
X130845057Y-78841142D01*
X130987914Y-78841142D01*
X131083152Y-78793523D01*
X131130771Y-78745904D01*
X131178390Y-78650666D01*
X131178390Y-78269714D01*
X131654580Y-79793523D02*
X131654580Y-79222095D01*
X131654580Y-79507809D02*
X130654580Y-79507809D01*
X130797438Y-79412571D01*
X130892676Y-79317333D01*
X130940295Y-79222095D01*
X131654580Y-80269714D02*
X131654580Y-80460190D01*
X131606961Y-80555428D01*
X131559342Y-80603047D01*
X131416485Y-80698285D01*
X131226009Y-80745904D01*
X130845057Y-80745904D01*
X130749819Y-80698285D01*
X130702200Y-80650666D01*
X130654580Y-80555428D01*
X130654580Y-80364952D01*
X130702200Y-80269714D01*
X130749819Y-80222095D01*
X130845057Y-80174476D01*
X131083152Y-80174476D01*
X131178390Y-80222095D01*
X131226009Y-80269714D01*
X131273628Y-80364952D01*
X131273628Y-80555428D01*
X131226009Y-80650666D01*
X131178390Y-80698285D01*
X131083152Y-80745904D01*
%TO.C,C6*%
X155211866Y-95850742D02*
X155259485Y-95898361D01*
X155402342Y-95945980D01*
X155497580Y-95945980D01*
X155640438Y-95898361D01*
X155735676Y-95803123D01*
X155783295Y-95707885D01*
X155830914Y-95517409D01*
X155830914Y-95374552D01*
X155783295Y-95184076D01*
X155735676Y-95088838D01*
X155640438Y-94993600D01*
X155497580Y-94945980D01*
X155402342Y-94945980D01*
X155259485Y-94993600D01*
X155211866Y-95041219D01*
X154354723Y-94945980D02*
X154545200Y-94945980D01*
X154640438Y-94993600D01*
X154688057Y-95041219D01*
X154783295Y-95184076D01*
X154830914Y-95374552D01*
X154830914Y-95755504D01*
X154783295Y-95850742D01*
X154735676Y-95898361D01*
X154640438Y-95945980D01*
X154449961Y-95945980D01*
X154354723Y-95898361D01*
X154307104Y-95850742D01*
X154259485Y-95755504D01*
X154259485Y-95517409D01*
X154307104Y-95422171D01*
X154354723Y-95374552D01*
X154449961Y-95326933D01*
X154640438Y-95326933D01*
X154735676Y-95374552D01*
X154783295Y-95422171D01*
X154830914Y-95517409D01*
%TO.C,R17*%
X146022380Y-104957142D02*
X145546190Y-104623809D01*
X146022380Y-104385714D02*
X145022380Y-104385714D01*
X145022380Y-104766666D01*
X145070000Y-104861904D01*
X145117619Y-104909523D01*
X145212857Y-104957142D01*
X145355714Y-104957142D01*
X145450952Y-104909523D01*
X145498571Y-104861904D01*
X145546190Y-104766666D01*
X145546190Y-104385714D01*
X146022380Y-105909523D02*
X146022380Y-105338095D01*
X146022380Y-105623809D02*
X145022380Y-105623809D01*
X145165238Y-105528571D01*
X145260476Y-105433333D01*
X145308095Y-105338095D01*
X145022380Y-106242857D02*
X145022380Y-106909523D01*
X146022380Y-106480952D01*
%TO.C,R16*%
X148722380Y-105057142D02*
X148246190Y-104723809D01*
X148722380Y-104485714D02*
X147722380Y-104485714D01*
X147722380Y-104866666D01*
X147770000Y-104961904D01*
X147817619Y-105009523D01*
X147912857Y-105057142D01*
X148055714Y-105057142D01*
X148150952Y-105009523D01*
X148198571Y-104961904D01*
X148246190Y-104866666D01*
X148246190Y-104485714D01*
X148722380Y-106009523D02*
X148722380Y-105438095D01*
X148722380Y-105723809D02*
X147722380Y-105723809D01*
X147865238Y-105628571D01*
X147960476Y-105533333D01*
X148008095Y-105438095D01*
X147722380Y-106866666D02*
X147722380Y-106676190D01*
X147770000Y-106580952D01*
X147817619Y-106533333D01*
X147960476Y-106438095D01*
X148150952Y-106390476D01*
X148531904Y-106390476D01*
X148627142Y-106438095D01*
X148674761Y-106485714D01*
X148722380Y-106580952D01*
X148722380Y-106771428D01*
X148674761Y-106866666D01*
X148627142Y-106914285D01*
X148531904Y-106961904D01*
X148293809Y-106961904D01*
X148198571Y-106914285D01*
X148150952Y-106866666D01*
X148103333Y-106771428D01*
X148103333Y-106580952D01*
X148150952Y-106485714D01*
X148198571Y-106438095D01*
X148293809Y-106390476D01*
%TO.C,M2*%
X126681980Y-75601076D02*
X125681980Y-75601076D01*
X126396266Y-75934409D01*
X125681980Y-76267742D01*
X126681980Y-76267742D01*
X125777219Y-76696314D02*
X125729600Y-76743933D01*
X125681980Y-76839171D01*
X125681980Y-77077266D01*
X125729600Y-77172504D01*
X125777219Y-77220123D01*
X125872457Y-77267742D01*
X125967695Y-77267742D01*
X126110552Y-77220123D01*
X126681980Y-76648695D01*
X126681980Y-77267742D01*
%TO.C,J5*%
X127286133Y-98012380D02*
X127286133Y-98726666D01*
X127333752Y-98869523D01*
X127428990Y-98964761D01*
X127571847Y-99012380D01*
X127667085Y-99012380D01*
X126333752Y-98012380D02*
X126809942Y-98012380D01*
X126857561Y-98488571D01*
X126809942Y-98440952D01*
X126714704Y-98393333D01*
X126476609Y-98393333D01*
X126381371Y-98440952D01*
X126333752Y-98488571D01*
X126286133Y-98583809D01*
X126286133Y-98821904D01*
X126333752Y-98917142D01*
X126381371Y-98964761D01*
X126476609Y-99012380D01*
X126714704Y-99012380D01*
X126809942Y-98964761D01*
X126857561Y-98917142D01*
%TO.C,C23*%
X158149742Y-92707742D02*
X158197361Y-92660123D01*
X158244980Y-92517266D01*
X158244980Y-92422028D01*
X158197361Y-92279171D01*
X158102123Y-92183933D01*
X158006885Y-92136314D01*
X157816409Y-92088695D01*
X157673552Y-92088695D01*
X157483076Y-92136314D01*
X157387838Y-92183933D01*
X157292600Y-92279171D01*
X157244980Y-92422028D01*
X157244980Y-92517266D01*
X157292600Y-92660123D01*
X157340219Y-92707742D01*
X157340219Y-93088695D02*
X157292600Y-93136314D01*
X157244980Y-93231552D01*
X157244980Y-93469647D01*
X157292600Y-93564885D01*
X157340219Y-93612504D01*
X157435457Y-93660123D01*
X157530695Y-93660123D01*
X157673552Y-93612504D01*
X158244980Y-93041076D01*
X158244980Y-93660123D01*
X157244980Y-93993457D02*
X157244980Y-94612504D01*
X157625933Y-94279171D01*
X157625933Y-94422028D01*
X157673552Y-94517266D01*
X157721171Y-94564885D01*
X157816409Y-94612504D01*
X158054504Y-94612504D01*
X158149742Y-94564885D01*
X158197361Y-94517266D01*
X158244980Y-94422028D01*
X158244980Y-94136314D01*
X158197361Y-94041076D01*
X158149742Y-93993457D01*
%TO.C,C8*%
X158899942Y-103904533D02*
X158947561Y-103856914D01*
X158995180Y-103714057D01*
X158995180Y-103618819D01*
X158947561Y-103475961D01*
X158852323Y-103380723D01*
X158757085Y-103333104D01*
X158566609Y-103285485D01*
X158423752Y-103285485D01*
X158233276Y-103333104D01*
X158138038Y-103380723D01*
X158042800Y-103475961D01*
X157995180Y-103618819D01*
X157995180Y-103714057D01*
X158042800Y-103856914D01*
X158090419Y-103904533D01*
X158423752Y-104475961D02*
X158376133Y-104380723D01*
X158328514Y-104333104D01*
X158233276Y-104285485D01*
X158185657Y-104285485D01*
X158090419Y-104333104D01*
X158042800Y-104380723D01*
X157995180Y-104475961D01*
X157995180Y-104666438D01*
X158042800Y-104761676D01*
X158090419Y-104809295D01*
X158185657Y-104856914D01*
X158233276Y-104856914D01*
X158328514Y-104809295D01*
X158376133Y-104761676D01*
X158423752Y-104666438D01*
X158423752Y-104475961D01*
X158471371Y-104380723D01*
X158518990Y-104333104D01*
X158614228Y-104285485D01*
X158804704Y-104285485D01*
X158899942Y-104333104D01*
X158947561Y-104380723D01*
X158995180Y-104475961D01*
X158995180Y-104666438D01*
X158947561Y-104761676D01*
X158899942Y-104809295D01*
X158804704Y-104856914D01*
X158614228Y-104856914D01*
X158518990Y-104809295D01*
X158471371Y-104761676D01*
X158423752Y-104666438D01*
%TO.C,R12*%
X137958857Y-92110580D02*
X138292190Y-91634390D01*
X138530285Y-92110580D02*
X138530285Y-91110580D01*
X138149333Y-91110580D01*
X138054095Y-91158200D01*
X138006476Y-91205819D01*
X137958857Y-91301057D01*
X137958857Y-91443914D01*
X138006476Y-91539152D01*
X138054095Y-91586771D01*
X138149333Y-91634390D01*
X138530285Y-91634390D01*
X137006476Y-92110580D02*
X137577904Y-92110580D01*
X137292190Y-92110580D02*
X137292190Y-91110580D01*
X137387428Y-91253438D01*
X137482666Y-91348676D01*
X137577904Y-91396295D01*
X136625523Y-91205819D02*
X136577904Y-91158200D01*
X136482666Y-91110580D01*
X136244571Y-91110580D01*
X136149333Y-91158200D01*
X136101714Y-91205819D01*
X136054095Y-91301057D01*
X136054095Y-91396295D01*
X136101714Y-91539152D01*
X136673142Y-92110580D01*
X136054095Y-92110580D01*
%TO.C,C18*%
X139751742Y-106908142D02*
X139799361Y-106860523D01*
X139846980Y-106717666D01*
X139846980Y-106622428D01*
X139799361Y-106479571D01*
X139704123Y-106384333D01*
X139608885Y-106336714D01*
X139418409Y-106289095D01*
X139275552Y-106289095D01*
X139085076Y-106336714D01*
X138989838Y-106384333D01*
X138894600Y-106479571D01*
X138846980Y-106622428D01*
X138846980Y-106717666D01*
X138894600Y-106860523D01*
X138942219Y-106908142D01*
X139846980Y-107860523D02*
X139846980Y-107289095D01*
X139846980Y-107574809D02*
X138846980Y-107574809D01*
X138989838Y-107479571D01*
X139085076Y-107384333D01*
X139132695Y-107289095D01*
X139275552Y-108431952D02*
X139227933Y-108336714D01*
X139180314Y-108289095D01*
X139085076Y-108241476D01*
X139037457Y-108241476D01*
X138942219Y-108289095D01*
X138894600Y-108336714D01*
X138846980Y-108431952D01*
X138846980Y-108622428D01*
X138894600Y-108717666D01*
X138942219Y-108765285D01*
X139037457Y-108812904D01*
X139085076Y-108812904D01*
X139180314Y-108765285D01*
X139227933Y-108717666D01*
X139275552Y-108622428D01*
X139275552Y-108431952D01*
X139323171Y-108336714D01*
X139370790Y-108289095D01*
X139466028Y-108241476D01*
X139656504Y-108241476D01*
X139751742Y-108289095D01*
X139799361Y-108336714D01*
X139846980Y-108431952D01*
X139846980Y-108622428D01*
X139799361Y-108717666D01*
X139751742Y-108765285D01*
X139656504Y-108812904D01*
X139466028Y-108812904D01*
X139370790Y-108765285D01*
X139323171Y-108717666D01*
X139275552Y-108622428D01*
%TO.C,C19*%
X130973857Y-97803142D02*
X131021476Y-97850761D01*
X131164333Y-97898380D01*
X131259571Y-97898380D01*
X131402428Y-97850761D01*
X131497666Y-97755523D01*
X131545285Y-97660285D01*
X131592904Y-97469809D01*
X131592904Y-97326952D01*
X131545285Y-97136476D01*
X131497666Y-97041238D01*
X131402428Y-96946000D01*
X131259571Y-96898380D01*
X131164333Y-96898380D01*
X131021476Y-96946000D01*
X130973857Y-96993619D01*
X130021476Y-97898380D02*
X130592904Y-97898380D01*
X130307190Y-97898380D02*
X130307190Y-96898380D01*
X130402428Y-97041238D01*
X130497666Y-97136476D01*
X130592904Y-97184095D01*
X129545285Y-97898380D02*
X129354809Y-97898380D01*
X129259571Y-97850761D01*
X129211952Y-97803142D01*
X129116714Y-97660285D01*
X129069095Y-97469809D01*
X129069095Y-97088857D01*
X129116714Y-96993619D01*
X129164333Y-96946000D01*
X129259571Y-96898380D01*
X129450047Y-96898380D01*
X129545285Y-96946000D01*
X129592904Y-96993619D01*
X129640523Y-97088857D01*
X129640523Y-97326952D01*
X129592904Y-97422190D01*
X129545285Y-97469809D01*
X129450047Y-97517428D01*
X129259571Y-97517428D01*
X129164333Y-97469809D01*
X129116714Y-97422190D01*
X129069095Y-97326952D01*
%TO.C,R20*%
X156521180Y-79298342D02*
X156044990Y-78965009D01*
X156521180Y-78726914D02*
X155521180Y-78726914D01*
X155521180Y-79107866D01*
X155568800Y-79203104D01*
X155616419Y-79250723D01*
X155711657Y-79298342D01*
X155854514Y-79298342D01*
X155949752Y-79250723D01*
X155997371Y-79203104D01*
X156044990Y-79107866D01*
X156044990Y-78726914D01*
X155616419Y-79679295D02*
X155568800Y-79726914D01*
X155521180Y-79822152D01*
X155521180Y-80060247D01*
X155568800Y-80155485D01*
X155616419Y-80203104D01*
X155711657Y-80250723D01*
X155806895Y-80250723D01*
X155949752Y-80203104D01*
X156521180Y-79631676D01*
X156521180Y-80250723D01*
X155521180Y-80869771D02*
X155521180Y-80965009D01*
X155568800Y-81060247D01*
X155616419Y-81107866D01*
X155711657Y-81155485D01*
X155902133Y-81203104D01*
X156140228Y-81203104D01*
X156330704Y-81155485D01*
X156425942Y-81107866D01*
X156473561Y-81060247D01*
X156521180Y-80965009D01*
X156521180Y-80869771D01*
X156473561Y-80774533D01*
X156425942Y-80726914D01*
X156330704Y-80679295D01*
X156140228Y-80631676D01*
X155902133Y-80631676D01*
X155711657Y-80679295D01*
X155616419Y-80726914D01*
X155568800Y-80774533D01*
X155521180Y-80869771D01*
%TO.C,C5*%
X157514742Y-80333333D02*
X157562361Y-80285714D01*
X157609980Y-80142857D01*
X157609980Y-80047619D01*
X157562361Y-79904761D01*
X157467123Y-79809523D01*
X157371885Y-79761904D01*
X157181409Y-79714285D01*
X157038552Y-79714285D01*
X156848076Y-79761904D01*
X156752838Y-79809523D01*
X156657600Y-79904761D01*
X156609980Y-80047619D01*
X156609980Y-80142857D01*
X156657600Y-80285714D01*
X156705219Y-80333333D01*
X156609980Y-81238095D02*
X156609980Y-80761904D01*
X157086171Y-80714285D01*
X157038552Y-80761904D01*
X156990933Y-80857142D01*
X156990933Y-81095238D01*
X157038552Y-81190476D01*
X157086171Y-81238095D01*
X157181409Y-81285714D01*
X157419504Y-81285714D01*
X157514742Y-81238095D01*
X157562361Y-81190476D01*
X157609980Y-81095238D01*
X157609980Y-80857142D01*
X157562361Y-80761904D01*
X157514742Y-80714285D01*
%TO.C,M1*%
X153798780Y-75804276D02*
X152798780Y-75804276D01*
X153513066Y-76137609D01*
X152798780Y-76470942D01*
X153798780Y-76470942D01*
X153798780Y-77470942D02*
X153798780Y-76899514D01*
X153798780Y-77185228D02*
X152798780Y-77185228D01*
X152941638Y-77089990D01*
X153036876Y-76994752D01*
X153084495Y-76899514D01*
%TO.C,R21*%
X130181380Y-78841142D02*
X129705190Y-78507809D01*
X130181380Y-78269714D02*
X129181380Y-78269714D01*
X129181380Y-78650666D01*
X129229000Y-78745904D01*
X129276619Y-78793523D01*
X129371857Y-78841142D01*
X129514714Y-78841142D01*
X129609952Y-78793523D01*
X129657571Y-78745904D01*
X129705190Y-78650666D01*
X129705190Y-78269714D01*
X129276619Y-79222095D02*
X129229000Y-79269714D01*
X129181380Y-79364952D01*
X129181380Y-79603047D01*
X129229000Y-79698285D01*
X129276619Y-79745904D01*
X129371857Y-79793523D01*
X129467095Y-79793523D01*
X129609952Y-79745904D01*
X130181380Y-79174476D01*
X130181380Y-79793523D01*
X130181380Y-80745904D02*
X130181380Y-80174476D01*
X130181380Y-80460190D02*
X129181380Y-80460190D01*
X129324238Y-80364952D01*
X129419476Y-80269714D01*
X129467095Y-80174476D01*
%TO.C,J11*%
X161976123Y-83521780D02*
X161976123Y-84236066D01*
X162023742Y-84378923D01*
X162118980Y-84474161D01*
X162261838Y-84521780D01*
X162357076Y-84521780D01*
X160976123Y-84521780D02*
X161547552Y-84521780D01*
X161261838Y-84521780D02*
X161261838Y-83521780D01*
X161357076Y-83664638D01*
X161452314Y-83759876D01*
X161547552Y-83807495D01*
X160023742Y-84521780D02*
X160595171Y-84521780D01*
X160309457Y-84521780D02*
X160309457Y-83521780D01*
X160404695Y-83664638D01*
X160499933Y-83759876D01*
X160595171Y-83807495D01*
%TO.C,C11*%
X152082542Y-100100942D02*
X152130161Y-100053323D01*
X152177780Y-99910466D01*
X152177780Y-99815228D01*
X152130161Y-99672371D01*
X152034923Y-99577133D01*
X151939685Y-99529514D01*
X151749209Y-99481895D01*
X151606352Y-99481895D01*
X151415876Y-99529514D01*
X151320638Y-99577133D01*
X151225400Y-99672371D01*
X151177780Y-99815228D01*
X151177780Y-99910466D01*
X151225400Y-100053323D01*
X151273019Y-100100942D01*
X152177780Y-101053323D02*
X152177780Y-100481895D01*
X152177780Y-100767609D02*
X151177780Y-100767609D01*
X151320638Y-100672371D01*
X151415876Y-100577133D01*
X151463495Y-100481895D01*
X152177780Y-102005704D02*
X152177780Y-101434276D01*
X152177780Y-101719990D02*
X151177780Y-101719990D01*
X151320638Y-101624752D01*
X151415876Y-101529514D01*
X151463495Y-101434276D01*
%TO.C,C3*%
X148150666Y-84049942D02*
X148198285Y-84097561D01*
X148341142Y-84145180D01*
X148436380Y-84145180D01*
X148579238Y-84097561D01*
X148674476Y-84002323D01*
X148722095Y-83907085D01*
X148769714Y-83716609D01*
X148769714Y-83573752D01*
X148722095Y-83383276D01*
X148674476Y-83288038D01*
X148579238Y-83192800D01*
X148436380Y-83145180D01*
X148341142Y-83145180D01*
X148198285Y-83192800D01*
X148150666Y-83240419D01*
X147817333Y-83145180D02*
X147198285Y-83145180D01*
X147531619Y-83526133D01*
X147388761Y-83526133D01*
X147293523Y-83573752D01*
X147245904Y-83621371D01*
X147198285Y-83716609D01*
X147198285Y-83954704D01*
X147245904Y-84049942D01*
X147293523Y-84097561D01*
X147388761Y-84145180D01*
X147674476Y-84145180D01*
X147769714Y-84097561D01*
X147817333Y-84049942D01*
%TO.C,C2*%
X151980942Y-83495333D02*
X152028561Y-83447714D01*
X152076180Y-83304857D01*
X152076180Y-83209619D01*
X152028561Y-83066761D01*
X151933323Y-82971523D01*
X151838085Y-82923904D01*
X151647609Y-82876285D01*
X151504752Y-82876285D01*
X151314276Y-82923904D01*
X151219038Y-82971523D01*
X151123800Y-83066761D01*
X151076180Y-83209619D01*
X151076180Y-83304857D01*
X151123800Y-83447714D01*
X151171419Y-83495333D01*
X151171419Y-83876285D02*
X151123800Y-83923904D01*
X151076180Y-84019142D01*
X151076180Y-84257238D01*
X151123800Y-84352476D01*
X151171419Y-84400095D01*
X151266657Y-84447714D01*
X151361895Y-84447714D01*
X151504752Y-84400095D01*
X152076180Y-83828666D01*
X152076180Y-84447714D01*
D12*
%TO.C,REF\u002A\u002A17*%
X178480400Y-113258400D02*
X177150400Y-113258400D01*
X178480400Y-115858400D02*
X178480400Y-115918400D01*
X178480400Y-114588400D02*
X178480400Y-113258400D01*
X175820400Y-115858400D02*
X175820400Y-115918400D01*
X178480400Y-115858400D02*
X175820400Y-115858400D01*
X178480400Y-115918400D02*
X175820400Y-115918400D01*
%TO.C,R90*%
X171776500Y-117738724D02*
X171776500Y-117229276D01*
X172821500Y-117738724D02*
X172821500Y-117229276D01*
%TO.C,M7*%
X200406400Y-115673800D02*
X202466400Y-115673800D01*
X200406400Y-113553800D02*
X202466400Y-113553800D01*
X198346400Y-113553800D02*
X198346400Y-114613800D01*
X202466400Y-113553800D02*
X202466400Y-115673800D01*
X199406400Y-113553800D02*
X198346400Y-113553800D01*
X200406400Y-113553800D02*
X200406400Y-115673800D01*
%TO.C,C109*%
X175042252Y-138206000D02*
X173619748Y-138206000D01*
X175042252Y-136386000D02*
X173619748Y-136386000D01*
%TO.C,C92*%
X193683800Y-121802580D02*
X193683800Y-121521420D01*
X194703800Y-121802580D02*
X194703800Y-121521420D01*
%TO.C,C93*%
X192124580Y-122612800D02*
X191843420Y-122612800D01*
X192124580Y-123632800D02*
X191843420Y-123632800D01*
%TO.C,M8*%
X173289600Y-113350600D02*
X175349600Y-113350600D01*
X175349600Y-113350600D02*
X175349600Y-115470600D01*
X173289600Y-113350600D02*
X173289600Y-115470600D01*
X173289600Y-115470600D02*
X175349600Y-115470600D01*
X171229600Y-113350600D02*
X171229600Y-114410600D01*
X172289600Y-113350600D02*
X171229600Y-113350600D01*
%TO.C,R89*%
X199161300Y-118195924D02*
X199161300Y-117686476D01*
X198116300Y-118195924D02*
X198116300Y-117686476D01*
%TO.C,R81*%
X181175420Y-128738200D02*
X181456580Y-128738200D01*
X181175420Y-127718200D02*
X181456580Y-127718200D01*
%TO.C,C113*%
X204552600Y-130639348D02*
X204552600Y-132061852D01*
X202732600Y-130639348D02*
X202732600Y-132061852D01*
%TO.C,J32*%
X206226600Y-125129400D02*
X206226600Y-127189400D01*
X206226600Y-123069400D02*
X205166600Y-123069400D01*
X206226600Y-125129400D02*
X204106600Y-125129400D01*
X206226600Y-127189400D02*
X204106600Y-127189400D01*
X204106600Y-125129400D02*
X204106600Y-127189400D01*
X206226600Y-124129400D02*
X206226600Y-123069400D01*
%TO.C,J28*%
X169892800Y-133500000D02*
X172012800Y-133500000D01*
X169892800Y-135560000D02*
X170952800Y-135560000D01*
X169892800Y-133500000D02*
X169892800Y-127440000D01*
X169892800Y-127440000D02*
X172012800Y-127440000D01*
X172012800Y-133500000D02*
X172012800Y-127440000D01*
X169892800Y-134500000D02*
X169892800Y-135560000D01*
%TO.C,C108*%
X182454600Y-146262252D02*
X182454600Y-144839748D01*
X180634600Y-146262252D02*
X180634600Y-144839748D01*
%TO.C,C98*%
X203462800Y-141930620D02*
X203462800Y-142211780D01*
X204482800Y-141930620D02*
X204482800Y-142211780D01*
%TO.C,C101*%
X193785400Y-138884380D02*
X193785400Y-138603220D01*
X194805400Y-138884380D02*
X194805400Y-138603220D01*
%TO.C,C95*%
X202097600Y-117788748D02*
X202097600Y-119211252D01*
X203917600Y-117788748D02*
X203917600Y-119211252D01*
D13*
%TO.C,IC14*%
X183829400Y-132447200D02*
X177329400Y-132447200D01*
X177329400Y-135947200D02*
X183829400Y-135947200D01*
X183704400Y-138222200D02*
X183704400Y-136472200D01*
X177329400Y-132447200D02*
X177329400Y-135947200D01*
X183829400Y-135947200D02*
X183829400Y-132447200D01*
D12*
%TO.C,R87*%
X199614900Y-118195924D02*
X199614900Y-117686476D01*
X200659900Y-118195924D02*
X200659900Y-117686476D01*
%TO.C,J25*%
X177336200Y-143309200D02*
X174336200Y-143309200D01*
X171776200Y-139849200D02*
X172696200Y-139849200D01*
X178136200Y-145409200D02*
X178136200Y-147669200D01*
X172696200Y-141449200D02*
X172976200Y-141449200D01*
X178136200Y-145409200D02*
X178136200Y-143809200D01*
X178696200Y-141449200D02*
X178696200Y-140234200D01*
X172536200Y-145409200D02*
X173536200Y-145409200D01*
X179136200Y-143809200D02*
X179136200Y-145409200D01*
X174336200Y-143309200D02*
X174336200Y-147669200D01*
X179136200Y-145409200D02*
X178136200Y-145409200D01*
X172696200Y-139849200D02*
X172696200Y-141449200D01*
X177336200Y-147669200D02*
X177336200Y-143309200D01*
X179896200Y-139849200D02*
X179896200Y-147669200D01*
X178976200Y-139849200D02*
X179896200Y-139849200D01*
X178696200Y-141449200D02*
X178976200Y-141449200D01*
X179896200Y-141449200D02*
X178976200Y-141449200D01*
X172536200Y-143809200D02*
X172536200Y-145409200D01*
X178136200Y-143809200D02*
X179136200Y-143809200D01*
X171776200Y-147669200D02*
X171776200Y-139849200D01*
X178976200Y-141449200D02*
X178976200Y-139849200D01*
X173536200Y-145409200D02*
X173536200Y-143809200D01*
X173536200Y-143809200D02*
X172536200Y-143809200D01*
X171776200Y-141449200D02*
X172696200Y-141449200D01*
X178636200Y-145409200D02*
X178636200Y-147669200D01*
X179896200Y-147669200D02*
X171776200Y-147669200D01*
%TO.C,J27*%
X183685000Y-145170000D02*
X183685000Y-143110000D01*
X183685000Y-147230000D02*
X184745000Y-147230000D01*
X185805000Y-145170000D02*
X185805000Y-143110000D01*
X183685000Y-143110000D02*
X185805000Y-143110000D01*
X183685000Y-146170000D02*
X183685000Y-147230000D01*
X183685000Y-145170000D02*
X185805000Y-145170000D01*
%TO.C,C103*%
X198980820Y-124924200D02*
X199261980Y-124924200D01*
X198980820Y-125944200D02*
X199261980Y-125944200D01*
%TO.C,C99*%
X185493420Y-133153800D02*
X185774580Y-133153800D01*
X185493420Y-134173800D02*
X185774580Y-134173800D01*
%TO.C,J29*%
X173017000Y-127394000D02*
X175137000Y-127394000D01*
X173017000Y-135514000D02*
X174077000Y-135514000D01*
X173017000Y-134454000D02*
X173017000Y-135514000D01*
X175137000Y-133454000D02*
X175137000Y-127394000D01*
X173017000Y-133454000D02*
X173017000Y-127394000D01*
X173017000Y-133454000D02*
X175137000Y-133454000D01*
%TO.C,C110*%
X182454600Y-140191548D02*
X182454600Y-141614052D01*
X180634600Y-140191548D02*
X180634600Y-141614052D01*
%TO.C,R76*%
X198955420Y-131049600D02*
X199236580Y-131049600D01*
X198955420Y-130029600D02*
X199236580Y-130029600D01*
%TO.C,C112*%
X176189600Y-116671148D02*
X176189600Y-118093652D01*
X178009600Y-116671148D02*
X178009600Y-118093652D01*
%TO.C,R85*%
X193177500Y-143462742D02*
X193177500Y-143937258D01*
X194222500Y-143462742D02*
X194222500Y-143937258D01*
%TO.C,R86*%
X190477500Y-143362742D02*
X190477500Y-143837258D01*
X191522500Y-143362742D02*
X191522500Y-143837258D01*
%TO.C,C96*%
X198904620Y-132573600D02*
X199185780Y-132573600D01*
X198904620Y-131553600D02*
X199185780Y-131553600D01*
%TO.C,C107*%
X191488748Y-147610000D02*
X192911252Y-147610000D01*
X191488748Y-145790000D02*
X192911252Y-145790000D01*
%TO.C,C105*%
X192099180Y-121139600D02*
X191818020Y-121139600D01*
X192099180Y-122159600D02*
X191818020Y-122159600D01*
%TO.C,REF\u002A\u002A18*%
X204830000Y-114500000D02*
X204830000Y-113170000D01*
X204830000Y-115770000D02*
X204830000Y-115830000D01*
X204830000Y-113170000D02*
X203500000Y-113170000D01*
X204830000Y-115770000D02*
X202170000Y-115770000D01*
X204830000Y-115830000D02*
X202170000Y-115830000D01*
X202170000Y-115770000D02*
X202170000Y-115830000D01*
%TO.C,R88*%
X173249700Y-117738724D02*
X173249700Y-117229276D01*
X174294700Y-117738724D02*
X174294700Y-117229276D01*
D13*
%TO.C,Q12*%
X186328200Y-139098000D02*
X185028200Y-139098000D01*
X184578200Y-139138000D02*
X184578200Y-142058000D01*
X184578200Y-142058000D02*
X184678200Y-142058000D01*
X184678200Y-142058000D02*
X184678200Y-139138000D01*
X184678200Y-139138000D02*
X184578200Y-139138000D01*
D12*
%TO.C,D7*%
X190545600Y-134487200D02*
X190545600Y-138387200D01*
X188545600Y-134487200D02*
X190545600Y-134487200D01*
X188545600Y-134487200D02*
X188545600Y-138387200D01*
%TO.C,C116*%
X200492948Y-124286800D02*
X201915452Y-124286800D01*
X200492948Y-122466800D02*
X201915452Y-122466800D01*
%TO.C,REF\u002A\u002A11*%
X134480400Y-113258400D02*
X133150400Y-113258400D01*
X134480400Y-115858400D02*
X134480400Y-115918400D01*
X134480400Y-114588400D02*
X134480400Y-113258400D01*
X131820400Y-115858400D02*
X131820400Y-115918400D01*
X134480400Y-115858400D02*
X131820400Y-115858400D01*
X134480400Y-115918400D02*
X131820400Y-115918400D01*
%TO.C,R67*%
X127776500Y-117738724D02*
X127776500Y-117229276D01*
X128821500Y-117738724D02*
X128821500Y-117229276D01*
%TO.C,M5*%
X156406400Y-115673800D02*
X158466400Y-115673800D01*
X156406400Y-113553800D02*
X158466400Y-113553800D01*
X154346400Y-113553800D02*
X154346400Y-114613800D01*
X158466400Y-113553800D02*
X158466400Y-115673800D01*
X155406400Y-113553800D02*
X154346400Y-113553800D01*
X156406400Y-113553800D02*
X156406400Y-115673800D01*
%TO.C,C79*%
X131042252Y-138206000D02*
X129619748Y-138206000D01*
X131042252Y-136386000D02*
X129619748Y-136386000D01*
%TO.C,C62*%
X149683800Y-121802580D02*
X149683800Y-121521420D01*
X150703800Y-121802580D02*
X150703800Y-121521420D01*
%TO.C,C63*%
X148124580Y-122612800D02*
X147843420Y-122612800D01*
X148124580Y-123632800D02*
X147843420Y-123632800D01*
%TO.C,M6*%
X129289600Y-113350600D02*
X131349600Y-113350600D01*
X131349600Y-113350600D02*
X131349600Y-115470600D01*
X129289600Y-113350600D02*
X129289600Y-115470600D01*
X129289600Y-115470600D02*
X131349600Y-115470600D01*
X127229600Y-113350600D02*
X127229600Y-114410600D01*
X128289600Y-113350600D02*
X127229600Y-113350600D01*
%TO.C,R66*%
X155161300Y-118195924D02*
X155161300Y-117686476D01*
X154116300Y-118195924D02*
X154116300Y-117686476D01*
%TO.C,R58*%
X137175420Y-128738200D02*
X137456580Y-128738200D01*
X137175420Y-127718200D02*
X137456580Y-127718200D01*
%TO.C,C83*%
X160552600Y-130639348D02*
X160552600Y-132061852D01*
X158732600Y-130639348D02*
X158732600Y-132061852D01*
%TO.C,J24*%
X162226600Y-125129400D02*
X162226600Y-127189400D01*
X162226600Y-123069400D02*
X161166600Y-123069400D01*
X162226600Y-125129400D02*
X160106600Y-125129400D01*
X162226600Y-127189400D02*
X160106600Y-127189400D01*
X160106600Y-125129400D02*
X160106600Y-127189400D01*
X162226600Y-124129400D02*
X162226600Y-123069400D01*
%TO.C,J20*%
X125892800Y-133500000D02*
X128012800Y-133500000D01*
X125892800Y-135560000D02*
X126952800Y-135560000D01*
X125892800Y-133500000D02*
X125892800Y-127440000D01*
X125892800Y-127440000D02*
X128012800Y-127440000D01*
X128012800Y-133500000D02*
X128012800Y-127440000D01*
X125892800Y-134500000D02*
X125892800Y-135560000D01*
%TO.C,C78*%
X138454600Y-146262252D02*
X138454600Y-144839748D01*
X136634600Y-146262252D02*
X136634600Y-144839748D01*
%TO.C,C68*%
X159462800Y-141930620D02*
X159462800Y-142211780D01*
X160482800Y-141930620D02*
X160482800Y-142211780D01*
%TO.C,C71*%
X149785400Y-138884380D02*
X149785400Y-138603220D01*
X150805400Y-138884380D02*
X150805400Y-138603220D01*
%TO.C,C65*%
X158097600Y-117788748D02*
X158097600Y-119211252D01*
X159917600Y-117788748D02*
X159917600Y-119211252D01*
D13*
%TO.C,IC6*%
X139829400Y-132447200D02*
X133329400Y-132447200D01*
X133329400Y-135947200D02*
X139829400Y-135947200D01*
X139704400Y-138222200D02*
X139704400Y-136472200D01*
X133329400Y-132447200D02*
X133329400Y-135947200D01*
X139829400Y-135947200D02*
X139829400Y-132447200D01*
D12*
%TO.C,R64*%
X155614900Y-118195924D02*
X155614900Y-117686476D01*
X156659900Y-118195924D02*
X156659900Y-117686476D01*
%TO.C,J17*%
X133336200Y-143309200D02*
X130336200Y-143309200D01*
X127776200Y-139849200D02*
X128696200Y-139849200D01*
X134136200Y-145409200D02*
X134136200Y-147669200D01*
X128696200Y-141449200D02*
X128976200Y-141449200D01*
X134136200Y-145409200D02*
X134136200Y-143809200D01*
X134696200Y-141449200D02*
X134696200Y-140234200D01*
X128536200Y-145409200D02*
X129536200Y-145409200D01*
X135136200Y-143809200D02*
X135136200Y-145409200D01*
X130336200Y-143309200D02*
X130336200Y-147669200D01*
X135136200Y-145409200D02*
X134136200Y-145409200D01*
X128696200Y-139849200D02*
X128696200Y-141449200D01*
X133336200Y-147669200D02*
X133336200Y-143309200D01*
X135896200Y-139849200D02*
X135896200Y-147669200D01*
X134976200Y-139849200D02*
X135896200Y-139849200D01*
X134696200Y-141449200D02*
X134976200Y-141449200D01*
X135896200Y-141449200D02*
X134976200Y-141449200D01*
X128536200Y-143809200D02*
X128536200Y-145409200D01*
X134136200Y-143809200D02*
X135136200Y-143809200D01*
X127776200Y-147669200D02*
X127776200Y-139849200D01*
X134976200Y-141449200D02*
X134976200Y-139849200D01*
X129536200Y-145409200D02*
X129536200Y-143809200D01*
X129536200Y-143809200D02*
X128536200Y-143809200D01*
X127776200Y-141449200D02*
X128696200Y-141449200D01*
X134636200Y-145409200D02*
X134636200Y-147669200D01*
X135896200Y-147669200D02*
X127776200Y-147669200D01*
%TO.C,J19*%
X139685000Y-145170000D02*
X139685000Y-143110000D01*
X139685000Y-147230000D02*
X140745000Y-147230000D01*
X141805000Y-145170000D02*
X141805000Y-143110000D01*
X139685000Y-143110000D02*
X141805000Y-143110000D01*
X139685000Y-146170000D02*
X139685000Y-147230000D01*
X139685000Y-145170000D02*
X141805000Y-145170000D01*
%TO.C,C73*%
X154980820Y-124924200D02*
X155261980Y-124924200D01*
X154980820Y-125944200D02*
X155261980Y-125944200D01*
%TO.C,C69*%
X141493420Y-133153800D02*
X141774580Y-133153800D01*
X141493420Y-134173800D02*
X141774580Y-134173800D01*
%TO.C,J21*%
X129017000Y-127394000D02*
X131137000Y-127394000D01*
X129017000Y-135514000D02*
X130077000Y-135514000D01*
X129017000Y-134454000D02*
X129017000Y-135514000D01*
X131137000Y-133454000D02*
X131137000Y-127394000D01*
X129017000Y-133454000D02*
X129017000Y-127394000D01*
X129017000Y-133454000D02*
X131137000Y-133454000D01*
%TO.C,C80*%
X138454600Y-140191548D02*
X138454600Y-141614052D01*
X136634600Y-140191548D02*
X136634600Y-141614052D01*
%TO.C,R53*%
X154955420Y-131049600D02*
X155236580Y-131049600D01*
X154955420Y-130029600D02*
X155236580Y-130029600D01*
%TO.C,C82*%
X132189600Y-116671148D02*
X132189600Y-118093652D01*
X134009600Y-116671148D02*
X134009600Y-118093652D01*
%TO.C,R62*%
X149177500Y-143462742D02*
X149177500Y-143937258D01*
X150222500Y-143462742D02*
X150222500Y-143937258D01*
%TO.C,R63*%
X146477500Y-143362742D02*
X146477500Y-143837258D01*
X147522500Y-143362742D02*
X147522500Y-143837258D01*
%TO.C,C66*%
X154904620Y-132573600D02*
X155185780Y-132573600D01*
X154904620Y-131553600D02*
X155185780Y-131553600D01*
%TO.C,C77*%
X147488748Y-147610000D02*
X148911252Y-147610000D01*
X147488748Y-145790000D02*
X148911252Y-145790000D01*
%TO.C,C75*%
X148099180Y-121139600D02*
X147818020Y-121139600D01*
X148099180Y-122159600D02*
X147818020Y-122159600D01*
%TO.C,REF\u002A\u002A12*%
X160830000Y-114500000D02*
X160830000Y-113170000D01*
X160830000Y-115770000D02*
X160830000Y-115830000D01*
X160830000Y-113170000D02*
X159500000Y-113170000D01*
X160830000Y-115770000D02*
X158170000Y-115770000D01*
X160830000Y-115830000D02*
X158170000Y-115830000D01*
X158170000Y-115770000D02*
X158170000Y-115830000D01*
%TO.C,R65*%
X129249700Y-117738724D02*
X129249700Y-117229276D01*
X130294700Y-117738724D02*
X130294700Y-117229276D01*
D13*
%TO.C,Q9*%
X142328200Y-139098000D02*
X141028200Y-139098000D01*
X140578200Y-139138000D02*
X140578200Y-142058000D01*
X140578200Y-142058000D02*
X140678200Y-142058000D01*
X140678200Y-142058000D02*
X140678200Y-139138000D01*
X140678200Y-139138000D02*
X140578200Y-139138000D01*
D12*
%TO.C,D5*%
X146545600Y-134487200D02*
X146545600Y-138387200D01*
X144545600Y-134487200D02*
X146545600Y-134487200D01*
X144545600Y-134487200D02*
X144545600Y-138387200D01*
%TO.C,C86*%
X156492948Y-124286800D02*
X157915452Y-124286800D01*
X156492948Y-122466800D02*
X157915452Y-122466800D01*
%TO.C,REF\u002A\u002A5*%
X178480400Y-75258400D02*
X177150400Y-75258400D01*
X178480400Y-77858400D02*
X178480400Y-77918400D01*
X178480400Y-76588400D02*
X178480400Y-75258400D01*
X175820400Y-77858400D02*
X175820400Y-77918400D01*
X178480400Y-77858400D02*
X175820400Y-77858400D01*
X178480400Y-77918400D02*
X175820400Y-77918400D01*
%TO.C,R44*%
X171776500Y-79738724D02*
X171776500Y-79229276D01*
X172821500Y-79738724D02*
X172821500Y-79229276D01*
%TO.C,M3*%
X200406400Y-77673800D02*
X202466400Y-77673800D01*
X200406400Y-75553800D02*
X202466400Y-75553800D01*
X198346400Y-75553800D02*
X198346400Y-76613800D01*
X202466400Y-75553800D02*
X202466400Y-77673800D01*
X199406400Y-75553800D02*
X198346400Y-75553800D01*
X200406400Y-75553800D02*
X200406400Y-77673800D01*
%TO.C,C49*%
X175042252Y-100206000D02*
X173619748Y-100206000D01*
X175042252Y-98386000D02*
X173619748Y-98386000D01*
%TO.C,C25*%
X193683800Y-83802580D02*
X193683800Y-83521420D01*
X194703800Y-83802580D02*
X194703800Y-83521420D01*
%TO.C,C27*%
X192124580Y-84612800D02*
X191843420Y-84612800D01*
X192124580Y-85632800D02*
X191843420Y-85632800D01*
%TO.C,M4*%
X173289600Y-75350600D02*
X175349600Y-75350600D01*
X175349600Y-75350600D02*
X175349600Y-77470600D01*
X173289600Y-75350600D02*
X173289600Y-77470600D01*
X173289600Y-77470600D02*
X175349600Y-77470600D01*
X171229600Y-75350600D02*
X171229600Y-76410600D01*
X172289600Y-75350600D02*
X171229600Y-75350600D01*
%TO.C,R43*%
X199161300Y-80195924D02*
X199161300Y-79686476D01*
X198116300Y-80195924D02*
X198116300Y-79686476D01*
%TO.C,R35*%
X181175420Y-90738200D02*
X181456580Y-90738200D01*
X181175420Y-89718200D02*
X181456580Y-89718200D01*
%TO.C,C53*%
X204552600Y-92639348D02*
X204552600Y-94061852D01*
X202732600Y-92639348D02*
X202732600Y-94061852D01*
%TO.C,J16*%
X206226600Y-87129400D02*
X206226600Y-89189400D01*
X206226600Y-85069400D02*
X205166600Y-85069400D01*
X206226600Y-87129400D02*
X204106600Y-87129400D01*
X206226600Y-89189400D02*
X204106600Y-89189400D01*
X204106600Y-87129400D02*
X204106600Y-89189400D01*
X206226600Y-86129400D02*
X206226600Y-85069400D01*
%TO.C,J12*%
X169892800Y-95500000D02*
X172012800Y-95500000D01*
X169892800Y-97560000D02*
X170952800Y-97560000D01*
X169892800Y-95500000D02*
X169892800Y-89440000D01*
X169892800Y-89440000D02*
X172012800Y-89440000D01*
X172012800Y-95500000D02*
X172012800Y-89440000D01*
X169892800Y-96500000D02*
X169892800Y-97560000D01*
%TO.C,C48*%
X182454600Y-108262252D02*
X182454600Y-106839748D01*
X180634600Y-108262252D02*
X180634600Y-106839748D01*
%TO.C,C38*%
X203462800Y-103930620D02*
X203462800Y-104211780D01*
X204482800Y-103930620D02*
X204482800Y-104211780D01*
%TO.C,C41*%
X193785400Y-100884380D02*
X193785400Y-100603220D01*
X194805400Y-100884380D02*
X194805400Y-100603220D01*
%TO.C,C29*%
X202097600Y-79788748D02*
X202097600Y-81211252D01*
X203917600Y-79788748D02*
X203917600Y-81211252D01*
D13*
%TO.C,IC4*%
X183829400Y-94447200D02*
X177329400Y-94447200D01*
X177329400Y-97947200D02*
X183829400Y-97947200D01*
X183704400Y-100222200D02*
X183704400Y-98472200D01*
X177329400Y-94447200D02*
X177329400Y-97947200D01*
X183829400Y-97947200D02*
X183829400Y-94447200D01*
D12*
%TO.C,R41*%
X199614900Y-80195924D02*
X199614900Y-79686476D01*
X200659900Y-80195924D02*
X200659900Y-79686476D01*
%TO.C,J2*%
X177336200Y-105309200D02*
X174336200Y-105309200D01*
X171776200Y-101849200D02*
X172696200Y-101849200D01*
X178136200Y-107409200D02*
X178136200Y-109669200D01*
X172696200Y-103449200D02*
X172976200Y-103449200D01*
X178136200Y-107409200D02*
X178136200Y-105809200D01*
X178696200Y-103449200D02*
X178696200Y-102234200D01*
X172536200Y-107409200D02*
X173536200Y-107409200D01*
X179136200Y-105809200D02*
X179136200Y-107409200D01*
X174336200Y-105309200D02*
X174336200Y-109669200D01*
X179136200Y-107409200D02*
X178136200Y-107409200D01*
X172696200Y-101849200D02*
X172696200Y-103449200D01*
X177336200Y-109669200D02*
X177336200Y-105309200D01*
X179896200Y-101849200D02*
X179896200Y-109669200D01*
X178976200Y-101849200D02*
X179896200Y-101849200D01*
X178696200Y-103449200D02*
X178976200Y-103449200D01*
X179896200Y-103449200D02*
X178976200Y-103449200D01*
X172536200Y-105809200D02*
X172536200Y-107409200D01*
X178136200Y-105809200D02*
X179136200Y-105809200D01*
X171776200Y-109669200D02*
X171776200Y-101849200D01*
X178976200Y-103449200D02*
X178976200Y-101849200D01*
X173536200Y-107409200D02*
X173536200Y-105809200D01*
X173536200Y-105809200D02*
X172536200Y-105809200D01*
X171776200Y-103449200D02*
X172696200Y-103449200D01*
X178636200Y-107409200D02*
X178636200Y-109669200D01*
X179896200Y-109669200D02*
X171776200Y-109669200D01*
%TO.C,J9*%
X183685000Y-107170000D02*
X183685000Y-105110000D01*
X183685000Y-109230000D02*
X184745000Y-109230000D01*
X185805000Y-107170000D02*
X185805000Y-105110000D01*
X183685000Y-105110000D02*
X185805000Y-105110000D01*
X183685000Y-108170000D02*
X183685000Y-109230000D01*
X183685000Y-107170000D02*
X185805000Y-107170000D01*
%TO.C,C43*%
X198980820Y-86924200D02*
X199261980Y-86924200D01*
X198980820Y-87944200D02*
X199261980Y-87944200D01*
%TO.C,C39*%
X185493420Y-95153800D02*
X185774580Y-95153800D01*
X185493420Y-96173800D02*
X185774580Y-96173800D01*
%TO.C,J13*%
X173017000Y-89394000D02*
X175137000Y-89394000D01*
X173017000Y-97514000D02*
X174077000Y-97514000D01*
X173017000Y-96454000D02*
X173017000Y-97514000D01*
X175137000Y-95454000D02*
X175137000Y-89394000D01*
X173017000Y-95454000D02*
X173017000Y-89394000D01*
X173017000Y-95454000D02*
X175137000Y-95454000D01*
%TO.C,C50*%
X182454600Y-102191548D02*
X182454600Y-103614052D01*
X180634600Y-102191548D02*
X180634600Y-103614052D01*
%TO.C,R30*%
X198955420Y-93049600D02*
X199236580Y-93049600D01*
X198955420Y-92029600D02*
X199236580Y-92029600D01*
%TO.C,C52*%
X176189600Y-78671148D02*
X176189600Y-80093652D01*
X178009600Y-78671148D02*
X178009600Y-80093652D01*
%TO.C,R39*%
X193177500Y-105462742D02*
X193177500Y-105937258D01*
X194222500Y-105462742D02*
X194222500Y-105937258D01*
%TO.C,R40*%
X190477500Y-105362742D02*
X190477500Y-105837258D01*
X191522500Y-105362742D02*
X191522500Y-105837258D01*
%TO.C,C31*%
X198904620Y-94573600D02*
X199185780Y-94573600D01*
X198904620Y-93553600D02*
X199185780Y-93553600D01*
%TO.C,C47*%
X191488748Y-109610000D02*
X192911252Y-109610000D01*
X191488748Y-107790000D02*
X192911252Y-107790000D01*
%TO.C,C45*%
X192099180Y-83139600D02*
X191818020Y-83139600D01*
X192099180Y-84159600D02*
X191818020Y-84159600D01*
%TO.C,REF\u002A\u002A6*%
X204830000Y-76500000D02*
X204830000Y-75170000D01*
X204830000Y-77770000D02*
X204830000Y-77830000D01*
X204830000Y-75170000D02*
X203500000Y-75170000D01*
X204830000Y-77770000D02*
X202170000Y-77770000D01*
X204830000Y-77830000D02*
X202170000Y-77830000D01*
X202170000Y-77770000D02*
X202170000Y-77830000D01*
%TO.C,R42*%
X173249700Y-79738724D02*
X173249700Y-79229276D01*
X174294700Y-79738724D02*
X174294700Y-79229276D01*
D13*
%TO.C,Q8*%
X186328200Y-101098000D02*
X185028200Y-101098000D01*
X184578200Y-101138000D02*
X184578200Y-104058000D01*
X184578200Y-104058000D02*
X184678200Y-104058000D01*
X184678200Y-104058000D02*
X184678200Y-101138000D01*
X184678200Y-101138000D02*
X184578200Y-101138000D01*
D12*
%TO.C,D2*%
X190545600Y-96487200D02*
X190545600Y-100387200D01*
X188545600Y-96487200D02*
X190545600Y-96487200D01*
X188545600Y-96487200D02*
X188545600Y-100387200D01*
%TO.C,C56*%
X200492948Y-86286800D02*
X201915452Y-86286800D01*
X200492948Y-84466800D02*
X201915452Y-84466800D01*
%TO.C,C33*%
X156492948Y-86286800D02*
X157915452Y-86286800D01*
X156492948Y-84466800D02*
X157915452Y-84466800D01*
%TO.C,C22*%
X132189600Y-78671148D02*
X132189600Y-80093652D01*
X134009600Y-78671148D02*
X134009600Y-80093652D01*
%TO.C,D1*%
X146545600Y-96487200D02*
X146545600Y-100387200D01*
X144545600Y-96487200D02*
X146545600Y-96487200D01*
X144545600Y-96487200D02*
X144545600Y-100387200D01*
%TO.C,C20*%
X138454600Y-102191548D02*
X138454600Y-103614052D01*
X136634600Y-102191548D02*
X136634600Y-103614052D01*
%TO.C,C15*%
X148099180Y-83139600D02*
X147818020Y-83139600D01*
X148099180Y-84159600D02*
X147818020Y-84159600D01*
%TO.C,J4*%
X139685000Y-107170000D02*
X139685000Y-105110000D01*
X139685000Y-109230000D02*
X140745000Y-109230000D01*
X141805000Y-107170000D02*
X141805000Y-105110000D01*
X139685000Y-105110000D02*
X141805000Y-105110000D01*
X139685000Y-108170000D02*
X139685000Y-109230000D01*
X139685000Y-107170000D02*
X141805000Y-107170000D01*
%TO.C,J6*%
X129017000Y-89394000D02*
X131137000Y-89394000D01*
X129017000Y-97514000D02*
X130077000Y-97514000D01*
X129017000Y-96454000D02*
X129017000Y-97514000D01*
X131137000Y-95454000D02*
X131137000Y-89394000D01*
X129017000Y-95454000D02*
X129017000Y-89394000D01*
X129017000Y-95454000D02*
X131137000Y-95454000D01*
%TO.C,C9*%
X141493420Y-95153800D02*
X141774580Y-95153800D01*
X141493420Y-96173800D02*
X141774580Y-96173800D01*
%TO.C,R7*%
X154955420Y-93049600D02*
X155236580Y-93049600D01*
X154955420Y-92029600D02*
X155236580Y-92029600D01*
%TO.C,J1*%
X133336200Y-105309200D02*
X130336200Y-105309200D01*
X127776200Y-101849200D02*
X128696200Y-101849200D01*
X134136200Y-107409200D02*
X134136200Y-109669200D01*
X128696200Y-103449200D02*
X128976200Y-103449200D01*
X134136200Y-107409200D02*
X134136200Y-105809200D01*
X134696200Y-103449200D02*
X134696200Y-102234200D01*
X128536200Y-107409200D02*
X129536200Y-107409200D01*
X135136200Y-105809200D02*
X135136200Y-107409200D01*
X130336200Y-105309200D02*
X130336200Y-109669200D01*
X135136200Y-107409200D02*
X134136200Y-107409200D01*
X128696200Y-101849200D02*
X128696200Y-103449200D01*
X133336200Y-109669200D02*
X133336200Y-105309200D01*
X135896200Y-101849200D02*
X135896200Y-109669200D01*
X134976200Y-101849200D02*
X135896200Y-101849200D01*
X134696200Y-103449200D02*
X134976200Y-103449200D01*
X135896200Y-103449200D02*
X134976200Y-103449200D01*
X128536200Y-105809200D02*
X128536200Y-107409200D01*
X134136200Y-105809200D02*
X135136200Y-105809200D01*
X127776200Y-109669200D02*
X127776200Y-101849200D01*
X134976200Y-103449200D02*
X134976200Y-101849200D01*
X129536200Y-107409200D02*
X129536200Y-105809200D01*
X129536200Y-105809200D02*
X128536200Y-105809200D01*
X127776200Y-103449200D02*
X128696200Y-103449200D01*
X134636200Y-107409200D02*
X134636200Y-109669200D01*
X135896200Y-109669200D02*
X127776200Y-109669200D01*
%TO.C,C13*%
X154980820Y-86924200D02*
X155261980Y-86924200D01*
X154980820Y-87944200D02*
X155261980Y-87944200D01*
%TO.C,R18*%
X155614900Y-80195924D02*
X155614900Y-79686476D01*
X156659900Y-80195924D02*
X156659900Y-79686476D01*
D13*
%TO.C,IC2*%
X139829400Y-94447200D02*
X133329400Y-94447200D01*
X133329400Y-97947200D02*
X139829400Y-97947200D01*
X139704400Y-100222200D02*
X139704400Y-98472200D01*
X133329400Y-94447200D02*
X133329400Y-97947200D01*
X139829400Y-97947200D02*
X139829400Y-94447200D01*
%TO.C,Q7*%
X142328200Y-101098000D02*
X141028200Y-101098000D01*
X140578200Y-101138000D02*
X140578200Y-104058000D01*
X140578200Y-104058000D02*
X140678200Y-104058000D01*
X140678200Y-104058000D02*
X140678200Y-101138000D01*
X140678200Y-101138000D02*
X140578200Y-101138000D01*
D12*
%TO.C,C17*%
X147488748Y-109610000D02*
X148911252Y-109610000D01*
X147488748Y-107790000D02*
X148911252Y-107790000D01*
%TO.C,R19*%
X129249700Y-79738724D02*
X129249700Y-79229276D01*
X130294700Y-79738724D02*
X130294700Y-79229276D01*
%TO.C,REF\u002A\u002A*%
X160830000Y-76500000D02*
X160830000Y-75170000D01*
X160830000Y-77770000D02*
X160830000Y-77830000D01*
X160830000Y-75170000D02*
X159500000Y-75170000D01*
X160830000Y-77770000D02*
X158170000Y-77770000D01*
X160830000Y-77830000D02*
X158170000Y-77830000D01*
X158170000Y-77770000D02*
X158170000Y-77830000D01*
%TO.C,C6*%
X154904620Y-94573600D02*
X155185780Y-94573600D01*
X154904620Y-93553600D02*
X155185780Y-93553600D01*
%TO.C,R17*%
X146477500Y-105362742D02*
X146477500Y-105837258D01*
X147522500Y-105362742D02*
X147522500Y-105837258D01*
%TO.C,R16*%
X149177500Y-105462742D02*
X149177500Y-105937258D01*
X150222500Y-105462742D02*
X150222500Y-105937258D01*
%TO.C,M2*%
X129289600Y-75350600D02*
X131349600Y-75350600D01*
X131349600Y-75350600D02*
X131349600Y-77470600D01*
X129289600Y-75350600D02*
X129289600Y-77470600D01*
X129289600Y-77470600D02*
X131349600Y-77470600D01*
X127229600Y-75350600D02*
X127229600Y-76410600D01*
X128289600Y-75350600D02*
X127229600Y-75350600D01*
%TO.C,J5*%
X125892800Y-95500000D02*
X128012800Y-95500000D01*
X125892800Y-97560000D02*
X126952800Y-97560000D01*
X125892800Y-95500000D02*
X125892800Y-89440000D01*
X125892800Y-89440000D02*
X128012800Y-89440000D01*
X128012800Y-95500000D02*
X128012800Y-89440000D01*
X125892800Y-96500000D02*
X125892800Y-97560000D01*
%TO.C,C23*%
X160552600Y-92639348D02*
X160552600Y-94061852D01*
X158732600Y-92639348D02*
X158732600Y-94061852D01*
%TO.C,C8*%
X159462800Y-103930620D02*
X159462800Y-104211780D01*
X160482800Y-103930620D02*
X160482800Y-104211780D01*
%TO.C,R12*%
X137175420Y-90738200D02*
X137456580Y-90738200D01*
X137175420Y-89718200D02*
X137456580Y-89718200D01*
%TO.C,C18*%
X138454600Y-108262252D02*
X138454600Y-106839748D01*
X136634600Y-108262252D02*
X136634600Y-106839748D01*
%TO.C,C19*%
X131042252Y-100206000D02*
X129619748Y-100206000D01*
X131042252Y-98386000D02*
X129619748Y-98386000D01*
%TO.C,R20*%
X155161300Y-80195924D02*
X155161300Y-79686476D01*
X154116300Y-80195924D02*
X154116300Y-79686476D01*
%TO.C,REF\u002A\u002A*%
X134480400Y-75258400D02*
X133150400Y-75258400D01*
X134480400Y-77858400D02*
X134480400Y-77918400D01*
X134480400Y-76588400D02*
X134480400Y-75258400D01*
X131820400Y-77858400D02*
X131820400Y-77918400D01*
X134480400Y-77858400D02*
X131820400Y-77858400D01*
X134480400Y-77918400D02*
X131820400Y-77918400D01*
%TO.C,C5*%
X158097600Y-79788748D02*
X158097600Y-81211252D01*
X159917600Y-79788748D02*
X159917600Y-81211252D01*
%TO.C,M1*%
X156406400Y-77673800D02*
X158466400Y-77673800D01*
X156406400Y-75553800D02*
X158466400Y-75553800D01*
X154346400Y-75553800D02*
X154346400Y-76613800D01*
X158466400Y-75553800D02*
X158466400Y-77673800D01*
X155406400Y-75553800D02*
X154346400Y-75553800D01*
X156406400Y-75553800D02*
X156406400Y-77673800D01*
%TO.C,R21*%
X127776500Y-79738724D02*
X127776500Y-79229276D01*
X128821500Y-79738724D02*
X128821500Y-79229276D01*
%TO.C,J11*%
X162226600Y-87129400D02*
X162226600Y-89189400D01*
X162226600Y-85069400D02*
X161166600Y-85069400D01*
X162226600Y-87129400D02*
X160106600Y-87129400D01*
X162226600Y-89189400D02*
X160106600Y-89189400D01*
X160106600Y-87129400D02*
X160106600Y-89189400D01*
X162226600Y-86129400D02*
X162226600Y-85069400D01*
%TO.C,C11*%
X149785400Y-100884380D02*
X149785400Y-100603220D01*
X150805400Y-100884380D02*
X150805400Y-100603220D01*
%TO.C,C3*%
X148124580Y-84612800D02*
X147843420Y-84612800D01*
X148124580Y-85632800D02*
X147843420Y-85632800D01*
%TO.C,C2*%
X149683800Y-83802580D02*
X149683800Y-83521420D01*
X150703800Y-83802580D02*
X150703800Y-83521420D01*
%TD*%
M02*
