M48
; DRILL file {KiCad (6.0.4)} date Tue Sep 20 18:54:58 2022
; FORMAT={-:-/ absolute / metric / decimal}
; #@! TF.CreationDate,2022-09-20T18:54:58+09:00
; #@! TF.GenerationSoftware,Kicad,Pcbnew,(6.0.4)
; #@! TF.FileFunction,MixedPlating,1,2
FMAT,2
METRIC
; #@! TA.AperFunction,Plated,PTH,ViaDrill
T1C0.200
; #@! TA.AperFunction,Plated,PTH,ComponentDrill
T2C0.350
; #@! TA.AperFunction,Plated,PTH,ViaDrill
T3C0.400
; #@! TA.AperFunction,Plated,PTH,ComponentDrill
T4C0.600
; #@! TA.AperFunction,Plated,PTH,ComponentDrill
T5C0.750
; #@! TA.AperFunction,NonPlated,NPTH,ComponentDrill
T6C0.650
; #@! TA.AperFunction,NonPlated,NPTH,ComponentDrill
T7C2.200
%
G90
G05
T1
X142.244Y-92.565
X142.244Y-130.565
X147.687Y-86.266
X147.687Y-124.266
X150.2Y-86.2
X150.2Y-124.2
X153.636Y-89.416
X153.636Y-127.416
X153.75Y-92.565
X153.75Y-130.565
X155.311Y-92.163
X155.311Y-130.163
X155.375Y-88.489
X155.375Y-126.489
X155.6Y-93.414
X155.6Y-131.414
X157.992Y-95.003
X157.992Y-133.003
X160.278Y-96.959
X160.278Y-134.959
X161.15Y-94.5
X161.15Y-132.5
X161.6Y-94.9
X161.6Y-132.9
X186.244Y-92.565
X186.244Y-130.565
X191.687Y-86.266
X191.687Y-124.266
X194.2Y-86.2
X194.2Y-124.2
X197.636Y-89.416
X197.636Y-127.416
X197.75Y-92.565
X197.75Y-130.565
X199.311Y-92.163
X199.311Y-130.163
X199.375Y-88.489
X199.375Y-126.489
X199.6Y-93.414
X199.6Y-131.414
X201.992Y-95.003
X201.992Y-133.003
X204.278Y-96.959
X204.278Y-134.959
X205.15Y-94.5
X205.15Y-132.5
X205.6Y-94.9
X205.6Y-132.9
T2
X148.113Y-89.402
X148.113Y-90.677
X148.113Y-91.952
X148.113Y-127.402
X148.113Y-128.677
X148.113Y-129.952
X149.388Y-89.402
X149.388Y-90.677
X149.388Y-91.952
X149.388Y-127.402
X149.388Y-128.677
X149.388Y-129.952
X150.663Y-89.402
X150.663Y-90.677
X150.663Y-91.952
X150.663Y-127.402
X150.663Y-128.677
X150.663Y-129.952
X192.113Y-89.402
X192.113Y-90.677
X192.113Y-91.952
X192.113Y-127.402
X192.113Y-128.677
X192.113Y-129.952
X193.388Y-89.402
X193.388Y-90.677
X193.388Y-91.952
X193.388Y-127.402
X193.388Y-128.677
X193.388Y-129.952
X194.663Y-89.402
X194.663Y-90.677
X194.663Y-91.952
X194.663Y-127.402
X194.663Y-128.677
X194.663Y-129.952
T3
X125.4Y-93.4
X125.4Y-131.4
X125.6Y-85.2
X125.6Y-86.4
X125.6Y-123.2
X125.6Y-124.4
X126.0Y-76.0
X126.0Y-82.0
X126.0Y-89.0
X126.0Y-96.5
X126.0Y-98.0
X126.0Y-100.0
X126.0Y-104.0
X126.0Y-109.0
X126.0Y-114.0
X126.0Y-120.0
X126.0Y-127.0
X126.0Y-134.5
X126.0Y-136.0
X126.0Y-138.0
X126.0Y-142.0
X126.0Y-147.0
X126.5Y-77.0
X126.5Y-80.5
X126.5Y-83.5
X126.5Y-115.0
X126.5Y-118.5
X126.5Y-121.5
X126.6Y-84.4
X126.6Y-122.4
X126.8Y-79.0
X126.8Y-117.0
X126.978Y-99.093
X126.978Y-137.093
X127.0Y-86.6
X127.0Y-105.5
X127.0Y-107.5
X127.0Y-124.6
X127.0Y-143.5
X127.0Y-145.5
X127.41Y-80.805
X127.41Y-118.805
X127.486Y-99.55
X127.486Y-137.55
X127.791Y-75.725
X127.791Y-77.046
X127.791Y-113.725
X127.791Y-115.046
X127.8Y-103.0
X127.8Y-141.0
X128.02Y-99.118
X128.02Y-137.118
X128.321Y-109.0
X128.321Y-147.0
X128.38Y-77.91
X128.38Y-115.91
X128.4Y-86.6
X128.4Y-124.6
X128.496Y-89.491
X128.496Y-127.491
X128.5Y-91.5
X128.5Y-92.5
X128.5Y-94.5
X128.5Y-96.5
X128.5Y-129.5
X128.5Y-130.5
X128.5Y-132.5
X128.5Y-134.5
X128.592Y-75.801
X128.592Y-113.801
X128.8Y-84.8
X128.8Y-88.2
X128.8Y-122.8
X128.8Y-126.2
X129.0Y-107.5
X129.0Y-145.5
X129.123Y-104.874
X129.123Y-142.874
X129.417Y-82.786
X129.417Y-120.786
X130.232Y-75.684
X130.232Y-113.684
X130.241Y-76.36
X130.241Y-114.36
X130.28Y-77.122
X130.28Y-115.122
X130.5Y-88.5
X130.5Y-89.5
X130.5Y-108.978
X130.5Y-126.5
X130.5Y-127.5
X130.5Y-146.978
X130.737Y-82.786
X130.737Y-120.786
X131.25Y-96.5
X131.25Y-108.0
X131.25Y-134.5
X131.25Y-146.0
X131.398Y-87.6
X131.398Y-125.6
X131.5Y-107.0
X131.5Y-145.0
X131.722Y-84.616
X131.722Y-122.616
X131.804Y-86.266
X131.804Y-124.266
X131.84Y-90.84
X131.84Y-128.84
X132.0Y-79.382
X132.0Y-117.382
X132.388Y-77.35
X132.388Y-115.35
X132.566Y-76.665
X132.566Y-114.665
X132.592Y-76.004
X132.592Y-114.004
X132.6Y-85.4
X132.6Y-123.4
X132.8Y-102.0
X132.8Y-140.0
X132.85Y-82.375
X132.85Y-120.375
X133.0Y-81.0
X133.0Y-119.0
X133.1Y-79.382
X133.1Y-117.382
X133.2Y-95.0
X133.2Y-133.0
X133.4Y-96.6
X133.4Y-134.6
X133.5Y-107.15
X133.5Y-145.15
X133.887Y-87.51
X133.887Y-125.51
X134.2Y-79.4
X134.2Y-117.4
X134.446Y-82.38
X134.446Y-120.38
X134.475Y-75.575
X134.475Y-113.575
X134.5Y-90.5
X134.5Y-128.5
X134.625Y-108.975
X134.625Y-146.975
X134.827Y-87.866
X134.827Y-125.866
X134.878Y-100.287
X134.878Y-138.287
X134.979Y-101.201
X134.979Y-139.201
X135.504Y-99.577
X135.504Y-137.577
X135.514Y-105.086
X135.514Y-143.086
X136.122Y-90.685
X136.122Y-128.685
X136.49Y-78.995
X136.49Y-116.995
X136.5Y-76.0
X136.5Y-77.5
X136.5Y-82.0
X136.5Y-95.5
X136.5Y-114.0
X136.5Y-115.5
X136.5Y-120.0
X136.5Y-133.5
X136.554Y-96.832
X136.554Y-134.832
X136.579Y-98.722
X136.579Y-99.982
X136.579Y-136.722
X136.579Y-137.982
X136.605Y-92.326
X136.605Y-130.326
X137.0Y-84.0
X137.0Y-122.0
X137.25Y-88.75
X137.25Y-126.75
X137.4Y-85.4
X137.4Y-123.4
X137.575Y-106.4
X137.575Y-144.4
X137.654Y-100.134
X137.654Y-138.134
X137.679Y-99.321
X137.679Y-137.321
X137.849Y-102.598
X137.849Y-140.598
X138.0Y-76.0
X138.0Y-80.5
X138.0Y-82.0
X138.0Y-114.0
X138.0Y-118.5
X138.0Y-120.0
X138.8Y-84.2
X138.8Y-122.2
X138.891Y-100.363
X138.891Y-138.363
X139.13Y-94.1
X139.13Y-132.1
X139.134Y-95.757
X139.134Y-133.757
X139.221Y-89.629
X139.221Y-127.629
X139.436Y-93.361
X139.436Y-131.361
X139.734Y-86.24
X139.734Y-124.24
X139.764Y-84.937
X139.764Y-122.937
X139.78Y-94.114
X139.78Y-132.114
X139.831Y-95.689
X139.831Y-133.689
X139.922Y-87.018
X139.922Y-125.018
X140.2Y-100.8
X140.2Y-138.8
X140.3Y-99.2
X140.3Y-137.2
X140.339Y-90.152
X140.339Y-128.152
X140.5Y-78.4
X140.5Y-116.4
X140.646Y-85.501
X140.646Y-123.501
X140.7Y-81.5
X140.7Y-119.5
X140.8Y-79.9
X140.8Y-117.9
X141.006Y-77.25
X141.006Y-115.25
X141.4Y-83.4
X141.4Y-121.4
X141.812Y-90.628
X141.812Y-128.628
X142.1Y-78.525
X142.1Y-116.524
X142.325Y-104.3
X142.325Y-142.3
X142.575Y-107.125
X142.575Y-145.125
X142.7Y-80.4
X142.7Y-118.4
X142.75Y-81.5
X142.75Y-119.5
X142.775Y-105.975
X142.775Y-143.975
X142.8Y-99.4
X142.8Y-137.4
X142.813Y-89.809
X142.813Y-127.809
X143.0Y-101.6
X143.0Y-109.0
X143.0Y-139.6
X143.0Y-147.0
X143.006Y-100.261
X143.006Y-138.261
X143.178Y-88.301
X143.178Y-126.301
X143.214Y-93.544
X143.214Y-131.544
X143.336Y-87.358
X143.336Y-125.358
X143.585Y-76.296
X143.585Y-114.296
X143.75Y-81.25
X143.75Y-119.25
X143.763Y-88.923
X143.763Y-126.923
X143.8Y-85.6
X143.8Y-123.6
X143.853Y-97.271
X143.853Y-135.271
X144.195Y-91.048
X144.195Y-129.048
X144.445Y-95.325
X144.445Y-133.325
X144.492Y-108.994
X144.492Y-146.994
X144.572Y-78.028
X144.572Y-116.028
X144.707Y-85.478
X144.707Y-123.478
X144.75Y-80.75
X144.75Y-118.75
X144.775Y-86.845
X144.775Y-124.845
X144.8Y-105.6
X144.8Y-143.6
X144.855Y-87.754
X144.855Y-125.754
X145.0Y-83.6
X145.0Y-99.0
X145.0Y-121.6
X145.0Y-137.0
X145.013Y-91.077
X145.013Y-129.077
X145.25Y-94.25
X145.25Y-132.25
X145.448Y-81.631
X145.448Y-119.631
X145.5Y-78.5
X145.5Y-116.5
X145.7Y-106.5
X145.7Y-144.5
X145.843Y-86.146
X145.843Y-124.146
X145.901Y-101.684
X145.901Y-139.684
X146.4Y-95.2
X146.4Y-133.2
X146.471Y-83.6
X146.471Y-121.6
X146.5Y-99.0
X146.5Y-137.0
X147.0Y-78.0
X147.0Y-116.0
X147.011Y-104.2
X147.011Y-142.2
X147.8Y-81.8
X147.8Y-119.8
X148.0Y-77.2
X148.0Y-115.2
X148.238Y-92.876
X148.238Y-108.77
X148.238Y-130.876
X148.238Y-146.77
X148.3Y-104.3
X148.3Y-142.3
X148.5Y-78.5
X148.5Y-106.5
X148.5Y-116.5
X148.5Y-144.5
X148.546Y-86.271
X148.546Y-124.271
X148.594Y-80.153
X148.594Y-118.153
X148.771Y-88.603
X148.771Y-126.603
X149.0Y-77.5
X149.0Y-115.5
X149.2Y-75.6
X149.2Y-113.6
X149.252Y-83.997
X149.252Y-121.997
X149.288Y-95.384
X149.288Y-133.384
X149.7Y-104.3
X149.7Y-142.3
X150.0Y-76.5
X150.0Y-78.0
X150.0Y-114.5
X150.0Y-116.0
X150.092Y-108.135
X150.092Y-146.135
X150.245Y-84.322
X150.245Y-122.322
X150.5Y-79.5
X150.5Y-117.5
X150.88Y-99.245
X150.88Y-137.245
X150.9Y-106.2
X150.9Y-144.2
X151.3Y-108.9
X151.3Y-146.9
X151.4Y-104.9
X151.4Y-142.9
X151.469Y-85.25
X151.469Y-123.25
X151.493Y-78.993
X151.493Y-116.993
X151.5Y-76.0
X151.5Y-77.5
X151.5Y-80.5
X151.5Y-100.0
X151.5Y-101.5
X151.5Y-114.0
X151.5Y-115.5
X151.5Y-118.5
X151.5Y-138.0
X151.5Y-139.5
X151.87Y-88.247
X151.87Y-126.247
X153.0Y-94.5
X153.0Y-109.4
X153.0Y-132.5
X153.0Y-147.4
X153.168Y-85.678
X153.168Y-123.678
X153.575Y-79.825
X153.575Y-117.825
X153.6Y-107.8
X153.6Y-145.8
X153.8Y-80.8
X153.8Y-84.8
X153.8Y-118.8
X153.8Y-122.8
X153.801Y-94.038
X153.801Y-132.038
X154.0Y-75.5
X154.0Y-77.5
X154.0Y-82.6
X154.0Y-83.6
X154.0Y-105.8
X154.0Y-113.5
X154.0Y-115.5
X154.0Y-120.6
X154.0Y-121.6
X154.0Y-143.8
X154.334Y-103.245
X154.334Y-141.245
X154.735Y-89.588
X154.735Y-127.588
X154.8Y-98.8
X154.8Y-100.8
X154.8Y-136.8
X154.8Y-138.8
X154.918Y-77.325
X154.918Y-115.325
X155.121Y-78.443
X155.121Y-116.443
X155.172Y-82.608
X155.172Y-120.608
X155.5Y-87.434
X155.5Y-125.434
X155.54Y-75.877
X155.54Y-76.614
X155.54Y-113.877
X155.54Y-114.614
X155.8Y-107.4
X155.8Y-145.4
X155.995Y-99.481
X155.995Y-137.481
X156.0Y-98.0
X156.0Y-101.0
X156.0Y-136.0
X156.0Y-139.0
X156.8Y-106.2
X156.8Y-109.0
X156.8Y-144.2
X156.8Y-147.0
X157.19Y-76.0
X157.19Y-76.715
X157.19Y-114.0
X157.19Y-114.715
X157.29Y-85.378
X157.29Y-123.378
X157.5Y-77.307
X157.5Y-115.307
X158.0Y-98.0
X158.0Y-99.5
X158.0Y-101.0
X158.0Y-107.4
X158.0Y-136.0
X158.0Y-137.5
X158.0Y-139.0
X158.0Y-145.4
X158.068Y-85.707
X158.068Y-123.707
X159.4Y-76.8
X159.4Y-114.8
X159.5Y-86.5
X159.5Y-124.5
X159.687Y-92.101
X159.687Y-130.101
X159.922Y-76.004
X159.922Y-114.004
X160.127Y-76.782
X160.127Y-114.782
X160.201Y-105.9
X160.201Y-143.9
X160.5Y-80.5
X160.5Y-118.5
X161.0Y-77.0
X161.0Y-78.5
X161.0Y-107.5
X161.0Y-115.0
X161.0Y-116.5
X161.0Y-145.5
X161.192Y-90.101
X161.192Y-128.101
X161.475Y-104.2
X161.475Y-142.2
X161.5Y-82.0
X161.5Y-102.5
X161.5Y-109.0
X161.5Y-120.0
X161.5Y-140.5
X161.5Y-147.0
X161.8Y-92.006
X161.8Y-130.006
X162.0Y-76.0
X162.0Y-114.0
X162.31Y-93.099
X162.31Y-131.099
X169.4Y-93.4
X169.4Y-131.4
X169.6Y-85.2
X169.6Y-86.4
X169.6Y-123.2
X169.6Y-124.4
X170.0Y-76.0
X170.0Y-82.0
X170.0Y-89.0
X170.0Y-96.5
X170.0Y-98.0
X170.0Y-100.0
X170.0Y-104.0
X170.0Y-109.0
X170.0Y-114.0
X170.0Y-120.0
X170.0Y-127.0
X170.0Y-134.5
X170.0Y-136.0
X170.0Y-138.0
X170.0Y-142.0
X170.0Y-147.0
X170.5Y-77.0
X170.5Y-80.5
X170.5Y-83.5
X170.5Y-115.0
X170.5Y-118.5
X170.5Y-121.5
X170.6Y-84.4
X170.6Y-122.4
X170.8Y-79.0
X170.8Y-117.0
X170.978Y-99.093
X170.978Y-137.093
X171.0Y-86.6
X171.0Y-105.5
X171.0Y-107.5
X171.0Y-124.6
X171.0Y-143.5
X171.0Y-145.5
X171.41Y-80.805
X171.41Y-118.805
X171.486Y-99.55
X171.486Y-137.55
X171.791Y-75.725
X171.791Y-77.046
X171.791Y-113.725
X171.791Y-115.046
X171.8Y-103.0
X171.8Y-141.0
X172.02Y-99.118
X172.02Y-137.118
X172.321Y-109.0
X172.321Y-147.0
X172.38Y-77.91
X172.38Y-115.91
X172.4Y-86.6
X172.4Y-124.6
X172.496Y-89.491
X172.496Y-127.491
X172.5Y-91.5
X172.5Y-92.5
X172.5Y-94.5
X172.5Y-96.5
X172.5Y-129.5
X172.5Y-130.5
X172.5Y-132.5
X172.5Y-134.5
X172.592Y-75.801
X172.592Y-113.801
X172.8Y-84.8
X172.8Y-88.2
X172.8Y-122.8
X172.8Y-126.2
X173.0Y-107.5
X173.0Y-145.5
X173.123Y-104.874
X173.123Y-142.874
X173.417Y-82.786
X173.417Y-120.786
X174.232Y-75.684
X174.232Y-113.684
X174.241Y-76.36
X174.241Y-114.36
X174.28Y-77.122
X174.28Y-115.122
X174.5Y-88.5
X174.5Y-89.5
X174.5Y-108.978
X174.5Y-126.5
X174.5Y-127.5
X174.5Y-146.978
X174.737Y-82.786
X174.737Y-120.786
X175.25Y-96.5
X175.25Y-108.0
X175.25Y-134.5
X175.25Y-146.0
X175.398Y-87.6
X175.398Y-125.6
X175.5Y-107.0
X175.5Y-145.0
X175.722Y-84.616
X175.722Y-122.616
X175.804Y-86.266
X175.804Y-124.266
X175.84Y-90.84
X175.84Y-128.84
X176.0Y-79.382
X176.0Y-117.382
X176.388Y-77.35
X176.388Y-115.35
X176.566Y-76.665
X176.566Y-114.665
X176.592Y-76.004
X176.592Y-114.004
X176.6Y-85.4
X176.6Y-123.4
X176.8Y-102.0
X176.8Y-140.0
X176.85Y-82.375
X176.85Y-120.375
X177.0Y-81.0
X177.0Y-119.0
X177.1Y-79.382
X177.1Y-117.382
X177.2Y-95.0
X177.2Y-133.0
X177.4Y-96.6
X177.4Y-134.6
X177.5Y-107.15
X177.5Y-145.15
X177.887Y-87.51
X177.887Y-125.51
X178.2Y-79.4
X178.2Y-117.4
X178.446Y-82.38
X178.446Y-120.38
X178.475Y-75.575
X178.475Y-113.575
X178.5Y-90.5
X178.5Y-128.5
X178.625Y-108.975
X178.625Y-146.975
X178.827Y-87.866
X178.827Y-125.866
X178.878Y-100.287
X178.878Y-138.287
X178.979Y-101.201
X178.979Y-139.201
X179.504Y-99.577
X179.504Y-137.577
X179.514Y-105.086
X179.514Y-143.086
X180.122Y-90.685
X180.122Y-128.685
X180.49Y-78.995
X180.49Y-116.995
X180.5Y-76.0
X180.5Y-77.5
X180.5Y-82.0
X180.5Y-95.5
X180.5Y-114.0
X180.5Y-115.5
X180.5Y-120.0
X180.5Y-133.5
X180.554Y-96.832
X180.554Y-134.832
X180.579Y-98.722
X180.579Y-99.982
X180.579Y-136.722
X180.579Y-137.982
X180.605Y-92.326
X180.605Y-130.326
X181.0Y-84.0
X181.0Y-122.0
X181.25Y-88.75
X181.25Y-126.75
X181.4Y-85.4
X181.4Y-123.4
X181.575Y-106.4
X181.575Y-144.4
X181.654Y-100.134
X181.654Y-138.134
X181.679Y-99.321
X181.679Y-137.321
X181.849Y-102.598
X181.849Y-140.598
X182.0Y-76.0
X182.0Y-80.5
X182.0Y-82.0
X182.0Y-114.0
X182.0Y-118.5
X182.0Y-120.0
X182.8Y-84.2
X182.8Y-122.2
X182.891Y-100.363
X182.891Y-138.363
X183.13Y-94.1
X183.13Y-132.1
X183.134Y-95.757
X183.134Y-133.757
X183.221Y-89.629
X183.221Y-127.629
X183.436Y-93.361
X183.436Y-131.361
X183.734Y-86.24
X183.734Y-124.24
X183.764Y-84.937
X183.764Y-122.937
X183.78Y-94.114
X183.78Y-132.114
X183.831Y-95.689
X183.831Y-133.689
X183.922Y-87.018
X183.922Y-125.018
X184.2Y-100.8
X184.2Y-138.8
X184.3Y-99.2
X184.3Y-137.2
X184.339Y-90.152
X184.339Y-128.152
X184.5Y-78.4
X184.5Y-116.4
X184.646Y-85.501
X184.646Y-123.501
X184.7Y-81.5
X184.7Y-119.5
X184.8Y-79.9
X184.8Y-117.9
X185.006Y-77.25
X185.006Y-115.25
X185.4Y-83.4
X185.4Y-121.4
X185.812Y-90.628
X185.812Y-128.628
X186.1Y-78.525
X186.1Y-116.524
X186.325Y-104.3
X186.325Y-142.3
X186.575Y-107.125
X186.575Y-145.125
X186.7Y-80.4
X186.7Y-118.4
X186.75Y-81.5
X186.75Y-119.5
X186.775Y-105.975
X186.775Y-143.975
X186.8Y-99.4
X186.8Y-137.4
X186.813Y-89.809
X186.813Y-127.809
X187.0Y-101.6
X187.0Y-109.0
X187.0Y-139.6
X187.0Y-147.0
X187.006Y-100.261
X187.006Y-138.261
X187.178Y-88.301
X187.178Y-126.301
X187.214Y-93.544
X187.214Y-131.544
X187.336Y-87.358
X187.336Y-125.358
X187.585Y-76.296
X187.585Y-114.296
X187.75Y-81.25
X187.75Y-119.25
X187.763Y-88.923
X187.763Y-126.923
X187.8Y-85.6
X187.8Y-123.6
X187.853Y-97.271
X187.853Y-135.271
X188.195Y-91.048
X188.195Y-129.048
X188.445Y-95.325
X188.445Y-133.325
X188.492Y-108.994
X188.492Y-146.994
X188.572Y-78.028
X188.572Y-116.028
X188.707Y-85.478
X188.707Y-123.478
X188.75Y-80.75
X188.75Y-118.75
X188.775Y-86.845
X188.775Y-124.845
X188.8Y-105.6
X188.8Y-143.6
X188.855Y-87.754
X188.855Y-125.754
X189.0Y-83.6
X189.0Y-99.0
X189.0Y-121.6
X189.0Y-137.0
X189.013Y-91.077
X189.013Y-129.077
X189.25Y-94.25
X189.25Y-132.25
X189.448Y-81.631
X189.448Y-119.631
X189.5Y-78.5
X189.5Y-116.5
X189.7Y-106.5
X189.7Y-144.5
X189.843Y-86.146
X189.843Y-124.146
X189.901Y-101.684
X189.901Y-139.684
X190.4Y-95.2
X190.4Y-133.2
X190.471Y-83.6
X190.471Y-121.6
X190.5Y-99.0
X190.5Y-137.0
X191.0Y-78.0
X191.0Y-116.0
X191.011Y-104.2
X191.011Y-142.2
X191.8Y-81.8
X191.8Y-119.8
X192.0Y-77.2
X192.0Y-115.2
X192.238Y-92.876
X192.238Y-108.77
X192.238Y-130.876
X192.238Y-146.77
X192.3Y-104.3
X192.3Y-142.3
X192.5Y-78.5
X192.5Y-106.5
X192.5Y-116.5
X192.5Y-144.5
X192.546Y-86.271
X192.546Y-124.271
X192.594Y-80.153
X192.594Y-118.153
X192.771Y-88.603
X192.771Y-126.603
X193.0Y-77.5
X193.0Y-115.5
X193.2Y-75.6
X193.2Y-113.6
X193.252Y-83.997
X193.252Y-121.997
X193.288Y-95.384
X193.288Y-133.384
X193.7Y-104.3
X193.7Y-142.3
X194.0Y-76.5
X194.0Y-78.0
X194.0Y-114.5
X194.0Y-116.0
X194.092Y-108.135
X194.092Y-146.135
X194.245Y-84.322
X194.245Y-122.322
X194.5Y-79.5
X194.5Y-117.5
X194.88Y-99.245
X194.88Y-137.245
X194.9Y-106.2
X194.9Y-144.2
X195.3Y-108.9
X195.3Y-146.9
X195.4Y-104.9
X195.4Y-142.9
X195.469Y-85.25
X195.469Y-123.25
X195.493Y-78.993
X195.493Y-116.993
X195.5Y-76.0
X195.5Y-77.5
X195.5Y-80.5
X195.5Y-100.0
X195.5Y-101.5
X195.5Y-114.0
X195.5Y-115.5
X195.5Y-118.5
X195.5Y-138.0
X195.5Y-139.5
X195.87Y-88.247
X195.87Y-126.247
X197.0Y-94.5
X197.0Y-109.4
X197.0Y-132.5
X197.0Y-147.4
X197.168Y-85.678
X197.168Y-123.678
X197.575Y-79.825
X197.575Y-117.825
X197.6Y-107.8
X197.6Y-145.8
X197.8Y-80.8
X197.8Y-84.8
X197.8Y-118.8
X197.8Y-122.8
X197.801Y-94.038
X197.801Y-132.038
X198.0Y-75.5
X198.0Y-77.5
X198.0Y-82.6
X198.0Y-83.6
X198.0Y-105.8
X198.0Y-113.5
X198.0Y-115.5
X198.0Y-120.6
X198.0Y-121.6
X198.0Y-143.8
X198.334Y-103.245
X198.334Y-141.245
X198.735Y-89.588
X198.735Y-127.588
X198.8Y-98.8
X198.8Y-100.8
X198.8Y-136.8
X198.8Y-138.8
X198.918Y-77.325
X198.918Y-115.325
X199.121Y-78.443
X199.121Y-116.443
X199.172Y-82.608
X199.172Y-120.608
X199.5Y-87.434
X199.5Y-125.434
X199.54Y-75.877
X199.54Y-76.614
X199.54Y-113.877
X199.54Y-114.614
X199.8Y-107.4
X199.8Y-145.4
X199.995Y-99.481
X199.995Y-137.481
X200.0Y-98.0
X200.0Y-101.0
X200.0Y-136.0
X200.0Y-139.0
X200.8Y-106.2
X200.8Y-109.0
X200.8Y-144.2
X200.8Y-147.0
X201.19Y-76.0
X201.19Y-76.715
X201.19Y-114.0
X201.19Y-114.715
X201.29Y-85.378
X201.29Y-123.378
X201.5Y-77.307
X201.5Y-115.307
X202.0Y-98.0
X202.0Y-99.5
X202.0Y-101.0
X202.0Y-107.4
X202.0Y-136.0
X202.0Y-137.5
X202.0Y-139.0
X202.0Y-145.4
X202.068Y-85.707
X202.068Y-123.707
X203.4Y-76.8
X203.4Y-114.8
X203.5Y-86.5
X203.5Y-124.5
X203.687Y-92.101
X203.687Y-130.101
X203.922Y-76.004
X203.922Y-114.004
X204.127Y-76.782
X204.127Y-114.782
X204.201Y-105.9
X204.201Y-143.9
X204.5Y-80.5
X204.5Y-118.5
X205.0Y-77.0
X205.0Y-78.5
X205.0Y-107.5
X205.0Y-115.0
X205.0Y-116.5
X205.0Y-145.5
X205.192Y-90.101
X205.192Y-128.101
X205.475Y-104.2
X205.475Y-142.2
X205.5Y-82.0
X205.5Y-102.5
X205.5Y-109.0
X205.5Y-120.0
X205.5Y-140.5
X205.5Y-147.0
X205.8Y-92.006
X205.8Y-130.006
X206.0Y-76.0
X206.0Y-114.0
X206.31Y-93.099
X206.31Y-131.099
T5
X129.836Y-103.309
X129.836Y-141.309
X131.836Y-103.309
X131.836Y-141.309
X133.836Y-103.309
X133.836Y-141.309
X173.836Y-103.309
X173.836Y-141.309
X175.836Y-103.309
X175.836Y-141.309
X177.836Y-103.309
X177.836Y-141.309
T6
X145.36Y-103.97
X145.36Y-141.97
X151.14Y-103.97
X151.14Y-141.97
X189.36Y-103.97
X189.36Y-141.97
X195.14Y-103.97
X195.14Y-141.97
T7
X125.0Y-79.0
X125.0Y-106.0
X125.0Y-117.0
X125.0Y-144.0
X163.0Y-78.925
X163.0Y-106.0
X163.0Y-106.0
X163.0Y-116.925
X163.0Y-144.0
X163.0Y-144.0
X169.0Y-79.0
X169.0Y-106.0
X169.0Y-117.0
X169.0Y-144.0
X207.0Y-78.925
X207.0Y-106.0
X207.0Y-106.0
X207.0Y-116.925
X207.0Y-144.0
X207.0Y-144.0
T4
G00X143.93Y-104.02
M15
G01X143.93Y-102.92
M16
G05
G00X143.93Y-108.05
M15
G01X143.93Y-107.25
M16
G05
G00X143.93Y-142.02
M15
G01X143.93Y-140.92
M16
G05
G00X143.93Y-146.05
M15
G01X143.93Y-145.25
M16
G05
G00X152.57Y-104.02
M15
G01X152.57Y-102.92
M16
G05
G00X152.57Y-108.05
M15
G01X152.57Y-107.25
M16
G05
G00X152.57Y-142.02
M15
G01X152.57Y-140.92
M16
G05
G00X152.57Y-146.05
M15
G01X152.57Y-145.25
M16
G05
G00X187.93Y-104.02
M15
G01X187.93Y-102.92
M16
G05
G00X187.93Y-108.05
M15
G01X187.93Y-107.25
M16
G05
G00X187.93Y-142.02
M15
G01X187.93Y-140.92
M16
G05
G00X187.93Y-146.05
M15
G01X187.93Y-145.25
M16
G05
G00X196.57Y-104.02
M15
G01X196.57Y-102.92
M16
G05
G00X196.57Y-108.05
M15
G01X196.57Y-107.25
M16
G05
G00X196.57Y-142.02
M15
G01X196.57Y-140.92
M16
G05
G00X196.57Y-146.05
M15
G01X196.57Y-145.25
M16
G05
T0
M30
