%FSLAX45Y45*%
G04 Gerber Fmt 4.5, Leading zero omitted, Abs format (unit mm)*
G04 Created by KiCad (PCBNEW (6.0.4)) date 2022-09-20 18:54:59*
%MOMM*%
%LPD*%
G01*
G04 APERTURE LIST*
%TA.AperFunction,Profile*%
%ADD10C,0.050000*%
%TD*%
%ADD11C,0.200000*%
%ADD12C,0.020000*%
%ADD13C,0.035000*%
%ADD14C,0.040000*%
%ADD15C,0.060000*%
%ADD16C,0.075000*%
%ADD17C,0.065000*%
%ADD18C,0.220000*%
G04 APERTURE END LIST*
D10*
X21000000Y-14800000D02*
X12200000Y-14800000D01*
X12200000Y-14800000D02*
X12200000Y-7500000D01*
X12200000Y-7500000D02*
X21000000Y-7500000D01*
X21000000Y-7500000D02*
X21000000Y-14800000D01*
D11*
D12*
X14214360Y-9246500D02*
X14234360Y-9266500D01*
X14234360Y-9246500D02*
X14214360Y-9266500D01*
X14214360Y-13046500D02*
X14234360Y-13066500D01*
X14234360Y-13046500D02*
X14214360Y-13066500D01*
X14758710Y-8616580D02*
X14778710Y-8636580D01*
X14778710Y-8616580D02*
X14758710Y-8636580D01*
X14758710Y-12416580D02*
X14778710Y-12436580D01*
X14778710Y-12416580D02*
X14758710Y-12436580D01*
X15010000Y-8610000D02*
X15030000Y-8630000D01*
X15030000Y-8610000D02*
X15010000Y-8630000D01*
X15010000Y-12410000D02*
X15030000Y-12430000D01*
X15030000Y-12410000D02*
X15010000Y-12430000D01*
X15353582Y-8931598D02*
X15373582Y-8951598D01*
X15373582Y-8931598D02*
X15353582Y-8951598D01*
X15353582Y-12731598D02*
X15373582Y-12751598D01*
X15373582Y-12731598D02*
X15353582Y-12751598D01*
X15364980Y-9246500D02*
X15384980Y-9266500D01*
X15384980Y-9246500D02*
X15364980Y-9266500D01*
X15364980Y-13046500D02*
X15384980Y-13066500D01*
X15384980Y-13046500D02*
X15364980Y-13066500D01*
X15521057Y-9206325D02*
X15541057Y-9226325D01*
X15541057Y-9206325D02*
X15521057Y-9226325D01*
X15521057Y-13006325D02*
X15541057Y-13026325D01*
X15541057Y-13006325D02*
X15521057Y-13026325D01*
X15527500Y-8838899D02*
X15547500Y-8858899D01*
X15547500Y-8838899D02*
X15527500Y-8858899D01*
X15527500Y-12638899D02*
X15547500Y-12658899D01*
X15547500Y-12638899D02*
X15527500Y-12658899D01*
X15550000Y-9331410D02*
X15570000Y-9351410D01*
X15570000Y-9331410D02*
X15550000Y-9351410D01*
X15550000Y-13131410D02*
X15570000Y-13151410D01*
X15570000Y-13131410D02*
X15550000Y-13151410D01*
X15789160Y-9490340D02*
X15809160Y-9510340D01*
X15809160Y-9490340D02*
X15789160Y-9510340D01*
X15789160Y-13290340D02*
X15809160Y-13310340D01*
X15809160Y-13290340D02*
X15789160Y-13310340D01*
X16017760Y-9685920D02*
X16037760Y-9705920D01*
X16037760Y-9685920D02*
X16017760Y-9705920D01*
X16017760Y-13485920D02*
X16037760Y-13505920D01*
X16037760Y-13485920D02*
X16017760Y-13505920D01*
X16105000Y-9440000D02*
X16125000Y-9460000D01*
X16125000Y-9440000D02*
X16105000Y-9460000D01*
X16105000Y-13240000D02*
X16125000Y-13260000D01*
X16125000Y-13240000D02*
X16105000Y-13260000D01*
X16150000Y-9480000D02*
X16170000Y-9500000D01*
X16170000Y-9480000D02*
X16150000Y-9500000D01*
X16150000Y-13280000D02*
X16170000Y-13300000D01*
X16170000Y-13280000D02*
X16150000Y-13300000D01*
X18614360Y-9246500D02*
X18634360Y-9266500D01*
X18634360Y-9246500D02*
X18614360Y-9266500D01*
X18614360Y-13046500D02*
X18634360Y-13066500D01*
X18634360Y-13046500D02*
X18614360Y-13066500D01*
X19158710Y-8616580D02*
X19178710Y-8636580D01*
X19178710Y-8616580D02*
X19158710Y-8636580D01*
X19158710Y-12416580D02*
X19178710Y-12436580D01*
X19178710Y-12416580D02*
X19158710Y-12436580D01*
X19410000Y-8610000D02*
X19430000Y-8630000D01*
X19430000Y-8610000D02*
X19410000Y-8630000D01*
X19410000Y-12410000D02*
X19430000Y-12430000D01*
X19430000Y-12410000D02*
X19410000Y-12430000D01*
X19753582Y-8931598D02*
X19773582Y-8951598D01*
X19773582Y-8931598D02*
X19753582Y-8951598D01*
X19753582Y-12731598D02*
X19773582Y-12751598D01*
X19773582Y-12731598D02*
X19753582Y-12751598D01*
X19764980Y-9246500D02*
X19784980Y-9266500D01*
X19784980Y-9246500D02*
X19764980Y-9266500D01*
X19764980Y-13046500D02*
X19784980Y-13066500D01*
X19784980Y-13046500D02*
X19764980Y-13066500D01*
X19921057Y-9206325D02*
X19941057Y-9226325D01*
X19941057Y-9206325D02*
X19921057Y-9226325D01*
X19921057Y-13006325D02*
X19941057Y-13026325D01*
X19941057Y-13006325D02*
X19921057Y-13026325D01*
X19927500Y-8838899D02*
X19947500Y-8858899D01*
X19947500Y-8838899D02*
X19927500Y-8858899D01*
X19927500Y-12638899D02*
X19947500Y-12658899D01*
X19947500Y-12638899D02*
X19927500Y-12658899D01*
X19950000Y-9331410D02*
X19970000Y-9351410D01*
X19970000Y-9331410D02*
X19950000Y-9351410D01*
X19950000Y-13131410D02*
X19970000Y-13151410D01*
X19970000Y-13131410D02*
X19950000Y-13151410D01*
X20189160Y-9490340D02*
X20209160Y-9510340D01*
X20209160Y-9490340D02*
X20189160Y-9510340D01*
X20189160Y-13290340D02*
X20209160Y-13310340D01*
X20209160Y-13290340D02*
X20189160Y-13310340D01*
X20417760Y-9685920D02*
X20437760Y-9705920D01*
X20437760Y-9685920D02*
X20417760Y-9705920D01*
X20417760Y-13485920D02*
X20437760Y-13505920D01*
X20437760Y-13485920D02*
X20417760Y-13505920D01*
X20505000Y-9440000D02*
X20525000Y-9460000D01*
X20525000Y-9440000D02*
X20505000Y-9460000D01*
X20505000Y-13240000D02*
X20525000Y-13260000D01*
X20525000Y-13240000D02*
X20505000Y-13260000D01*
X20550000Y-9480000D02*
X20570000Y-9500000D01*
X20570000Y-9480000D02*
X20550000Y-9500000D01*
X20550000Y-13280000D02*
X20570000Y-13300000D01*
X20570000Y-13280000D02*
X20550000Y-13300000D01*
D13*
X14828760Y-8940190D02*
G75*
G03*
X14828760Y-8940190I-17500J0D01*
G01*
X14828760Y-9067690D02*
G75*
G03*
X14828760Y-9067690I-17500J0D01*
G01*
X14828760Y-9195190D02*
G75*
G03*
X14828760Y-9195190I-17500J0D01*
G01*
X14828760Y-12740190D02*
G75*
G03*
X14828760Y-12740190I-17500J0D01*
G01*
X14828760Y-12867690D02*
G75*
G03*
X14828760Y-12867690I-17500J0D01*
G01*
X14828760Y-12995190D02*
G75*
G03*
X14828760Y-12995190I-17500J0D01*
G01*
X14956260Y-8940190D02*
G75*
G03*
X14956260Y-8940190I-17500J0D01*
G01*
X14956260Y-9067690D02*
G75*
G03*
X14956260Y-9067690I-17500J0D01*
G01*
X14956260Y-9195190D02*
G75*
G03*
X14956260Y-9195190I-17500J0D01*
G01*
X14956260Y-12740190D02*
G75*
G03*
X14956260Y-12740190I-17500J0D01*
G01*
X14956260Y-12867690D02*
G75*
G03*
X14956260Y-12867690I-17500J0D01*
G01*
X14956260Y-12995190D02*
G75*
G03*
X14956260Y-12995190I-17500J0D01*
G01*
X15083760Y-8940190D02*
G75*
G03*
X15083760Y-8940190I-17500J0D01*
G01*
X15083760Y-9067690D02*
G75*
G03*
X15083760Y-9067690I-17500J0D01*
G01*
X15083760Y-9195190D02*
G75*
G03*
X15083760Y-9195190I-17500J0D01*
G01*
X15083760Y-12740190D02*
G75*
G03*
X15083760Y-12740190I-17500J0D01*
G01*
X15083760Y-12867690D02*
G75*
G03*
X15083760Y-12867690I-17500J0D01*
G01*
X15083760Y-12995190D02*
G75*
G03*
X15083760Y-12995190I-17500J0D01*
G01*
X19228760Y-8940190D02*
G75*
G03*
X19228760Y-8940190I-17500J0D01*
G01*
X19228760Y-9067690D02*
G75*
G03*
X19228760Y-9067690I-17500J0D01*
G01*
X19228760Y-9195190D02*
G75*
G03*
X19228760Y-9195190I-17500J0D01*
G01*
X19228760Y-12740190D02*
G75*
G03*
X19228760Y-12740190I-17500J0D01*
G01*
X19228760Y-12867690D02*
G75*
G03*
X19228760Y-12867690I-17500J0D01*
G01*
X19228760Y-12995190D02*
G75*
G03*
X19228760Y-12995190I-17500J0D01*
G01*
X19356260Y-8940190D02*
G75*
G03*
X19356260Y-8940190I-17500J0D01*
G01*
X19356260Y-9067690D02*
G75*
G03*
X19356260Y-9067690I-17500J0D01*
G01*
X19356260Y-9195190D02*
G75*
G03*
X19356260Y-9195190I-17500J0D01*
G01*
X19356260Y-12740190D02*
G75*
G03*
X19356260Y-12740190I-17500J0D01*
G01*
X19356260Y-12867690D02*
G75*
G03*
X19356260Y-12867690I-17500J0D01*
G01*
X19356260Y-12995190D02*
G75*
G03*
X19356260Y-12995190I-17500J0D01*
G01*
X19483760Y-8940190D02*
G75*
G03*
X19483760Y-8940190I-17500J0D01*
G01*
X19483760Y-9067690D02*
G75*
G03*
X19483760Y-9067690I-17500J0D01*
G01*
X19483760Y-9195190D02*
G75*
G03*
X19483760Y-9195190I-17500J0D01*
G01*
X19483760Y-12740190D02*
G75*
G03*
X19483760Y-12740190I-17500J0D01*
G01*
X19483760Y-12867690D02*
G75*
G03*
X19483760Y-12867690I-17500J0D01*
G01*
X19483760Y-12995190D02*
G75*
G03*
X19483760Y-12995190I-17500J0D01*
G01*
D14*
X12540000Y-9320000D02*
X12540000Y-9360000D01*
X12520000Y-9340000D02*
X12560000Y-9340000D01*
X12540000Y-13120000D02*
X12540000Y-13160000D01*
X12520000Y-13140000D02*
X12560000Y-13140000D01*
X12560000Y-8500000D02*
X12560000Y-8540000D01*
X12540000Y-8520000D02*
X12580000Y-8520000D01*
X12560000Y-8620000D02*
X12560000Y-8660000D01*
X12540000Y-8640000D02*
X12580000Y-8640000D01*
X12560000Y-12300000D02*
X12560000Y-12340000D01*
X12540000Y-12320000D02*
X12580000Y-12320000D01*
X12560000Y-12420000D02*
X12560000Y-12460000D01*
X12540000Y-12440000D02*
X12580000Y-12440000D01*
X12600000Y-7580000D02*
X12600000Y-7620000D01*
X12580000Y-7600000D02*
X12620000Y-7600000D01*
X12600000Y-8180000D02*
X12600000Y-8220000D01*
X12580000Y-8200000D02*
X12620000Y-8200000D01*
X12600000Y-8880000D02*
X12600000Y-8920000D01*
X12580000Y-8900000D02*
X12620000Y-8900000D01*
X12600000Y-9630000D02*
X12600000Y-9670000D01*
X12580000Y-9650000D02*
X12620000Y-9650000D01*
X12600000Y-9780000D02*
X12600000Y-9820000D01*
X12580000Y-9800000D02*
X12620000Y-9800000D01*
X12600000Y-9980000D02*
X12600000Y-10020000D01*
X12580000Y-10000000D02*
X12620000Y-10000000D01*
X12600000Y-10380000D02*
X12600000Y-10420000D01*
X12580000Y-10400000D02*
X12620000Y-10400000D01*
X12600000Y-10880000D02*
X12600000Y-10920000D01*
X12580000Y-10900000D02*
X12620000Y-10900000D01*
X12600000Y-11380000D02*
X12600000Y-11420000D01*
X12580000Y-11400000D02*
X12620000Y-11400000D01*
X12600000Y-11980000D02*
X12600000Y-12020000D01*
X12580000Y-12000000D02*
X12620000Y-12000000D01*
X12600000Y-12680000D02*
X12600000Y-12720000D01*
X12580000Y-12700000D02*
X12620000Y-12700000D01*
X12600000Y-13430000D02*
X12600000Y-13470000D01*
X12580000Y-13450000D02*
X12620000Y-13450000D01*
X12600000Y-13580000D02*
X12600000Y-13620000D01*
X12580000Y-13600000D02*
X12620000Y-13600000D01*
X12600000Y-13780000D02*
X12600000Y-13820000D01*
X12580000Y-13800000D02*
X12620000Y-13800000D01*
X12600000Y-14180000D02*
X12600000Y-14220000D01*
X12580000Y-14200000D02*
X12620000Y-14200000D01*
X12600000Y-14680000D02*
X12600000Y-14720000D01*
X12580000Y-14700000D02*
X12620000Y-14700000D01*
X12650000Y-7680000D02*
X12650000Y-7720000D01*
X12630000Y-7700000D02*
X12670000Y-7700000D01*
X12650000Y-8030000D02*
X12650000Y-8070000D01*
X12630000Y-8050000D02*
X12670000Y-8050000D01*
X12650000Y-8330000D02*
X12650000Y-8370000D01*
X12630000Y-8350000D02*
X12670000Y-8350000D01*
X12650000Y-11480000D02*
X12650000Y-11520000D01*
X12630000Y-11500000D02*
X12670000Y-11500000D01*
X12650000Y-11830000D02*
X12650000Y-11870000D01*
X12630000Y-11850000D02*
X12670000Y-11850000D01*
X12650000Y-12130000D02*
X12650000Y-12170000D01*
X12630000Y-12150000D02*
X12670000Y-12150000D01*
X12660000Y-8420000D02*
X12660000Y-8460000D01*
X12640000Y-8440000D02*
X12680000Y-8440000D01*
X12660000Y-12220000D02*
X12660000Y-12260000D01*
X12640000Y-12240000D02*
X12680000Y-12240000D01*
X12680000Y-7880000D02*
X12680000Y-7920000D01*
X12660000Y-7900000D02*
X12700000Y-7900000D01*
X12680000Y-11680000D02*
X12680000Y-11720000D01*
X12660000Y-11700000D02*
X12700000Y-11700000D01*
X12697820Y-9889280D02*
X12697820Y-9929280D01*
X12677820Y-9909280D02*
X12717820Y-9909280D01*
X12697820Y-13689280D02*
X12697820Y-13729280D01*
X12677820Y-13709280D02*
X12717820Y-13709280D01*
X12700000Y-8640000D02*
X12700000Y-8680000D01*
X12680000Y-8660000D02*
X12720000Y-8660000D01*
X12700000Y-10530000D02*
X12700000Y-10570000D01*
X12680000Y-10550000D02*
X12720000Y-10550000D01*
X12700000Y-10730000D02*
X12700000Y-10770000D01*
X12680000Y-10750000D02*
X12720000Y-10750000D01*
X12700000Y-12440000D02*
X12700000Y-12480000D01*
X12680000Y-12460000D02*
X12720000Y-12460000D01*
X12700000Y-14330000D02*
X12700000Y-14370000D01*
X12680000Y-14350000D02*
X12720000Y-14350000D01*
X12700000Y-14530000D02*
X12700000Y-14570000D01*
X12680000Y-14550000D02*
X12720000Y-14550000D01*
X12741000Y-8060480D02*
X12741000Y-8100480D01*
X12721000Y-8080480D02*
X12761000Y-8080480D01*
X12741000Y-11860480D02*
X12741000Y-11900480D01*
X12721000Y-11880480D02*
X12761000Y-11880480D01*
X12748620Y-9935000D02*
X12748620Y-9975000D01*
X12728620Y-9955000D02*
X12768620Y-9955000D01*
X12748620Y-13735000D02*
X12748620Y-13775000D01*
X12728620Y-13755000D02*
X12768620Y-13755000D01*
X12779100Y-7552480D02*
X12779100Y-7592480D01*
X12759100Y-7572480D02*
X12799100Y-7572480D01*
X12779100Y-7684560D02*
X12779100Y-7724560D01*
X12759100Y-7704560D02*
X12799100Y-7704560D01*
X12779100Y-11352480D02*
X12779100Y-11392480D01*
X12759100Y-11372480D02*
X12799100Y-11372480D01*
X12779100Y-11484560D02*
X12779100Y-11524560D01*
X12759100Y-11504560D02*
X12799100Y-11504560D01*
X12780000Y-10280000D02*
X12780000Y-10320000D01*
X12760000Y-10300000D02*
X12800000Y-10300000D01*
X12780000Y-14080000D02*
X12780000Y-14120000D01*
X12760000Y-14100000D02*
X12800000Y-14100000D01*
X12801960Y-9891820D02*
X12801960Y-9931820D01*
X12781960Y-9911820D02*
X12821960Y-9911820D01*
X12801960Y-13691820D02*
X12801960Y-13731820D01*
X12781960Y-13711820D02*
X12821960Y-13711820D01*
X12832149Y-10880000D02*
X12832149Y-10920000D01*
X12812149Y-10900000D02*
X12852149Y-10900000D01*
X12832149Y-14680000D02*
X12832149Y-14720000D01*
X12812149Y-14700000D02*
X12852149Y-14700000D01*
X12838025Y-7771010D02*
X12838025Y-7811010D01*
X12818025Y-7791010D02*
X12858025Y-7791010D01*
X12838025Y-11571010D02*
X12838025Y-11611010D01*
X12818025Y-11591010D02*
X12858025Y-11591010D01*
X12840000Y-8640000D02*
X12840000Y-8680000D01*
X12820000Y-8660000D02*
X12860000Y-8660000D01*
X12840000Y-12440000D02*
X12840000Y-12480000D01*
X12820000Y-12460000D02*
X12860000Y-12460000D01*
X12849648Y-8929071D02*
X12849648Y-8969071D01*
X12829648Y-8949071D02*
X12869648Y-8949071D01*
X12849648Y-12729071D02*
X12849648Y-12769071D01*
X12829648Y-12749071D02*
X12869648Y-12749071D01*
X12850000Y-9130000D02*
X12850000Y-9170000D01*
X12830000Y-9150000D02*
X12870000Y-9150000D01*
X12850000Y-9230000D02*
X12850000Y-9270000D01*
X12830000Y-9250000D02*
X12870000Y-9250000D01*
X12850000Y-9430000D02*
X12850000Y-9470000D01*
X12830000Y-9450000D02*
X12870000Y-9450000D01*
X12850000Y-9630000D02*
X12850000Y-9670000D01*
X12830000Y-9650000D02*
X12870000Y-9650000D01*
X12850000Y-12930000D02*
X12850000Y-12970000D01*
X12830000Y-12950000D02*
X12870000Y-12950000D01*
X12850000Y-13030000D02*
X12850000Y-13070000D01*
X12830000Y-13050000D02*
X12870000Y-13050000D01*
X12850000Y-13230000D02*
X12850000Y-13270000D01*
X12830000Y-13250000D02*
X12870000Y-13250000D01*
X12850000Y-13430000D02*
X12850000Y-13470000D01*
X12830000Y-13450000D02*
X12870000Y-13450000D01*
X12859210Y-7560100D02*
X12859210Y-7600100D01*
X12839210Y-7580100D02*
X12879210Y-7580100D01*
X12859210Y-11360100D02*
X12859210Y-11400100D01*
X12839210Y-11380100D02*
X12879210Y-11380100D01*
X12880000Y-8460000D02*
X12880000Y-8500000D01*
X12860000Y-8480000D02*
X12900000Y-8480000D01*
X12880000Y-8800000D02*
X12880000Y-8840000D01*
X12860000Y-8820000D02*
X12900000Y-8820000D01*
X12880000Y-12260000D02*
X12880000Y-12300000D01*
X12860000Y-12280000D02*
X12900000Y-12280000D01*
X12880000Y-12600000D02*
X12880000Y-12640000D01*
X12860000Y-12620000D02*
X12900000Y-12620000D01*
X12900000Y-10730000D02*
X12900000Y-10770000D01*
X12880000Y-10750000D02*
X12920000Y-10750000D01*
X12900000Y-14530000D02*
X12900000Y-14570000D01*
X12880000Y-14550000D02*
X12920000Y-14550000D01*
X12912325Y-10467445D02*
X12912325Y-10507445D01*
X12892325Y-10487445D02*
X12932325Y-10487445D01*
X12912325Y-14267445D02*
X12912325Y-14307445D01*
X12892325Y-14287445D02*
X12932325Y-14287445D01*
X12941660Y-8258600D02*
X12941660Y-8298600D01*
X12921660Y-8278600D02*
X12961660Y-8278600D01*
X12941660Y-12058600D02*
X12941660Y-12098600D01*
X12921660Y-12078600D02*
X12961660Y-12078600D01*
X13023159Y-7548388D02*
X13023159Y-7588388D01*
X13003159Y-7568388D02*
X13043159Y-7568388D01*
X13023159Y-11348388D02*
X13023159Y-11388388D01*
X13003159Y-11368388D02*
X13043159Y-11368388D01*
X13024110Y-7615980D02*
X13024110Y-7655980D01*
X13004110Y-7635980D02*
X13044110Y-7635980D01*
X13024110Y-11415980D02*
X13024110Y-11455980D01*
X13004110Y-11435980D02*
X13044110Y-11435980D01*
X13028020Y-7692180D02*
X13028020Y-7732180D01*
X13008020Y-7712180D02*
X13048020Y-7712180D01*
X13028020Y-11492180D02*
X13028020Y-11532180D01*
X13008020Y-11512180D02*
X13048020Y-11512180D01*
X13050000Y-8830000D02*
X13050000Y-8870000D01*
X13030000Y-8850000D02*
X13070000Y-8850000D01*
X13050000Y-8930000D02*
X13050000Y-8970000D01*
X13030000Y-8950000D02*
X13070000Y-8950000D01*
X13050000Y-10877808D02*
X13050000Y-10917808D01*
X13030000Y-10897808D02*
X13070000Y-10897808D01*
X13050000Y-12630000D02*
X13050000Y-12670000D01*
X13030000Y-12650000D02*
X13070000Y-12650000D01*
X13050000Y-12730000D02*
X13050000Y-12770000D01*
X13030000Y-12750000D02*
X13070000Y-12750000D01*
X13050000Y-14677808D02*
X13050000Y-14717808D01*
X13030000Y-14697808D02*
X13070000Y-14697808D01*
X13073740Y-8258600D02*
X13073740Y-8298600D01*
X13053740Y-8278600D02*
X13093740Y-8278600D01*
X13073740Y-12058600D02*
X13073740Y-12098600D01*
X13053740Y-12078600D02*
X13093740Y-12078600D01*
X13125000Y-9630000D02*
X13125000Y-9670000D01*
X13105000Y-9650000D02*
X13145000Y-9650000D01*
X13125000Y-10780000D02*
X13125000Y-10820000D01*
X13105000Y-10800000D02*
X13145000Y-10800000D01*
X13125000Y-13430000D02*
X13125000Y-13470000D01*
X13105000Y-13450000D02*
X13145000Y-13450000D01*
X13125000Y-14580000D02*
X13125000Y-14620000D01*
X13105000Y-14600000D02*
X13145000Y-14600000D01*
X13139780Y-8740000D02*
X13139780Y-8780000D01*
X13119780Y-8760000D02*
X13159780Y-8760000D01*
X13139780Y-12540000D02*
X13139780Y-12580000D01*
X13119780Y-12560000D02*
X13159780Y-12560000D01*
X13150000Y-10680000D02*
X13150000Y-10720000D01*
X13130000Y-10700000D02*
X13170000Y-10700000D01*
X13150000Y-14480000D02*
X13150000Y-14520000D01*
X13130000Y-14500000D02*
X13170000Y-14500000D01*
X13172167Y-8441554D02*
X13172167Y-8481554D01*
X13152167Y-8461554D02*
X13192167Y-8461554D01*
X13172167Y-12241554D02*
X13172167Y-12281554D01*
X13152167Y-12261554D02*
X13192167Y-12261554D01*
X13180420Y-8606580D02*
X13180420Y-8646580D01*
X13160420Y-8626580D02*
X13200420Y-8626580D01*
X13180420Y-12406580D02*
X13180420Y-12446580D01*
X13160420Y-12426580D02*
X13200420Y-12426580D01*
X13183996Y-9063997D02*
X13183996Y-9103997D01*
X13163996Y-9083997D02*
X13203996Y-9083997D01*
X13183996Y-12863996D02*
X13183996Y-12903996D01*
X13163996Y-12883996D02*
X13203996Y-12883996D01*
X13200000Y-7918240D02*
X13200000Y-7958240D01*
X13180000Y-7938240D02*
X13220000Y-7938240D01*
X13200000Y-11718240D02*
X13200000Y-11758240D01*
X13180000Y-11738240D02*
X13220000Y-11738240D01*
X13238840Y-7715040D02*
X13238840Y-7755040D01*
X13218840Y-7735040D02*
X13258840Y-7735040D01*
X13238840Y-11515040D02*
X13238840Y-11555040D01*
X13218840Y-11535040D02*
X13258840Y-11535040D01*
X13256620Y-7646460D02*
X13256620Y-7686460D01*
X13236620Y-7666460D02*
X13276620Y-7666460D01*
X13256620Y-11446460D02*
X13256620Y-11486460D01*
X13236620Y-11466460D02*
X13276620Y-11466460D01*
X13259160Y-7580420D02*
X13259160Y-7620420D01*
X13239160Y-7600420D02*
X13279160Y-7600420D01*
X13259160Y-11380420D02*
X13259160Y-11420420D01*
X13239160Y-11400420D02*
X13279160Y-11400420D01*
X13260000Y-8520000D02*
X13260000Y-8560000D01*
X13240000Y-8540000D02*
X13280000Y-8540000D01*
X13260000Y-12320000D02*
X13260000Y-12360000D01*
X13240000Y-12340000D02*
X13280000Y-12340000D01*
X13280000Y-10180000D02*
X13280000Y-10220000D01*
X13260000Y-10200000D02*
X13300000Y-10200000D01*
X13280000Y-13980000D02*
X13280000Y-14020000D01*
X13260000Y-14000000D02*
X13300000Y-14000000D01*
X13285000Y-8217500D02*
X13285000Y-8257500D01*
X13265000Y-8237500D02*
X13305000Y-8237500D01*
X13285000Y-12017500D02*
X13285000Y-12057500D01*
X13265000Y-12037500D02*
X13305000Y-12037500D01*
X13300000Y-8080000D02*
X13300000Y-8120000D01*
X13280000Y-8100000D02*
X13320000Y-8100000D01*
X13300000Y-11880000D02*
X13300000Y-11920000D01*
X13280000Y-11900000D02*
X13320000Y-11900000D01*
X13309960Y-7918240D02*
X13309960Y-7958240D01*
X13289960Y-7938240D02*
X13329960Y-7938240D01*
X13309960Y-11718240D02*
X13309960Y-11758240D01*
X13289960Y-11738240D02*
X13329960Y-11738240D01*
X13320000Y-9480000D02*
X13320000Y-9520000D01*
X13300000Y-9500000D02*
X13340000Y-9500000D01*
X13320000Y-13280000D02*
X13320000Y-13320000D01*
X13300000Y-13300000D02*
X13340000Y-13300000D01*
X13340000Y-9640000D02*
X13340000Y-9680000D01*
X13320000Y-9660000D02*
X13360000Y-9660000D01*
X13340000Y-13440000D02*
X13340000Y-13480000D01*
X13320000Y-13460000D02*
X13360000Y-13460000D01*
X13350000Y-10695000D02*
X13350000Y-10735000D01*
X13330000Y-10715000D02*
X13370000Y-10715000D01*
X13350000Y-14495000D02*
X13350000Y-14535000D01*
X13330000Y-14515000D02*
X13370000Y-14515000D01*
X13388700Y-8731040D02*
X13388700Y-8771040D01*
X13368700Y-8751040D02*
X13408700Y-8751040D01*
X13388700Y-12531040D02*
X13388700Y-12571040D01*
X13368700Y-12551040D02*
X13408700Y-12551040D01*
X13420000Y-7920000D02*
X13420000Y-7960000D01*
X13400000Y-7940000D02*
X13440000Y-7940000D01*
X13420000Y-11720000D02*
X13420000Y-11760000D01*
X13400000Y-11740000D02*
X13440000Y-11740000D01*
X13444580Y-8217960D02*
X13444580Y-8257960D01*
X13424580Y-8237960D02*
X13464580Y-8237960D01*
X13444580Y-12017960D02*
X13444580Y-12057960D01*
X13424580Y-12037960D02*
X13464580Y-12037960D01*
X13447500Y-7537500D02*
X13447500Y-7577500D01*
X13427500Y-7557500D02*
X13467500Y-7557500D01*
X13447500Y-11337500D02*
X13447500Y-11377500D01*
X13427500Y-11357500D02*
X13467500Y-11357500D01*
X13450000Y-9030000D02*
X13450000Y-9070000D01*
X13430000Y-9050000D02*
X13470000Y-9050000D01*
X13450000Y-12830000D02*
X13450000Y-12870000D01*
X13430000Y-12850000D02*
X13470000Y-12850000D01*
X13462500Y-10877500D02*
X13462500Y-10917500D01*
X13442500Y-10897500D02*
X13482500Y-10897500D01*
X13462500Y-14677500D02*
X13462500Y-14717500D01*
X13442500Y-14697500D02*
X13482500Y-14697500D01*
X13482680Y-8766600D02*
X13482680Y-8806600D01*
X13462680Y-8786600D02*
X13502680Y-8786600D01*
X13482680Y-12566600D02*
X13482680Y-12606600D01*
X13462680Y-12586600D02*
X13502680Y-12586600D01*
X13487760Y-10008660D02*
X13487760Y-10048660D01*
X13467760Y-10028660D02*
X13507760Y-10028660D01*
X13487760Y-13808660D02*
X13487760Y-13848660D01*
X13467760Y-13828660D02*
X13507760Y-13828660D01*
X13497920Y-10100100D02*
X13497920Y-10140100D01*
X13477920Y-10120100D02*
X13517920Y-10120100D01*
X13497920Y-13900100D02*
X13497920Y-13940100D01*
X13477920Y-13920100D02*
X13517920Y-13920100D01*
X13550424Y-9937726D02*
X13550424Y-9977726D01*
X13530424Y-9957726D02*
X13570424Y-9957726D01*
X13550424Y-13737726D02*
X13550424Y-13777726D01*
X13530424Y-13757726D02*
X13570424Y-13757726D01*
X13551354Y-10488646D02*
X13551354Y-10528646D01*
X13531354Y-10508646D02*
X13571354Y-10508646D01*
X13551354Y-14288646D02*
X13551354Y-14328646D01*
X13531354Y-14308646D02*
X13571354Y-14308646D01*
X13612220Y-9048540D02*
X13612220Y-9088540D01*
X13592220Y-9068540D02*
X13632220Y-9068540D01*
X13612220Y-12848540D02*
X13612220Y-12888540D01*
X13592220Y-12868540D02*
X13632220Y-12868540D01*
X13649025Y-7879504D02*
X13649025Y-7919504D01*
X13629025Y-7899504D02*
X13669025Y-7899504D01*
X13649025Y-11679504D02*
X13649025Y-11719504D01*
X13629025Y-11699504D02*
X13669025Y-11699504D01*
X13650000Y-7580000D02*
X13650000Y-7620000D01*
X13630000Y-7600000D02*
X13670000Y-7600000D01*
X13650000Y-7730000D02*
X13650000Y-7770000D01*
X13630000Y-7750000D02*
X13670000Y-7750000D01*
X13650000Y-8180000D02*
X13650000Y-8220000D01*
X13630000Y-8200000D02*
X13670000Y-8200000D01*
X13650000Y-9530000D02*
X13650000Y-9570000D01*
X13630000Y-9550000D02*
X13670000Y-9550000D01*
X13650000Y-11380000D02*
X13650000Y-11420000D01*
X13630000Y-11400000D02*
X13670000Y-11400000D01*
X13650000Y-11530000D02*
X13650000Y-11570000D01*
X13630000Y-11550000D02*
X13670000Y-11550000D01*
X13650000Y-11980000D02*
X13650000Y-12020000D01*
X13630000Y-12000000D02*
X13670000Y-12000000D01*
X13650000Y-13330000D02*
X13650000Y-13370000D01*
X13630000Y-13350000D02*
X13670000Y-13350000D01*
X13655400Y-9663220D02*
X13655400Y-9703220D01*
X13635400Y-9683220D02*
X13675400Y-9683220D01*
X13655400Y-13463220D02*
X13655400Y-13503220D01*
X13635400Y-13483220D02*
X13675400Y-13483220D01*
X13657940Y-9852232D02*
X13657940Y-9892232D01*
X13637940Y-9872232D02*
X13677940Y-9872232D01*
X13657940Y-9978180D02*
X13657940Y-10018180D01*
X13637940Y-9998180D02*
X13677940Y-9998180D01*
X13657940Y-13652232D02*
X13657940Y-13692232D01*
X13637940Y-13672232D02*
X13677940Y-13672232D01*
X13657940Y-13778180D02*
X13657940Y-13818180D01*
X13637940Y-13798180D02*
X13677940Y-13798180D01*
X13660480Y-9212630D02*
X13660480Y-9252630D01*
X13640480Y-9232630D02*
X13680480Y-9232630D01*
X13660480Y-13012630D02*
X13660480Y-13052630D01*
X13640480Y-13032630D02*
X13680480Y-13032630D01*
X13700000Y-8380000D02*
X13700000Y-8420000D01*
X13680000Y-8400000D02*
X13720000Y-8400000D01*
X13700000Y-12180000D02*
X13700000Y-12220000D01*
X13680000Y-12200000D02*
X13720000Y-12200000D01*
X13725000Y-8855000D02*
X13725000Y-8895000D01*
X13705000Y-8875000D02*
X13745000Y-8875000D01*
X13725000Y-12655000D02*
X13725000Y-12695000D01*
X13705000Y-12675000D02*
X13745000Y-12675000D01*
X13740000Y-8520000D02*
X13740000Y-8560000D01*
X13720000Y-8540000D02*
X13760000Y-8540000D01*
X13740000Y-12320000D02*
X13740000Y-12360000D01*
X13720000Y-12340000D02*
X13760000Y-12340000D01*
X13757500Y-10620000D02*
X13757500Y-10660000D01*
X13737500Y-10640000D02*
X13777500Y-10640000D01*
X13757500Y-14420000D02*
X13757500Y-14460000D01*
X13737500Y-14440000D02*
X13777500Y-14440000D01*
X13765390Y-9993420D02*
X13765390Y-10033420D01*
X13745390Y-10013420D02*
X13785390Y-10013420D01*
X13765390Y-13793420D02*
X13765390Y-13833420D01*
X13745390Y-13813420D02*
X13785390Y-13813420D01*
X13767890Y-9912140D02*
X13767890Y-9952140D01*
X13747890Y-9932140D02*
X13787890Y-9932140D01*
X13767890Y-13712140D02*
X13767890Y-13752140D01*
X13747890Y-13732140D02*
X13787890Y-13732140D01*
X13784940Y-10239800D02*
X13784940Y-10279800D01*
X13764940Y-10259800D02*
X13804940Y-10259800D01*
X13784940Y-14039800D02*
X13784940Y-14079800D01*
X13764940Y-14059800D02*
X13804940Y-14059800D01*
X13800000Y-7580000D02*
X13800000Y-7620000D01*
X13780000Y-7600000D02*
X13820000Y-7600000D01*
X13800000Y-8030000D02*
X13800000Y-8070000D01*
X13780000Y-8050000D02*
X13820000Y-8050000D01*
X13800000Y-8180000D02*
X13800000Y-8220000D01*
X13780000Y-8200000D02*
X13820000Y-8200000D01*
X13800000Y-11380000D02*
X13800000Y-11420000D01*
X13780000Y-11400000D02*
X13820000Y-11400000D01*
X13800000Y-11830000D02*
X13800000Y-11870000D01*
X13780000Y-11850000D02*
X13820000Y-11850000D01*
X13800000Y-11980000D02*
X13800000Y-12020000D01*
X13780000Y-12000000D02*
X13820000Y-12000000D01*
X13880000Y-8400000D02*
X13880000Y-8440000D01*
X13860000Y-8420000D02*
X13900000Y-8420000D01*
X13880000Y-12200000D02*
X13880000Y-12240000D01*
X13860000Y-12220000D02*
X13900000Y-12220000D01*
X13889080Y-10016280D02*
X13889080Y-10056280D01*
X13869080Y-10036280D02*
X13909080Y-10036280D01*
X13889080Y-13816280D02*
X13889080Y-13856280D01*
X13869080Y-13836280D02*
X13909080Y-13836280D01*
X13912995Y-9389955D02*
X13912995Y-9429955D01*
X13892995Y-9409955D02*
X13932995Y-9409955D01*
X13912995Y-13189955D02*
X13912995Y-13229955D01*
X13892995Y-13209955D02*
X13932995Y-13209955D01*
X13913399Y-9555742D02*
X13913399Y-9595742D01*
X13893399Y-9575742D02*
X13933399Y-9575742D01*
X13913399Y-13355742D02*
X13913399Y-13395742D01*
X13893399Y-13375742D02*
X13933399Y-13375742D01*
X13922100Y-8942870D02*
X13922100Y-8982870D01*
X13902100Y-8962870D02*
X13942100Y-8962870D01*
X13922100Y-12742870D02*
X13922100Y-12782870D01*
X13902100Y-12762870D02*
X13942100Y-12762870D01*
X13943605Y-9316097D02*
X13943605Y-9356097D01*
X13923605Y-9336097D02*
X13963605Y-9336097D01*
X13943605Y-13116096D02*
X13943605Y-13156096D01*
X13923605Y-13136096D02*
X13963605Y-13136096D01*
X13973422Y-8604040D02*
X13973422Y-8644040D01*
X13953422Y-8624040D02*
X13993422Y-8624040D01*
X13973422Y-12404040D02*
X13973422Y-12444040D01*
X13953422Y-12424040D02*
X13993422Y-12424040D01*
X13976393Y-8473731D02*
X13976393Y-8513731D01*
X13956393Y-8493731D02*
X13996393Y-8493731D01*
X13976393Y-12273731D02*
X13976393Y-12313731D01*
X13956393Y-12293731D02*
X13996393Y-12293731D01*
X13977980Y-9391440D02*
X13977980Y-9431440D01*
X13957980Y-9411440D02*
X13997980Y-9411440D01*
X13977980Y-13191440D02*
X13977980Y-13231440D01*
X13957980Y-13211440D02*
X13997980Y-13211440D01*
X13983060Y-9548920D02*
X13983060Y-9588920D01*
X13963060Y-9568920D02*
X14003060Y-9568920D01*
X13983060Y-13348920D02*
X13983060Y-13388920D01*
X13963060Y-13368920D02*
X14003060Y-13368920D01*
X13992186Y-8681757D02*
X13992186Y-8721757D01*
X13972186Y-8701757D02*
X14012186Y-8701757D01*
X13992186Y-12481757D02*
X13992186Y-12521757D01*
X13972186Y-12501757D02*
X14012186Y-12501757D01*
X14020000Y-10060000D02*
X14020000Y-10100000D01*
X14000000Y-10080000D02*
X14040000Y-10080000D01*
X14020000Y-13860000D02*
X14020000Y-13900000D01*
X14000000Y-13880000D02*
X14040000Y-13880000D01*
X14030000Y-9900000D02*
X14030000Y-9940000D01*
X14010000Y-9920000D02*
X14050000Y-9920000D01*
X14030000Y-13700000D02*
X14030000Y-13740000D01*
X14010000Y-13720000D02*
X14050000Y-13720000D01*
X14033860Y-8995200D02*
X14033860Y-9035200D01*
X14013860Y-9015200D02*
X14053860Y-9015200D01*
X14033860Y-12795200D02*
X14033860Y-12835200D01*
X14013860Y-12815200D02*
X14053860Y-12815200D01*
X14050000Y-7820000D02*
X14050000Y-7860000D01*
X14030000Y-7840000D02*
X14070000Y-7840000D01*
X14050000Y-11620000D02*
X14050000Y-11660000D01*
X14030000Y-11640000D02*
X14070000Y-11640000D01*
X14064647Y-8530073D02*
X14064647Y-8570073D01*
X14044647Y-8550073D02*
X14084647Y-8550073D01*
X14064647Y-12330073D02*
X14064647Y-12370073D01*
X14044647Y-12350073D02*
X14084647Y-12350073D01*
X14070000Y-8130000D02*
X14070000Y-8170000D01*
X14050000Y-8150000D02*
X14090000Y-8150000D01*
X14070000Y-11930000D02*
X14070000Y-11970000D01*
X14050000Y-11950000D02*
X14090000Y-11950000D01*
X14080000Y-7970000D02*
X14080000Y-8010000D01*
X14060000Y-7990000D02*
X14100000Y-7990000D01*
X14080000Y-11770000D02*
X14080000Y-11810000D01*
X14060000Y-11790000D02*
X14100000Y-11790000D01*
X14100613Y-7705050D02*
X14100613Y-7745050D01*
X14080613Y-7725050D02*
X14120613Y-7725050D01*
X14100613Y-11505050D02*
X14100613Y-11545050D01*
X14080613Y-11525050D02*
X14120613Y-11525050D01*
X14140000Y-8320000D02*
X14140000Y-8360000D01*
X14120000Y-8340000D02*
X14160000Y-8340000D01*
X14140000Y-12120000D02*
X14140000Y-12160000D01*
X14120000Y-12140000D02*
X14160000Y-12140000D01*
X14181210Y-9042778D02*
X14181210Y-9082778D01*
X14161210Y-9062778D02*
X14201210Y-9062778D01*
X14181210Y-12842778D02*
X14181210Y-12882778D01*
X14161210Y-12862778D02*
X14201210Y-12862778D01*
X14210000Y-7832450D02*
X14210000Y-7872450D01*
X14190000Y-7852450D02*
X14230000Y-7852450D01*
X14210000Y-11632450D02*
X14210000Y-11672450D01*
X14190000Y-11652450D02*
X14230000Y-11652450D01*
X14232470Y-10409980D02*
X14232470Y-10449980D01*
X14212470Y-10429980D02*
X14252470Y-10429980D01*
X14232470Y-14209980D02*
X14232470Y-14249980D01*
X14212470Y-14229980D02*
X14252470Y-14229980D01*
X14257500Y-10692500D02*
X14257500Y-10732500D01*
X14237500Y-10712500D02*
X14277500Y-10712500D01*
X14257500Y-14492500D02*
X14257500Y-14532500D01*
X14237500Y-14512500D02*
X14277500Y-14512500D01*
X14270000Y-8020000D02*
X14270000Y-8060000D01*
X14250000Y-8040000D02*
X14290000Y-8040000D01*
X14270000Y-11820000D02*
X14270000Y-11860000D01*
X14250000Y-11840000D02*
X14290000Y-11840000D01*
X14275000Y-8130000D02*
X14275000Y-8170000D01*
X14255000Y-8150000D02*
X14295000Y-8150000D01*
X14275000Y-11930000D02*
X14275000Y-11970000D01*
X14255000Y-11950000D02*
X14295000Y-11950000D01*
X14277500Y-10577500D02*
X14277500Y-10617500D01*
X14257500Y-10597500D02*
X14297500Y-10597500D01*
X14277500Y-14377500D02*
X14277500Y-14417500D01*
X14257500Y-14397500D02*
X14297500Y-14397500D01*
X14280000Y-9920000D02*
X14280000Y-9960000D01*
X14260000Y-9940000D02*
X14300000Y-9940000D01*
X14280000Y-13720000D02*
X14280000Y-13760000D01*
X14260000Y-13740000D02*
X14300000Y-13740000D01*
X14281260Y-8960928D02*
X14281260Y-9000928D01*
X14261260Y-8980928D02*
X14301260Y-8980928D01*
X14281260Y-12760928D02*
X14281260Y-12800928D01*
X14261260Y-12780928D02*
X14301260Y-12780928D01*
X14300000Y-10140000D02*
X14300000Y-10180000D01*
X14280000Y-10160000D02*
X14320000Y-10160000D01*
X14300000Y-10880000D02*
X14300000Y-10920000D01*
X14280000Y-10900000D02*
X14320000Y-10900000D01*
X14300000Y-13940000D02*
X14300000Y-13980000D01*
X14280000Y-13960000D02*
X14320000Y-13960000D01*
X14300000Y-14680000D02*
X14300000Y-14720000D01*
X14280000Y-14700000D02*
X14320000Y-14700000D01*
X14300560Y-10006120D02*
X14300560Y-10046120D01*
X14280560Y-10026120D02*
X14320560Y-10026120D01*
X14300560Y-13806120D02*
X14300560Y-13846120D01*
X14280560Y-13826120D02*
X14320560Y-13826120D01*
X14317817Y-8810102D02*
X14317817Y-8850102D01*
X14297817Y-8830102D02*
X14337817Y-8830102D01*
X14317817Y-12610102D02*
X14317817Y-12650102D01*
X14297817Y-12630102D02*
X14337817Y-12630102D01*
X14321447Y-9334368D02*
X14321447Y-9374368D01*
X14301447Y-9354368D02*
X14341447Y-9354368D01*
X14321447Y-13134368D02*
X14321447Y-13174368D01*
X14301447Y-13154368D02*
X14341447Y-13154368D01*
X14333580Y-8715800D02*
X14333580Y-8755800D01*
X14313580Y-8735800D02*
X14353580Y-8735800D01*
X14333580Y-12515800D02*
X14333580Y-12555800D01*
X14313580Y-12535800D02*
X14353580Y-12535800D01*
X14358531Y-7609621D02*
X14358531Y-7649621D01*
X14338531Y-7629621D02*
X14378531Y-7629621D01*
X14358531Y-11409621D02*
X14358531Y-11449621D01*
X14338531Y-11429621D02*
X14378531Y-11429621D01*
X14375000Y-8105000D02*
X14375000Y-8145000D01*
X14355000Y-8125000D02*
X14395000Y-8125000D01*
X14375000Y-11905000D02*
X14375000Y-11945000D01*
X14355000Y-11925000D02*
X14395000Y-11925000D01*
X14376251Y-8872270D02*
X14376251Y-8912270D01*
X14356251Y-8892270D02*
X14396251Y-8892270D01*
X14376251Y-12672270D02*
X14376251Y-12712270D01*
X14356251Y-12692270D02*
X14396251Y-12692270D01*
X14380000Y-8540000D02*
X14380000Y-8580000D01*
X14360000Y-8560000D02*
X14400000Y-8560000D01*
X14380000Y-12340000D02*
X14380000Y-12380000D01*
X14360000Y-12360000D02*
X14400000Y-12360000D01*
X14385280Y-9707086D02*
X14385280Y-9747086D01*
X14365280Y-9727086D02*
X14405280Y-9727086D01*
X14385280Y-13507086D02*
X14385280Y-13547086D01*
X14365280Y-13527086D02*
X14405280Y-13527086D01*
X14419505Y-9084762D02*
X14419505Y-9124762D01*
X14399505Y-9104762D02*
X14439505Y-9104762D01*
X14419505Y-12884762D02*
X14419505Y-12924762D01*
X14399505Y-12904762D02*
X14439505Y-12904762D01*
X14444513Y-9512533D02*
X14444513Y-9552533D01*
X14424513Y-9532533D02*
X14464513Y-9532533D01*
X14444513Y-13312533D02*
X14444513Y-13352533D01*
X14424513Y-13332533D02*
X14464513Y-13332533D01*
X14449206Y-10879450D02*
X14449206Y-10919450D01*
X14429206Y-10899450D02*
X14469206Y-10899450D01*
X14449206Y-14679449D02*
X14449206Y-14719449D01*
X14429206Y-14699449D02*
X14469206Y-14699449D01*
X14457184Y-7782764D02*
X14457184Y-7822764D01*
X14437184Y-7802764D02*
X14477184Y-7802764D01*
X14457184Y-11582764D02*
X14457184Y-11622764D01*
X14437184Y-11602764D02*
X14477184Y-11602764D01*
X14470740Y-8527840D02*
X14470740Y-8567840D01*
X14450740Y-8547840D02*
X14490740Y-8547840D01*
X14470740Y-12327840D02*
X14470740Y-12367840D01*
X14450740Y-12347840D02*
X14490740Y-12347840D01*
X14475000Y-8055000D02*
X14475000Y-8095000D01*
X14455000Y-8075000D02*
X14495000Y-8075000D01*
X14475000Y-11855000D02*
X14475000Y-11895000D01*
X14455000Y-11875000D02*
X14495000Y-11875000D01*
X14477500Y-8664542D02*
X14477500Y-8704542D01*
X14457500Y-8684542D02*
X14497500Y-8684542D01*
X14477500Y-12464542D02*
X14477500Y-12504542D01*
X14457500Y-12484542D02*
X14497500Y-12484542D01*
X14480000Y-10540000D02*
X14480000Y-10580000D01*
X14460000Y-10560000D02*
X14500000Y-10560000D01*
X14480000Y-14340000D02*
X14480000Y-14380000D01*
X14460000Y-14360000D02*
X14500000Y-14360000D01*
X14485463Y-8755415D02*
X14485463Y-8795415D01*
X14465463Y-8775415D02*
X14505463Y-8775415D01*
X14485463Y-12555415D02*
X14485463Y-12595415D01*
X14465463Y-12575415D02*
X14505463Y-12575415D01*
X14500000Y-8340000D02*
X14500000Y-8380000D01*
X14480000Y-8360000D02*
X14520000Y-8360000D01*
X14500000Y-9880000D02*
X14500000Y-9920000D01*
X14480000Y-9900000D02*
X14520000Y-9900000D01*
X14500000Y-12140000D02*
X14500000Y-12180000D01*
X14480000Y-12160000D02*
X14520000Y-12160000D01*
X14500000Y-13680000D02*
X14500000Y-13720000D01*
X14480000Y-13700000D02*
X14520000Y-13700000D01*
X14501310Y-9087740D02*
X14501310Y-9127740D01*
X14481310Y-9107740D02*
X14521310Y-9107740D01*
X14501310Y-12887740D02*
X14501310Y-12927740D01*
X14481310Y-12907740D02*
X14521310Y-12907740D01*
X14525000Y-9405000D02*
X14525000Y-9445000D01*
X14505000Y-9425000D02*
X14545000Y-9425000D01*
X14525000Y-13205000D02*
X14525000Y-13245000D01*
X14505000Y-13225000D02*
X14545000Y-13225000D01*
X14544760Y-8143057D02*
X14544760Y-8183057D01*
X14524760Y-8163057D02*
X14564760Y-8163057D01*
X14544760Y-11943057D02*
X14544760Y-11983057D01*
X14524760Y-11963057D02*
X14564760Y-11963057D01*
X14550000Y-7830000D02*
X14550000Y-7870000D01*
X14530000Y-7850000D02*
X14570000Y-7850000D01*
X14550000Y-11630000D02*
X14550000Y-11670000D01*
X14530000Y-11650000D02*
X14570000Y-11650000D01*
X14570000Y-10630000D02*
X14570000Y-10670000D01*
X14550000Y-10650000D02*
X14590000Y-10650000D01*
X14570000Y-14430000D02*
X14570000Y-14470000D01*
X14550000Y-14450000D02*
X14590000Y-14450000D01*
X14584328Y-8594592D02*
X14584328Y-8634592D01*
X14564328Y-8614592D02*
X14604328Y-8614592D01*
X14584328Y-12394592D02*
X14584328Y-12434592D01*
X14564328Y-12414592D02*
X14604328Y-12414592D01*
X14590120Y-10148360D02*
X14590120Y-10188360D01*
X14570120Y-10168360D02*
X14610120Y-10168360D01*
X14590120Y-13948360D02*
X14590120Y-13988360D01*
X14570120Y-13968360D02*
X14610120Y-13968360D01*
X14640000Y-9500000D02*
X14640000Y-9540000D01*
X14620000Y-9520000D02*
X14660000Y-9520000D01*
X14640000Y-13300000D02*
X14640000Y-13340000D01*
X14620000Y-13320000D02*
X14660000Y-13320000D01*
X14647110Y-8340000D02*
X14647110Y-8380000D01*
X14627110Y-8360000D02*
X14667110Y-8360000D01*
X14647110Y-12140000D02*
X14647110Y-12180000D01*
X14627110Y-12160000D02*
X14667110Y-12160000D01*
X14650000Y-9880000D02*
X14650000Y-9920000D01*
X14630000Y-9900000D02*
X14670000Y-9900000D01*
X14650000Y-13680000D02*
X14650000Y-13720000D01*
X14630000Y-13700000D02*
X14670000Y-13700000D01*
X14700000Y-7780000D02*
X14700000Y-7820000D01*
X14680000Y-7800000D02*
X14720000Y-7800000D01*
X14700000Y-11580000D02*
X14700000Y-11620000D01*
X14680000Y-11600000D02*
X14720000Y-11600000D01*
X14701104Y-10400000D02*
X14701104Y-10440000D01*
X14681104Y-10420000D02*
X14721104Y-10420000D01*
X14701104Y-14200000D02*
X14701104Y-14240000D01*
X14681104Y-14220000D02*
X14721104Y-14220000D01*
X14780000Y-8160000D02*
X14780000Y-8200000D01*
X14760000Y-8180000D02*
X14800000Y-8180000D01*
X14780000Y-11960000D02*
X14780000Y-12000000D01*
X14760000Y-11980000D02*
X14800000Y-11980000D01*
X14800000Y-7700000D02*
X14800000Y-7740000D01*
X14780000Y-7720000D02*
X14820000Y-7720000D01*
X14800000Y-11500000D02*
X14800000Y-11540000D01*
X14780000Y-11520000D02*
X14820000Y-11520000D01*
X14823800Y-9267640D02*
X14823800Y-9307640D01*
X14803800Y-9287640D02*
X14843800Y-9287640D01*
X14823800Y-10857020D02*
X14823800Y-10897020D01*
X14803800Y-10877020D02*
X14843800Y-10877020D01*
X14823800Y-13067640D02*
X14823800Y-13107640D01*
X14803800Y-13087640D02*
X14843800Y-13087640D01*
X14823800Y-14657020D02*
X14823800Y-14697020D01*
X14803800Y-14677020D02*
X14843800Y-14677020D01*
X14830000Y-10410000D02*
X14830000Y-10450000D01*
X14810000Y-10430000D02*
X14850000Y-10430000D01*
X14830000Y-14210000D02*
X14830000Y-14250000D01*
X14810000Y-14230000D02*
X14850000Y-14230000D01*
X14850000Y-7830000D02*
X14850000Y-7870000D01*
X14830000Y-7850000D02*
X14870000Y-7850000D01*
X14850000Y-10630000D02*
X14850000Y-10670000D01*
X14830000Y-10650000D02*
X14870000Y-10650000D01*
X14850000Y-11630000D02*
X14850000Y-11670000D01*
X14830000Y-11650000D02*
X14870000Y-11650000D01*
X14850000Y-14430000D02*
X14850000Y-14470000D01*
X14830000Y-14450000D02*
X14870000Y-14450000D01*
X14854608Y-8607128D02*
X14854608Y-8647128D01*
X14834608Y-8627128D02*
X14874608Y-8627128D01*
X14854608Y-12407128D02*
X14854608Y-12447128D01*
X14834608Y-12427128D02*
X14874608Y-12427128D01*
X14859360Y-7995290D02*
X14859360Y-8035290D01*
X14839360Y-8015290D02*
X14879360Y-8015290D01*
X14859360Y-11795290D02*
X14859360Y-11835290D01*
X14839360Y-11815290D02*
X14879360Y-11815290D01*
X14877140Y-8840260D02*
X14877140Y-8880260D01*
X14857140Y-8860260D02*
X14897140Y-8860260D01*
X14877140Y-12640260D02*
X14877140Y-12680260D01*
X14857140Y-12660260D02*
X14897140Y-12660260D01*
X14900000Y-7730000D02*
X14900000Y-7770000D01*
X14880000Y-7750000D02*
X14920000Y-7750000D01*
X14900000Y-11530000D02*
X14900000Y-11570000D01*
X14880000Y-11550000D02*
X14920000Y-11550000D01*
X14920000Y-7540000D02*
X14920000Y-7580000D01*
X14900000Y-7560000D02*
X14940000Y-7560000D01*
X14920000Y-11340000D02*
X14920000Y-11380000D01*
X14900000Y-11360000D02*
X14940000Y-11360000D01*
X14925200Y-8379680D02*
X14925200Y-8419680D01*
X14905200Y-8399680D02*
X14945200Y-8399680D01*
X14925200Y-12179680D02*
X14925200Y-12219680D01*
X14905200Y-12199680D02*
X14945200Y-12199680D01*
X14928810Y-9518440D02*
X14928810Y-9558440D01*
X14908810Y-9538440D02*
X14948810Y-9538440D01*
X14928810Y-13318440D02*
X14928810Y-13358440D01*
X14908810Y-13338440D02*
X14948810Y-13338440D01*
X14970000Y-10410000D02*
X14970000Y-10450000D01*
X14950000Y-10430000D02*
X14990000Y-10430000D01*
X14970000Y-14210000D02*
X14970000Y-14250000D01*
X14950000Y-14230000D02*
X14990000Y-14230000D01*
X15000000Y-7630000D02*
X15000000Y-7670000D01*
X14980000Y-7650000D02*
X15020000Y-7650000D01*
X15000000Y-7780000D02*
X15000000Y-7820000D01*
X14980000Y-7800000D02*
X15020000Y-7800000D01*
X15000000Y-11430000D02*
X15000000Y-11470000D01*
X14980000Y-11450000D02*
X15020000Y-11450000D01*
X15000000Y-11580000D02*
X15000000Y-11620000D01*
X14980000Y-11600000D02*
X15020000Y-11600000D01*
X15009220Y-10793520D02*
X15009220Y-10833520D01*
X14989220Y-10813520D02*
X15029220Y-10813520D01*
X15009220Y-14593520D02*
X15009220Y-14633520D01*
X14989220Y-14613520D02*
X15029220Y-14613520D01*
X15024460Y-8412240D02*
X15024460Y-8452240D01*
X15004460Y-8432240D02*
X15044460Y-8432240D01*
X15024460Y-12212240D02*
X15024460Y-12252240D01*
X15004460Y-12232240D02*
X15044460Y-12232240D01*
X15050000Y-7930000D02*
X15050000Y-7970000D01*
X15030000Y-7950000D02*
X15070000Y-7950000D01*
X15050000Y-11730000D02*
X15050000Y-11770000D01*
X15030000Y-11750000D02*
X15070000Y-11750000D01*
X15088028Y-9904452D02*
X15088028Y-9944452D01*
X15068028Y-9924452D02*
X15108028Y-9924452D01*
X15088028Y-13704452D02*
X15088028Y-13744452D01*
X15068028Y-13724452D02*
X15108028Y-13724452D01*
X15090000Y-10600000D02*
X15090000Y-10640000D01*
X15070000Y-10620000D02*
X15110000Y-10620000D01*
X15090000Y-14400000D02*
X15090000Y-14440000D01*
X15070000Y-14420000D02*
X15110000Y-14420000D01*
X15130000Y-10870000D02*
X15130000Y-10910000D01*
X15110000Y-10890000D02*
X15150000Y-10890000D01*
X15130000Y-14670000D02*
X15130000Y-14710000D01*
X15110000Y-14690000D02*
X15150000Y-14690000D01*
X15140000Y-10470000D02*
X15140000Y-10510000D01*
X15120000Y-10490000D02*
X15160000Y-10490000D01*
X15140000Y-14270000D02*
X15140000Y-14310000D01*
X15120000Y-14290000D02*
X15160000Y-14290000D01*
X15146902Y-8504980D02*
X15146902Y-8544980D01*
X15126902Y-8524980D02*
X15166902Y-8524980D01*
X15146902Y-12304980D02*
X15146902Y-12344980D01*
X15126902Y-12324980D02*
X15166902Y-12324980D01*
X15149338Y-7879296D02*
X15149338Y-7919296D01*
X15129338Y-7899296D02*
X15169338Y-7899296D01*
X15149338Y-11679296D02*
X15149338Y-11719296D01*
X15129338Y-11699296D02*
X15169338Y-11699296D01*
X15150000Y-7580000D02*
X15150000Y-7620000D01*
X15130000Y-7600000D02*
X15170000Y-7600000D01*
X15150000Y-7730000D02*
X15150000Y-7770000D01*
X15130000Y-7750000D02*
X15170000Y-7750000D01*
X15150000Y-8030000D02*
X15150000Y-8070000D01*
X15130000Y-8050000D02*
X15170000Y-8050000D01*
X15150000Y-9980000D02*
X15150000Y-10020000D01*
X15130000Y-10000000D02*
X15170000Y-10000000D01*
X15150000Y-10130000D02*
X15150000Y-10170000D01*
X15130000Y-10150000D02*
X15170000Y-10150000D01*
X15150000Y-11380000D02*
X15150000Y-11420000D01*
X15130000Y-11400000D02*
X15170000Y-11400000D01*
X15150000Y-11530000D02*
X15150000Y-11570000D01*
X15130000Y-11550000D02*
X15170000Y-11550000D01*
X15150000Y-11830000D02*
X15150000Y-11870000D01*
X15130000Y-11850000D02*
X15170000Y-11850000D01*
X15150000Y-13780000D02*
X15150000Y-13820000D01*
X15130000Y-13800000D02*
X15170000Y-13800000D01*
X15150000Y-13930000D02*
X15150000Y-13970000D01*
X15130000Y-13950000D02*
X15170000Y-13950000D01*
X15187020Y-8804700D02*
X15187020Y-8844700D01*
X15167020Y-8824700D02*
X15207020Y-8824700D01*
X15187020Y-12604700D02*
X15187020Y-12644700D01*
X15167020Y-12624700D02*
X15207020Y-12624700D01*
X15300000Y-9430000D02*
X15300000Y-9470000D01*
X15280000Y-9450000D02*
X15320000Y-9450000D01*
X15300000Y-10920000D02*
X15300000Y-10960000D01*
X15280000Y-10940000D02*
X15320000Y-10940000D01*
X15300000Y-13230000D02*
X15300000Y-13270000D01*
X15280000Y-13250000D02*
X15320000Y-13250000D01*
X15300000Y-14720000D02*
X15300000Y-14760000D01*
X15280000Y-14740000D02*
X15320000Y-14740000D01*
X15316755Y-8547757D02*
X15316755Y-8587757D01*
X15296755Y-8567757D02*
X15336755Y-8567757D01*
X15316755Y-12347757D02*
X15316755Y-12387757D01*
X15296755Y-12367757D02*
X15336755Y-12367757D01*
X15357500Y-7962500D02*
X15357500Y-8002500D01*
X15337500Y-7982500D02*
X15377500Y-7982500D01*
X15357500Y-11762500D02*
X15357500Y-11802500D01*
X15337500Y-11782500D02*
X15377500Y-11782500D01*
X15360000Y-10760000D02*
X15360000Y-10800000D01*
X15340000Y-10780000D02*
X15380000Y-10780000D01*
X15360000Y-14560000D02*
X15360000Y-14600000D01*
X15340000Y-14580000D02*
X15380000Y-14580000D01*
X15380000Y-8060000D02*
X15380000Y-8100000D01*
X15360000Y-8080000D02*
X15400000Y-8080000D01*
X15380000Y-8460000D02*
X15380000Y-8500000D01*
X15360000Y-8480000D02*
X15400000Y-8480000D01*
X15380000Y-11860000D02*
X15380000Y-11900000D01*
X15360000Y-11880000D02*
X15400000Y-11880000D01*
X15380000Y-12260000D02*
X15380000Y-12300000D01*
X15360000Y-12280000D02*
X15400000Y-12280000D01*
X15380060Y-9383820D02*
X15380060Y-9423820D01*
X15360060Y-9403820D02*
X15400060Y-9403820D01*
X15380060Y-13183820D02*
X15380060Y-13223820D01*
X15360060Y-13203820D02*
X15400060Y-13203820D01*
X15400000Y-7530000D02*
X15400000Y-7570000D01*
X15380000Y-7550000D02*
X15420000Y-7550000D01*
X15400000Y-7730000D02*
X15400000Y-7770000D01*
X15380000Y-7750000D02*
X15420000Y-7750000D01*
X15400000Y-8240000D02*
X15400000Y-8280000D01*
X15380000Y-8260000D02*
X15420000Y-8260000D01*
X15400000Y-8340000D02*
X15400000Y-8380000D01*
X15380000Y-8360000D02*
X15420000Y-8360000D01*
X15400000Y-10560000D02*
X15400000Y-10600000D01*
X15380000Y-10580000D02*
X15420000Y-10580000D01*
X15400000Y-11330000D02*
X15400000Y-11370000D01*
X15380000Y-11350000D02*
X15420000Y-11350000D01*
X15400000Y-11530000D02*
X15400000Y-11570000D01*
X15380000Y-11550000D02*
X15420000Y-11550000D01*
X15400000Y-12040000D02*
X15400000Y-12080000D01*
X15380000Y-12060000D02*
X15420000Y-12060000D01*
X15400000Y-12140000D02*
X15400000Y-12180000D01*
X15380000Y-12160000D02*
X15420000Y-12160000D01*
X15400000Y-14360000D02*
X15400000Y-14400000D01*
X15380000Y-14380000D02*
X15420000Y-14380000D01*
X15433400Y-10304540D02*
X15433400Y-10344540D01*
X15413400Y-10324540D02*
X15453400Y-10324540D01*
X15433400Y-14104540D02*
X15433400Y-14144540D01*
X15413400Y-14124540D02*
X15453400Y-14124540D01*
X15473520Y-8938800D02*
X15473520Y-8978800D01*
X15453520Y-8958800D02*
X15493520Y-8958800D01*
X15473520Y-12738800D02*
X15473520Y-12778800D01*
X15453520Y-12758800D02*
X15493520Y-12758800D01*
X15480000Y-9860000D02*
X15480000Y-9900000D01*
X15460000Y-9880000D02*
X15500000Y-9880000D01*
X15480000Y-10060000D02*
X15480000Y-10100000D01*
X15460000Y-10080000D02*
X15500000Y-10080000D01*
X15480000Y-13660000D02*
X15480000Y-13700000D01*
X15460000Y-13680000D02*
X15500000Y-13680000D01*
X15480000Y-13860000D02*
X15480000Y-13900000D01*
X15460000Y-13880000D02*
X15500000Y-13880000D01*
X15491820Y-7712500D02*
X15491820Y-7752500D01*
X15471820Y-7732500D02*
X15511820Y-7732500D01*
X15491820Y-11512500D02*
X15491820Y-11552500D01*
X15471820Y-11532500D02*
X15511820Y-11532500D01*
X15512140Y-7824260D02*
X15512140Y-7864260D01*
X15492140Y-7844260D02*
X15532140Y-7844260D01*
X15512140Y-11624260D02*
X15512140Y-11664260D01*
X15492140Y-11644260D02*
X15532140Y-11644260D01*
X15517220Y-8240820D02*
X15517220Y-8280820D01*
X15497220Y-8260820D02*
X15537220Y-8260820D01*
X15517220Y-12040820D02*
X15517220Y-12080820D01*
X15497220Y-12060820D02*
X15537220Y-12060820D01*
X15550000Y-8723420D02*
X15550000Y-8763420D01*
X15530000Y-8743420D02*
X15570000Y-8743420D01*
X15550000Y-12523420D02*
X15550000Y-12563420D01*
X15530000Y-12543420D02*
X15570000Y-12543420D01*
X15554050Y-7567720D02*
X15554050Y-7607720D01*
X15534050Y-7587720D02*
X15574050Y-7587720D01*
X15554050Y-7641380D02*
X15554050Y-7681380D01*
X15534050Y-7661380D02*
X15574050Y-7661380D01*
X15554050Y-11367720D02*
X15554050Y-11407720D01*
X15534050Y-11387720D02*
X15574050Y-11387720D01*
X15554050Y-11441380D02*
X15554050Y-11481380D01*
X15534050Y-11461380D02*
X15574050Y-11461380D01*
X15580000Y-10720000D02*
X15580000Y-10760000D01*
X15560000Y-10740000D02*
X15600000Y-10740000D01*
X15580000Y-14520000D02*
X15580000Y-14560000D01*
X15560000Y-14540000D02*
X15600000Y-14540000D01*
X15599529Y-9928084D02*
X15599529Y-9968084D01*
X15579529Y-9948084D02*
X15619529Y-9948084D01*
X15599529Y-13728084D02*
X15599529Y-13768084D01*
X15579529Y-13748084D02*
X15619529Y-13748084D01*
X15600000Y-9780000D02*
X15600000Y-9820000D01*
X15580000Y-9800000D02*
X15620000Y-9800000D01*
X15600000Y-10080000D02*
X15600000Y-10120000D01*
X15580000Y-10100000D02*
X15620000Y-10100000D01*
X15600000Y-13580000D02*
X15600000Y-13620000D01*
X15580000Y-13600000D02*
X15620000Y-13600000D01*
X15600000Y-13880000D02*
X15600000Y-13920000D01*
X15580000Y-13900000D02*
X15620000Y-13900000D01*
X15680000Y-10600000D02*
X15680000Y-10640000D01*
X15660000Y-10620000D02*
X15700000Y-10620000D01*
X15680000Y-10880000D02*
X15680000Y-10920000D01*
X15660000Y-10900000D02*
X15700000Y-10900000D01*
X15680000Y-14400000D02*
X15680000Y-14440000D01*
X15660000Y-14420000D02*
X15700000Y-14420000D01*
X15680000Y-14680000D02*
X15680000Y-14720000D01*
X15660000Y-14700000D02*
X15700000Y-14700000D01*
X15718950Y-7580000D02*
X15718950Y-7620000D01*
X15698950Y-7600000D02*
X15738950Y-7600000D01*
X15718950Y-7651540D02*
X15718950Y-7691540D01*
X15698950Y-7671540D02*
X15738950Y-7671540D01*
X15718950Y-11380000D02*
X15718950Y-11420000D01*
X15698950Y-11400000D02*
X15738950Y-11400000D01*
X15718950Y-11451540D02*
X15718950Y-11491540D01*
X15698950Y-11471540D02*
X15738950Y-11471540D01*
X15729020Y-8517797D02*
X15729020Y-8557797D01*
X15709020Y-8537797D02*
X15749020Y-8537797D01*
X15729020Y-12317797D02*
X15729020Y-12357797D01*
X15709020Y-12337797D02*
X15749020Y-12337797D01*
X15750000Y-7710690D02*
X15750000Y-7750690D01*
X15730000Y-7730690D02*
X15770000Y-7730690D01*
X15750000Y-11510690D02*
X15750000Y-11550690D01*
X15730000Y-11530690D02*
X15770000Y-11530690D01*
X15800000Y-9780000D02*
X15800000Y-9820000D01*
X15780000Y-9800000D02*
X15820000Y-9800000D01*
X15800000Y-9930000D02*
X15800000Y-9970000D01*
X15780000Y-9950000D02*
X15820000Y-9950000D01*
X15800000Y-10080000D02*
X15800000Y-10120000D01*
X15780000Y-10100000D02*
X15820000Y-10100000D01*
X15800000Y-10720000D02*
X15800000Y-10760000D01*
X15780000Y-10740000D02*
X15820000Y-10740000D01*
X15800000Y-13580000D02*
X15800000Y-13620000D01*
X15780000Y-13600000D02*
X15820000Y-13600000D01*
X15800000Y-13730000D02*
X15800000Y-13770000D01*
X15780000Y-13750000D02*
X15820000Y-13750000D01*
X15800000Y-13880000D02*
X15800000Y-13920000D01*
X15780000Y-13900000D02*
X15820000Y-13900000D01*
X15800000Y-14520000D02*
X15800000Y-14560000D01*
X15780000Y-14540000D02*
X15820000Y-14540000D01*
X15806780Y-8550700D02*
X15806780Y-8590700D01*
X15786780Y-8570700D02*
X15826780Y-8570700D01*
X15806780Y-12350700D02*
X15806780Y-12390700D01*
X15786780Y-12370700D02*
X15826780Y-12370700D01*
X15940000Y-7660000D02*
X15940000Y-7700000D01*
X15920000Y-7680000D02*
X15960000Y-7680000D01*
X15940000Y-11460000D02*
X15940000Y-11500000D01*
X15920000Y-11480000D02*
X15960000Y-11480000D01*
X15950000Y-8630000D02*
X15950000Y-8670000D01*
X15930000Y-8650000D02*
X15970000Y-8650000D01*
X15950000Y-12430000D02*
X15950000Y-12470000D01*
X15930000Y-12450000D02*
X15970000Y-12450000D01*
X15968680Y-9190120D02*
X15968680Y-9230120D01*
X15948680Y-9210120D02*
X15988680Y-9210120D01*
X15968680Y-12990120D02*
X15968680Y-13030120D01*
X15948680Y-13010120D02*
X15988680Y-13010120D01*
X15992200Y-7580420D02*
X15992200Y-7620420D01*
X15972200Y-7600420D02*
X16012200Y-7600420D01*
X15992200Y-11380420D02*
X15992200Y-11420420D01*
X15972200Y-11400420D02*
X16012200Y-11400420D01*
X16012735Y-7658184D02*
X16012735Y-7698184D01*
X15992735Y-7678184D02*
X16032735Y-7678184D01*
X16012735Y-11458184D02*
X16012735Y-11498184D01*
X15992735Y-11478184D02*
X16032735Y-11478184D01*
X16020140Y-10570000D02*
X16020140Y-10610000D01*
X16000140Y-10590000D02*
X16040140Y-10590000D01*
X16020140Y-14370000D02*
X16020140Y-14410000D01*
X16000140Y-14390000D02*
X16040140Y-14390000D01*
X16050000Y-8030000D02*
X16050000Y-8070000D01*
X16030000Y-8050000D02*
X16070000Y-8050000D01*
X16050000Y-11830000D02*
X16050000Y-11870000D01*
X16030000Y-11850000D02*
X16070000Y-11850000D01*
X16100000Y-7680000D02*
X16100000Y-7720000D01*
X16080000Y-7700000D02*
X16120000Y-7700000D01*
X16100000Y-7830000D02*
X16100000Y-7870000D01*
X16080000Y-7850000D02*
X16120000Y-7850000D01*
X16100000Y-10730000D02*
X16100000Y-10770000D01*
X16080000Y-10750000D02*
X16120000Y-10750000D01*
X16100000Y-11480000D02*
X16100000Y-11520000D01*
X16080000Y-11500000D02*
X16120000Y-11500000D01*
X16100000Y-11630000D02*
X16100000Y-11670000D01*
X16080000Y-11650000D02*
X16120000Y-11650000D01*
X16100000Y-14530000D02*
X16100000Y-14570000D01*
X16080000Y-14550000D02*
X16120000Y-14550000D01*
X16119200Y-8990120D02*
X16119200Y-9030120D01*
X16099200Y-9010120D02*
X16139200Y-9010120D01*
X16119200Y-12790120D02*
X16119200Y-12830120D01*
X16099200Y-12810120D02*
X16139200Y-12810120D01*
X16147500Y-10400000D02*
X16147500Y-10440000D01*
X16127500Y-10420000D02*
X16167500Y-10420000D01*
X16147500Y-14200000D02*
X16147500Y-14240000D01*
X16127500Y-14220000D02*
X16167500Y-14220000D01*
X16150000Y-8180000D02*
X16150000Y-8220000D01*
X16130000Y-8200000D02*
X16170000Y-8200000D01*
X16150000Y-10230000D02*
X16150000Y-10270000D01*
X16130000Y-10250000D02*
X16170000Y-10250000D01*
X16150000Y-10880000D02*
X16150000Y-10920000D01*
X16130000Y-10900000D02*
X16170000Y-10900000D01*
X16150000Y-11980000D02*
X16150000Y-12020000D01*
X16130000Y-12000000D02*
X16170000Y-12000000D01*
X16150000Y-14030000D02*
X16150000Y-14070000D01*
X16130000Y-14050000D02*
X16170000Y-14050000D01*
X16150000Y-14680000D02*
X16150000Y-14720000D01*
X16130000Y-14700000D02*
X16170000Y-14700000D01*
X16180050Y-9180620D02*
X16180050Y-9220620D01*
X16160050Y-9200620D02*
X16200050Y-9200620D01*
X16180050Y-12980620D02*
X16180050Y-13020620D01*
X16160050Y-13000620D02*
X16200050Y-13000620D01*
X16200000Y-7580000D02*
X16200000Y-7620000D01*
X16180000Y-7600000D02*
X16220000Y-7600000D01*
X16200000Y-11380000D02*
X16200000Y-11420000D01*
X16180000Y-11400000D02*
X16220000Y-11400000D01*
X16231042Y-9289862D02*
X16231042Y-9329862D01*
X16211042Y-9309862D02*
X16251042Y-9309862D01*
X16231042Y-13089861D02*
X16231042Y-13129861D01*
X16211042Y-13109861D02*
X16251042Y-13109861D01*
X16940000Y-9320000D02*
X16940000Y-9360000D01*
X16920000Y-9340000D02*
X16960000Y-9340000D01*
X16940000Y-13120000D02*
X16940000Y-13160000D01*
X16920000Y-13140000D02*
X16960000Y-13140000D01*
X16960000Y-8500000D02*
X16960000Y-8540000D01*
X16940000Y-8520000D02*
X16980000Y-8520000D01*
X16960000Y-8620000D02*
X16960000Y-8660000D01*
X16940000Y-8640000D02*
X16980000Y-8640000D01*
X16960000Y-12300000D02*
X16960000Y-12340000D01*
X16940000Y-12320000D02*
X16980000Y-12320000D01*
X16960000Y-12420000D02*
X16960000Y-12460000D01*
X16940000Y-12440000D02*
X16980000Y-12440000D01*
X17000000Y-7580000D02*
X17000000Y-7620000D01*
X16980000Y-7600000D02*
X17020000Y-7600000D01*
X17000000Y-8180000D02*
X17000000Y-8220000D01*
X16980000Y-8200000D02*
X17020000Y-8200000D01*
X17000000Y-8880000D02*
X17000000Y-8920000D01*
X16980000Y-8900000D02*
X17020000Y-8900000D01*
X17000000Y-9630000D02*
X17000000Y-9670000D01*
X16980000Y-9650000D02*
X17020000Y-9650000D01*
X17000000Y-9780000D02*
X17000000Y-9820000D01*
X16980000Y-9800000D02*
X17020000Y-9800000D01*
X17000000Y-9980000D02*
X17000000Y-10020000D01*
X16980000Y-10000000D02*
X17020000Y-10000000D01*
X17000000Y-10380000D02*
X17000000Y-10420000D01*
X16980000Y-10400000D02*
X17020000Y-10400000D01*
X17000000Y-10880000D02*
X17000000Y-10920000D01*
X16980000Y-10900000D02*
X17020000Y-10900000D01*
X17000000Y-11380000D02*
X17000000Y-11420000D01*
X16980000Y-11400000D02*
X17020000Y-11400000D01*
X17000000Y-11980000D02*
X17000000Y-12020000D01*
X16980000Y-12000000D02*
X17020000Y-12000000D01*
X17000000Y-12680000D02*
X17000000Y-12720000D01*
X16980000Y-12700000D02*
X17020000Y-12700000D01*
X17000000Y-13430000D02*
X17000000Y-13470000D01*
X16980000Y-13450000D02*
X17020000Y-13450000D01*
X17000000Y-13580000D02*
X17000000Y-13620000D01*
X16980000Y-13600000D02*
X17020000Y-13600000D01*
X17000000Y-13780000D02*
X17000000Y-13820000D01*
X16980000Y-13800000D02*
X17020000Y-13800000D01*
X17000000Y-14180000D02*
X17000000Y-14220000D01*
X16980000Y-14200000D02*
X17020000Y-14200000D01*
X17000000Y-14680000D02*
X17000000Y-14720000D01*
X16980000Y-14700000D02*
X17020000Y-14700000D01*
X17050000Y-7680000D02*
X17050000Y-7720000D01*
X17030000Y-7700000D02*
X17070000Y-7700000D01*
X17050000Y-8030000D02*
X17050000Y-8070000D01*
X17030000Y-8050000D02*
X17070000Y-8050000D01*
X17050000Y-8330000D02*
X17050000Y-8370000D01*
X17030000Y-8350000D02*
X17070000Y-8350000D01*
X17050000Y-11480000D02*
X17050000Y-11520000D01*
X17030000Y-11500000D02*
X17070000Y-11500000D01*
X17050000Y-11830000D02*
X17050000Y-11870000D01*
X17030000Y-11850000D02*
X17070000Y-11850000D01*
X17050000Y-12130000D02*
X17050000Y-12170000D01*
X17030000Y-12150000D02*
X17070000Y-12150000D01*
X17060000Y-8420000D02*
X17060000Y-8460000D01*
X17040000Y-8440000D02*
X17080000Y-8440000D01*
X17060000Y-12220000D02*
X17060000Y-12260000D01*
X17040000Y-12240000D02*
X17080000Y-12240000D01*
X17080000Y-7880000D02*
X17080000Y-7920000D01*
X17060000Y-7900000D02*
X17100000Y-7900000D01*
X17080000Y-11680000D02*
X17080000Y-11720000D01*
X17060000Y-11700000D02*
X17100000Y-11700000D01*
X17097820Y-9889280D02*
X17097820Y-9929280D01*
X17077820Y-9909280D02*
X17117820Y-9909280D01*
X17097820Y-13689280D02*
X17097820Y-13729280D01*
X17077820Y-13709280D02*
X17117820Y-13709280D01*
X17100000Y-8640000D02*
X17100000Y-8680000D01*
X17080000Y-8660000D02*
X17120000Y-8660000D01*
X17100000Y-10530000D02*
X17100000Y-10570000D01*
X17080000Y-10550000D02*
X17120000Y-10550000D01*
X17100000Y-10730000D02*
X17100000Y-10770000D01*
X17080000Y-10750000D02*
X17120000Y-10750000D01*
X17100000Y-12440000D02*
X17100000Y-12480000D01*
X17080000Y-12460000D02*
X17120000Y-12460000D01*
X17100000Y-14330000D02*
X17100000Y-14370000D01*
X17080000Y-14350000D02*
X17120000Y-14350000D01*
X17100000Y-14530000D02*
X17100000Y-14570000D01*
X17080000Y-14550000D02*
X17120000Y-14550000D01*
X17141000Y-8060480D02*
X17141000Y-8100480D01*
X17121000Y-8080480D02*
X17161000Y-8080480D01*
X17141000Y-11860480D02*
X17141000Y-11900480D01*
X17121000Y-11880480D02*
X17161000Y-11880480D01*
X17148620Y-9935000D02*
X17148620Y-9975000D01*
X17128620Y-9955000D02*
X17168620Y-9955000D01*
X17148620Y-13735000D02*
X17148620Y-13775000D01*
X17128620Y-13755000D02*
X17168620Y-13755000D01*
X17179100Y-7552480D02*
X17179100Y-7592480D01*
X17159100Y-7572480D02*
X17199100Y-7572480D01*
X17179100Y-7684560D02*
X17179100Y-7724560D01*
X17159100Y-7704560D02*
X17199100Y-7704560D01*
X17179100Y-11352480D02*
X17179100Y-11392480D01*
X17159100Y-11372480D02*
X17199100Y-11372480D01*
X17179100Y-11484560D02*
X17179100Y-11524560D01*
X17159100Y-11504560D02*
X17199100Y-11504560D01*
X17180000Y-10280000D02*
X17180000Y-10320000D01*
X17160000Y-10300000D02*
X17200000Y-10300000D01*
X17180000Y-14080000D02*
X17180000Y-14120000D01*
X17160000Y-14100000D02*
X17200000Y-14100000D01*
X17201960Y-9891820D02*
X17201960Y-9931820D01*
X17181960Y-9911820D02*
X17221960Y-9911820D01*
X17201960Y-13691820D02*
X17201960Y-13731820D01*
X17181960Y-13711820D02*
X17221960Y-13711820D01*
X17232149Y-10880000D02*
X17232149Y-10920000D01*
X17212149Y-10900000D02*
X17252149Y-10900000D01*
X17232149Y-14680000D02*
X17232149Y-14720000D01*
X17212149Y-14700000D02*
X17252149Y-14700000D01*
X17238025Y-7771010D02*
X17238025Y-7811010D01*
X17218025Y-7791010D02*
X17258025Y-7791010D01*
X17238025Y-11571010D02*
X17238025Y-11611010D01*
X17218025Y-11591010D02*
X17258025Y-11591010D01*
X17240000Y-8640000D02*
X17240000Y-8680000D01*
X17220000Y-8660000D02*
X17260000Y-8660000D01*
X17240000Y-12440000D02*
X17240000Y-12480000D01*
X17220000Y-12460000D02*
X17260000Y-12460000D01*
X17249648Y-8929071D02*
X17249648Y-8969071D01*
X17229648Y-8949071D02*
X17269648Y-8949071D01*
X17249648Y-12729071D02*
X17249648Y-12769071D01*
X17229648Y-12749071D02*
X17269648Y-12749071D01*
X17250000Y-9130000D02*
X17250000Y-9170000D01*
X17230000Y-9150000D02*
X17270000Y-9150000D01*
X17250000Y-9230000D02*
X17250000Y-9270000D01*
X17230000Y-9250000D02*
X17270000Y-9250000D01*
X17250000Y-9430000D02*
X17250000Y-9470000D01*
X17230000Y-9450000D02*
X17270000Y-9450000D01*
X17250000Y-9630000D02*
X17250000Y-9670000D01*
X17230000Y-9650000D02*
X17270000Y-9650000D01*
X17250000Y-12930000D02*
X17250000Y-12970000D01*
X17230000Y-12950000D02*
X17270000Y-12950000D01*
X17250000Y-13030000D02*
X17250000Y-13070000D01*
X17230000Y-13050000D02*
X17270000Y-13050000D01*
X17250000Y-13230000D02*
X17250000Y-13270000D01*
X17230000Y-13250000D02*
X17270000Y-13250000D01*
X17250000Y-13430000D02*
X17250000Y-13470000D01*
X17230000Y-13450000D02*
X17270000Y-13450000D01*
X17259210Y-7560100D02*
X17259210Y-7600100D01*
X17239210Y-7580100D02*
X17279210Y-7580100D01*
X17259210Y-11360100D02*
X17259210Y-11400100D01*
X17239210Y-11380100D02*
X17279210Y-11380100D01*
X17280000Y-8460000D02*
X17280000Y-8500000D01*
X17260000Y-8480000D02*
X17300000Y-8480000D01*
X17280000Y-8800000D02*
X17280000Y-8840000D01*
X17260000Y-8820000D02*
X17300000Y-8820000D01*
X17280000Y-12260000D02*
X17280000Y-12300000D01*
X17260000Y-12280000D02*
X17300000Y-12280000D01*
X17280000Y-12600000D02*
X17280000Y-12640000D01*
X17260000Y-12620000D02*
X17300000Y-12620000D01*
X17300000Y-10730000D02*
X17300000Y-10770000D01*
X17280000Y-10750000D02*
X17320000Y-10750000D01*
X17300000Y-14530000D02*
X17300000Y-14570000D01*
X17280000Y-14550000D02*
X17320000Y-14550000D01*
X17312325Y-10467445D02*
X17312325Y-10507445D01*
X17292325Y-10487445D02*
X17332325Y-10487445D01*
X17312325Y-14267445D02*
X17312325Y-14307445D01*
X17292325Y-14287445D02*
X17332325Y-14287445D01*
X17341660Y-8258600D02*
X17341660Y-8298600D01*
X17321660Y-8278600D02*
X17361660Y-8278600D01*
X17341660Y-12058600D02*
X17341660Y-12098600D01*
X17321660Y-12078600D02*
X17361660Y-12078600D01*
X17423159Y-7548388D02*
X17423159Y-7588388D01*
X17403159Y-7568388D02*
X17443159Y-7568388D01*
X17423159Y-11348388D02*
X17423159Y-11388388D01*
X17403159Y-11368388D02*
X17443159Y-11368388D01*
X17424110Y-7615980D02*
X17424110Y-7655980D01*
X17404110Y-7635980D02*
X17444110Y-7635980D01*
X17424110Y-11415980D02*
X17424110Y-11455980D01*
X17404110Y-11435980D02*
X17444110Y-11435980D01*
X17428020Y-7692180D02*
X17428020Y-7732180D01*
X17408020Y-7712180D02*
X17448020Y-7712180D01*
X17428020Y-11492180D02*
X17428020Y-11532180D01*
X17408020Y-11512180D02*
X17448020Y-11512180D01*
X17450000Y-8830000D02*
X17450000Y-8870000D01*
X17430000Y-8850000D02*
X17470000Y-8850000D01*
X17450000Y-8930000D02*
X17450000Y-8970000D01*
X17430000Y-8950000D02*
X17470000Y-8950000D01*
X17450000Y-10877808D02*
X17450000Y-10917808D01*
X17430000Y-10897808D02*
X17470000Y-10897808D01*
X17450000Y-12630000D02*
X17450000Y-12670000D01*
X17430000Y-12650000D02*
X17470000Y-12650000D01*
X17450000Y-12730000D02*
X17450000Y-12770000D01*
X17430000Y-12750000D02*
X17470000Y-12750000D01*
X17450000Y-14677808D02*
X17450000Y-14717808D01*
X17430000Y-14697808D02*
X17470000Y-14697808D01*
X17473740Y-8258600D02*
X17473740Y-8298600D01*
X17453740Y-8278600D02*
X17493740Y-8278600D01*
X17473740Y-12058600D02*
X17473740Y-12098600D01*
X17453740Y-12078600D02*
X17493740Y-12078600D01*
X17525000Y-9630000D02*
X17525000Y-9670000D01*
X17505000Y-9650000D02*
X17545000Y-9650000D01*
X17525000Y-10780000D02*
X17525000Y-10820000D01*
X17505000Y-10800000D02*
X17545000Y-10800000D01*
X17525000Y-13430000D02*
X17525000Y-13470000D01*
X17505000Y-13450000D02*
X17545000Y-13450000D01*
X17525000Y-14580000D02*
X17525000Y-14620000D01*
X17505000Y-14600000D02*
X17545000Y-14600000D01*
X17539780Y-8740000D02*
X17539780Y-8780000D01*
X17519780Y-8760000D02*
X17559780Y-8760000D01*
X17539780Y-12540000D02*
X17539780Y-12580000D01*
X17519780Y-12560000D02*
X17559780Y-12560000D01*
X17550000Y-10680000D02*
X17550000Y-10720000D01*
X17530000Y-10700000D02*
X17570000Y-10700000D01*
X17550000Y-14480000D02*
X17550000Y-14520000D01*
X17530000Y-14500000D02*
X17570000Y-14500000D01*
X17572167Y-8441554D02*
X17572167Y-8481554D01*
X17552167Y-8461554D02*
X17592167Y-8461554D01*
X17572167Y-12241554D02*
X17572167Y-12281554D01*
X17552167Y-12261554D02*
X17592167Y-12261554D01*
X17580420Y-8606580D02*
X17580420Y-8646580D01*
X17560420Y-8626580D02*
X17600420Y-8626580D01*
X17580420Y-12406580D02*
X17580420Y-12446580D01*
X17560420Y-12426580D02*
X17600420Y-12426580D01*
X17583997Y-9063997D02*
X17583997Y-9103997D01*
X17563997Y-9083997D02*
X17603997Y-9083997D01*
X17583997Y-12863996D02*
X17583997Y-12903996D01*
X17563997Y-12883996D02*
X17603997Y-12883996D01*
X17600000Y-7918240D02*
X17600000Y-7958240D01*
X17580000Y-7938240D02*
X17620000Y-7938240D01*
X17600000Y-11718240D02*
X17600000Y-11758240D01*
X17580000Y-11738240D02*
X17620000Y-11738240D01*
X17638840Y-7715040D02*
X17638840Y-7755040D01*
X17618840Y-7735040D02*
X17658840Y-7735040D01*
X17638840Y-11515040D02*
X17638840Y-11555040D01*
X17618840Y-11535040D02*
X17658840Y-11535040D01*
X17656620Y-7646460D02*
X17656620Y-7686460D01*
X17636620Y-7666460D02*
X17676620Y-7666460D01*
X17656620Y-11446460D02*
X17656620Y-11486460D01*
X17636620Y-11466460D02*
X17676620Y-11466460D01*
X17659160Y-7580420D02*
X17659160Y-7620420D01*
X17639160Y-7600420D02*
X17679160Y-7600420D01*
X17659160Y-11380420D02*
X17659160Y-11420420D01*
X17639160Y-11400420D02*
X17679160Y-11400420D01*
X17660000Y-8520000D02*
X17660000Y-8560000D01*
X17640000Y-8540000D02*
X17680000Y-8540000D01*
X17660000Y-12320000D02*
X17660000Y-12360000D01*
X17640000Y-12340000D02*
X17680000Y-12340000D01*
X17680000Y-10180000D02*
X17680000Y-10220000D01*
X17660000Y-10200000D02*
X17700000Y-10200000D01*
X17680000Y-13980000D02*
X17680000Y-14020000D01*
X17660000Y-14000000D02*
X17700000Y-14000000D01*
X17685000Y-8217500D02*
X17685000Y-8257500D01*
X17665000Y-8237500D02*
X17705000Y-8237500D01*
X17685000Y-12017500D02*
X17685000Y-12057500D01*
X17665000Y-12037500D02*
X17705000Y-12037500D01*
X17700000Y-8080000D02*
X17700000Y-8120000D01*
X17680000Y-8100000D02*
X17720000Y-8100000D01*
X17700000Y-11880000D02*
X17700000Y-11920000D01*
X17680000Y-11900000D02*
X17720000Y-11900000D01*
X17709960Y-7918240D02*
X17709960Y-7958240D01*
X17689960Y-7938240D02*
X17729960Y-7938240D01*
X17709960Y-11718240D02*
X17709960Y-11758240D01*
X17689960Y-11738240D02*
X17729960Y-11738240D01*
X17720000Y-9480000D02*
X17720000Y-9520000D01*
X17700000Y-9500000D02*
X17740000Y-9500000D01*
X17720000Y-13280000D02*
X17720000Y-13320000D01*
X17700000Y-13300000D02*
X17740000Y-13300000D01*
X17740000Y-9640000D02*
X17740000Y-9680000D01*
X17720000Y-9660000D02*
X17760000Y-9660000D01*
X17740000Y-13440000D02*
X17740000Y-13480000D01*
X17720000Y-13460000D02*
X17760000Y-13460000D01*
X17750000Y-10695000D02*
X17750000Y-10735000D01*
X17730000Y-10715000D02*
X17770000Y-10715000D01*
X17750000Y-14495000D02*
X17750000Y-14535000D01*
X17730000Y-14515000D02*
X17770000Y-14515000D01*
X17788700Y-8731040D02*
X17788700Y-8771040D01*
X17768700Y-8751040D02*
X17808700Y-8751040D01*
X17788700Y-12531040D02*
X17788700Y-12571040D01*
X17768700Y-12551040D02*
X17808700Y-12551040D01*
X17820000Y-7920000D02*
X17820000Y-7960000D01*
X17800000Y-7940000D02*
X17840000Y-7940000D01*
X17820000Y-11720000D02*
X17820000Y-11760000D01*
X17800000Y-11740000D02*
X17840000Y-11740000D01*
X17844580Y-8217960D02*
X17844580Y-8257960D01*
X17824580Y-8237960D02*
X17864580Y-8237960D01*
X17844580Y-12017960D02*
X17844580Y-12057960D01*
X17824580Y-12037960D02*
X17864580Y-12037960D01*
X17847500Y-7537500D02*
X17847500Y-7577500D01*
X17827500Y-7557500D02*
X17867500Y-7557500D01*
X17847500Y-11337500D02*
X17847500Y-11377500D01*
X17827500Y-11357500D02*
X17867500Y-11357500D01*
X17850000Y-9030000D02*
X17850000Y-9070000D01*
X17830000Y-9050000D02*
X17870000Y-9050000D01*
X17850000Y-12830000D02*
X17850000Y-12870000D01*
X17830000Y-12850000D02*
X17870000Y-12850000D01*
X17862500Y-10877500D02*
X17862500Y-10917500D01*
X17842500Y-10897500D02*
X17882500Y-10897500D01*
X17862500Y-14677500D02*
X17862500Y-14717500D01*
X17842500Y-14697500D02*
X17882500Y-14697500D01*
X17882680Y-8766600D02*
X17882680Y-8806600D01*
X17862680Y-8786600D02*
X17902680Y-8786600D01*
X17882680Y-12566600D02*
X17882680Y-12606600D01*
X17862680Y-12586600D02*
X17902680Y-12586600D01*
X17887760Y-10008660D02*
X17887760Y-10048660D01*
X17867760Y-10028660D02*
X17907760Y-10028660D01*
X17887760Y-13808660D02*
X17887760Y-13848660D01*
X17867760Y-13828660D02*
X17907760Y-13828660D01*
X17897920Y-10100100D02*
X17897920Y-10140100D01*
X17877920Y-10120100D02*
X17917920Y-10120100D01*
X17897920Y-13900100D02*
X17897920Y-13940100D01*
X17877920Y-13920100D02*
X17917920Y-13920100D01*
X17950424Y-9937726D02*
X17950424Y-9977726D01*
X17930424Y-9957726D02*
X17970424Y-9957726D01*
X17950424Y-13737726D02*
X17950424Y-13777726D01*
X17930424Y-13757726D02*
X17970424Y-13757726D01*
X17951354Y-10488646D02*
X17951354Y-10528646D01*
X17931354Y-10508646D02*
X17971354Y-10508646D01*
X17951354Y-14288646D02*
X17951354Y-14328646D01*
X17931354Y-14308646D02*
X17971354Y-14308646D01*
X18012220Y-9048540D02*
X18012220Y-9088540D01*
X17992220Y-9068540D02*
X18032220Y-9068540D01*
X18012220Y-12848540D02*
X18012220Y-12888540D01*
X17992220Y-12868540D02*
X18032220Y-12868540D01*
X18049026Y-7879504D02*
X18049026Y-7919504D01*
X18029026Y-7899504D02*
X18069026Y-7899504D01*
X18049026Y-11679504D02*
X18049026Y-11719504D01*
X18029026Y-11699504D02*
X18069026Y-11699504D01*
X18050000Y-7580000D02*
X18050000Y-7620000D01*
X18030000Y-7600000D02*
X18070000Y-7600000D01*
X18050000Y-7730000D02*
X18050000Y-7770000D01*
X18030000Y-7750000D02*
X18070000Y-7750000D01*
X18050000Y-8180000D02*
X18050000Y-8220000D01*
X18030000Y-8200000D02*
X18070000Y-8200000D01*
X18050000Y-9530000D02*
X18050000Y-9570000D01*
X18030000Y-9550000D02*
X18070000Y-9550000D01*
X18050000Y-11380000D02*
X18050000Y-11420000D01*
X18030000Y-11400000D02*
X18070000Y-11400000D01*
X18050000Y-11530000D02*
X18050000Y-11570000D01*
X18030000Y-11550000D02*
X18070000Y-11550000D01*
X18050000Y-11980000D02*
X18050000Y-12020000D01*
X18030000Y-12000000D02*
X18070000Y-12000000D01*
X18050000Y-13330000D02*
X18050000Y-13370000D01*
X18030000Y-13350000D02*
X18070000Y-13350000D01*
X18055400Y-9663220D02*
X18055400Y-9703220D01*
X18035400Y-9683220D02*
X18075400Y-9683220D01*
X18055400Y-13463220D02*
X18055400Y-13503220D01*
X18035400Y-13483220D02*
X18075400Y-13483220D01*
X18057940Y-9852232D02*
X18057940Y-9892232D01*
X18037940Y-9872232D02*
X18077940Y-9872232D01*
X18057940Y-9978180D02*
X18057940Y-10018180D01*
X18037940Y-9998180D02*
X18077940Y-9998180D01*
X18057940Y-13652232D02*
X18057940Y-13692232D01*
X18037940Y-13672232D02*
X18077940Y-13672232D01*
X18057940Y-13778180D02*
X18057940Y-13818180D01*
X18037940Y-13798180D02*
X18077940Y-13798180D01*
X18060480Y-9212630D02*
X18060480Y-9252630D01*
X18040480Y-9232630D02*
X18080480Y-9232630D01*
X18060480Y-13012630D02*
X18060480Y-13052630D01*
X18040480Y-13032630D02*
X18080480Y-13032630D01*
X18100000Y-8380000D02*
X18100000Y-8420000D01*
X18080000Y-8400000D02*
X18120000Y-8400000D01*
X18100000Y-12180000D02*
X18100000Y-12220000D01*
X18080000Y-12200000D02*
X18120000Y-12200000D01*
X18125000Y-8855000D02*
X18125000Y-8895000D01*
X18105000Y-8875000D02*
X18145000Y-8875000D01*
X18125000Y-12655000D02*
X18125000Y-12695000D01*
X18105000Y-12675000D02*
X18145000Y-12675000D01*
X18140000Y-8520000D02*
X18140000Y-8560000D01*
X18120000Y-8540000D02*
X18160000Y-8540000D01*
X18140000Y-12320000D02*
X18140000Y-12360000D01*
X18120000Y-12340000D02*
X18160000Y-12340000D01*
X18157500Y-10620000D02*
X18157500Y-10660000D01*
X18137500Y-10640000D02*
X18177500Y-10640000D01*
X18157500Y-14420000D02*
X18157500Y-14460000D01*
X18137500Y-14440000D02*
X18177500Y-14440000D01*
X18165390Y-9993420D02*
X18165390Y-10033420D01*
X18145390Y-10013420D02*
X18185390Y-10013420D01*
X18165390Y-13793420D02*
X18165390Y-13833420D01*
X18145390Y-13813420D02*
X18185390Y-13813420D01*
X18167890Y-9912140D02*
X18167890Y-9952140D01*
X18147890Y-9932140D02*
X18187890Y-9932140D01*
X18167890Y-13712140D02*
X18167890Y-13752140D01*
X18147890Y-13732140D02*
X18187890Y-13732140D01*
X18184940Y-10239800D02*
X18184940Y-10279800D01*
X18164940Y-10259800D02*
X18204940Y-10259800D01*
X18184940Y-14039800D02*
X18184940Y-14079800D01*
X18164940Y-14059800D02*
X18204940Y-14059800D01*
X18200000Y-7580000D02*
X18200000Y-7620000D01*
X18180000Y-7600000D02*
X18220000Y-7600000D01*
X18200000Y-8030000D02*
X18200000Y-8070000D01*
X18180000Y-8050000D02*
X18220000Y-8050000D01*
X18200000Y-8180000D02*
X18200000Y-8220000D01*
X18180000Y-8200000D02*
X18220000Y-8200000D01*
X18200000Y-11380000D02*
X18200000Y-11420000D01*
X18180000Y-11400000D02*
X18220000Y-11400000D01*
X18200000Y-11830000D02*
X18200000Y-11870000D01*
X18180000Y-11850000D02*
X18220000Y-11850000D01*
X18200000Y-11980000D02*
X18200000Y-12020000D01*
X18180000Y-12000000D02*
X18220000Y-12000000D01*
X18280000Y-8400000D02*
X18280000Y-8440000D01*
X18260000Y-8420000D02*
X18300000Y-8420000D01*
X18280000Y-12200000D02*
X18280000Y-12240000D01*
X18260000Y-12220000D02*
X18300000Y-12220000D01*
X18289080Y-10016280D02*
X18289080Y-10056280D01*
X18269080Y-10036280D02*
X18309080Y-10036280D01*
X18289080Y-13816280D02*
X18289080Y-13856280D01*
X18269080Y-13836280D02*
X18309080Y-13836280D01*
X18312995Y-9389955D02*
X18312995Y-9429955D01*
X18292995Y-9409955D02*
X18332995Y-9409955D01*
X18312995Y-13189955D02*
X18312995Y-13229955D01*
X18292995Y-13209955D02*
X18332995Y-13209955D01*
X18313399Y-9555742D02*
X18313399Y-9595742D01*
X18293399Y-9575742D02*
X18333399Y-9575742D01*
X18313399Y-13355742D02*
X18313399Y-13395742D01*
X18293399Y-13375742D02*
X18333399Y-13375742D01*
X18322100Y-8942870D02*
X18322100Y-8982870D01*
X18302100Y-8962870D02*
X18342100Y-8962870D01*
X18322100Y-12742870D02*
X18322100Y-12782870D01*
X18302100Y-12762870D02*
X18342100Y-12762870D01*
X18343605Y-9316097D02*
X18343605Y-9356097D01*
X18323605Y-9336097D02*
X18363605Y-9336097D01*
X18343605Y-13116096D02*
X18343605Y-13156096D01*
X18323605Y-13136096D02*
X18363605Y-13136096D01*
X18373422Y-8604040D02*
X18373422Y-8644040D01*
X18353422Y-8624040D02*
X18393422Y-8624040D01*
X18373422Y-12404040D02*
X18373422Y-12444040D01*
X18353422Y-12424040D02*
X18393422Y-12424040D01*
X18376393Y-8473731D02*
X18376393Y-8513731D01*
X18356393Y-8493731D02*
X18396393Y-8493731D01*
X18376393Y-12273731D02*
X18376393Y-12313731D01*
X18356393Y-12293731D02*
X18396393Y-12293731D01*
X18377980Y-9391440D02*
X18377980Y-9431440D01*
X18357980Y-9411440D02*
X18397980Y-9411440D01*
X18377980Y-13191440D02*
X18377980Y-13231440D01*
X18357980Y-13211440D02*
X18397980Y-13211440D01*
X18383060Y-9548920D02*
X18383060Y-9588920D01*
X18363060Y-9568920D02*
X18403060Y-9568920D01*
X18383060Y-13348920D02*
X18383060Y-13388920D01*
X18363060Y-13368920D02*
X18403060Y-13368920D01*
X18392186Y-8681757D02*
X18392186Y-8721757D01*
X18372186Y-8701757D02*
X18412186Y-8701757D01*
X18392186Y-12481757D02*
X18392186Y-12521757D01*
X18372186Y-12501757D02*
X18412186Y-12501757D01*
X18420000Y-10060000D02*
X18420000Y-10100000D01*
X18400000Y-10080000D02*
X18440000Y-10080000D01*
X18420000Y-13860000D02*
X18420000Y-13900000D01*
X18400000Y-13880000D02*
X18440000Y-13880000D01*
X18430000Y-9900000D02*
X18430000Y-9940000D01*
X18410000Y-9920000D02*
X18450000Y-9920000D01*
X18430000Y-13700000D02*
X18430000Y-13740000D01*
X18410000Y-13720000D02*
X18450000Y-13720000D01*
X18433860Y-8995200D02*
X18433860Y-9035200D01*
X18413860Y-9015200D02*
X18453860Y-9015200D01*
X18433860Y-12795200D02*
X18433860Y-12835200D01*
X18413860Y-12815200D02*
X18453860Y-12815200D01*
X18450000Y-7820000D02*
X18450000Y-7860000D01*
X18430000Y-7840000D02*
X18470000Y-7840000D01*
X18450000Y-11620000D02*
X18450000Y-11660000D01*
X18430000Y-11640000D02*
X18470000Y-11640000D01*
X18464647Y-8530073D02*
X18464647Y-8570073D01*
X18444647Y-8550073D02*
X18484647Y-8550073D01*
X18464647Y-12330073D02*
X18464647Y-12370073D01*
X18444647Y-12350073D02*
X18484647Y-12350073D01*
X18470000Y-8130000D02*
X18470000Y-8170000D01*
X18450000Y-8150000D02*
X18490000Y-8150000D01*
X18470000Y-11930000D02*
X18470000Y-11970000D01*
X18450000Y-11950000D02*
X18490000Y-11950000D01*
X18480000Y-7970000D02*
X18480000Y-8010000D01*
X18460000Y-7990000D02*
X18500000Y-7990000D01*
X18480000Y-11770000D02*
X18480000Y-11810000D01*
X18460000Y-11790000D02*
X18500000Y-11790000D01*
X18500613Y-7705050D02*
X18500613Y-7745050D01*
X18480613Y-7725050D02*
X18520613Y-7725050D01*
X18500613Y-11505050D02*
X18500613Y-11545050D01*
X18480613Y-11525050D02*
X18520613Y-11525050D01*
X18540000Y-8320000D02*
X18540000Y-8360000D01*
X18520000Y-8340000D02*
X18560000Y-8340000D01*
X18540000Y-12120000D02*
X18540000Y-12160000D01*
X18520000Y-12140000D02*
X18560000Y-12140000D01*
X18581210Y-9042778D02*
X18581210Y-9082778D01*
X18561210Y-9062778D02*
X18601210Y-9062778D01*
X18581210Y-12842778D02*
X18581210Y-12882778D01*
X18561210Y-12862778D02*
X18601210Y-12862778D01*
X18610000Y-7832450D02*
X18610000Y-7872450D01*
X18590000Y-7852450D02*
X18630000Y-7852450D01*
X18610000Y-11632450D02*
X18610000Y-11672450D01*
X18590000Y-11652450D02*
X18630000Y-11652450D01*
X18632470Y-10409980D02*
X18632470Y-10449980D01*
X18612470Y-10429980D02*
X18652470Y-10429980D01*
X18632470Y-14209980D02*
X18632470Y-14249980D01*
X18612470Y-14229980D02*
X18652470Y-14229980D01*
X18657500Y-10692500D02*
X18657500Y-10732500D01*
X18637500Y-10712500D02*
X18677500Y-10712500D01*
X18657500Y-14492500D02*
X18657500Y-14532500D01*
X18637500Y-14512500D02*
X18677500Y-14512500D01*
X18670000Y-8020000D02*
X18670000Y-8060000D01*
X18650000Y-8040000D02*
X18690000Y-8040000D01*
X18670000Y-11820000D02*
X18670000Y-11860000D01*
X18650000Y-11840000D02*
X18690000Y-11840000D01*
X18675000Y-8130000D02*
X18675000Y-8170000D01*
X18655000Y-8150000D02*
X18695000Y-8150000D01*
X18675000Y-11930000D02*
X18675000Y-11970000D01*
X18655000Y-11950000D02*
X18695000Y-11950000D01*
X18677500Y-10577500D02*
X18677500Y-10617500D01*
X18657500Y-10597500D02*
X18697500Y-10597500D01*
X18677500Y-14377500D02*
X18677500Y-14417500D01*
X18657500Y-14397500D02*
X18697500Y-14397500D01*
X18680000Y-9920000D02*
X18680000Y-9960000D01*
X18660000Y-9940000D02*
X18700000Y-9940000D01*
X18680000Y-13720000D02*
X18680000Y-13760000D01*
X18660000Y-13740000D02*
X18700000Y-13740000D01*
X18681260Y-8960928D02*
X18681260Y-9000928D01*
X18661260Y-8980928D02*
X18701260Y-8980928D01*
X18681260Y-12760928D02*
X18681260Y-12800928D01*
X18661260Y-12780928D02*
X18701260Y-12780928D01*
X18700000Y-10140000D02*
X18700000Y-10180000D01*
X18680000Y-10160000D02*
X18720000Y-10160000D01*
X18700000Y-10880000D02*
X18700000Y-10920000D01*
X18680000Y-10900000D02*
X18720000Y-10900000D01*
X18700000Y-13940000D02*
X18700000Y-13980000D01*
X18680000Y-13960000D02*
X18720000Y-13960000D01*
X18700000Y-14680000D02*
X18700000Y-14720000D01*
X18680000Y-14700000D02*
X18720000Y-14700000D01*
X18700560Y-10006120D02*
X18700560Y-10046120D01*
X18680560Y-10026120D02*
X18720560Y-10026120D01*
X18700560Y-13806120D02*
X18700560Y-13846120D01*
X18680560Y-13826120D02*
X18720560Y-13826120D01*
X18717817Y-8810102D02*
X18717817Y-8850102D01*
X18697817Y-8830102D02*
X18737817Y-8830102D01*
X18717817Y-12610102D02*
X18717817Y-12650102D01*
X18697817Y-12630102D02*
X18737817Y-12630102D01*
X18721447Y-9334368D02*
X18721447Y-9374368D01*
X18701447Y-9354368D02*
X18741447Y-9354368D01*
X18721447Y-13134368D02*
X18721447Y-13174368D01*
X18701447Y-13154368D02*
X18741447Y-13154368D01*
X18733580Y-8715800D02*
X18733580Y-8755800D01*
X18713580Y-8735800D02*
X18753580Y-8735800D01*
X18733580Y-12515800D02*
X18733580Y-12555800D01*
X18713580Y-12535800D02*
X18753580Y-12535800D01*
X18758531Y-7609621D02*
X18758531Y-7649621D01*
X18738531Y-7629621D02*
X18778531Y-7629621D01*
X18758531Y-11409621D02*
X18758531Y-11449621D01*
X18738531Y-11429621D02*
X18778531Y-11429621D01*
X18775000Y-8105000D02*
X18775000Y-8145000D01*
X18755000Y-8125000D02*
X18795000Y-8125000D01*
X18775000Y-11905000D02*
X18775000Y-11945000D01*
X18755000Y-11925000D02*
X18795000Y-11925000D01*
X18776251Y-8872270D02*
X18776251Y-8912270D01*
X18756251Y-8892270D02*
X18796251Y-8892270D01*
X18776251Y-12672270D02*
X18776251Y-12712270D01*
X18756251Y-12692270D02*
X18796251Y-12692270D01*
X18780000Y-8540000D02*
X18780000Y-8580000D01*
X18760000Y-8560000D02*
X18800000Y-8560000D01*
X18780000Y-12340000D02*
X18780000Y-12380000D01*
X18760000Y-12360000D02*
X18800000Y-12360000D01*
X18785280Y-9707086D02*
X18785280Y-9747086D01*
X18765280Y-9727086D02*
X18805280Y-9727086D01*
X18785280Y-13507086D02*
X18785280Y-13547086D01*
X18765280Y-13527086D02*
X18805280Y-13527086D01*
X18819505Y-9084762D02*
X18819505Y-9124762D01*
X18799505Y-9104762D02*
X18839505Y-9104762D01*
X18819505Y-12884762D02*
X18819505Y-12924762D01*
X18799505Y-12904762D02*
X18839505Y-12904762D01*
X18844513Y-9512533D02*
X18844513Y-9552533D01*
X18824513Y-9532533D02*
X18864513Y-9532533D01*
X18844513Y-13312533D02*
X18844513Y-13352533D01*
X18824513Y-13332533D02*
X18864513Y-13332533D01*
X18849207Y-10879450D02*
X18849207Y-10919450D01*
X18829207Y-10899450D02*
X18869207Y-10899450D01*
X18849207Y-14679449D02*
X18849207Y-14719449D01*
X18829207Y-14699449D02*
X18869207Y-14699449D01*
X18857184Y-7782764D02*
X18857184Y-7822764D01*
X18837184Y-7802764D02*
X18877184Y-7802764D01*
X18857184Y-11582764D02*
X18857184Y-11622764D01*
X18837184Y-11602764D02*
X18877184Y-11602764D01*
X18870740Y-8527840D02*
X18870740Y-8567840D01*
X18850740Y-8547840D02*
X18890740Y-8547840D01*
X18870740Y-12327840D02*
X18870740Y-12367840D01*
X18850740Y-12347840D02*
X18890740Y-12347840D01*
X18875000Y-8055000D02*
X18875000Y-8095000D01*
X18855000Y-8075000D02*
X18895000Y-8075000D01*
X18875000Y-11855000D02*
X18875000Y-11895000D01*
X18855000Y-11875000D02*
X18895000Y-11875000D01*
X18877500Y-8664542D02*
X18877500Y-8704542D01*
X18857500Y-8684542D02*
X18897500Y-8684542D01*
X18877500Y-12464542D02*
X18877500Y-12504542D01*
X18857500Y-12484542D02*
X18897500Y-12484542D01*
X18880000Y-10540000D02*
X18880000Y-10580000D01*
X18860000Y-10560000D02*
X18900000Y-10560000D01*
X18880000Y-14340000D02*
X18880000Y-14380000D01*
X18860000Y-14360000D02*
X18900000Y-14360000D01*
X18885463Y-8755415D02*
X18885463Y-8795415D01*
X18865463Y-8775415D02*
X18905463Y-8775415D01*
X18885463Y-12555415D02*
X18885463Y-12595415D01*
X18865463Y-12575415D02*
X18905463Y-12575415D01*
X18900000Y-8340000D02*
X18900000Y-8380000D01*
X18880000Y-8360000D02*
X18920000Y-8360000D01*
X18900000Y-9880000D02*
X18900000Y-9920000D01*
X18880000Y-9900000D02*
X18920000Y-9900000D01*
X18900000Y-12140000D02*
X18900000Y-12180000D01*
X18880000Y-12160000D02*
X18920000Y-12160000D01*
X18900000Y-13680000D02*
X18900000Y-13720000D01*
X18880000Y-13700000D02*
X18920000Y-13700000D01*
X18901310Y-9087740D02*
X18901310Y-9127740D01*
X18881310Y-9107740D02*
X18921310Y-9107740D01*
X18901310Y-12887740D02*
X18901310Y-12927740D01*
X18881310Y-12907740D02*
X18921310Y-12907740D01*
X18925000Y-9405000D02*
X18925000Y-9445000D01*
X18905000Y-9425000D02*
X18945000Y-9425000D01*
X18925000Y-13205000D02*
X18925000Y-13245000D01*
X18905000Y-13225000D02*
X18945000Y-13225000D01*
X18944760Y-8143057D02*
X18944760Y-8183057D01*
X18924760Y-8163057D02*
X18964760Y-8163057D01*
X18944760Y-11943057D02*
X18944760Y-11983057D01*
X18924760Y-11963057D02*
X18964760Y-11963057D01*
X18950000Y-7830000D02*
X18950000Y-7870000D01*
X18930000Y-7850000D02*
X18970000Y-7850000D01*
X18950000Y-11630000D02*
X18950000Y-11670000D01*
X18930000Y-11650000D02*
X18970000Y-11650000D01*
X18970000Y-10630000D02*
X18970000Y-10670000D01*
X18950000Y-10650000D02*
X18990000Y-10650000D01*
X18970000Y-14430000D02*
X18970000Y-14470000D01*
X18950000Y-14450000D02*
X18990000Y-14450000D01*
X18984328Y-8594592D02*
X18984328Y-8634592D01*
X18964328Y-8614592D02*
X19004328Y-8614592D01*
X18984328Y-12394592D02*
X18984328Y-12434592D01*
X18964328Y-12414592D02*
X19004328Y-12414592D01*
X18990120Y-10148360D02*
X18990120Y-10188360D01*
X18970120Y-10168360D02*
X19010120Y-10168360D01*
X18990120Y-13948360D02*
X18990120Y-13988360D01*
X18970120Y-13968360D02*
X19010120Y-13968360D01*
X19040000Y-9500000D02*
X19040000Y-9540000D01*
X19020000Y-9520000D02*
X19060000Y-9520000D01*
X19040000Y-13300000D02*
X19040000Y-13340000D01*
X19020000Y-13320000D02*
X19060000Y-13320000D01*
X19047110Y-8340000D02*
X19047110Y-8380000D01*
X19027110Y-8360000D02*
X19067110Y-8360000D01*
X19047110Y-12140000D02*
X19047110Y-12180000D01*
X19027110Y-12160000D02*
X19067110Y-12160000D01*
X19050000Y-9880000D02*
X19050000Y-9920000D01*
X19030000Y-9900000D02*
X19070000Y-9900000D01*
X19050000Y-13680000D02*
X19050000Y-13720000D01*
X19030000Y-13700000D02*
X19070000Y-13700000D01*
X19100000Y-7780000D02*
X19100000Y-7820000D01*
X19080000Y-7800000D02*
X19120000Y-7800000D01*
X19100000Y-11580000D02*
X19100000Y-11620000D01*
X19080000Y-11600000D02*
X19120000Y-11600000D01*
X19101104Y-10400000D02*
X19101104Y-10440000D01*
X19081104Y-10420000D02*
X19121104Y-10420000D01*
X19101104Y-14200000D02*
X19101104Y-14240000D01*
X19081104Y-14220000D02*
X19121104Y-14220000D01*
X19180000Y-8160000D02*
X19180000Y-8200000D01*
X19160000Y-8180000D02*
X19200000Y-8180000D01*
X19180000Y-11960000D02*
X19180000Y-12000000D01*
X19160000Y-11980000D02*
X19200000Y-11980000D01*
X19200000Y-7700000D02*
X19200000Y-7740000D01*
X19180000Y-7720000D02*
X19220000Y-7720000D01*
X19200000Y-11500000D02*
X19200000Y-11540000D01*
X19180000Y-11520000D02*
X19220000Y-11520000D01*
X19223800Y-9267640D02*
X19223800Y-9307640D01*
X19203800Y-9287640D02*
X19243800Y-9287640D01*
X19223800Y-10857020D02*
X19223800Y-10897020D01*
X19203800Y-10877020D02*
X19243800Y-10877020D01*
X19223800Y-13067640D02*
X19223800Y-13107640D01*
X19203800Y-13087640D02*
X19243800Y-13087640D01*
X19223800Y-14657020D02*
X19223800Y-14697020D01*
X19203800Y-14677020D02*
X19243800Y-14677020D01*
X19230000Y-10410000D02*
X19230000Y-10450000D01*
X19210000Y-10430000D02*
X19250000Y-10430000D01*
X19230000Y-14210000D02*
X19230000Y-14250000D01*
X19210000Y-14230000D02*
X19250000Y-14230000D01*
X19250000Y-7830000D02*
X19250000Y-7870000D01*
X19230000Y-7850000D02*
X19270000Y-7850000D01*
X19250000Y-10630000D02*
X19250000Y-10670000D01*
X19230000Y-10650000D02*
X19270000Y-10650000D01*
X19250000Y-11630000D02*
X19250000Y-11670000D01*
X19230000Y-11650000D02*
X19270000Y-11650000D01*
X19250000Y-14430000D02*
X19250000Y-14470000D01*
X19230000Y-14450000D02*
X19270000Y-14450000D01*
X19254608Y-8607128D02*
X19254608Y-8647128D01*
X19234608Y-8627128D02*
X19274608Y-8627128D01*
X19254608Y-12407128D02*
X19254608Y-12447128D01*
X19234608Y-12427128D02*
X19274608Y-12427128D01*
X19259360Y-7995290D02*
X19259360Y-8035290D01*
X19239360Y-8015290D02*
X19279360Y-8015290D01*
X19259360Y-11795290D02*
X19259360Y-11835290D01*
X19239360Y-11815290D02*
X19279360Y-11815290D01*
X19277140Y-8840260D02*
X19277140Y-8880260D01*
X19257140Y-8860260D02*
X19297140Y-8860260D01*
X19277140Y-12640260D02*
X19277140Y-12680260D01*
X19257140Y-12660260D02*
X19297140Y-12660260D01*
X19300000Y-7730000D02*
X19300000Y-7770000D01*
X19280000Y-7750000D02*
X19320000Y-7750000D01*
X19300000Y-11530000D02*
X19300000Y-11570000D01*
X19280000Y-11550000D02*
X19320000Y-11550000D01*
X19320000Y-7540000D02*
X19320000Y-7580000D01*
X19300000Y-7560000D02*
X19340000Y-7560000D01*
X19320000Y-11340000D02*
X19320000Y-11380000D01*
X19300000Y-11360000D02*
X19340000Y-11360000D01*
X19325200Y-8379680D02*
X19325200Y-8419680D01*
X19305200Y-8399680D02*
X19345200Y-8399680D01*
X19325200Y-12179680D02*
X19325200Y-12219680D01*
X19305200Y-12199680D02*
X19345200Y-12199680D01*
X19328810Y-9518440D02*
X19328810Y-9558440D01*
X19308810Y-9538440D02*
X19348810Y-9538440D01*
X19328810Y-13318440D02*
X19328810Y-13358440D01*
X19308810Y-13338440D02*
X19348810Y-13338440D01*
X19370000Y-10410000D02*
X19370000Y-10450000D01*
X19350000Y-10430000D02*
X19390000Y-10430000D01*
X19370000Y-14210000D02*
X19370000Y-14250000D01*
X19350000Y-14230000D02*
X19390000Y-14230000D01*
X19400000Y-7630000D02*
X19400000Y-7670000D01*
X19380000Y-7650000D02*
X19420000Y-7650000D01*
X19400000Y-7780000D02*
X19400000Y-7820000D01*
X19380000Y-7800000D02*
X19420000Y-7800000D01*
X19400000Y-11430000D02*
X19400000Y-11470000D01*
X19380000Y-11450000D02*
X19420000Y-11450000D01*
X19400000Y-11580000D02*
X19400000Y-11620000D01*
X19380000Y-11600000D02*
X19420000Y-11600000D01*
X19409220Y-10793520D02*
X19409220Y-10833520D01*
X19389220Y-10813520D02*
X19429220Y-10813520D01*
X19409220Y-14593520D02*
X19409220Y-14633520D01*
X19389220Y-14613520D02*
X19429220Y-14613520D01*
X19424460Y-8412240D02*
X19424460Y-8452240D01*
X19404460Y-8432240D02*
X19444460Y-8432240D01*
X19424460Y-12212240D02*
X19424460Y-12252240D01*
X19404460Y-12232240D02*
X19444460Y-12232240D01*
X19450000Y-7930000D02*
X19450000Y-7970000D01*
X19430000Y-7950000D02*
X19470000Y-7950000D01*
X19450000Y-11730000D02*
X19450000Y-11770000D01*
X19430000Y-11750000D02*
X19470000Y-11750000D01*
X19488028Y-9904452D02*
X19488028Y-9944452D01*
X19468028Y-9924452D02*
X19508028Y-9924452D01*
X19488028Y-13704452D02*
X19488028Y-13744452D01*
X19468028Y-13724452D02*
X19508028Y-13724452D01*
X19490000Y-10600000D02*
X19490000Y-10640000D01*
X19470000Y-10620000D02*
X19510000Y-10620000D01*
X19490000Y-14400000D02*
X19490000Y-14440000D01*
X19470000Y-14420000D02*
X19510000Y-14420000D01*
X19530000Y-10870000D02*
X19530000Y-10910000D01*
X19510000Y-10890000D02*
X19550000Y-10890000D01*
X19530000Y-14670000D02*
X19530000Y-14710000D01*
X19510000Y-14690000D02*
X19550000Y-14690000D01*
X19540000Y-10470000D02*
X19540000Y-10510000D01*
X19520000Y-10490000D02*
X19560000Y-10490000D01*
X19540000Y-14270000D02*
X19540000Y-14310000D01*
X19520000Y-14290000D02*
X19560000Y-14290000D01*
X19546902Y-8504980D02*
X19546902Y-8544980D01*
X19526902Y-8524980D02*
X19566902Y-8524980D01*
X19546902Y-12304980D02*
X19546902Y-12344980D01*
X19526902Y-12324980D02*
X19566902Y-12324980D01*
X19549339Y-7879296D02*
X19549339Y-7919296D01*
X19529339Y-7899296D02*
X19569339Y-7899296D01*
X19549339Y-11679296D02*
X19549339Y-11719296D01*
X19529339Y-11699296D02*
X19569339Y-11699296D01*
X19550000Y-7580000D02*
X19550000Y-7620000D01*
X19530000Y-7600000D02*
X19570000Y-7600000D01*
X19550000Y-7730000D02*
X19550000Y-7770000D01*
X19530000Y-7750000D02*
X19570000Y-7750000D01*
X19550000Y-8030000D02*
X19550000Y-8070000D01*
X19530000Y-8050000D02*
X19570000Y-8050000D01*
X19550000Y-9980000D02*
X19550000Y-10020000D01*
X19530000Y-10000000D02*
X19570000Y-10000000D01*
X19550000Y-10130000D02*
X19550000Y-10170000D01*
X19530000Y-10150000D02*
X19570000Y-10150000D01*
X19550000Y-11380000D02*
X19550000Y-11420000D01*
X19530000Y-11400000D02*
X19570000Y-11400000D01*
X19550000Y-11530000D02*
X19550000Y-11570000D01*
X19530000Y-11550000D02*
X19570000Y-11550000D01*
X19550000Y-11830000D02*
X19550000Y-11870000D01*
X19530000Y-11850000D02*
X19570000Y-11850000D01*
X19550000Y-13780000D02*
X19550000Y-13820000D01*
X19530000Y-13800000D02*
X19570000Y-13800000D01*
X19550000Y-13930000D02*
X19550000Y-13970000D01*
X19530000Y-13950000D02*
X19570000Y-13950000D01*
X19587020Y-8804700D02*
X19587020Y-8844700D01*
X19567020Y-8824700D02*
X19607020Y-8824700D01*
X19587020Y-12604700D02*
X19587020Y-12644700D01*
X19567020Y-12624700D02*
X19607020Y-12624700D01*
X19700000Y-9430000D02*
X19700000Y-9470000D01*
X19680000Y-9450000D02*
X19720000Y-9450000D01*
X19700000Y-10920000D02*
X19700000Y-10960000D01*
X19680000Y-10940000D02*
X19720000Y-10940000D01*
X19700000Y-13230000D02*
X19700000Y-13270000D01*
X19680000Y-13250000D02*
X19720000Y-13250000D01*
X19700000Y-14720000D02*
X19700000Y-14760000D01*
X19680000Y-14740000D02*
X19720000Y-14740000D01*
X19716755Y-8547757D02*
X19716755Y-8587757D01*
X19696755Y-8567757D02*
X19736755Y-8567757D01*
X19716755Y-12347757D02*
X19716755Y-12387757D01*
X19696755Y-12367757D02*
X19736755Y-12367757D01*
X19757500Y-7962500D02*
X19757500Y-8002500D01*
X19737500Y-7982500D02*
X19777500Y-7982500D01*
X19757500Y-11762500D02*
X19757500Y-11802500D01*
X19737500Y-11782500D02*
X19777500Y-11782500D01*
X19760000Y-10760000D02*
X19760000Y-10800000D01*
X19740000Y-10780000D02*
X19780000Y-10780000D01*
X19760000Y-14560000D02*
X19760000Y-14600000D01*
X19740000Y-14580000D02*
X19780000Y-14580000D01*
X19780000Y-8060000D02*
X19780000Y-8100000D01*
X19760000Y-8080000D02*
X19800000Y-8080000D01*
X19780000Y-8460000D02*
X19780000Y-8500000D01*
X19760000Y-8480000D02*
X19800000Y-8480000D01*
X19780000Y-11860000D02*
X19780000Y-11900000D01*
X19760000Y-11880000D02*
X19800000Y-11880000D01*
X19780000Y-12260000D02*
X19780000Y-12300000D01*
X19760000Y-12280000D02*
X19800000Y-12280000D01*
X19780060Y-9383820D02*
X19780060Y-9423820D01*
X19760060Y-9403820D02*
X19800060Y-9403820D01*
X19780060Y-13183820D02*
X19780060Y-13223820D01*
X19760060Y-13203820D02*
X19800060Y-13203820D01*
X19800000Y-7530000D02*
X19800000Y-7570000D01*
X19780000Y-7550000D02*
X19820000Y-7550000D01*
X19800000Y-7730000D02*
X19800000Y-7770000D01*
X19780000Y-7750000D02*
X19820000Y-7750000D01*
X19800000Y-8240000D02*
X19800000Y-8280000D01*
X19780000Y-8260000D02*
X19820000Y-8260000D01*
X19800000Y-8340000D02*
X19800000Y-8380000D01*
X19780000Y-8360000D02*
X19820000Y-8360000D01*
X19800000Y-10560000D02*
X19800000Y-10600000D01*
X19780000Y-10580000D02*
X19820000Y-10580000D01*
X19800000Y-11330000D02*
X19800000Y-11370000D01*
X19780000Y-11350000D02*
X19820000Y-11350000D01*
X19800000Y-11530000D02*
X19800000Y-11570000D01*
X19780000Y-11550000D02*
X19820000Y-11550000D01*
X19800000Y-12040000D02*
X19800000Y-12080000D01*
X19780000Y-12060000D02*
X19820000Y-12060000D01*
X19800000Y-12140000D02*
X19800000Y-12180000D01*
X19780000Y-12160000D02*
X19820000Y-12160000D01*
X19800000Y-14360000D02*
X19800000Y-14400000D01*
X19780000Y-14380000D02*
X19820000Y-14380000D01*
X19833400Y-10304540D02*
X19833400Y-10344540D01*
X19813400Y-10324540D02*
X19853400Y-10324540D01*
X19833400Y-14104540D02*
X19833400Y-14144540D01*
X19813400Y-14124540D02*
X19853400Y-14124540D01*
X19873520Y-8938800D02*
X19873520Y-8978800D01*
X19853520Y-8958800D02*
X19893520Y-8958800D01*
X19873520Y-12738800D02*
X19873520Y-12778800D01*
X19853520Y-12758800D02*
X19893520Y-12758800D01*
X19880000Y-9860000D02*
X19880000Y-9900000D01*
X19860000Y-9880000D02*
X19900000Y-9880000D01*
X19880000Y-10060000D02*
X19880000Y-10100000D01*
X19860000Y-10080000D02*
X19900000Y-10080000D01*
X19880000Y-13660000D02*
X19880000Y-13700000D01*
X19860000Y-13680000D02*
X19900000Y-13680000D01*
X19880000Y-13860000D02*
X19880000Y-13900000D01*
X19860000Y-13880000D02*
X19900000Y-13880000D01*
X19891820Y-7712500D02*
X19891820Y-7752500D01*
X19871820Y-7732500D02*
X19911820Y-7732500D01*
X19891820Y-11512500D02*
X19891820Y-11552500D01*
X19871820Y-11532500D02*
X19911820Y-11532500D01*
X19912140Y-7824260D02*
X19912140Y-7864260D01*
X19892140Y-7844260D02*
X19932140Y-7844260D01*
X19912140Y-11624260D02*
X19912140Y-11664260D01*
X19892140Y-11644260D02*
X19932140Y-11644260D01*
X19917220Y-8240820D02*
X19917220Y-8280820D01*
X19897220Y-8260820D02*
X19937220Y-8260820D01*
X19917220Y-12040820D02*
X19917220Y-12080820D01*
X19897220Y-12060820D02*
X19937220Y-12060820D01*
X19950000Y-8723420D02*
X19950000Y-8763420D01*
X19930000Y-8743420D02*
X19970000Y-8743420D01*
X19950000Y-12523420D02*
X19950000Y-12563420D01*
X19930000Y-12543420D02*
X19970000Y-12543420D01*
X19954050Y-7567720D02*
X19954050Y-7607720D01*
X19934050Y-7587720D02*
X19974050Y-7587720D01*
X19954050Y-7641380D02*
X19954050Y-7681380D01*
X19934050Y-7661380D02*
X19974050Y-7661380D01*
X19954050Y-11367720D02*
X19954050Y-11407720D01*
X19934050Y-11387720D02*
X19974050Y-11387720D01*
X19954050Y-11441380D02*
X19954050Y-11481380D01*
X19934050Y-11461380D02*
X19974050Y-11461380D01*
X19980000Y-10720000D02*
X19980000Y-10760000D01*
X19960000Y-10740000D02*
X20000000Y-10740000D01*
X19980000Y-14520000D02*
X19980000Y-14560000D01*
X19960000Y-14540000D02*
X20000000Y-14540000D01*
X19999529Y-9928084D02*
X19999529Y-9968084D01*
X19979529Y-9948084D02*
X20019529Y-9948084D01*
X19999529Y-13728084D02*
X19999529Y-13768084D01*
X19979529Y-13748084D02*
X20019529Y-13748084D01*
X20000000Y-9780000D02*
X20000000Y-9820000D01*
X19980000Y-9800000D02*
X20020000Y-9800000D01*
X20000000Y-10080000D02*
X20000000Y-10120000D01*
X19980000Y-10100000D02*
X20020000Y-10100000D01*
X20000000Y-13580000D02*
X20000000Y-13620000D01*
X19980000Y-13600000D02*
X20020000Y-13600000D01*
X20000000Y-13880000D02*
X20000000Y-13920000D01*
X19980000Y-13900000D02*
X20020000Y-13900000D01*
X20080000Y-10600000D02*
X20080000Y-10640000D01*
X20060000Y-10620000D02*
X20100000Y-10620000D01*
X20080000Y-10880000D02*
X20080000Y-10920000D01*
X20060000Y-10900000D02*
X20100000Y-10900000D01*
X20080000Y-14400000D02*
X20080000Y-14440000D01*
X20060000Y-14420000D02*
X20100000Y-14420000D01*
X20080000Y-14680000D02*
X20080000Y-14720000D01*
X20060000Y-14700000D02*
X20100000Y-14700000D01*
X20118950Y-7580000D02*
X20118950Y-7620000D01*
X20098950Y-7600000D02*
X20138950Y-7600000D01*
X20118950Y-7651540D02*
X20118950Y-7691540D01*
X20098950Y-7671540D02*
X20138950Y-7671540D01*
X20118950Y-11380000D02*
X20118950Y-11420000D01*
X20098950Y-11400000D02*
X20138950Y-11400000D01*
X20118950Y-11451540D02*
X20118950Y-11491540D01*
X20098950Y-11471540D02*
X20138950Y-11471540D01*
X20129020Y-8517797D02*
X20129020Y-8557797D01*
X20109020Y-8537797D02*
X20149020Y-8537797D01*
X20129020Y-12317797D02*
X20129020Y-12357797D01*
X20109020Y-12337797D02*
X20149020Y-12337797D01*
X20150000Y-7710690D02*
X20150000Y-7750690D01*
X20130000Y-7730690D02*
X20170000Y-7730690D01*
X20150000Y-11510690D02*
X20150000Y-11550690D01*
X20130000Y-11530690D02*
X20170000Y-11530690D01*
X20200000Y-9780000D02*
X20200000Y-9820000D01*
X20180000Y-9800000D02*
X20220000Y-9800000D01*
X20200000Y-9930000D02*
X20200000Y-9970000D01*
X20180000Y-9950000D02*
X20220000Y-9950000D01*
X20200000Y-10080000D02*
X20200000Y-10120000D01*
X20180000Y-10100000D02*
X20220000Y-10100000D01*
X20200000Y-10720000D02*
X20200000Y-10760000D01*
X20180000Y-10740000D02*
X20220000Y-10740000D01*
X20200000Y-13580000D02*
X20200000Y-13620000D01*
X20180000Y-13600000D02*
X20220000Y-13600000D01*
X20200000Y-13730000D02*
X20200000Y-13770000D01*
X20180000Y-13750000D02*
X20220000Y-13750000D01*
X20200000Y-13880000D02*
X20200000Y-13920000D01*
X20180000Y-13900000D02*
X20220000Y-13900000D01*
X20200000Y-14520000D02*
X20200000Y-14560000D01*
X20180000Y-14540000D02*
X20220000Y-14540000D01*
X20206780Y-8550700D02*
X20206780Y-8590700D01*
X20186780Y-8570700D02*
X20226780Y-8570700D01*
X20206780Y-12350700D02*
X20206780Y-12390700D01*
X20186780Y-12370700D02*
X20226780Y-12370700D01*
X20340000Y-7660000D02*
X20340000Y-7700000D01*
X20320000Y-7680000D02*
X20360000Y-7680000D01*
X20340000Y-11460000D02*
X20340000Y-11500000D01*
X20320000Y-11480000D02*
X20360000Y-11480000D01*
X20350000Y-8630000D02*
X20350000Y-8670000D01*
X20330000Y-8650000D02*
X20370000Y-8650000D01*
X20350000Y-12430000D02*
X20350000Y-12470000D01*
X20330000Y-12450000D02*
X20370000Y-12450000D01*
X20368680Y-9190120D02*
X20368680Y-9230120D01*
X20348680Y-9210120D02*
X20388680Y-9210120D01*
X20368680Y-12990120D02*
X20368680Y-13030120D01*
X20348680Y-13010120D02*
X20388680Y-13010120D01*
X20392200Y-7580420D02*
X20392200Y-7620420D01*
X20372200Y-7600420D02*
X20412200Y-7600420D01*
X20392200Y-11380420D02*
X20392200Y-11420420D01*
X20372200Y-11400420D02*
X20412200Y-11400420D01*
X20412736Y-7658184D02*
X20412736Y-7698184D01*
X20392736Y-7678184D02*
X20432736Y-7678184D01*
X20412736Y-11458184D02*
X20412736Y-11498184D01*
X20392736Y-11478184D02*
X20432736Y-11478184D01*
X20420140Y-10570000D02*
X20420140Y-10610000D01*
X20400140Y-10590000D02*
X20440140Y-10590000D01*
X20420140Y-14370000D02*
X20420140Y-14410000D01*
X20400140Y-14390000D02*
X20440140Y-14390000D01*
X20450000Y-8030000D02*
X20450000Y-8070000D01*
X20430000Y-8050000D02*
X20470000Y-8050000D01*
X20450000Y-11830000D02*
X20450000Y-11870000D01*
X20430000Y-11850000D02*
X20470000Y-11850000D01*
X20500000Y-7680000D02*
X20500000Y-7720000D01*
X20480000Y-7700000D02*
X20520000Y-7700000D01*
X20500000Y-7830000D02*
X20500000Y-7870000D01*
X20480000Y-7850000D02*
X20520000Y-7850000D01*
X20500000Y-10730000D02*
X20500000Y-10770000D01*
X20480000Y-10750000D02*
X20520000Y-10750000D01*
X20500000Y-11480000D02*
X20500000Y-11520000D01*
X20480000Y-11500000D02*
X20520000Y-11500000D01*
X20500000Y-11630000D02*
X20500000Y-11670000D01*
X20480000Y-11650000D02*
X20520000Y-11650000D01*
X20500000Y-14530000D02*
X20500000Y-14570000D01*
X20480000Y-14550000D02*
X20520000Y-14550000D01*
X20519200Y-8990120D02*
X20519200Y-9030120D01*
X20499200Y-9010120D02*
X20539200Y-9010120D01*
X20519200Y-12790120D02*
X20519200Y-12830120D01*
X20499200Y-12810120D02*
X20539200Y-12810120D01*
X20547500Y-10400000D02*
X20547500Y-10440000D01*
X20527500Y-10420000D02*
X20567500Y-10420000D01*
X20547500Y-14200000D02*
X20547500Y-14240000D01*
X20527500Y-14220000D02*
X20567500Y-14220000D01*
X20550000Y-8180000D02*
X20550000Y-8220000D01*
X20530000Y-8200000D02*
X20570000Y-8200000D01*
X20550000Y-10230000D02*
X20550000Y-10270000D01*
X20530000Y-10250000D02*
X20570000Y-10250000D01*
X20550000Y-10880000D02*
X20550000Y-10920000D01*
X20530000Y-10900000D02*
X20570000Y-10900000D01*
X20550000Y-11980000D02*
X20550000Y-12020000D01*
X20530000Y-12000000D02*
X20570000Y-12000000D01*
X20550000Y-14030000D02*
X20550000Y-14070000D01*
X20530000Y-14050000D02*
X20570000Y-14050000D01*
X20550000Y-14680000D02*
X20550000Y-14720000D01*
X20530000Y-14700000D02*
X20570000Y-14700000D01*
X20580050Y-9180620D02*
X20580050Y-9220620D01*
X20560050Y-9200620D02*
X20600050Y-9200620D01*
X20580050Y-12980620D02*
X20580050Y-13020620D01*
X20560050Y-13000620D02*
X20600050Y-13000620D01*
X20600000Y-7580000D02*
X20600000Y-7620000D01*
X20580000Y-7600000D02*
X20620000Y-7600000D01*
X20600000Y-11380000D02*
X20600000Y-11420000D01*
X20580000Y-11400000D02*
X20620000Y-11400000D01*
X20631042Y-9289862D02*
X20631042Y-9329862D01*
X20611042Y-9309862D02*
X20651042Y-9309862D01*
X20631042Y-13089861D02*
X20631042Y-13129861D01*
X20611042Y-13109861D02*
X20651042Y-13109861D01*
D15*
X14414213Y-10368213D02*
X14414213Y-10325787D01*
X14371787Y-10325787D01*
X14371787Y-10368213D01*
X14414213Y-10368213D01*
D11*
X14413000Y-10402000D02*
X14413000Y-10292000D01*
X14373000Y-10402000D02*
X14373000Y-10292000D01*
X14413000Y-10292000D02*
G75*
G03*
X14373000Y-10292000I-20000J0D01*
G01*
X14373000Y-10402000D02*
G75*
G03*
X14413000Y-10402000I20000J0D01*
G01*
D15*
X14414213Y-10786213D02*
X14414213Y-10743787D01*
X14371787Y-10743787D01*
X14371787Y-10786213D01*
X14414213Y-10786213D01*
D11*
X14413000Y-10805000D02*
X14413000Y-10725000D01*
X14373000Y-10805000D02*
X14373000Y-10725000D01*
X14413000Y-10725000D02*
G75*
G03*
X14373000Y-10725000I-20000J0D01*
G01*
X14373000Y-10805000D02*
G75*
G03*
X14413000Y-10805000I20000J0D01*
G01*
D15*
X14414213Y-14168213D02*
X14414213Y-14125787D01*
X14371787Y-14125787D01*
X14371787Y-14168213D01*
X14414213Y-14168213D01*
D11*
X14413000Y-14202000D02*
X14413000Y-14092000D01*
X14373000Y-14202000D02*
X14373000Y-14092000D01*
X14413000Y-14092000D02*
G75*
G03*
X14373000Y-14092000I-20000J0D01*
G01*
X14373000Y-14202000D02*
G75*
G03*
X14413000Y-14202000I20000J0D01*
G01*
D15*
X14414213Y-14586213D02*
X14414213Y-14543787D01*
X14371787Y-14543787D01*
X14371787Y-14586213D01*
X14414213Y-14586213D01*
D11*
X14413000Y-14605000D02*
X14413000Y-14525000D01*
X14373000Y-14605000D02*
X14373000Y-14525000D01*
X14413000Y-14525000D02*
G75*
G03*
X14373000Y-14525000I-20000J0D01*
G01*
X14373000Y-14605000D02*
G75*
G03*
X14413000Y-14605000I20000J0D01*
G01*
D15*
X15278213Y-10368213D02*
X15278213Y-10325787D01*
X15235787Y-10325787D01*
X15235787Y-10368213D01*
X15278213Y-10368213D01*
D11*
X15277000Y-10402000D02*
X15277000Y-10292000D01*
X15237000Y-10402000D02*
X15237000Y-10292000D01*
X15277000Y-10292000D02*
G75*
G03*
X15237000Y-10292000I-20000J0D01*
G01*
X15237000Y-10402000D02*
G75*
G03*
X15277000Y-10402000I20000J0D01*
G01*
D15*
X15278213Y-10786213D02*
X15278213Y-10743787D01*
X15235787Y-10743787D01*
X15235787Y-10786213D01*
X15278213Y-10786213D01*
D11*
X15277000Y-10805000D02*
X15277000Y-10725000D01*
X15237000Y-10805000D02*
X15237000Y-10725000D01*
X15277000Y-10725000D02*
G75*
G03*
X15237000Y-10725000I-20000J0D01*
G01*
X15237000Y-10805000D02*
G75*
G03*
X15277000Y-10805000I20000J0D01*
G01*
D15*
X15278213Y-14168213D02*
X15278213Y-14125787D01*
X15235787Y-14125787D01*
X15235787Y-14168213D01*
X15278213Y-14168213D01*
D11*
X15277000Y-14202000D02*
X15277000Y-14092000D01*
X15237000Y-14202000D02*
X15237000Y-14092000D01*
X15277000Y-14092000D02*
G75*
G03*
X15237000Y-14092000I-20000J0D01*
G01*
X15237000Y-14202000D02*
G75*
G03*
X15277000Y-14202000I20000J0D01*
G01*
D15*
X15278213Y-14586213D02*
X15278213Y-14543787D01*
X15235787Y-14543787D01*
X15235787Y-14586213D01*
X15278213Y-14586213D01*
D11*
X15277000Y-14605000D02*
X15277000Y-14525000D01*
X15237000Y-14605000D02*
X15237000Y-14525000D01*
X15277000Y-14525000D02*
G75*
G03*
X15237000Y-14525000I-20000J0D01*
G01*
X15237000Y-14605000D02*
G75*
G03*
X15277000Y-14605000I20000J0D01*
G01*
D15*
X18814213Y-10368213D02*
X18814213Y-10325787D01*
X18771787Y-10325787D01*
X18771787Y-10368213D01*
X18814213Y-10368213D01*
D11*
X18813000Y-10402000D02*
X18813000Y-10292000D01*
X18773000Y-10402000D02*
X18773000Y-10292000D01*
X18813000Y-10292000D02*
G75*
G03*
X18773000Y-10292000I-20000J0D01*
G01*
X18773000Y-10402000D02*
G75*
G03*
X18813000Y-10402000I20000J0D01*
G01*
D15*
X18814213Y-10786213D02*
X18814213Y-10743787D01*
X18771787Y-10743787D01*
X18771787Y-10786213D01*
X18814213Y-10786213D01*
D11*
X18813000Y-10805000D02*
X18813000Y-10725000D01*
X18773000Y-10805000D02*
X18773000Y-10725000D01*
X18813000Y-10725000D02*
G75*
G03*
X18773000Y-10725000I-20000J0D01*
G01*
X18773000Y-10805000D02*
G75*
G03*
X18813000Y-10805000I20000J0D01*
G01*
D15*
X18814213Y-14168213D02*
X18814213Y-14125787D01*
X18771787Y-14125787D01*
X18771787Y-14168213D01*
X18814213Y-14168213D01*
D11*
X18813000Y-14202000D02*
X18813000Y-14092000D01*
X18773000Y-14202000D02*
X18773000Y-14092000D01*
X18813000Y-14092000D02*
G75*
G03*
X18773000Y-14092000I-20000J0D01*
G01*
X18773000Y-14202000D02*
G75*
G03*
X18813000Y-14202000I20000J0D01*
G01*
D15*
X18814213Y-14586213D02*
X18814213Y-14543787D01*
X18771787Y-14543787D01*
X18771787Y-14586213D01*
X18814213Y-14586213D01*
D11*
X18813000Y-14605000D02*
X18813000Y-14525000D01*
X18773000Y-14605000D02*
X18773000Y-14525000D01*
X18813000Y-14525000D02*
G75*
G03*
X18773000Y-14525000I-20000J0D01*
G01*
X18773000Y-14605000D02*
G75*
G03*
X18813000Y-14605000I20000J0D01*
G01*
D15*
X19678213Y-10368213D02*
X19678213Y-10325787D01*
X19635787Y-10325787D01*
X19635787Y-10368213D01*
X19678213Y-10368213D01*
D11*
X19677000Y-10402000D02*
X19677000Y-10292000D01*
X19637000Y-10402000D02*
X19637000Y-10292000D01*
X19677000Y-10292000D02*
G75*
G03*
X19637000Y-10292000I-20000J0D01*
G01*
X19637000Y-10402000D02*
G75*
G03*
X19677000Y-10402000I20000J0D01*
G01*
D15*
X19678213Y-10786213D02*
X19678213Y-10743787D01*
X19635787Y-10743787D01*
X19635787Y-10786213D01*
X19678213Y-10786213D01*
D11*
X19677000Y-10805000D02*
X19677000Y-10725000D01*
X19637000Y-10805000D02*
X19637000Y-10725000D01*
X19677000Y-10725000D02*
G75*
G03*
X19637000Y-10725000I-20000J0D01*
G01*
X19637000Y-10805000D02*
G75*
G03*
X19677000Y-10805000I20000J0D01*
G01*
D15*
X19678213Y-14168213D02*
X19678213Y-14125787D01*
X19635787Y-14125787D01*
X19635787Y-14168213D01*
X19678213Y-14168213D01*
D11*
X19677000Y-14202000D02*
X19677000Y-14092000D01*
X19637000Y-14202000D02*
X19637000Y-14092000D01*
X19677000Y-14092000D02*
G75*
G03*
X19637000Y-14092000I-20000J0D01*
G01*
X19637000Y-14202000D02*
G75*
G03*
X19677000Y-14202000I20000J0D01*
G01*
D15*
X19678213Y-14586213D02*
X19678213Y-14543787D01*
X19635787Y-14543787D01*
X19635787Y-14586213D01*
X19678213Y-14586213D01*
D11*
X19677000Y-14605000D02*
X19677000Y-14525000D01*
X19637000Y-14605000D02*
X19637000Y-14525000D01*
X19677000Y-14525000D02*
G75*
G03*
X19637000Y-14525000I-20000J0D01*
G01*
X19637000Y-14605000D02*
G75*
G03*
X19677000Y-14605000I20000J0D01*
G01*
D16*
X12983620Y-10368420D02*
X13021120Y-10330920D01*
X12983620Y-10293420D01*
X12946120Y-10330920D01*
X12983620Y-10368420D01*
X12983620Y-14168420D02*
X13021120Y-14130920D01*
X12983620Y-14093420D01*
X12946120Y-14130920D01*
X12983620Y-14168420D01*
X13183620Y-10368420D02*
X13221120Y-10330920D01*
X13183620Y-10293420D01*
X13146120Y-10330920D01*
X13183620Y-10368420D01*
X13183620Y-14168420D02*
X13221120Y-14130920D01*
X13183620Y-14093420D01*
X13146120Y-14130920D01*
X13183620Y-14168420D01*
X13383620Y-10368420D02*
X13421120Y-10330920D01*
X13383620Y-10293420D01*
X13346120Y-10330920D01*
X13383620Y-10368420D01*
X13383620Y-14168420D02*
X13421120Y-14130920D01*
X13383620Y-14093420D01*
X13346120Y-14130920D01*
X13383620Y-14168420D01*
X17383620Y-10368420D02*
X17421120Y-10330920D01*
X17383620Y-10293420D01*
X17346120Y-10330920D01*
X17383620Y-10368420D01*
X17383620Y-14168420D02*
X17421120Y-14130920D01*
X17383620Y-14093420D01*
X17346120Y-14130920D01*
X17383620Y-14168420D01*
X17583620Y-10368420D02*
X17621120Y-10330920D01*
X17583620Y-10293420D01*
X17546120Y-10330920D01*
X17583620Y-10368420D01*
X17583620Y-14168420D02*
X17621120Y-14130920D01*
X17583620Y-14093420D01*
X17546120Y-14130920D01*
X17583620Y-14168420D01*
X17783620Y-10368420D02*
X17821120Y-10330920D01*
X17783620Y-10293420D01*
X17746120Y-10330920D01*
X17783620Y-10368420D01*
X17783620Y-14168420D02*
X17821120Y-14130920D01*
X17783620Y-14093420D01*
X17746120Y-14130920D01*
X17783620Y-14168420D01*
D17*
X14503500Y-10364500D02*
X14568500Y-10429500D01*
X14568500Y-10364500D02*
X14503500Y-10429500D01*
X14568500Y-10397000D02*
G75*
G03*
X14568500Y-10397000I-32500J0D01*
G01*
X14503500Y-14164500D02*
X14568500Y-14229500D01*
X14568500Y-14164500D02*
X14503500Y-14229500D01*
X14568500Y-14197000D02*
G75*
G03*
X14568500Y-14197000I-32500J0D01*
G01*
X15081500Y-10364500D02*
X15146500Y-10429500D01*
X15146500Y-10364500D02*
X15081500Y-10429500D01*
X15146500Y-10397000D02*
G75*
G03*
X15146500Y-10397000I-32500J0D01*
G01*
X15081500Y-14164500D02*
X15146500Y-14229500D01*
X15146500Y-14164500D02*
X15081500Y-14229500D01*
X15146500Y-14197000D02*
G75*
G03*
X15146500Y-14197000I-32500J0D01*
G01*
X18903500Y-10364500D02*
X18968500Y-10429500D01*
X18968500Y-10364500D02*
X18903500Y-10429500D01*
X18968500Y-10397000D02*
G75*
G03*
X18968500Y-10397000I-32500J0D01*
G01*
X18903500Y-14164500D02*
X18968500Y-14229500D01*
X18968500Y-14164500D02*
X18903500Y-14229500D01*
X18968500Y-14197000D02*
G75*
G03*
X18968500Y-14197000I-32500J0D01*
G01*
X19481500Y-10364500D02*
X19546500Y-10429500D01*
X19546500Y-10364500D02*
X19481500Y-10429500D01*
X19546500Y-10397000D02*
G75*
G03*
X19546500Y-10397000I-32500J0D01*
G01*
X19481500Y-14164500D02*
X19546500Y-14229500D01*
X19546500Y-14164500D02*
X19481500Y-14229500D01*
X19546500Y-14197000D02*
G75*
G03*
X19546500Y-14197000I-32500J0D01*
G01*
D18*
X12390000Y-7790000D02*
X12610000Y-8010000D01*
X12610000Y-7790000D02*
X12390000Y-8010000D01*
X12500000Y-7790000D02*
X12500000Y-8010000D01*
X12390000Y-7900000D02*
X12610000Y-7900000D01*
X12390000Y-10490000D02*
X12610000Y-10710000D01*
X12610000Y-10490000D02*
X12390000Y-10710000D01*
X12500000Y-10490000D02*
X12500000Y-10710000D01*
X12390000Y-10600000D02*
X12610000Y-10600000D01*
X12390000Y-11590000D02*
X12610000Y-11810000D01*
X12610000Y-11590000D02*
X12390000Y-11810000D01*
X12500000Y-11590000D02*
X12500000Y-11810000D01*
X12390000Y-11700000D02*
X12610000Y-11700000D01*
X12390000Y-14290000D02*
X12610000Y-14510000D01*
X12610000Y-14290000D02*
X12390000Y-14510000D01*
X12500000Y-14290000D02*
X12500000Y-14510000D01*
X12390000Y-14400000D02*
X12610000Y-14400000D01*
X16190000Y-7782520D02*
X16410000Y-8002520D01*
X16410000Y-7782520D02*
X16190000Y-8002520D01*
X16300000Y-7782520D02*
X16300000Y-8002520D01*
X16190000Y-7892520D02*
X16410000Y-7892520D01*
X16190000Y-10490000D02*
X16410000Y-10710000D01*
X16410000Y-10490000D02*
X16190000Y-10710000D01*
X16300000Y-10490000D02*
X16300000Y-10710000D01*
X16190000Y-10600000D02*
X16410000Y-10600000D01*
X16190000Y-10490000D02*
X16410000Y-10710000D01*
X16410000Y-10490000D02*
X16190000Y-10710000D01*
X16300000Y-10490000D02*
X16300000Y-10710000D01*
X16190000Y-10600000D02*
X16410000Y-10600000D01*
X16190000Y-11582520D02*
X16410000Y-11802520D01*
X16410000Y-11582520D02*
X16190000Y-11802520D01*
X16300000Y-11582520D02*
X16300000Y-11802520D01*
X16190000Y-11692520D02*
X16410000Y-11692520D01*
X16190000Y-14290000D02*
X16410000Y-14510000D01*
X16410000Y-14290000D02*
X16190000Y-14510000D01*
X16300000Y-14290000D02*
X16300000Y-14510000D01*
X16190000Y-14400000D02*
X16410000Y-14400000D01*
X16190000Y-14290000D02*
X16410000Y-14510000D01*
X16410000Y-14290000D02*
X16190000Y-14510000D01*
X16300000Y-14290000D02*
X16300000Y-14510000D01*
X16190000Y-14400000D02*
X16410000Y-14400000D01*
X16790000Y-7790000D02*
X17010000Y-8010000D01*
X17010000Y-7790000D02*
X16790000Y-8010000D01*
X16900000Y-7790000D02*
X16900000Y-8010000D01*
X16790000Y-7900000D02*
X17010000Y-7900000D01*
X16790000Y-10490000D02*
X17010000Y-10710000D01*
X17010000Y-10490000D02*
X16790000Y-10710000D01*
X16900000Y-10490000D02*
X16900000Y-10710000D01*
X16790000Y-10600000D02*
X17010000Y-10600000D01*
X16790000Y-11590000D02*
X17010000Y-11810000D01*
X17010000Y-11590000D02*
X16790000Y-11810000D01*
X16900000Y-11590000D02*
X16900000Y-11810000D01*
X16790000Y-11700000D02*
X17010000Y-11700000D01*
X16790000Y-14290000D02*
X17010000Y-14510000D01*
X17010000Y-14290000D02*
X16790000Y-14510000D01*
X16900000Y-14290000D02*
X16900000Y-14510000D01*
X16790000Y-14400000D02*
X17010000Y-14400000D01*
X20590000Y-7782520D02*
X20810000Y-8002520D01*
X20810000Y-7782520D02*
X20590000Y-8002520D01*
X20700000Y-7782520D02*
X20700000Y-8002520D01*
X20590000Y-7892520D02*
X20810000Y-7892520D01*
X20590000Y-10490000D02*
X20810000Y-10710000D01*
X20810000Y-10490000D02*
X20590000Y-10710000D01*
X20700000Y-10490000D02*
X20700000Y-10710000D01*
X20590000Y-10600000D02*
X20810000Y-10600000D01*
X20590000Y-10490000D02*
X20810000Y-10710000D01*
X20810000Y-10490000D02*
X20590000Y-10710000D01*
X20700000Y-10490000D02*
X20700000Y-10710000D01*
X20590000Y-10600000D02*
X20810000Y-10600000D01*
X20590000Y-11582520D02*
X20810000Y-11802520D01*
X20810000Y-11582520D02*
X20590000Y-11802520D01*
X20700000Y-11582520D02*
X20700000Y-11802520D01*
X20590000Y-11692520D02*
X20810000Y-11692520D01*
X20590000Y-14290000D02*
X20810000Y-14510000D01*
X20810000Y-14290000D02*
X20590000Y-14510000D01*
X20700000Y-14290000D02*
X20700000Y-14510000D01*
X20590000Y-14400000D02*
X20810000Y-14400000D01*
X20590000Y-14290000D02*
X20810000Y-14510000D01*
X20810000Y-14290000D02*
X20590000Y-14510000D01*
X20700000Y-14290000D02*
X20700000Y-14510000D01*
X20590000Y-14400000D02*
X20810000Y-14400000D01*
D11*
X12455119Y-15112976D02*
X12455119Y-14912976D01*
X12502738Y-14912976D01*
X12531309Y-14922500D01*
X12550357Y-14941548D01*
X12559881Y-14960595D01*
X12569405Y-14998690D01*
X12569405Y-15027262D01*
X12559881Y-15065357D01*
X12550357Y-15084405D01*
X12531309Y-15103452D01*
X12502738Y-15112976D01*
X12455119Y-15112976D01*
X12655119Y-15112976D02*
X12655119Y-14979643D01*
X12655119Y-15017738D02*
X12664643Y-14998690D01*
X12674167Y-14989167D01*
X12693214Y-14979643D01*
X12712262Y-14979643D01*
X12778928Y-15112976D02*
X12778928Y-14979643D01*
X12778928Y-14912976D02*
X12769405Y-14922500D01*
X12778928Y-14932024D01*
X12788452Y-14922500D01*
X12778928Y-14912976D01*
X12778928Y-14932024D01*
X12902738Y-15112976D02*
X12883690Y-15103452D01*
X12874167Y-15084405D01*
X12874167Y-14912976D01*
X13007500Y-15112976D02*
X12988452Y-15103452D01*
X12978928Y-15084405D01*
X12978928Y-14912976D01*
X13236071Y-15112976D02*
X13236071Y-14912976D01*
X13302738Y-15055833D01*
X13369405Y-14912976D01*
X13369405Y-15112976D01*
X13550357Y-15112976D02*
X13550357Y-15008214D01*
X13540833Y-14989167D01*
X13521786Y-14979643D01*
X13483690Y-14979643D01*
X13464643Y-14989167D01*
X13550357Y-15103452D02*
X13531309Y-15112976D01*
X13483690Y-15112976D01*
X13464643Y-15103452D01*
X13455119Y-15084405D01*
X13455119Y-15065357D01*
X13464643Y-15046309D01*
X13483690Y-15036786D01*
X13531309Y-15036786D01*
X13550357Y-15027262D01*
X13645595Y-14979643D02*
X13645595Y-15179643D01*
X13645595Y-14989167D02*
X13664643Y-14979643D01*
X13702738Y-14979643D01*
X13721786Y-14989167D01*
X13731309Y-14998690D01*
X13740833Y-15017738D01*
X13740833Y-15074881D01*
X13731309Y-15093928D01*
X13721786Y-15103452D01*
X13702738Y-15112976D01*
X13664643Y-15112976D01*
X13645595Y-15103452D01*
X13826548Y-15093928D02*
X13836071Y-15103452D01*
X13826548Y-15112976D01*
X13817024Y-15103452D01*
X13826548Y-15093928D01*
X13826548Y-15112976D01*
X13826548Y-14989167D02*
X13836071Y-14998690D01*
X13826548Y-15008214D01*
X13817024Y-14998690D01*
X13826548Y-14989167D01*
X13826548Y-15008214D01*
D12*
X12177500Y-15432500D02*
X12197500Y-15452500D01*
X12197500Y-15432500D02*
X12177500Y-15452500D01*
D11*
X12493214Y-15332976D02*
X12512262Y-15332976D01*
X12531309Y-15342500D01*
X12540833Y-15352024D01*
X12550357Y-15371071D01*
X12559881Y-15409167D01*
X12559881Y-15456786D01*
X12550357Y-15494881D01*
X12540833Y-15513928D01*
X12531309Y-15523452D01*
X12512262Y-15532976D01*
X12493214Y-15532976D01*
X12474167Y-15523452D01*
X12464643Y-15513928D01*
X12455119Y-15494881D01*
X12445595Y-15456786D01*
X12445595Y-15409167D01*
X12455119Y-15371071D01*
X12464643Y-15352024D01*
X12474167Y-15342500D01*
X12493214Y-15332976D01*
X12645595Y-15513928D02*
X12655119Y-15523452D01*
X12645595Y-15532976D01*
X12636071Y-15523452D01*
X12645595Y-15513928D01*
X12645595Y-15532976D01*
X12731309Y-15352024D02*
X12740833Y-15342500D01*
X12759881Y-15332976D01*
X12807500Y-15332976D01*
X12826548Y-15342500D01*
X12836071Y-15352024D01*
X12845595Y-15371071D01*
X12845595Y-15390119D01*
X12836071Y-15418690D01*
X12721786Y-15532976D01*
X12845595Y-15532976D01*
X12969405Y-15332976D02*
X12988452Y-15332976D01*
X13007500Y-15342500D01*
X13017024Y-15352024D01*
X13026548Y-15371071D01*
X13036071Y-15409167D01*
X13036071Y-15456786D01*
X13026548Y-15494881D01*
X13017024Y-15513928D01*
X13007500Y-15523452D01*
X12988452Y-15532976D01*
X12969405Y-15532976D01*
X12950357Y-15523452D01*
X12940833Y-15513928D01*
X12931309Y-15494881D01*
X12921786Y-15456786D01*
X12921786Y-15409167D01*
X12931309Y-15371071D01*
X12940833Y-15352024D01*
X12950357Y-15342500D01*
X12969405Y-15332976D01*
X13159881Y-15332976D02*
X13178928Y-15332976D01*
X13197976Y-15342500D01*
X13207500Y-15352024D01*
X13217024Y-15371071D01*
X13226548Y-15409167D01*
X13226548Y-15456786D01*
X13217024Y-15494881D01*
X13207500Y-15513928D01*
X13197976Y-15523452D01*
X13178928Y-15532976D01*
X13159881Y-15532976D01*
X13140833Y-15523452D01*
X13131309Y-15513928D01*
X13121786Y-15494881D01*
X13112262Y-15456786D01*
X13112262Y-15409167D01*
X13121786Y-15371071D01*
X13131309Y-15352024D01*
X13140833Y-15342500D01*
X13159881Y-15332976D01*
X13312262Y-15532976D02*
X13312262Y-15399643D01*
X13312262Y-15418690D02*
X13321786Y-15409167D01*
X13340833Y-15399643D01*
X13369405Y-15399643D01*
X13388452Y-15409167D01*
X13397976Y-15428214D01*
X13397976Y-15532976D01*
X13397976Y-15428214D02*
X13407500Y-15409167D01*
X13426548Y-15399643D01*
X13455119Y-15399643D01*
X13474167Y-15409167D01*
X13483690Y-15428214D01*
X13483690Y-15532976D01*
X13578928Y-15532976D02*
X13578928Y-15399643D01*
X13578928Y-15418690D02*
X13588452Y-15409167D01*
X13607500Y-15399643D01*
X13636071Y-15399643D01*
X13655119Y-15409167D01*
X13664643Y-15428214D01*
X13664643Y-15532976D01*
X13664643Y-15428214D02*
X13674167Y-15409167D01*
X13693214Y-15399643D01*
X13721786Y-15399643D01*
X13740833Y-15409167D01*
X13750357Y-15428214D01*
X13750357Y-15532976D01*
X14140833Y-15323452D02*
X13969405Y-15580595D01*
X14397976Y-15332976D02*
X14417024Y-15332976D01*
X14436071Y-15342500D01*
X14445595Y-15352024D01*
X14455119Y-15371071D01*
X14464643Y-15409167D01*
X14464643Y-15456786D01*
X14455119Y-15494881D01*
X14445595Y-15513928D01*
X14436071Y-15523452D01*
X14417024Y-15532976D01*
X14397976Y-15532976D01*
X14378928Y-15523452D01*
X14369405Y-15513928D01*
X14359881Y-15494881D01*
X14350357Y-15456786D01*
X14350357Y-15409167D01*
X14359881Y-15371071D01*
X14369405Y-15352024D01*
X14378928Y-15342500D01*
X14397976Y-15332976D01*
X14550357Y-15513928D02*
X14559881Y-15523452D01*
X14550357Y-15532976D01*
X14540833Y-15523452D01*
X14550357Y-15513928D01*
X14550357Y-15532976D01*
X14683690Y-15332976D02*
X14702738Y-15332976D01*
X14721786Y-15342500D01*
X14731309Y-15352024D01*
X14740833Y-15371071D01*
X14750357Y-15409167D01*
X14750357Y-15456786D01*
X14740833Y-15494881D01*
X14731309Y-15513928D01*
X14721786Y-15523452D01*
X14702738Y-15532976D01*
X14683690Y-15532976D01*
X14664643Y-15523452D01*
X14655119Y-15513928D01*
X14645595Y-15494881D01*
X14636071Y-15456786D01*
X14636071Y-15409167D01*
X14645595Y-15371071D01*
X14655119Y-15352024D01*
X14664643Y-15342500D01*
X14683690Y-15332976D01*
X14874167Y-15332976D02*
X14893214Y-15332976D01*
X14912262Y-15342500D01*
X14921786Y-15352024D01*
X14931309Y-15371071D01*
X14940833Y-15409167D01*
X14940833Y-15456786D01*
X14931309Y-15494881D01*
X14921786Y-15513928D01*
X14912262Y-15523452D01*
X14893214Y-15532976D01*
X14874167Y-15532976D01*
X14855119Y-15523452D01*
X14845595Y-15513928D01*
X14836071Y-15494881D01*
X14826548Y-15456786D01*
X14826548Y-15409167D01*
X14836071Y-15371071D01*
X14845595Y-15352024D01*
X14855119Y-15342500D01*
X14874167Y-15332976D01*
X15007500Y-15332976D02*
X15140833Y-15332976D01*
X15055119Y-15532976D01*
X15226548Y-15532976D02*
X15264643Y-15532976D01*
X15283690Y-15523452D01*
X15293214Y-15513928D01*
X15312262Y-15485357D01*
X15321786Y-15447262D01*
X15321786Y-15371071D01*
X15312262Y-15352024D01*
X15302738Y-15342500D01*
X15283690Y-15332976D01*
X15245595Y-15332976D01*
X15226548Y-15342500D01*
X15217024Y-15352024D01*
X15207500Y-15371071D01*
X15207500Y-15418690D01*
X15217024Y-15437738D01*
X15226548Y-15447262D01*
X15245595Y-15456786D01*
X15283690Y-15456786D01*
X15302738Y-15447262D01*
X15312262Y-15437738D01*
X15321786Y-15418690D01*
X15397976Y-15332976D02*
X15397976Y-15371071D01*
X15474167Y-15332976D02*
X15474167Y-15371071D01*
X15769405Y-15609167D02*
X15759881Y-15599643D01*
X15740833Y-15571071D01*
X15731309Y-15552024D01*
X15721786Y-15523452D01*
X15712262Y-15475833D01*
X15712262Y-15437738D01*
X15721786Y-15390119D01*
X15731309Y-15361548D01*
X15740833Y-15342500D01*
X15759881Y-15313928D01*
X15769405Y-15304405D01*
X15931309Y-15399643D02*
X15931309Y-15532976D01*
X15883690Y-15323452D02*
X15836071Y-15466309D01*
X15959881Y-15466309D01*
X16064643Y-15418690D02*
X16045595Y-15409167D01*
X16036071Y-15399643D01*
X16026548Y-15380595D01*
X16026548Y-15371071D01*
X16036071Y-15352024D01*
X16045595Y-15342500D01*
X16064643Y-15332976D01*
X16102738Y-15332976D01*
X16121786Y-15342500D01*
X16131309Y-15352024D01*
X16140833Y-15371071D01*
X16140833Y-15380595D01*
X16131309Y-15399643D01*
X16121786Y-15409167D01*
X16102738Y-15418690D01*
X16064643Y-15418690D01*
X16045595Y-15428214D01*
X16036071Y-15437738D01*
X16026548Y-15456786D01*
X16026548Y-15494881D01*
X16036071Y-15513928D01*
X16045595Y-15523452D01*
X16064643Y-15532976D01*
X16102738Y-15532976D01*
X16121786Y-15523452D01*
X16131309Y-15513928D01*
X16140833Y-15494881D01*
X16140833Y-15456786D01*
X16131309Y-15437738D01*
X16121786Y-15428214D01*
X16102738Y-15418690D01*
X16378928Y-15532976D02*
X16378928Y-15332976D01*
X16464643Y-15532976D02*
X16464643Y-15428214D01*
X16455119Y-15409167D01*
X16436071Y-15399643D01*
X16407500Y-15399643D01*
X16388452Y-15409167D01*
X16378928Y-15418690D01*
X16588452Y-15532976D02*
X16569405Y-15523452D01*
X16559881Y-15513928D01*
X16550357Y-15494881D01*
X16550357Y-15437738D01*
X16559881Y-15418690D01*
X16569405Y-15409167D01*
X16588452Y-15399643D01*
X16617024Y-15399643D01*
X16636071Y-15409167D01*
X16645595Y-15418690D01*
X16655119Y-15437738D01*
X16655119Y-15494881D01*
X16645595Y-15513928D01*
X16636071Y-15523452D01*
X16617024Y-15532976D01*
X16588452Y-15532976D01*
X16769405Y-15532976D02*
X16750357Y-15523452D01*
X16740833Y-15504405D01*
X16740833Y-15332976D01*
X16921786Y-15523452D02*
X16902738Y-15532976D01*
X16864643Y-15532976D01*
X16845595Y-15523452D01*
X16836071Y-15504405D01*
X16836071Y-15428214D01*
X16845595Y-15409167D01*
X16864643Y-15399643D01*
X16902738Y-15399643D01*
X16921786Y-15409167D01*
X16931310Y-15428214D01*
X16931310Y-15447262D01*
X16836071Y-15466309D01*
X17007500Y-15523452D02*
X17026548Y-15532976D01*
X17064643Y-15532976D01*
X17083690Y-15523452D01*
X17093214Y-15504405D01*
X17093214Y-15494881D01*
X17083690Y-15475833D01*
X17064643Y-15466309D01*
X17036071Y-15466309D01*
X17017024Y-15456786D01*
X17007500Y-15437738D01*
X17007500Y-15428214D01*
X17017024Y-15409167D01*
X17036071Y-15399643D01*
X17064643Y-15399643D01*
X17083690Y-15409167D01*
X17159881Y-15609167D02*
X17169405Y-15599643D01*
X17188452Y-15571071D01*
X17197976Y-15552024D01*
X17207500Y-15523452D01*
X17217024Y-15475833D01*
X17217024Y-15437738D01*
X17207500Y-15390119D01*
X17197976Y-15361548D01*
X17188452Y-15342500D01*
X17169405Y-15313928D01*
X17159881Y-15304405D01*
D13*
X12197500Y-15706500D02*
G75*
G03*
X12197500Y-15706500I-17500J0D01*
G01*
D11*
X12493214Y-15596976D02*
X12512262Y-15596976D01*
X12531309Y-15606500D01*
X12540833Y-15616024D01*
X12550357Y-15635071D01*
X12559881Y-15673167D01*
X12559881Y-15720786D01*
X12550357Y-15758881D01*
X12540833Y-15777928D01*
X12531309Y-15787452D01*
X12512262Y-15796976D01*
X12493214Y-15796976D01*
X12474167Y-15787452D01*
X12464643Y-15777928D01*
X12455119Y-15758881D01*
X12445595Y-15720786D01*
X12445595Y-15673167D01*
X12455119Y-15635071D01*
X12464643Y-15616024D01*
X12474167Y-15606500D01*
X12493214Y-15596976D01*
X12645595Y-15777928D02*
X12655119Y-15787452D01*
X12645595Y-15796976D01*
X12636071Y-15787452D01*
X12645595Y-15777928D01*
X12645595Y-15796976D01*
X12721786Y-15596976D02*
X12845595Y-15596976D01*
X12778928Y-15673167D01*
X12807500Y-15673167D01*
X12826548Y-15682690D01*
X12836071Y-15692214D01*
X12845595Y-15711262D01*
X12845595Y-15758881D01*
X12836071Y-15777928D01*
X12826548Y-15787452D01*
X12807500Y-15796976D01*
X12750357Y-15796976D01*
X12731309Y-15787452D01*
X12721786Y-15777928D01*
X13026548Y-15596976D02*
X12931309Y-15596976D01*
X12921786Y-15692214D01*
X12931309Y-15682690D01*
X12950357Y-15673167D01*
X12997976Y-15673167D01*
X13017024Y-15682690D01*
X13026548Y-15692214D01*
X13036071Y-15711262D01*
X13036071Y-15758881D01*
X13026548Y-15777928D01*
X13017024Y-15787452D01*
X12997976Y-15796976D01*
X12950357Y-15796976D01*
X12931309Y-15787452D01*
X12921786Y-15777928D01*
X13159881Y-15596976D02*
X13178928Y-15596976D01*
X13197976Y-15606500D01*
X13207500Y-15616024D01*
X13217024Y-15635071D01*
X13226548Y-15673167D01*
X13226548Y-15720786D01*
X13217024Y-15758881D01*
X13207500Y-15777928D01*
X13197976Y-15787452D01*
X13178928Y-15796976D01*
X13159881Y-15796976D01*
X13140833Y-15787452D01*
X13131309Y-15777928D01*
X13121786Y-15758881D01*
X13112262Y-15720786D01*
X13112262Y-15673167D01*
X13121786Y-15635071D01*
X13131309Y-15616024D01*
X13140833Y-15606500D01*
X13159881Y-15596976D01*
X13312262Y-15796976D02*
X13312262Y-15663643D01*
X13312262Y-15682690D02*
X13321786Y-15673167D01*
X13340833Y-15663643D01*
X13369405Y-15663643D01*
X13388452Y-15673167D01*
X13397976Y-15692214D01*
X13397976Y-15796976D01*
X13397976Y-15692214D02*
X13407500Y-15673167D01*
X13426548Y-15663643D01*
X13455119Y-15663643D01*
X13474167Y-15673167D01*
X13483690Y-15692214D01*
X13483690Y-15796976D01*
X13578928Y-15796976D02*
X13578928Y-15663643D01*
X13578928Y-15682690D02*
X13588452Y-15673167D01*
X13607500Y-15663643D01*
X13636071Y-15663643D01*
X13655119Y-15673167D01*
X13664643Y-15692214D01*
X13664643Y-15796976D01*
X13664643Y-15692214D02*
X13674167Y-15673167D01*
X13693214Y-15663643D01*
X13721786Y-15663643D01*
X13740833Y-15673167D01*
X13750357Y-15692214D01*
X13750357Y-15796976D01*
X14140833Y-15587452D02*
X13969405Y-15844595D01*
X14397976Y-15596976D02*
X14417024Y-15596976D01*
X14436071Y-15606500D01*
X14445595Y-15616024D01*
X14455119Y-15635071D01*
X14464643Y-15673167D01*
X14464643Y-15720786D01*
X14455119Y-15758881D01*
X14445595Y-15777928D01*
X14436071Y-15787452D01*
X14417024Y-15796976D01*
X14397976Y-15796976D01*
X14378928Y-15787452D01*
X14369405Y-15777928D01*
X14359881Y-15758881D01*
X14350357Y-15720786D01*
X14350357Y-15673167D01*
X14359881Y-15635071D01*
X14369405Y-15616024D01*
X14378928Y-15606500D01*
X14397976Y-15596976D01*
X14550357Y-15777928D02*
X14559881Y-15787452D01*
X14550357Y-15796976D01*
X14540833Y-15787452D01*
X14550357Y-15777928D01*
X14550357Y-15796976D01*
X14683690Y-15596976D02*
X14702738Y-15596976D01*
X14721786Y-15606500D01*
X14731309Y-15616024D01*
X14740833Y-15635071D01*
X14750357Y-15673167D01*
X14750357Y-15720786D01*
X14740833Y-15758881D01*
X14731309Y-15777928D01*
X14721786Y-15787452D01*
X14702738Y-15796976D01*
X14683690Y-15796976D01*
X14664643Y-15787452D01*
X14655119Y-15777928D01*
X14645595Y-15758881D01*
X14636071Y-15720786D01*
X14636071Y-15673167D01*
X14645595Y-15635071D01*
X14655119Y-15616024D01*
X14664643Y-15606500D01*
X14683690Y-15596976D01*
X14940833Y-15796976D02*
X14826548Y-15796976D01*
X14883690Y-15796976D02*
X14883690Y-15596976D01*
X14864643Y-15625548D01*
X14845595Y-15644595D01*
X14826548Y-15654119D01*
X15007500Y-15596976D02*
X15131309Y-15596976D01*
X15064643Y-15673167D01*
X15093214Y-15673167D01*
X15112262Y-15682690D01*
X15121786Y-15692214D01*
X15131309Y-15711262D01*
X15131309Y-15758881D01*
X15121786Y-15777928D01*
X15112262Y-15787452D01*
X15093214Y-15796976D01*
X15036071Y-15796976D01*
X15017024Y-15787452D01*
X15007500Y-15777928D01*
X15245595Y-15682690D02*
X15226548Y-15673167D01*
X15217024Y-15663643D01*
X15207500Y-15644595D01*
X15207500Y-15635071D01*
X15217024Y-15616024D01*
X15226548Y-15606500D01*
X15245595Y-15596976D01*
X15283690Y-15596976D01*
X15302738Y-15606500D01*
X15312262Y-15616024D01*
X15321786Y-15635071D01*
X15321786Y-15644595D01*
X15312262Y-15663643D01*
X15302738Y-15673167D01*
X15283690Y-15682690D01*
X15245595Y-15682690D01*
X15226548Y-15692214D01*
X15217024Y-15701738D01*
X15207500Y-15720786D01*
X15207500Y-15758881D01*
X15217024Y-15777928D01*
X15226548Y-15787452D01*
X15245595Y-15796976D01*
X15283690Y-15796976D01*
X15302738Y-15787452D01*
X15312262Y-15777928D01*
X15321786Y-15758881D01*
X15321786Y-15720786D01*
X15312262Y-15701738D01*
X15302738Y-15692214D01*
X15283690Y-15682690D01*
X15397976Y-15596976D02*
X15397976Y-15635071D01*
X15474167Y-15596976D02*
X15474167Y-15635071D01*
X15769405Y-15873167D02*
X15759881Y-15863643D01*
X15740833Y-15835071D01*
X15731309Y-15816024D01*
X15721786Y-15787452D01*
X15712262Y-15739833D01*
X15712262Y-15701738D01*
X15721786Y-15654119D01*
X15731309Y-15625548D01*
X15740833Y-15606500D01*
X15759881Y-15577928D01*
X15769405Y-15568405D01*
X15826548Y-15596976D02*
X15950357Y-15596976D01*
X15883690Y-15673167D01*
X15912262Y-15673167D01*
X15931309Y-15682690D01*
X15940833Y-15692214D01*
X15950357Y-15711262D01*
X15950357Y-15758881D01*
X15940833Y-15777928D01*
X15931309Y-15787452D01*
X15912262Y-15796976D01*
X15855119Y-15796976D01*
X15836071Y-15787452D01*
X15826548Y-15777928D01*
X16121786Y-15596976D02*
X16083690Y-15596976D01*
X16064643Y-15606500D01*
X16055119Y-15616024D01*
X16036071Y-15644595D01*
X16026548Y-15682690D01*
X16026548Y-15758881D01*
X16036071Y-15777928D01*
X16045595Y-15787452D01*
X16064643Y-15796976D01*
X16102738Y-15796976D01*
X16121786Y-15787452D01*
X16131309Y-15777928D01*
X16140833Y-15758881D01*
X16140833Y-15711262D01*
X16131309Y-15692214D01*
X16121786Y-15682690D01*
X16102738Y-15673167D01*
X16064643Y-15673167D01*
X16045595Y-15682690D01*
X16036071Y-15692214D01*
X16026548Y-15711262D01*
X16378928Y-15796976D02*
X16378928Y-15596976D01*
X16464643Y-15796976D02*
X16464643Y-15692214D01*
X16455119Y-15673167D01*
X16436071Y-15663643D01*
X16407500Y-15663643D01*
X16388452Y-15673167D01*
X16378928Y-15682690D01*
X16588452Y-15796976D02*
X16569405Y-15787452D01*
X16559881Y-15777928D01*
X16550357Y-15758881D01*
X16550357Y-15701738D01*
X16559881Y-15682690D01*
X16569405Y-15673167D01*
X16588452Y-15663643D01*
X16617024Y-15663643D01*
X16636071Y-15673167D01*
X16645595Y-15682690D01*
X16655119Y-15701738D01*
X16655119Y-15758881D01*
X16645595Y-15777928D01*
X16636071Y-15787452D01*
X16617024Y-15796976D01*
X16588452Y-15796976D01*
X16769405Y-15796976D02*
X16750357Y-15787452D01*
X16740833Y-15768405D01*
X16740833Y-15596976D01*
X16921786Y-15787452D02*
X16902738Y-15796976D01*
X16864643Y-15796976D01*
X16845595Y-15787452D01*
X16836071Y-15768405D01*
X16836071Y-15692214D01*
X16845595Y-15673167D01*
X16864643Y-15663643D01*
X16902738Y-15663643D01*
X16921786Y-15673167D01*
X16931310Y-15692214D01*
X16931310Y-15711262D01*
X16836071Y-15730309D01*
X17007500Y-15787452D02*
X17026548Y-15796976D01*
X17064643Y-15796976D01*
X17083690Y-15787452D01*
X17093214Y-15768405D01*
X17093214Y-15758881D01*
X17083690Y-15739833D01*
X17064643Y-15730309D01*
X17036071Y-15730309D01*
X17017024Y-15720786D01*
X17007500Y-15701738D01*
X17007500Y-15692214D01*
X17017024Y-15673167D01*
X17036071Y-15663643D01*
X17064643Y-15663643D01*
X17083690Y-15673167D01*
X17159881Y-15873167D02*
X17169405Y-15863643D01*
X17188452Y-15835071D01*
X17197976Y-15816024D01*
X17207500Y-15787452D01*
X17217024Y-15739833D01*
X17217024Y-15701738D01*
X17207500Y-15654119D01*
X17197976Y-15625548D01*
X17188452Y-15606500D01*
X17169405Y-15577928D01*
X17159881Y-15568405D01*
D14*
X12177500Y-15950500D02*
X12177500Y-15990500D01*
X12157500Y-15970500D02*
X12197500Y-15970500D01*
D11*
X12493214Y-15860976D02*
X12512262Y-15860976D01*
X12531309Y-15870500D01*
X12540833Y-15880024D01*
X12550357Y-15899071D01*
X12559881Y-15937167D01*
X12559881Y-15984786D01*
X12550357Y-16022881D01*
X12540833Y-16041928D01*
X12531309Y-16051452D01*
X12512262Y-16060976D01*
X12493214Y-16060976D01*
X12474167Y-16051452D01*
X12464643Y-16041928D01*
X12455119Y-16022881D01*
X12445595Y-15984786D01*
X12445595Y-15937167D01*
X12455119Y-15899071D01*
X12464643Y-15880024D01*
X12474167Y-15870500D01*
X12493214Y-15860976D01*
X12645595Y-16041928D02*
X12655119Y-16051452D01*
X12645595Y-16060976D01*
X12636071Y-16051452D01*
X12645595Y-16041928D01*
X12645595Y-16060976D01*
X12826548Y-15927643D02*
X12826548Y-16060976D01*
X12778928Y-15851452D02*
X12731309Y-15994309D01*
X12855119Y-15994309D01*
X12969405Y-15860976D02*
X12988452Y-15860976D01*
X13007500Y-15870500D01*
X13017024Y-15880024D01*
X13026548Y-15899071D01*
X13036071Y-15937167D01*
X13036071Y-15984786D01*
X13026548Y-16022881D01*
X13017024Y-16041928D01*
X13007500Y-16051452D01*
X12988452Y-16060976D01*
X12969405Y-16060976D01*
X12950357Y-16051452D01*
X12940833Y-16041928D01*
X12931309Y-16022881D01*
X12921786Y-15984786D01*
X12921786Y-15937167D01*
X12931309Y-15899071D01*
X12940833Y-15880024D01*
X12950357Y-15870500D01*
X12969405Y-15860976D01*
X13159881Y-15860976D02*
X13178928Y-15860976D01*
X13197976Y-15870500D01*
X13207500Y-15880024D01*
X13217024Y-15899071D01*
X13226548Y-15937167D01*
X13226548Y-15984786D01*
X13217024Y-16022881D01*
X13207500Y-16041928D01*
X13197976Y-16051452D01*
X13178928Y-16060976D01*
X13159881Y-16060976D01*
X13140833Y-16051452D01*
X13131309Y-16041928D01*
X13121786Y-16022881D01*
X13112262Y-15984786D01*
X13112262Y-15937167D01*
X13121786Y-15899071D01*
X13131309Y-15880024D01*
X13140833Y-15870500D01*
X13159881Y-15860976D01*
X13312262Y-16060976D02*
X13312262Y-15927643D01*
X13312262Y-15946690D02*
X13321786Y-15937167D01*
X13340833Y-15927643D01*
X13369405Y-15927643D01*
X13388452Y-15937167D01*
X13397976Y-15956214D01*
X13397976Y-16060976D01*
X13397976Y-15956214D02*
X13407500Y-15937167D01*
X13426548Y-15927643D01*
X13455119Y-15927643D01*
X13474167Y-15937167D01*
X13483690Y-15956214D01*
X13483690Y-16060976D01*
X13578928Y-16060976D02*
X13578928Y-15927643D01*
X13578928Y-15946690D02*
X13588452Y-15937167D01*
X13607500Y-15927643D01*
X13636071Y-15927643D01*
X13655119Y-15937167D01*
X13664643Y-15956214D01*
X13664643Y-16060976D01*
X13664643Y-15956214D02*
X13674167Y-15937167D01*
X13693214Y-15927643D01*
X13721786Y-15927643D01*
X13740833Y-15937167D01*
X13750357Y-15956214D01*
X13750357Y-16060976D01*
X14140833Y-15851452D02*
X13969405Y-16108595D01*
X14397976Y-15860976D02*
X14417024Y-15860976D01*
X14436071Y-15870500D01*
X14445595Y-15880024D01*
X14455119Y-15899071D01*
X14464643Y-15937167D01*
X14464643Y-15984786D01*
X14455119Y-16022881D01*
X14445595Y-16041928D01*
X14436071Y-16051452D01*
X14417024Y-16060976D01*
X14397976Y-16060976D01*
X14378928Y-16051452D01*
X14369405Y-16041928D01*
X14359881Y-16022881D01*
X14350357Y-15984786D01*
X14350357Y-15937167D01*
X14359881Y-15899071D01*
X14369405Y-15880024D01*
X14378928Y-15870500D01*
X14397976Y-15860976D01*
X14550357Y-16041928D02*
X14559881Y-16051452D01*
X14550357Y-16060976D01*
X14540833Y-16051452D01*
X14550357Y-16041928D01*
X14550357Y-16060976D01*
X14683690Y-15860976D02*
X14702738Y-15860976D01*
X14721786Y-15870500D01*
X14731309Y-15880024D01*
X14740833Y-15899071D01*
X14750357Y-15937167D01*
X14750357Y-15984786D01*
X14740833Y-16022881D01*
X14731309Y-16041928D01*
X14721786Y-16051452D01*
X14702738Y-16060976D01*
X14683690Y-16060976D01*
X14664643Y-16051452D01*
X14655119Y-16041928D01*
X14645595Y-16022881D01*
X14636071Y-15984786D01*
X14636071Y-15937167D01*
X14645595Y-15899071D01*
X14655119Y-15880024D01*
X14664643Y-15870500D01*
X14683690Y-15860976D01*
X14940833Y-16060976D02*
X14826548Y-16060976D01*
X14883690Y-16060976D02*
X14883690Y-15860976D01*
X14864643Y-15889548D01*
X14845595Y-15908595D01*
X14826548Y-15918119D01*
X15121786Y-15860976D02*
X15026548Y-15860976D01*
X15017024Y-15956214D01*
X15026548Y-15946690D01*
X15045595Y-15937167D01*
X15093214Y-15937167D01*
X15112262Y-15946690D01*
X15121786Y-15956214D01*
X15131309Y-15975262D01*
X15131309Y-16022881D01*
X15121786Y-16041928D01*
X15112262Y-16051452D01*
X15093214Y-16060976D01*
X15045595Y-16060976D01*
X15026548Y-16051452D01*
X15017024Y-16041928D01*
X15197976Y-15860976D02*
X15331309Y-15860976D01*
X15245595Y-16060976D01*
X15397976Y-15860976D02*
X15397976Y-15899071D01*
X15474167Y-15860976D02*
X15474167Y-15899071D01*
X15769405Y-16137167D02*
X15759881Y-16127643D01*
X15740833Y-16099071D01*
X15731309Y-16080024D01*
X15721786Y-16051452D01*
X15712262Y-16003833D01*
X15712262Y-15965738D01*
X15721786Y-15918119D01*
X15731309Y-15889548D01*
X15740833Y-15870500D01*
X15759881Y-15841928D01*
X15769405Y-15832405D01*
X15855119Y-16060976D02*
X15893214Y-16060976D01*
X15912262Y-16051452D01*
X15921786Y-16041928D01*
X15940833Y-16013357D01*
X15950357Y-15975262D01*
X15950357Y-15899071D01*
X15940833Y-15880024D01*
X15931309Y-15870500D01*
X15912262Y-15860976D01*
X15874167Y-15860976D01*
X15855119Y-15870500D01*
X15845595Y-15880024D01*
X15836071Y-15899071D01*
X15836071Y-15946690D01*
X15845595Y-15965738D01*
X15855119Y-15975262D01*
X15874167Y-15984786D01*
X15912262Y-15984786D01*
X15931309Y-15975262D01*
X15940833Y-15965738D01*
X15950357Y-15946690D01*
X16045595Y-16060976D02*
X16083690Y-16060976D01*
X16102738Y-16051452D01*
X16112262Y-16041928D01*
X16131309Y-16013357D01*
X16140833Y-15975262D01*
X16140833Y-15899071D01*
X16131309Y-15880024D01*
X16121786Y-15870500D01*
X16102738Y-15860976D01*
X16064643Y-15860976D01*
X16045595Y-15870500D01*
X16036071Y-15880024D01*
X16026548Y-15899071D01*
X16026548Y-15946690D01*
X16036071Y-15965738D01*
X16045595Y-15975262D01*
X16064643Y-15984786D01*
X16102738Y-15984786D01*
X16121786Y-15975262D01*
X16131309Y-15965738D01*
X16140833Y-15946690D01*
X16217024Y-15880024D02*
X16226548Y-15870500D01*
X16245595Y-15860976D01*
X16293214Y-15860976D01*
X16312262Y-15870500D01*
X16321786Y-15880024D01*
X16331309Y-15899071D01*
X16331309Y-15918119D01*
X16321786Y-15946690D01*
X16207500Y-16060976D01*
X16331309Y-16060976D01*
X16569405Y-16060976D02*
X16569405Y-15860976D01*
X16655119Y-16060976D02*
X16655119Y-15956214D01*
X16645595Y-15937167D01*
X16626548Y-15927643D01*
X16597976Y-15927643D01*
X16578928Y-15937167D01*
X16569405Y-15946690D01*
X16778929Y-16060976D02*
X16759881Y-16051452D01*
X16750357Y-16041928D01*
X16740833Y-16022881D01*
X16740833Y-15965738D01*
X16750357Y-15946690D01*
X16759881Y-15937167D01*
X16778929Y-15927643D01*
X16807500Y-15927643D01*
X16826548Y-15937167D01*
X16836071Y-15946690D01*
X16845595Y-15965738D01*
X16845595Y-16022881D01*
X16836071Y-16041928D01*
X16826548Y-16051452D01*
X16807500Y-16060976D01*
X16778929Y-16060976D01*
X16959881Y-16060976D02*
X16940833Y-16051452D01*
X16931310Y-16032405D01*
X16931310Y-15860976D01*
X17112262Y-16051452D02*
X17093214Y-16060976D01*
X17055119Y-16060976D01*
X17036071Y-16051452D01*
X17026548Y-16032405D01*
X17026548Y-15956214D01*
X17036071Y-15937167D01*
X17055119Y-15927643D01*
X17093214Y-15927643D01*
X17112262Y-15937167D01*
X17121786Y-15956214D01*
X17121786Y-15975262D01*
X17026548Y-15994309D01*
X17197976Y-16051452D02*
X17217024Y-16060976D01*
X17255119Y-16060976D01*
X17274167Y-16051452D01*
X17283690Y-16032405D01*
X17283690Y-16022881D01*
X17274167Y-16003833D01*
X17255119Y-15994309D01*
X17226548Y-15994309D01*
X17207500Y-15984786D01*
X17197976Y-15965738D01*
X17197976Y-15956214D01*
X17207500Y-15937167D01*
X17226548Y-15927643D01*
X17255119Y-15927643D01*
X17274167Y-15937167D01*
X17350357Y-16137167D02*
X17359881Y-16127643D01*
X17378929Y-16099071D01*
X17388452Y-16080024D01*
X17397976Y-16051452D01*
X17407500Y-16003833D01*
X17407500Y-15965738D01*
X17397976Y-15918119D01*
X17388452Y-15889548D01*
X17378929Y-15870500D01*
X17359881Y-15841928D01*
X17350357Y-15832405D01*
D15*
X12188713Y-16255713D02*
X12188713Y-16213287D01*
X12146287Y-16213287D01*
X12146287Y-16255713D01*
X12188713Y-16255713D01*
D11*
X12493214Y-16124976D02*
X12512262Y-16124976D01*
X12531309Y-16134500D01*
X12540833Y-16144024D01*
X12550357Y-16163071D01*
X12559881Y-16201167D01*
X12559881Y-16248786D01*
X12550357Y-16286881D01*
X12540833Y-16305928D01*
X12531309Y-16315452D01*
X12512262Y-16324976D01*
X12493214Y-16324976D01*
X12474167Y-16315452D01*
X12464643Y-16305928D01*
X12455119Y-16286881D01*
X12445595Y-16248786D01*
X12445595Y-16201167D01*
X12455119Y-16163071D01*
X12464643Y-16144024D01*
X12474167Y-16134500D01*
X12493214Y-16124976D01*
X12645595Y-16305928D02*
X12655119Y-16315452D01*
X12645595Y-16324976D01*
X12636071Y-16315452D01*
X12645595Y-16305928D01*
X12645595Y-16324976D01*
X12826548Y-16124976D02*
X12788452Y-16124976D01*
X12769405Y-16134500D01*
X12759881Y-16144024D01*
X12740833Y-16172595D01*
X12731309Y-16210690D01*
X12731309Y-16286881D01*
X12740833Y-16305928D01*
X12750357Y-16315452D01*
X12769405Y-16324976D01*
X12807500Y-16324976D01*
X12826548Y-16315452D01*
X12836071Y-16305928D01*
X12845595Y-16286881D01*
X12845595Y-16239262D01*
X12836071Y-16220214D01*
X12826548Y-16210690D01*
X12807500Y-16201167D01*
X12769405Y-16201167D01*
X12750357Y-16210690D01*
X12740833Y-16220214D01*
X12731309Y-16239262D01*
X12969405Y-16124976D02*
X12988452Y-16124976D01*
X13007500Y-16134500D01*
X13017024Y-16144024D01*
X13026548Y-16163071D01*
X13036071Y-16201167D01*
X13036071Y-16248786D01*
X13026548Y-16286881D01*
X13017024Y-16305928D01*
X13007500Y-16315452D01*
X12988452Y-16324976D01*
X12969405Y-16324976D01*
X12950357Y-16315452D01*
X12940833Y-16305928D01*
X12931309Y-16286881D01*
X12921786Y-16248786D01*
X12921786Y-16201167D01*
X12931309Y-16163071D01*
X12940833Y-16144024D01*
X12950357Y-16134500D01*
X12969405Y-16124976D01*
X13159881Y-16124976D02*
X13178928Y-16124976D01*
X13197976Y-16134500D01*
X13207500Y-16144024D01*
X13217024Y-16163071D01*
X13226548Y-16201167D01*
X13226548Y-16248786D01*
X13217024Y-16286881D01*
X13207500Y-16305928D01*
X13197976Y-16315452D01*
X13178928Y-16324976D01*
X13159881Y-16324976D01*
X13140833Y-16315452D01*
X13131309Y-16305928D01*
X13121786Y-16286881D01*
X13112262Y-16248786D01*
X13112262Y-16201167D01*
X13121786Y-16163071D01*
X13131309Y-16144024D01*
X13140833Y-16134500D01*
X13159881Y-16124976D01*
X13312262Y-16324976D02*
X13312262Y-16191643D01*
X13312262Y-16210690D02*
X13321786Y-16201167D01*
X13340833Y-16191643D01*
X13369405Y-16191643D01*
X13388452Y-16201167D01*
X13397976Y-16220214D01*
X13397976Y-16324976D01*
X13397976Y-16220214D02*
X13407500Y-16201167D01*
X13426548Y-16191643D01*
X13455119Y-16191643D01*
X13474167Y-16201167D01*
X13483690Y-16220214D01*
X13483690Y-16324976D01*
X13578928Y-16324976D02*
X13578928Y-16191643D01*
X13578928Y-16210690D02*
X13588452Y-16201167D01*
X13607500Y-16191643D01*
X13636071Y-16191643D01*
X13655119Y-16201167D01*
X13664643Y-16220214D01*
X13664643Y-16324976D01*
X13664643Y-16220214D02*
X13674167Y-16201167D01*
X13693214Y-16191643D01*
X13721786Y-16191643D01*
X13740833Y-16201167D01*
X13750357Y-16220214D01*
X13750357Y-16324976D01*
X14140833Y-16115452D02*
X13969405Y-16372595D01*
X14397976Y-16124976D02*
X14417024Y-16124976D01*
X14436071Y-16134500D01*
X14445595Y-16144024D01*
X14455119Y-16163071D01*
X14464643Y-16201167D01*
X14464643Y-16248786D01*
X14455119Y-16286881D01*
X14445595Y-16305928D01*
X14436071Y-16315452D01*
X14417024Y-16324976D01*
X14397976Y-16324976D01*
X14378928Y-16315452D01*
X14369405Y-16305928D01*
X14359881Y-16286881D01*
X14350357Y-16248786D01*
X14350357Y-16201167D01*
X14359881Y-16163071D01*
X14369405Y-16144024D01*
X14378928Y-16134500D01*
X14397976Y-16124976D01*
X14550357Y-16305928D02*
X14559881Y-16315452D01*
X14550357Y-16324976D01*
X14540833Y-16315452D01*
X14550357Y-16305928D01*
X14550357Y-16324976D01*
X14683690Y-16124976D02*
X14702738Y-16124976D01*
X14721786Y-16134500D01*
X14731309Y-16144024D01*
X14740833Y-16163071D01*
X14750357Y-16201167D01*
X14750357Y-16248786D01*
X14740833Y-16286881D01*
X14731309Y-16305928D01*
X14721786Y-16315452D01*
X14702738Y-16324976D01*
X14683690Y-16324976D01*
X14664643Y-16315452D01*
X14655119Y-16305928D01*
X14645595Y-16286881D01*
X14636071Y-16248786D01*
X14636071Y-16201167D01*
X14645595Y-16163071D01*
X14655119Y-16144024D01*
X14664643Y-16134500D01*
X14683690Y-16124976D01*
X14826548Y-16144024D02*
X14836071Y-16134500D01*
X14855119Y-16124976D01*
X14902738Y-16124976D01*
X14921786Y-16134500D01*
X14931309Y-16144024D01*
X14940833Y-16163071D01*
X14940833Y-16182119D01*
X14931309Y-16210690D01*
X14817024Y-16324976D01*
X14940833Y-16324976D01*
X15007500Y-16124976D02*
X15131309Y-16124976D01*
X15064643Y-16201167D01*
X15093214Y-16201167D01*
X15112262Y-16210690D01*
X15121786Y-16220214D01*
X15131309Y-16239262D01*
X15131309Y-16286881D01*
X15121786Y-16305928D01*
X15112262Y-16315452D01*
X15093214Y-16324976D01*
X15036071Y-16324976D01*
X15017024Y-16315452D01*
X15007500Y-16305928D01*
X15302738Y-16124976D02*
X15264643Y-16124976D01*
X15245595Y-16134500D01*
X15236071Y-16144024D01*
X15217024Y-16172595D01*
X15207500Y-16210690D01*
X15207500Y-16286881D01*
X15217024Y-16305928D01*
X15226548Y-16315452D01*
X15245595Y-16324976D01*
X15283690Y-16324976D01*
X15302738Y-16315452D01*
X15312262Y-16305928D01*
X15321786Y-16286881D01*
X15321786Y-16239262D01*
X15312262Y-16220214D01*
X15302738Y-16210690D01*
X15283690Y-16201167D01*
X15245595Y-16201167D01*
X15226548Y-16210690D01*
X15217024Y-16220214D01*
X15207500Y-16239262D01*
X15397976Y-16124976D02*
X15397976Y-16163071D01*
X15474167Y-16124976D02*
X15474167Y-16163071D01*
X15769405Y-16401167D02*
X15759881Y-16391643D01*
X15740833Y-16363071D01*
X15731309Y-16344024D01*
X15721786Y-16315452D01*
X15712262Y-16267833D01*
X15712262Y-16229738D01*
X15721786Y-16182119D01*
X15731309Y-16153548D01*
X15740833Y-16134500D01*
X15759881Y-16105928D01*
X15769405Y-16096405D01*
X15883690Y-16124976D02*
X15902738Y-16124976D01*
X15921786Y-16134500D01*
X15931309Y-16144024D01*
X15940833Y-16163071D01*
X15950357Y-16201167D01*
X15950357Y-16248786D01*
X15940833Y-16286881D01*
X15931309Y-16305928D01*
X15921786Y-16315452D01*
X15902738Y-16324976D01*
X15883690Y-16324976D01*
X15864643Y-16315452D01*
X15855119Y-16305928D01*
X15845595Y-16286881D01*
X15836071Y-16248786D01*
X15836071Y-16201167D01*
X15845595Y-16163071D01*
X15855119Y-16144024D01*
X15864643Y-16134500D01*
X15883690Y-16124976D01*
X16188452Y-16324976D02*
X16188452Y-16124976D01*
X16274167Y-16324976D02*
X16274167Y-16220214D01*
X16264643Y-16201167D01*
X16245595Y-16191643D01*
X16217024Y-16191643D01*
X16197976Y-16201167D01*
X16188452Y-16210690D01*
X16397976Y-16324976D02*
X16378928Y-16315452D01*
X16369405Y-16305928D01*
X16359881Y-16286881D01*
X16359881Y-16229738D01*
X16369405Y-16210690D01*
X16378928Y-16201167D01*
X16397976Y-16191643D01*
X16426548Y-16191643D01*
X16445595Y-16201167D01*
X16455119Y-16210690D01*
X16464643Y-16229738D01*
X16464643Y-16286881D01*
X16455119Y-16305928D01*
X16445595Y-16315452D01*
X16426548Y-16324976D01*
X16397976Y-16324976D01*
X16578928Y-16324976D02*
X16559881Y-16315452D01*
X16550357Y-16296405D01*
X16550357Y-16124976D01*
X16731309Y-16315452D02*
X16712262Y-16324976D01*
X16674167Y-16324976D01*
X16655119Y-16315452D01*
X16645595Y-16296405D01*
X16645595Y-16220214D01*
X16655119Y-16201167D01*
X16674167Y-16191643D01*
X16712262Y-16191643D01*
X16731309Y-16201167D01*
X16740833Y-16220214D01*
X16740833Y-16239262D01*
X16645595Y-16258309D01*
X16817024Y-16315452D02*
X16836071Y-16324976D01*
X16874167Y-16324976D01*
X16893214Y-16315452D01*
X16902738Y-16296405D01*
X16902738Y-16286881D01*
X16893214Y-16267833D01*
X16874167Y-16258309D01*
X16845595Y-16258309D01*
X16826548Y-16248786D01*
X16817024Y-16229738D01*
X16817024Y-16220214D01*
X16826548Y-16201167D01*
X16845595Y-16191643D01*
X16874167Y-16191643D01*
X16893214Y-16201167D01*
X17140833Y-16248786D02*
X17293214Y-16248786D01*
X17217024Y-16324976D02*
X17217024Y-16172595D01*
X17645595Y-16324976D02*
X17531310Y-16324976D01*
X17588452Y-16324976D02*
X17588452Y-16124976D01*
X17569405Y-16153548D01*
X17550357Y-16172595D01*
X17531310Y-16182119D01*
X17817024Y-16124976D02*
X17778929Y-16124976D01*
X17759881Y-16134500D01*
X17750357Y-16144024D01*
X17731310Y-16172595D01*
X17721786Y-16210690D01*
X17721786Y-16286881D01*
X17731310Y-16305928D01*
X17740833Y-16315452D01*
X17759881Y-16324976D01*
X17797976Y-16324976D01*
X17817024Y-16315452D01*
X17826548Y-16305928D01*
X17836071Y-16286881D01*
X17836071Y-16239262D01*
X17826548Y-16220214D01*
X17817024Y-16210690D01*
X17797976Y-16201167D01*
X17759881Y-16201167D01*
X17740833Y-16210690D01*
X17731310Y-16220214D01*
X17721786Y-16239262D01*
X18064643Y-16315452D02*
X18083690Y-16324976D01*
X18121786Y-16324976D01*
X18140833Y-16315452D01*
X18150357Y-16296405D01*
X18150357Y-16286881D01*
X18140833Y-16267833D01*
X18121786Y-16258309D01*
X18093214Y-16258309D01*
X18074167Y-16248786D01*
X18064643Y-16229738D01*
X18064643Y-16220214D01*
X18074167Y-16201167D01*
X18093214Y-16191643D01*
X18121786Y-16191643D01*
X18140833Y-16201167D01*
X18264643Y-16324976D02*
X18245595Y-16315452D01*
X18236071Y-16296405D01*
X18236071Y-16124976D01*
X18369405Y-16324976D02*
X18350357Y-16315452D01*
X18340833Y-16305928D01*
X18331310Y-16286881D01*
X18331310Y-16229738D01*
X18340833Y-16210690D01*
X18350357Y-16201167D01*
X18369405Y-16191643D01*
X18397976Y-16191643D01*
X18417024Y-16201167D01*
X18426548Y-16210690D01*
X18436071Y-16229738D01*
X18436071Y-16286881D01*
X18426548Y-16305928D01*
X18417024Y-16315452D01*
X18397976Y-16324976D01*
X18369405Y-16324976D01*
X18493214Y-16191643D02*
X18569405Y-16191643D01*
X18521786Y-16124976D02*
X18521786Y-16296405D01*
X18531310Y-16315452D01*
X18550357Y-16324976D01*
X18569405Y-16324976D01*
X18626548Y-16315452D02*
X18645595Y-16324976D01*
X18683690Y-16324976D01*
X18702738Y-16315452D01*
X18712262Y-16296405D01*
X18712262Y-16286881D01*
X18702738Y-16267833D01*
X18683690Y-16258309D01*
X18655119Y-16258309D01*
X18636071Y-16248786D01*
X18626548Y-16229738D01*
X18626548Y-16220214D01*
X18636071Y-16201167D01*
X18655119Y-16191643D01*
X18683690Y-16191643D01*
X18702738Y-16201167D01*
X18778929Y-16401167D02*
X18788452Y-16391643D01*
X18807500Y-16363071D01*
X18817024Y-16344024D01*
X18826548Y-16315452D01*
X18836071Y-16267833D01*
X18836071Y-16229738D01*
X18826548Y-16182119D01*
X18817024Y-16153548D01*
X18807500Y-16134500D01*
X18788452Y-16105928D01*
X18778929Y-16096405D01*
D16*
X12160000Y-16536000D02*
X12197500Y-16498500D01*
X12160000Y-16461000D01*
X12122500Y-16498500D01*
X12160000Y-16536000D01*
D11*
X12493214Y-16388976D02*
X12512262Y-16388976D01*
X12531309Y-16398500D01*
X12540833Y-16408024D01*
X12550357Y-16427071D01*
X12559881Y-16465167D01*
X12559881Y-16512786D01*
X12550357Y-16550881D01*
X12540833Y-16569928D01*
X12531309Y-16579452D01*
X12512262Y-16588976D01*
X12493214Y-16588976D01*
X12474167Y-16579452D01*
X12464643Y-16569928D01*
X12455119Y-16550881D01*
X12445595Y-16512786D01*
X12445595Y-16465167D01*
X12455119Y-16427071D01*
X12464643Y-16408024D01*
X12474167Y-16398500D01*
X12493214Y-16388976D01*
X12645595Y-16569928D02*
X12655119Y-16579452D01*
X12645595Y-16588976D01*
X12636071Y-16579452D01*
X12645595Y-16569928D01*
X12645595Y-16588976D01*
X12721786Y-16388976D02*
X12855119Y-16388976D01*
X12769405Y-16588976D01*
X13026548Y-16388976D02*
X12931309Y-16388976D01*
X12921786Y-16484214D01*
X12931309Y-16474690D01*
X12950357Y-16465167D01*
X12997976Y-16465167D01*
X13017024Y-16474690D01*
X13026548Y-16484214D01*
X13036071Y-16503262D01*
X13036071Y-16550881D01*
X13026548Y-16569928D01*
X13017024Y-16579452D01*
X12997976Y-16588976D01*
X12950357Y-16588976D01*
X12931309Y-16579452D01*
X12921786Y-16569928D01*
X13159881Y-16388976D02*
X13178928Y-16388976D01*
X13197976Y-16398500D01*
X13207500Y-16408024D01*
X13217024Y-16427071D01*
X13226548Y-16465167D01*
X13226548Y-16512786D01*
X13217024Y-16550881D01*
X13207500Y-16569928D01*
X13197976Y-16579452D01*
X13178928Y-16588976D01*
X13159881Y-16588976D01*
X13140833Y-16579452D01*
X13131309Y-16569928D01*
X13121786Y-16550881D01*
X13112262Y-16512786D01*
X13112262Y-16465167D01*
X13121786Y-16427071D01*
X13131309Y-16408024D01*
X13140833Y-16398500D01*
X13159881Y-16388976D01*
X13312262Y-16588976D02*
X13312262Y-16455643D01*
X13312262Y-16474690D02*
X13321786Y-16465167D01*
X13340833Y-16455643D01*
X13369405Y-16455643D01*
X13388452Y-16465167D01*
X13397976Y-16484214D01*
X13397976Y-16588976D01*
X13397976Y-16484214D02*
X13407500Y-16465167D01*
X13426548Y-16455643D01*
X13455119Y-16455643D01*
X13474167Y-16465167D01*
X13483690Y-16484214D01*
X13483690Y-16588976D01*
X13578928Y-16588976D02*
X13578928Y-16455643D01*
X13578928Y-16474690D02*
X13588452Y-16465167D01*
X13607500Y-16455643D01*
X13636071Y-16455643D01*
X13655119Y-16465167D01*
X13664643Y-16484214D01*
X13664643Y-16588976D01*
X13664643Y-16484214D02*
X13674167Y-16465167D01*
X13693214Y-16455643D01*
X13721786Y-16455643D01*
X13740833Y-16465167D01*
X13750357Y-16484214D01*
X13750357Y-16588976D01*
X14140833Y-16379452D02*
X13969405Y-16636595D01*
X14397976Y-16388976D02*
X14417024Y-16388976D01*
X14436071Y-16398500D01*
X14445595Y-16408024D01*
X14455119Y-16427071D01*
X14464643Y-16465167D01*
X14464643Y-16512786D01*
X14455119Y-16550881D01*
X14445595Y-16569928D01*
X14436071Y-16579452D01*
X14417024Y-16588976D01*
X14397976Y-16588976D01*
X14378928Y-16579452D01*
X14369405Y-16569928D01*
X14359881Y-16550881D01*
X14350357Y-16512786D01*
X14350357Y-16465167D01*
X14359881Y-16427071D01*
X14369405Y-16408024D01*
X14378928Y-16398500D01*
X14397976Y-16388976D01*
X14550357Y-16569928D02*
X14559881Y-16579452D01*
X14550357Y-16588976D01*
X14540833Y-16579452D01*
X14550357Y-16569928D01*
X14550357Y-16588976D01*
X14683690Y-16388976D02*
X14702738Y-16388976D01*
X14721786Y-16398500D01*
X14731309Y-16408024D01*
X14740833Y-16427071D01*
X14750357Y-16465167D01*
X14750357Y-16512786D01*
X14740833Y-16550881D01*
X14731309Y-16569928D01*
X14721786Y-16579452D01*
X14702738Y-16588976D01*
X14683690Y-16588976D01*
X14664643Y-16579452D01*
X14655119Y-16569928D01*
X14645595Y-16550881D01*
X14636071Y-16512786D01*
X14636071Y-16465167D01*
X14645595Y-16427071D01*
X14655119Y-16408024D01*
X14664643Y-16398500D01*
X14683690Y-16388976D01*
X14826548Y-16408024D02*
X14836071Y-16398500D01*
X14855119Y-16388976D01*
X14902738Y-16388976D01*
X14921786Y-16398500D01*
X14931309Y-16408024D01*
X14940833Y-16427071D01*
X14940833Y-16446119D01*
X14931309Y-16474690D01*
X14817024Y-16588976D01*
X14940833Y-16588976D01*
X15036071Y-16588976D02*
X15074167Y-16588976D01*
X15093214Y-16579452D01*
X15102738Y-16569928D01*
X15121786Y-16541357D01*
X15131309Y-16503262D01*
X15131309Y-16427071D01*
X15121786Y-16408024D01*
X15112262Y-16398500D01*
X15093214Y-16388976D01*
X15055119Y-16388976D01*
X15036071Y-16398500D01*
X15026548Y-16408024D01*
X15017024Y-16427071D01*
X15017024Y-16474690D01*
X15026548Y-16493738D01*
X15036071Y-16503262D01*
X15055119Y-16512786D01*
X15093214Y-16512786D01*
X15112262Y-16503262D01*
X15121786Y-16493738D01*
X15131309Y-16474690D01*
X15312262Y-16388976D02*
X15217024Y-16388976D01*
X15207500Y-16484214D01*
X15217024Y-16474690D01*
X15236071Y-16465167D01*
X15283690Y-16465167D01*
X15302738Y-16474690D01*
X15312262Y-16484214D01*
X15321786Y-16503262D01*
X15321786Y-16550881D01*
X15312262Y-16569928D01*
X15302738Y-16579452D01*
X15283690Y-16588976D01*
X15236071Y-16588976D01*
X15217024Y-16579452D01*
X15207500Y-16569928D01*
X15397976Y-16388976D02*
X15397976Y-16427071D01*
X15474167Y-16388976D02*
X15474167Y-16427071D01*
X15769405Y-16665167D02*
X15759881Y-16655643D01*
X15740833Y-16627071D01*
X15731309Y-16608024D01*
X15721786Y-16579452D01*
X15712262Y-16531833D01*
X15712262Y-16493738D01*
X15721786Y-16446119D01*
X15731309Y-16417548D01*
X15740833Y-16398500D01*
X15759881Y-16369928D01*
X15769405Y-16360405D01*
X15950357Y-16588976D02*
X15836071Y-16588976D01*
X15893214Y-16588976D02*
X15893214Y-16388976D01*
X15874167Y-16417548D01*
X15855119Y-16436595D01*
X15836071Y-16446119D01*
X16026548Y-16408024D02*
X16036071Y-16398500D01*
X16055119Y-16388976D01*
X16102738Y-16388976D01*
X16121786Y-16398500D01*
X16131309Y-16408024D01*
X16140833Y-16427071D01*
X16140833Y-16446119D01*
X16131309Y-16474690D01*
X16017024Y-16588976D01*
X16140833Y-16588976D01*
X16378928Y-16588976D02*
X16378928Y-16388976D01*
X16464643Y-16588976D02*
X16464643Y-16484214D01*
X16455119Y-16465167D01*
X16436071Y-16455643D01*
X16407500Y-16455643D01*
X16388452Y-16465167D01*
X16378928Y-16474690D01*
X16588452Y-16588976D02*
X16569405Y-16579452D01*
X16559881Y-16569928D01*
X16550357Y-16550881D01*
X16550357Y-16493738D01*
X16559881Y-16474690D01*
X16569405Y-16465167D01*
X16588452Y-16455643D01*
X16617024Y-16455643D01*
X16636071Y-16465167D01*
X16645595Y-16474690D01*
X16655119Y-16493738D01*
X16655119Y-16550881D01*
X16645595Y-16569928D01*
X16636071Y-16579452D01*
X16617024Y-16588976D01*
X16588452Y-16588976D01*
X16769405Y-16588976D02*
X16750357Y-16579452D01*
X16740833Y-16560405D01*
X16740833Y-16388976D01*
X16921786Y-16579452D02*
X16902738Y-16588976D01*
X16864643Y-16588976D01*
X16845595Y-16579452D01*
X16836071Y-16560405D01*
X16836071Y-16484214D01*
X16845595Y-16465167D01*
X16864643Y-16455643D01*
X16902738Y-16455643D01*
X16921786Y-16465167D01*
X16931310Y-16484214D01*
X16931310Y-16503262D01*
X16836071Y-16522309D01*
X17007500Y-16579452D02*
X17026548Y-16588976D01*
X17064643Y-16588976D01*
X17083690Y-16579452D01*
X17093214Y-16560405D01*
X17093214Y-16550881D01*
X17083690Y-16531833D01*
X17064643Y-16522309D01*
X17036071Y-16522309D01*
X17017024Y-16512786D01*
X17007500Y-16493738D01*
X17007500Y-16484214D01*
X17017024Y-16465167D01*
X17036071Y-16455643D01*
X17064643Y-16455643D01*
X17083690Y-16465167D01*
X17159881Y-16665167D02*
X17169405Y-16655643D01*
X17188452Y-16627071D01*
X17197976Y-16608024D01*
X17207500Y-16579452D01*
X17217024Y-16531833D01*
X17217024Y-16493738D01*
X17207500Y-16446119D01*
X17197976Y-16417548D01*
X17188452Y-16398500D01*
X17169405Y-16369928D01*
X17159881Y-16360405D01*
D17*
X12132500Y-16730000D02*
X12197500Y-16795000D01*
X12197500Y-16730000D02*
X12132500Y-16795000D01*
X12197500Y-16762500D02*
G75*
G03*
X12197500Y-16762500I-32500J0D01*
G01*
D11*
X12493214Y-16652976D02*
X12512262Y-16652976D01*
X12531309Y-16662500D01*
X12540833Y-16672024D01*
X12550357Y-16691071D01*
X12559881Y-16729167D01*
X12559881Y-16776786D01*
X12550357Y-16814881D01*
X12540833Y-16833929D01*
X12531309Y-16843452D01*
X12512262Y-16852976D01*
X12493214Y-16852976D01*
X12474167Y-16843452D01*
X12464643Y-16833929D01*
X12455119Y-16814881D01*
X12445595Y-16776786D01*
X12445595Y-16729167D01*
X12455119Y-16691071D01*
X12464643Y-16672024D01*
X12474167Y-16662500D01*
X12493214Y-16652976D01*
X12645595Y-16833929D02*
X12655119Y-16843452D01*
X12645595Y-16852976D01*
X12636071Y-16843452D01*
X12645595Y-16833929D01*
X12645595Y-16852976D01*
X12826548Y-16652976D02*
X12788452Y-16652976D01*
X12769405Y-16662500D01*
X12759881Y-16672024D01*
X12740833Y-16700595D01*
X12731309Y-16738690D01*
X12731309Y-16814881D01*
X12740833Y-16833929D01*
X12750357Y-16843452D01*
X12769405Y-16852976D01*
X12807500Y-16852976D01*
X12826548Y-16843452D01*
X12836071Y-16833929D01*
X12845595Y-16814881D01*
X12845595Y-16767262D01*
X12836071Y-16748214D01*
X12826548Y-16738690D01*
X12807500Y-16729167D01*
X12769405Y-16729167D01*
X12750357Y-16738690D01*
X12740833Y-16748214D01*
X12731309Y-16767262D01*
X13026548Y-16652976D02*
X12931309Y-16652976D01*
X12921786Y-16748214D01*
X12931309Y-16738690D01*
X12950357Y-16729167D01*
X12997976Y-16729167D01*
X13017024Y-16738690D01*
X13026548Y-16748214D01*
X13036071Y-16767262D01*
X13036071Y-16814881D01*
X13026548Y-16833929D01*
X13017024Y-16843452D01*
X12997976Y-16852976D01*
X12950357Y-16852976D01*
X12931309Y-16843452D01*
X12921786Y-16833929D01*
X13159881Y-16652976D02*
X13178928Y-16652976D01*
X13197976Y-16662500D01*
X13207500Y-16672024D01*
X13217024Y-16691071D01*
X13226548Y-16729167D01*
X13226548Y-16776786D01*
X13217024Y-16814881D01*
X13207500Y-16833929D01*
X13197976Y-16843452D01*
X13178928Y-16852976D01*
X13159881Y-16852976D01*
X13140833Y-16843452D01*
X13131309Y-16833929D01*
X13121786Y-16814881D01*
X13112262Y-16776786D01*
X13112262Y-16729167D01*
X13121786Y-16691071D01*
X13131309Y-16672024D01*
X13140833Y-16662500D01*
X13159881Y-16652976D01*
X13312262Y-16852976D02*
X13312262Y-16719643D01*
X13312262Y-16738690D02*
X13321786Y-16729167D01*
X13340833Y-16719643D01*
X13369405Y-16719643D01*
X13388452Y-16729167D01*
X13397976Y-16748214D01*
X13397976Y-16852976D01*
X13397976Y-16748214D02*
X13407500Y-16729167D01*
X13426548Y-16719643D01*
X13455119Y-16719643D01*
X13474167Y-16729167D01*
X13483690Y-16748214D01*
X13483690Y-16852976D01*
X13578928Y-16852976D02*
X13578928Y-16719643D01*
X13578928Y-16738690D02*
X13588452Y-16729167D01*
X13607500Y-16719643D01*
X13636071Y-16719643D01*
X13655119Y-16729167D01*
X13664643Y-16748214D01*
X13664643Y-16852976D01*
X13664643Y-16748214D02*
X13674167Y-16729167D01*
X13693214Y-16719643D01*
X13721786Y-16719643D01*
X13740833Y-16729167D01*
X13750357Y-16748214D01*
X13750357Y-16852976D01*
X14140833Y-16643452D02*
X13969405Y-16900595D01*
X14397976Y-16652976D02*
X14417024Y-16652976D01*
X14436071Y-16662500D01*
X14445595Y-16672024D01*
X14455119Y-16691071D01*
X14464643Y-16729167D01*
X14464643Y-16776786D01*
X14455119Y-16814881D01*
X14445595Y-16833929D01*
X14436071Y-16843452D01*
X14417024Y-16852976D01*
X14397976Y-16852976D01*
X14378928Y-16843452D01*
X14369405Y-16833929D01*
X14359881Y-16814881D01*
X14350357Y-16776786D01*
X14350357Y-16729167D01*
X14359881Y-16691071D01*
X14369405Y-16672024D01*
X14378928Y-16662500D01*
X14397976Y-16652976D01*
X14550357Y-16833929D02*
X14559881Y-16843452D01*
X14550357Y-16852976D01*
X14540833Y-16843452D01*
X14550357Y-16833929D01*
X14550357Y-16852976D01*
X14683690Y-16652976D02*
X14702738Y-16652976D01*
X14721786Y-16662500D01*
X14731309Y-16672024D01*
X14740833Y-16691071D01*
X14750357Y-16729167D01*
X14750357Y-16776786D01*
X14740833Y-16814881D01*
X14731309Y-16833929D01*
X14721786Y-16843452D01*
X14702738Y-16852976D01*
X14683690Y-16852976D01*
X14664643Y-16843452D01*
X14655119Y-16833929D01*
X14645595Y-16814881D01*
X14636071Y-16776786D01*
X14636071Y-16729167D01*
X14645595Y-16691071D01*
X14655119Y-16672024D01*
X14664643Y-16662500D01*
X14683690Y-16652976D01*
X14826548Y-16672024D02*
X14836071Y-16662500D01*
X14855119Y-16652976D01*
X14902738Y-16652976D01*
X14921786Y-16662500D01*
X14931309Y-16672024D01*
X14940833Y-16691071D01*
X14940833Y-16710119D01*
X14931309Y-16738690D01*
X14817024Y-16852976D01*
X14940833Y-16852976D01*
X15121786Y-16652976D02*
X15026548Y-16652976D01*
X15017024Y-16748214D01*
X15026548Y-16738690D01*
X15045595Y-16729167D01*
X15093214Y-16729167D01*
X15112262Y-16738690D01*
X15121786Y-16748214D01*
X15131309Y-16767262D01*
X15131309Y-16814881D01*
X15121786Y-16833929D01*
X15112262Y-16843452D01*
X15093214Y-16852976D01*
X15045595Y-16852976D01*
X15026548Y-16843452D01*
X15017024Y-16833929D01*
X15302738Y-16652976D02*
X15264643Y-16652976D01*
X15245595Y-16662500D01*
X15236071Y-16672024D01*
X15217024Y-16700595D01*
X15207500Y-16738690D01*
X15207500Y-16814881D01*
X15217024Y-16833929D01*
X15226548Y-16843452D01*
X15245595Y-16852976D01*
X15283690Y-16852976D01*
X15302738Y-16843452D01*
X15312262Y-16833929D01*
X15321786Y-16814881D01*
X15321786Y-16767262D01*
X15312262Y-16748214D01*
X15302738Y-16738690D01*
X15283690Y-16729167D01*
X15245595Y-16729167D01*
X15226548Y-16738690D01*
X15217024Y-16748214D01*
X15207500Y-16767262D01*
X15397976Y-16652976D02*
X15397976Y-16691071D01*
X15474167Y-16652976D02*
X15474167Y-16691071D01*
X15769405Y-16929167D02*
X15759881Y-16919643D01*
X15740833Y-16891071D01*
X15731309Y-16872024D01*
X15721786Y-16843452D01*
X15712262Y-16795833D01*
X15712262Y-16757738D01*
X15721786Y-16710119D01*
X15731309Y-16681548D01*
X15740833Y-16662500D01*
X15759881Y-16633928D01*
X15769405Y-16624405D01*
X15874167Y-16738690D02*
X15855119Y-16729167D01*
X15845595Y-16719643D01*
X15836071Y-16700595D01*
X15836071Y-16691071D01*
X15845595Y-16672024D01*
X15855119Y-16662500D01*
X15874167Y-16652976D01*
X15912262Y-16652976D01*
X15931309Y-16662500D01*
X15940833Y-16672024D01*
X15950357Y-16691071D01*
X15950357Y-16700595D01*
X15940833Y-16719643D01*
X15931309Y-16729167D01*
X15912262Y-16738690D01*
X15874167Y-16738690D01*
X15855119Y-16748214D01*
X15845595Y-16757738D01*
X15836071Y-16776786D01*
X15836071Y-16814881D01*
X15845595Y-16833929D01*
X15855119Y-16843452D01*
X15874167Y-16852976D01*
X15912262Y-16852976D01*
X15931309Y-16843452D01*
X15940833Y-16833929D01*
X15950357Y-16814881D01*
X15950357Y-16776786D01*
X15940833Y-16757738D01*
X15931309Y-16748214D01*
X15912262Y-16738690D01*
X16188452Y-16852976D02*
X16188452Y-16652976D01*
X16274167Y-16852976D02*
X16274167Y-16748214D01*
X16264643Y-16729167D01*
X16245595Y-16719643D01*
X16217024Y-16719643D01*
X16197976Y-16729167D01*
X16188452Y-16738690D01*
X16397976Y-16852976D02*
X16378928Y-16843452D01*
X16369405Y-16833929D01*
X16359881Y-16814881D01*
X16359881Y-16757738D01*
X16369405Y-16738690D01*
X16378928Y-16729167D01*
X16397976Y-16719643D01*
X16426548Y-16719643D01*
X16445595Y-16729167D01*
X16455119Y-16738690D01*
X16464643Y-16757738D01*
X16464643Y-16814881D01*
X16455119Y-16833929D01*
X16445595Y-16843452D01*
X16426548Y-16852976D01*
X16397976Y-16852976D01*
X16578928Y-16852976D02*
X16559881Y-16843452D01*
X16550357Y-16824405D01*
X16550357Y-16652976D01*
X16731309Y-16843452D02*
X16712262Y-16852976D01*
X16674167Y-16852976D01*
X16655119Y-16843452D01*
X16645595Y-16824405D01*
X16645595Y-16748214D01*
X16655119Y-16729167D01*
X16674167Y-16719643D01*
X16712262Y-16719643D01*
X16731309Y-16729167D01*
X16740833Y-16748214D01*
X16740833Y-16767262D01*
X16645595Y-16786310D01*
X16817024Y-16843452D02*
X16836071Y-16852976D01*
X16874167Y-16852976D01*
X16893214Y-16843452D01*
X16902738Y-16824405D01*
X16902738Y-16814881D01*
X16893214Y-16795833D01*
X16874167Y-16786310D01*
X16845595Y-16786310D01*
X16826548Y-16776786D01*
X16817024Y-16757738D01*
X16817024Y-16748214D01*
X16826548Y-16729167D01*
X16845595Y-16719643D01*
X16874167Y-16719643D01*
X16893214Y-16729167D01*
X16969405Y-16929167D02*
X16978929Y-16919643D01*
X16997976Y-16891071D01*
X17007500Y-16872024D01*
X17017024Y-16843452D01*
X17026548Y-16795833D01*
X17026548Y-16757738D01*
X17017024Y-16710119D01*
X17007500Y-16681548D01*
X16997976Y-16662500D01*
X16978929Y-16633928D01*
X16969405Y-16624405D01*
X17331310Y-16929167D02*
X17321786Y-16919643D01*
X17302738Y-16891071D01*
X17293214Y-16872024D01*
X17283690Y-16843452D01*
X17274167Y-16795833D01*
X17274167Y-16757738D01*
X17283690Y-16710119D01*
X17293214Y-16681548D01*
X17302738Y-16662500D01*
X17321786Y-16633928D01*
X17331310Y-16624405D01*
X17407500Y-16719643D02*
X17407500Y-16852976D01*
X17407500Y-16738690D02*
X17417024Y-16729167D01*
X17436071Y-16719643D01*
X17464643Y-16719643D01*
X17483690Y-16729167D01*
X17493214Y-16748214D01*
X17493214Y-16852976D01*
X17617024Y-16852976D02*
X17597976Y-16843452D01*
X17588452Y-16833929D01*
X17578929Y-16814881D01*
X17578929Y-16757738D01*
X17588452Y-16738690D01*
X17597976Y-16729167D01*
X17617024Y-16719643D01*
X17645595Y-16719643D01*
X17664643Y-16729167D01*
X17674167Y-16738690D01*
X17683690Y-16757738D01*
X17683690Y-16814881D01*
X17674167Y-16833929D01*
X17664643Y-16843452D01*
X17645595Y-16852976D01*
X17617024Y-16852976D01*
X17740833Y-16719643D02*
X17817024Y-16719643D01*
X17769405Y-16652976D02*
X17769405Y-16824405D01*
X17778929Y-16843452D01*
X17797976Y-16852976D01*
X17817024Y-16852976D01*
X18036071Y-16719643D02*
X18036071Y-16919643D01*
X18036071Y-16729167D02*
X18055119Y-16719643D01*
X18093214Y-16719643D01*
X18112262Y-16729167D01*
X18121786Y-16738690D01*
X18131310Y-16757738D01*
X18131310Y-16814881D01*
X18121786Y-16833929D01*
X18112262Y-16843452D01*
X18093214Y-16852976D01*
X18055119Y-16852976D01*
X18036071Y-16843452D01*
X18245595Y-16852976D02*
X18226548Y-16843452D01*
X18217024Y-16824405D01*
X18217024Y-16652976D01*
X18407500Y-16852976D02*
X18407500Y-16748214D01*
X18397976Y-16729167D01*
X18378929Y-16719643D01*
X18340833Y-16719643D01*
X18321786Y-16729167D01*
X18407500Y-16843452D02*
X18388452Y-16852976D01*
X18340833Y-16852976D01*
X18321786Y-16843452D01*
X18312262Y-16824405D01*
X18312262Y-16805357D01*
X18321786Y-16786310D01*
X18340833Y-16776786D01*
X18388452Y-16776786D01*
X18407500Y-16767262D01*
X18474167Y-16719643D02*
X18550357Y-16719643D01*
X18502738Y-16652976D02*
X18502738Y-16824405D01*
X18512262Y-16843452D01*
X18531310Y-16852976D01*
X18550357Y-16852976D01*
X18693214Y-16843452D02*
X18674167Y-16852976D01*
X18636071Y-16852976D01*
X18617024Y-16843452D01*
X18607500Y-16824405D01*
X18607500Y-16748214D01*
X18617024Y-16729167D01*
X18636071Y-16719643D01*
X18674167Y-16719643D01*
X18693214Y-16729167D01*
X18702738Y-16748214D01*
X18702738Y-16767262D01*
X18607500Y-16786310D01*
X18874167Y-16852976D02*
X18874167Y-16652976D01*
X18874167Y-16843452D02*
X18855119Y-16852976D01*
X18817024Y-16852976D01*
X18797976Y-16843452D01*
X18788452Y-16833929D01*
X18778929Y-16814881D01*
X18778929Y-16757738D01*
X18788452Y-16738690D01*
X18797976Y-16729167D01*
X18817024Y-16719643D01*
X18855119Y-16719643D01*
X18874167Y-16729167D01*
X18950357Y-16929167D02*
X18959881Y-16919643D01*
X18978929Y-16891071D01*
X18988452Y-16872024D01*
X18997976Y-16843452D01*
X19007500Y-16795833D01*
X19007500Y-16757738D01*
X18997976Y-16710119D01*
X18988452Y-16681548D01*
X18978929Y-16662500D01*
X18959881Y-16633928D01*
X18950357Y-16624405D01*
X11997500Y-16926500D02*
X12197500Y-17126500D01*
X12197500Y-16926500D02*
X11997500Y-17126500D01*
X12097500Y-16926500D02*
X12097500Y-17126500D01*
X11997500Y-17026500D02*
X12197500Y-17026500D01*
X12445595Y-16936024D02*
X12455119Y-16926500D01*
X12474167Y-16916976D01*
X12521786Y-16916976D01*
X12540833Y-16926500D01*
X12550357Y-16936024D01*
X12559881Y-16955071D01*
X12559881Y-16974119D01*
X12550357Y-17002690D01*
X12436071Y-17116976D01*
X12559881Y-17116976D01*
X12645595Y-17097929D02*
X12655119Y-17107452D01*
X12645595Y-17116976D01*
X12636071Y-17107452D01*
X12645595Y-17097929D01*
X12645595Y-17116976D01*
X12731309Y-16936024D02*
X12740833Y-16926500D01*
X12759881Y-16916976D01*
X12807500Y-16916976D01*
X12826548Y-16926500D01*
X12836071Y-16936024D01*
X12845595Y-16955071D01*
X12845595Y-16974119D01*
X12836071Y-17002690D01*
X12721786Y-17116976D01*
X12845595Y-17116976D01*
X12969405Y-16916976D02*
X12988452Y-16916976D01*
X13007500Y-16926500D01*
X13017024Y-16936024D01*
X13026548Y-16955071D01*
X13036071Y-16993167D01*
X13036071Y-17040786D01*
X13026548Y-17078881D01*
X13017024Y-17097929D01*
X13007500Y-17107452D01*
X12988452Y-17116976D01*
X12969405Y-17116976D01*
X12950357Y-17107452D01*
X12940833Y-17097929D01*
X12931309Y-17078881D01*
X12921786Y-17040786D01*
X12921786Y-16993167D01*
X12931309Y-16955071D01*
X12940833Y-16936024D01*
X12950357Y-16926500D01*
X12969405Y-16916976D01*
X13159881Y-16916976D02*
X13178928Y-16916976D01*
X13197976Y-16926500D01*
X13207500Y-16936024D01*
X13217024Y-16955071D01*
X13226548Y-16993167D01*
X13226548Y-17040786D01*
X13217024Y-17078881D01*
X13207500Y-17097929D01*
X13197976Y-17107452D01*
X13178928Y-17116976D01*
X13159881Y-17116976D01*
X13140833Y-17107452D01*
X13131309Y-17097929D01*
X13121786Y-17078881D01*
X13112262Y-17040786D01*
X13112262Y-16993167D01*
X13121786Y-16955071D01*
X13131309Y-16936024D01*
X13140833Y-16926500D01*
X13159881Y-16916976D01*
X13312262Y-17116976D02*
X13312262Y-16983643D01*
X13312262Y-17002690D02*
X13321786Y-16993167D01*
X13340833Y-16983643D01*
X13369405Y-16983643D01*
X13388452Y-16993167D01*
X13397976Y-17012214D01*
X13397976Y-17116976D01*
X13397976Y-17012214D02*
X13407500Y-16993167D01*
X13426548Y-16983643D01*
X13455119Y-16983643D01*
X13474167Y-16993167D01*
X13483690Y-17012214D01*
X13483690Y-17116976D01*
X13578928Y-17116976D02*
X13578928Y-16983643D01*
X13578928Y-17002690D02*
X13588452Y-16993167D01*
X13607500Y-16983643D01*
X13636071Y-16983643D01*
X13655119Y-16993167D01*
X13664643Y-17012214D01*
X13664643Y-17116976D01*
X13664643Y-17012214D02*
X13674167Y-16993167D01*
X13693214Y-16983643D01*
X13721786Y-16983643D01*
X13740833Y-16993167D01*
X13750357Y-17012214D01*
X13750357Y-17116976D01*
X14140833Y-16907452D02*
X13969405Y-17164595D01*
X14397976Y-16916976D02*
X14417024Y-16916976D01*
X14436071Y-16926500D01*
X14445595Y-16936024D01*
X14455119Y-16955071D01*
X14464643Y-16993167D01*
X14464643Y-17040786D01*
X14455119Y-17078881D01*
X14445595Y-17097929D01*
X14436071Y-17107452D01*
X14417024Y-17116976D01*
X14397976Y-17116976D01*
X14378928Y-17107452D01*
X14369405Y-17097929D01*
X14359881Y-17078881D01*
X14350357Y-17040786D01*
X14350357Y-16993167D01*
X14359881Y-16955071D01*
X14369405Y-16936024D01*
X14378928Y-16926500D01*
X14397976Y-16916976D01*
X14550357Y-17097929D02*
X14559881Y-17107452D01*
X14550357Y-17116976D01*
X14540833Y-17107452D01*
X14550357Y-17097929D01*
X14550357Y-17116976D01*
X14683690Y-16916976D02*
X14702738Y-16916976D01*
X14721786Y-16926500D01*
X14731309Y-16936024D01*
X14740833Y-16955071D01*
X14750357Y-16993167D01*
X14750357Y-17040786D01*
X14740833Y-17078881D01*
X14731309Y-17097929D01*
X14721786Y-17107452D01*
X14702738Y-17116976D01*
X14683690Y-17116976D01*
X14664643Y-17107452D01*
X14655119Y-17097929D01*
X14645595Y-17078881D01*
X14636071Y-17040786D01*
X14636071Y-16993167D01*
X14645595Y-16955071D01*
X14655119Y-16936024D01*
X14664643Y-16926500D01*
X14683690Y-16916976D01*
X14864643Y-17002690D02*
X14845595Y-16993167D01*
X14836071Y-16983643D01*
X14826548Y-16964595D01*
X14826548Y-16955071D01*
X14836071Y-16936024D01*
X14845595Y-16926500D01*
X14864643Y-16916976D01*
X14902738Y-16916976D01*
X14921786Y-16926500D01*
X14931309Y-16936024D01*
X14940833Y-16955071D01*
X14940833Y-16964595D01*
X14931309Y-16983643D01*
X14921786Y-16993167D01*
X14902738Y-17002690D01*
X14864643Y-17002690D01*
X14845595Y-17012214D01*
X14836071Y-17021738D01*
X14826548Y-17040786D01*
X14826548Y-17078881D01*
X14836071Y-17097929D01*
X14845595Y-17107452D01*
X14864643Y-17116976D01*
X14902738Y-17116976D01*
X14921786Y-17107452D01*
X14931309Y-17097929D01*
X14940833Y-17078881D01*
X14940833Y-17040786D01*
X14931309Y-17021738D01*
X14921786Y-17012214D01*
X14902738Y-17002690D01*
X15112262Y-16916976D02*
X15074167Y-16916976D01*
X15055119Y-16926500D01*
X15045595Y-16936024D01*
X15026548Y-16964595D01*
X15017024Y-17002690D01*
X15017024Y-17078881D01*
X15026548Y-17097929D01*
X15036071Y-17107452D01*
X15055119Y-17116976D01*
X15093214Y-17116976D01*
X15112262Y-17107452D01*
X15121786Y-17097929D01*
X15131309Y-17078881D01*
X15131309Y-17031262D01*
X15121786Y-17012214D01*
X15112262Y-17002690D01*
X15093214Y-16993167D01*
X15055119Y-16993167D01*
X15036071Y-17002690D01*
X15026548Y-17012214D01*
X15017024Y-17031262D01*
X15302738Y-16916976D02*
X15264643Y-16916976D01*
X15245595Y-16926500D01*
X15236071Y-16936024D01*
X15217024Y-16964595D01*
X15207500Y-17002690D01*
X15207500Y-17078881D01*
X15217024Y-17097929D01*
X15226548Y-17107452D01*
X15245595Y-17116976D01*
X15283690Y-17116976D01*
X15302738Y-17107452D01*
X15312262Y-17097929D01*
X15321786Y-17078881D01*
X15321786Y-17031262D01*
X15312262Y-17012214D01*
X15302738Y-17002690D01*
X15283690Y-16993167D01*
X15245595Y-16993167D01*
X15226548Y-17002690D01*
X15217024Y-17012214D01*
X15207500Y-17031262D01*
X15397976Y-16916976D02*
X15397976Y-16955071D01*
X15474167Y-16916976D02*
X15474167Y-16955071D01*
X15769405Y-17193167D02*
X15759881Y-17183643D01*
X15740833Y-17155071D01*
X15731309Y-17136024D01*
X15721786Y-17107452D01*
X15712262Y-17059833D01*
X15712262Y-17021738D01*
X15721786Y-16974119D01*
X15731309Y-16945548D01*
X15740833Y-16926500D01*
X15759881Y-16897929D01*
X15769405Y-16888405D01*
X15836071Y-16936024D02*
X15845595Y-16926500D01*
X15864643Y-16916976D01*
X15912262Y-16916976D01*
X15931309Y-16926500D01*
X15940833Y-16936024D01*
X15950357Y-16955071D01*
X15950357Y-16974119D01*
X15940833Y-17002690D01*
X15826548Y-17116976D01*
X15950357Y-17116976D01*
X16074167Y-16916976D02*
X16093214Y-16916976D01*
X16112262Y-16926500D01*
X16121786Y-16936024D01*
X16131309Y-16955071D01*
X16140833Y-16993167D01*
X16140833Y-17040786D01*
X16131309Y-17078881D01*
X16121786Y-17097929D01*
X16112262Y-17107452D01*
X16093214Y-17116976D01*
X16074167Y-17116976D01*
X16055119Y-17107452D01*
X16045595Y-17097929D01*
X16036071Y-17078881D01*
X16026548Y-17040786D01*
X16026548Y-16993167D01*
X16036071Y-16955071D01*
X16045595Y-16936024D01*
X16055119Y-16926500D01*
X16074167Y-16916976D01*
X16378928Y-17116976D02*
X16378928Y-16916976D01*
X16464643Y-17116976D02*
X16464643Y-17012214D01*
X16455119Y-16993167D01*
X16436071Y-16983643D01*
X16407500Y-16983643D01*
X16388452Y-16993167D01*
X16378928Y-17002690D01*
X16588452Y-17116976D02*
X16569405Y-17107452D01*
X16559881Y-17097929D01*
X16550357Y-17078881D01*
X16550357Y-17021738D01*
X16559881Y-17002690D01*
X16569405Y-16993167D01*
X16588452Y-16983643D01*
X16617024Y-16983643D01*
X16636071Y-16993167D01*
X16645595Y-17002690D01*
X16655119Y-17021738D01*
X16655119Y-17078881D01*
X16645595Y-17097929D01*
X16636071Y-17107452D01*
X16617024Y-17116976D01*
X16588452Y-17116976D01*
X16769405Y-17116976D02*
X16750357Y-17107452D01*
X16740833Y-17088405D01*
X16740833Y-16916976D01*
X16921786Y-17107452D02*
X16902738Y-17116976D01*
X16864643Y-17116976D01*
X16845595Y-17107452D01*
X16836071Y-17088405D01*
X16836071Y-17012214D01*
X16845595Y-16993167D01*
X16864643Y-16983643D01*
X16902738Y-16983643D01*
X16921786Y-16993167D01*
X16931310Y-17012214D01*
X16931310Y-17031262D01*
X16836071Y-17050310D01*
X17007500Y-17107452D02*
X17026548Y-17116976D01*
X17064643Y-17116976D01*
X17083690Y-17107452D01*
X17093214Y-17088405D01*
X17093214Y-17078881D01*
X17083690Y-17059833D01*
X17064643Y-17050310D01*
X17036071Y-17050310D01*
X17017024Y-17040786D01*
X17007500Y-17021738D01*
X17007500Y-17012214D01*
X17017024Y-16993167D01*
X17036071Y-16983643D01*
X17064643Y-16983643D01*
X17083690Y-16993167D01*
X17159881Y-17193167D02*
X17169405Y-17183643D01*
X17188452Y-17155071D01*
X17197976Y-17136024D01*
X17207500Y-17107452D01*
X17217024Y-17059833D01*
X17217024Y-17021738D01*
X17207500Y-16974119D01*
X17197976Y-16945548D01*
X17188452Y-16926500D01*
X17169405Y-16897929D01*
X17159881Y-16888405D01*
X17521786Y-17193167D02*
X17512262Y-17183643D01*
X17493214Y-17155071D01*
X17483690Y-17136024D01*
X17474167Y-17107452D01*
X17464643Y-17059833D01*
X17464643Y-17021738D01*
X17474167Y-16974119D01*
X17483690Y-16945548D01*
X17493214Y-16926500D01*
X17512262Y-16897929D01*
X17521786Y-16888405D01*
X17597976Y-16983643D02*
X17597976Y-17116976D01*
X17597976Y-17002690D02*
X17607500Y-16993167D01*
X17626548Y-16983643D01*
X17655119Y-16983643D01*
X17674167Y-16993167D01*
X17683690Y-17012214D01*
X17683690Y-17116976D01*
X17807500Y-17116976D02*
X17788452Y-17107452D01*
X17778929Y-17097929D01*
X17769405Y-17078881D01*
X17769405Y-17021738D01*
X17778929Y-17002690D01*
X17788452Y-16993167D01*
X17807500Y-16983643D01*
X17836071Y-16983643D01*
X17855119Y-16993167D01*
X17864643Y-17002690D01*
X17874167Y-17021738D01*
X17874167Y-17078881D01*
X17864643Y-17097929D01*
X17855119Y-17107452D01*
X17836071Y-17116976D01*
X17807500Y-17116976D01*
X17931310Y-16983643D02*
X18007500Y-16983643D01*
X17959881Y-16916976D02*
X17959881Y-17088405D01*
X17969405Y-17107452D01*
X17988452Y-17116976D01*
X18007500Y-17116976D01*
X18226548Y-16983643D02*
X18226548Y-17183643D01*
X18226548Y-16993167D02*
X18245595Y-16983643D01*
X18283690Y-16983643D01*
X18302738Y-16993167D01*
X18312262Y-17002690D01*
X18321786Y-17021738D01*
X18321786Y-17078881D01*
X18312262Y-17097929D01*
X18302738Y-17107452D01*
X18283690Y-17116976D01*
X18245595Y-17116976D01*
X18226548Y-17107452D01*
X18436071Y-17116976D02*
X18417024Y-17107452D01*
X18407500Y-17088405D01*
X18407500Y-16916976D01*
X18597976Y-17116976D02*
X18597976Y-17012214D01*
X18588452Y-16993167D01*
X18569405Y-16983643D01*
X18531310Y-16983643D01*
X18512262Y-16993167D01*
X18597976Y-17107452D02*
X18578929Y-17116976D01*
X18531310Y-17116976D01*
X18512262Y-17107452D01*
X18502738Y-17088405D01*
X18502738Y-17069357D01*
X18512262Y-17050310D01*
X18531310Y-17040786D01*
X18578929Y-17040786D01*
X18597976Y-17031262D01*
X18664643Y-16983643D02*
X18740833Y-16983643D01*
X18693214Y-16916976D02*
X18693214Y-17088405D01*
X18702738Y-17107452D01*
X18721786Y-17116976D01*
X18740833Y-17116976D01*
X18883690Y-17107452D02*
X18864643Y-17116976D01*
X18826548Y-17116976D01*
X18807500Y-17107452D01*
X18797976Y-17088405D01*
X18797976Y-17012214D01*
X18807500Y-16993167D01*
X18826548Y-16983643D01*
X18864643Y-16983643D01*
X18883690Y-16993167D01*
X18893214Y-17012214D01*
X18893214Y-17031262D01*
X18797976Y-17050310D01*
X19064643Y-17116976D02*
X19064643Y-16916976D01*
X19064643Y-17107452D02*
X19045595Y-17116976D01*
X19007500Y-17116976D01*
X18988452Y-17107452D01*
X18978929Y-17097929D01*
X18969405Y-17078881D01*
X18969405Y-17021738D01*
X18978929Y-17002690D01*
X18988452Y-16993167D01*
X19007500Y-16983643D01*
X19045595Y-16983643D01*
X19064643Y-16993167D01*
X19140833Y-17193167D02*
X19150357Y-17183643D01*
X19169405Y-17155071D01*
X19178929Y-17136024D01*
X19188452Y-17107452D01*
X19197976Y-17059833D01*
X19197976Y-17021738D01*
X19188452Y-16974119D01*
X19178929Y-16945548D01*
X19169405Y-16926500D01*
X19150357Y-16897929D01*
X19140833Y-16888405D01*
M02*
