%TF.GenerationSoftware,KiCad,Pcbnew,(6.0.4)*%
%TF.CreationDate,2022-09-20T18:54:46+09:00*%
%TF.ProjectId,mainboard_p_rev4,6d61696e-626f-4617-9264-5f705f726576,rev?*%
%TF.SameCoordinates,Original*%
%TF.FileFunction,Paste,Bot*%
%TF.FilePolarity,Positive*%
%FSLAX46Y46*%
G04 Gerber Fmt 4.6, Leading zero omitted, Abs format (unit mm)*
G04 Created by KiCad (PCBNEW (6.0.4)) date 2022-09-20 18:54:46*
%MOMM*%
%LPD*%
G01*
G04 APERTURE LIST*
G04 Aperture macros list*
%AMRoundRect*
0 Rectangle with rounded corners*
0 $1 Rounding radius*
0 $2 $3 $4 $5 $6 $7 $8 $9 X,Y pos of 4 corners*
0 Add a 4 corners polygon primitive as box body*
4,1,4,$2,$3,$4,$5,$6,$7,$8,$9,$2,$3,0*
0 Add four circle primitives for the rounded corners*
1,1,$1+$1,$2,$3*
1,1,$1+$1,$4,$5*
1,1,$1+$1,$6,$7*
1,1,$1+$1,$8,$9*
0 Add four rect primitives between the rounded corners*
20,1,$1+$1,$2,$3,$4,$5,0*
20,1,$1+$1,$4,$5,$6,$7,0*
20,1,$1+$1,$6,$7,$8,$9,0*
20,1,$1+$1,$8,$9,$2,$3,0*%
G04 Aperture macros list end*
%ADD10R,1.700000X1.700000*%
%ADD11RoundRect,0.237500X0.237500X-0.250000X0.237500X0.250000X-0.237500X0.250000X-0.237500X-0.250000X0*%
%ADD12R,1.350000X2.000000*%
%ADD13O,1.350000X2.000000*%
%ADD14RoundRect,0.250000X0.325000X0.650000X-0.325000X0.650000X-0.325000X-0.650000X0.325000X-0.650000X0*%
%ADD15RoundRect,0.225000X0.250000X-0.225000X0.250000X0.225000X-0.250000X0.225000X-0.250000X-0.225000X0*%
%ADD16RoundRect,0.225000X0.225000X0.250000X-0.225000X0.250000X-0.225000X-0.250000X0.225000X-0.250000X0*%
%ADD17RoundRect,0.225000X-0.225000X-0.250000X0.225000X-0.250000X0.225000X0.250000X-0.225000X0.250000X0*%
%ADD18RoundRect,0.250000X-0.650000X0.325000X-0.650000X-0.325000X0.650000X-0.325000X0.650000X0.325000X0*%
%ADD19R,2.000000X1.350000*%
%ADD20O,2.000000X1.350000*%
%ADD21RoundRect,0.250000X0.650000X-0.325000X0.650000X0.325000X-0.650000X0.325000X-0.650000X-0.325000X0*%
%ADD22RoundRect,0.225000X-0.250000X0.225000X-0.250000X-0.225000X0.250000X-0.225000X0.250000X0.225000X0*%
%ADD23R,0.950000X1.750000*%
%ADD24R,3.200000X1.750000*%
%ADD25RoundRect,0.200000X-0.275000X0.200000X-0.275000X-0.200000X0.275000X-0.200000X0.275000X0.200000X0*%
%ADD26RoundRect,0.250000X-0.325000X-0.650000X0.325000X-0.650000X0.325000X0.650000X-0.325000X0.650000X0*%
%ADD27R,1.300000X0.600000*%
%ADD28R,1.200000X0.900000*%
G04 APERTURE END LIST*
D10*
%TO.C,REF\u002A\u002A17*%
X177150400Y-114588400D03*
%TD*%
D11*
%TO.C,R90*%
X172299000Y-118396500D03*
X172299000Y-116571500D03*
%TD*%
D12*
%TO.C,M7*%
X199406400Y-114613800D03*
D13*
X201406400Y-114613800D03*
%TD*%
D14*
%TO.C,C109*%
X175806000Y-137296000D03*
X172856000Y-137296000D03*
%TD*%
D15*
%TO.C,C92*%
X194193800Y-122437000D03*
X194193800Y-120887000D03*
%TD*%
D16*
%TO.C,C93*%
X192759000Y-123122800D03*
X191209000Y-123122800D03*
%TD*%
D12*
%TO.C,M8*%
X172289600Y-114410600D03*
D13*
X174289600Y-114410600D03*
%TD*%
D11*
%TO.C,R89*%
X198638800Y-118853700D03*
X198638800Y-117028700D03*
%TD*%
D17*
%TO.C,R81*%
X180541000Y-128228200D03*
X182091000Y-128228200D03*
%TD*%
D18*
%TO.C,C113*%
X203642600Y-129875600D03*
X203642600Y-132825600D03*
%TD*%
D19*
%TO.C,J32*%
X205166600Y-124129400D03*
D20*
X205166600Y-126129400D03*
%TD*%
D19*
%TO.C,J28*%
X170952800Y-134500000D03*
D20*
X170952800Y-132500000D03*
X170952800Y-130500000D03*
X170952800Y-128500000D03*
%TD*%
D21*
%TO.C,C108*%
X181544600Y-147026000D03*
X181544600Y-144076000D03*
%TD*%
D22*
%TO.C,C98*%
X203972800Y-141296200D03*
X203972800Y-142846200D03*
%TD*%
D15*
%TO.C,C101*%
X194295400Y-139518800D03*
X194295400Y-137968800D03*
%TD*%
D18*
%TO.C,C95*%
X203007600Y-117025000D03*
X203007600Y-119975000D03*
%TD*%
D23*
%TO.C,IC14*%
X182879400Y-137347200D03*
X180579400Y-137347200D03*
X178279400Y-137347200D03*
D24*
X180579400Y-131047200D03*
%TD*%
D11*
%TO.C,R87*%
X200137400Y-118853700D03*
X200137400Y-117028700D03*
%TD*%
D19*
%TO.C,J27*%
X184745000Y-146170000D03*
D20*
X184745000Y-144170000D03*
%TD*%
D17*
%TO.C,C103*%
X198346400Y-125434200D03*
X199896400Y-125434200D03*
%TD*%
%TO.C,C99*%
X184859000Y-133663800D03*
X186409000Y-133663800D03*
%TD*%
D19*
%TO.C,J29*%
X174077000Y-134454000D03*
D20*
X174077000Y-132454000D03*
X174077000Y-130454000D03*
X174077000Y-128454000D03*
%TD*%
D18*
%TO.C,C110*%
X181544600Y-139427800D03*
X181544600Y-142377800D03*
%TD*%
D17*
%TO.C,R76*%
X198321000Y-130539600D03*
X199871000Y-130539600D03*
%TD*%
D18*
%TO.C,C112*%
X177099600Y-115907400D03*
X177099600Y-118857400D03*
%TD*%
D25*
%TO.C,R85*%
X193700000Y-142875000D03*
X193700000Y-144525000D03*
%TD*%
%TO.C,R86*%
X191000000Y-142775000D03*
X191000000Y-144425000D03*
%TD*%
D17*
%TO.C,C96*%
X198270200Y-132063600D03*
X199820200Y-132063600D03*
%TD*%
D26*
%TO.C,C107*%
X190725000Y-146700000D03*
X193675000Y-146700000D03*
%TD*%
D16*
%TO.C,C105*%
X192733600Y-121649600D03*
X191183600Y-121649600D03*
%TD*%
D10*
%TO.C,REF\u002A\u002A18*%
X203500000Y-114500000D03*
%TD*%
D11*
%TO.C,R88*%
X173772200Y-118396500D03*
X173772200Y-116571500D03*
%TD*%
D27*
%TO.C,Q12*%
X185678200Y-139648000D03*
X185678200Y-141548000D03*
X183578200Y-140598000D03*
%TD*%
D28*
%TO.C,D7*%
X189545600Y-135087200D03*
X189545600Y-138387200D03*
%TD*%
D26*
%TO.C,C116*%
X199729200Y-123376800D03*
X202679200Y-123376800D03*
%TD*%
D10*
%TO.C,6*%
X177125000Y-138591400D03*
%TD*%
%TO.C,REF\u002A\u002A11*%
X133150400Y-114588400D03*
%TD*%
D11*
%TO.C,R67*%
X128299000Y-118396500D03*
X128299000Y-116571500D03*
%TD*%
D12*
%TO.C,M5*%
X155406400Y-114613800D03*
D13*
X157406400Y-114613800D03*
%TD*%
D14*
%TO.C,C79*%
X131806000Y-137296000D03*
X128856000Y-137296000D03*
%TD*%
D15*
%TO.C,C62*%
X150193800Y-122437000D03*
X150193800Y-120887000D03*
%TD*%
D16*
%TO.C,C63*%
X148759000Y-123122800D03*
X147209000Y-123122800D03*
%TD*%
D12*
%TO.C,M6*%
X128289600Y-114410600D03*
D13*
X130289600Y-114410600D03*
%TD*%
D11*
%TO.C,R66*%
X154638800Y-118853700D03*
X154638800Y-117028700D03*
%TD*%
D17*
%TO.C,R58*%
X136541000Y-128228200D03*
X138091000Y-128228200D03*
%TD*%
D18*
%TO.C,C83*%
X159642600Y-129875600D03*
X159642600Y-132825600D03*
%TD*%
D19*
%TO.C,J24*%
X161166600Y-124129400D03*
D20*
X161166600Y-126129400D03*
%TD*%
D19*
%TO.C,J20*%
X126952800Y-134500000D03*
D20*
X126952800Y-132500000D03*
X126952800Y-130500000D03*
X126952800Y-128500000D03*
%TD*%
D21*
%TO.C,C78*%
X137544600Y-147026000D03*
X137544600Y-144076000D03*
%TD*%
D22*
%TO.C,C68*%
X159972800Y-141296200D03*
X159972800Y-142846200D03*
%TD*%
D15*
%TO.C,C71*%
X150295400Y-139518800D03*
X150295400Y-137968800D03*
%TD*%
D18*
%TO.C,C65*%
X159007600Y-117025000D03*
X159007600Y-119975000D03*
%TD*%
D23*
%TO.C,IC6*%
X138879400Y-137347200D03*
X136579400Y-137347200D03*
X134279400Y-137347200D03*
D24*
X136579400Y-131047200D03*
%TD*%
D11*
%TO.C,R64*%
X156137400Y-118853700D03*
X156137400Y-117028700D03*
%TD*%
D19*
%TO.C,J19*%
X140745000Y-146170000D03*
D20*
X140745000Y-144170000D03*
%TD*%
D17*
%TO.C,C73*%
X154346400Y-125434200D03*
X155896400Y-125434200D03*
%TD*%
%TO.C,C69*%
X140859000Y-133663800D03*
X142409000Y-133663800D03*
%TD*%
D19*
%TO.C,J21*%
X130077000Y-134454000D03*
D20*
X130077000Y-132454000D03*
X130077000Y-130454000D03*
X130077000Y-128454000D03*
%TD*%
D18*
%TO.C,C80*%
X137544600Y-139427800D03*
X137544600Y-142377800D03*
%TD*%
D17*
%TO.C,R53*%
X154321000Y-130539600D03*
X155871000Y-130539600D03*
%TD*%
D18*
%TO.C,C82*%
X133099600Y-115907400D03*
X133099600Y-118857400D03*
%TD*%
D25*
%TO.C,R62*%
X149700000Y-142875000D03*
X149700000Y-144525000D03*
%TD*%
%TO.C,R63*%
X147000000Y-142775000D03*
X147000000Y-144425000D03*
%TD*%
D17*
%TO.C,C66*%
X154270200Y-132063600D03*
X155820200Y-132063600D03*
%TD*%
D26*
%TO.C,C77*%
X146725000Y-146700000D03*
X149675000Y-146700000D03*
%TD*%
D16*
%TO.C,C75*%
X148733600Y-121649600D03*
X147183600Y-121649600D03*
%TD*%
D10*
%TO.C,REF\u002A\u002A12*%
X159500000Y-114500000D03*
%TD*%
D11*
%TO.C,R65*%
X129772200Y-118396500D03*
X129772200Y-116571500D03*
%TD*%
D27*
%TO.C,Q9*%
X141678200Y-139648000D03*
X141678200Y-141548000D03*
X139578200Y-140598000D03*
%TD*%
D28*
%TO.C,D5*%
X145545600Y-135087200D03*
X145545600Y-138387200D03*
%TD*%
D26*
%TO.C,C86*%
X155729200Y-123376800D03*
X158679200Y-123376800D03*
%TD*%
D10*
%TO.C,4*%
X133125000Y-138591400D03*
%TD*%
%TO.C,REF\u002A\u002A5*%
X177150400Y-76588400D03*
%TD*%
D11*
%TO.C,R44*%
X172299000Y-80396500D03*
X172299000Y-78571500D03*
%TD*%
D12*
%TO.C,M3*%
X199406400Y-76613800D03*
D13*
X201406400Y-76613800D03*
%TD*%
D14*
%TO.C,C49*%
X175806000Y-99296000D03*
X172856000Y-99296000D03*
%TD*%
D15*
%TO.C,C25*%
X194193800Y-84437000D03*
X194193800Y-82887000D03*
%TD*%
D16*
%TO.C,C27*%
X192759000Y-85122800D03*
X191209000Y-85122800D03*
%TD*%
D12*
%TO.C,M4*%
X172289600Y-76410600D03*
D13*
X174289600Y-76410600D03*
%TD*%
D11*
%TO.C,R43*%
X198638800Y-80853700D03*
X198638800Y-79028700D03*
%TD*%
D17*
%TO.C,R35*%
X180541000Y-90228200D03*
X182091000Y-90228200D03*
%TD*%
D18*
%TO.C,C53*%
X203642600Y-91875600D03*
X203642600Y-94825600D03*
%TD*%
D19*
%TO.C,J16*%
X205166600Y-86129400D03*
D20*
X205166600Y-88129400D03*
%TD*%
D19*
%TO.C,J12*%
X170952800Y-96500000D03*
D20*
X170952800Y-94500000D03*
X170952800Y-92500000D03*
X170952800Y-90500000D03*
%TD*%
D21*
%TO.C,C48*%
X181544600Y-109026000D03*
X181544600Y-106076000D03*
%TD*%
D22*
%TO.C,C38*%
X203972800Y-103296200D03*
X203972800Y-104846200D03*
%TD*%
D15*
%TO.C,C41*%
X194295400Y-101518800D03*
X194295400Y-99968800D03*
%TD*%
D18*
%TO.C,C29*%
X203007600Y-79025000D03*
X203007600Y-81975000D03*
%TD*%
D23*
%TO.C,IC4*%
X182879400Y-99347200D03*
X180579400Y-99347200D03*
X178279400Y-99347200D03*
D24*
X180579400Y-93047200D03*
%TD*%
D11*
%TO.C,R41*%
X200137400Y-80853700D03*
X200137400Y-79028700D03*
%TD*%
D19*
%TO.C,J9*%
X184745000Y-108170000D03*
D20*
X184745000Y-106170000D03*
%TD*%
D17*
%TO.C,C43*%
X198346400Y-87434200D03*
X199896400Y-87434200D03*
%TD*%
%TO.C,C39*%
X184859000Y-95663800D03*
X186409000Y-95663800D03*
%TD*%
D19*
%TO.C,J13*%
X174077000Y-96454000D03*
D20*
X174077000Y-94454000D03*
X174077000Y-92454000D03*
X174077000Y-90454000D03*
%TD*%
D18*
%TO.C,C50*%
X181544600Y-101427800D03*
X181544600Y-104377800D03*
%TD*%
D17*
%TO.C,R30*%
X198321000Y-92539600D03*
X199871000Y-92539600D03*
%TD*%
D18*
%TO.C,C52*%
X177099600Y-77907400D03*
X177099600Y-80857400D03*
%TD*%
D25*
%TO.C,R39*%
X193700000Y-104875000D03*
X193700000Y-106525000D03*
%TD*%
%TO.C,R40*%
X191000000Y-104775000D03*
X191000000Y-106425000D03*
%TD*%
D17*
%TO.C,C31*%
X198270200Y-94063600D03*
X199820200Y-94063600D03*
%TD*%
D26*
%TO.C,C47*%
X190725000Y-108700000D03*
X193675000Y-108700000D03*
%TD*%
D16*
%TO.C,C45*%
X192733600Y-83649600D03*
X191183600Y-83649600D03*
%TD*%
D10*
%TO.C,REF\u002A\u002A6*%
X203500000Y-76500000D03*
%TD*%
D11*
%TO.C,R42*%
X173772200Y-80396500D03*
X173772200Y-78571500D03*
%TD*%
D27*
%TO.C,Q8*%
X185678200Y-101648000D03*
X185678200Y-103548000D03*
X183578200Y-102598000D03*
%TD*%
D28*
%TO.C,D2*%
X189545600Y-97087200D03*
X189545600Y-100387200D03*
%TD*%
D26*
%TO.C,C56*%
X199729200Y-85376800D03*
X202679200Y-85376800D03*
%TD*%
D10*
%TO.C,2*%
X177125000Y-100591400D03*
%TD*%
%TO.C,*%
X133125000Y-100591400D03*
%TD*%
D26*
%TO.C,C33*%
X155729200Y-85376800D03*
X158679200Y-85376800D03*
%TD*%
D18*
%TO.C,C22*%
X133099600Y-77907400D03*
X133099600Y-80857400D03*
%TD*%
D28*
%TO.C,D1*%
X145545600Y-97087200D03*
X145545600Y-100387200D03*
%TD*%
D18*
%TO.C,C20*%
X137544600Y-101427800D03*
X137544600Y-104377800D03*
%TD*%
D16*
%TO.C,C15*%
X148733600Y-83649600D03*
X147183600Y-83649600D03*
%TD*%
D19*
%TO.C,J4*%
X140745000Y-108170000D03*
D20*
X140745000Y-106170000D03*
%TD*%
D19*
%TO.C,J6*%
X130077000Y-96454000D03*
D20*
X130077000Y-94454000D03*
X130077000Y-92454000D03*
X130077000Y-90454000D03*
%TD*%
D17*
%TO.C,C9*%
X140859000Y-95663800D03*
X142409000Y-95663800D03*
%TD*%
%TO.C,R7*%
X154321000Y-92539600D03*
X155871000Y-92539600D03*
%TD*%
%TO.C,C13*%
X154346400Y-87434200D03*
X155896400Y-87434200D03*
%TD*%
D11*
%TO.C,R18*%
X156137400Y-80853700D03*
X156137400Y-79028700D03*
%TD*%
D23*
%TO.C,IC2*%
X138879400Y-99347200D03*
X136579400Y-99347200D03*
X134279400Y-99347200D03*
D24*
X136579400Y-93047200D03*
%TD*%
D27*
%TO.C,Q7*%
X141678200Y-101648000D03*
X141678200Y-103548000D03*
X139578200Y-102598000D03*
%TD*%
D26*
%TO.C,C17*%
X146725000Y-108700000D03*
X149675000Y-108700000D03*
%TD*%
D11*
%TO.C,R19*%
X129772200Y-80396500D03*
X129772200Y-78571500D03*
%TD*%
D10*
%TO.C,REF\u002A\u002A*%
X159500000Y-76500000D03*
%TD*%
D17*
%TO.C,C6*%
X154270200Y-94063600D03*
X155820200Y-94063600D03*
%TD*%
D25*
%TO.C,R17*%
X147000000Y-104775000D03*
X147000000Y-106425000D03*
%TD*%
%TO.C,R16*%
X149700000Y-104875000D03*
X149700000Y-106525000D03*
%TD*%
D12*
%TO.C,M2*%
X128289600Y-76410600D03*
D13*
X130289600Y-76410600D03*
%TD*%
D19*
%TO.C,J5*%
X126952800Y-96500000D03*
D20*
X126952800Y-94500000D03*
X126952800Y-92500000D03*
X126952800Y-90500000D03*
%TD*%
D18*
%TO.C,C23*%
X159642600Y-91875600D03*
X159642600Y-94825600D03*
%TD*%
D22*
%TO.C,C8*%
X159972800Y-103296200D03*
X159972800Y-104846200D03*
%TD*%
D17*
%TO.C,R12*%
X136541000Y-90228200D03*
X138091000Y-90228200D03*
%TD*%
D21*
%TO.C,C18*%
X137544600Y-109026000D03*
X137544600Y-106076000D03*
%TD*%
D14*
%TO.C,C19*%
X131806000Y-99296000D03*
X128856000Y-99296000D03*
%TD*%
D11*
%TO.C,R20*%
X154638800Y-80853700D03*
X154638800Y-79028700D03*
%TD*%
D10*
%TO.C,REF\u002A\u002A*%
X133150400Y-76588400D03*
%TD*%
D18*
%TO.C,C5*%
X159007600Y-79025000D03*
X159007600Y-81975000D03*
%TD*%
D12*
%TO.C,M1*%
X155406400Y-76613800D03*
D13*
X157406400Y-76613800D03*
%TD*%
D11*
%TO.C,R21*%
X128299000Y-80396500D03*
X128299000Y-78571500D03*
%TD*%
D19*
%TO.C,J11*%
X161166600Y-86129400D03*
D20*
X161166600Y-88129400D03*
%TD*%
D15*
%TO.C,C11*%
X150295400Y-101518800D03*
X150295400Y-99968800D03*
%TD*%
D16*
%TO.C,C3*%
X148759000Y-85122800D03*
X147209000Y-85122800D03*
%TD*%
D15*
%TO.C,C2*%
X150193800Y-84437000D03*
X150193800Y-82887000D03*
%TD*%
M02*
