%TF.GenerationSoftware,KiCad,Pcbnew,(6.0.4)*%
%TF.CreationDate,2022-12-28T21:19:57+09:00*%
%TF.ProjectId,prometheus-em,70726f6d-6574-4686-9575-732d656d2e6b,rev?*%
%TF.SameCoordinates,Original*%
%TF.FileFunction,Legend,Bot*%
%TF.FilePolarity,Positive*%
%FSLAX46Y46*%
G04 Gerber Fmt 4.6, Leading zero omitted, Abs format (unit mm)*
G04 Created by KiCad (PCBNEW (6.0.4)) date 2022-12-28 21:19:57*
%MOMM*%
%LPD*%
G01*
G04 APERTURE LIST*
%ADD10C,0.175000*%
%ADD11C,0.150000*%
%ADD12C,0.200000*%
%ADD13C,0.254000*%
%ADD14C,0.120000*%
G04 APERTURE END LIST*
D10*
X37781666Y-47278333D02*
X37081666Y-47278333D01*
X37581666Y-47511666D01*
X37081666Y-47745000D01*
X37781666Y-47745000D01*
X37781666Y-48178333D02*
X37748333Y-48111666D01*
X37715000Y-48078333D01*
X37648333Y-48045000D01*
X37448333Y-48045000D01*
X37381666Y-48078333D01*
X37348333Y-48111666D01*
X37315000Y-48178333D01*
X37315000Y-48278333D01*
X37348333Y-48345000D01*
X37381666Y-48378333D01*
X37448333Y-48411666D01*
X37648333Y-48411666D01*
X37715000Y-48378333D01*
X37748333Y-48345000D01*
X37781666Y-48278333D01*
X37781666Y-48178333D01*
X37315000Y-48611666D02*
X37315000Y-48878333D01*
X37081666Y-48711666D02*
X37681666Y-48711666D01*
X37748333Y-48745000D01*
X37781666Y-48811666D01*
X37781666Y-48878333D01*
X37781666Y-49211666D02*
X37748333Y-49145000D01*
X37715000Y-49111666D01*
X37648333Y-49078333D01*
X37448333Y-49078333D01*
X37381666Y-49111666D01*
X37348333Y-49145000D01*
X37315000Y-49211666D01*
X37315000Y-49311666D01*
X37348333Y-49378333D01*
X37381666Y-49411666D01*
X37448333Y-49445000D01*
X37648333Y-49445000D01*
X37715000Y-49411666D01*
X37748333Y-49378333D01*
X37781666Y-49311666D01*
X37781666Y-49211666D01*
X37781666Y-49745000D02*
X37315000Y-49745000D01*
X37448333Y-49745000D02*
X37381666Y-49778333D01*
X37348333Y-49811666D01*
X37315000Y-49878333D01*
X37315000Y-49945000D01*
X37781666Y-50545000D02*
X37781666Y-50145000D01*
X37781666Y-50345000D02*
X37081666Y-50345000D01*
X37181666Y-50278333D01*
X37248333Y-50211666D01*
X37281666Y-50145000D01*
D11*
X70264404Y-44142023D02*
X70264404Y-43292023D01*
X70026309Y-43292023D01*
X69883452Y-43332500D01*
X69788214Y-43413452D01*
X69740595Y-43494404D01*
X69692976Y-43656309D01*
X69692976Y-43777738D01*
X69740595Y-43939642D01*
X69788214Y-44020595D01*
X69883452Y-44101547D01*
X70026309Y-44142023D01*
X70264404Y-44142023D01*
X69264404Y-43696785D02*
X68931071Y-43696785D01*
X68788214Y-44142023D02*
X69264404Y-44142023D01*
X69264404Y-43292023D01*
X68788214Y-43292023D01*
X67788214Y-44142023D02*
X68121547Y-43737261D01*
X68359642Y-44142023D02*
X68359642Y-43292023D01*
X67978690Y-43292023D01*
X67883452Y-43332500D01*
X67835833Y-43372976D01*
X67788214Y-43453928D01*
X67788214Y-43575357D01*
X67835833Y-43656309D01*
X67883452Y-43696785D01*
X67978690Y-43737261D01*
X68359642Y-43737261D01*
X66788214Y-44061071D02*
X66835833Y-44101547D01*
X66978690Y-44142023D01*
X67073928Y-44142023D01*
X67216785Y-44101547D01*
X67312023Y-44020595D01*
X67359642Y-43939642D01*
X67407261Y-43777738D01*
X67407261Y-43656309D01*
X67359642Y-43494404D01*
X67312023Y-43413452D01*
X67216785Y-43332500D01*
X67073928Y-43292023D01*
X66978690Y-43292023D01*
X66835833Y-43332500D01*
X66788214Y-43372976D01*
X69692976Y-45429571D02*
X69740595Y-45470047D01*
X69883452Y-45510523D01*
X69978690Y-45510523D01*
X70121547Y-45470047D01*
X70216785Y-45389095D01*
X70264404Y-45308142D01*
X70312023Y-45146238D01*
X70312023Y-45024809D01*
X70264404Y-44862904D01*
X70216785Y-44781952D01*
X70121547Y-44701000D01*
X69978690Y-44660523D01*
X69883452Y-44660523D01*
X69740595Y-44701000D01*
X69692976Y-44741476D01*
X68835833Y-45510523D02*
X68835833Y-45065285D01*
X68883452Y-44984333D01*
X68978690Y-44943857D01*
X69169166Y-44943857D01*
X69264404Y-44984333D01*
X68835833Y-45470047D02*
X68931071Y-45510523D01*
X69169166Y-45510523D01*
X69264404Y-45470047D01*
X69312023Y-45389095D01*
X69312023Y-45308142D01*
X69264404Y-45227190D01*
X69169166Y-45186714D01*
X68931071Y-45186714D01*
X68835833Y-45146238D01*
X68359642Y-44943857D02*
X68359642Y-45510523D01*
X68359642Y-45024809D02*
X68312023Y-44984333D01*
X68216785Y-44943857D01*
X68073928Y-44943857D01*
X67978690Y-44984333D01*
X67931071Y-45065285D01*
X67931071Y-45510523D01*
X67502500Y-45470047D02*
X67407261Y-45510523D01*
X67216785Y-45510523D01*
X67121547Y-45470047D01*
X67073928Y-45389095D01*
X67073928Y-45348619D01*
X67121547Y-45267666D01*
X67216785Y-45227190D01*
X67359642Y-45227190D01*
X67454880Y-45186714D01*
X67502500Y-45105761D01*
X67502500Y-45065285D01*
X67454880Y-44984333D01*
X67359642Y-44943857D01*
X67216785Y-44943857D01*
X67121547Y-44984333D01*
X66216785Y-45510523D02*
X66216785Y-45065285D01*
X66264404Y-44984333D01*
X66359642Y-44943857D01*
X66550119Y-44943857D01*
X66645357Y-44984333D01*
X66216785Y-45470047D02*
X66312023Y-45510523D01*
X66550119Y-45510523D01*
X66645357Y-45470047D01*
X66692976Y-45389095D01*
X66692976Y-45308142D01*
X66645357Y-45227190D01*
X66550119Y-45186714D01*
X66312023Y-45186714D01*
X66216785Y-45146238D01*
X65883452Y-44943857D02*
X65502500Y-44943857D01*
X65740595Y-44660523D02*
X65740595Y-45389095D01*
X65692976Y-45470047D01*
X65597738Y-45510523D01*
X65502500Y-45510523D01*
X70264404Y-46879023D02*
X70264404Y-46029023D01*
X69883452Y-46029023D01*
X69788214Y-46069500D01*
X69740595Y-46109976D01*
X69692976Y-46190928D01*
X69692976Y-46312357D01*
X69740595Y-46393309D01*
X69788214Y-46433785D01*
X69883452Y-46474261D01*
X70264404Y-46474261D01*
X69264404Y-46879023D02*
X69264404Y-46312357D01*
X69264404Y-46474261D02*
X69216785Y-46393309D01*
X69169166Y-46352833D01*
X69073928Y-46312357D01*
X68978690Y-46312357D01*
X68502500Y-46879023D02*
X68597738Y-46838547D01*
X68645357Y-46798071D01*
X68692976Y-46717119D01*
X68692976Y-46474261D01*
X68645357Y-46393309D01*
X68597738Y-46352833D01*
X68502500Y-46312357D01*
X68359642Y-46312357D01*
X68264404Y-46352833D01*
X68216785Y-46393309D01*
X68169166Y-46474261D01*
X68169166Y-46717119D01*
X68216785Y-46798071D01*
X68264404Y-46838547D01*
X68359642Y-46879023D01*
X68502500Y-46879023D01*
X67740595Y-46312357D02*
X67740595Y-47040928D01*
X67788214Y-47121880D01*
X67883452Y-47162357D01*
X67931071Y-47162357D01*
X67740595Y-46029023D02*
X67788214Y-46069500D01*
X67740595Y-46109976D01*
X67692976Y-46069500D01*
X67740595Y-46029023D01*
X67740595Y-46109976D01*
X66883452Y-46838547D02*
X66978690Y-46879023D01*
X67169166Y-46879023D01*
X67264404Y-46838547D01*
X67312023Y-46757595D01*
X67312023Y-46433785D01*
X67264404Y-46352833D01*
X67169166Y-46312357D01*
X66978690Y-46312357D01*
X66883452Y-46352833D01*
X66835833Y-46433785D01*
X66835833Y-46514738D01*
X67312023Y-46595690D01*
X65978690Y-46838547D02*
X66073928Y-46879023D01*
X66264404Y-46879023D01*
X66359642Y-46838547D01*
X66407261Y-46798071D01*
X66454880Y-46717119D01*
X66454880Y-46474261D01*
X66407261Y-46393309D01*
X66359642Y-46352833D01*
X66264404Y-46312357D01*
X66073928Y-46312357D01*
X65978690Y-46352833D01*
X65692976Y-46312357D02*
X65312023Y-46312357D01*
X65550119Y-46029023D02*
X65550119Y-46757595D01*
X65502500Y-46838547D01*
X65407261Y-46879023D01*
X65312023Y-46879023D01*
X70264404Y-49616023D02*
X70264404Y-48766023D01*
X69883452Y-48766023D01*
X69788214Y-48806500D01*
X69740595Y-48846976D01*
X69692976Y-48927928D01*
X69692976Y-49049357D01*
X69740595Y-49130309D01*
X69788214Y-49170785D01*
X69883452Y-49211261D01*
X70264404Y-49211261D01*
X69264404Y-49616023D02*
X69264404Y-49049357D01*
X69264404Y-49211261D02*
X69216785Y-49130309D01*
X69169166Y-49089833D01*
X69073928Y-49049357D01*
X68978690Y-49049357D01*
X68502500Y-49616023D02*
X68597738Y-49575547D01*
X68645357Y-49535071D01*
X68692976Y-49454119D01*
X68692976Y-49211261D01*
X68645357Y-49130309D01*
X68597738Y-49089833D01*
X68502500Y-49049357D01*
X68359642Y-49049357D01*
X68264404Y-49089833D01*
X68216785Y-49130309D01*
X68169166Y-49211261D01*
X68169166Y-49454119D01*
X68216785Y-49535071D01*
X68264404Y-49575547D01*
X68359642Y-49616023D01*
X68502500Y-49616023D01*
X67740595Y-49616023D02*
X67740595Y-49049357D01*
X67740595Y-49130309D02*
X67692976Y-49089833D01*
X67597738Y-49049357D01*
X67454880Y-49049357D01*
X67359642Y-49089833D01*
X67312023Y-49170785D01*
X67312023Y-49616023D01*
X67312023Y-49170785D02*
X67264404Y-49089833D01*
X67169166Y-49049357D01*
X67026309Y-49049357D01*
X66931071Y-49089833D01*
X66883452Y-49170785D01*
X66883452Y-49616023D01*
X66026309Y-49575547D02*
X66121547Y-49616023D01*
X66312023Y-49616023D01*
X66407261Y-49575547D01*
X66454880Y-49494595D01*
X66454880Y-49170785D01*
X66407261Y-49089833D01*
X66312023Y-49049357D01*
X66121547Y-49049357D01*
X66026309Y-49089833D01*
X65978690Y-49170785D01*
X65978690Y-49251738D01*
X66454880Y-49332690D01*
X65692976Y-49049357D02*
X65312023Y-49049357D01*
X65550119Y-48766023D02*
X65550119Y-49494595D01*
X65502500Y-49575547D01*
X65407261Y-49616023D01*
X65312023Y-49616023D01*
X64978690Y-49616023D02*
X64978690Y-48766023D01*
X64550119Y-49616023D02*
X64550119Y-49170785D01*
X64597738Y-49089833D01*
X64692976Y-49049357D01*
X64835833Y-49049357D01*
X64931071Y-49089833D01*
X64978690Y-49130309D01*
X63692976Y-49575547D02*
X63788214Y-49616023D01*
X63978690Y-49616023D01*
X64073928Y-49575547D01*
X64121547Y-49494595D01*
X64121547Y-49170785D01*
X64073928Y-49089833D01*
X63978690Y-49049357D01*
X63788214Y-49049357D01*
X63692976Y-49089833D01*
X63645357Y-49170785D01*
X63645357Y-49251738D01*
X64121547Y-49332690D01*
X62788214Y-49049357D02*
X62788214Y-49616023D01*
X63216785Y-49049357D02*
X63216785Y-49494595D01*
X63169166Y-49575547D01*
X63073928Y-49616023D01*
X62931071Y-49616023D01*
X62835833Y-49575547D01*
X62788214Y-49535071D01*
X62359642Y-49575547D02*
X62264404Y-49616023D01*
X62073928Y-49616023D01*
X61978690Y-49575547D01*
X61931071Y-49494595D01*
X61931071Y-49454119D01*
X61978690Y-49373166D01*
X62073928Y-49332690D01*
X62216785Y-49332690D01*
X62312023Y-49292214D01*
X62359642Y-49211261D01*
X62359642Y-49170785D01*
X62312023Y-49089833D01*
X62216785Y-49049357D01*
X62073928Y-49049357D01*
X61978690Y-49089833D01*
X70264404Y-50984523D02*
X70264404Y-50134523D01*
X69931071Y-50741666D01*
X69597738Y-50134523D01*
X69597738Y-50984523D01*
X68692976Y-50984523D02*
X68692976Y-50539285D01*
X68740595Y-50458333D01*
X68835833Y-50417857D01*
X69026309Y-50417857D01*
X69121547Y-50458333D01*
X68692976Y-50944047D02*
X68788214Y-50984523D01*
X69026309Y-50984523D01*
X69121547Y-50944047D01*
X69169166Y-50863095D01*
X69169166Y-50782142D01*
X69121547Y-50701190D01*
X69026309Y-50660714D01*
X68788214Y-50660714D01*
X68692976Y-50620238D01*
X68216785Y-50984523D02*
X68216785Y-50417857D01*
X68216785Y-50134523D02*
X68264404Y-50175000D01*
X68216785Y-50215476D01*
X68169166Y-50175000D01*
X68216785Y-50134523D01*
X68216785Y-50215476D01*
X67740595Y-50417857D02*
X67740595Y-50984523D01*
X67740595Y-50498809D02*
X67692976Y-50458333D01*
X67597738Y-50417857D01*
X67454880Y-50417857D01*
X67359642Y-50458333D01*
X67312023Y-50539285D01*
X67312023Y-50984523D01*
X65740595Y-50539285D02*
X65597738Y-50579761D01*
X65550119Y-50620238D01*
X65502500Y-50701190D01*
X65502500Y-50822619D01*
X65550119Y-50903571D01*
X65597738Y-50944047D01*
X65692976Y-50984523D01*
X66073928Y-50984523D01*
X66073928Y-50134523D01*
X65740595Y-50134523D01*
X65645357Y-50175000D01*
X65597738Y-50215476D01*
X65550119Y-50296428D01*
X65550119Y-50377380D01*
X65597738Y-50458333D01*
X65645357Y-50498809D01*
X65740595Y-50539285D01*
X66073928Y-50539285D01*
X64931071Y-50984523D02*
X65026309Y-50944047D01*
X65073928Y-50903571D01*
X65121547Y-50822619D01*
X65121547Y-50579761D01*
X65073928Y-50498809D01*
X65026309Y-50458333D01*
X64931071Y-50417857D01*
X64788214Y-50417857D01*
X64692976Y-50458333D01*
X64645357Y-50498809D01*
X64597738Y-50579761D01*
X64597738Y-50822619D01*
X64645357Y-50903571D01*
X64692976Y-50944047D01*
X64788214Y-50984523D01*
X64931071Y-50984523D01*
X63740595Y-50984523D02*
X63740595Y-50539285D01*
X63788214Y-50458333D01*
X63883452Y-50417857D01*
X64073928Y-50417857D01*
X64169166Y-50458333D01*
X63740595Y-50944047D02*
X63835833Y-50984523D01*
X64073928Y-50984523D01*
X64169166Y-50944047D01*
X64216785Y-50863095D01*
X64216785Y-50782142D01*
X64169166Y-50701190D01*
X64073928Y-50660714D01*
X63835833Y-50660714D01*
X63740595Y-50620238D01*
X63264404Y-50984523D02*
X63264404Y-50417857D01*
X63264404Y-50579761D02*
X63216785Y-50498809D01*
X63169166Y-50458333D01*
X63073928Y-50417857D01*
X62978690Y-50417857D01*
X62216785Y-50984523D02*
X62216785Y-50134523D01*
X62216785Y-50944047D02*
X62312023Y-50984523D01*
X62502500Y-50984523D01*
X62597738Y-50944047D01*
X62645357Y-50903571D01*
X62692976Y-50822619D01*
X62692976Y-50579761D01*
X62645357Y-50498809D01*
X62597738Y-50458333D01*
X62502500Y-50417857D01*
X62312023Y-50417857D01*
X62216785Y-50458333D01*
X70264404Y-52029214D02*
X69502500Y-52029214D01*
X69026309Y-52353023D02*
X69026309Y-51786357D01*
X69026309Y-51948261D02*
X68978690Y-51867309D01*
X68931071Y-51826833D01*
X68835833Y-51786357D01*
X68740595Y-51786357D01*
X68026309Y-52312547D02*
X68121547Y-52353023D01*
X68312023Y-52353023D01*
X68407261Y-52312547D01*
X68454880Y-52231595D01*
X68454880Y-51907785D01*
X68407261Y-51826833D01*
X68312023Y-51786357D01*
X68121547Y-51786357D01*
X68026309Y-51826833D01*
X67978690Y-51907785D01*
X67978690Y-51988738D01*
X68454880Y-52069690D01*
X67645357Y-51786357D02*
X67407261Y-52353023D01*
X67169166Y-51786357D01*
X66788214Y-52272071D02*
X66740595Y-52312547D01*
X66788214Y-52353023D01*
X66835833Y-52312547D01*
X66788214Y-52272071D01*
X66788214Y-52353023D01*
X66407261Y-51503023D02*
X65788214Y-51503023D01*
X66121547Y-51826833D01*
X65978690Y-51826833D01*
X65883452Y-51867309D01*
X65835833Y-51907785D01*
X65788214Y-51988738D01*
X65788214Y-52191119D01*
X65835833Y-52272071D01*
X65883452Y-52312547D01*
X65978690Y-52353023D01*
X66264404Y-52353023D01*
X66359642Y-52312547D01*
X66407261Y-52272071D01*
X64931071Y-52353023D02*
X64931071Y-51907785D01*
X64978690Y-51826833D01*
X65073928Y-51786357D01*
X65264404Y-51786357D01*
X65359642Y-51826833D01*
X64931071Y-52312547D02*
X65026309Y-52353023D01*
X65264404Y-52353023D01*
X65359642Y-52312547D01*
X65407261Y-52231595D01*
X65407261Y-52150642D01*
X65359642Y-52069690D01*
X65264404Y-52029214D01*
X65026309Y-52029214D01*
X64931071Y-51988738D01*
X70264404Y-55090023D02*
X70264404Y-54240023D01*
X70026309Y-54240023D01*
X69883452Y-54280500D01*
X69788214Y-54361452D01*
X69740595Y-54442404D01*
X69692976Y-54604309D01*
X69692976Y-54725738D01*
X69740595Y-54887642D01*
X69788214Y-54968595D01*
X69883452Y-55049547D01*
X70026309Y-55090023D01*
X70264404Y-55090023D01*
X68883452Y-55049547D02*
X68978690Y-55090023D01*
X69169166Y-55090023D01*
X69264404Y-55049547D01*
X69312023Y-54968595D01*
X69312023Y-54644785D01*
X69264404Y-54563833D01*
X69169166Y-54523357D01*
X68978690Y-54523357D01*
X68883452Y-54563833D01*
X68835833Y-54644785D01*
X68835833Y-54725738D01*
X69312023Y-54806690D01*
X68454880Y-55049547D02*
X68359642Y-55090023D01*
X68169166Y-55090023D01*
X68073928Y-55049547D01*
X68026309Y-54968595D01*
X68026309Y-54928119D01*
X68073928Y-54847166D01*
X68169166Y-54806690D01*
X68312023Y-54806690D01*
X68407261Y-54766214D01*
X68454880Y-54685261D01*
X68454880Y-54644785D01*
X68407261Y-54563833D01*
X68312023Y-54523357D01*
X68169166Y-54523357D01*
X68073928Y-54563833D01*
X67597738Y-55090023D02*
X67597738Y-54523357D01*
X67597738Y-54240023D02*
X67645357Y-54280500D01*
X67597738Y-54320976D01*
X67550119Y-54280500D01*
X67597738Y-54240023D01*
X67597738Y-54320976D01*
X66692976Y-54523357D02*
X66692976Y-55211452D01*
X66740595Y-55292404D01*
X66788214Y-55332880D01*
X66883452Y-55373357D01*
X67026309Y-55373357D01*
X67121547Y-55332880D01*
X66692976Y-55049547D02*
X66788214Y-55090023D01*
X66978690Y-55090023D01*
X67073928Y-55049547D01*
X67121547Y-55009071D01*
X67169166Y-54928119D01*
X67169166Y-54685261D01*
X67121547Y-54604309D01*
X67073928Y-54563833D01*
X66978690Y-54523357D01*
X66788214Y-54523357D01*
X66692976Y-54563833D01*
X66216785Y-54523357D02*
X66216785Y-55090023D01*
X66216785Y-54604309D02*
X66169166Y-54563833D01*
X66073928Y-54523357D01*
X65931071Y-54523357D01*
X65835833Y-54563833D01*
X65788214Y-54644785D01*
X65788214Y-55090023D01*
X65312023Y-55009071D02*
X65264404Y-55049547D01*
X65312023Y-55090023D01*
X65359642Y-55049547D01*
X65312023Y-55009071D01*
X65312023Y-55090023D01*
X65312023Y-54563833D02*
X65264404Y-54604309D01*
X65312023Y-54644785D01*
X65359642Y-54604309D01*
X65312023Y-54563833D01*
X65312023Y-54644785D01*
X70312023Y-56215666D02*
X69835833Y-56215666D01*
X70407261Y-56458523D02*
X70073928Y-55608523D01*
X69740595Y-56458523D01*
X69407261Y-56458523D02*
X69407261Y-55608523D01*
X69312023Y-56134714D02*
X69026309Y-56458523D01*
X69026309Y-55891857D02*
X69407261Y-56215666D01*
X68597738Y-56458523D02*
X68597738Y-55891857D01*
X68597738Y-55608523D02*
X68645357Y-55649000D01*
X68597738Y-55689476D01*
X68550119Y-55649000D01*
X68597738Y-55608523D01*
X68597738Y-55689476D01*
X67978690Y-56458523D02*
X68073928Y-56418047D01*
X68121547Y-56377571D01*
X68169166Y-56296619D01*
X68169166Y-56053761D01*
X68121547Y-55972809D01*
X68073928Y-55932333D01*
X67978690Y-55891857D01*
X67835833Y-55891857D01*
X67740595Y-55932333D01*
X67692976Y-55972809D01*
X67645357Y-56053761D01*
X67645357Y-56296619D01*
X67692976Y-56377571D01*
X67740595Y-56418047D01*
X67835833Y-56458523D01*
X67978690Y-56458523D01*
X66454880Y-56458523D02*
X66454880Y-55608523D01*
X66121547Y-56215666D01*
X65788214Y-55608523D01*
X65788214Y-56458523D01*
X70312023Y-57057976D02*
X70264404Y-57017500D01*
X70169166Y-56977023D01*
X69931071Y-56977023D01*
X69835833Y-57017500D01*
X69788214Y-57057976D01*
X69740595Y-57138928D01*
X69740595Y-57219880D01*
X69788214Y-57341309D01*
X70359642Y-57827023D01*
X69740595Y-57827023D01*
X69121547Y-56977023D02*
X69026309Y-56977023D01*
X68931071Y-57017500D01*
X68883452Y-57057976D01*
X68835833Y-57138928D01*
X68788214Y-57300833D01*
X68788214Y-57503214D01*
X68835833Y-57665119D01*
X68883452Y-57746071D01*
X68931071Y-57786547D01*
X69026309Y-57827023D01*
X69121547Y-57827023D01*
X69216785Y-57786547D01*
X69264404Y-57746071D01*
X69312023Y-57665119D01*
X69359642Y-57503214D01*
X69359642Y-57300833D01*
X69312023Y-57138928D01*
X69264404Y-57057976D01*
X69216785Y-57017500D01*
X69121547Y-56977023D01*
X68407261Y-57057976D02*
X68359642Y-57017500D01*
X68264404Y-56977023D01*
X68026309Y-56977023D01*
X67931071Y-57017500D01*
X67883452Y-57057976D01*
X67835833Y-57138928D01*
X67835833Y-57219880D01*
X67883452Y-57341309D01*
X68454880Y-57827023D01*
X67835833Y-57827023D01*
X67454880Y-57057976D02*
X67407261Y-57017500D01*
X67312023Y-56977023D01*
X67073928Y-56977023D01*
X66978690Y-57017500D01*
X66931071Y-57057976D01*
X66883452Y-57138928D01*
X66883452Y-57219880D01*
X66931071Y-57341309D01*
X67502500Y-57827023D01*
X66883452Y-57827023D01*
X66454880Y-57746071D02*
X66407261Y-57786547D01*
X66454880Y-57827023D01*
X66502500Y-57786547D01*
X66454880Y-57746071D01*
X66454880Y-57827023D01*
X65454880Y-57827023D02*
X66026309Y-57827023D01*
X65740595Y-57827023D02*
X65740595Y-56977023D01*
X65835833Y-57098452D01*
X65931071Y-57179404D01*
X66026309Y-57219880D01*
X65073928Y-57057976D02*
X65026309Y-57017500D01*
X64931071Y-56977023D01*
X64692976Y-56977023D01*
X64597738Y-57017500D01*
X64550119Y-57057976D01*
X64502499Y-57138928D01*
X64502499Y-57219880D01*
X64550119Y-57341309D01*
X65121547Y-57827023D01*
X64502499Y-57827023D01*
X45176000Y-66545666D02*
X45176000Y-67045666D01*
X45209333Y-67145666D01*
X45276000Y-67212333D01*
X45376000Y-67245666D01*
X45442666Y-67245666D01*
X44876000Y-67212333D02*
X44776000Y-67245666D01*
X44609333Y-67245666D01*
X44542666Y-67212333D01*
X44509333Y-67179000D01*
X44476000Y-67112333D01*
X44476000Y-67045666D01*
X44509333Y-66979000D01*
X44542666Y-66945666D01*
X44609333Y-66912333D01*
X44742666Y-66879000D01*
X44809333Y-66845666D01*
X44842666Y-66812333D01*
X44876000Y-66745666D01*
X44876000Y-66679000D01*
X44842666Y-66612333D01*
X44809333Y-66579000D01*
X44742666Y-66545666D01*
X44576000Y-66545666D01*
X44476000Y-66579000D01*
X44276000Y-66545666D02*
X43876000Y-66545666D01*
X44076000Y-67245666D02*
X44076000Y-66545666D01*
X43109333Y-67245666D02*
X43109333Y-66545666D01*
X42842666Y-66545666D01*
X42776000Y-66579000D01*
X42742666Y-66612333D01*
X42709333Y-66679000D01*
X42709333Y-66779000D01*
X42742666Y-66845666D01*
X42776000Y-66879000D01*
X42842666Y-66912333D01*
X43109333Y-66912333D01*
X42409333Y-67245666D02*
X42409333Y-66545666D01*
X42409333Y-66879000D02*
X42009333Y-66879000D01*
X42009333Y-67245666D02*
X42009333Y-66545666D01*
X41676000Y-66979000D02*
X41142666Y-66979000D01*
X40876000Y-66545666D02*
X40442666Y-66545666D01*
X40676000Y-66812333D01*
X40576000Y-66812333D01*
X40509333Y-66845666D01*
X40476000Y-66879000D01*
X40442666Y-66945666D01*
X40442666Y-67112333D01*
X40476000Y-67179000D01*
X40509333Y-67212333D01*
X40576000Y-67245666D01*
X40776000Y-67245666D01*
X40842666Y-67212333D01*
X40876000Y-67179000D01*
D10*
X37781666Y-39912333D02*
X37081666Y-39912333D01*
X37581666Y-40145666D01*
X37081666Y-40379000D01*
X37781666Y-40379000D01*
X37781666Y-40812333D02*
X37748333Y-40745666D01*
X37715000Y-40712333D01*
X37648333Y-40679000D01*
X37448333Y-40679000D01*
X37381666Y-40712333D01*
X37348333Y-40745666D01*
X37315000Y-40812333D01*
X37315000Y-40912333D01*
X37348333Y-40979000D01*
X37381666Y-41012333D01*
X37448333Y-41045666D01*
X37648333Y-41045666D01*
X37715000Y-41012333D01*
X37748333Y-40979000D01*
X37781666Y-40912333D01*
X37781666Y-40812333D01*
X37315000Y-41245666D02*
X37315000Y-41512333D01*
X37081666Y-41345666D02*
X37681666Y-41345666D01*
X37748333Y-41379000D01*
X37781666Y-41445666D01*
X37781666Y-41512333D01*
X37781666Y-41845666D02*
X37748333Y-41779000D01*
X37715000Y-41745666D01*
X37648333Y-41712333D01*
X37448333Y-41712333D01*
X37381666Y-41745666D01*
X37348333Y-41779000D01*
X37315000Y-41845666D01*
X37315000Y-41945666D01*
X37348333Y-42012333D01*
X37381666Y-42045666D01*
X37448333Y-42079000D01*
X37648333Y-42079000D01*
X37715000Y-42045666D01*
X37748333Y-42012333D01*
X37781666Y-41945666D01*
X37781666Y-41845666D01*
X37781666Y-42379000D02*
X37315000Y-42379000D01*
X37448333Y-42379000D02*
X37381666Y-42412333D01*
X37348333Y-42445666D01*
X37315000Y-42512333D01*
X37315000Y-42579000D01*
X37148333Y-42779000D02*
X37115000Y-42812333D01*
X37081666Y-42879000D01*
X37081666Y-43045666D01*
X37115000Y-43112333D01*
X37148333Y-43145666D01*
X37215000Y-43179000D01*
X37281666Y-43179000D01*
X37381666Y-43145666D01*
X37781666Y-42745666D01*
X37781666Y-43179000D01*
D12*
%TO.C,Q4*%
X75276190Y-52338095D02*
X75352380Y-52300000D01*
X75428571Y-52223809D01*
X75542857Y-52109523D01*
X75619047Y-52071428D01*
X75695238Y-52071428D01*
X75657142Y-52261904D02*
X75733333Y-52223809D01*
X75809523Y-52147619D01*
X75847619Y-51995238D01*
X75847619Y-51728571D01*
X75809523Y-51576190D01*
X75733333Y-51500000D01*
X75657142Y-51461904D01*
X75504761Y-51461904D01*
X75428571Y-51500000D01*
X75352380Y-51576190D01*
X75314285Y-51728571D01*
X75314285Y-51995238D01*
X75352380Y-52147619D01*
X75428571Y-52223809D01*
X75504761Y-52261904D01*
X75657142Y-52261904D01*
X74628571Y-51728571D02*
X74628571Y-52261904D01*
X74819047Y-51423809D02*
X75009523Y-51995238D01*
X74514285Y-51995238D01*
D11*
%TO.C,C10*%
X57654000Y-61272000D02*
X57687333Y-61238666D01*
X57720666Y-61138666D01*
X57720666Y-61072000D01*
X57687333Y-60972000D01*
X57620666Y-60905333D01*
X57554000Y-60872000D01*
X57420666Y-60838666D01*
X57320666Y-60838666D01*
X57187333Y-60872000D01*
X57120666Y-60905333D01*
X57054000Y-60972000D01*
X57020666Y-61072000D01*
X57020666Y-61138666D01*
X57054000Y-61238666D01*
X57087333Y-61272000D01*
X57720666Y-61938666D02*
X57720666Y-61538666D01*
X57720666Y-61738666D02*
X57020666Y-61738666D01*
X57120666Y-61672000D01*
X57187333Y-61605333D01*
X57220666Y-61538666D01*
X57020666Y-62372000D02*
X57020666Y-62438666D01*
X57054000Y-62505333D01*
X57087333Y-62538666D01*
X57154000Y-62572000D01*
X57287333Y-62605333D01*
X57454000Y-62605333D01*
X57587333Y-62572000D01*
X57654000Y-62538666D01*
X57687333Y-62505333D01*
X57720666Y-62438666D01*
X57720666Y-62372000D01*
X57687333Y-62305333D01*
X57654000Y-62272000D01*
X57587333Y-62238666D01*
X57454000Y-62205333D01*
X57287333Y-62205333D01*
X57154000Y-62238666D01*
X57087333Y-62272000D01*
X57054000Y-62305333D01*
X57020666Y-62372000D01*
%TO.C,J5*%
X39830333Y-45287380D02*
X39830333Y-46001666D01*
X39877952Y-46144523D01*
X39973190Y-46239761D01*
X40116047Y-46287380D01*
X40211285Y-46287380D01*
X38877952Y-45287380D02*
X39354142Y-45287380D01*
X39401761Y-45763571D01*
X39354142Y-45715952D01*
X39258904Y-45668333D01*
X39020809Y-45668333D01*
X38925571Y-45715952D01*
X38877952Y-45763571D01*
X38830333Y-45858809D01*
X38830333Y-46096904D01*
X38877952Y-46192142D01*
X38925571Y-46239761D01*
X39020809Y-46287380D01*
X39258904Y-46287380D01*
X39354142Y-46239761D01*
X39401761Y-46192142D01*
%TO.C,R23*%
X73572380Y-47657142D02*
X73096190Y-47323809D01*
X73572380Y-47085714D02*
X72572380Y-47085714D01*
X72572380Y-47466666D01*
X72620000Y-47561904D01*
X72667619Y-47609523D01*
X72762857Y-47657142D01*
X72905714Y-47657142D01*
X73000952Y-47609523D01*
X73048571Y-47561904D01*
X73096190Y-47466666D01*
X73096190Y-47085714D01*
X72667619Y-48038095D02*
X72620000Y-48085714D01*
X72572380Y-48180952D01*
X72572380Y-48419047D01*
X72620000Y-48514285D01*
X72667619Y-48561904D01*
X72762857Y-48609523D01*
X72858095Y-48609523D01*
X73000952Y-48561904D01*
X73572380Y-47990476D01*
X73572380Y-48609523D01*
X72572380Y-48942857D02*
X72572380Y-49561904D01*
X72953333Y-49228571D01*
X72953333Y-49371428D01*
X73000952Y-49466666D01*
X73048571Y-49514285D01*
X73143809Y-49561904D01*
X73381904Y-49561904D01*
X73477142Y-49514285D01*
X73524761Y-49466666D01*
X73572380Y-49371428D01*
X73572380Y-49085714D01*
X73524761Y-48990476D01*
X73477142Y-48942857D01*
%TO.C,C6*%
X60568666Y-52701000D02*
X60602000Y-52734333D01*
X60702000Y-52767666D01*
X60768666Y-52767666D01*
X60868666Y-52734333D01*
X60935333Y-52667666D01*
X60968666Y-52601000D01*
X61002000Y-52467666D01*
X61002000Y-52367666D01*
X60968666Y-52234333D01*
X60935333Y-52167666D01*
X60868666Y-52101000D01*
X60768666Y-52067666D01*
X60702000Y-52067666D01*
X60602000Y-52101000D01*
X60568666Y-52134333D01*
X59968666Y-52067666D02*
X60102000Y-52067666D01*
X60168666Y-52101000D01*
X60202000Y-52134333D01*
X60268666Y-52234333D01*
X60302000Y-52367666D01*
X60302000Y-52634333D01*
X60268666Y-52701000D01*
X60235333Y-52734333D01*
X60168666Y-52767666D01*
X60035333Y-52767666D01*
X59968666Y-52734333D01*
X59935333Y-52701000D01*
X59902000Y-52634333D01*
X59902000Y-52467666D01*
X59935333Y-52401000D01*
X59968666Y-52367666D01*
X60035333Y-52334333D01*
X60168666Y-52334333D01*
X60235333Y-52367666D01*
X60268666Y-52401000D01*
X60302000Y-52467666D01*
%TO.C,R17*%
X50742000Y-68261666D02*
X50975333Y-67928333D01*
X51142000Y-68261666D02*
X51142000Y-67561666D01*
X50875333Y-67561666D01*
X50808666Y-67595000D01*
X50775333Y-67628333D01*
X50742000Y-67695000D01*
X50742000Y-67795000D01*
X50775333Y-67861666D01*
X50808666Y-67895000D01*
X50875333Y-67928333D01*
X51142000Y-67928333D01*
X50075333Y-68261666D02*
X50475333Y-68261666D01*
X50275333Y-68261666D02*
X50275333Y-67561666D01*
X50342000Y-67661666D01*
X50408666Y-67728333D01*
X50475333Y-67761666D01*
X49842000Y-67561666D02*
X49375333Y-67561666D01*
X49675333Y-68261666D01*
D13*
%TO.C,IC4*%
X46705761Y-49850523D02*
X46705761Y-48580523D01*
X45375285Y-49729571D02*
X45435761Y-49790047D01*
X45617190Y-49850523D01*
X45738142Y-49850523D01*
X45919571Y-49790047D01*
X46040523Y-49669095D01*
X46101000Y-49548142D01*
X46161476Y-49306238D01*
X46161476Y-49124809D01*
X46101000Y-48882904D01*
X46040523Y-48761952D01*
X45919571Y-48641000D01*
X45738142Y-48580523D01*
X45617190Y-48580523D01*
X45435761Y-48641000D01*
X45375285Y-48701476D01*
X44286714Y-49003857D02*
X44286714Y-49850523D01*
X44589095Y-48520047D02*
X44891476Y-49427190D01*
X44105285Y-49427190D01*
D11*
%TO.C,C5*%
X60568666Y-48383000D02*
X60602000Y-48416333D01*
X60702000Y-48449666D01*
X60768666Y-48449666D01*
X60868666Y-48416333D01*
X60935333Y-48349666D01*
X60968666Y-48283000D01*
X61002000Y-48149666D01*
X61002000Y-48049666D01*
X60968666Y-47916333D01*
X60935333Y-47849666D01*
X60868666Y-47783000D01*
X60768666Y-47749666D01*
X60702000Y-47749666D01*
X60602000Y-47783000D01*
X60568666Y-47816333D01*
X59935333Y-47749666D02*
X60268666Y-47749666D01*
X60302000Y-48083000D01*
X60268666Y-48049666D01*
X60202000Y-48016333D01*
X60035333Y-48016333D01*
X59968666Y-48049666D01*
X59935333Y-48083000D01*
X59902000Y-48149666D01*
X59902000Y-48316333D01*
X59935333Y-48383000D01*
X59968666Y-48416333D01*
X60035333Y-48449666D01*
X60202000Y-48449666D01*
X60268666Y-48416333D01*
X60302000Y-48383000D01*
D13*
%TO.C,IC5*%
X46705761Y-42611523D02*
X46705761Y-41341523D01*
X45375285Y-42490571D02*
X45435761Y-42551047D01*
X45617190Y-42611523D01*
X45738142Y-42611523D01*
X45919571Y-42551047D01*
X46040523Y-42430095D01*
X46101000Y-42309142D01*
X46161476Y-42067238D01*
X46161476Y-41885809D01*
X46101000Y-41643904D01*
X46040523Y-41522952D01*
X45919571Y-41402000D01*
X45738142Y-41341523D01*
X45617190Y-41341523D01*
X45435761Y-41402000D01*
X45375285Y-41462476D01*
X44226238Y-41341523D02*
X44831000Y-41341523D01*
X44891476Y-41946285D01*
X44831000Y-41885809D01*
X44710047Y-41825333D01*
X44407666Y-41825333D01*
X44286714Y-41885809D01*
X44226238Y-41946285D01*
X44165761Y-42067238D01*
X44165761Y-42369619D01*
X44226238Y-42490571D01*
X44286714Y-42551047D01*
X44407666Y-42611523D01*
X44710047Y-42611523D01*
X44831000Y-42551047D01*
X44891476Y-42490571D01*
D11*
%TO.C,J6*%
X39830333Y-38048380D02*
X39830333Y-38762666D01*
X39877952Y-38905523D01*
X39973190Y-39000761D01*
X40116047Y-39048380D01*
X40211285Y-39048380D01*
X38925571Y-38048380D02*
X39116047Y-38048380D01*
X39211285Y-38096000D01*
X39258904Y-38143619D01*
X39354142Y-38286476D01*
X39401761Y-38476952D01*
X39401761Y-38857904D01*
X39354142Y-38953142D01*
X39306523Y-39000761D01*
X39211285Y-39048380D01*
X39020809Y-39048380D01*
X38925571Y-39000761D01*
X38877952Y-38953142D01*
X38830333Y-38857904D01*
X38830333Y-38619809D01*
X38877952Y-38524571D01*
X38925571Y-38476952D01*
X39020809Y-38429333D01*
X39211285Y-38429333D01*
X39306523Y-38476952D01*
X39354142Y-38524571D01*
X39401761Y-38619809D01*
D12*
%TO.C,Q4*%
X75800000Y-50350000D02*
X74500000Y-50350000D01*
X74150000Y-53310000D02*
X74150000Y-50390000D01*
X74150000Y-50390000D02*
X74050000Y-50390000D01*
X74050000Y-53310000D02*
X74150000Y-53310000D01*
X74050000Y-50390000D02*
X74050000Y-53310000D01*
D14*
%TO.C,C10*%
X58037000Y-61594420D02*
X58037000Y-61875580D01*
X59057000Y-61594420D02*
X59057000Y-61875580D01*
%TO.C,J5*%
X40557000Y-48895000D02*
X40557000Y-50955000D01*
X38437000Y-48895000D02*
X38437000Y-50955000D01*
X40557000Y-48895000D02*
X38437000Y-48895000D01*
X40557000Y-50955000D02*
X38437000Y-50955000D01*
X40557000Y-46835000D02*
X39497000Y-46835000D01*
X40557000Y-47895000D02*
X40557000Y-46835000D01*
%TO.C,J7*%
X40700000Y-71881200D02*
X39700000Y-71881200D01*
X46300000Y-71881200D02*
X46300000Y-73481200D01*
X47050000Y-75731200D02*
X38950000Y-75731200D01*
X39700000Y-71881200D02*
X39700000Y-73481200D01*
X44500000Y-75731200D02*
X44500000Y-71381200D01*
X45300000Y-73481200D02*
X45300000Y-75731200D01*
X45800000Y-69531200D02*
X46150000Y-69531200D01*
X46150000Y-69531200D02*
X46150000Y-67931200D01*
X41500000Y-71381200D02*
X41500000Y-75731200D01*
X38950000Y-75731200D02*
X38950000Y-67931200D01*
X45300000Y-73481200D02*
X45300000Y-71881200D01*
X46300000Y-73481200D02*
X45300000Y-73481200D01*
X39850000Y-67931200D02*
X39850000Y-69531200D01*
X38950000Y-67931200D02*
X39850000Y-67931200D01*
X39850000Y-69531200D02*
X40200000Y-69531200D01*
X39700000Y-73481200D02*
X40700000Y-73481200D01*
X45800000Y-69531200D02*
X45800000Y-68331200D01*
X47050000Y-67931200D02*
X47050000Y-75731200D01*
X38950000Y-69531200D02*
X39850000Y-69531200D01*
X40700000Y-73481200D02*
X40700000Y-71881200D01*
X45300000Y-71881200D02*
X46300000Y-71881200D01*
X44500000Y-71381200D02*
X41500000Y-71381200D01*
X46150000Y-67931200D02*
X47050000Y-67931200D01*
X47050000Y-69531200D02*
X46150000Y-69531200D01*
X45800000Y-73481200D02*
X45800000Y-75731200D01*
%TO.C,R23*%
X74027500Y-48062742D02*
X74027500Y-48537258D01*
X75072500Y-48062742D02*
X75072500Y-48537258D01*
%TO.C,JP1*%
X73200000Y-54650000D02*
X73200000Y-55250000D01*
X75300000Y-53950000D02*
X73900000Y-53950000D01*
X76000000Y-55250000D02*
X76000000Y-54650000D01*
X73900000Y-55950000D02*
X75300000Y-55950000D01*
X75300000Y-55950000D02*
G75*
G03*
X76000000Y-55250000I1J699999D01*
G01*
X76000000Y-54650000D02*
G75*
G03*
X75300000Y-53950000I-699999J1D01*
G01*
X73200000Y-55250000D02*
G75*
G03*
X73900000Y-55950000I700000J0D01*
G01*
X73900000Y-53950000D02*
G75*
G03*
X73200000Y-54650000I0J-700000D01*
G01*
%TO.C,C6*%
X60592580Y-51691000D02*
X60311420Y-51691000D01*
X60592580Y-50671000D02*
X60311420Y-50671000D01*
%TO.C,R17*%
X50054742Y-66152500D02*
X50529258Y-66152500D01*
X50054742Y-67197500D02*
X50529258Y-67197500D01*
D12*
%TO.C,IC4*%
X48941000Y-46696000D02*
X47416000Y-46696000D01*
D14*
%TO.C,C5*%
X60592580Y-49913000D02*
X60311420Y-49913000D01*
X60592580Y-48893000D02*
X60311420Y-48893000D01*
D12*
%TO.C,IC5*%
X48941000Y-39457000D02*
X47416000Y-39457000D01*
D14*
%TO.C,J6*%
X40557000Y-41656000D02*
X38437000Y-41656000D01*
X40557000Y-41656000D02*
X40557000Y-43716000D01*
X40557000Y-43716000D02*
X38437000Y-43716000D01*
X40557000Y-40656000D02*
X40557000Y-39596000D01*
X38437000Y-41656000D02*
X38437000Y-43716000D01*
X40557000Y-39596000D02*
X39497000Y-39596000D01*
%TD*%
M02*
