%TF.GenerationSoftware,KiCad,Pcbnew,(6.0.4)*%
%TF.CreationDate,2022-12-07T00:30:14+09:00*%
%TF.ProjectId,prometheus-em,70726f6d-6574-4686-9575-732d656d2e6b,rev?*%
%TF.SameCoordinates,Original*%
%TF.FileFunction,Legend,Top*%
%TF.FilePolarity,Positive*%
%FSLAX46Y46*%
G04 Gerber Fmt 4.6, Leading zero omitted, Abs format (unit mm)*
G04 Created by KiCad (PCBNEW (6.0.4)) date 2022-12-07 00:30:14*
%MOMM*%
%LPD*%
G01*
G04 APERTURE LIST*
%ADD10C,0.150000*%
%ADD11C,0.125000*%
%ADD12C,0.200000*%
%ADD13C,0.300000*%
%ADD14C,0.250000*%
%ADD15C,0.254000*%
%ADD16C,0.120000*%
%ADD17C,0.063060*%
G04 APERTURE END LIST*
D10*
X38000000Y-72000000D02*
X38000000Y-36000000D01*
X76000000Y-36000000D02*
X76000000Y-76000000D01*
X57023000Y-69469000D02*
X65532000Y-69469000D01*
X65532000Y-69469000D02*
X65532000Y-75949000D01*
X65532000Y-75949000D02*
X57023000Y-75949000D01*
X57023000Y-75949000D02*
X57023000Y-69469000D01*
G36*
X57023000Y-69469000D02*
G01*
X65532000Y-69469000D01*
X65532000Y-75949000D01*
X57023000Y-75949000D01*
X57023000Y-69469000D01*
G37*
X38000000Y-76000000D02*
X38000000Y-72000000D01*
X74607206Y-57570082D02*
X74230082Y-57947206D01*
X74230082Y-57758644D02*
X74230082Y-57947206D01*
X74418644Y-57947206D01*
X73816666Y-53710857D02*
X73816666Y-53339428D01*
X74083333Y-53539428D01*
X74083333Y-53453714D01*
X74116666Y-53396571D01*
X74150000Y-53368000D01*
X74216666Y-53339428D01*
X74383333Y-53339428D01*
X74450000Y-53368000D01*
X74483333Y-53396571D01*
X74516666Y-53453714D01*
X74516666Y-53625142D01*
X74483333Y-53682285D01*
X74450000Y-53710857D01*
X73816666Y-53168000D02*
X74516666Y-52968000D01*
X73816666Y-52768000D01*
X73816666Y-52625142D02*
X73816666Y-52253714D01*
X74083333Y-52453714D01*
X74083333Y-52368000D01*
X74116666Y-52310857D01*
X74150000Y-52282285D01*
X74216666Y-52253714D01*
X74383333Y-52253714D01*
X74450000Y-52282285D01*
X74483333Y-52310857D01*
X74516666Y-52368000D01*
X74516666Y-52539428D01*
X74483333Y-52596571D01*
X74450000Y-52625142D01*
X52894666Y-56188000D02*
X52894666Y-56588000D01*
X52894666Y-56388000D02*
X52194666Y-56388000D01*
X52294666Y-56454666D01*
X52361333Y-56521333D01*
X52394666Y-56588000D01*
X53149666Y-52513666D02*
X53149666Y-51813666D01*
X53383000Y-52313666D01*
X53616333Y-51813666D01*
X53616333Y-52513666D01*
X53949666Y-52147000D02*
X54183000Y-52147000D01*
X54283000Y-52513666D02*
X53949666Y-52513666D01*
X53949666Y-51813666D01*
X54283000Y-51813666D01*
X54583000Y-52247000D02*
X55116333Y-52247000D01*
X55683000Y-52147000D02*
X55783000Y-52180333D01*
X55816333Y-52213666D01*
X55849666Y-52280333D01*
X55849666Y-52380333D01*
X55816333Y-52447000D01*
X55783000Y-52480333D01*
X55716333Y-52513666D01*
X55449666Y-52513666D01*
X55449666Y-51813666D01*
X55683000Y-51813666D01*
X55749666Y-51847000D01*
X55783000Y-51880333D01*
X55816333Y-51947000D01*
X55816333Y-52013666D01*
X55783000Y-52080333D01*
X55749666Y-52113666D01*
X55683000Y-52147000D01*
X55449666Y-52147000D01*
D11*
X74516666Y-42964571D02*
X74183333Y-43164571D01*
X74516666Y-43307428D02*
X73816666Y-43307428D01*
X73816666Y-43078857D01*
X73850000Y-43021714D01*
X73883333Y-42993142D01*
X73950000Y-42964571D01*
X74050000Y-42964571D01*
X74116666Y-42993142D01*
X74150000Y-43021714D01*
X74183333Y-43078857D01*
X74183333Y-43307428D01*
X74483333Y-42736000D02*
X74516666Y-42650285D01*
X74516666Y-42507428D01*
X74483333Y-42450285D01*
X74450000Y-42421714D01*
X74383333Y-42393142D01*
X74316666Y-42393142D01*
X74250000Y-42421714D01*
X74216666Y-42450285D01*
X74183333Y-42507428D01*
X74150000Y-42621714D01*
X74116666Y-42678857D01*
X74083333Y-42707428D01*
X74016666Y-42736000D01*
X73950000Y-42736000D01*
X73883333Y-42707428D01*
X73850000Y-42678857D01*
X73816666Y-42621714D01*
X73816666Y-42478857D01*
X73850000Y-42393142D01*
X73816666Y-42221714D02*
X73816666Y-41878857D01*
X74516666Y-42050285D02*
X73816666Y-42050285D01*
D10*
X74173793Y-56112917D02*
X74550917Y-55735793D01*
X74550917Y-55924355D02*
X74550917Y-55735793D01*
X74362355Y-55735793D01*
D11*
X74483333Y-45382285D02*
X74516666Y-45296571D01*
X74516666Y-45153714D01*
X74483333Y-45096571D01*
X74450000Y-45068000D01*
X74383333Y-45039428D01*
X74316666Y-45039428D01*
X74250000Y-45068000D01*
X74216666Y-45096571D01*
X74183333Y-45153714D01*
X74150000Y-45268000D01*
X74116666Y-45325142D01*
X74083333Y-45353714D01*
X74016666Y-45382285D01*
X73950000Y-45382285D01*
X73883333Y-45353714D01*
X73850000Y-45325142D01*
X73816666Y-45268000D01*
X73816666Y-45125142D01*
X73850000Y-45039428D01*
X74450000Y-44439428D02*
X74483333Y-44468000D01*
X74516666Y-44553714D01*
X74516666Y-44610857D01*
X74483333Y-44696571D01*
X74416666Y-44753714D01*
X74350000Y-44782285D01*
X74216666Y-44810857D01*
X74116666Y-44810857D01*
X73983333Y-44782285D01*
X73916666Y-44753714D01*
X73850000Y-44696571D01*
X73816666Y-44610857D01*
X73816666Y-44553714D01*
X73850000Y-44468000D01*
X73883333Y-44439428D01*
X74516666Y-43896571D02*
X74516666Y-44182285D01*
X73816666Y-44182285D01*
D12*
X66028571Y-43251380D02*
X66028571Y-42251380D01*
X66219047Y-42251380D01*
X66333333Y-42299000D01*
X66409523Y-42394238D01*
X66447619Y-42489476D01*
X66485714Y-42679952D01*
X66485714Y-42822809D01*
X66447619Y-43013285D01*
X66409523Y-43108523D01*
X66333333Y-43203761D01*
X66219047Y-43251380D01*
X66028571Y-43251380D01*
X66828571Y-42727571D02*
X67095238Y-42727571D01*
X67209523Y-43251380D02*
X66828571Y-43251380D01*
X66828571Y-42251380D01*
X67209523Y-42251380D01*
X68009523Y-43251380D02*
X67742857Y-42775190D01*
X67552380Y-43251380D02*
X67552380Y-42251380D01*
X67857142Y-42251380D01*
X67933333Y-42299000D01*
X67971428Y-42346619D01*
X68009523Y-42441857D01*
X68009523Y-42584714D01*
X67971428Y-42679952D01*
X67933333Y-42727571D01*
X67857142Y-42775190D01*
X67552380Y-42775190D01*
X68809523Y-43156142D02*
X68771428Y-43203761D01*
X68657142Y-43251380D01*
X68580952Y-43251380D01*
X68466666Y-43203761D01*
X68390476Y-43108523D01*
X68352380Y-43013285D01*
X68314285Y-42822809D01*
X68314285Y-42679952D01*
X68352380Y-42489476D01*
X68390476Y-42394238D01*
X68466666Y-42299000D01*
X68580952Y-42251380D01*
X68657142Y-42251380D01*
X68771428Y-42299000D01*
X68809523Y-42346619D01*
D10*
X73816666Y-57565333D02*
X73816666Y-57165333D01*
X74516666Y-57365333D02*
X73816666Y-57365333D01*
X73816666Y-56998666D02*
X74516666Y-56532000D01*
X73816666Y-56532000D02*
X74516666Y-56998666D01*
X68671428Y-44028571D02*
X68814285Y-44076190D01*
X68861904Y-44123809D01*
X68909523Y-44219047D01*
X68909523Y-44361904D01*
X68861904Y-44457142D01*
X68814285Y-44504761D01*
X68719047Y-44552380D01*
X68338095Y-44552380D01*
X68338095Y-43552380D01*
X68671428Y-43552380D01*
X68766666Y-43600000D01*
X68814285Y-43647619D01*
X68861904Y-43742857D01*
X68861904Y-43838095D01*
X68814285Y-43933333D01*
X68766666Y-43980952D01*
X68671428Y-44028571D01*
X68338095Y-44028571D01*
X46798666Y-38597833D02*
X46098666Y-38597833D01*
X46432000Y-38597833D02*
X46432000Y-38197833D01*
X46798666Y-38197833D02*
X46098666Y-38197833D01*
X46765333Y-37597833D02*
X46798666Y-37664500D01*
X46798666Y-37797833D01*
X46765333Y-37864500D01*
X46698666Y-37897833D01*
X46432000Y-37897833D01*
X46365333Y-37864500D01*
X46332000Y-37797833D01*
X46332000Y-37664500D01*
X46365333Y-37597833D01*
X46432000Y-37564500D01*
X46498666Y-37564500D01*
X46565333Y-37897833D01*
X46798666Y-36964500D02*
X46432000Y-36964500D01*
X46365333Y-36997833D01*
X46332000Y-37064500D01*
X46332000Y-37197833D01*
X46365333Y-37264500D01*
X46765333Y-36964500D02*
X46798666Y-37031166D01*
X46798666Y-37197833D01*
X46765333Y-37264500D01*
X46698666Y-37297833D01*
X46632000Y-37297833D01*
X46565333Y-37264500D01*
X46532000Y-37197833D01*
X46532000Y-37031166D01*
X46498666Y-36964500D01*
X46332000Y-36731166D02*
X46332000Y-36464500D01*
X46098666Y-36631166D02*
X46698666Y-36631166D01*
X46765333Y-36597833D01*
X46798666Y-36531166D01*
X46798666Y-36464500D01*
X74483333Y-47428571D02*
X74516666Y-47342857D01*
X74516666Y-47200000D01*
X74483333Y-47142857D01*
X74450000Y-47114285D01*
X74383333Y-47085714D01*
X74316666Y-47085714D01*
X74250000Y-47114285D01*
X74216666Y-47142857D01*
X74183333Y-47200000D01*
X74150000Y-47314285D01*
X74116666Y-47371428D01*
X74083333Y-47400000D01*
X74016666Y-47428571D01*
X73950000Y-47428571D01*
X73883333Y-47400000D01*
X73850000Y-47371428D01*
X73816666Y-47314285D01*
X73816666Y-47171428D01*
X73850000Y-47085714D01*
X74516666Y-46828571D02*
X73816666Y-46828571D01*
X73816666Y-46685714D01*
X73850000Y-46600000D01*
X73916666Y-46542857D01*
X73983333Y-46514285D01*
X74116666Y-46485714D01*
X74216666Y-46485714D01*
X74350000Y-46514285D01*
X74416666Y-46542857D01*
X74483333Y-46600000D01*
X74516666Y-46685714D01*
X74516666Y-46828571D01*
X74316666Y-46257142D02*
X74316666Y-45971428D01*
X74516666Y-46314285D02*
X73816666Y-46114285D01*
X74516666Y-45914285D01*
X52261333Y-58493000D02*
X52228000Y-58459666D01*
X52194666Y-58393000D01*
X52194666Y-58226333D01*
X52228000Y-58159666D01*
X52261333Y-58126333D01*
X52328000Y-58093000D01*
X52394666Y-58093000D01*
X52494666Y-58126333D01*
X52894666Y-58526333D01*
X52894666Y-58093000D01*
X73850000Y-59648142D02*
X73816666Y-59705285D01*
X73816666Y-59791000D01*
X73850000Y-59876714D01*
X73916666Y-59933857D01*
X73983333Y-59962428D01*
X74116666Y-59991000D01*
X74216666Y-59991000D01*
X74350000Y-59962428D01*
X74416666Y-59933857D01*
X74483333Y-59876714D01*
X74516666Y-59791000D01*
X74516666Y-59733857D01*
X74483333Y-59648142D01*
X74450000Y-59619571D01*
X74216666Y-59619571D01*
X74216666Y-59733857D01*
X74516666Y-59362428D02*
X73816666Y-59362428D01*
X74516666Y-59019571D01*
X73816666Y-59019571D01*
X74516666Y-58733857D02*
X73816666Y-58733857D01*
X73816666Y-58591000D01*
X73850000Y-58505285D01*
X73916666Y-58448142D01*
X73983333Y-58419571D01*
X74116666Y-58391000D01*
X74216666Y-58391000D01*
X74350000Y-58419571D01*
X74416666Y-58448142D01*
X74483333Y-58505285D01*
X74516666Y-58591000D01*
X74516666Y-58733857D01*
X74950000Y-59650000D02*
X74916666Y-59716666D01*
X74916666Y-59816666D01*
X74950000Y-59916666D01*
X75016666Y-59983333D01*
X75083333Y-60016666D01*
X75216666Y-60050000D01*
X75316666Y-60050000D01*
X75450000Y-60016666D01*
X75516666Y-59983333D01*
X75583333Y-59916666D01*
X75616666Y-59816666D01*
X75616666Y-59750000D01*
X75583333Y-59650000D01*
X75550000Y-59616666D01*
X75316666Y-59616666D01*
X75316666Y-59750000D01*
X75616666Y-59316666D02*
X74916666Y-59316666D01*
X75616666Y-58916666D01*
X74916666Y-58916666D01*
X75583333Y-58616666D02*
X75616666Y-58516666D01*
X75616666Y-58350000D01*
X75583333Y-58283333D01*
X75550000Y-58250000D01*
X75483333Y-58216666D01*
X75416666Y-58216666D01*
X75350000Y-58250000D01*
X75316666Y-58283333D01*
X75283333Y-58350000D01*
X75250000Y-58483333D01*
X75216666Y-58550000D01*
X75183333Y-58583333D01*
X75116666Y-58616666D01*
X75050000Y-58616666D01*
X74983333Y-58583333D01*
X74950000Y-58550000D01*
X74916666Y-58483333D01*
X74916666Y-58316666D01*
X74950000Y-58216666D01*
X75583333Y-57950000D02*
X75616666Y-57850000D01*
X75616666Y-57683333D01*
X75583333Y-57616666D01*
X75550000Y-57583333D01*
X75483333Y-57550000D01*
X75416666Y-57550000D01*
X75350000Y-57583333D01*
X75316666Y-57616666D01*
X75283333Y-57683333D01*
X75250000Y-57816666D01*
X75216666Y-57883333D01*
X75183333Y-57916666D01*
X75116666Y-57950000D01*
X75050000Y-57950000D01*
X74983333Y-57916666D01*
X74950000Y-57883333D01*
X74916666Y-57816666D01*
X74916666Y-57650000D01*
X74950000Y-57550000D01*
X48384666Y-55222666D02*
X48384666Y-54789333D01*
X48651333Y-55022666D01*
X48651333Y-54922666D01*
X48684666Y-54856000D01*
X48718000Y-54822666D01*
X48784666Y-54789333D01*
X48951333Y-54789333D01*
X49018000Y-54822666D01*
X49051333Y-54856000D01*
X49084666Y-54922666D01*
X49084666Y-55122666D01*
X49051333Y-55189333D01*
X49018000Y-55222666D01*
X48384666Y-54589333D02*
X49084666Y-54356000D01*
X48384666Y-54122666D01*
X48384666Y-53956000D02*
X48384666Y-53522666D01*
X48651333Y-53756000D01*
X48651333Y-53656000D01*
X48684666Y-53589333D01*
X48718000Y-53556000D01*
X48784666Y-53522666D01*
X48951333Y-53522666D01*
X49018000Y-53556000D01*
X49051333Y-53589333D01*
X49084666Y-53656000D01*
X49084666Y-53856000D01*
X49051333Y-53922666D01*
X49018000Y-53956000D01*
D12*
X69635857Y-74350571D02*
X69778714Y-74398190D01*
X69826333Y-74445809D01*
X69873952Y-74541047D01*
X69873952Y-74683904D01*
X69826333Y-74779142D01*
X69778714Y-74826761D01*
X69683476Y-74874380D01*
X69302523Y-74874380D01*
X69302523Y-73874380D01*
X69635857Y-73874380D01*
X69731095Y-73922000D01*
X69778714Y-73969619D01*
X69826333Y-74064857D01*
X69826333Y-74160095D01*
X69778714Y-74255333D01*
X69731095Y-74302952D01*
X69635857Y-74350571D01*
X69302523Y-74350571D01*
X70493000Y-73874380D02*
X70683476Y-73874380D01*
X70778714Y-73922000D01*
X70873952Y-74017238D01*
X70921571Y-74207714D01*
X70921571Y-74541047D01*
X70873952Y-74731523D01*
X70778714Y-74826761D01*
X70683476Y-74874380D01*
X70493000Y-74874380D01*
X70397761Y-74826761D01*
X70302523Y-74731523D01*
X70254904Y-74541047D01*
X70254904Y-74207714D01*
X70302523Y-74017238D01*
X70397761Y-73922000D01*
X70493000Y-73874380D01*
X71540619Y-73874380D02*
X71731095Y-73874380D01*
X71826333Y-73922000D01*
X71921571Y-74017238D01*
X71969190Y-74207714D01*
X71969190Y-74541047D01*
X71921571Y-74731523D01*
X71826333Y-74826761D01*
X71731095Y-74874380D01*
X71540619Y-74874380D01*
X71445380Y-74826761D01*
X71350142Y-74731523D01*
X71302523Y-74541047D01*
X71302523Y-74207714D01*
X71350142Y-74017238D01*
X71445380Y-73922000D01*
X71540619Y-73874380D01*
X72254904Y-73874380D02*
X72826333Y-73874380D01*
X72540619Y-74874380D02*
X72540619Y-73874380D01*
D10*
X73816666Y-49474857D02*
X73816666Y-49103428D01*
X74083333Y-49303428D01*
X74083333Y-49217714D01*
X74116666Y-49160571D01*
X74150000Y-49132000D01*
X74216666Y-49103428D01*
X74383333Y-49103428D01*
X74450000Y-49132000D01*
X74483333Y-49160571D01*
X74516666Y-49217714D01*
X74516666Y-49389142D01*
X74483333Y-49446285D01*
X74450000Y-49474857D01*
X73816666Y-48932000D02*
X74516666Y-48732000D01*
X73816666Y-48532000D01*
X73816666Y-48389142D02*
X73816666Y-48017714D01*
X74083333Y-48217714D01*
X74083333Y-48132000D01*
X74116666Y-48074857D01*
X74150000Y-48046285D01*
X74216666Y-48017714D01*
X74383333Y-48017714D01*
X74450000Y-48046285D01*
X74483333Y-48074857D01*
X74516666Y-48132000D01*
X74516666Y-48303428D01*
X74483333Y-48360571D01*
X74450000Y-48389142D01*
X56577666Y-56188000D02*
X56577666Y-56588000D01*
X56577666Y-56388000D02*
X55877666Y-56388000D01*
X55977666Y-56454666D01*
X56044333Y-56521333D01*
X56077666Y-56588000D01*
X66561904Y-44266666D02*
X67038095Y-44266666D01*
X66466666Y-44552380D02*
X66800000Y-43552380D01*
X67133333Y-44552380D01*
X52194666Y-55222666D02*
X52194666Y-54789333D01*
X52461333Y-55022666D01*
X52461333Y-54922666D01*
X52494666Y-54856000D01*
X52528000Y-54822666D01*
X52594666Y-54789333D01*
X52761333Y-54789333D01*
X52828000Y-54822666D01*
X52861333Y-54856000D01*
X52894666Y-54922666D01*
X52894666Y-55122666D01*
X52861333Y-55189333D01*
X52828000Y-55222666D01*
X52194666Y-54589333D02*
X52894666Y-54356000D01*
X52194666Y-54122666D01*
X52194666Y-53956000D02*
X52194666Y-53522666D01*
X52461333Y-53756000D01*
X52461333Y-53656000D01*
X52494666Y-53589333D01*
X52528000Y-53556000D01*
X52594666Y-53522666D01*
X52761333Y-53522666D01*
X52828000Y-53556000D01*
X52861333Y-53589333D01*
X52894666Y-53656000D01*
X52894666Y-53856000D01*
X52861333Y-53922666D01*
X52828000Y-53956000D01*
D12*
X50871380Y-50014095D02*
X50395190Y-50347428D01*
X50871380Y-50585523D02*
X49871380Y-50585523D01*
X49871380Y-50204571D01*
X49919000Y-50109333D01*
X49966619Y-50061714D01*
X50061857Y-50014095D01*
X50204714Y-50014095D01*
X50299952Y-50061714D01*
X50347571Y-50109333D01*
X50395190Y-50204571D01*
X50395190Y-50585523D01*
X49871380Y-49585523D02*
X50680904Y-49585523D01*
X50776142Y-49537904D01*
X50823761Y-49490285D01*
X50871380Y-49395047D01*
X50871380Y-49204571D01*
X50823761Y-49109333D01*
X50776142Y-49061714D01*
X50680904Y-49014095D01*
X49871380Y-49014095D01*
X50871380Y-48537904D02*
X49871380Y-48537904D01*
X50871380Y-47966476D01*
X49871380Y-47966476D01*
D10*
X73850000Y-51221142D02*
X73816666Y-51278285D01*
X73816666Y-51364000D01*
X73850000Y-51449714D01*
X73916666Y-51506857D01*
X73983333Y-51535428D01*
X74116666Y-51564000D01*
X74216666Y-51564000D01*
X74350000Y-51535428D01*
X74416666Y-51506857D01*
X74483333Y-51449714D01*
X74516666Y-51364000D01*
X74516666Y-51306857D01*
X74483333Y-51221142D01*
X74450000Y-51192571D01*
X74216666Y-51192571D01*
X74216666Y-51306857D01*
X74516666Y-50935428D02*
X73816666Y-50935428D01*
X74516666Y-50592571D01*
X73816666Y-50592571D01*
X74516666Y-50306857D02*
X73816666Y-50306857D01*
X73816666Y-50164000D01*
X73850000Y-50078285D01*
X73916666Y-50021142D01*
X73983333Y-49992571D01*
X74116666Y-49964000D01*
X74216666Y-49964000D01*
X74350000Y-49992571D01*
X74416666Y-50021142D01*
X74483333Y-50078285D01*
X74516666Y-50164000D01*
X74516666Y-50306857D01*
D13*
X49578299Y-61779822D02*
X48770177Y-60971700D01*
X48770177Y-61375761D02*
X48770177Y-60971700D01*
X49174238Y-60971700D01*
D10*
X49262666Y-52513666D02*
X49262666Y-51813666D01*
X49496000Y-52313666D01*
X49729333Y-51813666D01*
X49729333Y-52513666D01*
X50062666Y-52147000D02*
X50296000Y-52147000D01*
X50396000Y-52513666D02*
X50062666Y-52513666D01*
X50062666Y-51813666D01*
X50396000Y-51813666D01*
X50696000Y-52247000D02*
X51229333Y-52247000D01*
X51529333Y-52313666D02*
X51862666Y-52313666D01*
X51462666Y-52513666D02*
X51696000Y-51813666D01*
X51929333Y-52513666D01*
X55911000Y-60858333D02*
X55877666Y-60925000D01*
X55877666Y-61025000D01*
X55911000Y-61125000D01*
X55977666Y-61191666D01*
X56044333Y-61225000D01*
X56177666Y-61258333D01*
X56277666Y-61258333D01*
X56411000Y-61225000D01*
X56477666Y-61191666D01*
X56544333Y-61125000D01*
X56577666Y-61025000D01*
X56577666Y-60958333D01*
X56544333Y-60858333D01*
X56511000Y-60825000D01*
X56277666Y-60825000D01*
X56277666Y-60958333D01*
X56577666Y-60525000D02*
X55877666Y-60525000D01*
X56577666Y-60125000D01*
X55877666Y-60125000D01*
X56577666Y-59791666D02*
X55877666Y-59791666D01*
X55877666Y-59625000D01*
X55911000Y-59525000D01*
X55977666Y-59458333D01*
X56044333Y-59425000D01*
X56177666Y-59391666D01*
X56277666Y-59391666D01*
X56411000Y-59425000D01*
X56477666Y-59458333D01*
X56544333Y-59525000D01*
X56577666Y-59625000D01*
X56577666Y-59791666D01*
X74516666Y-55116666D02*
X74183333Y-55350000D01*
X74516666Y-55516666D02*
X73816666Y-55516666D01*
X73816666Y-55250000D01*
X73850000Y-55183333D01*
X73883333Y-55150000D01*
X73950000Y-55116666D01*
X74050000Y-55116666D01*
X74116666Y-55150000D01*
X74150000Y-55183333D01*
X74183333Y-55250000D01*
X74183333Y-55516666D01*
X73816666Y-54883333D02*
X74516666Y-54416666D01*
X73816666Y-54416666D02*
X74516666Y-54883333D01*
X55944333Y-58493000D02*
X55911000Y-58459666D01*
X55877666Y-58393000D01*
X55877666Y-58226333D01*
X55911000Y-58159666D01*
X55944333Y-58126333D01*
X56011000Y-58093000D01*
X56077666Y-58093000D01*
X56177666Y-58126333D01*
X56577666Y-58526333D01*
X56577666Y-58093000D01*
X52228000Y-60858333D02*
X52194666Y-60925000D01*
X52194666Y-61025000D01*
X52228000Y-61125000D01*
X52294666Y-61191666D01*
X52361333Y-61225000D01*
X52494666Y-61258333D01*
X52594666Y-61258333D01*
X52728000Y-61225000D01*
X52794666Y-61191666D01*
X52861333Y-61125000D01*
X52894666Y-61025000D01*
X52894666Y-60958333D01*
X52861333Y-60858333D01*
X52828000Y-60825000D01*
X52594666Y-60825000D01*
X52594666Y-60958333D01*
X52894666Y-60525000D02*
X52194666Y-60525000D01*
X52894666Y-60125000D01*
X52194666Y-60125000D01*
X52894666Y-59791666D02*
X52194666Y-59791666D01*
X52194666Y-59625000D01*
X52228000Y-59525000D01*
X52294666Y-59458333D01*
X52361333Y-59425000D01*
X52494666Y-59391666D01*
X52594666Y-59391666D01*
X52728000Y-59425000D01*
X52794666Y-59458333D01*
X52861333Y-59525000D01*
X52894666Y-59625000D01*
X52894666Y-59791666D01*
X74816666Y-51616666D02*
X74816666Y-51216666D01*
X75516666Y-51416666D02*
X74816666Y-51416666D01*
X75516666Y-50883333D02*
X75483333Y-50950000D01*
X75450000Y-50983333D01*
X75383333Y-51016666D01*
X75183333Y-51016666D01*
X75116666Y-50983333D01*
X75083333Y-50950000D01*
X75050000Y-50883333D01*
X75050000Y-50783333D01*
X75083333Y-50716666D01*
X75116666Y-50683333D01*
X75183333Y-50650000D01*
X75383333Y-50650000D01*
X75450000Y-50683333D01*
X75483333Y-50716666D01*
X75516666Y-50783333D01*
X75516666Y-50883333D01*
X75150000Y-50116666D02*
X75150000Y-50350000D01*
X75516666Y-50350000D02*
X74816666Y-50350000D01*
X74816666Y-50016666D01*
D12*
X49666666Y-63052380D02*
X49666666Y-62052380D01*
X50047619Y-62052380D01*
X50142857Y-62100000D01*
X50190476Y-62147619D01*
X50238095Y-62242857D01*
X50238095Y-62385714D01*
X50190476Y-62480952D01*
X50142857Y-62528571D01*
X50047619Y-62576190D01*
X49666666Y-62576190D01*
X50571428Y-62052380D02*
X50809523Y-63052380D01*
X51000000Y-62338095D01*
X51190476Y-63052380D01*
X51428571Y-62052380D01*
X52380952Y-63052380D02*
X52047619Y-62576190D01*
X51809523Y-63052380D02*
X51809523Y-62052380D01*
X52190476Y-62052380D01*
X52285714Y-62100000D01*
X52333333Y-62147619D01*
X52380952Y-62242857D01*
X52380952Y-62385714D01*
X52333333Y-62480952D01*
X52285714Y-62528571D01*
X52190476Y-62576190D01*
X51809523Y-62576190D01*
D10*
X79915714Y-60142857D02*
X80582380Y-60142857D01*
X79534761Y-60380952D02*
X80249047Y-60619047D01*
X80249047Y-60000000D01*
X79582380Y-59428571D02*
X79582380Y-59333333D01*
X79630000Y-59238095D01*
X79677619Y-59190476D01*
X79772857Y-59142857D01*
X79963333Y-59095238D01*
X80201428Y-59095238D01*
X80391904Y-59142857D01*
X80487142Y-59190476D01*
X80534761Y-59238095D01*
X80582380Y-59333333D01*
X80582380Y-59428571D01*
X80534761Y-59523809D01*
X80487142Y-59571428D01*
X80391904Y-59619047D01*
X80201428Y-59666666D01*
X79963333Y-59666666D01*
X79772857Y-59619047D01*
X79677619Y-59571428D01*
X79630000Y-59523809D01*
X79582380Y-59428571D01*
X80487142Y-58666666D02*
X80534761Y-58619047D01*
X80582380Y-58666666D01*
X80534761Y-58714285D01*
X80487142Y-58666666D01*
X80582380Y-58666666D01*
X79582380Y-58000000D02*
X79582380Y-57904761D01*
X79630000Y-57809523D01*
X79677619Y-57761904D01*
X79772857Y-57714285D01*
X79963333Y-57666666D01*
X80201428Y-57666666D01*
X80391904Y-57714285D01*
X80487142Y-57761904D01*
X80534761Y-57809523D01*
X80582380Y-57904761D01*
X80582380Y-58000000D01*
X80534761Y-58095238D01*
X80487142Y-58142857D01*
X80391904Y-58190476D01*
X80201428Y-58238095D01*
X79963333Y-58238095D01*
X79772857Y-58190476D01*
X79677619Y-58142857D01*
X79630000Y-58095238D01*
X79582380Y-58000000D01*
X79582380Y-57047619D02*
X79582380Y-56952380D01*
X79630000Y-56857142D01*
X79677619Y-56809523D01*
X79772857Y-56761904D01*
X79963333Y-56714285D01*
X80201428Y-56714285D01*
X80391904Y-56761904D01*
X80487142Y-56809523D01*
X80534761Y-56857142D01*
X80582380Y-56952380D01*
X80582380Y-57047619D01*
X80534761Y-57142857D01*
X80487142Y-57190476D01*
X80391904Y-57238095D01*
X80201428Y-57285714D01*
X79963333Y-57285714D01*
X79772857Y-57238095D01*
X79677619Y-57190476D01*
X79630000Y-57142857D01*
X79582380Y-57047619D01*
X79582380Y-56095238D02*
X79582380Y-56000000D01*
X79630000Y-55904761D01*
X79677619Y-55857142D01*
X79772857Y-55809523D01*
X79963333Y-55761904D01*
X80201428Y-55761904D01*
X80391904Y-55809523D01*
X80487142Y-55857142D01*
X80534761Y-55904761D01*
X80582380Y-56000000D01*
X80582380Y-56095238D01*
X80534761Y-56190476D01*
X80487142Y-56238095D01*
X80391904Y-56285714D01*
X80201428Y-56333333D01*
X79963333Y-56333333D01*
X79772857Y-56285714D01*
X79677619Y-56238095D01*
X79630000Y-56190476D01*
X79582380Y-56095238D01*
X79582380Y-55142857D02*
X79582380Y-55047619D01*
X79630000Y-54952380D01*
X79677619Y-54904761D01*
X79772857Y-54857142D01*
X79963333Y-54809523D01*
X80201428Y-54809523D01*
X80391904Y-54857142D01*
X80487142Y-54904761D01*
X80534761Y-54952380D01*
X80582380Y-55047619D01*
X80582380Y-55142857D01*
X80534761Y-55238095D01*
X80487142Y-55285714D01*
X80391904Y-55333333D01*
X80201428Y-55380952D01*
X79963333Y-55380952D01*
X79772857Y-55333333D01*
X79677619Y-55285714D01*
X79630000Y-55238095D01*
X79582380Y-55142857D01*
X80582380Y-53619047D02*
X79915714Y-53619047D01*
X80010952Y-53619047D02*
X79963333Y-53571428D01*
X79915714Y-53476190D01*
X79915714Y-53333333D01*
X79963333Y-53238095D01*
X80058571Y-53190476D01*
X80582380Y-53190476D01*
X80058571Y-53190476D02*
X79963333Y-53142857D01*
X79915714Y-53047619D01*
X79915714Y-52904761D01*
X79963333Y-52809523D01*
X80058571Y-52761904D01*
X80582380Y-52761904D01*
X80582380Y-52285714D02*
X79915714Y-52285714D01*
X80010952Y-52285714D02*
X79963333Y-52238095D01*
X79915714Y-52142857D01*
X79915714Y-52000000D01*
X79963333Y-51904761D01*
X80058571Y-51857142D01*
X80582380Y-51857142D01*
X80058571Y-51857142D02*
X79963333Y-51809523D01*
X79915714Y-51714285D01*
X79915714Y-51571428D01*
X79963333Y-51476190D01*
X80058571Y-51428571D01*
X80582380Y-51428571D01*
X78500000Y-36000000D02*
X81866420Y-36000000D01*
X78500000Y-76000000D02*
X81866420Y-76000000D01*
X81280000Y-36000000D02*
X81280000Y-76000000D01*
X81280000Y-36000000D02*
X81280000Y-76000000D01*
X81280000Y-36000000D02*
X80693579Y-37126504D01*
X81280000Y-36000000D02*
X81866421Y-37126504D01*
X81280000Y-76000000D02*
X81866421Y-74873496D01*
X81280000Y-76000000D02*
X80693579Y-74873496D01*
X41880952Y-32052619D02*
X41928571Y-32005000D01*
X42023809Y-31957380D01*
X42261904Y-31957380D01*
X42357142Y-32005000D01*
X42404761Y-32052619D01*
X42452380Y-32147857D01*
X42452380Y-32243095D01*
X42404761Y-32385952D01*
X41833333Y-32957380D01*
X42452380Y-32957380D01*
X43404761Y-32957380D02*
X42833333Y-32957380D01*
X43119047Y-32957380D02*
X43119047Y-31957380D01*
X43023809Y-32100238D01*
X42928571Y-32195476D01*
X42833333Y-32243095D01*
X43833333Y-32862142D02*
X43880952Y-32909761D01*
X43833333Y-32957380D01*
X43785714Y-32909761D01*
X43833333Y-32862142D01*
X43833333Y-32957380D01*
X44499999Y-31957380D02*
X44595238Y-31957380D01*
X44690476Y-32005000D01*
X44738095Y-32052619D01*
X44785714Y-32147857D01*
X44833333Y-32338333D01*
X44833333Y-32576428D01*
X44785714Y-32766904D01*
X44738095Y-32862142D01*
X44690476Y-32909761D01*
X44595238Y-32957380D01*
X44499999Y-32957380D01*
X44404761Y-32909761D01*
X44357142Y-32862142D01*
X44309523Y-32766904D01*
X44261904Y-32576428D01*
X44261904Y-32338333D01*
X44309523Y-32147857D01*
X44357142Y-32052619D01*
X44404761Y-32005000D01*
X44499999Y-31957380D01*
X45452380Y-31957380D02*
X45547619Y-31957380D01*
X45642857Y-32005000D01*
X45690476Y-32052619D01*
X45738095Y-32147857D01*
X45785714Y-32338333D01*
X45785714Y-32576428D01*
X45738095Y-32766904D01*
X45690476Y-32862142D01*
X45642857Y-32909761D01*
X45547619Y-32957380D01*
X45452380Y-32957380D01*
X45357142Y-32909761D01*
X45309523Y-32862142D01*
X45261904Y-32766904D01*
X45214285Y-32576428D01*
X45214285Y-32338333D01*
X45261904Y-32147857D01*
X45309523Y-32052619D01*
X45357142Y-32005000D01*
X45452380Y-31957380D01*
X46404761Y-31957380D02*
X46499999Y-31957380D01*
X46595238Y-32005000D01*
X46642857Y-32052619D01*
X46690476Y-32147857D01*
X46738095Y-32338333D01*
X46738095Y-32576428D01*
X46690476Y-32766904D01*
X46642857Y-32862142D01*
X46595238Y-32909761D01*
X46499999Y-32957380D01*
X46404761Y-32957380D01*
X46309523Y-32909761D01*
X46261904Y-32862142D01*
X46214285Y-32766904D01*
X46166666Y-32576428D01*
X46166666Y-32338333D01*
X46214285Y-32147857D01*
X46261904Y-32052619D01*
X46309523Y-32005000D01*
X46404761Y-31957380D01*
X47357142Y-31957380D02*
X47452380Y-31957380D01*
X47547619Y-32005000D01*
X47595238Y-32052619D01*
X47642857Y-32147857D01*
X47690476Y-32338333D01*
X47690476Y-32576428D01*
X47642857Y-32766904D01*
X47595238Y-32862142D01*
X47547619Y-32909761D01*
X47452380Y-32957380D01*
X47357142Y-32957380D01*
X47261904Y-32909761D01*
X47214285Y-32862142D01*
X47166666Y-32766904D01*
X47119047Y-32576428D01*
X47119047Y-32338333D01*
X47166666Y-32147857D01*
X47214285Y-32052619D01*
X47261904Y-32005000D01*
X47357142Y-31957380D01*
X48880952Y-32957380D02*
X48880952Y-32290714D01*
X48880952Y-32385952D02*
X48928571Y-32338333D01*
X49023809Y-32290714D01*
X49166666Y-32290714D01*
X49261904Y-32338333D01*
X49309523Y-32433571D01*
X49309523Y-32957380D01*
X49309523Y-32433571D02*
X49357142Y-32338333D01*
X49452380Y-32290714D01*
X49595238Y-32290714D01*
X49690476Y-32338333D01*
X49738095Y-32433571D01*
X49738095Y-32957380D01*
X50214285Y-32957380D02*
X50214285Y-32290714D01*
X50214285Y-32385952D02*
X50261904Y-32338333D01*
X50357142Y-32290714D01*
X50500000Y-32290714D01*
X50595238Y-32338333D01*
X50642857Y-32433571D01*
X50642857Y-32957380D01*
X50642857Y-32433571D02*
X50690476Y-32338333D01*
X50785714Y-32290714D01*
X50928571Y-32290714D01*
X51023809Y-32338333D01*
X51071428Y-32433571D01*
X51071428Y-32957380D01*
X36000000Y-35500000D02*
X36000000Y-33068580D01*
X57000000Y-35500000D02*
X57000000Y-33068580D01*
X36000000Y-33655000D02*
X57000000Y-33655000D01*
X36000000Y-33655000D02*
X57000000Y-33655000D01*
X36000000Y-33655000D02*
X37126504Y-34241421D01*
X36000000Y-33655000D02*
X37126504Y-33068579D01*
X57000000Y-33655000D02*
X55873496Y-33068579D01*
X57000000Y-33655000D02*
X55873496Y-34241421D01*
X52857142Y-78010714D02*
X52857142Y-78677380D01*
X52619047Y-77629761D02*
X52380952Y-78344047D01*
X52999999Y-78344047D01*
X53333333Y-77772619D02*
X53380952Y-77725000D01*
X53476190Y-77677380D01*
X53714285Y-77677380D01*
X53809523Y-77725000D01*
X53857142Y-77772619D01*
X53904761Y-77867857D01*
X53904761Y-77963095D01*
X53857142Y-78105952D01*
X53285714Y-78677380D01*
X53904761Y-78677380D01*
X54333333Y-78582142D02*
X54380952Y-78629761D01*
X54333333Y-78677380D01*
X54285714Y-78629761D01*
X54333333Y-78582142D01*
X54333333Y-78677380D01*
X54999999Y-77677380D02*
X55095238Y-77677380D01*
X55190476Y-77725000D01*
X55238095Y-77772619D01*
X55285714Y-77867857D01*
X55333333Y-78058333D01*
X55333333Y-78296428D01*
X55285714Y-78486904D01*
X55238095Y-78582142D01*
X55190476Y-78629761D01*
X55095238Y-78677380D01*
X54999999Y-78677380D01*
X54904761Y-78629761D01*
X54857142Y-78582142D01*
X54809523Y-78486904D01*
X54761904Y-78296428D01*
X54761904Y-78058333D01*
X54809523Y-77867857D01*
X54857142Y-77772619D01*
X54904761Y-77725000D01*
X54999999Y-77677380D01*
X55952380Y-77677380D02*
X56047619Y-77677380D01*
X56142857Y-77725000D01*
X56190476Y-77772619D01*
X56238095Y-77867857D01*
X56285714Y-78058333D01*
X56285714Y-78296428D01*
X56238095Y-78486904D01*
X56190476Y-78582142D01*
X56142857Y-78629761D01*
X56047619Y-78677380D01*
X55952380Y-78677380D01*
X55857142Y-78629761D01*
X55809523Y-78582142D01*
X55761904Y-78486904D01*
X55714285Y-78296428D01*
X55714285Y-78058333D01*
X55761904Y-77867857D01*
X55809523Y-77772619D01*
X55857142Y-77725000D01*
X55952380Y-77677380D01*
X56904761Y-77677380D02*
X56999999Y-77677380D01*
X57095238Y-77725000D01*
X57142857Y-77772619D01*
X57190476Y-77867857D01*
X57238095Y-78058333D01*
X57238095Y-78296428D01*
X57190476Y-78486904D01*
X57142857Y-78582142D01*
X57095238Y-78629761D01*
X56999999Y-78677380D01*
X56904761Y-78677380D01*
X56809523Y-78629761D01*
X56761904Y-78582142D01*
X56714285Y-78486904D01*
X56666666Y-78296428D01*
X56666666Y-78058333D01*
X56714285Y-77867857D01*
X56761904Y-77772619D01*
X56809523Y-77725000D01*
X56904761Y-77677380D01*
X57857142Y-77677380D02*
X57952380Y-77677380D01*
X58047619Y-77725000D01*
X58095238Y-77772619D01*
X58142857Y-77867857D01*
X58190476Y-78058333D01*
X58190476Y-78296428D01*
X58142857Y-78486904D01*
X58095238Y-78582142D01*
X58047619Y-78629761D01*
X57952380Y-78677380D01*
X57857142Y-78677380D01*
X57761904Y-78629761D01*
X57714285Y-78582142D01*
X57666666Y-78486904D01*
X57619047Y-78296428D01*
X57619047Y-78058333D01*
X57666666Y-77867857D01*
X57714285Y-77772619D01*
X57761904Y-77725000D01*
X57857142Y-77677380D01*
X59380952Y-78677380D02*
X59380952Y-78010714D01*
X59380952Y-78105952D02*
X59428571Y-78058333D01*
X59523809Y-78010714D01*
X59666666Y-78010714D01*
X59761904Y-78058333D01*
X59809523Y-78153571D01*
X59809523Y-78677380D01*
X59809523Y-78153571D02*
X59857142Y-78058333D01*
X59952380Y-78010714D01*
X60095238Y-78010714D01*
X60190476Y-78058333D01*
X60238095Y-78153571D01*
X60238095Y-78677380D01*
X60714285Y-78677380D02*
X60714285Y-78010714D01*
X60714285Y-78105952D02*
X60761904Y-78058333D01*
X60857142Y-78010714D01*
X61000000Y-78010714D01*
X61095238Y-78058333D01*
X61142857Y-78153571D01*
X61142857Y-78677380D01*
X61142857Y-78153571D02*
X61190476Y-78058333D01*
X61285714Y-78010714D01*
X61428571Y-78010714D01*
X61523809Y-78058333D01*
X61571428Y-78153571D01*
X61571428Y-78677380D01*
X36000000Y-76500000D02*
X36000000Y-79961420D01*
X78000000Y-76500000D02*
X78000000Y-79961420D01*
X36000000Y-79375000D02*
X78000000Y-79375000D01*
X36000000Y-79375000D02*
X78000000Y-79375000D01*
X36000000Y-79375000D02*
X37126504Y-79961421D01*
X36000000Y-79375000D02*
X37126504Y-78788579D01*
X78000000Y-79375000D02*
X76873496Y-78788579D01*
X78000000Y-79375000D02*
X76873496Y-79961421D01*
%TO.C,C4*%
X64399333Y-65528000D02*
X64366000Y-65561333D01*
X64266000Y-65594666D01*
X64199333Y-65594666D01*
X64099333Y-65561333D01*
X64032666Y-65494666D01*
X63999333Y-65428000D01*
X63966000Y-65294666D01*
X63966000Y-65194666D01*
X63999333Y-65061333D01*
X64032666Y-64994666D01*
X64099333Y-64928000D01*
X64199333Y-64894666D01*
X64266000Y-64894666D01*
X64366000Y-64928000D01*
X64399333Y-64961333D01*
X64999333Y-65128000D02*
X64999333Y-65594666D01*
X64832666Y-64861333D02*
X64666000Y-65361333D01*
X65099333Y-65361333D01*
%TO.C,C26*%
X73464000Y-39493000D02*
X73430666Y-39526333D01*
X73330666Y-39559666D01*
X73264000Y-39559666D01*
X73164000Y-39526333D01*
X73097333Y-39459666D01*
X73064000Y-39393000D01*
X73030666Y-39259666D01*
X73030666Y-39159666D01*
X73064000Y-39026333D01*
X73097333Y-38959666D01*
X73164000Y-38893000D01*
X73264000Y-38859666D01*
X73330666Y-38859666D01*
X73430666Y-38893000D01*
X73464000Y-38926333D01*
X73730666Y-38926333D02*
X73764000Y-38893000D01*
X73830666Y-38859666D01*
X73997333Y-38859666D01*
X74064000Y-38893000D01*
X74097333Y-38926333D01*
X74130666Y-38993000D01*
X74130666Y-39059666D01*
X74097333Y-39159666D01*
X73697333Y-39559666D01*
X74130666Y-39559666D01*
X74730666Y-38859666D02*
X74597333Y-38859666D01*
X74530666Y-38893000D01*
X74497333Y-38926333D01*
X74430666Y-39026333D01*
X74397333Y-39159666D01*
X74397333Y-39426333D01*
X74430666Y-39493000D01*
X74464000Y-39526333D01*
X74530666Y-39559666D01*
X74664000Y-39559666D01*
X74730666Y-39526333D01*
X74764000Y-39493000D01*
X74797333Y-39426333D01*
X74797333Y-39259666D01*
X74764000Y-39193000D01*
X74730666Y-39159666D01*
X74664000Y-39126333D01*
X74530666Y-39126333D01*
X74464000Y-39159666D01*
X74430666Y-39193000D01*
X74397333Y-39259666D01*
%TO.C,C22*%
X51239000Y-40890000D02*
X51205666Y-40923333D01*
X51105666Y-40956666D01*
X51039000Y-40956666D01*
X50939000Y-40923333D01*
X50872333Y-40856666D01*
X50839000Y-40790000D01*
X50805666Y-40656666D01*
X50805666Y-40556666D01*
X50839000Y-40423333D01*
X50872333Y-40356666D01*
X50939000Y-40290000D01*
X51039000Y-40256666D01*
X51105666Y-40256666D01*
X51205666Y-40290000D01*
X51239000Y-40323333D01*
X51505666Y-40323333D02*
X51539000Y-40290000D01*
X51605666Y-40256666D01*
X51772333Y-40256666D01*
X51839000Y-40290000D01*
X51872333Y-40323333D01*
X51905666Y-40390000D01*
X51905666Y-40456666D01*
X51872333Y-40556666D01*
X51472333Y-40956666D01*
X51905666Y-40956666D01*
X52172333Y-40323333D02*
X52205666Y-40290000D01*
X52272333Y-40256666D01*
X52439000Y-40256666D01*
X52505666Y-40290000D01*
X52539000Y-40323333D01*
X52572333Y-40390000D01*
X52572333Y-40456666D01*
X52539000Y-40556666D01*
X52139000Y-40956666D01*
X52572333Y-40956666D01*
%TO.C,C3*%
X63002333Y-65528000D02*
X62969000Y-65561333D01*
X62869000Y-65594666D01*
X62802333Y-65594666D01*
X62702333Y-65561333D01*
X62635666Y-65494666D01*
X62602333Y-65428000D01*
X62569000Y-65294666D01*
X62569000Y-65194666D01*
X62602333Y-65061333D01*
X62635666Y-64994666D01*
X62702333Y-64928000D01*
X62802333Y-64894666D01*
X62869000Y-64894666D01*
X62969000Y-64928000D01*
X63002333Y-64961333D01*
X63235666Y-64894666D02*
X63669000Y-64894666D01*
X63435666Y-65161333D01*
X63535666Y-65161333D01*
X63602333Y-65194666D01*
X63635666Y-65228000D01*
X63669000Y-65294666D01*
X63669000Y-65461333D01*
X63635666Y-65528000D01*
X63602333Y-65561333D01*
X63535666Y-65594666D01*
X63335666Y-65594666D01*
X63269000Y-65561333D01*
X63235666Y-65528000D01*
%TO.C,R19*%
X48195666Y-67760000D02*
X47862333Y-67993333D01*
X48195666Y-68160000D02*
X47495666Y-68160000D01*
X47495666Y-67893333D01*
X47529000Y-67826666D01*
X47562333Y-67793333D01*
X47629000Y-67760000D01*
X47729000Y-67760000D01*
X47795666Y-67793333D01*
X47829000Y-67826666D01*
X47862333Y-67893333D01*
X47862333Y-68160000D01*
X48195666Y-67093333D02*
X48195666Y-67493333D01*
X48195666Y-67293333D02*
X47495666Y-67293333D01*
X47595666Y-67360000D01*
X47662333Y-67426666D01*
X47695666Y-67493333D01*
X48195666Y-66760000D02*
X48195666Y-66626666D01*
X48162333Y-66560000D01*
X48129000Y-66526666D01*
X48029000Y-66460000D01*
X47895666Y-66426666D01*
X47629000Y-66426666D01*
X47562333Y-66460000D01*
X47529000Y-66493333D01*
X47495666Y-66560000D01*
X47495666Y-66693333D01*
X47529000Y-66760000D01*
X47562333Y-66793333D01*
X47629000Y-66826666D01*
X47795666Y-66826666D01*
X47862333Y-66793333D01*
X47895666Y-66760000D01*
X47929000Y-66693333D01*
X47929000Y-66560000D01*
X47895666Y-66493333D01*
X47862333Y-66460000D01*
X47795666Y-66426666D01*
%TO.C,R8*%
X65975666Y-40375666D02*
X65642333Y-40609000D01*
X65975666Y-40775666D02*
X65275666Y-40775666D01*
X65275666Y-40509000D01*
X65309000Y-40442333D01*
X65342333Y-40409000D01*
X65409000Y-40375666D01*
X65509000Y-40375666D01*
X65575666Y-40409000D01*
X65609000Y-40442333D01*
X65642333Y-40509000D01*
X65642333Y-40775666D01*
X65575666Y-39975666D02*
X65542333Y-40042333D01*
X65509000Y-40075666D01*
X65442333Y-40109000D01*
X65409000Y-40109000D01*
X65342333Y-40075666D01*
X65309000Y-40042333D01*
X65275666Y-39975666D01*
X65275666Y-39842333D01*
X65309000Y-39775666D01*
X65342333Y-39742333D01*
X65409000Y-39709000D01*
X65442333Y-39709000D01*
X65509000Y-39742333D01*
X65542333Y-39775666D01*
X65575666Y-39842333D01*
X65575666Y-39975666D01*
X65609000Y-40042333D01*
X65642333Y-40075666D01*
X65709000Y-40109000D01*
X65842333Y-40109000D01*
X65909000Y-40075666D01*
X65942333Y-40042333D01*
X65975666Y-39975666D01*
X65975666Y-39842333D01*
X65942333Y-39775666D01*
X65909000Y-39742333D01*
X65842333Y-39709000D01*
X65709000Y-39709000D01*
X65642333Y-39742333D01*
X65609000Y-39775666D01*
X65575666Y-39842333D01*
%TO.C,C13*%
X63812000Y-38223000D02*
X63778666Y-38256333D01*
X63678666Y-38289666D01*
X63612000Y-38289666D01*
X63512000Y-38256333D01*
X63445333Y-38189666D01*
X63412000Y-38123000D01*
X63378666Y-37989666D01*
X63378666Y-37889666D01*
X63412000Y-37756333D01*
X63445333Y-37689666D01*
X63512000Y-37623000D01*
X63612000Y-37589666D01*
X63678666Y-37589666D01*
X63778666Y-37623000D01*
X63812000Y-37656333D01*
X64478666Y-38289666D02*
X64078666Y-38289666D01*
X64278666Y-38289666D02*
X64278666Y-37589666D01*
X64212000Y-37689666D01*
X64145333Y-37756333D01*
X64078666Y-37789666D01*
X64712000Y-37589666D02*
X65145333Y-37589666D01*
X64912000Y-37856333D01*
X65012000Y-37856333D01*
X65078666Y-37889666D01*
X65112000Y-37923000D01*
X65145333Y-37989666D01*
X65145333Y-38156333D01*
X65112000Y-38223000D01*
X65078666Y-38256333D01*
X65012000Y-38289666D01*
X64812000Y-38289666D01*
X64745333Y-38256333D01*
X64712000Y-38223000D01*
%TO.C,J8*%
X45946380Y-38052333D02*
X46660666Y-38052333D01*
X46803523Y-38099952D01*
X46898761Y-38195190D01*
X46946380Y-38338047D01*
X46946380Y-38433285D01*
X46374952Y-37433285D02*
X46327333Y-37528523D01*
X46279714Y-37576142D01*
X46184476Y-37623761D01*
X46136857Y-37623761D01*
X46041619Y-37576142D01*
X45994000Y-37528523D01*
X45946380Y-37433285D01*
X45946380Y-37242809D01*
X45994000Y-37147571D01*
X46041619Y-37099952D01*
X46136857Y-37052333D01*
X46184476Y-37052333D01*
X46279714Y-37099952D01*
X46327333Y-37147571D01*
X46374952Y-37242809D01*
X46374952Y-37433285D01*
X46422571Y-37528523D01*
X46470190Y-37576142D01*
X46565428Y-37623761D01*
X46755904Y-37623761D01*
X46851142Y-37576142D01*
X46898761Y-37528523D01*
X46946380Y-37433285D01*
X46946380Y-37242809D01*
X46898761Y-37147571D01*
X46851142Y-37099952D01*
X46755904Y-37052333D01*
X46565428Y-37052333D01*
X46470190Y-37099952D01*
X46422571Y-37147571D01*
X46374952Y-37242809D01*
D14*
%TO.C,IC1*%
X65444809Y-60904380D02*
X65444809Y-59904380D01*
X66492428Y-60809142D02*
X66444809Y-60856761D01*
X66301952Y-60904380D01*
X66206714Y-60904380D01*
X66063857Y-60856761D01*
X65968619Y-60761523D01*
X65921000Y-60666285D01*
X65873380Y-60475809D01*
X65873380Y-60332952D01*
X65921000Y-60142476D01*
X65968619Y-60047238D01*
X66063857Y-59952000D01*
X66206714Y-59904380D01*
X66301952Y-59904380D01*
X66444809Y-59952000D01*
X66492428Y-59999619D01*
X67444809Y-60904380D02*
X66873380Y-60904380D01*
X67159095Y-60904380D02*
X67159095Y-59904380D01*
X67063857Y-60047238D01*
X66968619Y-60142476D01*
X66873380Y-60190095D01*
D10*
%TO.C,R20*%
X46798666Y-67760000D02*
X46465333Y-67993333D01*
X46798666Y-68160000D02*
X46098666Y-68160000D01*
X46098666Y-67893333D01*
X46132000Y-67826666D01*
X46165333Y-67793333D01*
X46232000Y-67760000D01*
X46332000Y-67760000D01*
X46398666Y-67793333D01*
X46432000Y-67826666D01*
X46465333Y-67893333D01*
X46465333Y-68160000D01*
X46165333Y-67493333D02*
X46132000Y-67460000D01*
X46098666Y-67393333D01*
X46098666Y-67226666D01*
X46132000Y-67160000D01*
X46165333Y-67126666D01*
X46232000Y-67093333D01*
X46298666Y-67093333D01*
X46398666Y-67126666D01*
X46798666Y-67526666D01*
X46798666Y-67093333D01*
X46098666Y-66660000D02*
X46098666Y-66593333D01*
X46132000Y-66526666D01*
X46165333Y-66493333D01*
X46232000Y-66460000D01*
X46365333Y-66426666D01*
X46532000Y-66426666D01*
X46665333Y-66460000D01*
X46732000Y-66493333D01*
X46765333Y-66526666D01*
X46798666Y-66593333D01*
X46798666Y-66660000D01*
X46765333Y-66726666D01*
X46732000Y-66760000D01*
X46665333Y-66793333D01*
X46532000Y-66826666D01*
X46365333Y-66826666D01*
X46232000Y-66793333D01*
X46165333Y-66760000D01*
X46132000Y-66726666D01*
X46098666Y-66660000D01*
%TO.C,U3*%
X43027666Y-67434666D02*
X43027666Y-68001333D01*
X43061000Y-68068000D01*
X43094333Y-68101333D01*
X43161000Y-68134666D01*
X43294333Y-68134666D01*
X43361000Y-68101333D01*
X43394333Y-68068000D01*
X43427666Y-68001333D01*
X43427666Y-67434666D01*
X43694333Y-67434666D02*
X44127666Y-67434666D01*
X43894333Y-67701333D01*
X43994333Y-67701333D01*
X44061000Y-67734666D01*
X44094333Y-67768000D01*
X44127666Y-67834666D01*
X44127666Y-68001333D01*
X44094333Y-68068000D01*
X44061000Y-68101333D01*
X43994333Y-68134666D01*
X43794333Y-68134666D01*
X43727666Y-68101333D01*
X43694333Y-68068000D01*
%TO.C,C7*%
X59559000Y-50055666D02*
X59592333Y-50089000D01*
X59625666Y-50189000D01*
X59625666Y-50255666D01*
X59592333Y-50355666D01*
X59525666Y-50422333D01*
X59459000Y-50455666D01*
X59325666Y-50489000D01*
X59225666Y-50489000D01*
X59092333Y-50455666D01*
X59025666Y-50422333D01*
X58959000Y-50355666D01*
X58925666Y-50255666D01*
X58925666Y-50189000D01*
X58959000Y-50089000D01*
X58992333Y-50055666D01*
X58925666Y-49822333D02*
X58925666Y-49355666D01*
X59625666Y-49655666D01*
%TO.C,C25*%
X47175000Y-47367000D02*
X47141666Y-47400333D01*
X47041666Y-47433666D01*
X46975000Y-47433666D01*
X46875000Y-47400333D01*
X46808333Y-47333666D01*
X46775000Y-47267000D01*
X46741666Y-47133666D01*
X46741666Y-47033666D01*
X46775000Y-46900333D01*
X46808333Y-46833666D01*
X46875000Y-46767000D01*
X46975000Y-46733666D01*
X47041666Y-46733666D01*
X47141666Y-46767000D01*
X47175000Y-46800333D01*
X47441666Y-46800333D02*
X47475000Y-46767000D01*
X47541666Y-46733666D01*
X47708333Y-46733666D01*
X47775000Y-46767000D01*
X47808333Y-46800333D01*
X47841666Y-46867000D01*
X47841666Y-46933666D01*
X47808333Y-47033666D01*
X47408333Y-47433666D01*
X47841666Y-47433666D01*
X48475000Y-46733666D02*
X48141666Y-46733666D01*
X48108333Y-47067000D01*
X48141666Y-47033666D01*
X48208333Y-47000333D01*
X48375000Y-47000333D01*
X48441666Y-47033666D01*
X48475000Y-47067000D01*
X48508333Y-47133666D01*
X48508333Y-47300333D01*
X48475000Y-47367000D01*
X48441666Y-47400333D01*
X48375000Y-47433666D01*
X48208333Y-47433666D01*
X48141666Y-47400333D01*
X48108333Y-47367000D01*
%TO.C,R12*%
X59000000Y-42916666D02*
X58766666Y-42583333D01*
X58600000Y-42916666D02*
X58600000Y-42216666D01*
X58866666Y-42216666D01*
X58933333Y-42250000D01*
X58966666Y-42283333D01*
X59000000Y-42350000D01*
X59000000Y-42450000D01*
X58966666Y-42516666D01*
X58933333Y-42550000D01*
X58866666Y-42583333D01*
X58600000Y-42583333D01*
X59666666Y-42916666D02*
X59266666Y-42916666D01*
X59466666Y-42916666D02*
X59466666Y-42216666D01*
X59400000Y-42316666D01*
X59333333Y-42383333D01*
X59266666Y-42416666D01*
X59933333Y-42283333D02*
X59966666Y-42250000D01*
X60033333Y-42216666D01*
X60200000Y-42216666D01*
X60266666Y-42250000D01*
X60300000Y-42283333D01*
X60333333Y-42350000D01*
X60333333Y-42416666D01*
X60300000Y-42516666D01*
X59900000Y-42916666D01*
X60333333Y-42916666D01*
%TO.C,R3*%
X58938333Y-67499666D02*
X58705000Y-67166333D01*
X58538333Y-67499666D02*
X58538333Y-66799666D01*
X58805000Y-66799666D01*
X58871666Y-66833000D01*
X58905000Y-66866333D01*
X58938333Y-66933000D01*
X58938333Y-67033000D01*
X58905000Y-67099666D01*
X58871666Y-67133000D01*
X58805000Y-67166333D01*
X58538333Y-67166333D01*
X59171666Y-66799666D02*
X59605000Y-66799666D01*
X59371666Y-67066333D01*
X59471666Y-67066333D01*
X59538333Y-67099666D01*
X59571666Y-67133000D01*
X59605000Y-67199666D01*
X59605000Y-67366333D01*
X59571666Y-67433000D01*
X59538333Y-67466333D01*
X59471666Y-67499666D01*
X59271666Y-67499666D01*
X59205000Y-67466333D01*
X59171666Y-67433000D01*
%TO.C,R27*%
X41550000Y-54082666D02*
X41316666Y-53749333D01*
X41150000Y-54082666D02*
X41150000Y-53382666D01*
X41416666Y-53382666D01*
X41483333Y-53416000D01*
X41516666Y-53449333D01*
X41550000Y-53516000D01*
X41550000Y-53616000D01*
X41516666Y-53682666D01*
X41483333Y-53716000D01*
X41416666Y-53749333D01*
X41150000Y-53749333D01*
X41816666Y-53449333D02*
X41850000Y-53416000D01*
X41916666Y-53382666D01*
X42083333Y-53382666D01*
X42150000Y-53416000D01*
X42183333Y-53449333D01*
X42216666Y-53516000D01*
X42216666Y-53582666D01*
X42183333Y-53682666D01*
X41783333Y-54082666D01*
X42216666Y-54082666D01*
X42450000Y-53382666D02*
X42916666Y-53382666D01*
X42616666Y-54082666D01*
%TO.C,C24*%
X41144000Y-46043000D02*
X41177333Y-46076333D01*
X41210666Y-46176333D01*
X41210666Y-46243000D01*
X41177333Y-46343000D01*
X41110666Y-46409666D01*
X41044000Y-46443000D01*
X40910666Y-46476333D01*
X40810666Y-46476333D01*
X40677333Y-46443000D01*
X40610666Y-46409666D01*
X40544000Y-46343000D01*
X40510666Y-46243000D01*
X40510666Y-46176333D01*
X40544000Y-46076333D01*
X40577333Y-46043000D01*
X40577333Y-45776333D02*
X40544000Y-45743000D01*
X40510666Y-45676333D01*
X40510666Y-45509666D01*
X40544000Y-45443000D01*
X40577333Y-45409666D01*
X40644000Y-45376333D01*
X40710666Y-45376333D01*
X40810666Y-45409666D01*
X41210666Y-45809666D01*
X41210666Y-45376333D01*
X40744000Y-44776333D02*
X41210666Y-44776333D01*
X40477333Y-44943000D02*
X40977333Y-45109666D01*
X40977333Y-44676333D01*
%TO.C,D4*%
X45711333Y-62546666D02*
X45711333Y-61846666D01*
X45878000Y-61846666D01*
X45978000Y-61880000D01*
X46044666Y-61946666D01*
X46078000Y-62013333D01*
X46111333Y-62146666D01*
X46111333Y-62246666D01*
X46078000Y-62380000D01*
X46044666Y-62446666D01*
X45978000Y-62513333D01*
X45878000Y-62546666D01*
X45711333Y-62546666D01*
X46711333Y-62080000D02*
X46711333Y-62546666D01*
X46544666Y-61813333D02*
X46378000Y-62313333D01*
X46811333Y-62313333D01*
%TO.C,C19*%
X66860000Y-39620000D02*
X66826666Y-39653333D01*
X66726666Y-39686666D01*
X66660000Y-39686666D01*
X66560000Y-39653333D01*
X66493333Y-39586666D01*
X66460000Y-39520000D01*
X66426666Y-39386666D01*
X66426666Y-39286666D01*
X66460000Y-39153333D01*
X66493333Y-39086666D01*
X66560000Y-39020000D01*
X66660000Y-38986666D01*
X66726666Y-38986666D01*
X66826666Y-39020000D01*
X66860000Y-39053333D01*
X67526666Y-39686666D02*
X67126666Y-39686666D01*
X67326666Y-39686666D02*
X67326666Y-38986666D01*
X67260000Y-39086666D01*
X67193333Y-39153333D01*
X67126666Y-39186666D01*
X67860000Y-39686666D02*
X67993333Y-39686666D01*
X68060000Y-39653333D01*
X68093333Y-39620000D01*
X68160000Y-39520000D01*
X68193333Y-39386666D01*
X68193333Y-39120000D01*
X68160000Y-39053333D01*
X68126666Y-39020000D01*
X68060000Y-38986666D01*
X67926666Y-38986666D01*
X67860000Y-39020000D01*
X67826666Y-39053333D01*
X67793333Y-39120000D01*
X67793333Y-39286666D01*
X67826666Y-39353333D01*
X67860000Y-39386666D01*
X67926666Y-39420000D01*
X68060000Y-39420000D01*
X68126666Y-39386666D01*
X68160000Y-39353333D01*
X68193333Y-39286666D01*
%TO.C,R9*%
X57183333Y-42816666D02*
X56950000Y-42483333D01*
X56783333Y-42816666D02*
X56783333Y-42116666D01*
X57050000Y-42116666D01*
X57116666Y-42150000D01*
X57150000Y-42183333D01*
X57183333Y-42250000D01*
X57183333Y-42350000D01*
X57150000Y-42416666D01*
X57116666Y-42450000D01*
X57050000Y-42483333D01*
X56783333Y-42483333D01*
X57516666Y-42816666D02*
X57650000Y-42816666D01*
X57716666Y-42783333D01*
X57750000Y-42750000D01*
X57816666Y-42650000D01*
X57850000Y-42516666D01*
X57850000Y-42250000D01*
X57816666Y-42183333D01*
X57783333Y-42150000D01*
X57716666Y-42116666D01*
X57583333Y-42116666D01*
X57516666Y-42150000D01*
X57483333Y-42183333D01*
X57450000Y-42250000D01*
X57450000Y-42416666D01*
X57483333Y-42483333D01*
X57516666Y-42516666D01*
X57583333Y-42550000D01*
X57716666Y-42550000D01*
X57783333Y-42516666D01*
X57816666Y-42483333D01*
X57850000Y-42416666D01*
D12*
%TO.C,Q3*%
X52381095Y-70815190D02*
X52343000Y-70891380D01*
X52266809Y-70967571D01*
X52152523Y-71081857D01*
X52114428Y-71158047D01*
X52114428Y-71234238D01*
X52304904Y-71196142D02*
X52266809Y-71272333D01*
X52190619Y-71348523D01*
X52038238Y-71386619D01*
X51771571Y-71386619D01*
X51619190Y-71348523D01*
X51543000Y-71272333D01*
X51504904Y-71196142D01*
X51504904Y-71043761D01*
X51543000Y-70967571D01*
X51619190Y-70891380D01*
X51771571Y-70853285D01*
X52038238Y-70853285D01*
X52190619Y-70891380D01*
X52266809Y-70967571D01*
X52304904Y-71043761D01*
X52304904Y-71196142D01*
X51504904Y-70586619D02*
X51504904Y-70091380D01*
X51809666Y-70358047D01*
X51809666Y-70243761D01*
X51847761Y-70167571D01*
X51885857Y-70129476D01*
X51962047Y-70091380D01*
X52152523Y-70091380D01*
X52228714Y-70129476D01*
X52266809Y-70167571D01*
X52304904Y-70243761D01*
X52304904Y-70472333D01*
X52266809Y-70548523D01*
X52228714Y-70586619D01*
%TO.C,Q2*%
X43698095Y-42192190D02*
X43660000Y-42268380D01*
X43583809Y-42344571D01*
X43469523Y-42458857D01*
X43431428Y-42535047D01*
X43431428Y-42611238D01*
X43621904Y-42573142D02*
X43583809Y-42649333D01*
X43507619Y-42725523D01*
X43355238Y-42763619D01*
X43088571Y-42763619D01*
X42936190Y-42725523D01*
X42860000Y-42649333D01*
X42821904Y-42573142D01*
X42821904Y-42420761D01*
X42860000Y-42344571D01*
X42936190Y-42268380D01*
X43088571Y-42230285D01*
X43355238Y-42230285D01*
X43507619Y-42268380D01*
X43583809Y-42344571D01*
X43621904Y-42420761D01*
X43621904Y-42573142D01*
X42898095Y-41925523D02*
X42860000Y-41887428D01*
X42821904Y-41811238D01*
X42821904Y-41620761D01*
X42860000Y-41544571D01*
X42898095Y-41506476D01*
X42974285Y-41468380D01*
X43050476Y-41468380D01*
X43164761Y-41506476D01*
X43621904Y-41963619D01*
X43621904Y-41468380D01*
D10*
%TO.C,D2*%
X54926666Y-73414666D02*
X54226666Y-73414666D01*
X54226666Y-73248000D01*
X54260000Y-73148000D01*
X54326666Y-73081333D01*
X54393333Y-73048000D01*
X54526666Y-73014666D01*
X54626666Y-73014666D01*
X54760000Y-73048000D01*
X54826666Y-73081333D01*
X54893333Y-73148000D01*
X54926666Y-73248000D01*
X54926666Y-73414666D01*
X54293333Y-72748000D02*
X54260000Y-72714666D01*
X54226666Y-72648000D01*
X54226666Y-72481333D01*
X54260000Y-72414666D01*
X54293333Y-72381333D01*
X54360000Y-72348000D01*
X54426666Y-72348000D01*
X54526666Y-72381333D01*
X54926666Y-72781333D01*
X54926666Y-72348000D01*
%TO.C,R18*%
X56196666Y-69157000D02*
X55863333Y-69390333D01*
X56196666Y-69557000D02*
X55496666Y-69557000D01*
X55496666Y-69290333D01*
X55530000Y-69223666D01*
X55563333Y-69190333D01*
X55630000Y-69157000D01*
X55730000Y-69157000D01*
X55796666Y-69190333D01*
X55830000Y-69223666D01*
X55863333Y-69290333D01*
X55863333Y-69557000D01*
X56196666Y-68490333D02*
X56196666Y-68890333D01*
X56196666Y-68690333D02*
X55496666Y-68690333D01*
X55596666Y-68757000D01*
X55663333Y-68823666D01*
X55696666Y-68890333D01*
X55796666Y-68090333D02*
X55763333Y-68157000D01*
X55730000Y-68190333D01*
X55663333Y-68223666D01*
X55630000Y-68223666D01*
X55563333Y-68190333D01*
X55530000Y-68157000D01*
X55496666Y-68090333D01*
X55496666Y-67957000D01*
X55530000Y-67890333D01*
X55563333Y-67857000D01*
X55630000Y-67823666D01*
X55663333Y-67823666D01*
X55730000Y-67857000D01*
X55763333Y-67890333D01*
X55796666Y-67957000D01*
X55796666Y-68090333D01*
X55830000Y-68157000D01*
X55863333Y-68190333D01*
X55930000Y-68223666D01*
X56063333Y-68223666D01*
X56130000Y-68190333D01*
X56163333Y-68157000D01*
X56196666Y-68090333D01*
X56196666Y-67957000D01*
X56163333Y-67890333D01*
X56130000Y-67857000D01*
X56063333Y-67823666D01*
X55930000Y-67823666D01*
X55863333Y-67857000D01*
X55830000Y-67890333D01*
X55796666Y-67957000D01*
%TO.C,R2*%
X73941000Y-69359428D02*
X73741000Y-69073714D01*
X73598142Y-69359428D02*
X73598142Y-68759428D01*
X73826714Y-68759428D01*
X73883857Y-68788000D01*
X73912428Y-68816571D01*
X73941000Y-68873714D01*
X73941000Y-68959428D01*
X73912428Y-69016571D01*
X73883857Y-69045142D01*
X73826714Y-69073714D01*
X73598142Y-69073714D01*
X74169571Y-68816571D02*
X74198142Y-68788000D01*
X74255285Y-68759428D01*
X74398142Y-68759428D01*
X74455285Y-68788000D01*
X74483857Y-68816571D01*
X74512428Y-68873714D01*
X74512428Y-68930857D01*
X74483857Y-69016571D01*
X74141000Y-69359428D01*
X74512428Y-69359428D01*
%TO.C,D5*%
X65373666Y-47705666D02*
X64673666Y-47705666D01*
X64673666Y-47539000D01*
X64707000Y-47439000D01*
X64773666Y-47372333D01*
X64840333Y-47339000D01*
X64973666Y-47305666D01*
X65073666Y-47305666D01*
X65207000Y-47339000D01*
X65273666Y-47372333D01*
X65340333Y-47439000D01*
X65373666Y-47539000D01*
X65373666Y-47705666D01*
X64673666Y-46672333D02*
X64673666Y-47005666D01*
X65007000Y-47039000D01*
X64973666Y-47005666D01*
X64940333Y-46939000D01*
X64940333Y-46772333D01*
X64973666Y-46705666D01*
X65007000Y-46672333D01*
X65073666Y-46639000D01*
X65240333Y-46639000D01*
X65307000Y-46672333D01*
X65340333Y-46705666D01*
X65373666Y-46772333D01*
X65373666Y-46939000D01*
X65340333Y-47005666D01*
X65307000Y-47039000D01*
%TO.C,C12*%
X67559285Y-69302285D02*
X67530714Y-69330857D01*
X67445000Y-69359428D01*
X67387857Y-69359428D01*
X67302142Y-69330857D01*
X67245000Y-69273714D01*
X67216428Y-69216571D01*
X67187857Y-69102285D01*
X67187857Y-69016571D01*
X67216428Y-68902285D01*
X67245000Y-68845142D01*
X67302142Y-68788000D01*
X67387857Y-68759428D01*
X67445000Y-68759428D01*
X67530714Y-68788000D01*
X67559285Y-68816571D01*
X68130714Y-69359428D02*
X67787857Y-69359428D01*
X67959285Y-69359428D02*
X67959285Y-68759428D01*
X67902142Y-68845142D01*
X67845000Y-68902285D01*
X67787857Y-68930857D01*
X68359285Y-68816571D02*
X68387857Y-68788000D01*
X68445000Y-68759428D01*
X68587857Y-68759428D01*
X68645000Y-68788000D01*
X68673571Y-68816571D01*
X68702142Y-68873714D01*
X68702142Y-68930857D01*
X68673571Y-69016571D01*
X68330714Y-69359428D01*
X68702142Y-69359428D01*
%TO.C,R7*%
X68134666Y-51043666D02*
X67801333Y-51277000D01*
X68134666Y-51443666D02*
X67434666Y-51443666D01*
X67434666Y-51177000D01*
X67468000Y-51110333D01*
X67501333Y-51077000D01*
X67568000Y-51043666D01*
X67668000Y-51043666D01*
X67734666Y-51077000D01*
X67768000Y-51110333D01*
X67801333Y-51177000D01*
X67801333Y-51443666D01*
X67434666Y-50810333D02*
X67434666Y-50343666D01*
X68134666Y-50643666D01*
D12*
%TO.C,IC9*%
X53194047Y-43414904D02*
X53194047Y-42614904D01*
X54032142Y-43338714D02*
X53994047Y-43376809D01*
X53879761Y-43414904D01*
X53803571Y-43414904D01*
X53689285Y-43376809D01*
X53613095Y-43300619D01*
X53575000Y-43224428D01*
X53536904Y-43072047D01*
X53536904Y-42957761D01*
X53575000Y-42805380D01*
X53613095Y-42729190D01*
X53689285Y-42653000D01*
X53803571Y-42614904D01*
X53879761Y-42614904D01*
X53994047Y-42653000D01*
X54032142Y-42691095D01*
X54413095Y-43414904D02*
X54565476Y-43414904D01*
X54641666Y-43376809D01*
X54679761Y-43338714D01*
X54755952Y-43224428D01*
X54794047Y-43072047D01*
X54794047Y-42767285D01*
X54755952Y-42691095D01*
X54717857Y-42653000D01*
X54641666Y-42614904D01*
X54489285Y-42614904D01*
X54413095Y-42653000D01*
X54375000Y-42691095D01*
X54336904Y-42767285D01*
X54336904Y-42957761D01*
X54375000Y-43033952D01*
X54413095Y-43072047D01*
X54489285Y-43110142D01*
X54641666Y-43110142D01*
X54717857Y-43072047D01*
X54755952Y-43033952D01*
X54794047Y-42957761D01*
D15*
%TO.C,S2*%
X52901050Y-49866347D02*
X53082479Y-49926823D01*
X53384860Y-49926823D01*
X53505812Y-49866347D01*
X53566289Y-49805871D01*
X53626765Y-49684919D01*
X53626765Y-49563966D01*
X53566289Y-49443014D01*
X53505812Y-49382538D01*
X53384860Y-49322061D01*
X53142955Y-49261585D01*
X53022003Y-49201109D01*
X52961527Y-49140633D01*
X52901050Y-49019680D01*
X52901050Y-48898728D01*
X52961527Y-48777776D01*
X53022003Y-48717300D01*
X53142955Y-48656823D01*
X53445336Y-48656823D01*
X53626765Y-48717300D01*
X54110574Y-48777776D02*
X54171050Y-48717300D01*
X54292003Y-48656823D01*
X54594384Y-48656823D01*
X54715336Y-48717300D01*
X54775812Y-48777776D01*
X54836289Y-48898728D01*
X54836289Y-49019680D01*
X54775812Y-49201109D01*
X54050098Y-49926823D01*
X54836289Y-49926823D01*
D10*
%TO.C,C23*%
X58351000Y-39366000D02*
X58317666Y-39399333D01*
X58217666Y-39432666D01*
X58151000Y-39432666D01*
X58051000Y-39399333D01*
X57984333Y-39332666D01*
X57951000Y-39266000D01*
X57917666Y-39132666D01*
X57917666Y-39032666D01*
X57951000Y-38899333D01*
X57984333Y-38832666D01*
X58051000Y-38766000D01*
X58151000Y-38732666D01*
X58217666Y-38732666D01*
X58317666Y-38766000D01*
X58351000Y-38799333D01*
X58617666Y-38799333D02*
X58651000Y-38766000D01*
X58717666Y-38732666D01*
X58884333Y-38732666D01*
X58951000Y-38766000D01*
X58984333Y-38799333D01*
X59017666Y-38866000D01*
X59017666Y-38932666D01*
X58984333Y-39032666D01*
X58584333Y-39432666D01*
X59017666Y-39432666D01*
X59251000Y-38732666D02*
X59684333Y-38732666D01*
X59451000Y-38999333D01*
X59551000Y-38999333D01*
X59617666Y-39032666D01*
X59651000Y-39066000D01*
X59684333Y-39132666D01*
X59684333Y-39299333D01*
X59651000Y-39366000D01*
X59617666Y-39399333D01*
X59551000Y-39432666D01*
X59351000Y-39432666D01*
X59284333Y-39399333D01*
X59251000Y-39366000D01*
%TO.C,C11*%
X56827000Y-55749000D02*
X56793666Y-55782333D01*
X56693666Y-55815666D01*
X56627000Y-55815666D01*
X56527000Y-55782333D01*
X56460333Y-55715666D01*
X56427000Y-55649000D01*
X56393666Y-55515666D01*
X56393666Y-55415666D01*
X56427000Y-55282333D01*
X56460333Y-55215666D01*
X56527000Y-55149000D01*
X56627000Y-55115666D01*
X56693666Y-55115666D01*
X56793666Y-55149000D01*
X56827000Y-55182333D01*
X57493666Y-55815666D02*
X57093666Y-55815666D01*
X57293666Y-55815666D02*
X57293666Y-55115666D01*
X57227000Y-55215666D01*
X57160333Y-55282333D01*
X57093666Y-55315666D01*
X58160333Y-55815666D02*
X57760333Y-55815666D01*
X57960333Y-55815666D02*
X57960333Y-55115666D01*
X57893666Y-55215666D01*
X57827000Y-55282333D01*
X57760333Y-55315666D01*
D15*
%TO.C,IC3*%
X69753238Y-64836523D02*
X69753238Y-63566523D01*
X71083714Y-64715571D02*
X71023238Y-64776047D01*
X70841809Y-64836523D01*
X70720857Y-64836523D01*
X70539428Y-64776047D01*
X70418476Y-64655095D01*
X70358000Y-64534142D01*
X70297523Y-64292238D01*
X70297523Y-64110809D01*
X70358000Y-63868904D01*
X70418476Y-63747952D01*
X70539428Y-63627000D01*
X70720857Y-63566523D01*
X70841809Y-63566523D01*
X71023238Y-63627000D01*
X71083714Y-63687476D01*
X71507047Y-63566523D02*
X72293238Y-63566523D01*
X71869904Y-64050333D01*
X72051333Y-64050333D01*
X72172285Y-64110809D01*
X72232761Y-64171285D01*
X72293238Y-64292238D01*
X72293238Y-64594619D01*
X72232761Y-64715571D01*
X72172285Y-64776047D01*
X72051333Y-64836523D01*
X71688476Y-64836523D01*
X71567523Y-64776047D01*
X71507047Y-64715571D01*
D12*
%TO.C,IC8*%
X38821904Y-54882952D02*
X38021904Y-54882952D01*
X38745714Y-54044857D02*
X38783809Y-54082952D01*
X38821904Y-54197238D01*
X38821904Y-54273428D01*
X38783809Y-54387714D01*
X38707619Y-54463904D01*
X38631428Y-54502000D01*
X38479047Y-54540095D01*
X38364761Y-54540095D01*
X38212380Y-54502000D01*
X38136190Y-54463904D01*
X38060000Y-54387714D01*
X38021904Y-54273428D01*
X38021904Y-54197238D01*
X38060000Y-54082952D01*
X38098095Y-54044857D01*
X38364761Y-53587714D02*
X38326666Y-53663904D01*
X38288571Y-53702000D01*
X38212380Y-53740095D01*
X38174285Y-53740095D01*
X38098095Y-53702000D01*
X38060000Y-53663904D01*
X38021904Y-53587714D01*
X38021904Y-53435333D01*
X38060000Y-53359142D01*
X38098095Y-53321047D01*
X38174285Y-53282952D01*
X38212380Y-53282952D01*
X38288571Y-53321047D01*
X38326666Y-53359142D01*
X38364761Y-53435333D01*
X38364761Y-53587714D01*
X38402857Y-53663904D01*
X38440952Y-53702000D01*
X38517142Y-53740095D01*
X38669523Y-53740095D01*
X38745714Y-53702000D01*
X38783809Y-53663904D01*
X38821904Y-53587714D01*
X38821904Y-53435333D01*
X38783809Y-53359142D01*
X38745714Y-53321047D01*
X38669523Y-53282952D01*
X38517142Y-53282952D01*
X38440952Y-53321047D01*
X38402857Y-53359142D01*
X38364761Y-53435333D01*
D10*
%TO.C,C21*%
X44889000Y-57146000D02*
X44855666Y-57179333D01*
X44755666Y-57212666D01*
X44689000Y-57212666D01*
X44589000Y-57179333D01*
X44522333Y-57112666D01*
X44489000Y-57046000D01*
X44455666Y-56912666D01*
X44455666Y-56812666D01*
X44489000Y-56679333D01*
X44522333Y-56612666D01*
X44589000Y-56546000D01*
X44689000Y-56512666D01*
X44755666Y-56512666D01*
X44855666Y-56546000D01*
X44889000Y-56579333D01*
X45155666Y-56579333D02*
X45189000Y-56546000D01*
X45255666Y-56512666D01*
X45422333Y-56512666D01*
X45489000Y-56546000D01*
X45522333Y-56579333D01*
X45555666Y-56646000D01*
X45555666Y-56712666D01*
X45522333Y-56812666D01*
X45122333Y-57212666D01*
X45555666Y-57212666D01*
X46222333Y-57212666D02*
X45822333Y-57212666D01*
X46022333Y-57212666D02*
X46022333Y-56512666D01*
X45955666Y-56612666D01*
X45889000Y-56679333D01*
X45822333Y-56712666D01*
D15*
%TO.C,S1*%
X69792050Y-72091347D02*
X69973479Y-72151823D01*
X70275860Y-72151823D01*
X70396812Y-72091347D01*
X70457289Y-72030871D01*
X70517765Y-71909919D01*
X70517765Y-71788966D01*
X70457289Y-71668014D01*
X70396812Y-71607538D01*
X70275860Y-71547061D01*
X70033955Y-71486585D01*
X69913003Y-71426109D01*
X69852527Y-71365633D01*
X69792050Y-71244680D01*
X69792050Y-71123728D01*
X69852527Y-71002776D01*
X69913003Y-70942300D01*
X70033955Y-70881823D01*
X70336336Y-70881823D01*
X70517765Y-70942300D01*
X71727289Y-72151823D02*
X71001574Y-72151823D01*
X71364431Y-72151823D02*
X71364431Y-70881823D01*
X71243479Y-71063252D01*
X71122527Y-71184204D01*
X71001574Y-71244680D01*
D10*
%TO.C,R31*%
X65927666Y-49726000D02*
X65594333Y-49959333D01*
X65927666Y-50126000D02*
X65227666Y-50126000D01*
X65227666Y-49859333D01*
X65261000Y-49792666D01*
X65294333Y-49759333D01*
X65361000Y-49726000D01*
X65461000Y-49726000D01*
X65527666Y-49759333D01*
X65561000Y-49792666D01*
X65594333Y-49859333D01*
X65594333Y-50126000D01*
X65227666Y-49492666D02*
X65227666Y-49059333D01*
X65494333Y-49292666D01*
X65494333Y-49192666D01*
X65527666Y-49126000D01*
X65561000Y-49092666D01*
X65627666Y-49059333D01*
X65794333Y-49059333D01*
X65861000Y-49092666D01*
X65894333Y-49126000D01*
X65927666Y-49192666D01*
X65927666Y-49392666D01*
X65894333Y-49459333D01*
X65861000Y-49492666D01*
X65927666Y-48392666D02*
X65927666Y-48792666D01*
X65927666Y-48592666D02*
X65227666Y-48592666D01*
X65327666Y-48659333D01*
X65394333Y-48726000D01*
X65427666Y-48792666D01*
%TO.C,R10*%
X41617142Y-46522380D02*
X41283809Y-46046190D01*
X41045714Y-46522380D02*
X41045714Y-45522380D01*
X41426666Y-45522380D01*
X41521904Y-45570000D01*
X41569523Y-45617619D01*
X41617142Y-45712857D01*
X41617142Y-45855714D01*
X41569523Y-45950952D01*
X41521904Y-45998571D01*
X41426666Y-46046190D01*
X41045714Y-46046190D01*
X42569523Y-46522380D02*
X41998095Y-46522380D01*
X42283809Y-46522380D02*
X42283809Y-45522380D01*
X42188571Y-45665238D01*
X42093333Y-45760476D01*
X41998095Y-45808095D01*
X43188571Y-45522380D02*
X43283809Y-45522380D01*
X43379047Y-45570000D01*
X43426666Y-45617619D01*
X43474285Y-45712857D01*
X43521904Y-45903333D01*
X43521904Y-46141428D01*
X43474285Y-46331904D01*
X43426666Y-46427142D01*
X43379047Y-46474761D01*
X43283809Y-46522380D01*
X43188571Y-46522380D01*
X43093333Y-46474761D01*
X43045714Y-46427142D01*
X42998095Y-46331904D01*
X42950476Y-46141428D01*
X42950476Y-45903333D01*
X42998095Y-45712857D01*
X43045714Y-45617619D01*
X43093333Y-45570000D01*
X43188571Y-45522380D01*
%TO.C,C1*%
X68750000Y-59516666D02*
X68783333Y-59550000D01*
X68816666Y-59650000D01*
X68816666Y-59716666D01*
X68783333Y-59816666D01*
X68716666Y-59883333D01*
X68650000Y-59916666D01*
X68516666Y-59950000D01*
X68416666Y-59950000D01*
X68283333Y-59916666D01*
X68216666Y-59883333D01*
X68150000Y-59816666D01*
X68116666Y-59716666D01*
X68116666Y-59650000D01*
X68150000Y-59550000D01*
X68183333Y-59516666D01*
X68816666Y-58850000D02*
X68816666Y-59250000D01*
X68816666Y-59050000D02*
X68116666Y-59050000D01*
X68216666Y-59116666D01*
X68283333Y-59183333D01*
X68316666Y-59250000D01*
%TO.C,R22*%
X49207000Y-75881666D02*
X48973666Y-75548333D01*
X48807000Y-75881666D02*
X48807000Y-75181666D01*
X49073666Y-75181666D01*
X49140333Y-75215000D01*
X49173666Y-75248333D01*
X49207000Y-75315000D01*
X49207000Y-75415000D01*
X49173666Y-75481666D01*
X49140333Y-75515000D01*
X49073666Y-75548333D01*
X48807000Y-75548333D01*
X49473666Y-75248333D02*
X49507000Y-75215000D01*
X49573666Y-75181666D01*
X49740333Y-75181666D01*
X49807000Y-75215000D01*
X49840333Y-75248333D01*
X49873666Y-75315000D01*
X49873666Y-75381666D01*
X49840333Y-75481666D01*
X49440333Y-75881666D01*
X49873666Y-75881666D01*
X50140333Y-75248333D02*
X50173666Y-75215000D01*
X50240333Y-75181666D01*
X50407000Y-75181666D01*
X50473666Y-75215000D01*
X50507000Y-75248333D01*
X50540333Y-75315000D01*
X50540333Y-75381666D01*
X50507000Y-75481666D01*
X50107000Y-75881666D01*
X50540333Y-75881666D01*
%TO.C,C17*%
X70289000Y-39493000D02*
X70255666Y-39526333D01*
X70155666Y-39559666D01*
X70089000Y-39559666D01*
X69989000Y-39526333D01*
X69922333Y-39459666D01*
X69889000Y-39393000D01*
X69855666Y-39259666D01*
X69855666Y-39159666D01*
X69889000Y-39026333D01*
X69922333Y-38959666D01*
X69989000Y-38893000D01*
X70089000Y-38859666D01*
X70155666Y-38859666D01*
X70255666Y-38893000D01*
X70289000Y-38926333D01*
X70955666Y-39559666D02*
X70555666Y-39559666D01*
X70755666Y-39559666D02*
X70755666Y-38859666D01*
X70689000Y-38959666D01*
X70622333Y-39026333D01*
X70555666Y-39059666D01*
X71189000Y-38859666D02*
X71655666Y-38859666D01*
X71355666Y-39559666D01*
%TO.C,R28*%
X49211666Y-56965000D02*
X48878333Y-57198333D01*
X49211666Y-57365000D02*
X48511666Y-57365000D01*
X48511666Y-57098333D01*
X48545000Y-57031666D01*
X48578333Y-56998333D01*
X48645000Y-56965000D01*
X48745000Y-56965000D01*
X48811666Y-56998333D01*
X48845000Y-57031666D01*
X48878333Y-57098333D01*
X48878333Y-57365000D01*
X48578333Y-56698333D02*
X48545000Y-56665000D01*
X48511666Y-56598333D01*
X48511666Y-56431666D01*
X48545000Y-56365000D01*
X48578333Y-56331666D01*
X48645000Y-56298333D01*
X48711666Y-56298333D01*
X48811666Y-56331666D01*
X49211666Y-56731666D01*
X49211666Y-56298333D01*
X48811666Y-55898333D02*
X48778333Y-55965000D01*
X48745000Y-55998333D01*
X48678333Y-56031666D01*
X48645000Y-56031666D01*
X48578333Y-55998333D01*
X48545000Y-55965000D01*
X48511666Y-55898333D01*
X48511666Y-55765000D01*
X48545000Y-55698333D01*
X48578333Y-55665000D01*
X48645000Y-55631666D01*
X48678333Y-55631666D01*
X48745000Y-55665000D01*
X48778333Y-55698333D01*
X48811666Y-55765000D01*
X48811666Y-55898333D01*
X48845000Y-55965000D01*
X48878333Y-55998333D01*
X48945000Y-56031666D01*
X49078333Y-56031666D01*
X49145000Y-55998333D01*
X49178333Y-55965000D01*
X49211666Y-55898333D01*
X49211666Y-55765000D01*
X49178333Y-55698333D01*
X49145000Y-55665000D01*
X49078333Y-55631666D01*
X48945000Y-55631666D01*
X48878333Y-55665000D01*
X48845000Y-55698333D01*
X48811666Y-55765000D01*
%TO.C,R25*%
X47810000Y-69277666D02*
X47576666Y-68944333D01*
X47410000Y-69277666D02*
X47410000Y-68577666D01*
X47676666Y-68577666D01*
X47743333Y-68611000D01*
X47776666Y-68644333D01*
X47810000Y-68711000D01*
X47810000Y-68811000D01*
X47776666Y-68877666D01*
X47743333Y-68911000D01*
X47676666Y-68944333D01*
X47410000Y-68944333D01*
X48076666Y-68644333D02*
X48110000Y-68611000D01*
X48176666Y-68577666D01*
X48343333Y-68577666D01*
X48410000Y-68611000D01*
X48443333Y-68644333D01*
X48476666Y-68711000D01*
X48476666Y-68777666D01*
X48443333Y-68877666D01*
X48043333Y-69277666D01*
X48476666Y-69277666D01*
X49110000Y-68577666D02*
X48776666Y-68577666D01*
X48743333Y-68911000D01*
X48776666Y-68877666D01*
X48843333Y-68844333D01*
X49010000Y-68844333D01*
X49076666Y-68877666D01*
X49110000Y-68911000D01*
X49143333Y-68977666D01*
X49143333Y-69144333D01*
X49110000Y-69211000D01*
X49076666Y-69244333D01*
X49010000Y-69277666D01*
X48843333Y-69277666D01*
X48776666Y-69244333D01*
X48743333Y-69211000D01*
%TO.C,C14*%
X52955000Y-69157000D02*
X52988333Y-69190333D01*
X53021666Y-69290333D01*
X53021666Y-69357000D01*
X52988333Y-69457000D01*
X52921666Y-69523666D01*
X52855000Y-69557000D01*
X52721666Y-69590333D01*
X52621666Y-69590333D01*
X52488333Y-69557000D01*
X52421666Y-69523666D01*
X52355000Y-69457000D01*
X52321666Y-69357000D01*
X52321666Y-69290333D01*
X52355000Y-69190333D01*
X52388333Y-69157000D01*
X53021666Y-68490333D02*
X53021666Y-68890333D01*
X53021666Y-68690333D02*
X52321666Y-68690333D01*
X52421666Y-68757000D01*
X52488333Y-68823666D01*
X52521666Y-68890333D01*
X52555000Y-67890333D02*
X53021666Y-67890333D01*
X52288333Y-68057000D02*
X52788333Y-68223666D01*
X52788333Y-67790333D01*
%TO.C,R24*%
X50082666Y-40700000D02*
X49749333Y-40933333D01*
X50082666Y-41100000D02*
X49382666Y-41100000D01*
X49382666Y-40833333D01*
X49416000Y-40766666D01*
X49449333Y-40733333D01*
X49516000Y-40700000D01*
X49616000Y-40700000D01*
X49682666Y-40733333D01*
X49716000Y-40766666D01*
X49749333Y-40833333D01*
X49749333Y-41100000D01*
X49449333Y-40433333D02*
X49416000Y-40400000D01*
X49382666Y-40333333D01*
X49382666Y-40166666D01*
X49416000Y-40100000D01*
X49449333Y-40066666D01*
X49516000Y-40033333D01*
X49582666Y-40033333D01*
X49682666Y-40066666D01*
X50082666Y-40466666D01*
X50082666Y-40033333D01*
X49616000Y-39433333D02*
X50082666Y-39433333D01*
X49349333Y-39600000D02*
X49849333Y-39766666D01*
X49849333Y-39333333D01*
%TO.C,R21*%
X48177666Y-43077000D02*
X47844333Y-43310333D01*
X48177666Y-43477000D02*
X47477666Y-43477000D01*
X47477666Y-43210333D01*
X47511000Y-43143666D01*
X47544333Y-43110333D01*
X47611000Y-43077000D01*
X47711000Y-43077000D01*
X47777666Y-43110333D01*
X47811000Y-43143666D01*
X47844333Y-43210333D01*
X47844333Y-43477000D01*
X47544333Y-42810333D02*
X47511000Y-42777000D01*
X47477666Y-42710333D01*
X47477666Y-42543666D01*
X47511000Y-42477000D01*
X47544333Y-42443666D01*
X47611000Y-42410333D01*
X47677666Y-42410333D01*
X47777666Y-42443666D01*
X48177666Y-42843666D01*
X48177666Y-42410333D01*
X48177666Y-41743666D02*
X48177666Y-42143666D01*
X48177666Y-41943666D02*
X47477666Y-41943666D01*
X47577666Y-42010333D01*
X47644333Y-42077000D01*
X47677666Y-42143666D01*
%TO.C,C16*%
X38604000Y-61410000D02*
X38637333Y-61443333D01*
X38670666Y-61543333D01*
X38670666Y-61610000D01*
X38637333Y-61710000D01*
X38570666Y-61776666D01*
X38504000Y-61810000D01*
X38370666Y-61843333D01*
X38270666Y-61843333D01*
X38137333Y-61810000D01*
X38070666Y-61776666D01*
X38004000Y-61710000D01*
X37970666Y-61610000D01*
X37970666Y-61543333D01*
X38004000Y-61443333D01*
X38037333Y-61410000D01*
X38670666Y-60743333D02*
X38670666Y-61143333D01*
X38670666Y-60943333D02*
X37970666Y-60943333D01*
X38070666Y-61010000D01*
X38137333Y-61076666D01*
X38170666Y-61143333D01*
X37970666Y-60143333D02*
X37970666Y-60276666D01*
X38004000Y-60343333D01*
X38037333Y-60376666D01*
X38137333Y-60443333D01*
X38270666Y-60476666D01*
X38537333Y-60476666D01*
X38604000Y-60443333D01*
X38637333Y-60410000D01*
X38670666Y-60343333D01*
X38670666Y-60210000D01*
X38637333Y-60143333D01*
X38604000Y-60110000D01*
X38537333Y-60076666D01*
X38370666Y-60076666D01*
X38304000Y-60110000D01*
X38270666Y-60143333D01*
X38237333Y-60210000D01*
X38237333Y-60343333D01*
X38270666Y-60410000D01*
X38304000Y-60443333D01*
X38370666Y-60476666D01*
%TO.C,R5*%
X62546666Y-63743666D02*
X62213333Y-63977000D01*
X62546666Y-64143666D02*
X61846666Y-64143666D01*
X61846666Y-63877000D01*
X61880000Y-63810333D01*
X61913333Y-63777000D01*
X61980000Y-63743666D01*
X62080000Y-63743666D01*
X62146666Y-63777000D01*
X62180000Y-63810333D01*
X62213333Y-63877000D01*
X62213333Y-64143666D01*
X61846666Y-63110333D02*
X61846666Y-63443666D01*
X62180000Y-63477000D01*
X62146666Y-63443666D01*
X62113333Y-63377000D01*
X62113333Y-63210333D01*
X62146666Y-63143666D01*
X62180000Y-63110333D01*
X62246666Y-63077000D01*
X62413333Y-63077000D01*
X62480000Y-63110333D01*
X62513333Y-63143666D01*
X62546666Y-63210333D01*
X62546666Y-63377000D01*
X62513333Y-63443666D01*
X62480000Y-63477000D01*
%TO.C,C8*%
X58670000Y-63362666D02*
X58703333Y-63396000D01*
X58736666Y-63496000D01*
X58736666Y-63562666D01*
X58703333Y-63662666D01*
X58636666Y-63729333D01*
X58570000Y-63762666D01*
X58436666Y-63796000D01*
X58336666Y-63796000D01*
X58203333Y-63762666D01*
X58136666Y-63729333D01*
X58070000Y-63662666D01*
X58036666Y-63562666D01*
X58036666Y-63496000D01*
X58070000Y-63396000D01*
X58103333Y-63362666D01*
X58336666Y-62962666D02*
X58303333Y-63029333D01*
X58270000Y-63062666D01*
X58203333Y-63096000D01*
X58170000Y-63096000D01*
X58103333Y-63062666D01*
X58070000Y-63029333D01*
X58036666Y-62962666D01*
X58036666Y-62829333D01*
X58070000Y-62762666D01*
X58103333Y-62729333D01*
X58170000Y-62696000D01*
X58203333Y-62696000D01*
X58270000Y-62729333D01*
X58303333Y-62762666D01*
X58336666Y-62829333D01*
X58336666Y-62962666D01*
X58370000Y-63029333D01*
X58403333Y-63062666D01*
X58470000Y-63096000D01*
X58603333Y-63096000D01*
X58670000Y-63062666D01*
X58703333Y-63029333D01*
X58736666Y-62962666D01*
X58736666Y-62829333D01*
X58703333Y-62762666D01*
X58670000Y-62729333D01*
X58603333Y-62696000D01*
X58470000Y-62696000D01*
X58403333Y-62729333D01*
X58370000Y-62762666D01*
X58336666Y-62829333D01*
%TO.C,D1*%
X68316666Y-48975666D02*
X67616666Y-48975666D01*
X67616666Y-48809000D01*
X67650000Y-48709000D01*
X67716666Y-48642333D01*
X67783333Y-48609000D01*
X67916666Y-48575666D01*
X68016666Y-48575666D01*
X68150000Y-48609000D01*
X68216666Y-48642333D01*
X68283333Y-48709000D01*
X68316666Y-48809000D01*
X68316666Y-48975666D01*
X68316666Y-47909000D02*
X68316666Y-48309000D01*
X68316666Y-48109000D02*
X67616666Y-48109000D01*
X67716666Y-48175666D01*
X67783333Y-48242333D01*
X67816666Y-48309000D01*
%TO.C,R1*%
X59498666Y-47868666D02*
X59165333Y-48102000D01*
X59498666Y-48268666D02*
X58798666Y-48268666D01*
X58798666Y-48002000D01*
X58832000Y-47935333D01*
X58865333Y-47902000D01*
X58932000Y-47868666D01*
X59032000Y-47868666D01*
X59098666Y-47902000D01*
X59132000Y-47935333D01*
X59165333Y-48002000D01*
X59165333Y-48268666D01*
X59498666Y-47202000D02*
X59498666Y-47602000D01*
X59498666Y-47402000D02*
X58798666Y-47402000D01*
X58898666Y-47468666D01*
X58965333Y-47535333D01*
X58998666Y-47602000D01*
%TO.C,R30*%
X63685000Y-45147666D02*
X63451666Y-44814333D01*
X63285000Y-45147666D02*
X63285000Y-44447666D01*
X63551666Y-44447666D01*
X63618333Y-44481000D01*
X63651666Y-44514333D01*
X63685000Y-44581000D01*
X63685000Y-44681000D01*
X63651666Y-44747666D01*
X63618333Y-44781000D01*
X63551666Y-44814333D01*
X63285000Y-44814333D01*
X63918333Y-44447666D02*
X64351666Y-44447666D01*
X64118333Y-44714333D01*
X64218333Y-44714333D01*
X64285000Y-44747666D01*
X64318333Y-44781000D01*
X64351666Y-44847666D01*
X64351666Y-45014333D01*
X64318333Y-45081000D01*
X64285000Y-45114333D01*
X64218333Y-45147666D01*
X64018333Y-45147666D01*
X63951666Y-45114333D01*
X63918333Y-45081000D01*
X64785000Y-44447666D02*
X64851666Y-44447666D01*
X64918333Y-44481000D01*
X64951666Y-44514333D01*
X64985000Y-44581000D01*
X65018333Y-44714333D01*
X65018333Y-44881000D01*
X64985000Y-45014333D01*
X64951666Y-45081000D01*
X64918333Y-45114333D01*
X64851666Y-45147666D01*
X64785000Y-45147666D01*
X64718333Y-45114333D01*
X64685000Y-45081000D01*
X64651666Y-45014333D01*
X64618333Y-44881000D01*
X64618333Y-44714333D01*
X64651666Y-44581000D01*
X64685000Y-44514333D01*
X64718333Y-44481000D01*
X64785000Y-44447666D01*
%TO.C,R11*%
X41607142Y-41772380D02*
X41273809Y-41296190D01*
X41035714Y-41772380D02*
X41035714Y-40772380D01*
X41416666Y-40772380D01*
X41511904Y-40820000D01*
X41559523Y-40867619D01*
X41607142Y-40962857D01*
X41607142Y-41105714D01*
X41559523Y-41200952D01*
X41511904Y-41248571D01*
X41416666Y-41296190D01*
X41035714Y-41296190D01*
X42559523Y-41772380D02*
X41988095Y-41772380D01*
X42273809Y-41772380D02*
X42273809Y-40772380D01*
X42178571Y-40915238D01*
X42083333Y-41010476D01*
X41988095Y-41058095D01*
X43511904Y-41772380D02*
X42940476Y-41772380D01*
X43226190Y-41772380D02*
X43226190Y-40772380D01*
X43130952Y-40915238D01*
X43035714Y-41010476D01*
X42940476Y-41058095D01*
%TO.C,D3*%
X47179666Y-59698666D02*
X46479666Y-59698666D01*
X46479666Y-59532000D01*
X46513000Y-59432000D01*
X46579666Y-59365333D01*
X46646333Y-59332000D01*
X46779666Y-59298666D01*
X46879666Y-59298666D01*
X47013000Y-59332000D01*
X47079666Y-59365333D01*
X47146333Y-59432000D01*
X47179666Y-59532000D01*
X47179666Y-59698666D01*
X46479666Y-59065333D02*
X46479666Y-58632000D01*
X46746333Y-58865333D01*
X46746333Y-58765333D01*
X46779666Y-58698666D01*
X46813000Y-58665333D01*
X46879666Y-58632000D01*
X47046333Y-58632000D01*
X47113000Y-58665333D01*
X47146333Y-58698666D01*
X47179666Y-58765333D01*
X47179666Y-58965333D01*
X47146333Y-59032000D01*
X47113000Y-59065333D01*
%TO.C,U1*%
X57658095Y-74509380D02*
X57658095Y-75318904D01*
X57705714Y-75414142D01*
X57753333Y-75461761D01*
X57848571Y-75509380D01*
X58039047Y-75509380D01*
X58134285Y-75461761D01*
X58181904Y-75414142D01*
X58229523Y-75318904D01*
X58229523Y-74509380D01*
X59229523Y-75509380D02*
X58658095Y-75509380D01*
X58943809Y-75509380D02*
X58943809Y-74509380D01*
X58848571Y-74652238D01*
X58753333Y-74747476D01*
X58658095Y-74795095D01*
%TO.C,C15*%
X41144000Y-61283000D02*
X41177333Y-61316333D01*
X41210666Y-61416333D01*
X41210666Y-61483000D01*
X41177333Y-61583000D01*
X41110666Y-61649666D01*
X41044000Y-61683000D01*
X40910666Y-61716333D01*
X40810666Y-61716333D01*
X40677333Y-61683000D01*
X40610666Y-61649666D01*
X40544000Y-61583000D01*
X40510666Y-61483000D01*
X40510666Y-61416333D01*
X40544000Y-61316333D01*
X40577333Y-61283000D01*
X41210666Y-60616333D02*
X41210666Y-61016333D01*
X41210666Y-60816333D02*
X40510666Y-60816333D01*
X40610666Y-60883000D01*
X40677333Y-60949666D01*
X40710666Y-61016333D01*
X40510666Y-59983000D02*
X40510666Y-60316333D01*
X40844000Y-60349666D01*
X40810666Y-60316333D01*
X40777333Y-60249666D01*
X40777333Y-60083000D01*
X40810666Y-60016333D01*
X40844000Y-59983000D01*
X40910666Y-59949666D01*
X41077333Y-59949666D01*
X41144000Y-59983000D01*
X41177333Y-60016333D01*
X41210666Y-60083000D01*
X41210666Y-60249666D01*
X41177333Y-60316333D01*
X41144000Y-60349666D01*
%TO.C,R23*%
X51366000Y-75881666D02*
X51132666Y-75548333D01*
X50966000Y-75881666D02*
X50966000Y-75181666D01*
X51232666Y-75181666D01*
X51299333Y-75215000D01*
X51332666Y-75248333D01*
X51366000Y-75315000D01*
X51366000Y-75415000D01*
X51332666Y-75481666D01*
X51299333Y-75515000D01*
X51232666Y-75548333D01*
X50966000Y-75548333D01*
X51632666Y-75248333D02*
X51666000Y-75215000D01*
X51732666Y-75181666D01*
X51899333Y-75181666D01*
X51966000Y-75215000D01*
X51999333Y-75248333D01*
X52032666Y-75315000D01*
X52032666Y-75381666D01*
X51999333Y-75481666D01*
X51599333Y-75881666D01*
X52032666Y-75881666D01*
X52266000Y-75181666D02*
X52699333Y-75181666D01*
X52466000Y-75448333D01*
X52566000Y-75448333D01*
X52632666Y-75481666D01*
X52666000Y-75515000D01*
X52699333Y-75581666D01*
X52699333Y-75748333D01*
X52666000Y-75815000D01*
X52632666Y-75848333D01*
X52566000Y-75881666D01*
X52366000Y-75881666D01*
X52299333Y-75848333D01*
X52266000Y-75815000D01*
%TO.C,R15*%
X63685000Y-42861666D02*
X63451666Y-42528333D01*
X63285000Y-42861666D02*
X63285000Y-42161666D01*
X63551666Y-42161666D01*
X63618333Y-42195000D01*
X63651666Y-42228333D01*
X63685000Y-42295000D01*
X63685000Y-42395000D01*
X63651666Y-42461666D01*
X63618333Y-42495000D01*
X63551666Y-42528333D01*
X63285000Y-42528333D01*
X64351666Y-42861666D02*
X63951666Y-42861666D01*
X64151666Y-42861666D02*
X64151666Y-42161666D01*
X64085000Y-42261666D01*
X64018333Y-42328333D01*
X63951666Y-42361666D01*
X64985000Y-42161666D02*
X64651666Y-42161666D01*
X64618333Y-42495000D01*
X64651666Y-42461666D01*
X64718333Y-42428333D01*
X64885000Y-42428333D01*
X64951666Y-42461666D01*
X64985000Y-42495000D01*
X65018333Y-42561666D01*
X65018333Y-42728333D01*
X64985000Y-42795000D01*
X64951666Y-42828333D01*
X64885000Y-42861666D01*
X64718333Y-42861666D01*
X64651666Y-42828333D01*
X64618333Y-42795000D01*
D15*
%TO.C,IC2*%
X63439523Y-50007761D02*
X62169523Y-50007761D01*
X63318571Y-48677285D02*
X63379047Y-48737761D01*
X63439523Y-48919190D01*
X63439523Y-49040142D01*
X63379047Y-49221571D01*
X63258095Y-49342523D01*
X63137142Y-49403000D01*
X62895238Y-49463476D01*
X62713809Y-49463476D01*
X62471904Y-49403000D01*
X62350952Y-49342523D01*
X62230000Y-49221571D01*
X62169523Y-49040142D01*
X62169523Y-48919190D01*
X62230000Y-48737761D01*
X62290476Y-48677285D01*
X62290476Y-48193476D02*
X62230000Y-48133000D01*
X62169523Y-48012047D01*
X62169523Y-47709666D01*
X62230000Y-47588714D01*
X62290476Y-47528238D01*
X62411428Y-47467761D01*
X62532380Y-47467761D01*
X62713809Y-47528238D01*
X63439523Y-48253952D01*
X63439523Y-47467761D01*
D10*
%TO.C,C18*%
X46224000Y-53028000D02*
X46257333Y-53061333D01*
X46290666Y-53161333D01*
X46290666Y-53228000D01*
X46257333Y-53328000D01*
X46190666Y-53394666D01*
X46124000Y-53428000D01*
X45990666Y-53461333D01*
X45890666Y-53461333D01*
X45757333Y-53428000D01*
X45690666Y-53394666D01*
X45624000Y-53328000D01*
X45590666Y-53228000D01*
X45590666Y-53161333D01*
X45624000Y-53061333D01*
X45657333Y-53028000D01*
X46290666Y-52361333D02*
X46290666Y-52761333D01*
X46290666Y-52561333D02*
X45590666Y-52561333D01*
X45690666Y-52628000D01*
X45757333Y-52694666D01*
X45790666Y-52761333D01*
X45890666Y-51961333D02*
X45857333Y-52028000D01*
X45824000Y-52061333D01*
X45757333Y-52094666D01*
X45724000Y-52094666D01*
X45657333Y-52061333D01*
X45624000Y-52028000D01*
X45590666Y-51961333D01*
X45590666Y-51828000D01*
X45624000Y-51761333D01*
X45657333Y-51728000D01*
X45724000Y-51694666D01*
X45757333Y-51694666D01*
X45824000Y-51728000D01*
X45857333Y-51761333D01*
X45890666Y-51828000D01*
X45890666Y-51961333D01*
X45924000Y-52028000D01*
X45957333Y-52061333D01*
X46024000Y-52094666D01*
X46157333Y-52094666D01*
X46224000Y-52061333D01*
X46257333Y-52028000D01*
X46290666Y-51961333D01*
X46290666Y-51828000D01*
X46257333Y-51761333D01*
X46224000Y-51728000D01*
X46157333Y-51694666D01*
X46024000Y-51694666D01*
X45957333Y-51728000D01*
X45924000Y-51761333D01*
X45890666Y-51828000D01*
%TO.C,U2*%
X51268380Y-44068904D02*
X52077904Y-44068904D01*
X52173142Y-44021285D01*
X52220761Y-43973666D01*
X52268380Y-43878428D01*
X52268380Y-43687952D01*
X52220761Y-43592714D01*
X52173142Y-43545095D01*
X52077904Y-43497476D01*
X51268380Y-43497476D01*
X51363619Y-43068904D02*
X51316000Y-43021285D01*
X51268380Y-42926047D01*
X51268380Y-42687952D01*
X51316000Y-42592714D01*
X51363619Y-42545095D01*
X51458857Y-42497476D01*
X51554095Y-42497476D01*
X51696952Y-42545095D01*
X52268380Y-43116523D01*
X52268380Y-42497476D01*
%TO.C,R14*%
X41607142Y-39272380D02*
X41273809Y-38796190D01*
X41035714Y-39272380D02*
X41035714Y-38272380D01*
X41416666Y-38272380D01*
X41511904Y-38320000D01*
X41559523Y-38367619D01*
X41607142Y-38462857D01*
X41607142Y-38605714D01*
X41559523Y-38700952D01*
X41511904Y-38748571D01*
X41416666Y-38796190D01*
X41035714Y-38796190D01*
X42559523Y-39272380D02*
X41988095Y-39272380D01*
X42273809Y-39272380D02*
X42273809Y-38272380D01*
X42178571Y-38415238D01*
X42083333Y-38510476D01*
X41988095Y-38558095D01*
X43416666Y-38605714D02*
X43416666Y-39272380D01*
X43178571Y-38224761D02*
X42940476Y-38939047D01*
X43559523Y-38939047D01*
%TO.C,R4*%
X63764333Y-67499666D02*
X63531000Y-67166333D01*
X63364333Y-67499666D02*
X63364333Y-66799666D01*
X63631000Y-66799666D01*
X63697666Y-66833000D01*
X63731000Y-66866333D01*
X63764333Y-66933000D01*
X63764333Y-67033000D01*
X63731000Y-67099666D01*
X63697666Y-67133000D01*
X63631000Y-67166333D01*
X63364333Y-67166333D01*
X64364333Y-67033000D02*
X64364333Y-67499666D01*
X64197666Y-66766333D02*
X64031000Y-67266333D01*
X64464333Y-67266333D01*
D12*
%TO.C,IC6*%
X60178904Y-41928952D02*
X59378904Y-41928952D01*
X60102714Y-41090857D02*
X60140809Y-41128952D01*
X60178904Y-41243238D01*
X60178904Y-41319428D01*
X60140809Y-41433714D01*
X60064619Y-41509904D01*
X59988428Y-41548000D01*
X59836047Y-41586095D01*
X59721761Y-41586095D01*
X59569380Y-41548000D01*
X59493190Y-41509904D01*
X59417000Y-41433714D01*
X59378904Y-41319428D01*
X59378904Y-41243238D01*
X59417000Y-41128952D01*
X59455095Y-41090857D01*
X59378904Y-40405142D02*
X59378904Y-40557523D01*
X59417000Y-40633714D01*
X59455095Y-40671809D01*
X59569380Y-40748000D01*
X59721761Y-40786095D01*
X60026523Y-40786095D01*
X60102714Y-40748000D01*
X60140809Y-40709904D01*
X60178904Y-40633714D01*
X60178904Y-40481333D01*
X60140809Y-40405142D01*
X60102714Y-40367047D01*
X60026523Y-40328952D01*
X59836047Y-40328952D01*
X59759857Y-40367047D01*
X59721761Y-40405142D01*
X59683666Y-40481333D01*
X59683666Y-40633714D01*
X59721761Y-40709904D01*
X59759857Y-40748000D01*
X59836047Y-40786095D01*
D15*
%TO.C,IC10*%
X42855476Y-45874523D02*
X42855476Y-44604523D01*
X44185952Y-45753571D02*
X44125476Y-45814047D01*
X43944047Y-45874523D01*
X43823095Y-45874523D01*
X43641666Y-45814047D01*
X43520714Y-45693095D01*
X43460238Y-45572142D01*
X43399761Y-45330238D01*
X43399761Y-45148809D01*
X43460238Y-44906904D01*
X43520714Y-44785952D01*
X43641666Y-44665000D01*
X43823095Y-44604523D01*
X43944047Y-44604523D01*
X44125476Y-44665000D01*
X44185952Y-44725476D01*
X45395476Y-45874523D02*
X44669761Y-45874523D01*
X45032619Y-45874523D02*
X45032619Y-44604523D01*
X44911666Y-44785952D01*
X44790714Y-44906904D01*
X44669761Y-44967380D01*
X46181666Y-44604523D02*
X46302619Y-44604523D01*
X46423571Y-44665000D01*
X46484047Y-44725476D01*
X46544523Y-44846428D01*
X46605000Y-45088333D01*
X46605000Y-45390714D01*
X46544523Y-45632619D01*
X46484047Y-45753571D01*
X46423571Y-45814047D01*
X46302619Y-45874523D01*
X46181666Y-45874523D01*
X46060714Y-45814047D01*
X46000238Y-45753571D01*
X45939761Y-45632619D01*
X45879285Y-45390714D01*
X45879285Y-45088333D01*
X45939761Y-44846428D01*
X46000238Y-44725476D01*
X46060714Y-44665000D01*
X46181666Y-44604523D01*
D10*
%TO.C,R26*%
X54750000Y-62166666D02*
X54516666Y-61833333D01*
X54350000Y-62166666D02*
X54350000Y-61466666D01*
X54616666Y-61466666D01*
X54683333Y-61500000D01*
X54716666Y-61533333D01*
X54750000Y-61600000D01*
X54750000Y-61700000D01*
X54716666Y-61766666D01*
X54683333Y-61800000D01*
X54616666Y-61833333D01*
X54350000Y-61833333D01*
X55016666Y-61533333D02*
X55050000Y-61500000D01*
X55116666Y-61466666D01*
X55283333Y-61466666D01*
X55350000Y-61500000D01*
X55383333Y-61533333D01*
X55416666Y-61600000D01*
X55416666Y-61666666D01*
X55383333Y-61766666D01*
X54983333Y-62166666D01*
X55416666Y-62166666D01*
X56016666Y-61466666D02*
X55883333Y-61466666D01*
X55816666Y-61500000D01*
X55783333Y-61533333D01*
X55716666Y-61633333D01*
X55683333Y-61766666D01*
X55683333Y-62033333D01*
X55716666Y-62100000D01*
X55750000Y-62133333D01*
X55816666Y-62166666D01*
X55950000Y-62166666D01*
X56016666Y-62133333D01*
X56050000Y-62100000D01*
X56083333Y-62033333D01*
X56083333Y-61866666D01*
X56050000Y-61800000D01*
X56016666Y-61766666D01*
X55950000Y-61733333D01*
X55816666Y-61733333D01*
X55750000Y-61766666D01*
X55716666Y-61800000D01*
X55683333Y-61866666D01*
%TO.C,R29*%
X38543666Y-65601000D02*
X38210333Y-65834333D01*
X38543666Y-66001000D02*
X37843666Y-66001000D01*
X37843666Y-65734333D01*
X37877000Y-65667666D01*
X37910333Y-65634333D01*
X37977000Y-65601000D01*
X38077000Y-65601000D01*
X38143666Y-65634333D01*
X38177000Y-65667666D01*
X38210333Y-65734333D01*
X38210333Y-66001000D01*
X37910333Y-65334333D02*
X37877000Y-65301000D01*
X37843666Y-65234333D01*
X37843666Y-65067666D01*
X37877000Y-65001000D01*
X37910333Y-64967666D01*
X37977000Y-64934333D01*
X38043666Y-64934333D01*
X38143666Y-64967666D01*
X38543666Y-65367666D01*
X38543666Y-64934333D01*
X38543666Y-64601000D02*
X38543666Y-64467666D01*
X38510333Y-64401000D01*
X38477000Y-64367666D01*
X38377000Y-64301000D01*
X38243666Y-64267666D01*
X37977000Y-64267666D01*
X37910333Y-64301000D01*
X37877000Y-64334333D01*
X37843666Y-64401000D01*
X37843666Y-64534333D01*
X37877000Y-64601000D01*
X37910333Y-64634333D01*
X37977000Y-64667666D01*
X38143666Y-64667666D01*
X38210333Y-64634333D01*
X38243666Y-64601000D01*
X38277000Y-64534333D01*
X38277000Y-64401000D01*
X38243666Y-64334333D01*
X38210333Y-64301000D01*
X38143666Y-64267666D01*
D12*
%TO.C,IC7*%
X46819047Y-64161904D02*
X46819047Y-63361904D01*
X47657142Y-64085714D02*
X47619047Y-64123809D01*
X47504761Y-64161904D01*
X47428571Y-64161904D01*
X47314285Y-64123809D01*
X47238095Y-64047619D01*
X47200000Y-63971428D01*
X47161904Y-63819047D01*
X47161904Y-63704761D01*
X47200000Y-63552380D01*
X47238095Y-63476190D01*
X47314285Y-63400000D01*
X47428571Y-63361904D01*
X47504761Y-63361904D01*
X47619047Y-63400000D01*
X47657142Y-63438095D01*
X47923809Y-63361904D02*
X48457142Y-63361904D01*
X48114285Y-64161904D01*
D10*
%TO.C,C20*%
X46250000Y-49950000D02*
X46283333Y-49983333D01*
X46316666Y-50083333D01*
X46316666Y-50150000D01*
X46283333Y-50250000D01*
X46216666Y-50316666D01*
X46150000Y-50350000D01*
X46016666Y-50383333D01*
X45916666Y-50383333D01*
X45783333Y-50350000D01*
X45716666Y-50316666D01*
X45650000Y-50250000D01*
X45616666Y-50150000D01*
X45616666Y-50083333D01*
X45650000Y-49983333D01*
X45683333Y-49950000D01*
X45683333Y-49683333D02*
X45650000Y-49650000D01*
X45616666Y-49583333D01*
X45616666Y-49416666D01*
X45650000Y-49350000D01*
X45683333Y-49316666D01*
X45750000Y-49283333D01*
X45816666Y-49283333D01*
X45916666Y-49316666D01*
X46316666Y-49716666D01*
X46316666Y-49283333D01*
X45616666Y-48850000D02*
X45616666Y-48783333D01*
X45650000Y-48716666D01*
X45683333Y-48683333D01*
X45750000Y-48650000D01*
X45883333Y-48616666D01*
X46050000Y-48616666D01*
X46183333Y-48650000D01*
X46250000Y-48683333D01*
X46283333Y-48716666D01*
X46316666Y-48783333D01*
X46316666Y-48850000D01*
X46283333Y-48916666D01*
X46250000Y-48950000D01*
X46183333Y-48983333D01*
X46050000Y-49016666D01*
X45883333Y-49016666D01*
X45750000Y-48983333D01*
X45683333Y-48950000D01*
X45650000Y-48916666D01*
X45616666Y-48850000D01*
%TO.C,C2*%
X68850000Y-53216666D02*
X68883333Y-53250000D01*
X68916666Y-53350000D01*
X68916666Y-53416666D01*
X68883333Y-53516666D01*
X68816666Y-53583333D01*
X68750000Y-53616666D01*
X68616666Y-53650000D01*
X68516666Y-53650000D01*
X68383333Y-53616666D01*
X68316666Y-53583333D01*
X68250000Y-53516666D01*
X68216666Y-53416666D01*
X68216666Y-53350000D01*
X68250000Y-53250000D01*
X68283333Y-53216666D01*
X68283333Y-52950000D02*
X68250000Y-52916666D01*
X68216666Y-52850000D01*
X68216666Y-52683333D01*
X68250000Y-52616666D01*
X68283333Y-52583333D01*
X68350000Y-52550000D01*
X68416666Y-52550000D01*
X68516666Y-52583333D01*
X68916666Y-52983333D01*
X68916666Y-52550000D01*
D15*
%TO.C,S3*%
X42239180Y-73252047D02*
X42420609Y-73312523D01*
X42722990Y-73312523D01*
X42843942Y-73252047D01*
X42904419Y-73191571D01*
X42964895Y-73070619D01*
X42964895Y-72949666D01*
X42904419Y-72828714D01*
X42843942Y-72768238D01*
X42722990Y-72707761D01*
X42481085Y-72647285D01*
X42360133Y-72586809D01*
X42299657Y-72526333D01*
X42239180Y-72405380D01*
X42239180Y-72284428D01*
X42299657Y-72163476D01*
X42360133Y-72103000D01*
X42481085Y-72042523D01*
X42783466Y-72042523D01*
X42964895Y-72103000D01*
X43388228Y-72042523D02*
X44174419Y-72042523D01*
X43751085Y-72526333D01*
X43932514Y-72526333D01*
X44053466Y-72586809D01*
X44113942Y-72647285D01*
X44174419Y-72768238D01*
X44174419Y-73070619D01*
X44113942Y-73191571D01*
X44053466Y-73252047D01*
X43932514Y-73312523D01*
X43569657Y-73312523D01*
X43448704Y-73252047D01*
X43388228Y-73191571D01*
D10*
%TO.C,C9*%
X60067000Y-63362666D02*
X60100333Y-63396000D01*
X60133666Y-63496000D01*
X60133666Y-63562666D01*
X60100333Y-63662666D01*
X60033666Y-63729333D01*
X59967000Y-63762666D01*
X59833666Y-63796000D01*
X59733666Y-63796000D01*
X59600333Y-63762666D01*
X59533666Y-63729333D01*
X59467000Y-63662666D01*
X59433666Y-63562666D01*
X59433666Y-63496000D01*
X59467000Y-63396000D01*
X59500333Y-63362666D01*
X60133666Y-63029333D02*
X60133666Y-62896000D01*
X60100333Y-62829333D01*
X60067000Y-62796000D01*
X59967000Y-62729333D01*
X59833666Y-62696000D01*
X59567000Y-62696000D01*
X59500333Y-62729333D01*
X59467000Y-62762666D01*
X59433666Y-62829333D01*
X59433666Y-62962666D01*
X59467000Y-63029333D01*
X59500333Y-63062666D01*
X59567000Y-63096000D01*
X59733666Y-63096000D01*
X59800333Y-63062666D01*
X59833666Y-63029333D01*
X59867000Y-62962666D01*
X59867000Y-62829333D01*
X59833666Y-62762666D01*
X59800333Y-62729333D01*
X59733666Y-62696000D01*
%TO.C,R16*%
X61900000Y-44216666D02*
X61666666Y-43883333D01*
X61500000Y-44216666D02*
X61500000Y-43516666D01*
X61766666Y-43516666D01*
X61833333Y-43550000D01*
X61866666Y-43583333D01*
X61900000Y-43650000D01*
X61900000Y-43750000D01*
X61866666Y-43816666D01*
X61833333Y-43850000D01*
X61766666Y-43883333D01*
X61500000Y-43883333D01*
X62566666Y-44216666D02*
X62166666Y-44216666D01*
X62366666Y-44216666D02*
X62366666Y-43516666D01*
X62300000Y-43616666D01*
X62233333Y-43683333D01*
X62166666Y-43716666D01*
X63166666Y-43516666D02*
X63033333Y-43516666D01*
X62966666Y-43550000D01*
X62933333Y-43583333D01*
X62866666Y-43683333D01*
X62833333Y-43816666D01*
X62833333Y-44083333D01*
X62866666Y-44150000D01*
X62900000Y-44183333D01*
X62966666Y-44216666D01*
X63100000Y-44216666D01*
X63166666Y-44183333D01*
X63200000Y-44150000D01*
X63233333Y-44083333D01*
X63233333Y-43916666D01*
X63200000Y-43850000D01*
X63166666Y-43816666D01*
X63100000Y-43783333D01*
X62966666Y-43783333D01*
X62900000Y-43816666D01*
X62866666Y-43850000D01*
X62833333Y-43916666D01*
%TO.C,R6*%
X61276666Y-63743666D02*
X60943333Y-63977000D01*
X61276666Y-64143666D02*
X60576666Y-64143666D01*
X60576666Y-63877000D01*
X60610000Y-63810333D01*
X60643333Y-63777000D01*
X60710000Y-63743666D01*
X60810000Y-63743666D01*
X60876666Y-63777000D01*
X60910000Y-63810333D01*
X60943333Y-63877000D01*
X60943333Y-64143666D01*
X60576666Y-63143666D02*
X60576666Y-63277000D01*
X60610000Y-63343666D01*
X60643333Y-63377000D01*
X60743333Y-63443666D01*
X60876666Y-63477000D01*
X61143333Y-63477000D01*
X61210000Y-63443666D01*
X61243333Y-63410333D01*
X61276666Y-63343666D01*
X61276666Y-63210333D01*
X61243333Y-63143666D01*
X61210000Y-63110333D01*
X61143333Y-63077000D01*
X60976666Y-63077000D01*
X60910000Y-63110333D01*
X60876666Y-63143666D01*
X60843333Y-63210333D01*
X60843333Y-63343666D01*
X60876666Y-63410333D01*
X60910000Y-63443666D01*
X60976666Y-63477000D01*
D12*
%TO.C,Q1*%
X55937095Y-66751190D02*
X55899000Y-66827380D01*
X55822809Y-66903571D01*
X55708523Y-67017857D01*
X55670428Y-67094047D01*
X55670428Y-67170238D01*
X55860904Y-67132142D02*
X55822809Y-67208333D01*
X55746619Y-67284523D01*
X55594238Y-67322619D01*
X55327571Y-67322619D01*
X55175190Y-67284523D01*
X55099000Y-67208333D01*
X55060904Y-67132142D01*
X55060904Y-66979761D01*
X55099000Y-66903571D01*
X55175190Y-66827380D01*
X55327571Y-66789285D01*
X55594238Y-66789285D01*
X55746619Y-66827380D01*
X55822809Y-66903571D01*
X55860904Y-66979761D01*
X55860904Y-67132142D01*
X55860904Y-66027380D02*
X55860904Y-66484523D01*
X55860904Y-66255952D02*
X55060904Y-66255952D01*
X55175190Y-66332142D01*
X55251380Y-66408333D01*
X55289476Y-66484523D01*
D10*
%TO.C,R13*%
X41532142Y-49022380D02*
X41198809Y-48546190D01*
X40960714Y-49022380D02*
X40960714Y-48022380D01*
X41341666Y-48022380D01*
X41436904Y-48070000D01*
X41484523Y-48117619D01*
X41532142Y-48212857D01*
X41532142Y-48355714D01*
X41484523Y-48450952D01*
X41436904Y-48498571D01*
X41341666Y-48546190D01*
X40960714Y-48546190D01*
X42484523Y-49022380D02*
X41913095Y-49022380D01*
X42198809Y-49022380D02*
X42198809Y-48022380D01*
X42103571Y-48165238D01*
X42008333Y-48260476D01*
X41913095Y-48308095D01*
X42817857Y-48022380D02*
X43436904Y-48022380D01*
X43103571Y-48403333D01*
X43246428Y-48403333D01*
X43341666Y-48450952D01*
X43389285Y-48498571D01*
X43436904Y-48593809D01*
X43436904Y-48831904D01*
X43389285Y-48927142D01*
X43341666Y-48974761D01*
X43246428Y-49022380D01*
X42960714Y-49022380D01*
X42865476Y-48974761D01*
X42817857Y-48927142D01*
D16*
%TO.C,C4*%
X64029000Y-63773164D02*
X64029000Y-63988836D01*
X64749000Y-63773164D02*
X64749000Y-63988836D01*
%TO.C,C26*%
X74824000Y-39954252D02*
X74824000Y-38531748D01*
X73004000Y-39954252D02*
X73004000Y-38531748D01*
%TO.C,C22*%
X51796836Y-39264000D02*
X51581164Y-39264000D01*
X51796836Y-39984000D02*
X51581164Y-39984000D01*
%TO.C,C3*%
X63606000Y-63745164D02*
X63606000Y-63960836D01*
X62886000Y-63745164D02*
X62886000Y-63960836D01*
%TO.C,R19*%
X48132000Y-65355441D02*
X48132000Y-65048159D01*
X47372000Y-65355441D02*
X47372000Y-65048159D01*
%TO.C,R8*%
X64288641Y-40639000D02*
X63981359Y-40639000D01*
X64288641Y-39879000D02*
X63981359Y-39879000D01*
%TO.C,C13*%
X64242836Y-39349000D02*
X64027164Y-39349000D01*
X64242836Y-38629000D02*
X64027164Y-38629000D01*
%TO.C,J8*%
X43434000Y-38779000D02*
X41374000Y-38779000D01*
X45494000Y-36659000D02*
X45494000Y-37719000D01*
X44434000Y-36659000D02*
X45494000Y-36659000D01*
X41374000Y-36659000D02*
X41374000Y-38779000D01*
X43434000Y-36659000D02*
X43434000Y-38779000D01*
X43434000Y-36659000D02*
X41374000Y-36659000D01*
D12*
%TO.C,IC1*%
X67221000Y-58826000D02*
G75*
G03*
X67221000Y-58826000I-100000J0D01*
G01*
D16*
%TO.C,J4*%
X73310000Y-42190000D02*
X69590000Y-42190000D01*
X69990000Y-45950000D02*
X70390000Y-45950000D01*
X69590000Y-51410000D02*
X73310000Y-51410000D01*
X72400000Y-42190000D02*
X72400000Y-42590000D01*
X69990000Y-46050000D02*
X70390000Y-46050000D01*
X73510000Y-41990000D02*
X72710000Y-41990000D01*
X69590000Y-42190000D02*
X69590000Y-51410000D01*
X73510000Y-43500000D02*
X73510000Y-43200000D01*
X72400000Y-51410000D02*
X72400000Y-51010000D01*
X72910000Y-42590000D02*
X69990000Y-42590000D01*
X69990000Y-47550000D02*
X70390000Y-47550000D01*
X71400000Y-42190000D02*
X71400000Y-42590000D01*
X69990000Y-48950000D02*
X70390000Y-48950000D01*
X69990000Y-44550000D02*
X70390000Y-44550000D01*
X70390000Y-44450000D02*
X70390000Y-44650000D01*
X70390000Y-48950000D02*
X70390000Y-49150000D01*
X73310000Y-51410000D02*
X73310000Y-42190000D01*
X69990000Y-44450000D02*
X70390000Y-44450000D01*
X70390000Y-49150000D02*
X69990000Y-49150000D01*
X73510000Y-42790000D02*
X73510000Y-41990000D01*
X73410000Y-43500000D02*
X73410000Y-43200000D01*
X70390000Y-47650000D02*
X69990000Y-47650000D01*
X73510000Y-43200000D02*
X73310000Y-43200000D01*
X70390000Y-44650000D02*
X69990000Y-44650000D01*
X69990000Y-42590000D02*
X69990000Y-51010000D01*
X71400000Y-51410000D02*
X71400000Y-51010000D01*
X70390000Y-46150000D02*
X69990000Y-46150000D01*
X69990000Y-51010000D02*
X72910000Y-51010000D01*
X73310000Y-43500000D02*
X73510000Y-43500000D01*
X69990000Y-47450000D02*
X70390000Y-47450000D01*
X69990000Y-49050000D02*
X70390000Y-49050000D01*
X70390000Y-45950000D02*
X70390000Y-46150000D01*
X70390000Y-47450000D02*
X70390000Y-47650000D01*
X72910000Y-51010000D02*
X72910000Y-42590000D01*
%TO.C,R20*%
X46102000Y-65355441D02*
X46102000Y-65048159D01*
X46862000Y-65355441D02*
X46862000Y-65048159D01*
%TO.C,U3*%
X43561000Y-67219000D02*
X45361000Y-67219000D01*
X43561000Y-64099000D02*
X44361000Y-64099000D01*
X43561000Y-64099000D02*
X42761000Y-64099000D01*
X43561000Y-67219000D02*
X42761000Y-67219000D01*
%TO.C,C7*%
X59838000Y-50046836D02*
X59838000Y-49831164D01*
X60558000Y-50046836D02*
X60558000Y-49831164D01*
%TO.C,C25*%
X47517164Y-45868000D02*
X47732836Y-45868000D01*
X47517164Y-46588000D02*
X47732836Y-46588000D01*
%TO.C,R12*%
X60298359Y-43054000D02*
X60605641Y-43054000D01*
X60298359Y-43814000D02*
X60605641Y-43814000D01*
%TO.C,R3*%
X59335641Y-66547000D02*
X59028359Y-66547000D01*
X59335641Y-65787000D02*
X59028359Y-65787000D01*
%TO.C,R27*%
X42153641Y-53130000D02*
X41846359Y-53130000D01*
X42153641Y-52370000D02*
X41846359Y-52370000D01*
%TO.C,C24*%
X41423000Y-45386164D02*
X41423000Y-45601836D01*
X42143000Y-45386164D02*
X42143000Y-45601836D01*
%TO.C,D4*%
X48351000Y-63103000D02*
X44451000Y-63103000D01*
X48351000Y-61103000D02*
X44451000Y-61103000D01*
X48351000Y-63103000D02*
X48351000Y-61103000D01*
%TO.C,C19*%
X68220000Y-39954252D02*
X68220000Y-38531748D01*
X66400000Y-39954252D02*
X66400000Y-38531748D01*
%TO.C,R9*%
X57504359Y-43814000D02*
X57811641Y-43814000D01*
X57504359Y-43054000D02*
X57811641Y-43054000D01*
D12*
%TO.C,Q3*%
X52006000Y-71805000D02*
X49086000Y-71805000D01*
X49046000Y-73455000D02*
X49046000Y-72155000D01*
X49086000Y-71805000D02*
X49086000Y-71705000D01*
X49086000Y-71705000D02*
X52006000Y-71705000D01*
X52006000Y-71705000D02*
X52006000Y-71805000D01*
%TO.C,Q2*%
X45850000Y-42560000D02*
X45750000Y-42560000D01*
X47500000Y-42600000D02*
X46200000Y-42600000D01*
X45750000Y-42560000D02*
X45750000Y-39640000D01*
X45850000Y-39640000D02*
X45850000Y-42560000D01*
X45750000Y-39640000D02*
X45850000Y-39640000D01*
D16*
%TO.C,D2*%
X53610000Y-70902000D02*
X53610000Y-74802000D01*
X55610000Y-70902000D02*
X55610000Y-74802000D01*
X55610000Y-70902000D02*
X53610000Y-70902000D01*
%TO.C,R18*%
X54534800Y-68553359D02*
X54534800Y-68860641D01*
X55294800Y-68553359D02*
X55294800Y-68860641D01*
%TO.C,J3*%
X53296000Y-53166200D02*
X54356000Y-53166200D01*
X53296000Y-55226200D02*
X53296000Y-61286200D01*
X53296000Y-61286200D02*
X55416000Y-61286200D01*
X53296000Y-54226200D02*
X53296000Y-53166200D01*
X55416000Y-55226200D02*
X55416000Y-61286200D01*
X53296000Y-55226200D02*
X55416000Y-55226200D01*
%TO.C,J1*%
X51682200Y-55226200D02*
X51682200Y-61286200D01*
X49562200Y-61286200D02*
X51682200Y-61286200D01*
X49562200Y-53166200D02*
X50622200Y-53166200D01*
X49562200Y-55226200D02*
X49562200Y-61286200D01*
X49562200Y-55226200D02*
X51682200Y-55226200D01*
X49562200Y-54226200D02*
X49562200Y-53166200D01*
%TO.C,R2*%
X73887359Y-68452000D02*
X74194641Y-68452000D01*
X73887359Y-67692000D02*
X74194641Y-67692000D01*
%TO.C,D5*%
X65465000Y-44815000D02*
X65465000Y-47100000D01*
X66935000Y-47100000D02*
X66935000Y-44815000D01*
X66935000Y-44815000D02*
X65465000Y-44815000D01*
%TO.C,C12*%
X67837164Y-67712000D02*
X68052836Y-67712000D01*
X67837164Y-68432000D02*
X68052836Y-68432000D01*
%TO.C,R7*%
X67311000Y-49429641D02*
X67311000Y-49122359D01*
X68071000Y-49429641D02*
X68071000Y-49122359D01*
D12*
%TO.C,IC9*%
X55845000Y-42090000D02*
X54645000Y-42090000D01*
X54645000Y-39190000D02*
X55845000Y-39190000D01*
X53395000Y-39140000D02*
X54295000Y-39140000D01*
X55845000Y-39190000D02*
X55845000Y-42090000D01*
X54645000Y-42090000D02*
X54645000Y-39190000D01*
%TO.C,S2*%
X52002000Y-48903000D02*
X52002000Y-49903000D01*
X52002000Y-47803000D02*
X56202000Y-47803000D01*
X56202000Y-48903000D02*
X56202000Y-49903000D01*
X56202000Y-51003000D02*
X52002000Y-51003000D01*
X51249370Y-48314000D02*
G75*
G03*
X51249370Y-48314000I-53370J0D01*
G01*
D16*
%TO.C,C23*%
X58693164Y-40492000D02*
X58908836Y-40492000D01*
X58693164Y-39772000D02*
X58908836Y-39772000D01*
%TO.C,C11*%
X57384836Y-54250000D02*
X57169164Y-54250000D01*
X57384836Y-54970000D02*
X57169164Y-54970000D01*
%TO.C,J2*%
X72910000Y-59560000D02*
X72910000Y-52640000D01*
X71400000Y-59960000D02*
X71400000Y-59560000D01*
X70390000Y-56000000D02*
X70390000Y-56200000D01*
X73510000Y-52040000D02*
X72710000Y-52040000D01*
X69990000Y-57600000D02*
X70390000Y-57600000D01*
X69990000Y-54500000D02*
X70390000Y-54500000D01*
X72910000Y-52640000D02*
X69990000Y-52640000D01*
X70390000Y-57700000D02*
X69990000Y-57700000D01*
X73310000Y-59960000D02*
X73310000Y-52240000D01*
X73510000Y-53550000D02*
X73510000Y-53250000D01*
X72400000Y-52240000D02*
X72400000Y-52640000D01*
X73510000Y-53250000D02*
X73310000Y-53250000D01*
X69990000Y-52640000D02*
X69990000Y-59560000D01*
X69990000Y-54600000D02*
X70390000Y-54600000D01*
X69990000Y-57500000D02*
X70390000Y-57500000D01*
X69590000Y-52240000D02*
X69590000Y-59960000D01*
X70390000Y-57500000D02*
X70390000Y-57700000D01*
X73410000Y-53550000D02*
X73410000Y-53250000D01*
X73510000Y-52840000D02*
X73510000Y-52040000D01*
X73310000Y-53550000D02*
X73510000Y-53550000D01*
X69990000Y-59560000D02*
X72910000Y-59560000D01*
X71400000Y-52240000D02*
X71400000Y-52640000D01*
X73310000Y-52240000D02*
X69590000Y-52240000D01*
X72400000Y-59960000D02*
X72400000Y-59560000D01*
X69590000Y-59960000D02*
X73310000Y-59960000D01*
X70390000Y-54700000D02*
X69990000Y-54700000D01*
X70390000Y-54500000D02*
X70390000Y-54700000D01*
X69990000Y-56100000D02*
X70390000Y-56100000D01*
X70390000Y-56200000D02*
X69990000Y-56200000D01*
X69990000Y-56000000D02*
X70390000Y-56000000D01*
D12*
%TO.C,IC3*%
X73418000Y-66877000D02*
X68568000Y-66877000D01*
X68568000Y-66877000D02*
X68568000Y-61647000D01*
X73418000Y-61647000D02*
X73418000Y-66877000D01*
X68568000Y-61647000D02*
X73418000Y-61647000D01*
X75418000Y-66842000D02*
X73768000Y-66842000D01*
%TO.C,IC8*%
X38750000Y-55138000D02*
X38750000Y-57638000D01*
X43250000Y-57638000D02*
X43250000Y-55138000D01*
X42555400Y-53478000D02*
G75*
G03*
X42555400Y-53478000I-26400J0D01*
G01*
D16*
%TO.C,C21*%
X44429000Y-56184748D02*
X44429000Y-57607252D01*
X46249000Y-56184748D02*
X46249000Y-57607252D01*
D12*
%TO.C,S1*%
X73093000Y-71128000D02*
X73093000Y-72128000D01*
X73093000Y-73228000D02*
X68893000Y-73228000D01*
X68893000Y-71128000D02*
X68893000Y-72128000D01*
X68893000Y-70028000D02*
X73093000Y-70028000D01*
X68140370Y-70539000D02*
G75*
G03*
X68140370Y-70539000I-53370J0D01*
G01*
D16*
%TO.C,R31*%
X66120000Y-49429641D02*
X66120000Y-49122359D01*
X66880000Y-49429641D02*
X66880000Y-49122359D01*
%TO.C,R10*%
X42022742Y-48022500D02*
X42497258Y-48022500D01*
X42022742Y-46977500D02*
X42497258Y-46977500D01*
%TO.C,C1*%
X68140000Y-57907836D02*
X68140000Y-57692164D01*
X68860000Y-57907836D02*
X68860000Y-57692164D01*
%TO.C,R22*%
X49503359Y-74296000D02*
X49810641Y-74296000D01*
X49503359Y-75056000D02*
X49810641Y-75056000D01*
%TO.C,C17*%
X69829000Y-39954252D02*
X69829000Y-38531748D01*
X71649000Y-39954252D02*
X71649000Y-38531748D01*
%TO.C,R28*%
X47499000Y-56361359D02*
X47499000Y-56668641D01*
X48259000Y-56361359D02*
X48259000Y-56668641D01*
%TO.C,R25*%
X50525142Y-68286100D02*
X50999658Y-68286100D01*
X50525142Y-69331100D02*
X50999658Y-69331100D01*
%TO.C,C14*%
X53157800Y-68599164D02*
X53157800Y-68814836D01*
X53877800Y-68599164D02*
X53877800Y-68814836D01*
%TO.C,R24*%
X49130000Y-40403641D02*
X49130000Y-40096359D01*
X48370000Y-40403641D02*
X48370000Y-40096359D01*
%TO.C,R21*%
X48370000Y-42653641D02*
X48370000Y-42346359D01*
X49130000Y-42653641D02*
X49130000Y-42346359D01*
%TO.C,C16*%
X40007000Y-61100580D02*
X40007000Y-60819420D01*
X38987000Y-61100580D02*
X38987000Y-60819420D01*
%TO.C,R5*%
X61850000Y-61822359D02*
X61850000Y-62129641D01*
X62610000Y-61822359D02*
X62610000Y-62129641D01*
%TO.C,C8*%
X58780000Y-61360164D02*
X58780000Y-61575836D01*
X58060000Y-61360164D02*
X58060000Y-61575836D01*
%TO.C,D1*%
X68735000Y-47100000D02*
X68735000Y-44815000D01*
X67265000Y-44815000D02*
X67265000Y-47100000D01*
X68735000Y-44815000D02*
X67265000Y-44815000D01*
%TO.C,R1*%
X60578000Y-47905641D02*
X60578000Y-47598359D01*
X59818000Y-47905641D02*
X59818000Y-47598359D01*
%TO.C,R30*%
X64288641Y-45340000D02*
X63981359Y-45340000D01*
X64288641Y-46100000D02*
X63981359Y-46100000D01*
%TO.C,R11*%
X42012742Y-42227500D02*
X42487258Y-42227500D01*
X42012742Y-43272500D02*
X42487258Y-43272500D01*
%TO.C,D3*%
X47144000Y-60667000D02*
X48614000Y-60667000D01*
X47144000Y-58382000D02*
X47144000Y-60667000D01*
X48614000Y-60667000D02*
X48614000Y-58382000D01*
%TO.C,U1*%
X57021000Y-68599000D02*
X65661000Y-68599000D01*
X65661000Y-68599000D02*
X65661000Y-75949000D01*
X65661000Y-75949000D02*
X57021000Y-75949000D01*
X57021000Y-75949000D02*
X57021000Y-68599000D01*
%TO.C,C15*%
X42674000Y-60819420D02*
X42674000Y-61100580D01*
X41654000Y-60819420D02*
X41654000Y-61100580D01*
%TO.C,R23*%
X51662359Y-74296000D02*
X51969641Y-74296000D01*
X51662359Y-75056000D02*
X51969641Y-75056000D01*
%TO.C,R15*%
X64288641Y-41149000D02*
X63981359Y-41149000D01*
X64288641Y-41909000D02*
X63981359Y-41909000D01*
D12*
%TO.C,IC2*%
X61415000Y-49043000D02*
X61415000Y-48493000D01*
X64315000Y-49043000D02*
X61415000Y-49043000D01*
X64365000Y-46893000D02*
X64365000Y-48143000D01*
X61415000Y-48493000D02*
X64315000Y-48493000D01*
X64315000Y-48493000D02*
X64315000Y-49043000D01*
D16*
%TO.C,C18*%
X45262748Y-53488000D02*
X46685252Y-53488000D01*
X45262748Y-51668000D02*
X46685252Y-51668000D01*
%TO.C,U2*%
X50496000Y-46569000D02*
X63296000Y-46569000D01*
X63296000Y-46569000D02*
X63296000Y-36369000D01*
X63296000Y-36369000D02*
X50496000Y-36369000D01*
X50496000Y-36369000D02*
X50496000Y-46569000D01*
%TO.C,R14*%
X42012742Y-40772500D02*
X42487258Y-40772500D01*
X42012742Y-39727500D02*
X42487258Y-39727500D01*
%TO.C,R4*%
X63727359Y-66547000D02*
X64034641Y-66547000D01*
X63727359Y-65787000D02*
X64034641Y-65787000D01*
D12*
%TO.C,IC6*%
X60501000Y-40271000D02*
X60964000Y-39808000D01*
X60501000Y-42234000D02*
X60501000Y-40271000D01*
X60964000Y-39808000D02*
X61927000Y-39808000D01*
X61927000Y-42234000D02*
X60501000Y-42234000D01*
X61927000Y-39808000D02*
X61927000Y-42234000D01*
X60601000Y-39808000D02*
G75*
G03*
X60601000Y-39808000I-100000J0D01*
G01*
%TO.C,IC10*%
X43200000Y-44175000D02*
X44400000Y-44175000D01*
D16*
%TO.C,R26*%
X54964359Y-62358000D02*
X55271641Y-62358000D01*
X54964359Y-63118000D02*
X55271641Y-63118000D01*
%TO.C,R29*%
X40661000Y-65878064D02*
X40661000Y-64423936D01*
X38841000Y-65878064D02*
X38841000Y-64423936D01*
D12*
%TO.C,IC7*%
X48994400Y-65206600D02*
X51894400Y-65206600D01*
X48944400Y-67356600D02*
X48944400Y-66156600D01*
X48994400Y-65806600D02*
X48994400Y-65206600D01*
X51894400Y-65806600D02*
X48994400Y-65806600D01*
X51894400Y-65206600D02*
X51894400Y-65806600D01*
D16*
%TO.C,C20*%
X45288748Y-50410000D02*
X46711252Y-50410000D01*
X45288748Y-48590000D02*
X46711252Y-48590000D01*
%TO.C,C2*%
X68140000Y-54692164D02*
X68140000Y-54907836D01*
X68860000Y-54692164D02*
X68860000Y-54907836D01*
D12*
%TO.C,S3*%
X40458800Y-74833000D02*
X45954800Y-74833000D01*
D17*
X40936800Y-70475000D02*
X40936800Y-70475000D01*
D12*
X39856800Y-73133000D02*
X39856800Y-73933000D01*
X46556800Y-73133000D02*
X46556800Y-73933000D01*
D17*
X41000800Y-70475000D02*
X41000800Y-70475000D01*
X40936800Y-70475000D02*
G75*
G03*
X41000800Y-70475000I32000J0D01*
G01*
X41000800Y-70475000D02*
G75*
G03*
X40936800Y-70475000I-32000J0D01*
G01*
D16*
%TO.C,C9*%
X59330000Y-61360164D02*
X59330000Y-61575836D01*
X60050000Y-61360164D02*
X60050000Y-61575836D01*
%TO.C,R16*%
X64288641Y-43562000D02*
X63981359Y-43562000D01*
X64288641Y-44322000D02*
X63981359Y-44322000D01*
%TO.C,R6*%
X60580000Y-61822359D02*
X60580000Y-62129641D01*
X61340000Y-61822359D02*
X61340000Y-62129641D01*
D12*
%TO.C,Q1*%
X52819800Y-65482000D02*
X55739800Y-65482000D01*
X55779800Y-63832000D02*
X55779800Y-65132000D01*
X55739800Y-65482000D02*
X55739800Y-65582000D01*
X55739800Y-65582000D02*
X52819800Y-65582000D01*
X52819800Y-65582000D02*
X52819800Y-65482000D01*
D16*
%TO.C,R13*%
X41937742Y-50522500D02*
X42412258Y-50522500D01*
X41937742Y-49477500D02*
X42412258Y-49477500D01*
%TD*%
M02*
