%FSLAX45Y45*%
G04 Gerber Fmt 4.5, Leading zero omitted, Abs format (unit mm)*
G04 Created by KiCad (PCBNEW (6.0.4)) date 2023-01-05 00:39:57*
%MOMM*%
%LPD*%
G01*
G04 APERTURE LIST*
%TA.AperFunction,Profile*%
%ADD10C,0.100000*%
%TD*%
%ADD11C,0.200000*%
%ADD12C,0.020000*%
%ADD13C,0.035000*%
%ADD14C,0.040000*%
%ADD15C,0.060000*%
%ADD16C,0.073000*%
%ADD17C,0.075000*%
%ADD18C,0.076200*%
%ADD19C,0.080000*%
%ADD20C,0.065000*%
%ADD21C,0.090000*%
G04 APERTURE END LIST*
D10*
X3600000Y-3600000D02*
X7800000Y-3600000D01*
X7800000Y-3600000D02*
X7800000Y-7600000D01*
X7800000Y-7600000D02*
X3600000Y-7600000D01*
X3600000Y-7600000D02*
X3600000Y-3600000D01*
D11*
D12*
X5600000Y-5470000D02*
X5620000Y-5490000D01*
X5620000Y-5470000D02*
X5600000Y-5490000D01*
X5733538Y-5407461D02*
X5753538Y-5427461D01*
X5753538Y-5407461D02*
X5733538Y-5427461D01*
D13*
X3692500Y-3675000D02*
G75*
G03*
X3692500Y-3675000I-17500J0D01*
G01*
X3692500Y-3900000D02*
G75*
G03*
X3692500Y-3900000I-17500J0D01*
G01*
X3817500Y-4175000D02*
G75*
G03*
X3817500Y-4175000I-17500J0D01*
G01*
X3817500Y-4900000D02*
G75*
G03*
X3817500Y-4900000I-17500J0D01*
G01*
X3817500Y-5050000D02*
G75*
G03*
X3817500Y-5050000I-17500J0D01*
G01*
X3817500Y-5950000D02*
G75*
G03*
X3817500Y-5950000I-17500J0D01*
G01*
X3862500Y-5490000D02*
G75*
G03*
X3862500Y-5490000I-17500J0D01*
G01*
X3862500Y-6240000D02*
G75*
G03*
X3862500Y-6240000I-17500J0D01*
G01*
X3917500Y-3675000D02*
G75*
G03*
X3917500Y-3675000I-17500J0D01*
G01*
X4056100Y-5676900D02*
G75*
G03*
X4056100Y-5676900I-17500J0D01*
G01*
X4067500Y-3900000D02*
G75*
G03*
X4067500Y-3900000I-17500J0D01*
G01*
X4097500Y-4637150D02*
G75*
G03*
X4097500Y-4637150I-17500J0D01*
G01*
X4106900Y-5575300D02*
G75*
G03*
X4106900Y-5575300I-17500J0D01*
G01*
X4142500Y-3875000D02*
G75*
G03*
X4142500Y-3875000I-17500J0D01*
G01*
X4142500Y-4375000D02*
G75*
G03*
X4142500Y-4375000I-17500J0D01*
G01*
X4170400Y-5664200D02*
G75*
G03*
X4170400Y-5664200I-17500J0D01*
G01*
X4267500Y-3913250D02*
G75*
G03*
X4267500Y-3913250I-17500J0D01*
G01*
X4275542Y-4596405D02*
G75*
G03*
X4275542Y-4596405I-17500J0D01*
G01*
X4442500Y-4725000D02*
G75*
G03*
X4442500Y-4725000I-17500J0D01*
G01*
X4492500Y-4375000D02*
G75*
G03*
X4492500Y-4375000I-17500J0D01*
G01*
X4617500Y-3675000D02*
G75*
G03*
X4617500Y-3675000I-17500J0D01*
G01*
X4617500Y-5225000D02*
G75*
G03*
X4617500Y-5225000I-17500J0D01*
G01*
X4642500Y-4375000D02*
G75*
G03*
X4642500Y-4375000I-17500J0D01*
G01*
X4661750Y-4737100D02*
G75*
G03*
X4661750Y-4737100I-17500J0D01*
G01*
X4667500Y-5123482D02*
G75*
G03*
X4667500Y-5123482I-17500J0D01*
G01*
X4692500Y-5750000D02*
G75*
G03*
X4692500Y-5750000I-17500J0D01*
G01*
X4717500Y-5900000D02*
G75*
G03*
X4717500Y-5900000I-17500J0D01*
G01*
X4717500Y-6075000D02*
G75*
G03*
X4717500Y-6075000I-17500J0D01*
G01*
X4767500Y-3725000D02*
G75*
G03*
X4767500Y-3725000I-17500J0D01*
G01*
X4830800Y-4533900D02*
G75*
G03*
X4830800Y-4533900I-17500J0D01*
G01*
X4877500Y-6560000D02*
G75*
G03*
X4877500Y-6560000I-17500J0D01*
G01*
X4892500Y-3725000D02*
G75*
G03*
X4892500Y-3725000I-17500J0D01*
G01*
X4892500Y-3850000D02*
G75*
G03*
X4892500Y-3850000I-17500J0D01*
G01*
X4894214Y-6216525D02*
G75*
G03*
X4894214Y-6216525I-17500J0D01*
G01*
X4917500Y-5925000D02*
G75*
G03*
X4917500Y-5925000I-17500J0D01*
G01*
X4967500Y-5725000D02*
G75*
G03*
X4967500Y-5725000I-17500J0D01*
G01*
X5061940Y-6550660D02*
G75*
G03*
X5061940Y-6550660I-17500J0D01*
G01*
X5084800Y-6781800D02*
G75*
G03*
X5084800Y-6781800I-17500J0D01*
G01*
X5142500Y-4050000D02*
G75*
G03*
X5142500Y-4050000I-17500J0D01*
G01*
X5157500Y-4700000D02*
G75*
G03*
X5157500Y-4700000I-17500J0D01*
G01*
X5167500Y-4175000D02*
G75*
G03*
X5167500Y-4175000I-17500J0D01*
G01*
X5217500Y-4325000D02*
G75*
G03*
X5217500Y-4325000I-17500J0D01*
G01*
X5217500Y-6025000D02*
G75*
G03*
X5217500Y-6025000I-17500J0D01*
G01*
X5232500Y-5665218D02*
G75*
G03*
X5232500Y-5665218I-17500J0D01*
G01*
X5236890Y-6660000D02*
G75*
G03*
X5236890Y-6660000I-17500J0D01*
G01*
X5267500Y-5925000D02*
G75*
G03*
X5267500Y-5925000I-17500J0D01*
G01*
X5313400Y-6019800D02*
G75*
G03*
X5313400Y-6019800I-17500J0D01*
G01*
X5317500Y-3675000D02*
G75*
G03*
X5317500Y-3675000I-17500J0D01*
G01*
X5317500Y-3850000D02*
G75*
G03*
X5317500Y-3850000I-17500J0D01*
G01*
X5317500Y-4640000D02*
G75*
G03*
X5317500Y-4640000I-17500J0D01*
G01*
X5322500Y-6130000D02*
G75*
G03*
X5322500Y-6130000I-17500J0D01*
G01*
X5342500Y-7200000D02*
G75*
G03*
X5342500Y-7200000I-17500J0D01*
G01*
X5342500Y-7350000D02*
G75*
G03*
X5342500Y-7350000I-17500J0D01*
G01*
X5342500Y-7525000D02*
G75*
G03*
X5342500Y-7525000I-17500J0D01*
G01*
X5357500Y-4920000D02*
G75*
G03*
X5357500Y-4920000I-17500J0D01*
G01*
X5413500Y-4649000D02*
G75*
G03*
X5413500Y-4649000I-17500J0D01*
G01*
X5417500Y-4325000D02*
G75*
G03*
X5417500Y-4325000I-17500J0D01*
G01*
X5477500Y-5040000D02*
G75*
G03*
X5477500Y-5040000I-17500J0D01*
G01*
X5503900Y-4038600D02*
G75*
G03*
X5503900Y-4038600I-17500J0D01*
G01*
X5517500Y-7025000D02*
G75*
G03*
X5517500Y-7025000I-17500J0D01*
G01*
X5529300Y-3886200D02*
G75*
G03*
X5529300Y-3886200I-17500J0D01*
G01*
X5552500Y-6310000D02*
G75*
G03*
X5552500Y-6310000I-17500J0D01*
G01*
X5588500Y-4526000D02*
G75*
G03*
X5588500Y-4526000I-17500J0D01*
G01*
X5592500Y-5925000D02*
G75*
G03*
X5592500Y-5925000I-17500J0D01*
G01*
X5597500Y-4620000D02*
G75*
G03*
X5597500Y-4620000I-17500J0D01*
G01*
X5597500Y-4910000D02*
G75*
G03*
X5597500Y-4910000I-17500J0D01*
G01*
X5627500Y-5780000D02*
G75*
G03*
X5627500Y-5780000I-17500J0D01*
G01*
X5667500Y-5000000D02*
G75*
G03*
X5667500Y-5000000I-17500J0D01*
G01*
X5702500Y-5840000D02*
G75*
G03*
X5702500Y-5840000I-17500J0D01*
G01*
X5707500Y-5601900D02*
G75*
G03*
X5707500Y-5601900I-17500J0D01*
G01*
X5737500Y-6100000D02*
G75*
G03*
X5737500Y-6100000I-17500J0D01*
G01*
X5742500Y-6425000D02*
G75*
G03*
X5742500Y-6425000I-17500J0D01*
G01*
X5774951Y-5683016D02*
G75*
G03*
X5774951Y-5683016I-17500J0D01*
G01*
X5777950Y-5349580D02*
G75*
G03*
X5777950Y-5349580I-17500J0D01*
G01*
X5797500Y-5541950D02*
G75*
G03*
X5797500Y-5541950I-17500J0D01*
G01*
X5807500Y-4880000D02*
G75*
G03*
X5807500Y-4880000I-17500J0D01*
G01*
X5808700Y-6616700D02*
G75*
G03*
X5808700Y-6616700I-17500J0D01*
G01*
X5840325Y-5242392D02*
G75*
G03*
X5840325Y-5242392I-17500J0D01*
G01*
X5859500Y-6337300D02*
G75*
G03*
X5859500Y-6337300I-17500J0D01*
G01*
X5867500Y-7200000D02*
G75*
G03*
X5867500Y-7200000I-17500J0D01*
G01*
X5867500Y-7350000D02*
G75*
G03*
X5867500Y-7350000I-17500J0D01*
G01*
X5867500Y-7500000D02*
G75*
G03*
X5867500Y-7500000I-17500J0D01*
G01*
X5874783Y-5007717D02*
G75*
G03*
X5874783Y-5007717I-17500J0D01*
G01*
X5875176Y-5362025D02*
G75*
G03*
X5875176Y-5362025I-17500J0D01*
G01*
X5884900Y-5981700D02*
G75*
G03*
X5884900Y-5981700I-17500J0D01*
G01*
X5890250Y-5120000D02*
G75*
G03*
X5890250Y-5120000I-17500J0D01*
G01*
X5942500Y-6450000D02*
G75*
G03*
X5942500Y-6450000I-17500J0D01*
G01*
X5942500Y-6725000D02*
G75*
G03*
X5942500Y-6725000I-17500J0D01*
G01*
X5947500Y-4810000D02*
G75*
G03*
X5947500Y-4810000I-17500J0D01*
G01*
X5957500Y-5260000D02*
G75*
G03*
X5957500Y-5260000I-17500J0D01*
G01*
X5986500Y-6286500D02*
G75*
G03*
X5986500Y-6286500I-17500J0D01*
G01*
X6027500Y-3990000D02*
G75*
G03*
X6027500Y-3990000I-17500J0D01*
G01*
X6088000Y-4876900D02*
G75*
G03*
X6088000Y-4876900I-17500J0D01*
G01*
X6097500Y-4600000D02*
G75*
G03*
X6097500Y-4600000I-17500J0D01*
G01*
X6117500Y-7200000D02*
G75*
G03*
X6117500Y-7200000I-17500J0D01*
G01*
X6117500Y-7350000D02*
G75*
G03*
X6117500Y-7350000I-17500J0D01*
G01*
X6117500Y-7500000D02*
G75*
G03*
X6117500Y-7500000I-17500J0D01*
G01*
X6202400Y-5783580D02*
G75*
G03*
X6202400Y-5783580I-17500J0D01*
G01*
X6217500Y-4060000D02*
G75*
G03*
X6217500Y-4060000I-17500J0D01*
G01*
X6227800Y-5448300D02*
G75*
G03*
X6227800Y-5448300I-17500J0D01*
G01*
X6227800Y-5562600D02*
G75*
G03*
X6227800Y-5562600I-17500J0D01*
G01*
X6227800Y-5676900D02*
G75*
G03*
X6227800Y-5676900I-17500J0D01*
G01*
X6248014Y-5113430D02*
G75*
G03*
X6248014Y-5113430I-17500J0D01*
G01*
X6257500Y-4290000D02*
G75*
G03*
X6257500Y-4290000I-17500J0D01*
G01*
X6267500Y-4875000D02*
G75*
G03*
X6267500Y-4875000I-17500J0D01*
G01*
X6283680Y-5351780D02*
G75*
G03*
X6283680Y-5351780I-17500J0D01*
G01*
X6302500Y-4980000D02*
G75*
G03*
X6302500Y-4980000I-17500J0D01*
G01*
X6342100Y-5448300D02*
G75*
G03*
X6342100Y-5448300I-17500J0D01*
G01*
X6342100Y-5562600D02*
G75*
G03*
X6342100Y-5562600I-17500J0D01*
G01*
X6342100Y-5676900D02*
G75*
G03*
X6342100Y-5676900I-17500J0D01*
G01*
X6342100Y-6515100D02*
G75*
G03*
X6342100Y-6515100I-17500J0D01*
G01*
X6366283Y-6088067D02*
G75*
G03*
X6366283Y-6088067I-17500J0D01*
G01*
X6367500Y-7200000D02*
G75*
G03*
X6367500Y-7200000I-17500J0D01*
G01*
X6367500Y-7350000D02*
G75*
G03*
X6367500Y-7350000I-17500J0D01*
G01*
X6367500Y-7500000D02*
G75*
G03*
X6367500Y-7500000I-17500J0D01*
G01*
X6377500Y-4280000D02*
G75*
G03*
X6377500Y-4280000I-17500J0D01*
G01*
X6392500Y-3700000D02*
G75*
G03*
X6392500Y-3700000I-17500J0D01*
G01*
X6392500Y-6725000D02*
G75*
G03*
X6392500Y-6725000I-17500J0D01*
G01*
X6397500Y-3820000D02*
G75*
G03*
X6397500Y-3820000I-17500J0D01*
G01*
X6405600Y-4864100D02*
G75*
G03*
X6405600Y-4864100I-17500J0D01*
G01*
X6434120Y-4639244D02*
G75*
G03*
X6434120Y-4639244I-17500J0D01*
G01*
X6456400Y-5448300D02*
G75*
G03*
X6456400Y-5448300I-17500J0D01*
G01*
X6456400Y-5562600D02*
G75*
G03*
X6456400Y-5562600I-17500J0D01*
G01*
X6456400Y-5676900D02*
G75*
G03*
X6456400Y-5676900I-17500J0D01*
G01*
X6456400Y-6515100D02*
G75*
G03*
X6456400Y-6515100I-17500J0D01*
G01*
X6483531Y-4290000D02*
G75*
G03*
X6483531Y-4290000I-17500J0D01*
G01*
X6532600Y-6616700D02*
G75*
G03*
X6532600Y-6616700I-17500J0D01*
G01*
X6542500Y-3700000D02*
G75*
G03*
X6542500Y-3700000I-17500J0D01*
G01*
X6547500Y-3820000D02*
G75*
G03*
X6547500Y-3820000I-17500J0D01*
G01*
X6567500Y-6475000D02*
G75*
G03*
X6567500Y-6475000I-17500J0D01*
G01*
X6603432Y-5051036D02*
G75*
G03*
X6603432Y-5051036I-17500J0D01*
G01*
X6627500Y-3980000D02*
G75*
G03*
X6627500Y-3980000I-17500J0D01*
G01*
X6637500Y-4450000D02*
G75*
G03*
X6637500Y-4450000I-17500J0D01*
G01*
X6642500Y-4200000D02*
G75*
G03*
X6642500Y-4200000I-17500J0D01*
G01*
X6717500Y-6975000D02*
G75*
G03*
X6717500Y-6975000I-17500J0D01*
G01*
X6717500Y-7150000D02*
G75*
G03*
X6717500Y-7150000I-17500J0D01*
G01*
X6717500Y-7450000D02*
G75*
G03*
X6717500Y-7450000I-17500J0D01*
G01*
X6748500Y-3670300D02*
G75*
G03*
X6748500Y-3670300I-17500J0D01*
G01*
X6786550Y-5522550D02*
G75*
G03*
X6786550Y-5522550I-17500J0D01*
G01*
X6817500Y-4450000D02*
G75*
G03*
X6817500Y-4450000I-17500J0D01*
G01*
X6867500Y-4165000D02*
G75*
G03*
X6867500Y-4165000I-17500J0D01*
G01*
X6892500Y-3955000D02*
G75*
G03*
X6892500Y-3955000I-17500J0D01*
G01*
X6907500Y-4240000D02*
G75*
G03*
X6907500Y-4240000I-17500J0D01*
G01*
X6916900Y-4089400D02*
G75*
G03*
X6916900Y-4089400I-17500J0D01*
G01*
X6917500Y-3700000D02*
G75*
G03*
X6917500Y-3700000I-17500J0D01*
G01*
X6927500Y-6980000D02*
G75*
G03*
X6927500Y-6980000I-17500J0D01*
G01*
X6937500Y-5365000D02*
G75*
G03*
X6937500Y-5365000I-17500J0D01*
G01*
X6939000Y-6807200D02*
G75*
G03*
X6939000Y-6807200I-17500J0D01*
G01*
X6942500Y-7150000D02*
G75*
G03*
X6942500Y-7150000I-17500J0D01*
G01*
X6942500Y-7450000D02*
G75*
G03*
X6942500Y-7450000I-17500J0D01*
G01*
X6947500Y-5720000D02*
G75*
G03*
X6947500Y-5720000I-17500J0D01*
G01*
X6957500Y-5522650D02*
G75*
G03*
X6957500Y-5522650I-17500J0D01*
G01*
X6967500Y-6225000D02*
G75*
G03*
X6967500Y-6225000I-17500J0D01*
G01*
X6967500Y-6425000D02*
G75*
G03*
X6967500Y-6425000I-17500J0D01*
G01*
X6967500Y-6625000D02*
G75*
G03*
X6967500Y-6625000I-17500J0D01*
G01*
X7017500Y-4375000D02*
G75*
G03*
X7017500Y-4375000I-17500J0D01*
G01*
X7037500Y-5820000D02*
G75*
G03*
X7037500Y-5820000I-17500J0D01*
G01*
X7062500Y-5425000D02*
G75*
G03*
X7062500Y-5425000I-17500J0D01*
G01*
X7091400Y-3670300D02*
G75*
G03*
X7091400Y-3670300I-17500J0D01*
G01*
X7117500Y-4265000D02*
G75*
G03*
X7117500Y-4265000I-17500J0D01*
G01*
X7117500Y-6425000D02*
G75*
G03*
X7117500Y-6425000I-17500J0D01*
G01*
X7117500Y-6625000D02*
G75*
G03*
X7117500Y-6625000I-17500J0D01*
G01*
X7142500Y-7150000D02*
G75*
G03*
X7142500Y-7150000I-17500J0D01*
G01*
X7142500Y-7450000D02*
G75*
G03*
X7142500Y-7450000I-17500J0D01*
G01*
X7147500Y-5110000D02*
G75*
G03*
X7147500Y-5110000I-17500J0D01*
G01*
X7217500Y-6800000D02*
G75*
G03*
X7217500Y-6800000I-17500J0D01*
G01*
X7242500Y-3700000D02*
G75*
G03*
X7242500Y-3700000I-17500J0D01*
G01*
X7242500Y-6125000D02*
G75*
G03*
X7242500Y-6125000I-17500J0D01*
G01*
X7252500Y-3950000D02*
G75*
G03*
X7252500Y-3950000I-17500J0D01*
G01*
X7252500Y-4260000D02*
G75*
G03*
X7252500Y-4260000I-17500J0D01*
G01*
X7267500Y-6425000D02*
G75*
G03*
X7267500Y-6425000I-17500J0D01*
G01*
X7267500Y-6625000D02*
G75*
G03*
X7267500Y-6625000I-17500J0D01*
G01*
X7292500Y-5275000D02*
G75*
G03*
X7292500Y-5275000I-17500J0D01*
G01*
X7332500Y-5615000D02*
G75*
G03*
X7332500Y-5615000I-17500J0D01*
G01*
X7357500Y-4179250D02*
G75*
G03*
X7357500Y-4179250I-17500J0D01*
G01*
X7367500Y-6125000D02*
G75*
G03*
X7367500Y-6125000I-17500J0D01*
G01*
X7372500Y-4980000D02*
G75*
G03*
X7372500Y-4980000I-17500J0D01*
G01*
X7392500Y-7150000D02*
G75*
G03*
X7392500Y-7150000I-17500J0D01*
G01*
X7392500Y-7450000D02*
G75*
G03*
X7392500Y-7450000I-17500J0D01*
G01*
X7397500Y-6955000D02*
G75*
G03*
X7397500Y-6955000I-17500J0D01*
G01*
X7408900Y-3670300D02*
G75*
G03*
X7408900Y-3670300I-17500J0D01*
G01*
X7427500Y-5830000D02*
G75*
G03*
X7427500Y-5830000I-17500J0D01*
G01*
X7452500Y-5180000D02*
G75*
G03*
X7452500Y-5180000I-17500J0D01*
G01*
X7457500Y-4535000D02*
G75*
G03*
X7457500Y-4535000I-17500J0D01*
G01*
X7457500Y-4660000D02*
G75*
G03*
X7457500Y-4660000I-17500J0D01*
G01*
X7561300Y-3695700D02*
G75*
G03*
X7561300Y-3695700I-17500J0D01*
G01*
X7567500Y-3950000D02*
G75*
G03*
X7567500Y-3950000I-17500J0D01*
G01*
X7592500Y-4175000D02*
G75*
G03*
X7592500Y-4175000I-17500J0D01*
G01*
X7592500Y-6725000D02*
G75*
G03*
X7592500Y-6725000I-17500J0D01*
G01*
X7612500Y-4835000D02*
G75*
G03*
X7612500Y-4835000I-17500J0D01*
G01*
X7617500Y-4680000D02*
G75*
G03*
X7617500Y-4680000I-17500J0D01*
G01*
X7617500Y-5625000D02*
G75*
G03*
X7617500Y-5625000I-17500J0D01*
G01*
X7617500Y-5775000D02*
G75*
G03*
X7617500Y-5775000I-17500J0D01*
G01*
X7617500Y-5925000D02*
G75*
G03*
X7617500Y-5925000I-17500J0D01*
G01*
X7617500Y-7100000D02*
G75*
G03*
X7617500Y-7100000I-17500J0D01*
G01*
X7617500Y-7450000D02*
G75*
G03*
X7617500Y-7450000I-17500J0D01*
G01*
X7622500Y-4515000D02*
G75*
G03*
X7622500Y-4515000I-17500J0D01*
G01*
X7624800Y-4089400D02*
G75*
G03*
X7624800Y-4089400I-17500J0D01*
G01*
X7627500Y-4350000D02*
G75*
G03*
X7627500Y-4350000I-17500J0D01*
G01*
X7637500Y-5370000D02*
G75*
G03*
X7637500Y-5370000I-17500J0D01*
G01*
X7651450Y-5210000D02*
G75*
G03*
X7651450Y-5210000I-17500J0D01*
G01*
X7747500Y-3855000D02*
G75*
G03*
X7747500Y-3855000I-17500J0D01*
G01*
X7752500Y-3670000D02*
G75*
G03*
X7752500Y-3670000I-17500J0D01*
G01*
X7752500Y-4090000D02*
G75*
G03*
X7752500Y-4090000I-17500J0D01*
G01*
D14*
X3695700Y-4780600D02*
X3695700Y-4820600D01*
X3675700Y-4800600D02*
X3715700Y-4800600D01*
X3695700Y-4945700D02*
X3695700Y-4985700D01*
X3675700Y-4965700D02*
X3715700Y-4965700D01*
X3695700Y-5123500D02*
X3695700Y-5163500D01*
X3675700Y-5143500D02*
X3715700Y-5143500D01*
X3695700Y-5301300D02*
X3695700Y-5341300D01*
X3675700Y-5321300D02*
X3715700Y-5321300D01*
X3695700Y-5479100D02*
X3695700Y-5519100D01*
X3675700Y-5499100D02*
X3715700Y-5499100D01*
X3695700Y-5669600D02*
X3695700Y-5709600D01*
X3675700Y-5689600D02*
X3715700Y-5689600D01*
X3695700Y-5847400D02*
X3695700Y-5887400D01*
X3675700Y-5867400D02*
X3715700Y-5867400D01*
X3695700Y-6037900D02*
X3695700Y-6077900D01*
X3675700Y-6057900D02*
X3715700Y-6057900D01*
X3695700Y-6241100D02*
X3695700Y-6281100D01*
X3675700Y-6261100D02*
X3715700Y-6261100D01*
X3700000Y-4605000D02*
X3700000Y-4645000D01*
X3680000Y-4625000D02*
X3720000Y-4625000D01*
X3700000Y-7280000D02*
X3700000Y-7320000D01*
X3680000Y-7300000D02*
X3720000Y-7300000D01*
X3700000Y-7480000D02*
X3700000Y-7520000D01*
X3680000Y-7500000D02*
X3720000Y-7500000D01*
X3790750Y-6348850D02*
X3790750Y-6388850D01*
X3770750Y-6368850D02*
X3810750Y-6368850D01*
X3860800Y-4602800D02*
X3860800Y-4642800D01*
X3840800Y-4622800D02*
X3880800Y-4622800D01*
X3873500Y-5631500D02*
X3873500Y-5671500D01*
X3853500Y-5651500D02*
X3893500Y-5651500D01*
X3873500Y-5733100D02*
X3873500Y-5773100D01*
X3853500Y-5753100D02*
X3893500Y-5753100D01*
X3873500Y-5834700D02*
X3873500Y-5874700D01*
X3853500Y-5854700D02*
X3893500Y-5854700D01*
X3925000Y-6835000D02*
X3925000Y-6875000D01*
X3905000Y-6855000D02*
X3945000Y-6855000D01*
X3950000Y-7480000D02*
X3950000Y-7520000D01*
X3930000Y-7500000D02*
X3970000Y-7500000D01*
X4030000Y-4470000D02*
X4030000Y-4510000D01*
X4010000Y-4490000D02*
X4050000Y-4490000D01*
X4089400Y-6153500D02*
X4089400Y-6193500D01*
X4069400Y-6173500D02*
X4109400Y-6173500D01*
X4102100Y-5923600D02*
X4102100Y-5963600D01*
X4082100Y-5943600D02*
X4122100Y-5943600D01*
X4125000Y-4120200D02*
X4125000Y-4160200D01*
X4105000Y-4140200D02*
X4145000Y-4140200D01*
X4127500Y-4844100D02*
X4127500Y-4884100D01*
X4107500Y-4864100D02*
X4147500Y-4864100D01*
X4250000Y-7480000D02*
X4250000Y-7520000D01*
X4230000Y-7500000D02*
X4270000Y-7500000D01*
X4320000Y-6410000D02*
X4320000Y-6450000D01*
X4300000Y-6430000D02*
X4340000Y-6430000D01*
X4350000Y-6080000D02*
X4350000Y-6120000D01*
X4330000Y-6100000D02*
X4370000Y-6100000D01*
X4360000Y-6520000D02*
X4360000Y-6560000D01*
X4340000Y-6540000D02*
X4380000Y-6540000D01*
X4529396Y-5925604D02*
X4529396Y-5965604D01*
X4509396Y-5945604D02*
X4549396Y-5945604D01*
X4540000Y-5320000D02*
X4540000Y-5360000D01*
X4520000Y-5340000D02*
X4560000Y-5340000D01*
X4617240Y-6690000D02*
X4617240Y-6730000D01*
X4597240Y-6710000D02*
X4637240Y-6710000D01*
X4680000Y-3880000D02*
X4680000Y-3920000D01*
X4660000Y-3900000D02*
X4700000Y-3900000D01*
X4737100Y-4450400D02*
X4737100Y-4490400D01*
X4717100Y-4470400D02*
X4757100Y-4470400D01*
X4749800Y-5377500D02*
X4749800Y-5417500D01*
X4729800Y-5397500D02*
X4769800Y-5397500D01*
X4750000Y-3805000D02*
X4750000Y-3845000D01*
X4730000Y-3825000D02*
X4770000Y-3825000D01*
X4787140Y-6690000D02*
X4787140Y-6730000D01*
X4767140Y-6710000D02*
X4807140Y-6710000D01*
X4850000Y-7480000D02*
X4850000Y-7520000D01*
X4830000Y-7500000D02*
X4870000Y-7500000D01*
X4876800Y-5237800D02*
X4876800Y-5277800D01*
X4856800Y-5257800D02*
X4896800Y-5257800D01*
X4881072Y-6356650D02*
X4881072Y-6396650D01*
X4861072Y-6376650D02*
X4901072Y-6376650D01*
X4940382Y-5108206D02*
X4940382Y-5148206D01*
X4920382Y-5128206D02*
X4960382Y-5128206D01*
X5150734Y-6282201D02*
X5150734Y-6322201D01*
X5130734Y-6302201D02*
X5170734Y-6302201D01*
X5160000Y-7090000D02*
X5160000Y-7130000D01*
X5140000Y-7110000D02*
X5180000Y-7110000D01*
X5243850Y-6942668D02*
X5243850Y-6982668D01*
X5223850Y-6962668D02*
X5263850Y-6962668D01*
X5390000Y-7050000D02*
X5390000Y-7090000D01*
X5370000Y-7070000D02*
X5410000Y-7070000D01*
X5549900Y-4396600D02*
X5549900Y-4436600D01*
X5529900Y-4416600D02*
X5569900Y-4416600D01*
X5550000Y-6605000D02*
X5550000Y-6645000D01*
X5530000Y-6625000D02*
X5570000Y-6625000D01*
X5600000Y-6730000D02*
X5600000Y-6770000D01*
X5580000Y-6750000D02*
X5620000Y-6750000D01*
X5727700Y-6190300D02*
X5727700Y-6230300D01*
X5707700Y-6210300D02*
X5747700Y-6210300D01*
X5890000Y-4380000D02*
X5890000Y-4420000D01*
X5870000Y-4400000D02*
X5910000Y-4400000D01*
X6565900Y-6698300D02*
X6565900Y-6738300D01*
X6545900Y-6718300D02*
X6585900Y-6718300D01*
D15*
X5723313Y-6936113D02*
X5723313Y-6893687D01*
X5680887Y-6893687D01*
X5680887Y-6936113D01*
X5723313Y-6936113D01*
D11*
X5722100Y-6969900D02*
X5722100Y-6859900D01*
X5682100Y-6969900D02*
X5682100Y-6859900D01*
X5722100Y-6859900D02*
G75*
G03*
X5682100Y-6859900I-20000J0D01*
G01*
X5682100Y-6969900D02*
G75*
G03*
X5722100Y-6969900I20000J0D01*
G01*
D15*
X5723313Y-7354113D02*
X5723313Y-7311687D01*
X5680887Y-7311687D01*
X5680887Y-7354113D01*
X5723313Y-7354113D01*
D11*
X5722100Y-7372900D02*
X5722100Y-7292900D01*
X5682100Y-7372900D02*
X5682100Y-7292900D01*
X5722100Y-7292900D02*
G75*
G03*
X5682100Y-7292900I-20000J0D01*
G01*
X5682100Y-7372900D02*
G75*
G03*
X5722100Y-7372900I20000J0D01*
G01*
D15*
X6587313Y-6936113D02*
X6587313Y-6893687D01*
X6544887Y-6893687D01*
X6544887Y-6936113D01*
X6587313Y-6936113D01*
D11*
X6586100Y-6969900D02*
X6586100Y-6859900D01*
X6546100Y-6969900D02*
X6546100Y-6859900D01*
X6586100Y-6859900D02*
G75*
G03*
X6546100Y-6859900I-20000J0D01*
G01*
X6546100Y-6969900D02*
G75*
G03*
X6586100Y-6969900I20000J0D01*
G01*
D15*
X6587313Y-7354113D02*
X6587313Y-7311687D01*
X6544887Y-7311687D01*
X6544887Y-7354113D01*
X6587313Y-7354113D01*
D11*
X6586100Y-7372900D02*
X6586100Y-7292900D01*
X6546100Y-7372900D02*
X6546100Y-7292900D01*
X6586100Y-7292900D02*
G75*
G03*
X6546100Y-7292900I-20000J0D01*
G01*
X6546100Y-7372900D02*
G75*
G03*
X6586100Y-7372900I20000J0D01*
G01*
D16*
X7190000Y-4416500D02*
X7226500Y-4380000D01*
X7190000Y-4343500D01*
X7153500Y-4380000D01*
X7190000Y-4416500D01*
X7190000Y-4566500D02*
X7226500Y-4530000D01*
X7190000Y-4493500D01*
X7153500Y-4530000D01*
X7190000Y-4566500D01*
X7190000Y-4716500D02*
X7226500Y-4680000D01*
X7190000Y-4643500D01*
X7153500Y-4680000D01*
X7190000Y-4716500D01*
X7190000Y-4866500D02*
X7226500Y-4830000D01*
X7190000Y-4793500D01*
X7153500Y-4830000D01*
X7190000Y-4866500D01*
X7190000Y-5016500D02*
X7226500Y-4980000D01*
X7190000Y-4943500D01*
X7153500Y-4980000D01*
X7190000Y-5016500D01*
X7190000Y-5421500D02*
X7226500Y-5385000D01*
X7190000Y-5348500D01*
X7153500Y-5385000D01*
X7190000Y-5421500D01*
X7190000Y-5571500D02*
X7226500Y-5535000D01*
X7190000Y-5498500D01*
X7153500Y-5535000D01*
X7190000Y-5571500D01*
X7190000Y-5721500D02*
X7226500Y-5685000D01*
X7190000Y-5648500D01*
X7153500Y-5685000D01*
X7190000Y-5721500D01*
X7190000Y-5871500D02*
X7226500Y-5835000D01*
X7190000Y-5798500D01*
X7153500Y-5835000D01*
X7190000Y-5871500D01*
D17*
X4062500Y-6900620D02*
X4137500Y-6975620D01*
X4137500Y-6900620D02*
X4062500Y-6975620D01*
X4137500Y-6938120D02*
G75*
G03*
X4137500Y-6938120I-37500J0D01*
G01*
X4262500Y-6900620D02*
X4337500Y-6975620D01*
X4337500Y-6900620D02*
X4262500Y-6975620D01*
X4337500Y-6938120D02*
G75*
G03*
X4337500Y-6938120I-37500J0D01*
G01*
X4462500Y-6900620D02*
X4537500Y-6975620D01*
X4537500Y-6900620D02*
X4462500Y-6975620D01*
X4537500Y-6938120D02*
G75*
G03*
X4537500Y-6938120I-37500J0D01*
G01*
D18*
X5151500Y-3722800D02*
X5227700Y-3799000D01*
X5227700Y-3722800D02*
X5151500Y-3799000D01*
X5189600Y-3722800D02*
X5189600Y-3799000D01*
X5151500Y-3760900D02*
X5227700Y-3760900D01*
X5151500Y-4484800D02*
X5227700Y-4561000D01*
X5227700Y-4484800D02*
X5151500Y-4561000D01*
X5189600Y-4484800D02*
X5189600Y-4561000D01*
X5151500Y-4522900D02*
X5227700Y-4522900D01*
X5405500Y-3722800D02*
X5481700Y-3799000D01*
X5481700Y-3722800D02*
X5405500Y-3799000D01*
X5443600Y-3722800D02*
X5443600Y-3799000D01*
X5405500Y-3760900D02*
X5481700Y-3760900D01*
X5405500Y-4484800D02*
X5481700Y-4561000D01*
X5481700Y-4484800D02*
X5405500Y-4561000D01*
X5443600Y-4484800D02*
X5443600Y-4561000D01*
X5405500Y-4522900D02*
X5481700Y-4522900D01*
X5659500Y-3722800D02*
X5735700Y-3799000D01*
X5735700Y-3722800D02*
X5659500Y-3799000D01*
X5697600Y-3722800D02*
X5697600Y-3799000D01*
X5659500Y-3760900D02*
X5735700Y-3760900D01*
X5659500Y-4484800D02*
X5735700Y-4561000D01*
X5735700Y-4484800D02*
X5659500Y-4561000D01*
X5697600Y-4484800D02*
X5697600Y-4561000D01*
X5659500Y-4522900D02*
X5735700Y-4522900D01*
X5913500Y-3722800D02*
X5989700Y-3799000D01*
X5989700Y-3722800D02*
X5913500Y-3799000D01*
X5951600Y-3722800D02*
X5951600Y-3799000D01*
X5913500Y-3760900D02*
X5989700Y-3760900D01*
X5913500Y-4484800D02*
X5989700Y-4561000D01*
X5989700Y-4484800D02*
X5913500Y-4561000D01*
X5951600Y-4484800D02*
X5951600Y-4561000D01*
X5913500Y-4522900D02*
X5989700Y-4522900D01*
X6167500Y-3722800D02*
X6243700Y-3799000D01*
X6243700Y-3722800D02*
X6167500Y-3799000D01*
X6205600Y-3722800D02*
X6205600Y-3799000D01*
X6167500Y-3760900D02*
X6243700Y-3760900D01*
X6167500Y-4484800D02*
X6243700Y-4561000D01*
X6243700Y-4484800D02*
X6167500Y-4561000D01*
X6205600Y-4484800D02*
X6205600Y-4561000D01*
X6167500Y-4522900D02*
X6243700Y-4522900D01*
D19*
X3909700Y-4025600D02*
X3989700Y-4105600D01*
X3989700Y-4025600D02*
X3909700Y-4105600D01*
X3977984Y-4093884D02*
X3977984Y-4037315D01*
X3921415Y-4037315D01*
X3921415Y-4093884D01*
X3977984Y-4093884D01*
X3909700Y-4225600D02*
X3989700Y-4305600D01*
X3989700Y-4225600D02*
X3909700Y-4305600D01*
X3977984Y-4293885D02*
X3977984Y-4237316D01*
X3921415Y-4237316D01*
X3921415Y-4293885D01*
X3977984Y-4293885D01*
X3909700Y-4749500D02*
X3989700Y-4829500D01*
X3989700Y-4749500D02*
X3909700Y-4829500D01*
X3977984Y-4817785D02*
X3977984Y-4761216D01*
X3921415Y-4761216D01*
X3921415Y-4817785D01*
X3977984Y-4817785D01*
X3909700Y-4949500D02*
X3989700Y-5029500D01*
X3989700Y-4949500D02*
X3909700Y-5029500D01*
X3977984Y-5017785D02*
X3977984Y-4961216D01*
X3921415Y-4961216D01*
X3921415Y-5017785D01*
X3977984Y-5017785D01*
X4203400Y-3731900D02*
X4283400Y-3811900D01*
X4283400Y-3731900D02*
X4203400Y-3811900D01*
X4271685Y-3800184D02*
X4271685Y-3743615D01*
X4215116Y-3743615D01*
X4215116Y-3800184D01*
X4271685Y-3800184D01*
X4403400Y-3731900D02*
X4483400Y-3811900D01*
X4483400Y-3731900D02*
X4403400Y-3811900D01*
X4471685Y-3800184D02*
X4471685Y-3743615D01*
X4415116Y-3743615D01*
X4415116Y-3800184D01*
X4471685Y-3800184D01*
D20*
X5812600Y-6932400D02*
X5877600Y-6997400D01*
X5877600Y-6932400D02*
X5812600Y-6997400D01*
X5845100Y-6997400D02*
X5877600Y-6964900D01*
X5845100Y-6932400D01*
X5812600Y-6964900D01*
X5845100Y-6997400D01*
X6390600Y-6932400D02*
X6455600Y-6997400D01*
X6455600Y-6932400D02*
X6390600Y-6997400D01*
X6423100Y-6997400D02*
X6455600Y-6964900D01*
X6423100Y-6932400D01*
X6390600Y-6964900D01*
X6423100Y-6997400D01*
D21*
X4680000Y-7305000D02*
X4680000Y-7395000D01*
X4635000Y-7350000D02*
X4725000Y-7350000D01*
X4725000Y-7350000D02*
G75*
G03*
X4725000Y-7350000I-45000J0D01*
G01*
X4980000Y-7305000D02*
X4980000Y-7395000D01*
X4935000Y-7350000D02*
X5025000Y-7350000D01*
X5025000Y-7350000D02*
G75*
G03*
X5025000Y-7350000I-45000J0D01*
G01*
D11*
X3852619Y-7915476D02*
X3852619Y-7715476D01*
X3900238Y-7715476D01*
X3928809Y-7725000D01*
X3947857Y-7744048D01*
X3957381Y-7763095D01*
X3966905Y-7801190D01*
X3966905Y-7829762D01*
X3957381Y-7867857D01*
X3947857Y-7886905D01*
X3928809Y-7905952D01*
X3900238Y-7915476D01*
X3852619Y-7915476D01*
X4052619Y-7915476D02*
X4052619Y-7782143D01*
X4052619Y-7820238D02*
X4062143Y-7801190D01*
X4071667Y-7791667D01*
X4090714Y-7782143D01*
X4109762Y-7782143D01*
X4176428Y-7915476D02*
X4176428Y-7782143D01*
X4176428Y-7715476D02*
X4166905Y-7725000D01*
X4176428Y-7734524D01*
X4185952Y-7725000D01*
X4176428Y-7715476D01*
X4176428Y-7734524D01*
X4300238Y-7915476D02*
X4281190Y-7905952D01*
X4271667Y-7886905D01*
X4271667Y-7715476D01*
X4405000Y-7915476D02*
X4385952Y-7905952D01*
X4376429Y-7886905D01*
X4376429Y-7715476D01*
X4633571Y-7915476D02*
X4633571Y-7715476D01*
X4700238Y-7858333D01*
X4766905Y-7715476D01*
X4766905Y-7915476D01*
X4947857Y-7915476D02*
X4947857Y-7810714D01*
X4938333Y-7791667D01*
X4919286Y-7782143D01*
X4881190Y-7782143D01*
X4862143Y-7791667D01*
X4947857Y-7905952D02*
X4928810Y-7915476D01*
X4881190Y-7915476D01*
X4862143Y-7905952D01*
X4852619Y-7886905D01*
X4852619Y-7867857D01*
X4862143Y-7848809D01*
X4881190Y-7839286D01*
X4928810Y-7839286D01*
X4947857Y-7829762D01*
X5043095Y-7782143D02*
X5043095Y-7982143D01*
X5043095Y-7791667D02*
X5062143Y-7782143D01*
X5100238Y-7782143D01*
X5119286Y-7791667D01*
X5128810Y-7801190D01*
X5138333Y-7820238D01*
X5138333Y-7877381D01*
X5128810Y-7896428D01*
X5119286Y-7905952D01*
X5100238Y-7915476D01*
X5062143Y-7915476D01*
X5043095Y-7905952D01*
X5224048Y-7896428D02*
X5233571Y-7905952D01*
X5224048Y-7915476D01*
X5214524Y-7905952D01*
X5224048Y-7896428D01*
X5224048Y-7915476D01*
X5224048Y-7791667D02*
X5233571Y-7801190D01*
X5224048Y-7810714D01*
X5214524Y-7801190D01*
X5224048Y-7791667D01*
X5224048Y-7810714D01*
D12*
X3575000Y-8235000D02*
X3595000Y-8255000D01*
X3595000Y-8235000D02*
X3575000Y-8255000D01*
D11*
X3890714Y-8135476D02*
X3909762Y-8135476D01*
X3928809Y-8145000D01*
X3938333Y-8154524D01*
X3947857Y-8173571D01*
X3957381Y-8211667D01*
X3957381Y-8259286D01*
X3947857Y-8297381D01*
X3938333Y-8316428D01*
X3928809Y-8325952D01*
X3909762Y-8335476D01*
X3890714Y-8335476D01*
X3871667Y-8325952D01*
X3862143Y-8316428D01*
X3852619Y-8297381D01*
X3843095Y-8259286D01*
X3843095Y-8211667D01*
X3852619Y-8173571D01*
X3862143Y-8154524D01*
X3871667Y-8145000D01*
X3890714Y-8135476D01*
X4043095Y-8316428D02*
X4052619Y-8325952D01*
X4043095Y-8335476D01*
X4033571Y-8325952D01*
X4043095Y-8316428D01*
X4043095Y-8335476D01*
X4128809Y-8154524D02*
X4138333Y-8145000D01*
X4157381Y-8135476D01*
X4205000Y-8135476D01*
X4224048Y-8145000D01*
X4233571Y-8154524D01*
X4243095Y-8173571D01*
X4243095Y-8192619D01*
X4233571Y-8221190D01*
X4119286Y-8335476D01*
X4243095Y-8335476D01*
X4366905Y-8135476D02*
X4385952Y-8135476D01*
X4405000Y-8145000D01*
X4414524Y-8154524D01*
X4424048Y-8173571D01*
X4433571Y-8211667D01*
X4433571Y-8259286D01*
X4424048Y-8297381D01*
X4414524Y-8316428D01*
X4405000Y-8325952D01*
X4385952Y-8335476D01*
X4366905Y-8335476D01*
X4347857Y-8325952D01*
X4338333Y-8316428D01*
X4328810Y-8297381D01*
X4319286Y-8259286D01*
X4319286Y-8211667D01*
X4328810Y-8173571D01*
X4338333Y-8154524D01*
X4347857Y-8145000D01*
X4366905Y-8135476D01*
X4557381Y-8135476D02*
X4576429Y-8135476D01*
X4595476Y-8145000D01*
X4605000Y-8154524D01*
X4614524Y-8173571D01*
X4624048Y-8211667D01*
X4624048Y-8259286D01*
X4614524Y-8297381D01*
X4605000Y-8316428D01*
X4595476Y-8325952D01*
X4576429Y-8335476D01*
X4557381Y-8335476D01*
X4538333Y-8325952D01*
X4528810Y-8316428D01*
X4519286Y-8297381D01*
X4509762Y-8259286D01*
X4509762Y-8211667D01*
X4519286Y-8173571D01*
X4528810Y-8154524D01*
X4538333Y-8145000D01*
X4557381Y-8135476D01*
X4709762Y-8335476D02*
X4709762Y-8202143D01*
X4709762Y-8221190D02*
X4719286Y-8211667D01*
X4738333Y-8202143D01*
X4766905Y-8202143D01*
X4785952Y-8211667D01*
X4795476Y-8230714D01*
X4795476Y-8335476D01*
X4795476Y-8230714D02*
X4805000Y-8211667D01*
X4824048Y-8202143D01*
X4852619Y-8202143D01*
X4871667Y-8211667D01*
X4881190Y-8230714D01*
X4881190Y-8335476D01*
X4976429Y-8335476D02*
X4976429Y-8202143D01*
X4976429Y-8221190D02*
X4985952Y-8211667D01*
X5005000Y-8202143D01*
X5033571Y-8202143D01*
X5052619Y-8211667D01*
X5062143Y-8230714D01*
X5062143Y-8335476D01*
X5062143Y-8230714D02*
X5071667Y-8211667D01*
X5090714Y-8202143D01*
X5119286Y-8202143D01*
X5138333Y-8211667D01*
X5147857Y-8230714D01*
X5147857Y-8335476D01*
X5538333Y-8125952D02*
X5366905Y-8383095D01*
X5795476Y-8135476D02*
X5814524Y-8135476D01*
X5833571Y-8145000D01*
X5843095Y-8154524D01*
X5852619Y-8173571D01*
X5862143Y-8211667D01*
X5862143Y-8259286D01*
X5852619Y-8297381D01*
X5843095Y-8316428D01*
X5833571Y-8325952D01*
X5814524Y-8335476D01*
X5795476Y-8335476D01*
X5776428Y-8325952D01*
X5766905Y-8316428D01*
X5757381Y-8297381D01*
X5747857Y-8259286D01*
X5747857Y-8211667D01*
X5757381Y-8173571D01*
X5766905Y-8154524D01*
X5776428Y-8145000D01*
X5795476Y-8135476D01*
X5947857Y-8316428D02*
X5957381Y-8325952D01*
X5947857Y-8335476D01*
X5938333Y-8325952D01*
X5947857Y-8316428D01*
X5947857Y-8335476D01*
X6081190Y-8135476D02*
X6100238Y-8135476D01*
X6119286Y-8145000D01*
X6128809Y-8154524D01*
X6138333Y-8173571D01*
X6147857Y-8211667D01*
X6147857Y-8259286D01*
X6138333Y-8297381D01*
X6128809Y-8316428D01*
X6119286Y-8325952D01*
X6100238Y-8335476D01*
X6081190Y-8335476D01*
X6062143Y-8325952D01*
X6052619Y-8316428D01*
X6043095Y-8297381D01*
X6033571Y-8259286D01*
X6033571Y-8211667D01*
X6043095Y-8173571D01*
X6052619Y-8154524D01*
X6062143Y-8145000D01*
X6081190Y-8135476D01*
X6271667Y-8135476D02*
X6290714Y-8135476D01*
X6309762Y-8145000D01*
X6319286Y-8154524D01*
X6328809Y-8173571D01*
X6338333Y-8211667D01*
X6338333Y-8259286D01*
X6328809Y-8297381D01*
X6319286Y-8316428D01*
X6309762Y-8325952D01*
X6290714Y-8335476D01*
X6271667Y-8335476D01*
X6252619Y-8325952D01*
X6243095Y-8316428D01*
X6233571Y-8297381D01*
X6224048Y-8259286D01*
X6224048Y-8211667D01*
X6233571Y-8173571D01*
X6243095Y-8154524D01*
X6252619Y-8145000D01*
X6271667Y-8135476D01*
X6405000Y-8135476D02*
X6538333Y-8135476D01*
X6452619Y-8335476D01*
X6624048Y-8335476D02*
X6662143Y-8335476D01*
X6681190Y-8325952D01*
X6690714Y-8316428D01*
X6709762Y-8287857D01*
X6719286Y-8249762D01*
X6719286Y-8173571D01*
X6709762Y-8154524D01*
X6700238Y-8145000D01*
X6681190Y-8135476D01*
X6643095Y-8135476D01*
X6624048Y-8145000D01*
X6614524Y-8154524D01*
X6605000Y-8173571D01*
X6605000Y-8221190D01*
X6614524Y-8240238D01*
X6624048Y-8249762D01*
X6643095Y-8259286D01*
X6681190Y-8259286D01*
X6700238Y-8249762D01*
X6709762Y-8240238D01*
X6719286Y-8221190D01*
X6795476Y-8135476D02*
X6795476Y-8173571D01*
X6871667Y-8135476D02*
X6871667Y-8173571D01*
X7166905Y-8411667D02*
X7157381Y-8402143D01*
X7138333Y-8373571D01*
X7128809Y-8354524D01*
X7119286Y-8325952D01*
X7109762Y-8278333D01*
X7109762Y-8240238D01*
X7119286Y-8192619D01*
X7128809Y-8164048D01*
X7138333Y-8145000D01*
X7157381Y-8116428D01*
X7166905Y-8106905D01*
X7233571Y-8154524D02*
X7243095Y-8145000D01*
X7262143Y-8135476D01*
X7309762Y-8135476D01*
X7328809Y-8145000D01*
X7338333Y-8154524D01*
X7347857Y-8173571D01*
X7347857Y-8192619D01*
X7338333Y-8221190D01*
X7224048Y-8335476D01*
X7347857Y-8335476D01*
X7585952Y-8335476D02*
X7585952Y-8135476D01*
X7671667Y-8335476D02*
X7671667Y-8230714D01*
X7662143Y-8211667D01*
X7643095Y-8202143D01*
X7614524Y-8202143D01*
X7595476Y-8211667D01*
X7585952Y-8221190D01*
X7795476Y-8335476D02*
X7776428Y-8325952D01*
X7766905Y-8316428D01*
X7757381Y-8297381D01*
X7757381Y-8240238D01*
X7766905Y-8221190D01*
X7776428Y-8211667D01*
X7795476Y-8202143D01*
X7824048Y-8202143D01*
X7843095Y-8211667D01*
X7852619Y-8221190D01*
X7862143Y-8240238D01*
X7862143Y-8297381D01*
X7852619Y-8316428D01*
X7843095Y-8325952D01*
X7824048Y-8335476D01*
X7795476Y-8335476D01*
X7976428Y-8335476D02*
X7957381Y-8325952D01*
X7947857Y-8306905D01*
X7947857Y-8135476D01*
X8128809Y-8325952D02*
X8109762Y-8335476D01*
X8071667Y-8335476D01*
X8052619Y-8325952D01*
X8043095Y-8306905D01*
X8043095Y-8230714D01*
X8052619Y-8211667D01*
X8071667Y-8202143D01*
X8109762Y-8202143D01*
X8128809Y-8211667D01*
X8138333Y-8230714D01*
X8138333Y-8249762D01*
X8043095Y-8268809D01*
X8214524Y-8325952D02*
X8233571Y-8335476D01*
X8271667Y-8335476D01*
X8290714Y-8325952D01*
X8300238Y-8306905D01*
X8300238Y-8297381D01*
X8290714Y-8278333D01*
X8271667Y-8268809D01*
X8243095Y-8268809D01*
X8224048Y-8259286D01*
X8214524Y-8240238D01*
X8214524Y-8230714D01*
X8224048Y-8211667D01*
X8243095Y-8202143D01*
X8271667Y-8202143D01*
X8290714Y-8211667D01*
X8366905Y-8411667D02*
X8376428Y-8402143D01*
X8395476Y-8373571D01*
X8405000Y-8354524D01*
X8414524Y-8325952D01*
X8424048Y-8278333D01*
X8424048Y-8240238D01*
X8414524Y-8192619D01*
X8405000Y-8164048D01*
X8395476Y-8145000D01*
X8376428Y-8116428D01*
X8366905Y-8106905D01*
D13*
X3595000Y-8509000D02*
G75*
G03*
X3595000Y-8509000I-17500J0D01*
G01*
D11*
X3890714Y-8399476D02*
X3909762Y-8399476D01*
X3928809Y-8409000D01*
X3938333Y-8418524D01*
X3947857Y-8437571D01*
X3957381Y-8475667D01*
X3957381Y-8523286D01*
X3947857Y-8561381D01*
X3938333Y-8580429D01*
X3928809Y-8589952D01*
X3909762Y-8599476D01*
X3890714Y-8599476D01*
X3871667Y-8589952D01*
X3862143Y-8580429D01*
X3852619Y-8561381D01*
X3843095Y-8523286D01*
X3843095Y-8475667D01*
X3852619Y-8437571D01*
X3862143Y-8418524D01*
X3871667Y-8409000D01*
X3890714Y-8399476D01*
X4043095Y-8580429D02*
X4052619Y-8589952D01*
X4043095Y-8599476D01*
X4033571Y-8589952D01*
X4043095Y-8580429D01*
X4043095Y-8599476D01*
X4119286Y-8399476D02*
X4243095Y-8399476D01*
X4176428Y-8475667D01*
X4205000Y-8475667D01*
X4224048Y-8485190D01*
X4233571Y-8494714D01*
X4243095Y-8513762D01*
X4243095Y-8561381D01*
X4233571Y-8580429D01*
X4224048Y-8589952D01*
X4205000Y-8599476D01*
X4147857Y-8599476D01*
X4128809Y-8589952D01*
X4119286Y-8580429D01*
X4424048Y-8399476D02*
X4328810Y-8399476D01*
X4319286Y-8494714D01*
X4328810Y-8485190D01*
X4347857Y-8475667D01*
X4395476Y-8475667D01*
X4414524Y-8485190D01*
X4424048Y-8494714D01*
X4433571Y-8513762D01*
X4433571Y-8561381D01*
X4424048Y-8580429D01*
X4414524Y-8589952D01*
X4395476Y-8599476D01*
X4347857Y-8599476D01*
X4328810Y-8589952D01*
X4319286Y-8580429D01*
X4557381Y-8399476D02*
X4576429Y-8399476D01*
X4595476Y-8409000D01*
X4605000Y-8418524D01*
X4614524Y-8437571D01*
X4624048Y-8475667D01*
X4624048Y-8523286D01*
X4614524Y-8561381D01*
X4605000Y-8580429D01*
X4595476Y-8589952D01*
X4576429Y-8599476D01*
X4557381Y-8599476D01*
X4538333Y-8589952D01*
X4528810Y-8580429D01*
X4519286Y-8561381D01*
X4509762Y-8523286D01*
X4509762Y-8475667D01*
X4519286Y-8437571D01*
X4528810Y-8418524D01*
X4538333Y-8409000D01*
X4557381Y-8399476D01*
X4709762Y-8599476D02*
X4709762Y-8466143D01*
X4709762Y-8485190D02*
X4719286Y-8475667D01*
X4738333Y-8466143D01*
X4766905Y-8466143D01*
X4785952Y-8475667D01*
X4795476Y-8494714D01*
X4795476Y-8599476D01*
X4795476Y-8494714D02*
X4805000Y-8475667D01*
X4824048Y-8466143D01*
X4852619Y-8466143D01*
X4871667Y-8475667D01*
X4881190Y-8494714D01*
X4881190Y-8599476D01*
X4976429Y-8599476D02*
X4976429Y-8466143D01*
X4976429Y-8485190D02*
X4985952Y-8475667D01*
X5005000Y-8466143D01*
X5033571Y-8466143D01*
X5052619Y-8475667D01*
X5062143Y-8494714D01*
X5062143Y-8599476D01*
X5062143Y-8494714D02*
X5071667Y-8475667D01*
X5090714Y-8466143D01*
X5119286Y-8466143D01*
X5138333Y-8475667D01*
X5147857Y-8494714D01*
X5147857Y-8599476D01*
X5538333Y-8389952D02*
X5366905Y-8647095D01*
X5795476Y-8399476D02*
X5814524Y-8399476D01*
X5833571Y-8409000D01*
X5843095Y-8418524D01*
X5852619Y-8437571D01*
X5862143Y-8475667D01*
X5862143Y-8523286D01*
X5852619Y-8561381D01*
X5843095Y-8580429D01*
X5833571Y-8589952D01*
X5814524Y-8599476D01*
X5795476Y-8599476D01*
X5776428Y-8589952D01*
X5766905Y-8580429D01*
X5757381Y-8561381D01*
X5747857Y-8523286D01*
X5747857Y-8475667D01*
X5757381Y-8437571D01*
X5766905Y-8418524D01*
X5776428Y-8409000D01*
X5795476Y-8399476D01*
X5947857Y-8580429D02*
X5957381Y-8589952D01*
X5947857Y-8599476D01*
X5938333Y-8589952D01*
X5947857Y-8580429D01*
X5947857Y-8599476D01*
X6081190Y-8399476D02*
X6100238Y-8399476D01*
X6119286Y-8409000D01*
X6128809Y-8418524D01*
X6138333Y-8437571D01*
X6147857Y-8475667D01*
X6147857Y-8523286D01*
X6138333Y-8561381D01*
X6128809Y-8580429D01*
X6119286Y-8589952D01*
X6100238Y-8599476D01*
X6081190Y-8599476D01*
X6062143Y-8589952D01*
X6052619Y-8580429D01*
X6043095Y-8561381D01*
X6033571Y-8523286D01*
X6033571Y-8475667D01*
X6043095Y-8437571D01*
X6052619Y-8418524D01*
X6062143Y-8409000D01*
X6081190Y-8399476D01*
X6338333Y-8599476D02*
X6224048Y-8599476D01*
X6281190Y-8599476D02*
X6281190Y-8399476D01*
X6262143Y-8428048D01*
X6243095Y-8447095D01*
X6224048Y-8456619D01*
X6405000Y-8399476D02*
X6528809Y-8399476D01*
X6462143Y-8475667D01*
X6490714Y-8475667D01*
X6509762Y-8485190D01*
X6519286Y-8494714D01*
X6528809Y-8513762D01*
X6528809Y-8561381D01*
X6519286Y-8580429D01*
X6509762Y-8589952D01*
X6490714Y-8599476D01*
X6433571Y-8599476D01*
X6414524Y-8589952D01*
X6405000Y-8580429D01*
X6643095Y-8485190D02*
X6624048Y-8475667D01*
X6614524Y-8466143D01*
X6605000Y-8447095D01*
X6605000Y-8437571D01*
X6614524Y-8418524D01*
X6624048Y-8409000D01*
X6643095Y-8399476D01*
X6681190Y-8399476D01*
X6700238Y-8409000D01*
X6709762Y-8418524D01*
X6719286Y-8437571D01*
X6719286Y-8447095D01*
X6709762Y-8466143D01*
X6700238Y-8475667D01*
X6681190Y-8485190D01*
X6643095Y-8485190D01*
X6624048Y-8494714D01*
X6614524Y-8504238D01*
X6605000Y-8523286D01*
X6605000Y-8561381D01*
X6614524Y-8580429D01*
X6624048Y-8589952D01*
X6643095Y-8599476D01*
X6681190Y-8599476D01*
X6700238Y-8589952D01*
X6709762Y-8580429D01*
X6719286Y-8561381D01*
X6719286Y-8523286D01*
X6709762Y-8504238D01*
X6700238Y-8494714D01*
X6681190Y-8485190D01*
X6795476Y-8399476D02*
X6795476Y-8437571D01*
X6871667Y-8399476D02*
X6871667Y-8437571D01*
X7166905Y-8675667D02*
X7157381Y-8666143D01*
X7138333Y-8637571D01*
X7128809Y-8618524D01*
X7119286Y-8589952D01*
X7109762Y-8542333D01*
X7109762Y-8504238D01*
X7119286Y-8456619D01*
X7128809Y-8428048D01*
X7138333Y-8409000D01*
X7157381Y-8380428D01*
X7166905Y-8370905D01*
X7233571Y-8418524D02*
X7243095Y-8409000D01*
X7262143Y-8399476D01*
X7309762Y-8399476D01*
X7328809Y-8409000D01*
X7338333Y-8418524D01*
X7347857Y-8437571D01*
X7347857Y-8456619D01*
X7338333Y-8485190D01*
X7224048Y-8599476D01*
X7347857Y-8599476D01*
X7471667Y-8399476D02*
X7490714Y-8399476D01*
X7509762Y-8409000D01*
X7519286Y-8418524D01*
X7528809Y-8437571D01*
X7538333Y-8475667D01*
X7538333Y-8523286D01*
X7528809Y-8561381D01*
X7519286Y-8580429D01*
X7509762Y-8589952D01*
X7490714Y-8599476D01*
X7471667Y-8599476D01*
X7452619Y-8589952D01*
X7443095Y-8580429D01*
X7433571Y-8561381D01*
X7424048Y-8523286D01*
X7424048Y-8475667D01*
X7433571Y-8437571D01*
X7443095Y-8418524D01*
X7452619Y-8409000D01*
X7471667Y-8399476D01*
X7709762Y-8466143D02*
X7709762Y-8599476D01*
X7662143Y-8389952D02*
X7614524Y-8532810D01*
X7738333Y-8532810D01*
X7966905Y-8599476D02*
X7966905Y-8399476D01*
X8052619Y-8599476D02*
X8052619Y-8494714D01*
X8043095Y-8475667D01*
X8024048Y-8466143D01*
X7995476Y-8466143D01*
X7976428Y-8475667D01*
X7966905Y-8485190D01*
X8176428Y-8599476D02*
X8157381Y-8589952D01*
X8147857Y-8580429D01*
X8138333Y-8561381D01*
X8138333Y-8504238D01*
X8147857Y-8485190D01*
X8157381Y-8475667D01*
X8176428Y-8466143D01*
X8205000Y-8466143D01*
X8224048Y-8475667D01*
X8233571Y-8485190D01*
X8243095Y-8504238D01*
X8243095Y-8561381D01*
X8233571Y-8580429D01*
X8224048Y-8589952D01*
X8205000Y-8599476D01*
X8176428Y-8599476D01*
X8357381Y-8599476D02*
X8338333Y-8589952D01*
X8328809Y-8570905D01*
X8328809Y-8399476D01*
X8509762Y-8589952D02*
X8490714Y-8599476D01*
X8452619Y-8599476D01*
X8433571Y-8589952D01*
X8424048Y-8570905D01*
X8424048Y-8494714D01*
X8433571Y-8475667D01*
X8452619Y-8466143D01*
X8490714Y-8466143D01*
X8509762Y-8475667D01*
X8519286Y-8494714D01*
X8519286Y-8513762D01*
X8424048Y-8532810D01*
X8595476Y-8589952D02*
X8614524Y-8599476D01*
X8652619Y-8599476D01*
X8671667Y-8589952D01*
X8681190Y-8570905D01*
X8681190Y-8561381D01*
X8671667Y-8542333D01*
X8652619Y-8532810D01*
X8624048Y-8532810D01*
X8605000Y-8523286D01*
X8595476Y-8504238D01*
X8595476Y-8494714D01*
X8605000Y-8475667D01*
X8624048Y-8466143D01*
X8652619Y-8466143D01*
X8671667Y-8475667D01*
X8747857Y-8675667D02*
X8757381Y-8666143D01*
X8776429Y-8637571D01*
X8785952Y-8618524D01*
X8795476Y-8589952D01*
X8805000Y-8542333D01*
X8805000Y-8504238D01*
X8795476Y-8456619D01*
X8785952Y-8428048D01*
X8776429Y-8409000D01*
X8757381Y-8380428D01*
X8747857Y-8370905D01*
D14*
X3575000Y-8753000D02*
X3575000Y-8793000D01*
X3555000Y-8773000D02*
X3595000Y-8773000D01*
D11*
X3890714Y-8663476D02*
X3909762Y-8663476D01*
X3928809Y-8673000D01*
X3938333Y-8682524D01*
X3947857Y-8701571D01*
X3957381Y-8739667D01*
X3957381Y-8787286D01*
X3947857Y-8825381D01*
X3938333Y-8844429D01*
X3928809Y-8853952D01*
X3909762Y-8863476D01*
X3890714Y-8863476D01*
X3871667Y-8853952D01*
X3862143Y-8844429D01*
X3852619Y-8825381D01*
X3843095Y-8787286D01*
X3843095Y-8739667D01*
X3852619Y-8701571D01*
X3862143Y-8682524D01*
X3871667Y-8673000D01*
X3890714Y-8663476D01*
X4043095Y-8844429D02*
X4052619Y-8853952D01*
X4043095Y-8863476D01*
X4033571Y-8853952D01*
X4043095Y-8844429D01*
X4043095Y-8863476D01*
X4224048Y-8730143D02*
X4224048Y-8863476D01*
X4176428Y-8653952D02*
X4128809Y-8796810D01*
X4252619Y-8796810D01*
X4366905Y-8663476D02*
X4385952Y-8663476D01*
X4405000Y-8673000D01*
X4414524Y-8682524D01*
X4424048Y-8701571D01*
X4433571Y-8739667D01*
X4433571Y-8787286D01*
X4424048Y-8825381D01*
X4414524Y-8844429D01*
X4405000Y-8853952D01*
X4385952Y-8863476D01*
X4366905Y-8863476D01*
X4347857Y-8853952D01*
X4338333Y-8844429D01*
X4328810Y-8825381D01*
X4319286Y-8787286D01*
X4319286Y-8739667D01*
X4328810Y-8701571D01*
X4338333Y-8682524D01*
X4347857Y-8673000D01*
X4366905Y-8663476D01*
X4557381Y-8663476D02*
X4576429Y-8663476D01*
X4595476Y-8673000D01*
X4605000Y-8682524D01*
X4614524Y-8701571D01*
X4624048Y-8739667D01*
X4624048Y-8787286D01*
X4614524Y-8825381D01*
X4605000Y-8844429D01*
X4595476Y-8853952D01*
X4576429Y-8863476D01*
X4557381Y-8863476D01*
X4538333Y-8853952D01*
X4528810Y-8844429D01*
X4519286Y-8825381D01*
X4509762Y-8787286D01*
X4509762Y-8739667D01*
X4519286Y-8701571D01*
X4528810Y-8682524D01*
X4538333Y-8673000D01*
X4557381Y-8663476D01*
X4709762Y-8863476D02*
X4709762Y-8730143D01*
X4709762Y-8749190D02*
X4719286Y-8739667D01*
X4738333Y-8730143D01*
X4766905Y-8730143D01*
X4785952Y-8739667D01*
X4795476Y-8758714D01*
X4795476Y-8863476D01*
X4795476Y-8758714D02*
X4805000Y-8739667D01*
X4824048Y-8730143D01*
X4852619Y-8730143D01*
X4871667Y-8739667D01*
X4881190Y-8758714D01*
X4881190Y-8863476D01*
X4976429Y-8863476D02*
X4976429Y-8730143D01*
X4976429Y-8749190D02*
X4985952Y-8739667D01*
X5005000Y-8730143D01*
X5033571Y-8730143D01*
X5052619Y-8739667D01*
X5062143Y-8758714D01*
X5062143Y-8863476D01*
X5062143Y-8758714D02*
X5071667Y-8739667D01*
X5090714Y-8730143D01*
X5119286Y-8730143D01*
X5138333Y-8739667D01*
X5147857Y-8758714D01*
X5147857Y-8863476D01*
X5538333Y-8653952D02*
X5366905Y-8911095D01*
X5795476Y-8663476D02*
X5814524Y-8663476D01*
X5833571Y-8673000D01*
X5843095Y-8682524D01*
X5852619Y-8701571D01*
X5862143Y-8739667D01*
X5862143Y-8787286D01*
X5852619Y-8825381D01*
X5843095Y-8844429D01*
X5833571Y-8853952D01*
X5814524Y-8863476D01*
X5795476Y-8863476D01*
X5776428Y-8853952D01*
X5766905Y-8844429D01*
X5757381Y-8825381D01*
X5747857Y-8787286D01*
X5747857Y-8739667D01*
X5757381Y-8701571D01*
X5766905Y-8682524D01*
X5776428Y-8673000D01*
X5795476Y-8663476D01*
X5947857Y-8844429D02*
X5957381Y-8853952D01*
X5947857Y-8863476D01*
X5938333Y-8853952D01*
X5947857Y-8844429D01*
X5947857Y-8863476D01*
X6081190Y-8663476D02*
X6100238Y-8663476D01*
X6119286Y-8673000D01*
X6128809Y-8682524D01*
X6138333Y-8701571D01*
X6147857Y-8739667D01*
X6147857Y-8787286D01*
X6138333Y-8825381D01*
X6128809Y-8844429D01*
X6119286Y-8853952D01*
X6100238Y-8863476D01*
X6081190Y-8863476D01*
X6062143Y-8853952D01*
X6052619Y-8844429D01*
X6043095Y-8825381D01*
X6033571Y-8787286D01*
X6033571Y-8739667D01*
X6043095Y-8701571D01*
X6052619Y-8682524D01*
X6062143Y-8673000D01*
X6081190Y-8663476D01*
X6338333Y-8863476D02*
X6224048Y-8863476D01*
X6281190Y-8863476D02*
X6281190Y-8663476D01*
X6262143Y-8692048D01*
X6243095Y-8711095D01*
X6224048Y-8720619D01*
X6519286Y-8663476D02*
X6424048Y-8663476D01*
X6414524Y-8758714D01*
X6424048Y-8749190D01*
X6443095Y-8739667D01*
X6490714Y-8739667D01*
X6509762Y-8749190D01*
X6519286Y-8758714D01*
X6528809Y-8777762D01*
X6528809Y-8825381D01*
X6519286Y-8844429D01*
X6509762Y-8853952D01*
X6490714Y-8863476D01*
X6443095Y-8863476D01*
X6424048Y-8853952D01*
X6414524Y-8844429D01*
X6595476Y-8663476D02*
X6728809Y-8663476D01*
X6643095Y-8863476D01*
X6795476Y-8663476D02*
X6795476Y-8701571D01*
X6871667Y-8663476D02*
X6871667Y-8701571D01*
X7166905Y-8939667D02*
X7157381Y-8930143D01*
X7138333Y-8901571D01*
X7128809Y-8882524D01*
X7119286Y-8853952D01*
X7109762Y-8806333D01*
X7109762Y-8768238D01*
X7119286Y-8720619D01*
X7128809Y-8692048D01*
X7138333Y-8673000D01*
X7157381Y-8644429D01*
X7166905Y-8634905D01*
X7338333Y-8663476D02*
X7243095Y-8663476D01*
X7233571Y-8758714D01*
X7243095Y-8749190D01*
X7262143Y-8739667D01*
X7309762Y-8739667D01*
X7328809Y-8749190D01*
X7338333Y-8758714D01*
X7347857Y-8777762D01*
X7347857Y-8825381D01*
X7338333Y-8844429D01*
X7328809Y-8853952D01*
X7309762Y-8863476D01*
X7262143Y-8863476D01*
X7243095Y-8853952D01*
X7233571Y-8844429D01*
X7471667Y-8663476D02*
X7490714Y-8663476D01*
X7509762Y-8673000D01*
X7519286Y-8682524D01*
X7528809Y-8701571D01*
X7538333Y-8739667D01*
X7538333Y-8787286D01*
X7528809Y-8825381D01*
X7519286Y-8844429D01*
X7509762Y-8853952D01*
X7490714Y-8863476D01*
X7471667Y-8863476D01*
X7452619Y-8853952D01*
X7443095Y-8844429D01*
X7433571Y-8825381D01*
X7424048Y-8787286D01*
X7424048Y-8739667D01*
X7433571Y-8701571D01*
X7443095Y-8682524D01*
X7452619Y-8673000D01*
X7471667Y-8663476D01*
X7776428Y-8863476D02*
X7776428Y-8663476D01*
X7862143Y-8863476D02*
X7862143Y-8758714D01*
X7852619Y-8739667D01*
X7833571Y-8730143D01*
X7805000Y-8730143D01*
X7785952Y-8739667D01*
X7776428Y-8749190D01*
X7985952Y-8863476D02*
X7966905Y-8853952D01*
X7957381Y-8844429D01*
X7947857Y-8825381D01*
X7947857Y-8768238D01*
X7957381Y-8749190D01*
X7966905Y-8739667D01*
X7985952Y-8730143D01*
X8014524Y-8730143D01*
X8033571Y-8739667D01*
X8043095Y-8749190D01*
X8052619Y-8768238D01*
X8052619Y-8825381D01*
X8043095Y-8844429D01*
X8033571Y-8853952D01*
X8014524Y-8863476D01*
X7985952Y-8863476D01*
X8166905Y-8863476D02*
X8147857Y-8853952D01*
X8138333Y-8834905D01*
X8138333Y-8663476D01*
X8319286Y-8853952D02*
X8300238Y-8863476D01*
X8262143Y-8863476D01*
X8243095Y-8853952D01*
X8233571Y-8834905D01*
X8233571Y-8758714D01*
X8243095Y-8739667D01*
X8262143Y-8730143D01*
X8300238Y-8730143D01*
X8319286Y-8739667D01*
X8328809Y-8758714D01*
X8328809Y-8777762D01*
X8233571Y-8796810D01*
X8405000Y-8853952D02*
X8424048Y-8863476D01*
X8462143Y-8863476D01*
X8481190Y-8853952D01*
X8490714Y-8834905D01*
X8490714Y-8825381D01*
X8481190Y-8806333D01*
X8462143Y-8796810D01*
X8433571Y-8796810D01*
X8414524Y-8787286D01*
X8405000Y-8768238D01*
X8405000Y-8758714D01*
X8414524Y-8739667D01*
X8433571Y-8730143D01*
X8462143Y-8730143D01*
X8481190Y-8739667D01*
X8557381Y-8939667D02*
X8566905Y-8930143D01*
X8585952Y-8901571D01*
X8595476Y-8882524D01*
X8605000Y-8853952D01*
X8614524Y-8806333D01*
X8614524Y-8768238D01*
X8605000Y-8720619D01*
X8595476Y-8692048D01*
X8585952Y-8673000D01*
X8566905Y-8644429D01*
X8557381Y-8634905D01*
D15*
X3586213Y-9058213D02*
X3586213Y-9015787D01*
X3543787Y-9015787D01*
X3543787Y-9058213D01*
X3586213Y-9058213D01*
D11*
X3890714Y-8927476D02*
X3909762Y-8927476D01*
X3928809Y-8937000D01*
X3938333Y-8946524D01*
X3947857Y-8965571D01*
X3957381Y-9003667D01*
X3957381Y-9051286D01*
X3947857Y-9089381D01*
X3938333Y-9108429D01*
X3928809Y-9117952D01*
X3909762Y-9127476D01*
X3890714Y-9127476D01*
X3871667Y-9117952D01*
X3862143Y-9108429D01*
X3852619Y-9089381D01*
X3843095Y-9051286D01*
X3843095Y-9003667D01*
X3852619Y-8965571D01*
X3862143Y-8946524D01*
X3871667Y-8937000D01*
X3890714Y-8927476D01*
X4043095Y-9108429D02*
X4052619Y-9117952D01*
X4043095Y-9127476D01*
X4033571Y-9117952D01*
X4043095Y-9108429D01*
X4043095Y-9127476D01*
X4224048Y-8927476D02*
X4185952Y-8927476D01*
X4166905Y-8937000D01*
X4157381Y-8946524D01*
X4138333Y-8975095D01*
X4128809Y-9013190D01*
X4128809Y-9089381D01*
X4138333Y-9108429D01*
X4147857Y-9117952D01*
X4166905Y-9127476D01*
X4205000Y-9127476D01*
X4224048Y-9117952D01*
X4233571Y-9108429D01*
X4243095Y-9089381D01*
X4243095Y-9041762D01*
X4233571Y-9022714D01*
X4224048Y-9013190D01*
X4205000Y-9003667D01*
X4166905Y-9003667D01*
X4147857Y-9013190D01*
X4138333Y-9022714D01*
X4128809Y-9041762D01*
X4366905Y-8927476D02*
X4385952Y-8927476D01*
X4405000Y-8937000D01*
X4414524Y-8946524D01*
X4424048Y-8965571D01*
X4433571Y-9003667D01*
X4433571Y-9051286D01*
X4424048Y-9089381D01*
X4414524Y-9108429D01*
X4405000Y-9117952D01*
X4385952Y-9127476D01*
X4366905Y-9127476D01*
X4347857Y-9117952D01*
X4338333Y-9108429D01*
X4328810Y-9089381D01*
X4319286Y-9051286D01*
X4319286Y-9003667D01*
X4328810Y-8965571D01*
X4338333Y-8946524D01*
X4347857Y-8937000D01*
X4366905Y-8927476D01*
X4557381Y-8927476D02*
X4576429Y-8927476D01*
X4595476Y-8937000D01*
X4605000Y-8946524D01*
X4614524Y-8965571D01*
X4624048Y-9003667D01*
X4624048Y-9051286D01*
X4614524Y-9089381D01*
X4605000Y-9108429D01*
X4595476Y-9117952D01*
X4576429Y-9127476D01*
X4557381Y-9127476D01*
X4538333Y-9117952D01*
X4528810Y-9108429D01*
X4519286Y-9089381D01*
X4509762Y-9051286D01*
X4509762Y-9003667D01*
X4519286Y-8965571D01*
X4528810Y-8946524D01*
X4538333Y-8937000D01*
X4557381Y-8927476D01*
X4709762Y-9127476D02*
X4709762Y-8994143D01*
X4709762Y-9013190D02*
X4719286Y-9003667D01*
X4738333Y-8994143D01*
X4766905Y-8994143D01*
X4785952Y-9003667D01*
X4795476Y-9022714D01*
X4795476Y-9127476D01*
X4795476Y-9022714D02*
X4805000Y-9003667D01*
X4824048Y-8994143D01*
X4852619Y-8994143D01*
X4871667Y-9003667D01*
X4881190Y-9022714D01*
X4881190Y-9127476D01*
X4976429Y-9127476D02*
X4976429Y-8994143D01*
X4976429Y-9013190D02*
X4985952Y-9003667D01*
X5005000Y-8994143D01*
X5033571Y-8994143D01*
X5052619Y-9003667D01*
X5062143Y-9022714D01*
X5062143Y-9127476D01*
X5062143Y-9022714D02*
X5071667Y-9003667D01*
X5090714Y-8994143D01*
X5119286Y-8994143D01*
X5138333Y-9003667D01*
X5147857Y-9022714D01*
X5147857Y-9127476D01*
X5538333Y-8917952D02*
X5366905Y-9175095D01*
X5795476Y-8927476D02*
X5814524Y-8927476D01*
X5833571Y-8937000D01*
X5843095Y-8946524D01*
X5852619Y-8965571D01*
X5862143Y-9003667D01*
X5862143Y-9051286D01*
X5852619Y-9089381D01*
X5843095Y-9108429D01*
X5833571Y-9117952D01*
X5814524Y-9127476D01*
X5795476Y-9127476D01*
X5776428Y-9117952D01*
X5766905Y-9108429D01*
X5757381Y-9089381D01*
X5747857Y-9051286D01*
X5747857Y-9003667D01*
X5757381Y-8965571D01*
X5766905Y-8946524D01*
X5776428Y-8937000D01*
X5795476Y-8927476D01*
X5947857Y-9108429D02*
X5957381Y-9117952D01*
X5947857Y-9127476D01*
X5938333Y-9117952D01*
X5947857Y-9108429D01*
X5947857Y-9127476D01*
X6081190Y-8927476D02*
X6100238Y-8927476D01*
X6119286Y-8937000D01*
X6128809Y-8946524D01*
X6138333Y-8965571D01*
X6147857Y-9003667D01*
X6147857Y-9051286D01*
X6138333Y-9089381D01*
X6128809Y-9108429D01*
X6119286Y-9117952D01*
X6100238Y-9127476D01*
X6081190Y-9127476D01*
X6062143Y-9117952D01*
X6052619Y-9108429D01*
X6043095Y-9089381D01*
X6033571Y-9051286D01*
X6033571Y-9003667D01*
X6043095Y-8965571D01*
X6052619Y-8946524D01*
X6062143Y-8937000D01*
X6081190Y-8927476D01*
X6224048Y-8946524D02*
X6233571Y-8937000D01*
X6252619Y-8927476D01*
X6300238Y-8927476D01*
X6319286Y-8937000D01*
X6328809Y-8946524D01*
X6338333Y-8965571D01*
X6338333Y-8984619D01*
X6328809Y-9013190D01*
X6214524Y-9127476D01*
X6338333Y-9127476D01*
X6405000Y-8927476D02*
X6528809Y-8927476D01*
X6462143Y-9003667D01*
X6490714Y-9003667D01*
X6509762Y-9013190D01*
X6519286Y-9022714D01*
X6528809Y-9041762D01*
X6528809Y-9089381D01*
X6519286Y-9108429D01*
X6509762Y-9117952D01*
X6490714Y-9127476D01*
X6433571Y-9127476D01*
X6414524Y-9117952D01*
X6405000Y-9108429D01*
X6700238Y-8927476D02*
X6662143Y-8927476D01*
X6643095Y-8937000D01*
X6633571Y-8946524D01*
X6614524Y-8975095D01*
X6605000Y-9013190D01*
X6605000Y-9089381D01*
X6614524Y-9108429D01*
X6624048Y-9117952D01*
X6643095Y-9127476D01*
X6681190Y-9127476D01*
X6700238Y-9117952D01*
X6709762Y-9108429D01*
X6719286Y-9089381D01*
X6719286Y-9041762D01*
X6709762Y-9022714D01*
X6700238Y-9013190D01*
X6681190Y-9003667D01*
X6643095Y-9003667D01*
X6624048Y-9013190D01*
X6614524Y-9022714D01*
X6605000Y-9041762D01*
X6795476Y-8927476D02*
X6795476Y-8965571D01*
X6871667Y-8927476D02*
X6871667Y-8965571D01*
X7166905Y-9203667D02*
X7157381Y-9194143D01*
X7138333Y-9165571D01*
X7128809Y-9146524D01*
X7119286Y-9117952D01*
X7109762Y-9070333D01*
X7109762Y-9032238D01*
X7119286Y-8984619D01*
X7128809Y-8956048D01*
X7138333Y-8937000D01*
X7157381Y-8908429D01*
X7166905Y-8898905D01*
X7281190Y-8927476D02*
X7300238Y-8927476D01*
X7319286Y-8937000D01*
X7328809Y-8946524D01*
X7338333Y-8965571D01*
X7347857Y-9003667D01*
X7347857Y-9051286D01*
X7338333Y-9089381D01*
X7328809Y-9108429D01*
X7319286Y-9117952D01*
X7300238Y-9127476D01*
X7281190Y-9127476D01*
X7262143Y-9117952D01*
X7252619Y-9108429D01*
X7243095Y-9089381D01*
X7233571Y-9051286D01*
X7233571Y-9003667D01*
X7243095Y-8965571D01*
X7252619Y-8946524D01*
X7262143Y-8937000D01*
X7281190Y-8927476D01*
X7585952Y-9127476D02*
X7585952Y-8927476D01*
X7671667Y-9127476D02*
X7671667Y-9022714D01*
X7662143Y-9003667D01*
X7643095Y-8994143D01*
X7614524Y-8994143D01*
X7595476Y-9003667D01*
X7585952Y-9013190D01*
X7795476Y-9127476D02*
X7776428Y-9117952D01*
X7766905Y-9108429D01*
X7757381Y-9089381D01*
X7757381Y-9032238D01*
X7766905Y-9013190D01*
X7776428Y-9003667D01*
X7795476Y-8994143D01*
X7824048Y-8994143D01*
X7843095Y-9003667D01*
X7852619Y-9013190D01*
X7862143Y-9032238D01*
X7862143Y-9089381D01*
X7852619Y-9108429D01*
X7843095Y-9117952D01*
X7824048Y-9127476D01*
X7795476Y-9127476D01*
X7976428Y-9127476D02*
X7957381Y-9117952D01*
X7947857Y-9098905D01*
X7947857Y-8927476D01*
X8128809Y-9117952D02*
X8109762Y-9127476D01*
X8071667Y-9127476D01*
X8052619Y-9117952D01*
X8043095Y-9098905D01*
X8043095Y-9022714D01*
X8052619Y-9003667D01*
X8071667Y-8994143D01*
X8109762Y-8994143D01*
X8128809Y-9003667D01*
X8138333Y-9022714D01*
X8138333Y-9041762D01*
X8043095Y-9060810D01*
X8214524Y-9117952D02*
X8233571Y-9127476D01*
X8271667Y-9127476D01*
X8290714Y-9117952D01*
X8300238Y-9098905D01*
X8300238Y-9089381D01*
X8290714Y-9070333D01*
X8271667Y-9060810D01*
X8243095Y-9060810D01*
X8224048Y-9051286D01*
X8214524Y-9032238D01*
X8214524Y-9022714D01*
X8224048Y-9003667D01*
X8243095Y-8994143D01*
X8271667Y-8994143D01*
X8290714Y-9003667D01*
X8538333Y-9051286D02*
X8690714Y-9051286D01*
X8614524Y-9127476D02*
X8614524Y-8975095D01*
X9024048Y-8994143D02*
X9024048Y-9127476D01*
X8976429Y-8917952D02*
X8928810Y-9060810D01*
X9052619Y-9060810D01*
X9271667Y-9117952D02*
X9290714Y-9127476D01*
X9328810Y-9127476D01*
X9347857Y-9117952D01*
X9357381Y-9098905D01*
X9357381Y-9089381D01*
X9347857Y-9070333D01*
X9328810Y-9060810D01*
X9300238Y-9060810D01*
X9281190Y-9051286D01*
X9271667Y-9032238D01*
X9271667Y-9022714D01*
X9281190Y-9003667D01*
X9300238Y-8994143D01*
X9328810Y-8994143D01*
X9347857Y-9003667D01*
X9471667Y-9127476D02*
X9452619Y-9117952D01*
X9443095Y-9098905D01*
X9443095Y-8927476D01*
X9576429Y-9127476D02*
X9557381Y-9117952D01*
X9547857Y-9108429D01*
X9538333Y-9089381D01*
X9538333Y-9032238D01*
X9547857Y-9013190D01*
X9557381Y-9003667D01*
X9576429Y-8994143D01*
X9605000Y-8994143D01*
X9624048Y-9003667D01*
X9633571Y-9013190D01*
X9643095Y-9032238D01*
X9643095Y-9089381D01*
X9633571Y-9108429D01*
X9624048Y-9117952D01*
X9605000Y-9127476D01*
X9576429Y-9127476D01*
X9700238Y-8994143D02*
X9776429Y-8994143D01*
X9728810Y-8927476D02*
X9728810Y-9098905D01*
X9738333Y-9117952D01*
X9757381Y-9127476D01*
X9776429Y-9127476D01*
X9833571Y-9117952D02*
X9852619Y-9127476D01*
X9890714Y-9127476D01*
X9909762Y-9117952D01*
X9919286Y-9098905D01*
X9919286Y-9089381D01*
X9909762Y-9070333D01*
X9890714Y-9060810D01*
X9862143Y-9060810D01*
X9843095Y-9051286D01*
X9833571Y-9032238D01*
X9833571Y-9022714D01*
X9843095Y-9003667D01*
X9862143Y-8994143D01*
X9890714Y-8994143D01*
X9909762Y-9003667D01*
X9985952Y-9203667D02*
X9995476Y-9194143D01*
X10014524Y-9165571D01*
X10024048Y-9146524D01*
X10033571Y-9117952D01*
X10043095Y-9070333D01*
X10043095Y-9032238D01*
X10033571Y-8984619D01*
X10024048Y-8956048D01*
X10014524Y-8937000D01*
X9995476Y-8908429D01*
X9985952Y-8898905D01*
D16*
X3558500Y-9337500D02*
X3595000Y-9301000D01*
X3558500Y-9264500D01*
X3522000Y-9301000D01*
X3558500Y-9337500D01*
D11*
X3890714Y-9191476D02*
X3909762Y-9191476D01*
X3928809Y-9201000D01*
X3938333Y-9210524D01*
X3947857Y-9229571D01*
X3957381Y-9267667D01*
X3957381Y-9315286D01*
X3947857Y-9353381D01*
X3938333Y-9372429D01*
X3928809Y-9381952D01*
X3909762Y-9391476D01*
X3890714Y-9391476D01*
X3871667Y-9381952D01*
X3862143Y-9372429D01*
X3852619Y-9353381D01*
X3843095Y-9315286D01*
X3843095Y-9267667D01*
X3852619Y-9229571D01*
X3862143Y-9210524D01*
X3871667Y-9201000D01*
X3890714Y-9191476D01*
X4043095Y-9372429D02*
X4052619Y-9381952D01*
X4043095Y-9391476D01*
X4033571Y-9381952D01*
X4043095Y-9372429D01*
X4043095Y-9391476D01*
X4119286Y-9191476D02*
X4252619Y-9191476D01*
X4166905Y-9391476D01*
X4309762Y-9191476D02*
X4433571Y-9191476D01*
X4366905Y-9267667D01*
X4395476Y-9267667D01*
X4414524Y-9277190D01*
X4424048Y-9286714D01*
X4433571Y-9305762D01*
X4433571Y-9353381D01*
X4424048Y-9372429D01*
X4414524Y-9381952D01*
X4395476Y-9391476D01*
X4338333Y-9391476D01*
X4319286Y-9381952D01*
X4309762Y-9372429D01*
X4557381Y-9191476D02*
X4576429Y-9191476D01*
X4595476Y-9201000D01*
X4605000Y-9210524D01*
X4614524Y-9229571D01*
X4624048Y-9267667D01*
X4624048Y-9315286D01*
X4614524Y-9353381D01*
X4605000Y-9372429D01*
X4595476Y-9381952D01*
X4576429Y-9391476D01*
X4557381Y-9391476D01*
X4538333Y-9381952D01*
X4528810Y-9372429D01*
X4519286Y-9353381D01*
X4509762Y-9315286D01*
X4509762Y-9267667D01*
X4519286Y-9229571D01*
X4528810Y-9210524D01*
X4538333Y-9201000D01*
X4557381Y-9191476D01*
X4709762Y-9391476D02*
X4709762Y-9258143D01*
X4709762Y-9277190D02*
X4719286Y-9267667D01*
X4738333Y-9258143D01*
X4766905Y-9258143D01*
X4785952Y-9267667D01*
X4795476Y-9286714D01*
X4795476Y-9391476D01*
X4795476Y-9286714D02*
X4805000Y-9267667D01*
X4824048Y-9258143D01*
X4852619Y-9258143D01*
X4871667Y-9267667D01*
X4881190Y-9286714D01*
X4881190Y-9391476D01*
X4976429Y-9391476D02*
X4976429Y-9258143D01*
X4976429Y-9277190D02*
X4985952Y-9267667D01*
X5005000Y-9258143D01*
X5033571Y-9258143D01*
X5052619Y-9267667D01*
X5062143Y-9286714D01*
X5062143Y-9391476D01*
X5062143Y-9286714D02*
X5071667Y-9267667D01*
X5090714Y-9258143D01*
X5119286Y-9258143D01*
X5138333Y-9267667D01*
X5147857Y-9286714D01*
X5147857Y-9391476D01*
X5538333Y-9181952D02*
X5366905Y-9439095D01*
X5795476Y-9191476D02*
X5814524Y-9191476D01*
X5833571Y-9201000D01*
X5843095Y-9210524D01*
X5852619Y-9229571D01*
X5862143Y-9267667D01*
X5862143Y-9315286D01*
X5852619Y-9353381D01*
X5843095Y-9372429D01*
X5833571Y-9381952D01*
X5814524Y-9391476D01*
X5795476Y-9391476D01*
X5776428Y-9381952D01*
X5766905Y-9372429D01*
X5757381Y-9353381D01*
X5747857Y-9315286D01*
X5747857Y-9267667D01*
X5757381Y-9229571D01*
X5766905Y-9210524D01*
X5776428Y-9201000D01*
X5795476Y-9191476D01*
X5947857Y-9372429D02*
X5957381Y-9381952D01*
X5947857Y-9391476D01*
X5938333Y-9381952D01*
X5947857Y-9372429D01*
X5947857Y-9391476D01*
X6081190Y-9191476D02*
X6100238Y-9191476D01*
X6119286Y-9201000D01*
X6128809Y-9210524D01*
X6138333Y-9229571D01*
X6147857Y-9267667D01*
X6147857Y-9315286D01*
X6138333Y-9353381D01*
X6128809Y-9372429D01*
X6119286Y-9381952D01*
X6100238Y-9391476D01*
X6081190Y-9391476D01*
X6062143Y-9381952D01*
X6052619Y-9372429D01*
X6043095Y-9353381D01*
X6033571Y-9315286D01*
X6033571Y-9267667D01*
X6043095Y-9229571D01*
X6052619Y-9210524D01*
X6062143Y-9201000D01*
X6081190Y-9191476D01*
X6224048Y-9210524D02*
X6233571Y-9201000D01*
X6252619Y-9191476D01*
X6300238Y-9191476D01*
X6319286Y-9201000D01*
X6328809Y-9210524D01*
X6338333Y-9229571D01*
X6338333Y-9248619D01*
X6328809Y-9277190D01*
X6214524Y-9391476D01*
X6338333Y-9391476D01*
X6452619Y-9277190D02*
X6433571Y-9267667D01*
X6424048Y-9258143D01*
X6414524Y-9239095D01*
X6414524Y-9229571D01*
X6424048Y-9210524D01*
X6433571Y-9201000D01*
X6452619Y-9191476D01*
X6490714Y-9191476D01*
X6509762Y-9201000D01*
X6519286Y-9210524D01*
X6528809Y-9229571D01*
X6528809Y-9239095D01*
X6519286Y-9258143D01*
X6509762Y-9267667D01*
X6490714Y-9277190D01*
X6452619Y-9277190D01*
X6433571Y-9286714D01*
X6424048Y-9296238D01*
X6414524Y-9315286D01*
X6414524Y-9353381D01*
X6424048Y-9372429D01*
X6433571Y-9381952D01*
X6452619Y-9391476D01*
X6490714Y-9391476D01*
X6509762Y-9381952D01*
X6519286Y-9372429D01*
X6528809Y-9353381D01*
X6528809Y-9315286D01*
X6519286Y-9296238D01*
X6509762Y-9286714D01*
X6490714Y-9277190D01*
X6595476Y-9191476D02*
X6728809Y-9191476D01*
X6643095Y-9391476D01*
X6795476Y-9191476D02*
X6795476Y-9229571D01*
X6871667Y-9191476D02*
X6871667Y-9229571D01*
X7166905Y-9467667D02*
X7157381Y-9458143D01*
X7138333Y-9429571D01*
X7128809Y-9410524D01*
X7119286Y-9381952D01*
X7109762Y-9334333D01*
X7109762Y-9296238D01*
X7119286Y-9248619D01*
X7128809Y-9220048D01*
X7138333Y-9201000D01*
X7157381Y-9172429D01*
X7166905Y-9162905D01*
X7252619Y-9391476D02*
X7290714Y-9391476D01*
X7309762Y-9381952D01*
X7319286Y-9372429D01*
X7338333Y-9343857D01*
X7347857Y-9305762D01*
X7347857Y-9229571D01*
X7338333Y-9210524D01*
X7328809Y-9201000D01*
X7309762Y-9191476D01*
X7271667Y-9191476D01*
X7252619Y-9201000D01*
X7243095Y-9210524D01*
X7233571Y-9229571D01*
X7233571Y-9277190D01*
X7243095Y-9296238D01*
X7252619Y-9305762D01*
X7271667Y-9315286D01*
X7309762Y-9315286D01*
X7328809Y-9305762D01*
X7338333Y-9296238D01*
X7347857Y-9277190D01*
X7585952Y-9391476D02*
X7585952Y-9191476D01*
X7671667Y-9391476D02*
X7671667Y-9286714D01*
X7662143Y-9267667D01*
X7643095Y-9258143D01*
X7614524Y-9258143D01*
X7595476Y-9267667D01*
X7585952Y-9277190D01*
X7795476Y-9391476D02*
X7776428Y-9381952D01*
X7766905Y-9372429D01*
X7757381Y-9353381D01*
X7757381Y-9296238D01*
X7766905Y-9277190D01*
X7776428Y-9267667D01*
X7795476Y-9258143D01*
X7824048Y-9258143D01*
X7843095Y-9267667D01*
X7852619Y-9277190D01*
X7862143Y-9296238D01*
X7862143Y-9353381D01*
X7852619Y-9372429D01*
X7843095Y-9381952D01*
X7824048Y-9391476D01*
X7795476Y-9391476D01*
X7976428Y-9391476D02*
X7957381Y-9381952D01*
X7947857Y-9362905D01*
X7947857Y-9191476D01*
X8128809Y-9381952D02*
X8109762Y-9391476D01*
X8071667Y-9391476D01*
X8052619Y-9381952D01*
X8043095Y-9362905D01*
X8043095Y-9286714D01*
X8052619Y-9267667D01*
X8071667Y-9258143D01*
X8109762Y-9258143D01*
X8128809Y-9267667D01*
X8138333Y-9286714D01*
X8138333Y-9305762D01*
X8043095Y-9324810D01*
X8214524Y-9381952D02*
X8233571Y-9391476D01*
X8271667Y-9391476D01*
X8290714Y-9381952D01*
X8300238Y-9362905D01*
X8300238Y-9353381D01*
X8290714Y-9334333D01*
X8271667Y-9324810D01*
X8243095Y-9324810D01*
X8224048Y-9315286D01*
X8214524Y-9296238D01*
X8214524Y-9286714D01*
X8224048Y-9267667D01*
X8243095Y-9258143D01*
X8271667Y-9258143D01*
X8290714Y-9267667D01*
X8366905Y-9467667D02*
X8376428Y-9458143D01*
X8395476Y-9429571D01*
X8405000Y-9410524D01*
X8414524Y-9381952D01*
X8424048Y-9334333D01*
X8424048Y-9296238D01*
X8414524Y-9248619D01*
X8405000Y-9220048D01*
X8395476Y-9201000D01*
X8376428Y-9172429D01*
X8366905Y-9162905D01*
D17*
X3520000Y-9527500D02*
X3595000Y-9602500D01*
X3595000Y-9527500D02*
X3520000Y-9602500D01*
X3595000Y-9565000D02*
G75*
G03*
X3595000Y-9565000I-37500J0D01*
G01*
D11*
X3890714Y-9455476D02*
X3909762Y-9455476D01*
X3928809Y-9465000D01*
X3938333Y-9474524D01*
X3947857Y-9493571D01*
X3957381Y-9531667D01*
X3957381Y-9579286D01*
X3947857Y-9617381D01*
X3938333Y-9636429D01*
X3928809Y-9645952D01*
X3909762Y-9655476D01*
X3890714Y-9655476D01*
X3871667Y-9645952D01*
X3862143Y-9636429D01*
X3852619Y-9617381D01*
X3843095Y-9579286D01*
X3843095Y-9531667D01*
X3852619Y-9493571D01*
X3862143Y-9474524D01*
X3871667Y-9465000D01*
X3890714Y-9455476D01*
X4043095Y-9636429D02*
X4052619Y-9645952D01*
X4043095Y-9655476D01*
X4033571Y-9645952D01*
X4043095Y-9636429D01*
X4043095Y-9655476D01*
X4119286Y-9455476D02*
X4252619Y-9455476D01*
X4166905Y-9655476D01*
X4424048Y-9455476D02*
X4328810Y-9455476D01*
X4319286Y-9550714D01*
X4328810Y-9541190D01*
X4347857Y-9531667D01*
X4395476Y-9531667D01*
X4414524Y-9541190D01*
X4424048Y-9550714D01*
X4433571Y-9569762D01*
X4433571Y-9617381D01*
X4424048Y-9636429D01*
X4414524Y-9645952D01*
X4395476Y-9655476D01*
X4347857Y-9655476D01*
X4328810Y-9645952D01*
X4319286Y-9636429D01*
X4557381Y-9455476D02*
X4576429Y-9455476D01*
X4595476Y-9465000D01*
X4605000Y-9474524D01*
X4614524Y-9493571D01*
X4624048Y-9531667D01*
X4624048Y-9579286D01*
X4614524Y-9617381D01*
X4605000Y-9636429D01*
X4595476Y-9645952D01*
X4576429Y-9655476D01*
X4557381Y-9655476D01*
X4538333Y-9645952D01*
X4528810Y-9636429D01*
X4519286Y-9617381D01*
X4509762Y-9579286D01*
X4509762Y-9531667D01*
X4519286Y-9493571D01*
X4528810Y-9474524D01*
X4538333Y-9465000D01*
X4557381Y-9455476D01*
X4709762Y-9655476D02*
X4709762Y-9522143D01*
X4709762Y-9541190D02*
X4719286Y-9531667D01*
X4738333Y-9522143D01*
X4766905Y-9522143D01*
X4785952Y-9531667D01*
X4795476Y-9550714D01*
X4795476Y-9655476D01*
X4795476Y-9550714D02*
X4805000Y-9531667D01*
X4824048Y-9522143D01*
X4852619Y-9522143D01*
X4871667Y-9531667D01*
X4881190Y-9550714D01*
X4881190Y-9655476D01*
X4976429Y-9655476D02*
X4976429Y-9522143D01*
X4976429Y-9541190D02*
X4985952Y-9531667D01*
X5005000Y-9522143D01*
X5033571Y-9522143D01*
X5052619Y-9531667D01*
X5062143Y-9550714D01*
X5062143Y-9655476D01*
X5062143Y-9550714D02*
X5071667Y-9531667D01*
X5090714Y-9522143D01*
X5119286Y-9522143D01*
X5138333Y-9531667D01*
X5147857Y-9550714D01*
X5147857Y-9655476D01*
X5538333Y-9445952D02*
X5366905Y-9703095D01*
X5795476Y-9455476D02*
X5814524Y-9455476D01*
X5833571Y-9465000D01*
X5843095Y-9474524D01*
X5852619Y-9493571D01*
X5862143Y-9531667D01*
X5862143Y-9579286D01*
X5852619Y-9617381D01*
X5843095Y-9636429D01*
X5833571Y-9645952D01*
X5814524Y-9655476D01*
X5795476Y-9655476D01*
X5776428Y-9645952D01*
X5766905Y-9636429D01*
X5757381Y-9617381D01*
X5747857Y-9579286D01*
X5747857Y-9531667D01*
X5757381Y-9493571D01*
X5766905Y-9474524D01*
X5776428Y-9465000D01*
X5795476Y-9455476D01*
X5947857Y-9636429D02*
X5957381Y-9645952D01*
X5947857Y-9655476D01*
X5938333Y-9645952D01*
X5947857Y-9636429D01*
X5947857Y-9655476D01*
X6081190Y-9455476D02*
X6100238Y-9455476D01*
X6119286Y-9465000D01*
X6128809Y-9474524D01*
X6138333Y-9493571D01*
X6147857Y-9531667D01*
X6147857Y-9579286D01*
X6138333Y-9617381D01*
X6128809Y-9636429D01*
X6119286Y-9645952D01*
X6100238Y-9655476D01*
X6081190Y-9655476D01*
X6062143Y-9645952D01*
X6052619Y-9636429D01*
X6043095Y-9617381D01*
X6033571Y-9579286D01*
X6033571Y-9531667D01*
X6043095Y-9493571D01*
X6052619Y-9474524D01*
X6062143Y-9465000D01*
X6081190Y-9455476D01*
X6224048Y-9474524D02*
X6233571Y-9465000D01*
X6252619Y-9455476D01*
X6300238Y-9455476D01*
X6319286Y-9465000D01*
X6328809Y-9474524D01*
X6338333Y-9493571D01*
X6338333Y-9512619D01*
X6328809Y-9541190D01*
X6214524Y-9655476D01*
X6338333Y-9655476D01*
X6433571Y-9655476D02*
X6471667Y-9655476D01*
X6490714Y-9645952D01*
X6500238Y-9636429D01*
X6519286Y-9607857D01*
X6528809Y-9569762D01*
X6528809Y-9493571D01*
X6519286Y-9474524D01*
X6509762Y-9465000D01*
X6490714Y-9455476D01*
X6452619Y-9455476D01*
X6433571Y-9465000D01*
X6424048Y-9474524D01*
X6414524Y-9493571D01*
X6414524Y-9541190D01*
X6424048Y-9560238D01*
X6433571Y-9569762D01*
X6452619Y-9579286D01*
X6490714Y-9579286D01*
X6509762Y-9569762D01*
X6519286Y-9560238D01*
X6528809Y-9541190D01*
X6709762Y-9455476D02*
X6614524Y-9455476D01*
X6605000Y-9550714D01*
X6614524Y-9541190D01*
X6633571Y-9531667D01*
X6681190Y-9531667D01*
X6700238Y-9541190D01*
X6709762Y-9550714D01*
X6719286Y-9569762D01*
X6719286Y-9617381D01*
X6709762Y-9636429D01*
X6700238Y-9645952D01*
X6681190Y-9655476D01*
X6633571Y-9655476D01*
X6614524Y-9645952D01*
X6605000Y-9636429D01*
X6795476Y-9455476D02*
X6795476Y-9493571D01*
X6871667Y-9455476D02*
X6871667Y-9493571D01*
X7166905Y-9731667D02*
X7157381Y-9722143D01*
X7138333Y-9693571D01*
X7128809Y-9674524D01*
X7119286Y-9645952D01*
X7109762Y-9598333D01*
X7109762Y-9560238D01*
X7119286Y-9512619D01*
X7128809Y-9484048D01*
X7138333Y-9465000D01*
X7157381Y-9436429D01*
X7166905Y-9426905D01*
X7224048Y-9455476D02*
X7347857Y-9455476D01*
X7281190Y-9531667D01*
X7309762Y-9531667D01*
X7328809Y-9541190D01*
X7338333Y-9550714D01*
X7347857Y-9569762D01*
X7347857Y-9617381D01*
X7338333Y-9636429D01*
X7328809Y-9645952D01*
X7309762Y-9655476D01*
X7252619Y-9655476D01*
X7233571Y-9645952D01*
X7224048Y-9636429D01*
X7585952Y-9655476D02*
X7585952Y-9455476D01*
X7671667Y-9655476D02*
X7671667Y-9550714D01*
X7662143Y-9531667D01*
X7643095Y-9522143D01*
X7614524Y-9522143D01*
X7595476Y-9531667D01*
X7585952Y-9541190D01*
X7795476Y-9655476D02*
X7776428Y-9645952D01*
X7766905Y-9636429D01*
X7757381Y-9617381D01*
X7757381Y-9560238D01*
X7766905Y-9541190D01*
X7776428Y-9531667D01*
X7795476Y-9522143D01*
X7824048Y-9522143D01*
X7843095Y-9531667D01*
X7852619Y-9541190D01*
X7862143Y-9560238D01*
X7862143Y-9617381D01*
X7852619Y-9636429D01*
X7843095Y-9645952D01*
X7824048Y-9655476D01*
X7795476Y-9655476D01*
X7976428Y-9655476D02*
X7957381Y-9645952D01*
X7947857Y-9626905D01*
X7947857Y-9455476D01*
X8128809Y-9645952D02*
X8109762Y-9655476D01*
X8071667Y-9655476D01*
X8052619Y-9645952D01*
X8043095Y-9626905D01*
X8043095Y-9550714D01*
X8052619Y-9531667D01*
X8071667Y-9522143D01*
X8109762Y-9522143D01*
X8128809Y-9531667D01*
X8138333Y-9550714D01*
X8138333Y-9569762D01*
X8043095Y-9588810D01*
X8214524Y-9645952D02*
X8233571Y-9655476D01*
X8271667Y-9655476D01*
X8290714Y-9645952D01*
X8300238Y-9626905D01*
X8300238Y-9617381D01*
X8290714Y-9598333D01*
X8271667Y-9588810D01*
X8243095Y-9588810D01*
X8224048Y-9579286D01*
X8214524Y-9560238D01*
X8214524Y-9550714D01*
X8224048Y-9531667D01*
X8243095Y-9522143D01*
X8271667Y-9522143D01*
X8290714Y-9531667D01*
X8366905Y-9731667D02*
X8376428Y-9722143D01*
X8395476Y-9693571D01*
X8405000Y-9674524D01*
X8414524Y-9645952D01*
X8424048Y-9598333D01*
X8424048Y-9560238D01*
X8414524Y-9512619D01*
X8405000Y-9484048D01*
X8395476Y-9465000D01*
X8376428Y-9436429D01*
X8366905Y-9426905D01*
D18*
X3518800Y-9790900D02*
X3595000Y-9867100D01*
X3595000Y-9790900D02*
X3518800Y-9867100D01*
X3556900Y-9790900D02*
X3556900Y-9867100D01*
X3518800Y-9829000D02*
X3595000Y-9829000D01*
D11*
X3890714Y-9719476D02*
X3909762Y-9719476D01*
X3928809Y-9729000D01*
X3938333Y-9738524D01*
X3947857Y-9757571D01*
X3957381Y-9795667D01*
X3957381Y-9843286D01*
X3947857Y-9881381D01*
X3938333Y-9900429D01*
X3928809Y-9909952D01*
X3909762Y-9919476D01*
X3890714Y-9919476D01*
X3871667Y-9909952D01*
X3862143Y-9900429D01*
X3852619Y-9881381D01*
X3843095Y-9843286D01*
X3843095Y-9795667D01*
X3852619Y-9757571D01*
X3862143Y-9738524D01*
X3871667Y-9729000D01*
X3890714Y-9719476D01*
X4043095Y-9900429D02*
X4052619Y-9909952D01*
X4043095Y-9919476D01*
X4033571Y-9909952D01*
X4043095Y-9900429D01*
X4043095Y-9919476D01*
X4119286Y-9719476D02*
X4252619Y-9719476D01*
X4166905Y-9919476D01*
X4414524Y-9719476D02*
X4376429Y-9719476D01*
X4357381Y-9729000D01*
X4347857Y-9738524D01*
X4328810Y-9767095D01*
X4319286Y-9805190D01*
X4319286Y-9881381D01*
X4328810Y-9900429D01*
X4338333Y-9909952D01*
X4357381Y-9919476D01*
X4395476Y-9919476D01*
X4414524Y-9909952D01*
X4424048Y-9900429D01*
X4433571Y-9881381D01*
X4433571Y-9833762D01*
X4424048Y-9814714D01*
X4414524Y-9805190D01*
X4395476Y-9795667D01*
X4357381Y-9795667D01*
X4338333Y-9805190D01*
X4328810Y-9814714D01*
X4319286Y-9833762D01*
X4509762Y-9738524D02*
X4519286Y-9729000D01*
X4538333Y-9719476D01*
X4585952Y-9719476D01*
X4605000Y-9729000D01*
X4614524Y-9738524D01*
X4624048Y-9757571D01*
X4624048Y-9776619D01*
X4614524Y-9805190D01*
X4500238Y-9919476D01*
X4624048Y-9919476D01*
X4709762Y-9919476D02*
X4709762Y-9786143D01*
X4709762Y-9805190D02*
X4719286Y-9795667D01*
X4738333Y-9786143D01*
X4766905Y-9786143D01*
X4785952Y-9795667D01*
X4795476Y-9814714D01*
X4795476Y-9919476D01*
X4795476Y-9814714D02*
X4805000Y-9795667D01*
X4824048Y-9786143D01*
X4852619Y-9786143D01*
X4871667Y-9795667D01*
X4881190Y-9814714D01*
X4881190Y-9919476D01*
X4976429Y-9919476D02*
X4976429Y-9786143D01*
X4976429Y-9805190D02*
X4985952Y-9795667D01*
X5005000Y-9786143D01*
X5033571Y-9786143D01*
X5052619Y-9795667D01*
X5062143Y-9814714D01*
X5062143Y-9919476D01*
X5062143Y-9814714D02*
X5071667Y-9795667D01*
X5090714Y-9786143D01*
X5119286Y-9786143D01*
X5138333Y-9795667D01*
X5147857Y-9814714D01*
X5147857Y-9919476D01*
X5538333Y-9709952D02*
X5366905Y-9967095D01*
X5795476Y-9719476D02*
X5814524Y-9719476D01*
X5833571Y-9729000D01*
X5843095Y-9738524D01*
X5852619Y-9757571D01*
X5862143Y-9795667D01*
X5862143Y-9843286D01*
X5852619Y-9881381D01*
X5843095Y-9900429D01*
X5833571Y-9909952D01*
X5814524Y-9919476D01*
X5795476Y-9919476D01*
X5776428Y-9909952D01*
X5766905Y-9900429D01*
X5757381Y-9881381D01*
X5747857Y-9843286D01*
X5747857Y-9795667D01*
X5757381Y-9757571D01*
X5766905Y-9738524D01*
X5776428Y-9729000D01*
X5795476Y-9719476D01*
X5947857Y-9900429D02*
X5957381Y-9909952D01*
X5947857Y-9919476D01*
X5938333Y-9909952D01*
X5947857Y-9900429D01*
X5947857Y-9919476D01*
X6081190Y-9719476D02*
X6100238Y-9719476D01*
X6119286Y-9729000D01*
X6128809Y-9738524D01*
X6138333Y-9757571D01*
X6147857Y-9795667D01*
X6147857Y-9843286D01*
X6138333Y-9881381D01*
X6128809Y-9900429D01*
X6119286Y-9909952D01*
X6100238Y-9919476D01*
X6081190Y-9919476D01*
X6062143Y-9909952D01*
X6052619Y-9900429D01*
X6043095Y-9881381D01*
X6033571Y-9843286D01*
X6033571Y-9795667D01*
X6043095Y-9757571D01*
X6052619Y-9738524D01*
X6062143Y-9729000D01*
X6081190Y-9719476D01*
X6214524Y-9719476D02*
X6338333Y-9719476D01*
X6271667Y-9795667D01*
X6300238Y-9795667D01*
X6319286Y-9805190D01*
X6328809Y-9814714D01*
X6338333Y-9833762D01*
X6338333Y-9881381D01*
X6328809Y-9900429D01*
X6319286Y-9909952D01*
X6300238Y-9919476D01*
X6243095Y-9919476D01*
X6224048Y-9909952D01*
X6214524Y-9900429D01*
X6462143Y-9719476D02*
X6481190Y-9719476D01*
X6500238Y-9729000D01*
X6509762Y-9738524D01*
X6519286Y-9757571D01*
X6528809Y-9795667D01*
X6528809Y-9843286D01*
X6519286Y-9881381D01*
X6509762Y-9900429D01*
X6500238Y-9909952D01*
X6481190Y-9919476D01*
X6462143Y-9919476D01*
X6443095Y-9909952D01*
X6433571Y-9900429D01*
X6424048Y-9881381D01*
X6414524Y-9843286D01*
X6414524Y-9795667D01*
X6424048Y-9757571D01*
X6433571Y-9738524D01*
X6443095Y-9729000D01*
X6462143Y-9719476D01*
X6652619Y-9719476D02*
X6671667Y-9719476D01*
X6690714Y-9729000D01*
X6700238Y-9738524D01*
X6709762Y-9757571D01*
X6719286Y-9795667D01*
X6719286Y-9843286D01*
X6709762Y-9881381D01*
X6700238Y-9900429D01*
X6690714Y-9909952D01*
X6671667Y-9919476D01*
X6652619Y-9919476D01*
X6633571Y-9909952D01*
X6624048Y-9900429D01*
X6614524Y-9881381D01*
X6605000Y-9843286D01*
X6605000Y-9795667D01*
X6614524Y-9757571D01*
X6624048Y-9738524D01*
X6633571Y-9729000D01*
X6652619Y-9719476D01*
X6795476Y-9719476D02*
X6795476Y-9757571D01*
X6871667Y-9719476D02*
X6871667Y-9757571D01*
X7166905Y-9995667D02*
X7157381Y-9986143D01*
X7138333Y-9957571D01*
X7128809Y-9938524D01*
X7119286Y-9909952D01*
X7109762Y-9862333D01*
X7109762Y-9824238D01*
X7119286Y-9776619D01*
X7128809Y-9748048D01*
X7138333Y-9729000D01*
X7157381Y-9700429D01*
X7166905Y-9690905D01*
X7347857Y-9919476D02*
X7233571Y-9919476D01*
X7290714Y-9919476D02*
X7290714Y-9719476D01*
X7271667Y-9748048D01*
X7252619Y-9767095D01*
X7233571Y-9776619D01*
X7471667Y-9719476D02*
X7490714Y-9719476D01*
X7509762Y-9729000D01*
X7519286Y-9738524D01*
X7528809Y-9757571D01*
X7538333Y-9795667D01*
X7538333Y-9843286D01*
X7528809Y-9881381D01*
X7519286Y-9900429D01*
X7509762Y-9909952D01*
X7490714Y-9919476D01*
X7471667Y-9919476D01*
X7452619Y-9909952D01*
X7443095Y-9900429D01*
X7433571Y-9881381D01*
X7424048Y-9843286D01*
X7424048Y-9795667D01*
X7433571Y-9757571D01*
X7443095Y-9738524D01*
X7452619Y-9729000D01*
X7471667Y-9719476D01*
X7776428Y-9919476D02*
X7776428Y-9719476D01*
X7862143Y-9919476D02*
X7862143Y-9814714D01*
X7852619Y-9795667D01*
X7833571Y-9786143D01*
X7805000Y-9786143D01*
X7785952Y-9795667D01*
X7776428Y-9805190D01*
X7985952Y-9919476D02*
X7966905Y-9909952D01*
X7957381Y-9900429D01*
X7947857Y-9881381D01*
X7947857Y-9824238D01*
X7957381Y-9805190D01*
X7966905Y-9795667D01*
X7985952Y-9786143D01*
X8014524Y-9786143D01*
X8033571Y-9795667D01*
X8043095Y-9805190D01*
X8052619Y-9824238D01*
X8052619Y-9881381D01*
X8043095Y-9900429D01*
X8033571Y-9909952D01*
X8014524Y-9919476D01*
X7985952Y-9919476D01*
X8166905Y-9919476D02*
X8147857Y-9909952D01*
X8138333Y-9890905D01*
X8138333Y-9719476D01*
X8319286Y-9909952D02*
X8300238Y-9919476D01*
X8262143Y-9919476D01*
X8243095Y-9909952D01*
X8233571Y-9890905D01*
X8233571Y-9814714D01*
X8243095Y-9795667D01*
X8262143Y-9786143D01*
X8300238Y-9786143D01*
X8319286Y-9795667D01*
X8328809Y-9814714D01*
X8328809Y-9833762D01*
X8233571Y-9852810D01*
X8405000Y-9909952D02*
X8424048Y-9919476D01*
X8462143Y-9919476D01*
X8481190Y-9909952D01*
X8490714Y-9890905D01*
X8490714Y-9881381D01*
X8481190Y-9862333D01*
X8462143Y-9852810D01*
X8433571Y-9852810D01*
X8414524Y-9843286D01*
X8405000Y-9824238D01*
X8405000Y-9814714D01*
X8414524Y-9795667D01*
X8433571Y-9786143D01*
X8462143Y-9786143D01*
X8481190Y-9795667D01*
X8557381Y-9995667D02*
X8566905Y-9986143D01*
X8585952Y-9957571D01*
X8595476Y-9938524D01*
X8605000Y-9909952D01*
X8614524Y-9862333D01*
X8614524Y-9824238D01*
X8605000Y-9776619D01*
X8595476Y-9748048D01*
X8585952Y-9729000D01*
X8566905Y-9700429D01*
X8557381Y-9690905D01*
D19*
X3515000Y-10053000D02*
X3595000Y-10133000D01*
X3595000Y-10053000D02*
X3515000Y-10133000D01*
X3583284Y-10121285D02*
X3583284Y-10064716D01*
X3526715Y-10064716D01*
X3526715Y-10121285D01*
X3583284Y-10121285D01*
D11*
X3890714Y-9983476D02*
X3909762Y-9983476D01*
X3928809Y-9993000D01*
X3938333Y-10002524D01*
X3947857Y-10021571D01*
X3957381Y-10059667D01*
X3957381Y-10107286D01*
X3947857Y-10145381D01*
X3938333Y-10164429D01*
X3928809Y-10173952D01*
X3909762Y-10183476D01*
X3890714Y-10183476D01*
X3871667Y-10173952D01*
X3862143Y-10164429D01*
X3852619Y-10145381D01*
X3843095Y-10107286D01*
X3843095Y-10059667D01*
X3852619Y-10021571D01*
X3862143Y-10002524D01*
X3871667Y-9993000D01*
X3890714Y-9983476D01*
X4043095Y-10164429D02*
X4052619Y-10173952D01*
X4043095Y-10183476D01*
X4033571Y-10173952D01*
X4043095Y-10164429D01*
X4043095Y-10183476D01*
X4166905Y-10069190D02*
X4147857Y-10059667D01*
X4138333Y-10050143D01*
X4128809Y-10031095D01*
X4128809Y-10021571D01*
X4138333Y-10002524D01*
X4147857Y-9993000D01*
X4166905Y-9983476D01*
X4205000Y-9983476D01*
X4224048Y-9993000D01*
X4233571Y-10002524D01*
X4243095Y-10021571D01*
X4243095Y-10031095D01*
X4233571Y-10050143D01*
X4224048Y-10059667D01*
X4205000Y-10069190D01*
X4166905Y-10069190D01*
X4147857Y-10078714D01*
X4138333Y-10088238D01*
X4128809Y-10107286D01*
X4128809Y-10145381D01*
X4138333Y-10164429D01*
X4147857Y-10173952D01*
X4166905Y-10183476D01*
X4205000Y-10183476D01*
X4224048Y-10173952D01*
X4233571Y-10164429D01*
X4243095Y-10145381D01*
X4243095Y-10107286D01*
X4233571Y-10088238D01*
X4224048Y-10078714D01*
X4205000Y-10069190D01*
X4366905Y-9983476D02*
X4385952Y-9983476D01*
X4405000Y-9993000D01*
X4414524Y-10002524D01*
X4424048Y-10021571D01*
X4433571Y-10059667D01*
X4433571Y-10107286D01*
X4424048Y-10145381D01*
X4414524Y-10164429D01*
X4405000Y-10173952D01*
X4385952Y-10183476D01*
X4366905Y-10183476D01*
X4347857Y-10173952D01*
X4338333Y-10164429D01*
X4328810Y-10145381D01*
X4319286Y-10107286D01*
X4319286Y-10059667D01*
X4328810Y-10021571D01*
X4338333Y-10002524D01*
X4347857Y-9993000D01*
X4366905Y-9983476D01*
X4557381Y-9983476D02*
X4576429Y-9983476D01*
X4595476Y-9993000D01*
X4605000Y-10002524D01*
X4614524Y-10021571D01*
X4624048Y-10059667D01*
X4624048Y-10107286D01*
X4614524Y-10145381D01*
X4605000Y-10164429D01*
X4595476Y-10173952D01*
X4576429Y-10183476D01*
X4557381Y-10183476D01*
X4538333Y-10173952D01*
X4528810Y-10164429D01*
X4519286Y-10145381D01*
X4509762Y-10107286D01*
X4509762Y-10059667D01*
X4519286Y-10021571D01*
X4528810Y-10002524D01*
X4538333Y-9993000D01*
X4557381Y-9983476D01*
X4709762Y-10183476D02*
X4709762Y-10050143D01*
X4709762Y-10069190D02*
X4719286Y-10059667D01*
X4738333Y-10050143D01*
X4766905Y-10050143D01*
X4785952Y-10059667D01*
X4795476Y-10078714D01*
X4795476Y-10183476D01*
X4795476Y-10078714D02*
X4805000Y-10059667D01*
X4824048Y-10050143D01*
X4852619Y-10050143D01*
X4871667Y-10059667D01*
X4881190Y-10078714D01*
X4881190Y-10183476D01*
X4976429Y-10183476D02*
X4976429Y-10050143D01*
X4976429Y-10069190D02*
X4985952Y-10059667D01*
X5005000Y-10050143D01*
X5033571Y-10050143D01*
X5052619Y-10059667D01*
X5062143Y-10078714D01*
X5062143Y-10183476D01*
X5062143Y-10078714D02*
X5071667Y-10059667D01*
X5090714Y-10050143D01*
X5119286Y-10050143D01*
X5138333Y-10059667D01*
X5147857Y-10078714D01*
X5147857Y-10183476D01*
X5538333Y-9973952D02*
X5366905Y-10231095D01*
X5795476Y-9983476D02*
X5814524Y-9983476D01*
X5833571Y-9993000D01*
X5843095Y-10002524D01*
X5852619Y-10021571D01*
X5862143Y-10059667D01*
X5862143Y-10107286D01*
X5852619Y-10145381D01*
X5843095Y-10164429D01*
X5833571Y-10173952D01*
X5814524Y-10183476D01*
X5795476Y-10183476D01*
X5776428Y-10173952D01*
X5766905Y-10164429D01*
X5757381Y-10145381D01*
X5747857Y-10107286D01*
X5747857Y-10059667D01*
X5757381Y-10021571D01*
X5766905Y-10002524D01*
X5776428Y-9993000D01*
X5795476Y-9983476D01*
X5947857Y-10164429D02*
X5957381Y-10173952D01*
X5947857Y-10183476D01*
X5938333Y-10173952D01*
X5947857Y-10164429D01*
X5947857Y-10183476D01*
X6081190Y-9983476D02*
X6100238Y-9983476D01*
X6119286Y-9993000D01*
X6128809Y-10002524D01*
X6138333Y-10021571D01*
X6147857Y-10059667D01*
X6147857Y-10107286D01*
X6138333Y-10145381D01*
X6128809Y-10164429D01*
X6119286Y-10173952D01*
X6100238Y-10183476D01*
X6081190Y-10183476D01*
X6062143Y-10173952D01*
X6052619Y-10164429D01*
X6043095Y-10145381D01*
X6033571Y-10107286D01*
X6033571Y-10059667D01*
X6043095Y-10021571D01*
X6052619Y-10002524D01*
X6062143Y-9993000D01*
X6081190Y-9983476D01*
X6214524Y-9983476D02*
X6338333Y-9983476D01*
X6271667Y-10059667D01*
X6300238Y-10059667D01*
X6319286Y-10069190D01*
X6328809Y-10078714D01*
X6338333Y-10097762D01*
X6338333Y-10145381D01*
X6328809Y-10164429D01*
X6319286Y-10173952D01*
X6300238Y-10183476D01*
X6243095Y-10183476D01*
X6224048Y-10173952D01*
X6214524Y-10164429D01*
X6528809Y-10183476D02*
X6414524Y-10183476D01*
X6471667Y-10183476D02*
X6471667Y-9983476D01*
X6452619Y-10012048D01*
X6433571Y-10031095D01*
X6414524Y-10040619D01*
X6709762Y-9983476D02*
X6614524Y-9983476D01*
X6605000Y-10078714D01*
X6614524Y-10069190D01*
X6633571Y-10059667D01*
X6681190Y-10059667D01*
X6700238Y-10069190D01*
X6709762Y-10078714D01*
X6719286Y-10097762D01*
X6719286Y-10145381D01*
X6709762Y-10164429D01*
X6700238Y-10173952D01*
X6681190Y-10183476D01*
X6633571Y-10183476D01*
X6614524Y-10173952D01*
X6605000Y-10164429D01*
X6795476Y-9983476D02*
X6795476Y-10021571D01*
X6871667Y-9983476D02*
X6871667Y-10021571D01*
X7166905Y-10259667D02*
X7157381Y-10250143D01*
X7138333Y-10221571D01*
X7128809Y-10202524D01*
X7119286Y-10173952D01*
X7109762Y-10126333D01*
X7109762Y-10088238D01*
X7119286Y-10040619D01*
X7128809Y-10012048D01*
X7138333Y-9993000D01*
X7157381Y-9964429D01*
X7166905Y-9954905D01*
X7328809Y-9983476D02*
X7290714Y-9983476D01*
X7271667Y-9993000D01*
X7262143Y-10002524D01*
X7243095Y-10031095D01*
X7233571Y-10069190D01*
X7233571Y-10145381D01*
X7243095Y-10164429D01*
X7252619Y-10173952D01*
X7271667Y-10183476D01*
X7309762Y-10183476D01*
X7328809Y-10173952D01*
X7338333Y-10164429D01*
X7347857Y-10145381D01*
X7347857Y-10097762D01*
X7338333Y-10078714D01*
X7328809Y-10069190D01*
X7309762Y-10059667D01*
X7271667Y-10059667D01*
X7252619Y-10069190D01*
X7243095Y-10078714D01*
X7233571Y-10097762D01*
X7585952Y-10183476D02*
X7585952Y-9983476D01*
X7671667Y-10183476D02*
X7671667Y-10078714D01*
X7662143Y-10059667D01*
X7643095Y-10050143D01*
X7614524Y-10050143D01*
X7595476Y-10059667D01*
X7585952Y-10069190D01*
X7795476Y-10183476D02*
X7776428Y-10173952D01*
X7766905Y-10164429D01*
X7757381Y-10145381D01*
X7757381Y-10088238D01*
X7766905Y-10069190D01*
X7776428Y-10059667D01*
X7795476Y-10050143D01*
X7824048Y-10050143D01*
X7843095Y-10059667D01*
X7852619Y-10069190D01*
X7862143Y-10088238D01*
X7862143Y-10145381D01*
X7852619Y-10164429D01*
X7843095Y-10173952D01*
X7824048Y-10183476D01*
X7795476Y-10183476D01*
X7976428Y-10183476D02*
X7957381Y-10173952D01*
X7947857Y-10154905D01*
X7947857Y-9983476D01*
X8128809Y-10173952D02*
X8109762Y-10183476D01*
X8071667Y-10183476D01*
X8052619Y-10173952D01*
X8043095Y-10154905D01*
X8043095Y-10078714D01*
X8052619Y-10059667D01*
X8071667Y-10050143D01*
X8109762Y-10050143D01*
X8128809Y-10059667D01*
X8138333Y-10078714D01*
X8138333Y-10097762D01*
X8043095Y-10116810D01*
X8214524Y-10173952D02*
X8233571Y-10183476D01*
X8271667Y-10183476D01*
X8290714Y-10173952D01*
X8300238Y-10154905D01*
X8300238Y-10145381D01*
X8290714Y-10126333D01*
X8271667Y-10116810D01*
X8243095Y-10116810D01*
X8224048Y-10107286D01*
X8214524Y-10088238D01*
X8214524Y-10078714D01*
X8224048Y-10059667D01*
X8243095Y-10050143D01*
X8271667Y-10050143D01*
X8290714Y-10059667D01*
X8366905Y-10259667D02*
X8376428Y-10250143D01*
X8395476Y-10221571D01*
X8405000Y-10202524D01*
X8414524Y-10173952D01*
X8424048Y-10126333D01*
X8424048Y-10088238D01*
X8414524Y-10040619D01*
X8405000Y-10012048D01*
X8395476Y-9993000D01*
X8376428Y-9964429D01*
X8366905Y-9954905D01*
D20*
X3530000Y-10324500D02*
X3595000Y-10389500D01*
X3595000Y-10324500D02*
X3530000Y-10389500D01*
X3562500Y-10389500D02*
X3595000Y-10357000D01*
X3562500Y-10324500D01*
X3530000Y-10357000D01*
X3562500Y-10389500D01*
D11*
X3890714Y-10247476D02*
X3909762Y-10247476D01*
X3928809Y-10257000D01*
X3938333Y-10266524D01*
X3947857Y-10285571D01*
X3957381Y-10323667D01*
X3957381Y-10371286D01*
X3947857Y-10409381D01*
X3938333Y-10428429D01*
X3928809Y-10437952D01*
X3909762Y-10447476D01*
X3890714Y-10447476D01*
X3871667Y-10437952D01*
X3862143Y-10428429D01*
X3852619Y-10409381D01*
X3843095Y-10371286D01*
X3843095Y-10323667D01*
X3852619Y-10285571D01*
X3862143Y-10266524D01*
X3871667Y-10257000D01*
X3890714Y-10247476D01*
X4043095Y-10428429D02*
X4052619Y-10437952D01*
X4043095Y-10447476D01*
X4033571Y-10437952D01*
X4043095Y-10428429D01*
X4043095Y-10447476D01*
X4224048Y-10247476D02*
X4185952Y-10247476D01*
X4166905Y-10257000D01*
X4157381Y-10266524D01*
X4138333Y-10295095D01*
X4128809Y-10333190D01*
X4128809Y-10409381D01*
X4138333Y-10428429D01*
X4147857Y-10437952D01*
X4166905Y-10447476D01*
X4205000Y-10447476D01*
X4224048Y-10437952D01*
X4233571Y-10428429D01*
X4243095Y-10409381D01*
X4243095Y-10361762D01*
X4233571Y-10342714D01*
X4224048Y-10333190D01*
X4205000Y-10323667D01*
X4166905Y-10323667D01*
X4147857Y-10333190D01*
X4138333Y-10342714D01*
X4128809Y-10361762D01*
X4424048Y-10247476D02*
X4328810Y-10247476D01*
X4319286Y-10342714D01*
X4328810Y-10333190D01*
X4347857Y-10323667D01*
X4395476Y-10323667D01*
X4414524Y-10333190D01*
X4424048Y-10342714D01*
X4433571Y-10361762D01*
X4433571Y-10409381D01*
X4424048Y-10428429D01*
X4414524Y-10437952D01*
X4395476Y-10447476D01*
X4347857Y-10447476D01*
X4328810Y-10437952D01*
X4319286Y-10428429D01*
X4557381Y-10247476D02*
X4576429Y-10247476D01*
X4595476Y-10257000D01*
X4605000Y-10266524D01*
X4614524Y-10285571D01*
X4624048Y-10323667D01*
X4624048Y-10371286D01*
X4614524Y-10409381D01*
X4605000Y-10428429D01*
X4595476Y-10437952D01*
X4576429Y-10447476D01*
X4557381Y-10447476D01*
X4538333Y-10437952D01*
X4528810Y-10428429D01*
X4519286Y-10409381D01*
X4509762Y-10371286D01*
X4509762Y-10323667D01*
X4519286Y-10285571D01*
X4528810Y-10266524D01*
X4538333Y-10257000D01*
X4557381Y-10247476D01*
X4709762Y-10447476D02*
X4709762Y-10314143D01*
X4709762Y-10333190D02*
X4719286Y-10323667D01*
X4738333Y-10314143D01*
X4766905Y-10314143D01*
X4785952Y-10323667D01*
X4795476Y-10342714D01*
X4795476Y-10447476D01*
X4795476Y-10342714D02*
X4805000Y-10323667D01*
X4824048Y-10314143D01*
X4852619Y-10314143D01*
X4871667Y-10323667D01*
X4881190Y-10342714D01*
X4881190Y-10447476D01*
X4976429Y-10447476D02*
X4976429Y-10314143D01*
X4976429Y-10333190D02*
X4985952Y-10323667D01*
X5005000Y-10314143D01*
X5033571Y-10314143D01*
X5052619Y-10323667D01*
X5062143Y-10342714D01*
X5062143Y-10447476D01*
X5062143Y-10342714D02*
X5071667Y-10323667D01*
X5090714Y-10314143D01*
X5119286Y-10314143D01*
X5138333Y-10323667D01*
X5147857Y-10342714D01*
X5147857Y-10447476D01*
X5538333Y-10237952D02*
X5366905Y-10495095D01*
X5795476Y-10247476D02*
X5814524Y-10247476D01*
X5833571Y-10257000D01*
X5843095Y-10266524D01*
X5852619Y-10285571D01*
X5862143Y-10323667D01*
X5862143Y-10371286D01*
X5852619Y-10409381D01*
X5843095Y-10428429D01*
X5833571Y-10437952D01*
X5814524Y-10447476D01*
X5795476Y-10447476D01*
X5776428Y-10437952D01*
X5766905Y-10428429D01*
X5757381Y-10409381D01*
X5747857Y-10371286D01*
X5747857Y-10323667D01*
X5757381Y-10285571D01*
X5766905Y-10266524D01*
X5776428Y-10257000D01*
X5795476Y-10247476D01*
X5947857Y-10428429D02*
X5957381Y-10437952D01*
X5947857Y-10447476D01*
X5938333Y-10437952D01*
X5947857Y-10428429D01*
X5947857Y-10447476D01*
X6081190Y-10247476D02*
X6100238Y-10247476D01*
X6119286Y-10257000D01*
X6128809Y-10266524D01*
X6138333Y-10285571D01*
X6147857Y-10323667D01*
X6147857Y-10371286D01*
X6138333Y-10409381D01*
X6128809Y-10428429D01*
X6119286Y-10437952D01*
X6100238Y-10447476D01*
X6081190Y-10447476D01*
X6062143Y-10437952D01*
X6052619Y-10428429D01*
X6043095Y-10409381D01*
X6033571Y-10371286D01*
X6033571Y-10323667D01*
X6043095Y-10285571D01*
X6052619Y-10266524D01*
X6062143Y-10257000D01*
X6081190Y-10247476D01*
X6224048Y-10266524D02*
X6233571Y-10257000D01*
X6252619Y-10247476D01*
X6300238Y-10247476D01*
X6319286Y-10257000D01*
X6328809Y-10266524D01*
X6338333Y-10285571D01*
X6338333Y-10304619D01*
X6328809Y-10333190D01*
X6214524Y-10447476D01*
X6338333Y-10447476D01*
X6519286Y-10247476D02*
X6424048Y-10247476D01*
X6414524Y-10342714D01*
X6424048Y-10333190D01*
X6443095Y-10323667D01*
X6490714Y-10323667D01*
X6509762Y-10333190D01*
X6519286Y-10342714D01*
X6528809Y-10361762D01*
X6528809Y-10409381D01*
X6519286Y-10428429D01*
X6509762Y-10437952D01*
X6490714Y-10447476D01*
X6443095Y-10447476D01*
X6424048Y-10437952D01*
X6414524Y-10428429D01*
X6700238Y-10247476D02*
X6662143Y-10247476D01*
X6643095Y-10257000D01*
X6633571Y-10266524D01*
X6614524Y-10295095D01*
X6605000Y-10333190D01*
X6605000Y-10409381D01*
X6614524Y-10428429D01*
X6624048Y-10437952D01*
X6643095Y-10447476D01*
X6681190Y-10447476D01*
X6700238Y-10437952D01*
X6709762Y-10428429D01*
X6719286Y-10409381D01*
X6719286Y-10361762D01*
X6709762Y-10342714D01*
X6700238Y-10333190D01*
X6681190Y-10323667D01*
X6643095Y-10323667D01*
X6624048Y-10333190D01*
X6614524Y-10342714D01*
X6605000Y-10361762D01*
X6795476Y-10247476D02*
X6795476Y-10285571D01*
X6871667Y-10247476D02*
X6871667Y-10285571D01*
X7166905Y-10523667D02*
X7157381Y-10514143D01*
X7138333Y-10485571D01*
X7128809Y-10466524D01*
X7119286Y-10437952D01*
X7109762Y-10390333D01*
X7109762Y-10352238D01*
X7119286Y-10304619D01*
X7128809Y-10276048D01*
X7138333Y-10257000D01*
X7157381Y-10228429D01*
X7166905Y-10218905D01*
X7233571Y-10266524D02*
X7243095Y-10257000D01*
X7262143Y-10247476D01*
X7309762Y-10247476D01*
X7328809Y-10257000D01*
X7338333Y-10266524D01*
X7347857Y-10285571D01*
X7347857Y-10304619D01*
X7338333Y-10333190D01*
X7224048Y-10447476D01*
X7347857Y-10447476D01*
X7585952Y-10447476D02*
X7585952Y-10247476D01*
X7671667Y-10447476D02*
X7671667Y-10342714D01*
X7662143Y-10323667D01*
X7643095Y-10314143D01*
X7614524Y-10314143D01*
X7595476Y-10323667D01*
X7585952Y-10333190D01*
X7795476Y-10447476D02*
X7776428Y-10437952D01*
X7766905Y-10428429D01*
X7757381Y-10409381D01*
X7757381Y-10352238D01*
X7766905Y-10333190D01*
X7776428Y-10323667D01*
X7795476Y-10314143D01*
X7824048Y-10314143D01*
X7843095Y-10323667D01*
X7852619Y-10333190D01*
X7862143Y-10352238D01*
X7862143Y-10409381D01*
X7852619Y-10428429D01*
X7843095Y-10437952D01*
X7824048Y-10447476D01*
X7795476Y-10447476D01*
X7976428Y-10447476D02*
X7957381Y-10437952D01*
X7947857Y-10418905D01*
X7947857Y-10247476D01*
X8128809Y-10437952D02*
X8109762Y-10447476D01*
X8071667Y-10447476D01*
X8052619Y-10437952D01*
X8043095Y-10418905D01*
X8043095Y-10342714D01*
X8052619Y-10323667D01*
X8071667Y-10314143D01*
X8109762Y-10314143D01*
X8128809Y-10323667D01*
X8138333Y-10342714D01*
X8138333Y-10361762D01*
X8043095Y-10380810D01*
X8214524Y-10437952D02*
X8233571Y-10447476D01*
X8271667Y-10447476D01*
X8290714Y-10437952D01*
X8300238Y-10418905D01*
X8300238Y-10409381D01*
X8290714Y-10390333D01*
X8271667Y-10380810D01*
X8243095Y-10380810D01*
X8224048Y-10371286D01*
X8214524Y-10352238D01*
X8214524Y-10342714D01*
X8224048Y-10323667D01*
X8243095Y-10314143D01*
X8271667Y-10314143D01*
X8290714Y-10323667D01*
X8366905Y-10523667D02*
X8376428Y-10514143D01*
X8395476Y-10485571D01*
X8405000Y-10466524D01*
X8414524Y-10437952D01*
X8424048Y-10390333D01*
X8424048Y-10352238D01*
X8414524Y-10304619D01*
X8405000Y-10276048D01*
X8395476Y-10257000D01*
X8376428Y-10228429D01*
X8366905Y-10218905D01*
X8728810Y-10523667D02*
X8719286Y-10514143D01*
X8700238Y-10485571D01*
X8690714Y-10466524D01*
X8681190Y-10437952D01*
X8671667Y-10390333D01*
X8671667Y-10352238D01*
X8681190Y-10304619D01*
X8690714Y-10276048D01*
X8700238Y-10257000D01*
X8719286Y-10228429D01*
X8728810Y-10218905D01*
X8805000Y-10314143D02*
X8805000Y-10447476D01*
X8805000Y-10333190D02*
X8814524Y-10323667D01*
X8833571Y-10314143D01*
X8862143Y-10314143D01*
X8881190Y-10323667D01*
X8890714Y-10342714D01*
X8890714Y-10447476D01*
X9014524Y-10447476D02*
X8995476Y-10437952D01*
X8985952Y-10428429D01*
X8976429Y-10409381D01*
X8976429Y-10352238D01*
X8985952Y-10333190D01*
X8995476Y-10323667D01*
X9014524Y-10314143D01*
X9043095Y-10314143D01*
X9062143Y-10323667D01*
X9071667Y-10333190D01*
X9081190Y-10352238D01*
X9081190Y-10409381D01*
X9071667Y-10428429D01*
X9062143Y-10437952D01*
X9043095Y-10447476D01*
X9014524Y-10447476D01*
X9138333Y-10314143D02*
X9214524Y-10314143D01*
X9166905Y-10247476D02*
X9166905Y-10418905D01*
X9176429Y-10437952D01*
X9195476Y-10447476D01*
X9214524Y-10447476D01*
X9433571Y-10314143D02*
X9433571Y-10514143D01*
X9433571Y-10323667D02*
X9452619Y-10314143D01*
X9490714Y-10314143D01*
X9509762Y-10323667D01*
X9519286Y-10333190D01*
X9528810Y-10352238D01*
X9528810Y-10409381D01*
X9519286Y-10428429D01*
X9509762Y-10437952D01*
X9490714Y-10447476D01*
X9452619Y-10447476D01*
X9433571Y-10437952D01*
X9643095Y-10447476D02*
X9624048Y-10437952D01*
X9614524Y-10418905D01*
X9614524Y-10247476D01*
X9805000Y-10447476D02*
X9805000Y-10342714D01*
X9795476Y-10323667D01*
X9776429Y-10314143D01*
X9738333Y-10314143D01*
X9719286Y-10323667D01*
X9805000Y-10437952D02*
X9785952Y-10447476D01*
X9738333Y-10447476D01*
X9719286Y-10437952D01*
X9709762Y-10418905D01*
X9709762Y-10399857D01*
X9719286Y-10380810D01*
X9738333Y-10371286D01*
X9785952Y-10371286D01*
X9805000Y-10361762D01*
X9871667Y-10314143D02*
X9947857Y-10314143D01*
X9900238Y-10247476D02*
X9900238Y-10418905D01*
X9909762Y-10437952D01*
X9928810Y-10447476D01*
X9947857Y-10447476D01*
X10090714Y-10437952D02*
X10071667Y-10447476D01*
X10033571Y-10447476D01*
X10014524Y-10437952D01*
X10005000Y-10418905D01*
X10005000Y-10342714D01*
X10014524Y-10323667D01*
X10033571Y-10314143D01*
X10071667Y-10314143D01*
X10090714Y-10323667D01*
X10100238Y-10342714D01*
X10100238Y-10361762D01*
X10005000Y-10380810D01*
X10271667Y-10447476D02*
X10271667Y-10247476D01*
X10271667Y-10437952D02*
X10252619Y-10447476D01*
X10214524Y-10447476D01*
X10195476Y-10437952D01*
X10185952Y-10428429D01*
X10176429Y-10409381D01*
X10176429Y-10352238D01*
X10185952Y-10333190D01*
X10195476Y-10323667D01*
X10214524Y-10314143D01*
X10252619Y-10314143D01*
X10271667Y-10323667D01*
X10347857Y-10523667D02*
X10357381Y-10514143D01*
X10376429Y-10485571D01*
X10385952Y-10466524D01*
X10395476Y-10437952D01*
X10405000Y-10390333D01*
X10405000Y-10352238D01*
X10395476Y-10304619D01*
X10385952Y-10276048D01*
X10376429Y-10257000D01*
X10357381Y-10228429D01*
X10347857Y-10218905D01*
D21*
X3550000Y-10576000D02*
X3550000Y-10666000D01*
X3505000Y-10621000D02*
X3595000Y-10621000D01*
X3595000Y-10621000D02*
G75*
G03*
X3595000Y-10621000I-45000J0D01*
G01*
D11*
X3890714Y-10511476D02*
X3909762Y-10511476D01*
X3928809Y-10521000D01*
X3938333Y-10530524D01*
X3947857Y-10549571D01*
X3957381Y-10587667D01*
X3957381Y-10635286D01*
X3947857Y-10673381D01*
X3938333Y-10692429D01*
X3928809Y-10701952D01*
X3909762Y-10711476D01*
X3890714Y-10711476D01*
X3871667Y-10701952D01*
X3862143Y-10692429D01*
X3852619Y-10673381D01*
X3843095Y-10635286D01*
X3843095Y-10587667D01*
X3852619Y-10549571D01*
X3862143Y-10530524D01*
X3871667Y-10521000D01*
X3890714Y-10511476D01*
X4043095Y-10692429D02*
X4052619Y-10701952D01*
X4043095Y-10711476D01*
X4033571Y-10701952D01*
X4043095Y-10692429D01*
X4043095Y-10711476D01*
X4147857Y-10711476D02*
X4185952Y-10711476D01*
X4205000Y-10701952D01*
X4214524Y-10692429D01*
X4233571Y-10663857D01*
X4243095Y-10625762D01*
X4243095Y-10549571D01*
X4233571Y-10530524D01*
X4224048Y-10521000D01*
X4205000Y-10511476D01*
X4166905Y-10511476D01*
X4147857Y-10521000D01*
X4138333Y-10530524D01*
X4128809Y-10549571D01*
X4128809Y-10597190D01*
X4138333Y-10616238D01*
X4147857Y-10625762D01*
X4166905Y-10635286D01*
X4205000Y-10635286D01*
X4224048Y-10625762D01*
X4233571Y-10616238D01*
X4243095Y-10597190D01*
X4366905Y-10511476D02*
X4385952Y-10511476D01*
X4405000Y-10521000D01*
X4414524Y-10530524D01*
X4424048Y-10549571D01*
X4433571Y-10587667D01*
X4433571Y-10635286D01*
X4424048Y-10673381D01*
X4414524Y-10692429D01*
X4405000Y-10701952D01*
X4385952Y-10711476D01*
X4366905Y-10711476D01*
X4347857Y-10701952D01*
X4338333Y-10692429D01*
X4328810Y-10673381D01*
X4319286Y-10635286D01*
X4319286Y-10587667D01*
X4328810Y-10549571D01*
X4338333Y-10530524D01*
X4347857Y-10521000D01*
X4366905Y-10511476D01*
X4557381Y-10511476D02*
X4576429Y-10511476D01*
X4595476Y-10521000D01*
X4605000Y-10530524D01*
X4614524Y-10549571D01*
X4624048Y-10587667D01*
X4624048Y-10635286D01*
X4614524Y-10673381D01*
X4605000Y-10692429D01*
X4595476Y-10701952D01*
X4576429Y-10711476D01*
X4557381Y-10711476D01*
X4538333Y-10701952D01*
X4528810Y-10692429D01*
X4519286Y-10673381D01*
X4509762Y-10635286D01*
X4509762Y-10587667D01*
X4519286Y-10549571D01*
X4528810Y-10530524D01*
X4538333Y-10521000D01*
X4557381Y-10511476D01*
X4709762Y-10711476D02*
X4709762Y-10578143D01*
X4709762Y-10597190D02*
X4719286Y-10587667D01*
X4738333Y-10578143D01*
X4766905Y-10578143D01*
X4785952Y-10587667D01*
X4795476Y-10606714D01*
X4795476Y-10711476D01*
X4795476Y-10606714D02*
X4805000Y-10587667D01*
X4824048Y-10578143D01*
X4852619Y-10578143D01*
X4871667Y-10587667D01*
X4881190Y-10606714D01*
X4881190Y-10711476D01*
X4976429Y-10711476D02*
X4976429Y-10578143D01*
X4976429Y-10597190D02*
X4985952Y-10587667D01*
X5005000Y-10578143D01*
X5033571Y-10578143D01*
X5052619Y-10587667D01*
X5062143Y-10606714D01*
X5062143Y-10711476D01*
X5062143Y-10606714D02*
X5071667Y-10587667D01*
X5090714Y-10578143D01*
X5119286Y-10578143D01*
X5138333Y-10587667D01*
X5147857Y-10606714D01*
X5147857Y-10711476D01*
X5538333Y-10501952D02*
X5366905Y-10759095D01*
X5795476Y-10511476D02*
X5814524Y-10511476D01*
X5833571Y-10521000D01*
X5843095Y-10530524D01*
X5852619Y-10549571D01*
X5862143Y-10587667D01*
X5862143Y-10635286D01*
X5852619Y-10673381D01*
X5843095Y-10692429D01*
X5833571Y-10701952D01*
X5814524Y-10711476D01*
X5795476Y-10711476D01*
X5776428Y-10701952D01*
X5766905Y-10692429D01*
X5757381Y-10673381D01*
X5747857Y-10635286D01*
X5747857Y-10587667D01*
X5757381Y-10549571D01*
X5766905Y-10530524D01*
X5776428Y-10521000D01*
X5795476Y-10511476D01*
X5947857Y-10692429D02*
X5957381Y-10701952D01*
X5947857Y-10711476D01*
X5938333Y-10701952D01*
X5947857Y-10692429D01*
X5947857Y-10711476D01*
X6081190Y-10511476D02*
X6100238Y-10511476D01*
X6119286Y-10521000D01*
X6128809Y-10530524D01*
X6138333Y-10549571D01*
X6147857Y-10587667D01*
X6147857Y-10635286D01*
X6138333Y-10673381D01*
X6128809Y-10692429D01*
X6119286Y-10701952D01*
X6100238Y-10711476D01*
X6081190Y-10711476D01*
X6062143Y-10701952D01*
X6052619Y-10692429D01*
X6043095Y-10673381D01*
X6033571Y-10635286D01*
X6033571Y-10587667D01*
X6043095Y-10549571D01*
X6052619Y-10530524D01*
X6062143Y-10521000D01*
X6081190Y-10511476D01*
X6214524Y-10511476D02*
X6338333Y-10511476D01*
X6271667Y-10587667D01*
X6300238Y-10587667D01*
X6319286Y-10597190D01*
X6328809Y-10606714D01*
X6338333Y-10625762D01*
X6338333Y-10673381D01*
X6328809Y-10692429D01*
X6319286Y-10701952D01*
X6300238Y-10711476D01*
X6243095Y-10711476D01*
X6224048Y-10701952D01*
X6214524Y-10692429D01*
X6519286Y-10511476D02*
X6424048Y-10511476D01*
X6414524Y-10606714D01*
X6424048Y-10597190D01*
X6443095Y-10587667D01*
X6490714Y-10587667D01*
X6509762Y-10597190D01*
X6519286Y-10606714D01*
X6528809Y-10625762D01*
X6528809Y-10673381D01*
X6519286Y-10692429D01*
X6509762Y-10701952D01*
X6490714Y-10711476D01*
X6443095Y-10711476D01*
X6424048Y-10701952D01*
X6414524Y-10692429D01*
X6700238Y-10578143D02*
X6700238Y-10711476D01*
X6652619Y-10501952D02*
X6605000Y-10644810D01*
X6728809Y-10644810D01*
X6795476Y-10511476D02*
X6795476Y-10549571D01*
X6871667Y-10511476D02*
X6871667Y-10549571D01*
X7166905Y-10787667D02*
X7157381Y-10778143D01*
X7138333Y-10749571D01*
X7128809Y-10730524D01*
X7119286Y-10701952D01*
X7109762Y-10654333D01*
X7109762Y-10616238D01*
X7119286Y-10568619D01*
X7128809Y-10540048D01*
X7138333Y-10521000D01*
X7157381Y-10492429D01*
X7166905Y-10482905D01*
X7233571Y-10530524D02*
X7243095Y-10521000D01*
X7262143Y-10511476D01*
X7309762Y-10511476D01*
X7328809Y-10521000D01*
X7338333Y-10530524D01*
X7347857Y-10549571D01*
X7347857Y-10568619D01*
X7338333Y-10597190D01*
X7224048Y-10711476D01*
X7347857Y-10711476D01*
X7585952Y-10711476D02*
X7585952Y-10511476D01*
X7671667Y-10711476D02*
X7671667Y-10606714D01*
X7662143Y-10587667D01*
X7643095Y-10578143D01*
X7614524Y-10578143D01*
X7595476Y-10587667D01*
X7585952Y-10597190D01*
X7795476Y-10711476D02*
X7776428Y-10701952D01*
X7766905Y-10692429D01*
X7757381Y-10673381D01*
X7757381Y-10616238D01*
X7766905Y-10597190D01*
X7776428Y-10587667D01*
X7795476Y-10578143D01*
X7824048Y-10578143D01*
X7843095Y-10587667D01*
X7852619Y-10597190D01*
X7862143Y-10616238D01*
X7862143Y-10673381D01*
X7852619Y-10692429D01*
X7843095Y-10701952D01*
X7824048Y-10711476D01*
X7795476Y-10711476D01*
X7976428Y-10711476D02*
X7957381Y-10701952D01*
X7947857Y-10682905D01*
X7947857Y-10511476D01*
X8128809Y-10701952D02*
X8109762Y-10711476D01*
X8071667Y-10711476D01*
X8052619Y-10701952D01*
X8043095Y-10682905D01*
X8043095Y-10606714D01*
X8052619Y-10587667D01*
X8071667Y-10578143D01*
X8109762Y-10578143D01*
X8128809Y-10587667D01*
X8138333Y-10606714D01*
X8138333Y-10625762D01*
X8043095Y-10644810D01*
X8214524Y-10701952D02*
X8233571Y-10711476D01*
X8271667Y-10711476D01*
X8290714Y-10701952D01*
X8300238Y-10682905D01*
X8300238Y-10673381D01*
X8290714Y-10654333D01*
X8271667Y-10644810D01*
X8243095Y-10644810D01*
X8224048Y-10635286D01*
X8214524Y-10616238D01*
X8214524Y-10606714D01*
X8224048Y-10587667D01*
X8243095Y-10578143D01*
X8271667Y-10578143D01*
X8290714Y-10587667D01*
X8366905Y-10787667D02*
X8376428Y-10778143D01*
X8395476Y-10749571D01*
X8405000Y-10730524D01*
X8414524Y-10701952D01*
X8424048Y-10654333D01*
X8424048Y-10616238D01*
X8414524Y-10568619D01*
X8405000Y-10540048D01*
X8395476Y-10521000D01*
X8376428Y-10492429D01*
X8366905Y-10482905D01*
X8728810Y-10787667D02*
X8719286Y-10778143D01*
X8700238Y-10749571D01*
X8690714Y-10730524D01*
X8681190Y-10701952D01*
X8671667Y-10654333D01*
X8671667Y-10616238D01*
X8681190Y-10568619D01*
X8690714Y-10540048D01*
X8700238Y-10521000D01*
X8719286Y-10492429D01*
X8728810Y-10482905D01*
X8805000Y-10578143D02*
X8805000Y-10711476D01*
X8805000Y-10597190D02*
X8814524Y-10587667D01*
X8833571Y-10578143D01*
X8862143Y-10578143D01*
X8881190Y-10587667D01*
X8890714Y-10606714D01*
X8890714Y-10711476D01*
X9014524Y-10711476D02*
X8995476Y-10701952D01*
X8985952Y-10692429D01*
X8976429Y-10673381D01*
X8976429Y-10616238D01*
X8985952Y-10597190D01*
X8995476Y-10587667D01*
X9014524Y-10578143D01*
X9043095Y-10578143D01*
X9062143Y-10587667D01*
X9071667Y-10597190D01*
X9081190Y-10616238D01*
X9081190Y-10673381D01*
X9071667Y-10692429D01*
X9062143Y-10701952D01*
X9043095Y-10711476D01*
X9014524Y-10711476D01*
X9138333Y-10578143D02*
X9214524Y-10578143D01*
X9166905Y-10511476D02*
X9166905Y-10682905D01*
X9176429Y-10701952D01*
X9195476Y-10711476D01*
X9214524Y-10711476D01*
X9433571Y-10578143D02*
X9433571Y-10778143D01*
X9433571Y-10587667D02*
X9452619Y-10578143D01*
X9490714Y-10578143D01*
X9509762Y-10587667D01*
X9519286Y-10597190D01*
X9528810Y-10616238D01*
X9528810Y-10673381D01*
X9519286Y-10692429D01*
X9509762Y-10701952D01*
X9490714Y-10711476D01*
X9452619Y-10711476D01*
X9433571Y-10701952D01*
X9643095Y-10711476D02*
X9624048Y-10701952D01*
X9614524Y-10682905D01*
X9614524Y-10511476D01*
X9805000Y-10711476D02*
X9805000Y-10606714D01*
X9795476Y-10587667D01*
X9776429Y-10578143D01*
X9738333Y-10578143D01*
X9719286Y-10587667D01*
X9805000Y-10701952D02*
X9785952Y-10711476D01*
X9738333Y-10711476D01*
X9719286Y-10701952D01*
X9709762Y-10682905D01*
X9709762Y-10663857D01*
X9719286Y-10644810D01*
X9738333Y-10635286D01*
X9785952Y-10635286D01*
X9805000Y-10625762D01*
X9871667Y-10578143D02*
X9947857Y-10578143D01*
X9900238Y-10511476D02*
X9900238Y-10682905D01*
X9909762Y-10701952D01*
X9928810Y-10711476D01*
X9947857Y-10711476D01*
X10090714Y-10701952D02*
X10071667Y-10711476D01*
X10033571Y-10711476D01*
X10014524Y-10701952D01*
X10005000Y-10682905D01*
X10005000Y-10606714D01*
X10014524Y-10587667D01*
X10033571Y-10578143D01*
X10071667Y-10578143D01*
X10090714Y-10587667D01*
X10100238Y-10606714D01*
X10100238Y-10625762D01*
X10005000Y-10644810D01*
X10271667Y-10711476D02*
X10271667Y-10511476D01*
X10271667Y-10701952D02*
X10252619Y-10711476D01*
X10214524Y-10711476D01*
X10195476Y-10701952D01*
X10185952Y-10692429D01*
X10176429Y-10673381D01*
X10176429Y-10616238D01*
X10185952Y-10597190D01*
X10195476Y-10587667D01*
X10214524Y-10578143D01*
X10252619Y-10578143D01*
X10271667Y-10587667D01*
X10347857Y-10787667D02*
X10357381Y-10778143D01*
X10376429Y-10749571D01*
X10385952Y-10730524D01*
X10395476Y-10701952D01*
X10405000Y-10654333D01*
X10405000Y-10616238D01*
X10395476Y-10568619D01*
X10385952Y-10540048D01*
X10376429Y-10521000D01*
X10357381Y-10492429D01*
X10347857Y-10482905D01*
M02*
