M48
; DRILL file {KiCad (6.0.4)} date Thu Nov 24 00:10:02 2022
; FORMAT={-:-/ absolute / metric / decimal}
; #@! TF.CreationDate,2022-11-24T00:10:02+09:00
; #@! TF.GenerationSoftware,Kicad,Pcbnew,(6.0.4)
; #@! TF.FileFunction,MixedPlating,1,2
FMAT,2
METRIC
; #@! TA.AperFunction,Plated,PTH,ViaDrill
T1C0.350
; #@! TA.AperFunction,Plated,PTH,ViaDrill
T2C0.400
; #@! TA.AperFunction,Plated,PTH,ComponentDrill
T3C0.600
; #@! TA.AperFunction,Plated,PTH,ComponentDrill
T4C0.750
; #@! TA.AperFunction,Plated,PTH,ComponentDrill
T5C0.762
; #@! TA.AperFunction,NonPlated,NPTH,ComponentDrill
T6C0.650
; #@! TA.AperFunction,NonPlated,NPTH,ComponentDrill
T7C0.900
%
G90
G05
T1
X38.0Y-41.75
X38.0Y-49.0
X38.0Y-50.5
X38.0Y-55.5
X38.0Y-59.5
X38.45Y-62.4
X40.386Y-56.769
X40.75Y-38.75
X40.894Y-55.753
X41.0Y-43.75
X41.275Y-46.371
X41.529Y-56.642
X42.58Y-45.964
X43.18Y-64.226
X43.5Y-56.5
X44.25Y-47.5
X44.75Y-40.25
X44.75Y-43.75
X45.0Y-54.25
X45.082Y-50.78
X45.25Y-47.5
X45.75Y-52.25
X45.957Y-66.271
X46.0Y-41.75
X46.047Y-67.066
X46.25Y-40.25
X46.25Y-43.75
X46.442Y-47.371
X46.5Y-51.25
X46.75Y-57.5
X47.0Y-59.0
X47.0Y-60.75
X47.5Y-37.25
X47.625Y-39.37
X48.0Y-75.0
X48.133Y-45.339
X48.26Y-67.081
X48.75Y-37.25
X48.75Y-38.5
X48.768Y-60.706
X48.93Y-46.609
X49.0Y-62.25
X49.276Y-49.022
X49.276Y-50.165
X50.673Y-61.341
X50.673Y-67.818
X51.25Y-40.5
X51.5Y-41.75
X52.0Y-43.25
X52.0Y-60.25
X52.099Y-51.152
X52.33Y-66.746
X52.5Y-59.0
X52.959Y-60.198
X53.0Y-36.75
X53.0Y-38.5
X53.0Y-46.4
X53.25Y-72.0
X53.25Y-73.5
X53.25Y-75.25
X53.297Y-49.065
X53.8Y-49.6
X54.0Y-43.25
X54.4Y-47.8
X54.864Y-40.386
X54.892Y-49.008
X55.0Y-70.25
X55.118Y-38.862
X55.8Y-46.2
X56.134Y-47.625
X56.134Y-54.61
X56.2Y-49.4
X57.023Y-50.454
X57.25Y-64.25
X57.737Y-52.245
X57.912Y-66.167
X58.2Y-46.0
X58.42Y-63.373
X58.5Y-48.5
X58.5Y-49.75
X58.5Y-72.0
X58.5Y-73.5
X58.5Y-75.0
X58.605Y-52.266
X58.674Y-59.817
X59.182Y-43.434
X59.25Y-64.5
X59.69Y-62.865
X59.944Y-39.536
X60.705Y-48.769
X60.8Y-46.0
X61.0Y-72.0
X61.0Y-73.5
X61.0Y-75.0
X61.849Y-57.836
X62.103Y-54.483
X62.103Y-55.626
X62.103Y-56.769
X62.305Y-51.134
X62.5Y-48.75
X62.662Y-53.518
X62.75Y-49.75
X63.119Y-43.307
X63.246Y-54.483
X63.246Y-55.626
X63.246Y-56.769
X63.246Y-65.151
X63.488Y-60.881
X63.5Y-72.0
X63.5Y-73.5
X63.5Y-75.0
X63.75Y-37.0
X63.754Y-38.227
X63.881Y-48.641
X64.166Y-46.392
X64.262Y-43.053
X64.389Y-54.483
X64.389Y-55.626
X64.389Y-56.769
X64.389Y-65.151
X65.046Y-42.142
X65.151Y-66.167
X65.25Y-37.0
X65.25Y-38.25
X65.5Y-64.75
X65.859Y-50.51
X66.548Y-44.704
X67.0Y-71.5
X67.0Y-74.5
X67.25Y-69.25
X67.31Y-36.957
X67.5Y-43.0
X67.691Y-58.293
X67.754Y-54.843
X68.035Y-53.049
X68.122Y-54.133
X68.707Y-44.704
X68.75Y-48.75
X68.961Y-41.021
X69.0Y-37.0
X69.215Y-68.072
X69.25Y-71.5
X69.25Y-74.5
X69.5Y-43.0
X70.0Y-63.0
X70.0Y-66.0
X70.5Y-46.25
X70.5Y-48.25
X70.5Y-69.25
X70.612Y-36.957
X70.612Y-50.038
X71.25Y-71.5
X71.25Y-74.5
X71.75Y-50.25
X71.75Y-52.5
X72.0Y-43.0
X72.0Y-45.0
X72.0Y-66.0
X72.0Y-68.0
X72.136Y-51.308
X72.25Y-37.0
X72.25Y-61.25
X72.39Y-41.021
X72.517Y-53.975
X73.5Y-61.25
X73.75Y-71.5
X73.75Y-74.5
X73.914Y-36.957
X74.0Y-43.0
X74.0Y-45.0
X74.25Y-69.5
X75.438Y-41.021
X75.75Y-37.0
X75.75Y-50.25
X75.75Y-52.5
X75.75Y-54.0
X75.75Y-67.25
X76.0Y-46.5
X76.0Y-59.0
X76.0Y-71.0
X76.0Y-74.5
X77.0Y-38.25
X77.0Y-40.25
X77.089Y-56.642
T2
X36.957Y-44.831
X36.957Y-46.355
X36.957Y-48.006
X36.957Y-49.657
X36.957Y-51.435
X36.957Y-53.213
X36.957Y-54.991
X36.957Y-56.896
X36.957Y-58.674
X36.957Y-60.579
X36.957Y-62.611
X37.907Y-63.688
X38.608Y-43.815
X38.608Y-46.228
X38.735Y-56.515
X38.735Y-57.531
X38.735Y-58.547
X38.862Y-38.697
X39.751Y-52.788
X40.894Y-44.915
X40.894Y-61.735
X41.021Y-59.436
X41.148Y-41.402
X41.275Y-48.641
X41.529Y-51.689
X43.5Y-60.75
X43.942Y-54.864
X45.294Y-59.456
X46.101Y-39.497
X46.863Y-38.735
X47.355Y-50.832
X47.371Y-44.704
X47.371Y-55.118
X47.498Y-53.975
X48.514Y-55.118
X48.768Y-52.578
X48.768Y-63.881
X52.197Y-69.85
X52.197Y-70.993
X52.337Y-63.005
X53.213Y-70.358
X55.5Y-66.25
X56.0Y-67.5
X57.277Y-62.103
X65.659Y-67.183
X71.501Y-57.404
X75.311Y-57.404
T4
X41.0Y-69.381
X43.0Y-69.381
X45.0Y-69.381
T5
X51.896Y-37.609
X51.896Y-45.229
X54.436Y-37.609
X54.436Y-45.229
X56.976Y-37.609
X56.976Y-45.229
X59.516Y-37.609
X59.516Y-45.229
X62.056Y-37.609
X62.056Y-45.229
T6
X58.451Y-69.649
X64.231Y-69.649
T7
X41.707Y-73.533
X44.707Y-73.533
T3
G00X57.021Y-69.699
M15
G01X57.021Y-68.599
M16
G05
G00X57.021Y-73.729
M15
G01X57.021Y-72.929
M16
G05
G00X65.661Y-69.699
M15
G01X65.661Y-68.599
M16
G05
G00X65.661Y-73.729
M15
G01X65.661Y-72.929
M16
G05
T0
M30
