M48
; DRILL file {KiCad (6.0.4)} date Wed Dec 28 21:20:00 2022
; FORMAT={-:-/ absolute / metric / decimal}
; #@! TF.CreationDate,2022-12-28T21:20:00+09:00
; #@! TF.GenerationSoftware,Kicad,Pcbnew,(6.0.4)
; #@! TF.FileFunction,MixedPlating,1,2
FMAT,2
METRIC
; #@! TA.AperFunction,Plated,PTH,ViaDrill
T1C0.350
; #@! TA.AperFunction,Plated,PTH,ViaDrill
T2C0.400
; #@! TA.AperFunction,Plated,PTH,ComponentDrill
T3C0.600
; #@! TA.AperFunction,Plated,PTH,ComponentDrill
T4C0.730
; #@! TA.AperFunction,Plated,PTH,ComponentDrill
T5C0.750
; #@! TA.AperFunction,Plated,PTH,ComponentDrill
T6C0.762
; #@! TA.AperFunction,Plated,PTH,ComponentDrill
T7C0.800
; #@! TA.AperFunction,NonPlated,NPTH,ComponentDrill
T8C0.650
; #@! TA.AperFunction,NonPlated,NPTH,ComponentDrill
T9C0.900
%
G90
G05
T1
X36.75Y-36.75
X36.75Y-39.0
X38.0Y-41.75
X38.0Y-49.0
X38.0Y-50.5
X38.0Y-59.5
X38.45Y-54.9
X38.45Y-62.4
X39.0Y-36.75
X40.386Y-56.769
X40.5Y-39.0
X40.8Y-46.371
X40.894Y-55.753
X41.25Y-38.75
X41.25Y-43.75
X41.529Y-56.642
X42.5Y-39.133
X42.58Y-45.964
X44.25Y-47.25
X44.75Y-43.75
X46.0Y-36.75
X46.0Y-52.25
X46.25Y-43.75
X46.442Y-47.371
X46.5Y-51.235
X46.75Y-57.5
X47.0Y-59.0
X47.0Y-60.75
X47.5Y-37.25
X48.133Y-45.339
X48.6Y-65.6
X48.75Y-37.25
X48.75Y-38.5
X48.767Y-62.165
X48.768Y-60.706
X49.0Y-57.25
X49.0Y-59.25
X50.444Y-65.507
X50.673Y-61.341
X50.673Y-67.818
X51.25Y-40.5
X51.5Y-41.75
X52.0Y-43.25
X52.0Y-53.5
X52.0Y-60.25
X52.194Y-66.6
X52.5Y-56.25
X52.5Y-59.25
X52.959Y-60.198
X53.0Y-36.75
X53.0Y-38.5
X53.0Y-46.4
X53.05Y-61.3
X53.25Y-72.0
X53.25Y-73.5
X53.25Y-75.25
X53.297Y-49.065
X54.0Y-43.25
X54.075Y-49.925
X54.4Y-47.8
X54.864Y-40.386
X55.0Y-70.25
X55.118Y-38.862
X55.35Y-63.1
X55.5Y-49.008
X55.75Y-59.25
X55.8Y-46.2
X56.134Y-54.61
X56.2Y-49.4
X56.7Y-52.35
X56.7Y-53.173
X57.023Y-50.454
X57.2Y-61.0
X57.25Y-64.25
X57.737Y-52.245
X57.912Y-66.167
X58.2Y-46.0
X58.42Y-63.373
X58.5Y-48.5
X58.5Y-49.75
X58.5Y-72.0
X58.5Y-73.5
X58.5Y-75.0
X58.605Y-52.266
X58.674Y-59.817
X59.25Y-64.5
X59.25Y-67.25
X59.69Y-62.865
X60.1Y-39.9
X60.705Y-48.769
X60.8Y-46.0
X61.0Y-72.0
X61.0Y-73.5
X61.0Y-75.0
X61.849Y-57.836
X62.0Y-40.6
X62.103Y-54.483
X62.103Y-55.626
X62.103Y-56.769
X62.305Y-51.134
X62.4Y-42.9
X62.5Y-48.75
X62.662Y-53.518
X62.85Y-49.8
X63.246Y-54.483
X63.246Y-55.626
X63.246Y-56.769
X63.246Y-65.151
X63.488Y-60.881
X63.5Y-72.0
X63.5Y-73.5
X63.5Y-75.0
X63.6Y-42.8
X63.75Y-37.0
X63.75Y-67.25
X63.8Y-38.2
X63.881Y-48.641
X64.166Y-46.392
X64.389Y-54.483
X64.389Y-55.626
X64.389Y-56.769
X64.389Y-65.151
X64.66Y-42.9
X65.151Y-66.167
X65.25Y-37.0
X65.3Y-38.2
X65.5Y-64.75
X65.859Y-50.51
X66.1Y-39.8
X66.2Y-44.5
X67.0Y-71.5
X67.0Y-74.5
X67.25Y-69.25
X67.31Y-36.703
X67.691Y-55.225
X68.0Y-44.5
X69.0Y-37.0
X69.0Y-41.75
X69.2Y-53.65
X69.215Y-68.072
X69.25Y-71.5
X69.25Y-74.5
X69.3Y-57.2
X69.4Y-55.226
X69.5Y-62.25
X69.5Y-64.25
X69.5Y-66.25
X70.0Y-43.75
X70.2Y-58.2
X70.45Y-54.25
X70.5Y-69.25
X70.739Y-36.703
X71.0Y-42.25
X71.0Y-64.25
X71.0Y-66.25
X71.15Y-51.15
X71.25Y-71.5
X71.25Y-74.5
X72.0Y-68.0
X72.25Y-37.0
X72.25Y-61.25
X72.5Y-64.25
X72.5Y-66.25
X72.75Y-52.75
X73.0Y-42.25
X73.15Y-56.15
X73.5Y-61.25
X73.75Y-71.5
X73.75Y-74.5
X73.8Y-49.8
X73.914Y-36.703
X74.1Y-58.3
X74.25Y-69.5
X74.35Y-51.8
X75.438Y-36.957
X75.75Y-67.25
X76.0Y-42.25
X76.0Y-44.0
X76.0Y-45.75
X76.0Y-47.5
X76.0Y-49.25
X76.0Y-56.25
X76.0Y-57.75
X76.0Y-59.25
X76.0Y-71.0
X76.0Y-74.5
X76.073Y-40.894
X76.2Y-53.7
X76.34Y-52.1
X77.0Y-38.25
X77.0Y-40.25
T2
X36.957Y-48.006
X36.957Y-49.657
X36.957Y-51.435
X36.957Y-53.213
X36.957Y-54.991
X36.957Y-56.896
X36.957Y-58.674
X36.957Y-60.579
X36.957Y-62.611
X37.0Y-46.25
X37.0Y-73.0
X37.0Y-75.0
X37.907Y-63.688
X38.608Y-46.228
X38.735Y-56.515
X38.735Y-57.531
X38.735Y-58.547
X39.25Y-68.55
X39.5Y-75.0
X40.3Y-44.9
X40.894Y-61.735
X41.021Y-59.436
X41.25Y-41.402
X41.275Y-48.641
X42.5Y-75.0
X43.2Y-64.3
X43.5Y-61.0
X43.6Y-65.4
X45.294Y-59.456
X45.4Y-53.4
X46.172Y-67.1
X46.8Y-39.0
X47.371Y-44.704
X47.371Y-55.118
X47.498Y-53.975
X47.5Y-38.25
X47.871Y-67.1
X48.5Y-75.0
X48.768Y-52.578
X48.811Y-63.767
X49.404Y-51.282
X51.507Y-63.022
X51.6Y-71.1
X52.438Y-69.627
X53.9Y-70.7
X55.499Y-44.166
X55.5Y-66.25
X56.0Y-67.5
X57.277Y-62.103
X58.9Y-44.0
X65.659Y-67.183
T4
X71.9Y-43.8
X71.9Y-45.3
X71.9Y-46.8
X71.9Y-48.3
X71.9Y-49.8
X71.9Y-53.85
X71.9Y-55.35
X71.9Y-56.85
X71.9Y-58.35
T5
X41.0Y-69.381
X43.0Y-69.381
X45.0Y-69.381
T6
X51.896Y-37.609
X51.896Y-45.229
X54.436Y-37.609
X54.436Y-45.229
X56.976Y-37.609
X56.976Y-45.229
X59.516Y-37.609
X59.516Y-45.229
X62.056Y-37.609
X62.056Y-45.229
T7
X39.497Y-40.656
X39.497Y-42.656
X39.497Y-47.895
X39.497Y-49.895
X42.434Y-37.719
X44.434Y-37.719
X50.622Y-54.226
X50.622Y-56.226
X50.622Y-58.226
X50.622Y-60.226
X54.356Y-54.226
X54.356Y-56.226
X54.356Y-58.226
X54.356Y-60.226
T8
X58.451Y-69.649
X64.231Y-69.649
T9
X46.8Y-73.5
X49.8Y-73.5
T3
G00X57.021Y-69.699
M15
G01X57.021Y-68.599
M16
G05
G00X57.021Y-73.729
M15
G01X57.021Y-72.929
M16
G05
G00X65.661Y-69.699
M15
G01X65.661Y-68.599
M16
G05
G00X65.661Y-73.729
M15
G01X65.661Y-72.929
M16
G05
T0
M30
