%TF.GenerationSoftware,KiCad,Pcbnew,(6.0.4)*%
%TF.CreationDate,2022-12-07T00:30:14+09:00*%
%TF.ProjectId,prometheus-em,70726f6d-6574-4686-9575-732d656d2e6b,rev?*%
%TF.SameCoordinates,Original*%
%TF.FileFunction,Copper,L2,Bot*%
%TF.FilePolarity,Positive*%
%FSLAX46Y46*%
G04 Gerber Fmt 4.6, Leading zero omitted, Abs format (unit mm)*
G04 Created by KiCad (PCBNEW (6.0.4)) date 2022-12-07 00:30:14*
%MOMM*%
%LPD*%
G01*
G04 APERTURE LIST*
G04 Aperture macros list*
%AMRoundRect*
0 Rectangle with rounded corners*
0 $1 Rounding radius*
0 $2 $3 $4 $5 $6 $7 $8 $9 X,Y pos of 4 corners*
0 Add a 4 corners polygon primitive as box body*
4,1,4,$2,$3,$4,$5,$6,$7,$8,$9,$2,$3,0*
0 Add four circle primitives for the rounded corners*
1,1,$1+$1,$2,$3*
1,1,$1+$1,$4,$5*
1,1,$1+$1,$6,$7*
1,1,$1+$1,$8,$9*
0 Add four rect primitives between the rounded corners*
20,1,$1+$1,$2,$3,$4,$5,0*
20,1,$1+$1,$4,$5,$6,$7,0*
20,1,$1+$1,$6,$7,$8,$9,0*
20,1,$1+$1,$8,$9,$2,$3,0*%
G04 Aperture macros list end*
%TA.AperFunction,ComponentPad*%
%ADD10R,1.350000X1.350000*%
%TD*%
%TA.AperFunction,ComponentPad*%
%ADD11O,1.350000X1.350000*%
%TD*%
%TA.AperFunction,ComponentPad*%
%ADD12RoundRect,0.250000X-0.615000X0.265000X-0.615000X-0.265000X0.615000X-0.265000X0.615000X0.265000X0*%
%TD*%
%TA.AperFunction,ComponentPad*%
%ADD13O,1.730000X1.030000*%
%TD*%
%TA.AperFunction,ComponentPad*%
%ADD14O,1.000000X1.800000*%
%TD*%
%TA.AperFunction,ComponentPad*%
%ADD15O,1.000000X2.100000*%
%TD*%
%TA.AperFunction,ComponentPad*%
%ADD16C,1.524000*%
%TD*%
%TA.AperFunction,SMDPad,CuDef*%
%ADD17RoundRect,0.225000X-0.250000X0.225000X-0.250000X-0.225000X0.250000X-0.225000X0.250000X0.225000X0*%
%TD*%
%TA.AperFunction,ComponentPad*%
%ADD18R,1.200000X1.700000*%
%TD*%
%TA.AperFunction,ComponentPad*%
%ADD19O,1.200000X1.700000*%
%TD*%
%TA.AperFunction,SMDPad,CuDef*%
%ADD20RoundRect,0.225000X0.225000X0.250000X-0.225000X0.250000X-0.225000X-0.250000X0.225000X-0.250000X0*%
%TD*%
%TA.AperFunction,SMDPad,CuDef*%
%ADD21RoundRect,0.200000X-0.200000X-0.275000X0.200000X-0.275000X0.200000X0.275000X-0.200000X0.275000X0*%
%TD*%
%TA.AperFunction,SMDPad,CuDef*%
%ADD22R,1.525000X0.650000*%
%TD*%
%TA.AperFunction,SMDPad,CuDef*%
%ADD23R,2.390000X2.390000*%
%TD*%
%TA.AperFunction,ViaPad*%
%ADD24C,0.800000*%
%TD*%
%TA.AperFunction,ViaPad*%
%ADD25C,0.600000*%
%TD*%
%TA.AperFunction,Conductor*%
%ADD26C,0.350000*%
%TD*%
%TA.AperFunction,Conductor*%
%ADD27C,0.500000*%
%TD*%
%TA.AperFunction,Conductor*%
%ADD28C,1.000000*%
%TD*%
%TA.AperFunction,Conductor*%
%ADD29C,0.200000*%
%TD*%
G04 APERTURE END LIST*
D10*
%TO.P,J8,1,Pin_1*%
%TO.N,Net-(J8-Pad1)*%
X44434000Y-37719000D03*
D11*
%TO.P,J8,2,Pin_2*%
%TO.N,/7V4*%
X42434000Y-37719000D03*
%TD*%
D12*
%TO.P,J4,1,Pin_1*%
%TO.N,/GPIO14_ToF_RST*%
X71900000Y-43800000D03*
D13*
%TO.P,J4,2,Pin_2*%
%TO.N,/GPIO9_ToF_SCL*%
X71900000Y-45300000D03*
%TO.P,J4,3,Pin_3*%
%TO.N,/GPIO8_ToF_SDA*%
X71900000Y-46800000D03*
%TO.P,J4,4,Pin_4*%
%TO.N,+3V3*%
X71900000Y-48300000D03*
%TO.P,J4,5,Pin_5*%
%TO.N,GND*%
X71900000Y-49800000D03*
%TD*%
D10*
%TO.P,J3,1,Pin_1*%
%TO.N,+3V3*%
X54356000Y-54226200D03*
D11*
%TO.P,J3,2,Pin_2*%
%TO.N,/GPIO23_MOE_B1*%
X54356000Y-56226200D03*
%TO.P,J3,3,Pin_3*%
%TO.N,/GPIO25_MOE_B2*%
X54356000Y-58226200D03*
%TO.P,J3,4,Pin_4*%
%TO.N,GND*%
X54356000Y-60226200D03*
%TD*%
D10*
%TO.P,J1,1,Pin_1*%
%TO.N,+3V3*%
X50622200Y-54226200D03*
D11*
%TO.P,J1,2,Pin_2*%
%TO.N,/GPIO22_MOE_A1*%
X50622200Y-56226200D03*
%TO.P,J1,3,Pin_3*%
%TO.N,/GPIO24_MOE_A2*%
X50622200Y-58226200D03*
%TO.P,J1,4,Pin_4*%
%TO.N,GND*%
X50622200Y-60226200D03*
%TD*%
D12*
%TO.P,J2,1,Pin_1*%
%TO.N,+3V3*%
X71900000Y-53850000D03*
D13*
%TO.P,J2,2,Pin_2*%
%TO.N,/GPIO5_GNSS_RX*%
X71900000Y-55350000D03*
%TO.P,J2,3,Pin_3*%
%TO.N,/GPIO4_GNSS_TX*%
X71900000Y-56850000D03*
%TO.P,J2,4,Pin_4*%
%TO.N,GND*%
X71900000Y-58350000D03*
%TD*%
D14*
%TO.P,U1,SHIELD,SHIELD*%
%TO.N,GND*%
X65661000Y-73329000D03*
D15*
X57021000Y-69149000D03*
D14*
X57021000Y-73329000D03*
D15*
X65661000Y-69149000D03*
%TD*%
D16*
%TO.P,U2,1,VDD*%
%TO.N,+1V8*%
X51896000Y-45229000D03*
%TO.P,U2,2,VDDIO*%
X54436000Y-45229000D03*
%TO.P,U2,3,SCL*%
%TO.N,/IMU_SCL*%
X56976000Y-45229000D03*
%TO.P,U2,4,SDA*%
%TO.N,/IMU_SDA*%
X59516000Y-45229000D03*
%TO.P,U2,5,AD0*%
%TO.N,Net-(R30-Pad2)*%
X62056000Y-45229000D03*
%TO.P,U2,6,CS*%
%TO.N,+1V8*%
X62056000Y-37609000D03*
%TO.P,U2,7,AUX_CL*%
%TO.N,unconnected-(U2-Pad7)*%
X59516000Y-37609000D03*
%TO.P,U2,8,AUX_DA*%
%TO.N,unconnected-(U2-Pad8)*%
X56976000Y-37609000D03*
%TO.P,U2,9,INT*%
%TO.N,unconnected-(U2-Pad9)*%
X54436000Y-37609000D03*
%TO.P,U2,10,GND*%
%TO.N,GND*%
X51896000Y-37609000D03*
%TD*%
D17*
%TO.P,C10,1*%
%TO.N,+3V3*%
X58547000Y-60960000D03*
%TO.P,C10,2*%
%TO.N,GND*%
X58547000Y-62510000D03*
%TD*%
D10*
%TO.P,J5,1,Pin_1*%
%TO.N,/M1_PLUS*%
X39497000Y-47895000D03*
D11*
%TO.P,J5,2,Pin_2*%
%TO.N,/M1_MINUS*%
X39497000Y-49895000D03*
%TD*%
D18*
%TO.P,J7,1,Pin_1*%
%TO.N,GNDA*%
X45000000Y-69381200D03*
D19*
%TO.P,J7,2,Pin_2*%
%TO.N,unconnected-(J7-Pad2)*%
X43000000Y-69381200D03*
%TO.P,J7,3,Pin_3*%
%TO.N,/BAT_IN*%
X41000000Y-69381200D03*
%TD*%
D20*
%TO.P,C6,1*%
%TO.N,+1V1*%
X61227000Y-51181000D03*
%TO.P,C6,2*%
%TO.N,GND*%
X59677000Y-51181000D03*
%TD*%
D21*
%TO.P,R17,1*%
%TO.N,/7V4*%
X49467000Y-66675000D03*
%TO.P,R17,2*%
%TO.N,Net-(C14-Pad1)*%
X51117000Y-66675000D03*
%TD*%
D22*
%TO.P,IC4,1,GND*%
%TO.N,GND*%
X48178000Y-47371000D03*
%TO.P,IC4,2,IN2*%
%TO.N,/GPIO20_MO_A1*%
X48178000Y-48641000D03*
%TO.P,IC4,3,IN1*%
%TO.N,/GPIO21_MO_A2*%
X48178000Y-49911000D03*
%TO.P,IC4,4,VREF*%
%TO.N,/3V3A*%
X48178000Y-51181000D03*
%TO.P,IC4,5,VM*%
%TO.N,/7V4*%
X42754000Y-51181000D03*
%TO.P,IC4,6,OUT1*%
%TO.N,/M1_MINUS*%
X42754000Y-49911000D03*
%TO.P,IC4,7,RS*%
%TO.N,Net-(IC4-Pad7)*%
X42754000Y-48641000D03*
%TO.P,IC4,8,OUT2*%
%TO.N,/M1_PLUS*%
X42754000Y-47371000D03*
D23*
%TO.P,IC4,9,EP*%
%TO.N,GND*%
X45466000Y-49276000D03*
%TD*%
D20*
%TO.P,C5,1*%
%TO.N,+3V3*%
X61227000Y-49403000D03*
%TO.P,C5,2*%
%TO.N,GND*%
X59677000Y-49403000D03*
%TD*%
D22*
%TO.P,IC5,1,GND*%
%TO.N,GND*%
X48178000Y-40132000D03*
%TO.P,IC5,2,IN2*%
%TO.N,/GPIO18_MO_B1*%
X48178000Y-41402000D03*
%TO.P,IC5,3,IN1*%
%TO.N,/GPIO19_MO_B2*%
X48178000Y-42672000D03*
%TO.P,IC5,4,VREF*%
%TO.N,/3V3A*%
X48178000Y-43942000D03*
%TO.P,IC5,5,VM*%
%TO.N,/7V4*%
X42754000Y-43942000D03*
%TO.P,IC5,6,OUT1*%
%TO.N,/M2_MINUS*%
X42754000Y-42672000D03*
%TO.P,IC5,7,RS*%
%TO.N,Net-(IC5-Pad7)*%
X42754000Y-41402000D03*
%TO.P,IC5,8,OUT2*%
%TO.N,/M2_PLUS*%
X42754000Y-40132000D03*
D23*
%TO.P,IC5,9,EP*%
%TO.N,GND*%
X45466000Y-42037000D03*
%TD*%
D10*
%TO.P,J6,1,Pin_1*%
%TO.N,/M2_PLUS*%
X39497000Y-40656000D03*
D11*
%TO.P,J6,2,Pin_2*%
%TO.N,/M2_MINUS*%
X39497000Y-42656000D03*
%TD*%
D24*
%TO.N,+3V3*%
X38735000Y-57531000D03*
X65659000Y-67183000D03*
D25*
X55118000Y-38862000D03*
X64262000Y-43052992D03*
X58674000Y-59817000D03*
X65786000Y-41402000D03*
X65046334Y-42141666D03*
D24*
X38735000Y-58547000D03*
D25*
X60705000Y-48769000D03*
D24*
X38735000Y-56515000D03*
X48768000Y-63881000D03*
X57277000Y-62103000D03*
D25*
X76073000Y-40894000D03*
D24*
X47371000Y-55118000D03*
D25*
%TO.N,GND*%
X36750000Y-39000000D03*
X58200000Y-46000000D03*
X58500000Y-73500000D03*
X59944000Y-39536500D03*
X38000000Y-59500000D03*
X71000000Y-64250000D03*
X73750000Y-71500000D03*
X38000000Y-49000000D03*
D24*
X52197000Y-70993000D03*
D25*
X77000000Y-40250000D03*
X72500000Y-66250000D03*
X76000000Y-74500000D03*
X54400000Y-47800000D03*
X55800000Y-46200000D03*
X51250000Y-40500000D03*
X40800000Y-46371500D03*
X65500000Y-64750000D03*
X72000000Y-68000000D03*
X38000000Y-41750000D03*
X72500000Y-64250000D03*
X65151000Y-66167000D03*
X69000000Y-41750000D03*
X57250000Y-64250000D03*
X64389000Y-56769000D03*
X64389000Y-55626000D03*
X63246000Y-55626000D03*
X52099400Y-51151600D03*
X63246000Y-54483000D03*
X53000000Y-36750000D03*
X70739000Y-36703000D03*
X67000000Y-71500000D03*
X58500000Y-72000000D03*
X47500000Y-37250000D03*
X71000000Y-66250000D03*
X70200000Y-58200000D03*
X41250000Y-43750000D03*
X70000000Y-43750000D03*
X63246000Y-65151000D03*
X72250000Y-37000000D03*
X50500000Y-72000000D03*
X48767138Y-62165249D03*
X69300000Y-57200000D03*
X62103000Y-54483000D03*
X47000000Y-60750000D03*
X63500000Y-72000000D03*
X69500000Y-66250000D03*
X75438000Y-36957000D03*
X76000000Y-45750000D03*
X46000000Y-36750000D03*
X63881000Y-48641000D03*
X69250000Y-71500000D03*
X38000000Y-50500000D03*
X76000000Y-50750000D03*
X61000000Y-75000000D03*
X59250000Y-64500000D03*
X58500000Y-75000000D03*
X36750000Y-36750000D03*
D24*
X47500000Y-38250000D03*
D25*
X40386000Y-56769000D03*
X69215000Y-68072000D03*
X58500000Y-49750000D03*
X65250000Y-38250000D03*
X49000000Y-59250000D03*
X66200000Y-44500000D03*
X52959000Y-60198000D03*
X67250000Y-69250000D03*
X74250000Y-69500000D03*
D24*
X56000000Y-67500000D03*
D25*
X53000000Y-38500000D03*
X56134000Y-54610000D03*
X52500000Y-59250000D03*
X40500000Y-39000000D03*
X76000000Y-44000000D03*
X52500000Y-56250000D03*
X77000000Y-38250000D03*
X45000000Y-54250000D03*
X63500000Y-75000000D03*
D24*
X48768000Y-52578000D03*
D25*
X66750000Y-42000000D03*
X69000000Y-37000000D03*
X53250000Y-75250000D03*
X69500000Y-64250000D03*
X41529000Y-56642000D03*
X54074911Y-49925089D03*
X70500000Y-69250000D03*
X73914000Y-36703000D03*
X68000000Y-44500000D03*
X58500000Y-48500000D03*
X48750000Y-37250000D03*
X53000000Y-46400000D03*
X63246000Y-56769000D03*
D24*
X43500000Y-61000000D03*
D25*
X75750000Y-67250000D03*
X46250000Y-43750000D03*
X76000000Y-56250000D03*
X69400000Y-55226500D03*
X64166197Y-46392437D03*
X63750000Y-67250000D03*
X71000000Y-42250000D03*
X42580421Y-45964051D03*
D24*
X41021000Y-59436000D03*
D25*
X76000000Y-57750000D03*
X54864000Y-40386000D03*
X65250000Y-37000000D03*
X61000000Y-73500000D03*
X55750000Y-59250000D03*
X44750000Y-43750000D03*
X72250000Y-61250000D03*
D24*
X45293964Y-59456036D03*
D25*
X48768000Y-60706000D03*
X62500000Y-48750000D03*
X73750000Y-74500000D03*
D24*
X52197000Y-69850000D03*
D25*
X61000000Y-72000000D03*
X46000000Y-52250000D03*
X49000000Y-57250000D03*
X76000000Y-49250000D03*
X64389000Y-65151000D03*
X62103000Y-55626000D03*
X48000000Y-75000000D03*
X67000000Y-74500000D03*
X55000000Y-70250000D03*
X76000000Y-71000000D03*
X73800000Y-49800000D03*
X63754000Y-38227000D03*
X56200000Y-49400000D03*
X46442500Y-47371000D03*
X76000000Y-42250000D03*
X76000000Y-59250000D03*
X76000000Y-54750000D03*
X48750000Y-38500000D03*
X38000000Y-55500000D03*
X63750000Y-37000000D03*
X53250000Y-72000000D03*
X63500000Y-73500000D03*
X73500000Y-61250000D03*
X54000000Y-43250000D03*
X47000000Y-59000000D03*
X64389000Y-54483000D03*
X46750000Y-57500000D03*
X43600000Y-65700000D03*
X50673000Y-61341000D03*
X46500000Y-51234819D03*
X74100000Y-58300000D03*
X51500000Y-41750000D03*
X67310000Y-36703000D03*
X48133000Y-45339000D03*
X71250000Y-74500000D03*
X59690000Y-62865000D03*
X69500000Y-62250000D03*
D24*
X47498000Y-53975000D03*
D25*
X52000000Y-43250000D03*
X60800000Y-46000000D03*
D24*
X40894000Y-61735000D03*
D25*
X41250000Y-38750000D03*
X59250000Y-67250000D03*
X71250000Y-71500000D03*
X38450000Y-62400000D03*
X42500000Y-39132500D03*
X57912000Y-66167000D03*
X57023000Y-50454500D03*
X43500000Y-56500000D03*
X62750000Y-49750000D03*
D24*
X46800000Y-39000000D03*
D25*
X73000000Y-42250000D03*
X69250000Y-74500000D03*
X53250000Y-73500000D03*
X62103000Y-56769000D03*
X44250000Y-47250000D03*
X40894000Y-55753000D03*
X76000000Y-47500000D03*
X39000000Y-36750000D03*
D24*
X38608000Y-46228000D03*
D25*
X69400000Y-53400000D03*
X52000000Y-60250000D03*
D24*
X55500000Y-66250000D03*
D25*
X72100000Y-52400000D03*
X58420000Y-63373000D03*
X50673000Y-67818000D03*
X48600000Y-66100000D03*
X76000000Y-52250000D03*
%TO.N,+1V1*%
X63487827Y-60880673D03*
X62305139Y-51134301D03*
X62661800Y-53517800D03*
X61849000Y-57835800D03*
%TO.N,Net-(C14-Pad1)*%
X52329654Y-66745542D03*
D24*
%TO.N,/7V4*%
X36957000Y-62611000D03*
X36957000Y-49657000D03*
X36957000Y-48006000D03*
X36957000Y-54991000D03*
X43942000Y-54864000D03*
X37000000Y-46250000D03*
X36957000Y-53213000D03*
X36957000Y-58674000D03*
X36957000Y-56896000D03*
X37907500Y-63688500D03*
X40300000Y-44900000D03*
D25*
X43180000Y-64226318D03*
D24*
X36957000Y-60579000D03*
X36957000Y-51435000D03*
D25*
%TO.N,/GPIO18_MO_B1*%
X58605112Y-52265887D03*
%TO.N,/GPIO19_MO_B2*%
X57736702Y-52245299D03*
D24*
%TO.N,Net-(IC4-Pad7)*%
X41275000Y-48641000D03*
%TO.N,Net-(IC5-Pad7)*%
X41250000Y-41402000D03*
D25*
%TO.N,+1V8*%
X59182000Y-43434000D03*
%TO.N,Net-(IC7-Pad1)*%
X46047373Y-67065673D03*
X48260000Y-67081400D03*
%TO.N,/RUN*%
X55500000Y-49007895D03*
X53297089Y-49064911D03*
X56134000Y-47625000D03*
D24*
%TO.N,Net-(C15-Pad1)*%
X53213000Y-70358000D03*
X51507336Y-63022009D03*
D25*
%TO.N,/GPIO14_IMU_SDA*%
X63119000Y-43307000D03*
X65859317Y-50510357D03*
%TO.N,/GPIO21_MO_A2*%
X49276000Y-50165000D03*
%TO.N,/GPIO20_MO_A1*%
X49276000Y-49022000D03*
D24*
%TO.N,/3V3A*%
X47371000Y-44704000D03*
X49403817Y-51282061D03*
%TD*%
D26*
%TO.N,+3V3*%
X71900000Y-48300000D02*
X76800000Y-48300000D01*
D27*
X52757867Y-62155867D02*
X51172103Y-62155867D01*
X77089000Y-48011000D02*
X77089000Y-53911000D01*
X77089000Y-47911000D02*
X77089000Y-48011000D01*
D28*
X38735000Y-57531000D02*
X38972511Y-57768511D01*
D26*
X38735000Y-58547000D02*
X38862000Y-58420000D01*
D27*
X51172103Y-62155867D02*
X49446970Y-63881000D01*
X60705000Y-48881000D02*
X61227000Y-49403000D01*
X77089000Y-41910000D02*
X77089000Y-47911000D01*
D26*
X65786000Y-41402000D02*
X65046334Y-42141666D01*
X71900000Y-53850000D02*
X77028000Y-53850000D01*
X58547000Y-59944000D02*
X58674000Y-59817000D01*
D29*
X65046334Y-42268658D02*
X64262000Y-43052992D01*
D27*
X76073000Y-40894000D02*
X77089000Y-41910000D01*
X62139520Y-70648520D02*
X61849000Y-70358000D01*
X61849000Y-70358000D02*
X61043030Y-70358000D01*
X57277000Y-62103000D02*
X54334734Y-62103000D01*
D26*
X55118000Y-38862000D02*
X61766668Y-38862000D01*
D27*
X46250000Y-58950000D02*
X46250000Y-61363000D01*
X54334734Y-62103000D02*
X54281867Y-62155867D01*
X77089000Y-68199000D02*
X74639480Y-70648520D01*
X60705000Y-48769000D02*
X60705000Y-48881000D01*
D26*
X58547000Y-60960000D02*
X58547000Y-59944000D01*
D27*
X47371000Y-55245000D02*
X44958000Y-57658000D01*
X47371000Y-55118000D02*
X47371000Y-55245000D01*
X52840897Y-62155867D02*
X52757867Y-62155867D01*
D26*
X76800000Y-48300000D02*
X77089000Y-48011000D01*
X65659000Y-67183000D02*
X65637016Y-67183000D01*
D27*
X62355950Y-70358000D02*
X61849000Y-70358000D01*
X77089000Y-53911000D02*
X77089000Y-68199000D01*
D26*
X77028000Y-53850000D02*
X77089000Y-53911000D01*
D27*
X54281867Y-62155867D02*
X52757867Y-62155867D01*
D28*
X38972511Y-57768511D02*
X44847489Y-57768511D01*
D27*
X65530950Y-67183000D02*
X62355950Y-70358000D01*
D28*
X44847489Y-57768511D02*
X44958000Y-57658000D01*
D27*
X46250000Y-61363000D02*
X48768000Y-63881000D01*
X57404000Y-62103000D02*
X58547000Y-60960000D01*
X44958000Y-57658000D02*
X46250000Y-58950000D01*
X49446970Y-63881000D02*
X48768000Y-63881000D01*
X57277000Y-62103000D02*
X57404000Y-62103000D01*
X65659000Y-67183000D02*
X65530950Y-67183000D01*
X61043030Y-70358000D02*
X52840897Y-62155867D01*
D26*
X61766668Y-38862000D02*
X65046334Y-42141666D01*
D27*
X74639480Y-70648520D02*
X62139520Y-70648520D01*
D29*
X65046334Y-42141666D02*
X65046334Y-42268658D01*
D26*
X38735000Y-57531000D02*
X38735000Y-58547000D01*
%TO.N,GND*%
X63150000Y-36400000D02*
X63750000Y-37000000D01*
X46500000Y-47428500D02*
X46442500Y-47371000D01*
X45466000Y-49276000D02*
X45466000Y-50034000D01*
X46250000Y-40250000D02*
X46250000Y-43750000D01*
X37913040Y-55500000D02*
X38000000Y-55500000D01*
X44250000Y-48060000D02*
X45466000Y-49276000D01*
D27*
X48178000Y-47371000D02*
X46442500Y-47371000D01*
D26*
X45466000Y-50034000D02*
X44250000Y-51250000D01*
X53000000Y-36750000D02*
X53350000Y-36400000D01*
X38000000Y-59500000D02*
X37831520Y-59331520D01*
X53350000Y-36400000D02*
X63150000Y-36400000D01*
X37831520Y-55581520D02*
X37913040Y-55500000D01*
X44750000Y-40250000D02*
X44750000Y-43750000D01*
X50673000Y-61341000D02*
X51409000Y-61341000D01*
X37831520Y-59331520D02*
X37831520Y-55581520D01*
X44250000Y-47250000D02*
X44250000Y-48060000D01*
X46500000Y-51250000D02*
X46500000Y-47428500D01*
%TO.N,+1V1*%
X62661800Y-53517800D02*
X62661800Y-51490962D01*
D27*
X62305139Y-51134301D02*
X62354214Y-51085226D01*
X61227000Y-51181000D02*
X62258440Y-51181000D01*
D26*
X61899800Y-57835800D02*
X63487827Y-59423827D01*
X61849000Y-57835800D02*
X61899800Y-57835800D01*
D27*
X62258440Y-51181000D02*
X62305139Y-51134301D01*
D26*
X62661800Y-51490962D02*
X62305139Y-51134301D01*
X63487827Y-59423827D02*
X63487827Y-60880673D01*
%TO.N,Net-(C14-Pad1)*%
X51187542Y-66745542D02*
X51117000Y-66675000D01*
X52329654Y-66745542D02*
X51187542Y-66745542D01*
D28*
%TO.N,/7V4*%
X37084000Y-54229000D02*
X36957000Y-54102000D01*
X40300000Y-44900000D02*
X38381056Y-44900000D01*
X36957000Y-51435000D02*
X37211000Y-51689000D01*
D26*
X43215682Y-64262000D02*
X43180000Y-64226318D01*
D28*
X37211000Y-51689000D02*
X42246000Y-51689000D01*
X41796000Y-44900000D02*
X42754000Y-43942000D01*
X43307000Y-54229000D02*
X37084000Y-54229000D01*
D26*
X49467000Y-66675000D02*
X49467000Y-65967000D01*
D28*
X38381056Y-44900000D02*
X37031056Y-46250000D01*
X37907500Y-63561500D02*
X36957000Y-62611000D01*
D26*
X48750000Y-65250000D02*
X47762000Y-64262000D01*
D28*
X36957000Y-46293000D02*
X36957000Y-51435000D01*
X36957000Y-51435000D02*
X36957000Y-54102000D01*
D26*
X47762000Y-64262000D02*
X43215682Y-64262000D01*
D28*
X40300000Y-44900000D02*
X41796000Y-44900000D01*
X36957000Y-62611000D02*
X36957000Y-56896000D01*
X37000000Y-46250000D02*
X36957000Y-46293000D01*
X42246000Y-51689000D02*
X42754000Y-51181000D01*
X36957000Y-54102000D02*
X36957000Y-56896000D01*
X43942000Y-54864000D02*
X43307000Y-54229000D01*
X37031056Y-46250000D02*
X37000000Y-46250000D01*
D26*
X49467000Y-65967000D02*
X48750000Y-65250000D01*
D28*
X37907500Y-63688500D02*
X37907500Y-63561500D01*
D29*
%TO.N,/GPIO18_MO_B1*%
X49750000Y-46448000D02*
X49750000Y-42536500D01*
X57393225Y-51054000D02*
X54356000Y-51054000D01*
X48615500Y-41402000D02*
X48178000Y-41402000D01*
X58605112Y-52265887D02*
X57393225Y-51054000D01*
X49750000Y-42536500D02*
X48615500Y-41402000D01*
X54356000Y-51054000D02*
X49750000Y-46448000D01*
%TO.N,/GPIO19_MO_B2*%
X57180403Y-51689000D02*
X53594000Y-51689000D01*
X48615500Y-42672000D02*
X48178000Y-42672000D01*
X53594000Y-51689000D02*
X49250000Y-47345000D01*
X49250000Y-47345000D02*
X49250000Y-43306500D01*
X49250000Y-43306500D02*
X48615500Y-42672000D01*
X57736702Y-52245299D02*
X57180403Y-51689000D01*
D28*
%TO.N,/M1_MINUS*%
X42754000Y-49911000D02*
X39513000Y-49911000D01*
X39513000Y-49911000D02*
X39497000Y-49895000D01*
D26*
%TO.N,Net-(IC4-Pad7)*%
X41529000Y-48641000D02*
X41275000Y-48641000D01*
X42754000Y-48641000D02*
X41529000Y-48641000D01*
D28*
%TO.N,/M1_PLUS*%
X40021000Y-47371000D02*
X39497000Y-47895000D01*
X42754000Y-47371000D02*
X40021000Y-47371000D01*
%TO.N,/M2_MINUS*%
X39497000Y-42656000D02*
X42738000Y-42656000D01*
X42738000Y-42656000D02*
X42754000Y-42672000D01*
D26*
%TO.N,Net-(IC5-Pad7)*%
X41250000Y-41402000D02*
X42754000Y-41402000D01*
D28*
%TO.N,/M2_PLUS*%
X40021000Y-40132000D02*
X39497000Y-40656000D01*
X42754000Y-40132000D02*
X40021000Y-40132000D01*
D27*
%TO.N,+1V8*%
X55647511Y-44017489D02*
X58598511Y-44017489D01*
X54436000Y-45229000D02*
X55647511Y-44017489D01*
X58598511Y-44017489D02*
X59182000Y-43434000D01*
%TO.N,Net-(IC7-Pad1)*%
X48244273Y-67065673D02*
X48260000Y-67081400D01*
X46047373Y-67065673D02*
X48244273Y-67065673D01*
D29*
%TO.N,/RUN*%
X53361511Y-49000489D02*
X53297089Y-49064911D01*
X55500000Y-49007895D02*
X55492594Y-49000489D01*
X55492594Y-49000489D02*
X53361511Y-49000489D01*
D26*
%TO.N,Net-(C15-Pad1)*%
X53213000Y-64727673D02*
X53213000Y-70358000D01*
X51507336Y-63022009D02*
X53213000Y-64727673D01*
D29*
%TO.N,/GPIO14_IMU_SDA*%
X64897000Y-45085000D02*
X63119000Y-43307000D01*
X64897000Y-49548040D02*
X64897000Y-45085000D01*
X65859317Y-50510357D02*
X64897000Y-49548040D01*
D26*
%TO.N,/GPIO21_MO_A2*%
X49149000Y-50038000D02*
X48305000Y-50038000D01*
X49276000Y-50165000D02*
X49149000Y-50038000D01*
X48305000Y-50038000D02*
X48178000Y-49911000D01*
%TO.N,/GPIO20_MO_A1*%
X48559000Y-49022000D02*
X48178000Y-48641000D01*
X49276000Y-49022000D02*
X48559000Y-49022000D01*
%TO.N,/3V3A*%
X47416000Y-44704000D02*
X48178000Y-43942000D01*
X48279061Y-51282061D02*
X48178000Y-51181000D01*
X49403817Y-51282061D02*
X48279061Y-51282061D01*
X47371000Y-44704000D02*
X47416000Y-44704000D01*
%TD*%
%TA.AperFunction,Conductor*%
%TO.N,GND*%
G36*
X76538500Y-51112351D02*
G01*
X76538500Y-53175500D01*
X76518793Y-53261843D01*
X76463574Y-53331084D01*
X76383782Y-53369511D01*
X76339500Y-53374500D01*
X73145173Y-53374500D01*
X73058830Y-53354793D01*
X72986664Y-53295816D01*
X72916122Y-53202881D01*
X72907922Y-53192078D01*
X72787783Y-53100887D01*
X72770643Y-53094101D01*
X72659429Y-53050068D01*
X72659426Y-53050067D01*
X72647547Y-53045364D01*
X72557772Y-53034500D01*
X71242228Y-53034500D01*
X71152453Y-53045364D01*
X71140574Y-53050067D01*
X71140571Y-53050068D01*
X71029357Y-53094101D01*
X71012217Y-53100887D01*
X70892078Y-53192078D01*
X70800887Y-53312217D01*
X70795894Y-53324828D01*
X70776228Y-53374500D01*
X70745364Y-53452453D01*
X70734500Y-53542228D01*
X70734500Y-54157772D01*
X70745364Y-54247547D01*
X70750067Y-54259426D01*
X70750068Y-54259429D01*
X70784030Y-54345207D01*
X70800887Y-54387783D01*
X70892078Y-54507922D01*
X70902881Y-54516122D01*
X70902884Y-54516125D01*
X70907254Y-54519442D01*
X70964114Y-54587342D01*
X70985882Y-54673188D01*
X70968247Y-54759978D01*
X70927164Y-54819152D01*
X70910429Y-54835771D01*
X70812396Y-54990246D01*
X70751023Y-55162602D01*
X70729360Y-55344271D01*
X70748484Y-55526225D01*
X70752070Y-55536759D01*
X70752071Y-55536763D01*
X70755855Y-55547877D01*
X70807445Y-55699420D01*
X70903311Y-55855249D01*
X71007124Y-55961258D01*
X71053453Y-56036734D01*
X71062448Y-56124839D01*
X71032324Y-56208122D01*
X71005169Y-56241690D01*
X70910429Y-56335771D01*
X70812396Y-56490246D01*
X70751023Y-56662602D01*
X70729360Y-56844271D01*
X70748484Y-57026225D01*
X70752070Y-57036759D01*
X70752071Y-57036763D01*
X70755855Y-57047877D01*
X70807445Y-57199420D01*
X70813274Y-57208895D01*
X70894789Y-57341396D01*
X70923246Y-57425263D01*
X70912497Y-57513171D01*
X70864670Y-57587710D01*
X70851068Y-57599883D01*
X70833219Y-57614440D01*
X70819465Y-57628099D01*
X70703996Y-57767677D01*
X70693161Y-57783741D01*
X70607001Y-57943090D01*
X70599492Y-57960953D01*
X70564319Y-58074578D01*
X70562965Y-58092411D01*
X70574558Y-58096000D01*
X73219254Y-58096000D01*
X73236688Y-58092021D01*
X73236688Y-58079049D01*
X73205847Y-57974258D01*
X73198588Y-57956295D01*
X73114662Y-57795758D01*
X73104055Y-57779549D01*
X72990538Y-57638363D01*
X72976986Y-57624524D01*
X72945611Y-57598198D01*
X72892135Y-57527602D01*
X72874586Y-57440795D01*
X72896438Y-57354970D01*
X72905503Y-57339124D01*
X72981643Y-57219147D01*
X72987604Y-57209754D01*
X73048977Y-57037398D01*
X73070640Y-56855729D01*
X73051516Y-56673775D01*
X73047713Y-56662602D01*
X72996140Y-56511112D01*
X72992555Y-56500580D01*
X72896689Y-56344751D01*
X72792876Y-56238742D01*
X72746547Y-56163266D01*
X72737552Y-56075161D01*
X72767676Y-55991878D01*
X72794831Y-55958310D01*
X72889571Y-55864229D01*
X72987604Y-55709754D01*
X73048977Y-55537398D01*
X73070640Y-55355729D01*
X73051516Y-55173775D01*
X73047713Y-55162602D01*
X72996140Y-55011112D01*
X72992555Y-55000580D01*
X72896689Y-54844751D01*
X72880219Y-54827932D01*
X72870199Y-54817700D01*
X72823869Y-54742222D01*
X72814876Y-54654116D01*
X72845000Y-54570834D01*
X72892064Y-54519959D01*
X72897119Y-54516122D01*
X72907922Y-54507922D01*
X72986664Y-54404184D01*
X73054564Y-54347325D01*
X73145173Y-54325500D01*
X76339500Y-54325500D01*
X76425843Y-54345207D01*
X76495084Y-54400426D01*
X76533511Y-54480218D01*
X76538500Y-54524500D01*
X76538500Y-59889592D01*
X67500683Y-59810054D01*
X67500948Y-59373843D01*
X67501405Y-58620951D01*
X70563312Y-58620951D01*
X70594153Y-58725742D01*
X70601412Y-58743705D01*
X70685338Y-58904242D01*
X70695945Y-58920451D01*
X70809462Y-59061637D01*
X70823011Y-59075473D01*
X70961792Y-59191923D01*
X70977766Y-59202861D01*
X71136521Y-59290138D01*
X71154320Y-59297767D01*
X71327006Y-59352546D01*
X71345943Y-59356571D01*
X71486884Y-59372380D01*
X71497970Y-59373000D01*
X71623577Y-59373000D01*
X71642547Y-59368670D01*
X71646000Y-59361500D01*
X71646000Y-59350577D01*
X72154000Y-59350577D01*
X72158330Y-59369547D01*
X72165500Y-59373000D01*
X72295625Y-59373000D01*
X72305322Y-59372526D01*
X72439974Y-59359323D01*
X72458979Y-59355560D01*
X72632412Y-59303198D01*
X72650308Y-59295821D01*
X72810273Y-59210766D01*
X72826396Y-59200054D01*
X72966786Y-59085555D01*
X72980535Y-59071901D01*
X73096004Y-58932323D01*
X73106839Y-58916259D01*
X73192999Y-58756910D01*
X73200508Y-58739047D01*
X73235681Y-58625422D01*
X73237035Y-58607589D01*
X73225442Y-58604000D01*
X72176423Y-58604000D01*
X72157453Y-58608330D01*
X72154000Y-58615500D01*
X72154000Y-59350577D01*
X71646000Y-59350577D01*
X71646000Y-58626423D01*
X71641670Y-58607453D01*
X71634500Y-58604000D01*
X70580746Y-58604000D01*
X70563312Y-58607979D01*
X70563312Y-58620951D01*
X67501405Y-58620951D01*
X67505845Y-51309314D01*
X67506014Y-51031334D01*
X76538500Y-51112351D01*
G37*
%TD.AperFunction*%
%TD*%
%TA.AperFunction,Conductor*%
%TO.N,GND*%
G36*
X45045049Y-58565004D02*
G01*
X45124395Y-58604344D01*
X45139255Y-58617779D01*
X45641214Y-59119738D01*
X45688333Y-59194726D01*
X45699500Y-59260452D01*
X45699500Y-59501000D01*
X45679793Y-59587343D01*
X45624574Y-59656584D01*
X45544782Y-59695011D01*
X45500500Y-59700000D01*
X37956500Y-59700000D01*
X37870157Y-59680293D01*
X37800916Y-59625074D01*
X37762489Y-59545282D01*
X37757500Y-59501000D01*
X37757500Y-59001275D01*
X37777207Y-58914932D01*
X37832426Y-58845691D01*
X37912218Y-58807264D01*
X38000782Y-58807264D01*
X38080574Y-58845691D01*
X38121673Y-58890284D01*
X38200830Y-59008083D01*
X38326233Y-59122191D01*
X38475235Y-59203092D01*
X38550846Y-59222928D01*
X38627625Y-59243071D01*
X38627627Y-59243071D01*
X38639233Y-59246116D01*
X38730189Y-59247545D01*
X38796765Y-59248591D01*
X38796768Y-59248591D01*
X38808760Y-59248779D01*
X38820447Y-59246102D01*
X38820451Y-59246102D01*
X38910042Y-59225583D01*
X38974029Y-59210928D01*
X39125498Y-59134747D01*
X39254423Y-59024634D01*
X39264366Y-59010798D01*
X39346362Y-58896687D01*
X39353361Y-58886947D01*
X39388086Y-58800568D01*
X39405522Y-58757193D01*
X39416601Y-58729634D01*
X39418291Y-58717762D01*
X39418628Y-58716503D01*
X39460012Y-58638204D01*
X39531270Y-58585614D01*
X39610846Y-58569011D01*
X44838024Y-58569011D01*
X44840108Y-58569022D01*
X44917774Y-58569836D01*
X44917778Y-58569836D01*
X44928896Y-58569952D01*
X44951782Y-58565004D01*
X44956491Y-58563986D01*
X45045049Y-58565004D01*
G37*
%TD.AperFunction*%
%TA.AperFunction,Conductor*%
G36*
X51170846Y-49834247D02*
G01*
X51188633Y-49850026D01*
X53333091Y-51994484D01*
X53333095Y-51994487D01*
X53355658Y-52017050D01*
X53369613Y-52024160D01*
X53370137Y-52024427D01*
X53396759Y-52040741D01*
X53397237Y-52041088D01*
X53409911Y-52050296D01*
X53424807Y-52055136D01*
X53424809Y-52055137D01*
X53425361Y-52055316D01*
X53454211Y-52067266D01*
X53454736Y-52067534D01*
X53454742Y-52067536D01*
X53468696Y-52074646D01*
X53484743Y-52077187D01*
X53515110Y-52084478D01*
X53530567Y-52089500D01*
X56932082Y-52089500D01*
X57018425Y-52109207D01*
X57072796Y-52147786D01*
X57077296Y-52152286D01*
X57124415Y-52227274D01*
X57133879Y-52267025D01*
X57149954Y-52389123D01*
X57149955Y-52389128D01*
X57151658Y-52402061D01*
X57212166Y-52548140D01*
X57308420Y-52673581D01*
X57433861Y-52769835D01*
X57579940Y-52830343D01*
X57736702Y-52850981D01*
X57893464Y-52830343D01*
X58039543Y-52769835D01*
X58049892Y-52761894D01*
X58057541Y-52757478D01*
X58142170Y-52731373D01*
X58229744Y-52744573D01*
X58278181Y-52771938D01*
X58302271Y-52790423D01*
X58448350Y-52850931D01*
X58605112Y-52871569D01*
X58761874Y-52850931D01*
X58800000Y-52835139D01*
X58800000Y-59227906D01*
X58686928Y-59213020D01*
X58674000Y-59211318D01*
X58517238Y-59231956D01*
X58371159Y-59292464D01*
X58245718Y-59388718D01*
X58149464Y-59514159D01*
X58144471Y-59526213D01*
X58123371Y-59577153D01*
X58072123Y-59649382D01*
X57994610Y-59692222D01*
X57939519Y-59700000D01*
X55537410Y-59700000D01*
X55451067Y-59680293D01*
X55381826Y-59625074D01*
X55367738Y-59604983D01*
X55363537Y-59598128D01*
X55244367Y-59438539D01*
X55232205Y-59425031D01*
X55085951Y-59289836D01*
X55071531Y-59278771D01*
X55046212Y-59262796D01*
X54983706Y-59200055D01*
X54954612Y-59116407D01*
X54964693Y-59028420D01*
X55011952Y-58953519D01*
X55017302Y-58948795D01*
X55017261Y-58948752D01*
X55024309Y-58942041D01*
X55031979Y-58936048D01*
X55063538Y-58899487D01*
X55143142Y-58807264D01*
X55156982Y-58791230D01*
X55163958Y-58778951D01*
X55191145Y-58731093D01*
X55251476Y-58624891D01*
X55256238Y-58610578D01*
X55308789Y-58452601D01*
X55308789Y-58452600D01*
X55311861Y-58443366D01*
X55335838Y-58253569D01*
X55336220Y-58226200D01*
X55334980Y-58213547D01*
X55318502Y-58045499D01*
X55317552Y-58035808D01*
X55262259Y-57852667D01*
X55222398Y-57777701D01*
X55177014Y-57692345D01*
X55177011Y-57692341D01*
X55172446Y-57683755D01*
X55051535Y-57535503D01*
X54984049Y-57479674D01*
X54911628Y-57419762D01*
X54911627Y-57419761D01*
X54904132Y-57413561D01*
X54883102Y-57402190D01*
X54816524Y-57343790D01*
X54781877Y-57262285D01*
X54786025Y-57173819D01*
X54828147Y-57095913D01*
X54871115Y-57059121D01*
X54872548Y-57058212D01*
X54881228Y-57053827D01*
X55031979Y-56936048D01*
X55063538Y-56899487D01*
X55150621Y-56798599D01*
X55156982Y-56791230D01*
X55171984Y-56764823D01*
X55222365Y-56676135D01*
X55251476Y-56624891D01*
X55264067Y-56587043D01*
X55308789Y-56452601D01*
X55308789Y-56452600D01*
X55311861Y-56443366D01*
X55335838Y-56253569D01*
X55336220Y-56226200D01*
X55333930Y-56202839D01*
X55319203Y-56052647D01*
X55317552Y-56035808D01*
X55262259Y-55852667D01*
X55215607Y-55764928D01*
X55177014Y-55692345D01*
X55177011Y-55692341D01*
X55172446Y-55683755D01*
X55156999Y-55664814D01*
X55057687Y-55543046D01*
X55057686Y-55543045D01*
X55051535Y-55535503D01*
X55044033Y-55529297D01*
X55037179Y-55522395D01*
X55039502Y-55520088D01*
X54997059Y-55464853D01*
X54978910Y-55378169D01*
X55000170Y-55292195D01*
X55056627Y-55223959D01*
X55102892Y-55200937D01*
X55101846Y-55198582D01*
X55187361Y-55160598D01*
X55187362Y-55160597D01*
X55204153Y-55153139D01*
X55247022Y-55110195D01*
X55270260Y-55086917D01*
X55270261Y-55086916D01*
X55283241Y-55073913D01*
X55328506Y-54971527D01*
X55330239Y-54956665D01*
X55330831Y-54951588D01*
X55330831Y-54951581D01*
X55331500Y-54945846D01*
X55331500Y-53506554D01*
X55330805Y-53500712D01*
X55330147Y-53495181D01*
X55330146Y-53495178D01*
X55328382Y-53480354D01*
X55307207Y-53432682D01*
X55290398Y-53394839D01*
X55290397Y-53394838D01*
X55282939Y-53378047D01*
X55234608Y-53329800D01*
X55216717Y-53311940D01*
X55216716Y-53311939D01*
X55203713Y-53298959D01*
X55135441Y-53268776D01*
X55115012Y-53259744D01*
X55115011Y-53259744D01*
X55101327Y-53253694D01*
X55086467Y-53251962D01*
X55086465Y-53251961D01*
X55081388Y-53251369D01*
X55081381Y-53251369D01*
X55075646Y-53250700D01*
X53636354Y-53250700D01*
X53630516Y-53251395D01*
X53630512Y-53251395D01*
X53624981Y-53252053D01*
X53624978Y-53252054D01*
X53610154Y-53253818D01*
X53596507Y-53259880D01*
X53596506Y-53259880D01*
X53524639Y-53291802D01*
X53524638Y-53291803D01*
X53507847Y-53299261D01*
X53494867Y-53312264D01*
X53442156Y-53365067D01*
X53428759Y-53378487D01*
X53383494Y-53480873D01*
X53380500Y-53506554D01*
X53380500Y-54945846D01*
X53381195Y-54951684D01*
X53381195Y-54951688D01*
X53381788Y-54956665D01*
X53383618Y-54972046D01*
X53389680Y-54985693D01*
X53389680Y-54985694D01*
X53417892Y-55049207D01*
X53429061Y-55074353D01*
X53464966Y-55110195D01*
X53494959Y-55140136D01*
X53508287Y-55153441D01*
X53536627Y-55165970D01*
X53610673Y-55198706D01*
X53609248Y-55201929D01*
X53664688Y-55231545D01*
X53716963Y-55303036D01*
X53733042Y-55390127D01*
X53709741Y-55475570D01*
X53674873Y-55522084D01*
X53670176Y-55525860D01*
X53622049Y-55583216D01*
X53554072Y-55664227D01*
X53547207Y-55672408D01*
X53455045Y-55840050D01*
X53452103Y-55849325D01*
X53452102Y-55849327D01*
X53424748Y-55935560D01*
X53397200Y-56022401D01*
X53375876Y-56212514D01*
X53391884Y-56403148D01*
X53394567Y-56412506D01*
X53394568Y-56412510D01*
X53423956Y-56515000D01*
X53444614Y-56587043D01*
X53449062Y-56595697D01*
X53449062Y-56595698D01*
X53501451Y-56697634D01*
X53532060Y-56757193D01*
X53538105Y-56764820D01*
X53538107Y-56764823D01*
X53644840Y-56899487D01*
X53644844Y-56899491D01*
X53650889Y-56907118D01*
X53709990Y-56957417D01*
X53789159Y-57024796D01*
X53789162Y-57024798D01*
X53796575Y-57031107D01*
X53805074Y-57035857D01*
X53805077Y-57035859D01*
X53832845Y-57051378D01*
X53898602Y-57110704D01*
X53932106Y-57192685D01*
X53926722Y-57281085D01*
X53883515Y-57358394D01*
X53835618Y-57395509D01*
X53836037Y-57396149D01*
X53828035Y-57401385D01*
X53827962Y-57401442D01*
X53819268Y-57405987D01*
X53670176Y-57525860D01*
X53547207Y-57672408D01*
X53455045Y-57840050D01*
X53452103Y-57849325D01*
X53452102Y-57849327D01*
X53419943Y-57950707D01*
X53397200Y-58022401D01*
X53375876Y-58212514D01*
X53379786Y-58259078D01*
X53389228Y-58371513D01*
X53391884Y-58403148D01*
X53394567Y-58412506D01*
X53394568Y-58412510D01*
X53438003Y-58563986D01*
X53444614Y-58587043D01*
X53449062Y-58595697D01*
X53449062Y-58595698D01*
X53522696Y-58738972D01*
X53532060Y-58757193D01*
X53538105Y-58764820D01*
X53538107Y-58764823D01*
X53644840Y-58899487D01*
X53644844Y-58899491D01*
X53650889Y-58907118D01*
X53689327Y-58939832D01*
X53742307Y-59010798D01*
X53759250Y-59097726D01*
X53736798Y-59183396D01*
X53679398Y-59250841D01*
X53669797Y-59257255D01*
X53650809Y-59271051D01*
X53501064Y-59402373D01*
X53488559Y-59415551D01*
X53365249Y-59571969D01*
X53355354Y-59587206D01*
X53351957Y-59593662D01*
X53294312Y-59660897D01*
X53213204Y-59696462D01*
X53175847Y-59700000D01*
X51803610Y-59700000D01*
X51717267Y-59680293D01*
X51648026Y-59625074D01*
X51633938Y-59604983D01*
X51629737Y-59598128D01*
X51510567Y-59438539D01*
X51498405Y-59425031D01*
X51352151Y-59289836D01*
X51337731Y-59278771D01*
X51312412Y-59262796D01*
X51249906Y-59200055D01*
X51220812Y-59116407D01*
X51230893Y-59028420D01*
X51278152Y-58953519D01*
X51283502Y-58948795D01*
X51283461Y-58948752D01*
X51290509Y-58942041D01*
X51298179Y-58936048D01*
X51329738Y-58899487D01*
X51409342Y-58807264D01*
X51423182Y-58791230D01*
X51430158Y-58778951D01*
X51457345Y-58731093D01*
X51517676Y-58624891D01*
X51522438Y-58610578D01*
X51574989Y-58452601D01*
X51574989Y-58452600D01*
X51578061Y-58443366D01*
X51602038Y-58253569D01*
X51602420Y-58226200D01*
X51601180Y-58213547D01*
X51584702Y-58045499D01*
X51583752Y-58035808D01*
X51528459Y-57852667D01*
X51488598Y-57777701D01*
X51443214Y-57692345D01*
X51443211Y-57692341D01*
X51438646Y-57683755D01*
X51317735Y-57535503D01*
X51250249Y-57479674D01*
X51177828Y-57419762D01*
X51177827Y-57419761D01*
X51170332Y-57413561D01*
X51149302Y-57402190D01*
X51082724Y-57343790D01*
X51048077Y-57262285D01*
X51052225Y-57173819D01*
X51094347Y-57095913D01*
X51137315Y-57059121D01*
X51138748Y-57058212D01*
X51147428Y-57053827D01*
X51298179Y-56936048D01*
X51329738Y-56899487D01*
X51416821Y-56798599D01*
X51423182Y-56791230D01*
X51438184Y-56764823D01*
X51488565Y-56676135D01*
X51517676Y-56624891D01*
X51530267Y-56587043D01*
X51574989Y-56452601D01*
X51574989Y-56452600D01*
X51578061Y-56443366D01*
X51602038Y-56253569D01*
X51602420Y-56226200D01*
X51600130Y-56202839D01*
X51585403Y-56052647D01*
X51583752Y-56035808D01*
X51528459Y-55852667D01*
X51481807Y-55764928D01*
X51443214Y-55692345D01*
X51443211Y-55692341D01*
X51438646Y-55683755D01*
X51423199Y-55664814D01*
X51323887Y-55543046D01*
X51323886Y-55543045D01*
X51317735Y-55535503D01*
X51310233Y-55529297D01*
X51303379Y-55522395D01*
X51305702Y-55520088D01*
X51263259Y-55464853D01*
X51245110Y-55378169D01*
X51266370Y-55292195D01*
X51322827Y-55223959D01*
X51369092Y-55200937D01*
X51368046Y-55198582D01*
X51453561Y-55160598D01*
X51453562Y-55160597D01*
X51470353Y-55153139D01*
X51513222Y-55110195D01*
X51536460Y-55086917D01*
X51536461Y-55086916D01*
X51549441Y-55073913D01*
X51594706Y-54971527D01*
X51596439Y-54956665D01*
X51597031Y-54951588D01*
X51597031Y-54951581D01*
X51597700Y-54945846D01*
X51597700Y-53506554D01*
X51597005Y-53500712D01*
X51596347Y-53495181D01*
X51596346Y-53495178D01*
X51594582Y-53480354D01*
X51573407Y-53432682D01*
X51556598Y-53394839D01*
X51556597Y-53394838D01*
X51549139Y-53378047D01*
X51500808Y-53329800D01*
X51482917Y-53311940D01*
X51482916Y-53311939D01*
X51469913Y-53298959D01*
X51401641Y-53268776D01*
X51381212Y-53259744D01*
X51381211Y-53259744D01*
X51367527Y-53253694D01*
X51352667Y-53251962D01*
X51352665Y-53251961D01*
X51347588Y-53251369D01*
X51347581Y-53251369D01*
X51341846Y-53250700D01*
X51070434Y-53250700D01*
X50984091Y-53230993D01*
X50914850Y-53175774D01*
X50876423Y-53095982D01*
X50871439Y-53053164D01*
X50870104Y-52871569D01*
X50853463Y-50609274D01*
X50848924Y-49992204D01*
X50867996Y-49905718D01*
X50922704Y-49836072D01*
X51002212Y-49797060D01*
X51090772Y-49796409D01*
X51170846Y-49834247D01*
G37*
%TD.AperFunction*%
%TA.AperFunction,Conductor*%
G36*
X49387343Y-36320207D02*
G01*
X49456584Y-36375426D01*
X49495011Y-36455218D01*
X49500000Y-36499498D01*
X49499999Y-36959506D01*
X49499997Y-39194680D01*
X49480290Y-39281023D01*
X49425071Y-39350265D01*
X49345278Y-39388691D01*
X49256715Y-39388691D01*
X49205429Y-39369230D01*
X49173690Y-39351852D01*
X49062387Y-39310127D01*
X49038304Y-39304401D01*
X48993949Y-39299582D01*
X48983199Y-39299000D01*
X48454423Y-39299000D01*
X48435453Y-39303330D01*
X48432000Y-39310500D01*
X48432000Y-40187000D01*
X48412293Y-40273343D01*
X48357074Y-40342584D01*
X48277282Y-40381011D01*
X48233000Y-40386000D01*
X46927990Y-40386000D01*
X46858135Y-40373337D01*
X46782885Y-40345127D01*
X46758802Y-40339400D01*
X46714449Y-40334582D01*
X46703699Y-40334000D01*
X45742423Y-40334000D01*
X45723453Y-40338330D01*
X45720000Y-40345500D01*
X45720000Y-43717576D01*
X45724330Y-43736546D01*
X45731500Y-43739999D01*
X46703696Y-43739999D01*
X46714453Y-43739416D01*
X46758799Y-43734600D01*
X46782893Y-43728871D01*
X46846146Y-43705159D01*
X46933912Y-43693304D01*
X47018130Y-43720703D01*
X47082121Y-43781929D01*
X47113209Y-43864857D01*
X47115000Y-43891496D01*
X47115000Y-43926558D01*
X47095293Y-44012901D01*
X47040074Y-44082142D01*
X47007271Y-44103393D01*
X46985030Y-44114872D01*
X46985027Y-44114874D01*
X46974369Y-44120375D01*
X46965330Y-44128261D01*
X46965326Y-44128263D01*
X46855647Y-44223942D01*
X46846604Y-44231831D01*
X46839706Y-44241646D01*
X46839705Y-44241647D01*
X46797858Y-44301189D01*
X46749113Y-44370547D01*
X46744754Y-44381727D01*
X46691898Y-44517295D01*
X46687524Y-44528513D01*
X46682327Y-44567989D01*
X46671956Y-44646770D01*
X46665394Y-44696611D01*
X46666710Y-44708532D01*
X46666710Y-44708535D01*
X46680282Y-44831469D01*
X46683999Y-44865135D01*
X46742266Y-45024356D01*
X46748956Y-45034311D01*
X46748956Y-45034312D01*
X46761975Y-45053687D01*
X46836830Y-45165083D01*
X46962233Y-45279191D01*
X47111235Y-45360092D01*
X47186846Y-45379928D01*
X47263625Y-45400071D01*
X47263627Y-45400071D01*
X47275233Y-45403116D01*
X47366189Y-45404545D01*
X47432765Y-45405591D01*
X47432768Y-45405591D01*
X47444760Y-45405779D01*
X47456447Y-45403102D01*
X47456451Y-45403102D01*
X47546042Y-45382583D01*
X47610029Y-45367928D01*
X47761498Y-45291747D01*
X47890423Y-45181634D01*
X47989361Y-45043947D01*
X48000317Y-45016695D01*
X48048125Y-44897769D01*
X48048126Y-44897767D01*
X48052601Y-44886634D01*
X48061066Y-44827160D01*
X48067602Y-44781231D01*
X48099279Y-44698526D01*
X48123903Y-44668556D01*
X48166673Y-44625786D01*
X48241661Y-44578667D01*
X48307387Y-44567500D01*
X48650500Y-44567500D01*
X48736843Y-44587207D01*
X48806084Y-44642426D01*
X48844511Y-44722218D01*
X48849500Y-44766500D01*
X48849500Y-46339000D01*
X48829793Y-46425343D01*
X48774574Y-46494584D01*
X48694782Y-46533011D01*
X48650500Y-46538000D01*
X48454423Y-46538000D01*
X48435453Y-46542330D01*
X48432000Y-46549500D01*
X48432000Y-47426000D01*
X48412293Y-47512343D01*
X48357074Y-47581584D01*
X48277282Y-47620011D01*
X48233000Y-47625000D01*
X46927990Y-47625000D01*
X46858135Y-47612337D01*
X46782885Y-47584127D01*
X46758802Y-47578400D01*
X46714449Y-47573582D01*
X46703699Y-47573000D01*
X45742423Y-47573000D01*
X45723453Y-47577330D01*
X45720000Y-47584500D01*
X45720000Y-50956576D01*
X45724330Y-50975546D01*
X45731500Y-50978999D01*
X46703696Y-50978999D01*
X46714453Y-50978416D01*
X46758799Y-50973600D01*
X46782893Y-50967871D01*
X46846146Y-50944159D01*
X46933912Y-50932304D01*
X47018130Y-50959703D01*
X47082121Y-51020929D01*
X47113209Y-51103857D01*
X47115000Y-51130496D01*
X47115000Y-51550646D01*
X47115695Y-51556484D01*
X47115695Y-51556488D01*
X47116288Y-51561465D01*
X47118118Y-51576846D01*
X47124180Y-51590493D01*
X47124180Y-51590494D01*
X47155145Y-51660205D01*
X47163561Y-51679153D01*
X47176564Y-51692133D01*
X47229459Y-51744936D01*
X47242787Y-51758241D01*
X47311059Y-51788424D01*
X47331181Y-51797320D01*
X47345173Y-51803506D01*
X47360033Y-51805238D01*
X47360035Y-51805239D01*
X47365112Y-51805831D01*
X47365119Y-51805831D01*
X47370854Y-51806500D01*
X48862614Y-51806500D01*
X48948957Y-51826207D01*
X48977891Y-51843289D01*
X48986173Y-51849174D01*
X48995050Y-51857252D01*
X49144052Y-51938153D01*
X49308050Y-51981177D01*
X49320050Y-51981365D01*
X49327995Y-51982454D01*
X49410864Y-52013698D01*
X49471970Y-52077803D01*
X49499211Y-52162073D01*
X49499986Y-52179609D01*
X49499985Y-53154477D01*
X49511451Y-53154462D01*
X49512199Y-53154822D01*
X49594753Y-53183646D01*
X49657420Y-53246227D01*
X49686727Y-53329800D01*
X49676872Y-53417813D01*
X49671006Y-53432667D01*
X49649694Y-53480873D01*
X49646700Y-53506554D01*
X49646700Y-54945846D01*
X49647395Y-54951684D01*
X49647395Y-54951688D01*
X49647988Y-54956665D01*
X49649818Y-54972046D01*
X49655880Y-54985693D01*
X49655880Y-54985694D01*
X49684092Y-55049207D01*
X49695261Y-55074353D01*
X49731166Y-55110195D01*
X49761159Y-55140136D01*
X49774487Y-55153441D01*
X49802827Y-55165970D01*
X49876873Y-55198706D01*
X49875448Y-55201929D01*
X49930888Y-55231545D01*
X49983163Y-55303036D01*
X49999242Y-55390127D01*
X49975941Y-55475570D01*
X49941073Y-55522084D01*
X49936376Y-55525860D01*
X49888249Y-55583216D01*
X49820272Y-55664227D01*
X49813407Y-55672408D01*
X49721245Y-55840050D01*
X49718303Y-55849325D01*
X49718302Y-55849327D01*
X49690948Y-55935560D01*
X49663400Y-56022401D01*
X49642076Y-56212514D01*
X49658084Y-56403148D01*
X49660767Y-56412506D01*
X49660768Y-56412510D01*
X49690156Y-56515000D01*
X49710814Y-56587043D01*
X49715262Y-56595697D01*
X49715262Y-56595698D01*
X49767651Y-56697634D01*
X49798260Y-56757193D01*
X49804305Y-56764820D01*
X49804307Y-56764823D01*
X49911040Y-56899487D01*
X49911044Y-56899491D01*
X49917089Y-56907118D01*
X49976190Y-56957417D01*
X50055359Y-57024796D01*
X50055362Y-57024798D01*
X50062775Y-57031107D01*
X50071274Y-57035857D01*
X50071277Y-57035859D01*
X50099045Y-57051378D01*
X50164802Y-57110704D01*
X50198306Y-57192685D01*
X50192922Y-57281085D01*
X50149715Y-57358394D01*
X50101818Y-57395509D01*
X50102237Y-57396149D01*
X50094235Y-57401385D01*
X50094162Y-57401442D01*
X50085468Y-57405987D01*
X49936376Y-57525860D01*
X49813407Y-57672408D01*
X49721245Y-57840050D01*
X49718303Y-57849325D01*
X49718302Y-57849327D01*
X49686143Y-57950707D01*
X49663400Y-58022401D01*
X49642076Y-58212514D01*
X49645986Y-58259078D01*
X49655428Y-58371513D01*
X49658084Y-58403148D01*
X49660767Y-58412506D01*
X49660768Y-58412510D01*
X49704203Y-58563986D01*
X49710814Y-58587043D01*
X49715262Y-58595697D01*
X49715262Y-58595698D01*
X49788896Y-58738972D01*
X49798260Y-58757193D01*
X49804305Y-58764820D01*
X49804307Y-58764823D01*
X49911040Y-58899487D01*
X49911044Y-58899491D01*
X49917089Y-58907118D01*
X49955527Y-58939832D01*
X50008507Y-59010798D01*
X50025450Y-59097726D01*
X50002998Y-59183396D01*
X49945598Y-59250841D01*
X49935997Y-59257255D01*
X49917009Y-59271051D01*
X49767264Y-59402373D01*
X49754759Y-59415551D01*
X49631449Y-59571969D01*
X49621554Y-59587206D01*
X49618157Y-59593662D01*
X49560512Y-59660897D01*
X49479404Y-59696462D01*
X49442047Y-59700000D01*
X46999500Y-59700000D01*
X46913157Y-59680293D01*
X46843916Y-59625074D01*
X46805489Y-59545282D01*
X46800500Y-59501000D01*
X46800500Y-58966523D01*
X46800675Y-58958190D01*
X46802642Y-58911263D01*
X46802642Y-58911262D01*
X46803210Y-58897706D01*
X46798076Y-58875816D01*
X46794061Y-58858696D01*
X46790644Y-58840265D01*
X46787046Y-58814003D01*
X46785206Y-58800568D01*
X46779819Y-58788120D01*
X46777259Y-58778951D01*
X46775287Y-58772986D01*
X46771867Y-58764076D01*
X46768768Y-58750864D01*
X46749463Y-58715748D01*
X46741217Y-58698916D01*
X46730691Y-58674591D01*
X46730690Y-58674590D01*
X46725305Y-58662145D01*
X46716771Y-58651606D01*
X46711842Y-58643467D01*
X46707087Y-58636391D01*
X46707082Y-58636394D01*
X46701135Y-58627838D01*
X46696107Y-58618692D01*
X46689103Y-58610578D01*
X46667271Y-58588746D01*
X46653333Y-58573267D01*
X46638925Y-58555475D01*
X46630386Y-58544930D01*
X46619324Y-58537069D01*
X46618284Y-58536092D01*
X46594615Y-58516090D01*
X45877239Y-57798714D01*
X45830120Y-57723726D01*
X45820204Y-57635719D01*
X45849455Y-57552126D01*
X45877239Y-57517286D01*
X47592529Y-55801995D01*
X47643829Y-55764928D01*
X47750781Y-55711137D01*
X47761498Y-55705747D01*
X47854483Y-55626330D01*
X47881300Y-55603426D01*
X47881301Y-55603425D01*
X47890423Y-55595634D01*
X47920761Y-55553415D01*
X47982362Y-55467687D01*
X47989361Y-55457947D01*
X47997548Y-55437583D01*
X48048125Y-55311769D01*
X48048126Y-55311767D01*
X48052601Y-55300634D01*
X48057909Y-55263342D01*
X48068750Y-55187166D01*
X48076490Y-55132778D01*
X48076645Y-55118000D01*
X48075701Y-55110195D01*
X48060576Y-54985212D01*
X48056276Y-54949680D01*
X48052036Y-54938459D01*
X48052035Y-54938455D01*
X48000588Y-54802306D01*
X47996345Y-54791077D01*
X47900312Y-54651349D01*
X47891358Y-54643371D01*
X47891356Y-54643369D01*
X47850601Y-54607058D01*
X47773721Y-54538560D01*
X47763115Y-54532945D01*
X47763113Y-54532943D01*
X47634485Y-54464838D01*
X47634481Y-54464837D01*
X47623881Y-54459224D01*
X47459441Y-54417919D01*
X47447440Y-54417856D01*
X47447439Y-54417856D01*
X47379755Y-54417502D01*
X47289895Y-54417031D01*
X47125032Y-54456612D01*
X47114374Y-54462113D01*
X46985030Y-54528872D01*
X46985027Y-54528874D01*
X46974369Y-54534375D01*
X46965330Y-54542261D01*
X46965326Y-54542263D01*
X46855647Y-54637942D01*
X46846604Y-54645831D01*
X46749113Y-54784547D01*
X46687524Y-54942513D01*
X46665394Y-55110611D01*
X46662234Y-55110195D01*
X46646442Y-55176198D01*
X46608775Y-55228701D01*
X45038987Y-56798489D01*
X44963999Y-56845608D01*
X44896191Y-56856764D01*
X44887716Y-56856675D01*
X44887712Y-56856675D01*
X44876593Y-56856559D01*
X44865725Y-56858909D01*
X44865723Y-56858909D01*
X44711930Y-56892160D01*
X44711927Y-56892161D01*
X44701058Y-56894511D01*
X44690978Y-56899211D01*
X44690976Y-56899212D01*
X44660490Y-56913428D01*
X44585698Y-56948304D01*
X44583418Y-56949367D01*
X44499318Y-56968011D01*
X39602003Y-56968011D01*
X39515660Y-56948304D01*
X39446419Y-56893085D01*
X39407992Y-56813293D01*
X39409784Y-56717503D01*
X39412124Y-56708771D01*
X39416601Y-56697634D01*
X39440490Y-56529778D01*
X39440645Y-56515000D01*
X39420276Y-56346680D01*
X39416036Y-56335459D01*
X39416035Y-56335455D01*
X39364588Y-56199306D01*
X39360345Y-56188077D01*
X39264312Y-56048349D01*
X39255358Y-56040371D01*
X39255356Y-56040369D01*
X39218562Y-56007587D01*
X39137721Y-55935560D01*
X39127115Y-55929945D01*
X39127113Y-55929943D01*
X38998485Y-55861838D01*
X38998481Y-55861837D01*
X38987881Y-55856224D01*
X38908881Y-55836380D01*
X38835082Y-55817843D01*
X38823441Y-55814919D01*
X38811440Y-55814856D01*
X38811439Y-55814856D01*
X38743755Y-55814502D01*
X38653895Y-55814031D01*
X38489032Y-55853612D01*
X38478374Y-55859113D01*
X38349030Y-55925872D01*
X38349027Y-55925874D01*
X38338369Y-55931375D01*
X38329330Y-55939261D01*
X38329326Y-55939263D01*
X38219647Y-56034942D01*
X38210604Y-56042831D01*
X38199732Y-56058301D01*
X38119312Y-56172727D01*
X38053541Y-56232036D01*
X37968550Y-56256936D01*
X37881172Y-56242493D01*
X37808714Y-56191569D01*
X37765527Y-56114249D01*
X37757500Y-56058301D01*
X37757500Y-55228500D01*
X37777207Y-55142157D01*
X37832426Y-55072916D01*
X37912218Y-55034489D01*
X37956500Y-55029500D01*
X42892994Y-55029500D01*
X42979337Y-55049207D01*
X43033708Y-55087786D01*
X43407891Y-55461969D01*
X43512734Y-55545664D01*
X43674423Y-55623828D01*
X43849411Y-55664227D01*
X43860530Y-55664266D01*
X43860532Y-55664266D01*
X43939792Y-55664542D01*
X44029001Y-55664853D01*
X44204267Y-55625677D01*
X44366498Y-55548644D01*
X44379106Y-55538723D01*
X44498891Y-55444460D01*
X44507630Y-55437583D01*
X44620650Y-55298015D01*
X44636403Y-55266001D01*
X44695029Y-55146859D01*
X44695030Y-55146857D01*
X44699941Y-55136876D01*
X44702885Y-55124521D01*
X44738981Y-54973004D01*
X44738981Y-54973003D01*
X44741561Y-54962174D01*
X44741793Y-54940067D01*
X44743325Y-54793715D01*
X44743325Y-54793711D01*
X44743441Y-54782593D01*
X44705490Y-54607058D01*
X44629591Y-54444293D01*
X44543902Y-54333824D01*
X44299792Y-54089714D01*
X44252673Y-54014726D01*
X44242757Y-53926719D01*
X44272008Y-53843126D01*
X44334632Y-53780502D01*
X44418225Y-53751251D01*
X44440506Y-53750000D01*
X48000000Y-53750000D01*
X48000000Y-52500000D01*
X43047506Y-52500000D01*
X42961163Y-52480293D01*
X42891922Y-52425074D01*
X42853495Y-52345282D01*
X42853495Y-52256718D01*
X42891922Y-52176926D01*
X42906792Y-52160286D01*
X43202292Y-51864786D01*
X43277280Y-51817667D01*
X43343006Y-51806500D01*
X43561146Y-51806500D01*
X43566984Y-51805805D01*
X43566988Y-51805805D01*
X43572519Y-51805147D01*
X43572522Y-51805146D01*
X43587346Y-51803382D01*
X43672246Y-51765671D01*
X43672861Y-51765398D01*
X43672862Y-51765397D01*
X43689653Y-51757939D01*
X43729263Y-51718260D01*
X43755760Y-51691717D01*
X43755761Y-51691716D01*
X43768741Y-51678713D01*
X43814006Y-51576327D01*
X43817000Y-51550646D01*
X43817000Y-51130496D01*
X43836707Y-51044153D01*
X43891926Y-50974912D01*
X43971718Y-50936485D01*
X44060282Y-50936485D01*
X44085854Y-50944159D01*
X44149110Y-50967873D01*
X44173196Y-50973599D01*
X44217551Y-50978418D01*
X44228301Y-50979000D01*
X45189577Y-50979000D01*
X45208547Y-50974670D01*
X45212000Y-50967500D01*
X45212000Y-47595424D01*
X45207670Y-47576454D01*
X45200500Y-47573001D01*
X44228304Y-47573001D01*
X44217547Y-47573584D01*
X44173201Y-47578400D01*
X44149107Y-47584129D01*
X44085854Y-47607841D01*
X43998088Y-47619696D01*
X43913870Y-47592297D01*
X43849879Y-47531071D01*
X43818791Y-47448143D01*
X43817000Y-47421504D01*
X43817000Y-47094577D01*
X46907500Y-47094577D01*
X46911830Y-47113547D01*
X46919000Y-47117000D01*
X47901577Y-47117000D01*
X47920547Y-47112670D01*
X47924000Y-47105500D01*
X47924000Y-46560424D01*
X47919670Y-46541454D01*
X47912500Y-46538001D01*
X47372804Y-46538001D01*
X47362047Y-46538584D01*
X47317701Y-46543400D01*
X47293610Y-46549128D01*
X47182309Y-46590853D01*
X47157696Y-46604328D01*
X47063939Y-46674595D01*
X47044095Y-46694439D01*
X46973828Y-46788196D01*
X46960353Y-46812809D01*
X46918627Y-46924113D01*
X46912901Y-46948196D01*
X46908082Y-46992551D01*
X46907500Y-47003301D01*
X46907500Y-47094577D01*
X43817000Y-47094577D01*
X43817000Y-47001354D01*
X43816305Y-46995512D01*
X43815647Y-46989981D01*
X43815646Y-46989978D01*
X43813882Y-46975154D01*
X43793239Y-46928680D01*
X43775898Y-46889639D01*
X43775897Y-46889638D01*
X43768439Y-46872847D01*
X43728760Y-46833237D01*
X43702217Y-46806740D01*
X43702216Y-46806739D01*
X43689213Y-46793759D01*
X43586827Y-46748494D01*
X43571967Y-46746762D01*
X43571965Y-46746761D01*
X43566888Y-46746169D01*
X43566881Y-46746169D01*
X43561146Y-46745500D01*
X43319799Y-46745500D01*
X43233456Y-46725793D01*
X43211999Y-46713773D01*
X43151206Y-46674595D01*
X43112183Y-46649446D01*
X42943422Y-46588022D01*
X42932389Y-46586628D01*
X42932388Y-46586628D01*
X42862773Y-46577834D01*
X42804717Y-46570500D01*
X40030465Y-46570500D01*
X40028381Y-46570489D01*
X39950715Y-46569675D01*
X39950711Y-46569675D01*
X39939593Y-46569559D01*
X39928720Y-46571910D01*
X39928718Y-46571910D01*
X39901315Y-46577834D01*
X39881449Y-46581088D01*
X39863400Y-46583113D01*
X39842528Y-46585454D01*
X39832018Y-46589114D01*
X39815464Y-46594879D01*
X39792069Y-46601455D01*
X39774935Y-46605159D01*
X39774931Y-46605160D01*
X39764058Y-46607511D01*
X39728568Y-46624060D01*
X39709914Y-46631634D01*
X39672927Y-46644515D01*
X39663493Y-46650410D01*
X39663491Y-46650411D01*
X39648621Y-46659703D01*
X39627265Y-46671298D01*
X39601293Y-46683409D01*
X39592503Y-46690227D01*
X39592502Y-46690228D01*
X39570352Y-46707410D01*
X39553835Y-46718932D01*
X39530061Y-46733787D01*
X39530056Y-46733791D01*
X39520625Y-46739684D01*
X39512732Y-46747522D01*
X39512727Y-46747526D01*
X39491922Y-46768186D01*
X39491547Y-46768537D01*
X39490823Y-46769099D01*
X39465310Y-46794612D01*
X39464819Y-46795102D01*
X39397751Y-46861704D01*
X39322598Y-46908561D01*
X39257528Y-46919500D01*
X38777354Y-46919500D01*
X38771516Y-46920195D01*
X38771512Y-46920195D01*
X38765981Y-46920853D01*
X38765978Y-46920854D01*
X38751154Y-46922618D01*
X38737507Y-46928680D01*
X38737506Y-46928680D01*
X38665639Y-46960602D01*
X38665638Y-46960603D01*
X38648847Y-46968061D01*
X38569759Y-47047287D01*
X38524494Y-47149673D01*
X38521500Y-47175354D01*
X38521500Y-48614646D01*
X38524618Y-48640846D01*
X38530680Y-48654493D01*
X38530680Y-48654494D01*
X38542905Y-48682015D01*
X38570061Y-48743153D01*
X38649287Y-48822241D01*
X38751393Y-48867382D01*
X38751673Y-48867506D01*
X38750248Y-48870729D01*
X38805688Y-48900345D01*
X38857963Y-48971836D01*
X38874042Y-49058927D01*
X38850741Y-49144370D01*
X38815873Y-49190884D01*
X38811176Y-49194660D01*
X38804919Y-49202117D01*
X38705091Y-49321087D01*
X38688207Y-49341208D01*
X38596045Y-49508850D01*
X38593103Y-49518125D01*
X38593102Y-49518127D01*
X38547676Y-49661330D01*
X38538200Y-49691201D01*
X38516876Y-49881314D01*
X38532884Y-50071948D01*
X38585614Y-50255843D01*
X38673060Y-50425993D01*
X38679105Y-50433620D01*
X38679107Y-50433623D01*
X38783942Y-50565892D01*
X38822129Y-50645800D01*
X38821864Y-50734362D01*
X38783199Y-50814040D01*
X38713793Y-50869051D01*
X38627987Y-50888500D01*
X37956500Y-50888500D01*
X37870157Y-50868793D01*
X37800916Y-50813574D01*
X37762489Y-50733782D01*
X37757500Y-50689500D01*
X37757500Y-46738062D01*
X37777207Y-46651719D01*
X37815786Y-46597348D01*
X38654348Y-45758786D01*
X38729336Y-45711667D01*
X38795062Y-45700500D01*
X41786535Y-45700500D01*
X41788619Y-45700511D01*
X41866285Y-45701325D01*
X41866289Y-45701325D01*
X41877407Y-45701441D01*
X41888280Y-45699090D01*
X41888282Y-45699090D01*
X41915685Y-45693166D01*
X41935551Y-45689912D01*
X41953600Y-45687887D01*
X41974472Y-45685546D01*
X42001538Y-45676121D01*
X42024931Y-45669545D01*
X42042065Y-45665841D01*
X42042069Y-45665840D01*
X42052942Y-45663489D01*
X42088434Y-45646939D01*
X42107087Y-45639365D01*
X42133566Y-45630144D01*
X42144073Y-45626485D01*
X42156558Y-45618684D01*
X42168379Y-45611297D01*
X42189735Y-45599702D01*
X42205621Y-45592294D01*
X42215707Y-45587591D01*
X42246648Y-45563590D01*
X42263165Y-45552068D01*
X42286939Y-45537213D01*
X42286944Y-45537209D01*
X42296375Y-45531316D01*
X42304268Y-45523478D01*
X42304273Y-45523474D01*
X42325078Y-45502814D01*
X42325453Y-45502463D01*
X42326177Y-45501901D01*
X42351690Y-45476388D01*
X42352181Y-45475898D01*
X42354169Y-45473924D01*
X42423807Y-45404770D01*
X42424504Y-45403671D01*
X42425359Y-45402719D01*
X43202292Y-44625786D01*
X43277280Y-44578667D01*
X43343006Y-44567500D01*
X43561146Y-44567500D01*
X43566984Y-44566805D01*
X43566988Y-44566805D01*
X43572519Y-44566147D01*
X43572522Y-44566146D01*
X43587346Y-44564382D01*
X43668099Y-44528513D01*
X43672861Y-44526398D01*
X43672862Y-44526397D01*
X43689653Y-44518939D01*
X43734860Y-44473653D01*
X43755760Y-44452717D01*
X43755761Y-44452716D01*
X43768741Y-44439713D01*
X43814006Y-44337327D01*
X43817000Y-44311646D01*
X43817000Y-43891496D01*
X43836707Y-43805153D01*
X43891926Y-43735912D01*
X43971718Y-43697485D01*
X44060282Y-43697485D01*
X44085854Y-43705159D01*
X44149110Y-43728873D01*
X44173196Y-43734599D01*
X44217551Y-43739418D01*
X44228301Y-43740000D01*
X45189577Y-43740000D01*
X45208547Y-43735670D01*
X45212000Y-43728500D01*
X45212000Y-40356424D01*
X45207670Y-40337454D01*
X45200500Y-40334001D01*
X44228304Y-40334001D01*
X44217547Y-40334584D01*
X44173201Y-40339400D01*
X44149107Y-40345129D01*
X44085854Y-40368841D01*
X43998088Y-40380696D01*
X43913870Y-40353297D01*
X43849879Y-40292071D01*
X43818791Y-40209143D01*
X43817000Y-40182504D01*
X43817000Y-39855577D01*
X46907500Y-39855577D01*
X46911830Y-39874547D01*
X46919000Y-39878000D01*
X47901577Y-39878000D01*
X47920547Y-39873670D01*
X47924000Y-39866500D01*
X47924000Y-39321424D01*
X47919670Y-39302454D01*
X47912500Y-39299001D01*
X47372804Y-39299001D01*
X47362047Y-39299584D01*
X47317701Y-39304400D01*
X47293610Y-39310128D01*
X47182309Y-39351853D01*
X47157696Y-39365328D01*
X47063939Y-39435595D01*
X47044095Y-39455439D01*
X46973828Y-39549196D01*
X46960353Y-39573809D01*
X46918627Y-39685113D01*
X46912901Y-39709196D01*
X46908082Y-39753551D01*
X46907500Y-39764301D01*
X46907500Y-39855577D01*
X43817000Y-39855577D01*
X43817000Y-39762354D01*
X43816305Y-39756512D01*
X43815647Y-39750981D01*
X43815646Y-39750978D01*
X43813882Y-39736154D01*
X43793239Y-39689680D01*
X43775898Y-39650639D01*
X43775897Y-39650638D01*
X43768439Y-39633847D01*
X43728760Y-39594237D01*
X43702217Y-39567740D01*
X43702216Y-39567739D01*
X43689213Y-39554759D01*
X43586827Y-39509494D01*
X43571967Y-39507762D01*
X43571965Y-39507761D01*
X43566888Y-39507169D01*
X43566881Y-39507169D01*
X43561146Y-39506500D01*
X43319799Y-39506500D01*
X43233456Y-39486793D01*
X43211999Y-39474773D01*
X43171613Y-39448746D01*
X43112183Y-39410446D01*
X42943422Y-39349022D01*
X42932389Y-39347628D01*
X42932388Y-39347628D01*
X42852213Y-39337500D01*
X42804717Y-39331500D01*
X40030465Y-39331500D01*
X40028381Y-39331489D01*
X39950715Y-39330675D01*
X39950711Y-39330675D01*
X39939593Y-39330559D01*
X39928720Y-39332910D01*
X39928718Y-39332910D01*
X39901315Y-39338834D01*
X39881449Y-39342088D01*
X39863400Y-39344113D01*
X39842528Y-39346454D01*
X39832018Y-39350114D01*
X39815464Y-39355879D01*
X39792069Y-39362455D01*
X39774935Y-39366159D01*
X39774931Y-39366160D01*
X39764058Y-39368511D01*
X39742437Y-39378593D01*
X39728568Y-39385060D01*
X39709914Y-39392634D01*
X39672927Y-39405515D01*
X39663493Y-39411410D01*
X39663491Y-39411411D01*
X39648621Y-39420703D01*
X39627265Y-39432298D01*
X39601293Y-39444409D01*
X39592503Y-39451227D01*
X39592502Y-39451228D01*
X39570352Y-39468410D01*
X39553835Y-39479932D01*
X39530061Y-39494787D01*
X39530056Y-39494791D01*
X39520625Y-39500684D01*
X39512732Y-39508522D01*
X39512727Y-39508526D01*
X39491922Y-39529186D01*
X39491547Y-39529537D01*
X39490823Y-39530099D01*
X39465310Y-39555612D01*
X39464819Y-39556102D01*
X39397751Y-39622704D01*
X39322598Y-39669561D01*
X39257528Y-39680500D01*
X38777354Y-39680500D01*
X38771516Y-39681195D01*
X38771512Y-39681195D01*
X38765981Y-39681853D01*
X38765978Y-39681854D01*
X38751154Y-39683618D01*
X38737507Y-39689680D01*
X38737506Y-39689680D01*
X38665639Y-39721602D01*
X38665638Y-39721603D01*
X38648847Y-39729061D01*
X38569759Y-39808287D01*
X38524494Y-39910673D01*
X38521500Y-39936354D01*
X38521500Y-41375646D01*
X38524618Y-41401846D01*
X38530680Y-41415493D01*
X38530680Y-41415494D01*
X38550941Y-41461107D01*
X38570061Y-41504153D01*
X38649287Y-41583241D01*
X38751393Y-41628382D01*
X38751673Y-41628506D01*
X38750248Y-41631729D01*
X38805688Y-41661345D01*
X38857963Y-41732836D01*
X38874042Y-41819927D01*
X38850741Y-41905370D01*
X38815873Y-41951884D01*
X38811176Y-41955660D01*
X38804919Y-41963117D01*
X38732440Y-42049494D01*
X38688207Y-42102208D01*
X38596045Y-42269850D01*
X38538200Y-42452201D01*
X38516876Y-42642314D01*
X38532884Y-42832948D01*
X38585614Y-43016843D01*
X38673060Y-43186993D01*
X38679105Y-43194620D01*
X38679107Y-43194623D01*
X38785840Y-43329287D01*
X38785844Y-43329291D01*
X38791889Y-43336918D01*
X38824602Y-43364759D01*
X38930159Y-43454596D01*
X38930162Y-43454598D01*
X38937575Y-43460907D01*
X38946068Y-43465654D01*
X38946073Y-43465657D01*
X39096075Y-43549490D01*
X39096081Y-43549492D01*
X39104570Y-43554237D01*
X39113825Y-43557244D01*
X39113827Y-43557245D01*
X39277253Y-43610346D01*
X39277257Y-43610347D01*
X39286512Y-43613354D01*
X39296176Y-43614506D01*
X39296179Y-43614507D01*
X39466809Y-43634853D01*
X39466811Y-43634853D01*
X39476472Y-43636005D01*
X39667213Y-43621328D01*
X39851472Y-43569882D01*
X39860151Y-43565498D01*
X39860156Y-43565496D01*
X40013541Y-43488015D01*
X40015103Y-43487226D01*
X40015106Y-43487225D01*
X40022228Y-43483627D01*
X40022686Y-43484534D01*
X40097841Y-43457854D01*
X40121016Y-43456500D01*
X41492000Y-43456500D01*
X41578343Y-43476207D01*
X41647584Y-43531426D01*
X41686011Y-43611218D01*
X41691000Y-43655500D01*
X41691000Y-43790494D01*
X41671293Y-43876837D01*
X41632714Y-43931208D01*
X41522708Y-44041214D01*
X41447720Y-44088333D01*
X41381994Y-44099500D01*
X38390521Y-44099500D01*
X38388437Y-44099489D01*
X38310771Y-44098675D01*
X38310767Y-44098675D01*
X38299649Y-44098559D01*
X38288776Y-44100910D01*
X38288774Y-44100910D01*
X38261371Y-44106834D01*
X38241505Y-44110088D01*
X38223456Y-44112113D01*
X38202584Y-44114454D01*
X38192074Y-44118114D01*
X38175520Y-44123879D01*
X38152123Y-44130455D01*
X38124114Y-44136511D01*
X38088618Y-44153063D01*
X38069969Y-44160635D01*
X38043495Y-44169854D01*
X38043492Y-44169855D01*
X38032983Y-44173515D01*
X38023545Y-44179413D01*
X38023544Y-44179413D01*
X38008673Y-44188705D01*
X37987328Y-44200294D01*
X37971436Y-44207705D01*
X37971430Y-44207708D01*
X37961348Y-44212410D01*
X37930484Y-44236351D01*
X37930407Y-44236411D01*
X37913900Y-44247926D01*
X37880681Y-44268684D01*
X37872787Y-44276523D01*
X37872782Y-44276527D01*
X37851978Y-44297186D01*
X37851603Y-44297537D01*
X37850879Y-44298099D01*
X37825366Y-44323612D01*
X37824875Y-44324102D01*
X37753249Y-44395230D01*
X37752552Y-44396329D01*
X37751697Y-44397281D01*
X36640214Y-45508764D01*
X36565226Y-45555883D01*
X36477219Y-45565799D01*
X36393626Y-45536548D01*
X36331002Y-45473924D01*
X36301751Y-45390331D01*
X36300500Y-45368050D01*
X36300500Y-37705314D01*
X41453876Y-37705314D01*
X41469884Y-37895948D01*
X41472567Y-37905306D01*
X41472568Y-37905310D01*
X41507204Y-38026102D01*
X41522614Y-38079843D01*
X41527062Y-38088497D01*
X41527062Y-38088498D01*
X41600701Y-38231782D01*
X41610060Y-38249993D01*
X41616105Y-38257620D01*
X41616107Y-38257623D01*
X41722840Y-38392287D01*
X41722844Y-38392291D01*
X41728889Y-38399918D01*
X41800057Y-38460487D01*
X41867159Y-38517596D01*
X41867162Y-38517598D01*
X41874575Y-38523907D01*
X41883068Y-38528654D01*
X41883073Y-38528657D01*
X42033075Y-38612490D01*
X42033081Y-38612492D01*
X42041570Y-38617237D01*
X42050825Y-38620244D01*
X42050827Y-38620245D01*
X42214253Y-38673346D01*
X42214257Y-38673347D01*
X42223512Y-38676354D01*
X42233176Y-38677506D01*
X42233179Y-38677507D01*
X42403809Y-38697853D01*
X42403811Y-38697853D01*
X42413472Y-38699005D01*
X42604213Y-38684328D01*
X42788472Y-38632882D01*
X42797151Y-38628498D01*
X42797156Y-38628496D01*
X42950547Y-38551012D01*
X42950546Y-38551012D01*
X42959228Y-38546627D01*
X43109979Y-38428848D01*
X43127254Y-38408834D01*
X43198588Y-38356352D01*
X43285632Y-38340018D01*
X43371143Y-38363067D01*
X43438185Y-38420936D01*
X43459845Y-38465633D01*
X43461618Y-38464846D01*
X43497944Y-38546627D01*
X43507061Y-38567153D01*
X43546740Y-38606763D01*
X43572959Y-38632936D01*
X43586287Y-38646241D01*
X43654400Y-38676354D01*
X43674681Y-38685320D01*
X43688673Y-38691506D01*
X43703533Y-38693238D01*
X43703535Y-38693239D01*
X43708612Y-38693831D01*
X43708619Y-38693831D01*
X43714354Y-38694500D01*
X45153646Y-38694500D01*
X45159484Y-38693805D01*
X45159488Y-38693805D01*
X45165019Y-38693147D01*
X45165022Y-38693146D01*
X45179846Y-38691382D01*
X45193494Y-38685320D01*
X45265361Y-38653398D01*
X45265362Y-38653397D01*
X45282153Y-38645939D01*
X45345385Y-38582597D01*
X45348260Y-38579717D01*
X45348261Y-38579716D01*
X45361241Y-38566713D01*
X45406506Y-38464327D01*
X45409500Y-38438646D01*
X45409500Y-36999354D01*
X45406382Y-36973154D01*
X45376059Y-36904887D01*
X45368398Y-36887639D01*
X45368397Y-36887638D01*
X45360939Y-36870847D01*
X45300142Y-36810156D01*
X45294717Y-36804740D01*
X45294716Y-36804739D01*
X45281713Y-36791759D01*
X45199155Y-36755260D01*
X45193012Y-36752544D01*
X45193011Y-36752544D01*
X45179327Y-36746494D01*
X45164467Y-36744762D01*
X45164465Y-36744761D01*
X45159388Y-36744169D01*
X45159381Y-36744169D01*
X45153646Y-36743500D01*
X43714354Y-36743500D01*
X43708516Y-36744195D01*
X43708512Y-36744195D01*
X43702981Y-36744853D01*
X43702978Y-36744854D01*
X43688154Y-36746618D01*
X43674507Y-36752680D01*
X43674506Y-36752680D01*
X43602639Y-36784602D01*
X43602638Y-36784603D01*
X43585847Y-36792061D01*
X43562578Y-36815371D01*
X43520156Y-36857867D01*
X43506759Y-36871287D01*
X43461494Y-36973673D01*
X43458257Y-36972242D01*
X43428683Y-37027614D01*
X43357197Y-37079895D01*
X43270107Y-37095982D01*
X43184662Y-37072688D01*
X43137208Y-37037378D01*
X43135688Y-37035848D01*
X43129535Y-37028303D01*
X43080794Y-36987981D01*
X42989628Y-36912562D01*
X42989627Y-36912561D01*
X42982132Y-36906361D01*
X42813851Y-36815371D01*
X42631101Y-36758801D01*
X42483208Y-36743257D01*
X42450520Y-36739821D01*
X42450519Y-36739821D01*
X42440843Y-36738804D01*
X42250325Y-36756142D01*
X42240986Y-36758891D01*
X42240984Y-36758891D01*
X42076149Y-36807405D01*
X42076146Y-36807406D01*
X42066803Y-36810156D01*
X42058175Y-36814666D01*
X42058169Y-36814669D01*
X41923477Y-36885085D01*
X41897268Y-36898787D01*
X41748176Y-37018660D01*
X41625207Y-37165208D01*
X41533045Y-37332850D01*
X41530103Y-37342125D01*
X41530102Y-37342127D01*
X41508154Y-37411318D01*
X41475200Y-37515201D01*
X41453876Y-37705314D01*
X36300500Y-37705314D01*
X36300500Y-36499500D01*
X36320207Y-36413157D01*
X36375426Y-36343916D01*
X36455218Y-36305489D01*
X36499500Y-36300500D01*
X49301000Y-36300500D01*
X49387343Y-36320207D01*
G37*
%TD.AperFunction*%
%TA.AperFunction,Conductor*%
G36*
X53921642Y-36320207D02*
G01*
X53990883Y-36375426D01*
X54029310Y-36455218D01*
X54029310Y-36543782D01*
X53990883Y-36623574D01*
X53927494Y-36675855D01*
X53860025Y-36711126D01*
X53860021Y-36711128D01*
X53851399Y-36715636D01*
X53843818Y-36721732D01*
X53843814Y-36721734D01*
X53740174Y-36805064D01*
X53689011Y-36846200D01*
X53555075Y-37005818D01*
X53454693Y-37188411D01*
X53452947Y-37187451D01*
X53408587Y-37248389D01*
X53330561Y-37290286D01*
X53242083Y-37294179D01*
X53160678Y-37259297D01*
X53102470Y-37192549D01*
X53090796Y-37166474D01*
X53090296Y-37165101D01*
X53003722Y-36979444D01*
X52995074Y-36964464D01*
X52968675Y-36926761D01*
X52954545Y-36913975D01*
X52941731Y-36922479D01*
X52271065Y-37593145D01*
X52260713Y-37609620D01*
X52263341Y-37617131D01*
X52939960Y-38293750D01*
X52956097Y-38303890D01*
X52967236Y-38293294D01*
X52995074Y-38253536D01*
X53003722Y-38238556D01*
X53090296Y-38052900D01*
X53091713Y-38049006D01*
X53093147Y-38046786D01*
X53093968Y-38045025D01*
X53094211Y-38045138D01*
X53139762Y-37974610D01*
X53215331Y-37928428D01*
X53303454Y-37919609D01*
X53386677Y-37949898D01*
X53448516Y-38013297D01*
X53455706Y-38026100D01*
X53538577Y-38187350D01*
X53544624Y-38194980D01*
X53544625Y-38194981D01*
X53573793Y-38231782D01*
X53668003Y-38350646D01*
X53675416Y-38356955D01*
X53675417Y-38356956D01*
X53819267Y-38479382D01*
X53819270Y-38479384D01*
X53826683Y-38485693D01*
X53835176Y-38490440D01*
X53835181Y-38490443D01*
X53942911Y-38550650D01*
X54008571Y-38587346D01*
X54017833Y-38590355D01*
X54017832Y-38590355D01*
X54188902Y-38645939D01*
X54206740Y-38651735D01*
X54226807Y-38654128D01*
X54338583Y-38667457D01*
X54421985Y-38697249D01*
X54484201Y-38760278D01*
X54512909Y-38844059D01*
X54513417Y-38853655D01*
X54512318Y-38862000D01*
X54532956Y-39018762D01*
X54593464Y-39164841D01*
X54689718Y-39290282D01*
X54815159Y-39386536D01*
X54961238Y-39447044D01*
X55118000Y-39467682D01*
X55274762Y-39447044D01*
X55420841Y-39386536D01*
X55431192Y-39378593D01*
X55442482Y-39372075D01*
X55443099Y-39373143D01*
X55511646Y-39341696D01*
X55552296Y-39337500D01*
X58800000Y-39337500D01*
X58800000Y-42970205D01*
X58753718Y-43005718D01*
X58657464Y-43131159D01*
X58652471Y-43143213D01*
X58638067Y-43177986D01*
X58594931Y-43242544D01*
X58500558Y-43336918D01*
X58428773Y-43408703D01*
X58353784Y-43455822D01*
X58288058Y-43466989D01*
X55664034Y-43466989D01*
X55655701Y-43466814D01*
X55608774Y-43464847D01*
X55608773Y-43464847D01*
X55595217Y-43464279D01*
X55582005Y-43467378D01*
X55582004Y-43467378D01*
X55556207Y-43473428D01*
X55537776Y-43476845D01*
X55531048Y-43477767D01*
X55498079Y-43482283D01*
X55485631Y-43487670D01*
X55476462Y-43490230D01*
X55470486Y-43492206D01*
X55461584Y-43495623D01*
X55448375Y-43498721D01*
X55413261Y-43518025D01*
X55396433Y-43526269D01*
X55359656Y-43542184D01*
X55349116Y-43550719D01*
X55340987Y-43555642D01*
X55333898Y-43560406D01*
X55333901Y-43560410D01*
X55325341Y-43566359D01*
X55316203Y-43571383D01*
X55308089Y-43578386D01*
X55286257Y-43600218D01*
X55270778Y-43614156D01*
X55242441Y-43637103D01*
X55234580Y-43648165D01*
X55233603Y-43649205D01*
X55213601Y-43672874D01*
X54765422Y-44121053D01*
X54690434Y-44168172D01*
X54603907Y-44178249D01*
X54453130Y-44162402D01*
X54453129Y-44162402D01*
X54443453Y-44161385D01*
X54235944Y-44180270D01*
X54142729Y-44207705D01*
X54045398Y-44236351D01*
X54045396Y-44236352D01*
X54036055Y-44239101D01*
X53964465Y-44276527D01*
X53860025Y-44331126D01*
X53860021Y-44331128D01*
X53851399Y-44335636D01*
X53843818Y-44341732D01*
X53843814Y-44341734D01*
X53730443Y-44432888D01*
X53689011Y-44466200D01*
X53555075Y-44625818D01*
X53454693Y-44808411D01*
X53451751Y-44817686D01*
X53451750Y-44817688D01*
X53447379Y-44831469D01*
X53391690Y-45007025D01*
X53390606Y-45016692D01*
X53390605Y-45016695D01*
X53373055Y-45173152D01*
X53368463Y-45214093D01*
X53376180Y-45305986D01*
X53384696Y-45407399D01*
X53385899Y-45421730D01*
X53388581Y-45431084D01*
X53388582Y-45431088D01*
X53440651Y-45612673D01*
X53443333Y-45622025D01*
X53447780Y-45630678D01*
X53513619Y-45758786D01*
X53538577Y-45807350D01*
X53544624Y-45814980D01*
X53544625Y-45814981D01*
X53573801Y-45851792D01*
X53668003Y-45970646D01*
X53675416Y-45976955D01*
X53675417Y-45976956D01*
X53819267Y-46099382D01*
X53819270Y-46099384D01*
X53826683Y-46105693D01*
X53835176Y-46110440D01*
X53835181Y-46110443D01*
X53958619Y-46179429D01*
X54008571Y-46207346D01*
X54206740Y-46271735D01*
X54216401Y-46272887D01*
X54403979Y-46295255D01*
X54403981Y-46295255D01*
X54413641Y-46296407D01*
X54621394Y-46280421D01*
X54822085Y-46224387D01*
X54914035Y-46177940D01*
X54999389Y-46134825D01*
X54999392Y-46134823D01*
X55008071Y-46130439D01*
X55172266Y-46002156D01*
X55178626Y-45994788D01*
X55178630Y-45994784D01*
X55302056Y-45851792D01*
X55308417Y-45844423D01*
X55319309Y-45825251D01*
X55406531Y-45671713D01*
X55406532Y-45671711D01*
X55411339Y-45663249D01*
X55477109Y-45465534D01*
X55483869Y-45412029D01*
X55502529Y-45264316D01*
X55503225Y-45258810D01*
X55503641Y-45229000D01*
X55503099Y-45223469D01*
X55503099Y-45223467D01*
X55487004Y-45059317D01*
X55498191Y-44971464D01*
X55544340Y-44899185D01*
X55592435Y-44851090D01*
X55667423Y-44803971D01*
X55755430Y-44794055D01*
X55839023Y-44823306D01*
X55901647Y-44885930D01*
X55930898Y-44969523D01*
X55930909Y-45013987D01*
X55913197Y-45171893D01*
X55908463Y-45214093D01*
X55916180Y-45305986D01*
X55924696Y-45407399D01*
X55925899Y-45421730D01*
X55928581Y-45431084D01*
X55928582Y-45431088D01*
X55980651Y-45612673D01*
X55983333Y-45622025D01*
X55987780Y-45630678D01*
X56053619Y-45758786D01*
X56078577Y-45807350D01*
X56084624Y-45814980D01*
X56084625Y-45814981D01*
X56113801Y-45851792D01*
X56208003Y-45970646D01*
X56215416Y-45976955D01*
X56215417Y-45976956D01*
X56359267Y-46099382D01*
X56359270Y-46099384D01*
X56366683Y-46105693D01*
X56375176Y-46110440D01*
X56375181Y-46110443D01*
X56498619Y-46179429D01*
X56548571Y-46207346D01*
X56746740Y-46271735D01*
X56756401Y-46272887D01*
X56943979Y-46295255D01*
X56943981Y-46295255D01*
X56953641Y-46296407D01*
X57161394Y-46280421D01*
X57362085Y-46224387D01*
X57454035Y-46177940D01*
X57539389Y-46134825D01*
X57539392Y-46134823D01*
X57548071Y-46130439D01*
X57712266Y-46002156D01*
X57718626Y-45994788D01*
X57718630Y-45994784D01*
X57842056Y-45851792D01*
X57848417Y-45844423D01*
X57859309Y-45825251D01*
X57946531Y-45671713D01*
X57946532Y-45671711D01*
X57951339Y-45663249D01*
X58017109Y-45465534D01*
X58023869Y-45412029D01*
X58042529Y-45264316D01*
X58043225Y-45258810D01*
X58043641Y-45229000D01*
X58043099Y-45223467D01*
X58031688Y-45107095D01*
X58023308Y-45021627D01*
X57963793Y-44824505D01*
X57957703Y-44736153D01*
X57990551Y-44653907D01*
X58055831Y-44594058D01*
X58140615Y-44568460D01*
X58154299Y-44567989D01*
X58339061Y-44567989D01*
X58425404Y-44587696D01*
X58494645Y-44642915D01*
X58533072Y-44722707D01*
X58533072Y-44811271D01*
X58528749Y-44827150D01*
X58471690Y-45007025D01*
X58470606Y-45016692D01*
X58470605Y-45016695D01*
X58453055Y-45173152D01*
X58448463Y-45214093D01*
X58456180Y-45305986D01*
X58464696Y-45407399D01*
X58465899Y-45421730D01*
X58468581Y-45431084D01*
X58468582Y-45431088D01*
X58520651Y-45612673D01*
X58523333Y-45622025D01*
X58527780Y-45630678D01*
X58593619Y-45758786D01*
X58618577Y-45807350D01*
X58624624Y-45814980D01*
X58624625Y-45814981D01*
X58653801Y-45851792D01*
X58748003Y-45970646D01*
X58755416Y-45976955D01*
X58755417Y-45976956D01*
X58800000Y-46014899D01*
X58800000Y-48813782D01*
X58789218Y-48831274D01*
X58779515Y-48852082D01*
X58732763Y-48993033D01*
X58728236Y-49014153D01*
X58719518Y-49099244D01*
X58719000Y-49109378D01*
X58719000Y-49126577D01*
X58723330Y-49145547D01*
X58730500Y-49149000D01*
X58800000Y-49149000D01*
X58800000Y-49657000D01*
X58741423Y-49657000D01*
X58722453Y-49661330D01*
X58719000Y-49668500D01*
X58719000Y-49696558D01*
X58719531Y-49706825D01*
X58728482Y-49793085D01*
X58733051Y-49814243D01*
X58780041Y-49955089D01*
X58789782Y-49975885D01*
X58800000Y-49992397D01*
X58800000Y-50591782D01*
X58789218Y-50609274D01*
X58779515Y-50630082D01*
X58732763Y-50771033D01*
X58728236Y-50792153D01*
X58719518Y-50877244D01*
X58719000Y-50887378D01*
X58719000Y-50904577D01*
X58723330Y-50923547D01*
X58730500Y-50927000D01*
X58800000Y-50927000D01*
X58800000Y-51435000D01*
X58741423Y-51435000D01*
X58722452Y-51439330D01*
X58721434Y-51441444D01*
X58666214Y-51510685D01*
X58586420Y-51549109D01*
X58497856Y-51549107D01*
X58418065Y-51510678D01*
X58401429Y-51495811D01*
X57654134Y-50748516D01*
X57654130Y-50748513D01*
X57631567Y-50725950D01*
X57617092Y-50718575D01*
X57590467Y-50702260D01*
X57577315Y-50692704D01*
X57561859Y-50687682D01*
X57533009Y-50675732D01*
X57532486Y-50675465D01*
X57532483Y-50675464D01*
X57518529Y-50668354D01*
X57502482Y-50665813D01*
X57472115Y-50658522D01*
X57456658Y-50653500D01*
X54604321Y-50653500D01*
X54517978Y-50633793D01*
X54463607Y-50595214D01*
X53679985Y-49811592D01*
X53632866Y-49736604D01*
X53622950Y-49648597D01*
X53652201Y-49565004D01*
X53699555Y-49513002D01*
X53725371Y-49493193D01*
X53733312Y-49482844D01*
X53736382Y-49478844D01*
X53741811Y-49474346D01*
X53742537Y-49473620D01*
X53742605Y-49473688D01*
X53804579Y-49422341D01*
X53894258Y-49400989D01*
X54958310Y-49400989D01*
X55044653Y-49420696D01*
X55079447Y-49442108D01*
X55197159Y-49532431D01*
X55343238Y-49592939D01*
X55500000Y-49613577D01*
X55656762Y-49592939D01*
X55802841Y-49532431D01*
X55928282Y-49436177D01*
X56024536Y-49310736D01*
X56085044Y-49164657D01*
X56105682Y-49007895D01*
X56085044Y-48851133D01*
X56024536Y-48705054D01*
X55928282Y-48579613D01*
X55917933Y-48571672D01*
X55908711Y-48562450D01*
X55911178Y-48559983D01*
X55869479Y-48509670D01*
X55848146Y-48423714D01*
X55866222Y-48337015D01*
X55920124Y-48266744D01*
X55999178Y-48226820D01*
X56073084Y-48222663D01*
X56121069Y-48228980D01*
X56121072Y-48228980D01*
X56134000Y-48230682D01*
X56290762Y-48210044D01*
X56436841Y-48149536D01*
X56562282Y-48053282D01*
X56658536Y-47927841D01*
X56719044Y-47781762D01*
X56739682Y-47625000D01*
X56719044Y-47468238D01*
X56658536Y-47322159D01*
X56562282Y-47196718D01*
X56436841Y-47100464D01*
X56290762Y-47039956D01*
X56134000Y-47019318D01*
X55977238Y-47039956D01*
X55831159Y-47100464D01*
X55705718Y-47196718D01*
X55609464Y-47322159D01*
X55548956Y-47468238D01*
X55528318Y-47625000D01*
X55548956Y-47781762D01*
X55609464Y-47927841D01*
X55705718Y-48053282D01*
X55716067Y-48061223D01*
X55725289Y-48070445D01*
X55722822Y-48072912D01*
X55764521Y-48123225D01*
X55785854Y-48209181D01*
X55767778Y-48295880D01*
X55713876Y-48366151D01*
X55634822Y-48406075D01*
X55560916Y-48410232D01*
X55512931Y-48403915D01*
X55512928Y-48403915D01*
X55500000Y-48402213D01*
X55343238Y-48422851D01*
X55197159Y-48483359D01*
X55098753Y-48558868D01*
X55018259Y-48595794D01*
X54977613Y-48599989D01*
X53745172Y-48599989D01*
X53658829Y-48580282D01*
X53624028Y-48558866D01*
X53610279Y-48548316D01*
X53599930Y-48540375D01*
X53453851Y-48479867D01*
X53297089Y-48459229D01*
X53140327Y-48479867D01*
X52994248Y-48540375D01*
X52868807Y-48636629D01*
X52848998Y-48662444D01*
X52780805Y-48718947D01*
X52694846Y-48740266D01*
X52608149Y-48722178D01*
X52550408Y-48682015D01*
X50884287Y-47015894D01*
X50837168Y-46940906D01*
X50826006Y-46876644D01*
X50820596Y-46141157D01*
X50839668Y-46054671D01*
X50894375Y-45985025D01*
X50973883Y-45946013D01*
X51062444Y-45945362D01*
X51148567Y-45988147D01*
X51279267Y-46099382D01*
X51279270Y-46099384D01*
X51286683Y-46105693D01*
X51295176Y-46110440D01*
X51295181Y-46110443D01*
X51418619Y-46179429D01*
X51468571Y-46207346D01*
X51666740Y-46271735D01*
X51676401Y-46272887D01*
X51863979Y-46295255D01*
X51863981Y-46295255D01*
X51873641Y-46296407D01*
X52081394Y-46280421D01*
X52282085Y-46224387D01*
X52374035Y-46177940D01*
X52459389Y-46134825D01*
X52459392Y-46134823D01*
X52468071Y-46130439D01*
X52632266Y-46002156D01*
X52638626Y-45994788D01*
X52638630Y-45994784D01*
X52762056Y-45851792D01*
X52768417Y-45844423D01*
X52779309Y-45825251D01*
X52866531Y-45671713D01*
X52866532Y-45671711D01*
X52871339Y-45663249D01*
X52937109Y-45465534D01*
X52943869Y-45412029D01*
X52962529Y-45264316D01*
X52963225Y-45258810D01*
X52963641Y-45229000D01*
X52963099Y-45223467D01*
X52951688Y-45107095D01*
X52943308Y-45021627D01*
X52883083Y-44822154D01*
X52878516Y-44813564D01*
X52789831Y-44646770D01*
X52789828Y-44646766D01*
X52785261Y-44638176D01*
X52743692Y-44587207D01*
X52659714Y-44484241D01*
X52653567Y-44476704D01*
X52493017Y-44343885D01*
X52484454Y-44339255D01*
X52484451Y-44339253D01*
X52318291Y-44249411D01*
X52309728Y-44244781D01*
X52300430Y-44241903D01*
X52300428Y-44241902D01*
X52149409Y-44195154D01*
X52110679Y-44183165D01*
X51944292Y-44165677D01*
X51913130Y-44162402D01*
X51913129Y-44162402D01*
X51903453Y-44161385D01*
X51695944Y-44180270D01*
X51602729Y-44207705D01*
X51505398Y-44236351D01*
X51505396Y-44236352D01*
X51496055Y-44239101D01*
X51424465Y-44276527D01*
X51320025Y-44331126D01*
X51320021Y-44331128D01*
X51311399Y-44335636D01*
X51303818Y-44341732D01*
X51303814Y-44341734D01*
X51190443Y-44432888D01*
X51149011Y-44466200D01*
X51144494Y-44471584D01*
X51070025Y-44517295D01*
X50981920Y-44526289D01*
X50898637Y-44496164D01*
X50836673Y-44432888D01*
X50808299Y-44348993D01*
X50807275Y-44330248D01*
X50807181Y-44317388D01*
X50781490Y-40824759D01*
X50765633Y-38669097D01*
X51201110Y-38669097D01*
X51211707Y-38680237D01*
X51251456Y-38708069D01*
X51266452Y-38716726D01*
X51452096Y-38803294D01*
X51468372Y-38809218D01*
X51666233Y-38862235D01*
X51683276Y-38865240D01*
X51887347Y-38883094D01*
X51904653Y-38883094D01*
X52108724Y-38865240D01*
X52125767Y-38862235D01*
X52323628Y-38809218D01*
X52339904Y-38803294D01*
X52525548Y-38716726D01*
X52540544Y-38708069D01*
X52578238Y-38681675D01*
X52591026Y-38667544D01*
X52582524Y-38654734D01*
X51911855Y-37984065D01*
X51895380Y-37973713D01*
X51887869Y-37976341D01*
X51211250Y-38652960D01*
X51201110Y-38669097D01*
X50765633Y-38669097D01*
X50764102Y-38460943D01*
X50783174Y-38374457D01*
X50837881Y-38304811D01*
X50849529Y-38296261D01*
X52580750Y-36565040D01*
X52591774Y-36547495D01*
X52593354Y-36533473D01*
X52587016Y-36477219D01*
X52616267Y-36393625D01*
X52678891Y-36331002D01*
X52762485Y-36301751D01*
X52784765Y-36300500D01*
X53835299Y-36300500D01*
X53921642Y-36320207D01*
G37*
%TD.AperFunction*%
%TD*%
%TA.AperFunction,Conductor*%
%TO.N,GND*%
G36*
X77586843Y-36320207D02*
G01*
X77656084Y-36375426D01*
X77694511Y-36455218D01*
X77699500Y-36499500D01*
X77699500Y-41261547D01*
X77679793Y-41347890D01*
X77624574Y-41417131D01*
X77544782Y-41455558D01*
X77456218Y-41455558D01*
X77376426Y-41417131D01*
X77359786Y-41402261D01*
X76660070Y-40702546D01*
X76616933Y-40637988D01*
X76597536Y-40591159D01*
X76501282Y-40465718D01*
X76375841Y-40369464D01*
X76229762Y-40308956D01*
X76073000Y-40288318D01*
X75916238Y-40308956D01*
X75770159Y-40369464D01*
X75644718Y-40465718D01*
X75548464Y-40591159D01*
X75487956Y-40737238D01*
X75467318Y-40894000D01*
X75487956Y-41050762D01*
X75548464Y-41196841D01*
X75644718Y-41322282D01*
X75770159Y-41418536D01*
X75782212Y-41423528D01*
X75782211Y-41423528D01*
X75816985Y-41437932D01*
X75881545Y-41481070D01*
X76480214Y-42079738D01*
X76527333Y-42154726D01*
X76538500Y-42220452D01*
X76538500Y-47625500D01*
X76518793Y-47711843D01*
X76463574Y-47781084D01*
X76383782Y-47819511D01*
X76339500Y-47824500D01*
X73009473Y-47824500D01*
X72923130Y-47804793D01*
X72867294Y-47764734D01*
X72815499Y-47711843D01*
X72792876Y-47688742D01*
X72746547Y-47613266D01*
X72737552Y-47525161D01*
X72767676Y-47441878D01*
X72794831Y-47408310D01*
X72889571Y-47314229D01*
X72987604Y-47159754D01*
X73048977Y-46987398D01*
X73070640Y-46805729D01*
X73051516Y-46623775D01*
X73047713Y-46612602D01*
X72996140Y-46461112D01*
X72992555Y-46450580D01*
X72896689Y-46294751D01*
X72792876Y-46188742D01*
X72746547Y-46113266D01*
X72737552Y-46025161D01*
X72767676Y-45941878D01*
X72794831Y-45908310D01*
X72889571Y-45814229D01*
X72987604Y-45659754D01*
X73048977Y-45487398D01*
X73070640Y-45305729D01*
X73051516Y-45123775D01*
X73047713Y-45112602D01*
X73013568Y-45012304D01*
X72992555Y-44950580D01*
X72980419Y-44930853D01*
X72902519Y-44804227D01*
X72902517Y-44804225D01*
X72896689Y-44794751D01*
X72880219Y-44777932D01*
X72870199Y-44767700D01*
X72823869Y-44692222D01*
X72814876Y-44604116D01*
X72845000Y-44520834D01*
X72892064Y-44469959D01*
X72897119Y-44466122D01*
X72907922Y-44457922D01*
X72999113Y-44337783D01*
X73039273Y-44236351D01*
X73049932Y-44209429D01*
X73049933Y-44209426D01*
X73054636Y-44197547D01*
X73065500Y-44107772D01*
X73065500Y-43492228D01*
X73054636Y-43402453D01*
X73030590Y-43341718D01*
X73004106Y-43274828D01*
X72999113Y-43262217D01*
X72907922Y-43142078D01*
X72787783Y-43050887D01*
X72758651Y-43039353D01*
X72659429Y-43000068D01*
X72659426Y-43000067D01*
X72647547Y-42995364D01*
X72557772Y-42984500D01*
X71242228Y-42984500D01*
X71152453Y-42995364D01*
X71140574Y-43000067D01*
X71140571Y-43000068D01*
X71041349Y-43039353D01*
X71012217Y-43050887D01*
X70892078Y-43142078D01*
X70800887Y-43262217D01*
X70795894Y-43274828D01*
X70769411Y-43341718D01*
X70745364Y-43402453D01*
X70734500Y-43492228D01*
X70734500Y-44107772D01*
X70745364Y-44197547D01*
X70750067Y-44209426D01*
X70750068Y-44209429D01*
X70760727Y-44236351D01*
X70800887Y-44337783D01*
X70892078Y-44457922D01*
X70902881Y-44466122D01*
X70902884Y-44466125D01*
X70907254Y-44469442D01*
X70964114Y-44537342D01*
X70985882Y-44623188D01*
X70968247Y-44709978D01*
X70927164Y-44769152D01*
X70910429Y-44785771D01*
X70812396Y-44940246D01*
X70808665Y-44950724D01*
X70783418Y-45021627D01*
X70751023Y-45112602D01*
X70749706Y-45123650D01*
X70733589Y-45258810D01*
X70729360Y-45294271D01*
X70748484Y-45476225D01*
X70752070Y-45486759D01*
X70752071Y-45486763D01*
X70755855Y-45497877D01*
X70807445Y-45649420D01*
X70903311Y-45805249D01*
X71007124Y-45911258D01*
X71053453Y-45986734D01*
X71062448Y-46074839D01*
X71032324Y-46158122D01*
X71005169Y-46191690D01*
X70910429Y-46285771D01*
X70812396Y-46440246D01*
X70751023Y-46612602D01*
X70729360Y-46794271D01*
X70748484Y-46976225D01*
X70752070Y-46986759D01*
X70752071Y-46986763D01*
X70755855Y-46997877D01*
X70807445Y-47149420D01*
X70903311Y-47305249D01*
X71007124Y-47411258D01*
X71053453Y-47486734D01*
X71062448Y-47574839D01*
X71032324Y-47658122D01*
X71005169Y-47691690D01*
X70910429Y-47785771D01*
X70812396Y-47940246D01*
X70751023Y-48112602D01*
X70729360Y-48294271D01*
X70748484Y-48476225D01*
X70752070Y-48486759D01*
X70752071Y-48486763D01*
X70774476Y-48552574D01*
X70807445Y-48649420D01*
X70893146Y-48788725D01*
X70894789Y-48791396D01*
X70923246Y-48875263D01*
X70912497Y-48963171D01*
X70864670Y-49037710D01*
X70851068Y-49049883D01*
X70833219Y-49064440D01*
X70819465Y-49078099D01*
X70703996Y-49217677D01*
X70693161Y-49233741D01*
X70607001Y-49393090D01*
X70599492Y-49410953D01*
X70564319Y-49524578D01*
X70562965Y-49542411D01*
X70574558Y-49546000D01*
X73219254Y-49546000D01*
X73236688Y-49542021D01*
X73236688Y-49529049D01*
X73205847Y-49424258D01*
X73198588Y-49406295D01*
X73114662Y-49245758D01*
X73104055Y-49229549D01*
X72999247Y-49099195D01*
X72960503Y-49019556D01*
X72960149Y-48930993D01*
X72998256Y-48851048D01*
X73067277Y-48795553D01*
X73154335Y-48775500D01*
X76339500Y-48775500D01*
X76425843Y-48795207D01*
X76495084Y-48850426D01*
X76533511Y-48930218D01*
X76538500Y-48974500D01*
X76538500Y-51018286D01*
X76518793Y-51104629D01*
X76463574Y-51173870D01*
X76383782Y-51212297D01*
X76341573Y-51217275D01*
X67472676Y-51309659D01*
X67472674Y-51309659D01*
X67450256Y-51309893D01*
X63122355Y-51354975D01*
X63117013Y-51343227D01*
X63117012Y-51343223D01*
X63105906Y-51318796D01*
X63099884Y-51304004D01*
X63090773Y-51278767D01*
X63090772Y-51278766D01*
X63085959Y-51265433D01*
X63077597Y-51253988D01*
X63075162Y-51249408D01*
X63072373Y-51245047D01*
X63066506Y-51232142D01*
X63053696Y-51217275D01*
X63039731Y-51201068D01*
X63029804Y-51188565D01*
X63028766Y-51187144D01*
X63028758Y-51187135D01*
X63024223Y-51180927D01*
X63016096Y-51172800D01*
X63006055Y-51161986D01*
X62986850Y-51139697D01*
X62986848Y-51139695D01*
X62977596Y-51128958D01*
X62965700Y-51121247D01*
X62964064Y-51119820D01*
X62911954Y-51048209D01*
X62898669Y-51003049D01*
X62886725Y-50932433D01*
X62886724Y-50932431D01*
X62884462Y-50919056D01*
X62839521Y-50823549D01*
X62826020Y-50794857D01*
X62826019Y-50794855D01*
X62820244Y-50782583D01*
X62721690Y-50668407D01*
X62710189Y-50660766D01*
X62607362Y-50592448D01*
X62607359Y-50592446D01*
X62596062Y-50584941D01*
X62494854Y-50552056D01*
X62465519Y-50542524D01*
X62465516Y-50542523D01*
X62452616Y-50538332D01*
X62407723Y-50536450D01*
X62353356Y-50534171D01*
X62335721Y-50532644D01*
X62318073Y-50530321D01*
X62318068Y-50530321D01*
X62305139Y-50528619D01*
X62148377Y-50549257D01*
X62037474Y-50595195D01*
X61950166Y-50610029D01*
X61865064Y-50585512D01*
X61828853Y-50558260D01*
X61827078Y-50555922D01*
X61712395Y-50468872D01*
X61701567Y-50464585D01*
X61636883Y-50405816D01*
X61603666Y-50323718D01*
X61609359Y-50235338D01*
X61652835Y-50158180D01*
X61701327Y-50119510D01*
X61712395Y-50115128D01*
X61827078Y-50028078D01*
X61914128Y-49913395D01*
X61967129Y-49779528D01*
X61974668Y-49717231D01*
X61976780Y-49699783D01*
X61976781Y-49699774D01*
X61977500Y-49693829D01*
X61977499Y-49112172D01*
X61967129Y-49026472D01*
X61942067Y-48963171D01*
X61919121Y-48905215D01*
X61919120Y-48905213D01*
X61914128Y-48892605D01*
X61827078Y-48777922D01*
X61712395Y-48690872D01*
X61699787Y-48685880D01*
X61699785Y-48685879D01*
X61631549Y-48658863D01*
X61578528Y-48637871D01*
X61539840Y-48633189D01*
X61498783Y-48628220D01*
X61498774Y-48628219D01*
X61492829Y-48627500D01*
X61429333Y-48627500D01*
X61342990Y-48607793D01*
X61273749Y-48552574D01*
X61245481Y-48504653D01*
X61234529Y-48478213D01*
X61229536Y-48466159D01*
X61133282Y-48340718D01*
X61007841Y-48244464D01*
X60861762Y-48183956D01*
X60705000Y-48163318D01*
X60548238Y-48183956D01*
X60402159Y-48244464D01*
X60276718Y-48340718D01*
X60268778Y-48351066D01*
X60261654Y-48360350D01*
X60193456Y-48416853D01*
X60107497Y-48438170D01*
X60062065Y-48433784D01*
X60040850Y-48429236D01*
X59955756Y-48420518D01*
X59951996Y-48420326D01*
X59934453Y-48424330D01*
X59931000Y-48431500D01*
X59931000Y-51236000D01*
X59911293Y-51322343D01*
X59858153Y-51388978D01*
X59507243Y-51392633D01*
X59466416Y-51360074D01*
X59427989Y-51280282D01*
X59423000Y-51236000D01*
X59423000Y-48442423D01*
X59418670Y-48423453D01*
X59411500Y-48420000D01*
X59408442Y-48420000D01*
X59398175Y-48420531D01*
X59311915Y-48429482D01*
X59290757Y-48434051D01*
X59149911Y-48481041D01*
X59129115Y-48490782D01*
X59003431Y-48568558D01*
X58985429Y-48582827D01*
X58881012Y-48687426D01*
X58866777Y-48705450D01*
X58799939Y-48813882D01*
X58799872Y-46014791D01*
X58899267Y-46099382D01*
X58899270Y-46099384D01*
X58906683Y-46105693D01*
X58915176Y-46110440D01*
X58915181Y-46110443D01*
X59038619Y-46179429D01*
X59088571Y-46207346D01*
X59286740Y-46271735D01*
X59296401Y-46272887D01*
X59483979Y-46295255D01*
X59483981Y-46295255D01*
X59493641Y-46296407D01*
X59701394Y-46280421D01*
X59902085Y-46224387D01*
X60035778Y-46156854D01*
X60079389Y-46134825D01*
X60079392Y-46134823D01*
X60088071Y-46130439D01*
X60252266Y-46002156D01*
X60258626Y-45994788D01*
X60258630Y-45994784D01*
X60382056Y-45851792D01*
X60388417Y-45844423D01*
X60406156Y-45813198D01*
X60486531Y-45671713D01*
X60486532Y-45671711D01*
X60491339Y-45663249D01*
X60557109Y-45465534D01*
X60563869Y-45412029D01*
X60575902Y-45316776D01*
X60583225Y-45258810D01*
X60583641Y-45229000D01*
X60582180Y-45214093D01*
X60988463Y-45214093D01*
X61005899Y-45421730D01*
X61008581Y-45431084D01*
X61008582Y-45431088D01*
X61021107Y-45474768D01*
X61063333Y-45622025D01*
X61067780Y-45630678D01*
X61082282Y-45658895D01*
X61158577Y-45807350D01*
X61164624Y-45814980D01*
X61164625Y-45814981D01*
X61193801Y-45851792D01*
X61288003Y-45970646D01*
X61295416Y-45976955D01*
X61295417Y-45976956D01*
X61439267Y-46099382D01*
X61439270Y-46099384D01*
X61446683Y-46105693D01*
X61455176Y-46110440D01*
X61455181Y-46110443D01*
X61578619Y-46179429D01*
X61628571Y-46207346D01*
X61826740Y-46271735D01*
X61836401Y-46272887D01*
X62023979Y-46295255D01*
X62023981Y-46295255D01*
X62033641Y-46296407D01*
X62241394Y-46280421D01*
X62442085Y-46224387D01*
X62575778Y-46156854D01*
X62619389Y-46134825D01*
X62619392Y-46134823D01*
X62628071Y-46130439D01*
X62792266Y-46002156D01*
X62798626Y-45994788D01*
X62798630Y-45994784D01*
X62922056Y-45851792D01*
X62928417Y-45844423D01*
X62946156Y-45813198D01*
X63026531Y-45671713D01*
X63026532Y-45671711D01*
X63031339Y-45663249D01*
X63097109Y-45465534D01*
X63103869Y-45412029D01*
X63115902Y-45316776D01*
X63123225Y-45258810D01*
X63123641Y-45229000D01*
X63122180Y-45214093D01*
X63111201Y-45102123D01*
X63103308Y-45021627D01*
X63043083Y-44822154D01*
X63033551Y-44804227D01*
X62949831Y-44646770D01*
X62949828Y-44646766D01*
X62945261Y-44638176D01*
X62813567Y-44476704D01*
X62653017Y-44343885D01*
X62644454Y-44339255D01*
X62644451Y-44339253D01*
X62478291Y-44249411D01*
X62469728Y-44244781D01*
X62460430Y-44241903D01*
X62460428Y-44241902D01*
X62355524Y-44209429D01*
X62270679Y-44183165D01*
X62104292Y-44165677D01*
X62073130Y-44162402D01*
X62073129Y-44162402D01*
X62063453Y-44161385D01*
X61855944Y-44180270D01*
X61715701Y-44221546D01*
X61665398Y-44236351D01*
X61665396Y-44236352D01*
X61656055Y-44239101D01*
X61636334Y-44249411D01*
X61480025Y-44331126D01*
X61480021Y-44331128D01*
X61471399Y-44335636D01*
X61463818Y-44341732D01*
X61463814Y-44341734D01*
X61343254Y-44438668D01*
X61309011Y-44466200D01*
X61175075Y-44625818D01*
X61158013Y-44656854D01*
X61082203Y-44794751D01*
X61074693Y-44808411D01*
X61071751Y-44817686D01*
X61071750Y-44817688D01*
X61058134Y-44860613D01*
X61011690Y-45007025D01*
X60988463Y-45214093D01*
X60582180Y-45214093D01*
X60571201Y-45102123D01*
X60563308Y-45021627D01*
X60503083Y-44822154D01*
X60493551Y-44804227D01*
X60409831Y-44646770D01*
X60409828Y-44646766D01*
X60405261Y-44638176D01*
X60273567Y-44476704D01*
X60113017Y-44343885D01*
X60104454Y-44339255D01*
X60104451Y-44339253D01*
X59938291Y-44249411D01*
X59929728Y-44244781D01*
X59920430Y-44241903D01*
X59920428Y-44241902D01*
X59739981Y-44186044D01*
X59739977Y-44186043D01*
X59730679Y-44183165D01*
X59722985Y-44182356D01*
X59643166Y-44146051D01*
X59586443Y-44078037D01*
X59564848Y-43992147D01*
X59582657Y-43905393D01*
X59611757Y-43863414D01*
X59610282Y-43862282D01*
X59698593Y-43747192D01*
X59706536Y-43736841D01*
X59767044Y-43590762D01*
X59787682Y-43434000D01*
X59767044Y-43277238D01*
X59706536Y-43131159D01*
X59610282Y-43005718D01*
X59484841Y-42909464D01*
X59338762Y-42848956D01*
X59182000Y-42828318D01*
X59025238Y-42848956D01*
X58879159Y-42909464D01*
X58799800Y-42970358D01*
X58799714Y-39337500D01*
X61487282Y-39337500D01*
X61573625Y-39357207D01*
X61627996Y-39395786D01*
X64345607Y-42113397D01*
X64392726Y-42188385D01*
X64402642Y-42276392D01*
X64373391Y-42359985D01*
X64310767Y-42422609D01*
X64230868Y-42451409D01*
X64195052Y-42456124D01*
X64118169Y-42466245D01*
X64118165Y-42466246D01*
X64105238Y-42467948D01*
X63959159Y-42528456D01*
X63833718Y-42624710D01*
X63825777Y-42635059D01*
X63745406Y-42739800D01*
X63745404Y-42739803D01*
X63737464Y-42750151D01*
X63737359Y-42750403D01*
X63682215Y-42809832D01*
X63599773Y-42842186D01*
X63511458Y-42835566D01*
X63448977Y-42803286D01*
X63421841Y-42782464D01*
X63275762Y-42721956D01*
X63119000Y-42701318D01*
X62962238Y-42721956D01*
X62816159Y-42782464D01*
X62690718Y-42878718D01*
X62594464Y-43004159D01*
X62533956Y-43150238D01*
X62513318Y-43307000D01*
X62533956Y-43463762D01*
X62594464Y-43609841D01*
X62690718Y-43735282D01*
X62816159Y-43831536D01*
X62962238Y-43892044D01*
X62975171Y-43893747D01*
X62975176Y-43893748D01*
X63097274Y-43909823D01*
X63180306Y-43940631D01*
X63212013Y-43966406D01*
X64438214Y-45192607D01*
X64485333Y-45267595D01*
X64496500Y-45333321D01*
X64496500Y-49611473D01*
X64501339Y-49626364D01*
X64501521Y-49626924D01*
X64508813Y-49657297D01*
X64511354Y-49673344D01*
X64518464Y-49687298D01*
X64518465Y-49687301D01*
X64518732Y-49687824D01*
X64530682Y-49716674D01*
X64535704Y-49732130D01*
X64545260Y-49745282D01*
X64561575Y-49771907D01*
X64568950Y-49786382D01*
X64591513Y-49808945D01*
X64591516Y-49808949D01*
X65199911Y-50417344D01*
X65247030Y-50492332D01*
X65256494Y-50532083D01*
X65272569Y-50654181D01*
X65272570Y-50654186D01*
X65274273Y-50667119D01*
X65334781Y-50813198D01*
X65431035Y-50938639D01*
X65556476Y-51034893D01*
X65702555Y-51095401D01*
X65859317Y-51116039D01*
X66016079Y-51095401D01*
X66162158Y-51034893D01*
X66287599Y-50938639D01*
X66383853Y-50813198D01*
X66444361Y-50667119D01*
X66464999Y-50510357D01*
X66444361Y-50353595D01*
X66383853Y-50207516D01*
X66287599Y-50082075D01*
X66273102Y-50070951D01*
X70563312Y-50070951D01*
X70594153Y-50175742D01*
X70601412Y-50193705D01*
X70685338Y-50354242D01*
X70695945Y-50370451D01*
X70809462Y-50511637D01*
X70823011Y-50525473D01*
X70961792Y-50641923D01*
X70977766Y-50652861D01*
X71136521Y-50740138D01*
X71154320Y-50747767D01*
X71327006Y-50802546D01*
X71345943Y-50806571D01*
X71486884Y-50822380D01*
X71497970Y-50823000D01*
X71623577Y-50823000D01*
X71642547Y-50818670D01*
X71646000Y-50811500D01*
X71646000Y-50800577D01*
X72154000Y-50800577D01*
X72158330Y-50819547D01*
X72165500Y-50823000D01*
X72295625Y-50823000D01*
X72305322Y-50822526D01*
X72439974Y-50809323D01*
X72458979Y-50805560D01*
X72632412Y-50753198D01*
X72650308Y-50745821D01*
X72810273Y-50660766D01*
X72826396Y-50650054D01*
X72966786Y-50535555D01*
X72980535Y-50521901D01*
X73096004Y-50382323D01*
X73106839Y-50366259D01*
X73192999Y-50206910D01*
X73200508Y-50189047D01*
X73235681Y-50075422D01*
X73237035Y-50057589D01*
X73225442Y-50054000D01*
X72176423Y-50054000D01*
X72157453Y-50058330D01*
X72154000Y-50065500D01*
X72154000Y-50800577D01*
X71646000Y-50800577D01*
X71646000Y-50076423D01*
X71641670Y-50057453D01*
X71634500Y-50054000D01*
X70580746Y-50054000D01*
X70563312Y-50057979D01*
X70563312Y-50070951D01*
X66273102Y-50070951D01*
X66162158Y-49985821D01*
X66016079Y-49925313D01*
X66003146Y-49923610D01*
X66003141Y-49923609D01*
X65881043Y-49907534D01*
X65798011Y-49876726D01*
X65766304Y-49850951D01*
X65355786Y-49440433D01*
X65308667Y-49365445D01*
X65297500Y-49299719D01*
X65297500Y-45021567D01*
X65292478Y-45006110D01*
X65285187Y-44975743D01*
X65282646Y-44959696D01*
X65275536Y-44945742D01*
X65275534Y-44945736D01*
X65275266Y-44945211D01*
X65263316Y-44916361D01*
X65263137Y-44915809D01*
X65263136Y-44915807D01*
X65258296Y-44900911D01*
X65249088Y-44888237D01*
X65248741Y-44887759D01*
X65232427Y-44861137D01*
X65232160Y-44860613D01*
X65225050Y-44846658D01*
X65202487Y-44824095D01*
X65202484Y-44824091D01*
X64343786Y-43965393D01*
X64296667Y-43890405D01*
X64286751Y-43802398D01*
X64316002Y-43718805D01*
X64378626Y-43656181D01*
X64418984Y-43638573D01*
X64418762Y-43638036D01*
X64552789Y-43582520D01*
X64552788Y-43582520D01*
X64564841Y-43577528D01*
X64690282Y-43481274D01*
X64786536Y-43355833D01*
X64847044Y-43209754D01*
X64848747Y-43196821D01*
X64848748Y-43196816D01*
X64864823Y-43074718D01*
X64895631Y-42991686D01*
X64921406Y-42959979D01*
X65101654Y-42779731D01*
X65176642Y-42732612D01*
X65190325Y-42728391D01*
X65203096Y-42726710D01*
X65349175Y-42666202D01*
X65474616Y-42569948D01*
X65570870Y-42444507D01*
X65631378Y-42298428D01*
X65633080Y-42285497D01*
X65636457Y-42272896D01*
X65637648Y-42273215D01*
X65663885Y-42202506D01*
X65689659Y-42170799D01*
X65815136Y-42045323D01*
X65890125Y-41998205D01*
X65929687Y-41988784D01*
X65929824Y-41988747D01*
X65942762Y-41987044D01*
X65954811Y-41982053D01*
X65954815Y-41982052D01*
X66076789Y-41931528D01*
X66076788Y-41931528D01*
X66088841Y-41926536D01*
X66214282Y-41830282D01*
X66310536Y-41704841D01*
X66371044Y-41558762D01*
X66391682Y-41402000D01*
X66371044Y-41245238D01*
X66310536Y-41099159D01*
X66214282Y-40973718D01*
X66088841Y-40877464D01*
X65942762Y-40816956D01*
X65786000Y-40796318D01*
X65629238Y-40816956D01*
X65483159Y-40877464D01*
X65357718Y-40973718D01*
X65261464Y-41099159D01*
X65256473Y-41111209D01*
X65204041Y-41237790D01*
X65152791Y-41310018D01*
X65075279Y-41352858D01*
X64986855Y-41357823D01*
X64905033Y-41323931D01*
X64879475Y-41302349D01*
X62463352Y-38886226D01*
X62416233Y-38811238D01*
X62406317Y-38723231D01*
X62435568Y-38639638D01*
X62498192Y-38577014D01*
X62514334Y-38567891D01*
X62570117Y-38539713D01*
X62619389Y-38514825D01*
X62619392Y-38514823D01*
X62628071Y-38510439D01*
X62792266Y-38382156D01*
X62798626Y-38374788D01*
X62798630Y-38374784D01*
X62922056Y-38231792D01*
X62928417Y-38224423D01*
X62974549Y-38143218D01*
X63026531Y-38051713D01*
X63026532Y-38051711D01*
X63031339Y-38043249D01*
X63097109Y-37845534D01*
X63103869Y-37792029D01*
X63122529Y-37644316D01*
X63123225Y-37638810D01*
X63123641Y-37609000D01*
X63122180Y-37594093D01*
X63104258Y-37411318D01*
X63103308Y-37401627D01*
X63043083Y-37202154D01*
X63035776Y-37188411D01*
X62949831Y-37026770D01*
X62949828Y-37026766D01*
X62945261Y-37018176D01*
X62813567Y-36856704D01*
X62653017Y-36723885D01*
X62644454Y-36719255D01*
X62644451Y-36719253D01*
X62561774Y-36674550D01*
X62495196Y-36616148D01*
X62460550Y-36534642D01*
X62464700Y-36446176D01*
X62506823Y-36368271D01*
X62578576Y-36316358D01*
X62656423Y-36300500D01*
X77500500Y-36300500D01*
X77586843Y-36320207D01*
G37*
%TD.AperFunction*%
%TD*%
%TA.AperFunction,Conductor*%
%TO.N,GND*%
G36*
X45586843Y-59795707D02*
G01*
X45656084Y-59850926D01*
X45694511Y-59930718D01*
X45699500Y-59975000D01*
X45699500Y-61346477D01*
X45699325Y-61354810D01*
X45697546Y-61397266D01*
X45696790Y-61415294D01*
X45699889Y-61428506D01*
X45699889Y-61428507D01*
X45705939Y-61454304D01*
X45709356Y-61472735D01*
X45714794Y-61512432D01*
X45720181Y-61524880D01*
X45722741Y-61534049D01*
X45724713Y-61540014D01*
X45728133Y-61548924D01*
X45731232Y-61562136D01*
X45749832Y-61595969D01*
X45750536Y-61597250D01*
X45758782Y-61614082D01*
X45774695Y-61650855D01*
X45783229Y-61661394D01*
X45788158Y-61669533D01*
X45792913Y-61676609D01*
X45792918Y-61676606D01*
X45798865Y-61685162D01*
X45803893Y-61694308D01*
X45810897Y-61702422D01*
X45832729Y-61724254D01*
X45846667Y-61739733D01*
X45869614Y-61768070D01*
X45880676Y-61775931D01*
X45881716Y-61776908D01*
X45905385Y-61796910D01*
X46897232Y-62788756D01*
X47555262Y-63446786D01*
X47602381Y-63521774D01*
X47612297Y-63609781D01*
X47583046Y-63693374D01*
X47520422Y-63755998D01*
X47436829Y-63785249D01*
X47414548Y-63786500D01*
X43660800Y-63786500D01*
X43574457Y-63766793D01*
X43539657Y-63745378D01*
X43493190Y-63709723D01*
X43482841Y-63701782D01*
X43336762Y-63641274D01*
X43180000Y-63620636D01*
X43023238Y-63641274D01*
X42877159Y-63701782D01*
X42751718Y-63798036D01*
X42655464Y-63923477D01*
X42594956Y-64069556D01*
X42574318Y-64226318D01*
X42594956Y-64383080D01*
X42655464Y-64529159D01*
X42751718Y-64654600D01*
X42877159Y-64750854D01*
X43023238Y-64811362D01*
X43180000Y-64832000D01*
X43336762Y-64811362D01*
X43386727Y-64790666D01*
X43478510Y-64752648D01*
X43554664Y-64737500D01*
X47482614Y-64737500D01*
X47568957Y-64757207D01*
X47623328Y-64795786D01*
X48776842Y-65949300D01*
X48823961Y-66024288D01*
X48833877Y-66112295D01*
X48822465Y-66159867D01*
X48779494Y-66274495D01*
X48773149Y-66291420D01*
X48766500Y-66352623D01*
X48766500Y-66355049D01*
X48742353Y-66439508D01*
X48683473Y-66505663D01*
X48601720Y-66539721D01*
X48513286Y-66534934D01*
X48491836Y-66527452D01*
X48428817Y-66501349D01*
X48428815Y-66501348D01*
X48416762Y-66496356D01*
X48260000Y-66475718D01*
X48103238Y-66496356D01*
X48091186Y-66501348D01*
X48078591Y-66504723D01*
X48078195Y-66503245D01*
X48018226Y-66515173D01*
X46327115Y-66515173D01*
X46250961Y-66500025D01*
X46237994Y-66494654D01*
X46204135Y-66480629D01*
X46047373Y-66459991D01*
X45890611Y-66480629D01*
X45744532Y-66541137D01*
X45619091Y-66637391D01*
X45522837Y-66762832D01*
X45462329Y-66908911D01*
X45441691Y-67065673D01*
X45462329Y-67222435D01*
X45522837Y-67368514D01*
X45619091Y-67493955D01*
X45744532Y-67590209D01*
X45890611Y-67650717D01*
X46047373Y-67671355D01*
X46204135Y-67650717D01*
X46250961Y-67631321D01*
X46327115Y-67616173D01*
X47942290Y-67616173D01*
X48018443Y-67631321D01*
X48103238Y-67666444D01*
X48260000Y-67687082D01*
X48416762Y-67666444D01*
X48562841Y-67605936D01*
X48688282Y-67509682D01*
X48747817Y-67432094D01*
X48816013Y-67375592D01*
X48901972Y-67354274D01*
X48988668Y-67372363D01*
X49001257Y-67378687D01*
X49012831Y-67385023D01*
X49024176Y-67393526D01*
X49104221Y-67423533D01*
X49146738Y-67439472D01*
X49146740Y-67439473D01*
X49158420Y-67443851D01*
X49219623Y-67450500D01*
X49466931Y-67450500D01*
X49714376Y-67450499D01*
X49741765Y-67447524D01*
X49763174Y-67445199D01*
X49763178Y-67445198D01*
X49775580Y-67443851D01*
X49909824Y-67393526D01*
X50024546Y-67307546D01*
X50110526Y-67192824D01*
X50115504Y-67179545D01*
X50117447Y-67175996D01*
X50176197Y-67109724D01*
X50257883Y-67075505D01*
X50346326Y-67080118D01*
X50424009Y-67122648D01*
X50466553Y-67175996D01*
X50468496Y-67179545D01*
X50473474Y-67192824D01*
X50559454Y-67307546D01*
X50674176Y-67393526D01*
X50754221Y-67423533D01*
X50796738Y-67439472D01*
X50796740Y-67439473D01*
X50808420Y-67443851D01*
X50869623Y-67450500D01*
X51116931Y-67450500D01*
X51364376Y-67450499D01*
X51391765Y-67447524D01*
X51413174Y-67445199D01*
X51413178Y-67445198D01*
X51425580Y-67443851D01*
X51559824Y-67393526D01*
X51674546Y-67307546D01*
X51683046Y-67296205D01*
X51693075Y-67286176D01*
X51694787Y-67287888D01*
X51747235Y-67243422D01*
X51838921Y-67221042D01*
X51895358Y-67221042D01*
X51981701Y-67240749D01*
X52016328Y-67262058D01*
X52016462Y-67262135D01*
X52026813Y-67270078D01*
X52172892Y-67330586D01*
X52329654Y-67351224D01*
X52342582Y-67349522D01*
X52473488Y-67332288D01*
X52486416Y-67330586D01*
X52491446Y-67328502D01*
X52575496Y-67325357D01*
X52656670Y-67360773D01*
X52714439Y-67427901D01*
X52737500Y-67520888D01*
X52737500Y-69757291D01*
X52717793Y-69843634D01*
X52690724Y-69883982D01*
X52688604Y-69885831D01*
X52681711Y-69895639D01*
X52681709Y-69895641D01*
X52648213Y-69943302D01*
X52591113Y-70024547D01*
X52586754Y-70035727D01*
X52536970Y-70163416D01*
X52529524Y-70182513D01*
X52523382Y-70229165D01*
X52511991Y-70315694D01*
X52507394Y-70350611D01*
X52508710Y-70362532D01*
X52508710Y-70362535D01*
X52524682Y-70507209D01*
X52525999Y-70519135D01*
X52584266Y-70678356D01*
X52590956Y-70688311D01*
X52590956Y-70688312D01*
X52603975Y-70707687D01*
X52678830Y-70819083D01*
X52804233Y-70933191D01*
X52953235Y-71014092D01*
X53009703Y-71028906D01*
X53105625Y-71054071D01*
X53105627Y-71054071D01*
X53117233Y-71057116D01*
X53208189Y-71058545D01*
X53274765Y-71059591D01*
X53274768Y-71059591D01*
X53286760Y-71059779D01*
X53298447Y-71057102D01*
X53298451Y-71057102D01*
X53388042Y-71036583D01*
X53452029Y-71021928D01*
X53603498Y-70945747D01*
X53732423Y-70835634D01*
X53767977Y-70786156D01*
X53824362Y-70707687D01*
X53831361Y-70697947D01*
X53842463Y-70670332D01*
X53890125Y-70551769D01*
X53890126Y-70551767D01*
X53894601Y-70540634D01*
X53896317Y-70528582D01*
X53917572Y-70379227D01*
X53918490Y-70372778D01*
X53918645Y-70358000D01*
X53898276Y-70189680D01*
X53894036Y-70178459D01*
X53894035Y-70178455D01*
X53842588Y-70042306D01*
X53838345Y-70031077D01*
X53742312Y-69891349D01*
X53736976Y-69886594D01*
X53695911Y-69811097D01*
X53688500Y-69757295D01*
X53688500Y-69743881D01*
X56013000Y-69743881D01*
X56013474Y-69753578D01*
X56026463Y-69886045D01*
X56030228Y-69905059D01*
X56081737Y-70075662D01*
X56089116Y-70093567D01*
X56172784Y-70250924D01*
X56183504Y-70267060D01*
X56296140Y-70405165D01*
X56309794Y-70418914D01*
X56447105Y-70532508D01*
X56463169Y-70543343D01*
X56619934Y-70628105D01*
X56637788Y-70635611D01*
X56745581Y-70668978D01*
X56763411Y-70670332D01*
X56767000Y-70658737D01*
X56767000Y-69425423D01*
X56762670Y-69406453D01*
X56755500Y-69403000D01*
X56035423Y-69403000D01*
X56016453Y-69407330D01*
X56013000Y-69414500D01*
X56013000Y-69743881D01*
X53688500Y-69743881D01*
X53688500Y-68872577D01*
X56013000Y-68872577D01*
X56017330Y-68891547D01*
X56024500Y-68895000D01*
X56744577Y-68895000D01*
X56763547Y-68890670D01*
X56767000Y-68883500D01*
X56767000Y-67645384D01*
X56763021Y-67627950D01*
X56750049Y-67627950D01*
X56650907Y-67657129D01*
X56632945Y-67664386D01*
X56475006Y-67746955D01*
X56458806Y-67757556D01*
X56319909Y-67869231D01*
X56306070Y-67882783D01*
X56191522Y-68019297D01*
X56180571Y-68035291D01*
X56094717Y-68191457D01*
X56087086Y-68209262D01*
X56033199Y-68379136D01*
X56029172Y-68398080D01*
X56013620Y-68536736D01*
X56013000Y-68547823D01*
X56013000Y-68872577D01*
X53688500Y-68872577D01*
X53688500Y-64790666D01*
X53688973Y-64778878D01*
X53691842Y-64766200D01*
X53688882Y-64718489D01*
X53688500Y-64706167D01*
X53688500Y-64693528D01*
X53687498Y-64686534D01*
X53687447Y-64685811D01*
X53685947Y-64671176D01*
X53684286Y-64644404D01*
X53684286Y-64644403D01*
X53683408Y-64630256D01*
X53678595Y-64616925D01*
X53677543Y-64611842D01*
X53676091Y-64606875D01*
X53674081Y-64592844D01*
X53657106Y-64555508D01*
X53651084Y-64540715D01*
X53641972Y-64515474D01*
X53641971Y-64515471D01*
X53637159Y-64502143D01*
X53628801Y-64490703D01*
X53626364Y-64486119D01*
X53623569Y-64481750D01*
X53617706Y-64468853D01*
X53590928Y-64437776D01*
X53581007Y-64425281D01*
X53575423Y-64417638D01*
X53567296Y-64409511D01*
X53557255Y-64398697D01*
X53538047Y-64376405D01*
X53538046Y-64376404D01*
X53528796Y-64365669D01*
X53516903Y-64357960D01*
X53512940Y-64354503D01*
X53503043Y-64345258D01*
X52266140Y-63108355D01*
X52219021Y-63033367D01*
X52209295Y-62991548D01*
X52201759Y-62929274D01*
X52210951Y-62841189D01*
X52257451Y-62765815D01*
X52332049Y-62718081D01*
X52399318Y-62706367D01*
X52530444Y-62706367D01*
X52616787Y-62726074D01*
X52671158Y-62764653D01*
X57265173Y-67358668D01*
X57312292Y-67433656D01*
X57322208Y-67521663D01*
X57292957Y-67605256D01*
X57280511Y-67621460D01*
X57275000Y-67639263D01*
X57275000Y-70652616D01*
X57278979Y-70670050D01*
X57291951Y-70670050D01*
X57391093Y-70640871D01*
X57409055Y-70633614D01*
X57566994Y-70551045D01*
X57583194Y-70540444D01*
X57722091Y-70428769D01*
X57735930Y-70415217D01*
X57850478Y-70278703D01*
X57866926Y-70254681D01*
X57868443Y-70255720D01*
X57919007Y-70198883D01*
X58000753Y-70164808D01*
X58089187Y-70169575D01*
X58130388Y-70186533D01*
X58218908Y-70235197D01*
X58371981Y-70274500D01*
X58490350Y-70274500D01*
X58534411Y-70268934D01*
X58595368Y-70261234D01*
X58595372Y-70261233D01*
X58607792Y-70259664D01*
X58754732Y-70201486D01*
X58786432Y-70178455D01*
X58872454Y-70115956D01*
X58882587Y-70108594D01*
X58971473Y-70001149D01*
X58975346Y-69996467D01*
X58975347Y-69996466D01*
X58983324Y-69986823D01*
X59002480Y-69946116D01*
X59045283Y-69855155D01*
X59045283Y-69855154D01*
X59050614Y-69843826D01*
X59080227Y-69688588D01*
X59078727Y-69664752D01*
X59092972Y-69577345D01*
X59143733Y-69504772D01*
X59220955Y-69461411D01*
X59309343Y-69455848D01*
X59391392Y-69489187D01*
X59418048Y-69511543D01*
X60642084Y-70735579D01*
X60647853Y-70741595D01*
X60688829Y-70786156D01*
X60722890Y-70807275D01*
X60738324Y-70817882D01*
X60770247Y-70842112D01*
X60782863Y-70847107D01*
X60791167Y-70851786D01*
X60796797Y-70854618D01*
X60805491Y-70858489D01*
X60817016Y-70865635D01*
X60830036Y-70869418D01*
X60830039Y-70869419D01*
X60855498Y-70876815D01*
X60873238Y-70882889D01*
X60910483Y-70897636D01*
X60923974Y-70899054D01*
X60933211Y-70901323D01*
X60941578Y-70902965D01*
X60941579Y-70902959D01*
X60951838Y-70904805D01*
X60961855Y-70907715D01*
X60972545Y-70908500D01*
X61003423Y-70908500D01*
X61024223Y-70909590D01*
X61046990Y-70911983D01*
X61046992Y-70911983D01*
X61060484Y-70913401D01*
X61073865Y-70911138D01*
X61075290Y-70911093D01*
X61106169Y-70908500D01*
X61538548Y-70908500D01*
X61624891Y-70928207D01*
X61679262Y-70966786D01*
X61738563Y-71026087D01*
X61744332Y-71032103D01*
X61785319Y-71076676D01*
X61796848Y-71083824D01*
X61796849Y-71083825D01*
X61819371Y-71097789D01*
X61834821Y-71108407D01*
X61866736Y-71132632D01*
X61879345Y-71137624D01*
X61887619Y-71142287D01*
X61893288Y-71145138D01*
X61901975Y-71149006D01*
X61913506Y-71156155D01*
X61926531Y-71159939D01*
X61926535Y-71159941D01*
X61951993Y-71167337D01*
X61969725Y-71173408D01*
X62006973Y-71188155D01*
X62020466Y-71189573D01*
X62029741Y-71191851D01*
X62038066Y-71193484D01*
X62038067Y-71193478D01*
X62048328Y-71195325D01*
X62058345Y-71198235D01*
X62069035Y-71199020D01*
X62099913Y-71199020D01*
X62120714Y-71200110D01*
X62143480Y-71202503D01*
X62143482Y-71202503D01*
X62156974Y-71203921D01*
X62170355Y-71201658D01*
X62171781Y-71201613D01*
X62202659Y-71199020D01*
X74622957Y-71199020D01*
X74631290Y-71199195D01*
X74678217Y-71201162D01*
X74678218Y-71201162D01*
X74691774Y-71201730D01*
X74704986Y-71198631D01*
X74704987Y-71198631D01*
X74730784Y-71192581D01*
X74749215Y-71189164D01*
X74756580Y-71188155D01*
X74788912Y-71183726D01*
X74801360Y-71178339D01*
X74810529Y-71175779D01*
X74816494Y-71173807D01*
X74825404Y-71170387D01*
X74838616Y-71167288D01*
X74873732Y-71147983D01*
X74890564Y-71139737D01*
X74914889Y-71129211D01*
X74914890Y-71129210D01*
X74927335Y-71123825D01*
X74937874Y-71115291D01*
X74946013Y-71110362D01*
X74953089Y-71105607D01*
X74953086Y-71105602D01*
X74961642Y-71099655D01*
X74970788Y-71094627D01*
X74978902Y-71087623D01*
X75000734Y-71065791D01*
X75016213Y-71051853D01*
X75034005Y-71037445D01*
X75044550Y-71028906D01*
X75052411Y-71017844D01*
X75053388Y-71016804D01*
X75073390Y-70993135D01*
X77359786Y-68706739D01*
X77434774Y-68659620D01*
X77522781Y-68649704D01*
X77606374Y-68678955D01*
X77668998Y-68741579D01*
X77698249Y-68825172D01*
X77699500Y-68847453D01*
X77699500Y-75500500D01*
X77679793Y-75586843D01*
X77624574Y-75656084D01*
X77544782Y-75694511D01*
X77500500Y-75699500D01*
X36499500Y-75699500D01*
X36413157Y-75679793D01*
X36343916Y-75624574D01*
X36305489Y-75544782D01*
X36300500Y-75500500D01*
X36300500Y-73573862D01*
X40952297Y-73573862D01*
X40981934Y-73746340D01*
X40986459Y-73756974D01*
X40986460Y-73756978D01*
X41001049Y-73791264D01*
X41050454Y-73907373D01*
X41154183Y-74048324D01*
X41287555Y-74161632D01*
X41443416Y-74241219D01*
X41613406Y-74282815D01*
X41624448Y-74283500D01*
X41750622Y-74283500D01*
X41756358Y-74282831D01*
X41756362Y-74282831D01*
X41798476Y-74277921D01*
X41880628Y-74268343D01*
X41891497Y-74264398D01*
X41891500Y-74264397D01*
X42034261Y-74212577D01*
X42034264Y-74212576D01*
X42045131Y-74208631D01*
X42128231Y-74154148D01*
X42181817Y-74119016D01*
X42181819Y-74119014D01*
X42191485Y-74112677D01*
X42261270Y-74039011D01*
X42303888Y-73994023D01*
X42303891Y-73994020D01*
X42311840Y-73985628D01*
X42351885Y-73916686D01*
X42393929Y-73844301D01*
X42393930Y-73844300D01*
X42399739Y-73834298D01*
X42416131Y-73780178D01*
X42447115Y-73677875D01*
X42447115Y-73677874D01*
X42450467Y-73666807D01*
X42456233Y-73573862D01*
X43952297Y-73573862D01*
X43981934Y-73746340D01*
X43986459Y-73756974D01*
X43986460Y-73756978D01*
X44001049Y-73791264D01*
X44050454Y-73907373D01*
X44154183Y-74048324D01*
X44287555Y-74161632D01*
X44443416Y-74241219D01*
X44613406Y-74282815D01*
X44624448Y-74283500D01*
X44750622Y-74283500D01*
X44756358Y-74282831D01*
X44756362Y-74282831D01*
X44798476Y-74277921D01*
X44880628Y-74268343D01*
X44891497Y-74264398D01*
X44891500Y-74264397D01*
X45034261Y-74212577D01*
X45034264Y-74212576D01*
X45045131Y-74208631D01*
X45128231Y-74154148D01*
X45181817Y-74119016D01*
X45181819Y-74119014D01*
X45191485Y-74112677D01*
X45261270Y-74039011D01*
X45303888Y-73994023D01*
X45303891Y-73994020D01*
X45311840Y-73985628D01*
X45351885Y-73916686D01*
X45393929Y-73844301D01*
X45393930Y-73844300D01*
X45399739Y-73834298D01*
X45416131Y-73780178D01*
X45418038Y-73773881D01*
X56013000Y-73773881D01*
X56013474Y-73783578D01*
X56026463Y-73916045D01*
X56030228Y-73935059D01*
X56081737Y-74105662D01*
X56089116Y-74123567D01*
X56172784Y-74280924D01*
X56183504Y-74297060D01*
X56296140Y-74435165D01*
X56309794Y-74448914D01*
X56447105Y-74562508D01*
X56463169Y-74573343D01*
X56619934Y-74658105D01*
X56637788Y-74665611D01*
X56745581Y-74698978D01*
X56763411Y-74700332D01*
X56767000Y-74688737D01*
X56767000Y-74682616D01*
X57275000Y-74682616D01*
X57278979Y-74700050D01*
X57291951Y-74700050D01*
X57391093Y-74670871D01*
X57409055Y-74663614D01*
X57566994Y-74581045D01*
X57583194Y-74570444D01*
X57722091Y-74458769D01*
X57735930Y-74445217D01*
X57850478Y-74308703D01*
X57861429Y-74292709D01*
X57947283Y-74136543D01*
X57954914Y-74118738D01*
X58008801Y-73948864D01*
X58012828Y-73929920D01*
X58028380Y-73791264D01*
X58029000Y-73780178D01*
X58029000Y-73773881D01*
X64653000Y-73773881D01*
X64653474Y-73783578D01*
X64666463Y-73916045D01*
X64670228Y-73935059D01*
X64721737Y-74105662D01*
X64729116Y-74123567D01*
X64812784Y-74280924D01*
X64823504Y-74297060D01*
X64936140Y-74435165D01*
X64949794Y-74448914D01*
X65087105Y-74562508D01*
X65103169Y-74573343D01*
X65259934Y-74658105D01*
X65277788Y-74665611D01*
X65385581Y-74698978D01*
X65403411Y-74700332D01*
X65407000Y-74688737D01*
X65407000Y-74682616D01*
X65915000Y-74682616D01*
X65918979Y-74700050D01*
X65931951Y-74700050D01*
X66031093Y-74670871D01*
X66049055Y-74663614D01*
X66206994Y-74581045D01*
X66223194Y-74570444D01*
X66362091Y-74458769D01*
X66375930Y-74445217D01*
X66490478Y-74308703D01*
X66501429Y-74292709D01*
X66587283Y-74136543D01*
X66594914Y-74118738D01*
X66648801Y-73948864D01*
X66652828Y-73929920D01*
X66668380Y-73791264D01*
X66669000Y-73780178D01*
X66669000Y-73605423D01*
X66664670Y-73586453D01*
X66657500Y-73583000D01*
X65937423Y-73583000D01*
X65918453Y-73587330D01*
X65915000Y-73594500D01*
X65915000Y-74682616D01*
X65407000Y-74682616D01*
X65407000Y-73605423D01*
X65402670Y-73586453D01*
X65395500Y-73583000D01*
X64675423Y-73583000D01*
X64656453Y-73587330D01*
X64653000Y-73594500D01*
X64653000Y-73773881D01*
X58029000Y-73773881D01*
X58029000Y-73605423D01*
X58024670Y-73586453D01*
X58017500Y-73583000D01*
X57297423Y-73583000D01*
X57278453Y-73587330D01*
X57275000Y-73594500D01*
X57275000Y-74682616D01*
X56767000Y-74682616D01*
X56767000Y-73605423D01*
X56762670Y-73586453D01*
X56755500Y-73583000D01*
X56035423Y-73583000D01*
X56016453Y-73587330D01*
X56013000Y-73594500D01*
X56013000Y-73773881D01*
X45418038Y-73773881D01*
X45447115Y-73677875D01*
X45447115Y-73677874D01*
X45450467Y-73666807D01*
X45461303Y-73492138D01*
X45431666Y-73319660D01*
X45363146Y-73158627D01*
X45299062Y-73071547D01*
X45285102Y-73052577D01*
X56013000Y-73052577D01*
X56017330Y-73071547D01*
X56024500Y-73075000D01*
X56744577Y-73075000D01*
X56763547Y-73070670D01*
X56767000Y-73063500D01*
X56767000Y-73052577D01*
X57275000Y-73052577D01*
X57279330Y-73071547D01*
X57286500Y-73075000D01*
X58006577Y-73075000D01*
X58025547Y-73070670D01*
X58029000Y-73063500D01*
X58029000Y-73052577D01*
X64653000Y-73052577D01*
X64657330Y-73071547D01*
X64664500Y-73075000D01*
X65384577Y-73075000D01*
X65403547Y-73070670D01*
X65407000Y-73063500D01*
X65407000Y-73052577D01*
X65915000Y-73052577D01*
X65919330Y-73071547D01*
X65926500Y-73075000D01*
X66646577Y-73075000D01*
X66665547Y-73070670D01*
X66669000Y-73063500D01*
X66669000Y-72884119D01*
X66668526Y-72874422D01*
X66655537Y-72741955D01*
X66651772Y-72722941D01*
X66600263Y-72552338D01*
X66592884Y-72534433D01*
X66509216Y-72377076D01*
X66498496Y-72360940D01*
X66385860Y-72222835D01*
X66372206Y-72209086D01*
X66234895Y-72095492D01*
X66218831Y-72084657D01*
X66062066Y-71999895D01*
X66044212Y-71992389D01*
X65936419Y-71959022D01*
X65918589Y-71957668D01*
X65915000Y-71969263D01*
X65915000Y-73052577D01*
X65407000Y-73052577D01*
X65407000Y-71975384D01*
X65403021Y-71957950D01*
X65390049Y-71957950D01*
X65290907Y-71987129D01*
X65272945Y-71994386D01*
X65115006Y-72076955D01*
X65098806Y-72087556D01*
X64959909Y-72199231D01*
X64946070Y-72212783D01*
X64831522Y-72349297D01*
X64820571Y-72365291D01*
X64734717Y-72521457D01*
X64727086Y-72539262D01*
X64673199Y-72709136D01*
X64669172Y-72728080D01*
X64653620Y-72866736D01*
X64653000Y-72877823D01*
X64653000Y-73052577D01*
X58029000Y-73052577D01*
X58029000Y-72884119D01*
X58028526Y-72874422D01*
X58015537Y-72741955D01*
X58011772Y-72722941D01*
X57960263Y-72552338D01*
X57952884Y-72534433D01*
X57869216Y-72377076D01*
X57858496Y-72360940D01*
X57745860Y-72222835D01*
X57732206Y-72209086D01*
X57594895Y-72095492D01*
X57578831Y-72084657D01*
X57422066Y-71999895D01*
X57404212Y-71992389D01*
X57296419Y-71959022D01*
X57278589Y-71957668D01*
X57275000Y-71969263D01*
X57275000Y-73052577D01*
X56767000Y-73052577D01*
X56767000Y-71975384D01*
X56763021Y-71957950D01*
X56750049Y-71957950D01*
X56650907Y-71987129D01*
X56632945Y-71994386D01*
X56475006Y-72076955D01*
X56458806Y-72087556D01*
X56319909Y-72199231D01*
X56306070Y-72212783D01*
X56191522Y-72349297D01*
X56180571Y-72365291D01*
X56094717Y-72521457D01*
X56087086Y-72539262D01*
X56033199Y-72709136D01*
X56029172Y-72728080D01*
X56013620Y-72866736D01*
X56013000Y-72877823D01*
X56013000Y-73052577D01*
X45285102Y-73052577D01*
X45266271Y-73026989D01*
X45266269Y-73026987D01*
X45259417Y-73017676D01*
X45126045Y-72904368D01*
X44970184Y-72824781D01*
X44800194Y-72783185D01*
X44789152Y-72782500D01*
X44662978Y-72782500D01*
X44657242Y-72783169D01*
X44657238Y-72783169D01*
X44615124Y-72788079D01*
X44532972Y-72797657D01*
X44522103Y-72801602D01*
X44522100Y-72801603D01*
X44379339Y-72853423D01*
X44379336Y-72853424D01*
X44368469Y-72857369D01*
X44296784Y-72904368D01*
X44231783Y-72946984D01*
X44231781Y-72946986D01*
X44222115Y-72953323D01*
X44161153Y-73017676D01*
X44109712Y-73071977D01*
X44109709Y-73071980D01*
X44101760Y-73080372D01*
X44095952Y-73090372D01*
X44095950Y-73090374D01*
X44019671Y-73221699D01*
X44013861Y-73231702D01*
X43963133Y-73399193D01*
X43952297Y-73573862D01*
X42456233Y-73573862D01*
X42461303Y-73492138D01*
X42431666Y-73319660D01*
X42363146Y-73158627D01*
X42299062Y-73071547D01*
X42266271Y-73026989D01*
X42266269Y-73026987D01*
X42259417Y-73017676D01*
X42126045Y-72904368D01*
X41970184Y-72824781D01*
X41800194Y-72783185D01*
X41789152Y-72782500D01*
X41662978Y-72782500D01*
X41657242Y-72783169D01*
X41657238Y-72783169D01*
X41615124Y-72788079D01*
X41532972Y-72797657D01*
X41522103Y-72801602D01*
X41522100Y-72801603D01*
X41379339Y-72853423D01*
X41379336Y-72853424D01*
X41368469Y-72857369D01*
X41296784Y-72904368D01*
X41231783Y-72946984D01*
X41231781Y-72946986D01*
X41222115Y-72953323D01*
X41161153Y-73017676D01*
X41109712Y-73071977D01*
X41109709Y-73071980D01*
X41101760Y-73080372D01*
X41095952Y-73090372D01*
X41095950Y-73090374D01*
X41019671Y-73221699D01*
X41013861Y-73231702D01*
X40963133Y-73399193D01*
X40952297Y-73573862D01*
X36300500Y-73573862D01*
X36300500Y-69678392D01*
X40099500Y-69678392D01*
X40114326Y-69819456D01*
X40117548Y-69829371D01*
X40117548Y-69829373D01*
X40165027Y-69975497D01*
X40172821Y-69999484D01*
X40267467Y-70163416D01*
X40394129Y-70304088D01*
X40547270Y-70415351D01*
X40556801Y-70419594D01*
X40556800Y-70419594D01*
X40700201Y-70483441D01*
X40720197Y-70492344D01*
X40730394Y-70494512D01*
X40730399Y-70494513D01*
X40818103Y-70513154D01*
X40905354Y-70531700D01*
X41094646Y-70531700D01*
X41181897Y-70513154D01*
X41269601Y-70494513D01*
X41269606Y-70494512D01*
X41279803Y-70492344D01*
X41299800Y-70483441D01*
X41443200Y-70419594D01*
X41443199Y-70419594D01*
X41452730Y-70415351D01*
X41605871Y-70304088D01*
X41732533Y-70163416D01*
X41827179Y-69999484D01*
X41830062Y-70001149D01*
X41871305Y-69946116D01*
X41949907Y-69905309D01*
X42038430Y-69902647D01*
X42119342Y-69938658D01*
X42171542Y-70000222D01*
X42172821Y-69999484D01*
X42267467Y-70163416D01*
X42394129Y-70304088D01*
X42547270Y-70415351D01*
X42556801Y-70419594D01*
X42556800Y-70419594D01*
X42700201Y-70483441D01*
X42720197Y-70492344D01*
X42730394Y-70494512D01*
X42730399Y-70494513D01*
X42818103Y-70513154D01*
X42905354Y-70531700D01*
X43094646Y-70531700D01*
X43181897Y-70513154D01*
X43269601Y-70494513D01*
X43269606Y-70494512D01*
X43279803Y-70492344D01*
X43299800Y-70483441D01*
X43443200Y-70419594D01*
X43443199Y-70419594D01*
X43452730Y-70415351D01*
X43605871Y-70304088D01*
X43704632Y-70194403D01*
X43725555Y-70171166D01*
X43725556Y-70171165D01*
X43732533Y-70163416D01*
X43737747Y-70154385D01*
X43739506Y-70151964D01*
X43806201Y-70093695D01*
X43891572Y-70070134D01*
X43978712Y-70085948D01*
X44050362Y-70138005D01*
X44092329Y-70215993D01*
X44098844Y-70264089D01*
X44099151Y-70264071D01*
X44099392Y-70268137D01*
X44099500Y-70268934D01*
X44099500Y-70275846D01*
X44100195Y-70281684D01*
X44100195Y-70281688D01*
X44100788Y-70286665D01*
X44102618Y-70302046D01*
X44108680Y-70315693D01*
X44108680Y-70315694D01*
X44131142Y-70366262D01*
X44148061Y-70404353D01*
X44163329Y-70419594D01*
X44213959Y-70470136D01*
X44227287Y-70483441D01*
X44295559Y-70513624D01*
X44315681Y-70522520D01*
X44329673Y-70528706D01*
X44344533Y-70530438D01*
X44344535Y-70530439D01*
X44349612Y-70531031D01*
X44349619Y-70531031D01*
X44355354Y-70531700D01*
X45644646Y-70531700D01*
X45650484Y-70531005D01*
X45650488Y-70531005D01*
X45656019Y-70530347D01*
X45656022Y-70530346D01*
X45670846Y-70528582D01*
X45684494Y-70522520D01*
X45756361Y-70490598D01*
X45756362Y-70490597D01*
X45773153Y-70483139D01*
X45827428Y-70428769D01*
X45839260Y-70416917D01*
X45839261Y-70416916D01*
X45852241Y-70403913D01*
X45897506Y-70301527D01*
X45900500Y-70275846D01*
X45900500Y-68486554D01*
X45899805Y-68480712D01*
X45899147Y-68475181D01*
X45899146Y-68475178D01*
X45897382Y-68460354D01*
X45875884Y-68411955D01*
X45859398Y-68374839D01*
X45859397Y-68374838D01*
X45851939Y-68358047D01*
X45799217Y-68305417D01*
X45785717Y-68291940D01*
X45785716Y-68291939D01*
X45772713Y-68278959D01*
X45704441Y-68248776D01*
X45684012Y-68239744D01*
X45684011Y-68239744D01*
X45670327Y-68233694D01*
X45655467Y-68231962D01*
X45655465Y-68231961D01*
X45650388Y-68231369D01*
X45650381Y-68231369D01*
X45644646Y-68230700D01*
X44355354Y-68230700D01*
X44349516Y-68231395D01*
X44349512Y-68231395D01*
X44343981Y-68232053D01*
X44343978Y-68232054D01*
X44329154Y-68233818D01*
X44315507Y-68239880D01*
X44315506Y-68239880D01*
X44243639Y-68271802D01*
X44243638Y-68271803D01*
X44226847Y-68279261D01*
X44213867Y-68292264D01*
X44161156Y-68345067D01*
X44147759Y-68358487D01*
X44102494Y-68460873D01*
X44099500Y-68486554D01*
X44099500Y-68493466D01*
X44099412Y-68493853D01*
X44099165Y-68498098D01*
X44098452Y-68498057D01*
X44079793Y-68579809D01*
X44024574Y-68649050D01*
X43944782Y-68687477D01*
X43856218Y-68687477D01*
X43776426Y-68649050D01*
X43739506Y-68610436D01*
X43737747Y-68608015D01*
X43732533Y-68598984D01*
X43676485Y-68536736D01*
X43612849Y-68466062D01*
X43605871Y-68458312D01*
X43452730Y-68347049D01*
X43359224Y-68305417D01*
X43289331Y-68274298D01*
X43289329Y-68274297D01*
X43279803Y-68270056D01*
X43269606Y-68267888D01*
X43269601Y-68267887D01*
X43181897Y-68249246D01*
X43094646Y-68230700D01*
X42905354Y-68230700D01*
X42818103Y-68249246D01*
X42730399Y-68267887D01*
X42730394Y-68267888D01*
X42720197Y-68270056D01*
X42710671Y-68274297D01*
X42710669Y-68274298D01*
X42640776Y-68305417D01*
X42547270Y-68347049D01*
X42394129Y-68458312D01*
X42267467Y-68598984D01*
X42172821Y-68762916D01*
X42169938Y-68761251D01*
X42128695Y-68816284D01*
X42050093Y-68857091D01*
X41961570Y-68859753D01*
X41880658Y-68823742D01*
X41828458Y-68762178D01*
X41827179Y-68762916D01*
X41761816Y-68649704D01*
X41732533Y-68598984D01*
X41605871Y-68458312D01*
X41452730Y-68347049D01*
X41359224Y-68305417D01*
X41289331Y-68274298D01*
X41289329Y-68274297D01*
X41279803Y-68270056D01*
X41269606Y-68267888D01*
X41269601Y-68267887D01*
X41181897Y-68249246D01*
X41094646Y-68230700D01*
X40905354Y-68230700D01*
X40818103Y-68249246D01*
X40730399Y-68267887D01*
X40730394Y-68267888D01*
X40720197Y-68270056D01*
X40710671Y-68274297D01*
X40710669Y-68274298D01*
X40640776Y-68305417D01*
X40547270Y-68347049D01*
X40394129Y-68458312D01*
X40267467Y-68598984D01*
X40172821Y-68762916D01*
X40169599Y-68772831D01*
X40169599Y-68772832D01*
X40133641Y-68883500D01*
X40114326Y-68942944D01*
X40099500Y-69084008D01*
X40099500Y-69678392D01*
X36300500Y-69678392D01*
X36300500Y-63567006D01*
X36320207Y-63480663D01*
X36375426Y-63411422D01*
X36455218Y-63372995D01*
X36543782Y-63372995D01*
X36623574Y-63411422D01*
X36640214Y-63426292D01*
X37111664Y-63897742D01*
X37158880Y-63973011D01*
X37181015Y-64036573D01*
X37276184Y-64188875D01*
X37284023Y-64196768D01*
X37284023Y-64196769D01*
X37313367Y-64226318D01*
X37402730Y-64316307D01*
X37490830Y-64372217D01*
X37544516Y-64406287D01*
X37554364Y-64412537D01*
X37643391Y-64444238D01*
X37713064Y-64469048D01*
X37713068Y-64469049D01*
X37723549Y-64472781D01*
X37734596Y-64474098D01*
X37734599Y-64474099D01*
X37890829Y-64492728D01*
X37890831Y-64492728D01*
X37901876Y-64494045D01*
X38080483Y-64475273D01*
X38091018Y-64471687D01*
X38091021Y-64471686D01*
X38201105Y-64434210D01*
X38250493Y-64417397D01*
X38344849Y-64359349D01*
X38393979Y-64329124D01*
X38393981Y-64329123D01*
X38403455Y-64323294D01*
X38531768Y-64197641D01*
X38629054Y-64046683D01*
X38690478Y-63877922D01*
X38708000Y-63739217D01*
X38708000Y-63570965D01*
X38708011Y-63568881D01*
X38708825Y-63491215D01*
X38708825Y-63491211D01*
X38708941Y-63480093D01*
X38706590Y-63469218D01*
X38700666Y-63441815D01*
X38697412Y-63421949D01*
X38694286Y-63394084D01*
X38693046Y-63383028D01*
X38683621Y-63355962D01*
X38677045Y-63332569D01*
X38673341Y-63315435D01*
X38673340Y-63315431D01*
X38670989Y-63304558D01*
X38654439Y-63269066D01*
X38646865Y-63250413D01*
X38637644Y-63223934D01*
X38633985Y-63213427D01*
X38618797Y-63189121D01*
X38607202Y-63167765D01*
X38599794Y-63151879D01*
X38595091Y-63141793D01*
X38571090Y-63110852D01*
X38559568Y-63094335D01*
X38544713Y-63070561D01*
X38544709Y-63070556D01*
X38538816Y-63061125D01*
X38530978Y-63053232D01*
X38530974Y-63053227D01*
X38510314Y-63032422D01*
X38509963Y-63032047D01*
X38509401Y-63031323D01*
X38483888Y-63005810D01*
X38483398Y-63005319D01*
X38469723Y-62991548D01*
X38412270Y-62933693D01*
X38411171Y-62932996D01*
X38410219Y-62932141D01*
X37815786Y-62337708D01*
X37768667Y-62262720D01*
X37757500Y-62196994D01*
X37757500Y-59975000D01*
X37777207Y-59888657D01*
X37832426Y-59819416D01*
X37912218Y-59780989D01*
X37956500Y-59776000D01*
X45500500Y-59776000D01*
X45586843Y-59795707D01*
G37*
%TD.AperFunction*%
%TA.AperFunction,Conductor*%
G36*
X62899670Y-59795707D02*
G01*
X62968911Y-59850926D01*
X63007338Y-59930718D01*
X63012327Y-59975000D01*
X63012327Y-60446377D01*
X62992620Y-60532720D01*
X62971311Y-60567347D01*
X62971234Y-60567481D01*
X62963291Y-60577832D01*
X62902783Y-60723911D01*
X62882145Y-60880673D01*
X62902783Y-61037435D01*
X62963291Y-61183514D01*
X63059545Y-61308955D01*
X63184986Y-61405209D01*
X63331065Y-61465717D01*
X63487827Y-61486355D01*
X63644589Y-61465717D01*
X63790668Y-61405209D01*
X63916109Y-61308955D01*
X64012363Y-61183514D01*
X64072871Y-61037435D01*
X64093509Y-60880673D01*
X64072871Y-60723911D01*
X64012363Y-60577832D01*
X64004420Y-60567481D01*
X63997902Y-60556191D01*
X63998970Y-60555574D01*
X63967523Y-60487027D01*
X63963327Y-60446377D01*
X63963327Y-59975000D01*
X63983034Y-59888657D01*
X64038253Y-59819416D01*
X64118045Y-59780989D01*
X64162327Y-59776000D01*
X76538500Y-59776000D01*
X76538500Y-67888548D01*
X76518793Y-67974891D01*
X76480214Y-68029262D01*
X74469742Y-70039734D01*
X74394754Y-70086853D01*
X74329028Y-70098020D01*
X66853177Y-70098020D01*
X66766834Y-70078313D01*
X66697593Y-70023094D01*
X66659166Y-69943302D01*
X66655417Y-69876838D01*
X66668380Y-69761265D01*
X66669000Y-69750178D01*
X66669000Y-69425423D01*
X66664670Y-69406453D01*
X66657500Y-69403000D01*
X65606000Y-69403000D01*
X65519657Y-69383293D01*
X65450416Y-69328074D01*
X65411989Y-69248282D01*
X65407000Y-69204000D01*
X65407000Y-69094000D01*
X65426707Y-69007657D01*
X65481926Y-68938416D01*
X65561718Y-68899989D01*
X65606000Y-68895000D01*
X66646577Y-68895000D01*
X66665547Y-68890670D01*
X66669000Y-68883500D01*
X66669000Y-68554119D01*
X66668526Y-68544422D01*
X66655537Y-68411955D01*
X66651772Y-68392941D01*
X66600263Y-68222338D01*
X66592884Y-68204433D01*
X66509216Y-68047076D01*
X66498496Y-68030940D01*
X66385860Y-67892835D01*
X66372206Y-67879086D01*
X66295456Y-67815593D01*
X66241489Y-67745372D01*
X66223335Y-67658689D01*
X66244589Y-67572714D01*
X66260698Y-67546136D01*
X66270362Y-67532687D01*
X66277361Y-67522947D01*
X66310919Y-67439471D01*
X66336125Y-67376769D01*
X66336126Y-67376767D01*
X66340601Y-67365634D01*
X66346300Y-67325594D01*
X66363572Y-67204227D01*
X66364490Y-67197778D01*
X66364645Y-67183000D01*
X66363798Y-67175996D01*
X66345717Y-67026590D01*
X66344276Y-67014680D01*
X66340036Y-67003459D01*
X66340035Y-67003455D01*
X66288588Y-66867306D01*
X66284345Y-66856077D01*
X66268527Y-66833062D01*
X66195107Y-66726235D01*
X66195105Y-66726232D01*
X66188312Y-66716349D01*
X66179358Y-66708371D01*
X66179356Y-66708369D01*
X66111307Y-66647740D01*
X66061721Y-66603560D01*
X66051115Y-66597945D01*
X66051113Y-66597943D01*
X65922485Y-66529838D01*
X65922481Y-66529837D01*
X65911881Y-66524224D01*
X65800935Y-66496356D01*
X65759082Y-66485843D01*
X65747441Y-66482919D01*
X65735440Y-66482856D01*
X65735439Y-66482856D01*
X65667755Y-66482502D01*
X65577895Y-66482031D01*
X65413032Y-66521612D01*
X65402374Y-66527113D01*
X65273030Y-66593872D01*
X65273027Y-66593874D01*
X65262369Y-66599375D01*
X65253330Y-66607261D01*
X65253326Y-66607263D01*
X65143647Y-66702942D01*
X65134604Y-66710831D01*
X65037113Y-66849547D01*
X65032754Y-66860727D01*
X65021117Y-66890574D01*
X64976425Y-66959000D01*
X63576939Y-68358487D01*
X62186212Y-69749214D01*
X62111224Y-69796333D01*
X62045498Y-69807500D01*
X61888607Y-69807500D01*
X61867807Y-69806410D01*
X61845040Y-69804017D01*
X61845038Y-69804017D01*
X61831546Y-69802599D01*
X61818165Y-69804862D01*
X61816740Y-69804907D01*
X61785861Y-69807500D01*
X61353483Y-69807500D01*
X61267140Y-69787793D01*
X61212769Y-69749214D01*
X57903063Y-66439508D01*
X54456768Y-62993214D01*
X54409649Y-62918226D01*
X54399733Y-62830219D01*
X54428984Y-62746626D01*
X54491608Y-62684002D01*
X54575201Y-62654751D01*
X54597482Y-62653500D01*
X56772468Y-62653500D01*
X56858811Y-62673207D01*
X56867996Y-62678628D01*
X56868233Y-62678191D01*
X57017235Y-62759092D01*
X57079779Y-62775500D01*
X57169625Y-62799071D01*
X57169627Y-62799071D01*
X57181233Y-62802116D01*
X57272189Y-62803545D01*
X57338765Y-62804591D01*
X57338768Y-62804591D01*
X57350760Y-62804779D01*
X57362449Y-62802102D01*
X57374389Y-62800847D01*
X57374638Y-62803218D01*
X57446078Y-62803161D01*
X57525902Y-62841523D01*
X57581176Y-62910721D01*
X57590724Y-62934228D01*
X57625042Y-63037092D01*
X57634782Y-63057885D01*
X57712558Y-63183569D01*
X57726827Y-63201571D01*
X57831426Y-63305988D01*
X57849450Y-63320223D01*
X57975274Y-63397782D01*
X57996082Y-63407485D01*
X58137033Y-63454237D01*
X58158153Y-63458764D01*
X58243244Y-63467482D01*
X58253377Y-63468000D01*
X58270577Y-63468000D01*
X58289547Y-63463670D01*
X58293000Y-63456500D01*
X58293000Y-63445577D01*
X58801000Y-63445577D01*
X58805330Y-63464547D01*
X58812500Y-63468000D01*
X58840558Y-63468000D01*
X58850825Y-63467469D01*
X58937085Y-63458518D01*
X58958243Y-63453949D01*
X59099089Y-63406959D01*
X59119885Y-63397218D01*
X59245569Y-63319442D01*
X59263571Y-63305173D01*
X59367988Y-63200574D01*
X59382223Y-63182550D01*
X59459782Y-63056726D01*
X59469485Y-63035918D01*
X59516237Y-62894967D01*
X59520764Y-62873847D01*
X59529482Y-62788756D01*
X59529674Y-62784996D01*
X59525670Y-62767453D01*
X59518500Y-62764000D01*
X58823423Y-62764000D01*
X58804453Y-62768330D01*
X58801000Y-62775500D01*
X58801000Y-63445577D01*
X58293000Y-63445577D01*
X58293000Y-62455000D01*
X58312707Y-62368657D01*
X58367926Y-62299416D01*
X58447718Y-62260989D01*
X58492000Y-62256000D01*
X59507577Y-62256000D01*
X59526547Y-62251670D01*
X59530000Y-62244500D01*
X59530000Y-62241442D01*
X59529469Y-62231175D01*
X59520518Y-62144915D01*
X59515949Y-62123757D01*
X59468959Y-61982911D01*
X59459218Y-61962115D01*
X59381442Y-61836431D01*
X59367173Y-61818429D01*
X59267584Y-61719013D01*
X59220400Y-61644065D01*
X59210407Y-61556068D01*
X59239585Y-61472449D01*
X59249669Y-61457856D01*
X59259128Y-61445395D01*
X59265815Y-61428507D01*
X59294993Y-61354810D01*
X59312129Y-61311528D01*
X59321664Y-61232741D01*
X59321780Y-61231783D01*
X59321781Y-61231774D01*
X59322500Y-61225829D01*
X59322499Y-60694172D01*
X59312129Y-60608472D01*
X59291430Y-60556191D01*
X59264121Y-60487215D01*
X59264120Y-60487213D01*
X59259128Y-60474605D01*
X59185447Y-60377535D01*
X59148941Y-60296846D01*
X59151060Y-60208308D01*
X59186076Y-60136079D01*
X59190595Y-60130190D01*
X59198536Y-60119841D01*
X59259044Y-59973762D01*
X59260746Y-59960831D01*
X59260748Y-59960825D01*
X59262302Y-59949023D01*
X59293111Y-59865991D01*
X59356896Y-59804550D01*
X59441022Y-59776869D01*
X59459599Y-59776000D01*
X62813327Y-59776000D01*
X62899670Y-59795707D01*
G37*
%TD.AperFunction*%
%TA.AperFunction,Conductor*%
G36*
X49353810Y-59795707D02*
G01*
X49423051Y-59850926D01*
X49461478Y-59930718D01*
X49463828Y-59962486D01*
X49466038Y-59968148D01*
X49479088Y-59972200D01*
X51757377Y-59972200D01*
X51776347Y-59967870D01*
X51776520Y-59967510D01*
X51794518Y-59888657D01*
X51849737Y-59819416D01*
X51929529Y-59780989D01*
X51973811Y-59776000D01*
X53001267Y-59776000D01*
X53087610Y-59795707D01*
X53156851Y-59850926D01*
X53195278Y-59930718D01*
X53197628Y-59962486D01*
X53199838Y-59968148D01*
X53212888Y-59972200D01*
X55491177Y-59972200D01*
X55510147Y-59967870D01*
X55510320Y-59967510D01*
X55528318Y-59888657D01*
X55583537Y-59819416D01*
X55663329Y-59780989D01*
X55707611Y-59776000D01*
X57870161Y-59776000D01*
X57956504Y-59795707D01*
X58025745Y-59850926D01*
X58064172Y-59930718D01*
X58068700Y-59961461D01*
X58068773Y-59962538D01*
X58067723Y-59976674D01*
X58070683Y-59990541D01*
X58071039Y-59995761D01*
X58071500Y-60009300D01*
X58071500Y-60147601D01*
X58051793Y-60233944D01*
X57992816Y-60306110D01*
X57921922Y-60359922D01*
X57834872Y-60474605D01*
X57829880Y-60487213D01*
X57829879Y-60487215D01*
X57811863Y-60532720D01*
X57781871Y-60608472D01*
X57777189Y-60647160D01*
X57772220Y-60688217D01*
X57772219Y-60688226D01*
X57771500Y-60694171D01*
X57771500Y-60874547D01*
X57751793Y-60960890D01*
X57713214Y-61015261D01*
X57384483Y-61343993D01*
X57309495Y-61391112D01*
X57242728Y-61402276D01*
X57223322Y-61402175D01*
X57195895Y-61402031D01*
X57031032Y-61441612D01*
X56880369Y-61519375D01*
X56879423Y-61520200D01*
X56802337Y-61550321D01*
X56772971Y-61552500D01*
X55161970Y-61552500D01*
X55075627Y-61532793D01*
X55006386Y-61477574D01*
X54967959Y-61397782D01*
X54967959Y-61309218D01*
X55006386Y-61229426D01*
X55034722Y-61200500D01*
X55189080Y-61072122D01*
X55201922Y-61059280D01*
X55329288Y-60906139D01*
X55339573Y-60891175D01*
X55436899Y-60717386D01*
X55444285Y-60700796D01*
X55508311Y-60512185D01*
X55511222Y-60500058D01*
X55509847Y-60482997D01*
X55509306Y-60482633D01*
X55496249Y-60480200D01*
X53222289Y-60480200D01*
X53205455Y-60484042D01*
X53205686Y-60503118D01*
X53233833Y-60613943D01*
X53239897Y-60631069D01*
X53323285Y-60811952D01*
X53332366Y-60827681D01*
X53447318Y-60990334D01*
X53459126Y-61004159D01*
X53601790Y-61143136D01*
X53615908Y-61154568D01*
X53745120Y-61240905D01*
X53805962Y-61305260D01*
X53832857Y-61389641D01*
X53820476Y-61477335D01*
X53771273Y-61550973D01*
X53694993Y-61595969D01*
X53634561Y-61605367D01*
X52880504Y-61605367D01*
X52859704Y-61604277D01*
X52836937Y-61601884D01*
X52836935Y-61601884D01*
X52823443Y-61600466D01*
X52810062Y-61602729D01*
X52808637Y-61602774D01*
X52777758Y-61605367D01*
X51343400Y-61605367D01*
X51257057Y-61585660D01*
X51187816Y-61530441D01*
X51149389Y-61450649D01*
X51149389Y-61362085D01*
X51187816Y-61282293D01*
X51246164Y-61232741D01*
X51287167Y-61209778D01*
X51302139Y-61199488D01*
X51455280Y-61072122D01*
X51468122Y-61059280D01*
X51595488Y-60906139D01*
X51605773Y-60891175D01*
X51703099Y-60717386D01*
X51710485Y-60700796D01*
X51774511Y-60512185D01*
X51777422Y-60500058D01*
X51776047Y-60482997D01*
X51775506Y-60482633D01*
X51762449Y-60480200D01*
X50898623Y-60480200D01*
X50879653Y-60484530D01*
X50876200Y-60491700D01*
X50876200Y-61362404D01*
X50880811Y-61382606D01*
X50902722Y-61410081D01*
X50941150Y-61489873D01*
X50941151Y-61578436D01*
X50902727Y-61658230D01*
X50857060Y-61696709D01*
X50858501Y-61698782D01*
X50849934Y-61704737D01*
X50840795Y-61709761D01*
X50832681Y-61716765D01*
X50810854Y-61738592D01*
X50795375Y-61752530D01*
X50777576Y-61766943D01*
X50777574Y-61766945D01*
X50767033Y-61775481D01*
X50759173Y-61786541D01*
X50758203Y-61787574D01*
X50738187Y-61811259D01*
X49325106Y-63224340D01*
X49250118Y-63271459D01*
X49162111Y-63281375D01*
X49091278Y-63259497D01*
X49020881Y-63222224D01*
X48896431Y-63190964D01*
X48817494Y-63150818D01*
X48804200Y-63138675D01*
X46858786Y-61193262D01*
X46811667Y-61118274D01*
X46800500Y-61052548D01*
X46800500Y-60484042D01*
X49471655Y-60484042D01*
X49471886Y-60503118D01*
X49500033Y-60613943D01*
X49506097Y-60631069D01*
X49589485Y-60811952D01*
X49598566Y-60827681D01*
X49713518Y-60990334D01*
X49725326Y-61004159D01*
X49867990Y-61143136D01*
X49882113Y-61154572D01*
X50047711Y-61265221D01*
X50063689Y-61273897D01*
X50246680Y-61352517D01*
X50263972Y-61358135D01*
X50346328Y-61376770D01*
X50364258Y-61376736D01*
X50368200Y-61359391D01*
X50368200Y-60502623D01*
X50363870Y-60483653D01*
X50356700Y-60480200D01*
X49488489Y-60480200D01*
X49471655Y-60484042D01*
X46800500Y-60484042D01*
X46800500Y-59975000D01*
X46820207Y-59888657D01*
X46875426Y-59819416D01*
X46955218Y-59780989D01*
X46999500Y-59776000D01*
X49267467Y-59776000D01*
X49353810Y-59795707D01*
G37*
%TD.AperFunction*%
%TD*%
%TA.AperFunction,Conductor*%
%TO.N,GND*%
G36*
X59888995Y-51004857D02*
G01*
X59926011Y-51081718D01*
X59931000Y-51126000D01*
X59931000Y-52141577D01*
X59935330Y-52160547D01*
X59942500Y-52164000D01*
X59945558Y-52164000D01*
X59955825Y-52163469D01*
X60042085Y-52154518D01*
X60063243Y-52149949D01*
X60204089Y-52102959D01*
X60224885Y-52093218D01*
X60350569Y-52015442D01*
X60368571Y-52001173D01*
X60467987Y-51901584D01*
X60542935Y-51854400D01*
X60630932Y-51844407D01*
X60714551Y-51873585D01*
X60729137Y-51883664D01*
X60741605Y-51893128D01*
X60754213Y-51898120D01*
X60754215Y-51898121D01*
X60822451Y-51925137D01*
X60875472Y-51946129D01*
X60914160Y-51950811D01*
X60955217Y-51955780D01*
X60955226Y-51955781D01*
X60961171Y-51956500D01*
X60967171Y-51956500D01*
X61227332Y-51956499D01*
X61492828Y-51956499D01*
X61498770Y-51955780D01*
X61565843Y-51947664D01*
X61565844Y-51947664D01*
X61578528Y-51946129D01*
X61618003Y-51930500D01*
X61699785Y-51898121D01*
X61699787Y-51898120D01*
X61712395Y-51893128D01*
X61827078Y-51806078D01*
X61835278Y-51795275D01*
X61840767Y-51789786D01*
X61915755Y-51742667D01*
X61981481Y-51731500D01*
X61987300Y-51731500D01*
X62073643Y-51751207D01*
X62142884Y-51806426D01*
X62181311Y-51886218D01*
X62186300Y-51930500D01*
X62186300Y-53083504D01*
X62166593Y-53169847D01*
X62145284Y-53204474D01*
X62145207Y-53204608D01*
X62137264Y-53214959D01*
X62076756Y-53361038D01*
X62056118Y-53517800D01*
X62076756Y-53674562D01*
X62137264Y-53820641D01*
X62233518Y-53946082D01*
X62358959Y-54042336D01*
X62505038Y-54102844D01*
X62661800Y-54123482D01*
X62818562Y-54102844D01*
X62964641Y-54042336D01*
X63090082Y-53946082D01*
X63186336Y-53820641D01*
X63246844Y-53674562D01*
X63267482Y-53517800D01*
X63246844Y-53361038D01*
X63186336Y-53214959D01*
X63178393Y-53204608D01*
X63171875Y-53193318D01*
X63172943Y-53192701D01*
X63141496Y-53124154D01*
X63137300Y-53083504D01*
X63137300Y-51553956D01*
X63137774Y-51542166D01*
X63140642Y-51529489D01*
X63137682Y-51481772D01*
X63137300Y-51469451D01*
X63137300Y-51456817D01*
X63136296Y-51449805D01*
X63136245Y-51449091D01*
X63134748Y-51434476D01*
X63133087Y-51407698D01*
X63132209Y-51393545D01*
X63127395Y-51380210D01*
X63126345Y-51375140D01*
X63124891Y-51370166D01*
X63122881Y-51356133D01*
X63117013Y-51343227D01*
X63117012Y-51343223D01*
X63105906Y-51318796D01*
X63099884Y-51304004D01*
X63090773Y-51278767D01*
X63090772Y-51278766D01*
X63085959Y-51265433D01*
X63077597Y-51253988D01*
X63075162Y-51249408D01*
X63072373Y-51245047D01*
X63066506Y-51232142D01*
X63039731Y-51201068D01*
X63029804Y-51188565D01*
X63028766Y-51187144D01*
X63028758Y-51187135D01*
X63024223Y-51180927D01*
X63016096Y-51172800D01*
X63006055Y-51161986D01*
X62986850Y-51139697D01*
X62986848Y-51139695D01*
X62977596Y-51128958D01*
X62965700Y-51121247D01*
X62964064Y-51119820D01*
X62911954Y-51048209D01*
X62902300Y-51015393D01*
X65543097Y-51024627D01*
X65556476Y-51034893D01*
X65702555Y-51095401D01*
X65859317Y-51116039D01*
X66016079Y-51095401D01*
X66162158Y-51034893D01*
X66172667Y-51026829D01*
X67448505Y-51031290D01*
X67450329Y-51321491D01*
X67450329Y-51321492D01*
X67503019Y-59703213D01*
X67507686Y-60445679D01*
X63963327Y-60396926D01*
X63963327Y-59486819D01*
X63963800Y-59475031D01*
X63966669Y-59462353D01*
X63963709Y-59414642D01*
X63963327Y-59402320D01*
X63963327Y-59389682D01*
X63962325Y-59382688D01*
X63962274Y-59381965D01*
X63960774Y-59367330D01*
X63959113Y-59340563D01*
X63958235Y-59326410D01*
X63953419Y-59313069D01*
X63952366Y-59307986D01*
X63950918Y-59303035D01*
X63948908Y-59288998D01*
X63931924Y-59251643D01*
X63925906Y-59236859D01*
X63916798Y-59211630D01*
X63911985Y-59198297D01*
X63903625Y-59186853D01*
X63901193Y-59182279D01*
X63898402Y-59177916D01*
X63892533Y-59165007D01*
X63865758Y-59133933D01*
X63855831Y-59121430D01*
X63854793Y-59120009D01*
X63854785Y-59120000D01*
X63850250Y-59113792D01*
X63842123Y-59105665D01*
X63832082Y-59094851D01*
X63812874Y-59072559D01*
X63812873Y-59072558D01*
X63803623Y-59061823D01*
X63791730Y-59054114D01*
X63787767Y-59050657D01*
X63777870Y-59041412D01*
X62475150Y-57738692D01*
X62432012Y-57674132D01*
X62378528Y-57545011D01*
X62373536Y-57532959D01*
X62277282Y-57407518D01*
X62151841Y-57311264D01*
X62005762Y-57250756D01*
X61849000Y-57230118D01*
X61692238Y-57250756D01*
X61546159Y-57311264D01*
X61420718Y-57407518D01*
X61324464Y-57532959D01*
X61263956Y-57679038D01*
X61243318Y-57835800D01*
X61263956Y-57992562D01*
X61324464Y-58138641D01*
X61420718Y-58264082D01*
X61546159Y-58360336D01*
X61692238Y-58420844D01*
X61757454Y-58429430D01*
X61763630Y-58430243D01*
X61846662Y-58461052D01*
X61878369Y-58486827D01*
X62954041Y-59562499D01*
X63001160Y-59637487D01*
X63012327Y-59703213D01*
X63012327Y-60383844D01*
X59164355Y-60330915D01*
X59148941Y-60296846D01*
X59151060Y-60208308D01*
X59186076Y-60136079D01*
X59190595Y-60130190D01*
X59198536Y-60119841D01*
X59259044Y-59973762D01*
X59279682Y-59817000D01*
X59259044Y-59660238D01*
X59198536Y-59514159D01*
X59102282Y-59388718D01*
X58976841Y-59292464D01*
X58830762Y-59231956D01*
X58674000Y-59211318D01*
X58517238Y-59231956D01*
X58442358Y-59262972D01*
X58488407Y-52856205D01*
X58605112Y-52871569D01*
X58761874Y-52850931D01*
X58907953Y-52790423D01*
X59033394Y-52694169D01*
X59129648Y-52568728D01*
X59190156Y-52422649D01*
X59201459Y-52336794D01*
X59232268Y-52253762D01*
X59296052Y-52192320D01*
X59380177Y-52164637D01*
X59399592Y-52164225D01*
X59419547Y-52159670D01*
X59423000Y-52152500D01*
X59423000Y-51457423D01*
X59418670Y-51438453D01*
X59411500Y-51435000D01*
X58741423Y-51435000D01*
X58722452Y-51439330D01*
X58721434Y-51441444D01*
X58666214Y-51510685D01*
X58586420Y-51549109D01*
X58497856Y-51549107D01*
X58497802Y-51549081D01*
X58501748Y-51000006D01*
X59888995Y-51004857D01*
G37*
%TD.AperFunction*%
%TD*%
M02*
