%TF.GenerationSoftware,KiCad,Pcbnew,(6.0.4)*%
%TF.CreationDate,2023-01-05T00:39:55+09:00*%
%TF.ProjectId,prometheus-em,70726f6d-6574-4686-9575-732d656d2e6b,rev?*%
%TF.SameCoordinates,Original*%
%TF.FileFunction,Soldermask,Bot*%
%TF.FilePolarity,Negative*%
%FSLAX46Y46*%
G04 Gerber Fmt 4.6, Leading zero omitted, Abs format (unit mm)*
G04 Created by KiCad (PCBNEW (6.0.4)) date 2023-01-05 00:39:55*
%MOMM*%
%LPD*%
G01*
G04 APERTURE LIST*
G04 Aperture macros list*
%AMRoundRect*
0 Rectangle with rounded corners*
0 $1 Rounding radius*
0 $2 $3 $4 $5 $6 $7 $8 $9 X,Y pos of 4 corners*
0 Add a 4 corners polygon primitive as box body*
4,1,4,$2,$3,$4,$5,$6,$7,$8,$9,$2,$3,0*
0 Add four circle primitives for the rounded corners*
1,1,$1+$1,$2,$3*
1,1,$1+$1,$4,$5*
1,1,$1+$1,$6,$7*
1,1,$1+$1,$8,$9*
0 Add four rect primitives between the rounded corners*
20,1,$1+$1,$2,$3,$4,$5,0*
20,1,$1+$1,$4,$5,$6,$7,0*
20,1,$1+$1,$6,$7,$8,$9,0*
20,1,$1+$1,$8,$9,$2,$3,0*%
G04 Aperture macros list end*
%ADD10RoundRect,0.200000X0.275000X-0.200000X0.275000X0.200000X-0.275000X0.200000X-0.275000X-0.200000X0*%
%ADD11R,1.300000X0.600000*%
%ADD12R,1.350000X1.350000*%
%ADD13O,1.350000X1.350000*%
%ADD14RoundRect,0.250000X-0.615000X0.265000X-0.615000X-0.265000X0.615000X-0.265000X0.615000X0.265000X0*%
%ADD15O,1.730000X1.030000*%
%ADD16C,0.650000*%
%ADD17O,1.000000X1.800000*%
%ADD18O,1.000000X2.100000*%
%ADD19C,1.524000*%
%ADD20C,0.900000*%
%ADD21RoundRect,0.225000X-0.250000X0.225000X-0.250000X-0.225000X0.250000X-0.225000X0.250000X0.225000X0*%
%ADD22R,2.000000X1.350000*%
%ADD23O,2.000000X1.350000*%
%ADD24R,1.200000X1.700000*%
%ADD25O,1.200000X1.700000*%
%ADD26RoundRect,0.200000X-0.275000X0.200000X-0.275000X-0.200000X0.275000X-0.200000X0.275000X0.200000X0*%
%ADD27RoundRect,0.225000X0.225000X0.250000X-0.225000X0.250000X-0.225000X-0.250000X0.225000X-0.250000X0*%
%ADD28RoundRect,0.200000X-0.200000X-0.275000X0.200000X-0.275000X0.200000X0.275000X-0.200000X0.275000X0*%
%ADD29R,1.525000X0.650000*%
%ADD30R,2.390000X2.390000*%
G04 APERTURE END LIST*
D10*
%TO.C,R26*%
X74650000Y-44325000D03*
X74650000Y-42675000D03*
%TD*%
D11*
%TO.C,Q5*%
X70100000Y-41800000D03*
X70100000Y-39900000D03*
X72200000Y-40850000D03*
%TD*%
D12*
%TO.C,J8*%
X44434000Y-37719000D03*
D13*
X42434000Y-37719000D03*
%TD*%
D14*
%TO.C,J4*%
X71900000Y-43800000D03*
D15*
X71900000Y-45300000D03*
X71900000Y-46800000D03*
X71900000Y-48300000D03*
X71900000Y-49800000D03*
%TD*%
D14*
%TO.C,J2*%
X71900000Y-53850000D03*
D15*
X71900000Y-55350000D03*
X71900000Y-56850000D03*
X71900000Y-58350000D03*
%TD*%
D16*
%TO.C,U1*%
X64231000Y-69649000D03*
X58451000Y-69649000D03*
D17*
X65661000Y-73329000D03*
D18*
X57021000Y-69149000D03*
D17*
X57021000Y-73329000D03*
D18*
X65661000Y-69149000D03*
%TD*%
D19*
%TO.C,U2*%
X51896000Y-45229000D03*
X54436000Y-45229000D03*
X56976000Y-45229000D03*
X59516000Y-45229000D03*
X62056000Y-45229000D03*
X62056000Y-37609000D03*
X59516000Y-37609000D03*
X56976000Y-37609000D03*
X54436000Y-37609000D03*
X51896000Y-37609000D03*
%TD*%
D20*
%TO.C,S3*%
X49800000Y-73500000D03*
X46800000Y-73500000D03*
%TD*%
D11*
%TO.C,Q4*%
X75150000Y-50900000D03*
X75150000Y-52800000D03*
X73050000Y-51850000D03*
%TD*%
D21*
%TO.C,C10*%
X58547000Y-60960000D03*
X58547000Y-62510000D03*
%TD*%
D22*
%TO.C,J3*%
X54356000Y-54226200D03*
D23*
X54356000Y-56226200D03*
X54356000Y-58226200D03*
X54356000Y-60226200D03*
%TD*%
D22*
%TO.C,J1*%
X50622200Y-54226200D03*
D23*
X50622200Y-56226200D03*
X50622200Y-58226200D03*
X50622200Y-60226200D03*
%TD*%
D12*
%TO.C,J5*%
X39497000Y-47895000D03*
D13*
X39497000Y-49895000D03*
%TD*%
D24*
%TO.C,J7*%
X45000000Y-69381200D03*
D25*
X43000000Y-69381200D03*
X41000000Y-69381200D03*
%TD*%
D26*
%TO.C,R23*%
X74650000Y-49275000D03*
X74650000Y-47625000D03*
%TD*%
D27*
%TO.C,C6*%
X61227000Y-51181000D03*
X59677000Y-51181000D03*
%TD*%
D28*
%TO.C,R17*%
X49467000Y-66675000D03*
X51117000Y-66675000D03*
%TD*%
D29*
%TO.C,IC4*%
X48178000Y-47371000D03*
X48178000Y-48641000D03*
X48178000Y-49911000D03*
X48178000Y-51181000D03*
X42754000Y-51181000D03*
X42754000Y-49911000D03*
X42754000Y-48641000D03*
X42754000Y-47371000D03*
D30*
X45466000Y-49276000D03*
%TD*%
D27*
%TO.C,C5*%
X61227000Y-49403000D03*
X59677000Y-49403000D03*
%TD*%
D29*
%TO.C,IC5*%
X48178000Y-40132000D03*
X48178000Y-41402000D03*
X48178000Y-42672000D03*
X48178000Y-43942000D03*
X42754000Y-43942000D03*
X42754000Y-42672000D03*
X42754000Y-41402000D03*
X42754000Y-40132000D03*
D30*
X45466000Y-42037000D03*
%TD*%
D12*
%TO.C,J6*%
X39497000Y-40656000D03*
D13*
X39497000Y-42656000D03*
%TD*%
M02*
