%TF.GenerationSoftware,KiCad,Pcbnew,(6.0.4)*%
%TF.CreationDate,2022-11-24T00:09:56+09:00*%
%TF.ProjectId,prometheus-em,70726f6d-6574-4686-9575-732d656d2e6b,rev?*%
%TF.SameCoordinates,Original*%
%TF.FileFunction,Legend,Bot*%
%TF.FilePolarity,Positive*%
%FSLAX46Y46*%
G04 Gerber Fmt 4.6, Leading zero omitted, Abs format (unit mm)*
G04 Created by KiCad (PCBNEW (6.0.4)) date 2022-11-24 00:09:56*
%MOMM*%
%LPD*%
G01*
G04 APERTURE LIST*
%ADD10C,0.175000*%
%ADD11C,0.150000*%
%ADD12C,0.254000*%
%ADD13C,0.120000*%
%ADD14C,0.200000*%
G04 APERTURE END LIST*
D10*
X37781666Y-47278333D02*
X37081666Y-47278333D01*
X37581666Y-47511666D01*
X37081666Y-47745000D01*
X37781666Y-47745000D01*
X37781666Y-48178333D02*
X37748333Y-48111666D01*
X37715000Y-48078333D01*
X37648333Y-48045000D01*
X37448333Y-48045000D01*
X37381666Y-48078333D01*
X37348333Y-48111666D01*
X37315000Y-48178333D01*
X37315000Y-48278333D01*
X37348333Y-48345000D01*
X37381666Y-48378333D01*
X37448333Y-48411666D01*
X37648333Y-48411666D01*
X37715000Y-48378333D01*
X37748333Y-48345000D01*
X37781666Y-48278333D01*
X37781666Y-48178333D01*
X37315000Y-48611666D02*
X37315000Y-48878333D01*
X37081666Y-48711666D02*
X37681666Y-48711666D01*
X37748333Y-48745000D01*
X37781666Y-48811666D01*
X37781666Y-48878333D01*
X37781666Y-49211666D02*
X37748333Y-49145000D01*
X37715000Y-49111666D01*
X37648333Y-49078333D01*
X37448333Y-49078333D01*
X37381666Y-49111666D01*
X37348333Y-49145000D01*
X37315000Y-49211666D01*
X37315000Y-49311666D01*
X37348333Y-49378333D01*
X37381666Y-49411666D01*
X37448333Y-49445000D01*
X37648333Y-49445000D01*
X37715000Y-49411666D01*
X37748333Y-49378333D01*
X37781666Y-49311666D01*
X37781666Y-49211666D01*
X37781666Y-49745000D02*
X37315000Y-49745000D01*
X37448333Y-49745000D02*
X37381666Y-49778333D01*
X37348333Y-49811666D01*
X37315000Y-49878333D01*
X37315000Y-49945000D01*
X37148333Y-50145000D02*
X37115000Y-50178333D01*
X37081666Y-50245000D01*
X37081666Y-50411666D01*
X37115000Y-50478333D01*
X37148333Y-50511666D01*
X37215000Y-50545000D01*
X37281666Y-50545000D01*
X37381666Y-50511666D01*
X37781666Y-50111666D01*
X37781666Y-50545000D01*
D11*
X75673809Y-42844095D02*
X75635714Y-42806000D01*
X75559523Y-42767904D01*
X75369047Y-42767904D01*
X75292857Y-42806000D01*
X75254761Y-42844095D01*
X75216666Y-42920285D01*
X75216666Y-42996476D01*
X75254761Y-43110761D01*
X75711904Y-43567904D01*
X75216666Y-43567904D01*
X74721428Y-42767904D02*
X74645238Y-42767904D01*
X74569047Y-42806000D01*
X74530952Y-42844095D01*
X74492857Y-42920285D01*
X74454761Y-43072666D01*
X74454761Y-43263142D01*
X74492857Y-43415523D01*
X74530952Y-43491714D01*
X74569047Y-43529809D01*
X74645238Y-43567904D01*
X74721428Y-43567904D01*
X74797619Y-43529809D01*
X74835714Y-43491714D01*
X74873809Y-43415523D01*
X74911904Y-43263142D01*
X74911904Y-43072666D01*
X74873809Y-42920285D01*
X74835714Y-42844095D01*
X74797619Y-42806000D01*
X74721428Y-42767904D01*
X74150000Y-42844095D02*
X74111904Y-42806000D01*
X74035714Y-42767904D01*
X73845238Y-42767904D01*
X73769047Y-42806000D01*
X73730952Y-42844095D01*
X73692857Y-42920285D01*
X73692857Y-42996476D01*
X73730952Y-43110761D01*
X74188095Y-43567904D01*
X73692857Y-43567904D01*
X73388095Y-42844095D02*
X73350000Y-42806000D01*
X73273809Y-42767904D01*
X73083333Y-42767904D01*
X73007142Y-42806000D01*
X72969047Y-42844095D01*
X72930952Y-42920285D01*
X72930952Y-42996476D01*
X72969047Y-43110761D01*
X73426190Y-43567904D01*
X72930952Y-43567904D01*
X72588095Y-43491714D02*
X72550000Y-43529809D01*
X72588095Y-43567904D01*
X72626190Y-43529809D01*
X72588095Y-43491714D01*
X72588095Y-43567904D01*
X71788095Y-43567904D02*
X72245238Y-43567904D01*
X72016666Y-43567904D02*
X72016666Y-42767904D01*
X72092857Y-42882190D01*
X72169047Y-42958380D01*
X72245238Y-42996476D01*
X71026190Y-43567904D02*
X71483333Y-43567904D01*
X71254761Y-43567904D02*
X71254761Y-42767904D01*
X71330952Y-42882190D01*
X71407142Y-42958380D01*
X71483333Y-42996476D01*
X75178571Y-44627333D02*
X74797619Y-44627333D01*
X75254761Y-44855904D02*
X74988095Y-44055904D01*
X74721428Y-44855904D01*
X74454761Y-44855904D02*
X74454761Y-44055904D01*
X74378571Y-44551142D02*
X74150000Y-44855904D01*
X74150000Y-44322571D02*
X74454761Y-44627333D01*
X73807142Y-44855904D02*
X73807142Y-44322571D01*
X73807142Y-44055904D02*
X73845238Y-44094000D01*
X73807142Y-44132095D01*
X73769047Y-44094000D01*
X73807142Y-44055904D01*
X73807142Y-44132095D01*
X73311904Y-44855904D02*
X73388095Y-44817809D01*
X73426190Y-44779714D01*
X73464285Y-44703523D01*
X73464285Y-44474952D01*
X73426190Y-44398761D01*
X73388095Y-44360666D01*
X73311904Y-44322571D01*
X73197619Y-44322571D01*
X73121428Y-44360666D01*
X73083333Y-44398761D01*
X73045238Y-44474952D01*
X73045238Y-44703523D01*
X73083333Y-44779714D01*
X73121428Y-44817809D01*
X73197619Y-44855904D01*
X73311904Y-44855904D01*
X72092857Y-44855904D02*
X72092857Y-44055904D01*
X71826190Y-44627333D01*
X71559523Y-44055904D01*
X71559523Y-44855904D01*
X45176000Y-66545666D02*
X45176000Y-67045666D01*
X45209333Y-67145666D01*
X45276000Y-67212333D01*
X45376000Y-67245666D01*
X45442666Y-67245666D01*
X44876000Y-67212333D02*
X44776000Y-67245666D01*
X44609333Y-67245666D01*
X44542666Y-67212333D01*
X44509333Y-67179000D01*
X44476000Y-67112333D01*
X44476000Y-67045666D01*
X44509333Y-66979000D01*
X44542666Y-66945666D01*
X44609333Y-66912333D01*
X44742666Y-66879000D01*
X44809333Y-66845666D01*
X44842666Y-66812333D01*
X44876000Y-66745666D01*
X44876000Y-66679000D01*
X44842666Y-66612333D01*
X44809333Y-66579000D01*
X44742666Y-66545666D01*
X44576000Y-66545666D01*
X44476000Y-66579000D01*
X44276000Y-66545666D02*
X43876000Y-66545666D01*
X44076000Y-67245666D02*
X44076000Y-66545666D01*
X43109333Y-67245666D02*
X43109333Y-66545666D01*
X42842666Y-66545666D01*
X42776000Y-66579000D01*
X42742666Y-66612333D01*
X42709333Y-66679000D01*
X42709333Y-66779000D01*
X42742666Y-66845666D01*
X42776000Y-66879000D01*
X42842666Y-66912333D01*
X43109333Y-66912333D01*
X42409333Y-67245666D02*
X42409333Y-66545666D01*
X42409333Y-66879000D02*
X42009333Y-66879000D01*
X42009333Y-67245666D02*
X42009333Y-66545666D01*
X41676000Y-66979000D02*
X41142666Y-66979000D01*
X40876000Y-66545666D02*
X40442666Y-66545666D01*
X40676000Y-66812333D01*
X40576000Y-66812333D01*
X40509333Y-66845666D01*
X40476000Y-66879000D01*
X40442666Y-66945666D01*
X40442666Y-67112333D01*
X40476000Y-67179000D01*
X40509333Y-67212333D01*
X40576000Y-67245666D01*
X40776000Y-67245666D01*
X40842666Y-67212333D01*
X40876000Y-67179000D01*
D10*
X37781666Y-39912333D02*
X37081666Y-39912333D01*
X37581666Y-40145666D01*
X37081666Y-40379000D01*
X37781666Y-40379000D01*
X37781666Y-40812333D02*
X37748333Y-40745666D01*
X37715000Y-40712333D01*
X37648333Y-40679000D01*
X37448333Y-40679000D01*
X37381666Y-40712333D01*
X37348333Y-40745666D01*
X37315000Y-40812333D01*
X37315000Y-40912333D01*
X37348333Y-40979000D01*
X37381666Y-41012333D01*
X37448333Y-41045666D01*
X37648333Y-41045666D01*
X37715000Y-41012333D01*
X37748333Y-40979000D01*
X37781666Y-40912333D01*
X37781666Y-40812333D01*
X37315000Y-41245666D02*
X37315000Y-41512333D01*
X37081666Y-41345666D02*
X37681666Y-41345666D01*
X37748333Y-41379000D01*
X37781666Y-41445666D01*
X37781666Y-41512333D01*
X37781666Y-41845666D02*
X37748333Y-41779000D01*
X37715000Y-41745666D01*
X37648333Y-41712333D01*
X37448333Y-41712333D01*
X37381666Y-41745666D01*
X37348333Y-41779000D01*
X37315000Y-41845666D01*
X37315000Y-41945666D01*
X37348333Y-42012333D01*
X37381666Y-42045666D01*
X37448333Y-42079000D01*
X37648333Y-42079000D01*
X37715000Y-42045666D01*
X37748333Y-42012333D01*
X37781666Y-41945666D01*
X37781666Y-41845666D01*
X37781666Y-42379000D02*
X37315000Y-42379000D01*
X37448333Y-42379000D02*
X37381666Y-42412333D01*
X37348333Y-42445666D01*
X37315000Y-42512333D01*
X37315000Y-42579000D01*
X37148333Y-42779000D02*
X37115000Y-42812333D01*
X37081666Y-42879000D01*
X37081666Y-43045666D01*
X37115000Y-43112333D01*
X37148333Y-43145666D01*
X37215000Y-43179000D01*
X37281666Y-43179000D01*
X37381666Y-43145666D01*
X37781666Y-42745666D01*
X37781666Y-43179000D01*
D11*
%TO.C,C10*%
X57654000Y-61272000D02*
X57687333Y-61238666D01*
X57720666Y-61138666D01*
X57720666Y-61072000D01*
X57687333Y-60972000D01*
X57620666Y-60905333D01*
X57554000Y-60872000D01*
X57420666Y-60838666D01*
X57320666Y-60838666D01*
X57187333Y-60872000D01*
X57120666Y-60905333D01*
X57054000Y-60972000D01*
X57020666Y-61072000D01*
X57020666Y-61138666D01*
X57054000Y-61238666D01*
X57087333Y-61272000D01*
X57720666Y-61938666D02*
X57720666Y-61538666D01*
X57720666Y-61738666D02*
X57020666Y-61738666D01*
X57120666Y-61672000D01*
X57187333Y-61605333D01*
X57220666Y-61538666D01*
X57020666Y-62372000D02*
X57020666Y-62438666D01*
X57054000Y-62505333D01*
X57087333Y-62538666D01*
X57154000Y-62572000D01*
X57287333Y-62605333D01*
X57454000Y-62605333D01*
X57587333Y-62572000D01*
X57654000Y-62538666D01*
X57687333Y-62505333D01*
X57720666Y-62438666D01*
X57720666Y-62372000D01*
X57687333Y-62305333D01*
X57654000Y-62272000D01*
X57587333Y-62238666D01*
X57454000Y-62205333D01*
X57287333Y-62205333D01*
X57154000Y-62238666D01*
X57087333Y-62272000D01*
X57054000Y-62305333D01*
X57020666Y-62372000D01*
%TO.C,J5*%
X39830333Y-45287380D02*
X39830333Y-46001666D01*
X39877952Y-46144523D01*
X39973190Y-46239761D01*
X40116047Y-46287380D01*
X40211285Y-46287380D01*
X38877952Y-45287380D02*
X39354142Y-45287380D01*
X39401761Y-45763571D01*
X39354142Y-45715952D01*
X39258904Y-45668333D01*
X39020809Y-45668333D01*
X38925571Y-45715952D01*
X38877952Y-45763571D01*
X38830333Y-45858809D01*
X38830333Y-46096904D01*
X38877952Y-46192142D01*
X38925571Y-46239761D01*
X39020809Y-46287380D01*
X39258904Y-46287380D01*
X39354142Y-46239761D01*
X39401761Y-46192142D01*
%TO.C,C1*%
X69331666Y-59686000D02*
X69365000Y-59719333D01*
X69465000Y-59752666D01*
X69531666Y-59752666D01*
X69631666Y-59719333D01*
X69698333Y-59652666D01*
X69731666Y-59586000D01*
X69765000Y-59452666D01*
X69765000Y-59352666D01*
X69731666Y-59219333D01*
X69698333Y-59152666D01*
X69631666Y-59086000D01*
X69531666Y-59052666D01*
X69465000Y-59052666D01*
X69365000Y-59086000D01*
X69331666Y-59119333D01*
X68665000Y-59752666D02*
X69065000Y-59752666D01*
X68865000Y-59752666D02*
X68865000Y-59052666D01*
X68931666Y-59152666D01*
X68998333Y-59219333D01*
X69065000Y-59252666D01*
%TO.C,C6*%
X60568666Y-52701000D02*
X60602000Y-52734333D01*
X60702000Y-52767666D01*
X60768666Y-52767666D01*
X60868666Y-52734333D01*
X60935333Y-52667666D01*
X60968666Y-52601000D01*
X61002000Y-52467666D01*
X61002000Y-52367666D01*
X60968666Y-52234333D01*
X60935333Y-52167666D01*
X60868666Y-52101000D01*
X60768666Y-52067666D01*
X60702000Y-52067666D01*
X60602000Y-52101000D01*
X60568666Y-52134333D01*
X59968666Y-52067666D02*
X60102000Y-52067666D01*
X60168666Y-52101000D01*
X60202000Y-52134333D01*
X60268666Y-52234333D01*
X60302000Y-52367666D01*
X60302000Y-52634333D01*
X60268666Y-52701000D01*
X60235333Y-52734333D01*
X60168666Y-52767666D01*
X60035333Y-52767666D01*
X59968666Y-52734333D01*
X59935333Y-52701000D01*
X59902000Y-52634333D01*
X59902000Y-52467666D01*
X59935333Y-52401000D01*
X59968666Y-52367666D01*
X60035333Y-52334333D01*
X60168666Y-52334333D01*
X60235333Y-52367666D01*
X60268666Y-52401000D01*
X60302000Y-52467666D01*
%TO.C,R17*%
X50742000Y-68261666D02*
X50975333Y-67928333D01*
X51142000Y-68261666D02*
X51142000Y-67561666D01*
X50875333Y-67561666D01*
X50808666Y-67595000D01*
X50775333Y-67628333D01*
X50742000Y-67695000D01*
X50742000Y-67795000D01*
X50775333Y-67861666D01*
X50808666Y-67895000D01*
X50875333Y-67928333D01*
X51142000Y-67928333D01*
X50075333Y-68261666D02*
X50475333Y-68261666D01*
X50275333Y-68261666D02*
X50275333Y-67561666D01*
X50342000Y-67661666D01*
X50408666Y-67728333D01*
X50475333Y-67761666D01*
X49842000Y-67561666D02*
X49375333Y-67561666D01*
X49675333Y-68261666D01*
D12*
%TO.C,IC4*%
X46705761Y-49850523D02*
X46705761Y-48580523D01*
X45375285Y-49729571D02*
X45435761Y-49790047D01*
X45617190Y-49850523D01*
X45738142Y-49850523D01*
X45919571Y-49790047D01*
X46040523Y-49669095D01*
X46101000Y-49548142D01*
X46161476Y-49306238D01*
X46161476Y-49124809D01*
X46101000Y-48882904D01*
X46040523Y-48761952D01*
X45919571Y-48641000D01*
X45738142Y-48580523D01*
X45617190Y-48580523D01*
X45435761Y-48641000D01*
X45375285Y-48701476D01*
X44286714Y-49003857D02*
X44286714Y-49850523D01*
X44589095Y-48520047D02*
X44891476Y-49427190D01*
X44105285Y-49427190D01*
D11*
%TO.C,C5*%
X60568666Y-48383000D02*
X60602000Y-48416333D01*
X60702000Y-48449666D01*
X60768666Y-48449666D01*
X60868666Y-48416333D01*
X60935333Y-48349666D01*
X60968666Y-48283000D01*
X61002000Y-48149666D01*
X61002000Y-48049666D01*
X60968666Y-47916333D01*
X60935333Y-47849666D01*
X60868666Y-47783000D01*
X60768666Y-47749666D01*
X60702000Y-47749666D01*
X60602000Y-47783000D01*
X60568666Y-47816333D01*
X59935333Y-47749666D02*
X60268666Y-47749666D01*
X60302000Y-48083000D01*
X60268666Y-48049666D01*
X60202000Y-48016333D01*
X60035333Y-48016333D01*
X59968666Y-48049666D01*
X59935333Y-48083000D01*
X59902000Y-48149666D01*
X59902000Y-48316333D01*
X59935333Y-48383000D01*
X59968666Y-48416333D01*
X60035333Y-48449666D01*
X60202000Y-48449666D01*
X60268666Y-48416333D01*
X60302000Y-48383000D01*
D12*
%TO.C,IC5*%
X46705761Y-42611523D02*
X46705761Y-41341523D01*
X45375285Y-42490571D02*
X45435761Y-42551047D01*
X45617190Y-42611523D01*
X45738142Y-42611523D01*
X45919571Y-42551047D01*
X46040523Y-42430095D01*
X46101000Y-42309142D01*
X46161476Y-42067238D01*
X46161476Y-41885809D01*
X46101000Y-41643904D01*
X46040523Y-41522952D01*
X45919571Y-41402000D01*
X45738142Y-41341523D01*
X45617190Y-41341523D01*
X45435761Y-41402000D01*
X45375285Y-41462476D01*
X44226238Y-41341523D02*
X44831000Y-41341523D01*
X44891476Y-41946285D01*
X44831000Y-41885809D01*
X44710047Y-41825333D01*
X44407666Y-41825333D01*
X44286714Y-41885809D01*
X44226238Y-41946285D01*
X44165761Y-42067238D01*
X44165761Y-42369619D01*
X44226238Y-42490571D01*
X44286714Y-42551047D01*
X44407666Y-42611523D01*
X44710047Y-42611523D01*
X44831000Y-42551047D01*
X44891476Y-42490571D01*
D11*
%TO.C,C2*%
X69839666Y-56765000D02*
X69873000Y-56798333D01*
X69973000Y-56831666D01*
X70039666Y-56831666D01*
X70139666Y-56798333D01*
X70206333Y-56731666D01*
X70239666Y-56665000D01*
X70273000Y-56531666D01*
X70273000Y-56431666D01*
X70239666Y-56298333D01*
X70206333Y-56231666D01*
X70139666Y-56165000D01*
X70039666Y-56131666D01*
X69973000Y-56131666D01*
X69873000Y-56165000D01*
X69839666Y-56198333D01*
X69573000Y-56198333D02*
X69539666Y-56165000D01*
X69473000Y-56131666D01*
X69306333Y-56131666D01*
X69239666Y-56165000D01*
X69206333Y-56198333D01*
X69173000Y-56265000D01*
X69173000Y-56331666D01*
X69206333Y-56431666D01*
X69606333Y-56831666D01*
X69173000Y-56831666D01*
D13*
%TO.C,C10*%
X58037000Y-61594420D02*
X58037000Y-61875580D01*
X59057000Y-61594420D02*
X59057000Y-61875580D01*
%TO.C,J5*%
X40557000Y-48895000D02*
X38437000Y-48895000D01*
X40557000Y-47895000D02*
X40557000Y-46835000D01*
X40557000Y-46835000D02*
X39497000Y-46835000D01*
X38437000Y-48895000D02*
X38437000Y-50955000D01*
X40557000Y-50955000D02*
X38437000Y-50955000D01*
X40557000Y-48895000D02*
X40557000Y-50955000D01*
%TO.C,J7*%
X40700000Y-71881200D02*
X39700000Y-71881200D01*
X46300000Y-71881200D02*
X46300000Y-73481200D01*
X47050000Y-75731200D02*
X38950000Y-75731200D01*
X39700000Y-71881200D02*
X39700000Y-73481200D01*
X44500000Y-75731200D02*
X44500000Y-71381200D01*
X45300000Y-73481200D02*
X45300000Y-75731200D01*
X45800000Y-69531200D02*
X46150000Y-69531200D01*
X46150000Y-69531200D02*
X46150000Y-67931200D01*
X41500000Y-71381200D02*
X41500000Y-75731200D01*
X38950000Y-75731200D02*
X38950000Y-67931200D01*
X45300000Y-73481200D02*
X45300000Y-71881200D01*
X46300000Y-73481200D02*
X45300000Y-73481200D01*
X39850000Y-67931200D02*
X39850000Y-69531200D01*
X38950000Y-67931200D02*
X39850000Y-67931200D01*
X39850000Y-69531200D02*
X40200000Y-69531200D01*
X39700000Y-73481200D02*
X40700000Y-73481200D01*
X45800000Y-69531200D02*
X45800000Y-68331200D01*
X47050000Y-67931200D02*
X47050000Y-75731200D01*
X38950000Y-69531200D02*
X39850000Y-69531200D01*
X40700000Y-73481200D02*
X40700000Y-71881200D01*
X45300000Y-71881200D02*
X46300000Y-71881200D01*
X44500000Y-71381200D02*
X41500000Y-71381200D01*
X46150000Y-67931200D02*
X47050000Y-67931200D01*
X47050000Y-69531200D02*
X46150000Y-69531200D01*
X45800000Y-73481200D02*
X45800000Y-75731200D01*
%TO.C,C1*%
X69074420Y-58676000D02*
X69355580Y-58676000D01*
X69074420Y-57656000D02*
X69355580Y-57656000D01*
%TO.C,C6*%
X60592580Y-51691000D02*
X60311420Y-51691000D01*
X60592580Y-50671000D02*
X60311420Y-50671000D01*
%TO.C,R17*%
X50054742Y-66152500D02*
X50529258Y-66152500D01*
X50054742Y-67197500D02*
X50529258Y-67197500D01*
D14*
%TO.C,IC4*%
X48941000Y-46696000D02*
X47416000Y-46696000D01*
D13*
%TO.C,C5*%
X60592580Y-49913000D02*
X60311420Y-49913000D01*
X60592580Y-48893000D02*
X60311420Y-48893000D01*
D14*
%TO.C,IC5*%
X48941000Y-39457000D02*
X47416000Y-39457000D01*
D13*
%TO.C,J6*%
X40557000Y-43716000D02*
X38437000Y-43716000D01*
X40557000Y-40656000D02*
X40557000Y-39596000D01*
X38437000Y-41656000D02*
X38437000Y-43716000D01*
X40557000Y-39596000D02*
X39497000Y-39596000D01*
X40557000Y-41656000D02*
X38437000Y-41656000D01*
X40557000Y-41656000D02*
X40557000Y-43716000D01*
%TO.C,C2*%
X69582420Y-55755000D02*
X69863580Y-55755000D01*
X69582420Y-54735000D02*
X69863580Y-54735000D01*
%TD*%
M02*
