%FSLAX45Y45*%
G04 Gerber Fmt 4.5, Leading zero omitted, Abs format (unit mm)*
G04 Created by KiCad (PCBNEW (6.0.4)) date 2022-12-29 00:07:28*
%MOMM*%
%LPD*%
G01*
G04 APERTURE LIST*
%TA.AperFunction,Profile*%
%ADD10C,0.050000*%
%TD*%
%ADD11C,0.200000*%
%ADD12C,0.040000*%
%ADD13C,0.120000*%
%ADD14C,0.180000*%
G04 APERTURE END LIST*
D10*
X10517500Y-5005983D02*
X20517500Y-5005983D01*
X20517500Y-5005983D02*
X20517500Y-15005983D01*
X20517500Y-15005983D02*
X10517500Y-15005983D01*
X10517500Y-15005983D02*
X10517500Y-5005983D01*
D11*
D12*
X10642431Y-7238752D02*
X10682431Y-7278752D01*
X10682431Y-7238752D02*
X10642431Y-7278752D01*
X10642431Y-7538752D02*
X10682431Y-7578752D01*
X10682431Y-7538752D02*
X10642431Y-7578752D01*
X10642431Y-7788752D02*
X10682431Y-7828752D01*
X10682431Y-7788752D02*
X10642431Y-7828752D01*
X10642431Y-10638753D02*
X10682431Y-10678753D01*
X10682431Y-10638753D02*
X10642431Y-10678753D01*
X10642431Y-10938753D02*
X10682431Y-10978753D01*
X10682431Y-10938753D02*
X10642431Y-10978753D01*
X10642431Y-11188752D02*
X10682431Y-11228752D01*
X10682431Y-11188752D02*
X10642431Y-11228752D01*
X10642431Y-14038752D02*
X10682431Y-14078752D01*
X10682431Y-14038752D02*
X10642431Y-14078752D01*
X10642431Y-14338752D02*
X10682431Y-14378752D01*
X10682431Y-14338752D02*
X10642431Y-14378752D01*
X10642431Y-14588752D02*
X10682431Y-14628752D01*
X10682431Y-14588752D02*
X10642431Y-14628752D01*
X10647500Y-5135983D02*
X10687500Y-5175983D01*
X10687500Y-5135983D02*
X10647500Y-5175983D01*
X10647500Y-5385983D02*
X10687500Y-5425983D01*
X10687500Y-5385983D02*
X10647500Y-5425983D01*
X10647500Y-6385983D02*
X10687500Y-6425983D01*
X10687500Y-6385983D02*
X10647500Y-6425983D01*
X10647500Y-6635983D02*
X10687500Y-6675983D01*
X10687500Y-6635983D02*
X10647500Y-6675983D01*
X10647500Y-6935983D02*
X10687500Y-6975983D01*
X10687500Y-6935983D02*
X10647500Y-6975983D01*
X10647500Y-8035983D02*
X10687500Y-8075983D01*
X10687500Y-8035983D02*
X10647500Y-8075983D01*
X10647500Y-8535983D02*
X10687500Y-8575983D01*
X10687500Y-8535983D02*
X10647500Y-8575983D01*
X10647500Y-8785983D02*
X10687500Y-8825983D01*
X10687500Y-8785983D02*
X10647500Y-8825983D01*
X10647500Y-9785983D02*
X10687500Y-9825983D01*
X10687500Y-9785983D02*
X10647500Y-9825983D01*
X10647500Y-10035983D02*
X10687500Y-10075983D01*
X10687500Y-10035983D02*
X10647500Y-10075983D01*
X10647500Y-10335983D02*
X10687500Y-10375983D01*
X10687500Y-10335983D02*
X10647500Y-10375983D01*
X10647500Y-11435983D02*
X10687500Y-11475983D01*
X10687500Y-11435983D02*
X10647500Y-11475983D01*
X10647500Y-11935983D02*
X10687500Y-11975983D01*
X10687500Y-11935983D02*
X10647500Y-11975983D01*
X10647500Y-12185983D02*
X10687500Y-12225983D01*
X10687500Y-12185983D02*
X10647500Y-12225983D01*
X10647500Y-13185983D02*
X10687500Y-13225983D01*
X10687500Y-13185983D02*
X10647500Y-13225983D01*
X10647500Y-13435983D02*
X10687500Y-13475983D01*
X10687500Y-13435983D02*
X10647500Y-13475983D01*
X10647500Y-13735983D02*
X10687500Y-13775983D01*
X10687500Y-13735983D02*
X10647500Y-13775983D01*
X10647500Y-14835983D02*
X10687500Y-14875983D01*
X10687500Y-14835983D02*
X10647500Y-14875983D01*
X10859233Y-7240603D02*
X10899233Y-7280603D01*
X10899233Y-7240603D02*
X10859233Y-7280603D01*
X10859233Y-7540603D02*
X10899233Y-7580603D01*
X10899233Y-7540603D02*
X10859233Y-7580603D01*
X10859233Y-7790603D02*
X10899233Y-7830603D01*
X10899233Y-7790603D02*
X10859233Y-7830603D01*
X10859233Y-10640603D02*
X10899233Y-10680603D01*
X10899233Y-10640603D02*
X10859233Y-10680603D01*
X10859233Y-10940603D02*
X10899233Y-10980603D01*
X10899233Y-10940603D02*
X10859233Y-10980603D01*
X10859233Y-11190603D02*
X10899233Y-11230603D01*
X10899233Y-11190603D02*
X10859233Y-11230603D01*
X10859233Y-14040603D02*
X10899233Y-14080603D01*
X10899233Y-14040603D02*
X10859233Y-14080603D01*
X10859233Y-14340603D02*
X10899233Y-14380603D01*
X10899233Y-14340603D02*
X10859233Y-14380603D01*
X10859233Y-14590603D02*
X10899233Y-14630603D01*
X10899233Y-14590603D02*
X10859233Y-14630603D01*
X10864302Y-5137834D02*
X10904302Y-5177834D01*
X10904302Y-5137834D02*
X10864302Y-5177834D01*
X10864302Y-5387834D02*
X10904302Y-5427834D01*
X10904302Y-5387834D02*
X10864302Y-5427834D01*
X10864302Y-6387834D02*
X10904302Y-6427834D01*
X10904302Y-6387834D02*
X10864302Y-6427834D01*
X10864302Y-6637834D02*
X10904302Y-6677834D01*
X10904302Y-6637834D02*
X10864302Y-6677834D01*
X10864302Y-6937834D02*
X10904302Y-6977834D01*
X10904302Y-6937834D02*
X10864302Y-6977834D01*
X10864302Y-8037834D02*
X10904302Y-8077834D01*
X10904302Y-8037834D02*
X10864302Y-8077834D01*
X10864302Y-8537834D02*
X10904302Y-8577834D01*
X10904302Y-8537834D02*
X10864302Y-8577834D01*
X10864302Y-8787834D02*
X10904302Y-8827834D01*
X10904302Y-8787834D02*
X10864302Y-8827834D01*
X10864302Y-9787834D02*
X10904302Y-9827834D01*
X10904302Y-9787834D02*
X10864302Y-9827834D01*
X10864302Y-10037834D02*
X10904302Y-10077834D01*
X10904302Y-10037834D02*
X10864302Y-10077834D01*
X10864302Y-10337834D02*
X10904302Y-10377834D01*
X10904302Y-10337834D02*
X10864302Y-10377834D01*
X10864302Y-11437834D02*
X10904302Y-11477834D01*
X10904302Y-11437834D02*
X10864302Y-11477834D01*
X10864302Y-11937834D02*
X10904302Y-11977834D01*
X10904302Y-11937834D02*
X10864302Y-11977834D01*
X10864302Y-12187834D02*
X10904302Y-12227834D01*
X10904302Y-12187834D02*
X10864302Y-12227834D01*
X10864302Y-13187834D02*
X10904302Y-13227834D01*
X10904302Y-13187834D02*
X10864302Y-13227834D01*
X10864302Y-13437834D02*
X10904302Y-13477834D01*
X10904302Y-13437834D02*
X10864302Y-13477834D01*
X10864302Y-13737834D02*
X10904302Y-13777834D01*
X10904302Y-13737834D02*
X10864302Y-13777834D01*
X10864302Y-14837834D02*
X10904302Y-14877834D01*
X10904302Y-14837834D02*
X10864302Y-14877834D01*
X10957500Y-5765983D02*
X10997500Y-5805983D01*
X10997500Y-5765983D02*
X10957500Y-5805983D01*
X10957500Y-9165983D02*
X10997500Y-9205983D01*
X10997500Y-9165983D02*
X10957500Y-9205983D01*
X10957500Y-12565983D02*
X10997500Y-12605983D01*
X10997500Y-12565983D02*
X10957500Y-12605983D01*
X11017500Y-6165983D02*
X11057500Y-6205983D01*
X11057500Y-6165983D02*
X11017500Y-6205983D01*
X11017500Y-9565983D02*
X11057500Y-9605983D01*
X11057500Y-9565983D02*
X11017500Y-9605983D01*
X11017500Y-12965983D02*
X11057500Y-13005983D01*
X11057500Y-12965983D02*
X11017500Y-13005983D01*
X11142431Y-7238752D02*
X11182431Y-7278752D01*
X11182431Y-7238752D02*
X11142431Y-7278752D01*
X11142431Y-7538752D02*
X11182431Y-7578752D01*
X11182431Y-7538752D02*
X11142431Y-7578752D01*
X11142431Y-7788752D02*
X11182431Y-7828752D01*
X11182431Y-7788752D02*
X11142431Y-7828752D01*
X11142431Y-10638753D02*
X11182431Y-10678753D01*
X11182431Y-10638753D02*
X11142431Y-10678753D01*
X11142431Y-10938753D02*
X11182431Y-10978753D01*
X11182431Y-10938753D02*
X11142431Y-10978753D01*
X11142431Y-11188752D02*
X11182431Y-11228752D01*
X11182431Y-11188752D02*
X11142431Y-11228752D01*
X11142431Y-14038752D02*
X11182431Y-14078752D01*
X11182431Y-14038752D02*
X11142431Y-14078752D01*
X11142431Y-14338752D02*
X11182431Y-14378752D01*
X11182431Y-14338752D02*
X11142431Y-14378752D01*
X11142431Y-14588752D02*
X11182431Y-14628752D01*
X11182431Y-14588752D02*
X11142431Y-14628752D01*
X11147500Y-5135983D02*
X11187500Y-5175983D01*
X11187500Y-5135983D02*
X11147500Y-5175983D01*
X11147500Y-5385983D02*
X11187500Y-5425983D01*
X11187500Y-5385983D02*
X11147500Y-5425983D01*
X11147500Y-6385983D02*
X11187500Y-6425983D01*
X11187500Y-6385983D02*
X11147500Y-6425983D01*
X11147500Y-6635983D02*
X11187500Y-6675983D01*
X11187500Y-6635983D02*
X11147500Y-6675983D01*
X11147500Y-6935983D02*
X11187500Y-6975983D01*
X11187500Y-6935983D02*
X11147500Y-6975983D01*
X11147500Y-8035983D02*
X11187500Y-8075983D01*
X11187500Y-8035983D02*
X11147500Y-8075983D01*
X11147500Y-8535983D02*
X11187500Y-8575983D01*
X11187500Y-8535983D02*
X11147500Y-8575983D01*
X11147500Y-8785983D02*
X11187500Y-8825983D01*
X11187500Y-8785983D02*
X11147500Y-8825983D01*
X11147500Y-9785983D02*
X11187500Y-9825983D01*
X11187500Y-9785983D02*
X11147500Y-9825983D01*
X11147500Y-10035983D02*
X11187500Y-10075983D01*
X11187500Y-10035983D02*
X11147500Y-10075983D01*
X11147500Y-10335983D02*
X11187500Y-10375983D01*
X11187500Y-10335983D02*
X11147500Y-10375983D01*
X11147500Y-11435983D02*
X11187500Y-11475983D01*
X11187500Y-11435983D02*
X11147500Y-11475983D01*
X11147500Y-11935983D02*
X11187500Y-11975983D01*
X11187500Y-11935983D02*
X11147500Y-11975983D01*
X11147500Y-12185983D02*
X11187500Y-12225983D01*
X11187500Y-12185983D02*
X11147500Y-12225983D01*
X11147500Y-13185983D02*
X11187500Y-13225983D01*
X11187500Y-13185983D02*
X11147500Y-13225983D01*
X11147500Y-13435983D02*
X11187500Y-13475983D01*
X11187500Y-13435983D02*
X11147500Y-13475983D01*
X11147500Y-13735983D02*
X11187500Y-13775983D01*
X11187500Y-13735983D02*
X11147500Y-13775983D01*
X11147500Y-14835983D02*
X11187500Y-14875983D01*
X11187500Y-14835983D02*
X11147500Y-14875983D01*
X11397500Y-7235983D02*
X11437500Y-7275983D01*
X11437500Y-7235983D02*
X11397500Y-7275983D01*
X11397500Y-7535983D02*
X11437500Y-7575983D01*
X11437500Y-7535983D02*
X11397500Y-7575983D01*
X11397500Y-7785983D02*
X11437500Y-7825983D01*
X11437500Y-7785983D02*
X11397500Y-7825983D01*
X11397500Y-10635983D02*
X11437500Y-10675983D01*
X11437500Y-10635983D02*
X11397500Y-10675983D01*
X11397500Y-10935983D02*
X11437500Y-10975983D01*
X11437500Y-10935983D02*
X11397500Y-10975983D01*
X11397500Y-11185983D02*
X11437500Y-11225983D01*
X11437500Y-11185983D02*
X11397500Y-11225983D01*
X11397500Y-14035983D02*
X11437500Y-14075983D01*
X11437500Y-14035983D02*
X11397500Y-14075983D01*
X11397500Y-14335983D02*
X11437500Y-14375983D01*
X11437500Y-14335983D02*
X11397500Y-14375983D01*
X11397500Y-14585983D02*
X11437500Y-14625983D01*
X11437500Y-14585983D02*
X11397500Y-14625983D01*
X11402569Y-5133214D02*
X11442569Y-5173214D01*
X11442569Y-5133214D02*
X11402569Y-5173214D01*
X11402569Y-5383214D02*
X11442569Y-5423214D01*
X11442569Y-5383214D02*
X11402569Y-5423214D01*
X11402569Y-6383214D02*
X11442569Y-6423214D01*
X11442569Y-6383214D02*
X11402569Y-6423214D01*
X11402569Y-6633214D02*
X11442569Y-6673214D01*
X11442569Y-6633214D02*
X11402569Y-6673214D01*
X11402569Y-6933214D02*
X11442569Y-6973214D01*
X11442569Y-6933214D02*
X11402569Y-6973214D01*
X11402569Y-8033214D02*
X11442569Y-8073214D01*
X11442569Y-8033214D02*
X11402569Y-8073214D01*
X11402569Y-8533214D02*
X11442569Y-8573214D01*
X11442569Y-8533214D02*
X11402569Y-8573214D01*
X11402569Y-8783214D02*
X11442569Y-8823214D01*
X11442569Y-8783214D02*
X11402569Y-8823214D01*
X11402569Y-9783214D02*
X11442569Y-9823214D01*
X11442569Y-9783214D02*
X11402569Y-9823214D01*
X11402569Y-10033214D02*
X11442569Y-10073214D01*
X11442569Y-10033214D02*
X11402569Y-10073214D01*
X11402569Y-10333214D02*
X11442569Y-10373214D01*
X11442569Y-10333214D02*
X11402569Y-10373214D01*
X11402569Y-11433214D02*
X11442569Y-11473214D01*
X11442569Y-11433214D02*
X11402569Y-11473214D01*
X11402569Y-11933214D02*
X11442569Y-11973214D01*
X11442569Y-11933214D02*
X11402569Y-11973214D01*
X11402569Y-12183214D02*
X11442569Y-12223214D01*
X11442569Y-12183214D02*
X11402569Y-12223214D01*
X11402569Y-13183214D02*
X11442569Y-13223214D01*
X11442569Y-13183214D02*
X11402569Y-13223214D01*
X11402569Y-13433214D02*
X11442569Y-13473214D01*
X11442569Y-13433214D02*
X11402569Y-13473214D01*
X11402569Y-13733214D02*
X11442569Y-13773214D01*
X11442569Y-13733214D02*
X11402569Y-13773214D01*
X11402569Y-14833214D02*
X11442569Y-14873214D01*
X11442569Y-14833214D02*
X11402569Y-14873214D01*
X11487500Y-6245983D02*
X11527500Y-6285983D01*
X11527500Y-6245983D02*
X11487500Y-6285983D01*
X11487500Y-9645983D02*
X11527500Y-9685983D01*
X11527500Y-9645983D02*
X11487500Y-9685983D01*
X11487500Y-13045983D02*
X11527500Y-13085983D01*
X11527500Y-13045983D02*
X11487500Y-13085983D01*
X11659233Y-7240603D02*
X11699233Y-7280603D01*
X11699233Y-7240603D02*
X11659233Y-7280603D01*
X11659233Y-7540603D02*
X11699233Y-7580603D01*
X11699233Y-7540603D02*
X11659233Y-7580603D01*
X11659233Y-7790603D02*
X11699233Y-7830603D01*
X11699233Y-7790603D02*
X11659233Y-7830603D01*
X11659233Y-10640603D02*
X11699233Y-10680603D01*
X11699233Y-10640603D02*
X11659233Y-10680603D01*
X11659233Y-10940603D02*
X11699233Y-10980603D01*
X11699233Y-10940603D02*
X11659233Y-10980603D01*
X11659233Y-11190603D02*
X11699233Y-11230603D01*
X11699233Y-11190603D02*
X11659233Y-11230603D01*
X11659233Y-14040603D02*
X11699233Y-14080603D01*
X11699233Y-14040603D02*
X11659233Y-14080603D01*
X11659233Y-14340603D02*
X11699233Y-14380603D01*
X11699233Y-14340603D02*
X11659233Y-14380603D01*
X11659233Y-14590603D02*
X11699233Y-14630603D01*
X11699233Y-14590603D02*
X11659233Y-14630603D01*
X11664302Y-5137834D02*
X11704302Y-5177834D01*
X11704302Y-5137834D02*
X11664302Y-5177834D01*
X11664302Y-5387834D02*
X11704302Y-5427834D01*
X11704302Y-5387834D02*
X11664302Y-5427834D01*
X11664302Y-6387834D02*
X11704302Y-6427834D01*
X11704302Y-6387834D02*
X11664302Y-6427834D01*
X11664302Y-6637834D02*
X11704302Y-6677834D01*
X11704302Y-6637834D02*
X11664302Y-6677834D01*
X11664302Y-6937834D02*
X11704302Y-6977834D01*
X11704302Y-6937834D02*
X11664302Y-6977834D01*
X11664302Y-8037834D02*
X11704302Y-8077834D01*
X11704302Y-8037834D02*
X11664302Y-8077834D01*
X11664302Y-8537834D02*
X11704302Y-8577834D01*
X11704302Y-8537834D02*
X11664302Y-8577834D01*
X11664302Y-8787834D02*
X11704302Y-8827834D01*
X11704302Y-8787834D02*
X11664302Y-8827834D01*
X11664302Y-9787834D02*
X11704302Y-9827834D01*
X11704302Y-9787834D02*
X11664302Y-9827834D01*
X11664302Y-10037834D02*
X11704302Y-10077834D01*
X11704302Y-10037834D02*
X11664302Y-10077834D01*
X11664302Y-10337834D02*
X11704302Y-10377834D01*
X11704302Y-10337834D02*
X11664302Y-10377834D01*
X11664302Y-11437834D02*
X11704302Y-11477834D01*
X11704302Y-11437834D02*
X11664302Y-11477834D01*
X11664302Y-11937834D02*
X11704302Y-11977834D01*
X11704302Y-11937834D02*
X11664302Y-11977834D01*
X11664302Y-12187834D02*
X11704302Y-12227834D01*
X11704302Y-12187834D02*
X11664302Y-12227834D01*
X11664302Y-13187834D02*
X11704302Y-13227834D01*
X11704302Y-13187834D02*
X11664302Y-13227834D01*
X11664302Y-13437834D02*
X11704302Y-13477834D01*
X11704302Y-13437834D02*
X11664302Y-13477834D01*
X11664302Y-13737834D02*
X11704302Y-13777834D01*
X11704302Y-13737834D02*
X11664302Y-13777834D01*
X11664302Y-14837834D02*
X11704302Y-14877834D01*
X11704302Y-14837834D02*
X11664302Y-14877834D01*
X11897500Y-6805983D02*
X11937500Y-6845983D01*
X11937500Y-6805983D02*
X11897500Y-6845983D01*
X11897500Y-10205983D02*
X11937500Y-10245983D01*
X11937500Y-10205983D02*
X11897500Y-10245983D01*
X11897500Y-13605983D02*
X11937500Y-13645983D01*
X11937500Y-13605983D02*
X11897500Y-13645983D01*
X11917500Y-6925983D02*
X11957500Y-6965983D01*
X11957500Y-6925983D02*
X11917500Y-6965983D01*
X11917500Y-10325983D02*
X11957500Y-10365983D01*
X11957500Y-10325983D02*
X11917500Y-10365983D01*
X11917500Y-13725983D02*
X11957500Y-13765983D01*
X11957500Y-13725983D02*
X11917500Y-13765983D01*
X11937500Y-6705983D02*
X11977500Y-6745983D01*
X11977500Y-6705983D02*
X11937500Y-6745983D01*
X11937500Y-10105983D02*
X11977500Y-10145983D01*
X11977500Y-10105983D02*
X11937500Y-10145983D01*
X11937500Y-13505983D02*
X11977500Y-13545983D01*
X11977500Y-13505983D02*
X11937500Y-13545983D01*
X11942431Y-7238752D02*
X11982431Y-7278752D01*
X11982431Y-7238752D02*
X11942431Y-7278752D01*
X11942431Y-7538752D02*
X11982431Y-7578752D01*
X11982431Y-7538752D02*
X11942431Y-7578752D01*
X11942431Y-7788752D02*
X11982431Y-7828752D01*
X11982431Y-7788752D02*
X11942431Y-7828752D01*
X11942431Y-10638753D02*
X11982431Y-10678753D01*
X11982431Y-10638753D02*
X11942431Y-10678753D01*
X11942431Y-10938753D02*
X11982431Y-10978753D01*
X11982431Y-10938753D02*
X11942431Y-10978753D01*
X11942431Y-11188752D02*
X11982431Y-11228752D01*
X11982431Y-11188752D02*
X11942431Y-11228752D01*
X11942431Y-14038752D02*
X11982431Y-14078752D01*
X11982431Y-14038752D02*
X11942431Y-14078752D01*
X11942431Y-14338752D02*
X11982431Y-14378752D01*
X11982431Y-14338752D02*
X11942431Y-14378752D01*
X11942431Y-14588752D02*
X11982431Y-14628752D01*
X11982431Y-14588752D02*
X11942431Y-14628752D01*
X11947500Y-5135983D02*
X11987500Y-5175983D01*
X11987500Y-5135983D02*
X11947500Y-5175983D01*
X11947500Y-5385983D02*
X11987500Y-5425983D01*
X11987500Y-5385983D02*
X11947500Y-5425983D01*
X11947500Y-8035983D02*
X11987500Y-8075983D01*
X11987500Y-8035983D02*
X11947500Y-8075983D01*
X11947500Y-8535983D02*
X11987500Y-8575983D01*
X11987500Y-8535983D02*
X11947500Y-8575983D01*
X11947500Y-8785983D02*
X11987500Y-8825983D01*
X11987500Y-8785983D02*
X11947500Y-8825983D01*
X11947500Y-11435983D02*
X11987500Y-11475983D01*
X11987500Y-11435983D02*
X11947500Y-11475983D01*
X11947500Y-11935983D02*
X11987500Y-11975983D01*
X11987500Y-11935983D02*
X11947500Y-11975983D01*
X11947500Y-12185983D02*
X11987500Y-12225983D01*
X11987500Y-12185983D02*
X11947500Y-12225983D01*
X11947500Y-14835983D02*
X11987500Y-14875983D01*
X11987500Y-14835983D02*
X11947500Y-14875983D01*
X11957500Y-5725983D02*
X11997500Y-5765983D01*
X11997500Y-5725983D02*
X11957500Y-5765983D01*
X11957500Y-6105983D02*
X11997500Y-6145983D01*
X11997500Y-6105983D02*
X11957500Y-6145983D01*
X11957500Y-6385983D02*
X11997500Y-6425983D01*
X11997500Y-6385983D02*
X11957500Y-6425983D01*
X11957500Y-9125983D02*
X11997500Y-9165983D01*
X11997500Y-9125983D02*
X11957500Y-9165983D01*
X11957500Y-9505983D02*
X11997500Y-9545983D01*
X11997500Y-9505983D02*
X11957500Y-9545983D01*
X11957500Y-9785983D02*
X11997500Y-9825983D01*
X11997500Y-9785983D02*
X11957500Y-9825983D01*
X11957500Y-12525983D02*
X11997500Y-12565983D01*
X11997500Y-12525983D02*
X11957500Y-12565983D01*
X11957500Y-12905983D02*
X11997500Y-12945983D01*
X11997500Y-12905983D02*
X11957500Y-12945983D01*
X11957500Y-13185983D02*
X11997500Y-13225983D01*
X11997500Y-13185983D02*
X11957500Y-13225983D01*
X11997500Y-7005983D02*
X12037500Y-7045983D01*
X12037500Y-7005983D02*
X11997500Y-7045983D01*
X11997500Y-10405983D02*
X12037500Y-10445983D01*
X12037500Y-10405983D02*
X11997500Y-10445983D01*
X11997500Y-13805983D02*
X12037500Y-13845983D01*
X12037500Y-13805983D02*
X11997500Y-13845983D01*
X12037500Y-6645983D02*
X12077500Y-6685983D01*
X12077500Y-6645983D02*
X12037500Y-6685983D01*
X12037500Y-10045983D02*
X12077500Y-10085983D01*
X12077500Y-10045983D02*
X12037500Y-10085983D01*
X12037500Y-13445983D02*
X12077500Y-13485983D01*
X12077500Y-13445983D02*
X12037500Y-13485983D01*
X12157500Y-6645983D02*
X12197500Y-6685983D01*
X12197500Y-6645983D02*
X12157500Y-6685983D01*
X12157500Y-7025983D02*
X12197500Y-7065983D01*
X12197500Y-7025983D02*
X12157500Y-7065983D01*
X12157500Y-10045983D02*
X12197500Y-10085983D01*
X12197500Y-10045983D02*
X12157500Y-10085983D01*
X12157500Y-10425983D02*
X12197500Y-10465983D01*
X12197500Y-10425983D02*
X12157500Y-10465983D01*
X12157500Y-13445983D02*
X12197500Y-13485983D01*
X12197500Y-13445983D02*
X12157500Y-13485983D01*
X12157500Y-13825983D02*
X12197500Y-13865983D01*
X12197500Y-13825983D02*
X12157500Y-13865983D01*
X12197500Y-7235983D02*
X12237500Y-7275983D01*
X12237500Y-7235983D02*
X12197500Y-7275983D01*
X12197500Y-7535983D02*
X12237500Y-7575983D01*
X12237500Y-7535983D02*
X12197500Y-7575983D01*
X12197500Y-7785983D02*
X12237500Y-7825983D01*
X12237500Y-7785983D02*
X12197500Y-7825983D01*
X12197500Y-10635983D02*
X12237500Y-10675983D01*
X12237500Y-10635983D02*
X12197500Y-10675983D01*
X12197500Y-10935983D02*
X12237500Y-10975983D01*
X12237500Y-10935983D02*
X12197500Y-10975983D01*
X12197500Y-11185983D02*
X12237500Y-11225983D01*
X12237500Y-11185983D02*
X12197500Y-11225983D01*
X12197500Y-14035983D02*
X12237500Y-14075983D01*
X12237500Y-14035983D02*
X12197500Y-14075983D01*
X12197500Y-14335983D02*
X12237500Y-14375983D01*
X12237500Y-14335983D02*
X12197500Y-14375983D01*
X12197500Y-14585983D02*
X12237500Y-14625983D01*
X12237500Y-14585983D02*
X12197500Y-14625983D01*
X12202569Y-5133214D02*
X12242569Y-5173214D01*
X12242569Y-5133214D02*
X12202569Y-5173214D01*
X12202569Y-5383214D02*
X12242569Y-5423214D01*
X12242569Y-5383214D02*
X12202569Y-5423214D01*
X12202569Y-8033214D02*
X12242569Y-8073214D01*
X12242569Y-8033214D02*
X12202569Y-8073214D01*
X12202569Y-8533214D02*
X12242569Y-8573214D01*
X12242569Y-8533214D02*
X12202569Y-8573214D01*
X12202569Y-8783214D02*
X12242569Y-8823214D01*
X12242569Y-8783214D02*
X12202569Y-8823214D01*
X12202569Y-11433214D02*
X12242569Y-11473214D01*
X12242569Y-11433214D02*
X12202569Y-11473214D01*
X12202569Y-11933214D02*
X12242569Y-11973214D01*
X12242569Y-11933214D02*
X12202569Y-11973214D01*
X12202569Y-12183214D02*
X12242569Y-12223214D01*
X12242569Y-12183214D02*
X12202569Y-12223214D01*
X12202569Y-14833214D02*
X12242569Y-14873214D01*
X12242569Y-14833214D02*
X12202569Y-14873214D01*
X12237500Y-7105983D02*
X12277500Y-7145983D01*
X12277500Y-7105983D02*
X12237500Y-7145983D01*
X12237500Y-10505983D02*
X12277500Y-10545983D01*
X12277500Y-10505983D02*
X12237500Y-10545983D01*
X12237500Y-13905983D02*
X12277500Y-13945983D01*
X12277500Y-13905983D02*
X12237500Y-13945983D01*
X12257500Y-6665983D02*
X12297500Y-6705983D01*
X12297500Y-6665983D02*
X12257500Y-6705983D01*
X12257500Y-10065983D02*
X12297500Y-10105983D01*
X12297500Y-10065983D02*
X12257500Y-10105983D01*
X12257500Y-13465983D02*
X12297500Y-13505983D01*
X12297500Y-13465983D02*
X12257500Y-13505983D01*
X12337500Y-6745983D02*
X12377500Y-6785983D01*
X12377500Y-6745983D02*
X12337500Y-6785983D01*
X12337500Y-7205983D02*
X12377500Y-7245983D01*
X12377500Y-7205983D02*
X12337500Y-7245983D01*
X12337500Y-10145983D02*
X12377500Y-10185983D01*
X12377500Y-10145983D02*
X12337500Y-10185983D01*
X12337500Y-10605983D02*
X12377500Y-10645983D01*
X12377500Y-10605983D02*
X12337500Y-10645983D01*
X12337500Y-13545983D02*
X12377500Y-13585983D01*
X12377500Y-13545983D02*
X12337500Y-13585983D01*
X12337500Y-14005983D02*
X12377500Y-14045983D01*
X12377500Y-14005983D02*
X12337500Y-14045983D01*
X12357500Y-6265983D02*
X12397500Y-6305983D01*
X12397500Y-6265983D02*
X12357500Y-6305983D01*
X12357500Y-9665983D02*
X12397500Y-9705983D01*
X12397500Y-9665983D02*
X12357500Y-9705983D01*
X12357500Y-13065983D02*
X12397500Y-13105983D01*
X12397500Y-13065983D02*
X12357500Y-13105983D01*
X12417500Y-6845983D02*
X12457500Y-6885983D01*
X12457500Y-6845983D02*
X12417500Y-6885983D01*
X12417500Y-10245983D02*
X12457500Y-10285983D01*
X12457500Y-10245983D02*
X12417500Y-10285983D01*
X12417500Y-13645983D02*
X12457500Y-13685983D01*
X12457500Y-13645983D02*
X12417500Y-13685983D01*
X12427500Y-7535983D02*
X12467500Y-7575983D01*
X12467500Y-7535983D02*
X12427500Y-7575983D01*
X12427500Y-10935983D02*
X12467500Y-10975983D01*
X12467500Y-10935983D02*
X12427500Y-10975983D01*
X12427500Y-14335983D02*
X12467500Y-14375983D01*
X12467500Y-14335983D02*
X12427500Y-14375983D01*
X12437500Y-7785983D02*
X12477500Y-7825983D01*
X12477500Y-7785983D02*
X12437500Y-7825983D01*
X12437500Y-11185983D02*
X12477500Y-11225983D01*
X12477500Y-11185983D02*
X12437500Y-11225983D01*
X12437500Y-14585983D02*
X12477500Y-14625983D01*
X12477500Y-14585983D02*
X12437500Y-14625983D01*
X12457500Y-5645983D02*
X12497500Y-5685983D01*
X12497500Y-5645983D02*
X12457500Y-5685983D01*
X12457500Y-9045983D02*
X12497500Y-9085983D01*
X12497500Y-9045983D02*
X12457500Y-9085983D01*
X12457500Y-12445983D02*
X12497500Y-12485983D01*
X12497500Y-12445983D02*
X12457500Y-12485983D01*
X12464302Y-5137834D02*
X12504302Y-5177834D01*
X12504302Y-5137834D02*
X12464302Y-5177834D01*
X12464302Y-5387834D02*
X12504302Y-5427834D01*
X12504302Y-5387834D02*
X12464302Y-5427834D01*
X12464302Y-8037834D02*
X12504302Y-8077834D01*
X12504302Y-8037834D02*
X12464302Y-8077834D01*
X12464302Y-8537834D02*
X12504302Y-8577834D01*
X12504302Y-8537834D02*
X12464302Y-8577834D01*
X12464302Y-8787834D02*
X12504302Y-8827834D01*
X12504302Y-8787834D02*
X12464302Y-8827834D01*
X12464302Y-11437834D02*
X12504302Y-11477834D01*
X12504302Y-11437834D02*
X12464302Y-11477834D01*
X12464302Y-11937834D02*
X12504302Y-11977834D01*
X12504302Y-11937834D02*
X12464302Y-11977834D01*
X12464302Y-12187834D02*
X12504302Y-12227834D01*
X12504302Y-12187834D02*
X12464302Y-12227834D01*
X12464302Y-14837834D02*
X12504302Y-14877834D01*
X12504302Y-14837834D02*
X12464302Y-14877834D01*
X12517500Y-6925983D02*
X12557500Y-6965983D01*
X12557500Y-6925983D02*
X12517500Y-6965983D01*
X12517500Y-10325983D02*
X12557500Y-10365983D01*
X12557500Y-10325983D02*
X12517500Y-10365983D01*
X12517500Y-13725983D02*
X12557500Y-13765983D01*
X12557500Y-13725983D02*
X12517500Y-13765983D01*
X12547500Y-6185983D02*
X12587500Y-6225983D01*
X12587500Y-6185983D02*
X12547500Y-6225983D01*
X12547500Y-9585983D02*
X12587500Y-9625983D01*
X12587500Y-9585983D02*
X12547500Y-9625983D01*
X12547500Y-12985983D02*
X12587500Y-13025983D01*
X12587500Y-12985983D02*
X12547500Y-13025983D01*
X12597500Y-7005983D02*
X12637500Y-7045983D01*
X12637500Y-7005983D02*
X12597500Y-7045983D01*
X12597500Y-10405983D02*
X12637500Y-10445983D01*
X12637500Y-10405983D02*
X12597500Y-10445983D01*
X12597500Y-13805983D02*
X12637500Y-13845983D01*
X12637500Y-13805983D02*
X12597500Y-13845983D01*
X12647500Y-7535983D02*
X12687500Y-7575983D01*
X12687500Y-7535983D02*
X12647500Y-7575983D01*
X12647500Y-10935983D02*
X12687500Y-10975983D01*
X12687500Y-10935983D02*
X12647500Y-10975983D01*
X12647500Y-14335983D02*
X12687500Y-14375983D01*
X12687500Y-14335983D02*
X12647500Y-14375983D01*
X12657500Y-7785983D02*
X12697500Y-7825983D01*
X12697500Y-7785983D02*
X12657500Y-7825983D01*
X12657500Y-11185983D02*
X12697500Y-11225983D01*
X12697500Y-11185983D02*
X12657500Y-11225983D01*
X12657500Y-14585983D02*
X12697500Y-14625983D01*
X12697500Y-14585983D02*
X12657500Y-14625983D01*
X12677500Y-6705983D02*
X12717500Y-6745983D01*
X12717500Y-6705983D02*
X12677500Y-6745983D01*
X12677500Y-6925983D02*
X12717500Y-6965983D01*
X12717500Y-6925983D02*
X12677500Y-6965983D01*
X12677500Y-7125983D02*
X12717500Y-7165983D01*
X12717500Y-7125983D02*
X12677500Y-7165983D01*
X12677500Y-10105983D02*
X12717500Y-10145983D01*
X12717500Y-10105983D02*
X12677500Y-10145983D01*
X12677500Y-10325983D02*
X12717500Y-10365983D01*
X12717500Y-10325983D02*
X12677500Y-10365983D01*
X12677500Y-10525983D02*
X12717500Y-10565983D01*
X12717500Y-10525983D02*
X12677500Y-10565983D01*
X12677500Y-13505983D02*
X12717500Y-13545983D01*
X12717500Y-13505983D02*
X12677500Y-13545983D01*
X12677500Y-13725983D02*
X12717500Y-13765983D01*
X12717500Y-13725983D02*
X12677500Y-13765983D01*
X12677500Y-13925983D02*
X12717500Y-13965983D01*
X12717500Y-13925983D02*
X12677500Y-13965983D01*
X12740698Y-5644132D02*
X12780698Y-5684132D01*
X12780698Y-5644132D02*
X12740698Y-5684132D01*
X12740698Y-9044132D02*
X12780698Y-9084132D01*
X12780698Y-9044132D02*
X12740698Y-9084132D01*
X12740698Y-12444132D02*
X12780698Y-12484132D01*
X12780698Y-12444132D02*
X12740698Y-12484132D01*
X12747500Y-5135983D02*
X12787500Y-5175983D01*
X12787500Y-5135983D02*
X12747500Y-5175983D01*
X12747500Y-5385983D02*
X12787500Y-5425983D01*
X12787500Y-5385983D02*
X12747500Y-5425983D01*
X12747500Y-8035983D02*
X12787500Y-8075983D01*
X12787500Y-8035983D02*
X12747500Y-8075983D01*
X12747500Y-8535983D02*
X12787500Y-8575983D01*
X12787500Y-8535983D02*
X12747500Y-8575983D01*
X12747500Y-8785983D02*
X12787500Y-8825983D01*
X12787500Y-8785983D02*
X12747500Y-8825983D01*
X12747500Y-11435983D02*
X12787500Y-11475983D01*
X12787500Y-11435983D02*
X12747500Y-11475983D01*
X12747500Y-11935983D02*
X12787500Y-11975983D01*
X12787500Y-11935983D02*
X12747500Y-11975983D01*
X12747500Y-12185983D02*
X12787500Y-12225983D01*
X12787500Y-12185983D02*
X12747500Y-12225983D01*
X12747500Y-14835983D02*
X12787500Y-14875983D01*
X12787500Y-14835983D02*
X12747500Y-14875983D01*
X12995767Y-5641363D02*
X13035767Y-5681363D01*
X13035767Y-5641363D02*
X12995767Y-5681363D01*
X12995767Y-9041363D02*
X13035767Y-9081363D01*
X13035767Y-9041363D02*
X12995767Y-9081363D01*
X12995767Y-12441363D02*
X13035767Y-12481363D01*
X13035767Y-12441363D02*
X12995767Y-12481363D01*
X12997500Y-6705983D02*
X13037500Y-6745983D01*
X13037500Y-6705983D02*
X12997500Y-6745983D01*
X12997500Y-6925983D02*
X13037500Y-6965983D01*
X13037500Y-6925983D02*
X12997500Y-6965983D01*
X12997500Y-7125983D02*
X13037500Y-7165983D01*
X13037500Y-7125983D02*
X12997500Y-7165983D01*
X12997500Y-10105983D02*
X13037500Y-10145983D01*
X13037500Y-10105983D02*
X12997500Y-10145983D01*
X12997500Y-10325983D02*
X13037500Y-10365983D01*
X13037500Y-10325983D02*
X12997500Y-10365983D01*
X12997500Y-10525983D02*
X13037500Y-10565983D01*
X13037500Y-10525983D02*
X12997500Y-10565983D01*
X12997500Y-13505983D02*
X13037500Y-13545983D01*
X13037500Y-13505983D02*
X12997500Y-13545983D01*
X12997500Y-13725983D02*
X13037500Y-13765983D01*
X13037500Y-13725983D02*
X12997500Y-13765983D01*
X12997500Y-13925983D02*
X13037500Y-13965983D01*
X13037500Y-13925983D02*
X12997500Y-13965983D01*
X13002569Y-5133214D02*
X13042569Y-5173214D01*
X13042569Y-5133214D02*
X13002569Y-5173214D01*
X13002569Y-5383214D02*
X13042569Y-5423214D01*
X13042569Y-5383214D02*
X13002569Y-5423214D01*
X13002569Y-8033214D02*
X13042569Y-8073214D01*
X13042569Y-8033214D02*
X13002569Y-8073214D01*
X13002569Y-8533214D02*
X13042569Y-8573214D01*
X13042569Y-8533214D02*
X13002569Y-8573214D01*
X13002569Y-8783214D02*
X13042569Y-8823214D01*
X13042569Y-8783214D02*
X13002569Y-8823214D01*
X13002569Y-11433214D02*
X13042569Y-11473214D01*
X13042569Y-11433214D02*
X13002569Y-11473214D01*
X13002569Y-11933214D02*
X13042569Y-11973214D01*
X13042569Y-11933214D02*
X13002569Y-11973214D01*
X13002569Y-12183214D02*
X13042569Y-12223214D01*
X13042569Y-12183214D02*
X13002569Y-12223214D01*
X13002569Y-14833214D02*
X13042569Y-14873214D01*
X13042569Y-14833214D02*
X13002569Y-14873214D01*
X13240698Y-5644132D02*
X13280698Y-5684132D01*
X13280698Y-5644132D02*
X13240698Y-5684132D01*
X13240698Y-9044132D02*
X13280698Y-9084132D01*
X13280698Y-9044132D02*
X13240698Y-9084132D01*
X13240698Y-12444132D02*
X13280698Y-12484132D01*
X13280698Y-12444132D02*
X13240698Y-12484132D01*
X13247500Y-5135983D02*
X13287500Y-5175983D01*
X13287500Y-5135983D02*
X13247500Y-5175983D01*
X13247500Y-5385983D02*
X13287500Y-5425983D01*
X13287500Y-5385983D02*
X13247500Y-5425983D01*
X13247500Y-8035983D02*
X13287500Y-8075983D01*
X13287500Y-8035983D02*
X13247500Y-8075983D01*
X13247500Y-8535983D02*
X13287500Y-8575983D01*
X13287500Y-8535983D02*
X13247500Y-8575983D01*
X13247500Y-8785983D02*
X13287500Y-8825983D01*
X13287500Y-8785983D02*
X13247500Y-8825983D01*
X13247500Y-11435983D02*
X13287500Y-11475983D01*
X13287500Y-11435983D02*
X13247500Y-11475983D01*
X13247500Y-11935983D02*
X13287500Y-11975983D01*
X13287500Y-11935983D02*
X13247500Y-11975983D01*
X13247500Y-12185983D02*
X13287500Y-12225983D01*
X13287500Y-12185983D02*
X13247500Y-12225983D01*
X13247500Y-14835983D02*
X13287500Y-14875983D01*
X13287500Y-14835983D02*
X13247500Y-14875983D01*
X13297500Y-6705983D02*
X13337500Y-6745983D01*
X13337500Y-6705983D02*
X13297500Y-6745983D01*
X13297500Y-6925983D02*
X13337500Y-6965983D01*
X13337500Y-6925983D02*
X13297500Y-6965983D01*
X13297500Y-7125983D02*
X13337500Y-7165983D01*
X13337500Y-7125983D02*
X13297500Y-7165983D01*
X13297500Y-10105983D02*
X13337500Y-10145983D01*
X13337500Y-10105983D02*
X13297500Y-10145983D01*
X13297500Y-10325983D02*
X13337500Y-10365983D01*
X13337500Y-10325983D02*
X13297500Y-10365983D01*
X13297500Y-10525983D02*
X13337500Y-10565983D01*
X13337500Y-10525983D02*
X13297500Y-10565983D01*
X13297500Y-13505983D02*
X13337500Y-13545983D01*
X13337500Y-13505983D02*
X13297500Y-13545983D01*
X13297500Y-13725983D02*
X13337500Y-13765983D01*
X13337500Y-13725983D02*
X13297500Y-13765983D01*
X13297500Y-13925983D02*
X13337500Y-13965983D01*
X13337500Y-13925983D02*
X13297500Y-13965983D01*
X13307500Y-6575983D02*
X13347500Y-6615983D01*
X13347500Y-6575983D02*
X13307500Y-6615983D01*
X13307500Y-9975983D02*
X13347500Y-10015983D01*
X13347500Y-9975983D02*
X13307500Y-10015983D01*
X13307500Y-13375983D02*
X13347500Y-13415983D01*
X13347500Y-13375983D02*
X13307500Y-13415983D01*
X13490698Y-5644132D02*
X13530698Y-5684132D01*
X13530698Y-5644132D02*
X13490698Y-5684132D01*
X13490698Y-9044132D02*
X13530698Y-9084132D01*
X13530698Y-9044132D02*
X13490698Y-9084132D01*
X13490698Y-12444132D02*
X13530698Y-12484132D01*
X13530698Y-12444132D02*
X13490698Y-12484132D01*
X13497500Y-5135983D02*
X13537500Y-5175983D01*
X13537500Y-5135983D02*
X13497500Y-5175983D01*
X13497500Y-5385983D02*
X13537500Y-5425983D01*
X13537500Y-5385983D02*
X13497500Y-5425983D01*
X13497500Y-6405983D02*
X13537500Y-6445983D01*
X13537500Y-6405983D02*
X13497500Y-6445983D01*
X13497500Y-6985983D02*
X13537500Y-7025983D01*
X13537500Y-6985983D02*
X13497500Y-7025983D01*
X13497500Y-7285983D02*
X13537500Y-7325983D01*
X13537500Y-7285983D02*
X13497500Y-7325983D01*
X13497500Y-7535983D02*
X13537500Y-7575983D01*
X13537500Y-7535983D02*
X13497500Y-7575983D01*
X13497500Y-8035983D02*
X13537500Y-8075983D01*
X13537500Y-8035983D02*
X13497500Y-8075983D01*
X13497500Y-8535983D02*
X13537500Y-8575983D01*
X13537500Y-8535983D02*
X13497500Y-8575983D01*
X13497500Y-8785983D02*
X13537500Y-8825983D01*
X13537500Y-8785983D02*
X13497500Y-8825983D01*
X13497500Y-9805983D02*
X13537500Y-9845983D01*
X13537500Y-9805983D02*
X13497500Y-9845983D01*
X13497500Y-10385983D02*
X13537500Y-10425983D01*
X13537500Y-10385983D02*
X13497500Y-10425983D01*
X13497500Y-10685983D02*
X13537500Y-10725983D01*
X13537500Y-10685983D02*
X13497500Y-10725983D01*
X13497500Y-10935983D02*
X13537500Y-10975983D01*
X13537500Y-10935983D02*
X13497500Y-10975983D01*
X13497500Y-11435983D02*
X13537500Y-11475983D01*
X13537500Y-11435983D02*
X13497500Y-11475983D01*
X13497500Y-11935983D02*
X13537500Y-11975983D01*
X13537500Y-11935983D02*
X13497500Y-11975983D01*
X13497500Y-12185983D02*
X13537500Y-12225983D01*
X13537500Y-12185983D02*
X13497500Y-12225983D01*
X13497500Y-13205983D02*
X13537500Y-13245983D01*
X13537500Y-13205983D02*
X13497500Y-13245983D01*
X13497500Y-13785983D02*
X13537500Y-13825983D01*
X13537500Y-13785983D02*
X13497500Y-13825983D01*
X13497500Y-14085983D02*
X13537500Y-14125983D01*
X13537500Y-14085983D02*
X13497500Y-14125983D01*
X13497500Y-14335983D02*
X13537500Y-14375983D01*
X13537500Y-14335983D02*
X13497500Y-14375983D01*
X13497500Y-14835983D02*
X13537500Y-14875983D01*
X13537500Y-14835983D02*
X13497500Y-14875983D01*
X13502569Y-6683214D02*
X13542569Y-6723214D01*
X13542569Y-6683214D02*
X13502569Y-6723214D01*
X13502569Y-7783214D02*
X13542569Y-7823214D01*
X13542569Y-7783214D02*
X13502569Y-7823214D01*
X13502569Y-10083214D02*
X13542569Y-10123214D01*
X13542569Y-10083214D02*
X13502569Y-10123214D01*
X13502569Y-11183214D02*
X13542569Y-11223214D01*
X13542569Y-11183214D02*
X13502569Y-11223214D01*
X13502569Y-13483214D02*
X13542569Y-13523214D01*
X13542569Y-13483214D02*
X13502569Y-13523214D01*
X13502569Y-14583214D02*
X13542569Y-14623214D01*
X13542569Y-14583214D02*
X13502569Y-14623214D01*
X14042431Y-7238752D02*
X14082431Y-7278752D01*
X14082431Y-7238752D02*
X14042431Y-7278752D01*
X14042431Y-7538752D02*
X14082431Y-7578752D01*
X14082431Y-7538752D02*
X14042431Y-7578752D01*
X14042431Y-7788752D02*
X14082431Y-7828752D01*
X14082431Y-7788752D02*
X14042431Y-7828752D01*
X14042431Y-10638753D02*
X14082431Y-10678753D01*
X14082431Y-10638753D02*
X14042431Y-10678753D01*
X14042431Y-10938753D02*
X14082431Y-10978753D01*
X14082431Y-10938753D02*
X14042431Y-10978753D01*
X14042431Y-11188752D02*
X14082431Y-11228752D01*
X14082431Y-11188752D02*
X14042431Y-11228752D01*
X14042431Y-14038752D02*
X14082431Y-14078752D01*
X14082431Y-14038752D02*
X14042431Y-14078752D01*
X14042431Y-14338752D02*
X14082431Y-14378752D01*
X14082431Y-14338752D02*
X14042431Y-14378752D01*
X14042431Y-14588752D02*
X14082431Y-14628752D01*
X14082431Y-14588752D02*
X14042431Y-14628752D01*
X14047500Y-5135983D02*
X14087500Y-5175983D01*
X14087500Y-5135983D02*
X14047500Y-5175983D01*
X14047500Y-5385983D02*
X14087500Y-5425983D01*
X14087500Y-5385983D02*
X14047500Y-5425983D01*
X14047500Y-6385983D02*
X14087500Y-6425983D01*
X14087500Y-6385983D02*
X14047500Y-6425983D01*
X14047500Y-6635983D02*
X14087500Y-6675983D01*
X14087500Y-6635983D02*
X14047500Y-6675983D01*
X14047500Y-6935983D02*
X14087500Y-6975983D01*
X14087500Y-6935983D02*
X14047500Y-6975983D01*
X14047500Y-8035983D02*
X14087500Y-8075983D01*
X14087500Y-8035983D02*
X14047500Y-8075983D01*
X14047500Y-8535983D02*
X14087500Y-8575983D01*
X14087500Y-8535983D02*
X14047500Y-8575983D01*
X14047500Y-8785983D02*
X14087500Y-8825983D01*
X14087500Y-8785983D02*
X14047500Y-8825983D01*
X14047500Y-9785983D02*
X14087500Y-9825983D01*
X14087500Y-9785983D02*
X14047500Y-9825983D01*
X14047500Y-10035983D02*
X14087500Y-10075983D01*
X14087500Y-10035983D02*
X14047500Y-10075983D01*
X14047500Y-10335983D02*
X14087500Y-10375983D01*
X14087500Y-10335983D02*
X14047500Y-10375983D01*
X14047500Y-11435983D02*
X14087500Y-11475983D01*
X14087500Y-11435983D02*
X14047500Y-11475983D01*
X14047500Y-11935983D02*
X14087500Y-11975983D01*
X14087500Y-11935983D02*
X14047500Y-11975983D01*
X14047500Y-12185983D02*
X14087500Y-12225983D01*
X14087500Y-12185983D02*
X14047500Y-12225983D01*
X14047500Y-13185983D02*
X14087500Y-13225983D01*
X14087500Y-13185983D02*
X14047500Y-13225983D01*
X14047500Y-13435983D02*
X14087500Y-13475983D01*
X14087500Y-13435983D02*
X14047500Y-13475983D01*
X14047500Y-13735983D02*
X14087500Y-13775983D01*
X14087500Y-13735983D02*
X14047500Y-13775983D01*
X14047500Y-14835983D02*
X14087500Y-14875983D01*
X14087500Y-14835983D02*
X14047500Y-14875983D01*
X14259233Y-7240603D02*
X14299233Y-7280603D01*
X14299233Y-7240603D02*
X14259233Y-7280603D01*
X14259233Y-7540603D02*
X14299233Y-7580603D01*
X14299233Y-7540603D02*
X14259233Y-7580603D01*
X14259233Y-7790603D02*
X14299233Y-7830603D01*
X14299233Y-7790603D02*
X14259233Y-7830603D01*
X14259233Y-10640603D02*
X14299233Y-10680603D01*
X14299233Y-10640603D02*
X14259233Y-10680603D01*
X14259233Y-10940603D02*
X14299233Y-10980603D01*
X14299233Y-10940603D02*
X14259233Y-10980603D01*
X14259233Y-11190603D02*
X14299233Y-11230603D01*
X14299233Y-11190603D02*
X14259233Y-11230603D01*
X14259233Y-14040603D02*
X14299233Y-14080603D01*
X14299233Y-14040603D02*
X14259233Y-14080603D01*
X14259233Y-14340603D02*
X14299233Y-14380603D01*
X14299233Y-14340603D02*
X14259233Y-14380603D01*
X14259233Y-14590603D02*
X14299233Y-14630603D01*
X14299233Y-14590603D02*
X14259233Y-14630603D01*
X14264302Y-5137834D02*
X14304302Y-5177834D01*
X14304302Y-5137834D02*
X14264302Y-5177834D01*
X14264302Y-5387834D02*
X14304302Y-5427834D01*
X14304302Y-5387834D02*
X14264302Y-5427834D01*
X14264302Y-6387834D02*
X14304302Y-6427834D01*
X14304302Y-6387834D02*
X14264302Y-6427834D01*
X14264302Y-6637834D02*
X14304302Y-6677834D01*
X14304302Y-6637834D02*
X14264302Y-6677834D01*
X14264302Y-6937834D02*
X14304302Y-6977834D01*
X14304302Y-6937834D02*
X14264302Y-6977834D01*
X14264302Y-8037834D02*
X14304302Y-8077834D01*
X14304302Y-8037834D02*
X14264302Y-8077834D01*
X14264302Y-8537834D02*
X14304302Y-8577834D01*
X14304302Y-8537834D02*
X14264302Y-8577834D01*
X14264302Y-8787834D02*
X14304302Y-8827834D01*
X14304302Y-8787834D02*
X14264302Y-8827834D01*
X14264302Y-9787834D02*
X14304302Y-9827834D01*
X14304302Y-9787834D02*
X14264302Y-9827834D01*
X14264302Y-10037834D02*
X14304302Y-10077834D01*
X14304302Y-10037834D02*
X14264302Y-10077834D01*
X14264302Y-10337834D02*
X14304302Y-10377834D01*
X14304302Y-10337834D02*
X14264302Y-10377834D01*
X14264302Y-11437834D02*
X14304302Y-11477834D01*
X14304302Y-11437834D02*
X14264302Y-11477834D01*
X14264302Y-11937834D02*
X14304302Y-11977834D01*
X14304302Y-11937834D02*
X14264302Y-11977834D01*
X14264302Y-12187834D02*
X14304302Y-12227834D01*
X14304302Y-12187834D02*
X14264302Y-12227834D01*
X14264302Y-13187834D02*
X14304302Y-13227834D01*
X14304302Y-13187834D02*
X14264302Y-13227834D01*
X14264302Y-13437834D02*
X14304302Y-13477834D01*
X14304302Y-13437834D02*
X14264302Y-13477834D01*
X14264302Y-13737834D02*
X14304302Y-13777834D01*
X14304302Y-13737834D02*
X14264302Y-13777834D01*
X14264302Y-14837834D02*
X14304302Y-14877834D01*
X14304302Y-14837834D02*
X14264302Y-14877834D01*
X14357500Y-5765983D02*
X14397500Y-5805983D01*
X14397500Y-5765983D02*
X14357500Y-5805983D01*
X14357500Y-9165983D02*
X14397500Y-9205983D01*
X14397500Y-9165983D02*
X14357500Y-9205983D01*
X14357500Y-12565983D02*
X14397500Y-12605983D01*
X14397500Y-12565983D02*
X14357500Y-12605983D01*
X14417500Y-6165983D02*
X14457500Y-6205983D01*
X14457500Y-6165983D02*
X14417500Y-6205983D01*
X14417500Y-9565983D02*
X14457500Y-9605983D01*
X14457500Y-9565983D02*
X14417500Y-9605983D01*
X14417500Y-12965983D02*
X14457500Y-13005983D01*
X14457500Y-12965983D02*
X14417500Y-13005983D01*
X14542431Y-7238752D02*
X14582431Y-7278752D01*
X14582431Y-7238752D02*
X14542431Y-7278752D01*
X14542431Y-7538752D02*
X14582431Y-7578752D01*
X14582431Y-7538752D02*
X14542431Y-7578752D01*
X14542431Y-7788752D02*
X14582431Y-7828752D01*
X14582431Y-7788752D02*
X14542431Y-7828752D01*
X14542431Y-10638753D02*
X14582431Y-10678753D01*
X14582431Y-10638753D02*
X14542431Y-10678753D01*
X14542431Y-10938753D02*
X14582431Y-10978753D01*
X14582431Y-10938753D02*
X14542431Y-10978753D01*
X14542431Y-11188752D02*
X14582431Y-11228752D01*
X14582431Y-11188752D02*
X14542431Y-11228752D01*
X14542431Y-14038752D02*
X14582431Y-14078752D01*
X14582431Y-14038752D02*
X14542431Y-14078752D01*
X14542431Y-14338752D02*
X14582431Y-14378752D01*
X14582431Y-14338752D02*
X14542431Y-14378752D01*
X14542431Y-14588752D02*
X14582431Y-14628752D01*
X14582431Y-14588752D02*
X14542431Y-14628752D01*
X14547500Y-5135983D02*
X14587500Y-5175983D01*
X14587500Y-5135983D02*
X14547500Y-5175983D01*
X14547500Y-5385983D02*
X14587500Y-5425983D01*
X14587500Y-5385983D02*
X14547500Y-5425983D01*
X14547500Y-6385983D02*
X14587500Y-6425983D01*
X14587500Y-6385983D02*
X14547500Y-6425983D01*
X14547500Y-6635983D02*
X14587500Y-6675983D01*
X14587500Y-6635983D02*
X14547500Y-6675983D01*
X14547500Y-6935983D02*
X14587500Y-6975983D01*
X14587500Y-6935983D02*
X14547500Y-6975983D01*
X14547500Y-8035983D02*
X14587500Y-8075983D01*
X14587500Y-8035983D02*
X14547500Y-8075983D01*
X14547500Y-8535983D02*
X14587500Y-8575983D01*
X14587500Y-8535983D02*
X14547500Y-8575983D01*
X14547500Y-8785983D02*
X14587500Y-8825983D01*
X14587500Y-8785983D02*
X14547500Y-8825983D01*
X14547500Y-9785983D02*
X14587500Y-9825983D01*
X14587500Y-9785983D02*
X14547500Y-9825983D01*
X14547500Y-10035983D02*
X14587500Y-10075983D01*
X14587500Y-10035983D02*
X14547500Y-10075983D01*
X14547500Y-10335983D02*
X14587500Y-10375983D01*
X14587500Y-10335983D02*
X14547500Y-10375983D01*
X14547500Y-11435983D02*
X14587500Y-11475983D01*
X14587500Y-11435983D02*
X14547500Y-11475983D01*
X14547500Y-11935983D02*
X14587500Y-11975983D01*
X14587500Y-11935983D02*
X14547500Y-11975983D01*
X14547500Y-12185983D02*
X14587500Y-12225983D01*
X14587500Y-12185983D02*
X14547500Y-12225983D01*
X14547500Y-13185983D02*
X14587500Y-13225983D01*
X14587500Y-13185983D02*
X14547500Y-13225983D01*
X14547500Y-13435983D02*
X14587500Y-13475983D01*
X14587500Y-13435983D02*
X14547500Y-13475983D01*
X14547500Y-13735983D02*
X14587500Y-13775983D01*
X14587500Y-13735983D02*
X14547500Y-13775983D01*
X14547500Y-14835983D02*
X14587500Y-14875983D01*
X14587500Y-14835983D02*
X14547500Y-14875983D01*
X14797500Y-7235983D02*
X14837500Y-7275983D01*
X14837500Y-7235983D02*
X14797500Y-7275983D01*
X14797500Y-7535983D02*
X14837500Y-7575983D01*
X14837500Y-7535983D02*
X14797500Y-7575983D01*
X14797500Y-7785983D02*
X14837500Y-7825983D01*
X14837500Y-7785983D02*
X14797500Y-7825983D01*
X14797500Y-10635983D02*
X14837500Y-10675983D01*
X14837500Y-10635983D02*
X14797500Y-10675983D01*
X14797500Y-10935983D02*
X14837500Y-10975983D01*
X14837500Y-10935983D02*
X14797500Y-10975983D01*
X14797500Y-11185983D02*
X14837500Y-11225983D01*
X14837500Y-11185983D02*
X14797500Y-11225983D01*
X14797500Y-14035983D02*
X14837500Y-14075983D01*
X14837500Y-14035983D02*
X14797500Y-14075983D01*
X14797500Y-14335983D02*
X14837500Y-14375983D01*
X14837500Y-14335983D02*
X14797500Y-14375983D01*
X14797500Y-14585983D02*
X14837500Y-14625983D01*
X14837500Y-14585983D02*
X14797500Y-14625983D01*
X14802569Y-5133214D02*
X14842569Y-5173214D01*
X14842569Y-5133214D02*
X14802569Y-5173214D01*
X14802569Y-5383214D02*
X14842569Y-5423214D01*
X14842569Y-5383214D02*
X14802569Y-5423214D01*
X14802569Y-6383214D02*
X14842569Y-6423214D01*
X14842569Y-6383214D02*
X14802569Y-6423214D01*
X14802569Y-6633214D02*
X14842569Y-6673214D01*
X14842569Y-6633214D02*
X14802569Y-6673214D01*
X14802569Y-6933214D02*
X14842569Y-6973214D01*
X14842569Y-6933214D02*
X14802569Y-6973214D01*
X14802569Y-8033214D02*
X14842569Y-8073214D01*
X14842569Y-8033214D02*
X14802569Y-8073214D01*
X14802569Y-8533214D02*
X14842569Y-8573214D01*
X14842569Y-8533214D02*
X14802569Y-8573214D01*
X14802569Y-8783214D02*
X14842569Y-8823214D01*
X14842569Y-8783214D02*
X14802569Y-8823214D01*
X14802569Y-9783214D02*
X14842569Y-9823214D01*
X14842569Y-9783214D02*
X14802569Y-9823214D01*
X14802569Y-10033214D02*
X14842569Y-10073214D01*
X14842569Y-10033214D02*
X14802569Y-10073214D01*
X14802569Y-10333214D02*
X14842569Y-10373214D01*
X14842569Y-10333214D02*
X14802569Y-10373214D01*
X14802569Y-11433214D02*
X14842569Y-11473214D01*
X14842569Y-11433214D02*
X14802569Y-11473214D01*
X14802569Y-11933214D02*
X14842569Y-11973214D01*
X14842569Y-11933214D02*
X14802569Y-11973214D01*
X14802569Y-12183214D02*
X14842569Y-12223214D01*
X14842569Y-12183214D02*
X14802569Y-12223214D01*
X14802569Y-13183214D02*
X14842569Y-13223214D01*
X14842569Y-13183214D02*
X14802569Y-13223214D01*
X14802569Y-13433214D02*
X14842569Y-13473214D01*
X14842569Y-13433214D02*
X14802569Y-13473214D01*
X14802569Y-13733214D02*
X14842569Y-13773214D01*
X14842569Y-13733214D02*
X14802569Y-13773214D01*
X14802569Y-14833214D02*
X14842569Y-14873214D01*
X14842569Y-14833214D02*
X14802569Y-14873214D01*
X14887500Y-6245983D02*
X14927500Y-6285983D01*
X14927500Y-6245983D02*
X14887500Y-6285983D01*
X14887500Y-9645983D02*
X14927500Y-9685983D01*
X14927500Y-9645983D02*
X14887500Y-9685983D01*
X14887500Y-13045983D02*
X14927500Y-13085983D01*
X14927500Y-13045983D02*
X14887500Y-13085983D01*
X15059233Y-7240603D02*
X15099233Y-7280603D01*
X15099233Y-7240603D02*
X15059233Y-7280603D01*
X15059233Y-7540603D02*
X15099233Y-7580603D01*
X15099233Y-7540603D02*
X15059233Y-7580603D01*
X15059233Y-7790603D02*
X15099233Y-7830603D01*
X15099233Y-7790603D02*
X15059233Y-7830603D01*
X15059233Y-10640603D02*
X15099233Y-10680603D01*
X15099233Y-10640603D02*
X15059233Y-10680603D01*
X15059233Y-10940603D02*
X15099233Y-10980603D01*
X15099233Y-10940603D02*
X15059233Y-10980603D01*
X15059233Y-11190603D02*
X15099233Y-11230603D01*
X15099233Y-11190603D02*
X15059233Y-11230603D01*
X15059233Y-14040603D02*
X15099233Y-14080603D01*
X15099233Y-14040603D02*
X15059233Y-14080603D01*
X15059233Y-14340603D02*
X15099233Y-14380603D01*
X15099233Y-14340603D02*
X15059233Y-14380603D01*
X15059233Y-14590603D02*
X15099233Y-14630603D01*
X15099233Y-14590603D02*
X15059233Y-14630603D01*
X15064302Y-5137834D02*
X15104302Y-5177834D01*
X15104302Y-5137834D02*
X15064302Y-5177834D01*
X15064302Y-5387834D02*
X15104302Y-5427834D01*
X15104302Y-5387834D02*
X15064302Y-5427834D01*
X15064302Y-6387834D02*
X15104302Y-6427834D01*
X15104302Y-6387834D02*
X15064302Y-6427834D01*
X15064302Y-6637834D02*
X15104302Y-6677834D01*
X15104302Y-6637834D02*
X15064302Y-6677834D01*
X15064302Y-6937834D02*
X15104302Y-6977834D01*
X15104302Y-6937834D02*
X15064302Y-6977834D01*
X15064302Y-8037834D02*
X15104302Y-8077834D01*
X15104302Y-8037834D02*
X15064302Y-8077834D01*
X15064302Y-8537834D02*
X15104302Y-8577834D01*
X15104302Y-8537834D02*
X15064302Y-8577834D01*
X15064302Y-8787834D02*
X15104302Y-8827834D01*
X15104302Y-8787834D02*
X15064302Y-8827834D01*
X15064302Y-9787834D02*
X15104302Y-9827834D01*
X15104302Y-9787834D02*
X15064302Y-9827834D01*
X15064302Y-10037834D02*
X15104302Y-10077834D01*
X15104302Y-10037834D02*
X15064302Y-10077834D01*
X15064302Y-10337834D02*
X15104302Y-10377834D01*
X15104302Y-10337834D02*
X15064302Y-10377834D01*
X15064302Y-11437834D02*
X15104302Y-11477834D01*
X15104302Y-11437834D02*
X15064302Y-11477834D01*
X15064302Y-11937834D02*
X15104302Y-11977834D01*
X15104302Y-11937834D02*
X15064302Y-11977834D01*
X15064302Y-12187834D02*
X15104302Y-12227834D01*
X15104302Y-12187834D02*
X15064302Y-12227834D01*
X15064302Y-13187834D02*
X15104302Y-13227834D01*
X15104302Y-13187834D02*
X15064302Y-13227834D01*
X15064302Y-13437834D02*
X15104302Y-13477834D01*
X15104302Y-13437834D02*
X15064302Y-13477834D01*
X15064302Y-13737834D02*
X15104302Y-13777834D01*
X15104302Y-13737834D02*
X15064302Y-13777834D01*
X15064302Y-14837834D02*
X15104302Y-14877834D01*
X15104302Y-14837834D02*
X15064302Y-14877834D01*
X15297500Y-6805983D02*
X15337500Y-6845983D01*
X15337500Y-6805983D02*
X15297500Y-6845983D01*
X15297500Y-10205983D02*
X15337500Y-10245983D01*
X15337500Y-10205983D02*
X15297500Y-10245983D01*
X15297500Y-13605983D02*
X15337500Y-13645983D01*
X15337500Y-13605983D02*
X15297500Y-13645983D01*
X15317500Y-6925983D02*
X15357500Y-6965983D01*
X15357500Y-6925983D02*
X15317500Y-6965983D01*
X15317500Y-10325983D02*
X15357500Y-10365983D01*
X15357500Y-10325983D02*
X15317500Y-10365983D01*
X15317500Y-13725983D02*
X15357500Y-13765983D01*
X15357500Y-13725983D02*
X15317500Y-13765983D01*
X15337500Y-6705983D02*
X15377500Y-6745983D01*
X15377500Y-6705983D02*
X15337500Y-6745983D01*
X15337500Y-10105983D02*
X15377500Y-10145983D01*
X15377500Y-10105983D02*
X15337500Y-10145983D01*
X15337500Y-13505983D02*
X15377500Y-13545983D01*
X15377500Y-13505983D02*
X15337500Y-13545983D01*
X15342431Y-7238752D02*
X15382431Y-7278752D01*
X15382431Y-7238752D02*
X15342431Y-7278752D01*
X15342431Y-7538752D02*
X15382431Y-7578752D01*
X15382431Y-7538752D02*
X15342431Y-7578752D01*
X15342431Y-7788752D02*
X15382431Y-7828752D01*
X15382431Y-7788752D02*
X15342431Y-7828752D01*
X15342431Y-10638753D02*
X15382431Y-10678753D01*
X15382431Y-10638753D02*
X15342431Y-10678753D01*
X15342431Y-10938753D02*
X15382431Y-10978753D01*
X15382431Y-10938753D02*
X15342431Y-10978753D01*
X15342431Y-11188752D02*
X15382431Y-11228752D01*
X15382431Y-11188752D02*
X15342431Y-11228752D01*
X15342431Y-14038752D02*
X15382431Y-14078752D01*
X15382431Y-14038752D02*
X15342431Y-14078752D01*
X15342431Y-14338752D02*
X15382431Y-14378752D01*
X15382431Y-14338752D02*
X15342431Y-14378752D01*
X15342431Y-14588752D02*
X15382431Y-14628752D01*
X15382431Y-14588752D02*
X15342431Y-14628752D01*
X15347500Y-5135983D02*
X15387500Y-5175983D01*
X15387500Y-5135983D02*
X15347500Y-5175983D01*
X15347500Y-5385983D02*
X15387500Y-5425983D01*
X15387500Y-5385983D02*
X15347500Y-5425983D01*
X15347500Y-8035983D02*
X15387500Y-8075983D01*
X15387500Y-8035983D02*
X15347500Y-8075983D01*
X15347500Y-8535983D02*
X15387500Y-8575983D01*
X15387500Y-8535983D02*
X15347500Y-8575983D01*
X15347500Y-8785983D02*
X15387500Y-8825983D01*
X15387500Y-8785983D02*
X15347500Y-8825983D01*
X15347500Y-11435983D02*
X15387500Y-11475983D01*
X15387500Y-11435983D02*
X15347500Y-11475983D01*
X15347500Y-11935983D02*
X15387500Y-11975983D01*
X15387500Y-11935983D02*
X15347500Y-11975983D01*
X15347500Y-12185983D02*
X15387500Y-12225983D01*
X15387500Y-12185983D02*
X15347500Y-12225983D01*
X15347500Y-14835983D02*
X15387500Y-14875983D01*
X15387500Y-14835983D02*
X15347500Y-14875983D01*
X15357500Y-5725983D02*
X15397500Y-5765983D01*
X15397500Y-5725983D02*
X15357500Y-5765983D01*
X15357500Y-6105983D02*
X15397500Y-6145983D01*
X15397500Y-6105983D02*
X15357500Y-6145983D01*
X15357500Y-6385983D02*
X15397500Y-6425983D01*
X15397500Y-6385983D02*
X15357500Y-6425983D01*
X15357500Y-9125983D02*
X15397500Y-9165983D01*
X15397500Y-9125983D02*
X15357500Y-9165983D01*
X15357500Y-9505983D02*
X15397500Y-9545983D01*
X15397500Y-9505983D02*
X15357500Y-9545983D01*
X15357500Y-9785983D02*
X15397500Y-9825983D01*
X15397500Y-9785983D02*
X15357500Y-9825983D01*
X15357500Y-12525983D02*
X15397500Y-12565983D01*
X15397500Y-12525983D02*
X15357500Y-12565983D01*
X15357500Y-12905983D02*
X15397500Y-12945983D01*
X15397500Y-12905983D02*
X15357500Y-12945983D01*
X15357500Y-13185983D02*
X15397500Y-13225983D01*
X15397500Y-13185983D02*
X15357500Y-13225983D01*
X15397500Y-7005983D02*
X15437500Y-7045983D01*
X15437500Y-7005983D02*
X15397500Y-7045983D01*
X15397500Y-10405983D02*
X15437500Y-10445983D01*
X15437500Y-10405983D02*
X15397500Y-10445983D01*
X15397500Y-13805983D02*
X15437500Y-13845983D01*
X15437500Y-13805983D02*
X15397500Y-13845983D01*
X15437500Y-6645983D02*
X15477500Y-6685983D01*
X15477500Y-6645983D02*
X15437500Y-6685983D01*
X15437500Y-10045983D02*
X15477500Y-10085983D01*
X15477500Y-10045983D02*
X15437500Y-10085983D01*
X15437500Y-13445983D02*
X15477500Y-13485983D01*
X15477500Y-13445983D02*
X15437500Y-13485983D01*
X15557500Y-6645983D02*
X15597500Y-6685983D01*
X15597500Y-6645983D02*
X15557500Y-6685983D01*
X15557500Y-7025983D02*
X15597500Y-7065983D01*
X15597500Y-7025983D02*
X15557500Y-7065983D01*
X15557500Y-10045983D02*
X15597500Y-10085983D01*
X15597500Y-10045983D02*
X15557500Y-10085983D01*
X15557500Y-10425983D02*
X15597500Y-10465983D01*
X15597500Y-10425983D02*
X15557500Y-10465983D01*
X15557500Y-13445983D02*
X15597500Y-13485983D01*
X15597500Y-13445983D02*
X15557500Y-13485983D01*
X15557500Y-13825983D02*
X15597500Y-13865983D01*
X15597500Y-13825983D02*
X15557500Y-13865983D01*
X15597500Y-7235983D02*
X15637500Y-7275983D01*
X15637500Y-7235983D02*
X15597500Y-7275983D01*
X15597500Y-7535983D02*
X15637500Y-7575983D01*
X15637500Y-7535983D02*
X15597500Y-7575983D01*
X15597500Y-7785983D02*
X15637500Y-7825983D01*
X15637500Y-7785983D02*
X15597500Y-7825983D01*
X15597500Y-10635983D02*
X15637500Y-10675983D01*
X15637500Y-10635983D02*
X15597500Y-10675983D01*
X15597500Y-10935983D02*
X15637500Y-10975983D01*
X15637500Y-10935983D02*
X15597500Y-10975983D01*
X15597500Y-11185983D02*
X15637500Y-11225983D01*
X15637500Y-11185983D02*
X15597500Y-11225983D01*
X15597500Y-14035983D02*
X15637500Y-14075983D01*
X15637500Y-14035983D02*
X15597500Y-14075983D01*
X15597500Y-14335983D02*
X15637500Y-14375983D01*
X15637500Y-14335983D02*
X15597500Y-14375983D01*
X15597500Y-14585983D02*
X15637500Y-14625983D01*
X15637500Y-14585983D02*
X15597500Y-14625983D01*
X15602569Y-5133214D02*
X15642569Y-5173214D01*
X15642569Y-5133214D02*
X15602569Y-5173214D01*
X15602569Y-5383214D02*
X15642569Y-5423214D01*
X15642569Y-5383214D02*
X15602569Y-5423214D01*
X15602569Y-8033214D02*
X15642569Y-8073214D01*
X15642569Y-8033214D02*
X15602569Y-8073214D01*
X15602569Y-8533214D02*
X15642569Y-8573214D01*
X15642569Y-8533214D02*
X15602569Y-8573214D01*
X15602569Y-8783214D02*
X15642569Y-8823214D01*
X15642569Y-8783214D02*
X15602569Y-8823214D01*
X15602569Y-11433214D02*
X15642569Y-11473214D01*
X15642569Y-11433214D02*
X15602569Y-11473214D01*
X15602569Y-11933214D02*
X15642569Y-11973214D01*
X15642569Y-11933214D02*
X15602569Y-11973214D01*
X15602569Y-12183214D02*
X15642569Y-12223214D01*
X15642569Y-12183214D02*
X15602569Y-12223214D01*
X15602569Y-14833214D02*
X15642569Y-14873214D01*
X15642569Y-14833214D02*
X15602569Y-14873214D01*
X15637500Y-7105983D02*
X15677500Y-7145983D01*
X15677500Y-7105983D02*
X15637500Y-7145983D01*
X15637500Y-10505983D02*
X15677500Y-10545983D01*
X15677500Y-10505983D02*
X15637500Y-10545983D01*
X15637500Y-13905983D02*
X15677500Y-13945983D01*
X15677500Y-13905983D02*
X15637500Y-13945983D01*
X15657500Y-6665983D02*
X15697500Y-6705983D01*
X15697500Y-6665983D02*
X15657500Y-6705983D01*
X15657500Y-10065983D02*
X15697500Y-10105983D01*
X15697500Y-10065983D02*
X15657500Y-10105983D01*
X15657500Y-13465983D02*
X15697500Y-13505983D01*
X15697500Y-13465983D02*
X15657500Y-13505983D01*
X15737500Y-6745983D02*
X15777500Y-6785983D01*
X15777500Y-6745983D02*
X15737500Y-6785983D01*
X15737500Y-7205983D02*
X15777500Y-7245983D01*
X15777500Y-7205983D02*
X15737500Y-7245983D01*
X15737500Y-10145983D02*
X15777500Y-10185983D01*
X15777500Y-10145983D02*
X15737500Y-10185983D01*
X15737500Y-10605983D02*
X15777500Y-10645983D01*
X15777500Y-10605983D02*
X15737500Y-10645983D01*
X15737500Y-13545983D02*
X15777500Y-13585983D01*
X15777500Y-13545983D02*
X15737500Y-13585983D01*
X15737500Y-14005983D02*
X15777500Y-14045983D01*
X15777500Y-14005983D02*
X15737500Y-14045983D01*
X15757500Y-6265983D02*
X15797500Y-6305983D01*
X15797500Y-6265983D02*
X15757500Y-6305983D01*
X15757500Y-9665983D02*
X15797500Y-9705983D01*
X15797500Y-9665983D02*
X15757500Y-9705983D01*
X15757500Y-13065983D02*
X15797500Y-13105983D01*
X15797500Y-13065983D02*
X15757500Y-13105983D01*
X15817500Y-6845983D02*
X15857500Y-6885983D01*
X15857500Y-6845983D02*
X15817500Y-6885983D01*
X15817500Y-10245983D02*
X15857500Y-10285983D01*
X15857500Y-10245983D02*
X15817500Y-10285983D01*
X15817500Y-13645983D02*
X15857500Y-13685983D01*
X15857500Y-13645983D02*
X15817500Y-13685983D01*
X15827500Y-7535983D02*
X15867500Y-7575983D01*
X15867500Y-7535983D02*
X15827500Y-7575983D01*
X15827500Y-10935983D02*
X15867500Y-10975983D01*
X15867500Y-10935983D02*
X15827500Y-10975983D01*
X15827500Y-14335983D02*
X15867500Y-14375983D01*
X15867500Y-14335983D02*
X15827500Y-14375983D01*
X15837500Y-7785983D02*
X15877500Y-7825983D01*
X15877500Y-7785983D02*
X15837500Y-7825983D01*
X15837500Y-11185983D02*
X15877500Y-11225983D01*
X15877500Y-11185983D02*
X15837500Y-11225983D01*
X15837500Y-14585983D02*
X15877500Y-14625983D01*
X15877500Y-14585983D02*
X15837500Y-14625983D01*
X15857500Y-5645983D02*
X15897500Y-5685983D01*
X15897500Y-5645983D02*
X15857500Y-5685983D01*
X15857500Y-9045983D02*
X15897500Y-9085983D01*
X15897500Y-9045983D02*
X15857500Y-9085983D01*
X15857500Y-12445983D02*
X15897500Y-12485983D01*
X15897500Y-12445983D02*
X15857500Y-12485983D01*
X15864302Y-5137834D02*
X15904302Y-5177834D01*
X15904302Y-5137834D02*
X15864302Y-5177834D01*
X15864302Y-5387834D02*
X15904302Y-5427834D01*
X15904302Y-5387834D02*
X15864302Y-5427834D01*
X15864302Y-8037834D02*
X15904302Y-8077834D01*
X15904302Y-8037834D02*
X15864302Y-8077834D01*
X15864302Y-8537834D02*
X15904302Y-8577834D01*
X15904302Y-8537834D02*
X15864302Y-8577834D01*
X15864302Y-8787834D02*
X15904302Y-8827834D01*
X15904302Y-8787834D02*
X15864302Y-8827834D01*
X15864302Y-11437834D02*
X15904302Y-11477834D01*
X15904302Y-11437834D02*
X15864302Y-11477834D01*
X15864302Y-11937834D02*
X15904302Y-11977834D01*
X15904302Y-11937834D02*
X15864302Y-11977834D01*
X15864302Y-12187834D02*
X15904302Y-12227834D01*
X15904302Y-12187834D02*
X15864302Y-12227834D01*
X15864302Y-14837834D02*
X15904302Y-14877834D01*
X15904302Y-14837834D02*
X15864302Y-14877834D01*
X15917500Y-6925983D02*
X15957500Y-6965983D01*
X15957500Y-6925983D02*
X15917500Y-6965983D01*
X15917500Y-10325983D02*
X15957500Y-10365983D01*
X15957500Y-10325983D02*
X15917500Y-10365983D01*
X15917500Y-13725983D02*
X15957500Y-13765983D01*
X15957500Y-13725983D02*
X15917500Y-13765983D01*
X15947500Y-6185983D02*
X15987500Y-6225983D01*
X15987500Y-6185983D02*
X15947500Y-6225983D01*
X15947500Y-9585983D02*
X15987500Y-9625983D01*
X15987500Y-9585983D02*
X15947500Y-9625983D01*
X15947500Y-12985983D02*
X15987500Y-13025983D01*
X15987500Y-12985983D02*
X15947500Y-13025983D01*
X15997500Y-7005983D02*
X16037500Y-7045983D01*
X16037500Y-7005983D02*
X15997500Y-7045983D01*
X15997500Y-10405983D02*
X16037500Y-10445983D01*
X16037500Y-10405983D02*
X15997500Y-10445983D01*
X15997500Y-13805983D02*
X16037500Y-13845983D01*
X16037500Y-13805983D02*
X15997500Y-13845983D01*
X16047500Y-7535983D02*
X16087500Y-7575983D01*
X16087500Y-7535983D02*
X16047500Y-7575983D01*
X16047500Y-10935983D02*
X16087500Y-10975983D01*
X16087500Y-10935983D02*
X16047500Y-10975983D01*
X16047500Y-14335983D02*
X16087500Y-14375983D01*
X16087500Y-14335983D02*
X16047500Y-14375983D01*
X16057500Y-7785983D02*
X16097500Y-7825983D01*
X16097500Y-7785983D02*
X16057500Y-7825983D01*
X16057500Y-11185983D02*
X16097500Y-11225983D01*
X16097500Y-11185983D02*
X16057500Y-11225983D01*
X16057500Y-14585983D02*
X16097500Y-14625983D01*
X16097500Y-14585983D02*
X16057500Y-14625983D01*
X16077500Y-6705983D02*
X16117500Y-6745983D01*
X16117500Y-6705983D02*
X16077500Y-6745983D01*
X16077500Y-6925983D02*
X16117500Y-6965983D01*
X16117500Y-6925983D02*
X16077500Y-6965983D01*
X16077500Y-7125983D02*
X16117500Y-7165983D01*
X16117500Y-7125983D02*
X16077500Y-7165983D01*
X16077500Y-10105983D02*
X16117500Y-10145983D01*
X16117500Y-10105983D02*
X16077500Y-10145983D01*
X16077500Y-10325983D02*
X16117500Y-10365983D01*
X16117500Y-10325983D02*
X16077500Y-10365983D01*
X16077500Y-10525983D02*
X16117500Y-10565983D01*
X16117500Y-10525983D02*
X16077500Y-10565983D01*
X16077500Y-13505983D02*
X16117500Y-13545983D01*
X16117500Y-13505983D02*
X16077500Y-13545983D01*
X16077500Y-13725983D02*
X16117500Y-13765983D01*
X16117500Y-13725983D02*
X16077500Y-13765983D01*
X16077500Y-13925983D02*
X16117500Y-13965983D01*
X16117500Y-13925983D02*
X16077500Y-13965983D01*
X16140698Y-5644132D02*
X16180698Y-5684132D01*
X16180698Y-5644132D02*
X16140698Y-5684132D01*
X16140698Y-9044132D02*
X16180698Y-9084132D01*
X16180698Y-9044132D02*
X16140698Y-9084132D01*
X16140698Y-12444132D02*
X16180698Y-12484132D01*
X16180698Y-12444132D02*
X16140698Y-12484132D01*
X16147500Y-5135983D02*
X16187500Y-5175983D01*
X16187500Y-5135983D02*
X16147500Y-5175983D01*
X16147500Y-5385983D02*
X16187500Y-5425983D01*
X16187500Y-5385983D02*
X16147500Y-5425983D01*
X16147500Y-8035983D02*
X16187500Y-8075983D01*
X16187500Y-8035983D02*
X16147500Y-8075983D01*
X16147500Y-8535983D02*
X16187500Y-8575983D01*
X16187500Y-8535983D02*
X16147500Y-8575983D01*
X16147500Y-8785983D02*
X16187500Y-8825983D01*
X16187500Y-8785983D02*
X16147500Y-8825983D01*
X16147500Y-11435983D02*
X16187500Y-11475983D01*
X16187500Y-11435983D02*
X16147500Y-11475983D01*
X16147500Y-11935983D02*
X16187500Y-11975983D01*
X16187500Y-11935983D02*
X16147500Y-11975983D01*
X16147500Y-12185983D02*
X16187500Y-12225983D01*
X16187500Y-12185983D02*
X16147500Y-12225983D01*
X16147500Y-14835983D02*
X16187500Y-14875983D01*
X16187500Y-14835983D02*
X16147500Y-14875983D01*
X16395767Y-5641363D02*
X16435767Y-5681363D01*
X16435767Y-5641363D02*
X16395767Y-5681363D01*
X16395767Y-9041363D02*
X16435767Y-9081363D01*
X16435767Y-9041363D02*
X16395767Y-9081363D01*
X16395767Y-12441363D02*
X16435767Y-12481363D01*
X16435767Y-12441363D02*
X16395767Y-12481363D01*
X16397500Y-6705983D02*
X16437500Y-6745983D01*
X16437500Y-6705983D02*
X16397500Y-6745983D01*
X16397500Y-6925983D02*
X16437500Y-6965983D01*
X16437500Y-6925983D02*
X16397500Y-6965983D01*
X16397500Y-7125983D02*
X16437500Y-7165983D01*
X16437500Y-7125983D02*
X16397500Y-7165983D01*
X16397500Y-10105983D02*
X16437500Y-10145983D01*
X16437500Y-10105983D02*
X16397500Y-10145983D01*
X16397500Y-10325983D02*
X16437500Y-10365983D01*
X16437500Y-10325983D02*
X16397500Y-10365983D01*
X16397500Y-10525983D02*
X16437500Y-10565983D01*
X16437500Y-10525983D02*
X16397500Y-10565983D01*
X16397500Y-13505983D02*
X16437500Y-13545983D01*
X16437500Y-13505983D02*
X16397500Y-13545983D01*
X16397500Y-13725983D02*
X16437500Y-13765983D01*
X16437500Y-13725983D02*
X16397500Y-13765983D01*
X16397500Y-13925983D02*
X16437500Y-13965983D01*
X16437500Y-13925983D02*
X16397500Y-13965983D01*
X16402569Y-5133214D02*
X16442569Y-5173214D01*
X16442569Y-5133214D02*
X16402569Y-5173214D01*
X16402569Y-5383214D02*
X16442569Y-5423214D01*
X16442569Y-5383214D02*
X16402569Y-5423214D01*
X16402569Y-8033214D02*
X16442569Y-8073214D01*
X16442569Y-8033214D02*
X16402569Y-8073214D01*
X16402569Y-8533214D02*
X16442569Y-8573214D01*
X16442569Y-8533214D02*
X16402569Y-8573214D01*
X16402569Y-8783214D02*
X16442569Y-8823214D01*
X16442569Y-8783214D02*
X16402569Y-8823214D01*
X16402569Y-11433214D02*
X16442569Y-11473214D01*
X16442569Y-11433214D02*
X16402569Y-11473214D01*
X16402569Y-11933214D02*
X16442569Y-11973214D01*
X16442569Y-11933214D02*
X16402569Y-11973214D01*
X16402569Y-12183214D02*
X16442569Y-12223214D01*
X16442569Y-12183214D02*
X16402569Y-12223214D01*
X16402569Y-14833214D02*
X16442569Y-14873214D01*
X16442569Y-14833214D02*
X16402569Y-14873214D01*
X16640698Y-5644132D02*
X16680698Y-5684132D01*
X16680698Y-5644132D02*
X16640698Y-5684132D01*
X16640698Y-9044132D02*
X16680698Y-9084132D01*
X16680698Y-9044132D02*
X16640698Y-9084132D01*
X16640698Y-12444132D02*
X16680698Y-12484132D01*
X16680698Y-12444132D02*
X16640698Y-12484132D01*
X16647500Y-5135983D02*
X16687500Y-5175983D01*
X16687500Y-5135983D02*
X16647500Y-5175983D01*
X16647500Y-5385983D02*
X16687500Y-5425983D01*
X16687500Y-5385983D02*
X16647500Y-5425983D01*
X16647500Y-8035983D02*
X16687500Y-8075983D01*
X16687500Y-8035983D02*
X16647500Y-8075983D01*
X16647500Y-8535983D02*
X16687500Y-8575983D01*
X16687500Y-8535983D02*
X16647500Y-8575983D01*
X16647500Y-8785983D02*
X16687500Y-8825983D01*
X16687500Y-8785983D02*
X16647500Y-8825983D01*
X16647500Y-11435983D02*
X16687500Y-11475983D01*
X16687500Y-11435983D02*
X16647500Y-11475983D01*
X16647500Y-11935983D02*
X16687500Y-11975983D01*
X16687500Y-11935983D02*
X16647500Y-11975983D01*
X16647500Y-12185983D02*
X16687500Y-12225983D01*
X16687500Y-12185983D02*
X16647500Y-12225983D01*
X16647500Y-14835983D02*
X16687500Y-14875983D01*
X16687500Y-14835983D02*
X16647500Y-14875983D01*
X16697500Y-6705983D02*
X16737500Y-6745983D01*
X16737500Y-6705983D02*
X16697500Y-6745983D01*
X16697500Y-6925983D02*
X16737500Y-6965983D01*
X16737500Y-6925983D02*
X16697500Y-6965983D01*
X16697500Y-7125983D02*
X16737500Y-7165983D01*
X16737500Y-7125983D02*
X16697500Y-7165983D01*
X16697500Y-10105983D02*
X16737500Y-10145983D01*
X16737500Y-10105983D02*
X16697500Y-10145983D01*
X16697500Y-10325983D02*
X16737500Y-10365983D01*
X16737500Y-10325983D02*
X16697500Y-10365983D01*
X16697500Y-10525983D02*
X16737500Y-10565983D01*
X16737500Y-10525983D02*
X16697500Y-10565983D01*
X16697500Y-13505983D02*
X16737500Y-13545983D01*
X16737500Y-13505983D02*
X16697500Y-13545983D01*
X16697500Y-13725983D02*
X16737500Y-13765983D01*
X16737500Y-13725983D02*
X16697500Y-13765983D01*
X16697500Y-13925983D02*
X16737500Y-13965983D01*
X16737500Y-13925983D02*
X16697500Y-13965983D01*
X16707500Y-6575983D02*
X16747500Y-6615983D01*
X16747500Y-6575983D02*
X16707500Y-6615983D01*
X16707500Y-9975983D02*
X16747500Y-10015983D01*
X16747500Y-9975983D02*
X16707500Y-10015983D01*
X16707500Y-13375983D02*
X16747500Y-13415983D01*
X16747500Y-13375983D02*
X16707500Y-13415983D01*
X16890698Y-5644132D02*
X16930698Y-5684132D01*
X16930698Y-5644132D02*
X16890698Y-5684132D01*
X16890698Y-9044132D02*
X16930698Y-9084132D01*
X16930698Y-9044132D02*
X16890698Y-9084132D01*
X16890698Y-12444132D02*
X16930698Y-12484132D01*
X16930698Y-12444132D02*
X16890698Y-12484132D01*
X16897500Y-5135983D02*
X16937500Y-5175983D01*
X16937500Y-5135983D02*
X16897500Y-5175983D01*
X16897500Y-5385983D02*
X16937500Y-5425983D01*
X16937500Y-5385983D02*
X16897500Y-5425983D01*
X16897500Y-6405983D02*
X16937500Y-6445983D01*
X16937500Y-6405983D02*
X16897500Y-6445983D01*
X16897500Y-6985983D02*
X16937500Y-7025983D01*
X16937500Y-6985983D02*
X16897500Y-7025983D01*
X16897500Y-7285983D02*
X16937500Y-7325983D01*
X16937500Y-7285983D02*
X16897500Y-7325983D01*
X16897500Y-7535983D02*
X16937500Y-7575983D01*
X16937500Y-7535983D02*
X16897500Y-7575983D01*
X16897500Y-8035983D02*
X16937500Y-8075983D01*
X16937500Y-8035983D02*
X16897500Y-8075983D01*
X16897500Y-8535983D02*
X16937500Y-8575983D01*
X16937500Y-8535983D02*
X16897500Y-8575983D01*
X16897500Y-8785983D02*
X16937500Y-8825983D01*
X16937500Y-8785983D02*
X16897500Y-8825983D01*
X16897500Y-9805983D02*
X16937500Y-9845983D01*
X16937500Y-9805983D02*
X16897500Y-9845983D01*
X16897500Y-10385983D02*
X16937500Y-10425983D01*
X16937500Y-10385983D02*
X16897500Y-10425983D01*
X16897500Y-10685983D02*
X16937500Y-10725983D01*
X16937500Y-10685983D02*
X16897500Y-10725983D01*
X16897500Y-10935983D02*
X16937500Y-10975983D01*
X16937500Y-10935983D02*
X16897500Y-10975983D01*
X16897500Y-11435983D02*
X16937500Y-11475983D01*
X16937500Y-11435983D02*
X16897500Y-11475983D01*
X16897500Y-11935983D02*
X16937500Y-11975983D01*
X16937500Y-11935983D02*
X16897500Y-11975983D01*
X16897500Y-12185983D02*
X16937500Y-12225983D01*
X16937500Y-12185983D02*
X16897500Y-12225983D01*
X16897500Y-13205983D02*
X16937500Y-13245983D01*
X16937500Y-13205983D02*
X16897500Y-13245983D01*
X16897500Y-13785983D02*
X16937500Y-13825983D01*
X16937500Y-13785983D02*
X16897500Y-13825983D01*
X16897500Y-14085983D02*
X16937500Y-14125983D01*
X16937500Y-14085983D02*
X16897500Y-14125983D01*
X16897500Y-14335983D02*
X16937500Y-14375983D01*
X16937500Y-14335983D02*
X16897500Y-14375983D01*
X16897500Y-14835983D02*
X16937500Y-14875983D01*
X16937500Y-14835983D02*
X16897500Y-14875983D01*
X16902569Y-6683214D02*
X16942569Y-6723214D01*
X16942569Y-6683214D02*
X16902569Y-6723214D01*
X16902569Y-7783214D02*
X16942569Y-7823214D01*
X16942569Y-7783214D02*
X16902569Y-7823214D01*
X16902569Y-10083214D02*
X16942569Y-10123214D01*
X16942569Y-10083214D02*
X16902569Y-10123214D01*
X16902569Y-11183214D02*
X16942569Y-11223214D01*
X16942569Y-11183214D02*
X16902569Y-11223214D01*
X16902569Y-13483214D02*
X16942569Y-13523214D01*
X16942569Y-13483214D02*
X16902569Y-13523214D01*
X16902569Y-14583214D02*
X16942569Y-14623214D01*
X16942569Y-14583214D02*
X16902569Y-14623214D01*
X17442431Y-7238752D02*
X17482431Y-7278752D01*
X17482431Y-7238752D02*
X17442431Y-7278752D01*
X17442431Y-7538752D02*
X17482431Y-7578752D01*
X17482431Y-7538752D02*
X17442431Y-7578752D01*
X17442431Y-7788752D02*
X17482431Y-7828752D01*
X17482431Y-7788752D02*
X17442431Y-7828752D01*
X17442431Y-10638753D02*
X17482431Y-10678753D01*
X17482431Y-10638753D02*
X17442431Y-10678753D01*
X17442431Y-10938753D02*
X17482431Y-10978753D01*
X17482431Y-10938753D02*
X17442431Y-10978753D01*
X17442431Y-11188752D02*
X17482431Y-11228752D01*
X17482431Y-11188752D02*
X17442431Y-11228752D01*
X17442431Y-14038752D02*
X17482431Y-14078752D01*
X17482431Y-14038752D02*
X17442431Y-14078752D01*
X17442431Y-14338752D02*
X17482431Y-14378752D01*
X17482431Y-14338752D02*
X17442431Y-14378752D01*
X17442431Y-14588752D02*
X17482431Y-14628752D01*
X17482431Y-14588752D02*
X17442431Y-14628752D01*
X17447500Y-5135983D02*
X17487500Y-5175983D01*
X17487500Y-5135983D02*
X17447500Y-5175983D01*
X17447500Y-5385983D02*
X17487500Y-5425983D01*
X17487500Y-5385983D02*
X17447500Y-5425983D01*
X17447500Y-6385983D02*
X17487500Y-6425983D01*
X17487500Y-6385983D02*
X17447500Y-6425983D01*
X17447500Y-6635983D02*
X17487500Y-6675983D01*
X17487500Y-6635983D02*
X17447500Y-6675983D01*
X17447500Y-6935983D02*
X17487500Y-6975983D01*
X17487500Y-6935983D02*
X17447500Y-6975983D01*
X17447500Y-8035983D02*
X17487500Y-8075983D01*
X17487500Y-8035983D02*
X17447500Y-8075983D01*
X17447500Y-8535983D02*
X17487500Y-8575983D01*
X17487500Y-8535983D02*
X17447500Y-8575983D01*
X17447500Y-8785983D02*
X17487500Y-8825983D01*
X17487500Y-8785983D02*
X17447500Y-8825983D01*
X17447500Y-9785983D02*
X17487500Y-9825983D01*
X17487500Y-9785983D02*
X17447500Y-9825983D01*
X17447500Y-10035983D02*
X17487500Y-10075983D01*
X17487500Y-10035983D02*
X17447500Y-10075983D01*
X17447500Y-10335983D02*
X17487500Y-10375983D01*
X17487500Y-10335983D02*
X17447500Y-10375983D01*
X17447500Y-11435983D02*
X17487500Y-11475983D01*
X17487500Y-11435983D02*
X17447500Y-11475983D01*
X17447500Y-11935983D02*
X17487500Y-11975983D01*
X17487500Y-11935983D02*
X17447500Y-11975983D01*
X17447500Y-12185983D02*
X17487500Y-12225983D01*
X17487500Y-12185983D02*
X17447500Y-12225983D01*
X17447500Y-13185983D02*
X17487500Y-13225983D01*
X17487500Y-13185983D02*
X17447500Y-13225983D01*
X17447500Y-13435983D02*
X17487500Y-13475983D01*
X17487500Y-13435983D02*
X17447500Y-13475983D01*
X17447500Y-13735983D02*
X17487500Y-13775983D01*
X17487500Y-13735983D02*
X17447500Y-13775983D01*
X17447500Y-14835983D02*
X17487500Y-14875983D01*
X17487500Y-14835983D02*
X17447500Y-14875983D01*
X17659233Y-7240603D02*
X17699233Y-7280603D01*
X17699233Y-7240603D02*
X17659233Y-7280603D01*
X17659233Y-7540603D02*
X17699233Y-7580603D01*
X17699233Y-7540603D02*
X17659233Y-7580603D01*
X17659233Y-7790603D02*
X17699233Y-7830603D01*
X17699233Y-7790603D02*
X17659233Y-7830603D01*
X17659233Y-10640603D02*
X17699233Y-10680603D01*
X17699233Y-10640603D02*
X17659233Y-10680603D01*
X17659233Y-10940603D02*
X17699233Y-10980603D01*
X17699233Y-10940603D02*
X17659233Y-10980603D01*
X17659233Y-11190603D02*
X17699233Y-11230603D01*
X17699233Y-11190603D02*
X17659233Y-11230603D01*
X17659233Y-14040603D02*
X17699233Y-14080603D01*
X17699233Y-14040603D02*
X17659233Y-14080603D01*
X17659233Y-14340603D02*
X17699233Y-14380603D01*
X17699233Y-14340603D02*
X17659233Y-14380603D01*
X17659233Y-14590603D02*
X17699233Y-14630603D01*
X17699233Y-14590603D02*
X17659233Y-14630603D01*
X17664302Y-5137834D02*
X17704302Y-5177834D01*
X17704302Y-5137834D02*
X17664302Y-5177834D01*
X17664302Y-5387834D02*
X17704302Y-5427834D01*
X17704302Y-5387834D02*
X17664302Y-5427834D01*
X17664302Y-6387834D02*
X17704302Y-6427834D01*
X17704302Y-6387834D02*
X17664302Y-6427834D01*
X17664302Y-6637834D02*
X17704302Y-6677834D01*
X17704302Y-6637834D02*
X17664302Y-6677834D01*
X17664302Y-6937834D02*
X17704302Y-6977834D01*
X17704302Y-6937834D02*
X17664302Y-6977834D01*
X17664302Y-8037834D02*
X17704302Y-8077834D01*
X17704302Y-8037834D02*
X17664302Y-8077834D01*
X17664302Y-8537834D02*
X17704302Y-8577834D01*
X17704302Y-8537834D02*
X17664302Y-8577834D01*
X17664302Y-8787834D02*
X17704302Y-8827834D01*
X17704302Y-8787834D02*
X17664302Y-8827834D01*
X17664302Y-9787834D02*
X17704302Y-9827834D01*
X17704302Y-9787834D02*
X17664302Y-9827834D01*
X17664302Y-10037834D02*
X17704302Y-10077834D01*
X17704302Y-10037834D02*
X17664302Y-10077834D01*
X17664302Y-10337834D02*
X17704302Y-10377834D01*
X17704302Y-10337834D02*
X17664302Y-10377834D01*
X17664302Y-11437834D02*
X17704302Y-11477834D01*
X17704302Y-11437834D02*
X17664302Y-11477834D01*
X17664302Y-11937834D02*
X17704302Y-11977834D01*
X17704302Y-11937834D02*
X17664302Y-11977834D01*
X17664302Y-12187834D02*
X17704302Y-12227834D01*
X17704302Y-12187834D02*
X17664302Y-12227834D01*
X17664302Y-13187834D02*
X17704302Y-13227834D01*
X17704302Y-13187834D02*
X17664302Y-13227834D01*
X17664302Y-13437834D02*
X17704302Y-13477834D01*
X17704302Y-13437834D02*
X17664302Y-13477834D01*
X17664302Y-13737834D02*
X17704302Y-13777834D01*
X17704302Y-13737834D02*
X17664302Y-13777834D01*
X17664302Y-14837834D02*
X17704302Y-14877834D01*
X17704302Y-14837834D02*
X17664302Y-14877834D01*
X17757500Y-5765983D02*
X17797500Y-5805983D01*
X17797500Y-5765983D02*
X17757500Y-5805983D01*
X17757500Y-9165983D02*
X17797500Y-9205983D01*
X17797500Y-9165983D02*
X17757500Y-9205983D01*
X17757500Y-12565983D02*
X17797500Y-12605983D01*
X17797500Y-12565983D02*
X17757500Y-12605983D01*
X17817500Y-6165983D02*
X17857500Y-6205983D01*
X17857500Y-6165983D02*
X17817500Y-6205983D01*
X17817500Y-9565983D02*
X17857500Y-9605983D01*
X17857500Y-9565983D02*
X17817500Y-9605983D01*
X17817500Y-12965983D02*
X17857500Y-13005983D01*
X17857500Y-12965983D02*
X17817500Y-13005983D01*
X17942431Y-7238752D02*
X17982431Y-7278752D01*
X17982431Y-7238752D02*
X17942431Y-7278752D01*
X17942431Y-7538752D02*
X17982431Y-7578752D01*
X17982431Y-7538752D02*
X17942431Y-7578752D01*
X17942431Y-7788752D02*
X17982431Y-7828752D01*
X17982431Y-7788752D02*
X17942431Y-7828752D01*
X17942431Y-10638753D02*
X17982431Y-10678753D01*
X17982431Y-10638753D02*
X17942431Y-10678753D01*
X17942431Y-10938753D02*
X17982431Y-10978753D01*
X17982431Y-10938753D02*
X17942431Y-10978753D01*
X17942431Y-11188752D02*
X17982431Y-11228752D01*
X17982431Y-11188752D02*
X17942431Y-11228752D01*
X17942431Y-14038752D02*
X17982431Y-14078752D01*
X17982431Y-14038752D02*
X17942431Y-14078752D01*
X17942431Y-14338752D02*
X17982431Y-14378752D01*
X17982431Y-14338752D02*
X17942431Y-14378752D01*
X17942431Y-14588752D02*
X17982431Y-14628752D01*
X17982431Y-14588752D02*
X17942431Y-14628752D01*
X17947500Y-5135983D02*
X17987500Y-5175983D01*
X17987500Y-5135983D02*
X17947500Y-5175983D01*
X17947500Y-5385983D02*
X17987500Y-5425983D01*
X17987500Y-5385983D02*
X17947500Y-5425983D01*
X17947500Y-6385983D02*
X17987500Y-6425983D01*
X17987500Y-6385983D02*
X17947500Y-6425983D01*
X17947500Y-6635983D02*
X17987500Y-6675983D01*
X17987500Y-6635983D02*
X17947500Y-6675983D01*
X17947500Y-6935983D02*
X17987500Y-6975983D01*
X17987500Y-6935983D02*
X17947500Y-6975983D01*
X17947500Y-8035983D02*
X17987500Y-8075983D01*
X17987500Y-8035983D02*
X17947500Y-8075983D01*
X17947500Y-8535983D02*
X17987500Y-8575983D01*
X17987500Y-8535983D02*
X17947500Y-8575983D01*
X17947500Y-8785983D02*
X17987500Y-8825983D01*
X17987500Y-8785983D02*
X17947500Y-8825983D01*
X17947500Y-9785983D02*
X17987500Y-9825983D01*
X17987500Y-9785983D02*
X17947500Y-9825983D01*
X17947500Y-10035983D02*
X17987500Y-10075983D01*
X17987500Y-10035983D02*
X17947500Y-10075983D01*
X17947500Y-10335983D02*
X17987500Y-10375983D01*
X17987500Y-10335983D02*
X17947500Y-10375983D01*
X17947500Y-11435983D02*
X17987500Y-11475983D01*
X17987500Y-11435983D02*
X17947500Y-11475983D01*
X17947500Y-11935983D02*
X17987500Y-11975983D01*
X17987500Y-11935983D02*
X17947500Y-11975983D01*
X17947500Y-12185983D02*
X17987500Y-12225983D01*
X17987500Y-12185983D02*
X17947500Y-12225983D01*
X17947500Y-13185983D02*
X17987500Y-13225983D01*
X17987500Y-13185983D02*
X17947500Y-13225983D01*
X17947500Y-13435983D02*
X17987500Y-13475983D01*
X17987500Y-13435983D02*
X17947500Y-13475983D01*
X17947500Y-13735983D02*
X17987500Y-13775983D01*
X17987500Y-13735983D02*
X17947500Y-13775983D01*
X17947500Y-14835983D02*
X17987500Y-14875983D01*
X17987500Y-14835983D02*
X17947500Y-14875983D01*
X18197500Y-7235983D02*
X18237500Y-7275983D01*
X18237500Y-7235983D02*
X18197500Y-7275983D01*
X18197500Y-7535983D02*
X18237500Y-7575983D01*
X18237500Y-7535983D02*
X18197500Y-7575983D01*
X18197500Y-7785983D02*
X18237500Y-7825983D01*
X18237500Y-7785983D02*
X18197500Y-7825983D01*
X18197500Y-10635983D02*
X18237500Y-10675983D01*
X18237500Y-10635983D02*
X18197500Y-10675983D01*
X18197500Y-10935983D02*
X18237500Y-10975983D01*
X18237500Y-10935983D02*
X18197500Y-10975983D01*
X18197500Y-11185983D02*
X18237500Y-11225983D01*
X18237500Y-11185983D02*
X18197500Y-11225983D01*
X18197500Y-14035983D02*
X18237500Y-14075983D01*
X18237500Y-14035983D02*
X18197500Y-14075983D01*
X18197500Y-14335983D02*
X18237500Y-14375983D01*
X18237500Y-14335983D02*
X18197500Y-14375983D01*
X18197500Y-14585983D02*
X18237500Y-14625983D01*
X18237500Y-14585983D02*
X18197500Y-14625983D01*
X18202569Y-5133214D02*
X18242569Y-5173214D01*
X18242569Y-5133214D02*
X18202569Y-5173214D01*
X18202569Y-5383214D02*
X18242569Y-5423214D01*
X18242569Y-5383214D02*
X18202569Y-5423214D01*
X18202569Y-6383214D02*
X18242569Y-6423214D01*
X18242569Y-6383214D02*
X18202569Y-6423214D01*
X18202569Y-6633214D02*
X18242569Y-6673214D01*
X18242569Y-6633214D02*
X18202569Y-6673214D01*
X18202569Y-6933214D02*
X18242569Y-6973214D01*
X18242569Y-6933214D02*
X18202569Y-6973214D01*
X18202569Y-8033214D02*
X18242569Y-8073214D01*
X18242569Y-8033214D02*
X18202569Y-8073214D01*
X18202569Y-8533214D02*
X18242569Y-8573214D01*
X18242569Y-8533214D02*
X18202569Y-8573214D01*
X18202569Y-8783214D02*
X18242569Y-8823214D01*
X18242569Y-8783214D02*
X18202569Y-8823214D01*
X18202569Y-9783214D02*
X18242569Y-9823214D01*
X18242569Y-9783214D02*
X18202569Y-9823214D01*
X18202569Y-10033214D02*
X18242569Y-10073214D01*
X18242569Y-10033214D02*
X18202569Y-10073214D01*
X18202569Y-10333214D02*
X18242569Y-10373214D01*
X18242569Y-10333214D02*
X18202569Y-10373214D01*
X18202569Y-11433214D02*
X18242569Y-11473214D01*
X18242569Y-11433214D02*
X18202569Y-11473214D01*
X18202569Y-11933214D02*
X18242569Y-11973214D01*
X18242569Y-11933214D02*
X18202569Y-11973214D01*
X18202569Y-12183214D02*
X18242569Y-12223214D01*
X18242569Y-12183214D02*
X18202569Y-12223214D01*
X18202569Y-13183214D02*
X18242569Y-13223214D01*
X18242569Y-13183214D02*
X18202569Y-13223214D01*
X18202569Y-13433214D02*
X18242569Y-13473214D01*
X18242569Y-13433214D02*
X18202569Y-13473214D01*
X18202569Y-13733214D02*
X18242569Y-13773214D01*
X18242569Y-13733214D02*
X18202569Y-13773214D01*
X18202569Y-14833214D02*
X18242569Y-14873214D01*
X18242569Y-14833214D02*
X18202569Y-14873214D01*
X18287500Y-6245983D02*
X18327500Y-6285983D01*
X18327500Y-6245983D02*
X18287500Y-6285983D01*
X18287500Y-9645983D02*
X18327500Y-9685983D01*
X18327500Y-9645983D02*
X18287500Y-9685983D01*
X18287500Y-13045983D02*
X18327500Y-13085983D01*
X18327500Y-13045983D02*
X18287500Y-13085983D01*
X18459233Y-7240603D02*
X18499233Y-7280603D01*
X18499233Y-7240603D02*
X18459233Y-7280603D01*
X18459233Y-7540603D02*
X18499233Y-7580603D01*
X18499233Y-7540603D02*
X18459233Y-7580603D01*
X18459233Y-7790603D02*
X18499233Y-7830603D01*
X18499233Y-7790603D02*
X18459233Y-7830603D01*
X18459233Y-10640603D02*
X18499233Y-10680603D01*
X18499233Y-10640603D02*
X18459233Y-10680603D01*
X18459233Y-10940603D02*
X18499233Y-10980603D01*
X18499233Y-10940603D02*
X18459233Y-10980603D01*
X18459233Y-11190603D02*
X18499233Y-11230603D01*
X18499233Y-11190603D02*
X18459233Y-11230603D01*
X18459233Y-14040603D02*
X18499233Y-14080603D01*
X18499233Y-14040603D02*
X18459233Y-14080603D01*
X18459233Y-14340603D02*
X18499233Y-14380603D01*
X18499233Y-14340603D02*
X18459233Y-14380603D01*
X18459233Y-14590603D02*
X18499233Y-14630603D01*
X18499233Y-14590603D02*
X18459233Y-14630603D01*
X18464302Y-5137834D02*
X18504302Y-5177834D01*
X18504302Y-5137834D02*
X18464302Y-5177834D01*
X18464302Y-5387834D02*
X18504302Y-5427834D01*
X18504302Y-5387834D02*
X18464302Y-5427834D01*
X18464302Y-6387834D02*
X18504302Y-6427834D01*
X18504302Y-6387834D02*
X18464302Y-6427834D01*
X18464302Y-6637834D02*
X18504302Y-6677834D01*
X18504302Y-6637834D02*
X18464302Y-6677834D01*
X18464302Y-6937834D02*
X18504302Y-6977834D01*
X18504302Y-6937834D02*
X18464302Y-6977834D01*
X18464302Y-8037834D02*
X18504302Y-8077834D01*
X18504302Y-8037834D02*
X18464302Y-8077834D01*
X18464302Y-8537834D02*
X18504302Y-8577834D01*
X18504302Y-8537834D02*
X18464302Y-8577834D01*
X18464302Y-8787834D02*
X18504302Y-8827834D01*
X18504302Y-8787834D02*
X18464302Y-8827834D01*
X18464302Y-9787834D02*
X18504302Y-9827834D01*
X18504302Y-9787834D02*
X18464302Y-9827834D01*
X18464302Y-10037834D02*
X18504302Y-10077834D01*
X18504302Y-10037834D02*
X18464302Y-10077834D01*
X18464302Y-10337834D02*
X18504302Y-10377834D01*
X18504302Y-10337834D02*
X18464302Y-10377834D01*
X18464302Y-11437834D02*
X18504302Y-11477834D01*
X18504302Y-11437834D02*
X18464302Y-11477834D01*
X18464302Y-11937834D02*
X18504302Y-11977834D01*
X18504302Y-11937834D02*
X18464302Y-11977834D01*
X18464302Y-12187834D02*
X18504302Y-12227834D01*
X18504302Y-12187834D02*
X18464302Y-12227834D01*
X18464302Y-13187834D02*
X18504302Y-13227834D01*
X18504302Y-13187834D02*
X18464302Y-13227834D01*
X18464302Y-13437834D02*
X18504302Y-13477834D01*
X18504302Y-13437834D02*
X18464302Y-13477834D01*
X18464302Y-13737834D02*
X18504302Y-13777834D01*
X18504302Y-13737834D02*
X18464302Y-13777834D01*
X18464302Y-14837834D02*
X18504302Y-14877834D01*
X18504302Y-14837834D02*
X18464302Y-14877834D01*
X18697500Y-6805983D02*
X18737500Y-6845983D01*
X18737500Y-6805983D02*
X18697500Y-6845983D01*
X18697500Y-10205983D02*
X18737500Y-10245983D01*
X18737500Y-10205983D02*
X18697500Y-10245983D01*
X18697500Y-13605983D02*
X18737500Y-13645983D01*
X18737500Y-13605983D02*
X18697500Y-13645983D01*
X18717500Y-6925983D02*
X18757500Y-6965983D01*
X18757500Y-6925983D02*
X18717500Y-6965983D01*
X18717500Y-10325983D02*
X18757500Y-10365983D01*
X18757500Y-10325983D02*
X18717500Y-10365983D01*
X18717500Y-13725983D02*
X18757500Y-13765983D01*
X18757500Y-13725983D02*
X18717500Y-13765983D01*
X18737500Y-6705983D02*
X18777500Y-6745983D01*
X18777500Y-6705983D02*
X18737500Y-6745983D01*
X18737500Y-10105983D02*
X18777500Y-10145983D01*
X18777500Y-10105983D02*
X18737500Y-10145983D01*
X18737500Y-13505983D02*
X18777500Y-13545983D01*
X18777500Y-13505983D02*
X18737500Y-13545983D01*
X18742431Y-7238752D02*
X18782431Y-7278752D01*
X18782431Y-7238752D02*
X18742431Y-7278752D01*
X18742431Y-7538752D02*
X18782431Y-7578752D01*
X18782431Y-7538752D02*
X18742431Y-7578752D01*
X18742431Y-7788752D02*
X18782431Y-7828752D01*
X18782431Y-7788752D02*
X18742431Y-7828752D01*
X18742431Y-10638753D02*
X18782431Y-10678753D01*
X18782431Y-10638753D02*
X18742431Y-10678753D01*
X18742431Y-10938753D02*
X18782431Y-10978753D01*
X18782431Y-10938753D02*
X18742431Y-10978753D01*
X18742431Y-11188752D02*
X18782431Y-11228752D01*
X18782431Y-11188752D02*
X18742431Y-11228752D01*
X18742431Y-14038752D02*
X18782431Y-14078752D01*
X18782431Y-14038752D02*
X18742431Y-14078752D01*
X18742431Y-14338752D02*
X18782431Y-14378752D01*
X18782431Y-14338752D02*
X18742431Y-14378752D01*
X18742431Y-14588752D02*
X18782431Y-14628752D01*
X18782431Y-14588752D02*
X18742431Y-14628752D01*
X18747500Y-5135983D02*
X18787500Y-5175983D01*
X18787500Y-5135983D02*
X18747500Y-5175983D01*
X18747500Y-5385983D02*
X18787500Y-5425983D01*
X18787500Y-5385983D02*
X18747500Y-5425983D01*
X18747500Y-8035983D02*
X18787500Y-8075983D01*
X18787500Y-8035983D02*
X18747500Y-8075983D01*
X18747500Y-8535983D02*
X18787500Y-8575983D01*
X18787500Y-8535983D02*
X18747500Y-8575983D01*
X18747500Y-8785983D02*
X18787500Y-8825983D01*
X18787500Y-8785983D02*
X18747500Y-8825983D01*
X18747500Y-11435983D02*
X18787500Y-11475983D01*
X18787500Y-11435983D02*
X18747500Y-11475983D01*
X18747500Y-11935983D02*
X18787500Y-11975983D01*
X18787500Y-11935983D02*
X18747500Y-11975983D01*
X18747500Y-12185983D02*
X18787500Y-12225983D01*
X18787500Y-12185983D02*
X18747500Y-12225983D01*
X18747500Y-14835983D02*
X18787500Y-14875983D01*
X18787500Y-14835983D02*
X18747500Y-14875983D01*
X18757500Y-5725983D02*
X18797500Y-5765983D01*
X18797500Y-5725983D02*
X18757500Y-5765983D01*
X18757500Y-6105983D02*
X18797500Y-6145983D01*
X18797500Y-6105983D02*
X18757500Y-6145983D01*
X18757500Y-6385983D02*
X18797500Y-6425983D01*
X18797500Y-6385983D02*
X18757500Y-6425983D01*
X18757500Y-9125983D02*
X18797500Y-9165983D01*
X18797500Y-9125983D02*
X18757500Y-9165983D01*
X18757500Y-9505983D02*
X18797500Y-9545983D01*
X18797500Y-9505983D02*
X18757500Y-9545983D01*
X18757500Y-9785983D02*
X18797500Y-9825983D01*
X18797500Y-9785983D02*
X18757500Y-9825983D01*
X18757500Y-12525983D02*
X18797500Y-12565983D01*
X18797500Y-12525983D02*
X18757500Y-12565983D01*
X18757500Y-12905983D02*
X18797500Y-12945983D01*
X18797500Y-12905983D02*
X18757500Y-12945983D01*
X18757500Y-13185983D02*
X18797500Y-13225983D01*
X18797500Y-13185983D02*
X18757500Y-13225983D01*
X18797500Y-7005983D02*
X18837500Y-7045983D01*
X18837500Y-7005983D02*
X18797500Y-7045983D01*
X18797500Y-10405983D02*
X18837500Y-10445983D01*
X18837500Y-10405983D02*
X18797500Y-10445983D01*
X18797500Y-13805983D02*
X18837500Y-13845983D01*
X18837500Y-13805983D02*
X18797500Y-13845983D01*
X18837500Y-6645983D02*
X18877500Y-6685983D01*
X18877500Y-6645983D02*
X18837500Y-6685983D01*
X18837500Y-10045983D02*
X18877500Y-10085983D01*
X18877500Y-10045983D02*
X18837500Y-10085983D01*
X18837500Y-13445983D02*
X18877500Y-13485983D01*
X18877500Y-13445983D02*
X18837500Y-13485983D01*
X18957500Y-6645983D02*
X18997500Y-6685983D01*
X18997500Y-6645983D02*
X18957500Y-6685983D01*
X18957500Y-7025983D02*
X18997500Y-7065983D01*
X18997500Y-7025983D02*
X18957500Y-7065983D01*
X18957500Y-10045983D02*
X18997500Y-10085983D01*
X18997500Y-10045983D02*
X18957500Y-10085983D01*
X18957500Y-10425983D02*
X18997500Y-10465983D01*
X18997500Y-10425983D02*
X18957500Y-10465983D01*
X18957500Y-13445983D02*
X18997500Y-13485983D01*
X18997500Y-13445983D02*
X18957500Y-13485983D01*
X18957500Y-13825983D02*
X18997500Y-13865983D01*
X18997500Y-13825983D02*
X18957500Y-13865983D01*
X18997500Y-7235983D02*
X19037500Y-7275983D01*
X19037500Y-7235983D02*
X18997500Y-7275983D01*
X18997500Y-7535983D02*
X19037500Y-7575983D01*
X19037500Y-7535983D02*
X18997500Y-7575983D01*
X18997500Y-7785983D02*
X19037500Y-7825983D01*
X19037500Y-7785983D02*
X18997500Y-7825983D01*
X18997500Y-10635983D02*
X19037500Y-10675983D01*
X19037500Y-10635983D02*
X18997500Y-10675983D01*
X18997500Y-10935983D02*
X19037500Y-10975983D01*
X19037500Y-10935983D02*
X18997500Y-10975983D01*
X18997500Y-11185983D02*
X19037500Y-11225983D01*
X19037500Y-11185983D02*
X18997500Y-11225983D01*
X18997500Y-14035983D02*
X19037500Y-14075983D01*
X19037500Y-14035983D02*
X18997500Y-14075983D01*
X18997500Y-14335983D02*
X19037500Y-14375983D01*
X19037500Y-14335983D02*
X18997500Y-14375983D01*
X18997500Y-14585983D02*
X19037500Y-14625983D01*
X19037500Y-14585983D02*
X18997500Y-14625983D01*
X19002569Y-5133214D02*
X19042569Y-5173214D01*
X19042569Y-5133214D02*
X19002569Y-5173214D01*
X19002569Y-5383214D02*
X19042569Y-5423214D01*
X19042569Y-5383214D02*
X19002569Y-5423214D01*
X19002569Y-8033214D02*
X19042569Y-8073214D01*
X19042569Y-8033214D02*
X19002569Y-8073214D01*
X19002569Y-8533214D02*
X19042569Y-8573214D01*
X19042569Y-8533214D02*
X19002569Y-8573214D01*
X19002569Y-8783214D02*
X19042569Y-8823214D01*
X19042569Y-8783214D02*
X19002569Y-8823214D01*
X19002569Y-11433214D02*
X19042569Y-11473214D01*
X19042569Y-11433214D02*
X19002569Y-11473214D01*
X19002569Y-11933214D02*
X19042569Y-11973214D01*
X19042569Y-11933214D02*
X19002569Y-11973214D01*
X19002569Y-12183214D02*
X19042569Y-12223214D01*
X19042569Y-12183214D02*
X19002569Y-12223214D01*
X19002569Y-14833214D02*
X19042569Y-14873214D01*
X19042569Y-14833214D02*
X19002569Y-14873214D01*
X19037500Y-7105983D02*
X19077500Y-7145983D01*
X19077500Y-7105983D02*
X19037500Y-7145983D01*
X19037500Y-10505983D02*
X19077500Y-10545983D01*
X19077500Y-10505983D02*
X19037500Y-10545983D01*
X19037500Y-13905983D02*
X19077500Y-13945983D01*
X19077500Y-13905983D02*
X19037500Y-13945983D01*
X19057500Y-6665983D02*
X19097500Y-6705983D01*
X19097500Y-6665983D02*
X19057500Y-6705983D01*
X19057500Y-10065983D02*
X19097500Y-10105983D01*
X19097500Y-10065983D02*
X19057500Y-10105983D01*
X19057500Y-13465983D02*
X19097500Y-13505983D01*
X19097500Y-13465983D02*
X19057500Y-13505983D01*
X19137500Y-6745983D02*
X19177500Y-6785983D01*
X19177500Y-6745983D02*
X19137500Y-6785983D01*
X19137500Y-7205983D02*
X19177500Y-7245983D01*
X19177500Y-7205983D02*
X19137500Y-7245983D01*
X19137500Y-10145983D02*
X19177500Y-10185983D01*
X19177500Y-10145983D02*
X19137500Y-10185983D01*
X19137500Y-10605983D02*
X19177500Y-10645983D01*
X19177500Y-10605983D02*
X19137500Y-10645983D01*
X19137500Y-13545983D02*
X19177500Y-13585983D01*
X19177500Y-13545983D02*
X19137500Y-13585983D01*
X19137500Y-14005983D02*
X19177500Y-14045983D01*
X19177500Y-14005983D02*
X19137500Y-14045983D01*
X19157500Y-6265983D02*
X19197500Y-6305983D01*
X19197500Y-6265983D02*
X19157500Y-6305983D01*
X19157500Y-9665983D02*
X19197500Y-9705983D01*
X19197500Y-9665983D02*
X19157500Y-9705983D01*
X19157500Y-13065983D02*
X19197500Y-13105983D01*
X19197500Y-13065983D02*
X19157500Y-13105983D01*
X19217500Y-6845983D02*
X19257500Y-6885983D01*
X19257500Y-6845983D02*
X19217500Y-6885983D01*
X19217500Y-10245983D02*
X19257500Y-10285983D01*
X19257500Y-10245983D02*
X19217500Y-10285983D01*
X19217500Y-13645983D02*
X19257500Y-13685983D01*
X19257500Y-13645983D02*
X19217500Y-13685983D01*
X19227500Y-7535983D02*
X19267500Y-7575983D01*
X19267500Y-7535983D02*
X19227500Y-7575983D01*
X19227500Y-10935983D02*
X19267500Y-10975983D01*
X19267500Y-10935983D02*
X19227500Y-10975983D01*
X19227500Y-14335983D02*
X19267500Y-14375983D01*
X19267500Y-14335983D02*
X19227500Y-14375983D01*
X19237500Y-7785983D02*
X19277500Y-7825983D01*
X19277500Y-7785983D02*
X19237500Y-7825983D01*
X19237500Y-11185983D02*
X19277500Y-11225983D01*
X19277500Y-11185983D02*
X19237500Y-11225983D01*
X19237500Y-14585983D02*
X19277500Y-14625983D01*
X19277500Y-14585983D02*
X19237500Y-14625983D01*
X19257500Y-5645983D02*
X19297500Y-5685983D01*
X19297500Y-5645983D02*
X19257500Y-5685983D01*
X19257500Y-9045983D02*
X19297500Y-9085983D01*
X19297500Y-9045983D02*
X19257500Y-9085983D01*
X19257500Y-12445983D02*
X19297500Y-12485983D01*
X19297500Y-12445983D02*
X19257500Y-12485983D01*
X19264302Y-5137834D02*
X19304302Y-5177834D01*
X19304302Y-5137834D02*
X19264302Y-5177834D01*
X19264302Y-5387834D02*
X19304302Y-5427834D01*
X19304302Y-5387834D02*
X19264302Y-5427834D01*
X19264302Y-8037834D02*
X19304302Y-8077834D01*
X19304302Y-8037834D02*
X19264302Y-8077834D01*
X19264302Y-8537834D02*
X19304302Y-8577834D01*
X19304302Y-8537834D02*
X19264302Y-8577834D01*
X19264302Y-8787834D02*
X19304302Y-8827834D01*
X19304302Y-8787834D02*
X19264302Y-8827834D01*
X19264302Y-11437834D02*
X19304302Y-11477834D01*
X19304302Y-11437834D02*
X19264302Y-11477834D01*
X19264302Y-11937834D02*
X19304302Y-11977834D01*
X19304302Y-11937834D02*
X19264302Y-11977834D01*
X19264302Y-12187834D02*
X19304302Y-12227834D01*
X19304302Y-12187834D02*
X19264302Y-12227834D01*
X19264302Y-14837834D02*
X19304302Y-14877834D01*
X19304302Y-14837834D02*
X19264302Y-14877834D01*
X19317500Y-6925983D02*
X19357500Y-6965983D01*
X19357500Y-6925983D02*
X19317500Y-6965983D01*
X19317500Y-10325983D02*
X19357500Y-10365983D01*
X19357500Y-10325983D02*
X19317500Y-10365983D01*
X19317500Y-13725983D02*
X19357500Y-13765983D01*
X19357500Y-13725983D02*
X19317500Y-13765983D01*
X19347500Y-6185983D02*
X19387500Y-6225983D01*
X19387500Y-6185983D02*
X19347500Y-6225983D01*
X19347500Y-9585983D02*
X19387500Y-9625983D01*
X19387500Y-9585983D02*
X19347500Y-9625983D01*
X19347500Y-12985983D02*
X19387500Y-13025983D01*
X19387500Y-12985983D02*
X19347500Y-13025983D01*
X19397500Y-7005983D02*
X19437500Y-7045983D01*
X19437500Y-7005983D02*
X19397500Y-7045983D01*
X19397500Y-10405983D02*
X19437500Y-10445983D01*
X19437500Y-10405983D02*
X19397500Y-10445983D01*
X19397500Y-13805983D02*
X19437500Y-13845983D01*
X19437500Y-13805983D02*
X19397500Y-13845983D01*
X19447500Y-7535983D02*
X19487500Y-7575983D01*
X19487500Y-7535983D02*
X19447500Y-7575983D01*
X19447500Y-10935983D02*
X19487500Y-10975983D01*
X19487500Y-10935983D02*
X19447500Y-10975983D01*
X19447500Y-14335983D02*
X19487500Y-14375983D01*
X19487500Y-14335983D02*
X19447500Y-14375983D01*
X19457500Y-7785983D02*
X19497500Y-7825983D01*
X19497500Y-7785983D02*
X19457500Y-7825983D01*
X19457500Y-11185983D02*
X19497500Y-11225983D01*
X19497500Y-11185983D02*
X19457500Y-11225983D01*
X19457500Y-14585983D02*
X19497500Y-14625983D01*
X19497500Y-14585983D02*
X19457500Y-14625983D01*
X19477500Y-6705983D02*
X19517500Y-6745983D01*
X19517500Y-6705983D02*
X19477500Y-6745983D01*
X19477500Y-6925983D02*
X19517500Y-6965983D01*
X19517500Y-6925983D02*
X19477500Y-6965983D01*
X19477500Y-7125983D02*
X19517500Y-7165983D01*
X19517500Y-7125983D02*
X19477500Y-7165983D01*
X19477500Y-10105983D02*
X19517500Y-10145983D01*
X19517500Y-10105983D02*
X19477500Y-10145983D01*
X19477500Y-10325983D02*
X19517500Y-10365983D01*
X19517500Y-10325983D02*
X19477500Y-10365983D01*
X19477500Y-10525983D02*
X19517500Y-10565983D01*
X19517500Y-10525983D02*
X19477500Y-10565983D01*
X19477500Y-13505983D02*
X19517500Y-13545983D01*
X19517500Y-13505983D02*
X19477500Y-13545983D01*
X19477500Y-13725983D02*
X19517500Y-13765983D01*
X19517500Y-13725983D02*
X19477500Y-13765983D01*
X19477500Y-13925983D02*
X19517500Y-13965983D01*
X19517500Y-13925983D02*
X19477500Y-13965983D01*
X19540698Y-5644132D02*
X19580698Y-5684132D01*
X19580698Y-5644132D02*
X19540698Y-5684132D01*
X19540698Y-9044132D02*
X19580698Y-9084132D01*
X19580698Y-9044132D02*
X19540698Y-9084132D01*
X19540698Y-12444132D02*
X19580698Y-12484132D01*
X19580698Y-12444132D02*
X19540698Y-12484132D01*
X19547500Y-5135983D02*
X19587500Y-5175983D01*
X19587500Y-5135983D02*
X19547500Y-5175983D01*
X19547500Y-5385983D02*
X19587500Y-5425983D01*
X19587500Y-5385983D02*
X19547500Y-5425983D01*
X19547500Y-8035983D02*
X19587500Y-8075983D01*
X19587500Y-8035983D02*
X19547500Y-8075983D01*
X19547500Y-8535983D02*
X19587500Y-8575983D01*
X19587500Y-8535983D02*
X19547500Y-8575983D01*
X19547500Y-8785983D02*
X19587500Y-8825983D01*
X19587500Y-8785983D02*
X19547500Y-8825983D01*
X19547500Y-11435983D02*
X19587500Y-11475983D01*
X19587500Y-11435983D02*
X19547500Y-11475983D01*
X19547500Y-11935983D02*
X19587500Y-11975983D01*
X19587500Y-11935983D02*
X19547500Y-11975983D01*
X19547500Y-12185983D02*
X19587500Y-12225983D01*
X19587500Y-12185983D02*
X19547500Y-12225983D01*
X19547500Y-14835983D02*
X19587500Y-14875983D01*
X19587500Y-14835983D02*
X19547500Y-14875983D01*
X19795767Y-5641363D02*
X19835767Y-5681363D01*
X19835767Y-5641363D02*
X19795767Y-5681363D01*
X19795767Y-9041363D02*
X19835767Y-9081363D01*
X19835767Y-9041363D02*
X19795767Y-9081363D01*
X19795767Y-12441363D02*
X19835767Y-12481363D01*
X19835767Y-12441363D02*
X19795767Y-12481363D01*
X19797500Y-6705983D02*
X19837500Y-6745983D01*
X19837500Y-6705983D02*
X19797500Y-6745983D01*
X19797500Y-6925983D02*
X19837500Y-6965983D01*
X19837500Y-6925983D02*
X19797500Y-6965983D01*
X19797500Y-7125983D02*
X19837500Y-7165983D01*
X19837500Y-7125983D02*
X19797500Y-7165983D01*
X19797500Y-10105983D02*
X19837500Y-10145983D01*
X19837500Y-10105983D02*
X19797500Y-10145983D01*
X19797500Y-10325983D02*
X19837500Y-10365983D01*
X19837500Y-10325983D02*
X19797500Y-10365983D01*
X19797500Y-10525983D02*
X19837500Y-10565983D01*
X19837500Y-10525983D02*
X19797500Y-10565983D01*
X19797500Y-13505983D02*
X19837500Y-13545983D01*
X19837500Y-13505983D02*
X19797500Y-13545983D01*
X19797500Y-13725983D02*
X19837500Y-13765983D01*
X19837500Y-13725983D02*
X19797500Y-13765983D01*
X19797500Y-13925983D02*
X19837500Y-13965983D01*
X19837500Y-13925983D02*
X19797500Y-13965983D01*
X19802569Y-5133214D02*
X19842569Y-5173214D01*
X19842569Y-5133214D02*
X19802569Y-5173214D01*
X19802569Y-5383214D02*
X19842569Y-5423214D01*
X19842569Y-5383214D02*
X19802569Y-5423214D01*
X19802569Y-8033214D02*
X19842569Y-8073214D01*
X19842569Y-8033214D02*
X19802569Y-8073214D01*
X19802569Y-8533214D02*
X19842569Y-8573214D01*
X19842569Y-8533214D02*
X19802569Y-8573214D01*
X19802569Y-8783214D02*
X19842569Y-8823214D01*
X19842569Y-8783214D02*
X19802569Y-8823214D01*
X19802569Y-11433214D02*
X19842569Y-11473214D01*
X19842569Y-11433214D02*
X19802569Y-11473214D01*
X19802569Y-11933214D02*
X19842569Y-11973214D01*
X19842569Y-11933214D02*
X19802569Y-11973214D01*
X19802569Y-12183214D02*
X19842569Y-12223214D01*
X19842569Y-12183214D02*
X19802569Y-12223214D01*
X19802569Y-14833214D02*
X19842569Y-14873214D01*
X19842569Y-14833214D02*
X19802569Y-14873214D01*
X20040698Y-5644132D02*
X20080698Y-5684132D01*
X20080698Y-5644132D02*
X20040698Y-5684132D01*
X20040698Y-9044132D02*
X20080698Y-9084132D01*
X20080698Y-9044132D02*
X20040698Y-9084132D01*
X20040698Y-12444132D02*
X20080698Y-12484132D01*
X20080698Y-12444132D02*
X20040698Y-12484132D01*
X20047500Y-5135983D02*
X20087500Y-5175983D01*
X20087500Y-5135983D02*
X20047500Y-5175983D01*
X20047500Y-5385983D02*
X20087500Y-5425983D01*
X20087500Y-5385983D02*
X20047500Y-5425983D01*
X20047500Y-8035983D02*
X20087500Y-8075983D01*
X20087500Y-8035983D02*
X20047500Y-8075983D01*
X20047500Y-8535983D02*
X20087500Y-8575983D01*
X20087500Y-8535983D02*
X20047500Y-8575983D01*
X20047500Y-8785983D02*
X20087500Y-8825983D01*
X20087500Y-8785983D02*
X20047500Y-8825983D01*
X20047500Y-11435983D02*
X20087500Y-11475983D01*
X20087500Y-11435983D02*
X20047500Y-11475983D01*
X20047500Y-11935983D02*
X20087500Y-11975983D01*
X20087500Y-11935983D02*
X20047500Y-11975983D01*
X20047500Y-12185983D02*
X20087500Y-12225983D01*
X20087500Y-12185983D02*
X20047500Y-12225983D01*
X20047500Y-14835983D02*
X20087500Y-14875983D01*
X20087500Y-14835983D02*
X20047500Y-14875983D01*
X20097500Y-6705983D02*
X20137500Y-6745983D01*
X20137500Y-6705983D02*
X20097500Y-6745983D01*
X20097500Y-6925983D02*
X20137500Y-6965983D01*
X20137500Y-6925983D02*
X20097500Y-6965983D01*
X20097500Y-7125983D02*
X20137500Y-7165983D01*
X20137500Y-7125983D02*
X20097500Y-7165983D01*
X20097500Y-10105983D02*
X20137500Y-10145983D01*
X20137500Y-10105983D02*
X20097500Y-10145983D01*
X20097500Y-10325983D02*
X20137500Y-10365983D01*
X20137500Y-10325983D02*
X20097500Y-10365983D01*
X20097500Y-10525983D02*
X20137500Y-10565983D01*
X20137500Y-10525983D02*
X20097500Y-10565983D01*
X20097500Y-13505983D02*
X20137500Y-13545983D01*
X20137500Y-13505983D02*
X20097500Y-13545983D01*
X20097500Y-13725983D02*
X20137500Y-13765983D01*
X20137500Y-13725983D02*
X20097500Y-13765983D01*
X20097500Y-13925983D02*
X20137500Y-13965983D01*
X20137500Y-13925983D02*
X20097500Y-13965983D01*
X20107500Y-6575983D02*
X20147500Y-6615983D01*
X20147500Y-6575983D02*
X20107500Y-6615983D01*
X20107500Y-9975983D02*
X20147500Y-10015983D01*
X20147500Y-9975983D02*
X20107500Y-10015983D01*
X20107500Y-13375983D02*
X20147500Y-13415983D01*
X20147500Y-13375983D02*
X20107500Y-13415983D01*
X20290698Y-5644132D02*
X20330698Y-5684132D01*
X20330698Y-5644132D02*
X20290698Y-5684132D01*
X20290698Y-9044132D02*
X20330698Y-9084132D01*
X20330698Y-9044132D02*
X20290698Y-9084132D01*
X20290698Y-12444132D02*
X20330698Y-12484132D01*
X20330698Y-12444132D02*
X20290698Y-12484132D01*
X20297500Y-5135983D02*
X20337500Y-5175983D01*
X20337500Y-5135983D02*
X20297500Y-5175983D01*
X20297500Y-5385983D02*
X20337500Y-5425983D01*
X20337500Y-5385983D02*
X20297500Y-5425983D01*
X20297500Y-6405983D02*
X20337500Y-6445983D01*
X20337500Y-6405983D02*
X20297500Y-6445983D01*
X20297500Y-6985983D02*
X20337500Y-7025983D01*
X20337500Y-6985983D02*
X20297500Y-7025983D01*
X20297500Y-7285983D02*
X20337500Y-7325983D01*
X20337500Y-7285983D02*
X20297500Y-7325983D01*
X20297500Y-7535983D02*
X20337500Y-7575983D01*
X20337500Y-7535983D02*
X20297500Y-7575983D01*
X20297500Y-8035983D02*
X20337500Y-8075983D01*
X20337500Y-8035983D02*
X20297500Y-8075983D01*
X20297500Y-8535983D02*
X20337500Y-8575983D01*
X20337500Y-8535983D02*
X20297500Y-8575983D01*
X20297500Y-8785983D02*
X20337500Y-8825983D01*
X20337500Y-8785983D02*
X20297500Y-8825983D01*
X20297500Y-9805983D02*
X20337500Y-9845983D01*
X20337500Y-9805983D02*
X20297500Y-9845983D01*
X20297500Y-10385983D02*
X20337500Y-10425983D01*
X20337500Y-10385983D02*
X20297500Y-10425983D01*
X20297500Y-10685983D02*
X20337500Y-10725983D01*
X20337500Y-10685983D02*
X20297500Y-10725983D01*
X20297500Y-10935983D02*
X20337500Y-10975983D01*
X20337500Y-10935983D02*
X20297500Y-10975983D01*
X20297500Y-11435983D02*
X20337500Y-11475983D01*
X20337500Y-11435983D02*
X20297500Y-11475983D01*
X20297500Y-11935983D02*
X20337500Y-11975983D01*
X20337500Y-11935983D02*
X20297500Y-11975983D01*
X20297500Y-12185983D02*
X20337500Y-12225983D01*
X20337500Y-12185983D02*
X20297500Y-12225983D01*
X20297500Y-13205983D02*
X20337500Y-13245983D01*
X20337500Y-13205983D02*
X20297500Y-13245983D01*
X20297500Y-13785983D02*
X20337500Y-13825983D01*
X20337500Y-13785983D02*
X20297500Y-13825983D01*
X20297500Y-14085983D02*
X20337500Y-14125983D01*
X20337500Y-14085983D02*
X20297500Y-14125983D01*
X20297500Y-14335983D02*
X20337500Y-14375983D01*
X20337500Y-14335983D02*
X20297500Y-14375983D01*
X20297500Y-14835983D02*
X20337500Y-14875983D01*
X20337500Y-14835983D02*
X20297500Y-14875983D01*
X20302569Y-6683214D02*
X20342569Y-6723214D01*
X20342569Y-6683214D02*
X20302569Y-6723214D01*
X20302569Y-7783214D02*
X20342569Y-7823214D01*
X20342569Y-7783214D02*
X20302569Y-7823214D01*
X20302569Y-10083214D02*
X20342569Y-10123214D01*
X20342569Y-10083214D02*
X20302569Y-10123214D01*
X20302569Y-11183214D02*
X20342569Y-11223214D01*
X20342569Y-11183214D02*
X20302569Y-11223214D01*
X20302569Y-13483214D02*
X20342569Y-13523214D01*
X20342569Y-13483214D02*
X20302569Y-13523214D01*
X20302569Y-14583214D02*
X20342569Y-14623214D01*
X20342569Y-14583214D02*
X20302569Y-14623214D01*
D13*
X12177500Y-6855983D02*
G75*
G03*
X12177500Y-6855983I-60000J0D01*
G01*
X12177500Y-10255983D02*
G75*
G03*
X12177500Y-10255983I-60000J0D01*
G01*
X12177500Y-13655983D02*
G75*
G03*
X12177500Y-13655983I-60000J0D01*
G01*
X15577500Y-6855983D02*
G75*
G03*
X15577500Y-6855983I-60000J0D01*
G01*
X15577500Y-10255983D02*
G75*
G03*
X15577500Y-10255983I-60000J0D01*
G01*
X15577500Y-13655983D02*
G75*
G03*
X15577500Y-13655983I-60000J0D01*
G01*
X18977500Y-6855983D02*
G75*
G03*
X18977500Y-6855983I-60000J0D01*
G01*
X18977500Y-10255983D02*
G75*
G03*
X18977500Y-10255983I-60000J0D01*
G01*
X18977500Y-13655983D02*
G75*
G03*
X18977500Y-13655983I-60000J0D01*
G01*
D14*
X11000000Y-8210000D02*
X11000000Y-8390000D01*
X10910000Y-8300000D02*
X11090000Y-8300000D01*
D11*
X10590000Y-8380000D02*
X11410000Y-8380000D01*
X10590000Y-8220000D02*
X11410000Y-8220000D01*
X11410000Y-8380000D02*
G75*
G03*
X11410000Y-8220000I0J80000D01*
G01*
X10590000Y-8220000D02*
G75*
G03*
X10590000Y-8380000I0J-80000D01*
G01*
D14*
X11000000Y-11610000D02*
X11000000Y-11790000D01*
X10910000Y-11700000D02*
X11090000Y-11700000D01*
D11*
X10590000Y-11780000D02*
X11410000Y-11780000D01*
X10590000Y-11620000D02*
X11410000Y-11620000D01*
X11410000Y-11780000D02*
G75*
G03*
X11410000Y-11620000I0J80000D01*
G01*
X10590000Y-11620000D02*
G75*
G03*
X10590000Y-11780000I0J-80000D01*
G01*
D14*
X12400000Y-8210000D02*
X12400000Y-8390000D01*
X12310000Y-8300000D02*
X12490000Y-8300000D01*
D11*
X12810000Y-8220000D02*
X11990000Y-8220000D01*
X12810000Y-8380000D02*
X11990000Y-8380000D01*
X11990000Y-8220000D02*
G75*
G03*
X11990000Y-8380000I0J-80000D01*
G01*
X12810000Y-8380000D02*
G75*
G03*
X12810000Y-8220000I0J80000D01*
G01*
D14*
X12400000Y-11610000D02*
X12400000Y-11790000D01*
X12310000Y-11700000D02*
X12490000Y-11700000D01*
D11*
X12810000Y-11620000D02*
X11990000Y-11620000D01*
X12810000Y-11780000D02*
X11990000Y-11780000D01*
X11990000Y-11620000D02*
G75*
G03*
X11990000Y-11780000I0J-80000D01*
G01*
X12810000Y-11780000D02*
G75*
G03*
X12810000Y-11620000I0J80000D01*
G01*
D14*
X13800000Y-5410000D02*
X13800000Y-5590000D01*
X13710000Y-5500000D02*
X13890000Y-5500000D01*
D11*
X13880000Y-5910000D02*
X13880000Y-5090000D01*
X13720000Y-5910000D02*
X13720000Y-5090000D01*
X13880000Y-5090000D02*
G75*
G03*
X13720000Y-5090000I-80000J0D01*
G01*
X13720000Y-5910000D02*
G75*
G03*
X13880000Y-5910000I80000J0D01*
G01*
D14*
X13800000Y-6810000D02*
X13800000Y-6990000D01*
X13710000Y-6900000D02*
X13890000Y-6900000D01*
D11*
X13720000Y-6490000D02*
X13720000Y-7310000D01*
X13880000Y-6490000D02*
X13880000Y-7310000D01*
X13720000Y-7310000D02*
G75*
G03*
X13880000Y-7310000I80000J0D01*
G01*
X13880000Y-6490000D02*
G75*
G03*
X13720000Y-6490000I-80000J0D01*
G01*
D14*
X13800000Y-8210000D02*
X13800000Y-8390000D01*
X13710000Y-8300000D02*
X13890000Y-8300000D01*
D11*
X14210000Y-8220000D02*
X13390000Y-8220000D01*
X14210000Y-8380000D02*
X13390000Y-8380000D01*
X13390000Y-8220000D02*
G75*
G03*
X13390000Y-8380000I0J-80000D01*
G01*
X14210000Y-8380000D02*
G75*
G03*
X14210000Y-8220000I0J80000D01*
G01*
D14*
X13800000Y-8210000D02*
X13800000Y-8390000D01*
X13710000Y-8300000D02*
X13890000Y-8300000D01*
D11*
X13880000Y-8710000D02*
X13880000Y-7890000D01*
X13720000Y-8710000D02*
X13720000Y-7890000D01*
X13880000Y-7890000D02*
G75*
G03*
X13720000Y-7890000I-80000J0D01*
G01*
X13720000Y-8710000D02*
G75*
G03*
X13880000Y-8710000I80000J0D01*
G01*
D14*
X13800000Y-9910000D02*
X13800000Y-10090000D01*
X13710000Y-10000000D02*
X13890000Y-10000000D01*
D11*
X13720000Y-9590000D02*
X13720000Y-10410000D01*
X13880000Y-9590000D02*
X13880000Y-10410000D01*
X13720000Y-10410000D02*
G75*
G03*
X13880000Y-10410000I80000J0D01*
G01*
X13880000Y-9590000D02*
G75*
G03*
X13720000Y-9590000I-80000J0D01*
G01*
D14*
X13800000Y-11610000D02*
X13800000Y-11790000D01*
X13710000Y-11700000D02*
X13890000Y-11700000D01*
D11*
X13880000Y-12110000D02*
X13880000Y-11290000D01*
X13720000Y-12110000D02*
X13720000Y-11290000D01*
X13880000Y-11290000D02*
G75*
G03*
X13720000Y-11290000I-80000J0D01*
G01*
X13720000Y-12110000D02*
G75*
G03*
X13880000Y-12110000I80000J0D01*
G01*
D14*
X13800000Y-11610000D02*
X13800000Y-11790000D01*
X13710000Y-11700000D02*
X13890000Y-11700000D01*
D11*
X14210000Y-11620000D02*
X13390000Y-11620000D01*
X14210000Y-11780000D02*
X13390000Y-11780000D01*
X13390000Y-11620000D02*
G75*
G03*
X13390000Y-11780000I0J-80000D01*
G01*
X14210000Y-11780000D02*
G75*
G03*
X14210000Y-11620000I0J80000D01*
G01*
D14*
X13800000Y-13010000D02*
X13800000Y-13190000D01*
X13710000Y-13100000D02*
X13890000Y-13100000D01*
D11*
X13720000Y-12690000D02*
X13720000Y-13510000D01*
X13880000Y-12690000D02*
X13880000Y-13510000D01*
X13720000Y-13510000D02*
G75*
G03*
X13880000Y-13510000I80000J0D01*
G01*
X13880000Y-12690000D02*
G75*
G03*
X13720000Y-12690000I-80000J0D01*
G01*
D14*
X13800000Y-14410000D02*
X13800000Y-14590000D01*
X13710000Y-14500000D02*
X13890000Y-14500000D01*
D11*
X13880000Y-14910000D02*
X13880000Y-14090000D01*
X13720000Y-14910000D02*
X13720000Y-14090000D01*
X13880000Y-14090000D02*
G75*
G03*
X13720000Y-14090000I-80000J0D01*
G01*
X13720000Y-14910000D02*
G75*
G03*
X13880000Y-14910000I80000J0D01*
G01*
D14*
X15500000Y-8210000D02*
X15500000Y-8390000D01*
X15410000Y-8300000D02*
X15590000Y-8300000D01*
D11*
X15910000Y-8220000D02*
X15090000Y-8220000D01*
X15910000Y-8380000D02*
X15090000Y-8380000D01*
X15090000Y-8220000D02*
G75*
G03*
X15090000Y-8380000I0J-80000D01*
G01*
X15910000Y-8380000D02*
G75*
G03*
X15910000Y-8220000I0J80000D01*
G01*
D14*
X15500000Y-11610000D02*
X15500000Y-11790000D01*
X15410000Y-11700000D02*
X15590000Y-11700000D01*
D11*
X15910000Y-11620000D02*
X15090000Y-11620000D01*
X15910000Y-11780000D02*
X15090000Y-11780000D01*
X15090000Y-11620000D02*
G75*
G03*
X15090000Y-11780000I0J-80000D01*
G01*
X15910000Y-11780000D02*
G75*
G03*
X15910000Y-11620000I0J80000D01*
G01*
D14*
X17200000Y-5410000D02*
X17200000Y-5590000D01*
X17110000Y-5500000D02*
X17290000Y-5500000D01*
D11*
X17280000Y-5910000D02*
X17280000Y-5090000D01*
X17120000Y-5910000D02*
X17120000Y-5090000D01*
X17280000Y-5090000D02*
G75*
G03*
X17120000Y-5090000I-80000J0D01*
G01*
X17120000Y-5910000D02*
G75*
G03*
X17280000Y-5910000I80000J0D01*
G01*
D14*
X17200000Y-6710000D02*
X17200000Y-6890000D01*
X17110000Y-6800000D02*
X17290000Y-6800000D01*
D11*
X17120000Y-6390000D02*
X17120000Y-7210000D01*
X17280000Y-6390000D02*
X17280000Y-7210000D01*
X17120000Y-7210000D02*
G75*
G03*
X17280000Y-7210000I80000J0D01*
G01*
X17280000Y-6390000D02*
G75*
G03*
X17120000Y-6390000I-80000J0D01*
G01*
D14*
X17200000Y-8210000D02*
X17200000Y-8390000D01*
X17110000Y-8300000D02*
X17290000Y-8300000D01*
D11*
X17610000Y-8220000D02*
X16790000Y-8220000D01*
X17610000Y-8380000D02*
X16790000Y-8380000D01*
X16790000Y-8220000D02*
G75*
G03*
X16790000Y-8380000I0J-80000D01*
G01*
X17610000Y-8380000D02*
G75*
G03*
X17610000Y-8220000I0J80000D01*
G01*
D14*
X17200000Y-8210000D02*
X17200000Y-8390000D01*
X17110000Y-8300000D02*
X17290000Y-8300000D01*
D11*
X17280000Y-8710000D02*
X17280000Y-7890000D01*
X17120000Y-8710000D02*
X17120000Y-7890000D01*
X17280000Y-7890000D02*
G75*
G03*
X17120000Y-7890000I-80000J0D01*
G01*
X17120000Y-8710000D02*
G75*
G03*
X17280000Y-8710000I80000J0D01*
G01*
D14*
X17200000Y-10010000D02*
X17200000Y-10190000D01*
X17110000Y-10100000D02*
X17290000Y-10100000D01*
D11*
X17120000Y-9690000D02*
X17120000Y-10510000D01*
X17280000Y-9690000D02*
X17280000Y-10510000D01*
X17120000Y-10510000D02*
G75*
G03*
X17280000Y-10510000I80000J0D01*
G01*
X17280000Y-9690000D02*
G75*
G03*
X17120000Y-9690000I-80000J0D01*
G01*
D14*
X17200000Y-11610000D02*
X17200000Y-11790000D01*
X17110000Y-11700000D02*
X17290000Y-11700000D01*
D11*
X17280000Y-12110000D02*
X17280000Y-11290000D01*
X17120000Y-12110000D02*
X17120000Y-11290000D01*
X17280000Y-11290000D02*
G75*
G03*
X17120000Y-11290000I-80000J0D01*
G01*
X17120000Y-12110000D02*
G75*
G03*
X17280000Y-12110000I80000J0D01*
G01*
D14*
X17200000Y-11610000D02*
X17200000Y-11790000D01*
X17110000Y-11700000D02*
X17290000Y-11700000D01*
D11*
X17610000Y-11620000D02*
X16790000Y-11620000D01*
X17610000Y-11780000D02*
X16790000Y-11780000D01*
X16790000Y-11620000D02*
G75*
G03*
X16790000Y-11780000I0J-80000D01*
G01*
X17610000Y-11780000D02*
G75*
G03*
X17610000Y-11620000I0J80000D01*
G01*
D14*
X17200000Y-13010000D02*
X17200000Y-13190000D01*
X17110000Y-13100000D02*
X17290000Y-13100000D01*
D11*
X17120000Y-12690000D02*
X17120000Y-13510000D01*
X17280000Y-12690000D02*
X17280000Y-13510000D01*
X17120000Y-13510000D02*
G75*
G03*
X17280000Y-13510000I80000J0D01*
G01*
X17280000Y-12690000D02*
G75*
G03*
X17120000Y-12690000I-80000J0D01*
G01*
D14*
X17200000Y-14410000D02*
X17200000Y-14590000D01*
X17110000Y-14500000D02*
X17290000Y-14500000D01*
D11*
X17280000Y-14910000D02*
X17280000Y-14090000D01*
X17120000Y-14910000D02*
X17120000Y-14090000D01*
X17280000Y-14090000D02*
G75*
G03*
X17120000Y-14090000I-80000J0D01*
G01*
X17120000Y-14910000D02*
G75*
G03*
X17280000Y-14910000I80000J0D01*
G01*
D14*
X18600000Y-8210000D02*
X18600000Y-8390000D01*
X18510000Y-8300000D02*
X18690000Y-8300000D01*
D11*
X19010000Y-8220000D02*
X18190000Y-8220000D01*
X19010000Y-8380000D02*
X18190000Y-8380000D01*
X18190000Y-8220000D02*
G75*
G03*
X18190000Y-8380000I0J-80000D01*
G01*
X19010000Y-8380000D02*
G75*
G03*
X19010000Y-8220000I0J80000D01*
G01*
D14*
X18600000Y-11610000D02*
X18600000Y-11790000D01*
X18510000Y-11700000D02*
X18690000Y-11700000D01*
D11*
X19010000Y-11620000D02*
X18190000Y-11620000D01*
X19010000Y-11780000D02*
X18190000Y-11780000D01*
X18190000Y-11620000D02*
G75*
G03*
X18190000Y-11780000I0J-80000D01*
G01*
X19010000Y-11780000D02*
G75*
G03*
X19010000Y-11620000I0J80000D01*
G01*
D14*
X20000000Y-8210000D02*
X20000000Y-8390000D01*
X19910000Y-8300000D02*
X20090000Y-8300000D01*
D11*
X19590000Y-8380000D02*
X20410000Y-8380000D01*
X19590000Y-8220000D02*
X20410000Y-8220000D01*
X20410000Y-8380000D02*
G75*
G03*
X20410000Y-8220000I0J80000D01*
G01*
X19590000Y-8220000D02*
G75*
G03*
X19590000Y-8380000I0J-80000D01*
G01*
D14*
X20000000Y-11610000D02*
X20000000Y-11790000D01*
X19910000Y-11700000D02*
X20090000Y-11700000D01*
D11*
X19590000Y-11780000D02*
X20410000Y-11780000D01*
X19590000Y-11620000D02*
X20410000Y-11620000D01*
X20410000Y-11780000D02*
G75*
G03*
X20410000Y-11620000I0J80000D01*
G01*
X19590000Y-11620000D02*
G75*
G03*
X19590000Y-11780000I0J-80000D01*
G01*
X10772619Y-15318959D02*
X10772619Y-15118959D01*
X10820238Y-15118959D01*
X10848810Y-15128483D01*
X10867857Y-15147531D01*
X10877381Y-15166578D01*
X10886905Y-15204673D01*
X10886905Y-15233245D01*
X10877381Y-15271340D01*
X10867857Y-15290388D01*
X10848810Y-15309435D01*
X10820238Y-15318959D01*
X10772619Y-15318959D01*
X10972619Y-15318959D02*
X10972619Y-15185626D01*
X10972619Y-15223721D02*
X10982143Y-15204673D01*
X10991667Y-15195150D01*
X11010714Y-15185626D01*
X11029762Y-15185626D01*
X11096429Y-15318959D02*
X11096429Y-15185626D01*
X11096429Y-15118959D02*
X11086905Y-15128483D01*
X11096429Y-15138007D01*
X11105952Y-15128483D01*
X11096429Y-15118959D01*
X11096429Y-15138007D01*
X11220238Y-15318959D02*
X11201190Y-15309435D01*
X11191667Y-15290388D01*
X11191667Y-15118959D01*
X11325000Y-15318959D02*
X11305952Y-15309435D01*
X11296428Y-15290388D01*
X11296428Y-15118959D01*
X11553571Y-15318959D02*
X11553571Y-15118959D01*
X11620238Y-15261816D01*
X11686905Y-15118959D01*
X11686905Y-15318959D01*
X11867857Y-15318959D02*
X11867857Y-15214197D01*
X11858333Y-15195150D01*
X11839286Y-15185626D01*
X11801190Y-15185626D01*
X11782143Y-15195150D01*
X11867857Y-15309435D02*
X11848809Y-15318959D01*
X11801190Y-15318959D01*
X11782143Y-15309435D01*
X11772619Y-15290388D01*
X11772619Y-15271340D01*
X11782143Y-15252293D01*
X11801190Y-15242769D01*
X11848809Y-15242769D01*
X11867857Y-15233245D01*
X11963095Y-15185626D02*
X11963095Y-15385626D01*
X11963095Y-15195150D02*
X11982143Y-15185626D01*
X12020238Y-15185626D01*
X12039286Y-15195150D01*
X12048809Y-15204673D01*
X12058333Y-15223721D01*
X12058333Y-15280864D01*
X12048809Y-15299912D01*
X12039286Y-15309435D01*
X12020238Y-15318959D01*
X11982143Y-15318959D01*
X11963095Y-15309435D01*
X12144048Y-15299912D02*
X12153571Y-15309435D01*
X12144048Y-15318959D01*
X12134524Y-15309435D01*
X12144048Y-15299912D01*
X12144048Y-15318959D01*
X12144048Y-15195150D02*
X12153571Y-15204673D01*
X12144048Y-15214197D01*
X12134524Y-15204673D01*
X12144048Y-15195150D01*
X12144048Y-15214197D01*
D12*
X10475000Y-15628483D02*
X10515000Y-15668483D01*
X10515000Y-15628483D02*
X10475000Y-15668483D01*
D11*
X10810714Y-15538959D02*
X10829762Y-15538959D01*
X10848810Y-15548483D01*
X10858333Y-15558007D01*
X10867857Y-15577054D01*
X10877381Y-15615150D01*
X10877381Y-15662769D01*
X10867857Y-15700864D01*
X10858333Y-15719912D01*
X10848810Y-15729435D01*
X10829762Y-15738959D01*
X10810714Y-15738959D01*
X10791667Y-15729435D01*
X10782143Y-15719912D01*
X10772619Y-15700864D01*
X10763095Y-15662769D01*
X10763095Y-15615150D01*
X10772619Y-15577054D01*
X10782143Y-15558007D01*
X10791667Y-15548483D01*
X10810714Y-15538959D01*
X10963095Y-15719912D02*
X10972619Y-15729435D01*
X10963095Y-15738959D01*
X10953571Y-15729435D01*
X10963095Y-15719912D01*
X10963095Y-15738959D01*
X11144048Y-15605626D02*
X11144048Y-15738959D01*
X11096429Y-15529435D02*
X11048810Y-15672293D01*
X11172619Y-15672293D01*
X11286905Y-15538959D02*
X11305952Y-15538959D01*
X11325000Y-15548483D01*
X11334524Y-15558007D01*
X11344048Y-15577054D01*
X11353571Y-15615150D01*
X11353571Y-15662769D01*
X11344048Y-15700864D01*
X11334524Y-15719912D01*
X11325000Y-15729435D01*
X11305952Y-15738959D01*
X11286905Y-15738959D01*
X11267857Y-15729435D01*
X11258333Y-15719912D01*
X11248809Y-15700864D01*
X11239286Y-15662769D01*
X11239286Y-15615150D01*
X11248809Y-15577054D01*
X11258333Y-15558007D01*
X11267857Y-15548483D01*
X11286905Y-15538959D01*
X11477381Y-15538959D02*
X11496428Y-15538959D01*
X11515476Y-15548483D01*
X11525000Y-15558007D01*
X11534524Y-15577054D01*
X11544048Y-15615150D01*
X11544048Y-15662769D01*
X11534524Y-15700864D01*
X11525000Y-15719912D01*
X11515476Y-15729435D01*
X11496428Y-15738959D01*
X11477381Y-15738959D01*
X11458333Y-15729435D01*
X11448809Y-15719912D01*
X11439286Y-15700864D01*
X11429762Y-15662769D01*
X11429762Y-15615150D01*
X11439286Y-15577054D01*
X11448809Y-15558007D01*
X11458333Y-15548483D01*
X11477381Y-15538959D01*
X11629762Y-15738959D02*
X11629762Y-15605626D01*
X11629762Y-15624673D02*
X11639286Y-15615150D01*
X11658333Y-15605626D01*
X11686905Y-15605626D01*
X11705952Y-15615150D01*
X11715476Y-15634197D01*
X11715476Y-15738959D01*
X11715476Y-15634197D02*
X11725000Y-15615150D01*
X11744048Y-15605626D01*
X11772619Y-15605626D01*
X11791667Y-15615150D01*
X11801190Y-15634197D01*
X11801190Y-15738959D01*
X11896428Y-15738959D02*
X11896428Y-15605626D01*
X11896428Y-15624673D02*
X11905952Y-15615150D01*
X11925000Y-15605626D01*
X11953571Y-15605626D01*
X11972619Y-15615150D01*
X11982143Y-15634197D01*
X11982143Y-15738959D01*
X11982143Y-15634197D02*
X11991667Y-15615150D01*
X12010714Y-15605626D01*
X12039286Y-15605626D01*
X12058333Y-15615150D01*
X12067857Y-15634197D01*
X12067857Y-15738959D01*
X12458333Y-15529435D02*
X12286905Y-15786578D01*
X12715476Y-15538959D02*
X12734524Y-15538959D01*
X12753571Y-15548483D01*
X12763095Y-15558007D01*
X12772619Y-15577054D01*
X12782143Y-15615150D01*
X12782143Y-15662769D01*
X12772619Y-15700864D01*
X12763095Y-15719912D01*
X12753571Y-15729435D01*
X12734524Y-15738959D01*
X12715476Y-15738959D01*
X12696428Y-15729435D01*
X12686905Y-15719912D01*
X12677381Y-15700864D01*
X12667857Y-15662769D01*
X12667857Y-15615150D01*
X12677381Y-15577054D01*
X12686905Y-15558007D01*
X12696428Y-15548483D01*
X12715476Y-15538959D01*
X12867857Y-15719912D02*
X12877381Y-15729435D01*
X12867857Y-15738959D01*
X12858333Y-15729435D01*
X12867857Y-15719912D01*
X12867857Y-15738959D01*
X13001190Y-15538959D02*
X13020238Y-15538959D01*
X13039286Y-15548483D01*
X13048809Y-15558007D01*
X13058333Y-15577054D01*
X13067857Y-15615150D01*
X13067857Y-15662769D01*
X13058333Y-15700864D01*
X13048809Y-15719912D01*
X13039286Y-15729435D01*
X13020238Y-15738959D01*
X13001190Y-15738959D01*
X12982143Y-15729435D01*
X12972619Y-15719912D01*
X12963095Y-15700864D01*
X12953571Y-15662769D01*
X12953571Y-15615150D01*
X12963095Y-15577054D01*
X12972619Y-15558007D01*
X12982143Y-15548483D01*
X13001190Y-15538959D01*
X13258333Y-15738959D02*
X13144048Y-15738959D01*
X13201190Y-15738959D02*
X13201190Y-15538959D01*
X13182143Y-15567531D01*
X13163095Y-15586578D01*
X13144048Y-15596102D01*
X13439286Y-15538959D02*
X13344048Y-15538959D01*
X13334524Y-15634197D01*
X13344048Y-15624673D01*
X13363095Y-15615150D01*
X13410714Y-15615150D01*
X13429762Y-15624673D01*
X13439286Y-15634197D01*
X13448809Y-15653245D01*
X13448809Y-15700864D01*
X13439286Y-15719912D01*
X13429762Y-15729435D01*
X13410714Y-15738959D01*
X13363095Y-15738959D01*
X13344048Y-15729435D01*
X13334524Y-15719912D01*
X13515476Y-15538959D02*
X13648809Y-15538959D01*
X13563095Y-15738959D01*
X13715476Y-15538959D02*
X13715476Y-15577054D01*
X13791667Y-15538959D02*
X13791667Y-15577054D01*
X14086905Y-15815150D02*
X14077381Y-15805626D01*
X14058333Y-15777054D01*
X14048809Y-15758007D01*
X14039286Y-15729435D01*
X14029762Y-15681816D01*
X14029762Y-15643721D01*
X14039286Y-15596102D01*
X14048809Y-15567531D01*
X14058333Y-15548483D01*
X14077381Y-15519912D01*
X14086905Y-15510388D01*
X14267857Y-15738959D02*
X14153571Y-15738959D01*
X14210714Y-15738959D02*
X14210714Y-15538959D01*
X14191667Y-15567531D01*
X14172619Y-15586578D01*
X14153571Y-15596102D01*
X14391667Y-15538959D02*
X14410714Y-15538959D01*
X14429762Y-15548483D01*
X14439286Y-15558007D01*
X14448809Y-15577054D01*
X14458333Y-15615150D01*
X14458333Y-15662769D01*
X14448809Y-15700864D01*
X14439286Y-15719912D01*
X14429762Y-15729435D01*
X14410714Y-15738959D01*
X14391667Y-15738959D01*
X14372619Y-15729435D01*
X14363095Y-15719912D01*
X14353571Y-15700864D01*
X14344048Y-15662769D01*
X14344048Y-15615150D01*
X14353571Y-15577054D01*
X14363095Y-15558007D01*
X14372619Y-15548483D01*
X14391667Y-15538959D01*
X14525000Y-15538959D02*
X14658333Y-15538959D01*
X14572619Y-15738959D01*
X14839286Y-15738959D02*
X14725000Y-15738959D01*
X14782143Y-15738959D02*
X14782143Y-15538959D01*
X14763095Y-15567531D01*
X14744048Y-15586578D01*
X14725000Y-15596102D01*
X15077381Y-15738959D02*
X15077381Y-15538959D01*
X15163095Y-15738959D02*
X15163095Y-15634197D01*
X15153571Y-15615150D01*
X15134524Y-15605626D01*
X15105952Y-15605626D01*
X15086905Y-15615150D01*
X15077381Y-15624673D01*
X15286905Y-15738959D02*
X15267857Y-15729435D01*
X15258333Y-15719912D01*
X15248809Y-15700864D01*
X15248809Y-15643721D01*
X15258333Y-15624673D01*
X15267857Y-15615150D01*
X15286905Y-15605626D01*
X15315476Y-15605626D01*
X15334524Y-15615150D01*
X15344048Y-15624673D01*
X15353571Y-15643721D01*
X15353571Y-15700864D01*
X15344048Y-15719912D01*
X15334524Y-15729435D01*
X15315476Y-15738959D01*
X15286905Y-15738959D01*
X15467857Y-15738959D02*
X15448809Y-15729435D01*
X15439286Y-15710388D01*
X15439286Y-15538959D01*
X15620238Y-15729435D02*
X15601190Y-15738959D01*
X15563095Y-15738959D01*
X15544048Y-15729435D01*
X15534524Y-15710388D01*
X15534524Y-15634197D01*
X15544048Y-15615150D01*
X15563095Y-15605626D01*
X15601190Y-15605626D01*
X15620238Y-15615150D01*
X15629762Y-15634197D01*
X15629762Y-15653245D01*
X15534524Y-15672293D01*
X15705952Y-15729435D02*
X15725000Y-15738959D01*
X15763095Y-15738959D01*
X15782143Y-15729435D01*
X15791667Y-15710388D01*
X15791667Y-15700864D01*
X15782143Y-15681816D01*
X15763095Y-15672293D01*
X15734524Y-15672293D01*
X15715476Y-15662769D01*
X15705952Y-15643721D01*
X15705952Y-15634197D01*
X15715476Y-15615150D01*
X15734524Y-15605626D01*
X15763095Y-15605626D01*
X15782143Y-15615150D01*
X15858333Y-15815150D02*
X15867857Y-15805626D01*
X15886905Y-15777054D01*
X15896428Y-15758007D01*
X15905952Y-15729435D01*
X15915476Y-15681816D01*
X15915476Y-15643721D01*
X15905952Y-15596102D01*
X15896428Y-15567531D01*
X15886905Y-15548483D01*
X15867857Y-15519912D01*
X15858333Y-15510388D01*
D13*
X10515000Y-15912483D02*
G75*
G03*
X10515000Y-15912483I-60000J0D01*
G01*
D11*
X10877381Y-16002959D02*
X10763095Y-16002959D01*
X10820238Y-16002959D02*
X10820238Y-15802959D01*
X10801190Y-15831531D01*
X10782143Y-15850578D01*
X10763095Y-15860102D01*
X10963095Y-15983912D02*
X10972619Y-15993435D01*
X10963095Y-16002959D01*
X10953571Y-15993435D01*
X10963095Y-15983912D01*
X10963095Y-16002959D01*
X11048810Y-15822007D02*
X11058333Y-15812483D01*
X11077381Y-15802959D01*
X11125000Y-15802959D01*
X11144048Y-15812483D01*
X11153571Y-15822007D01*
X11163095Y-15841054D01*
X11163095Y-15860102D01*
X11153571Y-15888673D01*
X11039286Y-16002959D01*
X11163095Y-16002959D01*
X11286905Y-15802959D02*
X11305952Y-15802959D01*
X11325000Y-15812483D01*
X11334524Y-15822007D01*
X11344048Y-15841054D01*
X11353571Y-15879150D01*
X11353571Y-15926769D01*
X11344048Y-15964864D01*
X11334524Y-15983912D01*
X11325000Y-15993435D01*
X11305952Y-16002959D01*
X11286905Y-16002959D01*
X11267857Y-15993435D01*
X11258333Y-15983912D01*
X11248809Y-15964864D01*
X11239286Y-15926769D01*
X11239286Y-15879150D01*
X11248809Y-15841054D01*
X11258333Y-15822007D01*
X11267857Y-15812483D01*
X11286905Y-15802959D01*
X11477381Y-15802959D02*
X11496428Y-15802959D01*
X11515476Y-15812483D01*
X11525000Y-15822007D01*
X11534524Y-15841054D01*
X11544048Y-15879150D01*
X11544048Y-15926769D01*
X11534524Y-15964864D01*
X11525000Y-15983912D01*
X11515476Y-15993435D01*
X11496428Y-16002959D01*
X11477381Y-16002959D01*
X11458333Y-15993435D01*
X11448809Y-15983912D01*
X11439286Y-15964864D01*
X11429762Y-15926769D01*
X11429762Y-15879150D01*
X11439286Y-15841054D01*
X11448809Y-15822007D01*
X11458333Y-15812483D01*
X11477381Y-15802959D01*
X11629762Y-16002959D02*
X11629762Y-15869626D01*
X11629762Y-15888673D02*
X11639286Y-15879150D01*
X11658333Y-15869626D01*
X11686905Y-15869626D01*
X11705952Y-15879150D01*
X11715476Y-15898197D01*
X11715476Y-16002959D01*
X11715476Y-15898197D02*
X11725000Y-15879150D01*
X11744048Y-15869626D01*
X11772619Y-15869626D01*
X11791667Y-15879150D01*
X11801190Y-15898197D01*
X11801190Y-16002959D01*
X11896428Y-16002959D02*
X11896428Y-15869626D01*
X11896428Y-15888673D02*
X11905952Y-15879150D01*
X11925000Y-15869626D01*
X11953571Y-15869626D01*
X11972619Y-15879150D01*
X11982143Y-15898197D01*
X11982143Y-16002959D01*
X11982143Y-15898197D02*
X11991667Y-15879150D01*
X12010714Y-15869626D01*
X12039286Y-15869626D01*
X12058333Y-15879150D01*
X12067857Y-15898197D01*
X12067857Y-16002959D01*
X12458333Y-15793435D02*
X12286905Y-16050578D01*
X12715476Y-15802959D02*
X12734524Y-15802959D01*
X12753571Y-15812483D01*
X12763095Y-15822007D01*
X12772619Y-15841054D01*
X12782143Y-15879150D01*
X12782143Y-15926769D01*
X12772619Y-15964864D01*
X12763095Y-15983912D01*
X12753571Y-15993435D01*
X12734524Y-16002959D01*
X12715476Y-16002959D01*
X12696428Y-15993435D01*
X12686905Y-15983912D01*
X12677381Y-15964864D01*
X12667857Y-15926769D01*
X12667857Y-15879150D01*
X12677381Y-15841054D01*
X12686905Y-15822007D01*
X12696428Y-15812483D01*
X12715476Y-15802959D01*
X12867857Y-15983912D02*
X12877381Y-15993435D01*
X12867857Y-16002959D01*
X12858333Y-15993435D01*
X12867857Y-15983912D01*
X12867857Y-16002959D01*
X13001190Y-15802959D02*
X13020238Y-15802959D01*
X13039286Y-15812483D01*
X13048809Y-15822007D01*
X13058333Y-15841054D01*
X13067857Y-15879150D01*
X13067857Y-15926769D01*
X13058333Y-15964864D01*
X13048809Y-15983912D01*
X13039286Y-15993435D01*
X13020238Y-16002959D01*
X13001190Y-16002959D01*
X12982143Y-15993435D01*
X12972619Y-15983912D01*
X12963095Y-15964864D01*
X12953571Y-15926769D01*
X12953571Y-15879150D01*
X12963095Y-15841054D01*
X12972619Y-15822007D01*
X12982143Y-15812483D01*
X13001190Y-15802959D01*
X13239286Y-15869626D02*
X13239286Y-16002959D01*
X13191667Y-15793435D02*
X13144048Y-15936293D01*
X13267857Y-15936293D01*
X13325000Y-15802959D02*
X13458333Y-15802959D01*
X13372619Y-16002959D01*
X13525000Y-15822007D02*
X13534524Y-15812483D01*
X13553571Y-15802959D01*
X13601190Y-15802959D01*
X13620238Y-15812483D01*
X13629762Y-15822007D01*
X13639286Y-15841054D01*
X13639286Y-15860102D01*
X13629762Y-15888673D01*
X13515476Y-16002959D01*
X13639286Y-16002959D01*
X13715476Y-15802959D02*
X13715476Y-15841054D01*
X13791667Y-15802959D02*
X13791667Y-15841054D01*
X14086905Y-16079150D02*
X14077381Y-16069626D01*
X14058333Y-16041054D01*
X14048809Y-16022007D01*
X14039286Y-15993435D01*
X14029762Y-15945816D01*
X14029762Y-15907721D01*
X14039286Y-15860102D01*
X14048809Y-15831531D01*
X14058333Y-15812483D01*
X14077381Y-15783912D01*
X14086905Y-15774388D01*
X14172619Y-16002959D02*
X14210714Y-16002959D01*
X14229762Y-15993435D01*
X14239286Y-15983912D01*
X14258333Y-15955340D01*
X14267857Y-15917245D01*
X14267857Y-15841054D01*
X14258333Y-15822007D01*
X14248809Y-15812483D01*
X14229762Y-15802959D01*
X14191667Y-15802959D01*
X14172619Y-15812483D01*
X14163095Y-15822007D01*
X14153571Y-15841054D01*
X14153571Y-15888673D01*
X14163095Y-15907721D01*
X14172619Y-15917245D01*
X14191667Y-15926769D01*
X14229762Y-15926769D01*
X14248809Y-15917245D01*
X14258333Y-15907721D01*
X14267857Y-15888673D01*
X14505952Y-16002959D02*
X14505952Y-15802959D01*
X14591667Y-16002959D02*
X14591667Y-15898197D01*
X14582143Y-15879150D01*
X14563095Y-15869626D01*
X14534524Y-15869626D01*
X14515476Y-15879150D01*
X14505952Y-15888673D01*
X14715476Y-16002959D02*
X14696428Y-15993435D01*
X14686905Y-15983912D01*
X14677381Y-15964864D01*
X14677381Y-15907721D01*
X14686905Y-15888673D01*
X14696428Y-15879150D01*
X14715476Y-15869626D01*
X14744048Y-15869626D01*
X14763095Y-15879150D01*
X14772619Y-15888673D01*
X14782143Y-15907721D01*
X14782143Y-15964864D01*
X14772619Y-15983912D01*
X14763095Y-15993435D01*
X14744048Y-16002959D01*
X14715476Y-16002959D01*
X14896428Y-16002959D02*
X14877381Y-15993435D01*
X14867857Y-15974388D01*
X14867857Y-15802959D01*
X15048809Y-15993435D02*
X15029762Y-16002959D01*
X14991667Y-16002959D01*
X14972619Y-15993435D01*
X14963095Y-15974388D01*
X14963095Y-15898197D01*
X14972619Y-15879150D01*
X14991667Y-15869626D01*
X15029762Y-15869626D01*
X15048809Y-15879150D01*
X15058333Y-15898197D01*
X15058333Y-15917245D01*
X14963095Y-15936293D01*
X15134524Y-15993435D02*
X15153571Y-16002959D01*
X15191667Y-16002959D01*
X15210714Y-15993435D01*
X15220238Y-15974388D01*
X15220238Y-15964864D01*
X15210714Y-15945816D01*
X15191667Y-15936293D01*
X15163095Y-15936293D01*
X15144048Y-15926769D01*
X15134524Y-15907721D01*
X15134524Y-15898197D01*
X15144048Y-15879150D01*
X15163095Y-15869626D01*
X15191667Y-15869626D01*
X15210714Y-15879150D01*
X15286905Y-16079150D02*
X15296428Y-16069626D01*
X15315476Y-16041054D01*
X15325000Y-16022007D01*
X15334524Y-15993435D01*
X15344048Y-15945816D01*
X15344048Y-15907721D01*
X15334524Y-15860102D01*
X15325000Y-15831531D01*
X15315476Y-15812483D01*
X15296428Y-15783912D01*
X15286905Y-15774388D01*
D14*
X10425000Y-16086483D02*
X10425000Y-16266483D01*
X10335000Y-16176483D02*
X10515000Y-16176483D01*
D11*
X10877381Y-16266959D02*
X10763095Y-16266959D01*
X10820238Y-16266959D02*
X10820238Y-16066959D01*
X10801190Y-16095531D01*
X10782143Y-16114578D01*
X10763095Y-16124102D01*
X10963095Y-16247912D02*
X10972619Y-16257435D01*
X10963095Y-16266959D01*
X10953571Y-16257435D01*
X10963095Y-16247912D01*
X10963095Y-16266959D01*
X11086905Y-16152673D02*
X11067857Y-16143150D01*
X11058333Y-16133626D01*
X11048810Y-16114578D01*
X11048810Y-16105054D01*
X11058333Y-16086007D01*
X11067857Y-16076483D01*
X11086905Y-16066959D01*
X11125000Y-16066959D01*
X11144048Y-16076483D01*
X11153571Y-16086007D01*
X11163095Y-16105054D01*
X11163095Y-16114578D01*
X11153571Y-16133626D01*
X11144048Y-16143150D01*
X11125000Y-16152673D01*
X11086905Y-16152673D01*
X11067857Y-16162197D01*
X11058333Y-16171721D01*
X11048810Y-16190769D01*
X11048810Y-16228864D01*
X11058333Y-16247912D01*
X11067857Y-16257435D01*
X11086905Y-16266959D01*
X11125000Y-16266959D01*
X11144048Y-16257435D01*
X11153571Y-16247912D01*
X11163095Y-16228864D01*
X11163095Y-16190769D01*
X11153571Y-16171721D01*
X11144048Y-16162197D01*
X11125000Y-16152673D01*
X11286905Y-16066959D02*
X11305952Y-16066959D01*
X11325000Y-16076483D01*
X11334524Y-16086007D01*
X11344048Y-16105054D01*
X11353571Y-16143150D01*
X11353571Y-16190769D01*
X11344048Y-16228864D01*
X11334524Y-16247912D01*
X11325000Y-16257435D01*
X11305952Y-16266959D01*
X11286905Y-16266959D01*
X11267857Y-16257435D01*
X11258333Y-16247912D01*
X11248809Y-16228864D01*
X11239286Y-16190769D01*
X11239286Y-16143150D01*
X11248809Y-16105054D01*
X11258333Y-16086007D01*
X11267857Y-16076483D01*
X11286905Y-16066959D01*
X11477381Y-16066959D02*
X11496428Y-16066959D01*
X11515476Y-16076483D01*
X11525000Y-16086007D01*
X11534524Y-16105054D01*
X11544048Y-16143150D01*
X11544048Y-16190769D01*
X11534524Y-16228864D01*
X11525000Y-16247912D01*
X11515476Y-16257435D01*
X11496428Y-16266959D01*
X11477381Y-16266959D01*
X11458333Y-16257435D01*
X11448809Y-16247912D01*
X11439286Y-16228864D01*
X11429762Y-16190769D01*
X11429762Y-16143150D01*
X11439286Y-16105054D01*
X11448809Y-16086007D01*
X11458333Y-16076483D01*
X11477381Y-16066959D01*
X11629762Y-16266959D02*
X11629762Y-16133626D01*
X11629762Y-16152673D02*
X11639286Y-16143150D01*
X11658333Y-16133626D01*
X11686905Y-16133626D01*
X11705952Y-16143150D01*
X11715476Y-16162197D01*
X11715476Y-16266959D01*
X11715476Y-16162197D02*
X11725000Y-16143150D01*
X11744048Y-16133626D01*
X11772619Y-16133626D01*
X11791667Y-16143150D01*
X11801190Y-16162197D01*
X11801190Y-16266959D01*
X11896428Y-16266959D02*
X11896428Y-16133626D01*
X11896428Y-16152673D02*
X11905952Y-16143150D01*
X11925000Y-16133626D01*
X11953571Y-16133626D01*
X11972619Y-16143150D01*
X11982143Y-16162197D01*
X11982143Y-16266959D01*
X11982143Y-16162197D02*
X11991667Y-16143150D01*
X12010714Y-16133626D01*
X12039286Y-16133626D01*
X12058333Y-16143150D01*
X12067857Y-16162197D01*
X12067857Y-16266959D01*
X12458333Y-16057435D02*
X12286905Y-16314578D01*
X12715476Y-16066959D02*
X12734524Y-16066959D01*
X12753571Y-16076483D01*
X12763095Y-16086007D01*
X12772619Y-16105054D01*
X12782143Y-16143150D01*
X12782143Y-16190769D01*
X12772619Y-16228864D01*
X12763095Y-16247912D01*
X12753571Y-16257435D01*
X12734524Y-16266959D01*
X12715476Y-16266959D01*
X12696428Y-16257435D01*
X12686905Y-16247912D01*
X12677381Y-16228864D01*
X12667857Y-16190769D01*
X12667857Y-16143150D01*
X12677381Y-16105054D01*
X12686905Y-16086007D01*
X12696428Y-16076483D01*
X12715476Y-16066959D01*
X12867857Y-16247912D02*
X12877381Y-16257435D01*
X12867857Y-16266959D01*
X12858333Y-16257435D01*
X12867857Y-16247912D01*
X12867857Y-16266959D01*
X13001190Y-16066959D02*
X13020238Y-16066959D01*
X13039286Y-16076483D01*
X13048809Y-16086007D01*
X13058333Y-16105054D01*
X13067857Y-16143150D01*
X13067857Y-16190769D01*
X13058333Y-16228864D01*
X13048809Y-16247912D01*
X13039286Y-16257435D01*
X13020238Y-16266959D01*
X13001190Y-16266959D01*
X12982143Y-16257435D01*
X12972619Y-16247912D01*
X12963095Y-16228864D01*
X12953571Y-16190769D01*
X12953571Y-16143150D01*
X12963095Y-16105054D01*
X12972619Y-16086007D01*
X12982143Y-16076483D01*
X13001190Y-16066959D01*
X13134524Y-16066959D02*
X13267857Y-16066959D01*
X13182143Y-16266959D01*
X13382143Y-16066959D02*
X13401190Y-16066959D01*
X13420238Y-16076483D01*
X13429762Y-16086007D01*
X13439286Y-16105054D01*
X13448809Y-16143150D01*
X13448809Y-16190769D01*
X13439286Y-16228864D01*
X13429762Y-16247912D01*
X13420238Y-16257435D01*
X13401190Y-16266959D01*
X13382143Y-16266959D01*
X13363095Y-16257435D01*
X13353571Y-16247912D01*
X13344048Y-16228864D01*
X13334524Y-16190769D01*
X13334524Y-16143150D01*
X13344048Y-16105054D01*
X13353571Y-16086007D01*
X13363095Y-16076483D01*
X13382143Y-16066959D01*
X13544048Y-16266959D02*
X13582143Y-16266959D01*
X13601190Y-16257435D01*
X13610714Y-16247912D01*
X13629762Y-16219340D01*
X13639286Y-16181245D01*
X13639286Y-16105054D01*
X13629762Y-16086007D01*
X13620238Y-16076483D01*
X13601190Y-16066959D01*
X13563095Y-16066959D01*
X13544048Y-16076483D01*
X13534524Y-16086007D01*
X13525000Y-16105054D01*
X13525000Y-16152673D01*
X13534524Y-16171721D01*
X13544048Y-16181245D01*
X13563095Y-16190769D01*
X13601190Y-16190769D01*
X13620238Y-16181245D01*
X13629762Y-16171721D01*
X13639286Y-16152673D01*
X13715476Y-16066959D02*
X13715476Y-16105054D01*
X13791667Y-16066959D02*
X13791667Y-16105054D01*
X14086905Y-16343150D02*
X14077381Y-16333626D01*
X14058333Y-16305054D01*
X14048809Y-16286007D01*
X14039286Y-16257435D01*
X14029762Y-16209816D01*
X14029762Y-16171721D01*
X14039286Y-16124102D01*
X14048809Y-16095531D01*
X14058333Y-16076483D01*
X14077381Y-16047912D01*
X14086905Y-16038388D01*
X14201190Y-16066959D02*
X14220238Y-16066959D01*
X14239286Y-16076483D01*
X14248809Y-16086007D01*
X14258333Y-16105054D01*
X14267857Y-16143150D01*
X14267857Y-16190769D01*
X14258333Y-16228864D01*
X14248809Y-16247912D01*
X14239286Y-16257435D01*
X14220238Y-16266959D01*
X14201190Y-16266959D01*
X14182143Y-16257435D01*
X14172619Y-16247912D01*
X14163095Y-16228864D01*
X14153571Y-16190769D01*
X14153571Y-16143150D01*
X14163095Y-16105054D01*
X14172619Y-16086007D01*
X14182143Y-16076483D01*
X14201190Y-16066959D01*
X14505952Y-16266959D02*
X14505952Y-16066959D01*
X14591667Y-16266959D02*
X14591667Y-16162197D01*
X14582143Y-16143150D01*
X14563095Y-16133626D01*
X14534524Y-16133626D01*
X14515476Y-16143150D01*
X14505952Y-16152673D01*
X14715476Y-16266959D02*
X14696428Y-16257435D01*
X14686905Y-16247912D01*
X14677381Y-16228864D01*
X14677381Y-16171721D01*
X14686905Y-16152673D01*
X14696428Y-16143150D01*
X14715476Y-16133626D01*
X14744048Y-16133626D01*
X14763095Y-16143150D01*
X14772619Y-16152673D01*
X14782143Y-16171721D01*
X14782143Y-16228864D01*
X14772619Y-16247912D01*
X14763095Y-16257435D01*
X14744048Y-16266959D01*
X14715476Y-16266959D01*
X14896428Y-16266959D02*
X14877381Y-16257435D01*
X14867857Y-16238388D01*
X14867857Y-16066959D01*
X15048809Y-16257435D02*
X15029762Y-16266959D01*
X14991667Y-16266959D01*
X14972619Y-16257435D01*
X14963095Y-16238388D01*
X14963095Y-16162197D01*
X14972619Y-16143150D01*
X14991667Y-16133626D01*
X15029762Y-16133626D01*
X15048809Y-16143150D01*
X15058333Y-16162197D01*
X15058333Y-16181245D01*
X14963095Y-16200293D01*
X15134524Y-16257435D02*
X15153571Y-16266959D01*
X15191667Y-16266959D01*
X15210714Y-16257435D01*
X15220238Y-16238388D01*
X15220238Y-16228864D01*
X15210714Y-16209816D01*
X15191667Y-16200293D01*
X15163095Y-16200293D01*
X15144048Y-16190769D01*
X15134524Y-16171721D01*
X15134524Y-16162197D01*
X15144048Y-16143150D01*
X15163095Y-16133626D01*
X15191667Y-16133626D01*
X15210714Y-16143150D01*
X15458333Y-16190769D02*
X15610714Y-16190769D01*
X15534524Y-16266959D02*
X15534524Y-16114578D01*
X15848809Y-16086007D02*
X15858333Y-16076483D01*
X15877381Y-16066959D01*
X15925000Y-16066959D01*
X15944048Y-16076483D01*
X15953571Y-16086007D01*
X15963095Y-16105054D01*
X15963095Y-16124102D01*
X15953571Y-16152673D01*
X15839286Y-16266959D01*
X15963095Y-16266959D01*
X16077381Y-16152673D02*
X16058333Y-16143150D01*
X16048809Y-16133626D01*
X16039286Y-16114578D01*
X16039286Y-16105054D01*
X16048809Y-16086007D01*
X16058333Y-16076483D01*
X16077381Y-16066959D01*
X16115476Y-16066959D01*
X16134524Y-16076483D01*
X16144048Y-16086007D01*
X16153571Y-16105054D01*
X16153571Y-16114578D01*
X16144048Y-16133626D01*
X16134524Y-16143150D01*
X16115476Y-16152673D01*
X16077381Y-16152673D01*
X16058333Y-16162197D01*
X16048809Y-16171721D01*
X16039286Y-16190769D01*
X16039286Y-16228864D01*
X16048809Y-16247912D01*
X16058333Y-16257435D01*
X16077381Y-16266959D01*
X16115476Y-16266959D01*
X16134524Y-16257435D01*
X16144048Y-16247912D01*
X16153571Y-16228864D01*
X16153571Y-16190769D01*
X16144048Y-16171721D01*
X16134524Y-16162197D01*
X16115476Y-16152673D01*
X16382143Y-16257435D02*
X16401190Y-16266959D01*
X16439286Y-16266959D01*
X16458333Y-16257435D01*
X16467857Y-16238388D01*
X16467857Y-16228864D01*
X16458333Y-16209816D01*
X16439286Y-16200293D01*
X16410714Y-16200293D01*
X16391667Y-16190769D01*
X16382143Y-16171721D01*
X16382143Y-16162197D01*
X16391667Y-16143150D01*
X16410714Y-16133626D01*
X16439286Y-16133626D01*
X16458333Y-16143150D01*
X16582143Y-16266959D02*
X16563095Y-16257435D01*
X16553571Y-16238388D01*
X16553571Y-16066959D01*
X16686905Y-16266959D02*
X16667857Y-16257435D01*
X16658333Y-16247912D01*
X16648809Y-16228864D01*
X16648809Y-16171721D01*
X16658333Y-16152673D01*
X16667857Y-16143150D01*
X16686905Y-16133626D01*
X16715476Y-16133626D01*
X16734524Y-16143150D01*
X16744048Y-16152673D01*
X16753571Y-16171721D01*
X16753571Y-16228864D01*
X16744048Y-16247912D01*
X16734524Y-16257435D01*
X16715476Y-16266959D01*
X16686905Y-16266959D01*
X16810714Y-16133626D02*
X16886905Y-16133626D01*
X16839286Y-16066959D02*
X16839286Y-16238388D01*
X16848810Y-16257435D01*
X16867857Y-16266959D01*
X16886905Y-16266959D01*
X16944048Y-16257435D02*
X16963095Y-16266959D01*
X17001190Y-16266959D01*
X17020238Y-16257435D01*
X17029762Y-16238388D01*
X17029762Y-16228864D01*
X17020238Y-16209816D01*
X17001190Y-16200293D01*
X16972619Y-16200293D01*
X16953571Y-16190769D01*
X16944048Y-16171721D01*
X16944048Y-16162197D01*
X16953571Y-16143150D01*
X16972619Y-16133626D01*
X17001190Y-16133626D01*
X17020238Y-16143150D01*
X17096429Y-16343150D02*
X17105952Y-16333626D01*
X17125000Y-16305054D01*
X17134524Y-16286007D01*
X17144048Y-16257435D01*
X17153571Y-16209816D01*
X17153571Y-16171721D01*
X17144048Y-16124102D01*
X17134524Y-16095531D01*
X17125000Y-16076483D01*
X17105952Y-16047912D01*
X17096429Y-16038388D01*
X17458333Y-16343150D02*
X17448810Y-16333626D01*
X17429762Y-16305054D01*
X17420238Y-16286007D01*
X17410714Y-16257435D01*
X17401190Y-16209816D01*
X17401190Y-16171721D01*
X17410714Y-16124102D01*
X17420238Y-16095531D01*
X17429762Y-16076483D01*
X17448810Y-16047912D01*
X17458333Y-16038388D01*
X17534524Y-16133626D02*
X17534524Y-16266959D01*
X17534524Y-16152673D02*
X17544048Y-16143150D01*
X17563095Y-16133626D01*
X17591667Y-16133626D01*
X17610714Y-16143150D01*
X17620238Y-16162197D01*
X17620238Y-16266959D01*
X17744048Y-16266959D02*
X17725000Y-16257435D01*
X17715476Y-16247912D01*
X17705952Y-16228864D01*
X17705952Y-16171721D01*
X17715476Y-16152673D01*
X17725000Y-16143150D01*
X17744048Y-16133626D01*
X17772619Y-16133626D01*
X17791667Y-16143150D01*
X17801190Y-16152673D01*
X17810714Y-16171721D01*
X17810714Y-16228864D01*
X17801190Y-16247912D01*
X17791667Y-16257435D01*
X17772619Y-16266959D01*
X17744048Y-16266959D01*
X17867857Y-16133626D02*
X17944048Y-16133626D01*
X17896429Y-16066959D02*
X17896429Y-16238388D01*
X17905952Y-16257435D01*
X17925000Y-16266959D01*
X17944048Y-16266959D01*
X18163095Y-16133626D02*
X18163095Y-16333626D01*
X18163095Y-16143150D02*
X18182143Y-16133626D01*
X18220238Y-16133626D01*
X18239286Y-16143150D01*
X18248810Y-16152673D01*
X18258333Y-16171721D01*
X18258333Y-16228864D01*
X18248810Y-16247912D01*
X18239286Y-16257435D01*
X18220238Y-16266959D01*
X18182143Y-16266959D01*
X18163095Y-16257435D01*
X18372619Y-16266959D02*
X18353571Y-16257435D01*
X18344048Y-16238388D01*
X18344048Y-16066959D01*
X18534524Y-16266959D02*
X18534524Y-16162197D01*
X18525000Y-16143150D01*
X18505952Y-16133626D01*
X18467857Y-16133626D01*
X18448810Y-16143150D01*
X18534524Y-16257435D02*
X18515476Y-16266959D01*
X18467857Y-16266959D01*
X18448810Y-16257435D01*
X18439286Y-16238388D01*
X18439286Y-16219340D01*
X18448810Y-16200293D01*
X18467857Y-16190769D01*
X18515476Y-16190769D01*
X18534524Y-16181245D01*
X18601190Y-16133626D02*
X18677381Y-16133626D01*
X18629762Y-16066959D02*
X18629762Y-16238388D01*
X18639286Y-16257435D01*
X18658333Y-16266959D01*
X18677381Y-16266959D01*
X18820238Y-16257435D02*
X18801190Y-16266959D01*
X18763095Y-16266959D01*
X18744048Y-16257435D01*
X18734524Y-16238388D01*
X18734524Y-16162197D01*
X18744048Y-16143150D01*
X18763095Y-16133626D01*
X18801190Y-16133626D01*
X18820238Y-16143150D01*
X18829762Y-16162197D01*
X18829762Y-16181245D01*
X18734524Y-16200293D01*
X19001190Y-16266959D02*
X19001190Y-16066959D01*
X19001190Y-16257435D02*
X18982143Y-16266959D01*
X18944048Y-16266959D01*
X18925000Y-16257435D01*
X18915476Y-16247912D01*
X18905952Y-16228864D01*
X18905952Y-16171721D01*
X18915476Y-16152673D01*
X18925000Y-16143150D01*
X18944048Y-16133626D01*
X18982143Y-16133626D01*
X19001190Y-16143150D01*
X19077381Y-16343150D02*
X19086905Y-16333626D01*
X19105952Y-16305054D01*
X19115476Y-16286007D01*
X19125000Y-16257435D01*
X19134524Y-16209816D01*
X19134524Y-16171721D01*
X19125000Y-16124102D01*
X19115476Y-16095531D01*
X19105952Y-16076483D01*
X19086905Y-16047912D01*
X19077381Y-16038388D01*
M02*
