M48
; DRILL file {KiCad (6.0.4)} date Thu Dec 29 00:07:27 2022
; FORMAT={-:-/ absolute / metric / decimal}
; #@! TF.CreationDate,2022-12-29T00:07:27+09:00
; #@! TF.GenerationSoftware,Kicad,Pcbnew,(6.0.4)
; #@! TF.FileFunction,MixedPlating,1,2
FMAT,2
METRIC
; #@! TA.AperFunction,Plated,PTH,ViaDrill
T1C0.400
; #@! TA.AperFunction,Plated,PTH,ComponentDrill
T2C1.200
; #@! TA.AperFunction,NonPlated,NPTH,ComponentDrill
T3C1.800
%
G90
G05
T1
X106.624Y-72.588
X106.624Y-75.588
X106.624Y-78.088
X106.624Y-106.588
X106.624Y-109.588
X106.624Y-112.088
X106.624Y-140.588
X106.624Y-143.588
X106.624Y-146.088
X106.675Y-51.56
X106.675Y-54.06
X106.675Y-64.06
X106.675Y-66.56
X106.675Y-69.56
X106.675Y-80.56
X106.675Y-85.56
X106.675Y-88.06
X106.675Y-98.06
X106.675Y-100.56
X106.675Y-103.56
X106.675Y-114.56
X106.675Y-119.56
X106.675Y-122.06
X106.675Y-132.06
X106.675Y-134.56
X106.675Y-137.56
X106.675Y-148.56
X108.792Y-72.606
X108.792Y-75.606
X108.792Y-78.106
X108.792Y-106.606
X108.792Y-109.606
X108.792Y-112.106
X108.792Y-140.606
X108.792Y-143.606
X108.792Y-146.106
X108.843Y-51.578
X108.843Y-54.078
X108.843Y-64.078
X108.843Y-66.578
X108.843Y-69.578
X108.843Y-80.578
X108.843Y-85.578
X108.843Y-88.078
X108.843Y-98.078
X108.843Y-100.578
X108.843Y-103.578
X108.843Y-114.578
X108.843Y-119.578
X108.843Y-122.078
X108.843Y-132.078
X108.843Y-134.578
X108.843Y-137.578
X108.843Y-148.578
X109.775Y-57.86
X109.775Y-91.86
X109.775Y-125.86
X110.375Y-61.86
X110.375Y-95.86
X110.375Y-129.86
X111.624Y-72.588
X111.624Y-75.588
X111.624Y-78.088
X111.624Y-106.588
X111.624Y-109.588
X111.624Y-112.088
X111.624Y-140.588
X111.624Y-143.588
X111.624Y-146.088
X111.675Y-51.56
X111.675Y-54.06
X111.675Y-64.06
X111.675Y-66.56
X111.675Y-69.56
X111.675Y-80.56
X111.675Y-85.56
X111.675Y-88.06
X111.675Y-98.06
X111.675Y-100.56
X111.675Y-103.56
X111.675Y-114.56
X111.675Y-119.56
X111.675Y-122.06
X111.675Y-132.06
X111.675Y-134.56
X111.675Y-137.56
X111.675Y-148.56
X114.175Y-72.56
X114.175Y-75.56
X114.175Y-78.06
X114.175Y-106.56
X114.175Y-109.56
X114.175Y-112.06
X114.175Y-140.56
X114.175Y-143.56
X114.175Y-146.06
X114.226Y-51.532
X114.226Y-54.032
X114.226Y-64.032
X114.226Y-66.532
X114.226Y-69.532
X114.226Y-80.532
X114.226Y-85.532
X114.226Y-88.032
X114.226Y-98.032
X114.226Y-100.532
X114.226Y-103.532
X114.226Y-114.532
X114.226Y-119.532
X114.226Y-122.032
X114.226Y-132.032
X114.226Y-134.532
X114.226Y-137.532
X114.226Y-148.532
X115.075Y-62.66
X115.075Y-96.66
X115.075Y-130.66
X116.792Y-72.606
X116.792Y-75.606
X116.792Y-78.106
X116.792Y-106.606
X116.792Y-109.606
X116.792Y-112.106
X116.792Y-140.606
X116.792Y-143.606
X116.792Y-146.106
X116.843Y-51.578
X116.843Y-54.078
X116.843Y-64.078
X116.843Y-66.578
X116.843Y-69.578
X116.843Y-80.578
X116.843Y-85.578
X116.843Y-88.078
X116.843Y-98.078
X116.843Y-100.578
X116.843Y-103.578
X116.843Y-114.578
X116.843Y-119.578
X116.843Y-122.078
X116.843Y-132.078
X116.843Y-134.578
X116.843Y-137.578
X116.843Y-148.578
X119.175Y-68.26
X119.175Y-102.26
X119.175Y-136.26
X119.375Y-69.46
X119.375Y-103.46
X119.375Y-137.46
X119.575Y-67.26
X119.575Y-101.26
X119.575Y-135.26
X119.624Y-72.588
X119.624Y-75.588
X119.624Y-78.088
X119.624Y-106.588
X119.624Y-109.588
X119.624Y-112.088
X119.624Y-140.588
X119.624Y-143.588
X119.624Y-146.088
X119.675Y-51.56
X119.675Y-54.06
X119.675Y-80.56
X119.675Y-85.56
X119.675Y-88.06
X119.675Y-114.56
X119.675Y-119.56
X119.675Y-122.06
X119.675Y-148.56
X119.775Y-57.46
X119.775Y-61.26
X119.775Y-64.06
X119.775Y-91.46
X119.775Y-95.26
X119.775Y-98.06
X119.775Y-125.46
X119.775Y-129.26
X119.775Y-132.06
X120.175Y-70.26
X120.175Y-104.26
X120.175Y-138.26
X120.575Y-66.66
X120.575Y-100.66
X120.575Y-134.66
X121.775Y-66.66
X121.775Y-70.46
X121.775Y-100.66
X121.775Y-104.46
X121.775Y-134.66
X121.775Y-138.46
X122.175Y-72.56
X122.175Y-75.56
X122.175Y-78.06
X122.175Y-106.56
X122.175Y-109.56
X122.175Y-112.06
X122.175Y-140.56
X122.175Y-143.56
X122.175Y-146.06
X122.226Y-51.532
X122.226Y-54.032
X122.226Y-80.532
X122.226Y-85.532
X122.226Y-88.032
X122.226Y-114.532
X122.226Y-119.532
X122.226Y-122.032
X122.226Y-148.532
X122.575Y-71.26
X122.575Y-105.26
X122.575Y-139.26
X122.775Y-66.86
X122.775Y-100.86
X122.775Y-134.86
X123.575Y-67.66
X123.575Y-72.26
X123.575Y-101.66
X123.575Y-106.26
X123.575Y-135.66
X123.575Y-140.26
X123.775Y-62.86
X123.775Y-96.86
X123.775Y-130.86
X124.375Y-68.66
X124.375Y-102.66
X124.375Y-136.66
X124.475Y-75.56
X124.475Y-109.56
X124.475Y-143.56
X124.575Y-78.06
X124.575Y-112.06
X124.575Y-146.06
X124.775Y-56.66
X124.775Y-90.66
X124.775Y-124.66
X124.843Y-51.578
X124.843Y-54.078
X124.843Y-80.578
X124.843Y-85.578
X124.843Y-88.078
X124.843Y-114.578
X124.843Y-119.578
X124.843Y-122.078
X124.843Y-148.578
X125.375Y-69.46
X125.375Y-103.46
X125.375Y-137.46
X125.675Y-62.06
X125.675Y-96.06
X125.675Y-130.06
X126.175Y-70.26
X126.175Y-104.26
X126.175Y-138.26
X126.675Y-75.56
X126.675Y-109.56
X126.675Y-143.56
X126.775Y-78.06
X126.775Y-112.06
X126.775Y-146.06
X126.975Y-67.26
X126.975Y-69.46
X126.975Y-71.46
X126.975Y-101.26
X126.975Y-103.46
X126.975Y-105.46
X126.975Y-135.26
X126.975Y-137.46
X126.975Y-139.46
X127.607Y-56.641
X127.607Y-90.641
X127.607Y-124.641
X127.675Y-51.56
X127.675Y-54.06
X127.675Y-80.56
X127.675Y-85.56
X127.675Y-88.06
X127.675Y-114.56
X127.675Y-119.56
X127.675Y-122.06
X127.675Y-148.56
X130.158Y-56.614
X130.158Y-90.614
X130.158Y-124.614
X130.175Y-67.26
X130.175Y-69.46
X130.175Y-71.46
X130.175Y-101.26
X130.175Y-103.46
X130.175Y-105.46
X130.175Y-135.26
X130.175Y-137.46
X130.175Y-139.46
X130.226Y-51.532
X130.226Y-54.032
X130.226Y-80.532
X130.226Y-85.532
X130.226Y-88.032
X130.226Y-114.532
X130.226Y-119.532
X130.226Y-122.032
X130.226Y-148.532
X132.607Y-56.641
X132.607Y-90.641
X132.607Y-124.641
X132.675Y-51.56
X132.675Y-54.06
X132.675Y-80.56
X132.675Y-85.56
X132.675Y-88.06
X132.675Y-114.56
X132.675Y-119.56
X132.675Y-122.06
X132.675Y-148.56
X133.175Y-67.26
X133.175Y-69.46
X133.175Y-71.46
X133.175Y-101.26
X133.175Y-103.46
X133.175Y-105.46
X133.175Y-135.26
X133.175Y-137.46
X133.175Y-139.46
X133.275Y-65.96
X133.275Y-99.96
X133.275Y-133.96
X135.107Y-56.641
X135.107Y-90.641
X135.107Y-124.641
X135.175Y-51.56
X135.175Y-54.06
X135.175Y-64.26
X135.175Y-70.06
X135.175Y-73.06
X135.175Y-75.56
X135.175Y-80.56
X135.175Y-85.56
X135.175Y-88.06
X135.175Y-98.26
X135.175Y-104.06
X135.175Y-107.06
X135.175Y-109.56
X135.175Y-114.56
X135.175Y-119.56
X135.175Y-122.06
X135.175Y-132.26
X135.175Y-138.06
X135.175Y-141.06
X135.175Y-143.56
X135.175Y-148.56
X135.226Y-67.032
X135.226Y-78.032
X135.226Y-101.032
X135.226Y-112.032
X135.226Y-135.032
X135.226Y-146.032
X140.624Y-72.588
X140.624Y-75.588
X140.624Y-78.088
X140.624Y-106.588
X140.624Y-109.588
X140.624Y-112.088
X140.624Y-140.588
X140.624Y-143.588
X140.624Y-146.088
X140.675Y-51.56
X140.675Y-54.06
X140.675Y-64.06
X140.675Y-66.56
X140.675Y-69.56
X140.675Y-80.56
X140.675Y-85.56
X140.675Y-88.06
X140.675Y-98.06
X140.675Y-100.56
X140.675Y-103.56
X140.675Y-114.56
X140.675Y-119.56
X140.675Y-122.06
X140.675Y-132.06
X140.675Y-134.56
X140.675Y-137.56
X140.675Y-148.56
X142.792Y-72.606
X142.792Y-75.606
X142.792Y-78.106
X142.792Y-106.606
X142.792Y-109.606
X142.792Y-112.106
X142.792Y-140.606
X142.792Y-143.606
X142.792Y-146.106
X142.843Y-51.578
X142.843Y-54.078
X142.843Y-64.078
X142.843Y-66.578
X142.843Y-69.578
X142.843Y-80.578
X142.843Y-85.578
X142.843Y-88.078
X142.843Y-98.078
X142.843Y-100.578
X142.843Y-103.578
X142.843Y-114.578
X142.843Y-119.578
X142.843Y-122.078
X142.843Y-132.078
X142.843Y-134.578
X142.843Y-137.578
X142.843Y-148.578
X143.775Y-57.86
X143.775Y-91.86
X143.775Y-125.86
X144.375Y-61.86
X144.375Y-95.86
X144.375Y-129.86
X145.624Y-72.588
X145.624Y-75.588
X145.624Y-78.088
X145.624Y-106.588
X145.624Y-109.588
X145.624Y-112.088
X145.624Y-140.588
X145.624Y-143.588
X145.624Y-146.088
X145.675Y-51.56
X145.675Y-54.06
X145.675Y-64.06
X145.675Y-66.56
X145.675Y-69.56
X145.675Y-80.56
X145.675Y-85.56
X145.675Y-88.06
X145.675Y-98.06
X145.675Y-100.56
X145.675Y-103.56
X145.675Y-114.56
X145.675Y-119.56
X145.675Y-122.06
X145.675Y-132.06
X145.675Y-134.56
X145.675Y-137.56
X145.675Y-148.56
X148.175Y-72.56
X148.175Y-75.56
X148.175Y-78.06
X148.175Y-106.56
X148.175Y-109.56
X148.175Y-112.06
X148.175Y-140.56
X148.175Y-143.56
X148.175Y-146.06
X148.226Y-51.532
X148.226Y-54.032
X148.226Y-64.032
X148.226Y-66.532
X148.226Y-69.532
X148.226Y-80.532
X148.226Y-85.532
X148.226Y-88.032
X148.226Y-98.032
X148.226Y-100.532
X148.226Y-103.532
X148.226Y-114.532
X148.226Y-119.532
X148.226Y-122.032
X148.226Y-132.032
X148.226Y-134.532
X148.226Y-137.532
X148.226Y-148.532
X149.075Y-62.66
X149.075Y-96.66
X149.075Y-130.66
X150.792Y-72.606
X150.792Y-75.606
X150.792Y-78.106
X150.792Y-106.606
X150.792Y-109.606
X150.792Y-112.106
X150.792Y-140.606
X150.792Y-143.606
X150.792Y-146.106
X150.843Y-51.578
X150.843Y-54.078
X150.843Y-64.078
X150.843Y-66.578
X150.843Y-69.578
X150.843Y-80.578
X150.843Y-85.578
X150.843Y-88.078
X150.843Y-98.078
X150.843Y-100.578
X150.843Y-103.578
X150.843Y-114.578
X150.843Y-119.578
X150.843Y-122.078
X150.843Y-132.078
X150.843Y-134.578
X150.843Y-137.578
X150.843Y-148.578
X153.175Y-68.26
X153.175Y-102.26
X153.175Y-136.26
X153.375Y-69.46
X153.375Y-103.46
X153.375Y-137.46
X153.575Y-67.26
X153.575Y-101.26
X153.575Y-135.26
X153.624Y-72.588
X153.624Y-75.588
X153.624Y-78.088
X153.624Y-106.588
X153.624Y-109.588
X153.624Y-112.088
X153.624Y-140.588
X153.624Y-143.588
X153.624Y-146.088
X153.675Y-51.56
X153.675Y-54.06
X153.675Y-80.56
X153.675Y-85.56
X153.675Y-88.06
X153.675Y-114.56
X153.675Y-119.56
X153.675Y-122.06
X153.675Y-148.56
X153.775Y-57.46
X153.775Y-61.26
X153.775Y-64.06
X153.775Y-91.46
X153.775Y-95.26
X153.775Y-98.06
X153.775Y-125.46
X153.775Y-129.26
X153.775Y-132.06
X154.175Y-70.26
X154.175Y-104.26
X154.175Y-138.26
X154.575Y-66.66
X154.575Y-100.66
X154.575Y-134.66
X155.775Y-66.66
X155.775Y-70.46
X155.775Y-100.66
X155.775Y-104.46
X155.775Y-134.66
X155.775Y-138.46
X156.175Y-72.56
X156.175Y-75.56
X156.175Y-78.06
X156.175Y-106.56
X156.175Y-109.56
X156.175Y-112.06
X156.175Y-140.56
X156.175Y-143.56
X156.175Y-146.06
X156.226Y-51.532
X156.226Y-54.032
X156.226Y-80.532
X156.226Y-85.532
X156.226Y-88.032
X156.226Y-114.532
X156.226Y-119.532
X156.226Y-122.032
X156.226Y-148.532
X156.575Y-71.26
X156.575Y-105.26
X156.575Y-139.26
X156.775Y-66.86
X156.775Y-100.86
X156.775Y-134.86
X157.575Y-67.66
X157.575Y-72.26
X157.575Y-101.66
X157.575Y-106.26
X157.575Y-135.66
X157.575Y-140.26
X157.775Y-62.86
X157.775Y-96.86
X157.775Y-130.86
X158.375Y-68.66
X158.375Y-102.66
X158.375Y-136.66
X158.475Y-75.56
X158.475Y-109.56
X158.475Y-143.56
X158.575Y-78.06
X158.575Y-112.06
X158.575Y-146.06
X158.775Y-56.66
X158.775Y-90.66
X158.775Y-124.66
X158.843Y-51.578
X158.843Y-54.078
X158.843Y-80.578
X158.843Y-85.578
X158.843Y-88.078
X158.843Y-114.578
X158.843Y-119.578
X158.843Y-122.078
X158.843Y-148.578
X159.375Y-69.46
X159.375Y-103.46
X159.375Y-137.46
X159.675Y-62.06
X159.675Y-96.06
X159.675Y-130.06
X160.175Y-70.26
X160.175Y-104.26
X160.175Y-138.26
X160.675Y-75.56
X160.675Y-109.56
X160.675Y-143.56
X160.775Y-78.06
X160.775Y-112.06
X160.775Y-146.06
X160.975Y-67.26
X160.975Y-69.46
X160.975Y-71.46
X160.975Y-101.26
X160.975Y-103.46
X160.975Y-105.46
X160.975Y-135.26
X160.975Y-137.46
X160.975Y-139.46
X161.607Y-56.641
X161.607Y-90.641
X161.607Y-124.641
X161.675Y-51.56
X161.675Y-54.06
X161.675Y-80.56
X161.675Y-85.56
X161.675Y-88.06
X161.675Y-114.56
X161.675Y-119.56
X161.675Y-122.06
X161.675Y-148.56
X164.158Y-56.614
X164.158Y-90.614
X164.158Y-124.614
X164.175Y-67.26
X164.175Y-69.46
X164.175Y-71.46
X164.175Y-101.26
X164.175Y-103.46
X164.175Y-105.46
X164.175Y-135.26
X164.175Y-137.46
X164.175Y-139.46
X164.226Y-51.532
X164.226Y-54.032
X164.226Y-80.532
X164.226Y-85.532
X164.226Y-88.032
X164.226Y-114.532
X164.226Y-119.532
X164.226Y-122.032
X164.226Y-148.532
X166.607Y-56.641
X166.607Y-90.641
X166.607Y-124.641
X166.675Y-51.56
X166.675Y-54.06
X166.675Y-80.56
X166.675Y-85.56
X166.675Y-88.06
X166.675Y-114.56
X166.675Y-119.56
X166.675Y-122.06
X166.675Y-148.56
X167.175Y-67.26
X167.175Y-69.46
X167.175Y-71.46
X167.175Y-101.26
X167.175Y-103.46
X167.175Y-105.46
X167.175Y-135.26
X167.175Y-137.46
X167.175Y-139.46
X167.275Y-65.96
X167.275Y-99.96
X167.275Y-133.96
X169.107Y-56.641
X169.107Y-90.641
X169.107Y-124.641
X169.175Y-51.56
X169.175Y-54.06
X169.175Y-64.26
X169.175Y-70.06
X169.175Y-73.06
X169.175Y-75.56
X169.175Y-80.56
X169.175Y-85.56
X169.175Y-88.06
X169.175Y-98.26
X169.175Y-104.06
X169.175Y-107.06
X169.175Y-109.56
X169.175Y-114.56
X169.175Y-119.56
X169.175Y-122.06
X169.175Y-132.26
X169.175Y-138.06
X169.175Y-141.06
X169.175Y-143.56
X169.175Y-148.56
X169.226Y-67.032
X169.226Y-78.032
X169.226Y-101.032
X169.226Y-112.032
X169.226Y-135.032
X169.226Y-146.032
X174.624Y-72.588
X174.624Y-75.588
X174.624Y-78.088
X174.624Y-106.588
X174.624Y-109.588
X174.624Y-112.088
X174.624Y-140.588
X174.624Y-143.588
X174.624Y-146.088
X174.675Y-51.56
X174.675Y-54.06
X174.675Y-64.06
X174.675Y-66.56
X174.675Y-69.56
X174.675Y-80.56
X174.675Y-85.56
X174.675Y-88.06
X174.675Y-98.06
X174.675Y-100.56
X174.675Y-103.56
X174.675Y-114.56
X174.675Y-119.56
X174.675Y-122.06
X174.675Y-132.06
X174.675Y-134.56
X174.675Y-137.56
X174.675Y-148.56
X176.792Y-72.606
X176.792Y-75.606
X176.792Y-78.106
X176.792Y-106.606
X176.792Y-109.606
X176.792Y-112.106
X176.792Y-140.606
X176.792Y-143.606
X176.792Y-146.106
X176.843Y-51.578
X176.843Y-54.078
X176.843Y-64.078
X176.843Y-66.578
X176.843Y-69.578
X176.843Y-80.578
X176.843Y-85.578
X176.843Y-88.078
X176.843Y-98.078
X176.843Y-100.578
X176.843Y-103.578
X176.843Y-114.578
X176.843Y-119.578
X176.843Y-122.078
X176.843Y-132.078
X176.843Y-134.578
X176.843Y-137.578
X176.843Y-148.578
X177.775Y-57.86
X177.775Y-91.86
X177.775Y-125.86
X178.375Y-61.86
X178.375Y-95.86
X178.375Y-129.86
X179.624Y-72.588
X179.624Y-75.588
X179.624Y-78.088
X179.624Y-106.588
X179.624Y-109.588
X179.624Y-112.088
X179.624Y-140.588
X179.624Y-143.588
X179.624Y-146.088
X179.675Y-51.56
X179.675Y-54.06
X179.675Y-64.06
X179.675Y-66.56
X179.675Y-69.56
X179.675Y-80.56
X179.675Y-85.56
X179.675Y-88.06
X179.675Y-98.06
X179.675Y-100.56
X179.675Y-103.56
X179.675Y-114.56
X179.675Y-119.56
X179.675Y-122.06
X179.675Y-132.06
X179.675Y-134.56
X179.675Y-137.56
X179.675Y-148.56
X182.175Y-72.56
X182.175Y-75.56
X182.175Y-78.06
X182.175Y-106.56
X182.175Y-109.56
X182.175Y-112.06
X182.175Y-140.56
X182.175Y-143.56
X182.175Y-146.06
X182.226Y-51.532
X182.226Y-54.032
X182.226Y-64.032
X182.226Y-66.532
X182.226Y-69.532
X182.226Y-80.532
X182.226Y-85.532
X182.226Y-88.032
X182.226Y-98.032
X182.226Y-100.532
X182.226Y-103.532
X182.226Y-114.532
X182.226Y-119.532
X182.226Y-122.032
X182.226Y-132.032
X182.226Y-134.532
X182.226Y-137.532
X182.226Y-148.532
X183.075Y-62.66
X183.075Y-96.66
X183.075Y-130.66
X184.792Y-72.606
X184.792Y-75.606
X184.792Y-78.106
X184.792Y-106.606
X184.792Y-109.606
X184.792Y-112.106
X184.792Y-140.606
X184.792Y-143.606
X184.792Y-146.106
X184.843Y-51.578
X184.843Y-54.078
X184.843Y-64.078
X184.843Y-66.578
X184.843Y-69.578
X184.843Y-80.578
X184.843Y-85.578
X184.843Y-88.078
X184.843Y-98.078
X184.843Y-100.578
X184.843Y-103.578
X184.843Y-114.578
X184.843Y-119.578
X184.843Y-122.078
X184.843Y-132.078
X184.843Y-134.578
X184.843Y-137.578
X184.843Y-148.578
X187.175Y-68.26
X187.175Y-102.26
X187.175Y-136.26
X187.375Y-69.46
X187.375Y-103.46
X187.375Y-137.46
X187.575Y-67.26
X187.575Y-101.26
X187.575Y-135.26
X187.624Y-72.588
X187.624Y-75.588
X187.624Y-78.088
X187.624Y-106.588
X187.624Y-109.588
X187.624Y-112.088
X187.624Y-140.588
X187.624Y-143.588
X187.624Y-146.088
X187.675Y-51.56
X187.675Y-54.06
X187.675Y-80.56
X187.675Y-85.56
X187.675Y-88.06
X187.675Y-114.56
X187.675Y-119.56
X187.675Y-122.06
X187.675Y-148.56
X187.775Y-57.46
X187.775Y-61.26
X187.775Y-64.06
X187.775Y-91.46
X187.775Y-95.26
X187.775Y-98.06
X187.775Y-125.46
X187.775Y-129.26
X187.775Y-132.06
X188.175Y-70.26
X188.175Y-104.26
X188.175Y-138.26
X188.575Y-66.66
X188.575Y-100.66
X188.575Y-134.66
X189.775Y-66.66
X189.775Y-70.46
X189.775Y-100.66
X189.775Y-104.46
X189.775Y-134.66
X189.775Y-138.46
X190.175Y-72.56
X190.175Y-75.56
X190.175Y-78.06
X190.175Y-106.56
X190.175Y-109.56
X190.175Y-112.06
X190.175Y-140.56
X190.175Y-143.56
X190.175Y-146.06
X190.226Y-51.532
X190.226Y-54.032
X190.226Y-80.532
X190.226Y-85.532
X190.226Y-88.032
X190.226Y-114.532
X190.226Y-119.532
X190.226Y-122.032
X190.226Y-148.532
X190.575Y-71.26
X190.575Y-105.26
X190.575Y-139.26
X190.775Y-66.86
X190.775Y-100.86
X190.775Y-134.86
X191.575Y-67.66
X191.575Y-72.26
X191.575Y-101.66
X191.575Y-106.26
X191.575Y-135.66
X191.575Y-140.26
X191.775Y-62.86
X191.775Y-96.86
X191.775Y-130.86
X192.375Y-68.66
X192.375Y-102.66
X192.375Y-136.66
X192.475Y-75.56
X192.475Y-109.56
X192.475Y-143.56
X192.575Y-78.06
X192.575Y-112.06
X192.575Y-146.06
X192.775Y-56.66
X192.775Y-90.66
X192.775Y-124.66
X192.843Y-51.578
X192.843Y-54.078
X192.843Y-80.578
X192.843Y-85.578
X192.843Y-88.078
X192.843Y-114.578
X192.843Y-119.578
X192.843Y-122.078
X192.843Y-148.578
X193.375Y-69.46
X193.375Y-103.46
X193.375Y-137.46
X193.675Y-62.06
X193.675Y-96.06
X193.675Y-130.06
X194.175Y-70.26
X194.175Y-104.26
X194.175Y-138.26
X194.675Y-75.56
X194.675Y-109.56
X194.675Y-143.56
X194.775Y-78.06
X194.775Y-112.06
X194.775Y-146.06
X194.975Y-67.26
X194.975Y-69.46
X194.975Y-71.46
X194.975Y-101.26
X194.975Y-103.46
X194.975Y-105.46
X194.975Y-135.26
X194.975Y-137.46
X194.975Y-139.46
X195.607Y-56.641
X195.607Y-90.641
X195.607Y-124.641
X195.675Y-51.56
X195.675Y-54.06
X195.675Y-80.56
X195.675Y-85.56
X195.675Y-88.06
X195.675Y-114.56
X195.675Y-119.56
X195.675Y-122.06
X195.675Y-148.56
X198.158Y-56.614
X198.158Y-90.614
X198.158Y-124.614
X198.175Y-67.26
X198.175Y-69.46
X198.175Y-71.46
X198.175Y-101.26
X198.175Y-103.46
X198.175Y-105.46
X198.175Y-135.26
X198.175Y-137.46
X198.175Y-139.46
X198.226Y-51.532
X198.226Y-54.032
X198.226Y-80.532
X198.226Y-85.532
X198.226Y-88.032
X198.226Y-114.532
X198.226Y-119.532
X198.226Y-122.032
X198.226Y-148.532
X200.607Y-56.641
X200.607Y-90.641
X200.607Y-124.641
X200.675Y-51.56
X200.675Y-54.06
X200.675Y-80.56
X200.675Y-85.56
X200.675Y-88.06
X200.675Y-114.56
X200.675Y-119.56
X200.675Y-122.06
X200.675Y-148.56
X201.175Y-67.26
X201.175Y-69.46
X201.175Y-71.46
X201.175Y-101.26
X201.175Y-103.46
X201.175Y-105.46
X201.175Y-135.26
X201.175Y-137.46
X201.175Y-139.46
X201.275Y-65.96
X201.275Y-99.96
X201.275Y-133.96
X203.107Y-56.641
X203.107Y-90.641
X203.107Y-124.641
X203.175Y-51.56
X203.175Y-54.06
X203.175Y-64.26
X203.175Y-70.06
X203.175Y-73.06
X203.175Y-75.56
X203.175Y-80.56
X203.175Y-85.56
X203.175Y-88.06
X203.175Y-98.26
X203.175Y-104.06
X203.175Y-107.06
X203.175Y-109.56
X203.175Y-114.56
X203.175Y-119.56
X203.175Y-122.06
X203.175Y-132.26
X203.175Y-138.06
X203.175Y-141.06
X203.175Y-143.56
X203.175Y-148.56
X203.226Y-67.032
X203.226Y-78.032
X203.226Y-101.032
X203.226Y-112.032
X203.226Y-135.032
X203.226Y-146.032
T2
X121.175Y-68.56
X121.175Y-102.56
X121.175Y-136.56
X155.175Y-68.56
X155.175Y-102.56
X155.175Y-136.56
X189.175Y-68.56
X189.175Y-102.56
X189.175Y-136.56
T3
G00X105.9Y-83.0
M15
G01X114.1Y-83.0
M16
G05
G00X105.9Y-117.0
M15
G01X114.1Y-117.0
M16
G05
G00X128.1Y-83.0
M15
G01X119.9Y-83.0
M16
G05
G00X128.1Y-117.0
M15
G01X119.9Y-117.0
M16
G05
G00X138.0Y-59.1
M15
G01X138.0Y-50.9
M16
G05
G00X138.0Y-64.9
M15
G01X138.0Y-73.1
M16
G05
G00X142.1Y-83.0
M15
G01X133.9Y-83.0
M16
G05
G00X138.0Y-87.1
M15
G01X138.0Y-78.9
M16
G05
G00X138.0Y-95.9
M15
G01X138.0Y-104.1
M16
G05
G00X138.0Y-121.1
M15
G01X138.0Y-112.9
M16
G05
G00X142.1Y-117.0
M15
G01X133.9Y-117.0
M16
G05
G00X138.0Y-126.9
M15
G01X138.0Y-135.1
M16
G05
G00X138.0Y-149.1
M15
G01X138.0Y-140.9
M16
G05
G00X159.1Y-83.0
M15
G01X150.9Y-83.0
M16
G05
G00X159.1Y-117.0
M15
G01X150.9Y-117.0
M16
G05
G00X172.0Y-59.1
M15
G01X172.0Y-50.9
M16
G05
G00X172.0Y-63.9
M15
G01X172.0Y-72.1
M16
G05
G00X176.1Y-83.0
M15
G01X167.9Y-83.0
M16
G05
G00X172.0Y-87.1
M15
G01X172.0Y-78.9
M16
G05
G00X172.0Y-96.9
M15
G01X172.0Y-105.1
M16
G05
G00X172.0Y-121.1
M15
G01X172.0Y-112.9
M16
G05
G00X176.1Y-117.0
M15
G01X167.9Y-117.0
M16
G05
G00X172.0Y-126.9
M15
G01X172.0Y-135.1
M16
G05
G00X172.0Y-149.1
M15
G01X172.0Y-140.9
M16
G05
G00X190.1Y-83.0
M15
G01X181.9Y-83.0
M16
G05
G00X190.1Y-117.0
M15
G01X181.9Y-117.0
M16
G05
G00X195.9Y-83.0
M15
G01X204.1Y-83.0
M16
G05
G00X195.9Y-117.0
M15
G01X204.1Y-117.0
M16
G05
T0
M30
