%TF.GenerationSoftware,KiCad,Pcbnew,(6.0.4)*%
%TF.CreationDate,2022-12-29T00:07:26+09:00*%
%TF.ProjectId,gps-ublox-m10s,6770732d-7562-46c6-9f78-2d6d3130732e,rev?*%
%TF.SameCoordinates,Original*%
%TF.FileFunction,Copper,L2,Bot*%
%TF.FilePolarity,Positive*%
%FSLAX46Y46*%
G04 Gerber Fmt 4.6, Leading zero omitted, Abs format (unit mm)*
G04 Created by KiCad (PCBNEW (6.0.4)) date 2022-12-29 00:07:26*
%MOMM*%
%LPD*%
G01*
G04 APERTURE LIST*
%TA.AperFunction,ComponentPad*%
%ADD10C,2.500000*%
%TD*%
%TA.AperFunction,ViaPad*%
%ADD11C,0.800000*%
%TD*%
G04 APERTURE END LIST*
D10*
%TO.P,ANT9,1,1*%
%TO.N,Net-(ANT1-Pad1)*%
X189175000Y-136559831D03*
%TD*%
%TO.P,ANT8,1,1*%
%TO.N,Net-(ANT1-Pad1)*%
X155175000Y-136559831D03*
%TD*%
%TO.P,ANT7,1,1*%
%TO.N,Net-(ANT1-Pad1)*%
X121175000Y-136559831D03*
%TD*%
%TO.P,ANT6,1,1*%
%TO.N,Net-(ANT1-Pad1)*%
X189175000Y-102559831D03*
%TD*%
%TO.P,ANT5,1,1*%
%TO.N,Net-(ANT1-Pad1)*%
X155175000Y-102559831D03*
%TD*%
%TO.P,ANT4,1,1*%
%TO.N,Net-(ANT1-Pad1)*%
X121175000Y-102559831D03*
%TD*%
%TO.P,ANT3,1,1*%
%TO.N,Net-(ANT1-Pad1)*%
X189175000Y-68559831D03*
%TD*%
%TO.P,ANT2,1,1*%
%TO.N,Net-(ANT1-Pad1)*%
X155175000Y-68559831D03*
%TD*%
%TO.P,ANT1,1,1*%
%TO.N,Net-(ANT1-Pad1)*%
X121175000Y-68559831D03*
%TD*%
D11*
%TO.N,GND*%
X174675000Y-148559831D03*
X190175000Y-140559831D03*
X182175000Y-146059831D03*
X187675000Y-122059831D03*
X184843022Y-132078340D03*
X174675000Y-119559831D03*
X194675000Y-143559831D03*
X187175000Y-136259831D03*
X203175000Y-143559831D03*
X189775000Y-134659831D03*
X184843022Y-148578340D03*
X187375000Y-137459831D03*
X178375000Y-129859831D03*
X187624308Y-143587525D03*
X195606978Y-124641322D03*
X174675000Y-122059831D03*
X174675000Y-134559831D03*
X187675000Y-148559831D03*
X201175000Y-139459831D03*
X190225692Y-148532137D03*
X195675000Y-122059831D03*
X182225692Y-132032137D03*
X194775000Y-146059831D03*
X182225692Y-122032137D03*
X203175000Y-141059831D03*
X179675000Y-132059831D03*
X194175000Y-138259831D03*
X174675000Y-132059831D03*
X200675000Y-119559831D03*
X192843022Y-122078340D03*
X179624308Y-140587525D03*
X182225692Y-134532137D03*
X201175000Y-135259831D03*
X176792330Y-143606034D03*
X182225692Y-137532137D03*
X203175000Y-132259831D03*
X191575000Y-140259831D03*
X179675000Y-148559831D03*
X174675000Y-137559831D03*
X191575000Y-135659831D03*
X176843022Y-132078340D03*
X176843022Y-137578340D03*
X190175000Y-143559831D03*
X198175000Y-137459831D03*
X183075000Y-130659831D03*
X187675000Y-119559831D03*
X176792330Y-146106034D03*
X174624308Y-143587525D03*
X200606978Y-124641322D03*
X198225692Y-148532137D03*
X184792330Y-143606034D03*
X182175000Y-140559831D03*
X179675000Y-134559831D03*
X203175000Y-148559831D03*
X179675000Y-137559831D03*
X192575000Y-146059831D03*
X203106978Y-124641322D03*
X194975000Y-135259831D03*
X179624308Y-143587525D03*
X184843022Y-119578340D03*
X192775000Y-124659831D03*
X187575000Y-135259831D03*
X182175000Y-143559831D03*
X203175000Y-122059831D03*
X198175000Y-139459831D03*
X184843022Y-137578340D03*
X187624308Y-140587525D03*
X179675000Y-122059831D03*
X203225692Y-146032137D03*
X176843022Y-148578340D03*
X192843022Y-119578340D03*
X203225692Y-135032137D03*
X195675000Y-119559831D03*
X176792330Y-140606034D03*
X187775000Y-125459831D03*
X190175000Y-146059831D03*
X187624308Y-146087525D03*
X201175000Y-137459831D03*
X188175000Y-138259831D03*
X192475000Y-143559831D03*
X176843022Y-122078340D03*
X187775000Y-132059831D03*
X192843022Y-148578340D03*
X200675000Y-122059831D03*
X182225692Y-148532137D03*
X179675000Y-119559831D03*
X184843022Y-122078340D03*
X174624308Y-140587525D03*
X198175000Y-135259831D03*
X203175000Y-138059831D03*
X176843022Y-119578340D03*
X177775000Y-125859831D03*
X190225692Y-122032137D03*
X198225692Y-119532137D03*
X176843022Y-134578340D03*
X190225692Y-119532137D03*
X189775000Y-138459831D03*
X184792330Y-146106034D03*
X187775000Y-129259831D03*
X182225692Y-119532137D03*
X195675000Y-148559831D03*
X179624308Y-146087525D03*
X174624308Y-146087525D03*
X201275000Y-133959831D03*
X203175000Y-119559831D03*
X193375000Y-137459831D03*
X192375000Y-136659831D03*
X184843022Y-134578340D03*
X194975000Y-139459831D03*
X190575000Y-139259831D03*
X184792330Y-140606034D03*
X188575000Y-134659831D03*
X200675000Y-148559831D03*
X191775000Y-130859831D03*
X198225692Y-122032137D03*
X190775000Y-134859831D03*
X194975000Y-137459831D03*
X193675000Y-130059831D03*
X198157670Y-124613628D03*
X140675000Y-148559831D03*
X156175000Y-140559831D03*
X148175000Y-146059831D03*
X153675000Y-122059831D03*
X150843022Y-132078340D03*
X140675000Y-119559831D03*
X160675000Y-143559831D03*
X153175000Y-136259831D03*
X169175000Y-143559831D03*
X155775000Y-134659831D03*
X150843022Y-148578340D03*
X153375000Y-137459831D03*
X144375000Y-129859831D03*
X153624308Y-143587525D03*
X161606978Y-124641322D03*
X140675000Y-122059831D03*
X140675000Y-134559831D03*
X153675000Y-148559831D03*
X167175000Y-139459831D03*
X156225692Y-148532137D03*
X161675000Y-122059831D03*
X148225692Y-132032137D03*
X160775000Y-146059831D03*
X148225692Y-122032137D03*
X169175000Y-141059831D03*
X145675000Y-132059831D03*
X160175000Y-138259831D03*
X140675000Y-132059831D03*
X166675000Y-119559831D03*
X158843022Y-122078340D03*
X145624308Y-140587525D03*
X148225692Y-134532137D03*
X167175000Y-135259831D03*
X142792330Y-143606034D03*
X148225692Y-137532137D03*
X169175000Y-132259831D03*
X157575000Y-140259831D03*
X145675000Y-148559831D03*
X140675000Y-137559831D03*
X157575000Y-135659831D03*
X142843022Y-132078340D03*
X142843022Y-137578340D03*
X156175000Y-143559831D03*
X164175000Y-137459831D03*
X149075000Y-130659831D03*
X153675000Y-119559831D03*
X142792330Y-146106034D03*
X140624308Y-143587525D03*
X166606978Y-124641322D03*
X164225692Y-148532137D03*
X150792330Y-143606034D03*
X148175000Y-140559831D03*
X145675000Y-134559831D03*
X169175000Y-148559831D03*
X145675000Y-137559831D03*
X158575000Y-146059831D03*
X169106978Y-124641322D03*
X160975000Y-135259831D03*
X145624308Y-143587525D03*
X150843022Y-119578340D03*
X158775000Y-124659831D03*
X153575000Y-135259831D03*
X148175000Y-143559831D03*
X169175000Y-122059831D03*
X164175000Y-139459831D03*
X150843022Y-137578340D03*
X153624308Y-140587525D03*
X145675000Y-122059831D03*
X169225692Y-146032137D03*
X142843022Y-148578340D03*
X158843022Y-119578340D03*
X169225692Y-135032137D03*
X161675000Y-119559831D03*
X142792330Y-140606034D03*
X153775000Y-125459831D03*
X156175000Y-146059831D03*
X153624308Y-146087525D03*
X167175000Y-137459831D03*
X154175000Y-138259831D03*
X158475000Y-143559831D03*
X142843022Y-122078340D03*
X153775000Y-132059831D03*
X158843022Y-148578340D03*
X166675000Y-122059831D03*
X148225692Y-148532137D03*
X145675000Y-119559831D03*
X150843022Y-122078340D03*
X140624308Y-140587525D03*
X164175000Y-135259831D03*
X169175000Y-138059831D03*
X142843022Y-119578340D03*
X143775000Y-125859831D03*
X156225692Y-122032137D03*
X164225692Y-119532137D03*
X142843022Y-134578340D03*
X156225692Y-119532137D03*
X155775000Y-138459831D03*
X150792330Y-146106034D03*
X153775000Y-129259831D03*
X148225692Y-119532137D03*
X161675000Y-148559831D03*
X145624308Y-146087525D03*
X140624308Y-146087525D03*
X167275000Y-133959831D03*
X169175000Y-119559831D03*
X159375000Y-137459831D03*
X158375000Y-136659831D03*
X150843022Y-134578340D03*
X160975000Y-139459831D03*
X156575000Y-139259831D03*
X150792330Y-140606034D03*
X154575000Y-134659831D03*
X166675000Y-148559831D03*
X157775000Y-130859831D03*
X164225692Y-122032137D03*
X156775000Y-134859831D03*
X160975000Y-137459831D03*
X159675000Y-130059831D03*
X164157670Y-124613628D03*
X106675000Y-148559831D03*
X122175000Y-140559831D03*
X114175000Y-146059831D03*
X119675000Y-122059831D03*
X116843022Y-132078340D03*
X106675000Y-119559831D03*
X126675000Y-143559831D03*
X119175000Y-136259831D03*
X135175000Y-143559831D03*
X121775000Y-134659831D03*
X116843022Y-148578340D03*
X119375000Y-137459831D03*
X110375000Y-129859831D03*
X119624308Y-143587525D03*
X127606978Y-124641322D03*
X106675000Y-122059831D03*
X106675000Y-134559831D03*
X119675000Y-148559831D03*
X133175000Y-139459831D03*
X122225692Y-148532137D03*
X127675000Y-122059831D03*
X114225692Y-132032137D03*
X126775000Y-146059831D03*
X114225692Y-122032137D03*
X135175000Y-141059831D03*
X111675000Y-132059831D03*
X126175000Y-138259831D03*
X106675000Y-132059831D03*
X132675000Y-119559831D03*
X124843022Y-122078340D03*
X111624308Y-140587525D03*
X114225692Y-134532137D03*
X133175000Y-135259831D03*
X108792330Y-143606034D03*
X114225692Y-137532137D03*
X135175000Y-132259831D03*
X123575000Y-140259831D03*
X111675000Y-148559831D03*
X106675000Y-137559831D03*
X123575000Y-135659831D03*
X108843022Y-132078340D03*
X108843022Y-137578340D03*
X122175000Y-143559831D03*
X130175000Y-137459831D03*
X115075000Y-130659831D03*
X119675000Y-119559831D03*
X108792330Y-146106034D03*
X106624308Y-143587525D03*
X132606978Y-124641322D03*
X130225692Y-148532137D03*
X116792330Y-143606034D03*
X114175000Y-140559831D03*
X111675000Y-134559831D03*
X135175000Y-148559831D03*
X111675000Y-137559831D03*
X124575000Y-146059831D03*
X135106978Y-124641322D03*
X126975000Y-135259831D03*
X111624308Y-143587525D03*
X116843022Y-119578340D03*
X124775000Y-124659831D03*
X119575000Y-135259831D03*
X114175000Y-143559831D03*
X135175000Y-122059831D03*
X130175000Y-139459831D03*
X116843022Y-137578340D03*
X119624308Y-140587525D03*
X111675000Y-122059831D03*
X135225692Y-146032137D03*
X108843022Y-148578340D03*
X124843022Y-119578340D03*
X135225692Y-135032137D03*
X127675000Y-119559831D03*
X108792330Y-140606034D03*
X119775000Y-125459831D03*
X122175000Y-146059831D03*
X119624308Y-146087525D03*
X133175000Y-137459831D03*
X120175000Y-138259831D03*
X124475000Y-143559831D03*
X108843022Y-122078340D03*
X119775000Y-132059831D03*
X124843022Y-148578340D03*
X132675000Y-122059831D03*
X114225692Y-148532137D03*
X111675000Y-119559831D03*
X116843022Y-122078340D03*
X106624308Y-140587525D03*
X130175000Y-135259831D03*
X135175000Y-138059831D03*
X108843022Y-119578340D03*
X109775000Y-125859831D03*
X122225692Y-122032137D03*
X130225692Y-119532137D03*
X108843022Y-134578340D03*
X122225692Y-119532137D03*
X121775000Y-138459831D03*
X116792330Y-146106034D03*
X119775000Y-129259831D03*
X114225692Y-119532137D03*
X127675000Y-148559831D03*
X111624308Y-146087525D03*
X106624308Y-146087525D03*
X133275000Y-133959831D03*
X135175000Y-119559831D03*
X125375000Y-137459831D03*
X124375000Y-136659831D03*
X116843022Y-134578340D03*
X126975000Y-139459831D03*
X122575000Y-139259831D03*
X116792330Y-140606034D03*
X120575000Y-134659831D03*
X132675000Y-148559831D03*
X123775000Y-130859831D03*
X130225692Y-122032137D03*
X122775000Y-134859831D03*
X126975000Y-137459831D03*
X125675000Y-130059831D03*
X130157670Y-124613628D03*
X174675000Y-114559831D03*
X190175000Y-106559831D03*
X182175000Y-112059831D03*
X187675000Y-88059831D03*
X184843022Y-98078340D03*
X174675000Y-85559831D03*
X194675000Y-109559831D03*
X187175000Y-102259831D03*
X203175000Y-109559831D03*
X189775000Y-100659831D03*
X184843022Y-114578340D03*
X187375000Y-103459831D03*
X178375000Y-95859831D03*
X187624308Y-109587525D03*
X195606978Y-90641322D03*
X174675000Y-88059831D03*
X174675000Y-100559831D03*
X187675000Y-114559831D03*
X201175000Y-105459831D03*
X190225692Y-114532137D03*
X195675000Y-88059831D03*
X182225692Y-98032137D03*
X194775000Y-112059831D03*
X182225692Y-88032137D03*
X203175000Y-107059831D03*
X179675000Y-98059831D03*
X194175000Y-104259831D03*
X174675000Y-98059831D03*
X200675000Y-85559831D03*
X192843022Y-88078340D03*
X179624308Y-106587525D03*
X182225692Y-100532137D03*
X201175000Y-101259831D03*
X176792330Y-109606034D03*
X182225692Y-103532137D03*
X203175000Y-98259831D03*
X191575000Y-106259831D03*
X179675000Y-114559831D03*
X174675000Y-103559831D03*
X191575000Y-101659831D03*
X176843022Y-98078340D03*
X176843022Y-103578340D03*
X190175000Y-109559831D03*
X198175000Y-103459831D03*
X183075000Y-96659831D03*
X187675000Y-85559831D03*
X176792330Y-112106034D03*
X174624308Y-109587525D03*
X200606978Y-90641322D03*
X198225692Y-114532137D03*
X184792330Y-109606034D03*
X182175000Y-106559831D03*
X179675000Y-100559831D03*
X203175000Y-114559831D03*
X179675000Y-103559831D03*
X192575000Y-112059831D03*
X203106978Y-90641322D03*
X194975000Y-101259831D03*
X179624308Y-109587525D03*
X184843022Y-85578340D03*
X192775000Y-90659831D03*
X187575000Y-101259831D03*
X182175000Y-109559831D03*
X203175000Y-88059831D03*
X198175000Y-105459831D03*
X184843022Y-103578340D03*
X187624308Y-106587525D03*
X179675000Y-88059831D03*
X203225692Y-112032137D03*
X176843022Y-114578340D03*
X192843022Y-85578340D03*
X203225692Y-101032137D03*
X195675000Y-85559831D03*
X176792330Y-106606034D03*
X187775000Y-91459831D03*
X190175000Y-112059831D03*
X187624308Y-112087525D03*
X201175000Y-103459831D03*
X188175000Y-104259831D03*
X192475000Y-109559831D03*
X176843022Y-88078340D03*
X187775000Y-98059831D03*
X192843022Y-114578340D03*
X200675000Y-88059831D03*
X182225692Y-114532137D03*
X179675000Y-85559831D03*
X184843022Y-88078340D03*
X174624308Y-106587525D03*
X198175000Y-101259831D03*
X203175000Y-104059831D03*
X176843022Y-85578340D03*
X177775000Y-91859831D03*
X190225692Y-88032137D03*
X198225692Y-85532137D03*
X176843022Y-100578340D03*
X190225692Y-85532137D03*
X189775000Y-104459831D03*
X184792330Y-112106034D03*
X187775000Y-95259831D03*
X182225692Y-85532137D03*
X195675000Y-114559831D03*
X179624308Y-112087525D03*
X174624308Y-112087525D03*
X201275000Y-99959831D03*
X203175000Y-85559831D03*
X193375000Y-103459831D03*
X192375000Y-102659831D03*
X184843022Y-100578340D03*
X194975000Y-105459831D03*
X190575000Y-105259831D03*
X184792330Y-106606034D03*
X188575000Y-100659831D03*
X200675000Y-114559831D03*
X191775000Y-96859831D03*
X198225692Y-88032137D03*
X190775000Y-100859831D03*
X194975000Y-103459831D03*
X193675000Y-96059831D03*
X198157670Y-90613628D03*
X140675000Y-114559831D03*
X156175000Y-106559831D03*
X148175000Y-112059831D03*
X153675000Y-88059831D03*
X150843022Y-98078340D03*
X140675000Y-85559831D03*
X160675000Y-109559831D03*
X153175000Y-102259831D03*
X169175000Y-109559831D03*
X155775000Y-100659831D03*
X150843022Y-114578340D03*
X153375000Y-103459831D03*
X144375000Y-95859831D03*
X153624308Y-109587525D03*
X161606978Y-90641322D03*
X140675000Y-88059831D03*
X140675000Y-100559831D03*
X153675000Y-114559831D03*
X167175000Y-105459831D03*
X156225692Y-114532137D03*
X161675000Y-88059831D03*
X148225692Y-98032137D03*
X160775000Y-112059831D03*
X148225692Y-88032137D03*
X169175000Y-107059831D03*
X145675000Y-98059831D03*
X160175000Y-104259831D03*
X140675000Y-98059831D03*
X166675000Y-85559831D03*
X158843022Y-88078340D03*
X145624308Y-106587525D03*
X148225692Y-100532137D03*
X167175000Y-101259831D03*
X142792330Y-109606034D03*
X148225692Y-103532137D03*
X169175000Y-98259831D03*
X157575000Y-106259831D03*
X145675000Y-114559831D03*
X140675000Y-103559831D03*
X157575000Y-101659831D03*
X142843022Y-98078340D03*
X142843022Y-103578340D03*
X156175000Y-109559831D03*
X164175000Y-103459831D03*
X149075000Y-96659831D03*
X153675000Y-85559831D03*
X142792330Y-112106034D03*
X140624308Y-109587525D03*
X166606978Y-90641322D03*
X164225692Y-114532137D03*
X150792330Y-109606034D03*
X148175000Y-106559831D03*
X145675000Y-100559831D03*
X169175000Y-114559831D03*
X145675000Y-103559831D03*
X158575000Y-112059831D03*
X169106978Y-90641322D03*
X160975000Y-101259831D03*
X145624308Y-109587525D03*
X150843022Y-85578340D03*
X158775000Y-90659831D03*
X153575000Y-101259831D03*
X148175000Y-109559831D03*
X169175000Y-88059831D03*
X164175000Y-105459831D03*
X150843022Y-103578340D03*
X153624308Y-106587525D03*
X145675000Y-88059831D03*
X169225692Y-112032137D03*
X142843022Y-114578340D03*
X158843022Y-85578340D03*
X169225692Y-101032137D03*
X161675000Y-85559831D03*
X142792330Y-106606034D03*
X153775000Y-91459831D03*
X156175000Y-112059831D03*
X153624308Y-112087525D03*
X167175000Y-103459831D03*
X154175000Y-104259831D03*
X158475000Y-109559831D03*
X142843022Y-88078340D03*
X153775000Y-98059831D03*
X158843022Y-114578340D03*
X166675000Y-88059831D03*
X148225692Y-114532137D03*
X145675000Y-85559831D03*
X150843022Y-88078340D03*
X140624308Y-106587525D03*
X164175000Y-101259831D03*
X169175000Y-104059831D03*
X142843022Y-85578340D03*
X143775000Y-91859831D03*
X156225692Y-88032137D03*
X164225692Y-85532137D03*
X142843022Y-100578340D03*
X156225692Y-85532137D03*
X155775000Y-104459831D03*
X150792330Y-112106034D03*
X153775000Y-95259831D03*
X148225692Y-85532137D03*
X161675000Y-114559831D03*
X145624308Y-112087525D03*
X140624308Y-112087525D03*
X167275000Y-99959831D03*
X169175000Y-85559831D03*
X159375000Y-103459831D03*
X158375000Y-102659831D03*
X150843022Y-100578340D03*
X160975000Y-105459831D03*
X156575000Y-105259831D03*
X150792330Y-106606034D03*
X154575000Y-100659831D03*
X166675000Y-114559831D03*
X157775000Y-96859831D03*
X164225692Y-88032137D03*
X156775000Y-100859831D03*
X160975000Y-103459831D03*
X159675000Y-96059831D03*
X164157670Y-90613628D03*
X106675000Y-114559831D03*
X122175000Y-106559831D03*
X114175000Y-112059831D03*
X119675000Y-88059831D03*
X116843022Y-98078340D03*
X106675000Y-85559831D03*
X126675000Y-109559831D03*
X119175000Y-102259831D03*
X135175000Y-109559831D03*
X121775000Y-100659831D03*
X116843022Y-114578340D03*
X119375000Y-103459831D03*
X110375000Y-95859831D03*
X119624308Y-109587525D03*
X127606978Y-90641322D03*
X106675000Y-88059831D03*
X106675000Y-100559831D03*
X119675000Y-114559831D03*
X133175000Y-105459831D03*
X122225692Y-114532137D03*
X127675000Y-88059831D03*
X114225692Y-98032137D03*
X126775000Y-112059831D03*
X114225692Y-88032137D03*
X135175000Y-107059831D03*
X111675000Y-98059831D03*
X126175000Y-104259831D03*
X106675000Y-98059831D03*
X132675000Y-85559831D03*
X124843022Y-88078340D03*
X111624308Y-106587525D03*
X114225692Y-100532137D03*
X133175000Y-101259831D03*
X108792330Y-109606034D03*
X114225692Y-103532137D03*
X135175000Y-98259831D03*
X123575000Y-106259831D03*
X111675000Y-114559831D03*
X106675000Y-103559831D03*
X123575000Y-101659831D03*
X108843022Y-98078340D03*
X108843022Y-103578340D03*
X122175000Y-109559831D03*
X130175000Y-103459831D03*
X115075000Y-96659831D03*
X119675000Y-85559831D03*
X108792330Y-112106034D03*
X106624308Y-109587525D03*
X132606978Y-90641322D03*
X130225692Y-114532137D03*
X116792330Y-109606034D03*
X114175000Y-106559831D03*
X111675000Y-100559831D03*
X135175000Y-114559831D03*
X111675000Y-103559831D03*
X124575000Y-112059831D03*
X135106978Y-90641322D03*
X126975000Y-101259831D03*
X111624308Y-109587525D03*
X116843022Y-85578340D03*
X124775000Y-90659831D03*
X119575000Y-101259831D03*
X114175000Y-109559831D03*
X135175000Y-88059831D03*
X130175000Y-105459831D03*
X116843022Y-103578340D03*
X119624308Y-106587525D03*
X111675000Y-88059831D03*
X135225692Y-112032137D03*
X108843022Y-114578340D03*
X124843022Y-85578340D03*
X135225692Y-101032137D03*
X127675000Y-85559831D03*
X108792330Y-106606034D03*
X119775000Y-91459831D03*
X122175000Y-112059831D03*
X119624308Y-112087525D03*
X133175000Y-103459831D03*
X120175000Y-104259831D03*
X124475000Y-109559831D03*
X108843022Y-88078340D03*
X119775000Y-98059831D03*
X124843022Y-114578340D03*
X132675000Y-88059831D03*
X114225692Y-114532137D03*
X111675000Y-85559831D03*
X116843022Y-88078340D03*
X106624308Y-106587525D03*
X130175000Y-101259831D03*
X135175000Y-104059831D03*
X108843022Y-85578340D03*
X109775000Y-91859831D03*
X122225692Y-88032137D03*
X130225692Y-85532137D03*
X108843022Y-100578340D03*
X122225692Y-85532137D03*
X121775000Y-104459831D03*
X116792330Y-112106034D03*
X119775000Y-95259831D03*
X114225692Y-85532137D03*
X127675000Y-114559831D03*
X111624308Y-112087525D03*
X106624308Y-112087525D03*
X133275000Y-99959831D03*
X135175000Y-85559831D03*
X125375000Y-103459831D03*
X124375000Y-102659831D03*
X116843022Y-100578340D03*
X126975000Y-105459831D03*
X122575000Y-105259831D03*
X116792330Y-106606034D03*
X120575000Y-100659831D03*
X132675000Y-114559831D03*
X123775000Y-96859831D03*
X130225692Y-88032137D03*
X122775000Y-100859831D03*
X126975000Y-103459831D03*
X125675000Y-96059831D03*
X130157670Y-90613628D03*
X174675000Y-80559831D03*
X190175000Y-72559831D03*
X182175000Y-78059831D03*
X187675000Y-54059831D03*
X184843022Y-64078340D03*
X174675000Y-51559831D03*
X194675000Y-75559831D03*
X187175000Y-68259831D03*
X203175000Y-75559831D03*
X189775000Y-66659831D03*
X184843022Y-80578340D03*
X187375000Y-69459831D03*
X178375000Y-61859831D03*
X187624308Y-75587525D03*
X195606978Y-56641322D03*
X174675000Y-54059831D03*
X174675000Y-66559831D03*
X187675000Y-80559831D03*
X201175000Y-71459831D03*
X190225692Y-80532137D03*
X195675000Y-54059831D03*
X182225692Y-64032137D03*
X194775000Y-78059831D03*
X182225692Y-54032137D03*
X203175000Y-73059831D03*
X179675000Y-64059831D03*
X194175000Y-70259831D03*
X174675000Y-64059831D03*
X200675000Y-51559831D03*
X192843022Y-54078340D03*
X179624308Y-72587525D03*
X182225692Y-66532137D03*
X201175000Y-67259831D03*
X176792330Y-75606034D03*
X182225692Y-69532137D03*
X203175000Y-64259831D03*
X191575000Y-72259831D03*
X179675000Y-80559831D03*
X174675000Y-69559831D03*
X191575000Y-67659831D03*
X176843022Y-64078340D03*
X176843022Y-69578340D03*
X190175000Y-75559831D03*
X198175000Y-69459831D03*
X183075000Y-62659831D03*
X187675000Y-51559831D03*
X176792330Y-78106034D03*
X174624308Y-75587525D03*
X200606978Y-56641322D03*
X198225692Y-80532137D03*
X184792330Y-75606034D03*
X182175000Y-72559831D03*
X179675000Y-66559831D03*
X203175000Y-80559831D03*
X179675000Y-69559831D03*
X192575000Y-78059831D03*
X203106978Y-56641322D03*
X194975000Y-67259831D03*
X179624308Y-75587525D03*
X184843022Y-51578340D03*
X192775000Y-56659831D03*
X187575000Y-67259831D03*
X182175000Y-75559831D03*
X203175000Y-54059831D03*
X198175000Y-71459831D03*
X184843022Y-69578340D03*
X187624308Y-72587525D03*
X179675000Y-54059831D03*
X203225692Y-78032137D03*
X176843022Y-80578340D03*
X192843022Y-51578340D03*
X203225692Y-67032137D03*
X195675000Y-51559831D03*
X176792330Y-72606034D03*
X187775000Y-57459831D03*
X190175000Y-78059831D03*
X187624308Y-78087525D03*
X201175000Y-69459831D03*
X188175000Y-70259831D03*
X192475000Y-75559831D03*
X176843022Y-54078340D03*
X187775000Y-64059831D03*
X192843022Y-80578340D03*
X200675000Y-54059831D03*
X182225692Y-80532137D03*
X179675000Y-51559831D03*
X184843022Y-54078340D03*
X174624308Y-72587525D03*
X198175000Y-67259831D03*
X203175000Y-70059831D03*
X176843022Y-51578340D03*
X177775000Y-57859831D03*
X190225692Y-54032137D03*
X198225692Y-51532137D03*
X176843022Y-66578340D03*
X190225692Y-51532137D03*
X189775000Y-70459831D03*
X184792330Y-78106034D03*
X187775000Y-61259831D03*
X182225692Y-51532137D03*
X195675000Y-80559831D03*
X179624308Y-78087525D03*
X174624308Y-78087525D03*
X201275000Y-65959831D03*
X203175000Y-51559831D03*
X193375000Y-69459831D03*
X192375000Y-68659831D03*
X184843022Y-66578340D03*
X194975000Y-71459831D03*
X190575000Y-71259831D03*
X184792330Y-72606034D03*
X188575000Y-66659831D03*
X200675000Y-80559831D03*
X191775000Y-62859831D03*
X198225692Y-54032137D03*
X190775000Y-66859831D03*
X194975000Y-69459831D03*
X193675000Y-62059831D03*
X198157670Y-56613628D03*
X140675000Y-80559831D03*
X156175000Y-72559831D03*
X148175000Y-78059831D03*
X153675000Y-54059831D03*
X150843022Y-64078340D03*
X140675000Y-51559831D03*
X160675000Y-75559831D03*
X153175000Y-68259831D03*
X169175000Y-75559831D03*
X155775000Y-66659831D03*
X150843022Y-80578340D03*
X153375000Y-69459831D03*
X144375000Y-61859831D03*
X153624308Y-75587525D03*
X161606978Y-56641322D03*
X140675000Y-54059831D03*
X140675000Y-66559831D03*
X153675000Y-80559831D03*
X167175000Y-71459831D03*
X156225692Y-80532137D03*
X161675000Y-54059831D03*
X148225692Y-64032137D03*
X160775000Y-78059831D03*
X148225692Y-54032137D03*
X169175000Y-73059831D03*
X145675000Y-64059831D03*
X160175000Y-70259831D03*
X140675000Y-64059831D03*
X166675000Y-51559831D03*
X158843022Y-54078340D03*
X145624308Y-72587525D03*
X148225692Y-66532137D03*
X167175000Y-67259831D03*
X142792330Y-75606034D03*
X148225692Y-69532137D03*
X169175000Y-64259831D03*
X157575000Y-72259831D03*
X145675000Y-80559831D03*
X140675000Y-69559831D03*
X157575000Y-67659831D03*
X142843022Y-64078340D03*
X142843022Y-69578340D03*
X156175000Y-75559831D03*
X164175000Y-69459831D03*
X149075000Y-62659831D03*
X153675000Y-51559831D03*
X142792330Y-78106034D03*
X140624308Y-75587525D03*
X166606978Y-56641322D03*
X164225692Y-80532137D03*
X150792330Y-75606034D03*
X148175000Y-72559831D03*
X145675000Y-66559831D03*
X169175000Y-80559831D03*
X145675000Y-69559831D03*
X158575000Y-78059831D03*
X169106978Y-56641322D03*
X160975000Y-67259831D03*
X145624308Y-75587525D03*
X150843022Y-51578340D03*
X158775000Y-56659831D03*
X153575000Y-67259831D03*
X148175000Y-75559831D03*
X169175000Y-54059831D03*
X164175000Y-71459831D03*
X150843022Y-69578340D03*
X153624308Y-72587525D03*
X145675000Y-54059831D03*
X169225692Y-78032137D03*
X142843022Y-80578340D03*
X158843022Y-51578340D03*
X169225692Y-67032137D03*
X161675000Y-51559831D03*
X142792330Y-72606034D03*
X153775000Y-57459831D03*
X156175000Y-78059831D03*
X153624308Y-78087525D03*
X167175000Y-69459831D03*
X154175000Y-70259831D03*
X158475000Y-75559831D03*
X142843022Y-54078340D03*
X153775000Y-64059831D03*
X158843022Y-80578340D03*
X166675000Y-54059831D03*
X148225692Y-80532137D03*
X145675000Y-51559831D03*
X150843022Y-54078340D03*
X140624308Y-72587525D03*
X164175000Y-67259831D03*
X169175000Y-70059831D03*
X142843022Y-51578340D03*
X143775000Y-57859831D03*
X156225692Y-54032137D03*
X164225692Y-51532137D03*
X142843022Y-66578340D03*
X156225692Y-51532137D03*
X155775000Y-70459831D03*
X150792330Y-78106034D03*
X153775000Y-61259831D03*
X148225692Y-51532137D03*
X161675000Y-80559831D03*
X145624308Y-78087525D03*
X140624308Y-78087525D03*
X167275000Y-65959831D03*
X169175000Y-51559831D03*
X159375000Y-69459831D03*
X158375000Y-68659831D03*
X150843022Y-66578340D03*
X160975000Y-71459831D03*
X156575000Y-71259831D03*
X150792330Y-72606034D03*
X154575000Y-66659831D03*
X166675000Y-80559831D03*
X157775000Y-62859831D03*
X164225692Y-54032137D03*
X156775000Y-66859831D03*
X160975000Y-69459831D03*
X159675000Y-62059831D03*
X164157670Y-56613628D03*
X106675000Y-80559831D03*
X106624308Y-78087525D03*
X135175000Y-51559831D03*
X132675000Y-80559831D03*
X111624308Y-78087525D03*
X130225692Y-54032137D03*
X127675000Y-80559831D03*
X130157670Y-56613628D03*
X125675000Y-62059831D03*
X120575000Y-66659831D03*
X124375000Y-68659831D03*
X125375000Y-69459831D03*
X126975000Y-69459831D03*
X122775000Y-66859831D03*
X123775000Y-62859831D03*
X116792330Y-72606034D03*
X133275000Y-65959831D03*
X122575000Y-71259831D03*
X114225692Y-51532137D03*
X126975000Y-71459831D03*
X119775000Y-61259831D03*
X116792330Y-78106034D03*
X116843022Y-66578340D03*
X114175000Y-75559831D03*
X122225692Y-54032137D03*
X135175000Y-70059831D03*
X124775000Y-56659831D03*
X108792330Y-75606034D03*
X130175000Y-69459831D03*
X130175000Y-67259831D03*
X119575000Y-67259831D03*
X108843022Y-51578340D03*
X135175000Y-80559831D03*
X116843022Y-51578340D03*
X122175000Y-78059831D03*
X109775000Y-57859831D03*
X123575000Y-72259831D03*
X124843022Y-80578340D03*
X106624308Y-72587525D03*
X121775000Y-70459831D03*
X114225692Y-80532137D03*
X122175000Y-75559831D03*
X108843022Y-69578340D03*
X119775000Y-57459831D03*
X126975000Y-67259831D03*
X111624308Y-75587525D03*
X108792330Y-78106034D03*
X116792330Y-75606034D03*
X135175000Y-54059831D03*
X122225692Y-51532137D03*
X135106978Y-56641322D03*
X120175000Y-70259831D03*
X116843022Y-54078340D03*
X111675000Y-66559831D03*
X111675000Y-51559831D03*
X130225692Y-80532137D03*
X130175000Y-71459831D03*
X124575000Y-78059831D03*
X132675000Y-54059831D03*
X106675000Y-69559831D03*
X119775000Y-64059831D03*
X108843022Y-66578340D03*
X111675000Y-69559831D03*
X124843022Y-51578340D03*
X135175000Y-64259831D03*
X108792330Y-72606034D03*
X108843022Y-54078340D03*
X114175000Y-72559831D03*
X108843022Y-80578340D03*
X124475000Y-75559831D03*
X132606978Y-56641322D03*
X106624308Y-75587525D03*
X133175000Y-69459831D03*
X119675000Y-51559831D03*
X115075000Y-62659831D03*
X119624308Y-78087525D03*
X108843022Y-64078340D03*
X130225692Y-51532137D03*
X127675000Y-51559831D03*
X123575000Y-67659831D03*
X135225692Y-67032137D03*
X119624308Y-72587525D03*
X111675000Y-80559831D03*
X135225692Y-78032137D03*
X114225692Y-69532137D03*
X111675000Y-54059831D03*
X116843022Y-69578340D03*
X126675000Y-75559831D03*
X122225692Y-80532137D03*
X106675000Y-51559831D03*
X126175000Y-70259831D03*
X114225692Y-54032137D03*
X127675000Y-54059831D03*
X133175000Y-67259831D03*
X121775000Y-66659831D03*
X111624308Y-72587525D03*
X119375000Y-69459831D03*
X124843022Y-54078340D03*
X110375000Y-61859831D03*
X135175000Y-73059831D03*
X116843022Y-80578340D03*
X114225692Y-66532137D03*
X114225692Y-64032137D03*
X133175000Y-71459831D03*
X119624308Y-75587525D03*
X119175000Y-68259831D03*
X119675000Y-80559831D03*
X135175000Y-75559831D03*
X111675000Y-64059831D03*
X116843022Y-64078340D03*
X106675000Y-64059831D03*
X119675000Y-54059831D03*
X126775000Y-78059831D03*
X122175000Y-72559831D03*
X132675000Y-51559831D03*
X106675000Y-54059831D03*
X114175000Y-78059831D03*
X127606978Y-56641322D03*
X106675000Y-66559831D03*
%TD*%
%TA.AperFunction,Conductor*%
%TO.N,GND*%
G36*
X136862621Y-50334333D02*
G01*
X136909114Y-50387989D01*
X136920500Y-50440331D01*
X136920500Y-81679331D01*
X136900498Y-81747452D01*
X136846842Y-81793945D01*
X136794500Y-81805331D01*
X105555500Y-81805331D01*
X105487379Y-81785329D01*
X105440886Y-81731673D01*
X105429500Y-81679331D01*
X105429500Y-68559831D01*
X119665848Y-68559831D01*
X119684428Y-68795914D01*
X119739711Y-69026185D01*
X119830336Y-69244972D01*
X119954070Y-69446888D01*
X120107868Y-69626963D01*
X120287943Y-69780761D01*
X120489859Y-69904495D01*
X120494429Y-69906388D01*
X120494433Y-69906390D01*
X120704073Y-69993226D01*
X120704075Y-69993227D01*
X120708646Y-69995120D01*
X120788499Y-70014291D01*
X120934104Y-70049248D01*
X120934110Y-70049249D01*
X120938917Y-70050403D01*
X121175000Y-70068983D01*
X121411083Y-70050403D01*
X121415890Y-70049249D01*
X121415896Y-70049248D01*
X121561501Y-70014291D01*
X121641354Y-69995120D01*
X121645925Y-69993227D01*
X121645927Y-69993226D01*
X121855567Y-69906390D01*
X121855571Y-69906388D01*
X121860141Y-69904495D01*
X122062057Y-69780761D01*
X122242132Y-69626963D01*
X122395930Y-69446888D01*
X122519664Y-69244972D01*
X122610289Y-69026185D01*
X122665572Y-68795914D01*
X122684152Y-68559831D01*
X122665572Y-68323748D01*
X122610289Y-68093477D01*
X122519664Y-67874690D01*
X122395930Y-67672774D01*
X122242132Y-67492699D01*
X122062057Y-67338901D01*
X121860141Y-67215167D01*
X121855571Y-67213274D01*
X121855567Y-67213272D01*
X121645927Y-67126436D01*
X121645925Y-67126435D01*
X121641354Y-67124542D01*
X121561501Y-67105371D01*
X121415896Y-67070414D01*
X121415890Y-67070413D01*
X121411083Y-67069259D01*
X121175000Y-67050679D01*
X120938917Y-67069259D01*
X120934110Y-67070413D01*
X120934104Y-67070414D01*
X120788499Y-67105371D01*
X120708646Y-67124542D01*
X120704075Y-67126435D01*
X120704073Y-67126436D01*
X120494433Y-67213272D01*
X120494429Y-67213274D01*
X120489859Y-67215167D01*
X120287943Y-67338901D01*
X120107868Y-67492699D01*
X119954070Y-67672774D01*
X119830336Y-67874690D01*
X119739711Y-68093477D01*
X119684428Y-68323748D01*
X119665848Y-68559831D01*
X105429500Y-68559831D01*
X105429500Y-50440331D01*
X105449502Y-50372210D01*
X105503158Y-50325717D01*
X105555500Y-50314331D01*
X136794500Y-50314331D01*
X136862621Y-50334333D01*
G37*
%TD.AperFunction*%
%TD*%
%TA.AperFunction,Conductor*%
%TO.N,GND*%
G36*
X170862621Y-50334333D02*
G01*
X170909114Y-50387989D01*
X170920500Y-50440331D01*
X170920500Y-81679331D01*
X170900498Y-81747452D01*
X170846842Y-81793945D01*
X170794500Y-81805331D01*
X139555500Y-81805331D01*
X139487379Y-81785329D01*
X139440886Y-81731673D01*
X139429500Y-81679331D01*
X139429500Y-68559831D01*
X153665848Y-68559831D01*
X153684428Y-68795914D01*
X153739711Y-69026185D01*
X153830336Y-69244972D01*
X153954070Y-69446888D01*
X154107868Y-69626963D01*
X154287943Y-69780761D01*
X154489859Y-69904495D01*
X154494429Y-69906388D01*
X154494433Y-69906390D01*
X154704073Y-69993226D01*
X154704075Y-69993227D01*
X154708646Y-69995120D01*
X154788499Y-70014291D01*
X154934104Y-70049248D01*
X154934110Y-70049249D01*
X154938917Y-70050403D01*
X155175000Y-70068983D01*
X155411083Y-70050403D01*
X155415890Y-70049249D01*
X155415896Y-70049248D01*
X155561501Y-70014291D01*
X155641354Y-69995120D01*
X155645925Y-69993227D01*
X155645927Y-69993226D01*
X155855567Y-69906390D01*
X155855571Y-69906388D01*
X155860141Y-69904495D01*
X156062057Y-69780761D01*
X156242132Y-69626963D01*
X156395930Y-69446888D01*
X156519664Y-69244972D01*
X156610289Y-69026185D01*
X156665572Y-68795914D01*
X156684152Y-68559831D01*
X156665572Y-68323748D01*
X156610289Y-68093477D01*
X156519664Y-67874690D01*
X156395930Y-67672774D01*
X156242132Y-67492699D01*
X156062057Y-67338901D01*
X155860141Y-67215167D01*
X155855571Y-67213274D01*
X155855567Y-67213272D01*
X155645927Y-67126436D01*
X155645925Y-67126435D01*
X155641354Y-67124542D01*
X155561501Y-67105371D01*
X155415896Y-67070414D01*
X155415890Y-67070413D01*
X155411083Y-67069259D01*
X155175000Y-67050679D01*
X154938917Y-67069259D01*
X154934110Y-67070413D01*
X154934104Y-67070414D01*
X154788499Y-67105371D01*
X154708646Y-67124542D01*
X154704075Y-67126435D01*
X154704073Y-67126436D01*
X154494433Y-67213272D01*
X154494429Y-67213274D01*
X154489859Y-67215167D01*
X154287943Y-67338901D01*
X154107868Y-67492699D01*
X153954070Y-67672774D01*
X153830336Y-67874690D01*
X153739711Y-68093477D01*
X153684428Y-68323748D01*
X153665848Y-68559831D01*
X139429500Y-68559831D01*
X139429500Y-50440331D01*
X139449502Y-50372210D01*
X139503158Y-50325717D01*
X139555500Y-50314331D01*
X170794500Y-50314331D01*
X170862621Y-50334333D01*
G37*
%TD.AperFunction*%
%TD*%
%TA.AperFunction,Conductor*%
%TO.N,GND*%
G36*
X204862621Y-50334333D02*
G01*
X204909114Y-50387989D01*
X204920500Y-50440331D01*
X204920500Y-81679331D01*
X204900498Y-81747452D01*
X204846842Y-81793945D01*
X204794500Y-81805331D01*
X173555500Y-81805331D01*
X173487379Y-81785329D01*
X173440886Y-81731673D01*
X173429500Y-81679331D01*
X173429500Y-68559831D01*
X187665848Y-68559831D01*
X187684428Y-68795914D01*
X187739711Y-69026185D01*
X187830336Y-69244972D01*
X187954070Y-69446888D01*
X188107868Y-69626963D01*
X188287943Y-69780761D01*
X188489859Y-69904495D01*
X188494429Y-69906388D01*
X188494433Y-69906390D01*
X188704073Y-69993226D01*
X188704075Y-69993227D01*
X188708646Y-69995120D01*
X188788499Y-70014291D01*
X188934104Y-70049248D01*
X188934110Y-70049249D01*
X188938917Y-70050403D01*
X189175000Y-70068983D01*
X189411083Y-70050403D01*
X189415890Y-70049249D01*
X189415896Y-70049248D01*
X189561501Y-70014291D01*
X189641354Y-69995120D01*
X189645925Y-69993227D01*
X189645927Y-69993226D01*
X189855567Y-69906390D01*
X189855571Y-69906388D01*
X189860141Y-69904495D01*
X190062057Y-69780761D01*
X190242132Y-69626963D01*
X190395930Y-69446888D01*
X190519664Y-69244972D01*
X190610289Y-69026185D01*
X190665572Y-68795914D01*
X190684152Y-68559831D01*
X190665572Y-68323748D01*
X190610289Y-68093477D01*
X190519664Y-67874690D01*
X190395930Y-67672774D01*
X190242132Y-67492699D01*
X190062057Y-67338901D01*
X189860141Y-67215167D01*
X189855571Y-67213274D01*
X189855567Y-67213272D01*
X189645927Y-67126436D01*
X189645925Y-67126435D01*
X189641354Y-67124542D01*
X189561501Y-67105371D01*
X189415896Y-67070414D01*
X189415890Y-67070413D01*
X189411083Y-67069259D01*
X189175000Y-67050679D01*
X188938917Y-67069259D01*
X188934110Y-67070413D01*
X188934104Y-67070414D01*
X188788499Y-67105371D01*
X188708646Y-67124542D01*
X188704075Y-67126435D01*
X188704073Y-67126436D01*
X188494433Y-67213272D01*
X188494429Y-67213274D01*
X188489859Y-67215167D01*
X188287943Y-67338901D01*
X188107868Y-67492699D01*
X187954070Y-67672774D01*
X187830336Y-67874690D01*
X187739711Y-68093477D01*
X187684428Y-68323748D01*
X187665848Y-68559831D01*
X173429500Y-68559831D01*
X173429500Y-50440331D01*
X173449502Y-50372210D01*
X173503158Y-50325717D01*
X173555500Y-50314331D01*
X204794500Y-50314331D01*
X204862621Y-50334333D01*
G37*
%TD.AperFunction*%
%TD*%
%TA.AperFunction,Conductor*%
%TO.N,GND*%
G36*
X136862621Y-84334333D02*
G01*
X136909114Y-84387989D01*
X136920500Y-84440331D01*
X136920500Y-115679331D01*
X136900498Y-115747452D01*
X136846842Y-115793945D01*
X136794500Y-115805331D01*
X105555500Y-115805331D01*
X105487379Y-115785329D01*
X105440886Y-115731673D01*
X105429500Y-115679331D01*
X105429500Y-102559831D01*
X119665848Y-102559831D01*
X119684428Y-102795914D01*
X119739711Y-103026185D01*
X119830336Y-103244972D01*
X119954070Y-103446888D01*
X120107868Y-103626963D01*
X120287943Y-103780761D01*
X120489859Y-103904495D01*
X120494429Y-103906388D01*
X120494433Y-103906390D01*
X120704073Y-103993226D01*
X120704075Y-103993227D01*
X120708646Y-103995120D01*
X120788499Y-104014291D01*
X120934104Y-104049248D01*
X120934110Y-104049249D01*
X120938917Y-104050403D01*
X121175000Y-104068983D01*
X121411083Y-104050403D01*
X121415890Y-104049249D01*
X121415896Y-104049248D01*
X121561501Y-104014291D01*
X121641354Y-103995120D01*
X121645925Y-103993227D01*
X121645927Y-103993226D01*
X121855567Y-103906390D01*
X121855571Y-103906388D01*
X121860141Y-103904495D01*
X122062057Y-103780761D01*
X122242132Y-103626963D01*
X122395930Y-103446888D01*
X122519664Y-103244972D01*
X122610289Y-103026185D01*
X122665572Y-102795914D01*
X122684152Y-102559831D01*
X122665572Y-102323748D01*
X122610289Y-102093477D01*
X122519664Y-101874690D01*
X122395930Y-101672774D01*
X122242132Y-101492699D01*
X122062057Y-101338901D01*
X121860141Y-101215167D01*
X121855571Y-101213274D01*
X121855567Y-101213272D01*
X121645927Y-101126436D01*
X121645925Y-101126435D01*
X121641354Y-101124542D01*
X121561501Y-101105371D01*
X121415896Y-101070414D01*
X121415890Y-101070413D01*
X121411083Y-101069259D01*
X121175000Y-101050679D01*
X120938917Y-101069259D01*
X120934110Y-101070413D01*
X120934104Y-101070414D01*
X120788499Y-101105371D01*
X120708646Y-101124542D01*
X120704075Y-101126435D01*
X120704073Y-101126436D01*
X120494433Y-101213272D01*
X120494429Y-101213274D01*
X120489859Y-101215167D01*
X120287943Y-101338901D01*
X120107868Y-101492699D01*
X119954070Y-101672774D01*
X119830336Y-101874690D01*
X119739711Y-102093477D01*
X119684428Y-102323748D01*
X119665848Y-102559831D01*
X105429500Y-102559831D01*
X105429500Y-84440331D01*
X105449502Y-84372210D01*
X105503158Y-84325717D01*
X105555500Y-84314331D01*
X136794500Y-84314331D01*
X136862621Y-84334333D01*
G37*
%TD.AperFunction*%
%TD*%
%TA.AperFunction,Conductor*%
%TO.N,GND*%
G36*
X170862621Y-84334333D02*
G01*
X170909114Y-84387989D01*
X170920500Y-84440331D01*
X170920500Y-115679331D01*
X170900498Y-115747452D01*
X170846842Y-115793945D01*
X170794500Y-115805331D01*
X139555500Y-115805331D01*
X139487379Y-115785329D01*
X139440886Y-115731673D01*
X139429500Y-115679331D01*
X139429500Y-102559831D01*
X153665848Y-102559831D01*
X153684428Y-102795914D01*
X153739711Y-103026185D01*
X153830336Y-103244972D01*
X153954070Y-103446888D01*
X154107868Y-103626963D01*
X154287943Y-103780761D01*
X154489859Y-103904495D01*
X154494429Y-103906388D01*
X154494433Y-103906390D01*
X154704073Y-103993226D01*
X154704075Y-103993227D01*
X154708646Y-103995120D01*
X154788499Y-104014291D01*
X154934104Y-104049248D01*
X154934110Y-104049249D01*
X154938917Y-104050403D01*
X155175000Y-104068983D01*
X155411083Y-104050403D01*
X155415890Y-104049249D01*
X155415896Y-104049248D01*
X155561501Y-104014291D01*
X155641354Y-103995120D01*
X155645925Y-103993227D01*
X155645927Y-103993226D01*
X155855567Y-103906390D01*
X155855571Y-103906388D01*
X155860141Y-103904495D01*
X156062057Y-103780761D01*
X156242132Y-103626963D01*
X156395930Y-103446888D01*
X156519664Y-103244972D01*
X156610289Y-103026185D01*
X156665572Y-102795914D01*
X156684152Y-102559831D01*
X156665572Y-102323748D01*
X156610289Y-102093477D01*
X156519664Y-101874690D01*
X156395930Y-101672774D01*
X156242132Y-101492699D01*
X156062057Y-101338901D01*
X155860141Y-101215167D01*
X155855571Y-101213274D01*
X155855567Y-101213272D01*
X155645927Y-101126436D01*
X155645925Y-101126435D01*
X155641354Y-101124542D01*
X155561501Y-101105371D01*
X155415896Y-101070414D01*
X155415890Y-101070413D01*
X155411083Y-101069259D01*
X155175000Y-101050679D01*
X154938917Y-101069259D01*
X154934110Y-101070413D01*
X154934104Y-101070414D01*
X154788499Y-101105371D01*
X154708646Y-101124542D01*
X154704075Y-101126435D01*
X154704073Y-101126436D01*
X154494433Y-101213272D01*
X154494429Y-101213274D01*
X154489859Y-101215167D01*
X154287943Y-101338901D01*
X154107868Y-101492699D01*
X153954070Y-101672774D01*
X153830336Y-101874690D01*
X153739711Y-102093477D01*
X153684428Y-102323748D01*
X153665848Y-102559831D01*
X139429500Y-102559831D01*
X139429500Y-84440331D01*
X139449502Y-84372210D01*
X139503158Y-84325717D01*
X139555500Y-84314331D01*
X170794500Y-84314331D01*
X170862621Y-84334333D01*
G37*
%TD.AperFunction*%
%TD*%
%TA.AperFunction,Conductor*%
%TO.N,GND*%
G36*
X204862621Y-84334333D02*
G01*
X204909114Y-84387989D01*
X204920500Y-84440331D01*
X204920500Y-115679331D01*
X204900498Y-115747452D01*
X204846842Y-115793945D01*
X204794500Y-115805331D01*
X173555500Y-115805331D01*
X173487379Y-115785329D01*
X173440886Y-115731673D01*
X173429500Y-115679331D01*
X173429500Y-102559831D01*
X187665848Y-102559831D01*
X187684428Y-102795914D01*
X187739711Y-103026185D01*
X187830336Y-103244972D01*
X187954070Y-103446888D01*
X188107868Y-103626963D01*
X188287943Y-103780761D01*
X188489859Y-103904495D01*
X188494429Y-103906388D01*
X188494433Y-103906390D01*
X188704073Y-103993226D01*
X188704075Y-103993227D01*
X188708646Y-103995120D01*
X188788499Y-104014291D01*
X188934104Y-104049248D01*
X188934110Y-104049249D01*
X188938917Y-104050403D01*
X189175000Y-104068983D01*
X189411083Y-104050403D01*
X189415890Y-104049249D01*
X189415896Y-104049248D01*
X189561501Y-104014291D01*
X189641354Y-103995120D01*
X189645925Y-103993227D01*
X189645927Y-103993226D01*
X189855567Y-103906390D01*
X189855571Y-103906388D01*
X189860141Y-103904495D01*
X190062057Y-103780761D01*
X190242132Y-103626963D01*
X190395930Y-103446888D01*
X190519664Y-103244972D01*
X190610289Y-103026185D01*
X190665572Y-102795914D01*
X190684152Y-102559831D01*
X190665572Y-102323748D01*
X190610289Y-102093477D01*
X190519664Y-101874690D01*
X190395930Y-101672774D01*
X190242132Y-101492699D01*
X190062057Y-101338901D01*
X189860141Y-101215167D01*
X189855571Y-101213274D01*
X189855567Y-101213272D01*
X189645927Y-101126436D01*
X189645925Y-101126435D01*
X189641354Y-101124542D01*
X189561501Y-101105371D01*
X189415896Y-101070414D01*
X189415890Y-101070413D01*
X189411083Y-101069259D01*
X189175000Y-101050679D01*
X188938917Y-101069259D01*
X188934110Y-101070413D01*
X188934104Y-101070414D01*
X188788499Y-101105371D01*
X188708646Y-101124542D01*
X188704075Y-101126435D01*
X188704073Y-101126436D01*
X188494433Y-101213272D01*
X188494429Y-101213274D01*
X188489859Y-101215167D01*
X188287943Y-101338901D01*
X188107868Y-101492699D01*
X187954070Y-101672774D01*
X187830336Y-101874690D01*
X187739711Y-102093477D01*
X187684428Y-102323748D01*
X187665848Y-102559831D01*
X173429500Y-102559831D01*
X173429500Y-84440331D01*
X173449502Y-84372210D01*
X173503158Y-84325717D01*
X173555500Y-84314331D01*
X204794500Y-84314331D01*
X204862621Y-84334333D01*
G37*
%TD.AperFunction*%
%TD*%
%TA.AperFunction,Conductor*%
%TO.N,GND*%
G36*
X136862621Y-118334333D02*
G01*
X136909114Y-118387989D01*
X136920500Y-118440331D01*
X136920500Y-149679331D01*
X136900498Y-149747452D01*
X136846842Y-149793945D01*
X136794500Y-149805331D01*
X105555500Y-149805331D01*
X105487379Y-149785329D01*
X105440886Y-149731673D01*
X105429500Y-149679331D01*
X105429500Y-136559831D01*
X119665848Y-136559831D01*
X119684428Y-136795914D01*
X119739711Y-137026185D01*
X119830336Y-137244972D01*
X119954070Y-137446888D01*
X120107868Y-137626963D01*
X120287943Y-137780761D01*
X120489859Y-137904495D01*
X120494429Y-137906388D01*
X120494433Y-137906390D01*
X120704073Y-137993226D01*
X120704075Y-137993227D01*
X120708646Y-137995120D01*
X120788499Y-138014291D01*
X120934104Y-138049248D01*
X120934110Y-138049249D01*
X120938917Y-138050403D01*
X121175000Y-138068983D01*
X121411083Y-138050403D01*
X121415890Y-138049249D01*
X121415896Y-138049248D01*
X121561501Y-138014291D01*
X121641354Y-137995120D01*
X121645925Y-137993227D01*
X121645927Y-137993226D01*
X121855567Y-137906390D01*
X121855571Y-137906388D01*
X121860141Y-137904495D01*
X122062057Y-137780761D01*
X122242132Y-137626963D01*
X122395930Y-137446888D01*
X122519664Y-137244972D01*
X122610289Y-137026185D01*
X122665572Y-136795914D01*
X122684152Y-136559831D01*
X122665572Y-136323748D01*
X122610289Y-136093477D01*
X122519664Y-135874690D01*
X122395930Y-135672774D01*
X122242132Y-135492699D01*
X122062057Y-135338901D01*
X121860141Y-135215167D01*
X121855571Y-135213274D01*
X121855567Y-135213272D01*
X121645927Y-135126436D01*
X121645925Y-135126435D01*
X121641354Y-135124542D01*
X121561501Y-135105371D01*
X121415896Y-135070414D01*
X121415890Y-135070413D01*
X121411083Y-135069259D01*
X121175000Y-135050679D01*
X120938917Y-135069259D01*
X120934110Y-135070413D01*
X120934104Y-135070414D01*
X120788499Y-135105371D01*
X120708646Y-135124542D01*
X120704075Y-135126435D01*
X120704073Y-135126436D01*
X120494433Y-135213272D01*
X120494429Y-135213274D01*
X120489859Y-135215167D01*
X120287943Y-135338901D01*
X120107868Y-135492699D01*
X119954070Y-135672774D01*
X119830336Y-135874690D01*
X119739711Y-136093477D01*
X119684428Y-136323748D01*
X119665848Y-136559831D01*
X105429500Y-136559831D01*
X105429500Y-118440331D01*
X105449502Y-118372210D01*
X105503158Y-118325717D01*
X105555500Y-118314331D01*
X136794500Y-118314331D01*
X136862621Y-118334333D01*
G37*
%TD.AperFunction*%
%TD*%
%TA.AperFunction,Conductor*%
%TO.N,GND*%
G36*
X170862621Y-118334333D02*
G01*
X170909114Y-118387989D01*
X170920500Y-118440331D01*
X170920500Y-149679331D01*
X170900498Y-149747452D01*
X170846842Y-149793945D01*
X170794500Y-149805331D01*
X139555500Y-149805331D01*
X139487379Y-149785329D01*
X139440886Y-149731673D01*
X139429500Y-149679331D01*
X139429500Y-136559831D01*
X153665848Y-136559831D01*
X153684428Y-136795914D01*
X153739711Y-137026185D01*
X153830336Y-137244972D01*
X153954070Y-137446888D01*
X154107868Y-137626963D01*
X154287943Y-137780761D01*
X154489859Y-137904495D01*
X154494429Y-137906388D01*
X154494433Y-137906390D01*
X154704073Y-137993226D01*
X154704075Y-137993227D01*
X154708646Y-137995120D01*
X154788499Y-138014291D01*
X154934104Y-138049248D01*
X154934110Y-138049249D01*
X154938917Y-138050403D01*
X155175000Y-138068983D01*
X155411083Y-138050403D01*
X155415890Y-138049249D01*
X155415896Y-138049248D01*
X155561501Y-138014291D01*
X155641354Y-137995120D01*
X155645925Y-137993227D01*
X155645927Y-137993226D01*
X155855567Y-137906390D01*
X155855571Y-137906388D01*
X155860141Y-137904495D01*
X156062057Y-137780761D01*
X156242132Y-137626963D01*
X156395930Y-137446888D01*
X156519664Y-137244972D01*
X156610289Y-137026185D01*
X156665572Y-136795914D01*
X156684152Y-136559831D01*
X156665572Y-136323748D01*
X156610289Y-136093477D01*
X156519664Y-135874690D01*
X156395930Y-135672774D01*
X156242132Y-135492699D01*
X156062057Y-135338901D01*
X155860141Y-135215167D01*
X155855571Y-135213274D01*
X155855567Y-135213272D01*
X155645927Y-135126436D01*
X155645925Y-135126435D01*
X155641354Y-135124542D01*
X155561501Y-135105371D01*
X155415896Y-135070414D01*
X155415890Y-135070413D01*
X155411083Y-135069259D01*
X155175000Y-135050679D01*
X154938917Y-135069259D01*
X154934110Y-135070413D01*
X154934104Y-135070414D01*
X154788499Y-135105371D01*
X154708646Y-135124542D01*
X154704075Y-135126435D01*
X154704073Y-135126436D01*
X154494433Y-135213272D01*
X154494429Y-135213274D01*
X154489859Y-135215167D01*
X154287943Y-135338901D01*
X154107868Y-135492699D01*
X153954070Y-135672774D01*
X153830336Y-135874690D01*
X153739711Y-136093477D01*
X153684428Y-136323748D01*
X153665848Y-136559831D01*
X139429500Y-136559831D01*
X139429500Y-118440331D01*
X139449502Y-118372210D01*
X139503158Y-118325717D01*
X139555500Y-118314331D01*
X170794500Y-118314331D01*
X170862621Y-118334333D01*
G37*
%TD.AperFunction*%
%TD*%
%TA.AperFunction,Conductor*%
%TO.N,GND*%
G36*
X204862621Y-118334333D02*
G01*
X204909114Y-118387989D01*
X204920500Y-118440331D01*
X204920500Y-149679331D01*
X204900498Y-149747452D01*
X204846842Y-149793945D01*
X204794500Y-149805331D01*
X173555500Y-149805331D01*
X173487379Y-149785329D01*
X173440886Y-149731673D01*
X173429500Y-149679331D01*
X173429500Y-136559831D01*
X187665848Y-136559831D01*
X187684428Y-136795914D01*
X187739711Y-137026185D01*
X187830336Y-137244972D01*
X187954070Y-137446888D01*
X188107868Y-137626963D01*
X188287943Y-137780761D01*
X188489859Y-137904495D01*
X188494429Y-137906388D01*
X188494433Y-137906390D01*
X188704073Y-137993226D01*
X188704075Y-137993227D01*
X188708646Y-137995120D01*
X188788499Y-138014291D01*
X188934104Y-138049248D01*
X188934110Y-138049249D01*
X188938917Y-138050403D01*
X189175000Y-138068983D01*
X189411083Y-138050403D01*
X189415890Y-138049249D01*
X189415896Y-138049248D01*
X189561501Y-138014291D01*
X189641354Y-137995120D01*
X189645925Y-137993227D01*
X189645927Y-137993226D01*
X189855567Y-137906390D01*
X189855571Y-137906388D01*
X189860141Y-137904495D01*
X190062057Y-137780761D01*
X190242132Y-137626963D01*
X190395930Y-137446888D01*
X190519664Y-137244972D01*
X190610289Y-137026185D01*
X190665572Y-136795914D01*
X190684152Y-136559831D01*
X190665572Y-136323748D01*
X190610289Y-136093477D01*
X190519664Y-135874690D01*
X190395930Y-135672774D01*
X190242132Y-135492699D01*
X190062057Y-135338901D01*
X189860141Y-135215167D01*
X189855571Y-135213274D01*
X189855567Y-135213272D01*
X189645927Y-135126436D01*
X189645925Y-135126435D01*
X189641354Y-135124542D01*
X189561501Y-135105371D01*
X189415896Y-135070414D01*
X189415890Y-135070413D01*
X189411083Y-135069259D01*
X189175000Y-135050679D01*
X188938917Y-135069259D01*
X188934110Y-135070413D01*
X188934104Y-135070414D01*
X188788499Y-135105371D01*
X188708646Y-135124542D01*
X188704075Y-135126435D01*
X188704073Y-135126436D01*
X188494433Y-135213272D01*
X188494429Y-135213274D01*
X188489859Y-135215167D01*
X188287943Y-135338901D01*
X188107868Y-135492699D01*
X187954070Y-135672774D01*
X187830336Y-135874690D01*
X187739711Y-136093477D01*
X187684428Y-136323748D01*
X187665848Y-136559831D01*
X173429500Y-136559831D01*
X173429500Y-118440331D01*
X173449502Y-118372210D01*
X173503158Y-118325717D01*
X173555500Y-118314331D01*
X204794500Y-118314331D01*
X204862621Y-118334333D01*
G37*
%TD.AperFunction*%
%TD*%
M02*
