M48
; DRILL file {KiCad (6.0.4)} date Tue Sep 20 14:12:43 2022
; FORMAT={-:-/ absolute / metric / decimal}
; #@! TF.CreationDate,2022-09-20T14:12:43+09:00
; #@! TF.GenerationSoftware,Kicad,Pcbnew,(6.0.4)
; #@! TF.FileFunction,MixedPlating,1,2
FMAT,2
METRIC
; #@! TA.AperFunction,Plated,PTH,ViaDrill
T1C0.200
; #@! TA.AperFunction,Plated,PTH,ComponentDrill
T2C0.350
; #@! TA.AperFunction,Plated,PTH,ViaDrill
T3C0.400
; #@! TA.AperFunction,Plated,PTH,ComponentDrill
T4C0.600
; #@! TA.AperFunction,Plated,PTH,ComponentDrill
T5C0.750
; #@! TA.AperFunction,NonPlated,NPTH,ComponentDrill
T6C0.650
; #@! TA.AperFunction,NonPlated,NPTH,ComponentDrill
T7C2.200
%
G90
G05
T1
X148.687Y-71.266
X148.687Y-107.266
X151.2Y-71.2
X151.2Y-107.2
X154.636Y-74.416
X154.636Y-110.416
X154.75Y-77.565
X154.75Y-113.565
X155.393Y-73.489
X155.393Y-109.489
X156.311Y-77.163
X156.311Y-113.163
X156.6Y-78.414
X156.6Y-114.414
X158.992Y-80.003
X158.992Y-116.003
X161.278Y-81.959
X161.278Y-117.959
X162.106Y-79.187
X162.106Y-115.187
X192.687Y-71.266
X192.687Y-107.266
X195.2Y-71.2
X195.2Y-107.2
X198.636Y-74.416
X198.636Y-110.416
X198.75Y-77.565
X198.75Y-113.565
X199.393Y-73.489
X199.393Y-109.489
X200.311Y-77.163
X200.311Y-113.163
X200.6Y-78.414
X200.6Y-114.414
X202.992Y-80.003
X202.992Y-116.003
X205.278Y-81.959
X205.278Y-117.959
X206.106Y-79.187
X206.106Y-115.187
T2
X149.113Y-74.402
X149.113Y-75.677
X149.113Y-76.952
X149.113Y-110.402
X149.113Y-111.677
X149.113Y-112.952
X150.388Y-74.402
X150.388Y-75.677
X150.388Y-76.952
X150.388Y-110.402
X150.388Y-111.677
X150.388Y-112.952
X151.663Y-74.402
X151.663Y-75.677
X151.663Y-76.952
X151.663Y-110.402
X151.663Y-111.677
X151.663Y-112.952
X193.113Y-74.402
X193.113Y-75.677
X193.113Y-76.952
X193.113Y-110.402
X193.113Y-111.677
X193.113Y-112.952
X194.388Y-74.402
X194.388Y-75.677
X194.388Y-76.952
X194.388Y-110.402
X194.388Y-111.677
X194.388Y-112.952
X195.663Y-74.402
X195.663Y-75.677
X195.663Y-76.952
X195.663Y-110.402
X195.663Y-111.677
X195.663Y-112.952
T3
X126.4Y-78.4
X126.4Y-114.4
X126.6Y-70.2
X126.6Y-71.4
X126.6Y-106.2
X126.6Y-107.4
X127.0Y-61.0
X127.0Y-67.0
X127.0Y-74.0
X127.0Y-81.5
X127.0Y-83.0
X127.0Y-85.0
X127.0Y-89.0
X127.0Y-94.0
X127.0Y-97.0
X127.0Y-103.0
X127.0Y-110.0
X127.0Y-117.5
X127.0Y-119.0
X127.0Y-121.0
X127.0Y-125.0
X127.0Y-130.0
X127.5Y-62.0
X127.5Y-65.5
X127.5Y-68.5
X127.5Y-98.0
X127.5Y-101.5
X127.5Y-104.5
X127.6Y-69.4
X127.6Y-105.4
X127.8Y-64.0
X127.8Y-100.0
X127.978Y-84.093
X127.978Y-120.093
X128.0Y-71.6
X128.0Y-90.5
X128.0Y-92.5
X128.0Y-107.6
X128.0Y-126.5
X128.0Y-128.5
X128.41Y-65.805
X128.41Y-101.805
X128.486Y-84.55
X128.486Y-120.55
X128.791Y-60.725
X128.791Y-62.046
X128.791Y-96.725
X128.791Y-98.046
X128.8Y-88.0
X128.8Y-124.0
X129.02Y-84.118
X129.02Y-120.118
X129.321Y-94.0
X129.321Y-130.0
X129.38Y-62.91
X129.38Y-98.91
X129.4Y-71.6
X129.4Y-107.6
X129.496Y-74.491
X129.496Y-110.491
X129.5Y-76.5
X129.5Y-77.5
X129.5Y-79.5
X129.5Y-81.5
X129.5Y-112.5
X129.5Y-113.5
X129.5Y-115.5
X129.5Y-117.5
X129.592Y-60.801
X129.592Y-96.801
X129.8Y-69.8
X129.8Y-73.2
X129.8Y-105.8
X129.8Y-109.2
X130.0Y-92.5
X130.0Y-128.5
X130.123Y-89.874
X130.123Y-125.874
X130.417Y-67.786
X130.417Y-103.786
X131.232Y-60.684
X131.232Y-96.684
X131.241Y-61.36
X131.241Y-97.36
X131.28Y-62.122
X131.28Y-98.122
X131.4Y-87.0
X131.4Y-123.0
X131.5Y-93.978
X131.5Y-129.978
X131.737Y-67.786
X131.737Y-103.786
X132.25Y-81.5
X132.25Y-93.0
X132.25Y-117.5
X132.25Y-129.0
X132.5Y-74.0
X132.5Y-92.0
X132.5Y-110.0
X132.5Y-128.0
X132.722Y-69.616
X132.722Y-105.616
X132.75Y-75.25
X132.75Y-111.25
X133.0Y-64.382
X133.0Y-100.382
X133.2Y-72.6
X133.2Y-108.6
X133.388Y-62.35
X133.388Y-98.35
X133.465Y-93.945
X133.465Y-129.945
X133.566Y-61.665
X133.566Y-97.665
X133.592Y-61.004
X133.592Y-97.004
X133.6Y-70.4
X133.6Y-106.4
X133.75Y-74.0
X133.75Y-110.0
X133.8Y-87.0
X133.8Y-123.0
X134.0Y-66.0
X134.0Y-67.5
X134.0Y-102.0
X134.0Y-103.5
X134.1Y-64.382
X134.1Y-100.382
X134.2Y-80.0
X134.2Y-116.0
X134.379Y-71.367
X134.379Y-107.367
X134.4Y-81.6
X134.4Y-117.6
X135.2Y-64.4
X135.2Y-100.4
X135.25Y-80.75
X135.25Y-82.25
X135.25Y-116.75
X135.25Y-118.25
X135.446Y-67.38
X135.446Y-103.38
X135.5Y-75.5
X135.5Y-111.5
X135.827Y-72.866
X135.827Y-108.866
X135.878Y-85.287
X135.878Y-121.287
X135.979Y-86.201
X135.979Y-122.201
X136.5Y-74.5
X136.5Y-90.5
X136.5Y-110.5
X136.5Y-126.5
X136.504Y-84.577
X136.504Y-120.577
X137.0Y-92.5
X137.0Y-128.5
X137.122Y-75.685
X137.122Y-111.685
X137.49Y-63.995
X137.49Y-99.995
X137.5Y-61.0
X137.5Y-62.5
X137.5Y-67.0
X137.5Y-97.0
X137.5Y-98.5
X137.5Y-103.0
X137.529Y-81.172
X137.529Y-117.172
X137.554Y-81.832
X137.554Y-117.832
X137.579Y-83.722
X137.579Y-119.722
X137.605Y-77.54
X137.605Y-113.54
X138.0Y-69.0
X138.0Y-105.0
X138.25Y-73.75
X138.25Y-109.75
X138.4Y-70.4
X138.4Y-106.4
X138.545Y-91.076
X138.545Y-127.076
X138.773Y-85.353
X138.773Y-121.353
X138.849Y-87.598
X138.849Y-123.598
X139.0Y-61.0
X139.0Y-65.5
X139.0Y-67.0
X139.0Y-97.0
X139.0Y-101.5
X139.0Y-103.0
X139.2Y-81.2
X139.2Y-117.2
X139.8Y-69.2
X139.8Y-105.2
X139.891Y-85.363
X139.891Y-121.363
X140.13Y-79.1
X140.13Y-115.1
X140.134Y-80.757
X140.134Y-116.757
X140.221Y-74.629
X140.221Y-110.629
X140.734Y-71.24
X140.734Y-107.24
X140.754Y-77.387
X140.754Y-113.387
X140.764Y-69.937
X140.764Y-105.937
X140.78Y-79.114
X140.78Y-115.114
X140.831Y-80.689
X140.831Y-116.689
X140.922Y-72.018
X140.922Y-108.018
X141.0Y-94.519
X141.0Y-130.519
X141.2Y-85.8
X141.2Y-121.8
X141.3Y-84.2
X141.3Y-120.2
X141.339Y-75.152
X141.339Y-111.152
X141.5Y-63.4
X141.5Y-99.4
X141.646Y-70.501
X141.646Y-106.501
X141.7Y-66.5
X141.7Y-102.5
X141.8Y-64.9
X141.8Y-100.9
X142.0Y-79.25
X142.0Y-115.25
X142.006Y-62.25
X142.006Y-98.25
X142.4Y-68.4
X142.4Y-104.4
X142.8Y-77.6
X142.8Y-113.6
X143.1Y-63.524
X143.1Y-99.524
X143.325Y-89.3
X143.325Y-125.3
X143.371Y-79.165
X143.371Y-115.165
X143.5Y-91.1
X143.5Y-127.1
X143.7Y-65.4
X143.7Y-92.9
X143.7Y-101.4
X143.7Y-128.9
X143.75Y-66.5
X143.75Y-102.5
X143.8Y-84.4
X143.8Y-120.4
X143.813Y-74.809
X143.813Y-110.809
X144.0Y-86.6
X144.0Y-122.6
X144.006Y-85.261
X144.006Y-121.261
X144.178Y-73.301
X144.178Y-109.301
X144.309Y-78.495
X144.309Y-114.495
X144.336Y-72.358
X144.336Y-108.358
X144.585Y-61.296
X144.585Y-97.296
X144.75Y-66.25
X144.75Y-102.25
X144.763Y-73.923
X144.763Y-109.923
X144.8Y-70.6
X144.8Y-106.6
X144.853Y-82.271
X144.853Y-118.271
X145.195Y-76.048
X145.195Y-112.048
X145.2Y-80.4
X145.2Y-116.4
X145.492Y-93.994
X145.492Y-129.994
X145.572Y-63.028
X145.572Y-99.028
X145.6Y-71.8
X145.6Y-107.8
X145.707Y-70.478
X145.707Y-106.478
X145.75Y-65.75
X145.75Y-101.75
X145.8Y-90.6
X145.8Y-126.6
X145.855Y-72.754
X145.855Y-108.754
X146.0Y-68.6
X146.0Y-84.0
X146.0Y-104.6
X146.0Y-120.0
X146.013Y-76.077
X146.013Y-112.077
X146.25Y-79.25
X146.25Y-115.25
X146.448Y-66.631
X146.448Y-102.631
X146.5Y-63.5
X146.5Y-99.5
X146.7Y-91.5
X146.7Y-127.5
X146.843Y-71.146
X146.843Y-107.146
X146.901Y-86.684
X146.901Y-122.684
X147.4Y-80.2
X147.4Y-116.2
X147.5Y-84.0
X147.5Y-120.0
X148.0Y-63.0
X148.0Y-99.0
X148.011Y-89.2
X148.011Y-125.2
X148.8Y-66.8
X148.8Y-102.8
X149.0Y-62.2
X149.0Y-98.2
X149.238Y-77.876
X149.238Y-113.876
X149.3Y-89.3
X149.3Y-125.3
X149.5Y-63.5
X149.5Y-91.5
X149.5Y-99.5
X149.5Y-127.5
X149.546Y-71.271
X149.546Y-107.271
X149.594Y-65.153
X149.594Y-101.153
X149.771Y-73.603
X149.771Y-109.603
X150.0Y-62.5
X150.0Y-98.5
X150.2Y-60.6
X150.2Y-96.6
X150.252Y-68.997
X150.252Y-104.997
X150.288Y-80.384
X150.288Y-116.384
X150.7Y-89.3
X150.7Y-125.3
X151.0Y-61.5
X151.0Y-63.0
X151.0Y-97.5
X151.0Y-99.0
X151.245Y-69.322
X151.245Y-105.322
X151.5Y-64.5
X151.5Y-100.5
X151.88Y-84.245
X151.88Y-120.245
X151.9Y-91.2
X151.9Y-127.2
X152.3Y-93.9
X152.3Y-129.9
X152.4Y-89.9
X152.4Y-125.9
X152.469Y-70.25
X152.469Y-106.25
X152.493Y-63.993
X152.493Y-99.993
X152.5Y-61.0
X152.5Y-62.5
X152.5Y-65.5
X152.5Y-85.0
X152.5Y-86.5
X152.5Y-97.0
X152.5Y-98.5
X152.5Y-101.5
X152.5Y-121.0
X152.5Y-122.5
X152.87Y-73.247
X152.87Y-109.247
X154.0Y-79.5
X154.0Y-94.4
X154.0Y-115.5
X154.0Y-130.4
X154.168Y-70.678
X154.168Y-106.678
X154.6Y-92.8
X154.6Y-128.8
X154.8Y-64.8
X154.8Y-65.8
X154.8Y-69.8
X154.8Y-100.8
X154.8Y-101.8
X154.8Y-105.8
X154.801Y-79.038
X154.801Y-115.038
X155.0Y-60.5
X155.0Y-61.5
X155.0Y-63.0
X155.0Y-67.6
X155.0Y-68.6
X155.0Y-90.8
X155.0Y-96.5
X155.0Y-97.5
X155.0Y-99.0
X155.0Y-103.6
X155.0Y-104.6
X155.0Y-126.8
X155.334Y-88.245
X155.334Y-124.245
X155.735Y-74.588
X155.735Y-110.588
X155.8Y-83.8
X155.8Y-85.8
X155.8Y-119.8
X155.8Y-121.8
X155.918Y-62.325
X155.918Y-98.325
X156.121Y-63.443
X156.121Y-99.443
X156.172Y-67.608
X156.172Y-103.608
X156.5Y-72.434
X156.5Y-108.434
X156.54Y-60.877
X156.54Y-61.614
X156.54Y-96.877
X156.54Y-97.614
X156.8Y-92.4
X156.8Y-128.4
X156.995Y-84.481
X156.995Y-120.481
X157.0Y-83.0
X157.0Y-86.0
X157.0Y-119.0
X157.0Y-122.0
X157.8Y-91.2
X157.8Y-94.0
X157.8Y-127.2
X157.8Y-130.0
X158.19Y-61.0
X158.19Y-61.715
X158.19Y-97.0
X158.19Y-97.715
X158.29Y-70.378
X158.29Y-106.378
X158.5Y-62.307
X158.5Y-98.307
X159.0Y-83.0
X159.0Y-84.5
X159.0Y-86.0
X159.0Y-92.4
X159.0Y-119.0
X159.0Y-120.5
X159.0Y-122.0
X159.0Y-128.4
X160.4Y-61.8
X160.4Y-97.8
X160.5Y-71.5
X160.5Y-107.5
X160.687Y-77.101
X160.687Y-113.101
X160.922Y-61.004
X160.922Y-97.004
X161.127Y-61.782
X161.127Y-97.782
X161.201Y-90.9
X161.201Y-126.9
X161.5Y-65.5
X161.5Y-101.5
X162.0Y-62.0
X162.0Y-63.5
X162.0Y-92.5
X162.0Y-98.0
X162.0Y-99.5
X162.0Y-128.5
X162.192Y-75.101
X162.192Y-111.101
X162.5Y-67.0
X162.5Y-87.5
X162.5Y-94.0
X162.5Y-103.0
X162.5Y-123.5
X162.5Y-130.0
X163.0Y-61.0
X163.0Y-97.0
X170.4Y-78.4
X170.4Y-114.4
X170.6Y-70.2
X170.6Y-71.4
X170.6Y-106.2
X170.6Y-107.4
X171.0Y-61.0
X171.0Y-67.0
X171.0Y-74.0
X171.0Y-81.5
X171.0Y-83.0
X171.0Y-85.0
X171.0Y-89.0
X171.0Y-94.0
X171.0Y-97.0
X171.0Y-103.0
X171.0Y-110.0
X171.0Y-117.5
X171.0Y-119.0
X171.0Y-121.0
X171.0Y-125.0
X171.0Y-130.0
X171.5Y-62.0
X171.5Y-65.5
X171.5Y-68.5
X171.5Y-98.0
X171.5Y-101.5
X171.5Y-104.5
X171.6Y-69.4
X171.6Y-105.4
X171.8Y-64.0
X171.8Y-100.0
X171.978Y-84.093
X171.978Y-120.093
X172.0Y-71.6
X172.0Y-90.5
X172.0Y-92.5
X172.0Y-107.6
X172.0Y-126.5
X172.0Y-128.5
X172.41Y-65.805
X172.41Y-101.805
X172.486Y-84.55
X172.486Y-120.55
X172.791Y-60.725
X172.791Y-62.046
X172.791Y-96.725
X172.791Y-98.046
X172.8Y-88.0
X172.8Y-124.0
X173.02Y-84.118
X173.02Y-120.118
X173.321Y-94.0
X173.321Y-130.0
X173.38Y-62.91
X173.38Y-98.91
X173.4Y-71.6
X173.4Y-107.6
X173.496Y-74.491
X173.496Y-110.491
X173.5Y-76.5
X173.5Y-77.5
X173.5Y-79.5
X173.5Y-81.5
X173.5Y-112.5
X173.5Y-113.5
X173.5Y-115.5
X173.5Y-117.5
X173.592Y-60.801
X173.592Y-96.801
X173.8Y-69.8
X173.8Y-73.2
X173.8Y-105.8
X173.8Y-109.2
X174.0Y-92.5
X174.0Y-128.5
X174.123Y-89.874
X174.123Y-125.874
X174.417Y-67.786
X174.417Y-103.786
X175.232Y-60.684
X175.232Y-96.684
X175.241Y-61.36
X175.241Y-97.36
X175.28Y-62.122
X175.28Y-98.122
X175.4Y-87.0
X175.4Y-123.0
X175.5Y-93.978
X175.5Y-129.978
X175.737Y-67.786
X175.737Y-103.786
X176.25Y-81.5
X176.25Y-93.0
X176.25Y-117.5
X176.25Y-129.0
X176.5Y-74.0
X176.5Y-92.0
X176.5Y-110.0
X176.5Y-128.0
X176.722Y-69.616
X176.722Y-105.616
X176.75Y-75.25
X176.75Y-111.25
X177.0Y-64.382
X177.0Y-100.382
X177.2Y-72.6
X177.2Y-108.6
X177.388Y-62.35
X177.388Y-98.35
X177.465Y-93.945
X177.465Y-129.945
X177.566Y-61.665
X177.566Y-97.665
X177.592Y-61.004
X177.592Y-97.004
X177.6Y-70.4
X177.6Y-106.4
X177.75Y-74.0
X177.75Y-110.0
X177.8Y-87.0
X177.8Y-123.0
X178.0Y-66.0
X178.0Y-67.5
X178.0Y-102.0
X178.0Y-103.5
X178.1Y-64.382
X178.1Y-100.382
X178.2Y-80.0
X178.2Y-116.0
X178.379Y-71.367
X178.379Y-107.367
X178.4Y-81.6
X178.4Y-117.6
X179.2Y-64.4
X179.2Y-100.4
X179.25Y-80.75
X179.25Y-82.25
X179.25Y-116.75
X179.25Y-118.25
X179.446Y-67.38
X179.446Y-103.38
X179.5Y-75.5
X179.5Y-111.5
X179.827Y-72.866
X179.827Y-108.866
X179.878Y-85.287
X179.878Y-121.287
X179.979Y-86.201
X179.979Y-122.201
X180.5Y-74.5
X180.5Y-90.5
X180.5Y-110.5
X180.5Y-126.5
X180.504Y-84.577
X180.504Y-120.577
X181.0Y-92.5
X181.0Y-128.5
X181.122Y-75.685
X181.122Y-111.685
X181.49Y-63.995
X181.49Y-99.995
X181.5Y-61.0
X181.5Y-62.5
X181.5Y-67.0
X181.5Y-97.0
X181.5Y-98.5
X181.5Y-103.0
X181.529Y-81.172
X181.529Y-117.172
X181.554Y-81.832
X181.554Y-117.832
X181.579Y-83.722
X181.579Y-119.722
X181.605Y-77.54
X181.605Y-113.54
X182.0Y-69.0
X182.0Y-105.0
X182.25Y-73.75
X182.25Y-109.75
X182.4Y-70.4
X182.4Y-106.4
X182.545Y-91.076
X182.545Y-127.076
X182.773Y-85.353
X182.773Y-121.353
X182.849Y-87.598
X182.849Y-123.598
X183.0Y-61.0
X183.0Y-65.5
X183.0Y-67.0
X183.0Y-97.0
X183.0Y-101.5
X183.0Y-103.0
X183.2Y-81.2
X183.2Y-117.2
X183.8Y-69.2
X183.8Y-105.2
X183.891Y-85.363
X183.891Y-121.363
X184.13Y-79.1
X184.13Y-115.1
X184.134Y-80.757
X184.134Y-116.757
X184.221Y-74.629
X184.221Y-110.629
X184.734Y-71.24
X184.734Y-107.24
X184.754Y-77.387
X184.754Y-113.387
X184.764Y-69.937
X184.764Y-105.937
X184.78Y-79.114
X184.78Y-115.114
X184.831Y-80.689
X184.831Y-116.689
X184.922Y-72.018
X184.922Y-108.018
X185.0Y-94.519
X185.0Y-130.519
X185.2Y-85.8
X185.2Y-121.8
X185.3Y-84.2
X185.3Y-120.2
X185.339Y-75.152
X185.339Y-111.152
X185.5Y-63.4
X185.5Y-99.4
X185.646Y-70.501
X185.646Y-106.501
X185.7Y-66.5
X185.7Y-102.5
X185.8Y-64.9
X185.8Y-100.9
X186.0Y-79.25
X186.0Y-115.25
X186.006Y-62.25
X186.006Y-98.25
X186.4Y-68.4
X186.4Y-104.4
X186.8Y-77.6
X186.8Y-113.6
X187.1Y-63.524
X187.1Y-99.524
X187.325Y-89.3
X187.325Y-125.3
X187.371Y-79.165
X187.371Y-115.165
X187.5Y-91.1
X187.5Y-127.1
X187.7Y-65.4
X187.7Y-92.9
X187.7Y-101.4
X187.7Y-128.9
X187.75Y-66.5
X187.75Y-102.5
X187.8Y-84.4
X187.8Y-120.4
X187.813Y-74.809
X187.813Y-110.809
X188.0Y-86.6
X188.0Y-122.6
X188.006Y-85.261
X188.006Y-121.261
X188.178Y-73.301
X188.178Y-109.301
X188.309Y-78.495
X188.309Y-114.495
X188.336Y-72.358
X188.336Y-108.358
X188.585Y-61.296
X188.585Y-97.296
X188.75Y-66.25
X188.75Y-102.25
X188.763Y-73.923
X188.763Y-109.923
X188.8Y-70.6
X188.8Y-106.6
X188.853Y-82.271
X188.853Y-118.271
X189.195Y-76.048
X189.195Y-112.048
X189.2Y-80.4
X189.2Y-116.4
X189.492Y-93.994
X189.492Y-129.994
X189.572Y-63.028
X189.572Y-99.028
X189.6Y-71.8
X189.6Y-107.8
X189.707Y-70.478
X189.707Y-106.478
X189.75Y-65.75
X189.75Y-101.75
X189.8Y-90.6
X189.8Y-126.6
X189.855Y-72.754
X189.855Y-108.754
X190.0Y-68.6
X190.0Y-84.0
X190.0Y-104.6
X190.0Y-120.0
X190.013Y-76.077
X190.013Y-112.077
X190.25Y-79.25
X190.25Y-115.25
X190.448Y-66.631
X190.448Y-102.631
X190.5Y-63.5
X190.5Y-99.5
X190.7Y-91.5
X190.7Y-127.5
X190.843Y-71.146
X190.843Y-107.146
X190.901Y-86.684
X190.901Y-122.684
X191.4Y-80.2
X191.4Y-116.2
X191.5Y-84.0
X191.5Y-120.0
X192.0Y-63.0
X192.0Y-99.0
X192.011Y-89.2
X192.011Y-125.2
X192.8Y-66.8
X192.8Y-102.8
X193.0Y-62.2
X193.0Y-98.2
X193.238Y-77.876
X193.238Y-113.876
X193.3Y-89.3
X193.3Y-125.3
X193.5Y-63.5
X193.5Y-91.5
X193.5Y-99.5
X193.5Y-127.5
X193.546Y-71.271
X193.546Y-107.271
X193.594Y-65.153
X193.594Y-101.153
X193.771Y-73.603
X193.771Y-109.603
X194.0Y-62.5
X194.0Y-98.5
X194.2Y-60.6
X194.2Y-96.6
X194.252Y-68.997
X194.252Y-104.997
X194.288Y-80.384
X194.288Y-116.384
X194.7Y-89.3
X194.7Y-125.3
X195.0Y-61.5
X195.0Y-63.0
X195.0Y-97.5
X195.0Y-99.0
X195.245Y-69.322
X195.245Y-105.322
X195.5Y-64.5
X195.5Y-100.5
X195.88Y-84.245
X195.88Y-120.245
X195.9Y-91.2
X195.9Y-127.2
X196.3Y-93.9
X196.3Y-129.9
X196.4Y-89.9
X196.4Y-125.9
X196.469Y-70.25
X196.469Y-106.25
X196.493Y-63.993
X196.493Y-99.993
X196.5Y-61.0
X196.5Y-62.5
X196.5Y-65.5
X196.5Y-85.0
X196.5Y-86.5
X196.5Y-97.0
X196.5Y-98.5
X196.5Y-101.5
X196.5Y-121.0
X196.5Y-122.5
X196.87Y-73.247
X196.87Y-109.247
X198.0Y-79.5
X198.0Y-94.4
X198.0Y-115.5
X198.0Y-130.4
X198.168Y-70.678
X198.168Y-106.678
X198.6Y-92.8
X198.6Y-128.8
X198.8Y-64.8
X198.8Y-65.8
X198.8Y-69.8
X198.8Y-100.8
X198.8Y-101.8
X198.8Y-105.8
X198.801Y-79.038
X198.801Y-115.038
X199.0Y-60.5
X199.0Y-61.5
X199.0Y-63.0
X199.0Y-67.6
X199.0Y-68.6
X199.0Y-90.8
X199.0Y-96.5
X199.0Y-97.5
X199.0Y-99.0
X199.0Y-103.6
X199.0Y-104.6
X199.0Y-126.8
X199.334Y-88.245
X199.334Y-124.245
X199.735Y-74.588
X199.735Y-110.588
X199.8Y-83.8
X199.8Y-85.8
X199.8Y-119.8
X199.8Y-121.8
X199.918Y-62.325
X199.918Y-98.325
X200.121Y-63.443
X200.121Y-99.443
X200.172Y-67.608
X200.172Y-103.608
X200.5Y-72.434
X200.5Y-108.434
X200.54Y-60.877
X200.54Y-61.614
X200.54Y-96.877
X200.54Y-97.614
X200.8Y-92.4
X200.8Y-128.4
X200.995Y-84.481
X200.995Y-120.481
X201.0Y-83.0
X201.0Y-86.0
X201.0Y-119.0
X201.0Y-122.0
X201.8Y-91.2
X201.8Y-94.0
X201.8Y-127.2
X201.8Y-130.0
X202.19Y-61.0
X202.19Y-61.715
X202.19Y-97.0
X202.19Y-97.715
X202.29Y-70.378
X202.29Y-106.378
X202.5Y-62.307
X202.5Y-98.307
X203.0Y-83.0
X203.0Y-84.5
X203.0Y-86.0
X203.0Y-92.4
X203.0Y-119.0
X203.0Y-120.5
X203.0Y-122.0
X203.0Y-128.4
X204.4Y-61.8
X204.4Y-97.8
X204.5Y-71.5
X204.5Y-107.5
X204.687Y-77.101
X204.687Y-113.101
X204.922Y-61.004
X204.922Y-97.004
X205.127Y-61.782
X205.127Y-97.782
X205.201Y-90.9
X205.201Y-126.9
X205.5Y-65.5
X205.5Y-101.5
X206.0Y-62.0
X206.0Y-63.5
X206.0Y-92.5
X206.0Y-98.0
X206.0Y-99.5
X206.0Y-128.5
X206.192Y-75.101
X206.192Y-111.101
X206.5Y-67.0
X206.5Y-87.5
X206.5Y-94.0
X206.5Y-103.0
X206.5Y-123.5
X206.5Y-130.0
X207.0Y-61.0
X207.0Y-97.0
T5
X130.836Y-88.309
X130.836Y-124.309
X132.836Y-88.309
X132.836Y-124.309
X134.836Y-88.309
X134.836Y-124.309
X174.836Y-88.309
X174.836Y-124.309
X176.836Y-88.309
X176.836Y-124.309
X178.836Y-88.309
X178.836Y-124.309
T6
X146.36Y-88.97
X146.36Y-124.97
X152.14Y-88.97
X152.14Y-124.97
X190.36Y-88.97
X190.36Y-124.97
X196.14Y-88.97
X196.14Y-124.97
T7
X126.0Y-64.0
X126.0Y-91.0
X126.0Y-100.0
X126.0Y-127.0
X164.0Y-63.925
X164.0Y-91.0
X164.0Y-91.0
X164.0Y-99.925
X164.0Y-127.0
X164.0Y-127.0
X170.0Y-64.0
X170.0Y-91.0
X170.0Y-100.0
X170.0Y-127.0
X208.0Y-63.925
X208.0Y-91.0
X208.0Y-91.0
X208.0Y-99.925
X208.0Y-127.0
X208.0Y-127.0
T4
G00X144.93Y-89.02
M15
G01X144.93Y-87.92
M16
G05
G00X144.93Y-93.05
M15
G01X144.93Y-92.25
M16
G05
G00X144.93Y-125.02
M15
G01X144.93Y-123.92
M16
G05
G00X144.93Y-129.05
M15
G01X144.93Y-128.25
M16
G05
G00X153.57Y-89.02
M15
G01X153.57Y-87.92
M16
G05
G00X153.57Y-93.05
M15
G01X153.57Y-92.25
M16
G05
G00X153.57Y-125.02
M15
G01X153.57Y-123.92
M16
G05
G00X153.57Y-129.05
M15
G01X153.57Y-128.25
M16
G05
G00X188.93Y-89.02
M15
G01X188.93Y-87.92
M16
G05
G00X188.93Y-93.05
M15
G01X188.93Y-92.25
M16
G05
G00X188.93Y-125.02
M15
G01X188.93Y-123.92
M16
G05
G00X188.93Y-129.05
M15
G01X188.93Y-128.25
M16
G05
G00X197.57Y-89.02
M15
G01X197.57Y-87.92
M16
G05
G00X197.57Y-93.05
M15
G01X197.57Y-92.25
M16
G05
G00X197.57Y-125.02
M15
G01X197.57Y-123.92
M16
G05
G00X197.57Y-129.05
M15
G01X197.57Y-128.25
M16
G05
T0
M30
