%TF.GenerationSoftware,KiCad,Pcbnew,(6.0.4)*%
%TF.CreationDate,2022-09-20T14:12:37+09:00*%
%TF.ProjectId,mainboard_p_rev2,6d61696e-626f-4617-9264-5f705f726576,rev?*%
%TF.SameCoordinates,Original*%
%TF.FileFunction,Legend,Bot*%
%TF.FilePolarity,Positive*%
%FSLAX46Y46*%
G04 Gerber Fmt 4.6, Leading zero omitted, Abs format (unit mm)*
G04 Created by KiCad (PCBNEW (6.0.4)) date 2022-09-20 14:12:37*
%MOMM*%
%LPD*%
G01*
G04 APERTURE LIST*
%ADD10C,0.150000*%
%ADD11C,0.254000*%
%ADD12C,0.120000*%
%ADD13C,0.200000*%
G04 APERTURE END LIST*
D10*
%TO.C,C107*%
X194319047Y-131907142D02*
X194366666Y-131954761D01*
X194509523Y-132002380D01*
X194604761Y-132002380D01*
X194747619Y-131954761D01*
X194842857Y-131859523D01*
X194890476Y-131764285D01*
X194938095Y-131573809D01*
X194938095Y-131430952D01*
X194890476Y-131240476D01*
X194842857Y-131145238D01*
X194747619Y-131050000D01*
X194604761Y-131002380D01*
X194509523Y-131002380D01*
X194366666Y-131050000D01*
X194319047Y-131097619D01*
X193366666Y-132002380D02*
X193938095Y-132002380D01*
X193652380Y-132002380D02*
X193652380Y-131002380D01*
X193747619Y-131145238D01*
X193842857Y-131240476D01*
X193938095Y-131288095D01*
X192747619Y-131002380D02*
X192652380Y-131002380D01*
X192557142Y-131050000D01*
X192509523Y-131097619D01*
X192461904Y-131192857D01*
X192414285Y-131383333D01*
X192414285Y-131621428D01*
X192461904Y-131811904D01*
X192509523Y-131907142D01*
X192557142Y-131954761D01*
X192652380Y-132002380D01*
X192747619Y-132002380D01*
X192842857Y-131954761D01*
X192890476Y-131907142D01*
X192938095Y-131811904D01*
X192985714Y-131621428D01*
X192985714Y-131383333D01*
X192938095Y-131192857D01*
X192890476Y-131097619D01*
X192842857Y-131050000D01*
X192747619Y-131002380D01*
X192080952Y-131002380D02*
X191414285Y-131002380D01*
X191842857Y-132002380D01*
%TO.C,J29*%
X175886523Y-118966380D02*
X175886523Y-119680666D01*
X175934142Y-119823523D01*
X176029380Y-119918761D01*
X176172238Y-119966380D01*
X176267476Y-119966380D01*
X175457952Y-119061619D02*
X175410333Y-119014000D01*
X175315095Y-118966380D01*
X175077000Y-118966380D01*
X174981761Y-119014000D01*
X174934142Y-119061619D01*
X174886523Y-119156857D01*
X174886523Y-119252095D01*
X174934142Y-119394952D01*
X175505571Y-119966380D01*
X174886523Y-119966380D01*
X174410333Y-119966380D02*
X174219857Y-119966380D01*
X174124619Y-119918761D01*
X174077000Y-119871142D01*
X173981761Y-119728285D01*
X173934142Y-119537809D01*
X173934142Y-119156857D01*
X173981761Y-119061619D01*
X174029380Y-119014000D01*
X174124619Y-118966380D01*
X174315095Y-118966380D01*
X174410333Y-119014000D01*
X174457952Y-119061619D01*
X174505571Y-119156857D01*
X174505571Y-119394952D01*
X174457952Y-119490190D01*
X174410333Y-119537809D01*
X174315095Y-119585428D01*
X174124619Y-119585428D01*
X174029380Y-119537809D01*
X173981761Y-119490190D01*
X173934142Y-119394952D01*
%TO.C,R86*%
X191022380Y-125957142D02*
X190546190Y-125623809D01*
X191022380Y-125385714D02*
X190022380Y-125385714D01*
X190022380Y-125766666D01*
X190070000Y-125861904D01*
X190117619Y-125909523D01*
X190212857Y-125957142D01*
X190355714Y-125957142D01*
X190450952Y-125909523D01*
X190498571Y-125861904D01*
X190546190Y-125766666D01*
X190546190Y-125385714D01*
X190450952Y-126528571D02*
X190403333Y-126433333D01*
X190355714Y-126385714D01*
X190260476Y-126338095D01*
X190212857Y-126338095D01*
X190117619Y-126385714D01*
X190070000Y-126433333D01*
X190022380Y-126528571D01*
X190022380Y-126719047D01*
X190070000Y-126814285D01*
X190117619Y-126861904D01*
X190212857Y-126909523D01*
X190260476Y-126909523D01*
X190355714Y-126861904D01*
X190403333Y-126814285D01*
X190450952Y-126719047D01*
X190450952Y-126528571D01*
X190498571Y-126433333D01*
X190546190Y-126385714D01*
X190641428Y-126338095D01*
X190831904Y-126338095D01*
X190927142Y-126385714D01*
X190974761Y-126433333D01*
X191022380Y-126528571D01*
X191022380Y-126719047D01*
X190974761Y-126814285D01*
X190927142Y-126861904D01*
X190831904Y-126909523D01*
X190641428Y-126909523D01*
X190546190Y-126861904D01*
X190498571Y-126814285D01*
X190450952Y-126719047D01*
X190022380Y-127766666D02*
X190022380Y-127576190D01*
X190070000Y-127480952D01*
X190117619Y-127433333D01*
X190260476Y-127338095D01*
X190450952Y-127290476D01*
X190831904Y-127290476D01*
X190927142Y-127338095D01*
X190974761Y-127385714D01*
X191022380Y-127480952D01*
X191022380Y-127671428D01*
X190974761Y-127766666D01*
X190927142Y-127814285D01*
X190831904Y-127861904D01*
X190593809Y-127861904D01*
X190498571Y-127814285D01*
X190450952Y-127766666D01*
X190403333Y-127671428D01*
X190403333Y-127480952D01*
X190450952Y-127385714D01*
X190498571Y-127338095D01*
X190593809Y-127290476D01*
D11*
%TO.C,IC14*%
X182153923Y-115352676D02*
X180883923Y-115352676D01*
X182032971Y-116683152D02*
X182093447Y-116622676D01*
X182153923Y-116441247D01*
X182153923Y-116320295D01*
X182093447Y-116138866D01*
X181972495Y-116017914D01*
X181851542Y-115957438D01*
X181609638Y-115896961D01*
X181428209Y-115896961D01*
X181186304Y-115957438D01*
X181065352Y-116017914D01*
X180944400Y-116138866D01*
X180883923Y-116320295D01*
X180883923Y-116441247D01*
X180944400Y-116622676D01*
X181004876Y-116683152D01*
X182153923Y-117892676D02*
X182153923Y-117166961D01*
X182153923Y-117529819D02*
X180883923Y-117529819D01*
X181065352Y-117408866D01*
X181186304Y-117287914D01*
X181246780Y-117166961D01*
X181307257Y-118981247D02*
X182153923Y-118981247D01*
X180823447Y-118678866D02*
X181730590Y-118376485D01*
X181730590Y-119162676D01*
D10*
%TO.C,C96*%
X200688057Y-116850742D02*
X200735676Y-116898361D01*
X200878533Y-116945980D01*
X200973771Y-116945980D01*
X201116628Y-116898361D01*
X201211866Y-116803123D01*
X201259485Y-116707885D01*
X201307104Y-116517409D01*
X201307104Y-116374552D01*
X201259485Y-116184076D01*
X201211866Y-116088838D01*
X201116628Y-115993600D01*
X200973771Y-115945980D01*
X200878533Y-115945980D01*
X200735676Y-115993600D01*
X200688057Y-116041219D01*
X200211866Y-116945980D02*
X200021390Y-116945980D01*
X199926152Y-116898361D01*
X199878533Y-116850742D01*
X199783295Y-116707885D01*
X199735676Y-116517409D01*
X199735676Y-116136457D01*
X199783295Y-116041219D01*
X199830914Y-115993600D01*
X199926152Y-115945980D01*
X200116628Y-115945980D01*
X200211866Y-115993600D01*
X200259485Y-116041219D01*
X200307104Y-116136457D01*
X200307104Y-116374552D01*
X200259485Y-116469790D01*
X200211866Y-116517409D01*
X200116628Y-116565028D01*
X199926152Y-116565028D01*
X199830914Y-116517409D01*
X199783295Y-116469790D01*
X199735676Y-116374552D01*
X198878533Y-115945980D02*
X199069009Y-115945980D01*
X199164247Y-115993600D01*
X199211866Y-116041219D01*
X199307104Y-116184076D01*
X199354723Y-116374552D01*
X199354723Y-116755504D01*
X199307104Y-116850742D01*
X199259485Y-116898361D01*
X199164247Y-116945980D01*
X198973771Y-116945980D01*
X198878533Y-116898361D01*
X198830914Y-116850742D01*
X198783295Y-116755504D01*
X198783295Y-116517409D01*
X198830914Y-116422171D01*
X198878533Y-116374552D01*
X198973771Y-116326933D01*
X199164247Y-116326933D01*
X199259485Y-116374552D01*
X199307104Y-116422171D01*
X199354723Y-116517409D01*
D11*
%TO.C,Q12*%
X186353914Y-124293476D02*
X186474866Y-124233000D01*
X186595819Y-124112047D01*
X186777247Y-123930619D01*
X186898200Y-123870142D01*
X187019152Y-123870142D01*
X186958676Y-124172523D02*
X187079628Y-124112047D01*
X187200580Y-123991095D01*
X187261057Y-123749190D01*
X187261057Y-123325857D01*
X187200580Y-123083952D01*
X187079628Y-122963000D01*
X186958676Y-122902523D01*
X186716771Y-122902523D01*
X186595819Y-122963000D01*
X186474866Y-123083952D01*
X186414390Y-123325857D01*
X186414390Y-123749190D01*
X186474866Y-123991095D01*
X186595819Y-124112047D01*
X186716771Y-124172523D01*
X186958676Y-124172523D01*
X185204866Y-124172523D02*
X185930580Y-124172523D01*
X185567723Y-124172523D02*
X185567723Y-122902523D01*
X185688676Y-123083952D01*
X185809628Y-123204904D01*
X185930580Y-123265380D01*
X184721057Y-123023476D02*
X184660580Y-122963000D01*
X184539628Y-122902523D01*
X184237247Y-122902523D01*
X184116295Y-122963000D01*
X184055819Y-123023476D01*
X183995342Y-123144428D01*
X183995342Y-123265380D01*
X184055819Y-123446809D01*
X184781533Y-124172523D01*
X183995342Y-124172523D01*
D10*
%TO.C,R87*%
X203019780Y-100298342D02*
X202543590Y-99965009D01*
X203019780Y-99726914D02*
X202019780Y-99726914D01*
X202019780Y-100107866D01*
X202067400Y-100203104D01*
X202115019Y-100250723D01*
X202210257Y-100298342D01*
X202353114Y-100298342D01*
X202448352Y-100250723D01*
X202495971Y-100203104D01*
X202543590Y-100107866D01*
X202543590Y-99726914D01*
X202448352Y-100869771D02*
X202400733Y-100774533D01*
X202353114Y-100726914D01*
X202257876Y-100679295D01*
X202210257Y-100679295D01*
X202115019Y-100726914D01*
X202067400Y-100774533D01*
X202019780Y-100869771D01*
X202019780Y-101060247D01*
X202067400Y-101155485D01*
X202115019Y-101203104D01*
X202210257Y-101250723D01*
X202257876Y-101250723D01*
X202353114Y-101203104D01*
X202400733Y-101155485D01*
X202448352Y-101060247D01*
X202448352Y-100869771D01*
X202495971Y-100774533D01*
X202543590Y-100726914D01*
X202638828Y-100679295D01*
X202829304Y-100679295D01*
X202924542Y-100726914D01*
X202972161Y-100774533D01*
X203019780Y-100869771D01*
X203019780Y-101060247D01*
X202972161Y-101155485D01*
X202924542Y-101203104D01*
X202829304Y-101250723D01*
X202638828Y-101250723D01*
X202543590Y-101203104D01*
X202495971Y-101155485D01*
X202448352Y-101060247D01*
X202019780Y-101584057D02*
X202019780Y-102250723D01*
X203019780Y-101822152D01*
%TO.C,C116*%
X203323247Y-108583942D02*
X203370866Y-108631561D01*
X203513723Y-108679180D01*
X203608961Y-108679180D01*
X203751819Y-108631561D01*
X203847057Y-108536323D01*
X203894676Y-108441085D01*
X203942295Y-108250609D01*
X203942295Y-108107752D01*
X203894676Y-107917276D01*
X203847057Y-107822038D01*
X203751819Y-107726800D01*
X203608961Y-107679180D01*
X203513723Y-107679180D01*
X203370866Y-107726800D01*
X203323247Y-107774419D01*
X202370866Y-108679180D02*
X202942295Y-108679180D01*
X202656580Y-108679180D02*
X202656580Y-107679180D01*
X202751819Y-107822038D01*
X202847057Y-107917276D01*
X202942295Y-107964895D01*
X201418485Y-108679180D02*
X201989914Y-108679180D01*
X201704200Y-108679180D02*
X201704200Y-107679180D01*
X201799438Y-107822038D01*
X201894676Y-107917276D01*
X201989914Y-107964895D01*
X200561342Y-107679180D02*
X200751819Y-107679180D01*
X200847057Y-107726800D01*
X200894676Y-107774419D01*
X200989914Y-107917276D01*
X201037533Y-108107752D01*
X201037533Y-108488704D01*
X200989914Y-108583942D01*
X200942295Y-108631561D01*
X200847057Y-108679180D01*
X200656580Y-108679180D01*
X200561342Y-108631561D01*
X200513723Y-108583942D01*
X200466104Y-108488704D01*
X200466104Y-108250609D01*
X200513723Y-108155371D01*
X200561342Y-108107752D01*
X200656580Y-108060133D01*
X200847057Y-108060133D01*
X200942295Y-108107752D01*
X200989914Y-108155371D01*
X201037533Y-108250609D01*
%TO.C,M8*%
X171681980Y-96601076D02*
X170681980Y-96601076D01*
X171396266Y-96934409D01*
X170681980Y-97267742D01*
X171681980Y-97267742D01*
X171110552Y-97886790D02*
X171062933Y-97791552D01*
X171015314Y-97743933D01*
X170920076Y-97696314D01*
X170872457Y-97696314D01*
X170777219Y-97743933D01*
X170729600Y-97791552D01*
X170681980Y-97886790D01*
X170681980Y-98077266D01*
X170729600Y-98172504D01*
X170777219Y-98220123D01*
X170872457Y-98267742D01*
X170920076Y-98267742D01*
X171015314Y-98220123D01*
X171062933Y-98172504D01*
X171110552Y-98077266D01*
X171110552Y-97886790D01*
X171158171Y-97791552D01*
X171205790Y-97743933D01*
X171301028Y-97696314D01*
X171491504Y-97696314D01*
X171586742Y-97743933D01*
X171634361Y-97791552D01*
X171681980Y-97886790D01*
X171681980Y-98077266D01*
X171634361Y-98172504D01*
X171586742Y-98220123D01*
X171491504Y-98267742D01*
X171301028Y-98267742D01*
X171205790Y-98220123D01*
X171158171Y-98172504D01*
X171110552Y-98077266D01*
%TO.C,R85*%
X193722380Y-126057142D02*
X193246190Y-125723809D01*
X193722380Y-125485714D02*
X192722380Y-125485714D01*
X192722380Y-125866666D01*
X192770000Y-125961904D01*
X192817619Y-126009523D01*
X192912857Y-126057142D01*
X193055714Y-126057142D01*
X193150952Y-126009523D01*
X193198571Y-125961904D01*
X193246190Y-125866666D01*
X193246190Y-125485714D01*
X193150952Y-126628571D02*
X193103333Y-126533333D01*
X193055714Y-126485714D01*
X192960476Y-126438095D01*
X192912857Y-126438095D01*
X192817619Y-126485714D01*
X192770000Y-126533333D01*
X192722380Y-126628571D01*
X192722380Y-126819047D01*
X192770000Y-126914285D01*
X192817619Y-126961904D01*
X192912857Y-127009523D01*
X192960476Y-127009523D01*
X193055714Y-126961904D01*
X193103333Y-126914285D01*
X193150952Y-126819047D01*
X193150952Y-126628571D01*
X193198571Y-126533333D01*
X193246190Y-126485714D01*
X193341428Y-126438095D01*
X193531904Y-126438095D01*
X193627142Y-126485714D01*
X193674761Y-126533333D01*
X193722380Y-126628571D01*
X193722380Y-126819047D01*
X193674761Y-126914285D01*
X193627142Y-126961904D01*
X193531904Y-127009523D01*
X193341428Y-127009523D01*
X193246190Y-126961904D01*
X193198571Y-126914285D01*
X193150952Y-126819047D01*
X192722380Y-127914285D02*
X192722380Y-127438095D01*
X193198571Y-127390476D01*
X193150952Y-127438095D01*
X193103333Y-127533333D01*
X193103333Y-127771428D01*
X193150952Y-127866666D01*
X193198571Y-127914285D01*
X193293809Y-127961904D01*
X193531904Y-127961904D01*
X193627142Y-127914285D01*
X193674761Y-127866666D01*
X193722380Y-127771428D01*
X193722380Y-127533333D01*
X193674761Y-127438095D01*
X193627142Y-127390476D01*
%TO.C,C103*%
X201240447Y-110221342D02*
X201288066Y-110268961D01*
X201430923Y-110316580D01*
X201526161Y-110316580D01*
X201669019Y-110268961D01*
X201764257Y-110173723D01*
X201811876Y-110078485D01*
X201859495Y-109888009D01*
X201859495Y-109745152D01*
X201811876Y-109554676D01*
X201764257Y-109459438D01*
X201669019Y-109364200D01*
X201526161Y-109316580D01*
X201430923Y-109316580D01*
X201288066Y-109364200D01*
X201240447Y-109411819D01*
X200288066Y-110316580D02*
X200859495Y-110316580D01*
X200573780Y-110316580D02*
X200573780Y-109316580D01*
X200669019Y-109459438D01*
X200764257Y-109554676D01*
X200859495Y-109602295D01*
X199669019Y-109316580D02*
X199573780Y-109316580D01*
X199478542Y-109364200D01*
X199430923Y-109411819D01*
X199383304Y-109507057D01*
X199335685Y-109697533D01*
X199335685Y-109935628D01*
X199383304Y-110126104D01*
X199430923Y-110221342D01*
X199478542Y-110268961D01*
X199573780Y-110316580D01*
X199669019Y-110316580D01*
X199764257Y-110268961D01*
X199811876Y-110221342D01*
X199859495Y-110126104D01*
X199907114Y-109935628D01*
X199907114Y-109697533D01*
X199859495Y-109507057D01*
X199811876Y-109411819D01*
X199764257Y-109364200D01*
X199669019Y-109316580D01*
X199002352Y-109316580D02*
X198383304Y-109316580D01*
X198716638Y-109697533D01*
X198573780Y-109697533D01*
X198478542Y-109745152D01*
X198430923Y-109792771D01*
X198383304Y-109888009D01*
X198383304Y-110126104D01*
X198430923Y-110221342D01*
X198478542Y-110268961D01*
X198573780Y-110316580D01*
X198859495Y-110316580D01*
X198954733Y-110268961D01*
X199002352Y-110221342D01*
%TO.C,R76*%
X200738857Y-115421980D02*
X201072190Y-114945790D01*
X201310285Y-115421980D02*
X201310285Y-114421980D01*
X200929333Y-114421980D01*
X200834095Y-114469600D01*
X200786476Y-114517219D01*
X200738857Y-114612457D01*
X200738857Y-114755314D01*
X200786476Y-114850552D01*
X200834095Y-114898171D01*
X200929333Y-114945790D01*
X201310285Y-114945790D01*
X200405523Y-114421980D02*
X199738857Y-114421980D01*
X200167428Y-115421980D01*
X198929333Y-114421980D02*
X199119809Y-114421980D01*
X199215047Y-114469600D01*
X199262666Y-114517219D01*
X199357904Y-114660076D01*
X199405523Y-114850552D01*
X199405523Y-115231504D01*
X199357904Y-115326742D01*
X199310285Y-115374361D01*
X199215047Y-115421980D01*
X199024571Y-115421980D01*
X198929333Y-115374361D01*
X198881714Y-115326742D01*
X198834095Y-115231504D01*
X198834095Y-114993409D01*
X198881714Y-114898171D01*
X198929333Y-114850552D01*
X199024571Y-114802933D01*
X199215047Y-114802933D01*
X199310285Y-114850552D01*
X199357904Y-114898171D01*
X199405523Y-114993409D01*
%TO.C,J27*%
X186554523Y-130682380D02*
X186554523Y-131396666D01*
X186602142Y-131539523D01*
X186697380Y-131634761D01*
X186840238Y-131682380D01*
X186935476Y-131682380D01*
X186125952Y-130777619D02*
X186078333Y-130730000D01*
X185983095Y-130682380D01*
X185745000Y-130682380D01*
X185649761Y-130730000D01*
X185602142Y-130777619D01*
X185554523Y-130872857D01*
X185554523Y-130968095D01*
X185602142Y-131110952D01*
X186173571Y-131682380D01*
X185554523Y-131682380D01*
X185221190Y-130682380D02*
X184554523Y-130682380D01*
X184983095Y-131682380D01*
X187199000Y-130760000D02*
X186665666Y-130760000D01*
X186932333Y-131026666D02*
X186932333Y-130493333D01*
X186332333Y-131026666D02*
X186332333Y-130326666D01*
X185932333Y-131026666D01*
X185932333Y-130326666D01*
X185599000Y-131026666D02*
X185599000Y-130560000D01*
X185599000Y-130693333D02*
X185565666Y-130626666D01*
X185532333Y-130593333D01*
X185465666Y-130560000D01*
X185399000Y-130560000D01*
X184932333Y-130660000D02*
X184832333Y-130693333D01*
X184799000Y-130726666D01*
X184765666Y-130793333D01*
X184765666Y-130893333D01*
X184799000Y-130960000D01*
X184832333Y-130993333D01*
X184899000Y-131026666D01*
X185165666Y-131026666D01*
X185165666Y-130326666D01*
X184932333Y-130326666D01*
X184865666Y-130360000D01*
X184832333Y-130393333D01*
X184799000Y-130460000D01*
X184799000Y-130526666D01*
X184832333Y-130593333D01*
X184865666Y-130626666D01*
X184932333Y-130660000D01*
X185165666Y-130660000D01*
%TO.C,R88*%
X176654580Y-99841142D02*
X176178390Y-99507809D01*
X176654580Y-99269714D02*
X175654580Y-99269714D01*
X175654580Y-99650666D01*
X175702200Y-99745904D01*
X175749819Y-99793523D01*
X175845057Y-99841142D01*
X175987914Y-99841142D01*
X176083152Y-99793523D01*
X176130771Y-99745904D01*
X176178390Y-99650666D01*
X176178390Y-99269714D01*
X176083152Y-100412571D02*
X176035533Y-100317333D01*
X175987914Y-100269714D01*
X175892676Y-100222095D01*
X175845057Y-100222095D01*
X175749819Y-100269714D01*
X175702200Y-100317333D01*
X175654580Y-100412571D01*
X175654580Y-100603047D01*
X175702200Y-100698285D01*
X175749819Y-100745904D01*
X175845057Y-100793523D01*
X175892676Y-100793523D01*
X175987914Y-100745904D01*
X176035533Y-100698285D01*
X176083152Y-100603047D01*
X176083152Y-100412571D01*
X176130771Y-100317333D01*
X176178390Y-100269714D01*
X176273628Y-100222095D01*
X176464104Y-100222095D01*
X176559342Y-100269714D01*
X176606961Y-100317333D01*
X176654580Y-100412571D01*
X176654580Y-100603047D01*
X176606961Y-100698285D01*
X176559342Y-100745904D01*
X176464104Y-100793523D01*
X176273628Y-100793523D01*
X176178390Y-100745904D01*
X176130771Y-100698285D01*
X176083152Y-100603047D01*
X176083152Y-101364952D02*
X176035533Y-101269714D01*
X175987914Y-101222095D01*
X175892676Y-101174476D01*
X175845057Y-101174476D01*
X175749819Y-101222095D01*
X175702200Y-101269714D01*
X175654580Y-101364952D01*
X175654580Y-101555428D01*
X175702200Y-101650666D01*
X175749819Y-101698285D01*
X175845057Y-101745904D01*
X175892676Y-101745904D01*
X175987914Y-101698285D01*
X176035533Y-101650666D01*
X176083152Y-101555428D01*
X176083152Y-101364952D01*
X176130771Y-101269714D01*
X176178390Y-101222095D01*
X176273628Y-101174476D01*
X176464104Y-101174476D01*
X176559342Y-101222095D01*
X176606961Y-101269714D01*
X176654580Y-101364952D01*
X176654580Y-101555428D01*
X176606961Y-101650666D01*
X176559342Y-101698285D01*
X176464104Y-101745904D01*
X176273628Y-101745904D01*
X176178390Y-101698285D01*
X176130771Y-101650666D01*
X176083152Y-101555428D01*
%TO.C,C99*%
X187276857Y-118450942D02*
X187324476Y-118498561D01*
X187467333Y-118546180D01*
X187562571Y-118546180D01*
X187705428Y-118498561D01*
X187800666Y-118403323D01*
X187848285Y-118308085D01*
X187895904Y-118117609D01*
X187895904Y-117974752D01*
X187848285Y-117784276D01*
X187800666Y-117689038D01*
X187705428Y-117593800D01*
X187562571Y-117546180D01*
X187467333Y-117546180D01*
X187324476Y-117593800D01*
X187276857Y-117641419D01*
X186800666Y-118546180D02*
X186610190Y-118546180D01*
X186514952Y-118498561D01*
X186467333Y-118450942D01*
X186372095Y-118308085D01*
X186324476Y-118117609D01*
X186324476Y-117736657D01*
X186372095Y-117641419D01*
X186419714Y-117593800D01*
X186514952Y-117546180D01*
X186705428Y-117546180D01*
X186800666Y-117593800D01*
X186848285Y-117641419D01*
X186895904Y-117736657D01*
X186895904Y-117974752D01*
X186848285Y-118069990D01*
X186800666Y-118117609D01*
X186705428Y-118165228D01*
X186514952Y-118165228D01*
X186419714Y-118117609D01*
X186372095Y-118069990D01*
X186324476Y-117974752D01*
X185848285Y-118546180D02*
X185657809Y-118546180D01*
X185562571Y-118498561D01*
X185514952Y-118450942D01*
X185419714Y-118308085D01*
X185372095Y-118117609D01*
X185372095Y-117736657D01*
X185419714Y-117641419D01*
X185467333Y-117593800D01*
X185562571Y-117546180D01*
X185753047Y-117546180D01*
X185848285Y-117593800D01*
X185895904Y-117641419D01*
X185943523Y-117736657D01*
X185943523Y-117974752D01*
X185895904Y-118069990D01*
X185848285Y-118117609D01*
X185753047Y-118165228D01*
X185562571Y-118165228D01*
X185467333Y-118117609D01*
X185419714Y-118069990D01*
X185372095Y-117974752D01*
%TO.C,C105*%
X194077647Y-103576742D02*
X194125266Y-103624361D01*
X194268123Y-103671980D01*
X194363361Y-103671980D01*
X194506219Y-103624361D01*
X194601457Y-103529123D01*
X194649076Y-103433885D01*
X194696695Y-103243409D01*
X194696695Y-103100552D01*
X194649076Y-102910076D01*
X194601457Y-102814838D01*
X194506219Y-102719600D01*
X194363361Y-102671980D01*
X194268123Y-102671980D01*
X194125266Y-102719600D01*
X194077647Y-102767219D01*
X193125266Y-103671980D02*
X193696695Y-103671980D01*
X193410980Y-103671980D02*
X193410980Y-102671980D01*
X193506219Y-102814838D01*
X193601457Y-102910076D01*
X193696695Y-102957695D01*
X192506219Y-102671980D02*
X192410980Y-102671980D01*
X192315742Y-102719600D01*
X192268123Y-102767219D01*
X192220504Y-102862457D01*
X192172885Y-103052933D01*
X192172885Y-103291028D01*
X192220504Y-103481504D01*
X192268123Y-103576742D01*
X192315742Y-103624361D01*
X192410980Y-103671980D01*
X192506219Y-103671980D01*
X192601457Y-103624361D01*
X192649076Y-103576742D01*
X192696695Y-103481504D01*
X192744314Y-103291028D01*
X192744314Y-103052933D01*
X192696695Y-102862457D01*
X192649076Y-102767219D01*
X192601457Y-102719600D01*
X192506219Y-102671980D01*
X191268123Y-102671980D02*
X191744314Y-102671980D01*
X191791933Y-103148171D01*
X191744314Y-103100552D01*
X191649076Y-103052933D01*
X191410980Y-103052933D01*
X191315742Y-103100552D01*
X191268123Y-103148171D01*
X191220504Y-103243409D01*
X191220504Y-103481504D01*
X191268123Y-103576742D01*
X191315742Y-103624361D01*
X191410980Y-103671980D01*
X191649076Y-103671980D01*
X191744314Y-103624361D01*
X191791933Y-103576742D01*
%TO.C,C112*%
X176606742Y-99263352D02*
X176654361Y-99215733D01*
X176701980Y-99072876D01*
X176701980Y-98977638D01*
X176654361Y-98834780D01*
X176559123Y-98739542D01*
X176463885Y-98691923D01*
X176273409Y-98644304D01*
X176130552Y-98644304D01*
X175940076Y-98691923D01*
X175844838Y-98739542D01*
X175749600Y-98834780D01*
X175701980Y-98977638D01*
X175701980Y-99072876D01*
X175749600Y-99215733D01*
X175797219Y-99263352D01*
X176701980Y-100215733D02*
X176701980Y-99644304D01*
X176701980Y-99930019D02*
X175701980Y-99930019D01*
X175844838Y-99834780D01*
X175940076Y-99739542D01*
X175987695Y-99644304D01*
X176701980Y-101168114D02*
X176701980Y-100596685D01*
X176701980Y-100882400D02*
X175701980Y-100882400D01*
X175844838Y-100787161D01*
X175940076Y-100691923D01*
X175987695Y-100596685D01*
X175797219Y-101549066D02*
X175749600Y-101596685D01*
X175701980Y-101691923D01*
X175701980Y-101930019D01*
X175749600Y-102025257D01*
X175797219Y-102072876D01*
X175892457Y-102120495D01*
X175987695Y-102120495D01*
X176130552Y-102072876D01*
X176701980Y-101501447D01*
X176701980Y-102120495D01*
%TO.C,D7*%
X188997980Y-118999104D02*
X187997980Y-118999104D01*
X187997980Y-119237200D01*
X188045600Y-119380057D01*
X188140838Y-119475295D01*
X188236076Y-119522914D01*
X188426552Y-119570533D01*
X188569409Y-119570533D01*
X188759885Y-119522914D01*
X188855123Y-119475295D01*
X188950361Y-119380057D01*
X188997980Y-119237200D01*
X188997980Y-118999104D01*
X187997980Y-119903866D02*
X187997980Y-120570533D01*
X188997980Y-120141961D01*
%TO.C,C110*%
X181051742Y-122783752D02*
X181099361Y-122736133D01*
X181146980Y-122593276D01*
X181146980Y-122498038D01*
X181099361Y-122355180D01*
X181004123Y-122259942D01*
X180908885Y-122212323D01*
X180718409Y-122164704D01*
X180575552Y-122164704D01*
X180385076Y-122212323D01*
X180289838Y-122259942D01*
X180194600Y-122355180D01*
X180146980Y-122498038D01*
X180146980Y-122593276D01*
X180194600Y-122736133D01*
X180242219Y-122783752D01*
X181146980Y-123736133D02*
X181146980Y-123164704D01*
X181146980Y-123450419D02*
X180146980Y-123450419D01*
X180289838Y-123355180D01*
X180385076Y-123259942D01*
X180432695Y-123164704D01*
X181146980Y-124688514D02*
X181146980Y-124117085D01*
X181146980Y-124402800D02*
X180146980Y-124402800D01*
X180289838Y-124307561D01*
X180385076Y-124212323D01*
X180432695Y-124117085D01*
X180146980Y-125307561D02*
X180146980Y-125402800D01*
X180194600Y-125498038D01*
X180242219Y-125545657D01*
X180337457Y-125593276D01*
X180527933Y-125640895D01*
X180766028Y-125640895D01*
X180956504Y-125593276D01*
X181051742Y-125545657D01*
X181099361Y-125498038D01*
X181146980Y-125402800D01*
X181146980Y-125307561D01*
X181099361Y-125212323D01*
X181051742Y-125164704D01*
X180956504Y-125117085D01*
X180766028Y-125069466D01*
X180527933Y-125069466D01*
X180337457Y-125117085D01*
X180242219Y-125164704D01*
X180194600Y-125212323D01*
X180146980Y-125307561D01*
%TO.C,J25*%
X171309523Y-121452380D02*
X171309523Y-122166666D01*
X171357142Y-122309523D01*
X171452380Y-122404761D01*
X171595238Y-122452380D01*
X171690476Y-122452380D01*
X170880952Y-121547619D02*
X170833333Y-121500000D01*
X170738095Y-121452380D01*
X170500000Y-121452380D01*
X170404761Y-121500000D01*
X170357142Y-121547619D01*
X170309523Y-121642857D01*
X170309523Y-121738095D01*
X170357142Y-121880952D01*
X170928571Y-122452380D01*
X170309523Y-122452380D01*
X169404761Y-121452380D02*
X169880952Y-121452380D01*
X169928571Y-121928571D01*
X169880952Y-121880952D01*
X169785714Y-121833333D01*
X169547619Y-121833333D01*
X169452380Y-121880952D01*
X169404761Y-121928571D01*
X169357142Y-122023809D01*
X169357142Y-122261904D01*
X169404761Y-122357142D01*
X169452380Y-122404761D01*
X169547619Y-122452380D01*
X169785714Y-122452380D01*
X169880952Y-122404761D01*
X169928571Y-122357142D01*
%TO.C,C113*%
X203149742Y-113231552D02*
X203197361Y-113183933D01*
X203244980Y-113041076D01*
X203244980Y-112945838D01*
X203197361Y-112802980D01*
X203102123Y-112707742D01*
X203006885Y-112660123D01*
X202816409Y-112612504D01*
X202673552Y-112612504D01*
X202483076Y-112660123D01*
X202387838Y-112707742D01*
X202292600Y-112802980D01*
X202244980Y-112945838D01*
X202244980Y-113041076D01*
X202292600Y-113183933D01*
X202340219Y-113231552D01*
X203244980Y-114183933D02*
X203244980Y-113612504D01*
X203244980Y-113898219D02*
X202244980Y-113898219D01*
X202387838Y-113802980D01*
X202483076Y-113707742D01*
X202530695Y-113612504D01*
X203244980Y-115136314D02*
X203244980Y-114564885D01*
X203244980Y-114850600D02*
X202244980Y-114850600D01*
X202387838Y-114755361D01*
X202483076Y-114660123D01*
X202530695Y-114564885D01*
X202244980Y-115469647D02*
X202244980Y-116088695D01*
X202625933Y-115755361D01*
X202625933Y-115898219D01*
X202673552Y-115993457D01*
X202721171Y-116041076D01*
X202816409Y-116088695D01*
X203054504Y-116088695D01*
X203149742Y-116041076D01*
X203197361Y-115993457D01*
X203244980Y-115898219D01*
X203244980Y-115612504D01*
X203197361Y-115517266D01*
X203149742Y-115469647D01*
%TO.C,R81*%
X182958857Y-113110580D02*
X183292190Y-112634390D01*
X183530285Y-113110580D02*
X183530285Y-112110580D01*
X183149333Y-112110580D01*
X183054095Y-112158200D01*
X183006476Y-112205819D01*
X182958857Y-112301057D01*
X182958857Y-112443914D01*
X183006476Y-112539152D01*
X183054095Y-112586771D01*
X183149333Y-112634390D01*
X183530285Y-112634390D01*
X182387428Y-112539152D02*
X182482666Y-112491533D01*
X182530285Y-112443914D01*
X182577904Y-112348676D01*
X182577904Y-112301057D01*
X182530285Y-112205819D01*
X182482666Y-112158200D01*
X182387428Y-112110580D01*
X182196952Y-112110580D01*
X182101714Y-112158200D01*
X182054095Y-112205819D01*
X182006476Y-112301057D01*
X182006476Y-112348676D01*
X182054095Y-112443914D01*
X182101714Y-112491533D01*
X182196952Y-112539152D01*
X182387428Y-112539152D01*
X182482666Y-112586771D01*
X182530285Y-112634390D01*
X182577904Y-112729628D01*
X182577904Y-112920104D01*
X182530285Y-113015342D01*
X182482666Y-113062961D01*
X182387428Y-113110580D01*
X182196952Y-113110580D01*
X182101714Y-113062961D01*
X182054095Y-113015342D01*
X182006476Y-112920104D01*
X182006476Y-112729628D01*
X182054095Y-112634390D01*
X182101714Y-112586771D01*
X182196952Y-112539152D01*
X181054095Y-113110580D02*
X181625523Y-113110580D01*
X181339809Y-113110580D02*
X181339809Y-112110580D01*
X181435047Y-112253438D01*
X181530285Y-112348676D01*
X181625523Y-112396295D01*
%TO.C,C95*%
X202514742Y-100857142D02*
X202562361Y-100809523D01*
X202609980Y-100666666D01*
X202609980Y-100571428D01*
X202562361Y-100428571D01*
X202467123Y-100333333D01*
X202371885Y-100285714D01*
X202181409Y-100238095D01*
X202038552Y-100238095D01*
X201848076Y-100285714D01*
X201752838Y-100333333D01*
X201657600Y-100428571D01*
X201609980Y-100571428D01*
X201609980Y-100666666D01*
X201657600Y-100809523D01*
X201705219Y-100857142D01*
X202609980Y-101333333D02*
X202609980Y-101523809D01*
X202562361Y-101619047D01*
X202514742Y-101666666D01*
X202371885Y-101761904D01*
X202181409Y-101809523D01*
X201800457Y-101809523D01*
X201705219Y-101761904D01*
X201657600Y-101714285D01*
X201609980Y-101619047D01*
X201609980Y-101428571D01*
X201657600Y-101333333D01*
X201705219Y-101285714D01*
X201800457Y-101238095D01*
X202038552Y-101238095D01*
X202133790Y-101285714D01*
X202181409Y-101333333D01*
X202229028Y-101428571D01*
X202229028Y-101619047D01*
X202181409Y-101714285D01*
X202133790Y-101761904D01*
X202038552Y-101809523D01*
X201609980Y-102714285D02*
X201609980Y-102238095D01*
X202086171Y-102190476D01*
X202038552Y-102238095D01*
X201990933Y-102333333D01*
X201990933Y-102571428D01*
X202038552Y-102666666D01*
X202086171Y-102714285D01*
X202181409Y-102761904D01*
X202419504Y-102761904D01*
X202514742Y-102714285D01*
X202562361Y-102666666D01*
X202609980Y-102571428D01*
X202609980Y-102333333D01*
X202562361Y-102238095D01*
X202514742Y-102190476D01*
%TO.C,C93*%
X193626857Y-105049942D02*
X193674476Y-105097561D01*
X193817333Y-105145180D01*
X193912571Y-105145180D01*
X194055428Y-105097561D01*
X194150666Y-105002323D01*
X194198285Y-104907085D01*
X194245904Y-104716609D01*
X194245904Y-104573752D01*
X194198285Y-104383276D01*
X194150666Y-104288038D01*
X194055428Y-104192800D01*
X193912571Y-104145180D01*
X193817333Y-104145180D01*
X193674476Y-104192800D01*
X193626857Y-104240419D01*
X193150666Y-105145180D02*
X192960190Y-105145180D01*
X192864952Y-105097561D01*
X192817333Y-105049942D01*
X192722095Y-104907085D01*
X192674476Y-104716609D01*
X192674476Y-104335657D01*
X192722095Y-104240419D01*
X192769714Y-104192800D01*
X192864952Y-104145180D01*
X193055428Y-104145180D01*
X193150666Y-104192800D01*
X193198285Y-104240419D01*
X193245904Y-104335657D01*
X193245904Y-104573752D01*
X193198285Y-104668990D01*
X193150666Y-104716609D01*
X193055428Y-104764228D01*
X192864952Y-104764228D01*
X192769714Y-104716609D01*
X192722095Y-104668990D01*
X192674476Y-104573752D01*
X192341142Y-104145180D02*
X191722095Y-104145180D01*
X192055428Y-104526133D01*
X191912571Y-104526133D01*
X191817333Y-104573752D01*
X191769714Y-104621371D01*
X191722095Y-104716609D01*
X191722095Y-104954704D01*
X191769714Y-105049942D01*
X191817333Y-105097561D01*
X191912571Y-105145180D01*
X192198285Y-105145180D01*
X192293523Y-105097561D01*
X192341142Y-105049942D01*
%TO.C,C92*%
X196980942Y-104019142D02*
X197028561Y-103971523D01*
X197076180Y-103828666D01*
X197076180Y-103733428D01*
X197028561Y-103590571D01*
X196933323Y-103495333D01*
X196838085Y-103447714D01*
X196647609Y-103400095D01*
X196504752Y-103400095D01*
X196314276Y-103447714D01*
X196219038Y-103495333D01*
X196123800Y-103590571D01*
X196076180Y-103733428D01*
X196076180Y-103828666D01*
X196123800Y-103971523D01*
X196171419Y-104019142D01*
X197076180Y-104495333D02*
X197076180Y-104685809D01*
X197028561Y-104781047D01*
X196980942Y-104828666D01*
X196838085Y-104923904D01*
X196647609Y-104971523D01*
X196266657Y-104971523D01*
X196171419Y-104923904D01*
X196123800Y-104876285D01*
X196076180Y-104781047D01*
X196076180Y-104590571D01*
X196123800Y-104495333D01*
X196171419Y-104447714D01*
X196266657Y-104400095D01*
X196504752Y-104400095D01*
X196599990Y-104447714D01*
X196647609Y-104495333D01*
X196695228Y-104590571D01*
X196695228Y-104781047D01*
X196647609Y-104876285D01*
X196599990Y-104923904D01*
X196504752Y-104971523D01*
X196171419Y-105352476D02*
X196123800Y-105400095D01*
X196076180Y-105495333D01*
X196076180Y-105733428D01*
X196123800Y-105828666D01*
X196171419Y-105876285D01*
X196266657Y-105923904D01*
X196361895Y-105923904D01*
X196504752Y-105876285D01*
X197076180Y-105304857D01*
X197076180Y-105923904D01*
%TO.C,C101*%
X197082542Y-120624752D02*
X197130161Y-120577133D01*
X197177780Y-120434276D01*
X197177780Y-120339038D01*
X197130161Y-120196180D01*
X197034923Y-120100942D01*
X196939685Y-120053323D01*
X196749209Y-120005704D01*
X196606352Y-120005704D01*
X196415876Y-120053323D01*
X196320638Y-120100942D01*
X196225400Y-120196180D01*
X196177780Y-120339038D01*
X196177780Y-120434276D01*
X196225400Y-120577133D01*
X196273019Y-120624752D01*
X197177780Y-121577133D02*
X197177780Y-121005704D01*
X197177780Y-121291419D02*
X196177780Y-121291419D01*
X196320638Y-121196180D01*
X196415876Y-121100942D01*
X196463495Y-121005704D01*
X196177780Y-122196180D02*
X196177780Y-122291419D01*
X196225400Y-122386657D01*
X196273019Y-122434276D01*
X196368257Y-122481895D01*
X196558733Y-122529514D01*
X196796828Y-122529514D01*
X196987304Y-122481895D01*
X197082542Y-122434276D01*
X197130161Y-122386657D01*
X197177780Y-122291419D01*
X197177780Y-122196180D01*
X197130161Y-122100942D01*
X197082542Y-122053323D01*
X196987304Y-122005704D01*
X196796828Y-121958085D01*
X196558733Y-121958085D01*
X196368257Y-122005704D01*
X196273019Y-122053323D01*
X196225400Y-122100942D01*
X196177780Y-122196180D01*
X197177780Y-123481895D02*
X197177780Y-122910466D01*
X197177780Y-123196180D02*
X196177780Y-123196180D01*
X196320638Y-123100942D01*
X196415876Y-123005704D01*
X196463495Y-122910466D01*
%TO.C,J32*%
X206976123Y-104521780D02*
X206976123Y-105236066D01*
X207023742Y-105378923D01*
X207118980Y-105474161D01*
X207261838Y-105521780D01*
X207357076Y-105521780D01*
X206595171Y-104521780D02*
X205976123Y-104521780D01*
X206309457Y-104902733D01*
X206166600Y-104902733D01*
X206071361Y-104950352D01*
X206023742Y-104997971D01*
X205976123Y-105093209D01*
X205976123Y-105331304D01*
X206023742Y-105426542D01*
X206071361Y-105474161D01*
X206166600Y-105521780D01*
X206452314Y-105521780D01*
X206547552Y-105474161D01*
X206595171Y-105426542D01*
X205595171Y-104617019D02*
X205547552Y-104569400D01*
X205452314Y-104521780D01*
X205214219Y-104521780D01*
X205118980Y-104569400D01*
X205071361Y-104617019D01*
X205023742Y-104712257D01*
X205023742Y-104807495D01*
X205071361Y-104950352D01*
X205642790Y-105521780D01*
X205023742Y-105521780D01*
%TO.C,C98*%
X203899942Y-124428342D02*
X203947561Y-124380723D01*
X203995180Y-124237866D01*
X203995180Y-124142628D01*
X203947561Y-123999771D01*
X203852323Y-123904533D01*
X203757085Y-123856914D01*
X203566609Y-123809295D01*
X203423752Y-123809295D01*
X203233276Y-123856914D01*
X203138038Y-123904533D01*
X203042800Y-123999771D01*
X202995180Y-124142628D01*
X202995180Y-124237866D01*
X203042800Y-124380723D01*
X203090419Y-124428342D01*
X203995180Y-124904533D02*
X203995180Y-125095009D01*
X203947561Y-125190247D01*
X203899942Y-125237866D01*
X203757085Y-125333104D01*
X203566609Y-125380723D01*
X203185657Y-125380723D01*
X203090419Y-125333104D01*
X203042800Y-125285485D01*
X202995180Y-125190247D01*
X202995180Y-124999771D01*
X203042800Y-124904533D01*
X203090419Y-124856914D01*
X203185657Y-124809295D01*
X203423752Y-124809295D01*
X203518990Y-124856914D01*
X203566609Y-124904533D01*
X203614228Y-124999771D01*
X203614228Y-125190247D01*
X203566609Y-125285485D01*
X203518990Y-125333104D01*
X203423752Y-125380723D01*
X203423752Y-125952152D02*
X203376133Y-125856914D01*
X203328514Y-125809295D01*
X203233276Y-125761676D01*
X203185657Y-125761676D01*
X203090419Y-125809295D01*
X203042800Y-125856914D01*
X202995180Y-125952152D01*
X202995180Y-126142628D01*
X203042800Y-126237866D01*
X203090419Y-126285485D01*
X203185657Y-126333104D01*
X203233276Y-126333104D01*
X203328514Y-126285485D01*
X203376133Y-126237866D01*
X203423752Y-126142628D01*
X203423752Y-125952152D01*
X203471371Y-125856914D01*
X203518990Y-125809295D01*
X203614228Y-125761676D01*
X203804704Y-125761676D01*
X203899942Y-125809295D01*
X203947561Y-125856914D01*
X203995180Y-125952152D01*
X203995180Y-126142628D01*
X203947561Y-126237866D01*
X203899942Y-126285485D01*
X203804704Y-126333104D01*
X203614228Y-126333104D01*
X203518990Y-126285485D01*
X203471371Y-126237866D01*
X203423752Y-126142628D01*
%TO.C,M7*%
X198798780Y-96804276D02*
X197798780Y-96804276D01*
X198513066Y-97137609D01*
X197798780Y-97470942D01*
X198798780Y-97470942D01*
X197798780Y-97851895D02*
X197798780Y-98518561D01*
X198798780Y-98089990D01*
%TO.C,R90*%
X175181380Y-99841142D02*
X174705190Y-99507809D01*
X175181380Y-99269714D02*
X174181380Y-99269714D01*
X174181380Y-99650666D01*
X174229000Y-99745904D01*
X174276619Y-99793523D01*
X174371857Y-99841142D01*
X174514714Y-99841142D01*
X174609952Y-99793523D01*
X174657571Y-99745904D01*
X174705190Y-99650666D01*
X174705190Y-99269714D01*
X175181380Y-100317333D02*
X175181380Y-100507809D01*
X175133761Y-100603047D01*
X175086142Y-100650666D01*
X174943285Y-100745904D01*
X174752809Y-100793523D01*
X174371857Y-100793523D01*
X174276619Y-100745904D01*
X174229000Y-100698285D01*
X174181380Y-100603047D01*
X174181380Y-100412571D01*
X174229000Y-100317333D01*
X174276619Y-100269714D01*
X174371857Y-100222095D01*
X174609952Y-100222095D01*
X174705190Y-100269714D01*
X174752809Y-100317333D01*
X174800428Y-100412571D01*
X174800428Y-100603047D01*
X174752809Y-100698285D01*
X174705190Y-100745904D01*
X174609952Y-100793523D01*
X174181380Y-101412571D02*
X174181380Y-101507809D01*
X174229000Y-101603047D01*
X174276619Y-101650666D01*
X174371857Y-101698285D01*
X174562333Y-101745904D01*
X174800428Y-101745904D01*
X174990904Y-101698285D01*
X175086142Y-101650666D01*
X175133761Y-101603047D01*
X175181380Y-101507809D01*
X175181380Y-101412571D01*
X175133761Y-101317333D01*
X175086142Y-101269714D01*
X174990904Y-101222095D01*
X174800428Y-101174476D01*
X174562333Y-101174476D01*
X174371857Y-101222095D01*
X174276619Y-101269714D01*
X174229000Y-101317333D01*
X174181380Y-101412571D01*
%TO.C,R89*%
X201521180Y-100298342D02*
X201044990Y-99965009D01*
X201521180Y-99726914D02*
X200521180Y-99726914D01*
X200521180Y-100107866D01*
X200568800Y-100203104D01*
X200616419Y-100250723D01*
X200711657Y-100298342D01*
X200854514Y-100298342D01*
X200949752Y-100250723D01*
X200997371Y-100203104D01*
X201044990Y-100107866D01*
X201044990Y-99726914D01*
X200949752Y-100869771D02*
X200902133Y-100774533D01*
X200854514Y-100726914D01*
X200759276Y-100679295D01*
X200711657Y-100679295D01*
X200616419Y-100726914D01*
X200568800Y-100774533D01*
X200521180Y-100869771D01*
X200521180Y-101060247D01*
X200568800Y-101155485D01*
X200616419Y-101203104D01*
X200711657Y-101250723D01*
X200759276Y-101250723D01*
X200854514Y-101203104D01*
X200902133Y-101155485D01*
X200949752Y-101060247D01*
X200949752Y-100869771D01*
X200997371Y-100774533D01*
X201044990Y-100726914D01*
X201140228Y-100679295D01*
X201330704Y-100679295D01*
X201425942Y-100726914D01*
X201473561Y-100774533D01*
X201521180Y-100869771D01*
X201521180Y-101060247D01*
X201473561Y-101155485D01*
X201425942Y-101203104D01*
X201330704Y-101250723D01*
X201140228Y-101250723D01*
X201044990Y-101203104D01*
X200997371Y-101155485D01*
X200949752Y-101060247D01*
X201521180Y-101726914D02*
X201521180Y-101917390D01*
X201473561Y-102012628D01*
X201425942Y-102060247D01*
X201283085Y-102155485D01*
X201092609Y-102203104D01*
X200711657Y-102203104D01*
X200616419Y-102155485D01*
X200568800Y-102107866D01*
X200521180Y-102012628D01*
X200521180Y-101822152D01*
X200568800Y-101726914D01*
X200616419Y-101679295D01*
X200711657Y-101631676D01*
X200949752Y-101631676D01*
X201044990Y-101679295D01*
X201092609Y-101726914D01*
X201140228Y-101822152D01*
X201140228Y-102012628D01*
X201092609Y-102107866D01*
X201044990Y-102155485D01*
X200949752Y-102203104D01*
%TO.C,C109*%
X176450047Y-118803142D02*
X176497666Y-118850761D01*
X176640523Y-118898380D01*
X176735761Y-118898380D01*
X176878619Y-118850761D01*
X176973857Y-118755523D01*
X177021476Y-118660285D01*
X177069095Y-118469809D01*
X177069095Y-118326952D01*
X177021476Y-118136476D01*
X176973857Y-118041238D01*
X176878619Y-117946000D01*
X176735761Y-117898380D01*
X176640523Y-117898380D01*
X176497666Y-117946000D01*
X176450047Y-117993619D01*
X175497666Y-118898380D02*
X176069095Y-118898380D01*
X175783380Y-118898380D02*
X175783380Y-117898380D01*
X175878619Y-118041238D01*
X175973857Y-118136476D01*
X176069095Y-118184095D01*
X174878619Y-117898380D02*
X174783380Y-117898380D01*
X174688142Y-117946000D01*
X174640523Y-117993619D01*
X174592904Y-118088857D01*
X174545285Y-118279333D01*
X174545285Y-118517428D01*
X174592904Y-118707904D01*
X174640523Y-118803142D01*
X174688142Y-118850761D01*
X174783380Y-118898380D01*
X174878619Y-118898380D01*
X174973857Y-118850761D01*
X175021476Y-118803142D01*
X175069095Y-118707904D01*
X175116714Y-118517428D01*
X175116714Y-118279333D01*
X175069095Y-118088857D01*
X175021476Y-117993619D01*
X174973857Y-117946000D01*
X174878619Y-117898380D01*
X174069095Y-118898380D02*
X173878619Y-118898380D01*
X173783380Y-118850761D01*
X173735761Y-118803142D01*
X173640523Y-118660285D01*
X173592904Y-118469809D01*
X173592904Y-118088857D01*
X173640523Y-117993619D01*
X173688142Y-117946000D01*
X173783380Y-117898380D01*
X173973857Y-117898380D01*
X174069095Y-117946000D01*
X174116714Y-117993619D01*
X174164333Y-118088857D01*
X174164333Y-118326952D01*
X174116714Y-118422190D01*
X174069095Y-118469809D01*
X173973857Y-118517428D01*
X173783380Y-118517428D01*
X173688142Y-118469809D01*
X173640523Y-118422190D01*
X173592904Y-118326952D01*
%TO.C,J28*%
X172762323Y-119012380D02*
X172762323Y-119726666D01*
X172809942Y-119869523D01*
X172905180Y-119964761D01*
X173048038Y-120012380D01*
X173143276Y-120012380D01*
X172333752Y-119107619D02*
X172286133Y-119060000D01*
X172190895Y-119012380D01*
X171952800Y-119012380D01*
X171857561Y-119060000D01*
X171809942Y-119107619D01*
X171762323Y-119202857D01*
X171762323Y-119298095D01*
X171809942Y-119440952D01*
X172381371Y-120012380D01*
X171762323Y-120012380D01*
X171190895Y-119440952D02*
X171286133Y-119393333D01*
X171333752Y-119345714D01*
X171381371Y-119250476D01*
X171381371Y-119202857D01*
X171333752Y-119107619D01*
X171286133Y-119060000D01*
X171190895Y-119012380D01*
X171000419Y-119012380D01*
X170905180Y-119060000D01*
X170857561Y-119107619D01*
X170809942Y-119202857D01*
X170809942Y-119250476D01*
X170857561Y-119345714D01*
X170905180Y-119393333D01*
X171000419Y-119440952D01*
X171190895Y-119440952D01*
X171286133Y-119488571D01*
X171333752Y-119536190D01*
X171381371Y-119631428D01*
X171381371Y-119821904D01*
X171333752Y-119917142D01*
X171286133Y-119964761D01*
X171190895Y-120012380D01*
X171000419Y-120012380D01*
X170905180Y-119964761D01*
X170857561Y-119917142D01*
X170809942Y-119821904D01*
X170809942Y-119631428D01*
X170857561Y-119536190D01*
X170905180Y-119488571D01*
X171000419Y-119440952D01*
%TO.C,C108*%
X184751742Y-127431952D02*
X184799361Y-127384333D01*
X184846980Y-127241476D01*
X184846980Y-127146238D01*
X184799361Y-127003380D01*
X184704123Y-126908142D01*
X184608885Y-126860523D01*
X184418409Y-126812904D01*
X184275552Y-126812904D01*
X184085076Y-126860523D01*
X183989838Y-126908142D01*
X183894600Y-127003380D01*
X183846980Y-127146238D01*
X183846980Y-127241476D01*
X183894600Y-127384333D01*
X183942219Y-127431952D01*
X184846980Y-128384333D02*
X184846980Y-127812904D01*
X184846980Y-128098619D02*
X183846980Y-128098619D01*
X183989838Y-128003380D01*
X184085076Y-127908142D01*
X184132695Y-127812904D01*
X183846980Y-129003380D02*
X183846980Y-129098619D01*
X183894600Y-129193857D01*
X183942219Y-129241476D01*
X184037457Y-129289095D01*
X184227933Y-129336714D01*
X184466028Y-129336714D01*
X184656504Y-129289095D01*
X184751742Y-129241476D01*
X184799361Y-129193857D01*
X184846980Y-129098619D01*
X184846980Y-129003380D01*
X184799361Y-128908142D01*
X184751742Y-128860523D01*
X184656504Y-128812904D01*
X184466028Y-128765285D01*
X184227933Y-128765285D01*
X184037457Y-128812904D01*
X183942219Y-128860523D01*
X183894600Y-128908142D01*
X183846980Y-129003380D01*
X184275552Y-129908142D02*
X184227933Y-129812904D01*
X184180314Y-129765285D01*
X184085076Y-129717666D01*
X184037457Y-129717666D01*
X183942219Y-129765285D01*
X183894600Y-129812904D01*
X183846980Y-129908142D01*
X183846980Y-130098619D01*
X183894600Y-130193857D01*
X183942219Y-130241476D01*
X184037457Y-130289095D01*
X184085076Y-130289095D01*
X184180314Y-130241476D01*
X184227933Y-130193857D01*
X184275552Y-130098619D01*
X184275552Y-129908142D01*
X184323171Y-129812904D01*
X184370790Y-129765285D01*
X184466028Y-129717666D01*
X184656504Y-129717666D01*
X184751742Y-129765285D01*
X184799361Y-129812904D01*
X184846980Y-129908142D01*
X184846980Y-130098619D01*
X184799361Y-130193857D01*
X184751742Y-130241476D01*
X184656504Y-130289095D01*
X184466028Y-130289095D01*
X184370790Y-130241476D01*
X184323171Y-130193857D01*
X184275552Y-130098619D01*
%TO.C,C77*%
X149842857Y-131907142D02*
X149890476Y-131954761D01*
X150033333Y-132002380D01*
X150128571Y-132002380D01*
X150271428Y-131954761D01*
X150366666Y-131859523D01*
X150414285Y-131764285D01*
X150461904Y-131573809D01*
X150461904Y-131430952D01*
X150414285Y-131240476D01*
X150366666Y-131145238D01*
X150271428Y-131050000D01*
X150128571Y-131002380D01*
X150033333Y-131002380D01*
X149890476Y-131050000D01*
X149842857Y-131097619D01*
X149509523Y-131002380D02*
X148842857Y-131002380D01*
X149271428Y-132002380D01*
X148557142Y-131002380D02*
X147890476Y-131002380D01*
X148319047Y-132002380D01*
%TO.C,J21*%
X131886523Y-118966380D02*
X131886523Y-119680666D01*
X131934142Y-119823523D01*
X132029380Y-119918761D01*
X132172238Y-119966380D01*
X132267476Y-119966380D01*
X131457952Y-119061619D02*
X131410333Y-119014000D01*
X131315095Y-118966380D01*
X131077000Y-118966380D01*
X130981761Y-119014000D01*
X130934142Y-119061619D01*
X130886523Y-119156857D01*
X130886523Y-119252095D01*
X130934142Y-119394952D01*
X131505571Y-119966380D01*
X130886523Y-119966380D01*
X129934142Y-119966380D02*
X130505571Y-119966380D01*
X130219857Y-119966380D02*
X130219857Y-118966380D01*
X130315095Y-119109238D01*
X130410333Y-119204476D01*
X130505571Y-119252095D01*
%TO.C,R63*%
X147022380Y-125957142D02*
X146546190Y-125623809D01*
X147022380Y-125385714D02*
X146022380Y-125385714D01*
X146022380Y-125766666D01*
X146070000Y-125861904D01*
X146117619Y-125909523D01*
X146212857Y-125957142D01*
X146355714Y-125957142D01*
X146450952Y-125909523D01*
X146498571Y-125861904D01*
X146546190Y-125766666D01*
X146546190Y-125385714D01*
X146022380Y-126814285D02*
X146022380Y-126623809D01*
X146070000Y-126528571D01*
X146117619Y-126480952D01*
X146260476Y-126385714D01*
X146450952Y-126338095D01*
X146831904Y-126338095D01*
X146927142Y-126385714D01*
X146974761Y-126433333D01*
X147022380Y-126528571D01*
X147022380Y-126719047D01*
X146974761Y-126814285D01*
X146927142Y-126861904D01*
X146831904Y-126909523D01*
X146593809Y-126909523D01*
X146498571Y-126861904D01*
X146450952Y-126814285D01*
X146403333Y-126719047D01*
X146403333Y-126528571D01*
X146450952Y-126433333D01*
X146498571Y-126385714D01*
X146593809Y-126338095D01*
X146022380Y-127242857D02*
X146022380Y-127861904D01*
X146403333Y-127528571D01*
X146403333Y-127671428D01*
X146450952Y-127766666D01*
X146498571Y-127814285D01*
X146593809Y-127861904D01*
X146831904Y-127861904D01*
X146927142Y-127814285D01*
X146974761Y-127766666D01*
X147022380Y-127671428D01*
X147022380Y-127385714D01*
X146974761Y-127290476D01*
X146927142Y-127242857D01*
D11*
%TO.C,IC6*%
X138153923Y-115957438D02*
X136883923Y-115957438D01*
X138032971Y-117287914D02*
X138093447Y-117227438D01*
X138153923Y-117046009D01*
X138153923Y-116925057D01*
X138093447Y-116743628D01*
X137972495Y-116622676D01*
X137851542Y-116562200D01*
X137609638Y-116501723D01*
X137428209Y-116501723D01*
X137186304Y-116562200D01*
X137065352Y-116622676D01*
X136944400Y-116743628D01*
X136883923Y-116925057D01*
X136883923Y-117046009D01*
X136944400Y-117227438D01*
X137004876Y-117287914D01*
X136883923Y-118376485D02*
X136883923Y-118134580D01*
X136944400Y-118013628D01*
X137004876Y-117953152D01*
X137186304Y-117832200D01*
X137428209Y-117771723D01*
X137912019Y-117771723D01*
X138032971Y-117832200D01*
X138093447Y-117892676D01*
X138153923Y-118013628D01*
X138153923Y-118255533D01*
X138093447Y-118376485D01*
X138032971Y-118436961D01*
X137912019Y-118497438D01*
X137609638Y-118497438D01*
X137488685Y-118436961D01*
X137428209Y-118376485D01*
X137367733Y-118255533D01*
X137367733Y-118013628D01*
X137428209Y-117892676D01*
X137488685Y-117832200D01*
X137609638Y-117771723D01*
D10*
%TO.C,C66*%
X156688057Y-116850742D02*
X156735676Y-116898361D01*
X156878533Y-116945980D01*
X156973771Y-116945980D01*
X157116628Y-116898361D01*
X157211866Y-116803123D01*
X157259485Y-116707885D01*
X157307104Y-116517409D01*
X157307104Y-116374552D01*
X157259485Y-116184076D01*
X157211866Y-116088838D01*
X157116628Y-115993600D01*
X156973771Y-115945980D01*
X156878533Y-115945980D01*
X156735676Y-115993600D01*
X156688057Y-116041219D01*
X155830914Y-115945980D02*
X156021390Y-115945980D01*
X156116628Y-115993600D01*
X156164247Y-116041219D01*
X156259485Y-116184076D01*
X156307104Y-116374552D01*
X156307104Y-116755504D01*
X156259485Y-116850742D01*
X156211866Y-116898361D01*
X156116628Y-116945980D01*
X155926152Y-116945980D01*
X155830914Y-116898361D01*
X155783295Y-116850742D01*
X155735676Y-116755504D01*
X155735676Y-116517409D01*
X155783295Y-116422171D01*
X155830914Y-116374552D01*
X155926152Y-116326933D01*
X156116628Y-116326933D01*
X156211866Y-116374552D01*
X156259485Y-116422171D01*
X156307104Y-116517409D01*
X154878533Y-115945980D02*
X155069009Y-115945980D01*
X155164247Y-115993600D01*
X155211866Y-116041219D01*
X155307104Y-116184076D01*
X155354723Y-116374552D01*
X155354723Y-116755504D01*
X155307104Y-116850742D01*
X155259485Y-116898361D01*
X155164247Y-116945980D01*
X154973771Y-116945980D01*
X154878533Y-116898361D01*
X154830914Y-116850742D01*
X154783295Y-116755504D01*
X154783295Y-116517409D01*
X154830914Y-116422171D01*
X154878533Y-116374552D01*
X154973771Y-116326933D01*
X155164247Y-116326933D01*
X155259485Y-116374552D01*
X155307104Y-116422171D01*
X155354723Y-116517409D01*
D11*
%TO.C,Q9*%
X141749152Y-124293476D02*
X141870104Y-124233000D01*
X141991057Y-124112047D01*
X142172485Y-123930619D01*
X142293438Y-123870142D01*
X142414390Y-123870142D01*
X142353914Y-124172523D02*
X142474866Y-124112047D01*
X142595819Y-123991095D01*
X142656295Y-123749190D01*
X142656295Y-123325857D01*
X142595819Y-123083952D01*
X142474866Y-122963000D01*
X142353914Y-122902523D01*
X142112009Y-122902523D01*
X141991057Y-122963000D01*
X141870104Y-123083952D01*
X141809628Y-123325857D01*
X141809628Y-123749190D01*
X141870104Y-123991095D01*
X141991057Y-124112047D01*
X142112009Y-124172523D01*
X142353914Y-124172523D01*
X141204866Y-124172523D02*
X140962961Y-124172523D01*
X140842009Y-124112047D01*
X140781533Y-124051571D01*
X140660580Y-123870142D01*
X140600104Y-123628238D01*
X140600104Y-123144428D01*
X140660580Y-123023476D01*
X140721057Y-122963000D01*
X140842009Y-122902523D01*
X141083914Y-122902523D01*
X141204866Y-122963000D01*
X141265342Y-123023476D01*
X141325819Y-123144428D01*
X141325819Y-123446809D01*
X141265342Y-123567761D01*
X141204866Y-123628238D01*
X141083914Y-123688714D01*
X140842009Y-123688714D01*
X140721057Y-123628238D01*
X140660580Y-123567761D01*
X140600104Y-123446809D01*
D10*
%TO.C,R64*%
X159019780Y-100298342D02*
X158543590Y-99965009D01*
X159019780Y-99726914D02*
X158019780Y-99726914D01*
X158019780Y-100107866D01*
X158067400Y-100203104D01*
X158115019Y-100250723D01*
X158210257Y-100298342D01*
X158353114Y-100298342D01*
X158448352Y-100250723D01*
X158495971Y-100203104D01*
X158543590Y-100107866D01*
X158543590Y-99726914D01*
X158019780Y-101155485D02*
X158019780Y-100965009D01*
X158067400Y-100869771D01*
X158115019Y-100822152D01*
X158257876Y-100726914D01*
X158448352Y-100679295D01*
X158829304Y-100679295D01*
X158924542Y-100726914D01*
X158972161Y-100774533D01*
X159019780Y-100869771D01*
X159019780Y-101060247D01*
X158972161Y-101155485D01*
X158924542Y-101203104D01*
X158829304Y-101250723D01*
X158591209Y-101250723D01*
X158495971Y-101203104D01*
X158448352Y-101155485D01*
X158400733Y-101060247D01*
X158400733Y-100869771D01*
X158448352Y-100774533D01*
X158495971Y-100726914D01*
X158591209Y-100679295D01*
X158353114Y-102107866D02*
X159019780Y-102107866D01*
X157972161Y-101869771D02*
X158686447Y-101631676D01*
X158686447Y-102250723D01*
%TO.C,C86*%
X158847057Y-108583942D02*
X158894676Y-108631561D01*
X159037533Y-108679180D01*
X159132771Y-108679180D01*
X159275628Y-108631561D01*
X159370866Y-108536323D01*
X159418485Y-108441085D01*
X159466104Y-108250609D01*
X159466104Y-108107752D01*
X159418485Y-107917276D01*
X159370866Y-107822038D01*
X159275628Y-107726800D01*
X159132771Y-107679180D01*
X159037533Y-107679180D01*
X158894676Y-107726800D01*
X158847057Y-107774419D01*
X158275628Y-108107752D02*
X158370866Y-108060133D01*
X158418485Y-108012514D01*
X158466104Y-107917276D01*
X158466104Y-107869657D01*
X158418485Y-107774419D01*
X158370866Y-107726800D01*
X158275628Y-107679180D01*
X158085152Y-107679180D01*
X157989914Y-107726800D01*
X157942295Y-107774419D01*
X157894676Y-107869657D01*
X157894676Y-107917276D01*
X157942295Y-108012514D01*
X157989914Y-108060133D01*
X158085152Y-108107752D01*
X158275628Y-108107752D01*
X158370866Y-108155371D01*
X158418485Y-108202990D01*
X158466104Y-108298228D01*
X158466104Y-108488704D01*
X158418485Y-108583942D01*
X158370866Y-108631561D01*
X158275628Y-108679180D01*
X158085152Y-108679180D01*
X157989914Y-108631561D01*
X157942295Y-108583942D01*
X157894676Y-108488704D01*
X157894676Y-108298228D01*
X157942295Y-108202990D01*
X157989914Y-108155371D01*
X158085152Y-108107752D01*
X157037533Y-107679180D02*
X157228009Y-107679180D01*
X157323247Y-107726800D01*
X157370866Y-107774419D01*
X157466104Y-107917276D01*
X157513723Y-108107752D01*
X157513723Y-108488704D01*
X157466104Y-108583942D01*
X157418485Y-108631561D01*
X157323247Y-108679180D01*
X157132771Y-108679180D01*
X157037533Y-108631561D01*
X156989914Y-108583942D01*
X156942295Y-108488704D01*
X156942295Y-108250609D01*
X156989914Y-108155371D01*
X157037533Y-108107752D01*
X157132771Y-108060133D01*
X157323247Y-108060133D01*
X157418485Y-108107752D01*
X157466104Y-108155371D01*
X157513723Y-108250609D01*
%TO.C,M6*%
X127681980Y-96601076D02*
X126681980Y-96601076D01*
X127396266Y-96934409D01*
X126681980Y-97267742D01*
X127681980Y-97267742D01*
X126681980Y-98172504D02*
X126681980Y-97982028D01*
X126729600Y-97886790D01*
X126777219Y-97839171D01*
X126920076Y-97743933D01*
X127110552Y-97696314D01*
X127491504Y-97696314D01*
X127586742Y-97743933D01*
X127634361Y-97791552D01*
X127681980Y-97886790D01*
X127681980Y-98077266D01*
X127634361Y-98172504D01*
X127586742Y-98220123D01*
X127491504Y-98267742D01*
X127253409Y-98267742D01*
X127158171Y-98220123D01*
X127110552Y-98172504D01*
X127062933Y-98077266D01*
X127062933Y-97886790D01*
X127110552Y-97791552D01*
X127158171Y-97743933D01*
X127253409Y-97696314D01*
%TO.C,R62*%
X149722380Y-126057142D02*
X149246190Y-125723809D01*
X149722380Y-125485714D02*
X148722380Y-125485714D01*
X148722380Y-125866666D01*
X148770000Y-125961904D01*
X148817619Y-126009523D01*
X148912857Y-126057142D01*
X149055714Y-126057142D01*
X149150952Y-126009523D01*
X149198571Y-125961904D01*
X149246190Y-125866666D01*
X149246190Y-125485714D01*
X148722380Y-126914285D02*
X148722380Y-126723809D01*
X148770000Y-126628571D01*
X148817619Y-126580952D01*
X148960476Y-126485714D01*
X149150952Y-126438095D01*
X149531904Y-126438095D01*
X149627142Y-126485714D01*
X149674761Y-126533333D01*
X149722380Y-126628571D01*
X149722380Y-126819047D01*
X149674761Y-126914285D01*
X149627142Y-126961904D01*
X149531904Y-127009523D01*
X149293809Y-127009523D01*
X149198571Y-126961904D01*
X149150952Y-126914285D01*
X149103333Y-126819047D01*
X149103333Y-126628571D01*
X149150952Y-126533333D01*
X149198571Y-126485714D01*
X149293809Y-126438095D01*
X148817619Y-127390476D02*
X148770000Y-127438095D01*
X148722380Y-127533333D01*
X148722380Y-127771428D01*
X148770000Y-127866666D01*
X148817619Y-127914285D01*
X148912857Y-127961904D01*
X149008095Y-127961904D01*
X149150952Y-127914285D01*
X149722380Y-127342857D01*
X149722380Y-127961904D01*
%TO.C,C73*%
X156764257Y-110221342D02*
X156811876Y-110268961D01*
X156954733Y-110316580D01*
X157049971Y-110316580D01*
X157192828Y-110268961D01*
X157288066Y-110173723D01*
X157335685Y-110078485D01*
X157383304Y-109888009D01*
X157383304Y-109745152D01*
X157335685Y-109554676D01*
X157288066Y-109459438D01*
X157192828Y-109364200D01*
X157049971Y-109316580D01*
X156954733Y-109316580D01*
X156811876Y-109364200D01*
X156764257Y-109411819D01*
X156430923Y-109316580D02*
X155764257Y-109316580D01*
X156192828Y-110316580D01*
X155478542Y-109316580D02*
X154859495Y-109316580D01*
X155192828Y-109697533D01*
X155049971Y-109697533D01*
X154954733Y-109745152D01*
X154907114Y-109792771D01*
X154859495Y-109888009D01*
X154859495Y-110126104D01*
X154907114Y-110221342D01*
X154954733Y-110268961D01*
X155049971Y-110316580D01*
X155335685Y-110316580D01*
X155430923Y-110268961D01*
X155478542Y-110221342D01*
%TO.C,R53*%
X156738857Y-115421980D02*
X157072190Y-114945790D01*
X157310285Y-115421980D02*
X157310285Y-114421980D01*
X156929333Y-114421980D01*
X156834095Y-114469600D01*
X156786476Y-114517219D01*
X156738857Y-114612457D01*
X156738857Y-114755314D01*
X156786476Y-114850552D01*
X156834095Y-114898171D01*
X156929333Y-114945790D01*
X157310285Y-114945790D01*
X155834095Y-114421980D02*
X156310285Y-114421980D01*
X156357904Y-114898171D01*
X156310285Y-114850552D01*
X156215047Y-114802933D01*
X155976952Y-114802933D01*
X155881714Y-114850552D01*
X155834095Y-114898171D01*
X155786476Y-114993409D01*
X155786476Y-115231504D01*
X155834095Y-115326742D01*
X155881714Y-115374361D01*
X155976952Y-115421980D01*
X156215047Y-115421980D01*
X156310285Y-115374361D01*
X156357904Y-115326742D01*
X155453142Y-114421980D02*
X154834095Y-114421980D01*
X155167428Y-114802933D01*
X155024571Y-114802933D01*
X154929333Y-114850552D01*
X154881714Y-114898171D01*
X154834095Y-114993409D01*
X154834095Y-115231504D01*
X154881714Y-115326742D01*
X154929333Y-115374361D01*
X155024571Y-115421980D01*
X155310285Y-115421980D01*
X155405523Y-115374361D01*
X155453142Y-115326742D01*
%TO.C,J19*%
X142554523Y-130682380D02*
X142554523Y-131396666D01*
X142602142Y-131539523D01*
X142697380Y-131634761D01*
X142840238Y-131682380D01*
X142935476Y-131682380D01*
X141554523Y-131682380D02*
X142125952Y-131682380D01*
X141840238Y-131682380D02*
X141840238Y-130682380D01*
X141935476Y-130825238D01*
X142030714Y-130920476D01*
X142125952Y-130968095D01*
X141078333Y-131682380D02*
X140887857Y-131682380D01*
X140792619Y-131634761D01*
X140745000Y-131587142D01*
X140649761Y-131444285D01*
X140602142Y-131253809D01*
X140602142Y-130872857D01*
X140649761Y-130777619D01*
X140697380Y-130730000D01*
X140792619Y-130682380D01*
X140983095Y-130682380D01*
X141078333Y-130730000D01*
X141125952Y-130777619D01*
X141173571Y-130872857D01*
X141173571Y-131110952D01*
X141125952Y-131206190D01*
X141078333Y-131253809D01*
X140983095Y-131301428D01*
X140792619Y-131301428D01*
X140697380Y-131253809D01*
X140649761Y-131206190D01*
X140602142Y-131110952D01*
X143199000Y-130760000D02*
X142665666Y-130760000D01*
X142932333Y-131026666D02*
X142932333Y-130493333D01*
X142332333Y-131026666D02*
X142332333Y-130326666D01*
X141932333Y-131026666D01*
X141932333Y-130326666D01*
X141599000Y-131026666D02*
X141599000Y-130560000D01*
X141599000Y-130693333D02*
X141565666Y-130626666D01*
X141532333Y-130593333D01*
X141465666Y-130560000D01*
X141399000Y-130560000D01*
X140932333Y-130660000D02*
X140832333Y-130693333D01*
X140799000Y-130726666D01*
X140765666Y-130793333D01*
X140765666Y-130893333D01*
X140799000Y-130960000D01*
X140832333Y-130993333D01*
X140899000Y-131026666D01*
X141165666Y-131026666D01*
X141165666Y-130326666D01*
X140932333Y-130326666D01*
X140865666Y-130360000D01*
X140832333Y-130393333D01*
X140799000Y-130460000D01*
X140799000Y-130526666D01*
X140832333Y-130593333D01*
X140865666Y-130626666D01*
X140932333Y-130660000D01*
X141165666Y-130660000D01*
%TO.C,R65*%
X132654580Y-99841142D02*
X132178390Y-99507809D01*
X132654580Y-99269714D02*
X131654580Y-99269714D01*
X131654580Y-99650666D01*
X131702200Y-99745904D01*
X131749819Y-99793523D01*
X131845057Y-99841142D01*
X131987914Y-99841142D01*
X132083152Y-99793523D01*
X132130771Y-99745904D01*
X132178390Y-99650666D01*
X132178390Y-99269714D01*
X131654580Y-100698285D02*
X131654580Y-100507809D01*
X131702200Y-100412571D01*
X131749819Y-100364952D01*
X131892676Y-100269714D01*
X132083152Y-100222095D01*
X132464104Y-100222095D01*
X132559342Y-100269714D01*
X132606961Y-100317333D01*
X132654580Y-100412571D01*
X132654580Y-100603047D01*
X132606961Y-100698285D01*
X132559342Y-100745904D01*
X132464104Y-100793523D01*
X132226009Y-100793523D01*
X132130771Y-100745904D01*
X132083152Y-100698285D01*
X132035533Y-100603047D01*
X132035533Y-100412571D01*
X132083152Y-100317333D01*
X132130771Y-100269714D01*
X132226009Y-100222095D01*
X131654580Y-101698285D02*
X131654580Y-101222095D01*
X132130771Y-101174476D01*
X132083152Y-101222095D01*
X132035533Y-101317333D01*
X132035533Y-101555428D01*
X132083152Y-101650666D01*
X132130771Y-101698285D01*
X132226009Y-101745904D01*
X132464104Y-101745904D01*
X132559342Y-101698285D01*
X132606961Y-101650666D01*
X132654580Y-101555428D01*
X132654580Y-101317333D01*
X132606961Y-101222095D01*
X132559342Y-101174476D01*
%TO.C,C69*%
X143276857Y-118450942D02*
X143324476Y-118498561D01*
X143467333Y-118546180D01*
X143562571Y-118546180D01*
X143705428Y-118498561D01*
X143800666Y-118403323D01*
X143848285Y-118308085D01*
X143895904Y-118117609D01*
X143895904Y-117974752D01*
X143848285Y-117784276D01*
X143800666Y-117689038D01*
X143705428Y-117593800D01*
X143562571Y-117546180D01*
X143467333Y-117546180D01*
X143324476Y-117593800D01*
X143276857Y-117641419D01*
X142419714Y-117546180D02*
X142610190Y-117546180D01*
X142705428Y-117593800D01*
X142753047Y-117641419D01*
X142848285Y-117784276D01*
X142895904Y-117974752D01*
X142895904Y-118355704D01*
X142848285Y-118450942D01*
X142800666Y-118498561D01*
X142705428Y-118546180D01*
X142514952Y-118546180D01*
X142419714Y-118498561D01*
X142372095Y-118450942D01*
X142324476Y-118355704D01*
X142324476Y-118117609D01*
X142372095Y-118022371D01*
X142419714Y-117974752D01*
X142514952Y-117927133D01*
X142705428Y-117927133D01*
X142800666Y-117974752D01*
X142848285Y-118022371D01*
X142895904Y-118117609D01*
X141848285Y-118546180D02*
X141657809Y-118546180D01*
X141562571Y-118498561D01*
X141514952Y-118450942D01*
X141419714Y-118308085D01*
X141372095Y-118117609D01*
X141372095Y-117736657D01*
X141419714Y-117641419D01*
X141467333Y-117593800D01*
X141562571Y-117546180D01*
X141753047Y-117546180D01*
X141848285Y-117593800D01*
X141895904Y-117641419D01*
X141943523Y-117736657D01*
X141943523Y-117974752D01*
X141895904Y-118069990D01*
X141848285Y-118117609D01*
X141753047Y-118165228D01*
X141562571Y-118165228D01*
X141467333Y-118117609D01*
X141419714Y-118069990D01*
X141372095Y-117974752D01*
%TO.C,C75*%
X149601457Y-103576742D02*
X149649076Y-103624361D01*
X149791933Y-103671980D01*
X149887171Y-103671980D01*
X150030028Y-103624361D01*
X150125266Y-103529123D01*
X150172885Y-103433885D01*
X150220504Y-103243409D01*
X150220504Y-103100552D01*
X150172885Y-102910076D01*
X150125266Y-102814838D01*
X150030028Y-102719600D01*
X149887171Y-102671980D01*
X149791933Y-102671980D01*
X149649076Y-102719600D01*
X149601457Y-102767219D01*
X149268123Y-102671980D02*
X148601457Y-102671980D01*
X149030028Y-103671980D01*
X147744314Y-102671980D02*
X148220504Y-102671980D01*
X148268123Y-103148171D01*
X148220504Y-103100552D01*
X148125266Y-103052933D01*
X147887171Y-103052933D01*
X147791933Y-103100552D01*
X147744314Y-103148171D01*
X147696695Y-103243409D01*
X147696695Y-103481504D01*
X147744314Y-103576742D01*
X147791933Y-103624361D01*
X147887171Y-103671980D01*
X148125266Y-103671980D01*
X148220504Y-103624361D01*
X148268123Y-103576742D01*
%TO.C,C82*%
X132606742Y-99739542D02*
X132654361Y-99691923D01*
X132701980Y-99549066D01*
X132701980Y-99453828D01*
X132654361Y-99310971D01*
X132559123Y-99215733D01*
X132463885Y-99168114D01*
X132273409Y-99120495D01*
X132130552Y-99120495D01*
X131940076Y-99168114D01*
X131844838Y-99215733D01*
X131749600Y-99310971D01*
X131701980Y-99453828D01*
X131701980Y-99549066D01*
X131749600Y-99691923D01*
X131797219Y-99739542D01*
X132130552Y-100310971D02*
X132082933Y-100215733D01*
X132035314Y-100168114D01*
X131940076Y-100120495D01*
X131892457Y-100120495D01*
X131797219Y-100168114D01*
X131749600Y-100215733D01*
X131701980Y-100310971D01*
X131701980Y-100501447D01*
X131749600Y-100596685D01*
X131797219Y-100644304D01*
X131892457Y-100691923D01*
X131940076Y-100691923D01*
X132035314Y-100644304D01*
X132082933Y-100596685D01*
X132130552Y-100501447D01*
X132130552Y-100310971D01*
X132178171Y-100215733D01*
X132225790Y-100168114D01*
X132321028Y-100120495D01*
X132511504Y-100120495D01*
X132606742Y-100168114D01*
X132654361Y-100215733D01*
X132701980Y-100310971D01*
X132701980Y-100501447D01*
X132654361Y-100596685D01*
X132606742Y-100644304D01*
X132511504Y-100691923D01*
X132321028Y-100691923D01*
X132225790Y-100644304D01*
X132178171Y-100596685D01*
X132130552Y-100501447D01*
X131797219Y-101072876D02*
X131749600Y-101120495D01*
X131701980Y-101215733D01*
X131701980Y-101453828D01*
X131749600Y-101549066D01*
X131797219Y-101596685D01*
X131892457Y-101644304D01*
X131987695Y-101644304D01*
X132130552Y-101596685D01*
X132701980Y-101025257D01*
X132701980Y-101644304D01*
%TO.C,D5*%
X144997980Y-118999104D02*
X143997980Y-118999104D01*
X143997980Y-119237200D01*
X144045600Y-119380057D01*
X144140838Y-119475295D01*
X144236076Y-119522914D01*
X144426552Y-119570533D01*
X144569409Y-119570533D01*
X144759885Y-119522914D01*
X144855123Y-119475295D01*
X144950361Y-119380057D01*
X144997980Y-119237200D01*
X144997980Y-118999104D01*
X143997980Y-120475295D02*
X143997980Y-119999104D01*
X144474171Y-119951485D01*
X144426552Y-119999104D01*
X144378933Y-120094342D01*
X144378933Y-120332438D01*
X144426552Y-120427676D01*
X144474171Y-120475295D01*
X144569409Y-120522914D01*
X144807504Y-120522914D01*
X144902742Y-120475295D01*
X144950361Y-120427676D01*
X144997980Y-120332438D01*
X144997980Y-120094342D01*
X144950361Y-119999104D01*
X144902742Y-119951485D01*
%TO.C,C80*%
X137051742Y-123259942D02*
X137099361Y-123212323D01*
X137146980Y-123069466D01*
X137146980Y-122974228D01*
X137099361Y-122831371D01*
X137004123Y-122736133D01*
X136908885Y-122688514D01*
X136718409Y-122640895D01*
X136575552Y-122640895D01*
X136385076Y-122688514D01*
X136289838Y-122736133D01*
X136194600Y-122831371D01*
X136146980Y-122974228D01*
X136146980Y-123069466D01*
X136194600Y-123212323D01*
X136242219Y-123259942D01*
X136575552Y-123831371D02*
X136527933Y-123736133D01*
X136480314Y-123688514D01*
X136385076Y-123640895D01*
X136337457Y-123640895D01*
X136242219Y-123688514D01*
X136194600Y-123736133D01*
X136146980Y-123831371D01*
X136146980Y-124021847D01*
X136194600Y-124117085D01*
X136242219Y-124164704D01*
X136337457Y-124212323D01*
X136385076Y-124212323D01*
X136480314Y-124164704D01*
X136527933Y-124117085D01*
X136575552Y-124021847D01*
X136575552Y-123831371D01*
X136623171Y-123736133D01*
X136670790Y-123688514D01*
X136766028Y-123640895D01*
X136956504Y-123640895D01*
X137051742Y-123688514D01*
X137099361Y-123736133D01*
X137146980Y-123831371D01*
X137146980Y-124021847D01*
X137099361Y-124117085D01*
X137051742Y-124164704D01*
X136956504Y-124212323D01*
X136766028Y-124212323D01*
X136670790Y-124164704D01*
X136623171Y-124117085D01*
X136575552Y-124021847D01*
X136146980Y-124831371D02*
X136146980Y-124926609D01*
X136194600Y-125021847D01*
X136242219Y-125069466D01*
X136337457Y-125117085D01*
X136527933Y-125164704D01*
X136766028Y-125164704D01*
X136956504Y-125117085D01*
X137051742Y-125069466D01*
X137099361Y-125021847D01*
X137146980Y-124926609D01*
X137146980Y-124831371D01*
X137099361Y-124736133D01*
X137051742Y-124688514D01*
X136956504Y-124640895D01*
X136766028Y-124593276D01*
X136527933Y-124593276D01*
X136337457Y-124640895D01*
X136242219Y-124688514D01*
X136194600Y-124736133D01*
X136146980Y-124831371D01*
%TO.C,J17*%
X127309523Y-121452380D02*
X127309523Y-122166666D01*
X127357142Y-122309523D01*
X127452380Y-122404761D01*
X127595238Y-122452380D01*
X127690476Y-122452380D01*
X126309523Y-122452380D02*
X126880952Y-122452380D01*
X126595238Y-122452380D02*
X126595238Y-121452380D01*
X126690476Y-121595238D01*
X126785714Y-121690476D01*
X126880952Y-121738095D01*
X125976190Y-121452380D02*
X125309523Y-121452380D01*
X125738095Y-122452380D01*
%TO.C,C83*%
X159149742Y-113707742D02*
X159197361Y-113660123D01*
X159244980Y-113517266D01*
X159244980Y-113422028D01*
X159197361Y-113279171D01*
X159102123Y-113183933D01*
X159006885Y-113136314D01*
X158816409Y-113088695D01*
X158673552Y-113088695D01*
X158483076Y-113136314D01*
X158387838Y-113183933D01*
X158292600Y-113279171D01*
X158244980Y-113422028D01*
X158244980Y-113517266D01*
X158292600Y-113660123D01*
X158340219Y-113707742D01*
X158673552Y-114279171D02*
X158625933Y-114183933D01*
X158578314Y-114136314D01*
X158483076Y-114088695D01*
X158435457Y-114088695D01*
X158340219Y-114136314D01*
X158292600Y-114183933D01*
X158244980Y-114279171D01*
X158244980Y-114469647D01*
X158292600Y-114564885D01*
X158340219Y-114612504D01*
X158435457Y-114660123D01*
X158483076Y-114660123D01*
X158578314Y-114612504D01*
X158625933Y-114564885D01*
X158673552Y-114469647D01*
X158673552Y-114279171D01*
X158721171Y-114183933D01*
X158768790Y-114136314D01*
X158864028Y-114088695D01*
X159054504Y-114088695D01*
X159149742Y-114136314D01*
X159197361Y-114183933D01*
X159244980Y-114279171D01*
X159244980Y-114469647D01*
X159197361Y-114564885D01*
X159149742Y-114612504D01*
X159054504Y-114660123D01*
X158864028Y-114660123D01*
X158768790Y-114612504D01*
X158721171Y-114564885D01*
X158673552Y-114469647D01*
X158244980Y-114993457D02*
X158244980Y-115612504D01*
X158625933Y-115279171D01*
X158625933Y-115422028D01*
X158673552Y-115517266D01*
X158721171Y-115564885D01*
X158816409Y-115612504D01*
X159054504Y-115612504D01*
X159149742Y-115564885D01*
X159197361Y-115517266D01*
X159244980Y-115422028D01*
X159244980Y-115136314D01*
X159197361Y-115041076D01*
X159149742Y-114993457D01*
%TO.C,R58*%
X138958857Y-113110580D02*
X139292190Y-112634390D01*
X139530285Y-113110580D02*
X139530285Y-112110580D01*
X139149333Y-112110580D01*
X139054095Y-112158200D01*
X139006476Y-112205819D01*
X138958857Y-112301057D01*
X138958857Y-112443914D01*
X139006476Y-112539152D01*
X139054095Y-112586771D01*
X139149333Y-112634390D01*
X139530285Y-112634390D01*
X138054095Y-112110580D02*
X138530285Y-112110580D01*
X138577904Y-112586771D01*
X138530285Y-112539152D01*
X138435047Y-112491533D01*
X138196952Y-112491533D01*
X138101714Y-112539152D01*
X138054095Y-112586771D01*
X138006476Y-112682009D01*
X138006476Y-112920104D01*
X138054095Y-113015342D01*
X138101714Y-113062961D01*
X138196952Y-113110580D01*
X138435047Y-113110580D01*
X138530285Y-113062961D01*
X138577904Y-113015342D01*
X137435047Y-112539152D02*
X137530285Y-112491533D01*
X137577904Y-112443914D01*
X137625523Y-112348676D01*
X137625523Y-112301057D01*
X137577904Y-112205819D01*
X137530285Y-112158200D01*
X137435047Y-112110580D01*
X137244571Y-112110580D01*
X137149333Y-112158200D01*
X137101714Y-112205819D01*
X137054095Y-112301057D01*
X137054095Y-112348676D01*
X137101714Y-112443914D01*
X137149333Y-112491533D01*
X137244571Y-112539152D01*
X137435047Y-112539152D01*
X137530285Y-112586771D01*
X137577904Y-112634390D01*
X137625523Y-112729628D01*
X137625523Y-112920104D01*
X137577904Y-113015342D01*
X137530285Y-113062961D01*
X137435047Y-113110580D01*
X137244571Y-113110580D01*
X137149333Y-113062961D01*
X137101714Y-113015342D01*
X137054095Y-112920104D01*
X137054095Y-112729628D01*
X137101714Y-112634390D01*
X137149333Y-112586771D01*
X137244571Y-112539152D01*
%TO.C,C65*%
X158514742Y-100857142D02*
X158562361Y-100809523D01*
X158609980Y-100666666D01*
X158609980Y-100571428D01*
X158562361Y-100428571D01*
X158467123Y-100333333D01*
X158371885Y-100285714D01*
X158181409Y-100238095D01*
X158038552Y-100238095D01*
X157848076Y-100285714D01*
X157752838Y-100333333D01*
X157657600Y-100428571D01*
X157609980Y-100571428D01*
X157609980Y-100666666D01*
X157657600Y-100809523D01*
X157705219Y-100857142D01*
X157609980Y-101714285D02*
X157609980Y-101523809D01*
X157657600Y-101428571D01*
X157705219Y-101380952D01*
X157848076Y-101285714D01*
X158038552Y-101238095D01*
X158419504Y-101238095D01*
X158514742Y-101285714D01*
X158562361Y-101333333D01*
X158609980Y-101428571D01*
X158609980Y-101619047D01*
X158562361Y-101714285D01*
X158514742Y-101761904D01*
X158419504Y-101809523D01*
X158181409Y-101809523D01*
X158086171Y-101761904D01*
X158038552Y-101714285D01*
X157990933Y-101619047D01*
X157990933Y-101428571D01*
X158038552Y-101333333D01*
X158086171Y-101285714D01*
X158181409Y-101238095D01*
X157609980Y-102714285D02*
X157609980Y-102238095D01*
X158086171Y-102190476D01*
X158038552Y-102238095D01*
X157990933Y-102333333D01*
X157990933Y-102571428D01*
X158038552Y-102666666D01*
X158086171Y-102714285D01*
X158181409Y-102761904D01*
X158419504Y-102761904D01*
X158514742Y-102714285D01*
X158562361Y-102666666D01*
X158609980Y-102571428D01*
X158609980Y-102333333D01*
X158562361Y-102238095D01*
X158514742Y-102190476D01*
%TO.C,C63*%
X149626857Y-105049942D02*
X149674476Y-105097561D01*
X149817333Y-105145180D01*
X149912571Y-105145180D01*
X150055428Y-105097561D01*
X150150666Y-105002323D01*
X150198285Y-104907085D01*
X150245904Y-104716609D01*
X150245904Y-104573752D01*
X150198285Y-104383276D01*
X150150666Y-104288038D01*
X150055428Y-104192800D01*
X149912571Y-104145180D01*
X149817333Y-104145180D01*
X149674476Y-104192800D01*
X149626857Y-104240419D01*
X148769714Y-104145180D02*
X148960190Y-104145180D01*
X149055428Y-104192800D01*
X149103047Y-104240419D01*
X149198285Y-104383276D01*
X149245904Y-104573752D01*
X149245904Y-104954704D01*
X149198285Y-105049942D01*
X149150666Y-105097561D01*
X149055428Y-105145180D01*
X148864952Y-105145180D01*
X148769714Y-105097561D01*
X148722095Y-105049942D01*
X148674476Y-104954704D01*
X148674476Y-104716609D01*
X148722095Y-104621371D01*
X148769714Y-104573752D01*
X148864952Y-104526133D01*
X149055428Y-104526133D01*
X149150666Y-104573752D01*
X149198285Y-104621371D01*
X149245904Y-104716609D01*
X148341142Y-104145180D02*
X147722095Y-104145180D01*
X148055428Y-104526133D01*
X147912571Y-104526133D01*
X147817333Y-104573752D01*
X147769714Y-104621371D01*
X147722095Y-104716609D01*
X147722095Y-104954704D01*
X147769714Y-105049942D01*
X147817333Y-105097561D01*
X147912571Y-105145180D01*
X148198285Y-105145180D01*
X148293523Y-105097561D01*
X148341142Y-105049942D01*
%TO.C,C62*%
X152980942Y-104019142D02*
X153028561Y-103971523D01*
X153076180Y-103828666D01*
X153076180Y-103733428D01*
X153028561Y-103590571D01*
X152933323Y-103495333D01*
X152838085Y-103447714D01*
X152647609Y-103400095D01*
X152504752Y-103400095D01*
X152314276Y-103447714D01*
X152219038Y-103495333D01*
X152123800Y-103590571D01*
X152076180Y-103733428D01*
X152076180Y-103828666D01*
X152123800Y-103971523D01*
X152171419Y-104019142D01*
X152076180Y-104876285D02*
X152076180Y-104685809D01*
X152123800Y-104590571D01*
X152171419Y-104542952D01*
X152314276Y-104447714D01*
X152504752Y-104400095D01*
X152885704Y-104400095D01*
X152980942Y-104447714D01*
X153028561Y-104495333D01*
X153076180Y-104590571D01*
X153076180Y-104781047D01*
X153028561Y-104876285D01*
X152980942Y-104923904D01*
X152885704Y-104971523D01*
X152647609Y-104971523D01*
X152552371Y-104923904D01*
X152504752Y-104876285D01*
X152457133Y-104781047D01*
X152457133Y-104590571D01*
X152504752Y-104495333D01*
X152552371Y-104447714D01*
X152647609Y-104400095D01*
X152171419Y-105352476D02*
X152123800Y-105400095D01*
X152076180Y-105495333D01*
X152076180Y-105733428D01*
X152123800Y-105828666D01*
X152171419Y-105876285D01*
X152266657Y-105923904D01*
X152361895Y-105923904D01*
X152504752Y-105876285D01*
X153076180Y-105304857D01*
X153076180Y-105923904D01*
%TO.C,C71*%
X153082542Y-121100942D02*
X153130161Y-121053323D01*
X153177780Y-120910466D01*
X153177780Y-120815228D01*
X153130161Y-120672371D01*
X153034923Y-120577133D01*
X152939685Y-120529514D01*
X152749209Y-120481895D01*
X152606352Y-120481895D01*
X152415876Y-120529514D01*
X152320638Y-120577133D01*
X152225400Y-120672371D01*
X152177780Y-120815228D01*
X152177780Y-120910466D01*
X152225400Y-121053323D01*
X152273019Y-121100942D01*
X152177780Y-121434276D02*
X152177780Y-122100942D01*
X153177780Y-121672371D01*
X153177780Y-123005704D02*
X153177780Y-122434276D01*
X153177780Y-122719990D02*
X152177780Y-122719990D01*
X152320638Y-122624752D01*
X152415876Y-122529514D01*
X152463495Y-122434276D01*
%TO.C,J24*%
X162976123Y-104521780D02*
X162976123Y-105236066D01*
X163023742Y-105378923D01*
X163118980Y-105474161D01*
X163261838Y-105521780D01*
X163357076Y-105521780D01*
X162547552Y-104617019D02*
X162499933Y-104569400D01*
X162404695Y-104521780D01*
X162166600Y-104521780D01*
X162071361Y-104569400D01*
X162023742Y-104617019D01*
X161976123Y-104712257D01*
X161976123Y-104807495D01*
X162023742Y-104950352D01*
X162595171Y-105521780D01*
X161976123Y-105521780D01*
X161118980Y-104855114D02*
X161118980Y-105521780D01*
X161357076Y-104474161D02*
X161595171Y-105188447D01*
X160976123Y-105188447D01*
%TO.C,C68*%
X159899942Y-124428342D02*
X159947561Y-124380723D01*
X159995180Y-124237866D01*
X159995180Y-124142628D01*
X159947561Y-123999771D01*
X159852323Y-123904533D01*
X159757085Y-123856914D01*
X159566609Y-123809295D01*
X159423752Y-123809295D01*
X159233276Y-123856914D01*
X159138038Y-123904533D01*
X159042800Y-123999771D01*
X158995180Y-124142628D01*
X158995180Y-124237866D01*
X159042800Y-124380723D01*
X159090419Y-124428342D01*
X158995180Y-125285485D02*
X158995180Y-125095009D01*
X159042800Y-124999771D01*
X159090419Y-124952152D01*
X159233276Y-124856914D01*
X159423752Y-124809295D01*
X159804704Y-124809295D01*
X159899942Y-124856914D01*
X159947561Y-124904533D01*
X159995180Y-124999771D01*
X159995180Y-125190247D01*
X159947561Y-125285485D01*
X159899942Y-125333104D01*
X159804704Y-125380723D01*
X159566609Y-125380723D01*
X159471371Y-125333104D01*
X159423752Y-125285485D01*
X159376133Y-125190247D01*
X159376133Y-124999771D01*
X159423752Y-124904533D01*
X159471371Y-124856914D01*
X159566609Y-124809295D01*
X159423752Y-125952152D02*
X159376133Y-125856914D01*
X159328514Y-125809295D01*
X159233276Y-125761676D01*
X159185657Y-125761676D01*
X159090419Y-125809295D01*
X159042800Y-125856914D01*
X158995180Y-125952152D01*
X158995180Y-126142628D01*
X159042800Y-126237866D01*
X159090419Y-126285485D01*
X159185657Y-126333104D01*
X159233276Y-126333104D01*
X159328514Y-126285485D01*
X159376133Y-126237866D01*
X159423752Y-126142628D01*
X159423752Y-125952152D01*
X159471371Y-125856914D01*
X159518990Y-125809295D01*
X159614228Y-125761676D01*
X159804704Y-125761676D01*
X159899942Y-125809295D01*
X159947561Y-125856914D01*
X159995180Y-125952152D01*
X159995180Y-126142628D01*
X159947561Y-126237866D01*
X159899942Y-126285485D01*
X159804704Y-126333104D01*
X159614228Y-126333104D01*
X159518990Y-126285485D01*
X159471371Y-126237866D01*
X159423752Y-126142628D01*
%TO.C,M5*%
X154798780Y-96804276D02*
X153798780Y-96804276D01*
X154513066Y-97137609D01*
X153798780Y-97470942D01*
X154798780Y-97470942D01*
X153798780Y-98423323D02*
X153798780Y-97947133D01*
X154274971Y-97899514D01*
X154227352Y-97947133D01*
X154179733Y-98042371D01*
X154179733Y-98280466D01*
X154227352Y-98375704D01*
X154274971Y-98423323D01*
X154370209Y-98470942D01*
X154608304Y-98470942D01*
X154703542Y-98423323D01*
X154751161Y-98375704D01*
X154798780Y-98280466D01*
X154798780Y-98042371D01*
X154751161Y-97947133D01*
X154703542Y-97899514D01*
%TO.C,R67*%
X131181380Y-99841142D02*
X130705190Y-99507809D01*
X131181380Y-99269714D02*
X130181380Y-99269714D01*
X130181380Y-99650666D01*
X130229000Y-99745904D01*
X130276619Y-99793523D01*
X130371857Y-99841142D01*
X130514714Y-99841142D01*
X130609952Y-99793523D01*
X130657571Y-99745904D01*
X130705190Y-99650666D01*
X130705190Y-99269714D01*
X130181380Y-100698285D02*
X130181380Y-100507809D01*
X130229000Y-100412571D01*
X130276619Y-100364952D01*
X130419476Y-100269714D01*
X130609952Y-100222095D01*
X130990904Y-100222095D01*
X131086142Y-100269714D01*
X131133761Y-100317333D01*
X131181380Y-100412571D01*
X131181380Y-100603047D01*
X131133761Y-100698285D01*
X131086142Y-100745904D01*
X130990904Y-100793523D01*
X130752809Y-100793523D01*
X130657571Y-100745904D01*
X130609952Y-100698285D01*
X130562333Y-100603047D01*
X130562333Y-100412571D01*
X130609952Y-100317333D01*
X130657571Y-100269714D01*
X130752809Y-100222095D01*
X130181380Y-101126857D02*
X130181380Y-101793523D01*
X131181380Y-101364952D01*
%TO.C,R66*%
X157521180Y-100298342D02*
X157044990Y-99965009D01*
X157521180Y-99726914D02*
X156521180Y-99726914D01*
X156521180Y-100107866D01*
X156568800Y-100203104D01*
X156616419Y-100250723D01*
X156711657Y-100298342D01*
X156854514Y-100298342D01*
X156949752Y-100250723D01*
X156997371Y-100203104D01*
X157044990Y-100107866D01*
X157044990Y-99726914D01*
X156521180Y-101155485D02*
X156521180Y-100965009D01*
X156568800Y-100869771D01*
X156616419Y-100822152D01*
X156759276Y-100726914D01*
X156949752Y-100679295D01*
X157330704Y-100679295D01*
X157425942Y-100726914D01*
X157473561Y-100774533D01*
X157521180Y-100869771D01*
X157521180Y-101060247D01*
X157473561Y-101155485D01*
X157425942Y-101203104D01*
X157330704Y-101250723D01*
X157092609Y-101250723D01*
X156997371Y-101203104D01*
X156949752Y-101155485D01*
X156902133Y-101060247D01*
X156902133Y-100869771D01*
X156949752Y-100774533D01*
X156997371Y-100726914D01*
X157092609Y-100679295D01*
X156521180Y-102107866D02*
X156521180Y-101917390D01*
X156568800Y-101822152D01*
X156616419Y-101774533D01*
X156759276Y-101679295D01*
X156949752Y-101631676D01*
X157330704Y-101631676D01*
X157425942Y-101679295D01*
X157473561Y-101726914D01*
X157521180Y-101822152D01*
X157521180Y-102012628D01*
X157473561Y-102107866D01*
X157425942Y-102155485D01*
X157330704Y-102203104D01*
X157092609Y-102203104D01*
X156997371Y-102155485D01*
X156949752Y-102107866D01*
X156902133Y-102012628D01*
X156902133Y-101822152D01*
X156949752Y-101726914D01*
X156997371Y-101679295D01*
X157092609Y-101631676D01*
%TO.C,C79*%
X131973857Y-118803142D02*
X132021476Y-118850761D01*
X132164333Y-118898380D01*
X132259571Y-118898380D01*
X132402428Y-118850761D01*
X132497666Y-118755523D01*
X132545285Y-118660285D01*
X132592904Y-118469809D01*
X132592904Y-118326952D01*
X132545285Y-118136476D01*
X132497666Y-118041238D01*
X132402428Y-117946000D01*
X132259571Y-117898380D01*
X132164333Y-117898380D01*
X132021476Y-117946000D01*
X131973857Y-117993619D01*
X131640523Y-117898380D02*
X130973857Y-117898380D01*
X131402428Y-118898380D01*
X130545285Y-118898380D02*
X130354809Y-118898380D01*
X130259571Y-118850761D01*
X130211952Y-118803142D01*
X130116714Y-118660285D01*
X130069095Y-118469809D01*
X130069095Y-118088857D01*
X130116714Y-117993619D01*
X130164333Y-117946000D01*
X130259571Y-117898380D01*
X130450047Y-117898380D01*
X130545285Y-117946000D01*
X130592904Y-117993619D01*
X130640523Y-118088857D01*
X130640523Y-118326952D01*
X130592904Y-118422190D01*
X130545285Y-118469809D01*
X130450047Y-118517428D01*
X130259571Y-118517428D01*
X130164333Y-118469809D01*
X130116714Y-118422190D01*
X130069095Y-118326952D01*
%TO.C,J20*%
X128762323Y-119012380D02*
X128762323Y-119726666D01*
X128809942Y-119869523D01*
X128905180Y-119964761D01*
X129048038Y-120012380D01*
X129143276Y-120012380D01*
X128333752Y-119107619D02*
X128286133Y-119060000D01*
X128190895Y-119012380D01*
X127952800Y-119012380D01*
X127857561Y-119060000D01*
X127809942Y-119107619D01*
X127762323Y-119202857D01*
X127762323Y-119298095D01*
X127809942Y-119440952D01*
X128381371Y-120012380D01*
X127762323Y-120012380D01*
X127143276Y-119012380D02*
X127048038Y-119012380D01*
X126952800Y-119060000D01*
X126905180Y-119107619D01*
X126857561Y-119202857D01*
X126809942Y-119393333D01*
X126809942Y-119631428D01*
X126857561Y-119821904D01*
X126905180Y-119917142D01*
X126952800Y-119964761D01*
X127048038Y-120012380D01*
X127143276Y-120012380D01*
X127238514Y-119964761D01*
X127286133Y-119917142D01*
X127333752Y-119821904D01*
X127381371Y-119631428D01*
X127381371Y-119393333D01*
X127333752Y-119202857D01*
X127286133Y-119107619D01*
X127238514Y-119060000D01*
X127143276Y-119012380D01*
%TO.C,C78*%
X140751742Y-127908142D02*
X140799361Y-127860523D01*
X140846980Y-127717666D01*
X140846980Y-127622428D01*
X140799361Y-127479571D01*
X140704123Y-127384333D01*
X140608885Y-127336714D01*
X140418409Y-127289095D01*
X140275552Y-127289095D01*
X140085076Y-127336714D01*
X139989838Y-127384333D01*
X139894600Y-127479571D01*
X139846980Y-127622428D01*
X139846980Y-127717666D01*
X139894600Y-127860523D01*
X139942219Y-127908142D01*
X139846980Y-128241476D02*
X139846980Y-128908142D01*
X140846980Y-128479571D01*
X140275552Y-129431952D02*
X140227933Y-129336714D01*
X140180314Y-129289095D01*
X140085076Y-129241476D01*
X140037457Y-129241476D01*
X139942219Y-129289095D01*
X139894600Y-129336714D01*
X139846980Y-129431952D01*
X139846980Y-129622428D01*
X139894600Y-129717666D01*
X139942219Y-129765285D01*
X140037457Y-129812904D01*
X140085076Y-129812904D01*
X140180314Y-129765285D01*
X140227933Y-129717666D01*
X140275552Y-129622428D01*
X140275552Y-129431952D01*
X140323171Y-129336714D01*
X140370790Y-129289095D01*
X140466028Y-129241476D01*
X140656504Y-129241476D01*
X140751742Y-129289095D01*
X140799361Y-129336714D01*
X140846980Y-129431952D01*
X140846980Y-129622428D01*
X140799361Y-129717666D01*
X140751742Y-129765285D01*
X140656504Y-129812904D01*
X140466028Y-129812904D01*
X140370790Y-129765285D01*
X140323171Y-129717666D01*
X140275552Y-129622428D01*
%TO.C,C47*%
X193842857Y-95907142D02*
X193890476Y-95954761D01*
X194033333Y-96002380D01*
X194128571Y-96002380D01*
X194271428Y-95954761D01*
X194366666Y-95859523D01*
X194414285Y-95764285D01*
X194461904Y-95573809D01*
X194461904Y-95430952D01*
X194414285Y-95240476D01*
X194366666Y-95145238D01*
X194271428Y-95050000D01*
X194128571Y-95002380D01*
X194033333Y-95002380D01*
X193890476Y-95050000D01*
X193842857Y-95097619D01*
X192985714Y-95335714D02*
X192985714Y-96002380D01*
X193223809Y-94954761D02*
X193461904Y-95669047D01*
X192842857Y-95669047D01*
X192557142Y-95002380D02*
X191890476Y-95002380D01*
X192319047Y-96002380D01*
%TO.C,J13*%
X175886523Y-82966380D02*
X175886523Y-83680666D01*
X175934142Y-83823523D01*
X176029380Y-83918761D01*
X176172238Y-83966380D01*
X176267476Y-83966380D01*
X174886523Y-83966380D02*
X175457952Y-83966380D01*
X175172238Y-83966380D02*
X175172238Y-82966380D01*
X175267476Y-83109238D01*
X175362714Y-83204476D01*
X175457952Y-83252095D01*
X174553190Y-82966380D02*
X173934142Y-82966380D01*
X174267476Y-83347333D01*
X174124619Y-83347333D01*
X174029380Y-83394952D01*
X173981761Y-83442571D01*
X173934142Y-83537809D01*
X173934142Y-83775904D01*
X173981761Y-83871142D01*
X174029380Y-83918761D01*
X174124619Y-83966380D01*
X174410333Y-83966380D01*
X174505571Y-83918761D01*
X174553190Y-83871142D01*
%TO.C,R40*%
X191022380Y-89957142D02*
X190546190Y-89623809D01*
X191022380Y-89385714D02*
X190022380Y-89385714D01*
X190022380Y-89766666D01*
X190070000Y-89861904D01*
X190117619Y-89909523D01*
X190212857Y-89957142D01*
X190355714Y-89957142D01*
X190450952Y-89909523D01*
X190498571Y-89861904D01*
X190546190Y-89766666D01*
X190546190Y-89385714D01*
X190355714Y-90814285D02*
X191022380Y-90814285D01*
X189974761Y-90576190D02*
X190689047Y-90338095D01*
X190689047Y-90957142D01*
X190022380Y-91528571D02*
X190022380Y-91623809D01*
X190070000Y-91719047D01*
X190117619Y-91766666D01*
X190212857Y-91814285D01*
X190403333Y-91861904D01*
X190641428Y-91861904D01*
X190831904Y-91814285D01*
X190927142Y-91766666D01*
X190974761Y-91719047D01*
X191022380Y-91623809D01*
X191022380Y-91528571D01*
X190974761Y-91433333D01*
X190927142Y-91385714D01*
X190831904Y-91338095D01*
X190641428Y-91290476D01*
X190403333Y-91290476D01*
X190212857Y-91338095D01*
X190117619Y-91385714D01*
X190070000Y-91433333D01*
X190022380Y-91528571D01*
D11*
%TO.C,IC4*%
X182153923Y-79957438D02*
X180883923Y-79957438D01*
X182032971Y-81287914D02*
X182093447Y-81227438D01*
X182153923Y-81046009D01*
X182153923Y-80925057D01*
X182093447Y-80743628D01*
X181972495Y-80622676D01*
X181851542Y-80562200D01*
X181609638Y-80501723D01*
X181428209Y-80501723D01*
X181186304Y-80562200D01*
X181065352Y-80622676D01*
X180944400Y-80743628D01*
X180883923Y-80925057D01*
X180883923Y-81046009D01*
X180944400Y-81227438D01*
X181004876Y-81287914D01*
X181307257Y-82376485D02*
X182153923Y-82376485D01*
X180823447Y-82074104D02*
X181730590Y-81771723D01*
X181730590Y-82557914D01*
D10*
%TO.C,C31*%
X200688057Y-80850742D02*
X200735676Y-80898361D01*
X200878533Y-80945980D01*
X200973771Y-80945980D01*
X201116628Y-80898361D01*
X201211866Y-80803123D01*
X201259485Y-80707885D01*
X201307104Y-80517409D01*
X201307104Y-80374552D01*
X201259485Y-80184076D01*
X201211866Y-80088838D01*
X201116628Y-79993600D01*
X200973771Y-79945980D01*
X200878533Y-79945980D01*
X200735676Y-79993600D01*
X200688057Y-80041219D01*
X200354723Y-79945980D02*
X199735676Y-79945980D01*
X200069009Y-80326933D01*
X199926152Y-80326933D01*
X199830914Y-80374552D01*
X199783295Y-80422171D01*
X199735676Y-80517409D01*
X199735676Y-80755504D01*
X199783295Y-80850742D01*
X199830914Y-80898361D01*
X199926152Y-80945980D01*
X200211866Y-80945980D01*
X200307104Y-80898361D01*
X200354723Y-80850742D01*
X198783295Y-80945980D02*
X199354723Y-80945980D01*
X199069009Y-80945980D02*
X199069009Y-79945980D01*
X199164247Y-80088838D01*
X199259485Y-80184076D01*
X199354723Y-80231695D01*
D11*
%TO.C,Q8*%
X185749152Y-88293476D02*
X185870104Y-88233000D01*
X185991057Y-88112047D01*
X186172485Y-87930619D01*
X186293438Y-87870142D01*
X186414390Y-87870142D01*
X186353914Y-88172523D02*
X186474866Y-88112047D01*
X186595819Y-87991095D01*
X186656295Y-87749190D01*
X186656295Y-87325857D01*
X186595819Y-87083952D01*
X186474866Y-86963000D01*
X186353914Y-86902523D01*
X186112009Y-86902523D01*
X185991057Y-86963000D01*
X185870104Y-87083952D01*
X185809628Y-87325857D01*
X185809628Y-87749190D01*
X185870104Y-87991095D01*
X185991057Y-88112047D01*
X186112009Y-88172523D01*
X186353914Y-88172523D01*
X185083914Y-87446809D02*
X185204866Y-87386333D01*
X185265342Y-87325857D01*
X185325819Y-87204904D01*
X185325819Y-87144428D01*
X185265342Y-87023476D01*
X185204866Y-86963000D01*
X185083914Y-86902523D01*
X184842009Y-86902523D01*
X184721057Y-86963000D01*
X184660580Y-87023476D01*
X184600104Y-87144428D01*
X184600104Y-87204904D01*
X184660580Y-87325857D01*
X184721057Y-87386333D01*
X184842009Y-87446809D01*
X185083914Y-87446809D01*
X185204866Y-87507285D01*
X185265342Y-87567761D01*
X185325819Y-87688714D01*
X185325819Y-87930619D01*
X185265342Y-88051571D01*
X185204866Y-88112047D01*
X185083914Y-88172523D01*
X184842009Y-88172523D01*
X184721057Y-88112047D01*
X184660580Y-88051571D01*
X184600104Y-87930619D01*
X184600104Y-87688714D01*
X184660580Y-87567761D01*
X184721057Y-87507285D01*
X184842009Y-87446809D01*
D10*
%TO.C,R41*%
X203019780Y-64298342D02*
X202543590Y-63965009D01*
X203019780Y-63726914D02*
X202019780Y-63726914D01*
X202019780Y-64107866D01*
X202067400Y-64203104D01*
X202115019Y-64250723D01*
X202210257Y-64298342D01*
X202353114Y-64298342D01*
X202448352Y-64250723D01*
X202495971Y-64203104D01*
X202543590Y-64107866D01*
X202543590Y-63726914D01*
X202353114Y-65155485D02*
X203019780Y-65155485D01*
X201972161Y-64917390D02*
X202686447Y-64679295D01*
X202686447Y-65298342D01*
X203019780Y-66203104D02*
X203019780Y-65631676D01*
X203019780Y-65917390D02*
X202019780Y-65917390D01*
X202162638Y-65822152D01*
X202257876Y-65726914D01*
X202305495Y-65631676D01*
%TO.C,C56*%
X202847057Y-72583942D02*
X202894676Y-72631561D01*
X203037533Y-72679180D01*
X203132771Y-72679180D01*
X203275628Y-72631561D01*
X203370866Y-72536323D01*
X203418485Y-72441085D01*
X203466104Y-72250609D01*
X203466104Y-72107752D01*
X203418485Y-71917276D01*
X203370866Y-71822038D01*
X203275628Y-71726800D01*
X203132771Y-71679180D01*
X203037533Y-71679180D01*
X202894676Y-71726800D01*
X202847057Y-71774419D01*
X201942295Y-71679180D02*
X202418485Y-71679180D01*
X202466104Y-72155371D01*
X202418485Y-72107752D01*
X202323247Y-72060133D01*
X202085152Y-72060133D01*
X201989914Y-72107752D01*
X201942295Y-72155371D01*
X201894676Y-72250609D01*
X201894676Y-72488704D01*
X201942295Y-72583942D01*
X201989914Y-72631561D01*
X202085152Y-72679180D01*
X202323247Y-72679180D01*
X202418485Y-72631561D01*
X202466104Y-72583942D01*
X201037533Y-71679180D02*
X201228009Y-71679180D01*
X201323247Y-71726800D01*
X201370866Y-71774419D01*
X201466104Y-71917276D01*
X201513723Y-72107752D01*
X201513723Y-72488704D01*
X201466104Y-72583942D01*
X201418485Y-72631561D01*
X201323247Y-72679180D01*
X201132771Y-72679180D01*
X201037533Y-72631561D01*
X200989914Y-72583942D01*
X200942295Y-72488704D01*
X200942295Y-72250609D01*
X200989914Y-72155371D01*
X201037533Y-72107752D01*
X201132771Y-72060133D01*
X201323247Y-72060133D01*
X201418485Y-72107752D01*
X201466104Y-72155371D01*
X201513723Y-72250609D01*
%TO.C,M4*%
X171681980Y-60601076D02*
X170681980Y-60601076D01*
X171396266Y-60934409D01*
X170681980Y-61267742D01*
X171681980Y-61267742D01*
X171015314Y-62172504D02*
X171681980Y-62172504D01*
X170634361Y-61934409D02*
X171348647Y-61696314D01*
X171348647Y-62315361D01*
%TO.C,R39*%
X193722380Y-90057142D02*
X193246190Y-89723809D01*
X193722380Y-89485714D02*
X192722380Y-89485714D01*
X192722380Y-89866666D01*
X192770000Y-89961904D01*
X192817619Y-90009523D01*
X192912857Y-90057142D01*
X193055714Y-90057142D01*
X193150952Y-90009523D01*
X193198571Y-89961904D01*
X193246190Y-89866666D01*
X193246190Y-89485714D01*
X192722380Y-90390476D02*
X192722380Y-91009523D01*
X193103333Y-90676190D01*
X193103333Y-90819047D01*
X193150952Y-90914285D01*
X193198571Y-90961904D01*
X193293809Y-91009523D01*
X193531904Y-91009523D01*
X193627142Y-90961904D01*
X193674761Y-90914285D01*
X193722380Y-90819047D01*
X193722380Y-90533333D01*
X193674761Y-90438095D01*
X193627142Y-90390476D01*
X193722380Y-91485714D02*
X193722380Y-91676190D01*
X193674761Y-91771428D01*
X193627142Y-91819047D01*
X193484285Y-91914285D01*
X193293809Y-91961904D01*
X192912857Y-91961904D01*
X192817619Y-91914285D01*
X192770000Y-91866666D01*
X192722380Y-91771428D01*
X192722380Y-91580952D01*
X192770000Y-91485714D01*
X192817619Y-91438095D01*
X192912857Y-91390476D01*
X193150952Y-91390476D01*
X193246190Y-91438095D01*
X193293809Y-91485714D01*
X193341428Y-91580952D01*
X193341428Y-91771428D01*
X193293809Y-91866666D01*
X193246190Y-91914285D01*
X193150952Y-91961904D01*
%TO.C,C43*%
X200764257Y-74221342D02*
X200811876Y-74268961D01*
X200954733Y-74316580D01*
X201049971Y-74316580D01*
X201192828Y-74268961D01*
X201288066Y-74173723D01*
X201335685Y-74078485D01*
X201383304Y-73888009D01*
X201383304Y-73745152D01*
X201335685Y-73554676D01*
X201288066Y-73459438D01*
X201192828Y-73364200D01*
X201049971Y-73316580D01*
X200954733Y-73316580D01*
X200811876Y-73364200D01*
X200764257Y-73411819D01*
X199907114Y-73649914D02*
X199907114Y-74316580D01*
X200145209Y-73268961D02*
X200383304Y-73983247D01*
X199764257Y-73983247D01*
X199478542Y-73316580D02*
X198859495Y-73316580D01*
X199192828Y-73697533D01*
X199049971Y-73697533D01*
X198954733Y-73745152D01*
X198907114Y-73792771D01*
X198859495Y-73888009D01*
X198859495Y-74126104D01*
X198907114Y-74221342D01*
X198954733Y-74268961D01*
X199049971Y-74316580D01*
X199335685Y-74316580D01*
X199430923Y-74268961D01*
X199478542Y-74221342D01*
%TO.C,R30*%
X200738857Y-79421980D02*
X201072190Y-78945790D01*
X201310285Y-79421980D02*
X201310285Y-78421980D01*
X200929333Y-78421980D01*
X200834095Y-78469600D01*
X200786476Y-78517219D01*
X200738857Y-78612457D01*
X200738857Y-78755314D01*
X200786476Y-78850552D01*
X200834095Y-78898171D01*
X200929333Y-78945790D01*
X201310285Y-78945790D01*
X200405523Y-78421980D02*
X199786476Y-78421980D01*
X200119809Y-78802933D01*
X199976952Y-78802933D01*
X199881714Y-78850552D01*
X199834095Y-78898171D01*
X199786476Y-78993409D01*
X199786476Y-79231504D01*
X199834095Y-79326742D01*
X199881714Y-79374361D01*
X199976952Y-79421980D01*
X200262666Y-79421980D01*
X200357904Y-79374361D01*
X200405523Y-79326742D01*
X199167428Y-78421980D02*
X199072190Y-78421980D01*
X198976952Y-78469600D01*
X198929333Y-78517219D01*
X198881714Y-78612457D01*
X198834095Y-78802933D01*
X198834095Y-79041028D01*
X198881714Y-79231504D01*
X198929333Y-79326742D01*
X198976952Y-79374361D01*
X199072190Y-79421980D01*
X199167428Y-79421980D01*
X199262666Y-79374361D01*
X199310285Y-79326742D01*
X199357904Y-79231504D01*
X199405523Y-79041028D01*
X199405523Y-78802933D01*
X199357904Y-78612457D01*
X199310285Y-78517219D01*
X199262666Y-78469600D01*
X199167428Y-78421980D01*
%TO.C,J9*%
X186078333Y-94682380D02*
X186078333Y-95396666D01*
X186125952Y-95539523D01*
X186221190Y-95634761D01*
X186364047Y-95682380D01*
X186459285Y-95682380D01*
X185554523Y-95682380D02*
X185364047Y-95682380D01*
X185268809Y-95634761D01*
X185221190Y-95587142D01*
X185125952Y-95444285D01*
X185078333Y-95253809D01*
X185078333Y-94872857D01*
X185125952Y-94777619D01*
X185173571Y-94730000D01*
X185268809Y-94682380D01*
X185459285Y-94682380D01*
X185554523Y-94730000D01*
X185602142Y-94777619D01*
X185649761Y-94872857D01*
X185649761Y-95110952D01*
X185602142Y-95206190D01*
X185554523Y-95253809D01*
X185459285Y-95301428D01*
X185268809Y-95301428D01*
X185173571Y-95253809D01*
X185125952Y-95206190D01*
X185078333Y-95110952D01*
X187199000Y-94760000D02*
X186665666Y-94760000D01*
X186932333Y-95026666D02*
X186932333Y-94493333D01*
X186332333Y-95026666D02*
X186332333Y-94326666D01*
X185932333Y-95026666D01*
X185932333Y-94326666D01*
X185599000Y-95026666D02*
X185599000Y-94560000D01*
X185599000Y-94693333D02*
X185565666Y-94626666D01*
X185532333Y-94593333D01*
X185465666Y-94560000D01*
X185399000Y-94560000D01*
X184932333Y-94660000D02*
X184832333Y-94693333D01*
X184799000Y-94726666D01*
X184765666Y-94793333D01*
X184765666Y-94893333D01*
X184799000Y-94960000D01*
X184832333Y-94993333D01*
X184899000Y-95026666D01*
X185165666Y-95026666D01*
X185165666Y-94326666D01*
X184932333Y-94326666D01*
X184865666Y-94360000D01*
X184832333Y-94393333D01*
X184799000Y-94460000D01*
X184799000Y-94526666D01*
X184832333Y-94593333D01*
X184865666Y-94626666D01*
X184932333Y-94660000D01*
X185165666Y-94660000D01*
%TO.C,R42*%
X176654580Y-63841142D02*
X176178390Y-63507809D01*
X176654580Y-63269714D02*
X175654580Y-63269714D01*
X175654580Y-63650666D01*
X175702200Y-63745904D01*
X175749819Y-63793523D01*
X175845057Y-63841142D01*
X175987914Y-63841142D01*
X176083152Y-63793523D01*
X176130771Y-63745904D01*
X176178390Y-63650666D01*
X176178390Y-63269714D01*
X175987914Y-64698285D02*
X176654580Y-64698285D01*
X175606961Y-64460190D02*
X176321247Y-64222095D01*
X176321247Y-64841142D01*
X175749819Y-65174476D02*
X175702200Y-65222095D01*
X175654580Y-65317333D01*
X175654580Y-65555428D01*
X175702200Y-65650666D01*
X175749819Y-65698285D01*
X175845057Y-65745904D01*
X175940295Y-65745904D01*
X176083152Y-65698285D01*
X176654580Y-65126857D01*
X176654580Y-65745904D01*
%TO.C,C39*%
X187276857Y-82450942D02*
X187324476Y-82498561D01*
X187467333Y-82546180D01*
X187562571Y-82546180D01*
X187705428Y-82498561D01*
X187800666Y-82403323D01*
X187848285Y-82308085D01*
X187895904Y-82117609D01*
X187895904Y-81974752D01*
X187848285Y-81784276D01*
X187800666Y-81689038D01*
X187705428Y-81593800D01*
X187562571Y-81546180D01*
X187467333Y-81546180D01*
X187324476Y-81593800D01*
X187276857Y-81641419D01*
X186943523Y-81546180D02*
X186324476Y-81546180D01*
X186657809Y-81927133D01*
X186514952Y-81927133D01*
X186419714Y-81974752D01*
X186372095Y-82022371D01*
X186324476Y-82117609D01*
X186324476Y-82355704D01*
X186372095Y-82450942D01*
X186419714Y-82498561D01*
X186514952Y-82546180D01*
X186800666Y-82546180D01*
X186895904Y-82498561D01*
X186943523Y-82450942D01*
X185848285Y-82546180D02*
X185657809Y-82546180D01*
X185562571Y-82498561D01*
X185514952Y-82450942D01*
X185419714Y-82308085D01*
X185372095Y-82117609D01*
X185372095Y-81736657D01*
X185419714Y-81641419D01*
X185467333Y-81593800D01*
X185562571Y-81546180D01*
X185753047Y-81546180D01*
X185848285Y-81593800D01*
X185895904Y-81641419D01*
X185943523Y-81736657D01*
X185943523Y-81974752D01*
X185895904Y-82069990D01*
X185848285Y-82117609D01*
X185753047Y-82165228D01*
X185562571Y-82165228D01*
X185467333Y-82117609D01*
X185419714Y-82069990D01*
X185372095Y-81974752D01*
%TO.C,C45*%
X193601457Y-67576742D02*
X193649076Y-67624361D01*
X193791933Y-67671980D01*
X193887171Y-67671980D01*
X194030028Y-67624361D01*
X194125266Y-67529123D01*
X194172885Y-67433885D01*
X194220504Y-67243409D01*
X194220504Y-67100552D01*
X194172885Y-66910076D01*
X194125266Y-66814838D01*
X194030028Y-66719600D01*
X193887171Y-66671980D01*
X193791933Y-66671980D01*
X193649076Y-66719600D01*
X193601457Y-66767219D01*
X192744314Y-67005314D02*
X192744314Y-67671980D01*
X192982409Y-66624361D02*
X193220504Y-67338647D01*
X192601457Y-67338647D01*
X191744314Y-66671980D02*
X192220504Y-66671980D01*
X192268123Y-67148171D01*
X192220504Y-67100552D01*
X192125266Y-67052933D01*
X191887171Y-67052933D01*
X191791933Y-67100552D01*
X191744314Y-67148171D01*
X191696695Y-67243409D01*
X191696695Y-67481504D01*
X191744314Y-67576742D01*
X191791933Y-67624361D01*
X191887171Y-67671980D01*
X192125266Y-67671980D01*
X192220504Y-67624361D01*
X192268123Y-67576742D01*
%TO.C,C52*%
X176606742Y-63739542D02*
X176654361Y-63691923D01*
X176701980Y-63549066D01*
X176701980Y-63453828D01*
X176654361Y-63310971D01*
X176559123Y-63215733D01*
X176463885Y-63168114D01*
X176273409Y-63120495D01*
X176130552Y-63120495D01*
X175940076Y-63168114D01*
X175844838Y-63215733D01*
X175749600Y-63310971D01*
X175701980Y-63453828D01*
X175701980Y-63549066D01*
X175749600Y-63691923D01*
X175797219Y-63739542D01*
X175701980Y-64644304D02*
X175701980Y-64168114D01*
X176178171Y-64120495D01*
X176130552Y-64168114D01*
X176082933Y-64263352D01*
X176082933Y-64501447D01*
X176130552Y-64596685D01*
X176178171Y-64644304D01*
X176273409Y-64691923D01*
X176511504Y-64691923D01*
X176606742Y-64644304D01*
X176654361Y-64596685D01*
X176701980Y-64501447D01*
X176701980Y-64263352D01*
X176654361Y-64168114D01*
X176606742Y-64120495D01*
X175797219Y-65072876D02*
X175749600Y-65120495D01*
X175701980Y-65215733D01*
X175701980Y-65453828D01*
X175749600Y-65549066D01*
X175797219Y-65596685D01*
X175892457Y-65644304D01*
X175987695Y-65644304D01*
X176130552Y-65596685D01*
X176701980Y-65025257D01*
X176701980Y-65644304D01*
%TO.C,D2*%
X188997980Y-82999104D02*
X187997980Y-82999104D01*
X187997980Y-83237200D01*
X188045600Y-83380057D01*
X188140838Y-83475295D01*
X188236076Y-83522914D01*
X188426552Y-83570533D01*
X188569409Y-83570533D01*
X188759885Y-83522914D01*
X188855123Y-83475295D01*
X188950361Y-83380057D01*
X188997980Y-83237200D01*
X188997980Y-82999104D01*
X188093219Y-83951485D02*
X188045600Y-83999104D01*
X187997980Y-84094342D01*
X187997980Y-84332438D01*
X188045600Y-84427676D01*
X188093219Y-84475295D01*
X188188457Y-84522914D01*
X188283695Y-84522914D01*
X188426552Y-84475295D01*
X188997980Y-83903866D01*
X188997980Y-84522914D01*
%TO.C,C50*%
X181051742Y-87259942D02*
X181099361Y-87212323D01*
X181146980Y-87069466D01*
X181146980Y-86974228D01*
X181099361Y-86831371D01*
X181004123Y-86736133D01*
X180908885Y-86688514D01*
X180718409Y-86640895D01*
X180575552Y-86640895D01*
X180385076Y-86688514D01*
X180289838Y-86736133D01*
X180194600Y-86831371D01*
X180146980Y-86974228D01*
X180146980Y-87069466D01*
X180194600Y-87212323D01*
X180242219Y-87259942D01*
X180146980Y-88164704D02*
X180146980Y-87688514D01*
X180623171Y-87640895D01*
X180575552Y-87688514D01*
X180527933Y-87783752D01*
X180527933Y-88021847D01*
X180575552Y-88117085D01*
X180623171Y-88164704D01*
X180718409Y-88212323D01*
X180956504Y-88212323D01*
X181051742Y-88164704D01*
X181099361Y-88117085D01*
X181146980Y-88021847D01*
X181146980Y-87783752D01*
X181099361Y-87688514D01*
X181051742Y-87640895D01*
X180146980Y-88831371D02*
X180146980Y-88926609D01*
X180194600Y-89021847D01*
X180242219Y-89069466D01*
X180337457Y-89117085D01*
X180527933Y-89164704D01*
X180766028Y-89164704D01*
X180956504Y-89117085D01*
X181051742Y-89069466D01*
X181099361Y-89021847D01*
X181146980Y-88926609D01*
X181146980Y-88831371D01*
X181099361Y-88736133D01*
X181051742Y-88688514D01*
X180956504Y-88640895D01*
X180766028Y-88593276D01*
X180527933Y-88593276D01*
X180337457Y-88640895D01*
X180242219Y-88688514D01*
X180194600Y-88736133D01*
X180146980Y-88831371D01*
%TO.C,J2*%
X170833333Y-85452380D02*
X170833333Y-86166666D01*
X170880952Y-86309523D01*
X170976190Y-86404761D01*
X171119047Y-86452380D01*
X171214285Y-86452380D01*
X170404761Y-85547619D02*
X170357142Y-85500000D01*
X170261904Y-85452380D01*
X170023809Y-85452380D01*
X169928571Y-85500000D01*
X169880952Y-85547619D01*
X169833333Y-85642857D01*
X169833333Y-85738095D01*
X169880952Y-85880952D01*
X170452380Y-86452380D01*
X169833333Y-86452380D01*
%TO.C,C53*%
X203149742Y-77707742D02*
X203197361Y-77660123D01*
X203244980Y-77517266D01*
X203244980Y-77422028D01*
X203197361Y-77279171D01*
X203102123Y-77183933D01*
X203006885Y-77136314D01*
X202816409Y-77088695D01*
X202673552Y-77088695D01*
X202483076Y-77136314D01*
X202387838Y-77183933D01*
X202292600Y-77279171D01*
X202244980Y-77422028D01*
X202244980Y-77517266D01*
X202292600Y-77660123D01*
X202340219Y-77707742D01*
X202244980Y-78612504D02*
X202244980Y-78136314D01*
X202721171Y-78088695D01*
X202673552Y-78136314D01*
X202625933Y-78231552D01*
X202625933Y-78469647D01*
X202673552Y-78564885D01*
X202721171Y-78612504D01*
X202816409Y-78660123D01*
X203054504Y-78660123D01*
X203149742Y-78612504D01*
X203197361Y-78564885D01*
X203244980Y-78469647D01*
X203244980Y-78231552D01*
X203197361Y-78136314D01*
X203149742Y-78088695D01*
X202244980Y-78993457D02*
X202244980Y-79612504D01*
X202625933Y-79279171D01*
X202625933Y-79422028D01*
X202673552Y-79517266D01*
X202721171Y-79564885D01*
X202816409Y-79612504D01*
X203054504Y-79612504D01*
X203149742Y-79564885D01*
X203197361Y-79517266D01*
X203244980Y-79422028D01*
X203244980Y-79136314D01*
X203197361Y-79041076D01*
X203149742Y-78993457D01*
%TO.C,R35*%
X182958857Y-77110580D02*
X183292190Y-76634390D01*
X183530285Y-77110580D02*
X183530285Y-76110580D01*
X183149333Y-76110580D01*
X183054095Y-76158200D01*
X183006476Y-76205819D01*
X182958857Y-76301057D01*
X182958857Y-76443914D01*
X183006476Y-76539152D01*
X183054095Y-76586771D01*
X183149333Y-76634390D01*
X183530285Y-76634390D01*
X182625523Y-76110580D02*
X182006476Y-76110580D01*
X182339809Y-76491533D01*
X182196952Y-76491533D01*
X182101714Y-76539152D01*
X182054095Y-76586771D01*
X182006476Y-76682009D01*
X182006476Y-76920104D01*
X182054095Y-77015342D01*
X182101714Y-77062961D01*
X182196952Y-77110580D01*
X182482666Y-77110580D01*
X182577904Y-77062961D01*
X182625523Y-77015342D01*
X181101714Y-76110580D02*
X181577904Y-76110580D01*
X181625523Y-76586771D01*
X181577904Y-76539152D01*
X181482666Y-76491533D01*
X181244571Y-76491533D01*
X181149333Y-76539152D01*
X181101714Y-76586771D01*
X181054095Y-76682009D01*
X181054095Y-76920104D01*
X181101714Y-77015342D01*
X181149333Y-77062961D01*
X181244571Y-77110580D01*
X181482666Y-77110580D01*
X181577904Y-77062961D01*
X181625523Y-77015342D01*
%TO.C,C29*%
X202514742Y-64857142D02*
X202562361Y-64809523D01*
X202609980Y-64666666D01*
X202609980Y-64571428D01*
X202562361Y-64428571D01*
X202467123Y-64333333D01*
X202371885Y-64285714D01*
X202181409Y-64238095D01*
X202038552Y-64238095D01*
X201848076Y-64285714D01*
X201752838Y-64333333D01*
X201657600Y-64428571D01*
X201609980Y-64571428D01*
X201609980Y-64666666D01*
X201657600Y-64809523D01*
X201705219Y-64857142D01*
X201705219Y-65238095D02*
X201657600Y-65285714D01*
X201609980Y-65380952D01*
X201609980Y-65619047D01*
X201657600Y-65714285D01*
X201705219Y-65761904D01*
X201800457Y-65809523D01*
X201895695Y-65809523D01*
X202038552Y-65761904D01*
X202609980Y-65190476D01*
X202609980Y-65809523D01*
X202609980Y-66285714D02*
X202609980Y-66476190D01*
X202562361Y-66571428D01*
X202514742Y-66619047D01*
X202371885Y-66714285D01*
X202181409Y-66761904D01*
X201800457Y-66761904D01*
X201705219Y-66714285D01*
X201657600Y-66666666D01*
X201609980Y-66571428D01*
X201609980Y-66380952D01*
X201657600Y-66285714D01*
X201705219Y-66238095D01*
X201800457Y-66190476D01*
X202038552Y-66190476D01*
X202133790Y-66238095D01*
X202181409Y-66285714D01*
X202229028Y-66380952D01*
X202229028Y-66571428D01*
X202181409Y-66666666D01*
X202133790Y-66714285D01*
X202038552Y-66761904D01*
%TO.C,C27*%
X193626857Y-69049942D02*
X193674476Y-69097561D01*
X193817333Y-69145180D01*
X193912571Y-69145180D01*
X194055428Y-69097561D01*
X194150666Y-69002323D01*
X194198285Y-68907085D01*
X194245904Y-68716609D01*
X194245904Y-68573752D01*
X194198285Y-68383276D01*
X194150666Y-68288038D01*
X194055428Y-68192800D01*
X193912571Y-68145180D01*
X193817333Y-68145180D01*
X193674476Y-68192800D01*
X193626857Y-68240419D01*
X193245904Y-68240419D02*
X193198285Y-68192800D01*
X193103047Y-68145180D01*
X192864952Y-68145180D01*
X192769714Y-68192800D01*
X192722095Y-68240419D01*
X192674476Y-68335657D01*
X192674476Y-68430895D01*
X192722095Y-68573752D01*
X193293523Y-69145180D01*
X192674476Y-69145180D01*
X192341142Y-68145180D02*
X191674476Y-68145180D01*
X192103047Y-69145180D01*
%TO.C,C25*%
X196980942Y-68019142D02*
X197028561Y-67971523D01*
X197076180Y-67828666D01*
X197076180Y-67733428D01*
X197028561Y-67590571D01*
X196933323Y-67495333D01*
X196838085Y-67447714D01*
X196647609Y-67400095D01*
X196504752Y-67400095D01*
X196314276Y-67447714D01*
X196219038Y-67495333D01*
X196123800Y-67590571D01*
X196076180Y-67733428D01*
X196076180Y-67828666D01*
X196123800Y-67971523D01*
X196171419Y-68019142D01*
X196171419Y-68400095D02*
X196123800Y-68447714D01*
X196076180Y-68542952D01*
X196076180Y-68781047D01*
X196123800Y-68876285D01*
X196171419Y-68923904D01*
X196266657Y-68971523D01*
X196361895Y-68971523D01*
X196504752Y-68923904D01*
X197076180Y-68352476D01*
X197076180Y-68971523D01*
X196076180Y-69876285D02*
X196076180Y-69400095D01*
X196552371Y-69352476D01*
X196504752Y-69400095D01*
X196457133Y-69495333D01*
X196457133Y-69733428D01*
X196504752Y-69828666D01*
X196552371Y-69876285D01*
X196647609Y-69923904D01*
X196885704Y-69923904D01*
X196980942Y-69876285D01*
X197028561Y-69828666D01*
X197076180Y-69733428D01*
X197076180Y-69495333D01*
X197028561Y-69400095D01*
X196980942Y-69352476D01*
%TO.C,C41*%
X197082542Y-85100942D02*
X197130161Y-85053323D01*
X197177780Y-84910466D01*
X197177780Y-84815228D01*
X197130161Y-84672371D01*
X197034923Y-84577133D01*
X196939685Y-84529514D01*
X196749209Y-84481895D01*
X196606352Y-84481895D01*
X196415876Y-84529514D01*
X196320638Y-84577133D01*
X196225400Y-84672371D01*
X196177780Y-84815228D01*
X196177780Y-84910466D01*
X196225400Y-85053323D01*
X196273019Y-85100942D01*
X196511114Y-85958085D02*
X197177780Y-85958085D01*
X196130161Y-85719990D02*
X196844447Y-85481895D01*
X196844447Y-86100942D01*
X197177780Y-87005704D02*
X197177780Y-86434276D01*
X197177780Y-86719990D02*
X196177780Y-86719990D01*
X196320638Y-86624752D01*
X196415876Y-86529514D01*
X196463495Y-86434276D01*
%TO.C,J16*%
X206976123Y-68521780D02*
X206976123Y-69236066D01*
X207023742Y-69378923D01*
X207118980Y-69474161D01*
X207261838Y-69521780D01*
X207357076Y-69521780D01*
X205976123Y-69521780D02*
X206547552Y-69521780D01*
X206261838Y-69521780D02*
X206261838Y-68521780D01*
X206357076Y-68664638D01*
X206452314Y-68759876D01*
X206547552Y-68807495D01*
X205118980Y-68521780D02*
X205309457Y-68521780D01*
X205404695Y-68569400D01*
X205452314Y-68617019D01*
X205547552Y-68759876D01*
X205595171Y-68950352D01*
X205595171Y-69331304D01*
X205547552Y-69426542D01*
X205499933Y-69474161D01*
X205404695Y-69521780D01*
X205214219Y-69521780D01*
X205118980Y-69474161D01*
X205071361Y-69426542D01*
X205023742Y-69331304D01*
X205023742Y-69093209D01*
X205071361Y-68997971D01*
X205118980Y-68950352D01*
X205214219Y-68902733D01*
X205404695Y-68902733D01*
X205499933Y-68950352D01*
X205547552Y-68997971D01*
X205595171Y-69093209D01*
%TO.C,C38*%
X203899942Y-88428342D02*
X203947561Y-88380723D01*
X203995180Y-88237866D01*
X203995180Y-88142628D01*
X203947561Y-87999771D01*
X203852323Y-87904533D01*
X203757085Y-87856914D01*
X203566609Y-87809295D01*
X203423752Y-87809295D01*
X203233276Y-87856914D01*
X203138038Y-87904533D01*
X203042800Y-87999771D01*
X202995180Y-88142628D01*
X202995180Y-88237866D01*
X203042800Y-88380723D01*
X203090419Y-88428342D01*
X202995180Y-88761676D02*
X202995180Y-89380723D01*
X203376133Y-89047390D01*
X203376133Y-89190247D01*
X203423752Y-89285485D01*
X203471371Y-89333104D01*
X203566609Y-89380723D01*
X203804704Y-89380723D01*
X203899942Y-89333104D01*
X203947561Y-89285485D01*
X203995180Y-89190247D01*
X203995180Y-88904533D01*
X203947561Y-88809295D01*
X203899942Y-88761676D01*
X203423752Y-89952152D02*
X203376133Y-89856914D01*
X203328514Y-89809295D01*
X203233276Y-89761676D01*
X203185657Y-89761676D01*
X203090419Y-89809295D01*
X203042800Y-89856914D01*
X202995180Y-89952152D01*
X202995180Y-90142628D01*
X203042800Y-90237866D01*
X203090419Y-90285485D01*
X203185657Y-90333104D01*
X203233276Y-90333104D01*
X203328514Y-90285485D01*
X203376133Y-90237866D01*
X203423752Y-90142628D01*
X203423752Y-89952152D01*
X203471371Y-89856914D01*
X203518990Y-89809295D01*
X203614228Y-89761676D01*
X203804704Y-89761676D01*
X203899942Y-89809295D01*
X203947561Y-89856914D01*
X203995180Y-89952152D01*
X203995180Y-90142628D01*
X203947561Y-90237866D01*
X203899942Y-90285485D01*
X203804704Y-90333104D01*
X203614228Y-90333104D01*
X203518990Y-90285485D01*
X203471371Y-90237866D01*
X203423752Y-90142628D01*
%TO.C,M3*%
X198798780Y-60804276D02*
X197798780Y-60804276D01*
X198513066Y-61137609D01*
X197798780Y-61470942D01*
X198798780Y-61470942D01*
X197798780Y-61851895D02*
X197798780Y-62470942D01*
X198179733Y-62137609D01*
X198179733Y-62280466D01*
X198227352Y-62375704D01*
X198274971Y-62423323D01*
X198370209Y-62470942D01*
X198608304Y-62470942D01*
X198703542Y-62423323D01*
X198751161Y-62375704D01*
X198798780Y-62280466D01*
X198798780Y-61994752D01*
X198751161Y-61899514D01*
X198703542Y-61851895D01*
%TO.C,R44*%
X175181380Y-63841142D02*
X174705190Y-63507809D01*
X175181380Y-63269714D02*
X174181380Y-63269714D01*
X174181380Y-63650666D01*
X174229000Y-63745904D01*
X174276619Y-63793523D01*
X174371857Y-63841142D01*
X174514714Y-63841142D01*
X174609952Y-63793523D01*
X174657571Y-63745904D01*
X174705190Y-63650666D01*
X174705190Y-63269714D01*
X174514714Y-64698285D02*
X175181380Y-64698285D01*
X174133761Y-64460190D02*
X174848047Y-64222095D01*
X174848047Y-64841142D01*
X174514714Y-65650666D02*
X175181380Y-65650666D01*
X174133761Y-65412571D02*
X174848047Y-65174476D01*
X174848047Y-65793523D01*
%TO.C,R43*%
X201521180Y-64298342D02*
X201044990Y-63965009D01*
X201521180Y-63726914D02*
X200521180Y-63726914D01*
X200521180Y-64107866D01*
X200568800Y-64203104D01*
X200616419Y-64250723D01*
X200711657Y-64298342D01*
X200854514Y-64298342D01*
X200949752Y-64250723D01*
X200997371Y-64203104D01*
X201044990Y-64107866D01*
X201044990Y-63726914D01*
X200854514Y-65155485D02*
X201521180Y-65155485D01*
X200473561Y-64917390D02*
X201187847Y-64679295D01*
X201187847Y-65298342D01*
X200521180Y-65584057D02*
X200521180Y-66203104D01*
X200902133Y-65869771D01*
X200902133Y-66012628D01*
X200949752Y-66107866D01*
X200997371Y-66155485D01*
X201092609Y-66203104D01*
X201330704Y-66203104D01*
X201425942Y-66155485D01*
X201473561Y-66107866D01*
X201521180Y-66012628D01*
X201521180Y-65726914D01*
X201473561Y-65631676D01*
X201425942Y-65584057D01*
%TO.C,C49*%
X175973857Y-82803142D02*
X176021476Y-82850761D01*
X176164333Y-82898380D01*
X176259571Y-82898380D01*
X176402428Y-82850761D01*
X176497666Y-82755523D01*
X176545285Y-82660285D01*
X176592904Y-82469809D01*
X176592904Y-82326952D01*
X176545285Y-82136476D01*
X176497666Y-82041238D01*
X176402428Y-81946000D01*
X176259571Y-81898380D01*
X176164333Y-81898380D01*
X176021476Y-81946000D01*
X175973857Y-81993619D01*
X175116714Y-82231714D02*
X175116714Y-82898380D01*
X175354809Y-81850761D02*
X175592904Y-82565047D01*
X174973857Y-82565047D01*
X174545285Y-82898380D02*
X174354809Y-82898380D01*
X174259571Y-82850761D01*
X174211952Y-82803142D01*
X174116714Y-82660285D01*
X174069095Y-82469809D01*
X174069095Y-82088857D01*
X174116714Y-81993619D01*
X174164333Y-81946000D01*
X174259571Y-81898380D01*
X174450047Y-81898380D01*
X174545285Y-81946000D01*
X174592904Y-81993619D01*
X174640523Y-82088857D01*
X174640523Y-82326952D01*
X174592904Y-82422190D01*
X174545285Y-82469809D01*
X174450047Y-82517428D01*
X174259571Y-82517428D01*
X174164333Y-82469809D01*
X174116714Y-82422190D01*
X174069095Y-82326952D01*
%TO.C,J12*%
X172762323Y-83012380D02*
X172762323Y-83726666D01*
X172809942Y-83869523D01*
X172905180Y-83964761D01*
X173048038Y-84012380D01*
X173143276Y-84012380D01*
X171762323Y-84012380D02*
X172333752Y-84012380D01*
X172048038Y-84012380D02*
X172048038Y-83012380D01*
X172143276Y-83155238D01*
X172238514Y-83250476D01*
X172333752Y-83298095D01*
X171381371Y-83107619D02*
X171333752Y-83060000D01*
X171238514Y-83012380D01*
X171000419Y-83012380D01*
X170905180Y-83060000D01*
X170857561Y-83107619D01*
X170809942Y-83202857D01*
X170809942Y-83298095D01*
X170857561Y-83440952D01*
X171428990Y-84012380D01*
X170809942Y-84012380D01*
%TO.C,C48*%
X184751742Y-91908142D02*
X184799361Y-91860523D01*
X184846980Y-91717666D01*
X184846980Y-91622428D01*
X184799361Y-91479571D01*
X184704123Y-91384333D01*
X184608885Y-91336714D01*
X184418409Y-91289095D01*
X184275552Y-91289095D01*
X184085076Y-91336714D01*
X183989838Y-91384333D01*
X183894600Y-91479571D01*
X183846980Y-91622428D01*
X183846980Y-91717666D01*
X183894600Y-91860523D01*
X183942219Y-91908142D01*
X184180314Y-92765285D02*
X184846980Y-92765285D01*
X183799361Y-92527190D02*
X184513647Y-92289095D01*
X184513647Y-92908142D01*
X184275552Y-93431952D02*
X184227933Y-93336714D01*
X184180314Y-93289095D01*
X184085076Y-93241476D01*
X184037457Y-93241476D01*
X183942219Y-93289095D01*
X183894600Y-93336714D01*
X183846980Y-93431952D01*
X183846980Y-93622428D01*
X183894600Y-93717666D01*
X183942219Y-93765285D01*
X184037457Y-93812904D01*
X184085076Y-93812904D01*
X184180314Y-93765285D01*
X184227933Y-93717666D01*
X184275552Y-93622428D01*
X184275552Y-93431952D01*
X184323171Y-93336714D01*
X184370790Y-93289095D01*
X184466028Y-93241476D01*
X184656504Y-93241476D01*
X184751742Y-93289095D01*
X184799361Y-93336714D01*
X184846980Y-93431952D01*
X184846980Y-93622428D01*
X184799361Y-93717666D01*
X184751742Y-93765285D01*
X184656504Y-93812904D01*
X184466028Y-93812904D01*
X184370790Y-93765285D01*
X184323171Y-93717666D01*
X184275552Y-93622428D01*
%TO.C,C33*%
X158847057Y-72583942D02*
X158894676Y-72631561D01*
X159037533Y-72679180D01*
X159132771Y-72679180D01*
X159275628Y-72631561D01*
X159370866Y-72536323D01*
X159418485Y-72441085D01*
X159466104Y-72250609D01*
X159466104Y-72107752D01*
X159418485Y-71917276D01*
X159370866Y-71822038D01*
X159275628Y-71726800D01*
X159132771Y-71679180D01*
X159037533Y-71679180D01*
X158894676Y-71726800D01*
X158847057Y-71774419D01*
X158513723Y-71679180D02*
X157894676Y-71679180D01*
X158228009Y-72060133D01*
X158085152Y-72060133D01*
X157989914Y-72107752D01*
X157942295Y-72155371D01*
X157894676Y-72250609D01*
X157894676Y-72488704D01*
X157942295Y-72583942D01*
X157989914Y-72631561D01*
X158085152Y-72679180D01*
X158370866Y-72679180D01*
X158466104Y-72631561D01*
X158513723Y-72583942D01*
X157561342Y-71679180D02*
X156942295Y-71679180D01*
X157275628Y-72060133D01*
X157132771Y-72060133D01*
X157037533Y-72107752D01*
X156989914Y-72155371D01*
X156942295Y-72250609D01*
X156942295Y-72488704D01*
X156989914Y-72583942D01*
X157037533Y-72631561D01*
X157132771Y-72679180D01*
X157418485Y-72679180D01*
X157513723Y-72631561D01*
X157561342Y-72583942D01*
%TO.C,C22*%
X132606742Y-63739542D02*
X132654361Y-63691923D01*
X132701980Y-63549066D01*
X132701980Y-63453828D01*
X132654361Y-63310971D01*
X132559123Y-63215733D01*
X132463885Y-63168114D01*
X132273409Y-63120495D01*
X132130552Y-63120495D01*
X131940076Y-63168114D01*
X131844838Y-63215733D01*
X131749600Y-63310971D01*
X131701980Y-63453828D01*
X131701980Y-63549066D01*
X131749600Y-63691923D01*
X131797219Y-63739542D01*
X131797219Y-64120495D02*
X131749600Y-64168114D01*
X131701980Y-64263352D01*
X131701980Y-64501447D01*
X131749600Y-64596685D01*
X131797219Y-64644304D01*
X131892457Y-64691923D01*
X131987695Y-64691923D01*
X132130552Y-64644304D01*
X132701980Y-64072876D01*
X132701980Y-64691923D01*
X131797219Y-65072876D02*
X131749600Y-65120495D01*
X131701980Y-65215733D01*
X131701980Y-65453828D01*
X131749600Y-65549066D01*
X131797219Y-65596685D01*
X131892457Y-65644304D01*
X131987695Y-65644304D01*
X132130552Y-65596685D01*
X132701980Y-65025257D01*
X132701980Y-65644304D01*
%TO.C,D1*%
X144997980Y-82999104D02*
X143997980Y-82999104D01*
X143997980Y-83237200D01*
X144045600Y-83380057D01*
X144140838Y-83475295D01*
X144236076Y-83522914D01*
X144426552Y-83570533D01*
X144569409Y-83570533D01*
X144759885Y-83522914D01*
X144855123Y-83475295D01*
X144950361Y-83380057D01*
X144997980Y-83237200D01*
X144997980Y-82999104D01*
X144997980Y-84522914D02*
X144997980Y-83951485D01*
X144997980Y-84237200D02*
X143997980Y-84237200D01*
X144140838Y-84141961D01*
X144236076Y-84046723D01*
X144283695Y-83951485D01*
%TO.C,C20*%
X137051742Y-87259942D02*
X137099361Y-87212323D01*
X137146980Y-87069466D01*
X137146980Y-86974228D01*
X137099361Y-86831371D01*
X137004123Y-86736133D01*
X136908885Y-86688514D01*
X136718409Y-86640895D01*
X136575552Y-86640895D01*
X136385076Y-86688514D01*
X136289838Y-86736133D01*
X136194600Y-86831371D01*
X136146980Y-86974228D01*
X136146980Y-87069466D01*
X136194600Y-87212323D01*
X136242219Y-87259942D01*
X136242219Y-87640895D02*
X136194600Y-87688514D01*
X136146980Y-87783752D01*
X136146980Y-88021847D01*
X136194600Y-88117085D01*
X136242219Y-88164704D01*
X136337457Y-88212323D01*
X136432695Y-88212323D01*
X136575552Y-88164704D01*
X137146980Y-87593276D01*
X137146980Y-88212323D01*
X136146980Y-88831371D02*
X136146980Y-88926609D01*
X136194600Y-89021847D01*
X136242219Y-89069466D01*
X136337457Y-89117085D01*
X136527933Y-89164704D01*
X136766028Y-89164704D01*
X136956504Y-89117085D01*
X137051742Y-89069466D01*
X137099361Y-89021847D01*
X137146980Y-88926609D01*
X137146980Y-88831371D01*
X137099361Y-88736133D01*
X137051742Y-88688514D01*
X136956504Y-88640895D01*
X136766028Y-88593276D01*
X136527933Y-88593276D01*
X136337457Y-88640895D01*
X136242219Y-88688514D01*
X136194600Y-88736133D01*
X136146980Y-88831371D01*
%TO.C,C15*%
X149601457Y-67576742D02*
X149649076Y-67624361D01*
X149791933Y-67671980D01*
X149887171Y-67671980D01*
X150030028Y-67624361D01*
X150125266Y-67529123D01*
X150172885Y-67433885D01*
X150220504Y-67243409D01*
X150220504Y-67100552D01*
X150172885Y-66910076D01*
X150125266Y-66814838D01*
X150030028Y-66719600D01*
X149887171Y-66671980D01*
X149791933Y-66671980D01*
X149649076Y-66719600D01*
X149601457Y-66767219D01*
X148649076Y-67671980D02*
X149220504Y-67671980D01*
X148934790Y-67671980D02*
X148934790Y-66671980D01*
X149030028Y-66814838D01*
X149125266Y-66910076D01*
X149220504Y-66957695D01*
X147744314Y-66671980D02*
X148220504Y-66671980D01*
X148268123Y-67148171D01*
X148220504Y-67100552D01*
X148125266Y-67052933D01*
X147887171Y-67052933D01*
X147791933Y-67100552D01*
X147744314Y-67148171D01*
X147696695Y-67243409D01*
X147696695Y-67481504D01*
X147744314Y-67576742D01*
X147791933Y-67624361D01*
X147887171Y-67671980D01*
X148125266Y-67671980D01*
X148220504Y-67624361D01*
X148268123Y-67576742D01*
%TO.C,J4*%
X142078333Y-94682380D02*
X142078333Y-95396666D01*
X142125952Y-95539523D01*
X142221190Y-95634761D01*
X142364047Y-95682380D01*
X142459285Y-95682380D01*
X141173571Y-95015714D02*
X141173571Y-95682380D01*
X141411666Y-94634761D02*
X141649761Y-95349047D01*
X141030714Y-95349047D01*
X143199000Y-94760000D02*
X142665666Y-94760000D01*
X142932333Y-95026666D02*
X142932333Y-94493333D01*
X142332333Y-95026666D02*
X142332333Y-94326666D01*
X141932333Y-95026666D01*
X141932333Y-94326666D01*
X141599000Y-95026666D02*
X141599000Y-94560000D01*
X141599000Y-94693333D02*
X141565666Y-94626666D01*
X141532333Y-94593333D01*
X141465666Y-94560000D01*
X141399000Y-94560000D01*
X140932333Y-94660000D02*
X140832333Y-94693333D01*
X140799000Y-94726666D01*
X140765666Y-94793333D01*
X140765666Y-94893333D01*
X140799000Y-94960000D01*
X140832333Y-94993333D01*
X140899000Y-95026666D01*
X141165666Y-95026666D01*
X141165666Y-94326666D01*
X140932333Y-94326666D01*
X140865666Y-94360000D01*
X140832333Y-94393333D01*
X140799000Y-94460000D01*
X140799000Y-94526666D01*
X140832333Y-94593333D01*
X140865666Y-94626666D01*
X140932333Y-94660000D01*
X141165666Y-94660000D01*
%TO.C,J6*%
X131410333Y-82966380D02*
X131410333Y-83680666D01*
X131457952Y-83823523D01*
X131553190Y-83918761D01*
X131696047Y-83966380D01*
X131791285Y-83966380D01*
X130505571Y-82966380D02*
X130696047Y-82966380D01*
X130791285Y-83014000D01*
X130838904Y-83061619D01*
X130934142Y-83204476D01*
X130981761Y-83394952D01*
X130981761Y-83775904D01*
X130934142Y-83871142D01*
X130886523Y-83918761D01*
X130791285Y-83966380D01*
X130600809Y-83966380D01*
X130505571Y-83918761D01*
X130457952Y-83871142D01*
X130410333Y-83775904D01*
X130410333Y-83537809D01*
X130457952Y-83442571D01*
X130505571Y-83394952D01*
X130600809Y-83347333D01*
X130791285Y-83347333D01*
X130886523Y-83394952D01*
X130934142Y-83442571D01*
X130981761Y-83537809D01*
%TO.C,C9*%
X142800666Y-82450942D02*
X142848285Y-82498561D01*
X142991142Y-82546180D01*
X143086380Y-82546180D01*
X143229238Y-82498561D01*
X143324476Y-82403323D01*
X143372095Y-82308085D01*
X143419714Y-82117609D01*
X143419714Y-81974752D01*
X143372095Y-81784276D01*
X143324476Y-81689038D01*
X143229238Y-81593800D01*
X143086380Y-81546180D01*
X142991142Y-81546180D01*
X142848285Y-81593800D01*
X142800666Y-81641419D01*
X142324476Y-82546180D02*
X142134000Y-82546180D01*
X142038761Y-82498561D01*
X141991142Y-82450942D01*
X141895904Y-82308085D01*
X141848285Y-82117609D01*
X141848285Y-81736657D01*
X141895904Y-81641419D01*
X141943523Y-81593800D01*
X142038761Y-81546180D01*
X142229238Y-81546180D01*
X142324476Y-81593800D01*
X142372095Y-81641419D01*
X142419714Y-81736657D01*
X142419714Y-81974752D01*
X142372095Y-82069990D01*
X142324476Y-82117609D01*
X142229238Y-82165228D01*
X142038761Y-82165228D01*
X141943523Y-82117609D01*
X141895904Y-82069990D01*
X141848285Y-81974752D01*
%TO.C,R7*%
X156262666Y-79421980D02*
X156596000Y-78945790D01*
X156834095Y-79421980D02*
X156834095Y-78421980D01*
X156453142Y-78421980D01*
X156357904Y-78469600D01*
X156310285Y-78517219D01*
X156262666Y-78612457D01*
X156262666Y-78755314D01*
X156310285Y-78850552D01*
X156357904Y-78898171D01*
X156453142Y-78945790D01*
X156834095Y-78945790D01*
X155929333Y-78421980D02*
X155262666Y-78421980D01*
X155691238Y-79421980D01*
%TO.C,J1*%
X126833333Y-85452380D02*
X126833333Y-86166666D01*
X126880952Y-86309523D01*
X126976190Y-86404761D01*
X127119047Y-86452380D01*
X127214285Y-86452380D01*
X125833333Y-86452380D02*
X126404761Y-86452380D01*
X126119047Y-86452380D02*
X126119047Y-85452380D01*
X126214285Y-85595238D01*
X126309523Y-85690476D01*
X126404761Y-85738095D01*
%TO.C,C13*%
X156764257Y-74221342D02*
X156811876Y-74268961D01*
X156954733Y-74316580D01*
X157049971Y-74316580D01*
X157192828Y-74268961D01*
X157288066Y-74173723D01*
X157335685Y-74078485D01*
X157383304Y-73888009D01*
X157383304Y-73745152D01*
X157335685Y-73554676D01*
X157288066Y-73459438D01*
X157192828Y-73364200D01*
X157049971Y-73316580D01*
X156954733Y-73316580D01*
X156811876Y-73364200D01*
X156764257Y-73411819D01*
X155811876Y-74316580D02*
X156383304Y-74316580D01*
X156097590Y-74316580D02*
X156097590Y-73316580D01*
X156192828Y-73459438D01*
X156288066Y-73554676D01*
X156383304Y-73602295D01*
X155478542Y-73316580D02*
X154859495Y-73316580D01*
X155192828Y-73697533D01*
X155049971Y-73697533D01*
X154954733Y-73745152D01*
X154907114Y-73792771D01*
X154859495Y-73888009D01*
X154859495Y-74126104D01*
X154907114Y-74221342D01*
X154954733Y-74268961D01*
X155049971Y-74316580D01*
X155335685Y-74316580D01*
X155430923Y-74268961D01*
X155478542Y-74221342D01*
%TO.C,R18*%
X159019780Y-64298342D02*
X158543590Y-63965009D01*
X159019780Y-63726914D02*
X158019780Y-63726914D01*
X158019780Y-64107866D01*
X158067400Y-64203104D01*
X158115019Y-64250723D01*
X158210257Y-64298342D01*
X158353114Y-64298342D01*
X158448352Y-64250723D01*
X158495971Y-64203104D01*
X158543590Y-64107866D01*
X158543590Y-63726914D01*
X159019780Y-65250723D02*
X159019780Y-64679295D01*
X159019780Y-64965009D02*
X158019780Y-64965009D01*
X158162638Y-64869771D01*
X158257876Y-64774533D01*
X158305495Y-64679295D01*
X158448352Y-65822152D02*
X158400733Y-65726914D01*
X158353114Y-65679295D01*
X158257876Y-65631676D01*
X158210257Y-65631676D01*
X158115019Y-65679295D01*
X158067400Y-65726914D01*
X158019780Y-65822152D01*
X158019780Y-66012628D01*
X158067400Y-66107866D01*
X158115019Y-66155485D01*
X158210257Y-66203104D01*
X158257876Y-66203104D01*
X158353114Y-66155485D01*
X158400733Y-66107866D01*
X158448352Y-66012628D01*
X158448352Y-65822152D01*
X158495971Y-65726914D01*
X158543590Y-65679295D01*
X158638828Y-65631676D01*
X158829304Y-65631676D01*
X158924542Y-65679295D01*
X158972161Y-65726914D01*
X159019780Y-65822152D01*
X159019780Y-66012628D01*
X158972161Y-66107866D01*
X158924542Y-66155485D01*
X158829304Y-66203104D01*
X158638828Y-66203104D01*
X158543590Y-66155485D01*
X158495971Y-66107866D01*
X158448352Y-66012628D01*
D11*
%TO.C,IC2*%
X138153923Y-79957438D02*
X136883923Y-79957438D01*
X138032971Y-81287914D02*
X138093447Y-81227438D01*
X138153923Y-81046009D01*
X138153923Y-80925057D01*
X138093447Y-80743628D01*
X137972495Y-80622676D01*
X137851542Y-80562200D01*
X137609638Y-80501723D01*
X137428209Y-80501723D01*
X137186304Y-80562200D01*
X137065352Y-80622676D01*
X136944400Y-80743628D01*
X136883923Y-80925057D01*
X136883923Y-81046009D01*
X136944400Y-81227438D01*
X137004876Y-81287914D01*
X137004876Y-81771723D02*
X136944400Y-81832200D01*
X136883923Y-81953152D01*
X136883923Y-82255533D01*
X136944400Y-82376485D01*
X137004876Y-82436961D01*
X137125828Y-82497438D01*
X137246780Y-82497438D01*
X137428209Y-82436961D01*
X138153923Y-81711247D01*
X138153923Y-82497438D01*
%TO.C,Q7*%
X141749152Y-88293476D02*
X141870104Y-88233000D01*
X141991057Y-88112047D01*
X142172485Y-87930619D01*
X142293438Y-87870142D01*
X142414390Y-87870142D01*
X142353914Y-88172523D02*
X142474866Y-88112047D01*
X142595819Y-87991095D01*
X142656295Y-87749190D01*
X142656295Y-87325857D01*
X142595819Y-87083952D01*
X142474866Y-86963000D01*
X142353914Y-86902523D01*
X142112009Y-86902523D01*
X141991057Y-86963000D01*
X141870104Y-87083952D01*
X141809628Y-87325857D01*
X141809628Y-87749190D01*
X141870104Y-87991095D01*
X141991057Y-88112047D01*
X142112009Y-88172523D01*
X142353914Y-88172523D01*
X141386295Y-86902523D02*
X140539628Y-86902523D01*
X141083914Y-88172523D01*
D10*
%TO.C,C17*%
X149842857Y-95907142D02*
X149890476Y-95954761D01*
X150033333Y-96002380D01*
X150128571Y-96002380D01*
X150271428Y-95954761D01*
X150366666Y-95859523D01*
X150414285Y-95764285D01*
X150461904Y-95573809D01*
X150461904Y-95430952D01*
X150414285Y-95240476D01*
X150366666Y-95145238D01*
X150271428Y-95050000D01*
X150128571Y-95002380D01*
X150033333Y-95002380D01*
X149890476Y-95050000D01*
X149842857Y-95097619D01*
X148890476Y-96002380D02*
X149461904Y-96002380D01*
X149176190Y-96002380D02*
X149176190Y-95002380D01*
X149271428Y-95145238D01*
X149366666Y-95240476D01*
X149461904Y-95288095D01*
X148557142Y-95002380D02*
X147890476Y-95002380D01*
X148319047Y-96002380D01*
%TO.C,R19*%
X132654580Y-63841142D02*
X132178390Y-63507809D01*
X132654580Y-63269714D02*
X131654580Y-63269714D01*
X131654580Y-63650666D01*
X131702200Y-63745904D01*
X131749819Y-63793523D01*
X131845057Y-63841142D01*
X131987914Y-63841142D01*
X132083152Y-63793523D01*
X132130771Y-63745904D01*
X132178390Y-63650666D01*
X132178390Y-63269714D01*
X132654580Y-64793523D02*
X132654580Y-64222095D01*
X132654580Y-64507809D02*
X131654580Y-64507809D01*
X131797438Y-64412571D01*
X131892676Y-64317333D01*
X131940295Y-64222095D01*
X132654580Y-65269714D02*
X132654580Y-65460190D01*
X132606961Y-65555428D01*
X132559342Y-65603047D01*
X132416485Y-65698285D01*
X132226009Y-65745904D01*
X131845057Y-65745904D01*
X131749819Y-65698285D01*
X131702200Y-65650666D01*
X131654580Y-65555428D01*
X131654580Y-65364952D01*
X131702200Y-65269714D01*
X131749819Y-65222095D01*
X131845057Y-65174476D01*
X132083152Y-65174476D01*
X132178390Y-65222095D01*
X132226009Y-65269714D01*
X132273628Y-65364952D01*
X132273628Y-65555428D01*
X132226009Y-65650666D01*
X132178390Y-65698285D01*
X132083152Y-65745904D01*
%TO.C,C6*%
X156211866Y-80850742D02*
X156259485Y-80898361D01*
X156402342Y-80945980D01*
X156497580Y-80945980D01*
X156640438Y-80898361D01*
X156735676Y-80803123D01*
X156783295Y-80707885D01*
X156830914Y-80517409D01*
X156830914Y-80374552D01*
X156783295Y-80184076D01*
X156735676Y-80088838D01*
X156640438Y-79993600D01*
X156497580Y-79945980D01*
X156402342Y-79945980D01*
X156259485Y-79993600D01*
X156211866Y-80041219D01*
X155354723Y-79945980D02*
X155545200Y-79945980D01*
X155640438Y-79993600D01*
X155688057Y-80041219D01*
X155783295Y-80184076D01*
X155830914Y-80374552D01*
X155830914Y-80755504D01*
X155783295Y-80850742D01*
X155735676Y-80898361D01*
X155640438Y-80945980D01*
X155449961Y-80945980D01*
X155354723Y-80898361D01*
X155307104Y-80850742D01*
X155259485Y-80755504D01*
X155259485Y-80517409D01*
X155307104Y-80422171D01*
X155354723Y-80374552D01*
X155449961Y-80326933D01*
X155640438Y-80326933D01*
X155735676Y-80374552D01*
X155783295Y-80422171D01*
X155830914Y-80517409D01*
%TO.C,R17*%
X147022380Y-89957142D02*
X146546190Y-89623809D01*
X147022380Y-89385714D02*
X146022380Y-89385714D01*
X146022380Y-89766666D01*
X146070000Y-89861904D01*
X146117619Y-89909523D01*
X146212857Y-89957142D01*
X146355714Y-89957142D01*
X146450952Y-89909523D01*
X146498571Y-89861904D01*
X146546190Y-89766666D01*
X146546190Y-89385714D01*
X147022380Y-90909523D02*
X147022380Y-90338095D01*
X147022380Y-90623809D02*
X146022380Y-90623809D01*
X146165238Y-90528571D01*
X146260476Y-90433333D01*
X146308095Y-90338095D01*
X146022380Y-91242857D02*
X146022380Y-91909523D01*
X147022380Y-91480952D01*
%TO.C,R16*%
X149722380Y-90057142D02*
X149246190Y-89723809D01*
X149722380Y-89485714D02*
X148722380Y-89485714D01*
X148722380Y-89866666D01*
X148770000Y-89961904D01*
X148817619Y-90009523D01*
X148912857Y-90057142D01*
X149055714Y-90057142D01*
X149150952Y-90009523D01*
X149198571Y-89961904D01*
X149246190Y-89866666D01*
X149246190Y-89485714D01*
X149722380Y-91009523D02*
X149722380Y-90438095D01*
X149722380Y-90723809D02*
X148722380Y-90723809D01*
X148865238Y-90628571D01*
X148960476Y-90533333D01*
X149008095Y-90438095D01*
X148722380Y-91866666D02*
X148722380Y-91676190D01*
X148770000Y-91580952D01*
X148817619Y-91533333D01*
X148960476Y-91438095D01*
X149150952Y-91390476D01*
X149531904Y-91390476D01*
X149627142Y-91438095D01*
X149674761Y-91485714D01*
X149722380Y-91580952D01*
X149722380Y-91771428D01*
X149674761Y-91866666D01*
X149627142Y-91914285D01*
X149531904Y-91961904D01*
X149293809Y-91961904D01*
X149198571Y-91914285D01*
X149150952Y-91866666D01*
X149103333Y-91771428D01*
X149103333Y-91580952D01*
X149150952Y-91485714D01*
X149198571Y-91438095D01*
X149293809Y-91390476D01*
%TO.C,M2*%
X127681980Y-60601076D02*
X126681980Y-60601076D01*
X127396266Y-60934409D01*
X126681980Y-61267742D01*
X127681980Y-61267742D01*
X126777219Y-61696314D02*
X126729600Y-61743933D01*
X126681980Y-61839171D01*
X126681980Y-62077266D01*
X126729600Y-62172504D01*
X126777219Y-62220123D01*
X126872457Y-62267742D01*
X126967695Y-62267742D01*
X127110552Y-62220123D01*
X127681980Y-61648695D01*
X127681980Y-62267742D01*
%TO.C,J5*%
X128286133Y-83012380D02*
X128286133Y-83726666D01*
X128333752Y-83869523D01*
X128428990Y-83964761D01*
X128571847Y-84012380D01*
X128667085Y-84012380D01*
X127333752Y-83012380D02*
X127809942Y-83012380D01*
X127857561Y-83488571D01*
X127809942Y-83440952D01*
X127714704Y-83393333D01*
X127476609Y-83393333D01*
X127381371Y-83440952D01*
X127333752Y-83488571D01*
X127286133Y-83583809D01*
X127286133Y-83821904D01*
X127333752Y-83917142D01*
X127381371Y-83964761D01*
X127476609Y-84012380D01*
X127714704Y-84012380D01*
X127809942Y-83964761D01*
X127857561Y-83917142D01*
%TO.C,C23*%
X159149742Y-77707742D02*
X159197361Y-77660123D01*
X159244980Y-77517266D01*
X159244980Y-77422028D01*
X159197361Y-77279171D01*
X159102123Y-77183933D01*
X159006885Y-77136314D01*
X158816409Y-77088695D01*
X158673552Y-77088695D01*
X158483076Y-77136314D01*
X158387838Y-77183933D01*
X158292600Y-77279171D01*
X158244980Y-77422028D01*
X158244980Y-77517266D01*
X158292600Y-77660123D01*
X158340219Y-77707742D01*
X158340219Y-78088695D02*
X158292600Y-78136314D01*
X158244980Y-78231552D01*
X158244980Y-78469647D01*
X158292600Y-78564885D01*
X158340219Y-78612504D01*
X158435457Y-78660123D01*
X158530695Y-78660123D01*
X158673552Y-78612504D01*
X159244980Y-78041076D01*
X159244980Y-78660123D01*
X158244980Y-78993457D02*
X158244980Y-79612504D01*
X158625933Y-79279171D01*
X158625933Y-79422028D01*
X158673552Y-79517266D01*
X158721171Y-79564885D01*
X158816409Y-79612504D01*
X159054504Y-79612504D01*
X159149742Y-79564885D01*
X159197361Y-79517266D01*
X159244980Y-79422028D01*
X159244980Y-79136314D01*
X159197361Y-79041076D01*
X159149742Y-78993457D01*
%TO.C,C8*%
X159899942Y-88904533D02*
X159947561Y-88856914D01*
X159995180Y-88714057D01*
X159995180Y-88618819D01*
X159947561Y-88475961D01*
X159852323Y-88380723D01*
X159757085Y-88333104D01*
X159566609Y-88285485D01*
X159423752Y-88285485D01*
X159233276Y-88333104D01*
X159138038Y-88380723D01*
X159042800Y-88475961D01*
X158995180Y-88618819D01*
X158995180Y-88714057D01*
X159042800Y-88856914D01*
X159090419Y-88904533D01*
X159423752Y-89475961D02*
X159376133Y-89380723D01*
X159328514Y-89333104D01*
X159233276Y-89285485D01*
X159185657Y-89285485D01*
X159090419Y-89333104D01*
X159042800Y-89380723D01*
X158995180Y-89475961D01*
X158995180Y-89666438D01*
X159042800Y-89761676D01*
X159090419Y-89809295D01*
X159185657Y-89856914D01*
X159233276Y-89856914D01*
X159328514Y-89809295D01*
X159376133Y-89761676D01*
X159423752Y-89666438D01*
X159423752Y-89475961D01*
X159471371Y-89380723D01*
X159518990Y-89333104D01*
X159614228Y-89285485D01*
X159804704Y-89285485D01*
X159899942Y-89333104D01*
X159947561Y-89380723D01*
X159995180Y-89475961D01*
X159995180Y-89666438D01*
X159947561Y-89761676D01*
X159899942Y-89809295D01*
X159804704Y-89856914D01*
X159614228Y-89856914D01*
X159518990Y-89809295D01*
X159471371Y-89761676D01*
X159423752Y-89666438D01*
%TO.C,R12*%
X138958857Y-77110580D02*
X139292190Y-76634390D01*
X139530285Y-77110580D02*
X139530285Y-76110580D01*
X139149333Y-76110580D01*
X139054095Y-76158200D01*
X139006476Y-76205819D01*
X138958857Y-76301057D01*
X138958857Y-76443914D01*
X139006476Y-76539152D01*
X139054095Y-76586771D01*
X139149333Y-76634390D01*
X139530285Y-76634390D01*
X138006476Y-77110580D02*
X138577904Y-77110580D01*
X138292190Y-77110580D02*
X138292190Y-76110580D01*
X138387428Y-76253438D01*
X138482666Y-76348676D01*
X138577904Y-76396295D01*
X137625523Y-76205819D02*
X137577904Y-76158200D01*
X137482666Y-76110580D01*
X137244571Y-76110580D01*
X137149333Y-76158200D01*
X137101714Y-76205819D01*
X137054095Y-76301057D01*
X137054095Y-76396295D01*
X137101714Y-76539152D01*
X137673142Y-77110580D01*
X137054095Y-77110580D01*
%TO.C,C18*%
X140751742Y-91908142D02*
X140799361Y-91860523D01*
X140846980Y-91717666D01*
X140846980Y-91622428D01*
X140799361Y-91479571D01*
X140704123Y-91384333D01*
X140608885Y-91336714D01*
X140418409Y-91289095D01*
X140275552Y-91289095D01*
X140085076Y-91336714D01*
X139989838Y-91384333D01*
X139894600Y-91479571D01*
X139846980Y-91622428D01*
X139846980Y-91717666D01*
X139894600Y-91860523D01*
X139942219Y-91908142D01*
X140846980Y-92860523D02*
X140846980Y-92289095D01*
X140846980Y-92574809D02*
X139846980Y-92574809D01*
X139989838Y-92479571D01*
X140085076Y-92384333D01*
X140132695Y-92289095D01*
X140275552Y-93431952D02*
X140227933Y-93336714D01*
X140180314Y-93289095D01*
X140085076Y-93241476D01*
X140037457Y-93241476D01*
X139942219Y-93289095D01*
X139894600Y-93336714D01*
X139846980Y-93431952D01*
X139846980Y-93622428D01*
X139894600Y-93717666D01*
X139942219Y-93765285D01*
X140037457Y-93812904D01*
X140085076Y-93812904D01*
X140180314Y-93765285D01*
X140227933Y-93717666D01*
X140275552Y-93622428D01*
X140275552Y-93431952D01*
X140323171Y-93336714D01*
X140370790Y-93289095D01*
X140466028Y-93241476D01*
X140656504Y-93241476D01*
X140751742Y-93289095D01*
X140799361Y-93336714D01*
X140846980Y-93431952D01*
X140846980Y-93622428D01*
X140799361Y-93717666D01*
X140751742Y-93765285D01*
X140656504Y-93812904D01*
X140466028Y-93812904D01*
X140370790Y-93765285D01*
X140323171Y-93717666D01*
X140275552Y-93622428D01*
%TO.C,C19*%
X131973857Y-82803142D02*
X132021476Y-82850761D01*
X132164333Y-82898380D01*
X132259571Y-82898380D01*
X132402428Y-82850761D01*
X132497666Y-82755523D01*
X132545285Y-82660285D01*
X132592904Y-82469809D01*
X132592904Y-82326952D01*
X132545285Y-82136476D01*
X132497666Y-82041238D01*
X132402428Y-81946000D01*
X132259571Y-81898380D01*
X132164333Y-81898380D01*
X132021476Y-81946000D01*
X131973857Y-81993619D01*
X131021476Y-82898380D02*
X131592904Y-82898380D01*
X131307190Y-82898380D02*
X131307190Y-81898380D01*
X131402428Y-82041238D01*
X131497666Y-82136476D01*
X131592904Y-82184095D01*
X130545285Y-82898380D02*
X130354809Y-82898380D01*
X130259571Y-82850761D01*
X130211952Y-82803142D01*
X130116714Y-82660285D01*
X130069095Y-82469809D01*
X130069095Y-82088857D01*
X130116714Y-81993619D01*
X130164333Y-81946000D01*
X130259571Y-81898380D01*
X130450047Y-81898380D01*
X130545285Y-81946000D01*
X130592904Y-81993619D01*
X130640523Y-82088857D01*
X130640523Y-82326952D01*
X130592904Y-82422190D01*
X130545285Y-82469809D01*
X130450047Y-82517428D01*
X130259571Y-82517428D01*
X130164333Y-82469809D01*
X130116714Y-82422190D01*
X130069095Y-82326952D01*
%TO.C,R20*%
X157521180Y-64298342D02*
X157044990Y-63965009D01*
X157521180Y-63726914D02*
X156521180Y-63726914D01*
X156521180Y-64107866D01*
X156568800Y-64203104D01*
X156616419Y-64250723D01*
X156711657Y-64298342D01*
X156854514Y-64298342D01*
X156949752Y-64250723D01*
X156997371Y-64203104D01*
X157044990Y-64107866D01*
X157044990Y-63726914D01*
X156616419Y-64679295D02*
X156568800Y-64726914D01*
X156521180Y-64822152D01*
X156521180Y-65060247D01*
X156568800Y-65155485D01*
X156616419Y-65203104D01*
X156711657Y-65250723D01*
X156806895Y-65250723D01*
X156949752Y-65203104D01*
X157521180Y-64631676D01*
X157521180Y-65250723D01*
X156521180Y-65869771D02*
X156521180Y-65965009D01*
X156568800Y-66060247D01*
X156616419Y-66107866D01*
X156711657Y-66155485D01*
X156902133Y-66203104D01*
X157140228Y-66203104D01*
X157330704Y-66155485D01*
X157425942Y-66107866D01*
X157473561Y-66060247D01*
X157521180Y-65965009D01*
X157521180Y-65869771D01*
X157473561Y-65774533D01*
X157425942Y-65726914D01*
X157330704Y-65679295D01*
X157140228Y-65631676D01*
X156902133Y-65631676D01*
X156711657Y-65679295D01*
X156616419Y-65726914D01*
X156568800Y-65774533D01*
X156521180Y-65869771D01*
%TO.C,C5*%
X158514742Y-65333333D02*
X158562361Y-65285714D01*
X158609980Y-65142857D01*
X158609980Y-65047619D01*
X158562361Y-64904761D01*
X158467123Y-64809523D01*
X158371885Y-64761904D01*
X158181409Y-64714285D01*
X158038552Y-64714285D01*
X157848076Y-64761904D01*
X157752838Y-64809523D01*
X157657600Y-64904761D01*
X157609980Y-65047619D01*
X157609980Y-65142857D01*
X157657600Y-65285714D01*
X157705219Y-65333333D01*
X157609980Y-66238095D02*
X157609980Y-65761904D01*
X158086171Y-65714285D01*
X158038552Y-65761904D01*
X157990933Y-65857142D01*
X157990933Y-66095238D01*
X158038552Y-66190476D01*
X158086171Y-66238095D01*
X158181409Y-66285714D01*
X158419504Y-66285714D01*
X158514742Y-66238095D01*
X158562361Y-66190476D01*
X158609980Y-66095238D01*
X158609980Y-65857142D01*
X158562361Y-65761904D01*
X158514742Y-65714285D01*
%TO.C,M1*%
X154798780Y-60804276D02*
X153798780Y-60804276D01*
X154513066Y-61137609D01*
X153798780Y-61470942D01*
X154798780Y-61470942D01*
X154798780Y-62470942D02*
X154798780Y-61899514D01*
X154798780Y-62185228D02*
X153798780Y-62185228D01*
X153941638Y-62089990D01*
X154036876Y-61994752D01*
X154084495Y-61899514D01*
%TO.C,R21*%
X131181380Y-63841142D02*
X130705190Y-63507809D01*
X131181380Y-63269714D02*
X130181380Y-63269714D01*
X130181380Y-63650666D01*
X130229000Y-63745904D01*
X130276619Y-63793523D01*
X130371857Y-63841142D01*
X130514714Y-63841142D01*
X130609952Y-63793523D01*
X130657571Y-63745904D01*
X130705190Y-63650666D01*
X130705190Y-63269714D01*
X130276619Y-64222095D02*
X130229000Y-64269714D01*
X130181380Y-64364952D01*
X130181380Y-64603047D01*
X130229000Y-64698285D01*
X130276619Y-64745904D01*
X130371857Y-64793523D01*
X130467095Y-64793523D01*
X130609952Y-64745904D01*
X131181380Y-64174476D01*
X131181380Y-64793523D01*
X131181380Y-65745904D02*
X131181380Y-65174476D01*
X131181380Y-65460190D02*
X130181380Y-65460190D01*
X130324238Y-65364952D01*
X130419476Y-65269714D01*
X130467095Y-65174476D01*
%TO.C,J11*%
X162976123Y-68521780D02*
X162976123Y-69236066D01*
X163023742Y-69378923D01*
X163118980Y-69474161D01*
X163261838Y-69521780D01*
X163357076Y-69521780D01*
X161976123Y-69521780D02*
X162547552Y-69521780D01*
X162261838Y-69521780D02*
X162261838Y-68521780D01*
X162357076Y-68664638D01*
X162452314Y-68759876D01*
X162547552Y-68807495D01*
X161023742Y-69521780D02*
X161595171Y-69521780D01*
X161309457Y-69521780D02*
X161309457Y-68521780D01*
X161404695Y-68664638D01*
X161499933Y-68759876D01*
X161595171Y-68807495D01*
%TO.C,C11*%
X153082542Y-85100942D02*
X153130161Y-85053323D01*
X153177780Y-84910466D01*
X153177780Y-84815228D01*
X153130161Y-84672371D01*
X153034923Y-84577133D01*
X152939685Y-84529514D01*
X152749209Y-84481895D01*
X152606352Y-84481895D01*
X152415876Y-84529514D01*
X152320638Y-84577133D01*
X152225400Y-84672371D01*
X152177780Y-84815228D01*
X152177780Y-84910466D01*
X152225400Y-85053323D01*
X152273019Y-85100942D01*
X153177780Y-86053323D02*
X153177780Y-85481895D01*
X153177780Y-85767609D02*
X152177780Y-85767609D01*
X152320638Y-85672371D01*
X152415876Y-85577133D01*
X152463495Y-85481895D01*
X153177780Y-87005704D02*
X153177780Y-86434276D01*
X153177780Y-86719990D02*
X152177780Y-86719990D01*
X152320638Y-86624752D01*
X152415876Y-86529514D01*
X152463495Y-86434276D01*
%TO.C,C3*%
X149150666Y-69049942D02*
X149198285Y-69097561D01*
X149341142Y-69145180D01*
X149436380Y-69145180D01*
X149579238Y-69097561D01*
X149674476Y-69002323D01*
X149722095Y-68907085D01*
X149769714Y-68716609D01*
X149769714Y-68573752D01*
X149722095Y-68383276D01*
X149674476Y-68288038D01*
X149579238Y-68192800D01*
X149436380Y-68145180D01*
X149341142Y-68145180D01*
X149198285Y-68192800D01*
X149150666Y-68240419D01*
X148817333Y-68145180D02*
X148198285Y-68145180D01*
X148531619Y-68526133D01*
X148388761Y-68526133D01*
X148293523Y-68573752D01*
X148245904Y-68621371D01*
X148198285Y-68716609D01*
X148198285Y-68954704D01*
X148245904Y-69049942D01*
X148293523Y-69097561D01*
X148388761Y-69145180D01*
X148674476Y-69145180D01*
X148769714Y-69097561D01*
X148817333Y-69049942D01*
%TO.C,C2*%
X152980942Y-68495333D02*
X153028561Y-68447714D01*
X153076180Y-68304857D01*
X153076180Y-68209619D01*
X153028561Y-68066761D01*
X152933323Y-67971523D01*
X152838085Y-67923904D01*
X152647609Y-67876285D01*
X152504752Y-67876285D01*
X152314276Y-67923904D01*
X152219038Y-67971523D01*
X152123800Y-68066761D01*
X152076180Y-68209619D01*
X152076180Y-68304857D01*
X152123800Y-68447714D01*
X152171419Y-68495333D01*
X152171419Y-68876285D02*
X152123800Y-68923904D01*
X152076180Y-69019142D01*
X152076180Y-69257238D01*
X152123800Y-69352476D01*
X152171419Y-69400095D01*
X152266657Y-69447714D01*
X152361895Y-69447714D01*
X152504752Y-69400095D01*
X153076180Y-68828666D01*
X153076180Y-69447714D01*
D12*
%TO.C,C107*%
X192488748Y-128790000D02*
X193911252Y-128790000D01*
X192488748Y-130610000D02*
X193911252Y-130610000D01*
%TO.C,J29*%
X174017000Y-116454000D02*
X176137000Y-116454000D01*
X174017000Y-116454000D02*
X174017000Y-110394000D01*
X176137000Y-116454000D02*
X176137000Y-110394000D01*
X174017000Y-117454000D02*
X174017000Y-118514000D01*
X174017000Y-118514000D02*
X175077000Y-118514000D01*
X174017000Y-110394000D02*
X176137000Y-110394000D01*
%TO.C,R86*%
X192522500Y-126362742D02*
X192522500Y-126837258D01*
X191477500Y-126362742D02*
X191477500Y-126837258D01*
%TO.C,REF\u002A\u002A18*%
X203170000Y-98770000D02*
X203170000Y-98830000D01*
X205830000Y-98830000D02*
X203170000Y-98830000D01*
X205830000Y-98770000D02*
X203170000Y-98770000D01*
X205830000Y-96170000D02*
X204500000Y-96170000D01*
X205830000Y-98770000D02*
X205830000Y-98830000D01*
X205830000Y-97500000D02*
X205830000Y-96170000D01*
D13*
%TO.C,IC14*%
X184829400Y-118947200D02*
X184829400Y-115447200D01*
X178329400Y-115447200D02*
X178329400Y-118947200D01*
X184704400Y-121222200D02*
X184704400Y-119472200D01*
X178329400Y-118947200D02*
X184829400Y-118947200D01*
X184829400Y-115447200D02*
X178329400Y-115447200D01*
D12*
%TO.C,C96*%
X199904620Y-114553600D02*
X200185780Y-114553600D01*
X199904620Y-115573600D02*
X200185780Y-115573600D01*
D13*
%TO.C,Q12*%
X185678200Y-122138000D02*
X185578200Y-122138000D01*
X185678200Y-125058000D02*
X185678200Y-122138000D01*
X185578200Y-125058000D02*
X185678200Y-125058000D01*
X185578200Y-122138000D02*
X185578200Y-125058000D01*
X187328200Y-122098000D02*
X186028200Y-122098000D01*
D12*
%TO.C,R87*%
X201659900Y-101195924D02*
X201659900Y-100686476D01*
X200614900Y-101195924D02*
X200614900Y-100686476D01*
%TO.C,C116*%
X201492948Y-105466800D02*
X202915452Y-105466800D01*
X201492948Y-107286800D02*
X202915452Y-107286800D01*
%TO.C,M8*%
X173289600Y-96350600D02*
X172229600Y-96350600D01*
X172229600Y-96350600D02*
X172229600Y-97410600D01*
X174289600Y-98470600D02*
X176349600Y-98470600D01*
X174289600Y-96350600D02*
X174289600Y-98470600D01*
X176349600Y-96350600D02*
X176349600Y-98470600D01*
X174289600Y-96350600D02*
X176349600Y-96350600D01*
%TO.C,R85*%
X195222500Y-126462742D02*
X195222500Y-126937258D01*
X194177500Y-126462742D02*
X194177500Y-126937258D01*
%TO.C,C103*%
X199980820Y-108944200D02*
X200261980Y-108944200D01*
X199980820Y-107924200D02*
X200261980Y-107924200D01*
%TO.C,R76*%
X199955420Y-113029600D02*
X200236580Y-113029600D01*
X199955420Y-114049600D02*
X200236580Y-114049600D01*
%TO.C,J27*%
X184685000Y-128170000D02*
X186805000Y-128170000D01*
X184685000Y-129170000D02*
X184685000Y-130230000D01*
X184685000Y-126110000D02*
X186805000Y-126110000D01*
X186805000Y-128170000D02*
X186805000Y-126110000D01*
X184685000Y-130230000D02*
X185745000Y-130230000D01*
X184685000Y-128170000D02*
X184685000Y-126110000D01*
%TO.C,R88*%
X175294700Y-100738724D02*
X175294700Y-100229276D01*
X174249700Y-100738724D02*
X174249700Y-100229276D01*
%TO.C,C99*%
X186493420Y-117173800D02*
X186774580Y-117173800D01*
X186493420Y-116153800D02*
X186774580Y-116153800D01*
%TO.C,C105*%
X193099180Y-105159600D02*
X192818020Y-105159600D01*
X193099180Y-104139600D02*
X192818020Y-104139600D01*
%TO.C,C112*%
X179009600Y-99671148D02*
X179009600Y-101093652D01*
X177189600Y-99671148D02*
X177189600Y-101093652D01*
%TO.C,D7*%
X189545600Y-117487200D02*
X189545600Y-121387200D01*
X189545600Y-117487200D02*
X191545600Y-117487200D01*
X191545600Y-117487200D02*
X191545600Y-121387200D01*
%TO.C,C110*%
X181634600Y-123191548D02*
X181634600Y-124614052D01*
X183454600Y-123191548D02*
X183454600Y-124614052D01*
%TO.C,J25*%
X180896200Y-130669200D02*
X172776200Y-130669200D01*
X179636200Y-128409200D02*
X179636200Y-130669200D01*
X172776200Y-124449200D02*
X173696200Y-124449200D01*
X174536200Y-126809200D02*
X173536200Y-126809200D01*
X174536200Y-128409200D02*
X174536200Y-126809200D01*
X179976200Y-124449200D02*
X179976200Y-122849200D01*
X172776200Y-130669200D02*
X172776200Y-122849200D01*
X179136200Y-126809200D02*
X180136200Y-126809200D01*
X173536200Y-126809200D02*
X173536200Y-128409200D01*
X180896200Y-124449200D02*
X179976200Y-124449200D01*
X179696200Y-124449200D02*
X179976200Y-124449200D01*
X179976200Y-122849200D02*
X180896200Y-122849200D01*
X180896200Y-122849200D02*
X180896200Y-130669200D01*
X178336200Y-130669200D02*
X178336200Y-126309200D01*
X173696200Y-122849200D02*
X173696200Y-124449200D01*
X180136200Y-128409200D02*
X179136200Y-128409200D01*
X175336200Y-126309200D02*
X175336200Y-130669200D01*
X180136200Y-126809200D02*
X180136200Y-128409200D01*
X173536200Y-128409200D02*
X174536200Y-128409200D01*
X179696200Y-124449200D02*
X179696200Y-123234200D01*
X179136200Y-128409200D02*
X179136200Y-126809200D01*
X173696200Y-124449200D02*
X173976200Y-124449200D01*
X179136200Y-128409200D02*
X179136200Y-130669200D01*
X172776200Y-122849200D02*
X173696200Y-122849200D01*
X178336200Y-126309200D02*
X175336200Y-126309200D01*
%TO.C,C113*%
X203732600Y-113639348D02*
X203732600Y-115061852D01*
X205552600Y-113639348D02*
X205552600Y-115061852D01*
%TO.C,REF\u002A\u002A17*%
X179480400Y-98918400D02*
X176820400Y-98918400D01*
X179480400Y-98858400D02*
X176820400Y-98858400D01*
X176820400Y-98858400D02*
X176820400Y-98918400D01*
X179480400Y-97588400D02*
X179480400Y-96258400D01*
X179480400Y-98858400D02*
X179480400Y-98918400D01*
X179480400Y-96258400D02*
X178150400Y-96258400D01*
%TO.C,R81*%
X182175420Y-110718200D02*
X182456580Y-110718200D01*
X182175420Y-111738200D02*
X182456580Y-111738200D01*
%TO.C,C95*%
X204917600Y-100788748D02*
X204917600Y-102211252D01*
X203097600Y-100788748D02*
X203097600Y-102211252D01*
%TO.C,C93*%
X193124580Y-106632800D02*
X192843420Y-106632800D01*
X193124580Y-105612800D02*
X192843420Y-105612800D01*
%TO.C,C92*%
X195703800Y-104802580D02*
X195703800Y-104521420D01*
X194683800Y-104802580D02*
X194683800Y-104521420D01*
%TO.C,C101*%
X195805400Y-121884380D02*
X195805400Y-121603220D01*
X194785400Y-121884380D02*
X194785400Y-121603220D01*
%TO.C,J32*%
X207226600Y-107129400D02*
X207226600Y-106069400D01*
X205106600Y-108129400D02*
X205106600Y-110189400D01*
X207226600Y-110189400D02*
X205106600Y-110189400D01*
X207226600Y-108129400D02*
X205106600Y-108129400D01*
X207226600Y-106069400D02*
X206166600Y-106069400D01*
X207226600Y-108129400D02*
X207226600Y-110189400D01*
%TO.C,C98*%
X205482800Y-124930620D02*
X205482800Y-125211780D01*
X204462800Y-124930620D02*
X204462800Y-125211780D01*
%TO.C,M7*%
X201406400Y-96553800D02*
X201406400Y-98673800D01*
X200406400Y-96553800D02*
X199346400Y-96553800D01*
X203466400Y-96553800D02*
X203466400Y-98673800D01*
X199346400Y-96553800D02*
X199346400Y-97613800D01*
X201406400Y-96553800D02*
X203466400Y-96553800D01*
X201406400Y-98673800D02*
X203466400Y-98673800D01*
%TO.C,R90*%
X173821500Y-100738724D02*
X173821500Y-100229276D01*
X172776500Y-100738724D02*
X172776500Y-100229276D01*
%TO.C,R89*%
X199116300Y-101195924D02*
X199116300Y-100686476D01*
X200161300Y-101195924D02*
X200161300Y-100686476D01*
%TO.C,C109*%
X176042252Y-119386000D02*
X174619748Y-119386000D01*
X176042252Y-121206000D02*
X174619748Y-121206000D01*
%TO.C,J28*%
X170892800Y-117500000D02*
X170892800Y-118560000D01*
X173012800Y-116500000D02*
X173012800Y-110440000D01*
X170892800Y-110440000D02*
X173012800Y-110440000D01*
X170892800Y-116500000D02*
X170892800Y-110440000D01*
X170892800Y-118560000D02*
X171952800Y-118560000D01*
X170892800Y-116500000D02*
X173012800Y-116500000D01*
%TO.C,C108*%
X181634600Y-129262252D02*
X181634600Y-127839748D01*
X183454600Y-129262252D02*
X183454600Y-127839748D01*
%TO.C,C77*%
X148488748Y-128790000D02*
X149911252Y-128790000D01*
X148488748Y-130610000D02*
X149911252Y-130610000D01*
%TO.C,J21*%
X130017000Y-116454000D02*
X132137000Y-116454000D01*
X130017000Y-116454000D02*
X130017000Y-110394000D01*
X132137000Y-116454000D02*
X132137000Y-110394000D01*
X130017000Y-117454000D02*
X130017000Y-118514000D01*
X130017000Y-118514000D02*
X131077000Y-118514000D01*
X130017000Y-110394000D02*
X132137000Y-110394000D01*
%TO.C,R63*%
X148522500Y-126362742D02*
X148522500Y-126837258D01*
X147477500Y-126362742D02*
X147477500Y-126837258D01*
%TO.C,REF\u002A\u002A12*%
X159170000Y-98770000D02*
X159170000Y-98830000D01*
X161830000Y-98830000D02*
X159170000Y-98830000D01*
X161830000Y-98770000D02*
X159170000Y-98770000D01*
X161830000Y-96170000D02*
X160500000Y-96170000D01*
X161830000Y-98770000D02*
X161830000Y-98830000D01*
X161830000Y-97500000D02*
X161830000Y-96170000D01*
D13*
%TO.C,IC6*%
X140829400Y-118947200D02*
X140829400Y-115447200D01*
X134329400Y-115447200D02*
X134329400Y-118947200D01*
X140704400Y-121222200D02*
X140704400Y-119472200D01*
X134329400Y-118947200D02*
X140829400Y-118947200D01*
X140829400Y-115447200D02*
X134329400Y-115447200D01*
D12*
%TO.C,C66*%
X155904620Y-114553600D02*
X156185780Y-114553600D01*
X155904620Y-115573600D02*
X156185780Y-115573600D01*
D13*
%TO.C,Q9*%
X141678200Y-122138000D02*
X141578200Y-122138000D01*
X141678200Y-125058000D02*
X141678200Y-122138000D01*
X141578200Y-125058000D02*
X141678200Y-125058000D01*
X141578200Y-122138000D02*
X141578200Y-125058000D01*
X143328200Y-122098000D02*
X142028200Y-122098000D01*
D12*
%TO.C,R64*%
X157659900Y-101195924D02*
X157659900Y-100686476D01*
X156614900Y-101195924D02*
X156614900Y-100686476D01*
%TO.C,C86*%
X157492948Y-105466800D02*
X158915452Y-105466800D01*
X157492948Y-107286800D02*
X158915452Y-107286800D01*
%TO.C,M6*%
X129289600Y-96350600D02*
X128229600Y-96350600D01*
X128229600Y-96350600D02*
X128229600Y-97410600D01*
X130289600Y-98470600D02*
X132349600Y-98470600D01*
X130289600Y-96350600D02*
X130289600Y-98470600D01*
X132349600Y-96350600D02*
X132349600Y-98470600D01*
X130289600Y-96350600D02*
X132349600Y-96350600D01*
%TO.C,R62*%
X151222500Y-126462742D02*
X151222500Y-126937258D01*
X150177500Y-126462742D02*
X150177500Y-126937258D01*
%TO.C,C73*%
X155980820Y-108944200D02*
X156261980Y-108944200D01*
X155980820Y-107924200D02*
X156261980Y-107924200D01*
%TO.C,R53*%
X155955420Y-113029600D02*
X156236580Y-113029600D01*
X155955420Y-114049600D02*
X156236580Y-114049600D01*
%TO.C,J19*%
X140685000Y-128170000D02*
X142805000Y-128170000D01*
X140685000Y-129170000D02*
X140685000Y-130230000D01*
X140685000Y-126110000D02*
X142805000Y-126110000D01*
X142805000Y-128170000D02*
X142805000Y-126110000D01*
X140685000Y-130230000D02*
X141745000Y-130230000D01*
X140685000Y-128170000D02*
X140685000Y-126110000D01*
%TO.C,R65*%
X131294700Y-100738724D02*
X131294700Y-100229276D01*
X130249700Y-100738724D02*
X130249700Y-100229276D01*
%TO.C,C69*%
X142493420Y-117173800D02*
X142774580Y-117173800D01*
X142493420Y-116153800D02*
X142774580Y-116153800D01*
%TO.C,C75*%
X149099180Y-105159600D02*
X148818020Y-105159600D01*
X149099180Y-104139600D02*
X148818020Y-104139600D01*
%TO.C,C82*%
X135009600Y-99671148D02*
X135009600Y-101093652D01*
X133189600Y-99671148D02*
X133189600Y-101093652D01*
%TO.C,D5*%
X145545600Y-117487200D02*
X145545600Y-121387200D01*
X145545600Y-117487200D02*
X147545600Y-117487200D01*
X147545600Y-117487200D02*
X147545600Y-121387200D01*
%TO.C,C80*%
X137634600Y-123191548D02*
X137634600Y-124614052D01*
X139454600Y-123191548D02*
X139454600Y-124614052D01*
%TO.C,J17*%
X136896200Y-130669200D02*
X128776200Y-130669200D01*
X135636200Y-128409200D02*
X135636200Y-130669200D01*
X128776200Y-124449200D02*
X129696200Y-124449200D01*
X130536200Y-126809200D02*
X129536200Y-126809200D01*
X130536200Y-128409200D02*
X130536200Y-126809200D01*
X135976200Y-124449200D02*
X135976200Y-122849200D01*
X128776200Y-130669200D02*
X128776200Y-122849200D01*
X135136200Y-126809200D02*
X136136200Y-126809200D01*
X129536200Y-126809200D02*
X129536200Y-128409200D01*
X136896200Y-124449200D02*
X135976200Y-124449200D01*
X135696200Y-124449200D02*
X135976200Y-124449200D01*
X135976200Y-122849200D02*
X136896200Y-122849200D01*
X136896200Y-122849200D02*
X136896200Y-130669200D01*
X134336200Y-130669200D02*
X134336200Y-126309200D01*
X129696200Y-122849200D02*
X129696200Y-124449200D01*
X136136200Y-128409200D02*
X135136200Y-128409200D01*
X131336200Y-126309200D02*
X131336200Y-130669200D01*
X136136200Y-126809200D02*
X136136200Y-128409200D01*
X129536200Y-128409200D02*
X130536200Y-128409200D01*
X135696200Y-124449200D02*
X135696200Y-123234200D01*
X135136200Y-128409200D02*
X135136200Y-126809200D01*
X129696200Y-124449200D02*
X129976200Y-124449200D01*
X135136200Y-128409200D02*
X135136200Y-130669200D01*
X128776200Y-122849200D02*
X129696200Y-122849200D01*
X134336200Y-126309200D02*
X131336200Y-126309200D01*
%TO.C,C83*%
X159732600Y-113639348D02*
X159732600Y-115061852D01*
X161552600Y-113639348D02*
X161552600Y-115061852D01*
%TO.C,REF\u002A\u002A11*%
X135480400Y-98918400D02*
X132820400Y-98918400D01*
X135480400Y-98858400D02*
X132820400Y-98858400D01*
X132820400Y-98858400D02*
X132820400Y-98918400D01*
X135480400Y-97588400D02*
X135480400Y-96258400D01*
X135480400Y-98858400D02*
X135480400Y-98918400D01*
X135480400Y-96258400D02*
X134150400Y-96258400D01*
%TO.C,R58*%
X138175420Y-110718200D02*
X138456580Y-110718200D01*
X138175420Y-111738200D02*
X138456580Y-111738200D01*
%TO.C,C65*%
X160917600Y-100788748D02*
X160917600Y-102211252D01*
X159097600Y-100788748D02*
X159097600Y-102211252D01*
%TO.C,C63*%
X149124580Y-106632800D02*
X148843420Y-106632800D01*
X149124580Y-105612800D02*
X148843420Y-105612800D01*
%TO.C,C62*%
X151703800Y-104802580D02*
X151703800Y-104521420D01*
X150683800Y-104802580D02*
X150683800Y-104521420D01*
%TO.C,C71*%
X151805400Y-121884380D02*
X151805400Y-121603220D01*
X150785400Y-121884380D02*
X150785400Y-121603220D01*
%TO.C,J24*%
X163226600Y-107129400D02*
X163226600Y-106069400D01*
X161106600Y-108129400D02*
X161106600Y-110189400D01*
X163226600Y-110189400D02*
X161106600Y-110189400D01*
X163226600Y-108129400D02*
X161106600Y-108129400D01*
X163226600Y-106069400D02*
X162166600Y-106069400D01*
X163226600Y-108129400D02*
X163226600Y-110189400D01*
%TO.C,C68*%
X161482800Y-124930620D02*
X161482800Y-125211780D01*
X160462800Y-124930620D02*
X160462800Y-125211780D01*
%TO.C,M5*%
X157406400Y-96553800D02*
X157406400Y-98673800D01*
X156406400Y-96553800D02*
X155346400Y-96553800D01*
X159466400Y-96553800D02*
X159466400Y-98673800D01*
X155346400Y-96553800D02*
X155346400Y-97613800D01*
X157406400Y-96553800D02*
X159466400Y-96553800D01*
X157406400Y-98673800D02*
X159466400Y-98673800D01*
%TO.C,R67*%
X129821500Y-100738724D02*
X129821500Y-100229276D01*
X128776500Y-100738724D02*
X128776500Y-100229276D01*
%TO.C,R66*%
X155116300Y-101195924D02*
X155116300Y-100686476D01*
X156161300Y-101195924D02*
X156161300Y-100686476D01*
%TO.C,C79*%
X132042252Y-119386000D02*
X130619748Y-119386000D01*
X132042252Y-121206000D02*
X130619748Y-121206000D01*
%TO.C,J20*%
X126892800Y-117500000D02*
X126892800Y-118560000D01*
X129012800Y-116500000D02*
X129012800Y-110440000D01*
X126892800Y-110440000D02*
X129012800Y-110440000D01*
X126892800Y-116500000D02*
X126892800Y-110440000D01*
X126892800Y-118560000D02*
X127952800Y-118560000D01*
X126892800Y-116500000D02*
X129012800Y-116500000D01*
%TO.C,C78*%
X137634600Y-129262252D02*
X137634600Y-127839748D01*
X139454600Y-129262252D02*
X139454600Y-127839748D01*
%TO.C,C47*%
X192488748Y-92790000D02*
X193911252Y-92790000D01*
X192488748Y-94610000D02*
X193911252Y-94610000D01*
%TO.C,J13*%
X174017000Y-80454000D02*
X176137000Y-80454000D01*
X174017000Y-80454000D02*
X174017000Y-74394000D01*
X176137000Y-80454000D02*
X176137000Y-74394000D01*
X174017000Y-81454000D02*
X174017000Y-82514000D01*
X174017000Y-82514000D02*
X175077000Y-82514000D01*
X174017000Y-74394000D02*
X176137000Y-74394000D01*
%TO.C,R40*%
X192522500Y-90362742D02*
X192522500Y-90837258D01*
X191477500Y-90362742D02*
X191477500Y-90837258D01*
%TO.C,REF\u002A\u002A6*%
X203170000Y-62770000D02*
X203170000Y-62830000D01*
X205830000Y-62830000D02*
X203170000Y-62830000D01*
X205830000Y-62770000D02*
X203170000Y-62770000D01*
X205830000Y-60170000D02*
X204500000Y-60170000D01*
X205830000Y-62770000D02*
X205830000Y-62830000D01*
X205830000Y-61500000D02*
X205830000Y-60170000D01*
D13*
%TO.C,IC4*%
X184829400Y-82947200D02*
X184829400Y-79447200D01*
X178329400Y-79447200D02*
X178329400Y-82947200D01*
X184704400Y-85222200D02*
X184704400Y-83472200D01*
X178329400Y-82947200D02*
X184829400Y-82947200D01*
X184829400Y-79447200D02*
X178329400Y-79447200D01*
D12*
%TO.C,C31*%
X199904620Y-78553600D02*
X200185780Y-78553600D01*
X199904620Y-79573600D02*
X200185780Y-79573600D01*
D13*
%TO.C,Q8*%
X185678200Y-86138000D02*
X185578200Y-86138000D01*
X185678200Y-89058000D02*
X185678200Y-86138000D01*
X185578200Y-89058000D02*
X185678200Y-89058000D01*
X185578200Y-86138000D02*
X185578200Y-89058000D01*
X187328200Y-86098000D02*
X186028200Y-86098000D01*
D12*
%TO.C,R41*%
X201659900Y-65195924D02*
X201659900Y-64686476D01*
X200614900Y-65195924D02*
X200614900Y-64686476D01*
%TO.C,C56*%
X201492948Y-69466800D02*
X202915452Y-69466800D01*
X201492948Y-71286800D02*
X202915452Y-71286800D01*
%TO.C,M4*%
X173289600Y-60350600D02*
X172229600Y-60350600D01*
X172229600Y-60350600D02*
X172229600Y-61410600D01*
X174289600Y-62470600D02*
X176349600Y-62470600D01*
X174289600Y-60350600D02*
X174289600Y-62470600D01*
X176349600Y-60350600D02*
X176349600Y-62470600D01*
X174289600Y-60350600D02*
X176349600Y-60350600D01*
%TO.C,R39*%
X195222500Y-90462742D02*
X195222500Y-90937258D01*
X194177500Y-90462742D02*
X194177500Y-90937258D01*
%TO.C,C43*%
X199980820Y-72944200D02*
X200261980Y-72944200D01*
X199980820Y-71924200D02*
X200261980Y-71924200D01*
%TO.C,R30*%
X199955420Y-77029600D02*
X200236580Y-77029600D01*
X199955420Y-78049600D02*
X200236580Y-78049600D01*
%TO.C,J9*%
X184685000Y-92170000D02*
X186805000Y-92170000D01*
X184685000Y-93170000D02*
X184685000Y-94230000D01*
X184685000Y-90110000D02*
X186805000Y-90110000D01*
X186805000Y-92170000D02*
X186805000Y-90110000D01*
X184685000Y-94230000D02*
X185745000Y-94230000D01*
X184685000Y-92170000D02*
X184685000Y-90110000D01*
%TO.C,R42*%
X175294700Y-64738724D02*
X175294700Y-64229276D01*
X174249700Y-64738724D02*
X174249700Y-64229276D01*
%TO.C,C39*%
X186493420Y-81173800D02*
X186774580Y-81173800D01*
X186493420Y-80153800D02*
X186774580Y-80153800D01*
%TO.C,C45*%
X193099180Y-69159600D02*
X192818020Y-69159600D01*
X193099180Y-68139600D02*
X192818020Y-68139600D01*
%TO.C,C52*%
X179009600Y-63671148D02*
X179009600Y-65093652D01*
X177189600Y-63671148D02*
X177189600Y-65093652D01*
%TO.C,D2*%
X189545600Y-81487200D02*
X189545600Y-85387200D01*
X189545600Y-81487200D02*
X191545600Y-81487200D01*
X191545600Y-81487200D02*
X191545600Y-85387200D01*
%TO.C,C50*%
X181634600Y-87191548D02*
X181634600Y-88614052D01*
X183454600Y-87191548D02*
X183454600Y-88614052D01*
%TO.C,J2*%
X180896200Y-94669200D02*
X172776200Y-94669200D01*
X179636200Y-92409200D02*
X179636200Y-94669200D01*
X172776200Y-88449200D02*
X173696200Y-88449200D01*
X174536200Y-90809200D02*
X173536200Y-90809200D01*
X174536200Y-92409200D02*
X174536200Y-90809200D01*
X179976200Y-88449200D02*
X179976200Y-86849200D01*
X172776200Y-94669200D02*
X172776200Y-86849200D01*
X179136200Y-90809200D02*
X180136200Y-90809200D01*
X173536200Y-90809200D02*
X173536200Y-92409200D01*
X180896200Y-88449200D02*
X179976200Y-88449200D01*
X179696200Y-88449200D02*
X179976200Y-88449200D01*
X179976200Y-86849200D02*
X180896200Y-86849200D01*
X180896200Y-86849200D02*
X180896200Y-94669200D01*
X178336200Y-94669200D02*
X178336200Y-90309200D01*
X173696200Y-86849200D02*
X173696200Y-88449200D01*
X180136200Y-92409200D02*
X179136200Y-92409200D01*
X175336200Y-90309200D02*
X175336200Y-94669200D01*
X180136200Y-90809200D02*
X180136200Y-92409200D01*
X173536200Y-92409200D02*
X174536200Y-92409200D01*
X179696200Y-88449200D02*
X179696200Y-87234200D01*
X179136200Y-92409200D02*
X179136200Y-90809200D01*
X173696200Y-88449200D02*
X173976200Y-88449200D01*
X179136200Y-92409200D02*
X179136200Y-94669200D01*
X172776200Y-86849200D02*
X173696200Y-86849200D01*
X178336200Y-90309200D02*
X175336200Y-90309200D01*
%TO.C,C53*%
X203732600Y-77639348D02*
X203732600Y-79061852D01*
X205552600Y-77639348D02*
X205552600Y-79061852D01*
%TO.C,REF\u002A\u002A5*%
X179480400Y-62918400D02*
X176820400Y-62918400D01*
X179480400Y-62858400D02*
X176820400Y-62858400D01*
X176820400Y-62858400D02*
X176820400Y-62918400D01*
X179480400Y-61588400D02*
X179480400Y-60258400D01*
X179480400Y-62858400D02*
X179480400Y-62918400D01*
X179480400Y-60258400D02*
X178150400Y-60258400D01*
%TO.C,R35*%
X182175420Y-74718200D02*
X182456580Y-74718200D01*
X182175420Y-75738200D02*
X182456580Y-75738200D01*
%TO.C,C29*%
X204917600Y-64788748D02*
X204917600Y-66211252D01*
X203097600Y-64788748D02*
X203097600Y-66211252D01*
%TO.C,C27*%
X193124580Y-70632800D02*
X192843420Y-70632800D01*
X193124580Y-69612800D02*
X192843420Y-69612800D01*
%TO.C,C25*%
X195703800Y-68802580D02*
X195703800Y-68521420D01*
X194683800Y-68802580D02*
X194683800Y-68521420D01*
%TO.C,C41*%
X195805400Y-85884380D02*
X195805400Y-85603220D01*
X194785400Y-85884380D02*
X194785400Y-85603220D01*
%TO.C,J16*%
X207226600Y-71129400D02*
X207226600Y-70069400D01*
X205106600Y-72129400D02*
X205106600Y-74189400D01*
X207226600Y-74189400D02*
X205106600Y-74189400D01*
X207226600Y-72129400D02*
X205106600Y-72129400D01*
X207226600Y-70069400D02*
X206166600Y-70069400D01*
X207226600Y-72129400D02*
X207226600Y-74189400D01*
%TO.C,C38*%
X205482800Y-88930620D02*
X205482800Y-89211780D01*
X204462800Y-88930620D02*
X204462800Y-89211780D01*
%TO.C,M3*%
X201406400Y-60553800D02*
X201406400Y-62673800D01*
X200406400Y-60553800D02*
X199346400Y-60553800D01*
X203466400Y-60553800D02*
X203466400Y-62673800D01*
X199346400Y-60553800D02*
X199346400Y-61613800D01*
X201406400Y-60553800D02*
X203466400Y-60553800D01*
X201406400Y-62673800D02*
X203466400Y-62673800D01*
%TO.C,R44*%
X173821500Y-64738724D02*
X173821500Y-64229276D01*
X172776500Y-64738724D02*
X172776500Y-64229276D01*
%TO.C,R43*%
X199116300Y-65195924D02*
X199116300Y-64686476D01*
X200161300Y-65195924D02*
X200161300Y-64686476D01*
%TO.C,C49*%
X176042252Y-83386000D02*
X174619748Y-83386000D01*
X176042252Y-85206000D02*
X174619748Y-85206000D01*
%TO.C,J12*%
X170892800Y-81500000D02*
X170892800Y-82560000D01*
X173012800Y-80500000D02*
X173012800Y-74440000D01*
X170892800Y-74440000D02*
X173012800Y-74440000D01*
X170892800Y-80500000D02*
X170892800Y-74440000D01*
X170892800Y-82560000D02*
X171952800Y-82560000D01*
X170892800Y-80500000D02*
X173012800Y-80500000D01*
%TO.C,C48*%
X181634600Y-93262252D02*
X181634600Y-91839748D01*
X183454600Y-93262252D02*
X183454600Y-91839748D01*
%TO.C,C33*%
X157492948Y-69466800D02*
X158915452Y-69466800D01*
X157492948Y-71286800D02*
X158915452Y-71286800D01*
%TO.C,C22*%
X135009600Y-63671148D02*
X135009600Y-65093652D01*
X133189600Y-63671148D02*
X133189600Y-65093652D01*
%TO.C,D1*%
X145545600Y-81487200D02*
X145545600Y-85387200D01*
X145545600Y-81487200D02*
X147545600Y-81487200D01*
X147545600Y-81487200D02*
X147545600Y-85387200D01*
%TO.C,C20*%
X137634600Y-87191548D02*
X137634600Y-88614052D01*
X139454600Y-87191548D02*
X139454600Y-88614052D01*
%TO.C,C15*%
X149099180Y-69159600D02*
X148818020Y-69159600D01*
X149099180Y-68139600D02*
X148818020Y-68139600D01*
%TO.C,J4*%
X140685000Y-92170000D02*
X142805000Y-92170000D01*
X140685000Y-93170000D02*
X140685000Y-94230000D01*
X140685000Y-90110000D02*
X142805000Y-90110000D01*
X142805000Y-92170000D02*
X142805000Y-90110000D01*
X140685000Y-94230000D02*
X141745000Y-94230000D01*
X140685000Y-92170000D02*
X140685000Y-90110000D01*
%TO.C,J6*%
X130017000Y-80454000D02*
X132137000Y-80454000D01*
X130017000Y-80454000D02*
X130017000Y-74394000D01*
X132137000Y-80454000D02*
X132137000Y-74394000D01*
X130017000Y-81454000D02*
X130017000Y-82514000D01*
X130017000Y-82514000D02*
X131077000Y-82514000D01*
X130017000Y-74394000D02*
X132137000Y-74394000D01*
%TO.C,C9*%
X142493420Y-81173800D02*
X142774580Y-81173800D01*
X142493420Y-80153800D02*
X142774580Y-80153800D01*
%TO.C,R7*%
X155955420Y-77029600D02*
X156236580Y-77029600D01*
X155955420Y-78049600D02*
X156236580Y-78049600D01*
%TO.C,J1*%
X136896200Y-94669200D02*
X128776200Y-94669200D01*
X135636200Y-92409200D02*
X135636200Y-94669200D01*
X128776200Y-88449200D02*
X129696200Y-88449200D01*
X130536200Y-90809200D02*
X129536200Y-90809200D01*
X130536200Y-92409200D02*
X130536200Y-90809200D01*
X135976200Y-88449200D02*
X135976200Y-86849200D01*
X128776200Y-94669200D02*
X128776200Y-86849200D01*
X135136200Y-90809200D02*
X136136200Y-90809200D01*
X129536200Y-90809200D02*
X129536200Y-92409200D01*
X136896200Y-88449200D02*
X135976200Y-88449200D01*
X135696200Y-88449200D02*
X135976200Y-88449200D01*
X135976200Y-86849200D02*
X136896200Y-86849200D01*
X136896200Y-86849200D02*
X136896200Y-94669200D01*
X134336200Y-94669200D02*
X134336200Y-90309200D01*
X129696200Y-86849200D02*
X129696200Y-88449200D01*
X136136200Y-92409200D02*
X135136200Y-92409200D01*
X131336200Y-90309200D02*
X131336200Y-94669200D01*
X136136200Y-90809200D02*
X136136200Y-92409200D01*
X129536200Y-92409200D02*
X130536200Y-92409200D01*
X135696200Y-88449200D02*
X135696200Y-87234200D01*
X135136200Y-92409200D02*
X135136200Y-90809200D01*
X129696200Y-88449200D02*
X129976200Y-88449200D01*
X135136200Y-92409200D02*
X135136200Y-94669200D01*
X128776200Y-86849200D02*
X129696200Y-86849200D01*
X134336200Y-90309200D02*
X131336200Y-90309200D01*
%TO.C,C13*%
X155980820Y-72944200D02*
X156261980Y-72944200D01*
X155980820Y-71924200D02*
X156261980Y-71924200D01*
%TO.C,R18*%
X157659900Y-65195924D02*
X157659900Y-64686476D01*
X156614900Y-65195924D02*
X156614900Y-64686476D01*
D13*
%TO.C,IC2*%
X140829400Y-82947200D02*
X140829400Y-79447200D01*
X134329400Y-79447200D02*
X134329400Y-82947200D01*
X140704400Y-85222200D02*
X140704400Y-83472200D01*
X134329400Y-82947200D02*
X140829400Y-82947200D01*
X140829400Y-79447200D02*
X134329400Y-79447200D01*
%TO.C,Q7*%
X141678200Y-86138000D02*
X141578200Y-86138000D01*
X141678200Y-89058000D02*
X141678200Y-86138000D01*
X141578200Y-89058000D02*
X141678200Y-89058000D01*
X141578200Y-86138000D02*
X141578200Y-89058000D01*
X143328200Y-86098000D02*
X142028200Y-86098000D01*
D12*
%TO.C,C17*%
X148488748Y-92790000D02*
X149911252Y-92790000D01*
X148488748Y-94610000D02*
X149911252Y-94610000D01*
%TO.C,R19*%
X131294700Y-64738724D02*
X131294700Y-64229276D01*
X130249700Y-64738724D02*
X130249700Y-64229276D01*
%TO.C,REF\u002A\u002A*%
X159170000Y-62770000D02*
X159170000Y-62830000D01*
X161830000Y-62830000D02*
X159170000Y-62830000D01*
X161830000Y-62770000D02*
X159170000Y-62770000D01*
X161830000Y-60170000D02*
X160500000Y-60170000D01*
X161830000Y-62770000D02*
X161830000Y-62830000D01*
X161830000Y-61500000D02*
X161830000Y-60170000D01*
%TO.C,C6*%
X155904620Y-78553600D02*
X156185780Y-78553600D01*
X155904620Y-79573600D02*
X156185780Y-79573600D01*
%TO.C,R17*%
X148522500Y-90362742D02*
X148522500Y-90837258D01*
X147477500Y-90362742D02*
X147477500Y-90837258D01*
%TO.C,R16*%
X151222500Y-90462742D02*
X151222500Y-90937258D01*
X150177500Y-90462742D02*
X150177500Y-90937258D01*
%TO.C,M2*%
X129289600Y-60350600D02*
X128229600Y-60350600D01*
X128229600Y-60350600D02*
X128229600Y-61410600D01*
X130289600Y-62470600D02*
X132349600Y-62470600D01*
X130289600Y-60350600D02*
X130289600Y-62470600D01*
X132349600Y-60350600D02*
X132349600Y-62470600D01*
X130289600Y-60350600D02*
X132349600Y-60350600D01*
%TO.C,J5*%
X126892800Y-81500000D02*
X126892800Y-82560000D01*
X129012800Y-80500000D02*
X129012800Y-74440000D01*
X126892800Y-74440000D02*
X129012800Y-74440000D01*
X126892800Y-80500000D02*
X126892800Y-74440000D01*
X126892800Y-82560000D02*
X127952800Y-82560000D01*
X126892800Y-80500000D02*
X129012800Y-80500000D01*
%TO.C,C23*%
X159732600Y-77639348D02*
X159732600Y-79061852D01*
X161552600Y-77639348D02*
X161552600Y-79061852D01*
%TO.C,C8*%
X161482800Y-88930620D02*
X161482800Y-89211780D01*
X160462800Y-88930620D02*
X160462800Y-89211780D01*
%TO.C,R12*%
X138175420Y-74718200D02*
X138456580Y-74718200D01*
X138175420Y-75738200D02*
X138456580Y-75738200D01*
%TO.C,C18*%
X137634600Y-93262252D02*
X137634600Y-91839748D01*
X139454600Y-93262252D02*
X139454600Y-91839748D01*
%TO.C,C19*%
X132042252Y-83386000D02*
X130619748Y-83386000D01*
X132042252Y-85206000D02*
X130619748Y-85206000D01*
%TO.C,R20*%
X155116300Y-65195924D02*
X155116300Y-64686476D01*
X156161300Y-65195924D02*
X156161300Y-64686476D01*
%TO.C,REF\u002A\u002A*%
X135480400Y-62918400D02*
X132820400Y-62918400D01*
X135480400Y-62858400D02*
X132820400Y-62858400D01*
X132820400Y-62858400D02*
X132820400Y-62918400D01*
X135480400Y-61588400D02*
X135480400Y-60258400D01*
X135480400Y-62858400D02*
X135480400Y-62918400D01*
X135480400Y-60258400D02*
X134150400Y-60258400D01*
%TO.C,C5*%
X160917600Y-64788748D02*
X160917600Y-66211252D01*
X159097600Y-64788748D02*
X159097600Y-66211252D01*
%TO.C,M1*%
X157406400Y-60553800D02*
X157406400Y-62673800D01*
X156406400Y-60553800D02*
X155346400Y-60553800D01*
X159466400Y-60553800D02*
X159466400Y-62673800D01*
X155346400Y-60553800D02*
X155346400Y-61613800D01*
X157406400Y-60553800D02*
X159466400Y-60553800D01*
X157406400Y-62673800D02*
X159466400Y-62673800D01*
%TO.C,R21*%
X129821500Y-64738724D02*
X129821500Y-64229276D01*
X128776500Y-64738724D02*
X128776500Y-64229276D01*
%TO.C,J11*%
X163226600Y-71129400D02*
X163226600Y-70069400D01*
X161106600Y-72129400D02*
X161106600Y-74189400D01*
X163226600Y-74189400D02*
X161106600Y-74189400D01*
X163226600Y-72129400D02*
X161106600Y-72129400D01*
X163226600Y-70069400D02*
X162166600Y-70069400D01*
X163226600Y-72129400D02*
X163226600Y-74189400D01*
%TO.C,C11*%
X151805400Y-85884380D02*
X151805400Y-85603220D01*
X150785400Y-85884380D02*
X150785400Y-85603220D01*
%TO.C,C3*%
X149124580Y-70632800D02*
X148843420Y-70632800D01*
X149124580Y-69612800D02*
X148843420Y-69612800D01*
%TO.C,C2*%
X151703800Y-68802580D02*
X151703800Y-68521420D01*
X150683800Y-68802580D02*
X150683800Y-68521420D01*
%TD*%
M02*
