%FSLAX45Y45*%
G04 Gerber Fmt 4.5, Leading zero omitted, Abs format (unit mm)*
G04 Created by KiCad (PCBNEW (6.0.4)) date 2022-09-20 14:12:45*
%MOMM*%
%LPD*%
G01*
G04 APERTURE LIST*
%TA.AperFunction,Profile*%
%ADD10C,0.050000*%
%TD*%
%ADD11C,0.200000*%
%ADD12C,0.020000*%
%ADD13C,0.035000*%
%ADD14C,0.040000*%
%ADD15C,0.060000*%
%ADD16C,0.075000*%
%ADD17C,0.065000*%
%ADD18C,0.220000*%
G04 APERTURE END LIST*
D10*
X12300000Y-6000000D02*
X21100000Y-6000000D01*
X21100000Y-6000000D02*
X21100000Y-13100000D01*
X21100000Y-13100000D02*
X12300000Y-13100000D01*
X12300000Y-13100000D02*
X12300000Y-6000000D01*
D11*
D12*
X14858710Y-7116580D02*
X14878710Y-7136580D01*
X14878710Y-7116580D02*
X14858710Y-7136580D01*
X14858710Y-10716580D02*
X14878710Y-10736580D01*
X14878710Y-10716580D02*
X14858710Y-10736580D01*
X15110000Y-7110000D02*
X15130000Y-7130000D01*
X15130000Y-7110000D02*
X15110000Y-7130000D01*
X15110000Y-10710000D02*
X15130000Y-10730000D01*
X15130000Y-10710000D02*
X15110000Y-10730000D01*
X15453582Y-7431598D02*
X15473582Y-7451598D01*
X15473582Y-7431598D02*
X15453582Y-7451598D01*
X15453582Y-11031598D02*
X15473582Y-11051598D01*
X15473582Y-11031598D02*
X15453582Y-11051598D01*
X15464980Y-7746500D02*
X15484980Y-7766500D01*
X15484980Y-7746500D02*
X15464980Y-7766500D01*
X15464980Y-11346500D02*
X15484980Y-11366500D01*
X15484980Y-11346500D02*
X15464980Y-11366500D01*
X15529273Y-7338899D02*
X15549273Y-7358899D01*
X15549273Y-7338899D02*
X15529273Y-7358899D01*
X15529273Y-10938899D02*
X15549273Y-10958899D01*
X15549273Y-10938899D02*
X15529273Y-10958899D01*
X15621057Y-7706325D02*
X15641057Y-7726325D01*
X15641057Y-7706325D02*
X15621057Y-7726325D01*
X15621057Y-11306325D02*
X15641057Y-11326325D01*
X15641057Y-11306325D02*
X15621057Y-11326325D01*
X15650000Y-7831410D02*
X15670000Y-7851410D01*
X15670000Y-7831410D02*
X15650000Y-7851410D01*
X15650000Y-11431410D02*
X15670000Y-11451410D01*
X15670000Y-11431410D02*
X15650000Y-11451410D01*
X15889160Y-7990340D02*
X15909160Y-8010340D01*
X15909160Y-7990340D02*
X15889160Y-8010340D01*
X15889160Y-11590340D02*
X15909160Y-11610340D01*
X15909160Y-11590340D02*
X15889160Y-11610340D01*
X16117760Y-8185920D02*
X16137760Y-8205920D01*
X16137760Y-8185920D02*
X16117760Y-8205920D01*
X16117760Y-11785920D02*
X16137760Y-11805920D01*
X16137760Y-11785920D02*
X16117760Y-11805920D01*
X16200619Y-7908701D02*
X16220619Y-7928701D01*
X16220619Y-7908701D02*
X16200619Y-7928701D01*
X16200619Y-11508701D02*
X16220619Y-11528701D01*
X16220619Y-11508701D02*
X16200619Y-11528701D01*
X19258710Y-7116580D02*
X19278710Y-7136580D01*
X19278710Y-7116580D02*
X19258710Y-7136580D01*
X19258710Y-10716580D02*
X19278710Y-10736580D01*
X19278710Y-10716580D02*
X19258710Y-10736580D01*
X19510000Y-7110000D02*
X19530000Y-7130000D01*
X19530000Y-7110000D02*
X19510000Y-7130000D01*
X19510000Y-10710000D02*
X19530000Y-10730000D01*
X19530000Y-10710000D02*
X19510000Y-10730000D01*
X19853582Y-7431598D02*
X19873582Y-7451598D01*
X19873582Y-7431598D02*
X19853582Y-7451598D01*
X19853582Y-11031598D02*
X19873582Y-11051598D01*
X19873582Y-11031598D02*
X19853582Y-11051598D01*
X19864980Y-7746500D02*
X19884980Y-7766500D01*
X19884980Y-7746500D02*
X19864980Y-7766500D01*
X19864980Y-11346500D02*
X19884980Y-11366500D01*
X19884980Y-11346500D02*
X19864980Y-11366500D01*
X19929273Y-7338899D02*
X19949273Y-7358899D01*
X19949273Y-7338899D02*
X19929273Y-7358899D01*
X19929273Y-10938899D02*
X19949273Y-10958899D01*
X19949273Y-10938899D02*
X19929273Y-10958899D01*
X20021057Y-7706325D02*
X20041057Y-7726325D01*
X20041057Y-7706325D02*
X20021057Y-7726325D01*
X20021057Y-11306325D02*
X20041057Y-11326325D01*
X20041057Y-11306325D02*
X20021057Y-11326325D01*
X20050000Y-7831410D02*
X20070000Y-7851410D01*
X20070000Y-7831410D02*
X20050000Y-7851410D01*
X20050000Y-11431410D02*
X20070000Y-11451410D01*
X20070000Y-11431410D02*
X20050000Y-11451410D01*
X20289160Y-7990340D02*
X20309160Y-8010340D01*
X20309160Y-7990340D02*
X20289160Y-8010340D01*
X20289160Y-11590340D02*
X20309160Y-11610340D01*
X20309160Y-11590340D02*
X20289160Y-11610340D01*
X20517760Y-8185920D02*
X20537760Y-8205920D01*
X20537760Y-8185920D02*
X20517760Y-8205920D01*
X20517760Y-11785920D02*
X20537760Y-11805920D01*
X20537760Y-11785920D02*
X20517760Y-11805920D01*
X20600619Y-7908701D02*
X20620619Y-7928701D01*
X20620619Y-7908701D02*
X20600619Y-7928701D01*
X20600619Y-11508701D02*
X20620619Y-11528701D01*
X20620619Y-11508701D02*
X20600619Y-11528701D01*
D13*
X14928760Y-7440190D02*
G75*
G03*
X14928760Y-7440190I-17500J0D01*
G01*
X14928760Y-7567690D02*
G75*
G03*
X14928760Y-7567690I-17500J0D01*
G01*
X14928760Y-7695190D02*
G75*
G03*
X14928760Y-7695190I-17500J0D01*
G01*
X14928760Y-11040190D02*
G75*
G03*
X14928760Y-11040190I-17500J0D01*
G01*
X14928760Y-11167690D02*
G75*
G03*
X14928760Y-11167690I-17500J0D01*
G01*
X14928760Y-11295190D02*
G75*
G03*
X14928760Y-11295190I-17500J0D01*
G01*
X15056260Y-7440190D02*
G75*
G03*
X15056260Y-7440190I-17500J0D01*
G01*
X15056260Y-7567690D02*
G75*
G03*
X15056260Y-7567690I-17500J0D01*
G01*
X15056260Y-7695190D02*
G75*
G03*
X15056260Y-7695190I-17500J0D01*
G01*
X15056260Y-11040190D02*
G75*
G03*
X15056260Y-11040190I-17500J0D01*
G01*
X15056260Y-11167690D02*
G75*
G03*
X15056260Y-11167690I-17500J0D01*
G01*
X15056260Y-11295190D02*
G75*
G03*
X15056260Y-11295190I-17500J0D01*
G01*
X15183760Y-7440190D02*
G75*
G03*
X15183760Y-7440190I-17500J0D01*
G01*
X15183760Y-7567690D02*
G75*
G03*
X15183760Y-7567690I-17500J0D01*
G01*
X15183760Y-7695190D02*
G75*
G03*
X15183760Y-7695190I-17500J0D01*
G01*
X15183760Y-11040190D02*
G75*
G03*
X15183760Y-11040190I-17500J0D01*
G01*
X15183760Y-11167690D02*
G75*
G03*
X15183760Y-11167690I-17500J0D01*
G01*
X15183760Y-11295190D02*
G75*
G03*
X15183760Y-11295190I-17500J0D01*
G01*
X19328760Y-7440190D02*
G75*
G03*
X19328760Y-7440190I-17500J0D01*
G01*
X19328760Y-7567690D02*
G75*
G03*
X19328760Y-7567690I-17500J0D01*
G01*
X19328760Y-7695190D02*
G75*
G03*
X19328760Y-7695190I-17500J0D01*
G01*
X19328760Y-11040190D02*
G75*
G03*
X19328760Y-11040190I-17500J0D01*
G01*
X19328760Y-11167690D02*
G75*
G03*
X19328760Y-11167690I-17500J0D01*
G01*
X19328760Y-11295190D02*
G75*
G03*
X19328760Y-11295190I-17500J0D01*
G01*
X19456260Y-7440190D02*
G75*
G03*
X19456260Y-7440190I-17500J0D01*
G01*
X19456260Y-7567690D02*
G75*
G03*
X19456260Y-7567690I-17500J0D01*
G01*
X19456260Y-7695190D02*
G75*
G03*
X19456260Y-7695190I-17500J0D01*
G01*
X19456260Y-11040190D02*
G75*
G03*
X19456260Y-11040190I-17500J0D01*
G01*
X19456260Y-11167690D02*
G75*
G03*
X19456260Y-11167690I-17500J0D01*
G01*
X19456260Y-11295190D02*
G75*
G03*
X19456260Y-11295190I-17500J0D01*
G01*
X19583760Y-7440190D02*
G75*
G03*
X19583760Y-7440190I-17500J0D01*
G01*
X19583760Y-7567690D02*
G75*
G03*
X19583760Y-7567690I-17500J0D01*
G01*
X19583760Y-7695190D02*
G75*
G03*
X19583760Y-7695190I-17500J0D01*
G01*
X19583760Y-11040190D02*
G75*
G03*
X19583760Y-11040190I-17500J0D01*
G01*
X19583760Y-11167690D02*
G75*
G03*
X19583760Y-11167690I-17500J0D01*
G01*
X19583760Y-11295190D02*
G75*
G03*
X19583760Y-11295190I-17500J0D01*
G01*
D14*
X12640000Y-7820000D02*
X12640000Y-7860000D01*
X12620000Y-7840000D02*
X12660000Y-7840000D01*
X12640000Y-11420000D02*
X12640000Y-11460000D01*
X12620000Y-11440000D02*
X12660000Y-11440000D01*
X12660000Y-7000000D02*
X12660000Y-7040000D01*
X12640000Y-7020000D02*
X12680000Y-7020000D01*
X12660000Y-7120000D02*
X12660000Y-7160000D01*
X12640000Y-7140000D02*
X12680000Y-7140000D01*
X12660000Y-10600000D02*
X12660000Y-10640000D01*
X12640000Y-10620000D02*
X12680000Y-10620000D01*
X12660000Y-10720000D02*
X12660000Y-10760000D01*
X12640000Y-10740000D02*
X12680000Y-10740000D01*
X12700000Y-6080000D02*
X12700000Y-6120000D01*
X12680000Y-6100000D02*
X12720000Y-6100000D01*
X12700000Y-6680000D02*
X12700000Y-6720000D01*
X12680000Y-6700000D02*
X12720000Y-6700000D01*
X12700000Y-7380000D02*
X12700000Y-7420000D01*
X12680000Y-7400000D02*
X12720000Y-7400000D01*
X12700000Y-8130000D02*
X12700000Y-8170000D01*
X12680000Y-8150000D02*
X12720000Y-8150000D01*
X12700000Y-8280000D02*
X12700000Y-8320000D01*
X12680000Y-8300000D02*
X12720000Y-8300000D01*
X12700000Y-8480000D02*
X12700000Y-8520000D01*
X12680000Y-8500000D02*
X12720000Y-8500000D01*
X12700000Y-8880000D02*
X12700000Y-8920000D01*
X12680000Y-8900000D02*
X12720000Y-8900000D01*
X12700000Y-9380000D02*
X12700000Y-9420000D01*
X12680000Y-9400000D02*
X12720000Y-9400000D01*
X12700000Y-9680000D02*
X12700000Y-9720000D01*
X12680000Y-9700000D02*
X12720000Y-9700000D01*
X12700000Y-10280000D02*
X12700000Y-10320000D01*
X12680000Y-10300000D02*
X12720000Y-10300000D01*
X12700000Y-10980000D02*
X12700000Y-11020000D01*
X12680000Y-11000000D02*
X12720000Y-11000000D01*
X12700000Y-11730000D02*
X12700000Y-11770000D01*
X12680000Y-11750000D02*
X12720000Y-11750000D01*
X12700000Y-11880000D02*
X12700000Y-11920000D01*
X12680000Y-11900000D02*
X12720000Y-11900000D01*
X12700000Y-12080000D02*
X12700000Y-12120000D01*
X12680000Y-12100000D02*
X12720000Y-12100000D01*
X12700000Y-12480000D02*
X12700000Y-12520000D01*
X12680000Y-12500000D02*
X12720000Y-12500000D01*
X12700000Y-12980000D02*
X12700000Y-13020000D01*
X12680000Y-13000000D02*
X12720000Y-13000000D01*
X12750000Y-6180000D02*
X12750000Y-6220000D01*
X12730000Y-6200000D02*
X12770000Y-6200000D01*
X12750000Y-6530000D02*
X12750000Y-6570000D01*
X12730000Y-6550000D02*
X12770000Y-6550000D01*
X12750000Y-6830000D02*
X12750000Y-6870000D01*
X12730000Y-6850000D02*
X12770000Y-6850000D01*
X12750000Y-9780000D02*
X12750000Y-9820000D01*
X12730000Y-9800000D02*
X12770000Y-9800000D01*
X12750000Y-10130000D02*
X12750000Y-10170000D01*
X12730000Y-10150000D02*
X12770000Y-10150000D01*
X12750000Y-10430000D02*
X12750000Y-10470000D01*
X12730000Y-10450000D02*
X12770000Y-10450000D01*
X12760000Y-6920000D02*
X12760000Y-6960000D01*
X12740000Y-6940000D02*
X12780000Y-6940000D01*
X12760000Y-10520000D02*
X12760000Y-10560000D01*
X12740000Y-10540000D02*
X12780000Y-10540000D01*
X12780000Y-6380000D02*
X12780000Y-6420000D01*
X12760000Y-6400000D02*
X12800000Y-6400000D01*
X12780000Y-9980000D02*
X12780000Y-10020000D01*
X12760000Y-10000000D02*
X12800000Y-10000000D01*
X12797820Y-8389280D02*
X12797820Y-8429280D01*
X12777820Y-8409280D02*
X12817820Y-8409280D01*
X12797820Y-11989280D02*
X12797820Y-12029280D01*
X12777820Y-12009280D02*
X12817820Y-12009280D01*
X12800000Y-7140000D02*
X12800000Y-7180000D01*
X12780000Y-7160000D02*
X12820000Y-7160000D01*
X12800000Y-9030000D02*
X12800000Y-9070000D01*
X12780000Y-9050000D02*
X12820000Y-9050000D01*
X12800000Y-9230000D02*
X12800000Y-9270000D01*
X12780000Y-9250000D02*
X12820000Y-9250000D01*
X12800000Y-10740000D02*
X12800000Y-10780000D01*
X12780000Y-10760000D02*
X12820000Y-10760000D01*
X12800000Y-12630000D02*
X12800000Y-12670000D01*
X12780000Y-12650000D02*
X12820000Y-12650000D01*
X12800000Y-12830000D02*
X12800000Y-12870000D01*
X12780000Y-12850000D02*
X12820000Y-12850000D01*
X12841000Y-6560480D02*
X12841000Y-6600480D01*
X12821000Y-6580480D02*
X12861000Y-6580480D01*
X12841000Y-10160480D02*
X12841000Y-10200480D01*
X12821000Y-10180480D02*
X12861000Y-10180480D01*
X12848620Y-8435000D02*
X12848620Y-8475000D01*
X12828620Y-8455000D02*
X12868620Y-8455000D01*
X12848620Y-12035000D02*
X12848620Y-12075000D01*
X12828620Y-12055000D02*
X12868620Y-12055000D01*
X12879100Y-6052480D02*
X12879100Y-6092480D01*
X12859100Y-6072480D02*
X12899100Y-6072480D01*
X12879100Y-6184560D02*
X12879100Y-6224560D01*
X12859100Y-6204560D02*
X12899100Y-6204560D01*
X12879100Y-9652480D02*
X12879100Y-9692480D01*
X12859100Y-9672480D02*
X12899100Y-9672480D01*
X12879100Y-9784560D02*
X12879100Y-9824560D01*
X12859100Y-9804560D02*
X12899100Y-9804560D01*
X12880000Y-8780000D02*
X12880000Y-8820000D01*
X12860000Y-8800000D02*
X12900000Y-8800000D01*
X12880000Y-12380000D02*
X12880000Y-12420000D01*
X12860000Y-12400000D02*
X12900000Y-12400000D01*
X12901960Y-8391820D02*
X12901960Y-8431820D01*
X12881960Y-8411820D02*
X12921960Y-8411820D01*
X12901960Y-11991820D02*
X12901960Y-12031820D01*
X12881960Y-12011820D02*
X12921960Y-12011820D01*
X12932149Y-9380000D02*
X12932149Y-9420000D01*
X12912149Y-9400000D02*
X12952149Y-9400000D01*
X12932149Y-12980000D02*
X12932149Y-13020000D01*
X12912149Y-13000000D02*
X12952149Y-13000000D01*
X12938025Y-6271010D02*
X12938025Y-6311010D01*
X12918025Y-6291010D02*
X12958025Y-6291010D01*
X12938025Y-9871010D02*
X12938025Y-9911010D01*
X12918025Y-9891010D02*
X12958025Y-9891010D01*
X12940000Y-7140000D02*
X12940000Y-7180000D01*
X12920000Y-7160000D02*
X12960000Y-7160000D01*
X12940000Y-10740000D02*
X12940000Y-10780000D01*
X12920000Y-10760000D02*
X12960000Y-10760000D01*
X12949648Y-7429071D02*
X12949648Y-7469071D01*
X12929648Y-7449071D02*
X12969648Y-7449071D01*
X12949648Y-11029071D02*
X12949648Y-11069071D01*
X12929648Y-11049071D02*
X12969648Y-11049071D01*
X12950000Y-7630000D02*
X12950000Y-7670000D01*
X12930000Y-7650000D02*
X12970000Y-7650000D01*
X12950000Y-7730000D02*
X12950000Y-7770000D01*
X12930000Y-7750000D02*
X12970000Y-7750000D01*
X12950000Y-7930000D02*
X12950000Y-7970000D01*
X12930000Y-7950000D02*
X12970000Y-7950000D01*
X12950000Y-8130000D02*
X12950000Y-8170000D01*
X12930000Y-8150000D02*
X12970000Y-8150000D01*
X12950000Y-11230000D02*
X12950000Y-11270000D01*
X12930000Y-11250000D02*
X12970000Y-11250000D01*
X12950000Y-11330000D02*
X12950000Y-11370000D01*
X12930000Y-11350000D02*
X12970000Y-11350000D01*
X12950000Y-11530000D02*
X12950000Y-11570000D01*
X12930000Y-11550000D02*
X12970000Y-11550000D01*
X12950000Y-11730000D02*
X12950000Y-11770000D01*
X12930000Y-11750000D02*
X12970000Y-11750000D01*
X12959210Y-6060100D02*
X12959210Y-6100100D01*
X12939210Y-6080100D02*
X12979210Y-6080100D01*
X12959210Y-9660100D02*
X12959210Y-9700100D01*
X12939210Y-9680100D02*
X12979210Y-9680100D01*
X12980000Y-6960000D02*
X12980000Y-7000000D01*
X12960000Y-6980000D02*
X13000000Y-6980000D01*
X12980000Y-7300000D02*
X12980000Y-7340000D01*
X12960000Y-7320000D02*
X13000000Y-7320000D01*
X12980000Y-10560000D02*
X12980000Y-10600000D01*
X12960000Y-10580000D02*
X13000000Y-10580000D01*
X12980000Y-10900000D02*
X12980000Y-10940000D01*
X12960000Y-10920000D02*
X13000000Y-10920000D01*
X13000000Y-9230000D02*
X13000000Y-9270000D01*
X12980000Y-9250000D02*
X13020000Y-9250000D01*
X13000000Y-12830000D02*
X13000000Y-12870000D01*
X12980000Y-12850000D02*
X13020000Y-12850000D01*
X13012325Y-8967445D02*
X13012325Y-9007445D01*
X12992325Y-8987445D02*
X13032325Y-8987445D01*
X13012325Y-12567445D02*
X13012325Y-12607445D01*
X12992325Y-12587445D02*
X13032325Y-12587445D01*
X13041660Y-6758600D02*
X13041660Y-6798600D01*
X13021660Y-6778600D02*
X13061660Y-6778600D01*
X13041660Y-10358600D02*
X13041660Y-10398600D01*
X13021660Y-10378600D02*
X13061660Y-10378600D01*
X13123159Y-6048388D02*
X13123159Y-6088388D01*
X13103159Y-6068388D02*
X13143159Y-6068388D01*
X13123159Y-9648388D02*
X13123159Y-9688388D01*
X13103159Y-9668388D02*
X13143159Y-9668388D01*
X13124110Y-6115980D02*
X13124110Y-6155980D01*
X13104110Y-6135980D02*
X13144110Y-6135980D01*
X13124110Y-9715980D02*
X13124110Y-9755980D01*
X13104110Y-9735980D02*
X13144110Y-9735980D01*
X13128020Y-6192180D02*
X13128020Y-6232180D01*
X13108020Y-6212180D02*
X13148020Y-6212180D01*
X13128020Y-9792180D02*
X13128020Y-9832180D01*
X13108020Y-9812180D02*
X13148020Y-9812180D01*
X13140000Y-8680000D02*
X13140000Y-8720000D01*
X13120000Y-8700000D02*
X13160000Y-8700000D01*
X13140000Y-12280000D02*
X13140000Y-12320000D01*
X13120000Y-12300000D02*
X13160000Y-12300000D01*
X13150000Y-9377808D02*
X13150000Y-9417808D01*
X13130000Y-9397808D02*
X13170000Y-9397808D01*
X13150000Y-12977808D02*
X13150000Y-13017808D01*
X13130000Y-12997808D02*
X13170000Y-12997808D01*
X13173740Y-6758600D02*
X13173740Y-6798600D01*
X13153740Y-6778600D02*
X13193740Y-6778600D01*
X13173740Y-10358600D02*
X13173740Y-10398600D01*
X13153740Y-10378600D02*
X13193740Y-10378600D01*
X13225000Y-8130000D02*
X13225000Y-8170000D01*
X13205000Y-8150000D02*
X13245000Y-8150000D01*
X13225000Y-9280000D02*
X13225000Y-9320000D01*
X13205000Y-9300000D02*
X13245000Y-9300000D01*
X13225000Y-11730000D02*
X13225000Y-11770000D01*
X13205000Y-11750000D02*
X13245000Y-11750000D01*
X13225000Y-12880000D02*
X13225000Y-12920000D01*
X13205000Y-12900000D02*
X13245000Y-12900000D01*
X13250000Y-7380000D02*
X13250000Y-7420000D01*
X13230000Y-7400000D02*
X13270000Y-7400000D01*
X13250000Y-9180000D02*
X13250000Y-9220000D01*
X13230000Y-9200000D02*
X13270000Y-9200000D01*
X13250000Y-10980000D02*
X13250000Y-11020000D01*
X13230000Y-11000000D02*
X13270000Y-11000000D01*
X13250000Y-12780000D02*
X13250000Y-12820000D01*
X13230000Y-12800000D02*
X13270000Y-12800000D01*
X13272167Y-6941554D02*
X13272167Y-6981554D01*
X13252167Y-6961554D02*
X13292167Y-6961554D01*
X13272167Y-10541554D02*
X13272167Y-10581554D01*
X13252167Y-10561554D02*
X13292167Y-10561554D01*
X13275000Y-7505000D02*
X13275000Y-7545000D01*
X13255000Y-7525000D02*
X13295000Y-7525000D01*
X13275000Y-11105000D02*
X13275000Y-11145000D01*
X13255000Y-11125000D02*
X13295000Y-11125000D01*
X13300000Y-6418240D02*
X13300000Y-6458240D01*
X13280000Y-6438240D02*
X13320000Y-6438240D01*
X13300000Y-10018240D02*
X13300000Y-10058240D01*
X13280000Y-10038240D02*
X13320000Y-10038240D01*
X13320000Y-7240000D02*
X13320000Y-7280000D01*
X13300000Y-7260000D02*
X13340000Y-7260000D01*
X13320000Y-10840000D02*
X13320000Y-10880000D01*
X13300000Y-10860000D02*
X13340000Y-10860000D01*
X13338840Y-6215040D02*
X13338840Y-6255040D01*
X13318840Y-6235040D02*
X13358840Y-6235040D01*
X13338840Y-9815040D02*
X13338840Y-9855040D01*
X13318840Y-9835040D02*
X13358840Y-9835040D01*
X13346527Y-9374498D02*
X13346527Y-9414498D01*
X13326527Y-9394498D02*
X13366527Y-9394498D01*
X13346527Y-12974498D02*
X13346527Y-13014498D01*
X13326527Y-12994498D02*
X13366527Y-12994498D01*
X13356620Y-6146460D02*
X13356620Y-6186460D01*
X13336620Y-6166460D02*
X13376620Y-6166460D01*
X13356620Y-9746460D02*
X13356620Y-9786460D01*
X13336620Y-9766460D02*
X13376620Y-9766460D01*
X13359160Y-6080420D02*
X13359160Y-6120420D01*
X13339160Y-6100420D02*
X13379160Y-6100420D01*
X13359160Y-9680420D02*
X13359160Y-9720420D01*
X13339160Y-9700420D02*
X13379160Y-9700420D01*
X13360000Y-7020000D02*
X13360000Y-7060000D01*
X13340000Y-7040000D02*
X13380000Y-7040000D01*
X13360000Y-10620000D02*
X13360000Y-10660000D01*
X13340000Y-10640000D02*
X13380000Y-10640000D01*
X13375000Y-7380000D02*
X13375000Y-7420000D01*
X13355000Y-7400000D02*
X13395000Y-7400000D01*
X13375000Y-10980000D02*
X13375000Y-11020000D01*
X13355000Y-11000000D02*
X13395000Y-11000000D01*
X13380000Y-8680000D02*
X13380000Y-8720000D01*
X13360000Y-8700000D02*
X13400000Y-8700000D01*
X13380000Y-12280000D02*
X13380000Y-12320000D01*
X13360000Y-12300000D02*
X13400000Y-12300000D01*
X13400000Y-6580000D02*
X13400000Y-6620000D01*
X13380000Y-6600000D02*
X13420000Y-6600000D01*
X13400000Y-6730000D02*
X13400000Y-6770000D01*
X13380000Y-6750000D02*
X13420000Y-6750000D01*
X13400000Y-10180000D02*
X13400000Y-10220000D01*
X13380000Y-10200000D02*
X13420000Y-10200000D01*
X13400000Y-10330000D02*
X13400000Y-10370000D01*
X13380000Y-10350000D02*
X13420000Y-10350000D01*
X13409960Y-6418240D02*
X13409960Y-6458240D01*
X13389960Y-6438240D02*
X13429960Y-6438240D01*
X13409960Y-10018240D02*
X13409960Y-10058240D01*
X13389960Y-10038240D02*
X13429960Y-10038240D01*
X13420000Y-7980000D02*
X13420000Y-8020000D01*
X13400000Y-8000000D02*
X13440000Y-8000000D01*
X13420000Y-11580000D02*
X13420000Y-11620000D01*
X13400000Y-11600000D02*
X13440000Y-11600000D01*
X13437900Y-7116740D02*
X13437900Y-7156740D01*
X13417900Y-7136740D02*
X13457900Y-7136740D01*
X13437900Y-10716740D02*
X13437900Y-10756740D01*
X13417900Y-10736740D02*
X13457900Y-10736740D01*
X13440000Y-8140000D02*
X13440000Y-8180000D01*
X13420000Y-8160000D02*
X13460000Y-8160000D01*
X13440000Y-11740000D02*
X13440000Y-11780000D01*
X13420000Y-11760000D02*
X13460000Y-11760000D01*
X13520000Y-6420000D02*
X13520000Y-6460000D01*
X13500000Y-6440000D02*
X13540000Y-6440000D01*
X13520000Y-10020000D02*
X13520000Y-10060000D01*
X13500000Y-10040000D02*
X13540000Y-10040000D01*
X13525000Y-8055000D02*
X13525000Y-8095000D01*
X13505000Y-8075000D02*
X13545000Y-8075000D01*
X13525000Y-8205000D02*
X13525000Y-8245000D01*
X13505000Y-8225000D02*
X13545000Y-8225000D01*
X13525000Y-11655000D02*
X13525000Y-11695000D01*
X13505000Y-11675000D02*
X13545000Y-11675000D01*
X13525000Y-11805000D02*
X13525000Y-11845000D01*
X13505000Y-11825000D02*
X13545000Y-11825000D01*
X13544580Y-6717960D02*
X13544580Y-6757960D01*
X13524580Y-6737960D02*
X13564580Y-6737960D01*
X13544580Y-10317960D02*
X13544580Y-10357960D01*
X13524580Y-10337960D02*
X13564580Y-10337960D01*
X13550000Y-7530000D02*
X13550000Y-7570000D01*
X13530000Y-7550000D02*
X13570000Y-7550000D01*
X13550000Y-11130000D02*
X13550000Y-11170000D01*
X13530000Y-11150000D02*
X13570000Y-11150000D01*
X13582680Y-7266600D02*
X13582680Y-7306600D01*
X13562680Y-7286600D02*
X13602680Y-7286600D01*
X13582680Y-10866600D02*
X13582680Y-10906600D01*
X13562680Y-10886600D02*
X13602680Y-10886600D01*
X13587760Y-8508660D02*
X13587760Y-8548660D01*
X13567760Y-8528660D02*
X13607760Y-8528660D01*
X13587760Y-12108660D02*
X13587760Y-12148660D01*
X13567760Y-12128660D02*
X13607760Y-12128660D01*
X13597920Y-8600100D02*
X13597920Y-8640100D01*
X13577920Y-8620100D02*
X13617920Y-8620100D01*
X13597920Y-12200100D02*
X13597920Y-12240100D01*
X13577920Y-12220100D02*
X13617920Y-12220100D01*
X13650000Y-7430000D02*
X13650000Y-7470000D01*
X13630000Y-7450000D02*
X13670000Y-7450000D01*
X13650000Y-9030000D02*
X13650000Y-9070000D01*
X13630000Y-9050000D02*
X13670000Y-9050000D01*
X13650000Y-11030000D02*
X13650000Y-11070000D01*
X13630000Y-11050000D02*
X13670000Y-11050000D01*
X13650000Y-12630000D02*
X13650000Y-12670000D01*
X13630000Y-12650000D02*
X13670000Y-12650000D01*
X13650424Y-8437726D02*
X13650424Y-8477726D01*
X13630424Y-8457726D02*
X13670424Y-8457726D01*
X13650424Y-12037726D02*
X13650424Y-12077726D01*
X13630424Y-12057726D02*
X13670424Y-12057726D01*
X13700000Y-9230000D02*
X13700000Y-9270000D01*
X13680000Y-9250000D02*
X13720000Y-9250000D01*
X13700000Y-12830000D02*
X13700000Y-12870000D01*
X13680000Y-12850000D02*
X13720000Y-12850000D01*
X13712220Y-7548540D02*
X13712220Y-7588540D01*
X13692220Y-7568540D02*
X13732220Y-7568540D01*
X13712220Y-11148540D02*
X13712220Y-11188540D01*
X13692220Y-11168540D02*
X13732220Y-11168540D01*
X13749025Y-6379504D02*
X13749025Y-6419504D01*
X13729025Y-6399504D02*
X13769025Y-6399504D01*
X13749025Y-9979504D02*
X13749025Y-10019504D01*
X13729025Y-9999504D02*
X13769025Y-9999504D01*
X13750000Y-6080000D02*
X13750000Y-6120000D01*
X13730000Y-6100000D02*
X13770000Y-6100000D01*
X13750000Y-6230000D02*
X13750000Y-6270000D01*
X13730000Y-6250000D02*
X13770000Y-6250000D01*
X13750000Y-6680000D02*
X13750000Y-6720000D01*
X13730000Y-6700000D02*
X13770000Y-6700000D01*
X13750000Y-9680000D02*
X13750000Y-9720000D01*
X13730000Y-9700000D02*
X13770000Y-9700000D01*
X13750000Y-9830000D02*
X13750000Y-9870000D01*
X13730000Y-9850000D02*
X13770000Y-9850000D01*
X13750000Y-10280000D02*
X13750000Y-10320000D01*
X13730000Y-10300000D02*
X13770000Y-10300000D01*
X13752860Y-8097180D02*
X13752860Y-8137180D01*
X13732860Y-8117180D02*
X13772860Y-8117180D01*
X13752860Y-11697180D02*
X13752860Y-11737180D01*
X13732860Y-11717180D02*
X13772860Y-11717180D01*
X13755400Y-8163220D02*
X13755400Y-8203220D01*
X13735400Y-8183220D02*
X13775400Y-8183220D01*
X13755400Y-11763220D02*
X13755400Y-11803220D01*
X13735400Y-11783220D02*
X13775400Y-11783220D01*
X13757940Y-8352232D02*
X13757940Y-8392232D01*
X13737940Y-8372232D02*
X13777940Y-8372232D01*
X13757940Y-11952232D02*
X13757940Y-11992232D01*
X13737940Y-11972232D02*
X13777940Y-11972232D01*
X13760480Y-7733960D02*
X13760480Y-7773960D01*
X13740480Y-7753960D02*
X13780480Y-7753960D01*
X13760480Y-11333960D02*
X13760480Y-11373960D01*
X13740480Y-11353960D02*
X13780480Y-11353960D01*
X13800000Y-6880000D02*
X13800000Y-6920000D01*
X13780000Y-6900000D02*
X13820000Y-6900000D01*
X13800000Y-10480000D02*
X13800000Y-10520000D01*
X13780000Y-10500000D02*
X13820000Y-10500000D01*
X13825000Y-7355000D02*
X13825000Y-7395000D01*
X13805000Y-7375000D02*
X13845000Y-7375000D01*
X13825000Y-10955000D02*
X13825000Y-10995000D01*
X13805000Y-10975000D02*
X13845000Y-10975000D01*
X13840000Y-7020000D02*
X13840000Y-7060000D01*
X13820000Y-7040000D02*
X13860000Y-7040000D01*
X13840000Y-10620000D02*
X13840000Y-10660000D01*
X13820000Y-10640000D02*
X13860000Y-10640000D01*
X13854460Y-9087600D02*
X13854460Y-9127600D01*
X13834460Y-9107600D02*
X13874460Y-9107600D01*
X13854460Y-12687600D02*
X13854460Y-12727600D01*
X13834460Y-12707600D02*
X13874460Y-12707600D01*
X13877320Y-8515330D02*
X13877320Y-8555330D01*
X13857320Y-8535330D02*
X13897320Y-8535330D01*
X13877320Y-12115330D02*
X13877320Y-12155330D01*
X13857320Y-12135330D02*
X13897320Y-12135330D01*
X13884940Y-8739800D02*
X13884940Y-8779800D01*
X13864940Y-8759800D02*
X13904940Y-8759800D01*
X13884940Y-12339800D02*
X13884940Y-12379800D01*
X13864940Y-12359800D02*
X13904940Y-12359800D01*
X13900000Y-6080000D02*
X13900000Y-6120000D01*
X13880000Y-6100000D02*
X13920000Y-6100000D01*
X13900000Y-6530000D02*
X13900000Y-6570000D01*
X13880000Y-6550000D02*
X13920000Y-6550000D01*
X13900000Y-6680000D02*
X13900000Y-6720000D01*
X13880000Y-6700000D02*
X13920000Y-6700000D01*
X13900000Y-9680000D02*
X13900000Y-9720000D01*
X13880000Y-9700000D02*
X13920000Y-9700000D01*
X13900000Y-10130000D02*
X13900000Y-10170000D01*
X13880000Y-10150000D02*
X13920000Y-10150000D01*
X13900000Y-10280000D02*
X13900000Y-10320000D01*
X13880000Y-10300000D02*
X13920000Y-10300000D01*
X13920000Y-8100000D02*
X13920000Y-8140000D01*
X13900000Y-8120000D02*
X13940000Y-8120000D01*
X13920000Y-11700000D02*
X13920000Y-11740000D01*
X13900000Y-11720000D02*
X13940000Y-11720000D01*
X13980000Y-6900000D02*
X13980000Y-6940000D01*
X13960000Y-6920000D02*
X14000000Y-6920000D01*
X13980000Y-10500000D02*
X13980000Y-10540000D01*
X13960000Y-10520000D02*
X14000000Y-10520000D01*
X13989080Y-8516280D02*
X13989080Y-8556280D01*
X13969080Y-8536280D02*
X14009080Y-8536280D01*
X13989080Y-12116280D02*
X13989080Y-12156280D01*
X13969080Y-12136280D02*
X14009080Y-12136280D01*
X14012995Y-7889955D02*
X14012995Y-7929955D01*
X13992995Y-7909955D02*
X14032995Y-7909955D01*
X14012995Y-11489955D02*
X14012995Y-11529955D01*
X13992995Y-11509955D02*
X14032995Y-11509955D01*
X14013399Y-8055742D02*
X14013399Y-8095742D01*
X13993399Y-8075742D02*
X14033399Y-8075742D01*
X14013399Y-11655742D02*
X14013399Y-11695742D01*
X13993399Y-11675742D02*
X14033399Y-11675742D01*
X14022100Y-7442870D02*
X14022100Y-7482870D01*
X14002100Y-7462870D02*
X14042100Y-7462870D01*
X14022100Y-11042870D02*
X14022100Y-11082870D01*
X14002100Y-11062870D02*
X14042100Y-11062870D01*
X14073422Y-7104040D02*
X14073422Y-7144040D01*
X14053422Y-7124040D02*
X14093422Y-7124040D01*
X14073422Y-10704040D02*
X14073422Y-10744040D01*
X14053422Y-10724040D02*
X14093422Y-10724040D01*
X14075440Y-7718720D02*
X14075440Y-7758720D01*
X14055440Y-7738720D02*
X14095440Y-7738720D01*
X14075440Y-11318720D02*
X14075440Y-11358720D01*
X14055440Y-11338720D02*
X14095440Y-11338720D01*
X14076393Y-6973731D02*
X14076393Y-7013731D01*
X14056393Y-6993731D02*
X14096393Y-6993731D01*
X14076393Y-10573731D02*
X14076393Y-10613731D01*
X14056393Y-10593731D02*
X14096393Y-10593731D01*
X14077980Y-7891440D02*
X14077980Y-7931440D01*
X14057980Y-7911440D02*
X14097980Y-7911440D01*
X14077980Y-11491440D02*
X14077980Y-11531440D01*
X14057980Y-11511440D02*
X14097980Y-11511440D01*
X14083060Y-8048920D02*
X14083060Y-8088920D01*
X14063060Y-8068920D02*
X14103060Y-8068920D01*
X14083060Y-11648920D02*
X14083060Y-11688920D01*
X14063060Y-11668920D02*
X14103060Y-11668920D01*
X14092186Y-7181757D02*
X14092186Y-7221757D01*
X14072186Y-7201757D02*
X14112186Y-7201757D01*
X14092186Y-10781757D02*
X14092186Y-10821757D01*
X14072186Y-10801757D02*
X14112186Y-10801757D01*
X14100000Y-9431950D02*
X14100000Y-9471950D01*
X14080000Y-9451950D02*
X14120000Y-9451950D01*
X14100000Y-13031950D02*
X14100000Y-13071950D01*
X14080000Y-13051950D02*
X14120000Y-13051950D01*
X14120000Y-8560000D02*
X14120000Y-8600000D01*
X14100000Y-8580000D02*
X14140000Y-8580000D01*
X14120000Y-12160000D02*
X14120000Y-12200000D01*
X14100000Y-12180000D02*
X14140000Y-12180000D01*
X14130000Y-8400000D02*
X14130000Y-8440000D01*
X14110000Y-8420000D02*
X14150000Y-8420000D01*
X14130000Y-12000000D02*
X14130000Y-12040000D01*
X14110000Y-12020000D02*
X14150000Y-12020000D01*
X14133860Y-7495200D02*
X14133860Y-7535200D01*
X14113860Y-7515200D02*
X14153860Y-7515200D01*
X14133860Y-11095200D02*
X14133860Y-11135200D01*
X14113860Y-11115200D02*
X14153860Y-11115200D01*
X14150000Y-6320000D02*
X14150000Y-6360000D01*
X14130000Y-6340000D02*
X14170000Y-6340000D01*
X14150000Y-9920000D02*
X14150000Y-9960000D01*
X14130000Y-9940000D02*
X14170000Y-9940000D01*
X14164647Y-7030073D02*
X14164647Y-7070073D01*
X14144647Y-7050073D02*
X14184647Y-7050073D01*
X14164647Y-10630073D02*
X14164647Y-10670073D01*
X14144647Y-10650073D02*
X14184647Y-10650073D01*
X14170000Y-6630000D02*
X14170000Y-6670000D01*
X14150000Y-6650000D02*
X14190000Y-6650000D01*
X14170000Y-10230000D02*
X14170000Y-10270000D01*
X14150000Y-10250000D02*
X14190000Y-10250000D01*
X14180000Y-6470000D02*
X14180000Y-6510000D01*
X14160000Y-6490000D02*
X14200000Y-6490000D01*
X14180000Y-10070000D02*
X14180000Y-10110000D01*
X14160000Y-10090000D02*
X14200000Y-10090000D01*
X14200000Y-7905000D02*
X14200000Y-7945000D01*
X14180000Y-7925000D02*
X14220000Y-7925000D01*
X14200000Y-11505000D02*
X14200000Y-11545000D01*
X14180000Y-11525000D02*
X14220000Y-11525000D01*
X14200613Y-6205050D02*
X14200613Y-6245050D01*
X14180613Y-6225050D02*
X14220613Y-6225050D01*
X14200613Y-9805050D02*
X14200613Y-9845050D01*
X14180613Y-9825050D02*
X14220613Y-9825050D01*
X14240000Y-6820000D02*
X14240000Y-6860000D01*
X14220000Y-6840000D02*
X14260000Y-6840000D01*
X14240000Y-10420000D02*
X14240000Y-10460000D01*
X14220000Y-10440000D02*
X14260000Y-10440000D01*
X14280000Y-7740000D02*
X14280000Y-7780000D01*
X14260000Y-7760000D02*
X14300000Y-7760000D01*
X14280000Y-11340000D02*
X14280000Y-11380000D01*
X14260000Y-11360000D02*
X14300000Y-11360000D01*
X14310000Y-6332450D02*
X14310000Y-6372450D01*
X14290000Y-6352450D02*
X14330000Y-6352450D01*
X14310000Y-9932450D02*
X14310000Y-9972450D01*
X14290000Y-9952450D02*
X14330000Y-9952450D01*
X14332470Y-8909980D02*
X14332470Y-8949980D01*
X14312470Y-8929980D02*
X14352470Y-8929980D01*
X14332470Y-12509980D02*
X14332470Y-12549980D01*
X14312470Y-12529980D02*
X14352470Y-12529980D01*
X14337060Y-7896520D02*
X14337060Y-7936520D01*
X14317060Y-7916520D02*
X14357060Y-7916520D01*
X14337060Y-11496520D02*
X14337060Y-11536520D01*
X14317060Y-11516520D02*
X14357060Y-11516520D01*
X14350000Y-9090000D02*
X14350000Y-9130000D01*
X14330000Y-9110000D02*
X14370000Y-9110000D01*
X14350000Y-12690000D02*
X14350000Y-12730000D01*
X14330000Y-12710000D02*
X14370000Y-12710000D01*
X14370000Y-6520000D02*
X14370000Y-6560000D01*
X14350000Y-6540000D02*
X14390000Y-6540000D01*
X14370000Y-9270000D02*
X14370000Y-9310000D01*
X14350000Y-9290000D02*
X14390000Y-9290000D01*
X14370000Y-10120000D02*
X14370000Y-10160000D01*
X14350000Y-10140000D02*
X14390000Y-10140000D01*
X14370000Y-12870000D02*
X14370000Y-12910000D01*
X14350000Y-12890000D02*
X14390000Y-12890000D01*
X14375000Y-6630000D02*
X14375000Y-6670000D01*
X14355000Y-6650000D02*
X14395000Y-6650000D01*
X14375000Y-10230000D02*
X14375000Y-10270000D01*
X14355000Y-10250000D02*
X14395000Y-10250000D01*
X14380000Y-8420000D02*
X14380000Y-8460000D01*
X14360000Y-8440000D02*
X14400000Y-8440000D01*
X14380000Y-12020000D02*
X14380000Y-12060000D01*
X14360000Y-12040000D02*
X14400000Y-12040000D01*
X14381260Y-7460928D02*
X14381260Y-7500928D01*
X14361260Y-7480928D02*
X14401260Y-7480928D01*
X14381260Y-11060928D02*
X14381260Y-11100928D01*
X14361260Y-11080928D02*
X14401260Y-11080928D01*
X14400000Y-8640000D02*
X14400000Y-8680000D01*
X14380000Y-8660000D02*
X14420000Y-8660000D01*
X14400000Y-12240000D02*
X14400000Y-12280000D01*
X14380000Y-12260000D02*
X14420000Y-12260000D01*
X14400560Y-8506120D02*
X14400560Y-8546120D01*
X14380560Y-8526120D02*
X14420560Y-8526120D01*
X14400560Y-12106120D02*
X14400560Y-12146120D01*
X14380560Y-12126120D02*
X14420560Y-12126120D01*
X14417817Y-7310102D02*
X14417817Y-7350102D01*
X14397817Y-7330102D02*
X14437817Y-7330102D01*
X14417817Y-10910102D02*
X14417817Y-10950102D01*
X14397817Y-10930102D02*
X14437817Y-10930102D01*
X14430886Y-7829450D02*
X14430886Y-7869450D01*
X14410886Y-7849450D02*
X14450886Y-7849450D01*
X14430886Y-11429450D02*
X14430886Y-11469450D01*
X14410886Y-11449450D02*
X14450886Y-11449450D01*
X14433580Y-7215800D02*
X14433580Y-7255800D01*
X14413580Y-7235800D02*
X14453580Y-7235800D01*
X14433580Y-10815800D02*
X14433580Y-10855800D01*
X14413580Y-10835800D02*
X14453580Y-10835800D01*
X14458531Y-6109621D02*
X14458531Y-6149621D01*
X14438531Y-6129621D02*
X14478531Y-6129621D01*
X14458531Y-9709621D02*
X14458531Y-9749621D01*
X14438531Y-9729621D02*
X14478531Y-9729621D01*
X14475000Y-6605000D02*
X14475000Y-6645000D01*
X14455000Y-6625000D02*
X14495000Y-6625000D01*
X14475000Y-10205000D02*
X14475000Y-10245000D01*
X14455000Y-10225000D02*
X14495000Y-10225000D01*
X14476251Y-7372270D02*
X14476251Y-7412270D01*
X14456251Y-7392270D02*
X14496251Y-7392270D01*
X14476251Y-10972270D02*
X14476251Y-11012270D01*
X14456251Y-10992270D02*
X14496251Y-10992270D01*
X14480000Y-7040000D02*
X14480000Y-7080000D01*
X14460000Y-7060000D02*
X14500000Y-7060000D01*
X14480000Y-10640000D02*
X14480000Y-10680000D01*
X14460000Y-10660000D02*
X14500000Y-10660000D01*
X14485280Y-8207086D02*
X14485280Y-8247086D01*
X14465280Y-8227086D02*
X14505280Y-8227086D01*
X14485280Y-11807086D02*
X14485280Y-11847086D01*
X14465280Y-11827086D02*
X14505280Y-11827086D01*
X14519505Y-7584762D02*
X14519505Y-7624762D01*
X14499505Y-7604762D02*
X14539505Y-7604762D01*
X14519505Y-11184762D02*
X14519505Y-11224762D01*
X14499505Y-11204762D02*
X14539505Y-11204762D01*
X14520000Y-8020000D02*
X14520000Y-8060000D01*
X14500000Y-8040000D02*
X14540000Y-8040000D01*
X14520000Y-11620000D02*
X14520000Y-11660000D01*
X14500000Y-11640000D02*
X14540000Y-11640000D01*
X14549206Y-9379450D02*
X14549206Y-9419450D01*
X14529206Y-9399450D02*
X14569206Y-9399450D01*
X14549206Y-12979449D02*
X14549206Y-13019449D01*
X14529206Y-12999449D02*
X14569206Y-12999449D01*
X14557184Y-6282764D02*
X14557184Y-6322764D01*
X14537184Y-6302764D02*
X14577184Y-6302764D01*
X14557184Y-9882764D02*
X14557184Y-9922764D01*
X14537184Y-9902764D02*
X14577184Y-9902764D01*
X14560000Y-7160000D02*
X14560000Y-7200000D01*
X14540000Y-7180000D02*
X14580000Y-7180000D01*
X14560000Y-10760000D02*
X14560000Y-10800000D01*
X14540000Y-10780000D02*
X14580000Y-10780000D01*
X14570740Y-7027840D02*
X14570740Y-7067840D01*
X14550740Y-7047840D02*
X14590740Y-7047840D01*
X14570740Y-10627840D02*
X14570740Y-10667840D01*
X14550740Y-10647840D02*
X14590740Y-10647840D01*
X14575000Y-6555000D02*
X14575000Y-6595000D01*
X14555000Y-6575000D02*
X14595000Y-6575000D01*
X14575000Y-10155000D02*
X14575000Y-10195000D01*
X14555000Y-10175000D02*
X14595000Y-10175000D01*
X14580000Y-9040000D02*
X14580000Y-9080000D01*
X14560000Y-9060000D02*
X14600000Y-9060000D01*
X14580000Y-12640000D02*
X14580000Y-12680000D01*
X14560000Y-12660000D02*
X14600000Y-12660000D01*
X14585463Y-7255415D02*
X14585463Y-7295415D01*
X14565463Y-7275415D02*
X14605463Y-7275415D01*
X14585463Y-10855415D02*
X14585463Y-10895415D01*
X14565463Y-10875415D02*
X14605463Y-10875415D01*
X14600000Y-6840000D02*
X14600000Y-6880000D01*
X14580000Y-6860000D02*
X14620000Y-6860000D01*
X14600000Y-8380000D02*
X14600000Y-8420000D01*
X14580000Y-8400000D02*
X14620000Y-8400000D01*
X14600000Y-10440000D02*
X14600000Y-10480000D01*
X14580000Y-10460000D02*
X14620000Y-10460000D01*
X14600000Y-11980000D02*
X14600000Y-12020000D01*
X14580000Y-12000000D02*
X14620000Y-12000000D01*
X14601310Y-7587740D02*
X14601310Y-7627740D01*
X14581310Y-7607740D02*
X14621310Y-7607740D01*
X14601310Y-11187740D02*
X14601310Y-11227740D01*
X14581310Y-11207740D02*
X14621310Y-11207740D01*
X14625000Y-7905000D02*
X14625000Y-7945000D01*
X14605000Y-7925000D02*
X14645000Y-7925000D01*
X14625000Y-11505000D02*
X14625000Y-11545000D01*
X14605000Y-11525000D02*
X14645000Y-11525000D01*
X14644760Y-6643057D02*
X14644760Y-6683057D01*
X14624760Y-6663057D02*
X14664760Y-6663057D01*
X14644760Y-10243057D02*
X14644760Y-10283057D01*
X14624760Y-10263057D02*
X14664760Y-10263057D01*
X14650000Y-6330000D02*
X14650000Y-6370000D01*
X14630000Y-6350000D02*
X14670000Y-6350000D01*
X14650000Y-9930000D02*
X14650000Y-9970000D01*
X14630000Y-9950000D02*
X14670000Y-9950000D01*
X14670000Y-9130000D02*
X14670000Y-9170000D01*
X14650000Y-9150000D02*
X14690000Y-9150000D01*
X14670000Y-12730000D02*
X14670000Y-12770000D01*
X14650000Y-12750000D02*
X14690000Y-12750000D01*
X14684328Y-7094592D02*
X14684328Y-7134592D01*
X14664328Y-7114592D02*
X14704328Y-7114592D01*
X14684328Y-10694592D02*
X14684328Y-10734592D01*
X14664328Y-10714592D02*
X14704328Y-10714592D01*
X14690120Y-8648360D02*
X14690120Y-8688360D01*
X14670120Y-8668360D02*
X14710120Y-8668360D01*
X14690120Y-12248360D02*
X14690120Y-12288360D01*
X14670120Y-12268360D02*
X14710120Y-12268360D01*
X14740000Y-8000000D02*
X14740000Y-8040000D01*
X14720000Y-8020000D02*
X14760000Y-8020000D01*
X14740000Y-11600000D02*
X14740000Y-11640000D01*
X14720000Y-11620000D02*
X14760000Y-11620000D01*
X14750000Y-8380000D02*
X14750000Y-8420000D01*
X14730000Y-8400000D02*
X14770000Y-8400000D01*
X14750000Y-11980000D02*
X14750000Y-12020000D01*
X14730000Y-12000000D02*
X14770000Y-12000000D01*
X14800000Y-6280000D02*
X14800000Y-6320000D01*
X14780000Y-6300000D02*
X14820000Y-6300000D01*
X14800000Y-9880000D02*
X14800000Y-9920000D01*
X14780000Y-9900000D02*
X14820000Y-9900000D01*
X14801104Y-8900000D02*
X14801104Y-8940000D01*
X14781104Y-8920000D02*
X14821104Y-8920000D01*
X14801104Y-12500000D02*
X14801104Y-12540000D01*
X14781104Y-12520000D02*
X14821104Y-12520000D01*
X14880000Y-6660000D02*
X14880000Y-6700000D01*
X14860000Y-6680000D02*
X14900000Y-6680000D01*
X14880000Y-10260000D02*
X14880000Y-10300000D01*
X14860000Y-10280000D02*
X14900000Y-10280000D01*
X14900000Y-6200000D02*
X14900000Y-6240000D01*
X14880000Y-6220000D02*
X14920000Y-6220000D01*
X14900000Y-9800000D02*
X14900000Y-9840000D01*
X14880000Y-9820000D02*
X14920000Y-9820000D01*
X14923800Y-7767640D02*
X14923800Y-7807640D01*
X14903800Y-7787640D02*
X14943800Y-7787640D01*
X14923800Y-11367640D02*
X14923800Y-11407640D01*
X14903800Y-11387640D02*
X14943800Y-11387640D01*
X14930000Y-8910000D02*
X14930000Y-8950000D01*
X14910000Y-8930000D02*
X14950000Y-8930000D01*
X14930000Y-12510000D02*
X14930000Y-12550000D01*
X14910000Y-12530000D02*
X14950000Y-12530000D01*
X14950000Y-6330000D02*
X14950000Y-6370000D01*
X14930000Y-6350000D02*
X14970000Y-6350000D01*
X14950000Y-9130000D02*
X14950000Y-9170000D01*
X14930000Y-9150000D02*
X14970000Y-9150000D01*
X14950000Y-9930000D02*
X14950000Y-9970000D01*
X14930000Y-9950000D02*
X14970000Y-9950000D01*
X14950000Y-12730000D02*
X14950000Y-12770000D01*
X14930000Y-12750000D02*
X14970000Y-12750000D01*
X14954608Y-7107128D02*
X14954608Y-7147128D01*
X14934608Y-7127128D02*
X14974608Y-7127128D01*
X14954608Y-10707128D02*
X14954608Y-10747128D01*
X14934608Y-10727128D02*
X14974608Y-10727128D01*
X14959360Y-6495290D02*
X14959360Y-6535290D01*
X14939360Y-6515290D02*
X14979360Y-6515290D01*
X14959360Y-10095290D02*
X14959360Y-10135290D01*
X14939360Y-10115290D02*
X14979360Y-10115290D01*
X14977140Y-7340260D02*
X14977140Y-7380260D01*
X14957140Y-7360260D02*
X14997140Y-7360260D01*
X14977140Y-10940260D02*
X14977140Y-10980260D01*
X14957140Y-10960260D02*
X14997140Y-10960260D01*
X15000000Y-6230000D02*
X15000000Y-6270000D01*
X14980000Y-6250000D02*
X15020000Y-6250000D01*
X15000000Y-9830000D02*
X15000000Y-9870000D01*
X14980000Y-9850000D02*
X15020000Y-9850000D01*
X15020000Y-6040000D02*
X15020000Y-6080000D01*
X15000000Y-6060000D02*
X15040000Y-6060000D01*
X15020000Y-9640000D02*
X15020000Y-9680000D01*
X15000000Y-9660000D02*
X15040000Y-9660000D01*
X15025200Y-6879680D02*
X15025200Y-6919680D01*
X15005200Y-6899680D02*
X15045200Y-6899680D01*
X15025200Y-10479680D02*
X15025200Y-10519680D01*
X15005200Y-10499680D02*
X15045200Y-10499680D01*
X15028810Y-8018440D02*
X15028810Y-8058440D01*
X15008810Y-8038440D02*
X15048810Y-8038440D01*
X15028810Y-11618440D02*
X15028810Y-11658440D01*
X15008810Y-11638440D02*
X15048810Y-11638440D01*
X15070000Y-8910000D02*
X15070000Y-8950000D01*
X15050000Y-8930000D02*
X15090000Y-8930000D01*
X15070000Y-12510000D02*
X15070000Y-12550000D01*
X15050000Y-12530000D02*
X15090000Y-12530000D01*
X15100000Y-6130000D02*
X15100000Y-6170000D01*
X15080000Y-6150000D02*
X15120000Y-6150000D01*
X15100000Y-6280000D02*
X15100000Y-6320000D01*
X15080000Y-6300000D02*
X15120000Y-6300000D01*
X15100000Y-9730000D02*
X15100000Y-9770000D01*
X15080000Y-9750000D02*
X15120000Y-9750000D01*
X15100000Y-9880000D02*
X15100000Y-9920000D01*
X15080000Y-9900000D02*
X15120000Y-9900000D01*
X15124460Y-6912240D02*
X15124460Y-6952240D01*
X15104460Y-6932240D02*
X15144460Y-6932240D01*
X15124460Y-10512240D02*
X15124460Y-10552240D01*
X15104460Y-10532240D02*
X15144460Y-10532240D01*
X15150000Y-6430000D02*
X15150000Y-6470000D01*
X15130000Y-6450000D02*
X15170000Y-6450000D01*
X15150000Y-10030000D02*
X15150000Y-10070000D01*
X15130000Y-10050000D02*
X15170000Y-10050000D01*
X15188028Y-8404452D02*
X15188028Y-8444452D01*
X15168028Y-8424452D02*
X15208028Y-8424452D01*
X15188028Y-12004452D02*
X15188028Y-12044452D01*
X15168028Y-12024452D02*
X15208028Y-12024452D01*
X15190000Y-9100000D02*
X15190000Y-9140000D01*
X15170000Y-9120000D02*
X15210000Y-9120000D01*
X15190000Y-12700000D02*
X15190000Y-12740000D01*
X15170000Y-12720000D02*
X15210000Y-12720000D01*
X15230000Y-9370000D02*
X15230000Y-9410000D01*
X15210000Y-9390000D02*
X15250000Y-9390000D01*
X15230000Y-12970000D02*
X15230000Y-13010000D01*
X15210000Y-12990000D02*
X15250000Y-12990000D01*
X15240000Y-8970000D02*
X15240000Y-9010000D01*
X15220000Y-8990000D02*
X15260000Y-8990000D01*
X15240000Y-12570000D02*
X15240000Y-12610000D01*
X15220000Y-12590000D02*
X15260000Y-12590000D01*
X15246902Y-7004980D02*
X15246902Y-7044980D01*
X15226902Y-7024980D02*
X15266902Y-7024980D01*
X15246902Y-10604980D02*
X15246902Y-10644980D01*
X15226902Y-10624980D02*
X15266902Y-10624980D01*
X15249338Y-6379296D02*
X15249338Y-6419296D01*
X15229338Y-6399296D02*
X15269338Y-6399296D01*
X15249338Y-9979296D02*
X15249338Y-10019296D01*
X15229338Y-9999296D02*
X15269338Y-9999296D01*
X15250000Y-6080000D02*
X15250000Y-6120000D01*
X15230000Y-6100000D02*
X15270000Y-6100000D01*
X15250000Y-6230000D02*
X15250000Y-6270000D01*
X15230000Y-6250000D02*
X15270000Y-6250000D01*
X15250000Y-6530000D02*
X15250000Y-6570000D01*
X15230000Y-6550000D02*
X15270000Y-6550000D01*
X15250000Y-8480000D02*
X15250000Y-8520000D01*
X15230000Y-8500000D02*
X15270000Y-8500000D01*
X15250000Y-8630000D02*
X15250000Y-8670000D01*
X15230000Y-8650000D02*
X15270000Y-8650000D01*
X15250000Y-9680000D02*
X15250000Y-9720000D01*
X15230000Y-9700000D02*
X15270000Y-9700000D01*
X15250000Y-9830000D02*
X15250000Y-9870000D01*
X15230000Y-9850000D02*
X15270000Y-9850000D01*
X15250000Y-10130000D02*
X15250000Y-10170000D01*
X15230000Y-10150000D02*
X15270000Y-10150000D01*
X15250000Y-12080000D02*
X15250000Y-12120000D01*
X15230000Y-12100000D02*
X15270000Y-12100000D01*
X15250000Y-12230000D02*
X15250000Y-12270000D01*
X15230000Y-12250000D02*
X15270000Y-12250000D01*
X15287020Y-7304700D02*
X15287020Y-7344700D01*
X15267020Y-7324700D02*
X15307020Y-7324700D01*
X15287020Y-10904700D02*
X15287020Y-10944700D01*
X15267020Y-10924700D02*
X15307020Y-10924700D01*
X15400000Y-7930000D02*
X15400000Y-7970000D01*
X15380000Y-7950000D02*
X15420000Y-7950000D01*
X15400000Y-9420000D02*
X15400000Y-9460000D01*
X15380000Y-9440000D02*
X15420000Y-9440000D01*
X15400000Y-11530000D02*
X15400000Y-11570000D01*
X15380000Y-11550000D02*
X15420000Y-11550000D01*
X15400000Y-13020000D02*
X15400000Y-13060000D01*
X15380000Y-13040000D02*
X15420000Y-13040000D01*
X15416755Y-7047757D02*
X15416755Y-7087757D01*
X15396755Y-7067757D02*
X15436755Y-7067757D01*
X15416755Y-10647757D02*
X15416755Y-10687757D01*
X15396755Y-10667757D02*
X15436755Y-10667757D01*
X15460000Y-9260000D02*
X15460000Y-9300000D01*
X15440000Y-9280000D02*
X15480000Y-9280000D01*
X15460000Y-12860000D02*
X15460000Y-12900000D01*
X15440000Y-12880000D02*
X15480000Y-12880000D01*
X15480000Y-6460000D02*
X15480000Y-6500000D01*
X15460000Y-6480000D02*
X15500000Y-6480000D01*
X15480000Y-6560000D02*
X15480000Y-6600000D01*
X15460000Y-6580000D02*
X15500000Y-6580000D01*
X15480000Y-6960000D02*
X15480000Y-7000000D01*
X15460000Y-6980000D02*
X15500000Y-6980000D01*
X15480000Y-10060000D02*
X15480000Y-10100000D01*
X15460000Y-10080000D02*
X15500000Y-10080000D01*
X15480000Y-10160000D02*
X15480000Y-10200000D01*
X15460000Y-10180000D02*
X15500000Y-10180000D01*
X15480000Y-10560000D02*
X15480000Y-10600000D01*
X15460000Y-10580000D02*
X15500000Y-10580000D01*
X15480060Y-7883820D02*
X15480060Y-7923820D01*
X15460060Y-7903820D02*
X15500060Y-7903820D01*
X15480060Y-11483820D02*
X15480060Y-11523820D01*
X15460060Y-11503820D02*
X15500060Y-11503820D01*
X15500000Y-6030000D02*
X15500000Y-6070000D01*
X15480000Y-6050000D02*
X15520000Y-6050000D01*
X15500000Y-6130000D02*
X15500000Y-6170000D01*
X15480000Y-6150000D02*
X15520000Y-6150000D01*
X15500000Y-6280000D02*
X15500000Y-6320000D01*
X15480000Y-6300000D02*
X15520000Y-6300000D01*
X15500000Y-6740000D02*
X15500000Y-6780000D01*
X15480000Y-6760000D02*
X15520000Y-6760000D01*
X15500000Y-6840000D02*
X15500000Y-6880000D01*
X15480000Y-6860000D02*
X15520000Y-6860000D01*
X15500000Y-9060000D02*
X15500000Y-9100000D01*
X15480000Y-9080000D02*
X15520000Y-9080000D01*
X15500000Y-9630000D02*
X15500000Y-9670000D01*
X15480000Y-9650000D02*
X15520000Y-9650000D01*
X15500000Y-9730000D02*
X15500000Y-9770000D01*
X15480000Y-9750000D02*
X15520000Y-9750000D01*
X15500000Y-9880000D02*
X15500000Y-9920000D01*
X15480000Y-9900000D02*
X15520000Y-9900000D01*
X15500000Y-10340000D02*
X15500000Y-10380000D01*
X15480000Y-10360000D02*
X15520000Y-10360000D01*
X15500000Y-10440000D02*
X15500000Y-10480000D01*
X15480000Y-10460000D02*
X15520000Y-10460000D01*
X15500000Y-12660000D02*
X15500000Y-12700000D01*
X15480000Y-12680000D02*
X15520000Y-12680000D01*
X15533400Y-8804540D02*
X15533400Y-8844540D01*
X15513400Y-8824540D02*
X15553400Y-8824540D01*
X15533400Y-12404540D02*
X15533400Y-12444540D01*
X15513400Y-12424540D02*
X15553400Y-12424540D01*
X15573520Y-7438800D02*
X15573520Y-7478800D01*
X15553520Y-7458800D02*
X15593520Y-7458800D01*
X15573520Y-11038800D02*
X15573520Y-11078800D01*
X15553520Y-11058800D02*
X15593520Y-11058800D01*
X15580000Y-8360000D02*
X15580000Y-8400000D01*
X15560000Y-8380000D02*
X15600000Y-8380000D01*
X15580000Y-8560000D02*
X15580000Y-8600000D01*
X15560000Y-8580000D02*
X15600000Y-8580000D01*
X15580000Y-11960000D02*
X15580000Y-12000000D01*
X15560000Y-11980000D02*
X15600000Y-11980000D01*
X15580000Y-12160000D02*
X15580000Y-12200000D01*
X15560000Y-12180000D02*
X15600000Y-12180000D01*
X15591820Y-6212500D02*
X15591820Y-6252500D01*
X15571820Y-6232500D02*
X15611820Y-6232500D01*
X15591820Y-9812500D02*
X15591820Y-9852500D01*
X15571820Y-9832500D02*
X15611820Y-9832500D01*
X15612140Y-6324260D02*
X15612140Y-6364260D01*
X15592140Y-6344260D02*
X15632140Y-6344260D01*
X15612140Y-9924260D02*
X15612140Y-9964260D01*
X15592140Y-9944260D02*
X15632140Y-9944260D01*
X15617220Y-6740820D02*
X15617220Y-6780820D01*
X15597220Y-6760820D02*
X15637220Y-6760820D01*
X15617220Y-10340820D02*
X15617220Y-10380820D01*
X15597220Y-10360820D02*
X15637220Y-10360820D01*
X15650000Y-7223420D02*
X15650000Y-7263420D01*
X15630000Y-7243420D02*
X15670000Y-7243420D01*
X15650000Y-10823420D02*
X15650000Y-10863420D01*
X15630000Y-10843420D02*
X15670000Y-10843420D01*
X15654050Y-6067720D02*
X15654050Y-6107720D01*
X15634050Y-6087720D02*
X15674050Y-6087720D01*
X15654050Y-6141380D02*
X15654050Y-6181380D01*
X15634050Y-6161380D02*
X15674050Y-6161380D01*
X15654050Y-9667720D02*
X15654050Y-9707720D01*
X15634050Y-9687720D02*
X15674050Y-9687720D01*
X15654050Y-9741380D02*
X15654050Y-9781380D01*
X15634050Y-9761380D02*
X15674050Y-9761380D01*
X15680000Y-9220000D02*
X15680000Y-9260000D01*
X15660000Y-9240000D02*
X15700000Y-9240000D01*
X15680000Y-12820000D02*
X15680000Y-12860000D01*
X15660000Y-12840000D02*
X15700000Y-12840000D01*
X15699529Y-8428084D02*
X15699529Y-8468084D01*
X15679529Y-8448084D02*
X15719529Y-8448084D01*
X15699529Y-12028084D02*
X15699529Y-12068084D01*
X15679529Y-12048084D02*
X15719529Y-12048084D01*
X15700000Y-8280000D02*
X15700000Y-8320000D01*
X15680000Y-8300000D02*
X15720000Y-8300000D01*
X15700000Y-8580000D02*
X15700000Y-8620000D01*
X15680000Y-8600000D02*
X15720000Y-8600000D01*
X15700000Y-11880000D02*
X15700000Y-11920000D01*
X15680000Y-11900000D02*
X15720000Y-11900000D01*
X15700000Y-12180000D02*
X15700000Y-12220000D01*
X15680000Y-12200000D02*
X15720000Y-12200000D01*
X15780000Y-9100000D02*
X15780000Y-9140000D01*
X15760000Y-9120000D02*
X15800000Y-9120000D01*
X15780000Y-9380000D02*
X15780000Y-9420000D01*
X15760000Y-9400000D02*
X15800000Y-9400000D01*
X15780000Y-12700000D02*
X15780000Y-12740000D01*
X15760000Y-12720000D02*
X15800000Y-12720000D01*
X15780000Y-12980000D02*
X15780000Y-13020000D01*
X15760000Y-13000000D02*
X15800000Y-13000000D01*
X15818950Y-6080000D02*
X15818950Y-6120000D01*
X15798950Y-6100000D02*
X15838950Y-6100000D01*
X15818950Y-6151540D02*
X15818950Y-6191540D01*
X15798950Y-6171540D02*
X15838950Y-6171540D01*
X15818950Y-9680000D02*
X15818950Y-9720000D01*
X15798950Y-9700000D02*
X15838950Y-9700000D01*
X15818950Y-9751540D02*
X15818950Y-9791540D01*
X15798950Y-9771540D02*
X15838950Y-9771540D01*
X15829020Y-7017797D02*
X15829020Y-7057797D01*
X15809020Y-7037797D02*
X15849020Y-7037797D01*
X15829020Y-10617797D02*
X15829020Y-10657797D01*
X15809020Y-10637797D02*
X15849020Y-10637797D01*
X15850000Y-6210690D02*
X15850000Y-6250690D01*
X15830000Y-6230690D02*
X15870000Y-6230690D01*
X15850000Y-9810690D02*
X15850000Y-9850690D01*
X15830000Y-9830690D02*
X15870000Y-9830690D01*
X15900000Y-8280000D02*
X15900000Y-8320000D01*
X15880000Y-8300000D02*
X15920000Y-8300000D01*
X15900000Y-8430000D02*
X15900000Y-8470000D01*
X15880000Y-8450000D02*
X15920000Y-8450000D01*
X15900000Y-8580000D02*
X15900000Y-8620000D01*
X15880000Y-8600000D02*
X15920000Y-8600000D01*
X15900000Y-9220000D02*
X15900000Y-9260000D01*
X15880000Y-9240000D02*
X15920000Y-9240000D01*
X15900000Y-11880000D02*
X15900000Y-11920000D01*
X15880000Y-11900000D02*
X15920000Y-11900000D01*
X15900000Y-12030000D02*
X15900000Y-12070000D01*
X15880000Y-12050000D02*
X15920000Y-12050000D01*
X15900000Y-12180000D02*
X15900000Y-12220000D01*
X15880000Y-12200000D02*
X15920000Y-12200000D01*
X15900000Y-12820000D02*
X15900000Y-12860000D01*
X15880000Y-12840000D02*
X15920000Y-12840000D01*
X16040000Y-6160000D02*
X16040000Y-6200000D01*
X16020000Y-6180000D02*
X16060000Y-6180000D01*
X16040000Y-9760000D02*
X16040000Y-9800000D01*
X16020000Y-9780000D02*
X16060000Y-9780000D01*
X16050000Y-7130000D02*
X16050000Y-7170000D01*
X16030000Y-7150000D02*
X16070000Y-7150000D01*
X16050000Y-10730000D02*
X16050000Y-10770000D01*
X16030000Y-10750000D02*
X16070000Y-10750000D01*
X16068680Y-7690120D02*
X16068680Y-7730120D01*
X16048680Y-7710120D02*
X16088680Y-7710120D01*
X16068680Y-11290120D02*
X16068680Y-11330120D01*
X16048680Y-11310120D02*
X16088680Y-11310120D01*
X16092200Y-6080420D02*
X16092200Y-6120420D01*
X16072200Y-6100420D02*
X16112200Y-6100420D01*
X16092200Y-9680420D02*
X16092200Y-9720420D01*
X16072200Y-9700420D02*
X16112200Y-9700420D01*
X16112735Y-6158184D02*
X16112735Y-6198184D01*
X16092735Y-6178184D02*
X16132735Y-6178184D01*
X16112735Y-9758184D02*
X16112735Y-9798184D01*
X16092735Y-9778184D02*
X16132735Y-9778184D01*
X16120140Y-9070000D02*
X16120140Y-9110000D01*
X16100140Y-9090000D02*
X16140140Y-9090000D01*
X16120140Y-12670000D02*
X16120140Y-12710000D01*
X16100140Y-12690000D02*
X16140140Y-12690000D01*
X16150000Y-6530000D02*
X16150000Y-6570000D01*
X16130000Y-6550000D02*
X16170000Y-6550000D01*
X16150000Y-10130000D02*
X16150000Y-10170000D01*
X16130000Y-10150000D02*
X16170000Y-10150000D01*
X16200000Y-6180000D02*
X16200000Y-6220000D01*
X16180000Y-6200000D02*
X16220000Y-6200000D01*
X16200000Y-6330000D02*
X16200000Y-6370000D01*
X16180000Y-6350000D02*
X16220000Y-6350000D01*
X16200000Y-9230000D02*
X16200000Y-9270000D01*
X16180000Y-9250000D02*
X16220000Y-9250000D01*
X16200000Y-9780000D02*
X16200000Y-9820000D01*
X16180000Y-9800000D02*
X16220000Y-9800000D01*
X16200000Y-9930000D02*
X16200000Y-9970000D01*
X16180000Y-9950000D02*
X16220000Y-9950000D01*
X16200000Y-12830000D02*
X16200000Y-12870000D01*
X16180000Y-12850000D02*
X16220000Y-12850000D01*
X16219200Y-7490120D02*
X16219200Y-7530120D01*
X16199200Y-7510120D02*
X16239200Y-7510120D01*
X16219200Y-11090120D02*
X16219200Y-11130120D01*
X16199200Y-11110120D02*
X16239200Y-11110120D01*
X16250000Y-6680000D02*
X16250000Y-6720000D01*
X16230000Y-6700000D02*
X16270000Y-6700000D01*
X16250000Y-8730000D02*
X16250000Y-8770000D01*
X16230000Y-8750000D02*
X16270000Y-8750000D01*
X16250000Y-9380000D02*
X16250000Y-9420000D01*
X16230000Y-9400000D02*
X16270000Y-9400000D01*
X16250000Y-10280000D02*
X16250000Y-10320000D01*
X16230000Y-10300000D02*
X16270000Y-10300000D01*
X16250000Y-12330000D02*
X16250000Y-12370000D01*
X16230000Y-12350000D02*
X16270000Y-12350000D01*
X16250000Y-12980000D02*
X16250000Y-13020000D01*
X16230000Y-13000000D02*
X16270000Y-13000000D01*
X16300000Y-6080000D02*
X16300000Y-6120000D01*
X16280000Y-6100000D02*
X16320000Y-6100000D01*
X16300000Y-9680000D02*
X16300000Y-9720000D01*
X16280000Y-9700000D02*
X16320000Y-9700000D01*
X17040000Y-7820000D02*
X17040000Y-7860000D01*
X17020000Y-7840000D02*
X17060000Y-7840000D01*
X17040000Y-11420000D02*
X17040000Y-11460000D01*
X17020000Y-11440000D02*
X17060000Y-11440000D01*
X17060000Y-7000000D02*
X17060000Y-7040000D01*
X17040000Y-7020000D02*
X17080000Y-7020000D01*
X17060000Y-7120000D02*
X17060000Y-7160000D01*
X17040000Y-7140000D02*
X17080000Y-7140000D01*
X17060000Y-10600000D02*
X17060000Y-10640000D01*
X17040000Y-10620000D02*
X17080000Y-10620000D01*
X17060000Y-10720000D02*
X17060000Y-10760000D01*
X17040000Y-10740000D02*
X17080000Y-10740000D01*
X17100000Y-6080000D02*
X17100000Y-6120000D01*
X17080000Y-6100000D02*
X17120000Y-6100000D01*
X17100000Y-6680000D02*
X17100000Y-6720000D01*
X17080000Y-6700000D02*
X17120000Y-6700000D01*
X17100000Y-7380000D02*
X17100000Y-7420000D01*
X17080000Y-7400000D02*
X17120000Y-7400000D01*
X17100000Y-8130000D02*
X17100000Y-8170000D01*
X17080000Y-8150000D02*
X17120000Y-8150000D01*
X17100000Y-8280000D02*
X17100000Y-8320000D01*
X17080000Y-8300000D02*
X17120000Y-8300000D01*
X17100000Y-8480000D02*
X17100000Y-8520000D01*
X17080000Y-8500000D02*
X17120000Y-8500000D01*
X17100000Y-8880000D02*
X17100000Y-8920000D01*
X17080000Y-8900000D02*
X17120000Y-8900000D01*
X17100000Y-9380000D02*
X17100000Y-9420000D01*
X17080000Y-9400000D02*
X17120000Y-9400000D01*
X17100000Y-9680000D02*
X17100000Y-9720000D01*
X17080000Y-9700000D02*
X17120000Y-9700000D01*
X17100000Y-10280000D02*
X17100000Y-10320000D01*
X17080000Y-10300000D02*
X17120000Y-10300000D01*
X17100000Y-10980000D02*
X17100000Y-11020000D01*
X17080000Y-11000000D02*
X17120000Y-11000000D01*
X17100000Y-11730000D02*
X17100000Y-11770000D01*
X17080000Y-11750000D02*
X17120000Y-11750000D01*
X17100000Y-11880000D02*
X17100000Y-11920000D01*
X17080000Y-11900000D02*
X17120000Y-11900000D01*
X17100000Y-12080000D02*
X17100000Y-12120000D01*
X17080000Y-12100000D02*
X17120000Y-12100000D01*
X17100000Y-12480000D02*
X17100000Y-12520000D01*
X17080000Y-12500000D02*
X17120000Y-12500000D01*
X17100000Y-12980000D02*
X17100000Y-13020000D01*
X17080000Y-13000000D02*
X17120000Y-13000000D01*
X17150000Y-6180000D02*
X17150000Y-6220000D01*
X17130000Y-6200000D02*
X17170000Y-6200000D01*
X17150000Y-6530000D02*
X17150000Y-6570000D01*
X17130000Y-6550000D02*
X17170000Y-6550000D01*
X17150000Y-6830000D02*
X17150000Y-6870000D01*
X17130000Y-6850000D02*
X17170000Y-6850000D01*
X17150000Y-9780000D02*
X17150000Y-9820000D01*
X17130000Y-9800000D02*
X17170000Y-9800000D01*
X17150000Y-10130000D02*
X17150000Y-10170000D01*
X17130000Y-10150000D02*
X17170000Y-10150000D01*
X17150000Y-10430000D02*
X17150000Y-10470000D01*
X17130000Y-10450000D02*
X17170000Y-10450000D01*
X17160000Y-6920000D02*
X17160000Y-6960000D01*
X17140000Y-6940000D02*
X17180000Y-6940000D01*
X17160000Y-10520000D02*
X17160000Y-10560000D01*
X17140000Y-10540000D02*
X17180000Y-10540000D01*
X17180000Y-6380000D02*
X17180000Y-6420000D01*
X17160000Y-6400000D02*
X17200000Y-6400000D01*
X17180000Y-9980000D02*
X17180000Y-10020000D01*
X17160000Y-10000000D02*
X17200000Y-10000000D01*
X17197820Y-8389280D02*
X17197820Y-8429280D01*
X17177820Y-8409280D02*
X17217820Y-8409280D01*
X17197820Y-11989280D02*
X17197820Y-12029280D01*
X17177820Y-12009280D02*
X17217820Y-12009280D01*
X17200000Y-7140000D02*
X17200000Y-7180000D01*
X17180000Y-7160000D02*
X17220000Y-7160000D01*
X17200000Y-9030000D02*
X17200000Y-9070000D01*
X17180000Y-9050000D02*
X17220000Y-9050000D01*
X17200000Y-9230000D02*
X17200000Y-9270000D01*
X17180000Y-9250000D02*
X17220000Y-9250000D01*
X17200000Y-10740000D02*
X17200000Y-10780000D01*
X17180000Y-10760000D02*
X17220000Y-10760000D01*
X17200000Y-12630000D02*
X17200000Y-12670000D01*
X17180000Y-12650000D02*
X17220000Y-12650000D01*
X17200000Y-12830000D02*
X17200000Y-12870000D01*
X17180000Y-12850000D02*
X17220000Y-12850000D01*
X17241000Y-6560480D02*
X17241000Y-6600480D01*
X17221000Y-6580480D02*
X17261000Y-6580480D01*
X17241000Y-10160480D02*
X17241000Y-10200480D01*
X17221000Y-10180480D02*
X17261000Y-10180480D01*
X17248620Y-8435000D02*
X17248620Y-8475000D01*
X17228620Y-8455000D02*
X17268620Y-8455000D01*
X17248620Y-12035000D02*
X17248620Y-12075000D01*
X17228620Y-12055000D02*
X17268620Y-12055000D01*
X17279100Y-6052480D02*
X17279100Y-6092480D01*
X17259100Y-6072480D02*
X17299100Y-6072480D01*
X17279100Y-6184560D02*
X17279100Y-6224560D01*
X17259100Y-6204560D02*
X17299100Y-6204560D01*
X17279100Y-9652480D02*
X17279100Y-9692480D01*
X17259100Y-9672480D02*
X17299100Y-9672480D01*
X17279100Y-9784560D02*
X17279100Y-9824560D01*
X17259100Y-9804560D02*
X17299100Y-9804560D01*
X17280000Y-8780000D02*
X17280000Y-8820000D01*
X17260000Y-8800000D02*
X17300000Y-8800000D01*
X17280000Y-12380000D02*
X17280000Y-12420000D01*
X17260000Y-12400000D02*
X17300000Y-12400000D01*
X17301960Y-8391820D02*
X17301960Y-8431820D01*
X17281960Y-8411820D02*
X17321960Y-8411820D01*
X17301960Y-11991820D02*
X17301960Y-12031820D01*
X17281960Y-12011820D02*
X17321960Y-12011820D01*
X17332149Y-9380000D02*
X17332149Y-9420000D01*
X17312149Y-9400000D02*
X17352149Y-9400000D01*
X17332149Y-12980000D02*
X17332149Y-13020000D01*
X17312149Y-13000000D02*
X17352149Y-13000000D01*
X17338025Y-6271010D02*
X17338025Y-6311010D01*
X17318025Y-6291010D02*
X17358025Y-6291010D01*
X17338025Y-9871010D02*
X17338025Y-9911010D01*
X17318025Y-9891010D02*
X17358025Y-9891010D01*
X17340000Y-7140000D02*
X17340000Y-7180000D01*
X17320000Y-7160000D02*
X17360000Y-7160000D01*
X17340000Y-10740000D02*
X17340000Y-10780000D01*
X17320000Y-10760000D02*
X17360000Y-10760000D01*
X17349648Y-7429071D02*
X17349648Y-7469071D01*
X17329648Y-7449071D02*
X17369648Y-7449071D01*
X17349648Y-11029071D02*
X17349648Y-11069071D01*
X17329648Y-11049071D02*
X17369648Y-11049071D01*
X17350000Y-7630000D02*
X17350000Y-7670000D01*
X17330000Y-7650000D02*
X17370000Y-7650000D01*
X17350000Y-7730000D02*
X17350000Y-7770000D01*
X17330000Y-7750000D02*
X17370000Y-7750000D01*
X17350000Y-7930000D02*
X17350000Y-7970000D01*
X17330000Y-7950000D02*
X17370000Y-7950000D01*
X17350000Y-8130000D02*
X17350000Y-8170000D01*
X17330000Y-8150000D02*
X17370000Y-8150000D01*
X17350000Y-11230000D02*
X17350000Y-11270000D01*
X17330000Y-11250000D02*
X17370000Y-11250000D01*
X17350000Y-11330000D02*
X17350000Y-11370000D01*
X17330000Y-11350000D02*
X17370000Y-11350000D01*
X17350000Y-11530000D02*
X17350000Y-11570000D01*
X17330000Y-11550000D02*
X17370000Y-11550000D01*
X17350000Y-11730000D02*
X17350000Y-11770000D01*
X17330000Y-11750000D02*
X17370000Y-11750000D01*
X17359210Y-6060100D02*
X17359210Y-6100100D01*
X17339210Y-6080100D02*
X17379210Y-6080100D01*
X17359210Y-9660100D02*
X17359210Y-9700100D01*
X17339210Y-9680100D02*
X17379210Y-9680100D01*
X17380000Y-6960000D02*
X17380000Y-7000000D01*
X17360000Y-6980000D02*
X17400000Y-6980000D01*
X17380000Y-7300000D02*
X17380000Y-7340000D01*
X17360000Y-7320000D02*
X17400000Y-7320000D01*
X17380000Y-10560000D02*
X17380000Y-10600000D01*
X17360000Y-10580000D02*
X17400000Y-10580000D01*
X17380000Y-10900000D02*
X17380000Y-10940000D01*
X17360000Y-10920000D02*
X17400000Y-10920000D01*
X17400000Y-9230000D02*
X17400000Y-9270000D01*
X17380000Y-9250000D02*
X17420000Y-9250000D01*
X17400000Y-12830000D02*
X17400000Y-12870000D01*
X17380000Y-12850000D02*
X17420000Y-12850000D01*
X17412325Y-8967445D02*
X17412325Y-9007445D01*
X17392325Y-8987445D02*
X17432325Y-8987445D01*
X17412325Y-12567445D02*
X17412325Y-12607445D01*
X17392325Y-12587445D02*
X17432325Y-12587445D01*
X17441660Y-6758600D02*
X17441660Y-6798600D01*
X17421660Y-6778600D02*
X17461660Y-6778600D01*
X17441660Y-10358600D02*
X17441660Y-10398600D01*
X17421660Y-10378600D02*
X17461660Y-10378600D01*
X17523159Y-6048388D02*
X17523159Y-6088388D01*
X17503159Y-6068388D02*
X17543159Y-6068388D01*
X17523159Y-9648388D02*
X17523159Y-9688388D01*
X17503159Y-9668388D02*
X17543159Y-9668388D01*
X17524110Y-6115980D02*
X17524110Y-6155980D01*
X17504110Y-6135980D02*
X17544110Y-6135980D01*
X17524110Y-9715980D02*
X17524110Y-9755980D01*
X17504110Y-9735980D02*
X17544110Y-9735980D01*
X17528020Y-6192180D02*
X17528020Y-6232180D01*
X17508020Y-6212180D02*
X17548020Y-6212180D01*
X17528020Y-9792180D02*
X17528020Y-9832180D01*
X17508020Y-9812180D02*
X17548020Y-9812180D01*
X17540000Y-8680000D02*
X17540000Y-8720000D01*
X17520000Y-8700000D02*
X17560000Y-8700000D01*
X17540000Y-12280000D02*
X17540000Y-12320000D01*
X17520000Y-12300000D02*
X17560000Y-12300000D01*
X17550000Y-9377808D02*
X17550000Y-9417808D01*
X17530000Y-9397808D02*
X17570000Y-9397808D01*
X17550000Y-12977808D02*
X17550000Y-13017808D01*
X17530000Y-12997808D02*
X17570000Y-12997808D01*
X17573740Y-6758600D02*
X17573740Y-6798600D01*
X17553740Y-6778600D02*
X17593740Y-6778600D01*
X17573740Y-10358600D02*
X17573740Y-10398600D01*
X17553740Y-10378600D02*
X17593740Y-10378600D01*
X17625000Y-8130000D02*
X17625000Y-8170000D01*
X17605000Y-8150000D02*
X17645000Y-8150000D01*
X17625000Y-9280000D02*
X17625000Y-9320000D01*
X17605000Y-9300000D02*
X17645000Y-9300000D01*
X17625000Y-11730000D02*
X17625000Y-11770000D01*
X17605000Y-11750000D02*
X17645000Y-11750000D01*
X17625000Y-12880000D02*
X17625000Y-12920000D01*
X17605000Y-12900000D02*
X17645000Y-12900000D01*
X17650000Y-7380000D02*
X17650000Y-7420000D01*
X17630000Y-7400000D02*
X17670000Y-7400000D01*
X17650000Y-9180000D02*
X17650000Y-9220000D01*
X17630000Y-9200000D02*
X17670000Y-9200000D01*
X17650000Y-10980000D02*
X17650000Y-11020000D01*
X17630000Y-11000000D02*
X17670000Y-11000000D01*
X17650000Y-12780000D02*
X17650000Y-12820000D01*
X17630000Y-12800000D02*
X17670000Y-12800000D01*
X17672167Y-6941554D02*
X17672167Y-6981554D01*
X17652167Y-6961554D02*
X17692167Y-6961554D01*
X17672167Y-10541554D02*
X17672167Y-10581554D01*
X17652167Y-10561554D02*
X17692167Y-10561554D01*
X17675000Y-7505000D02*
X17675000Y-7545000D01*
X17655000Y-7525000D02*
X17695000Y-7525000D01*
X17675000Y-11105000D02*
X17675000Y-11145000D01*
X17655000Y-11125000D02*
X17695000Y-11125000D01*
X17700000Y-6418240D02*
X17700000Y-6458240D01*
X17680000Y-6438240D02*
X17720000Y-6438240D01*
X17700000Y-10018240D02*
X17700000Y-10058240D01*
X17680000Y-10038240D02*
X17720000Y-10038240D01*
X17720000Y-7240000D02*
X17720000Y-7280000D01*
X17700000Y-7260000D02*
X17740000Y-7260000D01*
X17720000Y-10840000D02*
X17720000Y-10880000D01*
X17700000Y-10860000D02*
X17740000Y-10860000D01*
X17738840Y-6215040D02*
X17738840Y-6255040D01*
X17718840Y-6235040D02*
X17758840Y-6235040D01*
X17738840Y-9815040D02*
X17738840Y-9855040D01*
X17718840Y-9835040D02*
X17758840Y-9835040D01*
X17746527Y-9374498D02*
X17746527Y-9414498D01*
X17726527Y-9394498D02*
X17766527Y-9394498D01*
X17746527Y-12974498D02*
X17746527Y-13014498D01*
X17726527Y-12994498D02*
X17766527Y-12994498D01*
X17756620Y-6146460D02*
X17756620Y-6186460D01*
X17736620Y-6166460D02*
X17776620Y-6166460D01*
X17756620Y-9746460D02*
X17756620Y-9786460D01*
X17736620Y-9766460D02*
X17776620Y-9766460D01*
X17759160Y-6080420D02*
X17759160Y-6120420D01*
X17739160Y-6100420D02*
X17779160Y-6100420D01*
X17759160Y-9680420D02*
X17759160Y-9720420D01*
X17739160Y-9700420D02*
X17779160Y-9700420D01*
X17760000Y-7020000D02*
X17760000Y-7060000D01*
X17740000Y-7040000D02*
X17780000Y-7040000D01*
X17760000Y-10620000D02*
X17760000Y-10660000D01*
X17740000Y-10640000D02*
X17780000Y-10640000D01*
X17775000Y-7380000D02*
X17775000Y-7420000D01*
X17755000Y-7400000D02*
X17795000Y-7400000D01*
X17775000Y-10980000D02*
X17775000Y-11020000D01*
X17755000Y-11000000D02*
X17795000Y-11000000D01*
X17780000Y-8680000D02*
X17780000Y-8720000D01*
X17760000Y-8700000D02*
X17800000Y-8700000D01*
X17780000Y-12280000D02*
X17780000Y-12320000D01*
X17760000Y-12300000D02*
X17800000Y-12300000D01*
X17800000Y-6580000D02*
X17800000Y-6620000D01*
X17780000Y-6600000D02*
X17820000Y-6600000D01*
X17800000Y-6730000D02*
X17800000Y-6770000D01*
X17780000Y-6750000D02*
X17820000Y-6750000D01*
X17800000Y-10180000D02*
X17800000Y-10220000D01*
X17780000Y-10200000D02*
X17820000Y-10200000D01*
X17800000Y-10330000D02*
X17800000Y-10370000D01*
X17780000Y-10350000D02*
X17820000Y-10350000D01*
X17809960Y-6418240D02*
X17809960Y-6458240D01*
X17789960Y-6438240D02*
X17829960Y-6438240D01*
X17809960Y-10018240D02*
X17809960Y-10058240D01*
X17789960Y-10038240D02*
X17829960Y-10038240D01*
X17820000Y-7980000D02*
X17820000Y-8020000D01*
X17800000Y-8000000D02*
X17840000Y-8000000D01*
X17820000Y-11580000D02*
X17820000Y-11620000D01*
X17800000Y-11600000D02*
X17840000Y-11600000D01*
X17837900Y-7116740D02*
X17837900Y-7156740D01*
X17817900Y-7136740D02*
X17857900Y-7136740D01*
X17837900Y-10716740D02*
X17837900Y-10756740D01*
X17817900Y-10736740D02*
X17857900Y-10736740D01*
X17840000Y-8140000D02*
X17840000Y-8180000D01*
X17820000Y-8160000D02*
X17860000Y-8160000D01*
X17840000Y-11740000D02*
X17840000Y-11780000D01*
X17820000Y-11760000D02*
X17860000Y-11760000D01*
X17920000Y-6420000D02*
X17920000Y-6460000D01*
X17900000Y-6440000D02*
X17940000Y-6440000D01*
X17920000Y-10020000D02*
X17920000Y-10060000D01*
X17900000Y-10040000D02*
X17940000Y-10040000D01*
X17925000Y-8055000D02*
X17925000Y-8095000D01*
X17905000Y-8075000D02*
X17945000Y-8075000D01*
X17925000Y-8205000D02*
X17925000Y-8245000D01*
X17905000Y-8225000D02*
X17945000Y-8225000D01*
X17925000Y-11655000D02*
X17925000Y-11695000D01*
X17905000Y-11675000D02*
X17945000Y-11675000D01*
X17925000Y-11805000D02*
X17925000Y-11845000D01*
X17905000Y-11825000D02*
X17945000Y-11825000D01*
X17944580Y-6717960D02*
X17944580Y-6757960D01*
X17924580Y-6737960D02*
X17964580Y-6737960D01*
X17944580Y-10317960D02*
X17944580Y-10357960D01*
X17924580Y-10337960D02*
X17964580Y-10337960D01*
X17950000Y-7530000D02*
X17950000Y-7570000D01*
X17930000Y-7550000D02*
X17970000Y-7550000D01*
X17950000Y-11130000D02*
X17950000Y-11170000D01*
X17930000Y-11150000D02*
X17970000Y-11150000D01*
X17982680Y-7266600D02*
X17982680Y-7306600D01*
X17962680Y-7286600D02*
X18002680Y-7286600D01*
X17982680Y-10866600D02*
X17982680Y-10906600D01*
X17962680Y-10886600D02*
X18002680Y-10886600D01*
X17987760Y-8508660D02*
X17987760Y-8548660D01*
X17967760Y-8528660D02*
X18007760Y-8528660D01*
X17987760Y-12108660D02*
X17987760Y-12148660D01*
X17967760Y-12128660D02*
X18007760Y-12128660D01*
X17997920Y-8600100D02*
X17997920Y-8640100D01*
X17977920Y-8620100D02*
X18017920Y-8620100D01*
X17997920Y-12200100D02*
X17997920Y-12240100D01*
X17977920Y-12220100D02*
X18017920Y-12220100D01*
X18050000Y-7430000D02*
X18050000Y-7470000D01*
X18030000Y-7450000D02*
X18070000Y-7450000D01*
X18050000Y-9030000D02*
X18050000Y-9070000D01*
X18030000Y-9050000D02*
X18070000Y-9050000D01*
X18050000Y-11030000D02*
X18050000Y-11070000D01*
X18030000Y-11050000D02*
X18070000Y-11050000D01*
X18050000Y-12630000D02*
X18050000Y-12670000D01*
X18030000Y-12650000D02*
X18070000Y-12650000D01*
X18050424Y-8437726D02*
X18050424Y-8477726D01*
X18030424Y-8457726D02*
X18070424Y-8457726D01*
X18050424Y-12037726D02*
X18050424Y-12077726D01*
X18030424Y-12057726D02*
X18070424Y-12057726D01*
X18100000Y-9230000D02*
X18100000Y-9270000D01*
X18080000Y-9250000D02*
X18120000Y-9250000D01*
X18100000Y-12830000D02*
X18100000Y-12870000D01*
X18080000Y-12850000D02*
X18120000Y-12850000D01*
X18112220Y-7548540D02*
X18112220Y-7588540D01*
X18092220Y-7568540D02*
X18132220Y-7568540D01*
X18112220Y-11148540D02*
X18112220Y-11188540D01*
X18092220Y-11168540D02*
X18132220Y-11168540D01*
X18149026Y-6379504D02*
X18149026Y-6419504D01*
X18129026Y-6399504D02*
X18169026Y-6399504D01*
X18149026Y-9979504D02*
X18149026Y-10019504D01*
X18129026Y-9999504D02*
X18169026Y-9999504D01*
X18150000Y-6080000D02*
X18150000Y-6120000D01*
X18130000Y-6100000D02*
X18170000Y-6100000D01*
X18150000Y-6230000D02*
X18150000Y-6270000D01*
X18130000Y-6250000D02*
X18170000Y-6250000D01*
X18150000Y-6680000D02*
X18150000Y-6720000D01*
X18130000Y-6700000D02*
X18170000Y-6700000D01*
X18150000Y-9680000D02*
X18150000Y-9720000D01*
X18130000Y-9700000D02*
X18170000Y-9700000D01*
X18150000Y-9830000D02*
X18150000Y-9870000D01*
X18130000Y-9850000D02*
X18170000Y-9850000D01*
X18150000Y-10280000D02*
X18150000Y-10320000D01*
X18130000Y-10300000D02*
X18170000Y-10300000D01*
X18152860Y-8097180D02*
X18152860Y-8137180D01*
X18132860Y-8117180D02*
X18172860Y-8117180D01*
X18152860Y-11697180D02*
X18152860Y-11737180D01*
X18132860Y-11717180D02*
X18172860Y-11717180D01*
X18155400Y-8163220D02*
X18155400Y-8203220D01*
X18135400Y-8183220D02*
X18175400Y-8183220D01*
X18155400Y-11763220D02*
X18155400Y-11803220D01*
X18135400Y-11783220D02*
X18175400Y-11783220D01*
X18157940Y-8352232D02*
X18157940Y-8392232D01*
X18137940Y-8372232D02*
X18177940Y-8372232D01*
X18157940Y-11952232D02*
X18157940Y-11992232D01*
X18137940Y-11972232D02*
X18177940Y-11972232D01*
X18160480Y-7733960D02*
X18160480Y-7773960D01*
X18140480Y-7753960D02*
X18180480Y-7753960D01*
X18160480Y-11333960D02*
X18160480Y-11373960D01*
X18140480Y-11353960D02*
X18180480Y-11353960D01*
X18200000Y-6880000D02*
X18200000Y-6920000D01*
X18180000Y-6900000D02*
X18220000Y-6900000D01*
X18200000Y-10480000D02*
X18200000Y-10520000D01*
X18180000Y-10500000D02*
X18220000Y-10500000D01*
X18225000Y-7355000D02*
X18225000Y-7395000D01*
X18205000Y-7375000D02*
X18245000Y-7375000D01*
X18225000Y-10955000D02*
X18225000Y-10995000D01*
X18205000Y-10975000D02*
X18245000Y-10975000D01*
X18240000Y-7020000D02*
X18240000Y-7060000D01*
X18220000Y-7040000D02*
X18260000Y-7040000D01*
X18240000Y-10620000D02*
X18240000Y-10660000D01*
X18220000Y-10640000D02*
X18260000Y-10640000D01*
X18254460Y-9087600D02*
X18254460Y-9127600D01*
X18234460Y-9107600D02*
X18274460Y-9107600D01*
X18254460Y-12687600D02*
X18254460Y-12727600D01*
X18234460Y-12707600D02*
X18274460Y-12707600D01*
X18277320Y-8515330D02*
X18277320Y-8555330D01*
X18257320Y-8535330D02*
X18297320Y-8535330D01*
X18277320Y-12115330D02*
X18277320Y-12155330D01*
X18257320Y-12135330D02*
X18297320Y-12135330D01*
X18284940Y-8739800D02*
X18284940Y-8779800D01*
X18264940Y-8759800D02*
X18304940Y-8759800D01*
X18284940Y-12339800D02*
X18284940Y-12379800D01*
X18264940Y-12359800D02*
X18304940Y-12359800D01*
X18300000Y-6080000D02*
X18300000Y-6120000D01*
X18280000Y-6100000D02*
X18320000Y-6100000D01*
X18300000Y-6530000D02*
X18300000Y-6570000D01*
X18280000Y-6550000D02*
X18320000Y-6550000D01*
X18300000Y-6680000D02*
X18300000Y-6720000D01*
X18280000Y-6700000D02*
X18320000Y-6700000D01*
X18300000Y-9680000D02*
X18300000Y-9720000D01*
X18280000Y-9700000D02*
X18320000Y-9700000D01*
X18300000Y-10130000D02*
X18300000Y-10170000D01*
X18280000Y-10150000D02*
X18320000Y-10150000D01*
X18300000Y-10280000D02*
X18300000Y-10320000D01*
X18280000Y-10300000D02*
X18320000Y-10300000D01*
X18320000Y-8100000D02*
X18320000Y-8140000D01*
X18300000Y-8120000D02*
X18340000Y-8120000D01*
X18320000Y-11700000D02*
X18320000Y-11740000D01*
X18300000Y-11720000D02*
X18340000Y-11720000D01*
X18380000Y-6900000D02*
X18380000Y-6940000D01*
X18360000Y-6920000D02*
X18400000Y-6920000D01*
X18380000Y-10500000D02*
X18380000Y-10540000D01*
X18360000Y-10520000D02*
X18400000Y-10520000D01*
X18389080Y-8516280D02*
X18389080Y-8556280D01*
X18369080Y-8536280D02*
X18409080Y-8536280D01*
X18389080Y-12116280D02*
X18389080Y-12156280D01*
X18369080Y-12136280D02*
X18409080Y-12136280D01*
X18412995Y-7889955D02*
X18412995Y-7929955D01*
X18392995Y-7909955D02*
X18432995Y-7909955D01*
X18412995Y-11489955D02*
X18412995Y-11529955D01*
X18392995Y-11509955D02*
X18432995Y-11509955D01*
X18413399Y-8055742D02*
X18413399Y-8095742D01*
X18393399Y-8075742D02*
X18433399Y-8075742D01*
X18413399Y-11655742D02*
X18413399Y-11695742D01*
X18393399Y-11675742D02*
X18433399Y-11675742D01*
X18422100Y-7442870D02*
X18422100Y-7482870D01*
X18402100Y-7462870D02*
X18442100Y-7462870D01*
X18422100Y-11042870D02*
X18422100Y-11082870D01*
X18402100Y-11062870D02*
X18442100Y-11062870D01*
X18473422Y-7104040D02*
X18473422Y-7144040D01*
X18453422Y-7124040D02*
X18493422Y-7124040D01*
X18473422Y-10704040D02*
X18473422Y-10744040D01*
X18453422Y-10724040D02*
X18493422Y-10724040D01*
X18475440Y-7718720D02*
X18475440Y-7758720D01*
X18455440Y-7738720D02*
X18495440Y-7738720D01*
X18475440Y-11318720D02*
X18475440Y-11358720D01*
X18455440Y-11338720D02*
X18495440Y-11338720D01*
X18476393Y-6973731D02*
X18476393Y-7013731D01*
X18456393Y-6993731D02*
X18496393Y-6993731D01*
X18476393Y-10573731D02*
X18476393Y-10613731D01*
X18456393Y-10593731D02*
X18496393Y-10593731D01*
X18477980Y-7891440D02*
X18477980Y-7931440D01*
X18457980Y-7911440D02*
X18497980Y-7911440D01*
X18477980Y-11491440D02*
X18477980Y-11531440D01*
X18457980Y-11511440D02*
X18497980Y-11511440D01*
X18483060Y-8048920D02*
X18483060Y-8088920D01*
X18463060Y-8068920D02*
X18503060Y-8068920D01*
X18483060Y-11648920D02*
X18483060Y-11688920D01*
X18463060Y-11668920D02*
X18503060Y-11668920D01*
X18492186Y-7181757D02*
X18492186Y-7221757D01*
X18472186Y-7201757D02*
X18512186Y-7201757D01*
X18492186Y-10781757D02*
X18492186Y-10821757D01*
X18472186Y-10801757D02*
X18512186Y-10801757D01*
X18500000Y-9431950D02*
X18500000Y-9471950D01*
X18480000Y-9451950D02*
X18520000Y-9451950D01*
X18500000Y-13031950D02*
X18500000Y-13071950D01*
X18480000Y-13051950D02*
X18520000Y-13051950D01*
X18520000Y-8560000D02*
X18520000Y-8600000D01*
X18500000Y-8580000D02*
X18540000Y-8580000D01*
X18520000Y-12160000D02*
X18520000Y-12200000D01*
X18500000Y-12180000D02*
X18540000Y-12180000D01*
X18530000Y-8400000D02*
X18530000Y-8440000D01*
X18510000Y-8420000D02*
X18550000Y-8420000D01*
X18530000Y-12000000D02*
X18530000Y-12040000D01*
X18510000Y-12020000D02*
X18550000Y-12020000D01*
X18533860Y-7495200D02*
X18533860Y-7535200D01*
X18513860Y-7515200D02*
X18553860Y-7515200D01*
X18533860Y-11095200D02*
X18533860Y-11135200D01*
X18513860Y-11115200D02*
X18553860Y-11115200D01*
X18550000Y-6320000D02*
X18550000Y-6360000D01*
X18530000Y-6340000D02*
X18570000Y-6340000D01*
X18550000Y-9920000D02*
X18550000Y-9960000D01*
X18530000Y-9940000D02*
X18570000Y-9940000D01*
X18564647Y-7030073D02*
X18564647Y-7070073D01*
X18544647Y-7050073D02*
X18584647Y-7050073D01*
X18564647Y-10630073D02*
X18564647Y-10670073D01*
X18544647Y-10650073D02*
X18584647Y-10650073D01*
X18570000Y-6630000D02*
X18570000Y-6670000D01*
X18550000Y-6650000D02*
X18590000Y-6650000D01*
X18570000Y-10230000D02*
X18570000Y-10270000D01*
X18550000Y-10250000D02*
X18590000Y-10250000D01*
X18580000Y-6470000D02*
X18580000Y-6510000D01*
X18560000Y-6490000D02*
X18600000Y-6490000D01*
X18580000Y-10070000D02*
X18580000Y-10110000D01*
X18560000Y-10090000D02*
X18600000Y-10090000D01*
X18600000Y-7905000D02*
X18600000Y-7945000D01*
X18580000Y-7925000D02*
X18620000Y-7925000D01*
X18600000Y-11505000D02*
X18600000Y-11545000D01*
X18580000Y-11525000D02*
X18620000Y-11525000D01*
X18600613Y-6205050D02*
X18600613Y-6245050D01*
X18580613Y-6225050D02*
X18620613Y-6225050D01*
X18600613Y-9805050D02*
X18600613Y-9845050D01*
X18580613Y-9825050D02*
X18620613Y-9825050D01*
X18640000Y-6820000D02*
X18640000Y-6860000D01*
X18620000Y-6840000D02*
X18660000Y-6840000D01*
X18640000Y-10420000D02*
X18640000Y-10460000D01*
X18620000Y-10440000D02*
X18660000Y-10440000D01*
X18680000Y-7740000D02*
X18680000Y-7780000D01*
X18660000Y-7760000D02*
X18700000Y-7760000D01*
X18680000Y-11340000D02*
X18680000Y-11380000D01*
X18660000Y-11360000D02*
X18700000Y-11360000D01*
X18710000Y-6332450D02*
X18710000Y-6372450D01*
X18690000Y-6352450D02*
X18730000Y-6352450D01*
X18710000Y-9932450D02*
X18710000Y-9972450D01*
X18690000Y-9952450D02*
X18730000Y-9952450D01*
X18732470Y-8909980D02*
X18732470Y-8949980D01*
X18712470Y-8929980D02*
X18752470Y-8929980D01*
X18732470Y-12509980D02*
X18732470Y-12549980D01*
X18712470Y-12529980D02*
X18752470Y-12529980D01*
X18737060Y-7896520D02*
X18737060Y-7936520D01*
X18717060Y-7916520D02*
X18757060Y-7916520D01*
X18737060Y-11496520D02*
X18737060Y-11536520D01*
X18717060Y-11516520D02*
X18757060Y-11516520D01*
X18750000Y-9090000D02*
X18750000Y-9130000D01*
X18730000Y-9110000D02*
X18770000Y-9110000D01*
X18750000Y-12690000D02*
X18750000Y-12730000D01*
X18730000Y-12710000D02*
X18770000Y-12710000D01*
X18770000Y-6520000D02*
X18770000Y-6560000D01*
X18750000Y-6540000D02*
X18790000Y-6540000D01*
X18770000Y-9270000D02*
X18770000Y-9310000D01*
X18750000Y-9290000D02*
X18790000Y-9290000D01*
X18770000Y-10120000D02*
X18770000Y-10160000D01*
X18750000Y-10140000D02*
X18790000Y-10140000D01*
X18770000Y-12870000D02*
X18770000Y-12910000D01*
X18750000Y-12890000D02*
X18790000Y-12890000D01*
X18775000Y-6630000D02*
X18775000Y-6670000D01*
X18755000Y-6650000D02*
X18795000Y-6650000D01*
X18775000Y-10230000D02*
X18775000Y-10270000D01*
X18755000Y-10250000D02*
X18795000Y-10250000D01*
X18780000Y-8420000D02*
X18780000Y-8460000D01*
X18760000Y-8440000D02*
X18800000Y-8440000D01*
X18780000Y-12020000D02*
X18780000Y-12060000D01*
X18760000Y-12040000D02*
X18800000Y-12040000D01*
X18781260Y-7460928D02*
X18781260Y-7500928D01*
X18761260Y-7480928D02*
X18801260Y-7480928D01*
X18781260Y-11060928D02*
X18781260Y-11100928D01*
X18761260Y-11080928D02*
X18801260Y-11080928D01*
X18800000Y-8640000D02*
X18800000Y-8680000D01*
X18780000Y-8660000D02*
X18820000Y-8660000D01*
X18800000Y-12240000D02*
X18800000Y-12280000D01*
X18780000Y-12260000D02*
X18820000Y-12260000D01*
X18800560Y-8506120D02*
X18800560Y-8546120D01*
X18780560Y-8526120D02*
X18820560Y-8526120D01*
X18800560Y-12106120D02*
X18800560Y-12146120D01*
X18780560Y-12126120D02*
X18820560Y-12126120D01*
X18817817Y-7310102D02*
X18817817Y-7350102D01*
X18797817Y-7330102D02*
X18837817Y-7330102D01*
X18817817Y-10910102D02*
X18817817Y-10950102D01*
X18797817Y-10930102D02*
X18837817Y-10930102D01*
X18830886Y-7829450D02*
X18830886Y-7869450D01*
X18810886Y-7849450D02*
X18850886Y-7849450D01*
X18830886Y-11429450D02*
X18830886Y-11469450D01*
X18810886Y-11449450D02*
X18850886Y-11449450D01*
X18833580Y-7215800D02*
X18833580Y-7255800D01*
X18813580Y-7235800D02*
X18853580Y-7235800D01*
X18833580Y-10815800D02*
X18833580Y-10855800D01*
X18813580Y-10835800D02*
X18853580Y-10835800D01*
X18858531Y-6109621D02*
X18858531Y-6149621D01*
X18838531Y-6129621D02*
X18878531Y-6129621D01*
X18858531Y-9709621D02*
X18858531Y-9749621D01*
X18838531Y-9729621D02*
X18878531Y-9729621D01*
X18875000Y-6605000D02*
X18875000Y-6645000D01*
X18855000Y-6625000D02*
X18895000Y-6625000D01*
X18875000Y-10205000D02*
X18875000Y-10245000D01*
X18855000Y-10225000D02*
X18895000Y-10225000D01*
X18876251Y-7372270D02*
X18876251Y-7412270D01*
X18856251Y-7392270D02*
X18896251Y-7392270D01*
X18876251Y-10972270D02*
X18876251Y-11012270D01*
X18856251Y-10992270D02*
X18896251Y-10992270D01*
X18880000Y-7040000D02*
X18880000Y-7080000D01*
X18860000Y-7060000D02*
X18900000Y-7060000D01*
X18880000Y-10640000D02*
X18880000Y-10680000D01*
X18860000Y-10660000D02*
X18900000Y-10660000D01*
X18885280Y-8207086D02*
X18885280Y-8247086D01*
X18865280Y-8227086D02*
X18905280Y-8227086D01*
X18885280Y-11807086D02*
X18885280Y-11847086D01*
X18865280Y-11827086D02*
X18905280Y-11827086D01*
X18919505Y-7584762D02*
X18919505Y-7624762D01*
X18899505Y-7604762D02*
X18939505Y-7604762D01*
X18919505Y-11184762D02*
X18919505Y-11224762D01*
X18899505Y-11204762D02*
X18939505Y-11204762D01*
X18920000Y-8020000D02*
X18920000Y-8060000D01*
X18900000Y-8040000D02*
X18940000Y-8040000D01*
X18920000Y-11620000D02*
X18920000Y-11660000D01*
X18900000Y-11640000D02*
X18940000Y-11640000D01*
X18949207Y-9379450D02*
X18949207Y-9419450D01*
X18929207Y-9399450D02*
X18969207Y-9399450D01*
X18949207Y-12979449D02*
X18949207Y-13019449D01*
X18929207Y-12999449D02*
X18969207Y-12999449D01*
X18957184Y-6282764D02*
X18957184Y-6322764D01*
X18937184Y-6302764D02*
X18977184Y-6302764D01*
X18957184Y-9882764D02*
X18957184Y-9922764D01*
X18937184Y-9902764D02*
X18977184Y-9902764D01*
X18960000Y-7160000D02*
X18960000Y-7200000D01*
X18940000Y-7180000D02*
X18980000Y-7180000D01*
X18960000Y-10760000D02*
X18960000Y-10800000D01*
X18940000Y-10780000D02*
X18980000Y-10780000D01*
X18970740Y-7027840D02*
X18970740Y-7067840D01*
X18950740Y-7047840D02*
X18990740Y-7047840D01*
X18970740Y-10627840D02*
X18970740Y-10667840D01*
X18950740Y-10647840D02*
X18990740Y-10647840D01*
X18975000Y-6555000D02*
X18975000Y-6595000D01*
X18955000Y-6575000D02*
X18995000Y-6575000D01*
X18975000Y-10155000D02*
X18975000Y-10195000D01*
X18955000Y-10175000D02*
X18995000Y-10175000D01*
X18980000Y-9040000D02*
X18980000Y-9080000D01*
X18960000Y-9060000D02*
X19000000Y-9060000D01*
X18980000Y-12640000D02*
X18980000Y-12680000D01*
X18960000Y-12660000D02*
X19000000Y-12660000D01*
X18985463Y-7255415D02*
X18985463Y-7295415D01*
X18965463Y-7275415D02*
X19005463Y-7275415D01*
X18985463Y-10855415D02*
X18985463Y-10895415D01*
X18965463Y-10875415D02*
X19005463Y-10875415D01*
X19000000Y-6840000D02*
X19000000Y-6880000D01*
X18980000Y-6860000D02*
X19020000Y-6860000D01*
X19000000Y-8380000D02*
X19000000Y-8420000D01*
X18980000Y-8400000D02*
X19020000Y-8400000D01*
X19000000Y-10440000D02*
X19000000Y-10480000D01*
X18980000Y-10460000D02*
X19020000Y-10460000D01*
X19000000Y-11980000D02*
X19000000Y-12020000D01*
X18980000Y-12000000D02*
X19020000Y-12000000D01*
X19001310Y-7587740D02*
X19001310Y-7627740D01*
X18981310Y-7607740D02*
X19021310Y-7607740D01*
X19001310Y-11187740D02*
X19001310Y-11227740D01*
X18981310Y-11207740D02*
X19021310Y-11207740D01*
X19025000Y-7905000D02*
X19025000Y-7945000D01*
X19005000Y-7925000D02*
X19045000Y-7925000D01*
X19025000Y-11505000D02*
X19025000Y-11545000D01*
X19005000Y-11525000D02*
X19045000Y-11525000D01*
X19044760Y-6643057D02*
X19044760Y-6683057D01*
X19024760Y-6663057D02*
X19064760Y-6663057D01*
X19044760Y-10243057D02*
X19044760Y-10283057D01*
X19024760Y-10263057D02*
X19064760Y-10263057D01*
X19050000Y-6330000D02*
X19050000Y-6370000D01*
X19030000Y-6350000D02*
X19070000Y-6350000D01*
X19050000Y-9930000D02*
X19050000Y-9970000D01*
X19030000Y-9950000D02*
X19070000Y-9950000D01*
X19070000Y-9130000D02*
X19070000Y-9170000D01*
X19050000Y-9150000D02*
X19090000Y-9150000D01*
X19070000Y-12730000D02*
X19070000Y-12770000D01*
X19050000Y-12750000D02*
X19090000Y-12750000D01*
X19084328Y-7094592D02*
X19084328Y-7134592D01*
X19064328Y-7114592D02*
X19104328Y-7114592D01*
X19084328Y-10694592D02*
X19084328Y-10734592D01*
X19064328Y-10714592D02*
X19104328Y-10714592D01*
X19090120Y-8648360D02*
X19090120Y-8688360D01*
X19070120Y-8668360D02*
X19110120Y-8668360D01*
X19090120Y-12248360D02*
X19090120Y-12288360D01*
X19070120Y-12268360D02*
X19110120Y-12268360D01*
X19140000Y-8000000D02*
X19140000Y-8040000D01*
X19120000Y-8020000D02*
X19160000Y-8020000D01*
X19140000Y-11600000D02*
X19140000Y-11640000D01*
X19120000Y-11620000D02*
X19160000Y-11620000D01*
X19150000Y-8380000D02*
X19150000Y-8420000D01*
X19130000Y-8400000D02*
X19170000Y-8400000D01*
X19150000Y-11980000D02*
X19150000Y-12020000D01*
X19130000Y-12000000D02*
X19170000Y-12000000D01*
X19200000Y-6280000D02*
X19200000Y-6320000D01*
X19180000Y-6300000D02*
X19220000Y-6300000D01*
X19200000Y-9880000D02*
X19200000Y-9920000D01*
X19180000Y-9900000D02*
X19220000Y-9900000D01*
X19201104Y-8900000D02*
X19201104Y-8940000D01*
X19181104Y-8920000D02*
X19221104Y-8920000D01*
X19201104Y-12500000D02*
X19201104Y-12540000D01*
X19181104Y-12520000D02*
X19221104Y-12520000D01*
X19280000Y-6660000D02*
X19280000Y-6700000D01*
X19260000Y-6680000D02*
X19300000Y-6680000D01*
X19280000Y-10260000D02*
X19280000Y-10300000D01*
X19260000Y-10280000D02*
X19300000Y-10280000D01*
X19300000Y-6200000D02*
X19300000Y-6240000D01*
X19280000Y-6220000D02*
X19320000Y-6220000D01*
X19300000Y-9800000D02*
X19300000Y-9840000D01*
X19280000Y-9820000D02*
X19320000Y-9820000D01*
X19323800Y-7767640D02*
X19323800Y-7807640D01*
X19303800Y-7787640D02*
X19343800Y-7787640D01*
X19323800Y-11367640D02*
X19323800Y-11407640D01*
X19303800Y-11387640D02*
X19343800Y-11387640D01*
X19330000Y-8910000D02*
X19330000Y-8950000D01*
X19310000Y-8930000D02*
X19350000Y-8930000D01*
X19330000Y-12510000D02*
X19330000Y-12550000D01*
X19310000Y-12530000D02*
X19350000Y-12530000D01*
X19350000Y-6330000D02*
X19350000Y-6370000D01*
X19330000Y-6350000D02*
X19370000Y-6350000D01*
X19350000Y-9130000D02*
X19350000Y-9170000D01*
X19330000Y-9150000D02*
X19370000Y-9150000D01*
X19350000Y-9930000D02*
X19350000Y-9970000D01*
X19330000Y-9950000D02*
X19370000Y-9950000D01*
X19350000Y-12730000D02*
X19350000Y-12770000D01*
X19330000Y-12750000D02*
X19370000Y-12750000D01*
X19354608Y-7107128D02*
X19354608Y-7147128D01*
X19334608Y-7127128D02*
X19374608Y-7127128D01*
X19354608Y-10707128D02*
X19354608Y-10747128D01*
X19334608Y-10727128D02*
X19374608Y-10727128D01*
X19359360Y-6495290D02*
X19359360Y-6535290D01*
X19339360Y-6515290D02*
X19379360Y-6515290D01*
X19359360Y-10095290D02*
X19359360Y-10135290D01*
X19339360Y-10115290D02*
X19379360Y-10115290D01*
X19377140Y-7340260D02*
X19377140Y-7380260D01*
X19357140Y-7360260D02*
X19397140Y-7360260D01*
X19377140Y-10940260D02*
X19377140Y-10980260D01*
X19357140Y-10960260D02*
X19397140Y-10960260D01*
X19400000Y-6230000D02*
X19400000Y-6270000D01*
X19380000Y-6250000D02*
X19420000Y-6250000D01*
X19400000Y-9830000D02*
X19400000Y-9870000D01*
X19380000Y-9850000D02*
X19420000Y-9850000D01*
X19420000Y-6040000D02*
X19420000Y-6080000D01*
X19400000Y-6060000D02*
X19440000Y-6060000D01*
X19420000Y-9640000D02*
X19420000Y-9680000D01*
X19400000Y-9660000D02*
X19440000Y-9660000D01*
X19425200Y-6879680D02*
X19425200Y-6919680D01*
X19405200Y-6899680D02*
X19445200Y-6899680D01*
X19425200Y-10479680D02*
X19425200Y-10519680D01*
X19405200Y-10499680D02*
X19445200Y-10499680D01*
X19428810Y-8018440D02*
X19428810Y-8058440D01*
X19408810Y-8038440D02*
X19448810Y-8038440D01*
X19428810Y-11618440D02*
X19428810Y-11658440D01*
X19408810Y-11638440D02*
X19448810Y-11638440D01*
X19470000Y-8910000D02*
X19470000Y-8950000D01*
X19450000Y-8930000D02*
X19490000Y-8930000D01*
X19470000Y-12510000D02*
X19470000Y-12550000D01*
X19450000Y-12530000D02*
X19490000Y-12530000D01*
X19500000Y-6130000D02*
X19500000Y-6170000D01*
X19480000Y-6150000D02*
X19520000Y-6150000D01*
X19500000Y-6280000D02*
X19500000Y-6320000D01*
X19480000Y-6300000D02*
X19520000Y-6300000D01*
X19500000Y-9730000D02*
X19500000Y-9770000D01*
X19480000Y-9750000D02*
X19520000Y-9750000D01*
X19500000Y-9880000D02*
X19500000Y-9920000D01*
X19480000Y-9900000D02*
X19520000Y-9900000D01*
X19524460Y-6912240D02*
X19524460Y-6952240D01*
X19504460Y-6932240D02*
X19544460Y-6932240D01*
X19524460Y-10512240D02*
X19524460Y-10552240D01*
X19504460Y-10532240D02*
X19544460Y-10532240D01*
X19550000Y-6430000D02*
X19550000Y-6470000D01*
X19530000Y-6450000D02*
X19570000Y-6450000D01*
X19550000Y-10030000D02*
X19550000Y-10070000D01*
X19530000Y-10050000D02*
X19570000Y-10050000D01*
X19588028Y-8404452D02*
X19588028Y-8444452D01*
X19568028Y-8424452D02*
X19608028Y-8424452D01*
X19588028Y-12004452D02*
X19588028Y-12044452D01*
X19568028Y-12024452D02*
X19608028Y-12024452D01*
X19590000Y-9100000D02*
X19590000Y-9140000D01*
X19570000Y-9120000D02*
X19610000Y-9120000D01*
X19590000Y-12700000D02*
X19590000Y-12740000D01*
X19570000Y-12720000D02*
X19610000Y-12720000D01*
X19630000Y-9370000D02*
X19630000Y-9410000D01*
X19610000Y-9390000D02*
X19650000Y-9390000D01*
X19630000Y-12970000D02*
X19630000Y-13010000D01*
X19610000Y-12990000D02*
X19650000Y-12990000D01*
X19640000Y-8970000D02*
X19640000Y-9010000D01*
X19620000Y-8990000D02*
X19660000Y-8990000D01*
X19640000Y-12570000D02*
X19640000Y-12610000D01*
X19620000Y-12590000D02*
X19660000Y-12590000D01*
X19646902Y-7004980D02*
X19646902Y-7044980D01*
X19626902Y-7024980D02*
X19666902Y-7024980D01*
X19646902Y-10604980D02*
X19646902Y-10644980D01*
X19626902Y-10624980D02*
X19666902Y-10624980D01*
X19649339Y-6379296D02*
X19649339Y-6419296D01*
X19629339Y-6399296D02*
X19669339Y-6399296D01*
X19649339Y-9979296D02*
X19649339Y-10019296D01*
X19629339Y-9999296D02*
X19669339Y-9999296D01*
X19650000Y-6080000D02*
X19650000Y-6120000D01*
X19630000Y-6100000D02*
X19670000Y-6100000D01*
X19650000Y-6230000D02*
X19650000Y-6270000D01*
X19630000Y-6250000D02*
X19670000Y-6250000D01*
X19650000Y-6530000D02*
X19650000Y-6570000D01*
X19630000Y-6550000D02*
X19670000Y-6550000D01*
X19650000Y-8480000D02*
X19650000Y-8520000D01*
X19630000Y-8500000D02*
X19670000Y-8500000D01*
X19650000Y-8630000D02*
X19650000Y-8670000D01*
X19630000Y-8650000D02*
X19670000Y-8650000D01*
X19650000Y-9680000D02*
X19650000Y-9720000D01*
X19630000Y-9700000D02*
X19670000Y-9700000D01*
X19650000Y-9830000D02*
X19650000Y-9870000D01*
X19630000Y-9850000D02*
X19670000Y-9850000D01*
X19650000Y-10130000D02*
X19650000Y-10170000D01*
X19630000Y-10150000D02*
X19670000Y-10150000D01*
X19650000Y-12080000D02*
X19650000Y-12120000D01*
X19630000Y-12100000D02*
X19670000Y-12100000D01*
X19650000Y-12230000D02*
X19650000Y-12270000D01*
X19630000Y-12250000D02*
X19670000Y-12250000D01*
X19687020Y-7304700D02*
X19687020Y-7344700D01*
X19667020Y-7324700D02*
X19707020Y-7324700D01*
X19687020Y-10904700D02*
X19687020Y-10944700D01*
X19667020Y-10924700D02*
X19707020Y-10924700D01*
X19800000Y-7930000D02*
X19800000Y-7970000D01*
X19780000Y-7950000D02*
X19820000Y-7950000D01*
X19800000Y-9420000D02*
X19800000Y-9460000D01*
X19780000Y-9440000D02*
X19820000Y-9440000D01*
X19800000Y-11530000D02*
X19800000Y-11570000D01*
X19780000Y-11550000D02*
X19820000Y-11550000D01*
X19800000Y-13020000D02*
X19800000Y-13060000D01*
X19780000Y-13040000D02*
X19820000Y-13040000D01*
X19816755Y-7047757D02*
X19816755Y-7087757D01*
X19796755Y-7067757D02*
X19836755Y-7067757D01*
X19816755Y-10647757D02*
X19816755Y-10687757D01*
X19796755Y-10667757D02*
X19836755Y-10667757D01*
X19860000Y-9260000D02*
X19860000Y-9300000D01*
X19840000Y-9280000D02*
X19880000Y-9280000D01*
X19860000Y-12860000D02*
X19860000Y-12900000D01*
X19840000Y-12880000D02*
X19880000Y-12880000D01*
X19880000Y-6460000D02*
X19880000Y-6500000D01*
X19860000Y-6480000D02*
X19900000Y-6480000D01*
X19880000Y-6560000D02*
X19880000Y-6600000D01*
X19860000Y-6580000D02*
X19900000Y-6580000D01*
X19880000Y-6960000D02*
X19880000Y-7000000D01*
X19860000Y-6980000D02*
X19900000Y-6980000D01*
X19880000Y-10060000D02*
X19880000Y-10100000D01*
X19860000Y-10080000D02*
X19900000Y-10080000D01*
X19880000Y-10160000D02*
X19880000Y-10200000D01*
X19860000Y-10180000D02*
X19900000Y-10180000D01*
X19880000Y-10560000D02*
X19880000Y-10600000D01*
X19860000Y-10580000D02*
X19900000Y-10580000D01*
X19880060Y-7883820D02*
X19880060Y-7923820D01*
X19860060Y-7903820D02*
X19900060Y-7903820D01*
X19880060Y-11483820D02*
X19880060Y-11523820D01*
X19860060Y-11503820D02*
X19900060Y-11503820D01*
X19900000Y-6030000D02*
X19900000Y-6070000D01*
X19880000Y-6050000D02*
X19920000Y-6050000D01*
X19900000Y-6130000D02*
X19900000Y-6170000D01*
X19880000Y-6150000D02*
X19920000Y-6150000D01*
X19900000Y-6280000D02*
X19900000Y-6320000D01*
X19880000Y-6300000D02*
X19920000Y-6300000D01*
X19900000Y-6740000D02*
X19900000Y-6780000D01*
X19880000Y-6760000D02*
X19920000Y-6760000D01*
X19900000Y-6840000D02*
X19900000Y-6880000D01*
X19880000Y-6860000D02*
X19920000Y-6860000D01*
X19900000Y-9060000D02*
X19900000Y-9100000D01*
X19880000Y-9080000D02*
X19920000Y-9080000D01*
X19900000Y-9630000D02*
X19900000Y-9670000D01*
X19880000Y-9650000D02*
X19920000Y-9650000D01*
X19900000Y-9730000D02*
X19900000Y-9770000D01*
X19880000Y-9750000D02*
X19920000Y-9750000D01*
X19900000Y-9880000D02*
X19900000Y-9920000D01*
X19880000Y-9900000D02*
X19920000Y-9900000D01*
X19900000Y-10340000D02*
X19900000Y-10380000D01*
X19880000Y-10360000D02*
X19920000Y-10360000D01*
X19900000Y-10440000D02*
X19900000Y-10480000D01*
X19880000Y-10460000D02*
X19920000Y-10460000D01*
X19900000Y-12660000D02*
X19900000Y-12700000D01*
X19880000Y-12680000D02*
X19920000Y-12680000D01*
X19933400Y-8804540D02*
X19933400Y-8844540D01*
X19913400Y-8824540D02*
X19953400Y-8824540D01*
X19933400Y-12404540D02*
X19933400Y-12444540D01*
X19913400Y-12424540D02*
X19953400Y-12424540D01*
X19973520Y-7438800D02*
X19973520Y-7478800D01*
X19953520Y-7458800D02*
X19993520Y-7458800D01*
X19973520Y-11038800D02*
X19973520Y-11078800D01*
X19953520Y-11058800D02*
X19993520Y-11058800D01*
X19980000Y-8360000D02*
X19980000Y-8400000D01*
X19960000Y-8380000D02*
X20000000Y-8380000D01*
X19980000Y-8560000D02*
X19980000Y-8600000D01*
X19960000Y-8580000D02*
X20000000Y-8580000D01*
X19980000Y-11960000D02*
X19980000Y-12000000D01*
X19960000Y-11980000D02*
X20000000Y-11980000D01*
X19980000Y-12160000D02*
X19980000Y-12200000D01*
X19960000Y-12180000D02*
X20000000Y-12180000D01*
X19991820Y-6212500D02*
X19991820Y-6252500D01*
X19971820Y-6232500D02*
X20011820Y-6232500D01*
X19991820Y-9812500D02*
X19991820Y-9852500D01*
X19971820Y-9832500D02*
X20011820Y-9832500D01*
X20012140Y-6324260D02*
X20012140Y-6364260D01*
X19992140Y-6344260D02*
X20032140Y-6344260D01*
X20012140Y-9924260D02*
X20012140Y-9964260D01*
X19992140Y-9944260D02*
X20032140Y-9944260D01*
X20017220Y-6740820D02*
X20017220Y-6780820D01*
X19997220Y-6760820D02*
X20037220Y-6760820D01*
X20017220Y-10340820D02*
X20017220Y-10380820D01*
X19997220Y-10360820D02*
X20037220Y-10360820D01*
X20050000Y-7223420D02*
X20050000Y-7263420D01*
X20030000Y-7243420D02*
X20070000Y-7243420D01*
X20050000Y-10823420D02*
X20050000Y-10863420D01*
X20030000Y-10843420D02*
X20070000Y-10843420D01*
X20054050Y-6067720D02*
X20054050Y-6107720D01*
X20034050Y-6087720D02*
X20074050Y-6087720D01*
X20054050Y-6141380D02*
X20054050Y-6181380D01*
X20034050Y-6161380D02*
X20074050Y-6161380D01*
X20054050Y-9667720D02*
X20054050Y-9707720D01*
X20034050Y-9687720D02*
X20074050Y-9687720D01*
X20054050Y-9741380D02*
X20054050Y-9781380D01*
X20034050Y-9761380D02*
X20074050Y-9761380D01*
X20080000Y-9220000D02*
X20080000Y-9260000D01*
X20060000Y-9240000D02*
X20100000Y-9240000D01*
X20080000Y-12820000D02*
X20080000Y-12860000D01*
X20060000Y-12840000D02*
X20100000Y-12840000D01*
X20099529Y-8428084D02*
X20099529Y-8468084D01*
X20079529Y-8448084D02*
X20119529Y-8448084D01*
X20099529Y-12028084D02*
X20099529Y-12068084D01*
X20079529Y-12048084D02*
X20119529Y-12048084D01*
X20100000Y-8280000D02*
X20100000Y-8320000D01*
X20080000Y-8300000D02*
X20120000Y-8300000D01*
X20100000Y-8580000D02*
X20100000Y-8620000D01*
X20080000Y-8600000D02*
X20120000Y-8600000D01*
X20100000Y-11880000D02*
X20100000Y-11920000D01*
X20080000Y-11900000D02*
X20120000Y-11900000D01*
X20100000Y-12180000D02*
X20100000Y-12220000D01*
X20080000Y-12200000D02*
X20120000Y-12200000D01*
X20180000Y-9100000D02*
X20180000Y-9140000D01*
X20160000Y-9120000D02*
X20200000Y-9120000D01*
X20180000Y-9380000D02*
X20180000Y-9420000D01*
X20160000Y-9400000D02*
X20200000Y-9400000D01*
X20180000Y-12700000D02*
X20180000Y-12740000D01*
X20160000Y-12720000D02*
X20200000Y-12720000D01*
X20180000Y-12980000D02*
X20180000Y-13020000D01*
X20160000Y-13000000D02*
X20200000Y-13000000D01*
X20218950Y-6080000D02*
X20218950Y-6120000D01*
X20198950Y-6100000D02*
X20238950Y-6100000D01*
X20218950Y-6151540D02*
X20218950Y-6191540D01*
X20198950Y-6171540D02*
X20238950Y-6171540D01*
X20218950Y-9680000D02*
X20218950Y-9720000D01*
X20198950Y-9700000D02*
X20238950Y-9700000D01*
X20218950Y-9751540D02*
X20218950Y-9791540D01*
X20198950Y-9771540D02*
X20238950Y-9771540D01*
X20229020Y-7017797D02*
X20229020Y-7057797D01*
X20209020Y-7037797D02*
X20249020Y-7037797D01*
X20229020Y-10617797D02*
X20229020Y-10657797D01*
X20209020Y-10637797D02*
X20249020Y-10637797D01*
X20250000Y-6210690D02*
X20250000Y-6250690D01*
X20230000Y-6230690D02*
X20270000Y-6230690D01*
X20250000Y-9810690D02*
X20250000Y-9850690D01*
X20230000Y-9830690D02*
X20270000Y-9830690D01*
X20300000Y-8280000D02*
X20300000Y-8320000D01*
X20280000Y-8300000D02*
X20320000Y-8300000D01*
X20300000Y-8430000D02*
X20300000Y-8470000D01*
X20280000Y-8450000D02*
X20320000Y-8450000D01*
X20300000Y-8580000D02*
X20300000Y-8620000D01*
X20280000Y-8600000D02*
X20320000Y-8600000D01*
X20300000Y-9220000D02*
X20300000Y-9260000D01*
X20280000Y-9240000D02*
X20320000Y-9240000D01*
X20300000Y-11880000D02*
X20300000Y-11920000D01*
X20280000Y-11900000D02*
X20320000Y-11900000D01*
X20300000Y-12030000D02*
X20300000Y-12070000D01*
X20280000Y-12050000D02*
X20320000Y-12050000D01*
X20300000Y-12180000D02*
X20300000Y-12220000D01*
X20280000Y-12200000D02*
X20320000Y-12200000D01*
X20300000Y-12820000D02*
X20300000Y-12860000D01*
X20280000Y-12840000D02*
X20320000Y-12840000D01*
X20440000Y-6160000D02*
X20440000Y-6200000D01*
X20420000Y-6180000D02*
X20460000Y-6180000D01*
X20440000Y-9760000D02*
X20440000Y-9800000D01*
X20420000Y-9780000D02*
X20460000Y-9780000D01*
X20450000Y-7130000D02*
X20450000Y-7170000D01*
X20430000Y-7150000D02*
X20470000Y-7150000D01*
X20450000Y-10730000D02*
X20450000Y-10770000D01*
X20430000Y-10750000D02*
X20470000Y-10750000D01*
X20468680Y-7690120D02*
X20468680Y-7730120D01*
X20448680Y-7710120D02*
X20488680Y-7710120D01*
X20468680Y-11290120D02*
X20468680Y-11330120D01*
X20448680Y-11310120D02*
X20488680Y-11310120D01*
X20492200Y-6080420D02*
X20492200Y-6120420D01*
X20472200Y-6100420D02*
X20512200Y-6100420D01*
X20492200Y-9680420D02*
X20492200Y-9720420D01*
X20472200Y-9700420D02*
X20512200Y-9700420D01*
X20512736Y-6158184D02*
X20512736Y-6198184D01*
X20492736Y-6178184D02*
X20532736Y-6178184D01*
X20512736Y-9758184D02*
X20512736Y-9798184D01*
X20492736Y-9778184D02*
X20532736Y-9778184D01*
X20520140Y-9070000D02*
X20520140Y-9110000D01*
X20500140Y-9090000D02*
X20540140Y-9090000D01*
X20520140Y-12670000D02*
X20520140Y-12710000D01*
X20500140Y-12690000D02*
X20540140Y-12690000D01*
X20550000Y-6530000D02*
X20550000Y-6570000D01*
X20530000Y-6550000D02*
X20570000Y-6550000D01*
X20550000Y-10130000D02*
X20550000Y-10170000D01*
X20530000Y-10150000D02*
X20570000Y-10150000D01*
X20600000Y-6180000D02*
X20600000Y-6220000D01*
X20580000Y-6200000D02*
X20620000Y-6200000D01*
X20600000Y-6330000D02*
X20600000Y-6370000D01*
X20580000Y-6350000D02*
X20620000Y-6350000D01*
X20600000Y-9230000D02*
X20600000Y-9270000D01*
X20580000Y-9250000D02*
X20620000Y-9250000D01*
X20600000Y-9780000D02*
X20600000Y-9820000D01*
X20580000Y-9800000D02*
X20620000Y-9800000D01*
X20600000Y-9930000D02*
X20600000Y-9970000D01*
X20580000Y-9950000D02*
X20620000Y-9950000D01*
X20600000Y-12830000D02*
X20600000Y-12870000D01*
X20580000Y-12850000D02*
X20620000Y-12850000D01*
X20619200Y-7490120D02*
X20619200Y-7530120D01*
X20599200Y-7510120D02*
X20639200Y-7510120D01*
X20619200Y-11090120D02*
X20619200Y-11130120D01*
X20599200Y-11110120D02*
X20639200Y-11110120D01*
X20650000Y-6680000D02*
X20650000Y-6720000D01*
X20630000Y-6700000D02*
X20670000Y-6700000D01*
X20650000Y-8730000D02*
X20650000Y-8770000D01*
X20630000Y-8750000D02*
X20670000Y-8750000D01*
X20650000Y-9380000D02*
X20650000Y-9420000D01*
X20630000Y-9400000D02*
X20670000Y-9400000D01*
X20650000Y-10280000D02*
X20650000Y-10320000D01*
X20630000Y-10300000D02*
X20670000Y-10300000D01*
X20650000Y-12330000D02*
X20650000Y-12370000D01*
X20630000Y-12350000D02*
X20670000Y-12350000D01*
X20650000Y-12980000D02*
X20650000Y-13020000D01*
X20630000Y-13000000D02*
X20670000Y-13000000D01*
X20700000Y-6080000D02*
X20700000Y-6120000D01*
X20680000Y-6100000D02*
X20720000Y-6100000D01*
X20700000Y-9680000D02*
X20700000Y-9720000D01*
X20680000Y-9700000D02*
X20720000Y-9700000D01*
D15*
X14514213Y-8868213D02*
X14514213Y-8825787D01*
X14471787Y-8825787D01*
X14471787Y-8868213D01*
X14514213Y-8868213D01*
D11*
X14513000Y-8902000D02*
X14513000Y-8792000D01*
X14473000Y-8902000D02*
X14473000Y-8792000D01*
X14513000Y-8792000D02*
G75*
G03*
X14473000Y-8792000I-20000J0D01*
G01*
X14473000Y-8902000D02*
G75*
G03*
X14513000Y-8902000I20000J0D01*
G01*
D15*
X14514213Y-9286213D02*
X14514213Y-9243787D01*
X14471787Y-9243787D01*
X14471787Y-9286213D01*
X14514213Y-9286213D01*
D11*
X14513000Y-9305000D02*
X14513000Y-9225000D01*
X14473000Y-9305000D02*
X14473000Y-9225000D01*
X14513000Y-9225000D02*
G75*
G03*
X14473000Y-9225000I-20000J0D01*
G01*
X14473000Y-9305000D02*
G75*
G03*
X14513000Y-9305000I20000J0D01*
G01*
D15*
X14514213Y-12468213D02*
X14514213Y-12425787D01*
X14471787Y-12425787D01*
X14471787Y-12468213D01*
X14514213Y-12468213D01*
D11*
X14513000Y-12502000D02*
X14513000Y-12392000D01*
X14473000Y-12502000D02*
X14473000Y-12392000D01*
X14513000Y-12392000D02*
G75*
G03*
X14473000Y-12392000I-20000J0D01*
G01*
X14473000Y-12502000D02*
G75*
G03*
X14513000Y-12502000I20000J0D01*
G01*
D15*
X14514213Y-12886213D02*
X14514213Y-12843787D01*
X14471787Y-12843787D01*
X14471787Y-12886213D01*
X14514213Y-12886213D01*
D11*
X14513000Y-12905000D02*
X14513000Y-12825000D01*
X14473000Y-12905000D02*
X14473000Y-12825000D01*
X14513000Y-12825000D02*
G75*
G03*
X14473000Y-12825000I-20000J0D01*
G01*
X14473000Y-12905000D02*
G75*
G03*
X14513000Y-12905000I20000J0D01*
G01*
D15*
X15378213Y-8868213D02*
X15378213Y-8825787D01*
X15335787Y-8825787D01*
X15335787Y-8868213D01*
X15378213Y-8868213D01*
D11*
X15377000Y-8902000D02*
X15377000Y-8792000D01*
X15337000Y-8902000D02*
X15337000Y-8792000D01*
X15377000Y-8792000D02*
G75*
G03*
X15337000Y-8792000I-20000J0D01*
G01*
X15337000Y-8902000D02*
G75*
G03*
X15377000Y-8902000I20000J0D01*
G01*
D15*
X15378213Y-9286213D02*
X15378213Y-9243787D01*
X15335787Y-9243787D01*
X15335787Y-9286213D01*
X15378213Y-9286213D01*
D11*
X15377000Y-9305000D02*
X15377000Y-9225000D01*
X15337000Y-9305000D02*
X15337000Y-9225000D01*
X15377000Y-9225000D02*
G75*
G03*
X15337000Y-9225000I-20000J0D01*
G01*
X15337000Y-9305000D02*
G75*
G03*
X15377000Y-9305000I20000J0D01*
G01*
D15*
X15378213Y-12468213D02*
X15378213Y-12425787D01*
X15335787Y-12425787D01*
X15335787Y-12468213D01*
X15378213Y-12468213D01*
D11*
X15377000Y-12502000D02*
X15377000Y-12392000D01*
X15337000Y-12502000D02*
X15337000Y-12392000D01*
X15377000Y-12392000D02*
G75*
G03*
X15337000Y-12392000I-20000J0D01*
G01*
X15337000Y-12502000D02*
G75*
G03*
X15377000Y-12502000I20000J0D01*
G01*
D15*
X15378213Y-12886213D02*
X15378213Y-12843787D01*
X15335787Y-12843787D01*
X15335787Y-12886213D01*
X15378213Y-12886213D01*
D11*
X15377000Y-12905000D02*
X15377000Y-12825000D01*
X15337000Y-12905000D02*
X15337000Y-12825000D01*
X15377000Y-12825000D02*
G75*
G03*
X15337000Y-12825000I-20000J0D01*
G01*
X15337000Y-12905000D02*
G75*
G03*
X15377000Y-12905000I20000J0D01*
G01*
D15*
X18914213Y-8868213D02*
X18914213Y-8825787D01*
X18871787Y-8825787D01*
X18871787Y-8868213D01*
X18914213Y-8868213D01*
D11*
X18913000Y-8902000D02*
X18913000Y-8792000D01*
X18873000Y-8902000D02*
X18873000Y-8792000D01*
X18913000Y-8792000D02*
G75*
G03*
X18873000Y-8792000I-20000J0D01*
G01*
X18873000Y-8902000D02*
G75*
G03*
X18913000Y-8902000I20000J0D01*
G01*
D15*
X18914213Y-9286213D02*
X18914213Y-9243787D01*
X18871787Y-9243787D01*
X18871787Y-9286213D01*
X18914213Y-9286213D01*
D11*
X18913000Y-9305000D02*
X18913000Y-9225000D01*
X18873000Y-9305000D02*
X18873000Y-9225000D01*
X18913000Y-9225000D02*
G75*
G03*
X18873000Y-9225000I-20000J0D01*
G01*
X18873000Y-9305000D02*
G75*
G03*
X18913000Y-9305000I20000J0D01*
G01*
D15*
X18914213Y-12468213D02*
X18914213Y-12425787D01*
X18871787Y-12425787D01*
X18871787Y-12468213D01*
X18914213Y-12468213D01*
D11*
X18913000Y-12502000D02*
X18913000Y-12392000D01*
X18873000Y-12502000D02*
X18873000Y-12392000D01*
X18913000Y-12392000D02*
G75*
G03*
X18873000Y-12392000I-20000J0D01*
G01*
X18873000Y-12502000D02*
G75*
G03*
X18913000Y-12502000I20000J0D01*
G01*
D15*
X18914213Y-12886213D02*
X18914213Y-12843787D01*
X18871787Y-12843787D01*
X18871787Y-12886213D01*
X18914213Y-12886213D01*
D11*
X18913000Y-12905000D02*
X18913000Y-12825000D01*
X18873000Y-12905000D02*
X18873000Y-12825000D01*
X18913000Y-12825000D02*
G75*
G03*
X18873000Y-12825000I-20000J0D01*
G01*
X18873000Y-12905000D02*
G75*
G03*
X18913000Y-12905000I20000J0D01*
G01*
D15*
X19778213Y-8868213D02*
X19778213Y-8825787D01*
X19735787Y-8825787D01*
X19735787Y-8868213D01*
X19778213Y-8868213D01*
D11*
X19777000Y-8902000D02*
X19777000Y-8792000D01*
X19737000Y-8902000D02*
X19737000Y-8792000D01*
X19777000Y-8792000D02*
G75*
G03*
X19737000Y-8792000I-20000J0D01*
G01*
X19737000Y-8902000D02*
G75*
G03*
X19777000Y-8902000I20000J0D01*
G01*
D15*
X19778213Y-9286213D02*
X19778213Y-9243787D01*
X19735787Y-9243787D01*
X19735787Y-9286213D01*
X19778213Y-9286213D01*
D11*
X19777000Y-9305000D02*
X19777000Y-9225000D01*
X19737000Y-9305000D02*
X19737000Y-9225000D01*
X19777000Y-9225000D02*
G75*
G03*
X19737000Y-9225000I-20000J0D01*
G01*
X19737000Y-9305000D02*
G75*
G03*
X19777000Y-9305000I20000J0D01*
G01*
D15*
X19778213Y-12468213D02*
X19778213Y-12425787D01*
X19735787Y-12425787D01*
X19735787Y-12468213D01*
X19778213Y-12468213D01*
D11*
X19777000Y-12502000D02*
X19777000Y-12392000D01*
X19737000Y-12502000D02*
X19737000Y-12392000D01*
X19777000Y-12392000D02*
G75*
G03*
X19737000Y-12392000I-20000J0D01*
G01*
X19737000Y-12502000D02*
G75*
G03*
X19777000Y-12502000I20000J0D01*
G01*
D15*
X19778213Y-12886213D02*
X19778213Y-12843787D01*
X19735787Y-12843787D01*
X19735787Y-12886213D01*
X19778213Y-12886213D01*
D11*
X19777000Y-12905000D02*
X19777000Y-12825000D01*
X19737000Y-12905000D02*
X19737000Y-12825000D01*
X19777000Y-12825000D02*
G75*
G03*
X19737000Y-12825000I-20000J0D01*
G01*
X19737000Y-12905000D02*
G75*
G03*
X19777000Y-12905000I20000J0D01*
G01*
D16*
X13083620Y-8868420D02*
X13121120Y-8830920D01*
X13083620Y-8793420D01*
X13046120Y-8830920D01*
X13083620Y-8868420D01*
X13083620Y-12468420D02*
X13121120Y-12430920D01*
X13083620Y-12393420D01*
X13046120Y-12430920D01*
X13083620Y-12468420D01*
X13283620Y-8868420D02*
X13321120Y-8830920D01*
X13283620Y-8793420D01*
X13246120Y-8830920D01*
X13283620Y-8868420D01*
X13283620Y-12468420D02*
X13321120Y-12430920D01*
X13283620Y-12393420D01*
X13246120Y-12430920D01*
X13283620Y-12468420D01*
X13483620Y-8868420D02*
X13521120Y-8830920D01*
X13483620Y-8793420D01*
X13446120Y-8830920D01*
X13483620Y-8868420D01*
X13483620Y-12468420D02*
X13521120Y-12430920D01*
X13483620Y-12393420D01*
X13446120Y-12430920D01*
X13483620Y-12468420D01*
X17483620Y-8868420D02*
X17521120Y-8830920D01*
X17483620Y-8793420D01*
X17446120Y-8830920D01*
X17483620Y-8868420D01*
X17483620Y-12468420D02*
X17521120Y-12430920D01*
X17483620Y-12393420D01*
X17446120Y-12430920D01*
X17483620Y-12468420D01*
X17683620Y-8868420D02*
X17721120Y-8830920D01*
X17683620Y-8793420D01*
X17646120Y-8830920D01*
X17683620Y-8868420D01*
X17683620Y-12468420D02*
X17721120Y-12430920D01*
X17683620Y-12393420D01*
X17646120Y-12430920D01*
X17683620Y-12468420D01*
X17883620Y-8868420D02*
X17921120Y-8830920D01*
X17883620Y-8793420D01*
X17846120Y-8830920D01*
X17883620Y-8868420D01*
X17883620Y-12468420D02*
X17921120Y-12430920D01*
X17883620Y-12393420D01*
X17846120Y-12430920D01*
X17883620Y-12468420D01*
D17*
X14603500Y-8864500D02*
X14668500Y-8929500D01*
X14668500Y-8864500D02*
X14603500Y-8929500D01*
X14668500Y-8897000D02*
G75*
G03*
X14668500Y-8897000I-32500J0D01*
G01*
X14603500Y-12464500D02*
X14668500Y-12529500D01*
X14668500Y-12464500D02*
X14603500Y-12529500D01*
X14668500Y-12497000D02*
G75*
G03*
X14668500Y-12497000I-32500J0D01*
G01*
X15181500Y-8864500D02*
X15246500Y-8929500D01*
X15246500Y-8864500D02*
X15181500Y-8929500D01*
X15246500Y-8897000D02*
G75*
G03*
X15246500Y-8897000I-32500J0D01*
G01*
X15181500Y-12464500D02*
X15246500Y-12529500D01*
X15246500Y-12464500D02*
X15181500Y-12529500D01*
X15246500Y-12497000D02*
G75*
G03*
X15246500Y-12497000I-32500J0D01*
G01*
X19003500Y-8864500D02*
X19068500Y-8929500D01*
X19068500Y-8864500D02*
X19003500Y-8929500D01*
X19068500Y-8897000D02*
G75*
G03*
X19068500Y-8897000I-32500J0D01*
G01*
X19003500Y-12464500D02*
X19068500Y-12529500D01*
X19068500Y-12464500D02*
X19003500Y-12529500D01*
X19068500Y-12497000D02*
G75*
G03*
X19068500Y-12497000I-32500J0D01*
G01*
X19581500Y-8864500D02*
X19646500Y-8929500D01*
X19646500Y-8864500D02*
X19581500Y-8929500D01*
X19646500Y-8897000D02*
G75*
G03*
X19646500Y-8897000I-32500J0D01*
G01*
X19581500Y-12464500D02*
X19646500Y-12529500D01*
X19646500Y-12464500D02*
X19581500Y-12529500D01*
X19646500Y-12497000D02*
G75*
G03*
X19646500Y-12497000I-32500J0D01*
G01*
D18*
X12490000Y-6290000D02*
X12710000Y-6510000D01*
X12710000Y-6290000D02*
X12490000Y-6510000D01*
X12600000Y-6290000D02*
X12600000Y-6510000D01*
X12490000Y-6400000D02*
X12710000Y-6400000D01*
X12490000Y-8990000D02*
X12710000Y-9210000D01*
X12710000Y-8990000D02*
X12490000Y-9210000D01*
X12600000Y-8990000D02*
X12600000Y-9210000D01*
X12490000Y-9100000D02*
X12710000Y-9100000D01*
X12490000Y-9890000D02*
X12710000Y-10110000D01*
X12710000Y-9890000D02*
X12490000Y-10110000D01*
X12600000Y-9890000D02*
X12600000Y-10110000D01*
X12490000Y-10000000D02*
X12710000Y-10000000D01*
X12490000Y-12590000D02*
X12710000Y-12810000D01*
X12710000Y-12590000D02*
X12490000Y-12810000D01*
X12600000Y-12590000D02*
X12600000Y-12810000D01*
X12490000Y-12700000D02*
X12710000Y-12700000D01*
X16290000Y-6282520D02*
X16510000Y-6502520D01*
X16510000Y-6282520D02*
X16290000Y-6502520D01*
X16400000Y-6282520D02*
X16400000Y-6502520D01*
X16290000Y-6392520D02*
X16510000Y-6392520D01*
X16290000Y-8990000D02*
X16510000Y-9210000D01*
X16510000Y-8990000D02*
X16290000Y-9210000D01*
X16400000Y-8990000D02*
X16400000Y-9210000D01*
X16290000Y-9100000D02*
X16510000Y-9100000D01*
X16290000Y-8990000D02*
X16510000Y-9210000D01*
X16510000Y-8990000D02*
X16290000Y-9210000D01*
X16400000Y-8990000D02*
X16400000Y-9210000D01*
X16290000Y-9100000D02*
X16510000Y-9100000D01*
X16290000Y-9882520D02*
X16510000Y-10102520D01*
X16510000Y-9882520D02*
X16290000Y-10102520D01*
X16400000Y-9882520D02*
X16400000Y-10102520D01*
X16290000Y-9992520D02*
X16510000Y-9992520D01*
X16290000Y-12590000D02*
X16510000Y-12810000D01*
X16510000Y-12590000D02*
X16290000Y-12810000D01*
X16400000Y-12590000D02*
X16400000Y-12810000D01*
X16290000Y-12700000D02*
X16510000Y-12700000D01*
X16290000Y-12590000D02*
X16510000Y-12810000D01*
X16510000Y-12590000D02*
X16290000Y-12810000D01*
X16400000Y-12590000D02*
X16400000Y-12810000D01*
X16290000Y-12700000D02*
X16510000Y-12700000D01*
X16890000Y-6290000D02*
X17110000Y-6510000D01*
X17110000Y-6290000D02*
X16890000Y-6510000D01*
X17000000Y-6290000D02*
X17000000Y-6510000D01*
X16890000Y-6400000D02*
X17110000Y-6400000D01*
X16890000Y-8990000D02*
X17110000Y-9210000D01*
X17110000Y-8990000D02*
X16890000Y-9210000D01*
X17000000Y-8990000D02*
X17000000Y-9210000D01*
X16890000Y-9100000D02*
X17110000Y-9100000D01*
X16890000Y-9890000D02*
X17110000Y-10110000D01*
X17110000Y-9890000D02*
X16890000Y-10110000D01*
X17000000Y-9890000D02*
X17000000Y-10110000D01*
X16890000Y-10000000D02*
X17110000Y-10000000D01*
X16890000Y-12590000D02*
X17110000Y-12810000D01*
X17110000Y-12590000D02*
X16890000Y-12810000D01*
X17000000Y-12590000D02*
X17000000Y-12810000D01*
X16890000Y-12700000D02*
X17110000Y-12700000D01*
X20690000Y-6282520D02*
X20910000Y-6502520D01*
X20910000Y-6282520D02*
X20690000Y-6502520D01*
X20800000Y-6282520D02*
X20800000Y-6502520D01*
X20690000Y-6392520D02*
X20910000Y-6392520D01*
X20690000Y-8990000D02*
X20910000Y-9210000D01*
X20910000Y-8990000D02*
X20690000Y-9210000D01*
X20800000Y-8990000D02*
X20800000Y-9210000D01*
X20690000Y-9100000D02*
X20910000Y-9100000D01*
X20690000Y-8990000D02*
X20910000Y-9210000D01*
X20910000Y-8990000D02*
X20690000Y-9210000D01*
X20800000Y-8990000D02*
X20800000Y-9210000D01*
X20690000Y-9100000D02*
X20910000Y-9100000D01*
X20690000Y-9882520D02*
X20910000Y-10102520D01*
X20910000Y-9882520D02*
X20690000Y-10102520D01*
X20800000Y-9882520D02*
X20800000Y-10102520D01*
X20690000Y-9992520D02*
X20910000Y-9992520D01*
X20690000Y-12590000D02*
X20910000Y-12810000D01*
X20910000Y-12590000D02*
X20690000Y-12810000D01*
X20800000Y-12590000D02*
X20800000Y-12810000D01*
X20690000Y-12700000D02*
X20910000Y-12700000D01*
X20690000Y-12590000D02*
X20910000Y-12810000D01*
X20910000Y-12590000D02*
X20690000Y-12810000D01*
X20800000Y-12590000D02*
X20800000Y-12810000D01*
X20690000Y-12700000D02*
X20910000Y-12700000D01*
D11*
X12555119Y-13412976D02*
X12555119Y-13212976D01*
X12602738Y-13212976D01*
X12631309Y-13222500D01*
X12650357Y-13241548D01*
X12659881Y-13260595D01*
X12669405Y-13298690D01*
X12669405Y-13327262D01*
X12659881Y-13365357D01*
X12650357Y-13384405D01*
X12631309Y-13403452D01*
X12602738Y-13412976D01*
X12555119Y-13412976D01*
X12755119Y-13412976D02*
X12755119Y-13279643D01*
X12755119Y-13317738D02*
X12764643Y-13298690D01*
X12774167Y-13289167D01*
X12793214Y-13279643D01*
X12812262Y-13279643D01*
X12878928Y-13412976D02*
X12878928Y-13279643D01*
X12878928Y-13212976D02*
X12869405Y-13222500D01*
X12878928Y-13232024D01*
X12888452Y-13222500D01*
X12878928Y-13212976D01*
X12878928Y-13232024D01*
X13002738Y-13412976D02*
X12983690Y-13403452D01*
X12974167Y-13384405D01*
X12974167Y-13212976D01*
X13107500Y-13412976D02*
X13088452Y-13403452D01*
X13078928Y-13384405D01*
X13078928Y-13212976D01*
X13336071Y-13412976D02*
X13336071Y-13212976D01*
X13402738Y-13355833D01*
X13469405Y-13212976D01*
X13469405Y-13412976D01*
X13650357Y-13412976D02*
X13650357Y-13308214D01*
X13640833Y-13289167D01*
X13621786Y-13279643D01*
X13583690Y-13279643D01*
X13564643Y-13289167D01*
X13650357Y-13403452D02*
X13631309Y-13412976D01*
X13583690Y-13412976D01*
X13564643Y-13403452D01*
X13555119Y-13384405D01*
X13555119Y-13365357D01*
X13564643Y-13346309D01*
X13583690Y-13336786D01*
X13631309Y-13336786D01*
X13650357Y-13327262D01*
X13745595Y-13279643D02*
X13745595Y-13479643D01*
X13745595Y-13289167D02*
X13764643Y-13279643D01*
X13802738Y-13279643D01*
X13821786Y-13289167D01*
X13831309Y-13298690D01*
X13840833Y-13317738D01*
X13840833Y-13374881D01*
X13831309Y-13393928D01*
X13821786Y-13403452D01*
X13802738Y-13412976D01*
X13764643Y-13412976D01*
X13745595Y-13403452D01*
X13926548Y-13393928D02*
X13936071Y-13403452D01*
X13926548Y-13412976D01*
X13917024Y-13403452D01*
X13926548Y-13393928D01*
X13926548Y-13412976D01*
X13926548Y-13289167D02*
X13936071Y-13298690D01*
X13926548Y-13308214D01*
X13917024Y-13298690D01*
X13926548Y-13289167D01*
X13926548Y-13308214D01*
D12*
X12277500Y-13732500D02*
X12297500Y-13752500D01*
X12297500Y-13732500D02*
X12277500Y-13752500D01*
D11*
X12593214Y-13632976D02*
X12612262Y-13632976D01*
X12631309Y-13642500D01*
X12640833Y-13652024D01*
X12650357Y-13671071D01*
X12659881Y-13709167D01*
X12659881Y-13756786D01*
X12650357Y-13794881D01*
X12640833Y-13813928D01*
X12631309Y-13823452D01*
X12612262Y-13832976D01*
X12593214Y-13832976D01*
X12574167Y-13823452D01*
X12564643Y-13813928D01*
X12555119Y-13794881D01*
X12545595Y-13756786D01*
X12545595Y-13709167D01*
X12555119Y-13671071D01*
X12564643Y-13652024D01*
X12574167Y-13642500D01*
X12593214Y-13632976D01*
X12745595Y-13813928D02*
X12755119Y-13823452D01*
X12745595Y-13832976D01*
X12736071Y-13823452D01*
X12745595Y-13813928D01*
X12745595Y-13832976D01*
X12831309Y-13652024D02*
X12840833Y-13642500D01*
X12859881Y-13632976D01*
X12907500Y-13632976D01*
X12926548Y-13642500D01*
X12936071Y-13652024D01*
X12945595Y-13671071D01*
X12945595Y-13690119D01*
X12936071Y-13718690D01*
X12821786Y-13832976D01*
X12945595Y-13832976D01*
X13069405Y-13632976D02*
X13088452Y-13632976D01*
X13107500Y-13642500D01*
X13117024Y-13652024D01*
X13126548Y-13671071D01*
X13136071Y-13709167D01*
X13136071Y-13756786D01*
X13126548Y-13794881D01*
X13117024Y-13813928D01*
X13107500Y-13823452D01*
X13088452Y-13832976D01*
X13069405Y-13832976D01*
X13050357Y-13823452D01*
X13040833Y-13813928D01*
X13031309Y-13794881D01*
X13021786Y-13756786D01*
X13021786Y-13709167D01*
X13031309Y-13671071D01*
X13040833Y-13652024D01*
X13050357Y-13642500D01*
X13069405Y-13632976D01*
X13259881Y-13632976D02*
X13278928Y-13632976D01*
X13297976Y-13642500D01*
X13307500Y-13652024D01*
X13317024Y-13671071D01*
X13326548Y-13709167D01*
X13326548Y-13756786D01*
X13317024Y-13794881D01*
X13307500Y-13813928D01*
X13297976Y-13823452D01*
X13278928Y-13832976D01*
X13259881Y-13832976D01*
X13240833Y-13823452D01*
X13231309Y-13813928D01*
X13221786Y-13794881D01*
X13212262Y-13756786D01*
X13212262Y-13709167D01*
X13221786Y-13671071D01*
X13231309Y-13652024D01*
X13240833Y-13642500D01*
X13259881Y-13632976D01*
X13412262Y-13832976D02*
X13412262Y-13699643D01*
X13412262Y-13718690D02*
X13421786Y-13709167D01*
X13440833Y-13699643D01*
X13469405Y-13699643D01*
X13488452Y-13709167D01*
X13497976Y-13728214D01*
X13497976Y-13832976D01*
X13497976Y-13728214D02*
X13507500Y-13709167D01*
X13526548Y-13699643D01*
X13555119Y-13699643D01*
X13574167Y-13709167D01*
X13583690Y-13728214D01*
X13583690Y-13832976D01*
X13678928Y-13832976D02*
X13678928Y-13699643D01*
X13678928Y-13718690D02*
X13688452Y-13709167D01*
X13707500Y-13699643D01*
X13736071Y-13699643D01*
X13755119Y-13709167D01*
X13764643Y-13728214D01*
X13764643Y-13832976D01*
X13764643Y-13728214D02*
X13774167Y-13709167D01*
X13793214Y-13699643D01*
X13821786Y-13699643D01*
X13840833Y-13709167D01*
X13850357Y-13728214D01*
X13850357Y-13832976D01*
X14240833Y-13623452D02*
X14069405Y-13880595D01*
X14497976Y-13632976D02*
X14517024Y-13632976D01*
X14536071Y-13642500D01*
X14545595Y-13652024D01*
X14555119Y-13671071D01*
X14564643Y-13709167D01*
X14564643Y-13756786D01*
X14555119Y-13794881D01*
X14545595Y-13813928D01*
X14536071Y-13823452D01*
X14517024Y-13832976D01*
X14497976Y-13832976D01*
X14478928Y-13823452D01*
X14469405Y-13813928D01*
X14459881Y-13794881D01*
X14450357Y-13756786D01*
X14450357Y-13709167D01*
X14459881Y-13671071D01*
X14469405Y-13652024D01*
X14478928Y-13642500D01*
X14497976Y-13632976D01*
X14650357Y-13813928D02*
X14659881Y-13823452D01*
X14650357Y-13832976D01*
X14640833Y-13823452D01*
X14650357Y-13813928D01*
X14650357Y-13832976D01*
X14783690Y-13632976D02*
X14802738Y-13632976D01*
X14821786Y-13642500D01*
X14831309Y-13652024D01*
X14840833Y-13671071D01*
X14850357Y-13709167D01*
X14850357Y-13756786D01*
X14840833Y-13794881D01*
X14831309Y-13813928D01*
X14821786Y-13823452D01*
X14802738Y-13832976D01*
X14783690Y-13832976D01*
X14764643Y-13823452D01*
X14755119Y-13813928D01*
X14745595Y-13794881D01*
X14736071Y-13756786D01*
X14736071Y-13709167D01*
X14745595Y-13671071D01*
X14755119Y-13652024D01*
X14764643Y-13642500D01*
X14783690Y-13632976D01*
X14974167Y-13632976D02*
X14993214Y-13632976D01*
X15012262Y-13642500D01*
X15021786Y-13652024D01*
X15031309Y-13671071D01*
X15040833Y-13709167D01*
X15040833Y-13756786D01*
X15031309Y-13794881D01*
X15021786Y-13813928D01*
X15012262Y-13823452D01*
X14993214Y-13832976D01*
X14974167Y-13832976D01*
X14955119Y-13823452D01*
X14945595Y-13813928D01*
X14936071Y-13794881D01*
X14926548Y-13756786D01*
X14926548Y-13709167D01*
X14936071Y-13671071D01*
X14945595Y-13652024D01*
X14955119Y-13642500D01*
X14974167Y-13632976D01*
X15107500Y-13632976D02*
X15240833Y-13632976D01*
X15155119Y-13832976D01*
X15326548Y-13832976D02*
X15364643Y-13832976D01*
X15383690Y-13823452D01*
X15393214Y-13813928D01*
X15412262Y-13785357D01*
X15421786Y-13747262D01*
X15421786Y-13671071D01*
X15412262Y-13652024D01*
X15402738Y-13642500D01*
X15383690Y-13632976D01*
X15345595Y-13632976D01*
X15326548Y-13642500D01*
X15317024Y-13652024D01*
X15307500Y-13671071D01*
X15307500Y-13718690D01*
X15317024Y-13737738D01*
X15326548Y-13747262D01*
X15345595Y-13756786D01*
X15383690Y-13756786D01*
X15402738Y-13747262D01*
X15412262Y-13737738D01*
X15421786Y-13718690D01*
X15497976Y-13632976D02*
X15497976Y-13671071D01*
X15574167Y-13632976D02*
X15574167Y-13671071D01*
X15869405Y-13909167D02*
X15859881Y-13899643D01*
X15840833Y-13871071D01*
X15831309Y-13852024D01*
X15821786Y-13823452D01*
X15812262Y-13775833D01*
X15812262Y-13737738D01*
X15821786Y-13690119D01*
X15831309Y-13661548D01*
X15840833Y-13642500D01*
X15859881Y-13613928D01*
X15869405Y-13604405D01*
X16031309Y-13699643D02*
X16031309Y-13832976D01*
X15983690Y-13623452D02*
X15936071Y-13766309D01*
X16059881Y-13766309D01*
X16174167Y-13632976D02*
X16193214Y-13632976D01*
X16212262Y-13642500D01*
X16221786Y-13652024D01*
X16231309Y-13671071D01*
X16240833Y-13709167D01*
X16240833Y-13756786D01*
X16231309Y-13794881D01*
X16221786Y-13813928D01*
X16212262Y-13823452D01*
X16193214Y-13832976D01*
X16174167Y-13832976D01*
X16155119Y-13823452D01*
X16145595Y-13813928D01*
X16136071Y-13794881D01*
X16126548Y-13756786D01*
X16126548Y-13709167D01*
X16136071Y-13671071D01*
X16145595Y-13652024D01*
X16155119Y-13642500D01*
X16174167Y-13632976D01*
X16478928Y-13832976D02*
X16478928Y-13632976D01*
X16564643Y-13832976D02*
X16564643Y-13728214D01*
X16555119Y-13709167D01*
X16536071Y-13699643D01*
X16507500Y-13699643D01*
X16488452Y-13709167D01*
X16478928Y-13718690D01*
X16688452Y-13832976D02*
X16669405Y-13823452D01*
X16659881Y-13813928D01*
X16650357Y-13794881D01*
X16650357Y-13737738D01*
X16659881Y-13718690D01*
X16669405Y-13709167D01*
X16688452Y-13699643D01*
X16717024Y-13699643D01*
X16736071Y-13709167D01*
X16745595Y-13718690D01*
X16755119Y-13737738D01*
X16755119Y-13794881D01*
X16745595Y-13813928D01*
X16736071Y-13823452D01*
X16717024Y-13832976D01*
X16688452Y-13832976D01*
X16869405Y-13832976D02*
X16850357Y-13823452D01*
X16840833Y-13804405D01*
X16840833Y-13632976D01*
X17021786Y-13823452D02*
X17002738Y-13832976D01*
X16964643Y-13832976D01*
X16945595Y-13823452D01*
X16936071Y-13804405D01*
X16936071Y-13728214D01*
X16945595Y-13709167D01*
X16964643Y-13699643D01*
X17002738Y-13699643D01*
X17021786Y-13709167D01*
X17031310Y-13728214D01*
X17031310Y-13747262D01*
X16936071Y-13766309D01*
X17107500Y-13823452D02*
X17126548Y-13832976D01*
X17164643Y-13832976D01*
X17183690Y-13823452D01*
X17193214Y-13804405D01*
X17193214Y-13794881D01*
X17183690Y-13775833D01*
X17164643Y-13766309D01*
X17136071Y-13766309D01*
X17117024Y-13756786D01*
X17107500Y-13737738D01*
X17107500Y-13728214D01*
X17117024Y-13709167D01*
X17136071Y-13699643D01*
X17164643Y-13699643D01*
X17183690Y-13709167D01*
X17259881Y-13909167D02*
X17269405Y-13899643D01*
X17288452Y-13871071D01*
X17297976Y-13852024D01*
X17307500Y-13823452D01*
X17317024Y-13775833D01*
X17317024Y-13737738D01*
X17307500Y-13690119D01*
X17297976Y-13661548D01*
X17288452Y-13642500D01*
X17269405Y-13613928D01*
X17259881Y-13604405D01*
D13*
X12297500Y-14006500D02*
G75*
G03*
X12297500Y-14006500I-17500J0D01*
G01*
D11*
X12593214Y-13896976D02*
X12612262Y-13896976D01*
X12631309Y-13906500D01*
X12640833Y-13916024D01*
X12650357Y-13935071D01*
X12659881Y-13973167D01*
X12659881Y-14020786D01*
X12650357Y-14058881D01*
X12640833Y-14077928D01*
X12631309Y-14087452D01*
X12612262Y-14096976D01*
X12593214Y-14096976D01*
X12574167Y-14087452D01*
X12564643Y-14077928D01*
X12555119Y-14058881D01*
X12545595Y-14020786D01*
X12545595Y-13973167D01*
X12555119Y-13935071D01*
X12564643Y-13916024D01*
X12574167Y-13906500D01*
X12593214Y-13896976D01*
X12745595Y-14077928D02*
X12755119Y-14087452D01*
X12745595Y-14096976D01*
X12736071Y-14087452D01*
X12745595Y-14077928D01*
X12745595Y-14096976D01*
X12821786Y-13896976D02*
X12945595Y-13896976D01*
X12878928Y-13973167D01*
X12907500Y-13973167D01*
X12926548Y-13982690D01*
X12936071Y-13992214D01*
X12945595Y-14011262D01*
X12945595Y-14058881D01*
X12936071Y-14077928D01*
X12926548Y-14087452D01*
X12907500Y-14096976D01*
X12850357Y-14096976D01*
X12831309Y-14087452D01*
X12821786Y-14077928D01*
X13126548Y-13896976D02*
X13031309Y-13896976D01*
X13021786Y-13992214D01*
X13031309Y-13982690D01*
X13050357Y-13973167D01*
X13097976Y-13973167D01*
X13117024Y-13982690D01*
X13126548Y-13992214D01*
X13136071Y-14011262D01*
X13136071Y-14058881D01*
X13126548Y-14077928D01*
X13117024Y-14087452D01*
X13097976Y-14096976D01*
X13050357Y-14096976D01*
X13031309Y-14087452D01*
X13021786Y-14077928D01*
X13259881Y-13896976D02*
X13278928Y-13896976D01*
X13297976Y-13906500D01*
X13307500Y-13916024D01*
X13317024Y-13935071D01*
X13326548Y-13973167D01*
X13326548Y-14020786D01*
X13317024Y-14058881D01*
X13307500Y-14077928D01*
X13297976Y-14087452D01*
X13278928Y-14096976D01*
X13259881Y-14096976D01*
X13240833Y-14087452D01*
X13231309Y-14077928D01*
X13221786Y-14058881D01*
X13212262Y-14020786D01*
X13212262Y-13973167D01*
X13221786Y-13935071D01*
X13231309Y-13916024D01*
X13240833Y-13906500D01*
X13259881Y-13896976D01*
X13412262Y-14096976D02*
X13412262Y-13963643D01*
X13412262Y-13982690D02*
X13421786Y-13973167D01*
X13440833Y-13963643D01*
X13469405Y-13963643D01*
X13488452Y-13973167D01*
X13497976Y-13992214D01*
X13497976Y-14096976D01*
X13497976Y-13992214D02*
X13507500Y-13973167D01*
X13526548Y-13963643D01*
X13555119Y-13963643D01*
X13574167Y-13973167D01*
X13583690Y-13992214D01*
X13583690Y-14096976D01*
X13678928Y-14096976D02*
X13678928Y-13963643D01*
X13678928Y-13982690D02*
X13688452Y-13973167D01*
X13707500Y-13963643D01*
X13736071Y-13963643D01*
X13755119Y-13973167D01*
X13764643Y-13992214D01*
X13764643Y-14096976D01*
X13764643Y-13992214D02*
X13774167Y-13973167D01*
X13793214Y-13963643D01*
X13821786Y-13963643D01*
X13840833Y-13973167D01*
X13850357Y-13992214D01*
X13850357Y-14096976D01*
X14240833Y-13887452D02*
X14069405Y-14144595D01*
X14497976Y-13896976D02*
X14517024Y-13896976D01*
X14536071Y-13906500D01*
X14545595Y-13916024D01*
X14555119Y-13935071D01*
X14564643Y-13973167D01*
X14564643Y-14020786D01*
X14555119Y-14058881D01*
X14545595Y-14077928D01*
X14536071Y-14087452D01*
X14517024Y-14096976D01*
X14497976Y-14096976D01*
X14478928Y-14087452D01*
X14469405Y-14077928D01*
X14459881Y-14058881D01*
X14450357Y-14020786D01*
X14450357Y-13973167D01*
X14459881Y-13935071D01*
X14469405Y-13916024D01*
X14478928Y-13906500D01*
X14497976Y-13896976D01*
X14650357Y-14077928D02*
X14659881Y-14087452D01*
X14650357Y-14096976D01*
X14640833Y-14087452D01*
X14650357Y-14077928D01*
X14650357Y-14096976D01*
X14783690Y-13896976D02*
X14802738Y-13896976D01*
X14821786Y-13906500D01*
X14831309Y-13916024D01*
X14840833Y-13935071D01*
X14850357Y-13973167D01*
X14850357Y-14020786D01*
X14840833Y-14058881D01*
X14831309Y-14077928D01*
X14821786Y-14087452D01*
X14802738Y-14096976D01*
X14783690Y-14096976D01*
X14764643Y-14087452D01*
X14755119Y-14077928D01*
X14745595Y-14058881D01*
X14736071Y-14020786D01*
X14736071Y-13973167D01*
X14745595Y-13935071D01*
X14755119Y-13916024D01*
X14764643Y-13906500D01*
X14783690Y-13896976D01*
X15040833Y-14096976D02*
X14926548Y-14096976D01*
X14983690Y-14096976D02*
X14983690Y-13896976D01*
X14964643Y-13925548D01*
X14945595Y-13944595D01*
X14926548Y-13954119D01*
X15107500Y-13896976D02*
X15231309Y-13896976D01*
X15164643Y-13973167D01*
X15193214Y-13973167D01*
X15212262Y-13982690D01*
X15221786Y-13992214D01*
X15231309Y-14011262D01*
X15231309Y-14058881D01*
X15221786Y-14077928D01*
X15212262Y-14087452D01*
X15193214Y-14096976D01*
X15136071Y-14096976D01*
X15117024Y-14087452D01*
X15107500Y-14077928D01*
X15345595Y-13982690D02*
X15326548Y-13973167D01*
X15317024Y-13963643D01*
X15307500Y-13944595D01*
X15307500Y-13935071D01*
X15317024Y-13916024D01*
X15326548Y-13906500D01*
X15345595Y-13896976D01*
X15383690Y-13896976D01*
X15402738Y-13906500D01*
X15412262Y-13916024D01*
X15421786Y-13935071D01*
X15421786Y-13944595D01*
X15412262Y-13963643D01*
X15402738Y-13973167D01*
X15383690Y-13982690D01*
X15345595Y-13982690D01*
X15326548Y-13992214D01*
X15317024Y-14001738D01*
X15307500Y-14020786D01*
X15307500Y-14058881D01*
X15317024Y-14077928D01*
X15326548Y-14087452D01*
X15345595Y-14096976D01*
X15383690Y-14096976D01*
X15402738Y-14087452D01*
X15412262Y-14077928D01*
X15421786Y-14058881D01*
X15421786Y-14020786D01*
X15412262Y-14001738D01*
X15402738Y-13992214D01*
X15383690Y-13982690D01*
X15497976Y-13896976D02*
X15497976Y-13935071D01*
X15574167Y-13896976D02*
X15574167Y-13935071D01*
X15869405Y-14173167D02*
X15859881Y-14163643D01*
X15840833Y-14135071D01*
X15831309Y-14116024D01*
X15821786Y-14087452D01*
X15812262Y-14039833D01*
X15812262Y-14001738D01*
X15821786Y-13954119D01*
X15831309Y-13925548D01*
X15840833Y-13906500D01*
X15859881Y-13877928D01*
X15869405Y-13868405D01*
X15926548Y-13896976D02*
X16050357Y-13896976D01*
X15983690Y-13973167D01*
X16012262Y-13973167D01*
X16031309Y-13982690D01*
X16040833Y-13992214D01*
X16050357Y-14011262D01*
X16050357Y-14058881D01*
X16040833Y-14077928D01*
X16031309Y-14087452D01*
X16012262Y-14096976D01*
X15955119Y-14096976D01*
X15936071Y-14087452D01*
X15926548Y-14077928D01*
X16221786Y-13896976D02*
X16183690Y-13896976D01*
X16164643Y-13906500D01*
X16155119Y-13916024D01*
X16136071Y-13944595D01*
X16126548Y-13982690D01*
X16126548Y-14058881D01*
X16136071Y-14077928D01*
X16145595Y-14087452D01*
X16164643Y-14096976D01*
X16202738Y-14096976D01*
X16221786Y-14087452D01*
X16231309Y-14077928D01*
X16240833Y-14058881D01*
X16240833Y-14011262D01*
X16231309Y-13992214D01*
X16221786Y-13982690D01*
X16202738Y-13973167D01*
X16164643Y-13973167D01*
X16145595Y-13982690D01*
X16136071Y-13992214D01*
X16126548Y-14011262D01*
X16478928Y-14096976D02*
X16478928Y-13896976D01*
X16564643Y-14096976D02*
X16564643Y-13992214D01*
X16555119Y-13973167D01*
X16536071Y-13963643D01*
X16507500Y-13963643D01*
X16488452Y-13973167D01*
X16478928Y-13982690D01*
X16688452Y-14096976D02*
X16669405Y-14087452D01*
X16659881Y-14077928D01*
X16650357Y-14058881D01*
X16650357Y-14001738D01*
X16659881Y-13982690D01*
X16669405Y-13973167D01*
X16688452Y-13963643D01*
X16717024Y-13963643D01*
X16736071Y-13973167D01*
X16745595Y-13982690D01*
X16755119Y-14001738D01*
X16755119Y-14058881D01*
X16745595Y-14077928D01*
X16736071Y-14087452D01*
X16717024Y-14096976D01*
X16688452Y-14096976D01*
X16869405Y-14096976D02*
X16850357Y-14087452D01*
X16840833Y-14068405D01*
X16840833Y-13896976D01*
X17021786Y-14087452D02*
X17002738Y-14096976D01*
X16964643Y-14096976D01*
X16945595Y-14087452D01*
X16936071Y-14068405D01*
X16936071Y-13992214D01*
X16945595Y-13973167D01*
X16964643Y-13963643D01*
X17002738Y-13963643D01*
X17021786Y-13973167D01*
X17031310Y-13992214D01*
X17031310Y-14011262D01*
X16936071Y-14030309D01*
X17107500Y-14087452D02*
X17126548Y-14096976D01*
X17164643Y-14096976D01*
X17183690Y-14087452D01*
X17193214Y-14068405D01*
X17193214Y-14058881D01*
X17183690Y-14039833D01*
X17164643Y-14030309D01*
X17136071Y-14030309D01*
X17117024Y-14020786D01*
X17107500Y-14001738D01*
X17107500Y-13992214D01*
X17117024Y-13973167D01*
X17136071Y-13963643D01*
X17164643Y-13963643D01*
X17183690Y-13973167D01*
X17259881Y-14173167D02*
X17269405Y-14163643D01*
X17288452Y-14135071D01*
X17297976Y-14116024D01*
X17307500Y-14087452D01*
X17317024Y-14039833D01*
X17317024Y-14001738D01*
X17307500Y-13954119D01*
X17297976Y-13925548D01*
X17288452Y-13906500D01*
X17269405Y-13877928D01*
X17259881Y-13868405D01*
D14*
X12277500Y-14250500D02*
X12277500Y-14290500D01*
X12257500Y-14270500D02*
X12297500Y-14270500D01*
D11*
X12593214Y-14160976D02*
X12612262Y-14160976D01*
X12631309Y-14170500D01*
X12640833Y-14180024D01*
X12650357Y-14199071D01*
X12659881Y-14237167D01*
X12659881Y-14284786D01*
X12650357Y-14322881D01*
X12640833Y-14341928D01*
X12631309Y-14351452D01*
X12612262Y-14360976D01*
X12593214Y-14360976D01*
X12574167Y-14351452D01*
X12564643Y-14341928D01*
X12555119Y-14322881D01*
X12545595Y-14284786D01*
X12545595Y-14237167D01*
X12555119Y-14199071D01*
X12564643Y-14180024D01*
X12574167Y-14170500D01*
X12593214Y-14160976D01*
X12745595Y-14341928D02*
X12755119Y-14351452D01*
X12745595Y-14360976D01*
X12736071Y-14351452D01*
X12745595Y-14341928D01*
X12745595Y-14360976D01*
X12926548Y-14227643D02*
X12926548Y-14360976D01*
X12878928Y-14151452D02*
X12831309Y-14294309D01*
X12955119Y-14294309D01*
X13069405Y-14160976D02*
X13088452Y-14160976D01*
X13107500Y-14170500D01*
X13117024Y-14180024D01*
X13126548Y-14199071D01*
X13136071Y-14237167D01*
X13136071Y-14284786D01*
X13126548Y-14322881D01*
X13117024Y-14341928D01*
X13107500Y-14351452D01*
X13088452Y-14360976D01*
X13069405Y-14360976D01*
X13050357Y-14351452D01*
X13040833Y-14341928D01*
X13031309Y-14322881D01*
X13021786Y-14284786D01*
X13021786Y-14237167D01*
X13031309Y-14199071D01*
X13040833Y-14180024D01*
X13050357Y-14170500D01*
X13069405Y-14160976D01*
X13259881Y-14160976D02*
X13278928Y-14160976D01*
X13297976Y-14170500D01*
X13307500Y-14180024D01*
X13317024Y-14199071D01*
X13326548Y-14237167D01*
X13326548Y-14284786D01*
X13317024Y-14322881D01*
X13307500Y-14341928D01*
X13297976Y-14351452D01*
X13278928Y-14360976D01*
X13259881Y-14360976D01*
X13240833Y-14351452D01*
X13231309Y-14341928D01*
X13221786Y-14322881D01*
X13212262Y-14284786D01*
X13212262Y-14237167D01*
X13221786Y-14199071D01*
X13231309Y-14180024D01*
X13240833Y-14170500D01*
X13259881Y-14160976D01*
X13412262Y-14360976D02*
X13412262Y-14227643D01*
X13412262Y-14246690D02*
X13421786Y-14237167D01*
X13440833Y-14227643D01*
X13469405Y-14227643D01*
X13488452Y-14237167D01*
X13497976Y-14256214D01*
X13497976Y-14360976D01*
X13497976Y-14256214D02*
X13507500Y-14237167D01*
X13526548Y-14227643D01*
X13555119Y-14227643D01*
X13574167Y-14237167D01*
X13583690Y-14256214D01*
X13583690Y-14360976D01*
X13678928Y-14360976D02*
X13678928Y-14227643D01*
X13678928Y-14246690D02*
X13688452Y-14237167D01*
X13707500Y-14227643D01*
X13736071Y-14227643D01*
X13755119Y-14237167D01*
X13764643Y-14256214D01*
X13764643Y-14360976D01*
X13764643Y-14256214D02*
X13774167Y-14237167D01*
X13793214Y-14227643D01*
X13821786Y-14227643D01*
X13840833Y-14237167D01*
X13850357Y-14256214D01*
X13850357Y-14360976D01*
X14240833Y-14151452D02*
X14069405Y-14408595D01*
X14497976Y-14160976D02*
X14517024Y-14160976D01*
X14536071Y-14170500D01*
X14545595Y-14180024D01*
X14555119Y-14199071D01*
X14564643Y-14237167D01*
X14564643Y-14284786D01*
X14555119Y-14322881D01*
X14545595Y-14341928D01*
X14536071Y-14351452D01*
X14517024Y-14360976D01*
X14497976Y-14360976D01*
X14478928Y-14351452D01*
X14469405Y-14341928D01*
X14459881Y-14322881D01*
X14450357Y-14284786D01*
X14450357Y-14237167D01*
X14459881Y-14199071D01*
X14469405Y-14180024D01*
X14478928Y-14170500D01*
X14497976Y-14160976D01*
X14650357Y-14341928D02*
X14659881Y-14351452D01*
X14650357Y-14360976D01*
X14640833Y-14351452D01*
X14650357Y-14341928D01*
X14650357Y-14360976D01*
X14783690Y-14160976D02*
X14802738Y-14160976D01*
X14821786Y-14170500D01*
X14831309Y-14180024D01*
X14840833Y-14199071D01*
X14850357Y-14237167D01*
X14850357Y-14284786D01*
X14840833Y-14322881D01*
X14831309Y-14341928D01*
X14821786Y-14351452D01*
X14802738Y-14360976D01*
X14783690Y-14360976D01*
X14764643Y-14351452D01*
X14755119Y-14341928D01*
X14745595Y-14322881D01*
X14736071Y-14284786D01*
X14736071Y-14237167D01*
X14745595Y-14199071D01*
X14755119Y-14180024D01*
X14764643Y-14170500D01*
X14783690Y-14160976D01*
X15040833Y-14360976D02*
X14926548Y-14360976D01*
X14983690Y-14360976D02*
X14983690Y-14160976D01*
X14964643Y-14189548D01*
X14945595Y-14208595D01*
X14926548Y-14218119D01*
X15221786Y-14160976D02*
X15126548Y-14160976D01*
X15117024Y-14256214D01*
X15126548Y-14246690D01*
X15145595Y-14237167D01*
X15193214Y-14237167D01*
X15212262Y-14246690D01*
X15221786Y-14256214D01*
X15231309Y-14275262D01*
X15231309Y-14322881D01*
X15221786Y-14341928D01*
X15212262Y-14351452D01*
X15193214Y-14360976D01*
X15145595Y-14360976D01*
X15126548Y-14351452D01*
X15117024Y-14341928D01*
X15297976Y-14160976D02*
X15431309Y-14160976D01*
X15345595Y-14360976D01*
X15497976Y-14160976D02*
X15497976Y-14199071D01*
X15574167Y-14160976D02*
X15574167Y-14199071D01*
X15869405Y-14437167D02*
X15859881Y-14427643D01*
X15840833Y-14399071D01*
X15831309Y-14380024D01*
X15821786Y-14351452D01*
X15812262Y-14303833D01*
X15812262Y-14265738D01*
X15821786Y-14218119D01*
X15831309Y-14189548D01*
X15840833Y-14170500D01*
X15859881Y-14141928D01*
X15869405Y-14132405D01*
X15955119Y-14360976D02*
X15993214Y-14360976D01*
X16012262Y-14351452D01*
X16021786Y-14341928D01*
X16040833Y-14313357D01*
X16050357Y-14275262D01*
X16050357Y-14199071D01*
X16040833Y-14180024D01*
X16031309Y-14170500D01*
X16012262Y-14160976D01*
X15974167Y-14160976D01*
X15955119Y-14170500D01*
X15945595Y-14180024D01*
X15936071Y-14199071D01*
X15936071Y-14246690D01*
X15945595Y-14265738D01*
X15955119Y-14275262D01*
X15974167Y-14284786D01*
X16012262Y-14284786D01*
X16031309Y-14275262D01*
X16040833Y-14265738D01*
X16050357Y-14246690D01*
X16164643Y-14246690D02*
X16145595Y-14237167D01*
X16136071Y-14227643D01*
X16126548Y-14208595D01*
X16126548Y-14199071D01*
X16136071Y-14180024D01*
X16145595Y-14170500D01*
X16164643Y-14160976D01*
X16202738Y-14160976D01*
X16221786Y-14170500D01*
X16231309Y-14180024D01*
X16240833Y-14199071D01*
X16240833Y-14208595D01*
X16231309Y-14227643D01*
X16221786Y-14237167D01*
X16202738Y-14246690D01*
X16164643Y-14246690D01*
X16145595Y-14256214D01*
X16136071Y-14265738D01*
X16126548Y-14284786D01*
X16126548Y-14322881D01*
X16136071Y-14341928D01*
X16145595Y-14351452D01*
X16164643Y-14360976D01*
X16202738Y-14360976D01*
X16221786Y-14351452D01*
X16231309Y-14341928D01*
X16240833Y-14322881D01*
X16240833Y-14284786D01*
X16231309Y-14265738D01*
X16221786Y-14256214D01*
X16202738Y-14246690D01*
X16364643Y-14160976D02*
X16383690Y-14160976D01*
X16402738Y-14170500D01*
X16412262Y-14180024D01*
X16421786Y-14199071D01*
X16431309Y-14237167D01*
X16431309Y-14284786D01*
X16421786Y-14322881D01*
X16412262Y-14341928D01*
X16402738Y-14351452D01*
X16383690Y-14360976D01*
X16364643Y-14360976D01*
X16345595Y-14351452D01*
X16336071Y-14341928D01*
X16326548Y-14322881D01*
X16317024Y-14284786D01*
X16317024Y-14237167D01*
X16326548Y-14199071D01*
X16336071Y-14180024D01*
X16345595Y-14170500D01*
X16364643Y-14160976D01*
X16669405Y-14360976D02*
X16669405Y-14160976D01*
X16755119Y-14360976D02*
X16755119Y-14256214D01*
X16745595Y-14237167D01*
X16726548Y-14227643D01*
X16697976Y-14227643D01*
X16678928Y-14237167D01*
X16669405Y-14246690D01*
X16878929Y-14360976D02*
X16859881Y-14351452D01*
X16850357Y-14341928D01*
X16840833Y-14322881D01*
X16840833Y-14265738D01*
X16850357Y-14246690D01*
X16859881Y-14237167D01*
X16878929Y-14227643D01*
X16907500Y-14227643D01*
X16926548Y-14237167D01*
X16936071Y-14246690D01*
X16945595Y-14265738D01*
X16945595Y-14322881D01*
X16936071Y-14341928D01*
X16926548Y-14351452D01*
X16907500Y-14360976D01*
X16878929Y-14360976D01*
X17059881Y-14360976D02*
X17040833Y-14351452D01*
X17031310Y-14332405D01*
X17031310Y-14160976D01*
X17212262Y-14351452D02*
X17193214Y-14360976D01*
X17155119Y-14360976D01*
X17136071Y-14351452D01*
X17126548Y-14332405D01*
X17126548Y-14256214D01*
X17136071Y-14237167D01*
X17155119Y-14227643D01*
X17193214Y-14227643D01*
X17212262Y-14237167D01*
X17221786Y-14256214D01*
X17221786Y-14275262D01*
X17126548Y-14294309D01*
X17297976Y-14351452D02*
X17317024Y-14360976D01*
X17355119Y-14360976D01*
X17374167Y-14351452D01*
X17383690Y-14332405D01*
X17383690Y-14322881D01*
X17374167Y-14303833D01*
X17355119Y-14294309D01*
X17326548Y-14294309D01*
X17307500Y-14284786D01*
X17297976Y-14265738D01*
X17297976Y-14256214D01*
X17307500Y-14237167D01*
X17326548Y-14227643D01*
X17355119Y-14227643D01*
X17374167Y-14237167D01*
X17450357Y-14437167D02*
X17459881Y-14427643D01*
X17478929Y-14399071D01*
X17488452Y-14380024D01*
X17497976Y-14351452D01*
X17507500Y-14303833D01*
X17507500Y-14265738D01*
X17497976Y-14218119D01*
X17488452Y-14189548D01*
X17478929Y-14170500D01*
X17459881Y-14141928D01*
X17450357Y-14132405D01*
D15*
X12288713Y-14555713D02*
X12288713Y-14513287D01*
X12246287Y-14513287D01*
X12246287Y-14555713D01*
X12288713Y-14555713D01*
D11*
X12593214Y-14424976D02*
X12612262Y-14424976D01*
X12631309Y-14434500D01*
X12640833Y-14444024D01*
X12650357Y-14463071D01*
X12659881Y-14501167D01*
X12659881Y-14548786D01*
X12650357Y-14586881D01*
X12640833Y-14605928D01*
X12631309Y-14615452D01*
X12612262Y-14624976D01*
X12593214Y-14624976D01*
X12574167Y-14615452D01*
X12564643Y-14605928D01*
X12555119Y-14586881D01*
X12545595Y-14548786D01*
X12545595Y-14501167D01*
X12555119Y-14463071D01*
X12564643Y-14444024D01*
X12574167Y-14434500D01*
X12593214Y-14424976D01*
X12745595Y-14605928D02*
X12755119Y-14615452D01*
X12745595Y-14624976D01*
X12736071Y-14615452D01*
X12745595Y-14605928D01*
X12745595Y-14624976D01*
X12926548Y-14424976D02*
X12888452Y-14424976D01*
X12869405Y-14434500D01*
X12859881Y-14444024D01*
X12840833Y-14472595D01*
X12831309Y-14510690D01*
X12831309Y-14586881D01*
X12840833Y-14605928D01*
X12850357Y-14615452D01*
X12869405Y-14624976D01*
X12907500Y-14624976D01*
X12926548Y-14615452D01*
X12936071Y-14605928D01*
X12945595Y-14586881D01*
X12945595Y-14539262D01*
X12936071Y-14520214D01*
X12926548Y-14510690D01*
X12907500Y-14501167D01*
X12869405Y-14501167D01*
X12850357Y-14510690D01*
X12840833Y-14520214D01*
X12831309Y-14539262D01*
X13069405Y-14424976D02*
X13088452Y-14424976D01*
X13107500Y-14434500D01*
X13117024Y-14444024D01*
X13126548Y-14463071D01*
X13136071Y-14501167D01*
X13136071Y-14548786D01*
X13126548Y-14586881D01*
X13117024Y-14605928D01*
X13107500Y-14615452D01*
X13088452Y-14624976D01*
X13069405Y-14624976D01*
X13050357Y-14615452D01*
X13040833Y-14605928D01*
X13031309Y-14586881D01*
X13021786Y-14548786D01*
X13021786Y-14501167D01*
X13031309Y-14463071D01*
X13040833Y-14444024D01*
X13050357Y-14434500D01*
X13069405Y-14424976D01*
X13259881Y-14424976D02*
X13278928Y-14424976D01*
X13297976Y-14434500D01*
X13307500Y-14444024D01*
X13317024Y-14463071D01*
X13326548Y-14501167D01*
X13326548Y-14548786D01*
X13317024Y-14586881D01*
X13307500Y-14605928D01*
X13297976Y-14615452D01*
X13278928Y-14624976D01*
X13259881Y-14624976D01*
X13240833Y-14615452D01*
X13231309Y-14605928D01*
X13221786Y-14586881D01*
X13212262Y-14548786D01*
X13212262Y-14501167D01*
X13221786Y-14463071D01*
X13231309Y-14444024D01*
X13240833Y-14434500D01*
X13259881Y-14424976D01*
X13412262Y-14624976D02*
X13412262Y-14491643D01*
X13412262Y-14510690D02*
X13421786Y-14501167D01*
X13440833Y-14491643D01*
X13469405Y-14491643D01*
X13488452Y-14501167D01*
X13497976Y-14520214D01*
X13497976Y-14624976D01*
X13497976Y-14520214D02*
X13507500Y-14501167D01*
X13526548Y-14491643D01*
X13555119Y-14491643D01*
X13574167Y-14501167D01*
X13583690Y-14520214D01*
X13583690Y-14624976D01*
X13678928Y-14624976D02*
X13678928Y-14491643D01*
X13678928Y-14510690D02*
X13688452Y-14501167D01*
X13707500Y-14491643D01*
X13736071Y-14491643D01*
X13755119Y-14501167D01*
X13764643Y-14520214D01*
X13764643Y-14624976D01*
X13764643Y-14520214D02*
X13774167Y-14501167D01*
X13793214Y-14491643D01*
X13821786Y-14491643D01*
X13840833Y-14501167D01*
X13850357Y-14520214D01*
X13850357Y-14624976D01*
X14240833Y-14415452D02*
X14069405Y-14672595D01*
X14497976Y-14424976D02*
X14517024Y-14424976D01*
X14536071Y-14434500D01*
X14545595Y-14444024D01*
X14555119Y-14463071D01*
X14564643Y-14501167D01*
X14564643Y-14548786D01*
X14555119Y-14586881D01*
X14545595Y-14605928D01*
X14536071Y-14615452D01*
X14517024Y-14624976D01*
X14497976Y-14624976D01*
X14478928Y-14615452D01*
X14469405Y-14605928D01*
X14459881Y-14586881D01*
X14450357Y-14548786D01*
X14450357Y-14501167D01*
X14459881Y-14463071D01*
X14469405Y-14444024D01*
X14478928Y-14434500D01*
X14497976Y-14424976D01*
X14650357Y-14605928D02*
X14659881Y-14615452D01*
X14650357Y-14624976D01*
X14640833Y-14615452D01*
X14650357Y-14605928D01*
X14650357Y-14624976D01*
X14783690Y-14424976D02*
X14802738Y-14424976D01*
X14821786Y-14434500D01*
X14831309Y-14444024D01*
X14840833Y-14463071D01*
X14850357Y-14501167D01*
X14850357Y-14548786D01*
X14840833Y-14586881D01*
X14831309Y-14605928D01*
X14821786Y-14615452D01*
X14802738Y-14624976D01*
X14783690Y-14624976D01*
X14764643Y-14615452D01*
X14755119Y-14605928D01*
X14745595Y-14586881D01*
X14736071Y-14548786D01*
X14736071Y-14501167D01*
X14745595Y-14463071D01*
X14755119Y-14444024D01*
X14764643Y-14434500D01*
X14783690Y-14424976D01*
X14926548Y-14444024D02*
X14936071Y-14434500D01*
X14955119Y-14424976D01*
X15002738Y-14424976D01*
X15021786Y-14434500D01*
X15031309Y-14444024D01*
X15040833Y-14463071D01*
X15040833Y-14482119D01*
X15031309Y-14510690D01*
X14917024Y-14624976D01*
X15040833Y-14624976D01*
X15107500Y-14424976D02*
X15231309Y-14424976D01*
X15164643Y-14501167D01*
X15193214Y-14501167D01*
X15212262Y-14510690D01*
X15221786Y-14520214D01*
X15231309Y-14539262D01*
X15231309Y-14586881D01*
X15221786Y-14605928D01*
X15212262Y-14615452D01*
X15193214Y-14624976D01*
X15136071Y-14624976D01*
X15117024Y-14615452D01*
X15107500Y-14605928D01*
X15402738Y-14424976D02*
X15364643Y-14424976D01*
X15345595Y-14434500D01*
X15336071Y-14444024D01*
X15317024Y-14472595D01*
X15307500Y-14510690D01*
X15307500Y-14586881D01*
X15317024Y-14605928D01*
X15326548Y-14615452D01*
X15345595Y-14624976D01*
X15383690Y-14624976D01*
X15402738Y-14615452D01*
X15412262Y-14605928D01*
X15421786Y-14586881D01*
X15421786Y-14539262D01*
X15412262Y-14520214D01*
X15402738Y-14510690D01*
X15383690Y-14501167D01*
X15345595Y-14501167D01*
X15326548Y-14510690D01*
X15317024Y-14520214D01*
X15307500Y-14539262D01*
X15497976Y-14424976D02*
X15497976Y-14463071D01*
X15574167Y-14424976D02*
X15574167Y-14463071D01*
X15869405Y-14701167D02*
X15859881Y-14691643D01*
X15840833Y-14663071D01*
X15831309Y-14644024D01*
X15821786Y-14615452D01*
X15812262Y-14567833D01*
X15812262Y-14529738D01*
X15821786Y-14482119D01*
X15831309Y-14453548D01*
X15840833Y-14434500D01*
X15859881Y-14405928D01*
X15869405Y-14396405D01*
X15983690Y-14424976D02*
X16002738Y-14424976D01*
X16021786Y-14434500D01*
X16031309Y-14444024D01*
X16040833Y-14463071D01*
X16050357Y-14501167D01*
X16050357Y-14548786D01*
X16040833Y-14586881D01*
X16031309Y-14605928D01*
X16021786Y-14615452D01*
X16002738Y-14624976D01*
X15983690Y-14624976D01*
X15964643Y-14615452D01*
X15955119Y-14605928D01*
X15945595Y-14586881D01*
X15936071Y-14548786D01*
X15936071Y-14501167D01*
X15945595Y-14463071D01*
X15955119Y-14444024D01*
X15964643Y-14434500D01*
X15983690Y-14424976D01*
X16288452Y-14624976D02*
X16288452Y-14424976D01*
X16374167Y-14624976D02*
X16374167Y-14520214D01*
X16364643Y-14501167D01*
X16345595Y-14491643D01*
X16317024Y-14491643D01*
X16297976Y-14501167D01*
X16288452Y-14510690D01*
X16497976Y-14624976D02*
X16478928Y-14615452D01*
X16469405Y-14605928D01*
X16459881Y-14586881D01*
X16459881Y-14529738D01*
X16469405Y-14510690D01*
X16478928Y-14501167D01*
X16497976Y-14491643D01*
X16526548Y-14491643D01*
X16545595Y-14501167D01*
X16555119Y-14510690D01*
X16564643Y-14529738D01*
X16564643Y-14586881D01*
X16555119Y-14605928D01*
X16545595Y-14615452D01*
X16526548Y-14624976D01*
X16497976Y-14624976D01*
X16678928Y-14624976D02*
X16659881Y-14615452D01*
X16650357Y-14596405D01*
X16650357Y-14424976D01*
X16831310Y-14615452D02*
X16812262Y-14624976D01*
X16774167Y-14624976D01*
X16755119Y-14615452D01*
X16745595Y-14596405D01*
X16745595Y-14520214D01*
X16755119Y-14501167D01*
X16774167Y-14491643D01*
X16812262Y-14491643D01*
X16831310Y-14501167D01*
X16840833Y-14520214D01*
X16840833Y-14539262D01*
X16745595Y-14558309D01*
X16917024Y-14615452D02*
X16936071Y-14624976D01*
X16974167Y-14624976D01*
X16993214Y-14615452D01*
X17002738Y-14596405D01*
X17002738Y-14586881D01*
X16993214Y-14567833D01*
X16974167Y-14558309D01*
X16945595Y-14558309D01*
X16926548Y-14548786D01*
X16917024Y-14529738D01*
X16917024Y-14520214D01*
X16926548Y-14501167D01*
X16945595Y-14491643D01*
X16974167Y-14491643D01*
X16993214Y-14501167D01*
X17240833Y-14548786D02*
X17393214Y-14548786D01*
X17317024Y-14624976D02*
X17317024Y-14472595D01*
X17745595Y-14624976D02*
X17631310Y-14624976D01*
X17688452Y-14624976D02*
X17688452Y-14424976D01*
X17669405Y-14453548D01*
X17650357Y-14472595D01*
X17631310Y-14482119D01*
X17917024Y-14424976D02*
X17878929Y-14424976D01*
X17859881Y-14434500D01*
X17850357Y-14444024D01*
X17831310Y-14472595D01*
X17821786Y-14510690D01*
X17821786Y-14586881D01*
X17831310Y-14605928D01*
X17840833Y-14615452D01*
X17859881Y-14624976D01*
X17897976Y-14624976D01*
X17917024Y-14615452D01*
X17926548Y-14605928D01*
X17936071Y-14586881D01*
X17936071Y-14539262D01*
X17926548Y-14520214D01*
X17917024Y-14510690D01*
X17897976Y-14501167D01*
X17859881Y-14501167D01*
X17840833Y-14510690D01*
X17831310Y-14520214D01*
X17821786Y-14539262D01*
X18164643Y-14615452D02*
X18183690Y-14624976D01*
X18221786Y-14624976D01*
X18240833Y-14615452D01*
X18250357Y-14596405D01*
X18250357Y-14586881D01*
X18240833Y-14567833D01*
X18221786Y-14558309D01*
X18193214Y-14558309D01*
X18174167Y-14548786D01*
X18164643Y-14529738D01*
X18164643Y-14520214D01*
X18174167Y-14501167D01*
X18193214Y-14491643D01*
X18221786Y-14491643D01*
X18240833Y-14501167D01*
X18364643Y-14624976D02*
X18345595Y-14615452D01*
X18336071Y-14596405D01*
X18336071Y-14424976D01*
X18469405Y-14624976D02*
X18450357Y-14615452D01*
X18440833Y-14605928D01*
X18431310Y-14586881D01*
X18431310Y-14529738D01*
X18440833Y-14510690D01*
X18450357Y-14501167D01*
X18469405Y-14491643D01*
X18497976Y-14491643D01*
X18517024Y-14501167D01*
X18526548Y-14510690D01*
X18536071Y-14529738D01*
X18536071Y-14586881D01*
X18526548Y-14605928D01*
X18517024Y-14615452D01*
X18497976Y-14624976D01*
X18469405Y-14624976D01*
X18593214Y-14491643D02*
X18669405Y-14491643D01*
X18621786Y-14424976D02*
X18621786Y-14596405D01*
X18631310Y-14615452D01*
X18650357Y-14624976D01*
X18669405Y-14624976D01*
X18726548Y-14615452D02*
X18745595Y-14624976D01*
X18783690Y-14624976D01*
X18802738Y-14615452D01*
X18812262Y-14596405D01*
X18812262Y-14586881D01*
X18802738Y-14567833D01*
X18783690Y-14558309D01*
X18755119Y-14558309D01*
X18736071Y-14548786D01*
X18726548Y-14529738D01*
X18726548Y-14520214D01*
X18736071Y-14501167D01*
X18755119Y-14491643D01*
X18783690Y-14491643D01*
X18802738Y-14501167D01*
X18878929Y-14701167D02*
X18888452Y-14691643D01*
X18907500Y-14663071D01*
X18917024Y-14644024D01*
X18926548Y-14615452D01*
X18936071Y-14567833D01*
X18936071Y-14529738D01*
X18926548Y-14482119D01*
X18917024Y-14453548D01*
X18907500Y-14434500D01*
X18888452Y-14405928D01*
X18878929Y-14396405D01*
D16*
X12260000Y-14836000D02*
X12297500Y-14798500D01*
X12260000Y-14761000D01*
X12222500Y-14798500D01*
X12260000Y-14836000D01*
D11*
X12593214Y-14688976D02*
X12612262Y-14688976D01*
X12631309Y-14698500D01*
X12640833Y-14708024D01*
X12650357Y-14727071D01*
X12659881Y-14765167D01*
X12659881Y-14812786D01*
X12650357Y-14850881D01*
X12640833Y-14869928D01*
X12631309Y-14879452D01*
X12612262Y-14888976D01*
X12593214Y-14888976D01*
X12574167Y-14879452D01*
X12564643Y-14869928D01*
X12555119Y-14850881D01*
X12545595Y-14812786D01*
X12545595Y-14765167D01*
X12555119Y-14727071D01*
X12564643Y-14708024D01*
X12574167Y-14698500D01*
X12593214Y-14688976D01*
X12745595Y-14869928D02*
X12755119Y-14879452D01*
X12745595Y-14888976D01*
X12736071Y-14879452D01*
X12745595Y-14869928D01*
X12745595Y-14888976D01*
X12821786Y-14688976D02*
X12955119Y-14688976D01*
X12869405Y-14888976D01*
X13126548Y-14688976D02*
X13031309Y-14688976D01*
X13021786Y-14784214D01*
X13031309Y-14774690D01*
X13050357Y-14765167D01*
X13097976Y-14765167D01*
X13117024Y-14774690D01*
X13126548Y-14784214D01*
X13136071Y-14803262D01*
X13136071Y-14850881D01*
X13126548Y-14869928D01*
X13117024Y-14879452D01*
X13097976Y-14888976D01*
X13050357Y-14888976D01*
X13031309Y-14879452D01*
X13021786Y-14869928D01*
X13259881Y-14688976D02*
X13278928Y-14688976D01*
X13297976Y-14698500D01*
X13307500Y-14708024D01*
X13317024Y-14727071D01*
X13326548Y-14765167D01*
X13326548Y-14812786D01*
X13317024Y-14850881D01*
X13307500Y-14869928D01*
X13297976Y-14879452D01*
X13278928Y-14888976D01*
X13259881Y-14888976D01*
X13240833Y-14879452D01*
X13231309Y-14869928D01*
X13221786Y-14850881D01*
X13212262Y-14812786D01*
X13212262Y-14765167D01*
X13221786Y-14727071D01*
X13231309Y-14708024D01*
X13240833Y-14698500D01*
X13259881Y-14688976D01*
X13412262Y-14888976D02*
X13412262Y-14755643D01*
X13412262Y-14774690D02*
X13421786Y-14765167D01*
X13440833Y-14755643D01*
X13469405Y-14755643D01*
X13488452Y-14765167D01*
X13497976Y-14784214D01*
X13497976Y-14888976D01*
X13497976Y-14784214D02*
X13507500Y-14765167D01*
X13526548Y-14755643D01*
X13555119Y-14755643D01*
X13574167Y-14765167D01*
X13583690Y-14784214D01*
X13583690Y-14888976D01*
X13678928Y-14888976D02*
X13678928Y-14755643D01*
X13678928Y-14774690D02*
X13688452Y-14765167D01*
X13707500Y-14755643D01*
X13736071Y-14755643D01*
X13755119Y-14765167D01*
X13764643Y-14784214D01*
X13764643Y-14888976D01*
X13764643Y-14784214D02*
X13774167Y-14765167D01*
X13793214Y-14755643D01*
X13821786Y-14755643D01*
X13840833Y-14765167D01*
X13850357Y-14784214D01*
X13850357Y-14888976D01*
X14240833Y-14679452D02*
X14069405Y-14936595D01*
X14497976Y-14688976D02*
X14517024Y-14688976D01*
X14536071Y-14698500D01*
X14545595Y-14708024D01*
X14555119Y-14727071D01*
X14564643Y-14765167D01*
X14564643Y-14812786D01*
X14555119Y-14850881D01*
X14545595Y-14869928D01*
X14536071Y-14879452D01*
X14517024Y-14888976D01*
X14497976Y-14888976D01*
X14478928Y-14879452D01*
X14469405Y-14869928D01*
X14459881Y-14850881D01*
X14450357Y-14812786D01*
X14450357Y-14765167D01*
X14459881Y-14727071D01*
X14469405Y-14708024D01*
X14478928Y-14698500D01*
X14497976Y-14688976D01*
X14650357Y-14869928D02*
X14659881Y-14879452D01*
X14650357Y-14888976D01*
X14640833Y-14879452D01*
X14650357Y-14869928D01*
X14650357Y-14888976D01*
X14783690Y-14688976D02*
X14802738Y-14688976D01*
X14821786Y-14698500D01*
X14831309Y-14708024D01*
X14840833Y-14727071D01*
X14850357Y-14765167D01*
X14850357Y-14812786D01*
X14840833Y-14850881D01*
X14831309Y-14869928D01*
X14821786Y-14879452D01*
X14802738Y-14888976D01*
X14783690Y-14888976D01*
X14764643Y-14879452D01*
X14755119Y-14869928D01*
X14745595Y-14850881D01*
X14736071Y-14812786D01*
X14736071Y-14765167D01*
X14745595Y-14727071D01*
X14755119Y-14708024D01*
X14764643Y-14698500D01*
X14783690Y-14688976D01*
X14926548Y-14708024D02*
X14936071Y-14698500D01*
X14955119Y-14688976D01*
X15002738Y-14688976D01*
X15021786Y-14698500D01*
X15031309Y-14708024D01*
X15040833Y-14727071D01*
X15040833Y-14746119D01*
X15031309Y-14774690D01*
X14917024Y-14888976D01*
X15040833Y-14888976D01*
X15136071Y-14888976D02*
X15174167Y-14888976D01*
X15193214Y-14879452D01*
X15202738Y-14869928D01*
X15221786Y-14841357D01*
X15231309Y-14803262D01*
X15231309Y-14727071D01*
X15221786Y-14708024D01*
X15212262Y-14698500D01*
X15193214Y-14688976D01*
X15155119Y-14688976D01*
X15136071Y-14698500D01*
X15126548Y-14708024D01*
X15117024Y-14727071D01*
X15117024Y-14774690D01*
X15126548Y-14793738D01*
X15136071Y-14803262D01*
X15155119Y-14812786D01*
X15193214Y-14812786D01*
X15212262Y-14803262D01*
X15221786Y-14793738D01*
X15231309Y-14774690D01*
X15412262Y-14688976D02*
X15317024Y-14688976D01*
X15307500Y-14784214D01*
X15317024Y-14774690D01*
X15336071Y-14765167D01*
X15383690Y-14765167D01*
X15402738Y-14774690D01*
X15412262Y-14784214D01*
X15421786Y-14803262D01*
X15421786Y-14850881D01*
X15412262Y-14869928D01*
X15402738Y-14879452D01*
X15383690Y-14888976D01*
X15336071Y-14888976D01*
X15317024Y-14879452D01*
X15307500Y-14869928D01*
X15497976Y-14688976D02*
X15497976Y-14727071D01*
X15574167Y-14688976D02*
X15574167Y-14727071D01*
X15869405Y-14965167D02*
X15859881Y-14955643D01*
X15840833Y-14927071D01*
X15831309Y-14908024D01*
X15821786Y-14879452D01*
X15812262Y-14831833D01*
X15812262Y-14793738D01*
X15821786Y-14746119D01*
X15831309Y-14717548D01*
X15840833Y-14698500D01*
X15859881Y-14669928D01*
X15869405Y-14660405D01*
X16050357Y-14888976D02*
X15936071Y-14888976D01*
X15993214Y-14888976D02*
X15993214Y-14688976D01*
X15974167Y-14717548D01*
X15955119Y-14736595D01*
X15936071Y-14746119D01*
X16126548Y-14708024D02*
X16136071Y-14698500D01*
X16155119Y-14688976D01*
X16202738Y-14688976D01*
X16221786Y-14698500D01*
X16231309Y-14708024D01*
X16240833Y-14727071D01*
X16240833Y-14746119D01*
X16231309Y-14774690D01*
X16117024Y-14888976D01*
X16240833Y-14888976D01*
X16478928Y-14888976D02*
X16478928Y-14688976D01*
X16564643Y-14888976D02*
X16564643Y-14784214D01*
X16555119Y-14765167D01*
X16536071Y-14755643D01*
X16507500Y-14755643D01*
X16488452Y-14765167D01*
X16478928Y-14774690D01*
X16688452Y-14888976D02*
X16669405Y-14879452D01*
X16659881Y-14869928D01*
X16650357Y-14850881D01*
X16650357Y-14793738D01*
X16659881Y-14774690D01*
X16669405Y-14765167D01*
X16688452Y-14755643D01*
X16717024Y-14755643D01*
X16736071Y-14765167D01*
X16745595Y-14774690D01*
X16755119Y-14793738D01*
X16755119Y-14850881D01*
X16745595Y-14869928D01*
X16736071Y-14879452D01*
X16717024Y-14888976D01*
X16688452Y-14888976D01*
X16869405Y-14888976D02*
X16850357Y-14879452D01*
X16840833Y-14860405D01*
X16840833Y-14688976D01*
X17021786Y-14879452D02*
X17002738Y-14888976D01*
X16964643Y-14888976D01*
X16945595Y-14879452D01*
X16936071Y-14860405D01*
X16936071Y-14784214D01*
X16945595Y-14765167D01*
X16964643Y-14755643D01*
X17002738Y-14755643D01*
X17021786Y-14765167D01*
X17031310Y-14784214D01*
X17031310Y-14803262D01*
X16936071Y-14822309D01*
X17107500Y-14879452D02*
X17126548Y-14888976D01*
X17164643Y-14888976D01*
X17183690Y-14879452D01*
X17193214Y-14860405D01*
X17193214Y-14850881D01*
X17183690Y-14831833D01*
X17164643Y-14822309D01*
X17136071Y-14822309D01*
X17117024Y-14812786D01*
X17107500Y-14793738D01*
X17107500Y-14784214D01*
X17117024Y-14765167D01*
X17136071Y-14755643D01*
X17164643Y-14755643D01*
X17183690Y-14765167D01*
X17259881Y-14965167D02*
X17269405Y-14955643D01*
X17288452Y-14927071D01*
X17297976Y-14908024D01*
X17307500Y-14879452D01*
X17317024Y-14831833D01*
X17317024Y-14793738D01*
X17307500Y-14746119D01*
X17297976Y-14717548D01*
X17288452Y-14698500D01*
X17269405Y-14669928D01*
X17259881Y-14660405D01*
D17*
X12232500Y-15030000D02*
X12297500Y-15095000D01*
X12297500Y-15030000D02*
X12232500Y-15095000D01*
X12297500Y-15062500D02*
G75*
G03*
X12297500Y-15062500I-32500J0D01*
G01*
D11*
X12593214Y-14952976D02*
X12612262Y-14952976D01*
X12631309Y-14962500D01*
X12640833Y-14972024D01*
X12650357Y-14991071D01*
X12659881Y-15029167D01*
X12659881Y-15076786D01*
X12650357Y-15114881D01*
X12640833Y-15133928D01*
X12631309Y-15143452D01*
X12612262Y-15152976D01*
X12593214Y-15152976D01*
X12574167Y-15143452D01*
X12564643Y-15133928D01*
X12555119Y-15114881D01*
X12545595Y-15076786D01*
X12545595Y-15029167D01*
X12555119Y-14991071D01*
X12564643Y-14972024D01*
X12574167Y-14962500D01*
X12593214Y-14952976D01*
X12745595Y-15133928D02*
X12755119Y-15143452D01*
X12745595Y-15152976D01*
X12736071Y-15143452D01*
X12745595Y-15133928D01*
X12745595Y-15152976D01*
X12926548Y-14952976D02*
X12888452Y-14952976D01*
X12869405Y-14962500D01*
X12859881Y-14972024D01*
X12840833Y-15000595D01*
X12831309Y-15038690D01*
X12831309Y-15114881D01*
X12840833Y-15133928D01*
X12850357Y-15143452D01*
X12869405Y-15152976D01*
X12907500Y-15152976D01*
X12926548Y-15143452D01*
X12936071Y-15133928D01*
X12945595Y-15114881D01*
X12945595Y-15067262D01*
X12936071Y-15048214D01*
X12926548Y-15038690D01*
X12907500Y-15029167D01*
X12869405Y-15029167D01*
X12850357Y-15038690D01*
X12840833Y-15048214D01*
X12831309Y-15067262D01*
X13126548Y-14952976D02*
X13031309Y-14952976D01*
X13021786Y-15048214D01*
X13031309Y-15038690D01*
X13050357Y-15029167D01*
X13097976Y-15029167D01*
X13117024Y-15038690D01*
X13126548Y-15048214D01*
X13136071Y-15067262D01*
X13136071Y-15114881D01*
X13126548Y-15133928D01*
X13117024Y-15143452D01*
X13097976Y-15152976D01*
X13050357Y-15152976D01*
X13031309Y-15143452D01*
X13021786Y-15133928D01*
X13259881Y-14952976D02*
X13278928Y-14952976D01*
X13297976Y-14962500D01*
X13307500Y-14972024D01*
X13317024Y-14991071D01*
X13326548Y-15029167D01*
X13326548Y-15076786D01*
X13317024Y-15114881D01*
X13307500Y-15133928D01*
X13297976Y-15143452D01*
X13278928Y-15152976D01*
X13259881Y-15152976D01*
X13240833Y-15143452D01*
X13231309Y-15133928D01*
X13221786Y-15114881D01*
X13212262Y-15076786D01*
X13212262Y-15029167D01*
X13221786Y-14991071D01*
X13231309Y-14972024D01*
X13240833Y-14962500D01*
X13259881Y-14952976D01*
X13412262Y-15152976D02*
X13412262Y-15019643D01*
X13412262Y-15038690D02*
X13421786Y-15029167D01*
X13440833Y-15019643D01*
X13469405Y-15019643D01*
X13488452Y-15029167D01*
X13497976Y-15048214D01*
X13497976Y-15152976D01*
X13497976Y-15048214D02*
X13507500Y-15029167D01*
X13526548Y-15019643D01*
X13555119Y-15019643D01*
X13574167Y-15029167D01*
X13583690Y-15048214D01*
X13583690Y-15152976D01*
X13678928Y-15152976D02*
X13678928Y-15019643D01*
X13678928Y-15038690D02*
X13688452Y-15029167D01*
X13707500Y-15019643D01*
X13736071Y-15019643D01*
X13755119Y-15029167D01*
X13764643Y-15048214D01*
X13764643Y-15152976D01*
X13764643Y-15048214D02*
X13774167Y-15029167D01*
X13793214Y-15019643D01*
X13821786Y-15019643D01*
X13840833Y-15029167D01*
X13850357Y-15048214D01*
X13850357Y-15152976D01*
X14240833Y-14943452D02*
X14069405Y-15200595D01*
X14497976Y-14952976D02*
X14517024Y-14952976D01*
X14536071Y-14962500D01*
X14545595Y-14972024D01*
X14555119Y-14991071D01*
X14564643Y-15029167D01*
X14564643Y-15076786D01*
X14555119Y-15114881D01*
X14545595Y-15133928D01*
X14536071Y-15143452D01*
X14517024Y-15152976D01*
X14497976Y-15152976D01*
X14478928Y-15143452D01*
X14469405Y-15133928D01*
X14459881Y-15114881D01*
X14450357Y-15076786D01*
X14450357Y-15029167D01*
X14459881Y-14991071D01*
X14469405Y-14972024D01*
X14478928Y-14962500D01*
X14497976Y-14952976D01*
X14650357Y-15133928D02*
X14659881Y-15143452D01*
X14650357Y-15152976D01*
X14640833Y-15143452D01*
X14650357Y-15133928D01*
X14650357Y-15152976D01*
X14783690Y-14952976D02*
X14802738Y-14952976D01*
X14821786Y-14962500D01*
X14831309Y-14972024D01*
X14840833Y-14991071D01*
X14850357Y-15029167D01*
X14850357Y-15076786D01*
X14840833Y-15114881D01*
X14831309Y-15133928D01*
X14821786Y-15143452D01*
X14802738Y-15152976D01*
X14783690Y-15152976D01*
X14764643Y-15143452D01*
X14755119Y-15133928D01*
X14745595Y-15114881D01*
X14736071Y-15076786D01*
X14736071Y-15029167D01*
X14745595Y-14991071D01*
X14755119Y-14972024D01*
X14764643Y-14962500D01*
X14783690Y-14952976D01*
X14926548Y-14972024D02*
X14936071Y-14962500D01*
X14955119Y-14952976D01*
X15002738Y-14952976D01*
X15021786Y-14962500D01*
X15031309Y-14972024D01*
X15040833Y-14991071D01*
X15040833Y-15010119D01*
X15031309Y-15038690D01*
X14917024Y-15152976D01*
X15040833Y-15152976D01*
X15221786Y-14952976D02*
X15126548Y-14952976D01*
X15117024Y-15048214D01*
X15126548Y-15038690D01*
X15145595Y-15029167D01*
X15193214Y-15029167D01*
X15212262Y-15038690D01*
X15221786Y-15048214D01*
X15231309Y-15067262D01*
X15231309Y-15114881D01*
X15221786Y-15133928D01*
X15212262Y-15143452D01*
X15193214Y-15152976D01*
X15145595Y-15152976D01*
X15126548Y-15143452D01*
X15117024Y-15133928D01*
X15402738Y-14952976D02*
X15364643Y-14952976D01*
X15345595Y-14962500D01*
X15336071Y-14972024D01*
X15317024Y-15000595D01*
X15307500Y-15038690D01*
X15307500Y-15114881D01*
X15317024Y-15133928D01*
X15326548Y-15143452D01*
X15345595Y-15152976D01*
X15383690Y-15152976D01*
X15402738Y-15143452D01*
X15412262Y-15133928D01*
X15421786Y-15114881D01*
X15421786Y-15067262D01*
X15412262Y-15048214D01*
X15402738Y-15038690D01*
X15383690Y-15029167D01*
X15345595Y-15029167D01*
X15326548Y-15038690D01*
X15317024Y-15048214D01*
X15307500Y-15067262D01*
X15497976Y-14952976D02*
X15497976Y-14991071D01*
X15574167Y-14952976D02*
X15574167Y-14991071D01*
X15869405Y-15229167D02*
X15859881Y-15219643D01*
X15840833Y-15191071D01*
X15831309Y-15172024D01*
X15821786Y-15143452D01*
X15812262Y-15095833D01*
X15812262Y-15057738D01*
X15821786Y-15010119D01*
X15831309Y-14981548D01*
X15840833Y-14962500D01*
X15859881Y-14933928D01*
X15869405Y-14924405D01*
X15974167Y-15038690D02*
X15955119Y-15029167D01*
X15945595Y-15019643D01*
X15936071Y-15000595D01*
X15936071Y-14991071D01*
X15945595Y-14972024D01*
X15955119Y-14962500D01*
X15974167Y-14952976D01*
X16012262Y-14952976D01*
X16031309Y-14962500D01*
X16040833Y-14972024D01*
X16050357Y-14991071D01*
X16050357Y-15000595D01*
X16040833Y-15019643D01*
X16031309Y-15029167D01*
X16012262Y-15038690D01*
X15974167Y-15038690D01*
X15955119Y-15048214D01*
X15945595Y-15057738D01*
X15936071Y-15076786D01*
X15936071Y-15114881D01*
X15945595Y-15133928D01*
X15955119Y-15143452D01*
X15974167Y-15152976D01*
X16012262Y-15152976D01*
X16031309Y-15143452D01*
X16040833Y-15133928D01*
X16050357Y-15114881D01*
X16050357Y-15076786D01*
X16040833Y-15057738D01*
X16031309Y-15048214D01*
X16012262Y-15038690D01*
X16288452Y-15152976D02*
X16288452Y-14952976D01*
X16374167Y-15152976D02*
X16374167Y-15048214D01*
X16364643Y-15029167D01*
X16345595Y-15019643D01*
X16317024Y-15019643D01*
X16297976Y-15029167D01*
X16288452Y-15038690D01*
X16497976Y-15152976D02*
X16478928Y-15143452D01*
X16469405Y-15133928D01*
X16459881Y-15114881D01*
X16459881Y-15057738D01*
X16469405Y-15038690D01*
X16478928Y-15029167D01*
X16497976Y-15019643D01*
X16526548Y-15019643D01*
X16545595Y-15029167D01*
X16555119Y-15038690D01*
X16564643Y-15057738D01*
X16564643Y-15114881D01*
X16555119Y-15133928D01*
X16545595Y-15143452D01*
X16526548Y-15152976D01*
X16497976Y-15152976D01*
X16678928Y-15152976D02*
X16659881Y-15143452D01*
X16650357Y-15124405D01*
X16650357Y-14952976D01*
X16831310Y-15143452D02*
X16812262Y-15152976D01*
X16774167Y-15152976D01*
X16755119Y-15143452D01*
X16745595Y-15124405D01*
X16745595Y-15048214D01*
X16755119Y-15029167D01*
X16774167Y-15019643D01*
X16812262Y-15019643D01*
X16831310Y-15029167D01*
X16840833Y-15048214D01*
X16840833Y-15067262D01*
X16745595Y-15086309D01*
X16917024Y-15143452D02*
X16936071Y-15152976D01*
X16974167Y-15152976D01*
X16993214Y-15143452D01*
X17002738Y-15124405D01*
X17002738Y-15114881D01*
X16993214Y-15095833D01*
X16974167Y-15086309D01*
X16945595Y-15086309D01*
X16926548Y-15076786D01*
X16917024Y-15057738D01*
X16917024Y-15048214D01*
X16926548Y-15029167D01*
X16945595Y-15019643D01*
X16974167Y-15019643D01*
X16993214Y-15029167D01*
X17069405Y-15229167D02*
X17078929Y-15219643D01*
X17097976Y-15191071D01*
X17107500Y-15172024D01*
X17117024Y-15143452D01*
X17126548Y-15095833D01*
X17126548Y-15057738D01*
X17117024Y-15010119D01*
X17107500Y-14981548D01*
X17097976Y-14962500D01*
X17078929Y-14933928D01*
X17069405Y-14924405D01*
X17431310Y-15229167D02*
X17421786Y-15219643D01*
X17402738Y-15191071D01*
X17393214Y-15172024D01*
X17383690Y-15143452D01*
X17374167Y-15095833D01*
X17374167Y-15057738D01*
X17383690Y-15010119D01*
X17393214Y-14981548D01*
X17402738Y-14962500D01*
X17421786Y-14933928D01*
X17431310Y-14924405D01*
X17507500Y-15019643D02*
X17507500Y-15152976D01*
X17507500Y-15038690D02*
X17517024Y-15029167D01*
X17536071Y-15019643D01*
X17564643Y-15019643D01*
X17583690Y-15029167D01*
X17593214Y-15048214D01*
X17593214Y-15152976D01*
X17717024Y-15152976D02*
X17697976Y-15143452D01*
X17688452Y-15133928D01*
X17678929Y-15114881D01*
X17678929Y-15057738D01*
X17688452Y-15038690D01*
X17697976Y-15029167D01*
X17717024Y-15019643D01*
X17745595Y-15019643D01*
X17764643Y-15029167D01*
X17774167Y-15038690D01*
X17783690Y-15057738D01*
X17783690Y-15114881D01*
X17774167Y-15133928D01*
X17764643Y-15143452D01*
X17745595Y-15152976D01*
X17717024Y-15152976D01*
X17840833Y-15019643D02*
X17917024Y-15019643D01*
X17869405Y-14952976D02*
X17869405Y-15124405D01*
X17878929Y-15143452D01*
X17897976Y-15152976D01*
X17917024Y-15152976D01*
X18136071Y-15019643D02*
X18136071Y-15219643D01*
X18136071Y-15029167D02*
X18155119Y-15019643D01*
X18193214Y-15019643D01*
X18212262Y-15029167D01*
X18221786Y-15038690D01*
X18231310Y-15057738D01*
X18231310Y-15114881D01*
X18221786Y-15133928D01*
X18212262Y-15143452D01*
X18193214Y-15152976D01*
X18155119Y-15152976D01*
X18136071Y-15143452D01*
X18345595Y-15152976D02*
X18326548Y-15143452D01*
X18317024Y-15124405D01*
X18317024Y-14952976D01*
X18507500Y-15152976D02*
X18507500Y-15048214D01*
X18497976Y-15029167D01*
X18478929Y-15019643D01*
X18440833Y-15019643D01*
X18421786Y-15029167D01*
X18507500Y-15143452D02*
X18488452Y-15152976D01*
X18440833Y-15152976D01*
X18421786Y-15143452D01*
X18412262Y-15124405D01*
X18412262Y-15105357D01*
X18421786Y-15086309D01*
X18440833Y-15076786D01*
X18488452Y-15076786D01*
X18507500Y-15067262D01*
X18574167Y-15019643D02*
X18650357Y-15019643D01*
X18602738Y-14952976D02*
X18602738Y-15124405D01*
X18612262Y-15143452D01*
X18631310Y-15152976D01*
X18650357Y-15152976D01*
X18793214Y-15143452D02*
X18774167Y-15152976D01*
X18736071Y-15152976D01*
X18717024Y-15143452D01*
X18707500Y-15124405D01*
X18707500Y-15048214D01*
X18717024Y-15029167D01*
X18736071Y-15019643D01*
X18774167Y-15019643D01*
X18793214Y-15029167D01*
X18802738Y-15048214D01*
X18802738Y-15067262D01*
X18707500Y-15086309D01*
X18974167Y-15152976D02*
X18974167Y-14952976D01*
X18974167Y-15143452D02*
X18955119Y-15152976D01*
X18917024Y-15152976D01*
X18897976Y-15143452D01*
X18888452Y-15133928D01*
X18878929Y-15114881D01*
X18878929Y-15057738D01*
X18888452Y-15038690D01*
X18897976Y-15029167D01*
X18917024Y-15019643D01*
X18955119Y-15019643D01*
X18974167Y-15029167D01*
X19050357Y-15229167D02*
X19059881Y-15219643D01*
X19078929Y-15191071D01*
X19088452Y-15172024D01*
X19097976Y-15143452D01*
X19107500Y-15095833D01*
X19107500Y-15057738D01*
X19097976Y-15010119D01*
X19088452Y-14981548D01*
X19078929Y-14962500D01*
X19059881Y-14933928D01*
X19050357Y-14924405D01*
X12097500Y-15226500D02*
X12297500Y-15426500D01*
X12297500Y-15226500D02*
X12097500Y-15426500D01*
X12197500Y-15226500D02*
X12197500Y-15426500D01*
X12097500Y-15326500D02*
X12297500Y-15326500D01*
X12545595Y-15236024D02*
X12555119Y-15226500D01*
X12574167Y-15216976D01*
X12621786Y-15216976D01*
X12640833Y-15226500D01*
X12650357Y-15236024D01*
X12659881Y-15255071D01*
X12659881Y-15274119D01*
X12650357Y-15302690D01*
X12536071Y-15416976D01*
X12659881Y-15416976D01*
X12745595Y-15397928D02*
X12755119Y-15407452D01*
X12745595Y-15416976D01*
X12736071Y-15407452D01*
X12745595Y-15397928D01*
X12745595Y-15416976D01*
X12831309Y-15236024D02*
X12840833Y-15226500D01*
X12859881Y-15216976D01*
X12907500Y-15216976D01*
X12926548Y-15226500D01*
X12936071Y-15236024D01*
X12945595Y-15255071D01*
X12945595Y-15274119D01*
X12936071Y-15302690D01*
X12821786Y-15416976D01*
X12945595Y-15416976D01*
X13069405Y-15216976D02*
X13088452Y-15216976D01*
X13107500Y-15226500D01*
X13117024Y-15236024D01*
X13126548Y-15255071D01*
X13136071Y-15293167D01*
X13136071Y-15340786D01*
X13126548Y-15378881D01*
X13117024Y-15397928D01*
X13107500Y-15407452D01*
X13088452Y-15416976D01*
X13069405Y-15416976D01*
X13050357Y-15407452D01*
X13040833Y-15397928D01*
X13031309Y-15378881D01*
X13021786Y-15340786D01*
X13021786Y-15293167D01*
X13031309Y-15255071D01*
X13040833Y-15236024D01*
X13050357Y-15226500D01*
X13069405Y-15216976D01*
X13259881Y-15216976D02*
X13278928Y-15216976D01*
X13297976Y-15226500D01*
X13307500Y-15236024D01*
X13317024Y-15255071D01*
X13326548Y-15293167D01*
X13326548Y-15340786D01*
X13317024Y-15378881D01*
X13307500Y-15397928D01*
X13297976Y-15407452D01*
X13278928Y-15416976D01*
X13259881Y-15416976D01*
X13240833Y-15407452D01*
X13231309Y-15397928D01*
X13221786Y-15378881D01*
X13212262Y-15340786D01*
X13212262Y-15293167D01*
X13221786Y-15255071D01*
X13231309Y-15236024D01*
X13240833Y-15226500D01*
X13259881Y-15216976D01*
X13412262Y-15416976D02*
X13412262Y-15283643D01*
X13412262Y-15302690D02*
X13421786Y-15293167D01*
X13440833Y-15283643D01*
X13469405Y-15283643D01*
X13488452Y-15293167D01*
X13497976Y-15312214D01*
X13497976Y-15416976D01*
X13497976Y-15312214D02*
X13507500Y-15293167D01*
X13526548Y-15283643D01*
X13555119Y-15283643D01*
X13574167Y-15293167D01*
X13583690Y-15312214D01*
X13583690Y-15416976D01*
X13678928Y-15416976D02*
X13678928Y-15283643D01*
X13678928Y-15302690D02*
X13688452Y-15293167D01*
X13707500Y-15283643D01*
X13736071Y-15283643D01*
X13755119Y-15293167D01*
X13764643Y-15312214D01*
X13764643Y-15416976D01*
X13764643Y-15312214D02*
X13774167Y-15293167D01*
X13793214Y-15283643D01*
X13821786Y-15283643D01*
X13840833Y-15293167D01*
X13850357Y-15312214D01*
X13850357Y-15416976D01*
X14240833Y-15207452D02*
X14069405Y-15464595D01*
X14497976Y-15216976D02*
X14517024Y-15216976D01*
X14536071Y-15226500D01*
X14545595Y-15236024D01*
X14555119Y-15255071D01*
X14564643Y-15293167D01*
X14564643Y-15340786D01*
X14555119Y-15378881D01*
X14545595Y-15397928D01*
X14536071Y-15407452D01*
X14517024Y-15416976D01*
X14497976Y-15416976D01*
X14478928Y-15407452D01*
X14469405Y-15397928D01*
X14459881Y-15378881D01*
X14450357Y-15340786D01*
X14450357Y-15293167D01*
X14459881Y-15255071D01*
X14469405Y-15236024D01*
X14478928Y-15226500D01*
X14497976Y-15216976D01*
X14650357Y-15397928D02*
X14659881Y-15407452D01*
X14650357Y-15416976D01*
X14640833Y-15407452D01*
X14650357Y-15397928D01*
X14650357Y-15416976D01*
X14783690Y-15216976D02*
X14802738Y-15216976D01*
X14821786Y-15226500D01*
X14831309Y-15236024D01*
X14840833Y-15255071D01*
X14850357Y-15293167D01*
X14850357Y-15340786D01*
X14840833Y-15378881D01*
X14831309Y-15397928D01*
X14821786Y-15407452D01*
X14802738Y-15416976D01*
X14783690Y-15416976D01*
X14764643Y-15407452D01*
X14755119Y-15397928D01*
X14745595Y-15378881D01*
X14736071Y-15340786D01*
X14736071Y-15293167D01*
X14745595Y-15255071D01*
X14755119Y-15236024D01*
X14764643Y-15226500D01*
X14783690Y-15216976D01*
X14964643Y-15302690D02*
X14945595Y-15293167D01*
X14936071Y-15283643D01*
X14926548Y-15264595D01*
X14926548Y-15255071D01*
X14936071Y-15236024D01*
X14945595Y-15226500D01*
X14964643Y-15216976D01*
X15002738Y-15216976D01*
X15021786Y-15226500D01*
X15031309Y-15236024D01*
X15040833Y-15255071D01*
X15040833Y-15264595D01*
X15031309Y-15283643D01*
X15021786Y-15293167D01*
X15002738Y-15302690D01*
X14964643Y-15302690D01*
X14945595Y-15312214D01*
X14936071Y-15321738D01*
X14926548Y-15340786D01*
X14926548Y-15378881D01*
X14936071Y-15397928D01*
X14945595Y-15407452D01*
X14964643Y-15416976D01*
X15002738Y-15416976D01*
X15021786Y-15407452D01*
X15031309Y-15397928D01*
X15040833Y-15378881D01*
X15040833Y-15340786D01*
X15031309Y-15321738D01*
X15021786Y-15312214D01*
X15002738Y-15302690D01*
X15212262Y-15216976D02*
X15174167Y-15216976D01*
X15155119Y-15226500D01*
X15145595Y-15236024D01*
X15126548Y-15264595D01*
X15117024Y-15302690D01*
X15117024Y-15378881D01*
X15126548Y-15397928D01*
X15136071Y-15407452D01*
X15155119Y-15416976D01*
X15193214Y-15416976D01*
X15212262Y-15407452D01*
X15221786Y-15397928D01*
X15231309Y-15378881D01*
X15231309Y-15331262D01*
X15221786Y-15312214D01*
X15212262Y-15302690D01*
X15193214Y-15293167D01*
X15155119Y-15293167D01*
X15136071Y-15302690D01*
X15126548Y-15312214D01*
X15117024Y-15331262D01*
X15402738Y-15216976D02*
X15364643Y-15216976D01*
X15345595Y-15226500D01*
X15336071Y-15236024D01*
X15317024Y-15264595D01*
X15307500Y-15302690D01*
X15307500Y-15378881D01*
X15317024Y-15397928D01*
X15326548Y-15407452D01*
X15345595Y-15416976D01*
X15383690Y-15416976D01*
X15402738Y-15407452D01*
X15412262Y-15397928D01*
X15421786Y-15378881D01*
X15421786Y-15331262D01*
X15412262Y-15312214D01*
X15402738Y-15302690D01*
X15383690Y-15293167D01*
X15345595Y-15293167D01*
X15326548Y-15302690D01*
X15317024Y-15312214D01*
X15307500Y-15331262D01*
X15497976Y-15216976D02*
X15497976Y-15255071D01*
X15574167Y-15216976D02*
X15574167Y-15255071D01*
X15869405Y-15493167D02*
X15859881Y-15483643D01*
X15840833Y-15455071D01*
X15831309Y-15436024D01*
X15821786Y-15407452D01*
X15812262Y-15359833D01*
X15812262Y-15321738D01*
X15821786Y-15274119D01*
X15831309Y-15245548D01*
X15840833Y-15226500D01*
X15859881Y-15197928D01*
X15869405Y-15188405D01*
X15936071Y-15236024D02*
X15945595Y-15226500D01*
X15964643Y-15216976D01*
X16012262Y-15216976D01*
X16031309Y-15226500D01*
X16040833Y-15236024D01*
X16050357Y-15255071D01*
X16050357Y-15274119D01*
X16040833Y-15302690D01*
X15926548Y-15416976D01*
X16050357Y-15416976D01*
X16174167Y-15216976D02*
X16193214Y-15216976D01*
X16212262Y-15226500D01*
X16221786Y-15236024D01*
X16231309Y-15255071D01*
X16240833Y-15293167D01*
X16240833Y-15340786D01*
X16231309Y-15378881D01*
X16221786Y-15397928D01*
X16212262Y-15407452D01*
X16193214Y-15416976D01*
X16174167Y-15416976D01*
X16155119Y-15407452D01*
X16145595Y-15397928D01*
X16136071Y-15378881D01*
X16126548Y-15340786D01*
X16126548Y-15293167D01*
X16136071Y-15255071D01*
X16145595Y-15236024D01*
X16155119Y-15226500D01*
X16174167Y-15216976D01*
X16478928Y-15416976D02*
X16478928Y-15216976D01*
X16564643Y-15416976D02*
X16564643Y-15312214D01*
X16555119Y-15293167D01*
X16536071Y-15283643D01*
X16507500Y-15283643D01*
X16488452Y-15293167D01*
X16478928Y-15302690D01*
X16688452Y-15416976D02*
X16669405Y-15407452D01*
X16659881Y-15397928D01*
X16650357Y-15378881D01*
X16650357Y-15321738D01*
X16659881Y-15302690D01*
X16669405Y-15293167D01*
X16688452Y-15283643D01*
X16717024Y-15283643D01*
X16736071Y-15293167D01*
X16745595Y-15302690D01*
X16755119Y-15321738D01*
X16755119Y-15378881D01*
X16745595Y-15397928D01*
X16736071Y-15407452D01*
X16717024Y-15416976D01*
X16688452Y-15416976D01*
X16869405Y-15416976D02*
X16850357Y-15407452D01*
X16840833Y-15388405D01*
X16840833Y-15216976D01*
X17021786Y-15407452D02*
X17002738Y-15416976D01*
X16964643Y-15416976D01*
X16945595Y-15407452D01*
X16936071Y-15388405D01*
X16936071Y-15312214D01*
X16945595Y-15293167D01*
X16964643Y-15283643D01*
X17002738Y-15283643D01*
X17021786Y-15293167D01*
X17031310Y-15312214D01*
X17031310Y-15331262D01*
X16936071Y-15350309D01*
X17107500Y-15407452D02*
X17126548Y-15416976D01*
X17164643Y-15416976D01*
X17183690Y-15407452D01*
X17193214Y-15388405D01*
X17193214Y-15378881D01*
X17183690Y-15359833D01*
X17164643Y-15350309D01*
X17136071Y-15350309D01*
X17117024Y-15340786D01*
X17107500Y-15321738D01*
X17107500Y-15312214D01*
X17117024Y-15293167D01*
X17136071Y-15283643D01*
X17164643Y-15283643D01*
X17183690Y-15293167D01*
X17259881Y-15493167D02*
X17269405Y-15483643D01*
X17288452Y-15455071D01*
X17297976Y-15436024D01*
X17307500Y-15407452D01*
X17317024Y-15359833D01*
X17317024Y-15321738D01*
X17307500Y-15274119D01*
X17297976Y-15245548D01*
X17288452Y-15226500D01*
X17269405Y-15197928D01*
X17259881Y-15188405D01*
X17621786Y-15493167D02*
X17612262Y-15483643D01*
X17593214Y-15455071D01*
X17583690Y-15436024D01*
X17574167Y-15407452D01*
X17564643Y-15359833D01*
X17564643Y-15321738D01*
X17574167Y-15274119D01*
X17583690Y-15245548D01*
X17593214Y-15226500D01*
X17612262Y-15197928D01*
X17621786Y-15188405D01*
X17697976Y-15283643D02*
X17697976Y-15416976D01*
X17697976Y-15302690D02*
X17707500Y-15293167D01*
X17726548Y-15283643D01*
X17755119Y-15283643D01*
X17774167Y-15293167D01*
X17783690Y-15312214D01*
X17783690Y-15416976D01*
X17907500Y-15416976D02*
X17888452Y-15407452D01*
X17878929Y-15397928D01*
X17869405Y-15378881D01*
X17869405Y-15321738D01*
X17878929Y-15302690D01*
X17888452Y-15293167D01*
X17907500Y-15283643D01*
X17936071Y-15283643D01*
X17955119Y-15293167D01*
X17964643Y-15302690D01*
X17974167Y-15321738D01*
X17974167Y-15378881D01*
X17964643Y-15397928D01*
X17955119Y-15407452D01*
X17936071Y-15416976D01*
X17907500Y-15416976D01*
X18031310Y-15283643D02*
X18107500Y-15283643D01*
X18059881Y-15216976D02*
X18059881Y-15388405D01*
X18069405Y-15407452D01*
X18088452Y-15416976D01*
X18107500Y-15416976D01*
X18326548Y-15283643D02*
X18326548Y-15483643D01*
X18326548Y-15293167D02*
X18345595Y-15283643D01*
X18383690Y-15283643D01*
X18402738Y-15293167D01*
X18412262Y-15302690D01*
X18421786Y-15321738D01*
X18421786Y-15378881D01*
X18412262Y-15397928D01*
X18402738Y-15407452D01*
X18383690Y-15416976D01*
X18345595Y-15416976D01*
X18326548Y-15407452D01*
X18536071Y-15416976D02*
X18517024Y-15407452D01*
X18507500Y-15388405D01*
X18507500Y-15216976D01*
X18697976Y-15416976D02*
X18697976Y-15312214D01*
X18688452Y-15293167D01*
X18669405Y-15283643D01*
X18631310Y-15283643D01*
X18612262Y-15293167D01*
X18697976Y-15407452D02*
X18678929Y-15416976D01*
X18631310Y-15416976D01*
X18612262Y-15407452D01*
X18602738Y-15388405D01*
X18602738Y-15369357D01*
X18612262Y-15350309D01*
X18631310Y-15340786D01*
X18678929Y-15340786D01*
X18697976Y-15331262D01*
X18764643Y-15283643D02*
X18840833Y-15283643D01*
X18793214Y-15216976D02*
X18793214Y-15388405D01*
X18802738Y-15407452D01*
X18821786Y-15416976D01*
X18840833Y-15416976D01*
X18983690Y-15407452D02*
X18964643Y-15416976D01*
X18926548Y-15416976D01*
X18907500Y-15407452D01*
X18897976Y-15388405D01*
X18897976Y-15312214D01*
X18907500Y-15293167D01*
X18926548Y-15283643D01*
X18964643Y-15283643D01*
X18983690Y-15293167D01*
X18993214Y-15312214D01*
X18993214Y-15331262D01*
X18897976Y-15350309D01*
X19164643Y-15416976D02*
X19164643Y-15216976D01*
X19164643Y-15407452D02*
X19145595Y-15416976D01*
X19107500Y-15416976D01*
X19088452Y-15407452D01*
X19078929Y-15397928D01*
X19069405Y-15378881D01*
X19069405Y-15321738D01*
X19078929Y-15302690D01*
X19088452Y-15293167D01*
X19107500Y-15283643D01*
X19145595Y-15283643D01*
X19164643Y-15293167D01*
X19240833Y-15493167D02*
X19250357Y-15483643D01*
X19269405Y-15455071D01*
X19278929Y-15436024D01*
X19288452Y-15407452D01*
X19297976Y-15359833D01*
X19297976Y-15321738D01*
X19288452Y-15274119D01*
X19278929Y-15245548D01*
X19269405Y-15226500D01*
X19250357Y-15197928D01*
X19240833Y-15188405D01*
M02*
