%TF.GenerationSoftware,KiCad,Pcbnew,(6.0.4)*%
%TF.CreationDate,2022-09-16T03:15:39+09:00*%
%TF.ProjectId,gnssboard_p,676e7373-626f-4617-9264-5f702e6b6963,rev?*%
%TF.SameCoordinates,Original*%
%TF.FileFunction,Legend,Top*%
%TF.FilePolarity,Positive*%
%FSLAX46Y46*%
G04 Gerber Fmt 4.6, Leading zero omitted, Abs format (unit mm)*
G04 Created by KiCad (PCBNEW (6.0.4)) date 2022-09-16 03:15:39*
%MOMM*%
%LPD*%
G01*
G04 APERTURE LIST*
%ADD10C,0.200000*%
%ADD11C,0.050000*%
%ADD12C,0.300000*%
%ADD13C,0.150000*%
%ADD14C,0.254000*%
%ADD15C,0.120000*%
%ADD16C,0.100000*%
%ADD17C,0.250000*%
G04 APERTURE END LIST*
D10*
X143020000Y-73250000D02*
X175020000Y-73250000D01*
X175020000Y-73250000D02*
X175020000Y-105250000D01*
X175020000Y-105250000D02*
X143020000Y-105250000D01*
X143020000Y-105250000D02*
X143020000Y-73250000D01*
D11*
X110020000Y-40250000D02*
X175020000Y-40250000D01*
X175020000Y-40250000D02*
X175020000Y-105250000D01*
X175020000Y-105250000D02*
X110020000Y-105250000D01*
X110020000Y-105250000D02*
X110020000Y-40250000D01*
D12*
X144118571Y-98458571D02*
X144118571Y-96958571D01*
X144475714Y-96958571D01*
X144690000Y-97030000D01*
X144832857Y-97172857D01*
X144904285Y-97315714D01*
X144975714Y-97601428D01*
X144975714Y-97815714D01*
X144904285Y-98101428D01*
X144832857Y-98244285D01*
X144690000Y-98387142D01*
X144475714Y-98458571D01*
X144118571Y-98458571D01*
X145618571Y-97672857D02*
X146118571Y-97672857D01*
X146332857Y-98458571D02*
X145618571Y-98458571D01*
X145618571Y-96958571D01*
X146332857Y-96958571D01*
X147832857Y-98458571D02*
X147332857Y-97744285D01*
X146975714Y-98458571D02*
X146975714Y-96958571D01*
X147547142Y-96958571D01*
X147690000Y-97030000D01*
X147761428Y-97101428D01*
X147832857Y-97244285D01*
X147832857Y-97458571D01*
X147761428Y-97601428D01*
X147690000Y-97672857D01*
X147547142Y-97744285D01*
X146975714Y-97744285D01*
X149332857Y-98315714D02*
X149261428Y-98387142D01*
X149047142Y-98458571D01*
X148904285Y-98458571D01*
X148690000Y-98387142D01*
X148547142Y-98244285D01*
X148475714Y-98101428D01*
X148404285Y-97815714D01*
X148404285Y-97601428D01*
X148475714Y-97315714D01*
X148547142Y-97172857D01*
X148690000Y-97030000D01*
X148904285Y-96958571D01*
X149047142Y-96958571D01*
X149261428Y-97030000D01*
X149332857Y-97101428D01*
D13*
X166770000Y-81983333D02*
X166770000Y-81450000D01*
X167036666Y-81716666D02*
X166503333Y-81716666D01*
X166336666Y-81183333D02*
X166336666Y-80750000D01*
X166603333Y-80983333D01*
X166603333Y-80883333D01*
X166636666Y-80816666D01*
X166670000Y-80783333D01*
X166736666Y-80750000D01*
X166903333Y-80750000D01*
X166970000Y-80783333D01*
X167003333Y-80816666D01*
X167036666Y-80883333D01*
X167036666Y-81083333D01*
X167003333Y-81150000D01*
X166970000Y-81183333D01*
X166336666Y-80550000D02*
X167036666Y-80316666D01*
X166336666Y-80083333D01*
X166336666Y-79916666D02*
X166336666Y-79483333D01*
X166603333Y-79716666D01*
X166603333Y-79616666D01*
X166636666Y-79550000D01*
X166670000Y-79516666D01*
X166736666Y-79483333D01*
X166903333Y-79483333D01*
X166970000Y-79516666D01*
X167003333Y-79550000D01*
X167036666Y-79616666D01*
X167036666Y-79816666D01*
X167003333Y-79883333D01*
X166970000Y-79916666D01*
X164297800Y-81483333D02*
X164264466Y-81550000D01*
X164264466Y-81650000D01*
X164297800Y-81750000D01*
X164364466Y-81816666D01*
X164431133Y-81850000D01*
X164564466Y-81883333D01*
X164664466Y-81883333D01*
X164797800Y-81850000D01*
X164864466Y-81816666D01*
X164931133Y-81750000D01*
X164964466Y-81650000D01*
X164964466Y-81583333D01*
X164931133Y-81483333D01*
X164897800Y-81450000D01*
X164664466Y-81450000D01*
X164664466Y-81583333D01*
X164964466Y-81150000D02*
X164264466Y-81150000D01*
X164964466Y-80750000D01*
X164264466Y-80750000D01*
X164964466Y-80416666D02*
X164264466Y-80416666D01*
X164264466Y-80250000D01*
X164297800Y-80150000D01*
X164364466Y-80083333D01*
X164431133Y-80050000D01*
X164564466Y-80016666D01*
X164664466Y-80016666D01*
X164797800Y-80050000D01*
X164864466Y-80083333D01*
X164931133Y-80150000D01*
X164964466Y-80250000D01*
X164964466Y-80416666D01*
X172336666Y-81883333D02*
X172336666Y-81483333D01*
X173036666Y-81683333D02*
X172336666Y-81683333D01*
X172336666Y-81316666D02*
X173036666Y-80850000D01*
X172336666Y-80850000D02*
X173036666Y-81316666D01*
X168918933Y-101220800D02*
X168952266Y-101120800D01*
X168952266Y-100954133D01*
X168918933Y-100887466D01*
X168885600Y-100854133D01*
X168818933Y-100820800D01*
X168752266Y-100820800D01*
X168685600Y-100854133D01*
X168652266Y-100887466D01*
X168618933Y-100954133D01*
X168585600Y-101087466D01*
X168552266Y-101154133D01*
X168518933Y-101187466D01*
X168452266Y-101220800D01*
X168385600Y-101220800D01*
X168318933Y-101187466D01*
X168285600Y-101154133D01*
X168252266Y-101087466D01*
X168252266Y-100920800D01*
X168285600Y-100820800D01*
X168952266Y-100520800D02*
X168252266Y-100520800D01*
X168252266Y-100354133D01*
X168285600Y-100254133D01*
X168352266Y-100187466D01*
X168418933Y-100154133D01*
X168552266Y-100120800D01*
X168652266Y-100120800D01*
X168785600Y-100154133D01*
X168852266Y-100187466D01*
X168918933Y-100254133D01*
X168952266Y-100354133D01*
X168952266Y-100520800D01*
X168752266Y-99854133D02*
X168752266Y-99520800D01*
X168952266Y-99920800D02*
X168252266Y-99687466D01*
X168952266Y-99454133D01*
X144226666Y-103938666D02*
X144226666Y-103238666D01*
X144393333Y-103238666D01*
X144493333Y-103272000D01*
X144560000Y-103338666D01*
X144593333Y-103405333D01*
X144626666Y-103538666D01*
X144626666Y-103638666D01*
X144593333Y-103772000D01*
X144560000Y-103838666D01*
X144493333Y-103905333D01*
X144393333Y-103938666D01*
X144226666Y-103938666D01*
X145193333Y-103905333D02*
X145126666Y-103938666D01*
X144993333Y-103938666D01*
X144926666Y-103905333D01*
X144893333Y-103838666D01*
X144893333Y-103572000D01*
X144926666Y-103505333D01*
X144993333Y-103472000D01*
X145126666Y-103472000D01*
X145193333Y-103505333D01*
X145226666Y-103572000D01*
X145226666Y-103638666D01*
X144893333Y-103705333D01*
X145493333Y-103905333D02*
X145560000Y-103938666D01*
X145693333Y-103938666D01*
X145760000Y-103905333D01*
X145793333Y-103838666D01*
X145793333Y-103805333D01*
X145760000Y-103738666D01*
X145693333Y-103705333D01*
X145593333Y-103705333D01*
X145526666Y-103672000D01*
X145493333Y-103605333D01*
X145493333Y-103572000D01*
X145526666Y-103505333D01*
X145593333Y-103472000D01*
X145693333Y-103472000D01*
X145760000Y-103505333D01*
X146093333Y-103938666D02*
X146093333Y-103472000D01*
X146093333Y-103238666D02*
X146060000Y-103272000D01*
X146093333Y-103305333D01*
X146126666Y-103272000D01*
X146093333Y-103238666D01*
X146093333Y-103305333D01*
X146726666Y-103472000D02*
X146726666Y-104038666D01*
X146693333Y-104105333D01*
X146660000Y-104138666D01*
X146593333Y-104172000D01*
X146493333Y-104172000D01*
X146426666Y-104138666D01*
X146726666Y-103905333D02*
X146660000Y-103938666D01*
X146526666Y-103938666D01*
X146460000Y-103905333D01*
X146426666Y-103872000D01*
X146393333Y-103805333D01*
X146393333Y-103605333D01*
X146426666Y-103538666D01*
X146460000Y-103505333D01*
X146526666Y-103472000D01*
X146660000Y-103472000D01*
X146726666Y-103505333D01*
X147060000Y-103472000D02*
X147060000Y-103938666D01*
X147060000Y-103538666D02*
X147093333Y-103505333D01*
X147160000Y-103472000D01*
X147260000Y-103472000D01*
X147326666Y-103505333D01*
X147360000Y-103572000D01*
X147360000Y-103938666D01*
X147693333Y-103872000D02*
X147726666Y-103905333D01*
X147693333Y-103938666D01*
X147660000Y-103905333D01*
X147693333Y-103872000D01*
X147693333Y-103938666D01*
X147693333Y-103505333D02*
X147726666Y-103538666D01*
X147693333Y-103572000D01*
X147660000Y-103538666D01*
X147693333Y-103505333D01*
X147693333Y-103572000D01*
X148526666Y-103738666D02*
X148860000Y-103738666D01*
X148460000Y-103938666D02*
X148693333Y-103238666D01*
X148926666Y-103938666D01*
X149160000Y-103938666D02*
X149160000Y-103238666D01*
X149226666Y-103672000D02*
X149426666Y-103938666D01*
X149426666Y-103472000D02*
X149160000Y-103738666D01*
X149726666Y-103938666D02*
X149726666Y-103472000D01*
X149726666Y-103238666D02*
X149693333Y-103272000D01*
X149726666Y-103305333D01*
X149760000Y-103272000D01*
X149726666Y-103238666D01*
X149726666Y-103305333D01*
X150160000Y-103938666D02*
X150093333Y-103905333D01*
X150060000Y-103872000D01*
X150026666Y-103805333D01*
X150026666Y-103605333D01*
X150060000Y-103538666D01*
X150093333Y-103505333D01*
X150160000Y-103472000D01*
X150260000Y-103472000D01*
X150326666Y-103505333D01*
X150360000Y-103538666D01*
X150393333Y-103605333D01*
X150393333Y-103805333D01*
X150360000Y-103872000D01*
X150326666Y-103905333D01*
X150260000Y-103938666D01*
X150160000Y-103938666D01*
X151226666Y-103938666D02*
X151226666Y-103238666D01*
X151460000Y-103738666D01*
X151693333Y-103238666D01*
X151693333Y-103938666D01*
X144603023Y-101952000D02*
X144526833Y-101913904D01*
X144412547Y-101913904D01*
X144298261Y-101952000D01*
X144222071Y-102028190D01*
X144183976Y-102104380D01*
X144145880Y-102256761D01*
X144145880Y-102371047D01*
X144183976Y-102523428D01*
X144222071Y-102599619D01*
X144298261Y-102675809D01*
X144412547Y-102713904D01*
X144488738Y-102713904D01*
X144603023Y-102675809D01*
X144641119Y-102637714D01*
X144641119Y-102371047D01*
X144488738Y-102371047D01*
X144983976Y-102713904D02*
X144983976Y-101913904D01*
X145441119Y-102713904D01*
X145441119Y-101913904D01*
X145783976Y-102675809D02*
X145898261Y-102713904D01*
X146088738Y-102713904D01*
X146164928Y-102675809D01*
X146203023Y-102637714D01*
X146241119Y-102561523D01*
X146241119Y-102485333D01*
X146203023Y-102409142D01*
X146164928Y-102371047D01*
X146088738Y-102332952D01*
X145936357Y-102294857D01*
X145860166Y-102256761D01*
X145822071Y-102218666D01*
X145783976Y-102142476D01*
X145783976Y-102066285D01*
X145822071Y-101990095D01*
X145860166Y-101952000D01*
X145936357Y-101913904D01*
X146126833Y-101913904D01*
X146241119Y-101952000D01*
X146545880Y-102675809D02*
X146660166Y-102713904D01*
X146850642Y-102713904D01*
X146926833Y-102675809D01*
X146964928Y-102637714D01*
X147003023Y-102561523D01*
X147003023Y-102485333D01*
X146964928Y-102409142D01*
X146926833Y-102371047D01*
X146850642Y-102332952D01*
X146698261Y-102294857D01*
X146622071Y-102256761D01*
X146583976Y-102218666D01*
X146545880Y-102142476D01*
X146545880Y-102066285D01*
X146583976Y-101990095D01*
X146622071Y-101952000D01*
X146698261Y-101913904D01*
X146888738Y-101913904D01*
X147003023Y-101952000D01*
X148222071Y-102294857D02*
X148336357Y-102332952D01*
X148374452Y-102371047D01*
X148412547Y-102447238D01*
X148412547Y-102561523D01*
X148374452Y-102637714D01*
X148336357Y-102675809D01*
X148260166Y-102713904D01*
X147955404Y-102713904D01*
X147955404Y-101913904D01*
X148222071Y-101913904D01*
X148298261Y-101952000D01*
X148336357Y-101990095D01*
X148374452Y-102066285D01*
X148374452Y-102142476D01*
X148336357Y-102218666D01*
X148298261Y-102256761D01*
X148222071Y-102294857D01*
X147955404Y-102294857D01*
X148869690Y-102713904D02*
X148793500Y-102675809D01*
X148755404Y-102637714D01*
X148717309Y-102561523D01*
X148717309Y-102332952D01*
X148755404Y-102256761D01*
X148793500Y-102218666D01*
X148869690Y-102180571D01*
X148983976Y-102180571D01*
X149060166Y-102218666D01*
X149098261Y-102256761D01*
X149136357Y-102332952D01*
X149136357Y-102561523D01*
X149098261Y-102637714D01*
X149060166Y-102675809D01*
X148983976Y-102713904D01*
X148869690Y-102713904D01*
X149822071Y-102713904D02*
X149822071Y-102294857D01*
X149783976Y-102218666D01*
X149707785Y-102180571D01*
X149555404Y-102180571D01*
X149479214Y-102218666D01*
X149822071Y-102675809D02*
X149745880Y-102713904D01*
X149555404Y-102713904D01*
X149479214Y-102675809D01*
X149441119Y-102599619D01*
X149441119Y-102523428D01*
X149479214Y-102447238D01*
X149555404Y-102409142D01*
X149745880Y-102409142D01*
X149822071Y-102371047D01*
X150203023Y-102713904D02*
X150203023Y-102180571D01*
X150203023Y-102332952D02*
X150241119Y-102256761D01*
X150279214Y-102218666D01*
X150355404Y-102180571D01*
X150431595Y-102180571D01*
X151041119Y-102713904D02*
X151041119Y-101913904D01*
X151041119Y-102675809D02*
X150964928Y-102713904D01*
X150812547Y-102713904D01*
X150736357Y-102675809D01*
X150698261Y-102637714D01*
X150660166Y-102561523D01*
X150660166Y-102332952D01*
X150698261Y-102256761D01*
X150736357Y-102218666D01*
X150812547Y-102180571D01*
X150964928Y-102180571D01*
X151041119Y-102218666D01*
X144069690Y-99132571D02*
X144374452Y-99132571D01*
X144183976Y-98865904D02*
X144183976Y-99551619D01*
X144222071Y-99627809D01*
X144298261Y-99665904D01*
X144374452Y-99665904D01*
X144983976Y-99665904D02*
X144983976Y-99246857D01*
X144945880Y-99170666D01*
X144869690Y-99132571D01*
X144717309Y-99132571D01*
X144641119Y-99170666D01*
X144983976Y-99627809D02*
X144907785Y-99665904D01*
X144717309Y-99665904D01*
X144641119Y-99627809D01*
X144603023Y-99551619D01*
X144603023Y-99475428D01*
X144641119Y-99399238D01*
X144717309Y-99361142D01*
X144907785Y-99361142D01*
X144983976Y-99323047D01*
X145364928Y-99132571D02*
X145364928Y-99665904D01*
X145364928Y-99208761D02*
X145403023Y-99170666D01*
X145479214Y-99132571D01*
X145593500Y-99132571D01*
X145669690Y-99170666D01*
X145707785Y-99246857D01*
X145707785Y-99665904D01*
X146393500Y-99627809D02*
X146317309Y-99665904D01*
X146164928Y-99665904D01*
X146088738Y-99627809D01*
X146050642Y-99551619D01*
X146050642Y-99246857D01*
X146088738Y-99170666D01*
X146164928Y-99132571D01*
X146317309Y-99132571D01*
X146393500Y-99170666D01*
X146431595Y-99246857D01*
X146431595Y-99323047D01*
X146050642Y-99399238D01*
X146774452Y-99665904D02*
X146774452Y-98865904D01*
X146850642Y-99361142D02*
X147079214Y-99665904D01*
X147079214Y-99132571D02*
X146774452Y-99437333D01*
X147536357Y-99665904D02*
X147460166Y-99627809D01*
X147422071Y-99589714D01*
X147383976Y-99513523D01*
X147383976Y-99284952D01*
X147422071Y-99208761D01*
X147460166Y-99170666D01*
X147536357Y-99132571D01*
X147650642Y-99132571D01*
X147726833Y-99170666D01*
X147764928Y-99208761D01*
X147803023Y-99284952D01*
X147803023Y-99513523D01*
X147764928Y-99589714D01*
X147726833Y-99627809D01*
X147650642Y-99665904D01*
X147536357Y-99665904D01*
X148145880Y-99132571D02*
X148145880Y-99665904D01*
X148145880Y-99208761D02*
X148183976Y-99170666D01*
X148260166Y-99132571D01*
X148374452Y-99132571D01*
X148450642Y-99170666D01*
X148488738Y-99246857D01*
X148488738Y-99665904D01*
X148831595Y-99627809D02*
X148907785Y-99665904D01*
X149060166Y-99665904D01*
X149136357Y-99627809D01*
X149174452Y-99551619D01*
X149174452Y-99513523D01*
X149136357Y-99437333D01*
X149060166Y-99399238D01*
X148945880Y-99399238D01*
X148869690Y-99361142D01*
X148831595Y-99284952D01*
X148831595Y-99246857D01*
X148869690Y-99170666D01*
X148945880Y-99132571D01*
X149060166Y-99132571D01*
X149136357Y-99170666D01*
X149860166Y-99665904D02*
X149860166Y-99246857D01*
X149822071Y-99170666D01*
X149745880Y-99132571D01*
X149593500Y-99132571D01*
X149517309Y-99170666D01*
X149860166Y-99627809D02*
X149783976Y-99665904D01*
X149593500Y-99665904D01*
X149517309Y-99627809D01*
X149479214Y-99551619D01*
X149479214Y-99475428D01*
X149517309Y-99399238D01*
X149593500Y-99361142D01*
X149783976Y-99361142D01*
X149860166Y-99323047D01*
X150126833Y-99132571D02*
X150431595Y-99132571D01*
X150241119Y-98865904D02*
X150241119Y-99551619D01*
X150279214Y-99627809D01*
X150355404Y-99665904D01*
X150431595Y-99665904D01*
X150660166Y-98942095D02*
X150698261Y-98904000D01*
X150774452Y-98865904D01*
X150964928Y-98865904D01*
X151041119Y-98904000D01*
X151079214Y-98942095D01*
X151117309Y-99018285D01*
X151117309Y-99094476D01*
X151079214Y-99208761D01*
X150622071Y-99665904D01*
X151117309Y-99665904D01*
X151612547Y-98865904D02*
X151688738Y-98865904D01*
X151764928Y-98904000D01*
X151803023Y-98942095D01*
X151841119Y-99018285D01*
X151879214Y-99170666D01*
X151879214Y-99361142D01*
X151841119Y-99513523D01*
X151803023Y-99589714D01*
X151764928Y-99627809D01*
X151688738Y-99665904D01*
X151612547Y-99665904D01*
X151536357Y-99627809D01*
X151498261Y-99589714D01*
X151460166Y-99513523D01*
X151422071Y-99361142D01*
X151422071Y-99170666D01*
X151460166Y-99018285D01*
X151498261Y-98942095D01*
X151536357Y-98904000D01*
X151612547Y-98865904D01*
X152183976Y-98942095D02*
X152222071Y-98904000D01*
X152298261Y-98865904D01*
X152488738Y-98865904D01*
X152564928Y-98904000D01*
X152603023Y-98942095D01*
X152641119Y-99018285D01*
X152641119Y-99094476D01*
X152603023Y-99208761D01*
X152145880Y-99665904D01*
X152641119Y-99665904D01*
X152945880Y-98942095D02*
X152983976Y-98904000D01*
X153060166Y-98865904D01*
X153250642Y-98865904D01*
X153326833Y-98904000D01*
X153364928Y-98942095D01*
X153403023Y-99018285D01*
X153403023Y-99094476D01*
X153364928Y-99208761D01*
X152907785Y-99665904D01*
X153403023Y-99665904D01*
D10*
X170748761Y-79102380D02*
X170748761Y-79911904D01*
X170796380Y-80007142D01*
X170844000Y-80054761D01*
X170939238Y-80102380D01*
X171129714Y-80102380D01*
X171224952Y-80054761D01*
X171272571Y-80007142D01*
X171320190Y-79911904D01*
X171320190Y-79102380D01*
X171748761Y-79816666D02*
X172224952Y-79816666D01*
X171653523Y-80102380D02*
X171986857Y-79102380D01*
X172320190Y-80102380D01*
X173224952Y-80102380D02*
X172891619Y-79626190D01*
X172653523Y-80102380D02*
X172653523Y-79102380D01*
X173034476Y-79102380D01*
X173129714Y-79150000D01*
X173177333Y-79197619D01*
X173224952Y-79292857D01*
X173224952Y-79435714D01*
X173177333Y-79530952D01*
X173129714Y-79578571D01*
X173034476Y-79626190D01*
X172653523Y-79626190D01*
X173510666Y-79102380D02*
X174082095Y-79102380D01*
X173796380Y-80102380D02*
X173796380Y-79102380D01*
X171901209Y-102855180D02*
X171901209Y-101855180D01*
X172329780Y-101950419D02*
X172377400Y-101902800D01*
X172472638Y-101855180D01*
X172710733Y-101855180D01*
X172805971Y-101902800D01*
X172853590Y-101950419D01*
X172901209Y-102045657D01*
X172901209Y-102140895D01*
X172853590Y-102283752D01*
X172282161Y-102855180D01*
X172901209Y-102855180D01*
X173901209Y-102759942D02*
X173853590Y-102807561D01*
X173710733Y-102855180D01*
X173615495Y-102855180D01*
X173472638Y-102807561D01*
X173377400Y-102712323D01*
X173329780Y-102617085D01*
X173282161Y-102426609D01*
X173282161Y-102283752D01*
X173329780Y-102093276D01*
X173377400Y-101998038D01*
X173472638Y-101902800D01*
X173615495Y-101855180D01*
X173710733Y-101855180D01*
X173853590Y-101902800D01*
X173901209Y-101950419D01*
D13*
X171036666Y-81466666D02*
X170703333Y-81700000D01*
X171036666Y-81866666D02*
X170336666Y-81866666D01*
X170336666Y-81600000D01*
X170370000Y-81533333D01*
X170403333Y-81500000D01*
X170470000Y-81466666D01*
X170570000Y-81466666D01*
X170636666Y-81500000D01*
X170670000Y-81533333D01*
X170703333Y-81600000D01*
X170703333Y-81866666D01*
X170336666Y-81233333D02*
X171036666Y-80766666D01*
X170336666Y-80766666D02*
X171036666Y-81233333D01*
X168936666Y-81483333D02*
X168936666Y-81883333D01*
X168936666Y-81683333D02*
X168236666Y-81683333D01*
X168336666Y-81750000D01*
X168403333Y-81816666D01*
X168436666Y-81883333D01*
X168936666Y-81183333D02*
X168236666Y-81183333D01*
X168236666Y-80916666D01*
X168270000Y-80850000D01*
X168303333Y-80816666D01*
X168370000Y-80783333D01*
X168470000Y-80783333D01*
X168536666Y-80816666D01*
X168570000Y-80850000D01*
X168603333Y-80916666D01*
X168603333Y-81183333D01*
X168936666Y-80483333D02*
X168236666Y-80483333D01*
X168236666Y-80216666D01*
X168270000Y-80150000D01*
X168303333Y-80116666D01*
X168370000Y-80083333D01*
X168470000Y-80083333D01*
X168536666Y-80116666D01*
X168570000Y-80150000D01*
X168603333Y-80216666D01*
X168603333Y-80483333D01*
X168903333Y-79816666D02*
X168936666Y-79716666D01*
X168936666Y-79550000D01*
X168903333Y-79483333D01*
X168870000Y-79450000D01*
X168803333Y-79416666D01*
X168736666Y-79416666D01*
X168670000Y-79450000D01*
X168636666Y-79483333D01*
X168603333Y-79550000D01*
X168570000Y-79683333D01*
X168536666Y-79750000D01*
X168503333Y-79783333D01*
X168436666Y-79816666D01*
X168370000Y-79816666D01*
X168303333Y-79783333D01*
X168270000Y-79750000D01*
X168236666Y-79683333D01*
X168236666Y-79516666D01*
X168270000Y-79416666D01*
X171027133Y-101204133D02*
X171060466Y-101104133D01*
X171060466Y-100937466D01*
X171027133Y-100870800D01*
X170993800Y-100837466D01*
X170927133Y-100804133D01*
X170860466Y-100804133D01*
X170793800Y-100837466D01*
X170760466Y-100870800D01*
X170727133Y-100937466D01*
X170693800Y-101070800D01*
X170660466Y-101137466D01*
X170627133Y-101170800D01*
X170560466Y-101204133D01*
X170493800Y-101204133D01*
X170427133Y-101170800D01*
X170393800Y-101137466D01*
X170360466Y-101070800D01*
X170360466Y-100904133D01*
X170393800Y-100804133D01*
X170993800Y-100104133D02*
X171027133Y-100137466D01*
X171060466Y-100237466D01*
X171060466Y-100304133D01*
X171027133Y-100404133D01*
X170960466Y-100470800D01*
X170893800Y-100504133D01*
X170760466Y-100537466D01*
X170660466Y-100537466D01*
X170527133Y-100504133D01*
X170460466Y-100470800D01*
X170393800Y-100404133D01*
X170360466Y-100304133D01*
X170360466Y-100237466D01*
X170393800Y-100137466D01*
X170427133Y-100104133D01*
X171060466Y-99470800D02*
X171060466Y-99804133D01*
X170360466Y-99804133D01*
X170320000Y-80412000D02*
X174122000Y-80412000D01*
X168241900Y-101513800D02*
X173906100Y-101513800D01*
D12*
X111118571Y-98458571D02*
X111118571Y-96958571D01*
X111475714Y-96958571D01*
X111690000Y-97030000D01*
X111832857Y-97172857D01*
X111904285Y-97315714D01*
X111975714Y-97601428D01*
X111975714Y-97815714D01*
X111904285Y-98101428D01*
X111832857Y-98244285D01*
X111690000Y-98387142D01*
X111475714Y-98458571D01*
X111118571Y-98458571D01*
X112618571Y-97672857D02*
X113118571Y-97672857D01*
X113332857Y-98458571D02*
X112618571Y-98458571D01*
X112618571Y-96958571D01*
X113332857Y-96958571D01*
X114832857Y-98458571D02*
X114332857Y-97744285D01*
X113975714Y-98458571D02*
X113975714Y-96958571D01*
X114547142Y-96958571D01*
X114690000Y-97030000D01*
X114761428Y-97101428D01*
X114832857Y-97244285D01*
X114832857Y-97458571D01*
X114761428Y-97601428D01*
X114690000Y-97672857D01*
X114547142Y-97744285D01*
X113975714Y-97744285D01*
X116332857Y-98315714D02*
X116261428Y-98387142D01*
X116047142Y-98458571D01*
X115904285Y-98458571D01*
X115690000Y-98387142D01*
X115547142Y-98244285D01*
X115475714Y-98101428D01*
X115404285Y-97815714D01*
X115404285Y-97601428D01*
X115475714Y-97315714D01*
X115547142Y-97172857D01*
X115690000Y-97030000D01*
X115904285Y-96958571D01*
X116047142Y-96958571D01*
X116261428Y-97030000D01*
X116332857Y-97101428D01*
D13*
X133770000Y-81983333D02*
X133770000Y-81450000D01*
X134036666Y-81716666D02*
X133503333Y-81716666D01*
X133336666Y-81183333D02*
X133336666Y-80750000D01*
X133603333Y-80983333D01*
X133603333Y-80883333D01*
X133636666Y-80816666D01*
X133670000Y-80783333D01*
X133736666Y-80750000D01*
X133903333Y-80750000D01*
X133970000Y-80783333D01*
X134003333Y-80816666D01*
X134036666Y-80883333D01*
X134036666Y-81083333D01*
X134003333Y-81150000D01*
X133970000Y-81183333D01*
X133336666Y-80550000D02*
X134036666Y-80316666D01*
X133336666Y-80083333D01*
X133336666Y-79916666D02*
X133336666Y-79483333D01*
X133603333Y-79716666D01*
X133603333Y-79616666D01*
X133636666Y-79550000D01*
X133670000Y-79516666D01*
X133736666Y-79483333D01*
X133903333Y-79483333D01*
X133970000Y-79516666D01*
X134003333Y-79550000D01*
X134036666Y-79616666D01*
X134036666Y-79816666D01*
X134003333Y-79883333D01*
X133970000Y-79916666D01*
X131297800Y-81483333D02*
X131264466Y-81550000D01*
X131264466Y-81650000D01*
X131297800Y-81750000D01*
X131364466Y-81816666D01*
X131431133Y-81850000D01*
X131564466Y-81883333D01*
X131664466Y-81883333D01*
X131797800Y-81850000D01*
X131864466Y-81816666D01*
X131931133Y-81750000D01*
X131964466Y-81650000D01*
X131964466Y-81583333D01*
X131931133Y-81483333D01*
X131897800Y-81450000D01*
X131664466Y-81450000D01*
X131664466Y-81583333D01*
X131964466Y-81150000D02*
X131264466Y-81150000D01*
X131964466Y-80750000D01*
X131264466Y-80750000D01*
X131964466Y-80416666D02*
X131264466Y-80416666D01*
X131264466Y-80250000D01*
X131297800Y-80150000D01*
X131364466Y-80083333D01*
X131431133Y-80050000D01*
X131564466Y-80016666D01*
X131664466Y-80016666D01*
X131797800Y-80050000D01*
X131864466Y-80083333D01*
X131931133Y-80150000D01*
X131964466Y-80250000D01*
X131964466Y-80416666D01*
X139336666Y-81883333D02*
X139336666Y-81483333D01*
X140036666Y-81683333D02*
X139336666Y-81683333D01*
X139336666Y-81316666D02*
X140036666Y-80850000D01*
X139336666Y-80850000D02*
X140036666Y-81316666D01*
X135918933Y-101220800D02*
X135952266Y-101120800D01*
X135952266Y-100954133D01*
X135918933Y-100887466D01*
X135885600Y-100854133D01*
X135818933Y-100820800D01*
X135752266Y-100820800D01*
X135685600Y-100854133D01*
X135652266Y-100887466D01*
X135618933Y-100954133D01*
X135585600Y-101087466D01*
X135552266Y-101154133D01*
X135518933Y-101187466D01*
X135452266Y-101220800D01*
X135385600Y-101220800D01*
X135318933Y-101187466D01*
X135285600Y-101154133D01*
X135252266Y-101087466D01*
X135252266Y-100920800D01*
X135285600Y-100820800D01*
X135952266Y-100520800D02*
X135252266Y-100520800D01*
X135252266Y-100354133D01*
X135285600Y-100254133D01*
X135352266Y-100187466D01*
X135418933Y-100154133D01*
X135552266Y-100120800D01*
X135652266Y-100120800D01*
X135785600Y-100154133D01*
X135852266Y-100187466D01*
X135918933Y-100254133D01*
X135952266Y-100354133D01*
X135952266Y-100520800D01*
X135752266Y-99854133D02*
X135752266Y-99520800D01*
X135952266Y-99920800D02*
X135252266Y-99687466D01*
X135952266Y-99454133D01*
X111226666Y-103938666D02*
X111226666Y-103238666D01*
X111393333Y-103238666D01*
X111493333Y-103272000D01*
X111560000Y-103338666D01*
X111593333Y-103405333D01*
X111626666Y-103538666D01*
X111626666Y-103638666D01*
X111593333Y-103772000D01*
X111560000Y-103838666D01*
X111493333Y-103905333D01*
X111393333Y-103938666D01*
X111226666Y-103938666D01*
X112193333Y-103905333D02*
X112126666Y-103938666D01*
X111993333Y-103938666D01*
X111926666Y-103905333D01*
X111893333Y-103838666D01*
X111893333Y-103572000D01*
X111926666Y-103505333D01*
X111993333Y-103472000D01*
X112126666Y-103472000D01*
X112193333Y-103505333D01*
X112226666Y-103572000D01*
X112226666Y-103638666D01*
X111893333Y-103705333D01*
X112493333Y-103905333D02*
X112560000Y-103938666D01*
X112693333Y-103938666D01*
X112760000Y-103905333D01*
X112793333Y-103838666D01*
X112793333Y-103805333D01*
X112760000Y-103738666D01*
X112693333Y-103705333D01*
X112593333Y-103705333D01*
X112526666Y-103672000D01*
X112493333Y-103605333D01*
X112493333Y-103572000D01*
X112526666Y-103505333D01*
X112593333Y-103472000D01*
X112693333Y-103472000D01*
X112760000Y-103505333D01*
X113093333Y-103938666D02*
X113093333Y-103472000D01*
X113093333Y-103238666D02*
X113060000Y-103272000D01*
X113093333Y-103305333D01*
X113126666Y-103272000D01*
X113093333Y-103238666D01*
X113093333Y-103305333D01*
X113726666Y-103472000D02*
X113726666Y-104038666D01*
X113693333Y-104105333D01*
X113660000Y-104138666D01*
X113593333Y-104172000D01*
X113493333Y-104172000D01*
X113426666Y-104138666D01*
X113726666Y-103905333D02*
X113660000Y-103938666D01*
X113526666Y-103938666D01*
X113460000Y-103905333D01*
X113426666Y-103872000D01*
X113393333Y-103805333D01*
X113393333Y-103605333D01*
X113426666Y-103538666D01*
X113460000Y-103505333D01*
X113526666Y-103472000D01*
X113660000Y-103472000D01*
X113726666Y-103505333D01*
X114060000Y-103472000D02*
X114060000Y-103938666D01*
X114060000Y-103538666D02*
X114093333Y-103505333D01*
X114160000Y-103472000D01*
X114260000Y-103472000D01*
X114326666Y-103505333D01*
X114360000Y-103572000D01*
X114360000Y-103938666D01*
X114693333Y-103872000D02*
X114726666Y-103905333D01*
X114693333Y-103938666D01*
X114660000Y-103905333D01*
X114693333Y-103872000D01*
X114693333Y-103938666D01*
X114693333Y-103505333D02*
X114726666Y-103538666D01*
X114693333Y-103572000D01*
X114660000Y-103538666D01*
X114693333Y-103505333D01*
X114693333Y-103572000D01*
X115526666Y-103738666D02*
X115860000Y-103738666D01*
X115460000Y-103938666D02*
X115693333Y-103238666D01*
X115926666Y-103938666D01*
X116160000Y-103938666D02*
X116160000Y-103238666D01*
X116226666Y-103672000D02*
X116426666Y-103938666D01*
X116426666Y-103472000D02*
X116160000Y-103738666D01*
X116726666Y-103938666D02*
X116726666Y-103472000D01*
X116726666Y-103238666D02*
X116693333Y-103272000D01*
X116726666Y-103305333D01*
X116760000Y-103272000D01*
X116726666Y-103238666D01*
X116726666Y-103305333D01*
X117160000Y-103938666D02*
X117093333Y-103905333D01*
X117060000Y-103872000D01*
X117026666Y-103805333D01*
X117026666Y-103605333D01*
X117060000Y-103538666D01*
X117093333Y-103505333D01*
X117160000Y-103472000D01*
X117260000Y-103472000D01*
X117326666Y-103505333D01*
X117360000Y-103538666D01*
X117393333Y-103605333D01*
X117393333Y-103805333D01*
X117360000Y-103872000D01*
X117326666Y-103905333D01*
X117260000Y-103938666D01*
X117160000Y-103938666D01*
X118226666Y-103938666D02*
X118226666Y-103238666D01*
X118460000Y-103738666D01*
X118693333Y-103238666D01*
X118693333Y-103938666D01*
X111603023Y-101952000D02*
X111526833Y-101913904D01*
X111412547Y-101913904D01*
X111298261Y-101952000D01*
X111222071Y-102028190D01*
X111183976Y-102104380D01*
X111145880Y-102256761D01*
X111145880Y-102371047D01*
X111183976Y-102523428D01*
X111222071Y-102599619D01*
X111298261Y-102675809D01*
X111412547Y-102713904D01*
X111488738Y-102713904D01*
X111603023Y-102675809D01*
X111641119Y-102637714D01*
X111641119Y-102371047D01*
X111488738Y-102371047D01*
X111983976Y-102713904D02*
X111983976Y-101913904D01*
X112441119Y-102713904D01*
X112441119Y-101913904D01*
X112783976Y-102675809D02*
X112898261Y-102713904D01*
X113088738Y-102713904D01*
X113164928Y-102675809D01*
X113203023Y-102637714D01*
X113241119Y-102561523D01*
X113241119Y-102485333D01*
X113203023Y-102409142D01*
X113164928Y-102371047D01*
X113088738Y-102332952D01*
X112936357Y-102294857D01*
X112860166Y-102256761D01*
X112822071Y-102218666D01*
X112783976Y-102142476D01*
X112783976Y-102066285D01*
X112822071Y-101990095D01*
X112860166Y-101952000D01*
X112936357Y-101913904D01*
X113126833Y-101913904D01*
X113241119Y-101952000D01*
X113545880Y-102675809D02*
X113660166Y-102713904D01*
X113850642Y-102713904D01*
X113926833Y-102675809D01*
X113964928Y-102637714D01*
X114003023Y-102561523D01*
X114003023Y-102485333D01*
X113964928Y-102409142D01*
X113926833Y-102371047D01*
X113850642Y-102332952D01*
X113698261Y-102294857D01*
X113622071Y-102256761D01*
X113583976Y-102218666D01*
X113545880Y-102142476D01*
X113545880Y-102066285D01*
X113583976Y-101990095D01*
X113622071Y-101952000D01*
X113698261Y-101913904D01*
X113888738Y-101913904D01*
X114003023Y-101952000D01*
X115222071Y-102294857D02*
X115336357Y-102332952D01*
X115374452Y-102371047D01*
X115412547Y-102447238D01*
X115412547Y-102561523D01*
X115374452Y-102637714D01*
X115336357Y-102675809D01*
X115260166Y-102713904D01*
X114955404Y-102713904D01*
X114955404Y-101913904D01*
X115222071Y-101913904D01*
X115298261Y-101952000D01*
X115336357Y-101990095D01*
X115374452Y-102066285D01*
X115374452Y-102142476D01*
X115336357Y-102218666D01*
X115298261Y-102256761D01*
X115222071Y-102294857D01*
X114955404Y-102294857D01*
X115869690Y-102713904D02*
X115793500Y-102675809D01*
X115755404Y-102637714D01*
X115717309Y-102561523D01*
X115717309Y-102332952D01*
X115755404Y-102256761D01*
X115793500Y-102218666D01*
X115869690Y-102180571D01*
X115983976Y-102180571D01*
X116060166Y-102218666D01*
X116098261Y-102256761D01*
X116136357Y-102332952D01*
X116136357Y-102561523D01*
X116098261Y-102637714D01*
X116060166Y-102675809D01*
X115983976Y-102713904D01*
X115869690Y-102713904D01*
X116822071Y-102713904D02*
X116822071Y-102294857D01*
X116783976Y-102218666D01*
X116707785Y-102180571D01*
X116555404Y-102180571D01*
X116479214Y-102218666D01*
X116822071Y-102675809D02*
X116745880Y-102713904D01*
X116555404Y-102713904D01*
X116479214Y-102675809D01*
X116441119Y-102599619D01*
X116441119Y-102523428D01*
X116479214Y-102447238D01*
X116555404Y-102409142D01*
X116745880Y-102409142D01*
X116822071Y-102371047D01*
X117203023Y-102713904D02*
X117203023Y-102180571D01*
X117203023Y-102332952D02*
X117241119Y-102256761D01*
X117279214Y-102218666D01*
X117355404Y-102180571D01*
X117431595Y-102180571D01*
X118041119Y-102713904D02*
X118041119Y-101913904D01*
X118041119Y-102675809D02*
X117964928Y-102713904D01*
X117812547Y-102713904D01*
X117736357Y-102675809D01*
X117698261Y-102637714D01*
X117660166Y-102561523D01*
X117660166Y-102332952D01*
X117698261Y-102256761D01*
X117736357Y-102218666D01*
X117812547Y-102180571D01*
X117964928Y-102180571D01*
X118041119Y-102218666D01*
X111069690Y-99132571D02*
X111374452Y-99132571D01*
X111183976Y-98865904D02*
X111183976Y-99551619D01*
X111222071Y-99627809D01*
X111298261Y-99665904D01*
X111374452Y-99665904D01*
X111983976Y-99665904D02*
X111983976Y-99246857D01*
X111945880Y-99170666D01*
X111869690Y-99132571D01*
X111717309Y-99132571D01*
X111641119Y-99170666D01*
X111983976Y-99627809D02*
X111907785Y-99665904D01*
X111717309Y-99665904D01*
X111641119Y-99627809D01*
X111603023Y-99551619D01*
X111603023Y-99475428D01*
X111641119Y-99399238D01*
X111717309Y-99361142D01*
X111907785Y-99361142D01*
X111983976Y-99323047D01*
X112364928Y-99132571D02*
X112364928Y-99665904D01*
X112364928Y-99208761D02*
X112403023Y-99170666D01*
X112479214Y-99132571D01*
X112593500Y-99132571D01*
X112669690Y-99170666D01*
X112707785Y-99246857D01*
X112707785Y-99665904D01*
X113393500Y-99627809D02*
X113317309Y-99665904D01*
X113164928Y-99665904D01*
X113088738Y-99627809D01*
X113050642Y-99551619D01*
X113050642Y-99246857D01*
X113088738Y-99170666D01*
X113164928Y-99132571D01*
X113317309Y-99132571D01*
X113393500Y-99170666D01*
X113431595Y-99246857D01*
X113431595Y-99323047D01*
X113050642Y-99399238D01*
X113774452Y-99665904D02*
X113774452Y-98865904D01*
X113850642Y-99361142D02*
X114079214Y-99665904D01*
X114079214Y-99132571D02*
X113774452Y-99437333D01*
X114536357Y-99665904D02*
X114460166Y-99627809D01*
X114422071Y-99589714D01*
X114383976Y-99513523D01*
X114383976Y-99284952D01*
X114422071Y-99208761D01*
X114460166Y-99170666D01*
X114536357Y-99132571D01*
X114650642Y-99132571D01*
X114726833Y-99170666D01*
X114764928Y-99208761D01*
X114803023Y-99284952D01*
X114803023Y-99513523D01*
X114764928Y-99589714D01*
X114726833Y-99627809D01*
X114650642Y-99665904D01*
X114536357Y-99665904D01*
X115145880Y-99132571D02*
X115145880Y-99665904D01*
X115145880Y-99208761D02*
X115183976Y-99170666D01*
X115260166Y-99132571D01*
X115374452Y-99132571D01*
X115450642Y-99170666D01*
X115488738Y-99246857D01*
X115488738Y-99665904D01*
X115831595Y-99627809D02*
X115907785Y-99665904D01*
X116060166Y-99665904D01*
X116136357Y-99627809D01*
X116174452Y-99551619D01*
X116174452Y-99513523D01*
X116136357Y-99437333D01*
X116060166Y-99399238D01*
X115945880Y-99399238D01*
X115869690Y-99361142D01*
X115831595Y-99284952D01*
X115831595Y-99246857D01*
X115869690Y-99170666D01*
X115945880Y-99132571D01*
X116060166Y-99132571D01*
X116136357Y-99170666D01*
X116860166Y-99665904D02*
X116860166Y-99246857D01*
X116822071Y-99170666D01*
X116745880Y-99132571D01*
X116593500Y-99132571D01*
X116517309Y-99170666D01*
X116860166Y-99627809D02*
X116783976Y-99665904D01*
X116593500Y-99665904D01*
X116517309Y-99627809D01*
X116479214Y-99551619D01*
X116479214Y-99475428D01*
X116517309Y-99399238D01*
X116593500Y-99361142D01*
X116783976Y-99361142D01*
X116860166Y-99323047D01*
X117126833Y-99132571D02*
X117431595Y-99132571D01*
X117241119Y-98865904D02*
X117241119Y-99551619D01*
X117279214Y-99627809D01*
X117355404Y-99665904D01*
X117431595Y-99665904D01*
X117660166Y-98942095D02*
X117698261Y-98904000D01*
X117774452Y-98865904D01*
X117964928Y-98865904D01*
X118041119Y-98904000D01*
X118079214Y-98942095D01*
X118117309Y-99018285D01*
X118117309Y-99094476D01*
X118079214Y-99208761D01*
X117622071Y-99665904D01*
X118117309Y-99665904D01*
X118612547Y-98865904D02*
X118688738Y-98865904D01*
X118764928Y-98904000D01*
X118803023Y-98942095D01*
X118841119Y-99018285D01*
X118879214Y-99170666D01*
X118879214Y-99361142D01*
X118841119Y-99513523D01*
X118803023Y-99589714D01*
X118764928Y-99627809D01*
X118688738Y-99665904D01*
X118612547Y-99665904D01*
X118536357Y-99627809D01*
X118498261Y-99589714D01*
X118460166Y-99513523D01*
X118422071Y-99361142D01*
X118422071Y-99170666D01*
X118460166Y-99018285D01*
X118498261Y-98942095D01*
X118536357Y-98904000D01*
X118612547Y-98865904D01*
X119183976Y-98942095D02*
X119222071Y-98904000D01*
X119298261Y-98865904D01*
X119488738Y-98865904D01*
X119564928Y-98904000D01*
X119603023Y-98942095D01*
X119641119Y-99018285D01*
X119641119Y-99094476D01*
X119603023Y-99208761D01*
X119145880Y-99665904D01*
X119641119Y-99665904D01*
X119945880Y-98942095D02*
X119983976Y-98904000D01*
X120060166Y-98865904D01*
X120250642Y-98865904D01*
X120326833Y-98904000D01*
X120364928Y-98942095D01*
X120403023Y-99018285D01*
X120403023Y-99094476D01*
X120364928Y-99208761D01*
X119907785Y-99665904D01*
X120403023Y-99665904D01*
D10*
X137748761Y-79102380D02*
X137748761Y-79911904D01*
X137796380Y-80007142D01*
X137844000Y-80054761D01*
X137939238Y-80102380D01*
X138129714Y-80102380D01*
X138224952Y-80054761D01*
X138272571Y-80007142D01*
X138320190Y-79911904D01*
X138320190Y-79102380D01*
X138748761Y-79816666D02*
X139224952Y-79816666D01*
X138653523Y-80102380D02*
X138986857Y-79102380D01*
X139320190Y-80102380D01*
X140224952Y-80102380D02*
X139891619Y-79626190D01*
X139653523Y-80102380D02*
X139653523Y-79102380D01*
X140034476Y-79102380D01*
X140129714Y-79150000D01*
X140177333Y-79197619D01*
X140224952Y-79292857D01*
X140224952Y-79435714D01*
X140177333Y-79530952D01*
X140129714Y-79578571D01*
X140034476Y-79626190D01*
X139653523Y-79626190D01*
X140510666Y-79102380D02*
X141082095Y-79102380D01*
X140796380Y-80102380D02*
X140796380Y-79102380D01*
X138901209Y-102855180D02*
X138901209Y-101855180D01*
X139329780Y-101950419D02*
X139377400Y-101902800D01*
X139472638Y-101855180D01*
X139710733Y-101855180D01*
X139805971Y-101902800D01*
X139853590Y-101950419D01*
X139901209Y-102045657D01*
X139901209Y-102140895D01*
X139853590Y-102283752D01*
X139282161Y-102855180D01*
X139901209Y-102855180D01*
X140901209Y-102759942D02*
X140853590Y-102807561D01*
X140710733Y-102855180D01*
X140615495Y-102855180D01*
X140472638Y-102807561D01*
X140377400Y-102712323D01*
X140329780Y-102617085D01*
X140282161Y-102426609D01*
X140282161Y-102283752D01*
X140329780Y-102093276D01*
X140377400Y-101998038D01*
X140472638Y-101902800D01*
X140615495Y-101855180D01*
X140710733Y-101855180D01*
X140853590Y-101902800D01*
X140901209Y-101950419D01*
D13*
X138036666Y-81466666D02*
X137703333Y-81700000D01*
X138036666Y-81866666D02*
X137336666Y-81866666D01*
X137336666Y-81600000D01*
X137370000Y-81533333D01*
X137403333Y-81500000D01*
X137470000Y-81466666D01*
X137570000Y-81466666D01*
X137636666Y-81500000D01*
X137670000Y-81533333D01*
X137703333Y-81600000D01*
X137703333Y-81866666D01*
X137336666Y-81233333D02*
X138036666Y-80766666D01*
X137336666Y-80766666D02*
X138036666Y-81233333D01*
X135936666Y-81483333D02*
X135936666Y-81883333D01*
X135936666Y-81683333D02*
X135236666Y-81683333D01*
X135336666Y-81750000D01*
X135403333Y-81816666D01*
X135436666Y-81883333D01*
X135936666Y-81183333D02*
X135236666Y-81183333D01*
X135236666Y-80916666D01*
X135270000Y-80850000D01*
X135303333Y-80816666D01*
X135370000Y-80783333D01*
X135470000Y-80783333D01*
X135536666Y-80816666D01*
X135570000Y-80850000D01*
X135603333Y-80916666D01*
X135603333Y-81183333D01*
X135936666Y-80483333D02*
X135236666Y-80483333D01*
X135236666Y-80216666D01*
X135270000Y-80150000D01*
X135303333Y-80116666D01*
X135370000Y-80083333D01*
X135470000Y-80083333D01*
X135536666Y-80116666D01*
X135570000Y-80150000D01*
X135603333Y-80216666D01*
X135603333Y-80483333D01*
X135903333Y-79816666D02*
X135936666Y-79716666D01*
X135936666Y-79550000D01*
X135903333Y-79483333D01*
X135870000Y-79450000D01*
X135803333Y-79416666D01*
X135736666Y-79416666D01*
X135670000Y-79450000D01*
X135636666Y-79483333D01*
X135603333Y-79550000D01*
X135570000Y-79683333D01*
X135536666Y-79750000D01*
X135503333Y-79783333D01*
X135436666Y-79816666D01*
X135370000Y-79816666D01*
X135303333Y-79783333D01*
X135270000Y-79750000D01*
X135236666Y-79683333D01*
X135236666Y-79516666D01*
X135270000Y-79416666D01*
X138027133Y-101204133D02*
X138060466Y-101104133D01*
X138060466Y-100937466D01*
X138027133Y-100870800D01*
X137993800Y-100837466D01*
X137927133Y-100804133D01*
X137860466Y-100804133D01*
X137793800Y-100837466D01*
X137760466Y-100870800D01*
X137727133Y-100937466D01*
X137693800Y-101070800D01*
X137660466Y-101137466D01*
X137627133Y-101170800D01*
X137560466Y-101204133D01*
X137493800Y-101204133D01*
X137427133Y-101170800D01*
X137393800Y-101137466D01*
X137360466Y-101070800D01*
X137360466Y-100904133D01*
X137393800Y-100804133D01*
X137993800Y-100104133D02*
X138027133Y-100137466D01*
X138060466Y-100237466D01*
X138060466Y-100304133D01*
X138027133Y-100404133D01*
X137960466Y-100470800D01*
X137893800Y-100504133D01*
X137760466Y-100537466D01*
X137660466Y-100537466D01*
X137527133Y-100504133D01*
X137460466Y-100470800D01*
X137393800Y-100404133D01*
X137360466Y-100304133D01*
X137360466Y-100237466D01*
X137393800Y-100137466D01*
X137427133Y-100104133D01*
X138060466Y-99470800D02*
X138060466Y-99804133D01*
X137360466Y-99804133D01*
D10*
X110020000Y-73250000D02*
X142020000Y-73250000D01*
X142020000Y-73250000D02*
X142020000Y-105250000D01*
X142020000Y-105250000D02*
X110020000Y-105250000D01*
X110020000Y-105250000D02*
X110020000Y-73250000D01*
D13*
X137320000Y-80412000D02*
X141122000Y-80412000D01*
X135241900Y-101513800D02*
X140906100Y-101513800D01*
D12*
X144118571Y-65458571D02*
X144118571Y-63958571D01*
X144475714Y-63958571D01*
X144690000Y-64030000D01*
X144832857Y-64172857D01*
X144904285Y-64315714D01*
X144975714Y-64601428D01*
X144975714Y-64815714D01*
X144904285Y-65101428D01*
X144832857Y-65244285D01*
X144690000Y-65387142D01*
X144475714Y-65458571D01*
X144118571Y-65458571D01*
X145618571Y-64672857D02*
X146118571Y-64672857D01*
X146332857Y-65458571D02*
X145618571Y-65458571D01*
X145618571Y-63958571D01*
X146332857Y-63958571D01*
X147832857Y-65458571D02*
X147332857Y-64744285D01*
X146975714Y-65458571D02*
X146975714Y-63958571D01*
X147547142Y-63958571D01*
X147690000Y-64030000D01*
X147761428Y-64101428D01*
X147832857Y-64244285D01*
X147832857Y-64458571D01*
X147761428Y-64601428D01*
X147690000Y-64672857D01*
X147547142Y-64744285D01*
X146975714Y-64744285D01*
X149332857Y-65315714D02*
X149261428Y-65387142D01*
X149047142Y-65458571D01*
X148904285Y-65458571D01*
X148690000Y-65387142D01*
X148547142Y-65244285D01*
X148475714Y-65101428D01*
X148404285Y-64815714D01*
X148404285Y-64601428D01*
X148475714Y-64315714D01*
X148547142Y-64172857D01*
X148690000Y-64030000D01*
X148904285Y-63958571D01*
X149047142Y-63958571D01*
X149261428Y-64030000D01*
X149332857Y-64101428D01*
D13*
X166770000Y-48983333D02*
X166770000Y-48450000D01*
X167036666Y-48716666D02*
X166503333Y-48716666D01*
X166336666Y-48183333D02*
X166336666Y-47750000D01*
X166603333Y-47983333D01*
X166603333Y-47883333D01*
X166636666Y-47816666D01*
X166670000Y-47783333D01*
X166736666Y-47750000D01*
X166903333Y-47750000D01*
X166970000Y-47783333D01*
X167003333Y-47816666D01*
X167036666Y-47883333D01*
X167036666Y-48083333D01*
X167003333Y-48150000D01*
X166970000Y-48183333D01*
X166336666Y-47550000D02*
X167036666Y-47316666D01*
X166336666Y-47083333D01*
X166336666Y-46916666D02*
X166336666Y-46483333D01*
X166603333Y-46716666D01*
X166603333Y-46616666D01*
X166636666Y-46550000D01*
X166670000Y-46516666D01*
X166736666Y-46483333D01*
X166903333Y-46483333D01*
X166970000Y-46516666D01*
X167003333Y-46550000D01*
X167036666Y-46616666D01*
X167036666Y-46816666D01*
X167003333Y-46883333D01*
X166970000Y-46916666D01*
X164297800Y-48483333D02*
X164264466Y-48550000D01*
X164264466Y-48650000D01*
X164297800Y-48750000D01*
X164364466Y-48816666D01*
X164431133Y-48850000D01*
X164564466Y-48883333D01*
X164664466Y-48883333D01*
X164797800Y-48850000D01*
X164864466Y-48816666D01*
X164931133Y-48750000D01*
X164964466Y-48650000D01*
X164964466Y-48583333D01*
X164931133Y-48483333D01*
X164897800Y-48450000D01*
X164664466Y-48450000D01*
X164664466Y-48583333D01*
X164964466Y-48150000D02*
X164264466Y-48150000D01*
X164964466Y-47750000D01*
X164264466Y-47750000D01*
X164964466Y-47416666D02*
X164264466Y-47416666D01*
X164264466Y-47250000D01*
X164297800Y-47150000D01*
X164364466Y-47083333D01*
X164431133Y-47050000D01*
X164564466Y-47016666D01*
X164664466Y-47016666D01*
X164797800Y-47050000D01*
X164864466Y-47083333D01*
X164931133Y-47150000D01*
X164964466Y-47250000D01*
X164964466Y-47416666D01*
X172336666Y-48883333D02*
X172336666Y-48483333D01*
X173036666Y-48683333D02*
X172336666Y-48683333D01*
X172336666Y-48316666D02*
X173036666Y-47850000D01*
X172336666Y-47850000D02*
X173036666Y-48316666D01*
X168918933Y-68220800D02*
X168952266Y-68120800D01*
X168952266Y-67954133D01*
X168918933Y-67887466D01*
X168885600Y-67854133D01*
X168818933Y-67820800D01*
X168752266Y-67820800D01*
X168685600Y-67854133D01*
X168652266Y-67887466D01*
X168618933Y-67954133D01*
X168585600Y-68087466D01*
X168552266Y-68154133D01*
X168518933Y-68187466D01*
X168452266Y-68220800D01*
X168385600Y-68220800D01*
X168318933Y-68187466D01*
X168285600Y-68154133D01*
X168252266Y-68087466D01*
X168252266Y-67920800D01*
X168285600Y-67820800D01*
X168952266Y-67520800D02*
X168252266Y-67520800D01*
X168252266Y-67354133D01*
X168285600Y-67254133D01*
X168352266Y-67187466D01*
X168418933Y-67154133D01*
X168552266Y-67120800D01*
X168652266Y-67120800D01*
X168785600Y-67154133D01*
X168852266Y-67187466D01*
X168918933Y-67254133D01*
X168952266Y-67354133D01*
X168952266Y-67520800D01*
X168752266Y-66854133D02*
X168752266Y-66520800D01*
X168952266Y-66920800D02*
X168252266Y-66687466D01*
X168952266Y-66454133D01*
X144226666Y-70938666D02*
X144226666Y-70238666D01*
X144393333Y-70238666D01*
X144493333Y-70272000D01*
X144560000Y-70338666D01*
X144593333Y-70405333D01*
X144626666Y-70538666D01*
X144626666Y-70638666D01*
X144593333Y-70772000D01*
X144560000Y-70838666D01*
X144493333Y-70905333D01*
X144393333Y-70938666D01*
X144226666Y-70938666D01*
X145193333Y-70905333D02*
X145126666Y-70938666D01*
X144993333Y-70938666D01*
X144926666Y-70905333D01*
X144893333Y-70838666D01*
X144893333Y-70572000D01*
X144926666Y-70505333D01*
X144993333Y-70472000D01*
X145126666Y-70472000D01*
X145193333Y-70505333D01*
X145226666Y-70572000D01*
X145226666Y-70638666D01*
X144893333Y-70705333D01*
X145493333Y-70905333D02*
X145560000Y-70938666D01*
X145693333Y-70938666D01*
X145760000Y-70905333D01*
X145793333Y-70838666D01*
X145793333Y-70805333D01*
X145760000Y-70738666D01*
X145693333Y-70705333D01*
X145593333Y-70705333D01*
X145526666Y-70672000D01*
X145493333Y-70605333D01*
X145493333Y-70572000D01*
X145526666Y-70505333D01*
X145593333Y-70472000D01*
X145693333Y-70472000D01*
X145760000Y-70505333D01*
X146093333Y-70938666D02*
X146093333Y-70472000D01*
X146093333Y-70238666D02*
X146060000Y-70272000D01*
X146093333Y-70305333D01*
X146126666Y-70272000D01*
X146093333Y-70238666D01*
X146093333Y-70305333D01*
X146726666Y-70472000D02*
X146726666Y-71038666D01*
X146693333Y-71105333D01*
X146660000Y-71138666D01*
X146593333Y-71172000D01*
X146493333Y-71172000D01*
X146426666Y-71138666D01*
X146726666Y-70905333D02*
X146660000Y-70938666D01*
X146526666Y-70938666D01*
X146460000Y-70905333D01*
X146426666Y-70872000D01*
X146393333Y-70805333D01*
X146393333Y-70605333D01*
X146426666Y-70538666D01*
X146460000Y-70505333D01*
X146526666Y-70472000D01*
X146660000Y-70472000D01*
X146726666Y-70505333D01*
X147060000Y-70472000D02*
X147060000Y-70938666D01*
X147060000Y-70538666D02*
X147093333Y-70505333D01*
X147160000Y-70472000D01*
X147260000Y-70472000D01*
X147326666Y-70505333D01*
X147360000Y-70572000D01*
X147360000Y-70938666D01*
X147693333Y-70872000D02*
X147726666Y-70905333D01*
X147693333Y-70938666D01*
X147660000Y-70905333D01*
X147693333Y-70872000D01*
X147693333Y-70938666D01*
X147693333Y-70505333D02*
X147726666Y-70538666D01*
X147693333Y-70572000D01*
X147660000Y-70538666D01*
X147693333Y-70505333D01*
X147693333Y-70572000D01*
X148526666Y-70738666D02*
X148860000Y-70738666D01*
X148460000Y-70938666D02*
X148693333Y-70238666D01*
X148926666Y-70938666D01*
X149160000Y-70938666D02*
X149160000Y-70238666D01*
X149226666Y-70672000D02*
X149426666Y-70938666D01*
X149426666Y-70472000D02*
X149160000Y-70738666D01*
X149726666Y-70938666D02*
X149726666Y-70472000D01*
X149726666Y-70238666D02*
X149693333Y-70272000D01*
X149726666Y-70305333D01*
X149760000Y-70272000D01*
X149726666Y-70238666D01*
X149726666Y-70305333D01*
X150160000Y-70938666D02*
X150093333Y-70905333D01*
X150060000Y-70872000D01*
X150026666Y-70805333D01*
X150026666Y-70605333D01*
X150060000Y-70538666D01*
X150093333Y-70505333D01*
X150160000Y-70472000D01*
X150260000Y-70472000D01*
X150326666Y-70505333D01*
X150360000Y-70538666D01*
X150393333Y-70605333D01*
X150393333Y-70805333D01*
X150360000Y-70872000D01*
X150326666Y-70905333D01*
X150260000Y-70938666D01*
X150160000Y-70938666D01*
X151226666Y-70938666D02*
X151226666Y-70238666D01*
X151460000Y-70738666D01*
X151693333Y-70238666D01*
X151693333Y-70938666D01*
X144603023Y-68952000D02*
X144526833Y-68913904D01*
X144412547Y-68913904D01*
X144298261Y-68952000D01*
X144222071Y-69028190D01*
X144183976Y-69104380D01*
X144145880Y-69256761D01*
X144145880Y-69371047D01*
X144183976Y-69523428D01*
X144222071Y-69599619D01*
X144298261Y-69675809D01*
X144412547Y-69713904D01*
X144488738Y-69713904D01*
X144603023Y-69675809D01*
X144641119Y-69637714D01*
X144641119Y-69371047D01*
X144488738Y-69371047D01*
X144983976Y-69713904D02*
X144983976Y-68913904D01*
X145441119Y-69713904D01*
X145441119Y-68913904D01*
X145783976Y-69675809D02*
X145898261Y-69713904D01*
X146088738Y-69713904D01*
X146164928Y-69675809D01*
X146203023Y-69637714D01*
X146241119Y-69561523D01*
X146241119Y-69485333D01*
X146203023Y-69409142D01*
X146164928Y-69371047D01*
X146088738Y-69332952D01*
X145936357Y-69294857D01*
X145860166Y-69256761D01*
X145822071Y-69218666D01*
X145783976Y-69142476D01*
X145783976Y-69066285D01*
X145822071Y-68990095D01*
X145860166Y-68952000D01*
X145936357Y-68913904D01*
X146126833Y-68913904D01*
X146241119Y-68952000D01*
X146545880Y-69675809D02*
X146660166Y-69713904D01*
X146850642Y-69713904D01*
X146926833Y-69675809D01*
X146964928Y-69637714D01*
X147003023Y-69561523D01*
X147003023Y-69485333D01*
X146964928Y-69409142D01*
X146926833Y-69371047D01*
X146850642Y-69332952D01*
X146698261Y-69294857D01*
X146622071Y-69256761D01*
X146583976Y-69218666D01*
X146545880Y-69142476D01*
X146545880Y-69066285D01*
X146583976Y-68990095D01*
X146622071Y-68952000D01*
X146698261Y-68913904D01*
X146888738Y-68913904D01*
X147003023Y-68952000D01*
X148222071Y-69294857D02*
X148336357Y-69332952D01*
X148374452Y-69371047D01*
X148412547Y-69447238D01*
X148412547Y-69561523D01*
X148374452Y-69637714D01*
X148336357Y-69675809D01*
X148260166Y-69713904D01*
X147955404Y-69713904D01*
X147955404Y-68913904D01*
X148222071Y-68913904D01*
X148298261Y-68952000D01*
X148336357Y-68990095D01*
X148374452Y-69066285D01*
X148374452Y-69142476D01*
X148336357Y-69218666D01*
X148298261Y-69256761D01*
X148222071Y-69294857D01*
X147955404Y-69294857D01*
X148869690Y-69713904D02*
X148793500Y-69675809D01*
X148755404Y-69637714D01*
X148717309Y-69561523D01*
X148717309Y-69332952D01*
X148755404Y-69256761D01*
X148793500Y-69218666D01*
X148869690Y-69180571D01*
X148983976Y-69180571D01*
X149060166Y-69218666D01*
X149098261Y-69256761D01*
X149136357Y-69332952D01*
X149136357Y-69561523D01*
X149098261Y-69637714D01*
X149060166Y-69675809D01*
X148983976Y-69713904D01*
X148869690Y-69713904D01*
X149822071Y-69713904D02*
X149822071Y-69294857D01*
X149783976Y-69218666D01*
X149707785Y-69180571D01*
X149555404Y-69180571D01*
X149479214Y-69218666D01*
X149822071Y-69675809D02*
X149745880Y-69713904D01*
X149555404Y-69713904D01*
X149479214Y-69675809D01*
X149441119Y-69599619D01*
X149441119Y-69523428D01*
X149479214Y-69447238D01*
X149555404Y-69409142D01*
X149745880Y-69409142D01*
X149822071Y-69371047D01*
X150203023Y-69713904D02*
X150203023Y-69180571D01*
X150203023Y-69332952D02*
X150241119Y-69256761D01*
X150279214Y-69218666D01*
X150355404Y-69180571D01*
X150431595Y-69180571D01*
X151041119Y-69713904D02*
X151041119Y-68913904D01*
X151041119Y-69675809D02*
X150964928Y-69713904D01*
X150812547Y-69713904D01*
X150736357Y-69675809D01*
X150698261Y-69637714D01*
X150660166Y-69561523D01*
X150660166Y-69332952D01*
X150698261Y-69256761D01*
X150736357Y-69218666D01*
X150812547Y-69180571D01*
X150964928Y-69180571D01*
X151041119Y-69218666D01*
X144069690Y-66132571D02*
X144374452Y-66132571D01*
X144183976Y-65865904D02*
X144183976Y-66551619D01*
X144222071Y-66627809D01*
X144298261Y-66665904D01*
X144374452Y-66665904D01*
X144983976Y-66665904D02*
X144983976Y-66246857D01*
X144945880Y-66170666D01*
X144869690Y-66132571D01*
X144717309Y-66132571D01*
X144641119Y-66170666D01*
X144983976Y-66627809D02*
X144907785Y-66665904D01*
X144717309Y-66665904D01*
X144641119Y-66627809D01*
X144603023Y-66551619D01*
X144603023Y-66475428D01*
X144641119Y-66399238D01*
X144717309Y-66361142D01*
X144907785Y-66361142D01*
X144983976Y-66323047D01*
X145364928Y-66132571D02*
X145364928Y-66665904D01*
X145364928Y-66208761D02*
X145403023Y-66170666D01*
X145479214Y-66132571D01*
X145593500Y-66132571D01*
X145669690Y-66170666D01*
X145707785Y-66246857D01*
X145707785Y-66665904D01*
X146393500Y-66627809D02*
X146317309Y-66665904D01*
X146164928Y-66665904D01*
X146088738Y-66627809D01*
X146050642Y-66551619D01*
X146050642Y-66246857D01*
X146088738Y-66170666D01*
X146164928Y-66132571D01*
X146317309Y-66132571D01*
X146393500Y-66170666D01*
X146431595Y-66246857D01*
X146431595Y-66323047D01*
X146050642Y-66399238D01*
X146774452Y-66665904D02*
X146774452Y-65865904D01*
X146850642Y-66361142D02*
X147079214Y-66665904D01*
X147079214Y-66132571D02*
X146774452Y-66437333D01*
X147536357Y-66665904D02*
X147460166Y-66627809D01*
X147422071Y-66589714D01*
X147383976Y-66513523D01*
X147383976Y-66284952D01*
X147422071Y-66208761D01*
X147460166Y-66170666D01*
X147536357Y-66132571D01*
X147650642Y-66132571D01*
X147726833Y-66170666D01*
X147764928Y-66208761D01*
X147803023Y-66284952D01*
X147803023Y-66513523D01*
X147764928Y-66589714D01*
X147726833Y-66627809D01*
X147650642Y-66665904D01*
X147536357Y-66665904D01*
X148145880Y-66132571D02*
X148145880Y-66665904D01*
X148145880Y-66208761D02*
X148183976Y-66170666D01*
X148260166Y-66132571D01*
X148374452Y-66132571D01*
X148450642Y-66170666D01*
X148488738Y-66246857D01*
X148488738Y-66665904D01*
X148831595Y-66627809D02*
X148907785Y-66665904D01*
X149060166Y-66665904D01*
X149136357Y-66627809D01*
X149174452Y-66551619D01*
X149174452Y-66513523D01*
X149136357Y-66437333D01*
X149060166Y-66399238D01*
X148945880Y-66399238D01*
X148869690Y-66361142D01*
X148831595Y-66284952D01*
X148831595Y-66246857D01*
X148869690Y-66170666D01*
X148945880Y-66132571D01*
X149060166Y-66132571D01*
X149136357Y-66170666D01*
X149860166Y-66665904D02*
X149860166Y-66246857D01*
X149822071Y-66170666D01*
X149745880Y-66132571D01*
X149593500Y-66132571D01*
X149517309Y-66170666D01*
X149860166Y-66627809D02*
X149783976Y-66665904D01*
X149593500Y-66665904D01*
X149517309Y-66627809D01*
X149479214Y-66551619D01*
X149479214Y-66475428D01*
X149517309Y-66399238D01*
X149593500Y-66361142D01*
X149783976Y-66361142D01*
X149860166Y-66323047D01*
X150126833Y-66132571D02*
X150431595Y-66132571D01*
X150241119Y-65865904D02*
X150241119Y-66551619D01*
X150279214Y-66627809D01*
X150355404Y-66665904D01*
X150431595Y-66665904D01*
X150660166Y-65942095D02*
X150698261Y-65904000D01*
X150774452Y-65865904D01*
X150964928Y-65865904D01*
X151041119Y-65904000D01*
X151079214Y-65942095D01*
X151117309Y-66018285D01*
X151117309Y-66094476D01*
X151079214Y-66208761D01*
X150622071Y-66665904D01*
X151117309Y-66665904D01*
X151612547Y-65865904D02*
X151688738Y-65865904D01*
X151764928Y-65904000D01*
X151803023Y-65942095D01*
X151841119Y-66018285D01*
X151879214Y-66170666D01*
X151879214Y-66361142D01*
X151841119Y-66513523D01*
X151803023Y-66589714D01*
X151764928Y-66627809D01*
X151688738Y-66665904D01*
X151612547Y-66665904D01*
X151536357Y-66627809D01*
X151498261Y-66589714D01*
X151460166Y-66513523D01*
X151422071Y-66361142D01*
X151422071Y-66170666D01*
X151460166Y-66018285D01*
X151498261Y-65942095D01*
X151536357Y-65904000D01*
X151612547Y-65865904D01*
X152183976Y-65942095D02*
X152222071Y-65904000D01*
X152298261Y-65865904D01*
X152488738Y-65865904D01*
X152564928Y-65904000D01*
X152603023Y-65942095D01*
X152641119Y-66018285D01*
X152641119Y-66094476D01*
X152603023Y-66208761D01*
X152145880Y-66665904D01*
X152641119Y-66665904D01*
X152945880Y-65942095D02*
X152983976Y-65904000D01*
X153060166Y-65865904D01*
X153250642Y-65865904D01*
X153326833Y-65904000D01*
X153364928Y-65942095D01*
X153403023Y-66018285D01*
X153403023Y-66094476D01*
X153364928Y-66208761D01*
X152907785Y-66665904D01*
X153403023Y-66665904D01*
D10*
X170748761Y-46102380D02*
X170748761Y-46911904D01*
X170796380Y-47007142D01*
X170844000Y-47054761D01*
X170939238Y-47102380D01*
X171129714Y-47102380D01*
X171224952Y-47054761D01*
X171272571Y-47007142D01*
X171320190Y-46911904D01*
X171320190Y-46102380D01*
X171748761Y-46816666D02*
X172224952Y-46816666D01*
X171653523Y-47102380D02*
X171986857Y-46102380D01*
X172320190Y-47102380D01*
X173224952Y-47102380D02*
X172891619Y-46626190D01*
X172653523Y-47102380D02*
X172653523Y-46102380D01*
X173034476Y-46102380D01*
X173129714Y-46150000D01*
X173177333Y-46197619D01*
X173224952Y-46292857D01*
X173224952Y-46435714D01*
X173177333Y-46530952D01*
X173129714Y-46578571D01*
X173034476Y-46626190D01*
X172653523Y-46626190D01*
X173510666Y-46102380D02*
X174082095Y-46102380D01*
X173796380Y-47102380D02*
X173796380Y-46102380D01*
X171901209Y-69855180D02*
X171901209Y-68855180D01*
X172329780Y-68950419D02*
X172377400Y-68902800D01*
X172472638Y-68855180D01*
X172710733Y-68855180D01*
X172805971Y-68902800D01*
X172853590Y-68950419D01*
X172901209Y-69045657D01*
X172901209Y-69140895D01*
X172853590Y-69283752D01*
X172282161Y-69855180D01*
X172901209Y-69855180D01*
X173901209Y-69759942D02*
X173853590Y-69807561D01*
X173710733Y-69855180D01*
X173615495Y-69855180D01*
X173472638Y-69807561D01*
X173377400Y-69712323D01*
X173329780Y-69617085D01*
X173282161Y-69426609D01*
X173282161Y-69283752D01*
X173329780Y-69093276D01*
X173377400Y-68998038D01*
X173472638Y-68902800D01*
X173615495Y-68855180D01*
X173710733Y-68855180D01*
X173853590Y-68902800D01*
X173901209Y-68950419D01*
D13*
X171036666Y-48466666D02*
X170703333Y-48700000D01*
X171036666Y-48866666D02*
X170336666Y-48866666D01*
X170336666Y-48600000D01*
X170370000Y-48533333D01*
X170403333Y-48500000D01*
X170470000Y-48466666D01*
X170570000Y-48466666D01*
X170636666Y-48500000D01*
X170670000Y-48533333D01*
X170703333Y-48600000D01*
X170703333Y-48866666D01*
X170336666Y-48233333D02*
X171036666Y-47766666D01*
X170336666Y-47766666D02*
X171036666Y-48233333D01*
X168936666Y-48483333D02*
X168936666Y-48883333D01*
X168936666Y-48683333D02*
X168236666Y-48683333D01*
X168336666Y-48750000D01*
X168403333Y-48816666D01*
X168436666Y-48883333D01*
X168936666Y-48183333D02*
X168236666Y-48183333D01*
X168236666Y-47916666D01*
X168270000Y-47850000D01*
X168303333Y-47816666D01*
X168370000Y-47783333D01*
X168470000Y-47783333D01*
X168536666Y-47816666D01*
X168570000Y-47850000D01*
X168603333Y-47916666D01*
X168603333Y-48183333D01*
X168936666Y-47483333D02*
X168236666Y-47483333D01*
X168236666Y-47216666D01*
X168270000Y-47150000D01*
X168303333Y-47116666D01*
X168370000Y-47083333D01*
X168470000Y-47083333D01*
X168536666Y-47116666D01*
X168570000Y-47150000D01*
X168603333Y-47216666D01*
X168603333Y-47483333D01*
X168903333Y-46816666D02*
X168936666Y-46716666D01*
X168936666Y-46550000D01*
X168903333Y-46483333D01*
X168870000Y-46450000D01*
X168803333Y-46416666D01*
X168736666Y-46416666D01*
X168670000Y-46450000D01*
X168636666Y-46483333D01*
X168603333Y-46550000D01*
X168570000Y-46683333D01*
X168536666Y-46750000D01*
X168503333Y-46783333D01*
X168436666Y-46816666D01*
X168370000Y-46816666D01*
X168303333Y-46783333D01*
X168270000Y-46750000D01*
X168236666Y-46683333D01*
X168236666Y-46516666D01*
X168270000Y-46416666D01*
X171027133Y-68204133D02*
X171060466Y-68104133D01*
X171060466Y-67937466D01*
X171027133Y-67870800D01*
X170993800Y-67837466D01*
X170927133Y-67804133D01*
X170860466Y-67804133D01*
X170793800Y-67837466D01*
X170760466Y-67870800D01*
X170727133Y-67937466D01*
X170693800Y-68070800D01*
X170660466Y-68137466D01*
X170627133Y-68170800D01*
X170560466Y-68204133D01*
X170493800Y-68204133D01*
X170427133Y-68170800D01*
X170393800Y-68137466D01*
X170360466Y-68070800D01*
X170360466Y-67904133D01*
X170393800Y-67804133D01*
X170993800Y-67104133D02*
X171027133Y-67137466D01*
X171060466Y-67237466D01*
X171060466Y-67304133D01*
X171027133Y-67404133D01*
X170960466Y-67470800D01*
X170893800Y-67504133D01*
X170760466Y-67537466D01*
X170660466Y-67537466D01*
X170527133Y-67504133D01*
X170460466Y-67470800D01*
X170393800Y-67404133D01*
X170360466Y-67304133D01*
X170360466Y-67237466D01*
X170393800Y-67137466D01*
X170427133Y-67104133D01*
X171060466Y-66470800D02*
X171060466Y-66804133D01*
X170360466Y-66804133D01*
D10*
X143020000Y-40250000D02*
X175020000Y-40250000D01*
X175020000Y-40250000D02*
X175020000Y-72250000D01*
X175020000Y-72250000D02*
X143020000Y-72250000D01*
X143020000Y-72250000D02*
X143020000Y-40250000D01*
D13*
X170320000Y-47412000D02*
X174122000Y-47412000D01*
X168241900Y-68513800D02*
X173906100Y-68513800D01*
D10*
X110020000Y-40250000D02*
X142020000Y-40250000D01*
X142020000Y-40250000D02*
X142020000Y-72250000D01*
X142020000Y-72250000D02*
X110020000Y-72250000D01*
X110020000Y-72250000D02*
X110020000Y-40250000D01*
D13*
X137320000Y-47412000D02*
X141122000Y-47412000D01*
X135241900Y-68513800D02*
X140906100Y-68513800D01*
X133770000Y-48983333D02*
X133770000Y-48450000D01*
X134036666Y-48716666D02*
X133503333Y-48716666D01*
X133336666Y-48183333D02*
X133336666Y-47750000D01*
X133603333Y-47983333D01*
X133603333Y-47883333D01*
X133636666Y-47816666D01*
X133670000Y-47783333D01*
X133736666Y-47750000D01*
X133903333Y-47750000D01*
X133970000Y-47783333D01*
X134003333Y-47816666D01*
X134036666Y-47883333D01*
X134036666Y-48083333D01*
X134003333Y-48150000D01*
X133970000Y-48183333D01*
X133336666Y-47550000D02*
X134036666Y-47316666D01*
X133336666Y-47083333D01*
X133336666Y-46916666D02*
X133336666Y-46483333D01*
X133603333Y-46716666D01*
X133603333Y-46616666D01*
X133636666Y-46550000D01*
X133670000Y-46516666D01*
X133736666Y-46483333D01*
X133903333Y-46483333D01*
X133970000Y-46516666D01*
X134003333Y-46550000D01*
X134036666Y-46616666D01*
X134036666Y-46816666D01*
X134003333Y-46883333D01*
X133970000Y-46916666D01*
X138027133Y-68204133D02*
X138060466Y-68104133D01*
X138060466Y-67937466D01*
X138027133Y-67870800D01*
X137993800Y-67837466D01*
X137927133Y-67804133D01*
X137860466Y-67804133D01*
X137793800Y-67837466D01*
X137760466Y-67870800D01*
X137727133Y-67937466D01*
X137693800Y-68070800D01*
X137660466Y-68137466D01*
X137627133Y-68170800D01*
X137560466Y-68204133D01*
X137493800Y-68204133D01*
X137427133Y-68170800D01*
X137393800Y-68137466D01*
X137360466Y-68070800D01*
X137360466Y-67904133D01*
X137393800Y-67804133D01*
X137993800Y-67104133D02*
X138027133Y-67137466D01*
X138060466Y-67237466D01*
X138060466Y-67304133D01*
X138027133Y-67404133D01*
X137960466Y-67470800D01*
X137893800Y-67504133D01*
X137760466Y-67537466D01*
X137660466Y-67537466D01*
X137527133Y-67504133D01*
X137460466Y-67470800D01*
X137393800Y-67404133D01*
X137360466Y-67304133D01*
X137360466Y-67237466D01*
X137393800Y-67137466D01*
X137427133Y-67104133D01*
X138060466Y-66470800D02*
X138060466Y-66804133D01*
X137360466Y-66804133D01*
X138036666Y-48466666D02*
X137703333Y-48700000D01*
X138036666Y-48866666D02*
X137336666Y-48866666D01*
X137336666Y-48600000D01*
X137370000Y-48533333D01*
X137403333Y-48500000D01*
X137470000Y-48466666D01*
X137570000Y-48466666D01*
X137636666Y-48500000D01*
X137670000Y-48533333D01*
X137703333Y-48600000D01*
X137703333Y-48866666D01*
X137336666Y-48233333D02*
X138036666Y-47766666D01*
X137336666Y-47766666D02*
X138036666Y-48233333D01*
X135936666Y-48483333D02*
X135936666Y-48883333D01*
X135936666Y-48683333D02*
X135236666Y-48683333D01*
X135336666Y-48750000D01*
X135403333Y-48816666D01*
X135436666Y-48883333D01*
X135936666Y-48183333D02*
X135236666Y-48183333D01*
X135236666Y-47916666D01*
X135270000Y-47850000D01*
X135303333Y-47816666D01*
X135370000Y-47783333D01*
X135470000Y-47783333D01*
X135536666Y-47816666D01*
X135570000Y-47850000D01*
X135603333Y-47916666D01*
X135603333Y-48183333D01*
X135936666Y-47483333D02*
X135236666Y-47483333D01*
X135236666Y-47216666D01*
X135270000Y-47150000D01*
X135303333Y-47116666D01*
X135370000Y-47083333D01*
X135470000Y-47083333D01*
X135536666Y-47116666D01*
X135570000Y-47150000D01*
X135603333Y-47216666D01*
X135603333Y-47483333D01*
X135903333Y-46816666D02*
X135936666Y-46716666D01*
X135936666Y-46550000D01*
X135903333Y-46483333D01*
X135870000Y-46450000D01*
X135803333Y-46416666D01*
X135736666Y-46416666D01*
X135670000Y-46450000D01*
X135636666Y-46483333D01*
X135603333Y-46550000D01*
X135570000Y-46683333D01*
X135536666Y-46750000D01*
X135503333Y-46783333D01*
X135436666Y-46816666D01*
X135370000Y-46816666D01*
X135303333Y-46783333D01*
X135270000Y-46750000D01*
X135236666Y-46683333D01*
X135236666Y-46516666D01*
X135270000Y-46416666D01*
X111603023Y-68952000D02*
X111526833Y-68913904D01*
X111412547Y-68913904D01*
X111298261Y-68952000D01*
X111222071Y-69028190D01*
X111183976Y-69104380D01*
X111145880Y-69256761D01*
X111145880Y-69371047D01*
X111183976Y-69523428D01*
X111222071Y-69599619D01*
X111298261Y-69675809D01*
X111412547Y-69713904D01*
X111488738Y-69713904D01*
X111603023Y-69675809D01*
X111641119Y-69637714D01*
X111641119Y-69371047D01*
X111488738Y-69371047D01*
X111983976Y-69713904D02*
X111983976Y-68913904D01*
X112441119Y-69713904D01*
X112441119Y-68913904D01*
X112783976Y-69675809D02*
X112898261Y-69713904D01*
X113088738Y-69713904D01*
X113164928Y-69675809D01*
X113203023Y-69637714D01*
X113241119Y-69561523D01*
X113241119Y-69485333D01*
X113203023Y-69409142D01*
X113164928Y-69371047D01*
X113088738Y-69332952D01*
X112936357Y-69294857D01*
X112860166Y-69256761D01*
X112822071Y-69218666D01*
X112783976Y-69142476D01*
X112783976Y-69066285D01*
X112822071Y-68990095D01*
X112860166Y-68952000D01*
X112936357Y-68913904D01*
X113126833Y-68913904D01*
X113241119Y-68952000D01*
X113545880Y-69675809D02*
X113660166Y-69713904D01*
X113850642Y-69713904D01*
X113926833Y-69675809D01*
X113964928Y-69637714D01*
X114003023Y-69561523D01*
X114003023Y-69485333D01*
X113964928Y-69409142D01*
X113926833Y-69371047D01*
X113850642Y-69332952D01*
X113698261Y-69294857D01*
X113622071Y-69256761D01*
X113583976Y-69218666D01*
X113545880Y-69142476D01*
X113545880Y-69066285D01*
X113583976Y-68990095D01*
X113622071Y-68952000D01*
X113698261Y-68913904D01*
X113888738Y-68913904D01*
X114003023Y-68952000D01*
X115222071Y-69294857D02*
X115336357Y-69332952D01*
X115374452Y-69371047D01*
X115412547Y-69447238D01*
X115412547Y-69561523D01*
X115374452Y-69637714D01*
X115336357Y-69675809D01*
X115260166Y-69713904D01*
X114955404Y-69713904D01*
X114955404Y-68913904D01*
X115222071Y-68913904D01*
X115298261Y-68952000D01*
X115336357Y-68990095D01*
X115374452Y-69066285D01*
X115374452Y-69142476D01*
X115336357Y-69218666D01*
X115298261Y-69256761D01*
X115222071Y-69294857D01*
X114955404Y-69294857D01*
X115869690Y-69713904D02*
X115793500Y-69675809D01*
X115755404Y-69637714D01*
X115717309Y-69561523D01*
X115717309Y-69332952D01*
X115755404Y-69256761D01*
X115793500Y-69218666D01*
X115869690Y-69180571D01*
X115983976Y-69180571D01*
X116060166Y-69218666D01*
X116098261Y-69256761D01*
X116136357Y-69332952D01*
X116136357Y-69561523D01*
X116098261Y-69637714D01*
X116060166Y-69675809D01*
X115983976Y-69713904D01*
X115869690Y-69713904D01*
X116822071Y-69713904D02*
X116822071Y-69294857D01*
X116783976Y-69218666D01*
X116707785Y-69180571D01*
X116555404Y-69180571D01*
X116479214Y-69218666D01*
X116822071Y-69675809D02*
X116745880Y-69713904D01*
X116555404Y-69713904D01*
X116479214Y-69675809D01*
X116441119Y-69599619D01*
X116441119Y-69523428D01*
X116479214Y-69447238D01*
X116555404Y-69409142D01*
X116745880Y-69409142D01*
X116822071Y-69371047D01*
X117203023Y-69713904D02*
X117203023Y-69180571D01*
X117203023Y-69332952D02*
X117241119Y-69256761D01*
X117279214Y-69218666D01*
X117355404Y-69180571D01*
X117431595Y-69180571D01*
X118041119Y-69713904D02*
X118041119Y-68913904D01*
X118041119Y-69675809D02*
X117964928Y-69713904D01*
X117812547Y-69713904D01*
X117736357Y-69675809D01*
X117698261Y-69637714D01*
X117660166Y-69561523D01*
X117660166Y-69332952D01*
X117698261Y-69256761D01*
X117736357Y-69218666D01*
X117812547Y-69180571D01*
X117964928Y-69180571D01*
X118041119Y-69218666D01*
D10*
X138901209Y-69855180D02*
X138901209Y-68855180D01*
X139329780Y-68950419D02*
X139377400Y-68902800D01*
X139472638Y-68855180D01*
X139710733Y-68855180D01*
X139805971Y-68902800D01*
X139853590Y-68950419D01*
X139901209Y-69045657D01*
X139901209Y-69140895D01*
X139853590Y-69283752D01*
X139282161Y-69855180D01*
X139901209Y-69855180D01*
X140901209Y-69759942D02*
X140853590Y-69807561D01*
X140710733Y-69855180D01*
X140615495Y-69855180D01*
X140472638Y-69807561D01*
X140377400Y-69712323D01*
X140329780Y-69617085D01*
X140282161Y-69426609D01*
X140282161Y-69283752D01*
X140329780Y-69093276D01*
X140377400Y-68998038D01*
X140472638Y-68902800D01*
X140615495Y-68855180D01*
X140710733Y-68855180D01*
X140853590Y-68902800D01*
X140901209Y-68950419D01*
X137748761Y-46102380D02*
X137748761Y-46911904D01*
X137796380Y-47007142D01*
X137844000Y-47054761D01*
X137939238Y-47102380D01*
X138129714Y-47102380D01*
X138224952Y-47054761D01*
X138272571Y-47007142D01*
X138320190Y-46911904D01*
X138320190Y-46102380D01*
X138748761Y-46816666D02*
X139224952Y-46816666D01*
X138653523Y-47102380D02*
X138986857Y-46102380D01*
X139320190Y-47102380D01*
X140224952Y-47102380D02*
X139891619Y-46626190D01*
X139653523Y-47102380D02*
X139653523Y-46102380D01*
X140034476Y-46102380D01*
X140129714Y-46150000D01*
X140177333Y-46197619D01*
X140224952Y-46292857D01*
X140224952Y-46435714D01*
X140177333Y-46530952D01*
X140129714Y-46578571D01*
X140034476Y-46626190D01*
X139653523Y-46626190D01*
X140510666Y-46102380D02*
X141082095Y-46102380D01*
X140796380Y-47102380D02*
X140796380Y-46102380D01*
D13*
X131297800Y-48483333D02*
X131264466Y-48550000D01*
X131264466Y-48650000D01*
X131297800Y-48750000D01*
X131364466Y-48816666D01*
X131431133Y-48850000D01*
X131564466Y-48883333D01*
X131664466Y-48883333D01*
X131797800Y-48850000D01*
X131864466Y-48816666D01*
X131931133Y-48750000D01*
X131964466Y-48650000D01*
X131964466Y-48583333D01*
X131931133Y-48483333D01*
X131897800Y-48450000D01*
X131664466Y-48450000D01*
X131664466Y-48583333D01*
X131964466Y-48150000D02*
X131264466Y-48150000D01*
X131964466Y-47750000D01*
X131264466Y-47750000D01*
X131964466Y-47416666D02*
X131264466Y-47416666D01*
X131264466Y-47250000D01*
X131297800Y-47150000D01*
X131364466Y-47083333D01*
X131431133Y-47050000D01*
X131564466Y-47016666D01*
X131664466Y-47016666D01*
X131797800Y-47050000D01*
X131864466Y-47083333D01*
X131931133Y-47150000D01*
X131964466Y-47250000D01*
X131964466Y-47416666D01*
X111226666Y-70938666D02*
X111226666Y-70238666D01*
X111393333Y-70238666D01*
X111493333Y-70272000D01*
X111560000Y-70338666D01*
X111593333Y-70405333D01*
X111626666Y-70538666D01*
X111626666Y-70638666D01*
X111593333Y-70772000D01*
X111560000Y-70838666D01*
X111493333Y-70905333D01*
X111393333Y-70938666D01*
X111226666Y-70938666D01*
X112193333Y-70905333D02*
X112126666Y-70938666D01*
X111993333Y-70938666D01*
X111926666Y-70905333D01*
X111893333Y-70838666D01*
X111893333Y-70572000D01*
X111926666Y-70505333D01*
X111993333Y-70472000D01*
X112126666Y-70472000D01*
X112193333Y-70505333D01*
X112226666Y-70572000D01*
X112226666Y-70638666D01*
X111893333Y-70705333D01*
X112493333Y-70905333D02*
X112560000Y-70938666D01*
X112693333Y-70938666D01*
X112760000Y-70905333D01*
X112793333Y-70838666D01*
X112793333Y-70805333D01*
X112760000Y-70738666D01*
X112693333Y-70705333D01*
X112593333Y-70705333D01*
X112526666Y-70672000D01*
X112493333Y-70605333D01*
X112493333Y-70572000D01*
X112526666Y-70505333D01*
X112593333Y-70472000D01*
X112693333Y-70472000D01*
X112760000Y-70505333D01*
X113093333Y-70938666D02*
X113093333Y-70472000D01*
X113093333Y-70238666D02*
X113060000Y-70272000D01*
X113093333Y-70305333D01*
X113126666Y-70272000D01*
X113093333Y-70238666D01*
X113093333Y-70305333D01*
X113726666Y-70472000D02*
X113726666Y-71038666D01*
X113693333Y-71105333D01*
X113660000Y-71138666D01*
X113593333Y-71172000D01*
X113493333Y-71172000D01*
X113426666Y-71138666D01*
X113726666Y-70905333D02*
X113660000Y-70938666D01*
X113526666Y-70938666D01*
X113460000Y-70905333D01*
X113426666Y-70872000D01*
X113393333Y-70805333D01*
X113393333Y-70605333D01*
X113426666Y-70538666D01*
X113460000Y-70505333D01*
X113526666Y-70472000D01*
X113660000Y-70472000D01*
X113726666Y-70505333D01*
X114060000Y-70472000D02*
X114060000Y-70938666D01*
X114060000Y-70538666D02*
X114093333Y-70505333D01*
X114160000Y-70472000D01*
X114260000Y-70472000D01*
X114326666Y-70505333D01*
X114360000Y-70572000D01*
X114360000Y-70938666D01*
X114693333Y-70872000D02*
X114726666Y-70905333D01*
X114693333Y-70938666D01*
X114660000Y-70905333D01*
X114693333Y-70872000D01*
X114693333Y-70938666D01*
X114693333Y-70505333D02*
X114726666Y-70538666D01*
X114693333Y-70572000D01*
X114660000Y-70538666D01*
X114693333Y-70505333D01*
X114693333Y-70572000D01*
X115526666Y-70738666D02*
X115860000Y-70738666D01*
X115460000Y-70938666D02*
X115693333Y-70238666D01*
X115926666Y-70938666D01*
X116160000Y-70938666D02*
X116160000Y-70238666D01*
X116226666Y-70672000D02*
X116426666Y-70938666D01*
X116426666Y-70472000D02*
X116160000Y-70738666D01*
X116726666Y-70938666D02*
X116726666Y-70472000D01*
X116726666Y-70238666D02*
X116693333Y-70272000D01*
X116726666Y-70305333D01*
X116760000Y-70272000D01*
X116726666Y-70238666D01*
X116726666Y-70305333D01*
X117160000Y-70938666D02*
X117093333Y-70905333D01*
X117060000Y-70872000D01*
X117026666Y-70805333D01*
X117026666Y-70605333D01*
X117060000Y-70538666D01*
X117093333Y-70505333D01*
X117160000Y-70472000D01*
X117260000Y-70472000D01*
X117326666Y-70505333D01*
X117360000Y-70538666D01*
X117393333Y-70605333D01*
X117393333Y-70805333D01*
X117360000Y-70872000D01*
X117326666Y-70905333D01*
X117260000Y-70938666D01*
X117160000Y-70938666D01*
X118226666Y-70938666D02*
X118226666Y-70238666D01*
X118460000Y-70738666D01*
X118693333Y-70238666D01*
X118693333Y-70938666D01*
X111069690Y-66132571D02*
X111374452Y-66132571D01*
X111183976Y-65865904D02*
X111183976Y-66551619D01*
X111222071Y-66627809D01*
X111298261Y-66665904D01*
X111374452Y-66665904D01*
X111983976Y-66665904D02*
X111983976Y-66246857D01*
X111945880Y-66170666D01*
X111869690Y-66132571D01*
X111717309Y-66132571D01*
X111641119Y-66170666D01*
X111983976Y-66627809D02*
X111907785Y-66665904D01*
X111717309Y-66665904D01*
X111641119Y-66627809D01*
X111603023Y-66551619D01*
X111603023Y-66475428D01*
X111641119Y-66399238D01*
X111717309Y-66361142D01*
X111907785Y-66361142D01*
X111983976Y-66323047D01*
X112364928Y-66132571D02*
X112364928Y-66665904D01*
X112364928Y-66208761D02*
X112403023Y-66170666D01*
X112479214Y-66132571D01*
X112593500Y-66132571D01*
X112669690Y-66170666D01*
X112707785Y-66246857D01*
X112707785Y-66665904D01*
X113393500Y-66627809D02*
X113317309Y-66665904D01*
X113164928Y-66665904D01*
X113088738Y-66627809D01*
X113050642Y-66551619D01*
X113050642Y-66246857D01*
X113088738Y-66170666D01*
X113164928Y-66132571D01*
X113317309Y-66132571D01*
X113393500Y-66170666D01*
X113431595Y-66246857D01*
X113431595Y-66323047D01*
X113050642Y-66399238D01*
X113774452Y-66665904D02*
X113774452Y-65865904D01*
X113850642Y-66361142D02*
X114079214Y-66665904D01*
X114079214Y-66132571D02*
X113774452Y-66437333D01*
X114536357Y-66665904D02*
X114460166Y-66627809D01*
X114422071Y-66589714D01*
X114383976Y-66513523D01*
X114383976Y-66284952D01*
X114422071Y-66208761D01*
X114460166Y-66170666D01*
X114536357Y-66132571D01*
X114650642Y-66132571D01*
X114726833Y-66170666D01*
X114764928Y-66208761D01*
X114803023Y-66284952D01*
X114803023Y-66513523D01*
X114764928Y-66589714D01*
X114726833Y-66627809D01*
X114650642Y-66665904D01*
X114536357Y-66665904D01*
X115145880Y-66132571D02*
X115145880Y-66665904D01*
X115145880Y-66208761D02*
X115183976Y-66170666D01*
X115260166Y-66132571D01*
X115374452Y-66132571D01*
X115450642Y-66170666D01*
X115488738Y-66246857D01*
X115488738Y-66665904D01*
X115831595Y-66627809D02*
X115907785Y-66665904D01*
X116060166Y-66665904D01*
X116136357Y-66627809D01*
X116174452Y-66551619D01*
X116174452Y-66513523D01*
X116136357Y-66437333D01*
X116060166Y-66399238D01*
X115945880Y-66399238D01*
X115869690Y-66361142D01*
X115831595Y-66284952D01*
X115831595Y-66246857D01*
X115869690Y-66170666D01*
X115945880Y-66132571D01*
X116060166Y-66132571D01*
X116136357Y-66170666D01*
X116860166Y-66665904D02*
X116860166Y-66246857D01*
X116822071Y-66170666D01*
X116745880Y-66132571D01*
X116593500Y-66132571D01*
X116517309Y-66170666D01*
X116860166Y-66627809D02*
X116783976Y-66665904D01*
X116593500Y-66665904D01*
X116517309Y-66627809D01*
X116479214Y-66551619D01*
X116479214Y-66475428D01*
X116517309Y-66399238D01*
X116593500Y-66361142D01*
X116783976Y-66361142D01*
X116860166Y-66323047D01*
X117126833Y-66132571D02*
X117431595Y-66132571D01*
X117241119Y-65865904D02*
X117241119Y-66551619D01*
X117279214Y-66627809D01*
X117355404Y-66665904D01*
X117431595Y-66665904D01*
X117660166Y-65942095D02*
X117698261Y-65904000D01*
X117774452Y-65865904D01*
X117964928Y-65865904D01*
X118041119Y-65904000D01*
X118079214Y-65942095D01*
X118117309Y-66018285D01*
X118117309Y-66094476D01*
X118079214Y-66208761D01*
X117622071Y-66665904D01*
X118117309Y-66665904D01*
X118612547Y-65865904D02*
X118688738Y-65865904D01*
X118764928Y-65904000D01*
X118803023Y-65942095D01*
X118841119Y-66018285D01*
X118879214Y-66170666D01*
X118879214Y-66361142D01*
X118841119Y-66513523D01*
X118803023Y-66589714D01*
X118764928Y-66627809D01*
X118688738Y-66665904D01*
X118612547Y-66665904D01*
X118536357Y-66627809D01*
X118498261Y-66589714D01*
X118460166Y-66513523D01*
X118422071Y-66361142D01*
X118422071Y-66170666D01*
X118460166Y-66018285D01*
X118498261Y-65942095D01*
X118536357Y-65904000D01*
X118612547Y-65865904D01*
X119183976Y-65942095D02*
X119222071Y-65904000D01*
X119298261Y-65865904D01*
X119488738Y-65865904D01*
X119564928Y-65904000D01*
X119603023Y-65942095D01*
X119641119Y-66018285D01*
X119641119Y-66094476D01*
X119603023Y-66208761D01*
X119145880Y-66665904D01*
X119641119Y-66665904D01*
X119945880Y-65942095D02*
X119983976Y-65904000D01*
X120060166Y-65865904D01*
X120250642Y-65865904D01*
X120326833Y-65904000D01*
X120364928Y-65942095D01*
X120403023Y-66018285D01*
X120403023Y-66094476D01*
X120364928Y-66208761D01*
X119907785Y-66665904D01*
X120403023Y-66665904D01*
X135918933Y-68220800D02*
X135952266Y-68120800D01*
X135952266Y-67954133D01*
X135918933Y-67887466D01*
X135885600Y-67854133D01*
X135818933Y-67820800D01*
X135752266Y-67820800D01*
X135685600Y-67854133D01*
X135652266Y-67887466D01*
X135618933Y-67954133D01*
X135585600Y-68087466D01*
X135552266Y-68154133D01*
X135518933Y-68187466D01*
X135452266Y-68220800D01*
X135385600Y-68220800D01*
X135318933Y-68187466D01*
X135285600Y-68154133D01*
X135252266Y-68087466D01*
X135252266Y-67920800D01*
X135285600Y-67820800D01*
X135952266Y-67520800D02*
X135252266Y-67520800D01*
X135252266Y-67354133D01*
X135285600Y-67254133D01*
X135352266Y-67187466D01*
X135418933Y-67154133D01*
X135552266Y-67120800D01*
X135652266Y-67120800D01*
X135785600Y-67154133D01*
X135852266Y-67187466D01*
X135918933Y-67254133D01*
X135952266Y-67354133D01*
X135952266Y-67520800D01*
X135752266Y-66854133D02*
X135752266Y-66520800D01*
X135952266Y-66920800D02*
X135252266Y-66687466D01*
X135952266Y-66454133D01*
X139336666Y-48883333D02*
X139336666Y-48483333D01*
X140036666Y-48683333D02*
X139336666Y-48683333D01*
X139336666Y-48316666D02*
X140036666Y-47850000D01*
X139336666Y-47850000D02*
X140036666Y-48316666D01*
D12*
X111118571Y-65458571D02*
X111118571Y-63958571D01*
X111475714Y-63958571D01*
X111690000Y-64030000D01*
X111832857Y-64172857D01*
X111904285Y-64315714D01*
X111975714Y-64601428D01*
X111975714Y-64815714D01*
X111904285Y-65101428D01*
X111832857Y-65244285D01*
X111690000Y-65387142D01*
X111475714Y-65458571D01*
X111118571Y-65458571D01*
X112618571Y-64672857D02*
X113118571Y-64672857D01*
X113332857Y-65458571D02*
X112618571Y-65458571D01*
X112618571Y-63958571D01*
X113332857Y-63958571D01*
X114832857Y-65458571D02*
X114332857Y-64744285D01*
X113975714Y-65458571D02*
X113975714Y-63958571D01*
X114547142Y-63958571D01*
X114690000Y-64030000D01*
X114761428Y-64101428D01*
X114832857Y-64244285D01*
X114832857Y-64458571D01*
X114761428Y-64601428D01*
X114690000Y-64672857D01*
X114547142Y-64744285D01*
X113975714Y-64744285D01*
X116332857Y-65315714D02*
X116261428Y-65387142D01*
X116047142Y-65458571D01*
X115904285Y-65458571D01*
X115690000Y-65387142D01*
X115547142Y-65244285D01*
X115475714Y-65101428D01*
X115404285Y-64815714D01*
X115404285Y-64601428D01*
X115475714Y-64315714D01*
X115547142Y-64172857D01*
X115690000Y-64030000D01*
X115904285Y-63958571D01*
X116047142Y-63958571D01*
X116261428Y-64030000D01*
X116332857Y-64101428D01*
D13*
%TO.C,*%
%TO.C,C41*%
X165716142Y-98295857D02*
X165763761Y-98343476D01*
X165811380Y-98486333D01*
X165811380Y-98581571D01*
X165763761Y-98724428D01*
X165668523Y-98819666D01*
X165573285Y-98867285D01*
X165382809Y-98914904D01*
X165239952Y-98914904D01*
X165049476Y-98867285D01*
X164954238Y-98819666D01*
X164859000Y-98724428D01*
X164811380Y-98581571D01*
X164811380Y-98486333D01*
X164859000Y-98343476D01*
X164906619Y-98295857D01*
X165144714Y-97438714D02*
X165811380Y-97438714D01*
X164763761Y-97676809D02*
X165478047Y-97914904D01*
X165478047Y-97295857D01*
X165811380Y-96391095D02*
X165811380Y-96962523D01*
X165811380Y-96676809D02*
X164811380Y-96676809D01*
X164954238Y-96772047D01*
X165049476Y-96867285D01*
X165097095Y-96962523D01*
%TO.C,J14*%
X172179980Y-98767323D02*
X172894266Y-98767323D01*
X173037123Y-98814942D01*
X173132361Y-98910180D01*
X173179980Y-99053038D01*
X173179980Y-99148276D01*
X173179980Y-97767323D02*
X173179980Y-98338752D01*
X173179980Y-98053038D02*
X172179980Y-98053038D01*
X172322838Y-98148276D01*
X172418076Y-98243514D01*
X172465695Y-98338752D01*
X172513314Y-96910180D02*
X173179980Y-96910180D01*
X172132361Y-97148276D02*
X172846647Y-97386371D01*
X172846647Y-96767323D01*
D14*
%TO.C,IC15*%
X154700676Y-102393123D02*
X154700676Y-101123123D01*
X156031152Y-102272171D02*
X155970676Y-102332647D01*
X155789247Y-102393123D01*
X155668295Y-102393123D01*
X155486866Y-102332647D01*
X155365914Y-102211695D01*
X155305438Y-102090742D01*
X155244961Y-101848838D01*
X155244961Y-101667409D01*
X155305438Y-101425504D01*
X155365914Y-101304552D01*
X155486866Y-101183600D01*
X155668295Y-101123123D01*
X155789247Y-101123123D01*
X155970676Y-101183600D01*
X156031152Y-101244076D01*
X157240676Y-102393123D02*
X156514961Y-102393123D01*
X156877819Y-102393123D02*
X156877819Y-101123123D01*
X156756866Y-101304552D01*
X156635914Y-101425504D01*
X156514961Y-101485980D01*
X158389723Y-101123123D02*
X157784961Y-101123123D01*
X157724485Y-101727885D01*
X157784961Y-101667409D01*
X157905914Y-101606933D01*
X158208295Y-101606933D01*
X158329247Y-101667409D01*
X158389723Y-101727885D01*
X158450200Y-101848838D01*
X158450200Y-102151219D01*
X158389723Y-102272171D01*
X158329247Y-102332647D01*
X158208295Y-102393123D01*
X157905914Y-102393123D01*
X157784961Y-102332647D01*
X157724485Y-102272171D01*
D13*
%TO.C,L7*%
X158064380Y-98378466D02*
X158064380Y-98854657D01*
X157064380Y-98854657D01*
X157064380Y-98140371D02*
X157064380Y-97473704D01*
X158064380Y-97902276D01*
%TO.C,C39*%
X155419742Y-94276342D02*
X155372123Y-94323961D01*
X155229266Y-94371580D01*
X155134028Y-94371580D01*
X154991171Y-94323961D01*
X154895933Y-94228723D01*
X154848314Y-94133485D01*
X154800695Y-93943009D01*
X154800695Y-93800152D01*
X154848314Y-93609676D01*
X154895933Y-93514438D01*
X154991171Y-93419200D01*
X155134028Y-93371580D01*
X155229266Y-93371580D01*
X155372123Y-93419200D01*
X155419742Y-93466819D01*
X155753076Y-93371580D02*
X156372123Y-93371580D01*
X156038790Y-93752533D01*
X156181647Y-93752533D01*
X156276885Y-93800152D01*
X156324504Y-93847771D01*
X156372123Y-93943009D01*
X156372123Y-94181104D01*
X156324504Y-94276342D01*
X156276885Y-94323961D01*
X156181647Y-94371580D01*
X155895933Y-94371580D01*
X155800695Y-94323961D01*
X155753076Y-94276342D01*
X156848314Y-94371580D02*
X157038790Y-94371580D01*
X157134028Y-94323961D01*
X157181647Y-94276342D01*
X157276885Y-94133485D01*
X157324504Y-93943009D01*
X157324504Y-93562057D01*
X157276885Y-93466819D01*
X157229266Y-93419200D01*
X157134028Y-93371580D01*
X156943552Y-93371580D01*
X156848314Y-93419200D01*
X156800695Y-93466819D01*
X156753076Y-93562057D01*
X156753076Y-93800152D01*
X156800695Y-93895390D01*
X156848314Y-93943009D01*
X156943552Y-93990628D01*
X157134028Y-93990628D01*
X157229266Y-93943009D01*
X157276885Y-93895390D01*
X157324504Y-93800152D01*
%TO.C,L8*%
X166868733Y-104582380D02*
X166392542Y-104582380D01*
X166392542Y-103582380D01*
X167344923Y-104010952D02*
X167249685Y-103963333D01*
X167202066Y-103915714D01*
X167154447Y-103820476D01*
X167154447Y-103772857D01*
X167202066Y-103677619D01*
X167249685Y-103630000D01*
X167344923Y-103582380D01*
X167535400Y-103582380D01*
X167630638Y-103630000D01*
X167678257Y-103677619D01*
X167725876Y-103772857D01*
X167725876Y-103820476D01*
X167678257Y-103915714D01*
X167630638Y-103963333D01*
X167535400Y-104010952D01*
X167344923Y-104010952D01*
X167249685Y-104058571D01*
X167202066Y-104106190D01*
X167154447Y-104201428D01*
X167154447Y-104391904D01*
X167202066Y-104487142D01*
X167249685Y-104534761D01*
X167344923Y-104582380D01*
X167535400Y-104582380D01*
X167630638Y-104534761D01*
X167678257Y-104487142D01*
X167725876Y-104391904D01*
X167725876Y-104201428D01*
X167678257Y-104106190D01*
X167630638Y-104058571D01*
X167535400Y-104010952D01*
%TO.C,J15*%
X162012380Y-84259523D02*
X162726666Y-84259523D01*
X162869523Y-84307142D01*
X162964761Y-84402380D01*
X163012380Y-84545238D01*
X163012380Y-84640476D01*
X163012380Y-83259523D02*
X163012380Y-83830952D01*
X163012380Y-83545238D02*
X162012380Y-83545238D01*
X162155238Y-83640476D01*
X162250476Y-83735714D01*
X162298095Y-83830952D01*
X162012380Y-82354761D02*
X162012380Y-82830952D01*
X162488571Y-82878571D01*
X162440952Y-82830952D01*
X162393333Y-82735714D01*
X162393333Y-82497619D01*
X162440952Y-82402380D01*
X162488571Y-82354761D01*
X162583809Y-82307142D01*
X162821904Y-82307142D01*
X162917142Y-82354761D01*
X162964761Y-82402380D01*
X163012380Y-82497619D01*
X163012380Y-82735714D01*
X162964761Y-82830952D01*
X162917142Y-82878571D01*
%TO.C,C40*%
X160526142Y-96213057D02*
X160573761Y-96260676D01*
X160621380Y-96403533D01*
X160621380Y-96498771D01*
X160573761Y-96641628D01*
X160478523Y-96736866D01*
X160383285Y-96784485D01*
X160192809Y-96832104D01*
X160049952Y-96832104D01*
X159859476Y-96784485D01*
X159764238Y-96736866D01*
X159669000Y-96641628D01*
X159621380Y-96498771D01*
X159621380Y-96403533D01*
X159669000Y-96260676D01*
X159716619Y-96213057D01*
X159954714Y-95355914D02*
X160621380Y-95355914D01*
X159573761Y-95594009D02*
X160288047Y-95832104D01*
X160288047Y-95213057D01*
X159621380Y-94641628D02*
X159621380Y-94546390D01*
X159669000Y-94451152D01*
X159716619Y-94403533D01*
X159811857Y-94355914D01*
X160002333Y-94308295D01*
X160240428Y-94308295D01*
X160430904Y-94355914D01*
X160526142Y-94403533D01*
X160573761Y-94451152D01*
X160621380Y-94546390D01*
X160621380Y-94641628D01*
X160573761Y-94736866D01*
X160526142Y-94784485D01*
X160430904Y-94832104D01*
X160240428Y-94879723D01*
X160002333Y-94879723D01*
X159811857Y-94832104D01*
X159716619Y-94784485D01*
X159669000Y-94736866D01*
X159621380Y-94641628D01*
%TO.C,C42*%
X163014342Y-104309342D02*
X162966723Y-104356961D01*
X162823866Y-104404580D01*
X162728628Y-104404580D01*
X162585771Y-104356961D01*
X162490533Y-104261723D01*
X162442914Y-104166485D01*
X162395295Y-103976009D01*
X162395295Y-103833152D01*
X162442914Y-103642676D01*
X162490533Y-103547438D01*
X162585771Y-103452200D01*
X162728628Y-103404580D01*
X162823866Y-103404580D01*
X162966723Y-103452200D01*
X163014342Y-103499819D01*
X163871485Y-103737914D02*
X163871485Y-104404580D01*
X163633390Y-103356961D02*
X163395295Y-104071247D01*
X164014342Y-104071247D01*
X164347676Y-103499819D02*
X164395295Y-103452200D01*
X164490533Y-103404580D01*
X164728628Y-103404580D01*
X164823866Y-103452200D01*
X164871485Y-103499819D01*
X164919104Y-103595057D01*
X164919104Y-103690295D01*
X164871485Y-103833152D01*
X164300057Y-104404580D01*
X164919104Y-104404580D01*
%TO.C,C43*%
X160271142Y-98746742D02*
X160223523Y-98794361D01*
X160080666Y-98841980D01*
X159985428Y-98841980D01*
X159842571Y-98794361D01*
X159747333Y-98699123D01*
X159699714Y-98603885D01*
X159652095Y-98413409D01*
X159652095Y-98270552D01*
X159699714Y-98080076D01*
X159747333Y-97984838D01*
X159842571Y-97889600D01*
X159985428Y-97841980D01*
X160080666Y-97841980D01*
X160223523Y-97889600D01*
X160271142Y-97937219D01*
X161128285Y-98175314D02*
X161128285Y-98841980D01*
X160890190Y-97794361D02*
X160652095Y-98508647D01*
X161271142Y-98508647D01*
X161556857Y-97841980D02*
X162175904Y-97841980D01*
X161842571Y-98222933D01*
X161985428Y-98222933D01*
X162080666Y-98270552D01*
X162128285Y-98318171D01*
X162175904Y-98413409D01*
X162175904Y-98651504D01*
X162128285Y-98746742D01*
X162080666Y-98794361D01*
X161985428Y-98841980D01*
X161699714Y-98841980D01*
X161604476Y-98794361D01*
X161556857Y-98746742D01*
D14*
%TO.C,FL4*%
X166309685Y-100977980D02*
X166309685Y-101401314D01*
X166974923Y-101401314D02*
X165704923Y-101401314D01*
X165704923Y-100796552D01*
X166974923Y-99707980D02*
X166974923Y-100312742D01*
X165704923Y-100312742D01*
X166128257Y-98740361D02*
X166974923Y-98740361D01*
X165644447Y-99042742D02*
X166551590Y-99345123D01*
X166551590Y-98558933D01*
%TO.C,IC13*%
X167965523Y-92639523D02*
X166695523Y-92639523D01*
X167844571Y-91309047D02*
X167905047Y-91369523D01*
X167965523Y-91550952D01*
X167965523Y-91671904D01*
X167905047Y-91853333D01*
X167784095Y-91974285D01*
X167663142Y-92034761D01*
X167421238Y-92095238D01*
X167239809Y-92095238D01*
X166997904Y-92034761D01*
X166876952Y-91974285D01*
X166756000Y-91853333D01*
X166695523Y-91671904D01*
X166695523Y-91550952D01*
X166756000Y-91369523D01*
X166816476Y-91309047D01*
X167965523Y-90099523D02*
X167965523Y-90825238D01*
X167965523Y-90462380D02*
X166695523Y-90462380D01*
X166876952Y-90583333D01*
X166997904Y-90704285D01*
X167058380Y-90825238D01*
X166695523Y-89676190D02*
X166695523Y-88890000D01*
X167179333Y-89313333D01*
X167179333Y-89131904D01*
X167239809Y-89010952D01*
X167300285Y-88950476D01*
X167421238Y-88890000D01*
X167723619Y-88890000D01*
X167844571Y-88950476D01*
X167905047Y-89010952D01*
X167965523Y-89131904D01*
X167965523Y-89494761D01*
X167905047Y-89615714D01*
X167844571Y-89676190D01*
D13*
%TO.C,U5*%
X145953495Y-87153518D02*
X145953495Y-87963042D01*
X146001114Y-88058280D01*
X146048733Y-88105899D01*
X146143971Y-88153518D01*
X146334447Y-88153518D01*
X146429685Y-88105899D01*
X146477304Y-88058280D01*
X146524923Y-87963042D01*
X146524923Y-87153518D01*
X147477304Y-87153518D02*
X147001114Y-87153518D01*
X146953495Y-87629709D01*
X147001114Y-87582090D01*
X147096352Y-87534471D01*
X147334447Y-87534471D01*
X147429685Y-87582090D01*
X147477304Y-87629709D01*
X147524923Y-87724947D01*
X147524923Y-87963042D01*
X147477304Y-88058280D01*
X147429685Y-88105899D01*
X147334447Y-88153518D01*
X147096352Y-88153518D01*
X147001114Y-88105899D01*
X146953495Y-88058280D01*
%TO.C,C36*%
X132716142Y-98295857D02*
X132763761Y-98343476D01*
X132811380Y-98486333D01*
X132811380Y-98581571D01*
X132763761Y-98724428D01*
X132668523Y-98819666D01*
X132573285Y-98867285D01*
X132382809Y-98914904D01*
X132239952Y-98914904D01*
X132049476Y-98867285D01*
X131954238Y-98819666D01*
X131859000Y-98724428D01*
X131811380Y-98581571D01*
X131811380Y-98486333D01*
X131859000Y-98343476D01*
X131906619Y-98295857D01*
X131811380Y-97962523D02*
X131811380Y-97343476D01*
X132192333Y-97676809D01*
X132192333Y-97533952D01*
X132239952Y-97438714D01*
X132287571Y-97391095D01*
X132382809Y-97343476D01*
X132620904Y-97343476D01*
X132716142Y-97391095D01*
X132763761Y-97438714D01*
X132811380Y-97533952D01*
X132811380Y-97819666D01*
X132763761Y-97914904D01*
X132716142Y-97962523D01*
X131811380Y-96486333D02*
X131811380Y-96676809D01*
X131859000Y-96772047D01*
X131906619Y-96819666D01*
X132049476Y-96914904D01*
X132239952Y-96962523D01*
X132620904Y-96962523D01*
X132716142Y-96914904D01*
X132763761Y-96867285D01*
X132811380Y-96772047D01*
X132811380Y-96581571D01*
X132763761Y-96486333D01*
X132716142Y-96438714D01*
X132620904Y-96391095D01*
X132382809Y-96391095D01*
X132287571Y-96438714D01*
X132239952Y-96486333D01*
X132192333Y-96581571D01*
X132192333Y-96772047D01*
X132239952Y-96867285D01*
X132287571Y-96914904D01*
X132382809Y-96962523D01*
%TO.C,J12*%
X139179980Y-98767323D02*
X139894266Y-98767323D01*
X140037123Y-98814942D01*
X140132361Y-98910180D01*
X140179980Y-99053038D01*
X140179980Y-99148276D01*
X140179980Y-97767323D02*
X140179980Y-98338752D01*
X140179980Y-98053038D02*
X139179980Y-98053038D01*
X139322838Y-98148276D01*
X139418076Y-98243514D01*
X139465695Y-98338752D01*
X139275219Y-97386371D02*
X139227600Y-97338752D01*
X139179980Y-97243514D01*
X139179980Y-97005419D01*
X139227600Y-96910180D01*
X139275219Y-96862561D01*
X139370457Y-96814942D01*
X139465695Y-96814942D01*
X139608552Y-96862561D01*
X140179980Y-97433990D01*
X140179980Y-96814942D01*
D14*
%TO.C,IC12*%
X121700676Y-102393123D02*
X121700676Y-101123123D01*
X123031152Y-102272171D02*
X122970676Y-102332647D01*
X122789247Y-102393123D01*
X122668295Y-102393123D01*
X122486866Y-102332647D01*
X122365914Y-102211695D01*
X122305438Y-102090742D01*
X122244961Y-101848838D01*
X122244961Y-101667409D01*
X122305438Y-101425504D01*
X122365914Y-101304552D01*
X122486866Y-101183600D01*
X122668295Y-101123123D01*
X122789247Y-101123123D01*
X122970676Y-101183600D01*
X123031152Y-101244076D01*
X124240676Y-102393123D02*
X123514961Y-102393123D01*
X123877819Y-102393123D02*
X123877819Y-101123123D01*
X123756866Y-101304552D01*
X123635914Y-101425504D01*
X123514961Y-101485980D01*
X124724485Y-101244076D02*
X124784961Y-101183600D01*
X124905914Y-101123123D01*
X125208295Y-101123123D01*
X125329247Y-101183600D01*
X125389723Y-101244076D01*
X125450200Y-101365028D01*
X125450200Y-101485980D01*
X125389723Y-101667409D01*
X124664009Y-102393123D01*
X125450200Y-102393123D01*
D13*
%TO.C,L5*%
X125064380Y-98378466D02*
X125064380Y-98854657D01*
X124064380Y-98854657D01*
X124064380Y-97568942D02*
X124064380Y-98045133D01*
X124540571Y-98092752D01*
X124492952Y-98045133D01*
X124445333Y-97949895D01*
X124445333Y-97711800D01*
X124492952Y-97616561D01*
X124540571Y-97568942D01*
X124635809Y-97521323D01*
X124873904Y-97521323D01*
X124969142Y-97568942D01*
X125016761Y-97616561D01*
X125064380Y-97711800D01*
X125064380Y-97949895D01*
X125016761Y-98045133D01*
X124969142Y-98092752D01*
%TO.C,C34*%
X122419742Y-94276342D02*
X122372123Y-94323961D01*
X122229266Y-94371580D01*
X122134028Y-94371580D01*
X121991171Y-94323961D01*
X121895933Y-94228723D01*
X121848314Y-94133485D01*
X121800695Y-93943009D01*
X121800695Y-93800152D01*
X121848314Y-93609676D01*
X121895933Y-93514438D01*
X121991171Y-93419200D01*
X122134028Y-93371580D01*
X122229266Y-93371580D01*
X122372123Y-93419200D01*
X122419742Y-93466819D01*
X122753076Y-93371580D02*
X123372123Y-93371580D01*
X123038790Y-93752533D01*
X123181647Y-93752533D01*
X123276885Y-93800152D01*
X123324504Y-93847771D01*
X123372123Y-93943009D01*
X123372123Y-94181104D01*
X123324504Y-94276342D01*
X123276885Y-94323961D01*
X123181647Y-94371580D01*
X122895933Y-94371580D01*
X122800695Y-94323961D01*
X122753076Y-94276342D01*
X124229266Y-93704914D02*
X124229266Y-94371580D01*
X123991171Y-93323961D02*
X123753076Y-94038247D01*
X124372123Y-94038247D01*
%TO.C,L6*%
X133868733Y-104582380D02*
X133392542Y-104582380D01*
X133392542Y-103582380D01*
X134630638Y-103582380D02*
X134440161Y-103582380D01*
X134344923Y-103630000D01*
X134297304Y-103677619D01*
X134202066Y-103820476D01*
X134154447Y-104010952D01*
X134154447Y-104391904D01*
X134202066Y-104487142D01*
X134249685Y-104534761D01*
X134344923Y-104582380D01*
X134535400Y-104582380D01*
X134630638Y-104534761D01*
X134678257Y-104487142D01*
X134725876Y-104391904D01*
X134725876Y-104153809D01*
X134678257Y-104058571D01*
X134630638Y-104010952D01*
X134535400Y-103963333D01*
X134344923Y-103963333D01*
X134249685Y-104010952D01*
X134202066Y-104058571D01*
X134154447Y-104153809D01*
%TO.C,J13*%
X129012380Y-84259523D02*
X129726666Y-84259523D01*
X129869523Y-84307142D01*
X129964761Y-84402380D01*
X130012380Y-84545238D01*
X130012380Y-84640476D01*
X130012380Y-83259523D02*
X130012380Y-83830952D01*
X130012380Y-83545238D02*
X129012380Y-83545238D01*
X129155238Y-83640476D01*
X129250476Y-83735714D01*
X129298095Y-83830952D01*
X129012380Y-82926190D02*
X129012380Y-82307142D01*
X129393333Y-82640476D01*
X129393333Y-82497619D01*
X129440952Y-82402380D01*
X129488571Y-82354761D01*
X129583809Y-82307142D01*
X129821904Y-82307142D01*
X129917142Y-82354761D01*
X129964761Y-82402380D01*
X130012380Y-82497619D01*
X130012380Y-82783333D01*
X129964761Y-82878571D01*
X129917142Y-82926190D01*
%TO.C,C35*%
X127526142Y-96213057D02*
X127573761Y-96260676D01*
X127621380Y-96403533D01*
X127621380Y-96498771D01*
X127573761Y-96641628D01*
X127478523Y-96736866D01*
X127383285Y-96784485D01*
X127192809Y-96832104D01*
X127049952Y-96832104D01*
X126859476Y-96784485D01*
X126764238Y-96736866D01*
X126669000Y-96641628D01*
X126621380Y-96498771D01*
X126621380Y-96403533D01*
X126669000Y-96260676D01*
X126716619Y-96213057D01*
X126621380Y-95879723D02*
X126621380Y-95260676D01*
X127002333Y-95594009D01*
X127002333Y-95451152D01*
X127049952Y-95355914D01*
X127097571Y-95308295D01*
X127192809Y-95260676D01*
X127430904Y-95260676D01*
X127526142Y-95308295D01*
X127573761Y-95355914D01*
X127621380Y-95451152D01*
X127621380Y-95736866D01*
X127573761Y-95832104D01*
X127526142Y-95879723D01*
X126621380Y-94355914D02*
X126621380Y-94832104D01*
X127097571Y-94879723D01*
X127049952Y-94832104D01*
X127002333Y-94736866D01*
X127002333Y-94498771D01*
X127049952Y-94403533D01*
X127097571Y-94355914D01*
X127192809Y-94308295D01*
X127430904Y-94308295D01*
X127526142Y-94355914D01*
X127573761Y-94403533D01*
X127621380Y-94498771D01*
X127621380Y-94736866D01*
X127573761Y-94832104D01*
X127526142Y-94879723D01*
%TO.C,C37*%
X130014342Y-104309342D02*
X129966723Y-104356961D01*
X129823866Y-104404580D01*
X129728628Y-104404580D01*
X129585771Y-104356961D01*
X129490533Y-104261723D01*
X129442914Y-104166485D01*
X129395295Y-103976009D01*
X129395295Y-103833152D01*
X129442914Y-103642676D01*
X129490533Y-103547438D01*
X129585771Y-103452200D01*
X129728628Y-103404580D01*
X129823866Y-103404580D01*
X129966723Y-103452200D01*
X130014342Y-103499819D01*
X130347676Y-103404580D02*
X130966723Y-103404580D01*
X130633390Y-103785533D01*
X130776247Y-103785533D01*
X130871485Y-103833152D01*
X130919104Y-103880771D01*
X130966723Y-103976009D01*
X130966723Y-104214104D01*
X130919104Y-104309342D01*
X130871485Y-104356961D01*
X130776247Y-104404580D01*
X130490533Y-104404580D01*
X130395295Y-104356961D01*
X130347676Y-104309342D01*
X131300057Y-103404580D02*
X131966723Y-103404580D01*
X131538152Y-104404580D01*
%TO.C,C38*%
X127271142Y-98746742D02*
X127223523Y-98794361D01*
X127080666Y-98841980D01*
X126985428Y-98841980D01*
X126842571Y-98794361D01*
X126747333Y-98699123D01*
X126699714Y-98603885D01*
X126652095Y-98413409D01*
X126652095Y-98270552D01*
X126699714Y-98080076D01*
X126747333Y-97984838D01*
X126842571Y-97889600D01*
X126985428Y-97841980D01*
X127080666Y-97841980D01*
X127223523Y-97889600D01*
X127271142Y-97937219D01*
X127604476Y-97841980D02*
X128223523Y-97841980D01*
X127890190Y-98222933D01*
X128033047Y-98222933D01*
X128128285Y-98270552D01*
X128175904Y-98318171D01*
X128223523Y-98413409D01*
X128223523Y-98651504D01*
X128175904Y-98746742D01*
X128128285Y-98794361D01*
X128033047Y-98841980D01*
X127747333Y-98841980D01*
X127652095Y-98794361D01*
X127604476Y-98746742D01*
X128794952Y-98270552D02*
X128699714Y-98222933D01*
X128652095Y-98175314D01*
X128604476Y-98080076D01*
X128604476Y-98032457D01*
X128652095Y-97937219D01*
X128699714Y-97889600D01*
X128794952Y-97841980D01*
X128985428Y-97841980D01*
X129080666Y-97889600D01*
X129128285Y-97937219D01*
X129175904Y-98032457D01*
X129175904Y-98080076D01*
X129128285Y-98175314D01*
X129080666Y-98222933D01*
X128985428Y-98270552D01*
X128794952Y-98270552D01*
X128699714Y-98318171D01*
X128652095Y-98365790D01*
X128604476Y-98461028D01*
X128604476Y-98651504D01*
X128652095Y-98746742D01*
X128699714Y-98794361D01*
X128794952Y-98841980D01*
X128985428Y-98841980D01*
X129080666Y-98794361D01*
X129128285Y-98746742D01*
X129175904Y-98651504D01*
X129175904Y-98461028D01*
X129128285Y-98365790D01*
X129080666Y-98318171D01*
X128985428Y-98270552D01*
D14*
%TO.C,FL3*%
X133309685Y-100977980D02*
X133309685Y-101401314D01*
X133974923Y-101401314D02*
X132704923Y-101401314D01*
X132704923Y-100796552D01*
X133974923Y-99707980D02*
X133974923Y-100312742D01*
X132704923Y-100312742D01*
X132704923Y-99405600D02*
X132704923Y-98619409D01*
X133188733Y-99042742D01*
X133188733Y-98861314D01*
X133249209Y-98740361D01*
X133309685Y-98679885D01*
X133430638Y-98619409D01*
X133733019Y-98619409D01*
X133853971Y-98679885D01*
X133914447Y-98740361D01*
X133974923Y-98861314D01*
X133974923Y-99224171D01*
X133914447Y-99345123D01*
X133853971Y-99405600D01*
%TO.C,IC10*%
X134965523Y-92639523D02*
X133695523Y-92639523D01*
X134844571Y-91309047D02*
X134905047Y-91369523D01*
X134965523Y-91550952D01*
X134965523Y-91671904D01*
X134905047Y-91853333D01*
X134784095Y-91974285D01*
X134663142Y-92034761D01*
X134421238Y-92095238D01*
X134239809Y-92095238D01*
X133997904Y-92034761D01*
X133876952Y-91974285D01*
X133756000Y-91853333D01*
X133695523Y-91671904D01*
X133695523Y-91550952D01*
X133756000Y-91369523D01*
X133816476Y-91309047D01*
X134965523Y-90099523D02*
X134965523Y-90825238D01*
X134965523Y-90462380D02*
X133695523Y-90462380D01*
X133876952Y-90583333D01*
X133997904Y-90704285D01*
X134058380Y-90825238D01*
X133695523Y-89313333D02*
X133695523Y-89192380D01*
X133756000Y-89071428D01*
X133816476Y-89010952D01*
X133937428Y-88950476D01*
X134179333Y-88890000D01*
X134481714Y-88890000D01*
X134723619Y-88950476D01*
X134844571Y-89010952D01*
X134905047Y-89071428D01*
X134965523Y-89192380D01*
X134965523Y-89313333D01*
X134905047Y-89434285D01*
X134844571Y-89494761D01*
X134723619Y-89555238D01*
X134481714Y-89615714D01*
X134179333Y-89615714D01*
X133937428Y-89555238D01*
X133816476Y-89494761D01*
X133756000Y-89434285D01*
X133695523Y-89313333D01*
D13*
%TO.C,U4*%
X112953495Y-87153518D02*
X112953495Y-87963042D01*
X113001114Y-88058280D01*
X113048733Y-88105899D01*
X113143971Y-88153518D01*
X113334447Y-88153518D01*
X113429685Y-88105899D01*
X113477304Y-88058280D01*
X113524923Y-87963042D01*
X113524923Y-87153518D01*
X114429685Y-87486852D02*
X114429685Y-88153518D01*
X114191590Y-87105899D02*
X113953495Y-87820185D01*
X114572542Y-87820185D01*
%TO.C,C31*%
X165716142Y-65295857D02*
X165763761Y-65343476D01*
X165811380Y-65486333D01*
X165811380Y-65581571D01*
X165763761Y-65724428D01*
X165668523Y-65819666D01*
X165573285Y-65867285D01*
X165382809Y-65914904D01*
X165239952Y-65914904D01*
X165049476Y-65867285D01*
X164954238Y-65819666D01*
X164859000Y-65724428D01*
X164811380Y-65581571D01*
X164811380Y-65486333D01*
X164859000Y-65343476D01*
X164906619Y-65295857D01*
X164811380Y-64962523D02*
X164811380Y-64343476D01*
X165192333Y-64676809D01*
X165192333Y-64533952D01*
X165239952Y-64438714D01*
X165287571Y-64391095D01*
X165382809Y-64343476D01*
X165620904Y-64343476D01*
X165716142Y-64391095D01*
X165763761Y-64438714D01*
X165811380Y-64533952D01*
X165811380Y-64819666D01*
X165763761Y-64914904D01*
X165716142Y-64962523D01*
X165811380Y-63391095D02*
X165811380Y-63962523D01*
X165811380Y-63676809D02*
X164811380Y-63676809D01*
X164954238Y-63772047D01*
X165049476Y-63867285D01*
X165097095Y-63962523D01*
%TO.C,J10*%
X172179980Y-65767323D02*
X172894266Y-65767323D01*
X173037123Y-65814942D01*
X173132361Y-65910180D01*
X173179980Y-66053038D01*
X173179980Y-66148276D01*
X173179980Y-64767323D02*
X173179980Y-65338752D01*
X173179980Y-65053038D02*
X172179980Y-65053038D01*
X172322838Y-65148276D01*
X172418076Y-65243514D01*
X172465695Y-65338752D01*
X172179980Y-64148276D02*
X172179980Y-64053038D01*
X172227600Y-63957800D01*
X172275219Y-63910180D01*
X172370457Y-63862561D01*
X172560933Y-63814942D01*
X172799028Y-63814942D01*
X172989504Y-63862561D01*
X173084742Y-63910180D01*
X173132361Y-63957800D01*
X173179980Y-64053038D01*
X173179980Y-64148276D01*
X173132361Y-64243514D01*
X173084742Y-64291133D01*
X172989504Y-64338752D01*
X172799028Y-64386371D01*
X172560933Y-64386371D01*
X172370457Y-64338752D01*
X172275219Y-64291133D01*
X172227600Y-64243514D01*
X172179980Y-64148276D01*
D14*
%TO.C,IC9*%
X155305438Y-69393123D02*
X155305438Y-68123123D01*
X156635914Y-69272171D02*
X156575438Y-69332647D01*
X156394009Y-69393123D01*
X156273057Y-69393123D01*
X156091628Y-69332647D01*
X155970676Y-69211695D01*
X155910200Y-69090742D01*
X155849723Y-68848838D01*
X155849723Y-68667409D01*
X155910200Y-68425504D01*
X155970676Y-68304552D01*
X156091628Y-68183600D01*
X156273057Y-68123123D01*
X156394009Y-68123123D01*
X156575438Y-68183600D01*
X156635914Y-68244076D01*
X157240676Y-69393123D02*
X157482580Y-69393123D01*
X157603533Y-69332647D01*
X157664009Y-69272171D01*
X157784961Y-69090742D01*
X157845438Y-68848838D01*
X157845438Y-68365028D01*
X157784961Y-68244076D01*
X157724485Y-68183600D01*
X157603533Y-68123123D01*
X157361628Y-68123123D01*
X157240676Y-68183600D01*
X157180200Y-68244076D01*
X157119723Y-68365028D01*
X157119723Y-68667409D01*
X157180200Y-68788361D01*
X157240676Y-68848838D01*
X157361628Y-68909314D01*
X157603533Y-68909314D01*
X157724485Y-68848838D01*
X157784961Y-68788361D01*
X157845438Y-68667409D01*
D13*
%TO.C,L3*%
X158064380Y-65378466D02*
X158064380Y-65854657D01*
X157064380Y-65854657D01*
X157064380Y-65140371D02*
X157064380Y-64521323D01*
X157445333Y-64854657D01*
X157445333Y-64711800D01*
X157492952Y-64616561D01*
X157540571Y-64568942D01*
X157635809Y-64521323D01*
X157873904Y-64521323D01*
X157969142Y-64568942D01*
X158016761Y-64616561D01*
X158064380Y-64711800D01*
X158064380Y-64997514D01*
X158016761Y-65092752D01*
X157969142Y-65140371D01*
%TO.C,C26*%
X155419742Y-61276342D02*
X155372123Y-61323961D01*
X155229266Y-61371580D01*
X155134028Y-61371580D01*
X154991171Y-61323961D01*
X154895933Y-61228723D01*
X154848314Y-61133485D01*
X154800695Y-60943009D01*
X154800695Y-60800152D01*
X154848314Y-60609676D01*
X154895933Y-60514438D01*
X154991171Y-60419200D01*
X155134028Y-60371580D01*
X155229266Y-60371580D01*
X155372123Y-60419200D01*
X155419742Y-60466819D01*
X155800695Y-60466819D02*
X155848314Y-60419200D01*
X155943552Y-60371580D01*
X156181647Y-60371580D01*
X156276885Y-60419200D01*
X156324504Y-60466819D01*
X156372123Y-60562057D01*
X156372123Y-60657295D01*
X156324504Y-60800152D01*
X155753076Y-61371580D01*
X156372123Y-61371580D01*
X157229266Y-60371580D02*
X157038790Y-60371580D01*
X156943552Y-60419200D01*
X156895933Y-60466819D01*
X156800695Y-60609676D01*
X156753076Y-60800152D01*
X156753076Y-61181104D01*
X156800695Y-61276342D01*
X156848314Y-61323961D01*
X156943552Y-61371580D01*
X157134028Y-61371580D01*
X157229266Y-61323961D01*
X157276885Y-61276342D01*
X157324504Y-61181104D01*
X157324504Y-60943009D01*
X157276885Y-60847771D01*
X157229266Y-60800152D01*
X157134028Y-60752533D01*
X156943552Y-60752533D01*
X156848314Y-60800152D01*
X156800695Y-60847771D01*
X156753076Y-60943009D01*
%TO.C,L4*%
X166868733Y-71582380D02*
X166392542Y-71582380D01*
X166392542Y-70582380D01*
X167630638Y-70915714D02*
X167630638Y-71582380D01*
X167392542Y-70534761D02*
X167154447Y-71249047D01*
X167773495Y-71249047D01*
%TO.C,J11*%
X162012380Y-51259523D02*
X162726666Y-51259523D01*
X162869523Y-51307142D01*
X162964761Y-51402380D01*
X163012380Y-51545238D01*
X163012380Y-51640476D01*
X163012380Y-50259523D02*
X163012380Y-50830952D01*
X163012380Y-50545238D02*
X162012380Y-50545238D01*
X162155238Y-50640476D01*
X162250476Y-50735714D01*
X162298095Y-50830952D01*
X163012380Y-49307142D02*
X163012380Y-49878571D01*
X163012380Y-49592857D02*
X162012380Y-49592857D01*
X162155238Y-49688095D01*
X162250476Y-49783333D01*
X162298095Y-49878571D01*
%TO.C,C30*%
X160526142Y-63213057D02*
X160573761Y-63260676D01*
X160621380Y-63403533D01*
X160621380Y-63498771D01*
X160573761Y-63641628D01*
X160478523Y-63736866D01*
X160383285Y-63784485D01*
X160192809Y-63832104D01*
X160049952Y-63832104D01*
X159859476Y-63784485D01*
X159764238Y-63736866D01*
X159669000Y-63641628D01*
X159621380Y-63498771D01*
X159621380Y-63403533D01*
X159669000Y-63260676D01*
X159716619Y-63213057D01*
X159621380Y-62879723D02*
X159621380Y-62260676D01*
X160002333Y-62594009D01*
X160002333Y-62451152D01*
X160049952Y-62355914D01*
X160097571Y-62308295D01*
X160192809Y-62260676D01*
X160430904Y-62260676D01*
X160526142Y-62308295D01*
X160573761Y-62355914D01*
X160621380Y-62451152D01*
X160621380Y-62736866D01*
X160573761Y-62832104D01*
X160526142Y-62879723D01*
X159621380Y-61641628D02*
X159621380Y-61546390D01*
X159669000Y-61451152D01*
X159716619Y-61403533D01*
X159811857Y-61355914D01*
X160002333Y-61308295D01*
X160240428Y-61308295D01*
X160430904Y-61355914D01*
X160526142Y-61403533D01*
X160573761Y-61451152D01*
X160621380Y-61546390D01*
X160621380Y-61641628D01*
X160573761Y-61736866D01*
X160526142Y-61784485D01*
X160430904Y-61832104D01*
X160240428Y-61879723D01*
X160002333Y-61879723D01*
X159811857Y-61832104D01*
X159716619Y-61784485D01*
X159669000Y-61736866D01*
X159621380Y-61641628D01*
%TO.C,C32*%
X163014342Y-71309342D02*
X162966723Y-71356961D01*
X162823866Y-71404580D01*
X162728628Y-71404580D01*
X162585771Y-71356961D01*
X162490533Y-71261723D01*
X162442914Y-71166485D01*
X162395295Y-70976009D01*
X162395295Y-70833152D01*
X162442914Y-70642676D01*
X162490533Y-70547438D01*
X162585771Y-70452200D01*
X162728628Y-70404580D01*
X162823866Y-70404580D01*
X162966723Y-70452200D01*
X163014342Y-70499819D01*
X163347676Y-70404580D02*
X163966723Y-70404580D01*
X163633390Y-70785533D01*
X163776247Y-70785533D01*
X163871485Y-70833152D01*
X163919104Y-70880771D01*
X163966723Y-70976009D01*
X163966723Y-71214104D01*
X163919104Y-71309342D01*
X163871485Y-71356961D01*
X163776247Y-71404580D01*
X163490533Y-71404580D01*
X163395295Y-71356961D01*
X163347676Y-71309342D01*
X164347676Y-70499819D02*
X164395295Y-70452200D01*
X164490533Y-70404580D01*
X164728628Y-70404580D01*
X164823866Y-70452200D01*
X164871485Y-70499819D01*
X164919104Y-70595057D01*
X164919104Y-70690295D01*
X164871485Y-70833152D01*
X164300057Y-71404580D01*
X164919104Y-71404580D01*
%TO.C,C33*%
X160271142Y-65746742D02*
X160223523Y-65794361D01*
X160080666Y-65841980D01*
X159985428Y-65841980D01*
X159842571Y-65794361D01*
X159747333Y-65699123D01*
X159699714Y-65603885D01*
X159652095Y-65413409D01*
X159652095Y-65270552D01*
X159699714Y-65080076D01*
X159747333Y-64984838D01*
X159842571Y-64889600D01*
X159985428Y-64841980D01*
X160080666Y-64841980D01*
X160223523Y-64889600D01*
X160271142Y-64937219D01*
X160604476Y-64841980D02*
X161223523Y-64841980D01*
X160890190Y-65222933D01*
X161033047Y-65222933D01*
X161128285Y-65270552D01*
X161175904Y-65318171D01*
X161223523Y-65413409D01*
X161223523Y-65651504D01*
X161175904Y-65746742D01*
X161128285Y-65794361D01*
X161033047Y-65841980D01*
X160747333Y-65841980D01*
X160652095Y-65794361D01*
X160604476Y-65746742D01*
X161556857Y-64841980D02*
X162175904Y-64841980D01*
X161842571Y-65222933D01*
X161985428Y-65222933D01*
X162080666Y-65270552D01*
X162128285Y-65318171D01*
X162175904Y-65413409D01*
X162175904Y-65651504D01*
X162128285Y-65746742D01*
X162080666Y-65794361D01*
X161985428Y-65841980D01*
X161699714Y-65841980D01*
X161604476Y-65794361D01*
X161556857Y-65746742D01*
D14*
%TO.C,FL2*%
X166309685Y-67977980D02*
X166309685Y-68401314D01*
X166974923Y-68401314D02*
X165704923Y-68401314D01*
X165704923Y-67796552D01*
X166974923Y-66707980D02*
X166974923Y-67312742D01*
X165704923Y-67312742D01*
X165825876Y-66345123D02*
X165765400Y-66284647D01*
X165704923Y-66163695D01*
X165704923Y-65861314D01*
X165765400Y-65740361D01*
X165825876Y-65679885D01*
X165946828Y-65619409D01*
X166067780Y-65619409D01*
X166249209Y-65679885D01*
X166974923Y-66405600D01*
X166974923Y-65619409D01*
%TO.C,IC7*%
X167965523Y-59034761D02*
X166695523Y-59034761D01*
X167844571Y-57704285D02*
X167905047Y-57764761D01*
X167965523Y-57946190D01*
X167965523Y-58067142D01*
X167905047Y-58248571D01*
X167784095Y-58369523D01*
X167663142Y-58430000D01*
X167421238Y-58490476D01*
X167239809Y-58490476D01*
X166997904Y-58430000D01*
X166876952Y-58369523D01*
X166756000Y-58248571D01*
X166695523Y-58067142D01*
X166695523Y-57946190D01*
X166756000Y-57764761D01*
X166816476Y-57704285D01*
X166695523Y-57280952D02*
X166695523Y-56434285D01*
X167965523Y-56978571D01*
D13*
%TO.C,U3*%
X145953495Y-54153518D02*
X145953495Y-54963042D01*
X146001114Y-55058280D01*
X146048733Y-55105899D01*
X146143971Y-55153518D01*
X146334447Y-55153518D01*
X146429685Y-55105899D01*
X146477304Y-55058280D01*
X146524923Y-54963042D01*
X146524923Y-54153518D01*
X146905876Y-54153518D02*
X147524923Y-54153518D01*
X147191590Y-54534471D01*
X147334447Y-54534471D01*
X147429685Y-54582090D01*
X147477304Y-54629709D01*
X147524923Y-54724947D01*
X147524923Y-54963042D01*
X147477304Y-55058280D01*
X147429685Y-55105899D01*
X147334447Y-55153518D01*
X147048733Y-55153518D01*
X146953495Y-55105899D01*
X146905876Y-55058280D01*
%TO.C,C24*%
X122419742Y-61276342D02*
X122372123Y-61323961D01*
X122229266Y-61371580D01*
X122134028Y-61371580D01*
X121991171Y-61323961D01*
X121895933Y-61228723D01*
X121848314Y-61133485D01*
X121800695Y-60943009D01*
X121800695Y-60800152D01*
X121848314Y-60609676D01*
X121895933Y-60514438D01*
X121991171Y-60419200D01*
X122134028Y-60371580D01*
X122229266Y-60371580D01*
X122372123Y-60419200D01*
X122419742Y-60466819D01*
X122800695Y-60466819D02*
X122848314Y-60419200D01*
X122943552Y-60371580D01*
X123181647Y-60371580D01*
X123276885Y-60419200D01*
X123324504Y-60466819D01*
X123372123Y-60562057D01*
X123372123Y-60657295D01*
X123324504Y-60800152D01*
X122753076Y-61371580D01*
X123372123Y-61371580D01*
X124229266Y-60704914D02*
X124229266Y-61371580D01*
X123991171Y-60323961D02*
X123753076Y-61038247D01*
X124372123Y-61038247D01*
%TO.C,L1*%
X125064380Y-65378466D02*
X125064380Y-65854657D01*
X124064380Y-65854657D01*
X125064380Y-64521323D02*
X125064380Y-65092752D01*
X125064380Y-64807038D02*
X124064380Y-64807038D01*
X124207238Y-64902276D01*
X124302476Y-64997514D01*
X124350095Y-65092752D01*
%TO.C,C27*%
X132716142Y-65295857D02*
X132763761Y-65343476D01*
X132811380Y-65486333D01*
X132811380Y-65581571D01*
X132763761Y-65724428D01*
X132668523Y-65819666D01*
X132573285Y-65867285D01*
X132382809Y-65914904D01*
X132239952Y-65914904D01*
X132049476Y-65867285D01*
X131954238Y-65819666D01*
X131859000Y-65724428D01*
X131811380Y-65581571D01*
X131811380Y-65486333D01*
X131859000Y-65343476D01*
X131906619Y-65295857D01*
X131906619Y-64914904D02*
X131859000Y-64867285D01*
X131811380Y-64772047D01*
X131811380Y-64533952D01*
X131859000Y-64438714D01*
X131906619Y-64391095D01*
X132001857Y-64343476D01*
X132097095Y-64343476D01*
X132239952Y-64391095D01*
X132811380Y-64962523D01*
X132811380Y-64343476D01*
X131811380Y-64010142D02*
X131811380Y-63343476D01*
X132811380Y-63772047D01*
D14*
%TO.C,IC6*%
X122305438Y-69393123D02*
X122305438Y-68123123D01*
X123635914Y-69272171D02*
X123575438Y-69332647D01*
X123394009Y-69393123D01*
X123273057Y-69393123D01*
X123091628Y-69332647D01*
X122970676Y-69211695D01*
X122910200Y-69090742D01*
X122849723Y-68848838D01*
X122849723Y-68667409D01*
X122910200Y-68425504D01*
X122970676Y-68304552D01*
X123091628Y-68183600D01*
X123273057Y-68123123D01*
X123394009Y-68123123D01*
X123575438Y-68183600D01*
X123635914Y-68244076D01*
X124724485Y-68123123D02*
X124482580Y-68123123D01*
X124361628Y-68183600D01*
X124301152Y-68244076D01*
X124180200Y-68425504D01*
X124119723Y-68667409D01*
X124119723Y-69151219D01*
X124180200Y-69272171D01*
X124240676Y-69332647D01*
X124361628Y-69393123D01*
X124603533Y-69393123D01*
X124724485Y-69332647D01*
X124784961Y-69272171D01*
X124845438Y-69151219D01*
X124845438Y-68848838D01*
X124784961Y-68727885D01*
X124724485Y-68667409D01*
X124603533Y-68606933D01*
X124361628Y-68606933D01*
X124240676Y-68667409D01*
X124180200Y-68727885D01*
X124119723Y-68848838D01*
D13*
%TO.C,J8*%
X139179980Y-65291133D02*
X139894266Y-65291133D01*
X140037123Y-65338752D01*
X140132361Y-65433990D01*
X140179980Y-65576847D01*
X140179980Y-65672085D01*
X139608552Y-64672085D02*
X139560933Y-64767323D01*
X139513314Y-64814942D01*
X139418076Y-64862561D01*
X139370457Y-64862561D01*
X139275219Y-64814942D01*
X139227600Y-64767323D01*
X139179980Y-64672085D01*
X139179980Y-64481609D01*
X139227600Y-64386371D01*
X139275219Y-64338752D01*
X139370457Y-64291133D01*
X139418076Y-64291133D01*
X139513314Y-64338752D01*
X139560933Y-64386371D01*
X139608552Y-64481609D01*
X139608552Y-64672085D01*
X139656171Y-64767323D01*
X139703790Y-64814942D01*
X139799028Y-64862561D01*
X139989504Y-64862561D01*
X140084742Y-64814942D01*
X140132361Y-64767323D01*
X140179980Y-64672085D01*
X140179980Y-64481609D01*
X140132361Y-64386371D01*
X140084742Y-64338752D01*
X139989504Y-64291133D01*
X139799028Y-64291133D01*
X139703790Y-64338752D01*
X139656171Y-64386371D01*
X139608552Y-64481609D01*
%TO.C,C29*%
X127271142Y-65746742D02*
X127223523Y-65794361D01*
X127080666Y-65841980D01*
X126985428Y-65841980D01*
X126842571Y-65794361D01*
X126747333Y-65699123D01*
X126699714Y-65603885D01*
X126652095Y-65413409D01*
X126652095Y-65270552D01*
X126699714Y-65080076D01*
X126747333Y-64984838D01*
X126842571Y-64889600D01*
X126985428Y-64841980D01*
X127080666Y-64841980D01*
X127223523Y-64889600D01*
X127271142Y-64937219D01*
X127652095Y-64937219D02*
X127699714Y-64889600D01*
X127794952Y-64841980D01*
X128033047Y-64841980D01*
X128128285Y-64889600D01*
X128175904Y-64937219D01*
X128223523Y-65032457D01*
X128223523Y-65127695D01*
X128175904Y-65270552D01*
X127604476Y-65841980D01*
X128223523Y-65841980D01*
X128699714Y-65841980D02*
X128890190Y-65841980D01*
X128985428Y-65794361D01*
X129033047Y-65746742D01*
X129128285Y-65603885D01*
X129175904Y-65413409D01*
X129175904Y-65032457D01*
X129128285Y-64937219D01*
X129080666Y-64889600D01*
X128985428Y-64841980D01*
X128794952Y-64841980D01*
X128699714Y-64889600D01*
X128652095Y-64937219D01*
X128604476Y-65032457D01*
X128604476Y-65270552D01*
X128652095Y-65365790D01*
X128699714Y-65413409D01*
X128794952Y-65461028D01*
X128985428Y-65461028D01*
X129080666Y-65413409D01*
X129128285Y-65365790D01*
X129175904Y-65270552D01*
%TO.C,L2*%
X133868733Y-71582380D02*
X133392542Y-71582380D01*
X133392542Y-70582380D01*
X134154447Y-70677619D02*
X134202066Y-70630000D01*
X134297304Y-70582380D01*
X134535400Y-70582380D01*
X134630638Y-70630000D01*
X134678257Y-70677619D01*
X134725876Y-70772857D01*
X134725876Y-70868095D01*
X134678257Y-71010952D01*
X134106828Y-71582380D01*
X134725876Y-71582380D01*
%TO.C,J9*%
X129012380Y-50783333D02*
X129726666Y-50783333D01*
X129869523Y-50830952D01*
X129964761Y-50926190D01*
X130012380Y-51069047D01*
X130012380Y-51164285D01*
X130012380Y-50259523D02*
X130012380Y-50069047D01*
X129964761Y-49973809D01*
X129917142Y-49926190D01*
X129774285Y-49830952D01*
X129583809Y-49783333D01*
X129202857Y-49783333D01*
X129107619Y-49830952D01*
X129060000Y-49878571D01*
X129012380Y-49973809D01*
X129012380Y-50164285D01*
X129060000Y-50259523D01*
X129107619Y-50307142D01*
X129202857Y-50354761D01*
X129440952Y-50354761D01*
X129536190Y-50307142D01*
X129583809Y-50259523D01*
X129631428Y-50164285D01*
X129631428Y-49973809D01*
X129583809Y-49878571D01*
X129536190Y-49830952D01*
X129440952Y-49783333D01*
%TO.C,C28*%
X130014342Y-71309342D02*
X129966723Y-71356961D01*
X129823866Y-71404580D01*
X129728628Y-71404580D01*
X129585771Y-71356961D01*
X129490533Y-71261723D01*
X129442914Y-71166485D01*
X129395295Y-70976009D01*
X129395295Y-70833152D01*
X129442914Y-70642676D01*
X129490533Y-70547438D01*
X129585771Y-70452200D01*
X129728628Y-70404580D01*
X129823866Y-70404580D01*
X129966723Y-70452200D01*
X130014342Y-70499819D01*
X130395295Y-70499819D02*
X130442914Y-70452200D01*
X130538152Y-70404580D01*
X130776247Y-70404580D01*
X130871485Y-70452200D01*
X130919104Y-70499819D01*
X130966723Y-70595057D01*
X130966723Y-70690295D01*
X130919104Y-70833152D01*
X130347676Y-71404580D01*
X130966723Y-71404580D01*
X131538152Y-70833152D02*
X131442914Y-70785533D01*
X131395295Y-70737914D01*
X131347676Y-70642676D01*
X131347676Y-70595057D01*
X131395295Y-70499819D01*
X131442914Y-70452200D01*
X131538152Y-70404580D01*
X131728628Y-70404580D01*
X131823866Y-70452200D01*
X131871485Y-70499819D01*
X131919104Y-70595057D01*
X131919104Y-70642676D01*
X131871485Y-70737914D01*
X131823866Y-70785533D01*
X131728628Y-70833152D01*
X131538152Y-70833152D01*
X131442914Y-70880771D01*
X131395295Y-70928390D01*
X131347676Y-71023628D01*
X131347676Y-71214104D01*
X131395295Y-71309342D01*
X131442914Y-71356961D01*
X131538152Y-71404580D01*
X131728628Y-71404580D01*
X131823866Y-71356961D01*
X131871485Y-71309342D01*
X131919104Y-71214104D01*
X131919104Y-71023628D01*
X131871485Y-70928390D01*
X131823866Y-70880771D01*
X131728628Y-70833152D01*
%TO.C,C25*%
X127526142Y-63213057D02*
X127573761Y-63260676D01*
X127621380Y-63403533D01*
X127621380Y-63498771D01*
X127573761Y-63641628D01*
X127478523Y-63736866D01*
X127383285Y-63784485D01*
X127192809Y-63832104D01*
X127049952Y-63832104D01*
X126859476Y-63784485D01*
X126764238Y-63736866D01*
X126669000Y-63641628D01*
X126621380Y-63498771D01*
X126621380Y-63403533D01*
X126669000Y-63260676D01*
X126716619Y-63213057D01*
X126716619Y-62832104D02*
X126669000Y-62784485D01*
X126621380Y-62689247D01*
X126621380Y-62451152D01*
X126669000Y-62355914D01*
X126716619Y-62308295D01*
X126811857Y-62260676D01*
X126907095Y-62260676D01*
X127049952Y-62308295D01*
X127621380Y-62879723D01*
X127621380Y-62260676D01*
X126621380Y-61355914D02*
X126621380Y-61832104D01*
X127097571Y-61879723D01*
X127049952Y-61832104D01*
X127002333Y-61736866D01*
X127002333Y-61498771D01*
X127049952Y-61403533D01*
X127097571Y-61355914D01*
X127192809Y-61308295D01*
X127430904Y-61308295D01*
X127526142Y-61355914D01*
X127573761Y-61403533D01*
X127621380Y-61498771D01*
X127621380Y-61736866D01*
X127573761Y-61832104D01*
X127526142Y-61879723D01*
D14*
%TO.C,FL1*%
X133309685Y-67977980D02*
X133309685Y-68401314D01*
X133974923Y-68401314D02*
X132704923Y-68401314D01*
X132704923Y-67796552D01*
X133974923Y-66707980D02*
X133974923Y-67312742D01*
X132704923Y-67312742D01*
X133974923Y-65619409D02*
X133974923Y-66345123D01*
X133974923Y-65982266D02*
X132704923Y-65982266D01*
X132886352Y-66103219D01*
X133007304Y-66224171D01*
X133067780Y-66345123D01*
D13*
%TO.C,U2*%
X112953495Y-54153518D02*
X112953495Y-54963042D01*
X113001114Y-55058280D01*
X113048733Y-55105899D01*
X113143971Y-55153518D01*
X113334447Y-55153518D01*
X113429685Y-55105899D01*
X113477304Y-55058280D01*
X113524923Y-54963042D01*
X113524923Y-54153518D01*
X113953495Y-54248757D02*
X114001114Y-54201138D01*
X114096352Y-54153518D01*
X114334447Y-54153518D01*
X114429685Y-54201138D01*
X114477304Y-54248757D01*
X114524923Y-54343995D01*
X114524923Y-54439233D01*
X114477304Y-54582090D01*
X113905876Y-55153518D01*
X114524923Y-55153518D01*
D14*
%TO.C,IC4*%
X134965523Y-59034761D02*
X133695523Y-59034761D01*
X134844571Y-57704285D02*
X134905047Y-57764761D01*
X134965523Y-57946190D01*
X134965523Y-58067142D01*
X134905047Y-58248571D01*
X134784095Y-58369523D01*
X134663142Y-58430000D01*
X134421238Y-58490476D01*
X134239809Y-58490476D01*
X133997904Y-58430000D01*
X133876952Y-58369523D01*
X133756000Y-58248571D01*
X133695523Y-58067142D01*
X133695523Y-57946190D01*
X133756000Y-57764761D01*
X133816476Y-57704285D01*
X134118857Y-56615714D02*
X134965523Y-56615714D01*
X133635047Y-56918095D02*
X134542190Y-57220476D01*
X134542190Y-56434285D01*
D15*
%TO.C,C41*%
X164449000Y-97484036D02*
X164449000Y-97268364D01*
X163729000Y-97484036D02*
X163729000Y-97268364D01*
%TO.C,J14*%
X170667600Y-96897800D02*
X171727600Y-96897800D01*
X169667600Y-96897800D02*
X169667600Y-99017800D01*
X167607600Y-96897800D02*
X167607600Y-99017800D01*
X171727600Y-96897800D02*
X171727600Y-97957800D01*
X169667600Y-99017800D02*
X167607600Y-99017800D01*
X169667600Y-96897800D02*
X167607600Y-96897800D01*
D10*
%TO.C,IC15*%
X159978600Y-100292400D02*
X160528600Y-100292400D01*
X159978600Y-103192400D02*
X159978600Y-100292400D01*
X160528600Y-103192400D02*
X159978600Y-103192400D01*
X158378600Y-100142400D02*
X159628600Y-100142400D01*
X160528600Y-100292400D02*
X160528600Y-103192400D01*
D15*
%TO.C,L7*%
X158499000Y-98065933D02*
X158499000Y-98408467D01*
X159519000Y-98065933D02*
X159519000Y-98408467D01*
%TO.C,C39*%
X158631636Y-93686200D02*
X158415964Y-93686200D01*
X158631636Y-94406200D02*
X158415964Y-94406200D01*
%TO.C,L8*%
X166559333Y-102197600D02*
X166901867Y-102197600D01*
X166559333Y-103217600D02*
X166901867Y-103217600D01*
%TO.C,J15*%
X163560000Y-84510000D02*
X163560000Y-83450000D01*
X164620000Y-84510000D02*
X163560000Y-84510000D01*
X165620000Y-82390000D02*
X173680000Y-82390000D01*
X165620000Y-84510000D02*
X165620000Y-82390000D01*
X165620000Y-84510000D02*
X173680000Y-84510000D01*
X173680000Y-84510000D02*
X173680000Y-82390000D01*
%TO.C,C40*%
X158649000Y-95462364D02*
X158649000Y-95678036D01*
X159369000Y-95462364D02*
X159369000Y-95678036D01*
%TO.C,C42*%
X163828764Y-103067600D02*
X164044436Y-103067600D01*
X163828764Y-102347600D02*
X164044436Y-102347600D01*
%TO.C,C43*%
X161872964Y-98969400D02*
X162088636Y-98969400D01*
X161872964Y-99689400D02*
X162088636Y-99689400D01*
D10*
%TO.C,FL4*%
X164487800Y-101137400D02*
G75*
G03*
X164287800Y-101137400I-100000J0D01*
G01*
X164287800Y-101137400D02*
G75*
G03*
X164487800Y-101137400I100000J0D01*
G01*
D16*
X164787800Y-100512400D02*
X164912800Y-100512400D01*
D10*
X164487800Y-101137400D02*
X164487800Y-101137400D01*
X164287800Y-101137400D02*
X164287800Y-101137400D01*
D16*
X163987800Y-100512400D02*
X163862800Y-100512400D01*
X164912800Y-100512400D02*
X164912800Y-100237400D01*
X163862800Y-100512400D02*
X163862800Y-100237400D01*
D17*
%TO.C,IC13*%
X172841000Y-85570000D02*
G75*
G03*
X172841000Y-85570000I-125000J0D01*
G01*
D10*
X162341000Y-94220000D02*
X162341000Y-87370000D01*
X162341000Y-87370000D02*
X172441000Y-87370000D01*
X172441000Y-94220000D02*
X162341000Y-94220000D01*
X172441000Y-87370000D02*
X172441000Y-94220000D01*
D15*
%TO.C,U5*%
X157965400Y-82151138D02*
G75*
G03*
X157965400Y-82151138I-5000000J0D01*
G01*
X148565400Y-76101138D02*
G75*
G03*
X148565400Y-76101138I-1850000J0D01*
G01*
X161266076Y-76101138D02*
G75*
G03*
X161266076Y-76101138I-1850676J0D01*
G01*
X146715400Y-88201138D02*
X159415400Y-88201138D01*
X159415400Y-88201138D02*
X159415400Y-76101138D01*
X159415400Y-76101138D02*
X146715400Y-76101138D01*
X146715400Y-76101138D02*
X146715400Y-88201138D01*
%TO.C,C36*%
X131449000Y-97484036D02*
X131449000Y-97268364D01*
X130729000Y-97484036D02*
X130729000Y-97268364D01*
%TO.C,J12*%
X137667600Y-96897800D02*
X138727600Y-96897800D01*
X136667600Y-96897800D02*
X136667600Y-99017800D01*
X134607600Y-96897800D02*
X134607600Y-99017800D01*
X138727600Y-96897800D02*
X138727600Y-97957800D01*
X136667600Y-99017800D02*
X134607600Y-99017800D01*
X136667600Y-96897800D02*
X134607600Y-96897800D01*
D10*
%TO.C,IC12*%
X126978600Y-100292400D02*
X127528600Y-100292400D01*
X126978600Y-103192400D02*
X126978600Y-100292400D01*
X127528600Y-103192400D02*
X126978600Y-103192400D01*
X125378600Y-100142400D02*
X126628600Y-100142400D01*
X127528600Y-100292400D02*
X127528600Y-103192400D01*
D15*
%TO.C,L5*%
X125499000Y-98065933D02*
X125499000Y-98408467D01*
X126519000Y-98065933D02*
X126519000Y-98408467D01*
%TO.C,C34*%
X125631636Y-93686200D02*
X125415964Y-93686200D01*
X125631636Y-94406200D02*
X125415964Y-94406200D01*
%TO.C,L6*%
X133559333Y-102197600D02*
X133901867Y-102197600D01*
X133559333Y-103217600D02*
X133901867Y-103217600D01*
%TO.C,J13*%
X130560000Y-84510000D02*
X130560000Y-83450000D01*
X131620000Y-84510000D02*
X130560000Y-84510000D01*
X132620000Y-82390000D02*
X140680000Y-82390000D01*
X132620000Y-84510000D02*
X132620000Y-82390000D01*
X132620000Y-84510000D02*
X140680000Y-84510000D01*
X140680000Y-84510000D02*
X140680000Y-82390000D01*
%TO.C,C35*%
X125649000Y-95462364D02*
X125649000Y-95678036D01*
X126369000Y-95462364D02*
X126369000Y-95678036D01*
%TO.C,C37*%
X130828764Y-103067600D02*
X131044436Y-103067600D01*
X130828764Y-102347600D02*
X131044436Y-102347600D01*
%TO.C,C38*%
X128872964Y-98969400D02*
X129088636Y-98969400D01*
X128872964Y-99689400D02*
X129088636Y-99689400D01*
D10*
%TO.C,FL3*%
X131487800Y-101137400D02*
G75*
G03*
X131287800Y-101137400I-100000J0D01*
G01*
X131287800Y-101137400D02*
G75*
G03*
X131487800Y-101137400I100000J0D01*
G01*
D16*
X131787800Y-100512400D02*
X131912800Y-100512400D01*
D10*
X131487800Y-101137400D02*
X131487800Y-101137400D01*
X131287800Y-101137400D02*
X131287800Y-101137400D01*
D16*
X130987800Y-100512400D02*
X130862800Y-100512400D01*
X131912800Y-100512400D02*
X131912800Y-100237400D01*
X130862800Y-100512400D02*
X130862800Y-100237400D01*
D17*
%TO.C,IC10*%
X139841000Y-85570000D02*
G75*
G03*
X139841000Y-85570000I-125000J0D01*
G01*
D10*
X129341000Y-94220000D02*
X129341000Y-87370000D01*
X129341000Y-87370000D02*
X139441000Y-87370000D01*
X139441000Y-94220000D02*
X129341000Y-94220000D01*
X139441000Y-87370000D02*
X139441000Y-94220000D01*
D15*
%TO.C,U4*%
X124965400Y-82151138D02*
G75*
G03*
X124965400Y-82151138I-5000000J0D01*
G01*
X115565400Y-76101138D02*
G75*
G03*
X115565400Y-76101138I-1850000J0D01*
G01*
X128266076Y-76101138D02*
G75*
G03*
X128266076Y-76101138I-1850676J0D01*
G01*
X113715400Y-88201138D02*
X126415400Y-88201138D01*
X126415400Y-88201138D02*
X126415400Y-76101138D01*
X126415400Y-76101138D02*
X113715400Y-76101138D01*
X113715400Y-76101138D02*
X113715400Y-88201138D01*
%TO.C,C31*%
X164449000Y-64484036D02*
X164449000Y-64268364D01*
X163729000Y-64484036D02*
X163729000Y-64268364D01*
%TO.C,J10*%
X170667600Y-63897800D02*
X171727600Y-63897800D01*
X169667600Y-63897800D02*
X169667600Y-66017800D01*
X167607600Y-63897800D02*
X167607600Y-66017800D01*
X171727600Y-63897800D02*
X171727600Y-64957800D01*
X169667600Y-66017800D02*
X167607600Y-66017800D01*
X169667600Y-63897800D02*
X167607600Y-63897800D01*
D10*
%TO.C,IC9*%
X159978600Y-67292400D02*
X160528600Y-67292400D01*
X159978600Y-70192400D02*
X159978600Y-67292400D01*
X160528600Y-70192400D02*
X159978600Y-70192400D01*
X158378600Y-67142400D02*
X159628600Y-67142400D01*
X160528600Y-67292400D02*
X160528600Y-70192400D01*
D15*
%TO.C,L3*%
X158499000Y-65065933D02*
X158499000Y-65408467D01*
X159519000Y-65065933D02*
X159519000Y-65408467D01*
%TO.C,C26*%
X158631636Y-60686200D02*
X158415964Y-60686200D01*
X158631636Y-61406200D02*
X158415964Y-61406200D01*
%TO.C,L4*%
X166559333Y-69197600D02*
X166901867Y-69197600D01*
X166559333Y-70217600D02*
X166901867Y-70217600D01*
%TO.C,J11*%
X163560000Y-51510000D02*
X163560000Y-50450000D01*
X164620000Y-51510000D02*
X163560000Y-51510000D01*
X165620000Y-49390000D02*
X173680000Y-49390000D01*
X165620000Y-51510000D02*
X165620000Y-49390000D01*
X165620000Y-51510000D02*
X173680000Y-51510000D01*
X173680000Y-51510000D02*
X173680000Y-49390000D01*
%TO.C,C30*%
X158649000Y-62462364D02*
X158649000Y-62678036D01*
X159369000Y-62462364D02*
X159369000Y-62678036D01*
%TO.C,C32*%
X163828764Y-70067600D02*
X164044436Y-70067600D01*
X163828764Y-69347600D02*
X164044436Y-69347600D01*
%TO.C,C33*%
X161872964Y-65969400D02*
X162088636Y-65969400D01*
X161872964Y-66689400D02*
X162088636Y-66689400D01*
D10*
%TO.C,FL2*%
X164487800Y-68137400D02*
G75*
G03*
X164287800Y-68137400I-100000J0D01*
G01*
X164287800Y-68137400D02*
G75*
G03*
X164487800Y-68137400I100000J0D01*
G01*
D16*
X164787800Y-67512400D02*
X164912800Y-67512400D01*
D10*
X164487800Y-68137400D02*
X164487800Y-68137400D01*
X164287800Y-68137400D02*
X164287800Y-68137400D01*
D16*
X163987800Y-67512400D02*
X163862800Y-67512400D01*
X164912800Y-67512400D02*
X164912800Y-67237400D01*
X163862800Y-67512400D02*
X163862800Y-67237400D01*
D17*
%TO.C,IC7*%
X172841000Y-52570000D02*
G75*
G03*
X172841000Y-52570000I-125000J0D01*
G01*
D10*
X162341000Y-61220000D02*
X162341000Y-54370000D01*
X162341000Y-54370000D02*
X172441000Y-54370000D01*
X172441000Y-61220000D02*
X162341000Y-61220000D01*
X172441000Y-54370000D02*
X172441000Y-61220000D01*
D15*
%TO.C,U3*%
X157965400Y-49151138D02*
G75*
G03*
X157965400Y-49151138I-5000000J0D01*
G01*
X148565400Y-43101138D02*
G75*
G03*
X148565400Y-43101138I-1850000J0D01*
G01*
X161266076Y-43101138D02*
G75*
G03*
X161266076Y-43101138I-1850676J0D01*
G01*
X146715400Y-55201138D02*
X159415400Y-55201138D01*
X159415400Y-55201138D02*
X159415400Y-43101138D01*
X159415400Y-43101138D02*
X146715400Y-43101138D01*
X146715400Y-43101138D02*
X146715400Y-55201138D01*
%TO.C,C24*%
X125631636Y-60686200D02*
X125415964Y-60686200D01*
X125631636Y-61406200D02*
X125415964Y-61406200D01*
%TO.C,L1*%
X125499000Y-65065933D02*
X125499000Y-65408467D01*
X126519000Y-65065933D02*
X126519000Y-65408467D01*
%TO.C,C27*%
X131449000Y-64484036D02*
X131449000Y-64268364D01*
X130729000Y-64484036D02*
X130729000Y-64268364D01*
D10*
%TO.C,IC6*%
X126978600Y-67292400D02*
X127528600Y-67292400D01*
X126978600Y-70192400D02*
X126978600Y-67292400D01*
X127528600Y-70192400D02*
X126978600Y-70192400D01*
X125378600Y-67142400D02*
X126628600Y-67142400D01*
X127528600Y-67292400D02*
X127528600Y-70192400D01*
D15*
%TO.C,J8*%
X137667600Y-63897800D02*
X138727600Y-63897800D01*
X136667600Y-63897800D02*
X136667600Y-66017800D01*
X134607600Y-63897800D02*
X134607600Y-66017800D01*
X138727600Y-63897800D02*
X138727600Y-64957800D01*
X136667600Y-66017800D02*
X134607600Y-66017800D01*
X136667600Y-63897800D02*
X134607600Y-63897800D01*
%TO.C,C29*%
X128872964Y-65969400D02*
X129088636Y-65969400D01*
X128872964Y-66689400D02*
X129088636Y-66689400D01*
%TO.C,L2*%
X133559333Y-69197600D02*
X133901867Y-69197600D01*
X133559333Y-70217600D02*
X133901867Y-70217600D01*
%TO.C,J9*%
X130560000Y-51510000D02*
X130560000Y-50450000D01*
X131620000Y-51510000D02*
X130560000Y-51510000D01*
X132620000Y-49390000D02*
X140680000Y-49390000D01*
X132620000Y-51510000D02*
X132620000Y-49390000D01*
X132620000Y-51510000D02*
X140680000Y-51510000D01*
X140680000Y-51510000D02*
X140680000Y-49390000D01*
%TO.C,C28*%
X130828764Y-70067600D02*
X131044436Y-70067600D01*
X130828764Y-69347600D02*
X131044436Y-69347600D01*
%TO.C,C25*%
X125649000Y-62462364D02*
X125649000Y-62678036D01*
X126369000Y-62462364D02*
X126369000Y-62678036D01*
D10*
%TO.C,FL1*%
X131487800Y-68137400D02*
G75*
G03*
X131287800Y-68137400I-100000J0D01*
G01*
X131287800Y-68137400D02*
G75*
G03*
X131487800Y-68137400I100000J0D01*
G01*
D16*
X131787800Y-67512400D02*
X131912800Y-67512400D01*
D10*
X131487800Y-68137400D02*
X131487800Y-68137400D01*
X131287800Y-68137400D02*
X131287800Y-68137400D01*
D16*
X130987800Y-67512400D02*
X130862800Y-67512400D01*
X131912800Y-67512400D02*
X131912800Y-67237400D01*
X130862800Y-67512400D02*
X130862800Y-67237400D01*
D15*
%TO.C,U2*%
X124965400Y-49151138D02*
G75*
G03*
X124965400Y-49151138I-5000000J0D01*
G01*
X115565400Y-43101138D02*
G75*
G03*
X115565400Y-43101138I-1850000J0D01*
G01*
X128266076Y-43101138D02*
G75*
G03*
X128266076Y-43101138I-1850676J0D01*
G01*
X113715400Y-55201138D02*
X126415400Y-55201138D01*
X126415400Y-55201138D02*
X126415400Y-43101138D01*
X126415400Y-43101138D02*
X113715400Y-43101138D01*
X113715400Y-43101138D02*
X113715400Y-55201138D01*
D17*
%TO.C,IC4*%
X139841000Y-52570000D02*
G75*
G03*
X139841000Y-52570000I-125000J0D01*
G01*
D10*
X129341000Y-61220000D02*
X129341000Y-54370000D01*
X129341000Y-54370000D02*
X139441000Y-54370000D01*
X139441000Y-61220000D02*
X129341000Y-61220000D01*
X139441000Y-54370000D02*
X139441000Y-61220000D01*
%TD*%
M02*
