%TF.GenerationSoftware,KiCad,Pcbnew,(6.0.4)*%
%TF.CreationDate,2022-09-16T03:15:39+09:00*%
%TF.ProjectId,gnssboard_p,676e7373-626f-4617-9264-5f702e6b6963,rev?*%
%TF.SameCoordinates,Original*%
%TF.FileFunction,Copper,L2,Bot*%
%TF.FilePolarity,Positive*%
%FSLAX46Y46*%
G04 Gerber Fmt 4.6, Leading zero omitted, Abs format (unit mm)*
G04 Created by KiCad (PCBNEW (6.0.4)) date 2022-09-16 03:15:39*
%MOMM*%
%LPD*%
G01*
G04 APERTURE LIST*
%TA.AperFunction,ComponentPad*%
%ADD10C,3.000000*%
%TD*%
%TA.AperFunction,ViaPad*%
%ADD11C,0.800000*%
%TD*%
G04 APERTURE END LIST*
D10*
%TO.P,IC14,1,1*%
%TO.N,Net-(C24-Pad1)*%
X159020000Y-91750000D03*
%TD*%
%TO.P,IC11,1,1*%
%TO.N,Net-(C24-Pad1)*%
X126020000Y-91750000D03*
%TD*%
%TO.P,IC8,1,1*%
%TO.N,Net-(C24-Pad1)*%
X159020000Y-58750000D03*
%TD*%
%TO.P,IC5,1,1*%
%TO.N,Net-(C24-Pad1)*%
X126020000Y-58750000D03*
%TD*%
D11*
%TO.N,GND2*%
X167772000Y-100574000D03*
X157485000Y-95240000D03*
X147579000Y-88001000D03*
X157485000Y-96510000D03*
X144658000Y-78857000D03*
X160406000Y-97780000D03*
X162565000Y-98288000D03*
X173360000Y-96510000D03*
X156850000Y-74920000D03*
X163817471Y-76817703D03*
X161295000Y-104130000D03*
X157485000Y-104130000D03*
X165740000Y-88890000D03*
X167010000Y-74920000D03*
X151135000Y-86350000D03*
X159009000Y-86223000D03*
X168280000Y-91430000D03*
X162692000Y-97018000D03*
X172920000Y-76950000D03*
X155580000Y-93970000D03*
X160660000Y-74920000D03*
X156850000Y-85080000D03*
X169720000Y-80150000D03*
X166248000Y-100828000D03*
X170185000Y-104130000D03*
X155580000Y-101590000D03*
X157485000Y-102225000D03*
X173360000Y-94224000D03*
X169550000Y-100320000D03*
X173360000Y-102860000D03*
X160406000Y-95240000D03*
X145420000Y-101590000D03*
X173360000Y-91430000D03*
X156850000Y-78730000D03*
X155562095Y-104117210D03*
X173520000Y-80150000D03*
X149224884Y-101582326D03*
X170185000Y-76825000D03*
X153040000Y-104130000D03*
X163220000Y-84650000D03*
X168120000Y-78150000D03*
X153027210Y-90142848D03*
X160660000Y-93970000D03*
X159020000Y-89250000D03*
X157358000Y-89906000D03*
X163835000Y-104130000D03*
X160406000Y-99304000D03*
X163200000Y-91430000D03*
X173720000Y-86450000D03*
X154183000Y-86350000D03*
X157485000Y-100320000D03*
X147960000Y-83175000D03*
X164470000Y-92700000D03*
X165740000Y-91430000D03*
X145420000Y-93970000D03*
X156596000Y-91430000D03*
X162946000Y-100828000D03*
X168280000Y-92700000D03*
X153027210Y-93945174D03*
X160025000Y-103876000D03*
X157485000Y-98415000D03*
X153040000Y-74920000D03*
X163200000Y-88890000D03*
X148595000Y-80000000D03*
X168280000Y-88890000D03*
X165232000Y-96764000D03*
X158755000Y-76825000D03*
X166248000Y-99304000D03*
X155580000Y-90160000D03*
X165720000Y-79950000D03*
X170312000Y-102352000D03*
X149865000Y-74920000D03*
X161295000Y-92700000D03*
X172090000Y-100320000D03*
X160660000Y-78730000D03*
X170820000Y-91430000D03*
X145420000Y-97780000D03*
X173360000Y-88890000D03*
X145420000Y-74920000D03*
X163320000Y-78950000D03*
X157612000Y-81778000D03*
X170820000Y-88890000D03*
X161422000Y-91430000D03*
X145420000Y-86350000D03*
X149230000Y-90160000D03*
X171620000Y-80150000D03*
X160660000Y-89906000D03*
X163720000Y-81350000D03*
X166820000Y-76650000D03*
X156850000Y-93970000D03*
X160406000Y-96510000D03*
X145420000Y-104130000D03*
X173360000Y-99050000D03*
X173360000Y-74920000D03*
X167620000Y-80650000D03*
X155580000Y-97780000D03*
X170820000Y-93208000D03*
X156850000Y-92954000D03*
X147960000Y-77460000D03*
X149230000Y-104130000D03*
X149230000Y-97780000D03*
X149230000Y-93970000D03*
X153040000Y-97780000D03*
X145420000Y-90160000D03*
X166248000Y-97780000D03*
X153040000Y-78095000D03*
X153040000Y-101590000D03*
X134772000Y-100574000D03*
X124485000Y-95240000D03*
X114579000Y-88001000D03*
X124485000Y-96510000D03*
X111658000Y-78857000D03*
X127406000Y-97780000D03*
X129565000Y-98288000D03*
X140360000Y-96510000D03*
X123850000Y-74920000D03*
X130817471Y-76817703D03*
X128295000Y-104130000D03*
X124485000Y-104130000D03*
X132740000Y-88890000D03*
X134010000Y-74920000D03*
X118135000Y-86350000D03*
X126009000Y-86223000D03*
X135280000Y-91430000D03*
X129692000Y-97018000D03*
X139920000Y-76950000D03*
X122580000Y-93970000D03*
X127660000Y-74920000D03*
X123850000Y-85080000D03*
X136720000Y-80150000D03*
X133248000Y-100828000D03*
X137185000Y-104130000D03*
X122580000Y-101590000D03*
X124485000Y-102225000D03*
X140360000Y-94224000D03*
X136550000Y-100320000D03*
X140360000Y-102860000D03*
X127406000Y-95240000D03*
X112420000Y-101590000D03*
X140360000Y-91430000D03*
X123850000Y-78730000D03*
X122562095Y-104117210D03*
X140520000Y-80150000D03*
X116224884Y-101582326D03*
X137185000Y-76825000D03*
X120040000Y-104130000D03*
X130220000Y-84650000D03*
X135120000Y-78150000D03*
X120027210Y-90142848D03*
X127660000Y-93970000D03*
X126020000Y-89250000D03*
X124358000Y-89906000D03*
X130835000Y-104130000D03*
X127406000Y-99304000D03*
X130200000Y-91430000D03*
X140720000Y-86450000D03*
X121183000Y-86350000D03*
X124485000Y-100320000D03*
X114960000Y-83175000D03*
X131470000Y-92700000D03*
X132740000Y-91430000D03*
X112420000Y-93970000D03*
X123596000Y-91430000D03*
X129946000Y-100828000D03*
X135280000Y-92700000D03*
X120027210Y-93945174D03*
X127025000Y-103876000D03*
X124485000Y-98415000D03*
X120040000Y-74920000D03*
X130200000Y-88890000D03*
X115595000Y-80000000D03*
X135280000Y-88890000D03*
X132232000Y-96764000D03*
X125755000Y-76825000D03*
X133248000Y-99304000D03*
X122580000Y-90160000D03*
X132720000Y-79950000D03*
X137312000Y-102352000D03*
X116865000Y-74920000D03*
X128295000Y-92700000D03*
X139090000Y-100320000D03*
X127660000Y-78730000D03*
X137820000Y-91430000D03*
X112420000Y-97780000D03*
X140360000Y-88890000D03*
X112420000Y-74920000D03*
X130320000Y-78950000D03*
X124612000Y-81778000D03*
X137820000Y-88890000D03*
X128422000Y-91430000D03*
X112420000Y-86350000D03*
X116230000Y-90160000D03*
X138620000Y-80150000D03*
X127660000Y-89906000D03*
X130720000Y-81350000D03*
X133820000Y-76650000D03*
X123850000Y-93970000D03*
X127406000Y-96510000D03*
X112420000Y-104130000D03*
X140360000Y-99050000D03*
X140360000Y-74920000D03*
X134620000Y-80650000D03*
X122580000Y-97780000D03*
X137820000Y-93208000D03*
X123850000Y-92954000D03*
X114960000Y-77460000D03*
X116230000Y-104130000D03*
X116230000Y-97780000D03*
X116230000Y-93970000D03*
X120040000Y-97780000D03*
X112420000Y-90160000D03*
X133248000Y-97780000D03*
X120040000Y-78095000D03*
X120040000Y-101590000D03*
X167772000Y-67574000D03*
X157485000Y-62240000D03*
X147579000Y-55001000D03*
X157485000Y-63510000D03*
X144658000Y-45857000D03*
X160406000Y-64780000D03*
X162565000Y-65288000D03*
X173360000Y-63510000D03*
X156850000Y-41920000D03*
X163817471Y-43817703D03*
X161295000Y-71130000D03*
X157485000Y-71130000D03*
X165740000Y-55890000D03*
X167010000Y-41920000D03*
X151135000Y-53350000D03*
X159009000Y-53223000D03*
X168280000Y-58430000D03*
X162692000Y-64018000D03*
X172920000Y-43950000D03*
X155580000Y-60970000D03*
X160660000Y-41920000D03*
X156850000Y-52080000D03*
X169720000Y-47150000D03*
X166248000Y-67828000D03*
X170185000Y-71130000D03*
X155580000Y-68590000D03*
X157485000Y-69225000D03*
X173360000Y-61224000D03*
X169550000Y-67320000D03*
X173360000Y-69860000D03*
X160406000Y-62240000D03*
X145420000Y-68590000D03*
X173360000Y-58430000D03*
X156850000Y-45730000D03*
X155562095Y-71117210D03*
X173520000Y-47150000D03*
X149224884Y-68582326D03*
X170185000Y-43825000D03*
X153040000Y-71130000D03*
X163220000Y-51650000D03*
X168120000Y-45150000D03*
X153027210Y-57142848D03*
X160660000Y-60970000D03*
X159020000Y-56250000D03*
X157358000Y-56906000D03*
X163835000Y-71130000D03*
X160406000Y-66304000D03*
X163200000Y-58430000D03*
X173720000Y-53450000D03*
X154183000Y-53350000D03*
X157485000Y-67320000D03*
X147960000Y-50175000D03*
X164470000Y-59700000D03*
X165740000Y-58430000D03*
X145420000Y-60970000D03*
X156596000Y-58430000D03*
X162946000Y-67828000D03*
X168280000Y-59700000D03*
X153027210Y-60945174D03*
X160025000Y-70876000D03*
X157485000Y-65415000D03*
X153040000Y-41920000D03*
X163200000Y-55890000D03*
X148595000Y-47000000D03*
X168280000Y-55890000D03*
X165232000Y-63764000D03*
X158755000Y-43825000D03*
X166248000Y-66304000D03*
X155580000Y-57160000D03*
X165720000Y-46950000D03*
X170312000Y-69352000D03*
X149865000Y-41920000D03*
X161295000Y-59700000D03*
X172090000Y-67320000D03*
X160660000Y-45730000D03*
X170820000Y-58430000D03*
X145420000Y-64780000D03*
X173360000Y-55890000D03*
X145420000Y-41920000D03*
X163320000Y-45950000D03*
X157612000Y-48778000D03*
X170820000Y-55890000D03*
X161422000Y-58430000D03*
X145420000Y-53350000D03*
X149230000Y-57160000D03*
X171620000Y-47150000D03*
X160660000Y-56906000D03*
X163720000Y-48350000D03*
X166820000Y-43650000D03*
X156850000Y-60970000D03*
X160406000Y-63510000D03*
X145420000Y-71130000D03*
X173360000Y-66050000D03*
X173360000Y-41920000D03*
X167620000Y-47650000D03*
X155580000Y-64780000D03*
X170820000Y-60208000D03*
X156850000Y-59954000D03*
X147960000Y-44460000D03*
X149230000Y-71130000D03*
X149230000Y-64780000D03*
X149230000Y-60970000D03*
X153040000Y-64780000D03*
X145420000Y-57160000D03*
X166248000Y-64780000D03*
X153040000Y-45095000D03*
X153040000Y-68590000D03*
X135280000Y-55890000D03*
X127025000Y-70876000D03*
X120027210Y-60945174D03*
X115595000Y-47000000D03*
X135280000Y-59700000D03*
X129946000Y-67828000D03*
X132740000Y-58430000D03*
X130200000Y-55890000D03*
X123596000Y-58430000D03*
X112420000Y-60970000D03*
X131470000Y-59700000D03*
X132232000Y-63764000D03*
X114960000Y-50175000D03*
X120040000Y-41920000D03*
X124485000Y-65415000D03*
X124485000Y-67320000D03*
X125755000Y-43825000D03*
X121183000Y-53350000D03*
X128295000Y-71130000D03*
X135280000Y-58430000D03*
X140720000Y-53450000D03*
X123850000Y-41920000D03*
X137185000Y-43825000D03*
X122580000Y-68590000D03*
X134772000Y-67574000D03*
X127406000Y-62240000D03*
X130220000Y-51650000D03*
X135120000Y-45150000D03*
X120040000Y-71130000D03*
X127660000Y-41920000D03*
X123850000Y-45730000D03*
X140360000Y-69860000D03*
X127406000Y-64780000D03*
X140360000Y-63510000D03*
X126020000Y-56250000D03*
X114579000Y-55001000D03*
X127660000Y-60970000D03*
X111658000Y-45857000D03*
X137185000Y-71130000D03*
X120027210Y-57142848D03*
X130200000Y-58430000D03*
X130835000Y-71130000D03*
X134010000Y-41920000D03*
X126009000Y-53223000D03*
X124358000Y-56906000D03*
X118135000Y-53350000D03*
X140360000Y-58430000D03*
X112420000Y-68590000D03*
X124485000Y-69225000D03*
X140520000Y-47150000D03*
X136720000Y-47150000D03*
X133248000Y-67828000D03*
X116224884Y-68582326D03*
X132740000Y-55890000D03*
X124485000Y-71130000D03*
X123850000Y-52080000D03*
X122562095Y-71117210D03*
X136550000Y-67320000D03*
X140360000Y-61224000D03*
X127406000Y-66304000D03*
X122580000Y-60970000D03*
X124485000Y-63510000D03*
X139920000Y-43950000D03*
X129692000Y-64018000D03*
X130817471Y-43817703D03*
X129565000Y-65288000D03*
X124485000Y-62240000D03*
X137312000Y-69352000D03*
X132720000Y-46950000D03*
X133248000Y-66304000D03*
X122580000Y-57160000D03*
X127660000Y-45730000D03*
X139090000Y-67320000D03*
X128295000Y-59700000D03*
X116865000Y-41920000D03*
X134620000Y-47650000D03*
X140360000Y-41920000D03*
X140360000Y-66050000D03*
X112420000Y-71130000D03*
X120040000Y-68590000D03*
X124612000Y-48778000D03*
X116230000Y-64780000D03*
X127406000Y-63510000D03*
X137820000Y-55890000D03*
X140360000Y-55890000D03*
X112420000Y-64780000D03*
X116230000Y-60970000D03*
X114960000Y-44460000D03*
X130720000Y-48350000D03*
X138620000Y-47150000D03*
X120040000Y-45095000D03*
X133820000Y-43650000D03*
X128422000Y-58430000D03*
X133248000Y-64780000D03*
X122580000Y-64780000D03*
X116230000Y-57160000D03*
X123850000Y-59954000D03*
X130320000Y-45950000D03*
X127660000Y-56906000D03*
X112420000Y-41920000D03*
X137820000Y-58430000D03*
X137820000Y-60208000D03*
X112420000Y-57160000D03*
X123850000Y-60970000D03*
X112420000Y-53350000D03*
X120040000Y-64780000D03*
X116230000Y-71130000D03*
%TD*%
%TA.AperFunction,Conductor*%
%TO.N,GND2*%
G36*
X141962121Y-40270002D02*
G01*
X142008614Y-40323658D01*
X142020000Y-40376000D01*
X142020000Y-72124000D01*
X141999998Y-72192121D01*
X141946342Y-72238614D01*
X141894000Y-72250000D01*
X110634500Y-72250000D01*
X110566379Y-72229998D01*
X110519886Y-72176342D01*
X110508500Y-72124000D01*
X110508500Y-58728918D01*
X124006917Y-58728918D01*
X124022682Y-59002320D01*
X124023507Y-59006525D01*
X124023508Y-59006533D01*
X124034127Y-59060657D01*
X124075405Y-59271053D01*
X124076792Y-59275103D01*
X124076793Y-59275108D01*
X124097605Y-59335895D01*
X124164112Y-59530144D01*
X124287160Y-59774799D01*
X124289586Y-59778328D01*
X124289589Y-59778334D01*
X124439843Y-59996953D01*
X124442274Y-60000490D01*
X124626582Y-60203043D01*
X124836675Y-60378707D01*
X124840316Y-60380991D01*
X125065024Y-60521951D01*
X125065028Y-60521953D01*
X125068664Y-60524234D01*
X125136544Y-60554883D01*
X125314345Y-60635164D01*
X125314349Y-60635166D01*
X125318257Y-60636930D01*
X125322377Y-60638150D01*
X125322376Y-60638150D01*
X125576723Y-60713491D01*
X125576727Y-60713492D01*
X125580836Y-60714709D01*
X125585070Y-60715357D01*
X125585075Y-60715358D01*
X125847298Y-60755483D01*
X125847300Y-60755483D01*
X125851540Y-60756132D01*
X125990912Y-60758322D01*
X126121071Y-60760367D01*
X126121077Y-60760367D01*
X126125362Y-60760434D01*
X126397235Y-60727534D01*
X126662127Y-60658041D01*
X126666087Y-60656401D01*
X126666092Y-60656399D01*
X126788632Y-60605641D01*
X126915136Y-60553241D01*
X127151582Y-60415073D01*
X127367089Y-60246094D01*
X127408809Y-60203043D01*
X127554686Y-60052509D01*
X127557669Y-60049431D01*
X127560202Y-60045983D01*
X127560206Y-60045978D01*
X127717257Y-59832178D01*
X127719795Y-59828723D01*
X127747154Y-59778334D01*
X127848418Y-59591830D01*
X127848419Y-59591828D01*
X127850468Y-59588054D01*
X127947269Y-59331877D01*
X128008407Y-59064933D01*
X128032751Y-58792161D01*
X128033193Y-58750000D01*
X128014567Y-58476778D01*
X127959032Y-58208612D01*
X127867617Y-57950465D01*
X127742013Y-57707112D01*
X127732040Y-57692921D01*
X127587008Y-57486562D01*
X127584545Y-57483057D01*
X127398125Y-57282445D01*
X127394810Y-57279731D01*
X127394806Y-57279728D01*
X127189523Y-57111706D01*
X127186205Y-57108990D01*
X126952704Y-56965901D01*
X126948768Y-56964173D01*
X126705873Y-56857549D01*
X126705869Y-56857548D01*
X126701945Y-56855825D01*
X126438566Y-56780800D01*
X126434324Y-56780196D01*
X126434318Y-56780195D01*
X126233834Y-56751662D01*
X126167443Y-56742213D01*
X126023589Y-56741460D01*
X125897877Y-56740802D01*
X125897871Y-56740802D01*
X125893591Y-56740780D01*
X125889347Y-56741339D01*
X125889343Y-56741339D01*
X125770302Y-56757011D01*
X125622078Y-56776525D01*
X125617938Y-56777658D01*
X125617936Y-56777658D01*
X125545008Y-56797609D01*
X125357928Y-56848788D01*
X125353980Y-56850472D01*
X125109982Y-56954546D01*
X125109978Y-56954548D01*
X125106030Y-56956232D01*
X125086125Y-56968145D01*
X124874725Y-57094664D01*
X124874721Y-57094667D01*
X124871043Y-57096868D01*
X124657318Y-57268094D01*
X124468808Y-57466742D01*
X124309002Y-57689136D01*
X124180857Y-57931161D01*
X124179385Y-57935184D01*
X124179383Y-57935188D01*
X124172314Y-57954506D01*
X124086743Y-58188337D01*
X124028404Y-58455907D01*
X124006917Y-58728918D01*
X110508500Y-58728918D01*
X110508500Y-40376000D01*
X110528502Y-40307879D01*
X110582158Y-40261386D01*
X110634500Y-40250000D01*
X141894000Y-40250000D01*
X141962121Y-40270002D01*
G37*
%TD.AperFunction*%
%TD*%
%TA.AperFunction,Conductor*%
%TO.N,GND2*%
G36*
X174433621Y-40270002D02*
G01*
X174480114Y-40323658D01*
X174491500Y-40376000D01*
X174491500Y-72124000D01*
X174471498Y-72192121D01*
X174417842Y-72238614D01*
X174365500Y-72250000D01*
X143146000Y-72250000D01*
X143077879Y-72229998D01*
X143031386Y-72176342D01*
X143020000Y-72124000D01*
X143020000Y-58728918D01*
X157006917Y-58728918D01*
X157022682Y-59002320D01*
X157023507Y-59006525D01*
X157023508Y-59006533D01*
X157034127Y-59060657D01*
X157075405Y-59271053D01*
X157076792Y-59275103D01*
X157076793Y-59275108D01*
X157097605Y-59335895D01*
X157164112Y-59530144D01*
X157287160Y-59774799D01*
X157289586Y-59778328D01*
X157289589Y-59778334D01*
X157439843Y-59996953D01*
X157442274Y-60000490D01*
X157626582Y-60203043D01*
X157836675Y-60378707D01*
X157840316Y-60380991D01*
X158065024Y-60521951D01*
X158065028Y-60521953D01*
X158068664Y-60524234D01*
X158136544Y-60554883D01*
X158314345Y-60635164D01*
X158314349Y-60635166D01*
X158318257Y-60636930D01*
X158322377Y-60638150D01*
X158322376Y-60638150D01*
X158576723Y-60713491D01*
X158576727Y-60713492D01*
X158580836Y-60714709D01*
X158585070Y-60715357D01*
X158585075Y-60715358D01*
X158847298Y-60755483D01*
X158847300Y-60755483D01*
X158851540Y-60756132D01*
X158990912Y-60758322D01*
X159121071Y-60760367D01*
X159121077Y-60760367D01*
X159125362Y-60760434D01*
X159397235Y-60727534D01*
X159662127Y-60658041D01*
X159666087Y-60656401D01*
X159666092Y-60656399D01*
X159788632Y-60605641D01*
X159915136Y-60553241D01*
X160151582Y-60415073D01*
X160367089Y-60246094D01*
X160408809Y-60203043D01*
X160554686Y-60052509D01*
X160557669Y-60049431D01*
X160560202Y-60045983D01*
X160560206Y-60045978D01*
X160717257Y-59832178D01*
X160719795Y-59828723D01*
X160747154Y-59778334D01*
X160848418Y-59591830D01*
X160848419Y-59591828D01*
X160850468Y-59588054D01*
X160947269Y-59331877D01*
X161008407Y-59064933D01*
X161032751Y-58792161D01*
X161033193Y-58750000D01*
X161014567Y-58476778D01*
X160959032Y-58208612D01*
X160867617Y-57950465D01*
X160742013Y-57707112D01*
X160732040Y-57692921D01*
X160587008Y-57486562D01*
X160584545Y-57483057D01*
X160398125Y-57282445D01*
X160394810Y-57279731D01*
X160394806Y-57279728D01*
X160189523Y-57111706D01*
X160186205Y-57108990D01*
X159952704Y-56965901D01*
X159948768Y-56964173D01*
X159705873Y-56857549D01*
X159705869Y-56857548D01*
X159701945Y-56855825D01*
X159438566Y-56780800D01*
X159434324Y-56780196D01*
X159434318Y-56780195D01*
X159233834Y-56751662D01*
X159167443Y-56742213D01*
X159023589Y-56741460D01*
X158897877Y-56740802D01*
X158897871Y-56740802D01*
X158893591Y-56740780D01*
X158889347Y-56741339D01*
X158889343Y-56741339D01*
X158770302Y-56757011D01*
X158622078Y-56776525D01*
X158617938Y-56777658D01*
X158617936Y-56777658D01*
X158545008Y-56797609D01*
X158357928Y-56848788D01*
X158353980Y-56850472D01*
X158109982Y-56954546D01*
X158109978Y-56954548D01*
X158106030Y-56956232D01*
X158086125Y-56968145D01*
X157874725Y-57094664D01*
X157874721Y-57094667D01*
X157871043Y-57096868D01*
X157657318Y-57268094D01*
X157468808Y-57466742D01*
X157309002Y-57689136D01*
X157180857Y-57931161D01*
X157179385Y-57935184D01*
X157179383Y-57935188D01*
X157172314Y-57954506D01*
X157086743Y-58188337D01*
X157028404Y-58455907D01*
X157006917Y-58728918D01*
X143020000Y-58728918D01*
X143020000Y-40376000D01*
X143040002Y-40307879D01*
X143093658Y-40261386D01*
X143146000Y-40250000D01*
X174365500Y-40250000D01*
X174433621Y-40270002D01*
G37*
%TD.AperFunction*%
%TD*%
%TA.AperFunction,Conductor*%
%TO.N,GND2*%
G36*
X141962121Y-73270002D02*
G01*
X142008614Y-73323658D01*
X142020000Y-73376000D01*
X142020000Y-105124000D01*
X141999998Y-105192121D01*
X141946342Y-105238614D01*
X141894000Y-105250000D01*
X110634500Y-105250000D01*
X110566379Y-105229998D01*
X110519886Y-105176342D01*
X110508500Y-105124000D01*
X110508500Y-91728918D01*
X124006917Y-91728918D01*
X124022682Y-92002320D01*
X124023507Y-92006525D01*
X124023508Y-92006533D01*
X124034127Y-92060657D01*
X124075405Y-92271053D01*
X124076792Y-92275103D01*
X124076793Y-92275108D01*
X124097605Y-92335895D01*
X124164112Y-92530144D01*
X124287160Y-92774799D01*
X124289586Y-92778328D01*
X124289589Y-92778334D01*
X124439843Y-92996953D01*
X124442274Y-93000490D01*
X124626582Y-93203043D01*
X124836675Y-93378707D01*
X124840316Y-93380991D01*
X125065024Y-93521951D01*
X125065028Y-93521953D01*
X125068664Y-93524234D01*
X125136544Y-93554883D01*
X125314345Y-93635164D01*
X125314349Y-93635166D01*
X125318257Y-93636930D01*
X125322377Y-93638150D01*
X125322376Y-93638150D01*
X125576723Y-93713491D01*
X125576727Y-93713492D01*
X125580836Y-93714709D01*
X125585070Y-93715357D01*
X125585075Y-93715358D01*
X125847298Y-93755483D01*
X125847300Y-93755483D01*
X125851540Y-93756132D01*
X125990912Y-93758322D01*
X126121071Y-93760367D01*
X126121077Y-93760367D01*
X126125362Y-93760434D01*
X126397235Y-93727534D01*
X126662127Y-93658041D01*
X126666087Y-93656401D01*
X126666092Y-93656399D01*
X126788631Y-93605641D01*
X126915136Y-93553241D01*
X127151582Y-93415073D01*
X127367089Y-93246094D01*
X127408809Y-93203043D01*
X127554686Y-93052509D01*
X127557669Y-93049431D01*
X127560202Y-93045983D01*
X127560206Y-93045978D01*
X127717257Y-92832178D01*
X127719795Y-92828723D01*
X127747154Y-92778334D01*
X127848418Y-92591830D01*
X127848419Y-92591828D01*
X127850468Y-92588054D01*
X127947269Y-92331877D01*
X128008407Y-92064933D01*
X128032751Y-91792161D01*
X128033193Y-91750000D01*
X128014567Y-91476778D01*
X127959032Y-91208612D01*
X127867617Y-90950465D01*
X127742013Y-90707112D01*
X127732040Y-90692921D01*
X127587008Y-90486562D01*
X127584545Y-90483057D01*
X127398125Y-90282445D01*
X127394810Y-90279731D01*
X127394806Y-90279728D01*
X127189523Y-90111706D01*
X127186205Y-90108990D01*
X126952704Y-89965901D01*
X126948768Y-89964173D01*
X126705873Y-89857549D01*
X126705869Y-89857548D01*
X126701945Y-89855825D01*
X126438566Y-89780800D01*
X126434324Y-89780196D01*
X126434318Y-89780195D01*
X126233834Y-89751662D01*
X126167443Y-89742213D01*
X126023589Y-89741460D01*
X125897877Y-89740802D01*
X125897871Y-89740802D01*
X125893591Y-89740780D01*
X125889347Y-89741339D01*
X125889343Y-89741339D01*
X125770302Y-89757011D01*
X125622078Y-89776525D01*
X125617938Y-89777658D01*
X125617936Y-89777658D01*
X125545008Y-89797609D01*
X125357928Y-89848788D01*
X125353980Y-89850472D01*
X125109982Y-89954546D01*
X125109978Y-89954548D01*
X125106030Y-89956232D01*
X125086125Y-89968145D01*
X124874725Y-90094664D01*
X124874721Y-90094667D01*
X124871043Y-90096868D01*
X124657318Y-90268094D01*
X124468808Y-90466742D01*
X124309002Y-90689136D01*
X124180857Y-90931161D01*
X124179385Y-90935184D01*
X124179383Y-90935188D01*
X124172314Y-90954506D01*
X124086743Y-91188337D01*
X124028404Y-91455907D01*
X124006917Y-91728918D01*
X110508500Y-91728918D01*
X110508500Y-73376000D01*
X110528502Y-73307879D01*
X110582158Y-73261386D01*
X110634500Y-73250000D01*
X141894000Y-73250000D01*
X141962121Y-73270002D01*
G37*
%TD.AperFunction*%
%TD*%
%TA.AperFunction,Conductor*%
%TO.N,GND2*%
G36*
X174433621Y-73270002D02*
G01*
X174480114Y-73323658D01*
X174491500Y-73376000D01*
X174491500Y-105124000D01*
X174471498Y-105192121D01*
X174417842Y-105238614D01*
X174365500Y-105250000D01*
X143146000Y-105250000D01*
X143077879Y-105229998D01*
X143031386Y-105176342D01*
X143020000Y-105124000D01*
X143020000Y-91728918D01*
X157006917Y-91728918D01*
X157022682Y-92002320D01*
X157023507Y-92006525D01*
X157023508Y-92006533D01*
X157034127Y-92060657D01*
X157075405Y-92271053D01*
X157076792Y-92275103D01*
X157076793Y-92275108D01*
X157097605Y-92335895D01*
X157164112Y-92530144D01*
X157287160Y-92774799D01*
X157289586Y-92778328D01*
X157289589Y-92778334D01*
X157439843Y-92996953D01*
X157442274Y-93000490D01*
X157626582Y-93203043D01*
X157836675Y-93378707D01*
X157840316Y-93380991D01*
X158065024Y-93521951D01*
X158065028Y-93521953D01*
X158068664Y-93524234D01*
X158136544Y-93554883D01*
X158314345Y-93635164D01*
X158314349Y-93635166D01*
X158318257Y-93636930D01*
X158322377Y-93638150D01*
X158322376Y-93638150D01*
X158576723Y-93713491D01*
X158576727Y-93713492D01*
X158580836Y-93714709D01*
X158585070Y-93715357D01*
X158585075Y-93715358D01*
X158847298Y-93755483D01*
X158847300Y-93755483D01*
X158851540Y-93756132D01*
X158990912Y-93758322D01*
X159121071Y-93760367D01*
X159121077Y-93760367D01*
X159125362Y-93760434D01*
X159397235Y-93727534D01*
X159662127Y-93658041D01*
X159666087Y-93656401D01*
X159666092Y-93656399D01*
X159788631Y-93605641D01*
X159915136Y-93553241D01*
X160151582Y-93415073D01*
X160367089Y-93246094D01*
X160408809Y-93203043D01*
X160554686Y-93052509D01*
X160557669Y-93049431D01*
X160560202Y-93045983D01*
X160560206Y-93045978D01*
X160717257Y-92832178D01*
X160719795Y-92828723D01*
X160747154Y-92778334D01*
X160848418Y-92591830D01*
X160848419Y-92591828D01*
X160850468Y-92588054D01*
X160947269Y-92331877D01*
X161008407Y-92064933D01*
X161032751Y-91792161D01*
X161033193Y-91750000D01*
X161014567Y-91476778D01*
X160959032Y-91208612D01*
X160867617Y-90950465D01*
X160742013Y-90707112D01*
X160732040Y-90692921D01*
X160587008Y-90486562D01*
X160584545Y-90483057D01*
X160398125Y-90282445D01*
X160394810Y-90279731D01*
X160394806Y-90279728D01*
X160189523Y-90111706D01*
X160186205Y-90108990D01*
X159952704Y-89965901D01*
X159948768Y-89964173D01*
X159705873Y-89857549D01*
X159705869Y-89857548D01*
X159701945Y-89855825D01*
X159438566Y-89780800D01*
X159434324Y-89780196D01*
X159434318Y-89780195D01*
X159233834Y-89751662D01*
X159167443Y-89742213D01*
X159023589Y-89741460D01*
X158897877Y-89740802D01*
X158897871Y-89740802D01*
X158893591Y-89740780D01*
X158889347Y-89741339D01*
X158889343Y-89741339D01*
X158770302Y-89757011D01*
X158622078Y-89776525D01*
X158617938Y-89777658D01*
X158617936Y-89777658D01*
X158545008Y-89797609D01*
X158357928Y-89848788D01*
X158353980Y-89850472D01*
X158109982Y-89954546D01*
X158109978Y-89954548D01*
X158106030Y-89956232D01*
X158086125Y-89968145D01*
X157874725Y-90094664D01*
X157874721Y-90094667D01*
X157871043Y-90096868D01*
X157657318Y-90268094D01*
X157468808Y-90466742D01*
X157309002Y-90689136D01*
X157180857Y-90931161D01*
X157179385Y-90935184D01*
X157179383Y-90935188D01*
X157172314Y-90954506D01*
X157086743Y-91188337D01*
X157028404Y-91455907D01*
X157006917Y-91728918D01*
X143020000Y-91728918D01*
X143020000Y-73376000D01*
X143040002Y-73307879D01*
X143093658Y-73261386D01*
X143146000Y-73250000D01*
X174365500Y-73250000D01*
X174433621Y-73270002D01*
G37*
%TD.AperFunction*%
%TD*%
M02*
