%TF.GenerationSoftware,KiCad,Pcbnew,(6.0.4)*%
%TF.CreationDate,2022-09-16T03:15:39+09:00*%
%TF.ProjectId,gnssboard_p,676e7373-626f-4617-9264-5f702e6b6963,rev?*%
%TF.SameCoordinates,Original*%
%TF.FileFunction,Legend,Bot*%
%TF.FilePolarity,Positive*%
%FSLAX46Y46*%
G04 Gerber Fmt 4.6, Leading zero omitted, Abs format (unit mm)*
G04 Created by KiCad (PCBNEW (6.0.4)) date 2022-09-16 03:15:39*
%MOMM*%
%LPD*%
G01*
G04 APERTURE LIST*
%ADD10C,0.254000*%
%ADD11C,0.100000*%
%ADD12C,0.200000*%
G04 APERTURE END LIST*
D10*
%TO.C,IC14*%
X160864523Y-89824523D02*
X160864523Y-88554523D01*
X159534047Y-89703571D02*
X159594523Y-89764047D01*
X159775952Y-89824523D01*
X159896904Y-89824523D01*
X160078333Y-89764047D01*
X160199285Y-89643095D01*
X160259761Y-89522142D01*
X160320238Y-89280238D01*
X160320238Y-89098809D01*
X160259761Y-88856904D01*
X160199285Y-88735952D01*
X160078333Y-88615000D01*
X159896904Y-88554523D01*
X159775952Y-88554523D01*
X159594523Y-88615000D01*
X159534047Y-88675476D01*
X158324523Y-89824523D02*
X159050238Y-89824523D01*
X158687380Y-89824523D02*
X158687380Y-88554523D01*
X158808333Y-88735952D01*
X158929285Y-88856904D01*
X159050238Y-88917380D01*
X157235952Y-88977857D02*
X157235952Y-89824523D01*
X157538333Y-88494047D02*
X157840714Y-89401190D01*
X157054523Y-89401190D01*
%TO.C,IC11*%
X127864523Y-89824523D02*
X127864523Y-88554523D01*
X126534047Y-89703571D02*
X126594523Y-89764047D01*
X126775952Y-89824523D01*
X126896904Y-89824523D01*
X127078333Y-89764047D01*
X127199285Y-89643095D01*
X127259761Y-89522142D01*
X127320238Y-89280238D01*
X127320238Y-89098809D01*
X127259761Y-88856904D01*
X127199285Y-88735952D01*
X127078333Y-88615000D01*
X126896904Y-88554523D01*
X126775952Y-88554523D01*
X126594523Y-88615000D01*
X126534047Y-88675476D01*
X125324523Y-89824523D02*
X126050238Y-89824523D01*
X125687380Y-89824523D02*
X125687380Y-88554523D01*
X125808333Y-88735952D01*
X125929285Y-88856904D01*
X126050238Y-88917380D01*
X124115000Y-89824523D02*
X124840714Y-89824523D01*
X124477857Y-89824523D02*
X124477857Y-88554523D01*
X124598809Y-88735952D01*
X124719761Y-88856904D01*
X124840714Y-88917380D01*
%TO.C,IC8*%
X160259761Y-56824523D02*
X160259761Y-55554523D01*
X158929285Y-56703571D02*
X158989761Y-56764047D01*
X159171190Y-56824523D01*
X159292142Y-56824523D01*
X159473571Y-56764047D01*
X159594523Y-56643095D01*
X159655000Y-56522142D01*
X159715476Y-56280238D01*
X159715476Y-56098809D01*
X159655000Y-55856904D01*
X159594523Y-55735952D01*
X159473571Y-55615000D01*
X159292142Y-55554523D01*
X159171190Y-55554523D01*
X158989761Y-55615000D01*
X158929285Y-55675476D01*
X158203571Y-56098809D02*
X158324523Y-56038333D01*
X158385000Y-55977857D01*
X158445476Y-55856904D01*
X158445476Y-55796428D01*
X158385000Y-55675476D01*
X158324523Y-55615000D01*
X158203571Y-55554523D01*
X157961666Y-55554523D01*
X157840714Y-55615000D01*
X157780238Y-55675476D01*
X157719761Y-55796428D01*
X157719761Y-55856904D01*
X157780238Y-55977857D01*
X157840714Y-56038333D01*
X157961666Y-56098809D01*
X158203571Y-56098809D01*
X158324523Y-56159285D01*
X158385000Y-56219761D01*
X158445476Y-56340714D01*
X158445476Y-56582619D01*
X158385000Y-56703571D01*
X158324523Y-56764047D01*
X158203571Y-56824523D01*
X157961666Y-56824523D01*
X157840714Y-56764047D01*
X157780238Y-56703571D01*
X157719761Y-56582619D01*
X157719761Y-56340714D01*
X157780238Y-56219761D01*
X157840714Y-56159285D01*
X157961666Y-56098809D01*
%TO.C,IC5*%
X127259761Y-56824523D02*
X127259761Y-55554523D01*
X125929285Y-56703571D02*
X125989761Y-56764047D01*
X126171190Y-56824523D01*
X126292142Y-56824523D01*
X126473571Y-56764047D01*
X126594523Y-56643095D01*
X126655000Y-56522142D01*
X126715476Y-56280238D01*
X126715476Y-56098809D01*
X126655000Y-55856904D01*
X126594523Y-55735952D01*
X126473571Y-55615000D01*
X126292142Y-55554523D01*
X126171190Y-55554523D01*
X125989761Y-55615000D01*
X125929285Y-55675476D01*
X124780238Y-55554523D02*
X125385000Y-55554523D01*
X125445476Y-56159285D01*
X125385000Y-56098809D01*
X125264047Y-56038333D01*
X124961666Y-56038333D01*
X124840714Y-56098809D01*
X124780238Y-56159285D01*
X124719761Y-56280238D01*
X124719761Y-56582619D01*
X124780238Y-56703571D01*
X124840714Y-56764047D01*
X124961666Y-56824523D01*
X125264047Y-56824523D01*
X125385000Y-56764047D01*
X125445476Y-56703571D01*
D11*
%TO.C,IC14*%
X145920000Y-91750000D02*
G75*
G03*
X145820000Y-91750000I-50000J0D01*
G01*
X145820000Y-91750000D02*
G75*
G03*
X145920000Y-91750000I50000J0D01*
G01*
X145820000Y-91750000D02*
X145820000Y-91750000D01*
D12*
X171570000Y-76700000D02*
X146470000Y-76700000D01*
D11*
X145920000Y-91750000D02*
X145920000Y-91750000D01*
D12*
X146470000Y-101800000D02*
X171570000Y-101800000D01*
X171570000Y-101800000D02*
X171570000Y-76700000D01*
X146470000Y-76700000D02*
X146470000Y-101800000D01*
D11*
%TO.C,IC11*%
X112920000Y-91750000D02*
G75*
G03*
X112820000Y-91750000I-50000J0D01*
G01*
X112820000Y-91750000D02*
G75*
G03*
X112920000Y-91750000I50000J0D01*
G01*
X112820000Y-91750000D02*
X112820000Y-91750000D01*
D12*
X138570000Y-76700000D02*
X113470000Y-76700000D01*
D11*
X112920000Y-91750000D02*
X112920000Y-91750000D01*
D12*
X113470000Y-101800000D02*
X138570000Y-101800000D01*
X138570000Y-101800000D02*
X138570000Y-76700000D01*
X113470000Y-76700000D02*
X113470000Y-101800000D01*
D11*
%TO.C,IC8*%
X145920000Y-58750000D02*
G75*
G03*
X145820000Y-58750000I-50000J0D01*
G01*
X145820000Y-58750000D02*
G75*
G03*
X145920000Y-58750000I50000J0D01*
G01*
X145820000Y-58750000D02*
X145820000Y-58750000D01*
D12*
X171570000Y-43700000D02*
X146470000Y-43700000D01*
D11*
X145920000Y-58750000D02*
X145920000Y-58750000D01*
D12*
X146470000Y-68800000D02*
X171570000Y-68800000D01*
X171570000Y-68800000D02*
X171570000Y-43700000D01*
X146470000Y-43700000D02*
X146470000Y-68800000D01*
D11*
%TO.C,IC5*%
X112920000Y-58750000D02*
G75*
G03*
X112820000Y-58750000I-50000J0D01*
G01*
X112820000Y-58750000D02*
G75*
G03*
X112920000Y-58750000I50000J0D01*
G01*
X112820000Y-58750000D02*
X112820000Y-58750000D01*
D12*
X138570000Y-43700000D02*
X113470000Y-43700000D01*
D11*
X112920000Y-58750000D02*
X112920000Y-58750000D01*
D12*
X113470000Y-68800000D02*
X138570000Y-68800000D01*
X138570000Y-68800000D02*
X138570000Y-43700000D01*
X113470000Y-43700000D02*
X113470000Y-68800000D01*
%TD*%
M02*
