%TF.GenerationSoftware,KiCad,Pcbnew,(6.0.4)*%
%TF.CreationDate,2022-12-06T00:22:49+09:00*%
%TF.ProjectId,gps-teseo-p,6770732d-7465-4736-956f-2d702e6b6963,rev?*%
%TF.SameCoordinates,Original*%
%TF.FileFunction,Legend,Bot*%
%TF.FilePolarity,Positive*%
%FSLAX46Y46*%
G04 Gerber Fmt 4.6, Leading zero omitted, Abs format (unit mm)*
G04 Created by KiCad (PCBNEW (6.0.4)) date 2022-12-06 00:22:49*
%MOMM*%
%LPD*%
G01*
G04 APERTURE LIST*
%ADD10C,0.150000*%
%ADD11C,0.254000*%
%ADD12C,0.100000*%
%ADD13C,0.200000*%
G04 APERTURE END LIST*
D10*
X112028571Y-78500000D02*
X112123809Y-78452380D01*
X112266666Y-78452380D01*
X112409523Y-78500000D01*
X112504761Y-78595238D01*
X112552380Y-78690476D01*
X112600000Y-78880952D01*
X112600000Y-79023809D01*
X112552380Y-79214285D01*
X112504761Y-79309523D01*
X112409523Y-79404761D01*
X112266666Y-79452380D01*
X112171428Y-79452380D01*
X112028571Y-79404761D01*
X111980952Y-79357142D01*
X111980952Y-79023809D01*
X112171428Y-79023809D01*
X111409523Y-79452380D02*
X111504761Y-79404761D01*
X111552380Y-79309523D01*
X111552380Y-78452380D01*
X110600000Y-78785714D02*
X110600000Y-79452380D01*
X111028571Y-78785714D02*
X111028571Y-79309523D01*
X110980952Y-79404761D01*
X110885714Y-79452380D01*
X110742857Y-79452380D01*
X110647619Y-79404761D01*
X110600000Y-79357142D01*
X109742857Y-79404761D02*
X109838095Y-79452380D01*
X110028571Y-79452380D01*
X110123809Y-79404761D01*
X110171428Y-79309523D01*
X110171428Y-78928571D01*
X110123809Y-78833333D01*
X110028571Y-78785714D01*
X109838095Y-78785714D01*
X109742857Y-78833333D01*
X109695238Y-78928571D01*
X109695238Y-79023809D01*
X110171428Y-79119047D01*
X108171428Y-78928571D02*
X108028571Y-78976190D01*
X107980952Y-79023809D01*
X107933333Y-79119047D01*
X107933333Y-79261904D01*
X107980952Y-79357142D01*
X108028571Y-79404761D01*
X108123809Y-79452380D01*
X108504761Y-79452380D01*
X108504761Y-78452380D01*
X108171428Y-78452380D01*
X108076190Y-78500000D01*
X108028571Y-78547619D01*
X107980952Y-78642857D01*
X107980952Y-78738095D01*
X108028571Y-78833333D01*
X108076190Y-78880952D01*
X108171428Y-78928571D01*
X108504761Y-78928571D01*
X107123809Y-79404761D02*
X107219047Y-79452380D01*
X107409523Y-79452380D01*
X107504761Y-79404761D01*
X107552380Y-79309523D01*
X107552380Y-78928571D01*
X107504761Y-78833333D01*
X107409523Y-78785714D01*
X107219047Y-78785714D01*
X107123809Y-78833333D01*
X107076190Y-78928571D01*
X107076190Y-79023809D01*
X107552380Y-79119047D01*
X106790476Y-78785714D02*
X106409523Y-78785714D01*
X106647619Y-79452380D02*
X106647619Y-78595238D01*
X106600000Y-78500000D01*
X106504761Y-78452380D01*
X106409523Y-78452380D01*
X105933333Y-79452380D02*
X106028571Y-79404761D01*
X106076190Y-79357142D01*
X106123809Y-79261904D01*
X106123809Y-78976190D01*
X106076190Y-78880952D01*
X106028571Y-78833333D01*
X105933333Y-78785714D01*
X105790476Y-78785714D01*
X105695238Y-78833333D01*
X105647619Y-78880952D01*
X105600000Y-78976190D01*
X105600000Y-79261904D01*
X105647619Y-79357142D01*
X105695238Y-79404761D01*
X105790476Y-79452380D01*
X105933333Y-79452380D01*
X105171428Y-79452380D02*
X105171428Y-78785714D01*
X105171428Y-78976190D02*
X105123809Y-78880952D01*
X105076190Y-78833333D01*
X104980952Y-78785714D01*
X104885714Y-78785714D01*
X104171428Y-79404761D02*
X104266666Y-79452380D01*
X104457142Y-79452380D01*
X104552380Y-79404761D01*
X104600000Y-79309523D01*
X104600000Y-78928571D01*
X104552380Y-78833333D01*
X104457142Y-78785714D01*
X104266666Y-78785714D01*
X104171428Y-78833333D01*
X104123809Y-78928571D01*
X104123809Y-79023809D01*
X104600000Y-79119047D01*
X102980952Y-79404761D02*
X102838095Y-79452380D01*
X102600000Y-79452380D01*
X102504761Y-79404761D01*
X102457142Y-79357142D01*
X102409523Y-79261904D01*
X102409523Y-79166666D01*
X102457142Y-79071428D01*
X102504761Y-79023809D01*
X102600000Y-78976190D01*
X102790476Y-78928571D01*
X102885714Y-78880952D01*
X102933333Y-78833333D01*
X102980952Y-78738095D01*
X102980952Y-78642857D01*
X102933333Y-78547619D01*
X102885714Y-78500000D01*
X102790476Y-78452380D01*
X102552380Y-78452380D01*
X102409523Y-78500000D01*
X101838095Y-79452380D02*
X101933333Y-79404761D01*
X101980952Y-79357142D01*
X102028571Y-79261904D01*
X102028571Y-78976190D01*
X101980952Y-78880952D01*
X101933333Y-78833333D01*
X101838095Y-78785714D01*
X101695238Y-78785714D01*
X101600000Y-78833333D01*
X101552380Y-78880952D01*
X101504761Y-78976190D01*
X101504761Y-79261904D01*
X101552380Y-79357142D01*
X101600000Y-79404761D01*
X101695238Y-79452380D01*
X101838095Y-79452380D01*
X100933333Y-79452380D02*
X101028571Y-79404761D01*
X101076190Y-79309523D01*
X101076190Y-78452380D01*
X100123809Y-79452380D02*
X100123809Y-78452380D01*
X100123809Y-79404761D02*
X100219047Y-79452380D01*
X100409523Y-79452380D01*
X100504761Y-79404761D01*
X100552380Y-79357142D01*
X100600000Y-79261904D01*
X100600000Y-78976190D01*
X100552380Y-78880952D01*
X100504761Y-78833333D01*
X100409523Y-78785714D01*
X100219047Y-78785714D01*
X100123809Y-78833333D01*
X99266666Y-79404761D02*
X99361904Y-79452380D01*
X99552380Y-79452380D01*
X99647619Y-79404761D01*
X99695238Y-79309523D01*
X99695238Y-78928571D01*
X99647619Y-78833333D01*
X99552380Y-78785714D01*
X99361904Y-78785714D01*
X99266666Y-78833333D01*
X99219047Y-78928571D01*
X99219047Y-79023809D01*
X99695238Y-79119047D01*
X98790476Y-79452380D02*
X98790476Y-78785714D01*
X98790476Y-78976190D02*
X98742857Y-78880952D01*
X98695238Y-78833333D01*
X98600000Y-78785714D01*
X98504761Y-78785714D01*
X78028571Y-78500000D02*
X78123809Y-78452380D01*
X78266666Y-78452380D01*
X78409523Y-78500000D01*
X78504761Y-78595238D01*
X78552380Y-78690476D01*
X78600000Y-78880952D01*
X78600000Y-79023809D01*
X78552380Y-79214285D01*
X78504761Y-79309523D01*
X78409523Y-79404761D01*
X78266666Y-79452380D01*
X78171428Y-79452380D01*
X78028571Y-79404761D01*
X77980952Y-79357142D01*
X77980952Y-79023809D01*
X78171428Y-79023809D01*
X77409523Y-79452380D02*
X77504761Y-79404761D01*
X77552380Y-79309523D01*
X77552380Y-78452380D01*
X76600000Y-78785714D02*
X76600000Y-79452380D01*
X77028571Y-78785714D02*
X77028571Y-79309523D01*
X76980952Y-79404761D01*
X76885714Y-79452380D01*
X76742857Y-79452380D01*
X76647619Y-79404761D01*
X76600000Y-79357142D01*
X75742857Y-79404761D02*
X75838095Y-79452380D01*
X76028571Y-79452380D01*
X76123809Y-79404761D01*
X76171428Y-79309523D01*
X76171428Y-78928571D01*
X76123809Y-78833333D01*
X76028571Y-78785714D01*
X75838095Y-78785714D01*
X75742857Y-78833333D01*
X75695238Y-78928571D01*
X75695238Y-79023809D01*
X76171428Y-79119047D01*
X74171428Y-78928571D02*
X74028571Y-78976190D01*
X73980952Y-79023809D01*
X73933333Y-79119047D01*
X73933333Y-79261904D01*
X73980952Y-79357142D01*
X74028571Y-79404761D01*
X74123809Y-79452380D01*
X74504761Y-79452380D01*
X74504761Y-78452380D01*
X74171428Y-78452380D01*
X74076190Y-78500000D01*
X74028571Y-78547619D01*
X73980952Y-78642857D01*
X73980952Y-78738095D01*
X74028571Y-78833333D01*
X74076190Y-78880952D01*
X74171428Y-78928571D01*
X74504761Y-78928571D01*
X73123809Y-79404761D02*
X73219047Y-79452380D01*
X73409523Y-79452380D01*
X73504761Y-79404761D01*
X73552380Y-79309523D01*
X73552380Y-78928571D01*
X73504761Y-78833333D01*
X73409523Y-78785714D01*
X73219047Y-78785714D01*
X73123809Y-78833333D01*
X73076190Y-78928571D01*
X73076190Y-79023809D01*
X73552380Y-79119047D01*
X72790476Y-78785714D02*
X72409523Y-78785714D01*
X72647619Y-79452380D02*
X72647619Y-78595238D01*
X72600000Y-78500000D01*
X72504761Y-78452380D01*
X72409523Y-78452380D01*
X71933333Y-79452380D02*
X72028571Y-79404761D01*
X72076190Y-79357142D01*
X72123809Y-79261904D01*
X72123809Y-78976190D01*
X72076190Y-78880952D01*
X72028571Y-78833333D01*
X71933333Y-78785714D01*
X71790476Y-78785714D01*
X71695238Y-78833333D01*
X71647619Y-78880952D01*
X71600000Y-78976190D01*
X71600000Y-79261904D01*
X71647619Y-79357142D01*
X71695238Y-79404761D01*
X71790476Y-79452380D01*
X71933333Y-79452380D01*
X71171428Y-79452380D02*
X71171428Y-78785714D01*
X71171428Y-78976190D02*
X71123809Y-78880952D01*
X71076190Y-78833333D01*
X70980952Y-78785714D01*
X70885714Y-78785714D01*
X70171428Y-79404761D02*
X70266666Y-79452380D01*
X70457142Y-79452380D01*
X70552380Y-79404761D01*
X70600000Y-79309523D01*
X70600000Y-78928571D01*
X70552380Y-78833333D01*
X70457142Y-78785714D01*
X70266666Y-78785714D01*
X70171428Y-78833333D01*
X70123809Y-78928571D01*
X70123809Y-79023809D01*
X70600000Y-79119047D01*
X68980952Y-79404761D02*
X68838095Y-79452380D01*
X68600000Y-79452380D01*
X68504761Y-79404761D01*
X68457142Y-79357142D01*
X68409523Y-79261904D01*
X68409523Y-79166666D01*
X68457142Y-79071428D01*
X68504761Y-79023809D01*
X68600000Y-78976190D01*
X68790476Y-78928571D01*
X68885714Y-78880952D01*
X68933333Y-78833333D01*
X68980952Y-78738095D01*
X68980952Y-78642857D01*
X68933333Y-78547619D01*
X68885714Y-78500000D01*
X68790476Y-78452380D01*
X68552380Y-78452380D01*
X68409523Y-78500000D01*
X67838095Y-79452380D02*
X67933333Y-79404761D01*
X67980952Y-79357142D01*
X68028571Y-79261904D01*
X68028571Y-78976190D01*
X67980952Y-78880952D01*
X67933333Y-78833333D01*
X67838095Y-78785714D01*
X67695238Y-78785714D01*
X67600000Y-78833333D01*
X67552380Y-78880952D01*
X67504761Y-78976190D01*
X67504761Y-79261904D01*
X67552380Y-79357142D01*
X67600000Y-79404761D01*
X67695238Y-79452380D01*
X67838095Y-79452380D01*
X66933333Y-79452380D02*
X67028571Y-79404761D01*
X67076190Y-79309523D01*
X67076190Y-78452380D01*
X66123809Y-79452380D02*
X66123809Y-78452380D01*
X66123809Y-79404761D02*
X66219047Y-79452380D01*
X66409523Y-79452380D01*
X66504761Y-79404761D01*
X66552380Y-79357142D01*
X66600000Y-79261904D01*
X66600000Y-78976190D01*
X66552380Y-78880952D01*
X66504761Y-78833333D01*
X66409523Y-78785714D01*
X66219047Y-78785714D01*
X66123809Y-78833333D01*
X65266666Y-79404761D02*
X65361904Y-79452380D01*
X65552380Y-79452380D01*
X65647619Y-79404761D01*
X65695238Y-79309523D01*
X65695238Y-78928571D01*
X65647619Y-78833333D01*
X65552380Y-78785714D01*
X65361904Y-78785714D01*
X65266666Y-78833333D01*
X65219047Y-78928571D01*
X65219047Y-79023809D01*
X65695238Y-79119047D01*
X64790476Y-79452380D02*
X64790476Y-78785714D01*
X64790476Y-78976190D02*
X64742857Y-78880952D01*
X64695238Y-78833333D01*
X64600000Y-78785714D01*
X64504761Y-78785714D01*
X112028571Y-44500000D02*
X112123809Y-44452380D01*
X112266666Y-44452380D01*
X112409523Y-44500000D01*
X112504761Y-44595238D01*
X112552380Y-44690476D01*
X112600000Y-44880952D01*
X112600000Y-45023809D01*
X112552380Y-45214285D01*
X112504761Y-45309523D01*
X112409523Y-45404761D01*
X112266666Y-45452380D01*
X112171428Y-45452380D01*
X112028571Y-45404761D01*
X111980952Y-45357142D01*
X111980952Y-45023809D01*
X112171428Y-45023809D01*
X111409523Y-45452380D02*
X111504761Y-45404761D01*
X111552380Y-45309523D01*
X111552380Y-44452380D01*
X110600000Y-44785714D02*
X110600000Y-45452380D01*
X111028571Y-44785714D02*
X111028571Y-45309523D01*
X110980952Y-45404761D01*
X110885714Y-45452380D01*
X110742857Y-45452380D01*
X110647619Y-45404761D01*
X110600000Y-45357142D01*
X109742857Y-45404761D02*
X109838095Y-45452380D01*
X110028571Y-45452380D01*
X110123809Y-45404761D01*
X110171428Y-45309523D01*
X110171428Y-44928571D01*
X110123809Y-44833333D01*
X110028571Y-44785714D01*
X109838095Y-44785714D01*
X109742857Y-44833333D01*
X109695238Y-44928571D01*
X109695238Y-45023809D01*
X110171428Y-45119047D01*
X108171428Y-44928571D02*
X108028571Y-44976190D01*
X107980952Y-45023809D01*
X107933333Y-45119047D01*
X107933333Y-45261904D01*
X107980952Y-45357142D01*
X108028571Y-45404761D01*
X108123809Y-45452380D01*
X108504761Y-45452380D01*
X108504761Y-44452380D01*
X108171428Y-44452380D01*
X108076190Y-44500000D01*
X108028571Y-44547619D01*
X107980952Y-44642857D01*
X107980952Y-44738095D01*
X108028571Y-44833333D01*
X108076190Y-44880952D01*
X108171428Y-44928571D01*
X108504761Y-44928571D01*
X107123809Y-45404761D02*
X107219047Y-45452380D01*
X107409523Y-45452380D01*
X107504761Y-45404761D01*
X107552380Y-45309523D01*
X107552380Y-44928571D01*
X107504761Y-44833333D01*
X107409523Y-44785714D01*
X107219047Y-44785714D01*
X107123809Y-44833333D01*
X107076190Y-44928571D01*
X107076190Y-45023809D01*
X107552380Y-45119047D01*
X106790476Y-44785714D02*
X106409523Y-44785714D01*
X106647619Y-45452380D02*
X106647619Y-44595238D01*
X106600000Y-44500000D01*
X106504761Y-44452380D01*
X106409523Y-44452380D01*
X105933333Y-45452380D02*
X106028571Y-45404761D01*
X106076190Y-45357142D01*
X106123809Y-45261904D01*
X106123809Y-44976190D01*
X106076190Y-44880952D01*
X106028571Y-44833333D01*
X105933333Y-44785714D01*
X105790476Y-44785714D01*
X105695238Y-44833333D01*
X105647619Y-44880952D01*
X105600000Y-44976190D01*
X105600000Y-45261904D01*
X105647619Y-45357142D01*
X105695238Y-45404761D01*
X105790476Y-45452380D01*
X105933333Y-45452380D01*
X105171428Y-45452380D02*
X105171428Y-44785714D01*
X105171428Y-44976190D02*
X105123809Y-44880952D01*
X105076190Y-44833333D01*
X104980952Y-44785714D01*
X104885714Y-44785714D01*
X104171428Y-45404761D02*
X104266666Y-45452380D01*
X104457142Y-45452380D01*
X104552380Y-45404761D01*
X104600000Y-45309523D01*
X104600000Y-44928571D01*
X104552380Y-44833333D01*
X104457142Y-44785714D01*
X104266666Y-44785714D01*
X104171428Y-44833333D01*
X104123809Y-44928571D01*
X104123809Y-45023809D01*
X104600000Y-45119047D01*
X102980952Y-45404761D02*
X102838095Y-45452380D01*
X102600000Y-45452380D01*
X102504761Y-45404761D01*
X102457142Y-45357142D01*
X102409523Y-45261904D01*
X102409523Y-45166666D01*
X102457142Y-45071428D01*
X102504761Y-45023809D01*
X102600000Y-44976190D01*
X102790476Y-44928571D01*
X102885714Y-44880952D01*
X102933333Y-44833333D01*
X102980952Y-44738095D01*
X102980952Y-44642857D01*
X102933333Y-44547619D01*
X102885714Y-44500000D01*
X102790476Y-44452380D01*
X102552380Y-44452380D01*
X102409523Y-44500000D01*
X101838095Y-45452380D02*
X101933333Y-45404761D01*
X101980952Y-45357142D01*
X102028571Y-45261904D01*
X102028571Y-44976190D01*
X101980952Y-44880952D01*
X101933333Y-44833333D01*
X101838095Y-44785714D01*
X101695238Y-44785714D01*
X101600000Y-44833333D01*
X101552380Y-44880952D01*
X101504761Y-44976190D01*
X101504761Y-45261904D01*
X101552380Y-45357142D01*
X101600000Y-45404761D01*
X101695238Y-45452380D01*
X101838095Y-45452380D01*
X100933333Y-45452380D02*
X101028571Y-45404761D01*
X101076190Y-45309523D01*
X101076190Y-44452380D01*
X100123809Y-45452380D02*
X100123809Y-44452380D01*
X100123809Y-45404761D02*
X100219047Y-45452380D01*
X100409523Y-45452380D01*
X100504761Y-45404761D01*
X100552380Y-45357142D01*
X100600000Y-45261904D01*
X100600000Y-44976190D01*
X100552380Y-44880952D01*
X100504761Y-44833333D01*
X100409523Y-44785714D01*
X100219047Y-44785714D01*
X100123809Y-44833333D01*
X99266666Y-45404761D02*
X99361904Y-45452380D01*
X99552380Y-45452380D01*
X99647619Y-45404761D01*
X99695238Y-45309523D01*
X99695238Y-44928571D01*
X99647619Y-44833333D01*
X99552380Y-44785714D01*
X99361904Y-44785714D01*
X99266666Y-44833333D01*
X99219047Y-44928571D01*
X99219047Y-45023809D01*
X99695238Y-45119047D01*
X98790476Y-45452380D02*
X98790476Y-44785714D01*
X98790476Y-44976190D02*
X98742857Y-44880952D01*
X98695238Y-44833333D01*
X98600000Y-44785714D01*
X98504761Y-44785714D01*
X78028571Y-44500000D02*
X78123809Y-44452380D01*
X78266666Y-44452380D01*
X78409523Y-44500000D01*
X78504761Y-44595238D01*
X78552380Y-44690476D01*
X78600000Y-44880952D01*
X78600000Y-45023809D01*
X78552380Y-45214285D01*
X78504761Y-45309523D01*
X78409523Y-45404761D01*
X78266666Y-45452380D01*
X78171428Y-45452380D01*
X78028571Y-45404761D01*
X77980952Y-45357142D01*
X77980952Y-45023809D01*
X78171428Y-45023809D01*
X77409523Y-45452380D02*
X77504761Y-45404761D01*
X77552380Y-45309523D01*
X77552380Y-44452380D01*
X76600000Y-44785714D02*
X76600000Y-45452380D01*
X77028571Y-44785714D02*
X77028571Y-45309523D01*
X76980952Y-45404761D01*
X76885714Y-45452380D01*
X76742857Y-45452380D01*
X76647619Y-45404761D01*
X76600000Y-45357142D01*
X75742857Y-45404761D02*
X75838095Y-45452380D01*
X76028571Y-45452380D01*
X76123809Y-45404761D01*
X76171428Y-45309523D01*
X76171428Y-44928571D01*
X76123809Y-44833333D01*
X76028571Y-44785714D01*
X75838095Y-44785714D01*
X75742857Y-44833333D01*
X75695238Y-44928571D01*
X75695238Y-45023809D01*
X76171428Y-45119047D01*
X74171428Y-44928571D02*
X74028571Y-44976190D01*
X73980952Y-45023809D01*
X73933333Y-45119047D01*
X73933333Y-45261904D01*
X73980952Y-45357142D01*
X74028571Y-45404761D01*
X74123809Y-45452380D01*
X74504761Y-45452380D01*
X74504761Y-44452380D01*
X74171428Y-44452380D01*
X74076190Y-44500000D01*
X74028571Y-44547619D01*
X73980952Y-44642857D01*
X73980952Y-44738095D01*
X74028571Y-44833333D01*
X74076190Y-44880952D01*
X74171428Y-44928571D01*
X74504761Y-44928571D01*
X73123809Y-45404761D02*
X73219047Y-45452380D01*
X73409523Y-45452380D01*
X73504761Y-45404761D01*
X73552380Y-45309523D01*
X73552380Y-44928571D01*
X73504761Y-44833333D01*
X73409523Y-44785714D01*
X73219047Y-44785714D01*
X73123809Y-44833333D01*
X73076190Y-44928571D01*
X73076190Y-45023809D01*
X73552380Y-45119047D01*
X72790476Y-44785714D02*
X72409523Y-44785714D01*
X72647619Y-45452380D02*
X72647619Y-44595238D01*
X72600000Y-44500000D01*
X72504761Y-44452380D01*
X72409523Y-44452380D01*
X71933333Y-45452380D02*
X72028571Y-45404761D01*
X72076190Y-45357142D01*
X72123809Y-45261904D01*
X72123809Y-44976190D01*
X72076190Y-44880952D01*
X72028571Y-44833333D01*
X71933333Y-44785714D01*
X71790476Y-44785714D01*
X71695238Y-44833333D01*
X71647619Y-44880952D01*
X71600000Y-44976190D01*
X71600000Y-45261904D01*
X71647619Y-45357142D01*
X71695238Y-45404761D01*
X71790476Y-45452380D01*
X71933333Y-45452380D01*
X71171428Y-45452380D02*
X71171428Y-44785714D01*
X71171428Y-44976190D02*
X71123809Y-44880952D01*
X71076190Y-44833333D01*
X70980952Y-44785714D01*
X70885714Y-44785714D01*
X70171428Y-45404761D02*
X70266666Y-45452380D01*
X70457142Y-45452380D01*
X70552380Y-45404761D01*
X70600000Y-45309523D01*
X70600000Y-44928571D01*
X70552380Y-44833333D01*
X70457142Y-44785714D01*
X70266666Y-44785714D01*
X70171428Y-44833333D01*
X70123809Y-44928571D01*
X70123809Y-45023809D01*
X70600000Y-45119047D01*
X68980952Y-45404761D02*
X68838095Y-45452380D01*
X68600000Y-45452380D01*
X68504761Y-45404761D01*
X68457142Y-45357142D01*
X68409523Y-45261904D01*
X68409523Y-45166666D01*
X68457142Y-45071428D01*
X68504761Y-45023809D01*
X68600000Y-44976190D01*
X68790476Y-44928571D01*
X68885714Y-44880952D01*
X68933333Y-44833333D01*
X68980952Y-44738095D01*
X68980952Y-44642857D01*
X68933333Y-44547619D01*
X68885714Y-44500000D01*
X68790476Y-44452380D01*
X68552380Y-44452380D01*
X68409523Y-44500000D01*
X67838095Y-45452380D02*
X67933333Y-45404761D01*
X67980952Y-45357142D01*
X68028571Y-45261904D01*
X68028571Y-44976190D01*
X67980952Y-44880952D01*
X67933333Y-44833333D01*
X67838095Y-44785714D01*
X67695238Y-44785714D01*
X67600000Y-44833333D01*
X67552380Y-44880952D01*
X67504761Y-44976190D01*
X67504761Y-45261904D01*
X67552380Y-45357142D01*
X67600000Y-45404761D01*
X67695238Y-45452380D01*
X67838095Y-45452380D01*
X66933333Y-45452380D02*
X67028571Y-45404761D01*
X67076190Y-45309523D01*
X67076190Y-44452380D01*
X66123809Y-45452380D02*
X66123809Y-44452380D01*
X66123809Y-45404761D02*
X66219047Y-45452380D01*
X66409523Y-45452380D01*
X66504761Y-45404761D01*
X66552380Y-45357142D01*
X66600000Y-45261904D01*
X66600000Y-44976190D01*
X66552380Y-44880952D01*
X66504761Y-44833333D01*
X66409523Y-44785714D01*
X66219047Y-44785714D01*
X66123809Y-44833333D01*
X65266666Y-45404761D02*
X65361904Y-45452380D01*
X65552380Y-45452380D01*
X65647619Y-45404761D01*
X65695238Y-45309523D01*
X65695238Y-44928571D01*
X65647619Y-44833333D01*
X65552380Y-44785714D01*
X65361904Y-44785714D01*
X65266666Y-44833333D01*
X65219047Y-44928571D01*
X65219047Y-45023809D01*
X65695238Y-45119047D01*
X64790476Y-45452380D02*
X64790476Y-44785714D01*
X64790476Y-44976190D02*
X64742857Y-44880952D01*
X64695238Y-44833333D01*
X64600000Y-44785714D01*
X64504761Y-44785714D01*
D11*
%TO.C,IC14*%
X111844523Y-90574523D02*
X111844523Y-89304523D01*
X110514047Y-90453571D02*
X110574523Y-90514047D01*
X110755952Y-90574523D01*
X110876904Y-90574523D01*
X111058333Y-90514047D01*
X111179285Y-90393095D01*
X111239761Y-90272142D01*
X111300238Y-90030238D01*
X111300238Y-89848809D01*
X111239761Y-89606904D01*
X111179285Y-89485952D01*
X111058333Y-89365000D01*
X110876904Y-89304523D01*
X110755952Y-89304523D01*
X110574523Y-89365000D01*
X110514047Y-89425476D01*
X109304523Y-90574523D02*
X110030238Y-90574523D01*
X109667380Y-90574523D02*
X109667380Y-89304523D01*
X109788333Y-89485952D01*
X109909285Y-89606904D01*
X110030238Y-89667380D01*
X108215952Y-89727857D02*
X108215952Y-90574523D01*
X108518333Y-89244047D02*
X108820714Y-90151190D01*
X108034523Y-90151190D01*
%TO.C,IC11*%
X77844523Y-90574523D02*
X77844523Y-89304523D01*
X76514047Y-90453571D02*
X76574523Y-90514047D01*
X76755952Y-90574523D01*
X76876904Y-90574523D01*
X77058333Y-90514047D01*
X77179285Y-90393095D01*
X77239761Y-90272142D01*
X77300238Y-90030238D01*
X77300238Y-89848809D01*
X77239761Y-89606904D01*
X77179285Y-89485952D01*
X77058333Y-89365000D01*
X76876904Y-89304523D01*
X76755952Y-89304523D01*
X76574523Y-89365000D01*
X76514047Y-89425476D01*
X75304523Y-90574523D02*
X76030238Y-90574523D01*
X75667380Y-90574523D02*
X75667380Y-89304523D01*
X75788333Y-89485952D01*
X75909285Y-89606904D01*
X76030238Y-89667380D01*
X74095000Y-90574523D02*
X74820714Y-90574523D01*
X74457857Y-90574523D02*
X74457857Y-89304523D01*
X74578809Y-89485952D01*
X74699761Y-89606904D01*
X74820714Y-89667380D01*
%TO.C,IC5*%
X111239761Y-56574523D02*
X111239761Y-55304523D01*
X109909285Y-56453571D02*
X109969761Y-56514047D01*
X110151190Y-56574523D01*
X110272142Y-56574523D01*
X110453571Y-56514047D01*
X110574523Y-56393095D01*
X110635000Y-56272142D01*
X110695476Y-56030238D01*
X110695476Y-55848809D01*
X110635000Y-55606904D01*
X110574523Y-55485952D01*
X110453571Y-55365000D01*
X110272142Y-55304523D01*
X110151190Y-55304523D01*
X109969761Y-55365000D01*
X109909285Y-55425476D01*
X108760238Y-55304523D02*
X109365000Y-55304523D01*
X109425476Y-55909285D01*
X109365000Y-55848809D01*
X109244047Y-55788333D01*
X108941666Y-55788333D01*
X108820714Y-55848809D01*
X108760238Y-55909285D01*
X108699761Y-56030238D01*
X108699761Y-56332619D01*
X108760238Y-56453571D01*
X108820714Y-56514047D01*
X108941666Y-56574523D01*
X109244047Y-56574523D01*
X109365000Y-56514047D01*
X109425476Y-56453571D01*
%TO.C,IC2*%
X77239761Y-56574523D02*
X77239761Y-55304523D01*
X75909285Y-56453571D02*
X75969761Y-56514047D01*
X76151190Y-56574523D01*
X76272142Y-56574523D01*
X76453571Y-56514047D01*
X76574523Y-56393095D01*
X76635000Y-56272142D01*
X76695476Y-56030238D01*
X76695476Y-55848809D01*
X76635000Y-55606904D01*
X76574523Y-55485952D01*
X76453571Y-55365000D01*
X76272142Y-55304523D01*
X76151190Y-55304523D01*
X75969761Y-55365000D01*
X75909285Y-55425476D01*
X75425476Y-55425476D02*
X75365000Y-55365000D01*
X75244047Y-55304523D01*
X74941666Y-55304523D01*
X74820714Y-55365000D01*
X74760238Y-55425476D01*
X74699761Y-55546428D01*
X74699761Y-55667380D01*
X74760238Y-55848809D01*
X75485952Y-56574523D01*
X74699761Y-56574523D01*
D12*
%TO.C,IC14*%
X96900000Y-92500000D02*
G75*
G03*
X96800000Y-92500000I-50000J0D01*
G01*
X96800000Y-92500000D02*
G75*
G03*
X96900000Y-92500000I50000J0D01*
G01*
D13*
X97450000Y-102550000D02*
X122550000Y-102550000D01*
X122550000Y-77450000D02*
X97450000Y-77450000D01*
X122550000Y-102550000D02*
X122550000Y-77450000D01*
D12*
X96800000Y-92500000D02*
X96800000Y-92500000D01*
X96900000Y-92500000D02*
X96900000Y-92500000D01*
D13*
X97450000Y-77450000D02*
X97450000Y-102550000D01*
D12*
%TO.C,IC11*%
X62900000Y-92500000D02*
G75*
G03*
X62800000Y-92500000I-50000J0D01*
G01*
X62800000Y-92500000D02*
G75*
G03*
X62900000Y-92500000I50000J0D01*
G01*
D13*
X63450000Y-102550000D02*
X88550000Y-102550000D01*
X88550000Y-77450000D02*
X63450000Y-77450000D01*
X88550000Y-102550000D02*
X88550000Y-77450000D01*
D12*
X62800000Y-92500000D02*
X62800000Y-92500000D01*
X62900000Y-92500000D02*
X62900000Y-92500000D01*
D13*
X63450000Y-77450000D02*
X63450000Y-102550000D01*
D12*
%TO.C,IC5*%
X96900000Y-58500000D02*
G75*
G03*
X96800000Y-58500000I-50000J0D01*
G01*
X96800000Y-58500000D02*
G75*
G03*
X96900000Y-58500000I50000J0D01*
G01*
D13*
X97450000Y-68550000D02*
X122550000Y-68550000D01*
X122550000Y-43450000D02*
X97450000Y-43450000D01*
X122550000Y-68550000D02*
X122550000Y-43450000D01*
D12*
X96800000Y-58500000D02*
X96800000Y-58500000D01*
X96900000Y-58500000D02*
X96900000Y-58500000D01*
D13*
X97450000Y-43450000D02*
X97450000Y-68550000D01*
D12*
%TO.C,IC2*%
X62900000Y-58500000D02*
G75*
G03*
X62800000Y-58500000I-50000J0D01*
G01*
X62800000Y-58500000D02*
G75*
G03*
X62900000Y-58500000I50000J0D01*
G01*
D13*
X63450000Y-68550000D02*
X88550000Y-68550000D01*
X88550000Y-43450000D02*
X63450000Y-43450000D01*
X88550000Y-68550000D02*
X88550000Y-43450000D01*
D12*
X62800000Y-58500000D02*
X62800000Y-58500000D01*
X62900000Y-58500000D02*
X62900000Y-58500000D01*
D13*
X63450000Y-43450000D02*
X63450000Y-68550000D01*
%TD*%
M02*
