%TF.GenerationSoftware,KiCad,Pcbnew,(6.0.4)*%
%TF.CreationDate,2022-12-06T00:22:49+09:00*%
%TF.ProjectId,gps-teseo-p,6770732d-7465-4736-956f-2d702e6b6963,rev?*%
%TF.SameCoordinates,Original*%
%TF.FileFunction,Copper,L4,Bot*%
%TF.FilePolarity,Positive*%
%FSLAX46Y46*%
G04 Gerber Fmt 4.6, Leading zero omitted, Abs format (unit mm)*
G04 Created by KiCad (PCBNEW (6.0.4)) date 2022-12-06 00:22:49*
%MOMM*%
%LPD*%
G01*
G04 APERTURE LIST*
%TA.AperFunction,ComponentPad*%
%ADD10C,3.000000*%
%TD*%
%TA.AperFunction,ViaPad*%
%ADD11C,0.800000*%
%TD*%
G04 APERTURE END LIST*
D10*
%TO.P,IC14,1,1*%
%TO.N,Net-(C1-Pad1)*%
X110000000Y-92500000D03*
%TD*%
%TO.P,IC11,1,1*%
%TO.N,Net-(C1-Pad1)*%
X76000000Y-92500000D03*
%TD*%
%TO.P,IC5,1,1*%
%TO.N,Net-(C1-Pad1)*%
X110000000Y-58500000D03*
%TD*%
%TO.P,IC2,1,1*%
%TO.N,Net-(C1-Pad1)*%
X76000000Y-58500000D03*
%TD*%
D11*
%TO.N,GND2*%
X98949162Y-75981298D03*
X108500000Y-90200000D03*
X104000000Y-79000000D03*
X124800000Y-86400000D03*
X107300000Y-92500000D03*
X113800000Y-80400000D03*
X114000000Y-76000000D03*
X108600000Y-96100000D03*
X123600000Y-84800000D03*
X111300000Y-96200000D03*
X104000000Y-104000000D03*
X103800000Y-87000000D03*
X118000000Y-92500000D03*
X120000000Y-89000000D03*
X99000000Y-104000000D03*
X96000000Y-94000000D03*
X124000000Y-104000000D03*
X108700000Y-100200000D03*
X111400000Y-97600000D03*
X109000000Y-79000000D03*
X116000000Y-90500000D03*
X124000000Y-76000000D03*
X116700000Y-104800000D03*
X124000000Y-102200000D03*
X98951204Y-83995915D03*
X112500000Y-92700000D03*
X107600000Y-93800000D03*
X111400000Y-90200000D03*
X96000000Y-99000000D03*
X118000000Y-98400000D03*
X108000000Y-94800000D03*
X118400000Y-102100000D03*
X119800000Y-103600000D03*
X115000000Y-84800000D03*
X122000000Y-89000000D03*
X113500000Y-95600000D03*
X104000000Y-76000000D03*
X119200000Y-97200000D03*
X108600000Y-103600000D03*
X114400000Y-97200000D03*
X115400000Y-104800000D03*
X114400000Y-101400000D03*
X99000000Y-89000000D03*
X108947119Y-83995915D03*
X124000000Y-93000000D03*
X116000000Y-92500000D03*
X124000000Y-89000000D03*
X111400000Y-98900000D03*
X121500000Y-104000000D03*
X120400000Y-78400000D03*
X120000000Y-93000000D03*
X118000000Y-101000000D03*
X99000000Y-99000000D03*
X118000000Y-99800000D03*
X113800000Y-78400000D03*
X103949162Y-88993872D03*
X111900000Y-93800000D03*
X109800000Y-104800000D03*
X108700000Y-101400000D03*
X112400000Y-104800000D03*
X124000000Y-100400000D03*
X118000000Y-90500000D03*
X124200000Y-78400000D03*
X107700000Y-91200000D03*
X112100000Y-91400000D03*
X119000000Y-76000000D03*
X123600000Y-97200000D03*
X104000000Y-99000000D03*
X114200000Y-104800000D03*
X104000000Y-94000000D03*
X99000000Y-79000000D03*
X96000000Y-89000000D03*
X114400000Y-100200000D03*
X111300000Y-94900000D03*
X122000000Y-93000000D03*
X117000000Y-102100000D03*
X108947119Y-88993872D03*
X116800000Y-78400000D03*
X96000000Y-104000000D03*
X114400000Y-102600000D03*
X114000000Y-90500000D03*
X108700000Y-97400000D03*
X111400000Y-100100000D03*
X124200000Y-80800000D03*
X113600000Y-98600000D03*
X109000000Y-76000000D03*
X99000000Y-94000000D03*
X109900000Y-89900000D03*
X108700000Y-98800000D03*
X116900000Y-97200000D03*
X114000000Y-92500000D03*
X64949162Y-75981298D03*
X74500000Y-90200000D03*
X70000000Y-79000000D03*
X90800000Y-86400000D03*
X73300000Y-92500000D03*
X79800000Y-80400000D03*
X80000000Y-76000000D03*
X74600000Y-96100000D03*
X89600000Y-84800000D03*
X77300000Y-96200000D03*
X70000000Y-104000000D03*
X69800000Y-87000000D03*
X84000000Y-92500000D03*
X86000000Y-89000000D03*
X65000000Y-104000000D03*
X62000000Y-94000000D03*
X90000000Y-104000000D03*
X74700000Y-100200000D03*
X77400000Y-97600000D03*
X75000000Y-79000000D03*
X82000000Y-90500000D03*
X90000000Y-76000000D03*
X82700000Y-104800000D03*
X90000000Y-102200000D03*
X64951204Y-83995915D03*
X78500000Y-92700000D03*
X73600000Y-93800000D03*
X77400000Y-90200000D03*
X62000000Y-99000000D03*
X84000000Y-98400000D03*
X74000000Y-94800000D03*
X84400000Y-102100000D03*
X85800000Y-103600000D03*
X81000000Y-84800000D03*
X88000000Y-89000000D03*
X79500000Y-95600000D03*
X70000000Y-76000000D03*
X85200000Y-97200000D03*
X74600000Y-103600000D03*
X80400000Y-97200000D03*
X81400000Y-104800000D03*
X80400000Y-101400000D03*
X65000000Y-89000000D03*
X74947119Y-83995915D03*
X90000000Y-93000000D03*
X82000000Y-92500000D03*
X90000000Y-89000000D03*
X77400000Y-98900000D03*
X87500000Y-104000000D03*
X86400000Y-78400000D03*
X86000000Y-93000000D03*
X84000000Y-101000000D03*
X65000000Y-99000000D03*
X84000000Y-99800000D03*
X79800000Y-78400000D03*
X69949162Y-88993872D03*
X77900000Y-93800000D03*
X75800000Y-104800000D03*
X74700000Y-101400000D03*
X78400000Y-104800000D03*
X90000000Y-100400000D03*
X84000000Y-90500000D03*
X90200000Y-78400000D03*
X73700000Y-91200000D03*
X78100000Y-91400000D03*
X85000000Y-76000000D03*
X89600000Y-97200000D03*
X70000000Y-99000000D03*
X80200000Y-104800000D03*
X70000000Y-94000000D03*
X65000000Y-79000000D03*
X62000000Y-89000000D03*
X80400000Y-100200000D03*
X77300000Y-94900000D03*
X88000000Y-93000000D03*
X83000000Y-102100000D03*
X74947119Y-88993872D03*
X82800000Y-78400000D03*
X62000000Y-104000000D03*
X80400000Y-102600000D03*
X80000000Y-90500000D03*
X74700000Y-97400000D03*
X77400000Y-100100000D03*
X90200000Y-80800000D03*
X79600000Y-98600000D03*
X75000000Y-76000000D03*
X65000000Y-94000000D03*
X75900000Y-89900000D03*
X74700000Y-98800000D03*
X82900000Y-97200000D03*
X80000000Y-92500000D03*
X98949162Y-41981298D03*
X108500000Y-56200000D03*
X104000000Y-45000000D03*
X124800000Y-52400000D03*
X107300000Y-58500000D03*
X113800000Y-46400000D03*
X114000000Y-42000000D03*
X108600000Y-62100000D03*
X123600000Y-50800000D03*
X111300000Y-62200000D03*
X104000000Y-70000000D03*
X103800000Y-53000000D03*
X118000000Y-58500000D03*
X120000000Y-55000000D03*
X99000000Y-70000000D03*
X96000000Y-60000000D03*
X124000000Y-70000000D03*
X108700000Y-66200000D03*
X111400000Y-63600000D03*
X109000000Y-45000000D03*
X116000000Y-56500000D03*
X124000000Y-42000000D03*
X116700000Y-70800000D03*
X124000000Y-68200000D03*
X98951204Y-49995915D03*
X112500000Y-58700000D03*
X107600000Y-59800000D03*
X111400000Y-56200000D03*
X96000000Y-65000000D03*
X118000000Y-64400000D03*
X108000000Y-60800000D03*
X118400000Y-68100000D03*
X119800000Y-69600000D03*
X115000000Y-50800000D03*
X122000000Y-55000000D03*
X113500000Y-61600000D03*
X104000000Y-42000000D03*
X119200000Y-63200000D03*
X108600000Y-69600000D03*
X114400000Y-63200000D03*
X115400000Y-70800000D03*
X114400000Y-67400000D03*
X99000000Y-55000000D03*
X108947119Y-49995915D03*
X124000000Y-59000000D03*
X116000000Y-58500000D03*
X124000000Y-55000000D03*
X111400000Y-64900000D03*
X121500000Y-70000000D03*
X120400000Y-44400000D03*
X120000000Y-59000000D03*
X118000000Y-67000000D03*
X99000000Y-65000000D03*
X118000000Y-65800000D03*
X113800000Y-44400000D03*
X103949162Y-54993872D03*
X111900000Y-59800000D03*
X109800000Y-70800000D03*
X108700000Y-67400000D03*
X112400000Y-70800000D03*
X124000000Y-66400000D03*
X118000000Y-56500000D03*
X124200000Y-44400000D03*
X107700000Y-57200000D03*
X112100000Y-57400000D03*
X119000000Y-42000000D03*
X123600000Y-63200000D03*
X104000000Y-65000000D03*
X114200000Y-70800000D03*
X104000000Y-60000000D03*
X99000000Y-45000000D03*
X96000000Y-55000000D03*
X114400000Y-66200000D03*
X111300000Y-60900000D03*
X122000000Y-59000000D03*
X117000000Y-68100000D03*
X108947119Y-54993872D03*
X116800000Y-44400000D03*
X96000000Y-70000000D03*
X114400000Y-68600000D03*
X114000000Y-56500000D03*
X108700000Y-63400000D03*
X111400000Y-66100000D03*
X124200000Y-46800000D03*
X113600000Y-64600000D03*
X109000000Y-42000000D03*
X99000000Y-60000000D03*
X109900000Y-55900000D03*
X108700000Y-64800000D03*
X116900000Y-63200000D03*
X114000000Y-58500000D03*
X90200000Y-44400000D03*
X74700000Y-67400000D03*
X75800000Y-70800000D03*
X77900000Y-59800000D03*
X79800000Y-44400000D03*
X84000000Y-56500000D03*
X90000000Y-66400000D03*
X69949162Y-54993872D03*
X78400000Y-70800000D03*
X85000000Y-42000000D03*
X78100000Y-57400000D03*
X89600000Y-63200000D03*
X70000000Y-65000000D03*
X73700000Y-57200000D03*
X80200000Y-70800000D03*
X80400000Y-66200000D03*
X62000000Y-55000000D03*
X65000000Y-45000000D03*
X70000000Y-60000000D03*
X77300000Y-60900000D03*
X65000000Y-55000000D03*
X90000000Y-55000000D03*
X80400000Y-67400000D03*
X86000000Y-59000000D03*
X86400000Y-44400000D03*
X82000000Y-58500000D03*
X62000000Y-65000000D03*
X80400000Y-63200000D03*
X84000000Y-67000000D03*
X81000000Y-50800000D03*
X87500000Y-70000000D03*
X84400000Y-68100000D03*
X81400000Y-70800000D03*
X74000000Y-60800000D03*
X77400000Y-56200000D03*
X90000000Y-59000000D03*
X77400000Y-64900000D03*
X85200000Y-63200000D03*
X74947119Y-49995915D03*
X79500000Y-61600000D03*
X74600000Y-69600000D03*
X70000000Y-42000000D03*
X85800000Y-69600000D03*
X88000000Y-55000000D03*
X84000000Y-64400000D03*
X84000000Y-65800000D03*
X65000000Y-65000000D03*
X73600000Y-59800000D03*
X62000000Y-60000000D03*
X74600000Y-62100000D03*
X90800000Y-52400000D03*
X80000000Y-42000000D03*
X90000000Y-42000000D03*
X64949162Y-41981298D03*
X74500000Y-56200000D03*
X78500000Y-58700000D03*
X74700000Y-66200000D03*
X75000000Y-45000000D03*
X89600000Y-50800000D03*
X73300000Y-58500000D03*
X77400000Y-63600000D03*
X65000000Y-70000000D03*
X84000000Y-58500000D03*
X70000000Y-70000000D03*
X90000000Y-70000000D03*
X79800000Y-46400000D03*
X69800000Y-53000000D03*
X86000000Y-55000000D03*
X82700000Y-70800000D03*
X64951204Y-49995915D03*
X70000000Y-45000000D03*
X77300000Y-62200000D03*
X90000000Y-68200000D03*
X82000000Y-56500000D03*
X74947119Y-54993872D03*
X82800000Y-44400000D03*
X77400000Y-66100000D03*
X79600000Y-64600000D03*
X90200000Y-46800000D03*
X75900000Y-55900000D03*
X82900000Y-63200000D03*
X74700000Y-64800000D03*
X80400000Y-68600000D03*
X83000000Y-68100000D03*
X80000000Y-58500000D03*
X88000000Y-59000000D03*
X65000000Y-60000000D03*
X80000000Y-56500000D03*
X62000000Y-70000000D03*
X75000000Y-42000000D03*
X74700000Y-63400000D03*
%TD*%
%TA.AperFunction,Conductor*%
%TO.N,GND2*%
G36*
X91433621Y-40528502D02*
G01*
X91480114Y-40582158D01*
X91491500Y-40634500D01*
X91491500Y-71365500D01*
X91471498Y-71433621D01*
X91417842Y-71480114D01*
X91365500Y-71491500D01*
X60634500Y-71491500D01*
X60566379Y-71471498D01*
X60519886Y-71417842D01*
X60508500Y-71365500D01*
X60508500Y-58478918D01*
X73986917Y-58478918D01*
X74002682Y-58752320D01*
X74003507Y-58756525D01*
X74003508Y-58756533D01*
X74014127Y-58810657D01*
X74055405Y-59021053D01*
X74056792Y-59025103D01*
X74056793Y-59025108D01*
X74077605Y-59085895D01*
X74144112Y-59280144D01*
X74267160Y-59524799D01*
X74269586Y-59528328D01*
X74269589Y-59528334D01*
X74419843Y-59746953D01*
X74422274Y-59750490D01*
X74606582Y-59953043D01*
X74816675Y-60128707D01*
X74820316Y-60130991D01*
X75045024Y-60271951D01*
X75045028Y-60271953D01*
X75048664Y-60274234D01*
X75116544Y-60304883D01*
X75294345Y-60385164D01*
X75294349Y-60385166D01*
X75298257Y-60386930D01*
X75302377Y-60388150D01*
X75302376Y-60388150D01*
X75556723Y-60463491D01*
X75556727Y-60463492D01*
X75560836Y-60464709D01*
X75565070Y-60465357D01*
X75565075Y-60465358D01*
X75827298Y-60505483D01*
X75827300Y-60505483D01*
X75831540Y-60506132D01*
X75970912Y-60508322D01*
X76101071Y-60510367D01*
X76101077Y-60510367D01*
X76105362Y-60510434D01*
X76377235Y-60477534D01*
X76642127Y-60408041D01*
X76646087Y-60406401D01*
X76646092Y-60406399D01*
X76768631Y-60355641D01*
X76895136Y-60303241D01*
X77131582Y-60165073D01*
X77347089Y-59996094D01*
X77388809Y-59953043D01*
X77534686Y-59802509D01*
X77537669Y-59799431D01*
X77540202Y-59795983D01*
X77540206Y-59795978D01*
X77697257Y-59582178D01*
X77699795Y-59578723D01*
X77727154Y-59528334D01*
X77828418Y-59341830D01*
X77828419Y-59341828D01*
X77830468Y-59338054D01*
X77927269Y-59081877D01*
X77988407Y-58814933D01*
X78012751Y-58542161D01*
X78013193Y-58500000D01*
X77994567Y-58226778D01*
X77939032Y-57958612D01*
X77847617Y-57700465D01*
X77722013Y-57457112D01*
X77712040Y-57442921D01*
X77567008Y-57236562D01*
X77564545Y-57233057D01*
X77378125Y-57032445D01*
X77374810Y-57029731D01*
X77374806Y-57029728D01*
X77169523Y-56861706D01*
X77166205Y-56858990D01*
X76932704Y-56715901D01*
X76928768Y-56714173D01*
X76685873Y-56607549D01*
X76685869Y-56607548D01*
X76681945Y-56605825D01*
X76418566Y-56530800D01*
X76414324Y-56530196D01*
X76414318Y-56530195D01*
X76213834Y-56501662D01*
X76147443Y-56492213D01*
X76003589Y-56491460D01*
X75877877Y-56490802D01*
X75877871Y-56490802D01*
X75873591Y-56490780D01*
X75869347Y-56491339D01*
X75869343Y-56491339D01*
X75750302Y-56507011D01*
X75602078Y-56526525D01*
X75597938Y-56527658D01*
X75597936Y-56527658D01*
X75525008Y-56547609D01*
X75337928Y-56598788D01*
X75333980Y-56600472D01*
X75089982Y-56704546D01*
X75089978Y-56704548D01*
X75086030Y-56706232D01*
X75066125Y-56718145D01*
X74854725Y-56844664D01*
X74854721Y-56844667D01*
X74851043Y-56846868D01*
X74637318Y-57018094D01*
X74448808Y-57216742D01*
X74289002Y-57439136D01*
X74160857Y-57681161D01*
X74159385Y-57685184D01*
X74159383Y-57685188D01*
X74152314Y-57704506D01*
X74066743Y-57938337D01*
X74008404Y-58205907D01*
X73986917Y-58478918D01*
X60508500Y-58478918D01*
X60508500Y-40634500D01*
X60528502Y-40566379D01*
X60582158Y-40519886D01*
X60634500Y-40508500D01*
X91365500Y-40508500D01*
X91433621Y-40528502D01*
G37*
%TD.AperFunction*%
%TD*%
%TA.AperFunction,Conductor*%
%TO.N,GND2*%
G36*
X125433621Y-40528502D02*
G01*
X125480114Y-40582158D01*
X125491500Y-40634500D01*
X125491500Y-71365500D01*
X125471498Y-71433621D01*
X125417842Y-71480114D01*
X125365500Y-71491500D01*
X94634500Y-71491500D01*
X94566379Y-71471498D01*
X94519886Y-71417842D01*
X94508500Y-71365500D01*
X94508500Y-58478918D01*
X107986917Y-58478918D01*
X108002682Y-58752320D01*
X108003507Y-58756525D01*
X108003508Y-58756533D01*
X108014127Y-58810657D01*
X108055405Y-59021053D01*
X108056792Y-59025103D01*
X108056793Y-59025108D01*
X108077605Y-59085895D01*
X108144112Y-59280144D01*
X108267160Y-59524799D01*
X108269586Y-59528328D01*
X108269589Y-59528334D01*
X108419843Y-59746953D01*
X108422274Y-59750490D01*
X108606582Y-59953043D01*
X108816675Y-60128707D01*
X108820316Y-60130991D01*
X109045024Y-60271951D01*
X109045028Y-60271953D01*
X109048664Y-60274234D01*
X109116544Y-60304883D01*
X109294345Y-60385164D01*
X109294349Y-60385166D01*
X109298257Y-60386930D01*
X109302377Y-60388150D01*
X109302376Y-60388150D01*
X109556723Y-60463491D01*
X109556727Y-60463492D01*
X109560836Y-60464709D01*
X109565070Y-60465357D01*
X109565075Y-60465358D01*
X109827298Y-60505483D01*
X109827300Y-60505483D01*
X109831540Y-60506132D01*
X109970912Y-60508322D01*
X110101071Y-60510367D01*
X110101077Y-60510367D01*
X110105362Y-60510434D01*
X110377235Y-60477534D01*
X110642127Y-60408041D01*
X110646087Y-60406401D01*
X110646092Y-60406399D01*
X110768631Y-60355641D01*
X110895136Y-60303241D01*
X111131582Y-60165073D01*
X111347089Y-59996094D01*
X111388809Y-59953043D01*
X111534686Y-59802509D01*
X111537669Y-59799431D01*
X111540202Y-59795983D01*
X111540206Y-59795978D01*
X111697257Y-59582178D01*
X111699795Y-59578723D01*
X111727154Y-59528334D01*
X111828418Y-59341830D01*
X111828419Y-59341828D01*
X111830468Y-59338054D01*
X111927269Y-59081877D01*
X111988407Y-58814933D01*
X112012751Y-58542161D01*
X112013193Y-58500000D01*
X111994567Y-58226778D01*
X111939032Y-57958612D01*
X111847617Y-57700465D01*
X111722013Y-57457112D01*
X111712040Y-57442921D01*
X111567008Y-57236562D01*
X111564545Y-57233057D01*
X111378125Y-57032445D01*
X111374810Y-57029731D01*
X111374806Y-57029728D01*
X111169523Y-56861706D01*
X111166205Y-56858990D01*
X110932704Y-56715901D01*
X110928768Y-56714173D01*
X110685873Y-56607549D01*
X110685869Y-56607548D01*
X110681945Y-56605825D01*
X110418566Y-56530800D01*
X110414324Y-56530196D01*
X110414318Y-56530195D01*
X110213834Y-56501662D01*
X110147443Y-56492213D01*
X110003589Y-56491460D01*
X109877877Y-56490802D01*
X109877871Y-56490802D01*
X109873591Y-56490780D01*
X109869347Y-56491339D01*
X109869343Y-56491339D01*
X109750302Y-56507011D01*
X109602078Y-56526525D01*
X109597938Y-56527658D01*
X109597936Y-56527658D01*
X109525008Y-56547609D01*
X109337928Y-56598788D01*
X109333980Y-56600472D01*
X109089982Y-56704546D01*
X109089978Y-56704548D01*
X109086030Y-56706232D01*
X109066125Y-56718145D01*
X108854725Y-56844664D01*
X108854721Y-56844667D01*
X108851043Y-56846868D01*
X108637318Y-57018094D01*
X108448808Y-57216742D01*
X108289002Y-57439136D01*
X108160857Y-57681161D01*
X108159385Y-57685184D01*
X108159383Y-57685188D01*
X108152314Y-57704506D01*
X108066743Y-57938337D01*
X108008404Y-58205907D01*
X107986917Y-58478918D01*
X94508500Y-58478918D01*
X94508500Y-40634500D01*
X94528502Y-40566379D01*
X94582158Y-40519886D01*
X94634500Y-40508500D01*
X125365500Y-40508500D01*
X125433621Y-40528502D01*
G37*
%TD.AperFunction*%
%TD*%
%TA.AperFunction,Conductor*%
%TO.N,GND2*%
G36*
X91433621Y-74528502D02*
G01*
X91480114Y-74582158D01*
X91491500Y-74634500D01*
X91491500Y-105365500D01*
X91471498Y-105433621D01*
X91417842Y-105480114D01*
X91365500Y-105491500D01*
X60634500Y-105491500D01*
X60566379Y-105471498D01*
X60519886Y-105417842D01*
X60508500Y-105365500D01*
X60508500Y-92478918D01*
X73986917Y-92478918D01*
X74002682Y-92752320D01*
X74003507Y-92756525D01*
X74003508Y-92756533D01*
X74014127Y-92810657D01*
X74055405Y-93021053D01*
X74056792Y-93025103D01*
X74056793Y-93025108D01*
X74077605Y-93085895D01*
X74144112Y-93280144D01*
X74267160Y-93524799D01*
X74269586Y-93528328D01*
X74269589Y-93528334D01*
X74419843Y-93746953D01*
X74422274Y-93750490D01*
X74606582Y-93953043D01*
X74816675Y-94128707D01*
X74820316Y-94130991D01*
X75045024Y-94271951D01*
X75045028Y-94271953D01*
X75048664Y-94274234D01*
X75116544Y-94304883D01*
X75294345Y-94385164D01*
X75294349Y-94385166D01*
X75298257Y-94386930D01*
X75302377Y-94388150D01*
X75302376Y-94388150D01*
X75556723Y-94463491D01*
X75556727Y-94463492D01*
X75560836Y-94464709D01*
X75565070Y-94465357D01*
X75565075Y-94465358D01*
X75827298Y-94505483D01*
X75827300Y-94505483D01*
X75831540Y-94506132D01*
X75970912Y-94508322D01*
X76101071Y-94510367D01*
X76101077Y-94510367D01*
X76105362Y-94510434D01*
X76377235Y-94477534D01*
X76642127Y-94408041D01*
X76646087Y-94406401D01*
X76646092Y-94406399D01*
X76768631Y-94355641D01*
X76895136Y-94303241D01*
X77131582Y-94165073D01*
X77347089Y-93996094D01*
X77388809Y-93953043D01*
X77534686Y-93802509D01*
X77537669Y-93799431D01*
X77540202Y-93795983D01*
X77540206Y-93795978D01*
X77697257Y-93582178D01*
X77699795Y-93578723D01*
X77727154Y-93528334D01*
X77828418Y-93341830D01*
X77828419Y-93341828D01*
X77830468Y-93338054D01*
X77927269Y-93081877D01*
X77988407Y-92814933D01*
X78012751Y-92542161D01*
X78013193Y-92500000D01*
X77994567Y-92226778D01*
X77939032Y-91958612D01*
X77847617Y-91700465D01*
X77722013Y-91457112D01*
X77712040Y-91442921D01*
X77567008Y-91236562D01*
X77564545Y-91233057D01*
X77378125Y-91032445D01*
X77374810Y-91029731D01*
X77374806Y-91029728D01*
X77169523Y-90861706D01*
X77166205Y-90858990D01*
X76932704Y-90715901D01*
X76928768Y-90714173D01*
X76685873Y-90607549D01*
X76685869Y-90607548D01*
X76681945Y-90605825D01*
X76418566Y-90530800D01*
X76414324Y-90530196D01*
X76414318Y-90530195D01*
X76213834Y-90501662D01*
X76147443Y-90492213D01*
X76003589Y-90491460D01*
X75877877Y-90490802D01*
X75877871Y-90490802D01*
X75873591Y-90490780D01*
X75869347Y-90491339D01*
X75869343Y-90491339D01*
X75750302Y-90507011D01*
X75602078Y-90526525D01*
X75597938Y-90527658D01*
X75597936Y-90527658D01*
X75525008Y-90547609D01*
X75337928Y-90598788D01*
X75333980Y-90600472D01*
X75089982Y-90704546D01*
X75089978Y-90704548D01*
X75086030Y-90706232D01*
X75066125Y-90718145D01*
X74854725Y-90844664D01*
X74854721Y-90844667D01*
X74851043Y-90846868D01*
X74637318Y-91018094D01*
X74448808Y-91216742D01*
X74289002Y-91439136D01*
X74160857Y-91681161D01*
X74159385Y-91685184D01*
X74159383Y-91685188D01*
X74152314Y-91704506D01*
X74066743Y-91938337D01*
X74008404Y-92205907D01*
X73986917Y-92478918D01*
X60508500Y-92478918D01*
X60508500Y-74634500D01*
X60528502Y-74566379D01*
X60582158Y-74519886D01*
X60634500Y-74508500D01*
X91365500Y-74508500D01*
X91433621Y-74528502D01*
G37*
%TD.AperFunction*%
%TD*%
%TA.AperFunction,Conductor*%
%TO.N,GND2*%
G36*
X125433621Y-74528502D02*
G01*
X125480114Y-74582158D01*
X125491500Y-74634500D01*
X125491500Y-105365500D01*
X125471498Y-105433621D01*
X125417842Y-105480114D01*
X125365500Y-105491500D01*
X94634500Y-105491500D01*
X94566379Y-105471498D01*
X94519886Y-105417842D01*
X94508500Y-105365500D01*
X94508500Y-92478918D01*
X107986917Y-92478918D01*
X108002682Y-92752320D01*
X108003507Y-92756525D01*
X108003508Y-92756533D01*
X108014127Y-92810657D01*
X108055405Y-93021053D01*
X108056792Y-93025103D01*
X108056793Y-93025108D01*
X108077605Y-93085895D01*
X108144112Y-93280144D01*
X108267160Y-93524799D01*
X108269586Y-93528328D01*
X108269589Y-93528334D01*
X108419843Y-93746953D01*
X108422274Y-93750490D01*
X108606582Y-93953043D01*
X108816675Y-94128707D01*
X108820316Y-94130991D01*
X109045024Y-94271951D01*
X109045028Y-94271953D01*
X109048664Y-94274234D01*
X109116544Y-94304883D01*
X109294345Y-94385164D01*
X109294349Y-94385166D01*
X109298257Y-94386930D01*
X109302377Y-94388150D01*
X109302376Y-94388150D01*
X109556723Y-94463491D01*
X109556727Y-94463492D01*
X109560836Y-94464709D01*
X109565070Y-94465357D01*
X109565075Y-94465358D01*
X109827298Y-94505483D01*
X109827300Y-94505483D01*
X109831540Y-94506132D01*
X109970912Y-94508322D01*
X110101071Y-94510367D01*
X110101077Y-94510367D01*
X110105362Y-94510434D01*
X110377235Y-94477534D01*
X110642127Y-94408041D01*
X110646087Y-94406401D01*
X110646092Y-94406399D01*
X110768631Y-94355641D01*
X110895136Y-94303241D01*
X111131582Y-94165073D01*
X111347089Y-93996094D01*
X111388809Y-93953043D01*
X111534686Y-93802509D01*
X111537669Y-93799431D01*
X111540202Y-93795983D01*
X111540206Y-93795978D01*
X111697257Y-93582178D01*
X111699795Y-93578723D01*
X111727154Y-93528334D01*
X111828418Y-93341830D01*
X111828419Y-93341828D01*
X111830468Y-93338054D01*
X111927269Y-93081877D01*
X111988407Y-92814933D01*
X112012751Y-92542161D01*
X112013193Y-92500000D01*
X111994567Y-92226778D01*
X111939032Y-91958612D01*
X111847617Y-91700465D01*
X111722013Y-91457112D01*
X111712040Y-91442921D01*
X111567008Y-91236562D01*
X111564545Y-91233057D01*
X111378125Y-91032445D01*
X111374810Y-91029731D01*
X111374806Y-91029728D01*
X111169523Y-90861706D01*
X111166205Y-90858990D01*
X110932704Y-90715901D01*
X110928768Y-90714173D01*
X110685873Y-90607549D01*
X110685869Y-90607548D01*
X110681945Y-90605825D01*
X110418566Y-90530800D01*
X110414324Y-90530196D01*
X110414318Y-90530195D01*
X110213834Y-90501662D01*
X110147443Y-90492213D01*
X110003589Y-90491460D01*
X109877877Y-90490802D01*
X109877871Y-90490802D01*
X109873591Y-90490780D01*
X109869347Y-90491339D01*
X109869343Y-90491339D01*
X109750302Y-90507011D01*
X109602078Y-90526525D01*
X109597938Y-90527658D01*
X109597936Y-90527658D01*
X109525008Y-90547609D01*
X109337928Y-90598788D01*
X109333980Y-90600472D01*
X109089982Y-90704546D01*
X109089978Y-90704548D01*
X109086030Y-90706232D01*
X109066125Y-90718145D01*
X108854725Y-90844664D01*
X108854721Y-90844667D01*
X108851043Y-90846868D01*
X108637318Y-91018094D01*
X108448808Y-91216742D01*
X108289002Y-91439136D01*
X108160857Y-91681161D01*
X108159385Y-91685184D01*
X108159383Y-91685188D01*
X108152314Y-91704506D01*
X108066743Y-91938337D01*
X108008404Y-92205907D01*
X107986917Y-92478918D01*
X94508500Y-92478918D01*
X94508500Y-74634500D01*
X94528502Y-74566379D01*
X94582158Y-74519886D01*
X94634500Y-74508500D01*
X125365500Y-74508500D01*
X125433621Y-74528502D01*
G37*
%TD.AperFunction*%
%TD*%
M02*
