%FSLAX45Y45*%
G04 Gerber Fmt 4.5, Leading zero omitted, Abs format (unit mm)*
G04 Created by KiCad (PCBNEW (6.0.4)) date 2022-12-06 00:43:42*
%MOMM*%
%LPD*%
G01*
G04 APERTURE LIST*
%TA.AperFunction,Profile*%
%ADD10C,0.050000*%
%TD*%
%ADD11C,0.200000*%
%ADD12C,0.040000*%
%ADD13C,0.120000*%
%ADD14C,0.180000*%
G04 APERTURE END LIST*
D10*
X6000000Y-3100000D02*
X12600000Y-3100000D01*
X12600000Y-3100000D02*
X12600000Y-11400000D01*
X12600000Y-11400000D02*
X6000000Y-11400000D01*
X6000000Y-11400000D02*
X6000000Y-3100000D01*
D11*
D12*
X6180000Y-5480000D02*
X6220000Y-5520000D01*
X6220000Y-5480000D02*
X6180000Y-5520000D01*
X6180000Y-5980000D02*
X6220000Y-6020000D01*
X6220000Y-5980000D02*
X6180000Y-6020000D01*
X6180000Y-6480000D02*
X6220000Y-6520000D01*
X6220000Y-6480000D02*
X6180000Y-6520000D01*
X6180000Y-6980000D02*
X6220000Y-7020000D01*
X6220000Y-6980000D02*
X6180000Y-7020000D01*
X6180000Y-8880000D02*
X6220000Y-8920000D01*
X6220000Y-8880000D02*
X6180000Y-8920000D01*
X6180000Y-9380000D02*
X6220000Y-9420000D01*
X6220000Y-9380000D02*
X6180000Y-9420000D01*
X6180000Y-9880000D02*
X6220000Y-9920000D01*
X6220000Y-9880000D02*
X6180000Y-9920000D01*
X6180000Y-10380000D02*
X6220000Y-10420000D01*
X6220000Y-10380000D02*
X6180000Y-10420000D01*
X6474916Y-4178130D02*
X6514916Y-4218130D01*
X6514916Y-4178130D02*
X6474916Y-4218130D01*
X6474916Y-7578130D02*
X6514916Y-7618130D01*
X6514916Y-7578130D02*
X6474916Y-7618130D01*
X6475120Y-4979592D02*
X6515120Y-5019592D01*
X6515120Y-4979592D02*
X6475120Y-5019592D01*
X6475120Y-8379591D02*
X6515120Y-8419592D01*
X6515120Y-8379591D02*
X6475120Y-8419592D01*
X6480000Y-4480000D02*
X6520000Y-4520000D01*
X6520000Y-4480000D02*
X6480000Y-4520000D01*
X6480000Y-5480000D02*
X6520000Y-5520000D01*
X6520000Y-5480000D02*
X6480000Y-5520000D01*
X6480000Y-5980000D02*
X6520000Y-6020000D01*
X6520000Y-5980000D02*
X6480000Y-6020000D01*
X6480000Y-6480000D02*
X6520000Y-6520000D01*
X6520000Y-6480000D02*
X6480000Y-6520000D01*
X6480000Y-6980000D02*
X6520000Y-7020000D01*
X6520000Y-6980000D02*
X6480000Y-7020000D01*
X6480000Y-7880000D02*
X6520000Y-7920000D01*
X6520000Y-7880000D02*
X6480000Y-7920000D01*
X6480000Y-8880000D02*
X6520000Y-8920000D01*
X6520000Y-8880000D02*
X6480000Y-8920000D01*
X6480000Y-9380000D02*
X6520000Y-9420000D01*
X6520000Y-9380000D02*
X6480000Y-9420000D01*
X6480000Y-9880000D02*
X6520000Y-9920000D01*
X6520000Y-9880000D02*
X6480000Y-9920000D01*
X6480000Y-10380000D02*
X6520000Y-10420000D01*
X6520000Y-10380000D02*
X6480000Y-10420000D01*
X6960000Y-5280000D02*
X7000000Y-5320000D01*
X7000000Y-5280000D02*
X6960000Y-5320000D01*
X6960000Y-8680000D02*
X7000000Y-8720000D01*
X7000000Y-8680000D02*
X6960000Y-8720000D01*
X6974916Y-5479387D02*
X7014916Y-5519387D01*
X7014916Y-5479387D02*
X6974916Y-5519387D01*
X6974916Y-8879387D02*
X7014916Y-8919387D01*
X7014916Y-8879387D02*
X6974916Y-8919387D01*
X6980000Y-4180000D02*
X7020000Y-4220000D01*
X7020000Y-4180000D02*
X6980000Y-4220000D01*
X6980000Y-4480000D02*
X7020000Y-4520000D01*
X7020000Y-4480000D02*
X6980000Y-4520000D01*
X6980000Y-5980000D02*
X7020000Y-6020000D01*
X7020000Y-5980000D02*
X6980000Y-6020000D01*
X6980000Y-6480000D02*
X7020000Y-6520000D01*
X7020000Y-6480000D02*
X6980000Y-6520000D01*
X6980000Y-6980000D02*
X7020000Y-7020000D01*
X7020000Y-6980000D02*
X6980000Y-7020000D01*
X6980000Y-7580000D02*
X7020000Y-7620000D01*
X7020000Y-7580000D02*
X6980000Y-7620000D01*
X6980000Y-7880000D02*
X7020000Y-7920000D01*
X7020000Y-7880000D02*
X6980000Y-7920000D01*
X6980000Y-9380000D02*
X7020000Y-9420000D01*
X7020000Y-9380000D02*
X6980000Y-9420000D01*
X6980000Y-9880000D02*
X7020000Y-9920000D01*
X7020000Y-9880000D02*
X6980000Y-9920000D01*
X6980000Y-10380000D02*
X7020000Y-10420000D01*
X7020000Y-10380000D02*
X6980000Y-10420000D01*
X7310000Y-5830000D02*
X7350000Y-5870000D01*
X7350000Y-5830000D02*
X7310000Y-5870000D01*
X7310000Y-9230000D02*
X7350000Y-9270000D01*
X7350000Y-9230000D02*
X7310000Y-9270000D01*
X7340000Y-5960000D02*
X7380000Y-6000000D01*
X7380000Y-5960000D02*
X7340000Y-6000000D01*
X7340000Y-9360000D02*
X7380000Y-9400000D01*
X7380000Y-9360000D02*
X7340000Y-9400000D01*
X7350000Y-5700000D02*
X7390000Y-5740000D01*
X7390000Y-5700000D02*
X7350000Y-5740000D01*
X7350000Y-9100000D02*
X7390000Y-9140000D01*
X7390000Y-9100000D02*
X7350000Y-9140000D01*
X7380000Y-6060000D02*
X7420000Y-6100000D01*
X7420000Y-6060000D02*
X7380000Y-6100000D01*
X7380000Y-9460000D02*
X7420000Y-9500000D01*
X7420000Y-9460000D02*
X7380000Y-9500000D01*
X7430000Y-5600000D02*
X7470000Y-5640000D01*
X7470000Y-5600000D02*
X7430000Y-5640000D01*
X7430000Y-9000000D02*
X7470000Y-9040000D01*
X7470000Y-9000000D02*
X7430000Y-9040000D01*
X7440000Y-6190000D02*
X7480000Y-6230000D01*
X7480000Y-6190000D02*
X7440000Y-6230000D01*
X7440000Y-6940000D02*
X7480000Y-6980000D01*
X7480000Y-6940000D02*
X7440000Y-6980000D01*
X7440000Y-9590000D02*
X7480000Y-9630000D01*
X7480000Y-9590000D02*
X7440000Y-9630000D01*
X7440000Y-10340000D02*
X7480000Y-10380000D01*
X7480000Y-10340000D02*
X7440000Y-10380000D01*
X7450000Y-6320000D02*
X7490000Y-6360000D01*
X7490000Y-6320000D02*
X7450000Y-6360000D01*
X7450000Y-6460000D02*
X7490000Y-6500000D01*
X7490000Y-6460000D02*
X7450000Y-6500000D01*
X7450000Y-6600000D02*
X7490000Y-6640000D01*
X7490000Y-6600000D02*
X7450000Y-6640000D01*
X7450000Y-6720000D02*
X7490000Y-6760000D01*
X7490000Y-6720000D02*
X7450000Y-6760000D01*
X7450000Y-9720000D02*
X7490000Y-9760000D01*
X7490000Y-9720000D02*
X7450000Y-9760000D01*
X7450000Y-9860000D02*
X7490000Y-9900000D01*
X7490000Y-9860000D02*
X7450000Y-9900000D01*
X7450000Y-10000000D02*
X7490000Y-10040000D01*
X7490000Y-10000000D02*
X7450000Y-10040000D01*
X7450000Y-10120000D02*
X7490000Y-10160000D01*
X7490000Y-10120000D02*
X7450000Y-10160000D01*
X7474712Y-4979592D02*
X7514712Y-5019592D01*
X7514712Y-4979592D02*
X7474712Y-5019592D01*
X7474712Y-5479387D02*
X7514712Y-5519387D01*
X7514712Y-5479387D02*
X7474712Y-5519387D01*
X7474712Y-8379591D02*
X7514712Y-8419592D01*
X7514712Y-8379591D02*
X7474712Y-8419592D01*
X7474712Y-8879387D02*
X7514712Y-8919387D01*
X7514712Y-8879387D02*
X7474712Y-8919387D01*
X7480000Y-4180000D02*
X7520000Y-4220000D01*
X7520000Y-4180000D02*
X7480000Y-4220000D01*
X7480000Y-4480000D02*
X7520000Y-4520000D01*
X7520000Y-4480000D02*
X7480000Y-4520000D01*
X7480000Y-7580000D02*
X7520000Y-7620000D01*
X7520000Y-7580000D02*
X7480000Y-7620000D01*
X7480000Y-7880000D02*
X7520000Y-7920000D01*
X7520000Y-7880000D02*
X7480000Y-7920000D01*
X7560000Y-7060000D02*
X7600000Y-7100000D01*
X7600000Y-7060000D02*
X7560000Y-7100000D01*
X7560000Y-10460000D02*
X7600000Y-10500000D01*
X7600000Y-10460000D02*
X7560000Y-10500000D01*
X7570000Y-5570000D02*
X7610000Y-5610000D01*
X7610000Y-5570000D02*
X7570000Y-5610000D01*
X7570000Y-8970000D02*
X7610000Y-9010000D01*
X7610000Y-8970000D02*
X7570000Y-9010000D01*
X7710000Y-6070000D02*
X7750000Y-6110000D01*
X7750000Y-6070000D02*
X7710000Y-6110000D01*
X7710000Y-6200000D02*
X7750000Y-6240000D01*
X7750000Y-6200000D02*
X7710000Y-6240000D01*
X7710000Y-9470000D02*
X7750000Y-9510000D01*
X7750000Y-9470000D02*
X7710000Y-9510000D01*
X7710000Y-9600000D02*
X7750000Y-9640000D01*
X7750000Y-9600000D02*
X7710000Y-9640000D01*
X7720000Y-5600000D02*
X7760000Y-5640000D01*
X7760000Y-5600000D02*
X7720000Y-5640000D01*
X7720000Y-6340000D02*
X7760000Y-6380000D01*
X7760000Y-6340000D02*
X7720000Y-6380000D01*
X7720000Y-6470000D02*
X7760000Y-6510000D01*
X7760000Y-6470000D02*
X7720000Y-6510000D01*
X7720000Y-6590000D02*
X7760000Y-6630000D01*
X7760000Y-6590000D02*
X7720000Y-6630000D01*
X7720000Y-9000000D02*
X7760000Y-9040000D01*
X7760000Y-9000000D02*
X7720000Y-9040000D01*
X7720000Y-9740000D02*
X7760000Y-9780000D01*
X7760000Y-9740000D02*
X7720000Y-9780000D01*
X7720000Y-9870000D02*
X7760000Y-9910000D01*
X7760000Y-9870000D02*
X7720000Y-9910000D01*
X7720000Y-9990000D02*
X7760000Y-10030000D01*
X7760000Y-9990000D02*
X7720000Y-10030000D01*
X7770000Y-5960000D02*
X7810000Y-6000000D01*
X7810000Y-5960000D02*
X7770000Y-6000000D01*
X7770000Y-9360000D02*
X7810000Y-9400000D01*
X7810000Y-9360000D02*
X7770000Y-9400000D01*
X7790000Y-5720000D02*
X7830000Y-5760000D01*
X7830000Y-5720000D02*
X7790000Y-5760000D01*
X7790000Y-9120000D02*
X7830000Y-9160000D01*
X7830000Y-9120000D02*
X7790000Y-9160000D01*
X7820000Y-7060000D02*
X7860000Y-7100000D01*
X7860000Y-7060000D02*
X7820000Y-7100000D01*
X7820000Y-10460000D02*
X7860000Y-10500000D01*
X7860000Y-10460000D02*
X7820000Y-10500000D01*
X7830000Y-5850000D02*
X7870000Y-5890000D01*
X7870000Y-5850000D02*
X7830000Y-5890000D01*
X7830000Y-9250000D02*
X7870000Y-9290000D01*
X7870000Y-9250000D02*
X7830000Y-9290000D01*
X7930000Y-6140000D02*
X7970000Y-6180000D01*
X7970000Y-6140000D02*
X7930000Y-6180000D01*
X7930000Y-9540000D02*
X7970000Y-9580000D01*
X7970000Y-9540000D02*
X7930000Y-9580000D01*
X7940000Y-6440000D02*
X7980000Y-6480000D01*
X7980000Y-6440000D02*
X7940000Y-6480000D01*
X7940000Y-9840000D02*
X7980000Y-9880000D01*
X7980000Y-9840000D02*
X7940000Y-9880000D01*
X7960000Y-4420000D02*
X8000000Y-4460000D01*
X8000000Y-4420000D02*
X7960000Y-4460000D01*
X7960000Y-4620000D02*
X8000000Y-4660000D01*
X8000000Y-4620000D02*
X7960000Y-4660000D01*
X7960000Y-7820000D02*
X8000000Y-7860000D01*
X8000000Y-7820000D02*
X7960000Y-7860000D01*
X7960000Y-8020000D02*
X8000000Y-8060000D01*
X8000000Y-8020000D02*
X7960000Y-8060000D01*
X7980000Y-4180000D02*
X8020000Y-4220000D01*
X8020000Y-4180000D02*
X7980000Y-4220000D01*
X7980000Y-5630000D02*
X8020000Y-5670000D01*
X8020000Y-5630000D02*
X7980000Y-5670000D01*
X7980000Y-5830000D02*
X8020000Y-5870000D01*
X8020000Y-5830000D02*
X7980000Y-5870000D01*
X7980000Y-7580000D02*
X8020000Y-7620000D01*
X8020000Y-7580000D02*
X7980000Y-7620000D01*
X7980000Y-9030000D02*
X8020000Y-9070000D01*
X8020000Y-9030000D02*
X7980000Y-9070000D01*
X7980000Y-9230000D02*
X8020000Y-9270000D01*
X8020000Y-9230000D02*
X7980000Y-9270000D01*
X8000000Y-7060000D02*
X8040000Y-7100000D01*
X8040000Y-7060000D02*
X8000000Y-7100000D01*
X8000000Y-10460000D02*
X8040000Y-10500000D01*
X8040000Y-10460000D02*
X8000000Y-10500000D01*
X8020000Y-6300000D02*
X8060000Y-6340000D01*
X8060000Y-6300000D02*
X8020000Y-6340000D01*
X8020000Y-6600000D02*
X8060000Y-6640000D01*
X8060000Y-6600000D02*
X8020000Y-6640000D01*
X8020000Y-6720000D02*
X8060000Y-6760000D01*
X8060000Y-6720000D02*
X8020000Y-6760000D01*
X8020000Y-6840000D02*
X8060000Y-6880000D01*
X8060000Y-6840000D02*
X8020000Y-6880000D01*
X8020000Y-9700000D02*
X8060000Y-9740000D01*
X8060000Y-9700000D02*
X8020000Y-9740000D01*
X8020000Y-10000000D02*
X8060000Y-10040000D01*
X8060000Y-10000000D02*
X8020000Y-10040000D01*
X8020000Y-10120000D02*
X8060000Y-10160000D01*
X8060000Y-10120000D02*
X8020000Y-10160000D01*
X8020000Y-10240000D02*
X8060000Y-10280000D01*
X8060000Y-10240000D02*
X8020000Y-10280000D01*
X8080000Y-5060000D02*
X8120000Y-5100000D01*
X8120000Y-5060000D02*
X8080000Y-5100000D01*
X8080000Y-8460000D02*
X8120000Y-8500000D01*
X8120000Y-8460000D02*
X8080000Y-8500000D01*
X8120000Y-7060000D02*
X8160000Y-7100000D01*
X8160000Y-7060000D02*
X8120000Y-7100000D01*
X8120000Y-10460000D02*
X8160000Y-10500000D01*
X8160000Y-10460000D02*
X8120000Y-10500000D01*
X8180000Y-5630000D02*
X8220000Y-5670000D01*
X8220000Y-5630000D02*
X8180000Y-5670000D01*
X8180000Y-5830000D02*
X8220000Y-5870000D01*
X8220000Y-5830000D02*
X8180000Y-5870000D01*
X8180000Y-9030000D02*
X8220000Y-9070000D01*
X8220000Y-9030000D02*
X8180000Y-9070000D01*
X8180000Y-9230000D02*
X8220000Y-9270000D01*
X8220000Y-9230000D02*
X8180000Y-9270000D01*
X8250000Y-7060000D02*
X8290000Y-7100000D01*
X8290000Y-7060000D02*
X8250000Y-7100000D01*
X8250000Y-10460000D02*
X8290000Y-10500000D01*
X8290000Y-10460000D02*
X8250000Y-10500000D01*
X8260000Y-4420000D02*
X8300000Y-4460000D01*
X8300000Y-4420000D02*
X8260000Y-4460000D01*
X8260000Y-7820000D02*
X8300000Y-7860000D01*
X8300000Y-7820000D02*
X8260000Y-7860000D01*
X8270000Y-6300000D02*
X8310000Y-6340000D01*
X8310000Y-6300000D02*
X8270000Y-6340000D01*
X8270000Y-9700000D02*
X8310000Y-9740000D01*
X8310000Y-9700000D02*
X8270000Y-9740000D01*
X8280000Y-6790000D02*
X8320000Y-6830000D01*
X8320000Y-6790000D02*
X8280000Y-6830000D01*
X8280000Y-10190000D02*
X8320000Y-10230000D01*
X8320000Y-10190000D02*
X8280000Y-10230000D01*
X8380000Y-5630000D02*
X8420000Y-5670000D01*
X8420000Y-5630000D02*
X8380000Y-5670000D01*
X8380000Y-5830000D02*
X8420000Y-5870000D01*
X8420000Y-5830000D02*
X8380000Y-5870000D01*
X8380000Y-6420000D02*
X8420000Y-6460000D01*
X8420000Y-6420000D02*
X8380000Y-6460000D01*
X8380000Y-6560000D02*
X8420000Y-6600000D01*
X8420000Y-6560000D02*
X8380000Y-6600000D01*
X8380000Y-6680000D02*
X8420000Y-6720000D01*
X8420000Y-6680000D02*
X8380000Y-6720000D01*
X8380000Y-9030000D02*
X8420000Y-9070000D01*
X8420000Y-9030000D02*
X8380000Y-9070000D01*
X8380000Y-9230000D02*
X8420000Y-9270000D01*
X8420000Y-9230000D02*
X8380000Y-9270000D01*
X8380000Y-9820000D02*
X8420000Y-9860000D01*
X8420000Y-9820000D02*
X8380000Y-9860000D01*
X8380000Y-9960000D02*
X8420000Y-10000000D01*
X8420000Y-9960000D02*
X8380000Y-10000000D01*
X8380000Y-10080000D02*
X8420000Y-10120000D01*
X8420000Y-10080000D02*
X8380000Y-10120000D01*
X8420000Y-6790000D02*
X8460000Y-6830000D01*
X8460000Y-6790000D02*
X8420000Y-6830000D01*
X8420000Y-10190000D02*
X8460000Y-10230000D01*
X8460000Y-10190000D02*
X8420000Y-10230000D01*
X8480000Y-4180000D02*
X8520000Y-4220000D01*
X8520000Y-4180000D02*
X8480000Y-4220000D01*
X8480000Y-7580000D02*
X8520000Y-7620000D01*
X8520000Y-7580000D02*
X8480000Y-7620000D01*
X8500000Y-6300000D02*
X8540000Y-6340000D01*
X8540000Y-6300000D02*
X8500000Y-6340000D01*
X8500000Y-9700000D02*
X8540000Y-9740000D01*
X8540000Y-9700000D02*
X8500000Y-9740000D01*
X8560000Y-6940000D02*
X8600000Y-6980000D01*
X8600000Y-6940000D02*
X8560000Y-6980000D01*
X8560000Y-10340000D02*
X8600000Y-10380000D01*
X8600000Y-10340000D02*
X8560000Y-10380000D01*
X8580000Y-5480000D02*
X8620000Y-5520000D01*
X8620000Y-5480000D02*
X8580000Y-5520000D01*
X8580000Y-5880000D02*
X8620000Y-5920000D01*
X8620000Y-5880000D02*
X8580000Y-5920000D01*
X8580000Y-8880000D02*
X8620000Y-8920000D01*
X8620000Y-8880000D02*
X8580000Y-8920000D01*
X8580000Y-9280000D02*
X8620000Y-9320000D01*
X8620000Y-9280000D02*
X8580000Y-9320000D01*
X8620000Y-4420000D02*
X8660000Y-4460000D01*
X8660000Y-4420000D02*
X8620000Y-4460000D01*
X8620000Y-7820000D02*
X8660000Y-7860000D01*
X8660000Y-7820000D02*
X8620000Y-7860000D01*
X8730000Y-6980000D02*
X8770000Y-7020000D01*
X8770000Y-6980000D02*
X8730000Y-7020000D01*
X8730000Y-10380000D02*
X8770000Y-10420000D01*
X8770000Y-10380000D02*
X8730000Y-10420000D01*
X8780000Y-5480000D02*
X8820000Y-5520000D01*
X8820000Y-5480000D02*
X8780000Y-5520000D01*
X8780000Y-5880000D02*
X8820000Y-5920000D01*
X8820000Y-5880000D02*
X8780000Y-5920000D01*
X8780000Y-8880000D02*
X8820000Y-8920000D01*
X8820000Y-8880000D02*
X8780000Y-8920000D01*
X8780000Y-9280000D02*
X8820000Y-9320000D01*
X8820000Y-9280000D02*
X8780000Y-9320000D01*
X8940000Y-5060000D02*
X8980000Y-5100000D01*
X8980000Y-5060000D02*
X8940000Y-5100000D01*
X8940000Y-6300000D02*
X8980000Y-6340000D01*
X8980000Y-6300000D02*
X8940000Y-6340000D01*
X8940000Y-8460000D02*
X8980000Y-8500000D01*
X8980000Y-8460000D02*
X8940000Y-8500000D01*
X8940000Y-9700000D02*
X8980000Y-9740000D01*
X8980000Y-9700000D02*
X8940000Y-9740000D01*
X8980000Y-4180000D02*
X9020000Y-4220000D01*
X9020000Y-4180000D02*
X8980000Y-4220000D01*
X8980000Y-5480000D02*
X9020000Y-5520000D01*
X9020000Y-5480000D02*
X8980000Y-5520000D01*
X8980000Y-5880000D02*
X9020000Y-5920000D01*
X9020000Y-5880000D02*
X8980000Y-5920000D01*
X8980000Y-6620000D02*
X9020000Y-6660000D01*
X9020000Y-6620000D02*
X8980000Y-6660000D01*
X8980000Y-6800000D02*
X9020000Y-6840000D01*
X9020000Y-6800000D02*
X8980000Y-6840000D01*
X8980000Y-6980000D02*
X9020000Y-7020000D01*
X9020000Y-6980000D02*
X8980000Y-7020000D01*
X8980000Y-7580000D02*
X9020000Y-7620000D01*
X9020000Y-7580000D02*
X8980000Y-7620000D01*
X8980000Y-8880000D02*
X9020000Y-8920000D01*
X9020000Y-8880000D02*
X8980000Y-8920000D01*
X8980000Y-9280000D02*
X9020000Y-9320000D01*
X9020000Y-9280000D02*
X8980000Y-9320000D01*
X8980000Y-10020000D02*
X9020000Y-10060000D01*
X9020000Y-10020000D02*
X8980000Y-10060000D01*
X8980000Y-10200000D02*
X9020000Y-10240000D01*
X9020000Y-10200000D02*
X8980000Y-10240000D01*
X8980000Y-10380000D02*
X9020000Y-10420000D01*
X9020000Y-10380000D02*
X8980000Y-10420000D01*
X9000000Y-4420000D02*
X9040000Y-4460000D01*
X9040000Y-4420000D02*
X9000000Y-4460000D01*
X9000000Y-4660000D02*
X9040000Y-4700000D01*
X9040000Y-4660000D02*
X9000000Y-4700000D01*
X9000000Y-7820000D02*
X9040000Y-7860000D01*
X9040000Y-7820000D02*
X9000000Y-7860000D01*
X9000000Y-8060000D02*
X9040000Y-8100000D01*
X9040000Y-8060000D02*
X9000000Y-8100000D01*
X9060000Y-5220000D02*
X9100000Y-5260000D01*
X9100000Y-5220000D02*
X9060000Y-5260000D01*
X9060000Y-8620000D02*
X9100000Y-8660000D01*
X9100000Y-8620000D02*
X9060000Y-8660000D01*
X9580000Y-5480000D02*
X9620000Y-5520000D01*
X9620000Y-5480000D02*
X9580000Y-5520000D01*
X9580000Y-5980000D02*
X9620000Y-6020000D01*
X9620000Y-5980000D02*
X9580000Y-6020000D01*
X9580000Y-6480000D02*
X9620000Y-6520000D01*
X9620000Y-6480000D02*
X9580000Y-6520000D01*
X9580000Y-6980000D02*
X9620000Y-7020000D01*
X9620000Y-6980000D02*
X9580000Y-7020000D01*
X9580000Y-8880000D02*
X9620000Y-8920000D01*
X9620000Y-8880000D02*
X9580000Y-8920000D01*
X9580000Y-9380000D02*
X9620000Y-9420000D01*
X9620000Y-9380000D02*
X9580000Y-9420000D01*
X9580000Y-9880000D02*
X9620000Y-9920000D01*
X9620000Y-9880000D02*
X9580000Y-9920000D01*
X9580000Y-10380000D02*
X9620000Y-10420000D01*
X9620000Y-10380000D02*
X9580000Y-10420000D01*
X9874916Y-4178130D02*
X9914916Y-4218130D01*
X9914916Y-4178130D02*
X9874916Y-4218130D01*
X9874916Y-7578130D02*
X9914916Y-7618130D01*
X9914916Y-7578130D02*
X9874916Y-7618130D01*
X9875120Y-4979592D02*
X9915120Y-5019592D01*
X9915120Y-4979592D02*
X9875120Y-5019592D01*
X9875120Y-8379591D02*
X9915120Y-8419592D01*
X9915120Y-8379591D02*
X9875120Y-8419592D01*
X9880000Y-4480000D02*
X9920000Y-4520000D01*
X9920000Y-4480000D02*
X9880000Y-4520000D01*
X9880000Y-5480000D02*
X9920000Y-5520000D01*
X9920000Y-5480000D02*
X9880000Y-5520000D01*
X9880000Y-5980000D02*
X9920000Y-6020000D01*
X9920000Y-5980000D02*
X9880000Y-6020000D01*
X9880000Y-6480000D02*
X9920000Y-6520000D01*
X9920000Y-6480000D02*
X9880000Y-6520000D01*
X9880000Y-6980000D02*
X9920000Y-7020000D01*
X9920000Y-6980000D02*
X9880000Y-7020000D01*
X9880000Y-7880000D02*
X9920000Y-7920000D01*
X9920000Y-7880000D02*
X9880000Y-7920000D01*
X9880000Y-8880000D02*
X9920000Y-8920000D01*
X9920000Y-8880000D02*
X9880000Y-8920000D01*
X9880000Y-9380000D02*
X9920000Y-9420000D01*
X9920000Y-9380000D02*
X9880000Y-9420000D01*
X9880000Y-9880000D02*
X9920000Y-9920000D01*
X9920000Y-9880000D02*
X9880000Y-9920000D01*
X9880000Y-10380000D02*
X9920000Y-10420000D01*
X9920000Y-10380000D02*
X9880000Y-10420000D01*
X10360000Y-5280000D02*
X10400000Y-5320000D01*
X10400000Y-5280000D02*
X10360000Y-5320000D01*
X10360000Y-8680000D02*
X10400000Y-8720000D01*
X10400000Y-8680000D02*
X10360000Y-8720000D01*
X10374916Y-5479387D02*
X10414916Y-5519387D01*
X10414916Y-5479387D02*
X10374916Y-5519387D01*
X10374916Y-8879387D02*
X10414916Y-8919387D01*
X10414916Y-8879387D02*
X10374916Y-8919387D01*
X10380000Y-4180000D02*
X10420000Y-4220000D01*
X10420000Y-4180000D02*
X10380000Y-4220000D01*
X10380000Y-4480000D02*
X10420000Y-4520000D01*
X10420000Y-4480000D02*
X10380000Y-4520000D01*
X10380000Y-5980000D02*
X10420000Y-6020000D01*
X10420000Y-5980000D02*
X10380000Y-6020000D01*
X10380000Y-6480000D02*
X10420000Y-6520000D01*
X10420000Y-6480000D02*
X10380000Y-6520000D01*
X10380000Y-6980000D02*
X10420000Y-7020000D01*
X10420000Y-6980000D02*
X10380000Y-7020000D01*
X10380000Y-7580000D02*
X10420000Y-7620000D01*
X10420000Y-7580000D02*
X10380000Y-7620000D01*
X10380000Y-7880000D02*
X10420000Y-7920000D01*
X10420000Y-7880000D02*
X10380000Y-7920000D01*
X10380000Y-9380000D02*
X10420000Y-9420000D01*
X10420000Y-9380000D02*
X10380000Y-9420000D01*
X10380000Y-9880000D02*
X10420000Y-9920000D01*
X10420000Y-9880000D02*
X10380000Y-9920000D01*
X10380000Y-10380000D02*
X10420000Y-10420000D01*
X10420000Y-10380000D02*
X10380000Y-10420000D01*
X10710000Y-5830000D02*
X10750000Y-5870000D01*
X10750000Y-5830000D02*
X10710000Y-5870000D01*
X10710000Y-9230000D02*
X10750000Y-9270000D01*
X10750000Y-9230000D02*
X10710000Y-9270000D01*
X10740000Y-5960000D02*
X10780000Y-6000000D01*
X10780000Y-5960000D02*
X10740000Y-6000000D01*
X10740000Y-9360000D02*
X10780000Y-9400000D01*
X10780000Y-9360000D02*
X10740000Y-9400000D01*
X10750000Y-5700000D02*
X10790000Y-5740000D01*
X10790000Y-5700000D02*
X10750000Y-5740000D01*
X10750000Y-9100000D02*
X10790000Y-9140000D01*
X10790000Y-9100000D02*
X10750000Y-9140000D01*
X10780000Y-6060000D02*
X10820000Y-6100000D01*
X10820000Y-6060000D02*
X10780000Y-6100000D01*
X10780000Y-9460000D02*
X10820000Y-9500000D01*
X10820000Y-9460000D02*
X10780000Y-9500000D01*
X10830000Y-5600000D02*
X10870000Y-5640000D01*
X10870000Y-5600000D02*
X10830000Y-5640000D01*
X10830000Y-9000000D02*
X10870000Y-9040000D01*
X10870000Y-9000000D02*
X10830000Y-9040000D01*
X10840000Y-6190000D02*
X10880000Y-6230000D01*
X10880000Y-6190000D02*
X10840000Y-6230000D01*
X10840000Y-6940000D02*
X10880000Y-6980000D01*
X10880000Y-6940000D02*
X10840000Y-6980000D01*
X10840000Y-9590000D02*
X10880000Y-9630000D01*
X10880000Y-9590000D02*
X10840000Y-9630000D01*
X10840000Y-10340000D02*
X10880000Y-10380000D01*
X10880000Y-10340000D02*
X10840000Y-10380000D01*
X10850000Y-6320000D02*
X10890000Y-6360000D01*
X10890000Y-6320000D02*
X10850000Y-6360000D01*
X10850000Y-6460000D02*
X10890000Y-6500000D01*
X10890000Y-6460000D02*
X10850000Y-6500000D01*
X10850000Y-6600000D02*
X10890000Y-6640000D01*
X10890000Y-6600000D02*
X10850000Y-6640000D01*
X10850000Y-6720000D02*
X10890000Y-6760000D01*
X10890000Y-6720000D02*
X10850000Y-6760000D01*
X10850000Y-9720000D02*
X10890000Y-9760000D01*
X10890000Y-9720000D02*
X10850000Y-9760000D01*
X10850000Y-9860000D02*
X10890000Y-9900000D01*
X10890000Y-9860000D02*
X10850000Y-9900000D01*
X10850000Y-10000000D02*
X10890000Y-10040000D01*
X10890000Y-10000000D02*
X10850000Y-10040000D01*
X10850000Y-10120000D02*
X10890000Y-10160000D01*
X10890000Y-10120000D02*
X10850000Y-10160000D01*
X10874712Y-4979592D02*
X10914712Y-5019592D01*
X10914712Y-4979592D02*
X10874712Y-5019592D01*
X10874712Y-5479387D02*
X10914712Y-5519387D01*
X10914712Y-5479387D02*
X10874712Y-5519387D01*
X10874712Y-8379591D02*
X10914712Y-8419592D01*
X10914712Y-8379591D02*
X10874712Y-8419592D01*
X10874712Y-8879387D02*
X10914712Y-8919387D01*
X10914712Y-8879387D02*
X10874712Y-8919387D01*
X10880000Y-4180000D02*
X10920000Y-4220000D01*
X10920000Y-4180000D02*
X10880000Y-4220000D01*
X10880000Y-4480000D02*
X10920000Y-4520000D01*
X10920000Y-4480000D02*
X10880000Y-4520000D01*
X10880000Y-7580000D02*
X10920000Y-7620000D01*
X10920000Y-7580000D02*
X10880000Y-7620000D01*
X10880000Y-7880000D02*
X10920000Y-7920000D01*
X10920000Y-7880000D02*
X10880000Y-7920000D01*
X10960000Y-7060000D02*
X11000000Y-7100000D01*
X11000000Y-7060000D02*
X10960000Y-7100000D01*
X10960000Y-10460000D02*
X11000000Y-10500000D01*
X11000000Y-10460000D02*
X10960000Y-10500000D01*
X10970000Y-5570000D02*
X11010000Y-5610000D01*
X11010000Y-5570000D02*
X10970000Y-5610000D01*
X10970000Y-8970000D02*
X11010000Y-9010000D01*
X11010000Y-8970000D02*
X10970000Y-9010000D01*
X11110000Y-6070000D02*
X11150000Y-6110000D01*
X11150000Y-6070000D02*
X11110000Y-6110000D01*
X11110000Y-6200000D02*
X11150000Y-6240000D01*
X11150000Y-6200000D02*
X11110000Y-6240000D01*
X11110000Y-9470000D02*
X11150000Y-9510000D01*
X11150000Y-9470000D02*
X11110000Y-9510000D01*
X11110000Y-9600000D02*
X11150000Y-9640000D01*
X11150000Y-9600000D02*
X11110000Y-9640000D01*
X11120000Y-5600000D02*
X11160000Y-5640000D01*
X11160000Y-5600000D02*
X11120000Y-5640000D01*
X11120000Y-6340000D02*
X11160000Y-6380000D01*
X11160000Y-6340000D02*
X11120000Y-6380000D01*
X11120000Y-6470000D02*
X11160000Y-6510000D01*
X11160000Y-6470000D02*
X11120000Y-6510000D01*
X11120000Y-6590000D02*
X11160000Y-6630000D01*
X11160000Y-6590000D02*
X11120000Y-6630000D01*
X11120000Y-9000000D02*
X11160000Y-9040000D01*
X11160000Y-9000000D02*
X11120000Y-9040000D01*
X11120000Y-9740000D02*
X11160000Y-9780000D01*
X11160000Y-9740000D02*
X11120000Y-9780000D01*
X11120000Y-9870000D02*
X11160000Y-9910000D01*
X11160000Y-9870000D02*
X11120000Y-9910000D01*
X11120000Y-9990000D02*
X11160000Y-10030000D01*
X11160000Y-9990000D02*
X11120000Y-10030000D01*
X11170000Y-5960000D02*
X11210000Y-6000000D01*
X11210000Y-5960000D02*
X11170000Y-6000000D01*
X11170000Y-9360000D02*
X11210000Y-9400000D01*
X11210000Y-9360000D02*
X11170000Y-9400000D01*
X11190000Y-5720000D02*
X11230000Y-5760000D01*
X11230000Y-5720000D02*
X11190000Y-5760000D01*
X11190000Y-9120000D02*
X11230000Y-9160000D01*
X11230000Y-9120000D02*
X11190000Y-9160000D01*
X11220000Y-7060000D02*
X11260000Y-7100000D01*
X11260000Y-7060000D02*
X11220000Y-7100000D01*
X11220000Y-10460000D02*
X11260000Y-10500000D01*
X11260000Y-10460000D02*
X11220000Y-10500000D01*
X11230000Y-5850000D02*
X11270000Y-5890000D01*
X11270000Y-5850000D02*
X11230000Y-5890000D01*
X11230000Y-9250000D02*
X11270000Y-9290000D01*
X11270000Y-9250000D02*
X11230000Y-9290000D01*
X11330000Y-6140000D02*
X11370000Y-6180000D01*
X11370000Y-6140000D02*
X11330000Y-6180000D01*
X11330000Y-9540000D02*
X11370000Y-9580000D01*
X11370000Y-9540000D02*
X11330000Y-9580000D01*
X11340000Y-6440000D02*
X11380000Y-6480000D01*
X11380000Y-6440000D02*
X11340000Y-6480000D01*
X11340000Y-9840000D02*
X11380000Y-9880000D01*
X11380000Y-9840000D02*
X11340000Y-9880000D01*
X11360000Y-4420000D02*
X11400000Y-4460000D01*
X11400000Y-4420000D02*
X11360000Y-4460000D01*
X11360000Y-4620000D02*
X11400000Y-4660000D01*
X11400000Y-4620000D02*
X11360000Y-4660000D01*
X11360000Y-7820000D02*
X11400000Y-7860000D01*
X11400000Y-7820000D02*
X11360000Y-7860000D01*
X11360000Y-8020000D02*
X11400000Y-8060000D01*
X11400000Y-8020000D02*
X11360000Y-8060000D01*
X11380000Y-4180000D02*
X11420000Y-4220000D01*
X11420000Y-4180000D02*
X11380000Y-4220000D01*
X11380000Y-5630000D02*
X11420000Y-5670000D01*
X11420000Y-5630000D02*
X11380000Y-5670000D01*
X11380000Y-5830000D02*
X11420000Y-5870000D01*
X11420000Y-5830000D02*
X11380000Y-5870000D01*
X11380000Y-7580000D02*
X11420000Y-7620000D01*
X11420000Y-7580000D02*
X11380000Y-7620000D01*
X11380000Y-9030000D02*
X11420000Y-9070000D01*
X11420000Y-9030000D02*
X11380000Y-9070000D01*
X11380000Y-9230000D02*
X11420000Y-9270000D01*
X11420000Y-9230000D02*
X11380000Y-9270000D01*
X11400000Y-7060000D02*
X11440000Y-7100000D01*
X11440000Y-7060000D02*
X11400000Y-7100000D01*
X11400000Y-10460000D02*
X11440000Y-10500000D01*
X11440000Y-10460000D02*
X11400000Y-10500000D01*
X11420000Y-6300000D02*
X11460000Y-6340000D01*
X11460000Y-6300000D02*
X11420000Y-6340000D01*
X11420000Y-6600000D02*
X11460000Y-6640000D01*
X11460000Y-6600000D02*
X11420000Y-6640000D01*
X11420000Y-6720000D02*
X11460000Y-6760000D01*
X11460000Y-6720000D02*
X11420000Y-6760000D01*
X11420000Y-6840000D02*
X11460000Y-6880000D01*
X11460000Y-6840000D02*
X11420000Y-6880000D01*
X11420000Y-9700000D02*
X11460000Y-9740000D01*
X11460000Y-9700000D02*
X11420000Y-9740000D01*
X11420000Y-10000000D02*
X11460000Y-10040000D01*
X11460000Y-10000000D02*
X11420000Y-10040000D01*
X11420000Y-10120000D02*
X11460000Y-10160000D01*
X11460000Y-10120000D02*
X11420000Y-10160000D01*
X11420000Y-10240000D02*
X11460000Y-10280000D01*
X11460000Y-10240000D02*
X11420000Y-10280000D01*
X11480000Y-5060000D02*
X11520000Y-5100000D01*
X11520000Y-5060000D02*
X11480000Y-5100000D01*
X11480000Y-8460000D02*
X11520000Y-8500000D01*
X11520000Y-8460000D02*
X11480000Y-8500000D01*
X11520000Y-7060000D02*
X11560000Y-7100000D01*
X11560000Y-7060000D02*
X11520000Y-7100000D01*
X11520000Y-10460000D02*
X11560000Y-10500000D01*
X11560000Y-10460000D02*
X11520000Y-10500000D01*
X11580000Y-5630000D02*
X11620000Y-5670000D01*
X11620000Y-5630000D02*
X11580000Y-5670000D01*
X11580000Y-5830000D02*
X11620000Y-5870000D01*
X11620000Y-5830000D02*
X11580000Y-5870000D01*
X11580000Y-9030000D02*
X11620000Y-9070000D01*
X11620000Y-9030000D02*
X11580000Y-9070000D01*
X11580000Y-9230000D02*
X11620000Y-9270000D01*
X11620000Y-9230000D02*
X11580000Y-9270000D01*
X11650000Y-7060000D02*
X11690000Y-7100000D01*
X11690000Y-7060000D02*
X11650000Y-7100000D01*
X11650000Y-10460000D02*
X11690000Y-10500000D01*
X11690000Y-10460000D02*
X11650000Y-10500000D01*
X11660000Y-4420000D02*
X11700000Y-4460000D01*
X11700000Y-4420000D02*
X11660000Y-4460000D01*
X11660000Y-7820000D02*
X11700000Y-7860000D01*
X11700000Y-7820000D02*
X11660000Y-7860000D01*
X11670000Y-6300000D02*
X11710000Y-6340000D01*
X11710000Y-6300000D02*
X11670000Y-6340000D01*
X11670000Y-9700000D02*
X11710000Y-9740000D01*
X11710000Y-9700000D02*
X11670000Y-9740000D01*
X11680000Y-6790000D02*
X11720000Y-6830000D01*
X11720000Y-6790000D02*
X11680000Y-6830000D01*
X11680000Y-10190000D02*
X11720000Y-10230000D01*
X11720000Y-10190000D02*
X11680000Y-10230000D01*
X11780000Y-5630000D02*
X11820000Y-5670000D01*
X11820000Y-5630000D02*
X11780000Y-5670000D01*
X11780000Y-5830000D02*
X11820000Y-5870000D01*
X11820000Y-5830000D02*
X11780000Y-5870000D01*
X11780000Y-6420000D02*
X11820000Y-6460000D01*
X11820000Y-6420000D02*
X11780000Y-6460000D01*
X11780000Y-6560000D02*
X11820000Y-6600000D01*
X11820000Y-6560000D02*
X11780000Y-6600000D01*
X11780000Y-6680000D02*
X11820000Y-6720000D01*
X11820000Y-6680000D02*
X11780000Y-6720000D01*
X11780000Y-9030000D02*
X11820000Y-9070000D01*
X11820000Y-9030000D02*
X11780000Y-9070000D01*
X11780000Y-9230000D02*
X11820000Y-9270000D01*
X11820000Y-9230000D02*
X11780000Y-9270000D01*
X11780000Y-9820000D02*
X11820000Y-9860000D01*
X11820000Y-9820000D02*
X11780000Y-9860000D01*
X11780000Y-9960000D02*
X11820000Y-10000000D01*
X11820000Y-9960000D02*
X11780000Y-10000000D01*
X11780000Y-10080000D02*
X11820000Y-10120000D01*
X11820000Y-10080000D02*
X11780000Y-10120000D01*
X11820000Y-6790000D02*
X11860000Y-6830000D01*
X11860000Y-6790000D02*
X11820000Y-6830000D01*
X11820000Y-10190000D02*
X11860000Y-10230000D01*
X11860000Y-10190000D02*
X11820000Y-10230000D01*
X11880000Y-4180000D02*
X11920000Y-4220000D01*
X11920000Y-4180000D02*
X11880000Y-4220000D01*
X11880000Y-7580000D02*
X11920000Y-7620000D01*
X11920000Y-7580000D02*
X11880000Y-7620000D01*
X11900000Y-6300000D02*
X11940000Y-6340000D01*
X11940000Y-6300000D02*
X11900000Y-6340000D01*
X11900000Y-9700000D02*
X11940000Y-9740000D01*
X11940000Y-9700000D02*
X11900000Y-9740000D01*
X11960000Y-6940000D02*
X12000000Y-6980000D01*
X12000000Y-6940000D02*
X11960000Y-6980000D01*
X11960000Y-10340000D02*
X12000000Y-10380000D01*
X12000000Y-10340000D02*
X11960000Y-10380000D01*
X11980000Y-5480000D02*
X12020000Y-5520000D01*
X12020000Y-5480000D02*
X11980000Y-5520000D01*
X11980000Y-5880000D02*
X12020000Y-5920000D01*
X12020000Y-5880000D02*
X11980000Y-5920000D01*
X11980000Y-8880000D02*
X12020000Y-8920000D01*
X12020000Y-8880000D02*
X11980000Y-8920000D01*
X11980000Y-9280000D02*
X12020000Y-9320000D01*
X12020000Y-9280000D02*
X11980000Y-9320000D01*
X12020000Y-4420000D02*
X12060000Y-4460000D01*
X12060000Y-4420000D02*
X12020000Y-4460000D01*
X12020000Y-7820000D02*
X12060000Y-7860000D01*
X12060000Y-7820000D02*
X12020000Y-7860000D01*
X12130000Y-6980000D02*
X12170000Y-7020000D01*
X12170000Y-6980000D02*
X12130000Y-7020000D01*
X12130000Y-10380000D02*
X12170000Y-10420000D01*
X12170000Y-10380000D02*
X12130000Y-10420000D01*
X12180000Y-5480000D02*
X12220000Y-5520000D01*
X12220000Y-5480000D02*
X12180000Y-5520000D01*
X12180000Y-5880000D02*
X12220000Y-5920000D01*
X12220000Y-5880000D02*
X12180000Y-5920000D01*
X12180000Y-8880000D02*
X12220000Y-8920000D01*
X12220000Y-8880000D02*
X12180000Y-8920000D01*
X12180000Y-9280000D02*
X12220000Y-9320000D01*
X12220000Y-9280000D02*
X12180000Y-9320000D01*
X12340000Y-5060000D02*
X12380000Y-5100000D01*
X12380000Y-5060000D02*
X12340000Y-5100000D01*
X12340000Y-6300000D02*
X12380000Y-6340000D01*
X12380000Y-6300000D02*
X12340000Y-6340000D01*
X12340000Y-8460000D02*
X12380000Y-8500000D01*
X12380000Y-8460000D02*
X12340000Y-8500000D01*
X12340000Y-9700000D02*
X12380000Y-9740000D01*
X12380000Y-9700000D02*
X12340000Y-9740000D01*
X12380000Y-4180000D02*
X12420000Y-4220000D01*
X12420000Y-4180000D02*
X12380000Y-4220000D01*
X12380000Y-5480000D02*
X12420000Y-5520000D01*
X12420000Y-5480000D02*
X12380000Y-5520000D01*
X12380000Y-5880000D02*
X12420000Y-5920000D01*
X12420000Y-5880000D02*
X12380000Y-5920000D01*
X12380000Y-6620000D02*
X12420000Y-6660000D01*
X12420000Y-6620000D02*
X12380000Y-6660000D01*
X12380000Y-6800000D02*
X12420000Y-6840000D01*
X12420000Y-6800000D02*
X12380000Y-6840000D01*
X12380000Y-6980000D02*
X12420000Y-7020000D01*
X12420000Y-6980000D02*
X12380000Y-7020000D01*
X12380000Y-7580000D02*
X12420000Y-7620000D01*
X12420000Y-7580000D02*
X12380000Y-7620000D01*
X12380000Y-8880000D02*
X12420000Y-8920000D01*
X12420000Y-8880000D02*
X12380000Y-8920000D01*
X12380000Y-9280000D02*
X12420000Y-9320000D01*
X12420000Y-9280000D02*
X12380000Y-9320000D01*
X12380000Y-10020000D02*
X12420000Y-10060000D01*
X12420000Y-10020000D02*
X12380000Y-10060000D01*
X12380000Y-10200000D02*
X12420000Y-10240000D01*
X12420000Y-10200000D02*
X12380000Y-10240000D01*
X12380000Y-10380000D02*
X12420000Y-10420000D01*
X12420000Y-10380000D02*
X12380000Y-10420000D01*
X12400000Y-4420000D02*
X12440000Y-4460000D01*
X12440000Y-4420000D02*
X12400000Y-4460000D01*
X12400000Y-4660000D02*
X12440000Y-4700000D01*
X12440000Y-4660000D02*
X12400000Y-4700000D01*
X12400000Y-7820000D02*
X12440000Y-7860000D01*
X12440000Y-7820000D02*
X12400000Y-7860000D01*
X12400000Y-8060000D02*
X12440000Y-8100000D01*
X12440000Y-8060000D02*
X12400000Y-8100000D01*
X12460000Y-5220000D02*
X12500000Y-5260000D01*
X12500000Y-5220000D02*
X12460000Y-5260000D01*
X12460000Y-8620000D02*
X12500000Y-8660000D01*
X12500000Y-8620000D02*
X12460000Y-8660000D01*
D13*
X7660000Y-5850000D02*
G75*
G03*
X7660000Y-5850000I-60000J0D01*
G01*
X7660000Y-9250000D02*
G75*
G03*
X7660000Y-9250000I-60000J0D01*
G01*
X11060000Y-5850000D02*
G75*
G03*
X11060000Y-5850000I-60000J0D01*
G01*
X11060000Y-9250000D02*
G75*
G03*
X11060000Y-9250000I-60000J0D01*
G01*
D14*
X6700000Y-3810000D02*
X6700000Y-3990000D01*
X6610000Y-3900000D02*
X6790000Y-3900000D01*
D11*
X6290000Y-3980000D02*
X7110000Y-3980000D01*
X6290000Y-3820000D02*
X7110000Y-3820000D01*
X7110000Y-3980000D02*
G75*
G03*
X7110000Y-3820000I0J80000D01*
G01*
X6290000Y-3820000D02*
G75*
G03*
X6290000Y-3980000I0J-80000D01*
G01*
D14*
X6800000Y-7210000D02*
X6800000Y-7390000D01*
X6710000Y-7300000D02*
X6890000Y-7300000D01*
D11*
X6390000Y-7380000D02*
X7210000Y-7380000D01*
X6390000Y-7220000D02*
X7210000Y-7220000D01*
X7210000Y-7380000D02*
G75*
G03*
X7210000Y-7220000I0J80000D01*
G01*
X6390000Y-7220000D02*
G75*
G03*
X6390000Y-7380000I0J-80000D01*
G01*
D14*
X6800000Y-10610000D02*
X6800000Y-10790000D01*
X6710000Y-10700000D02*
X6890000Y-10700000D01*
D11*
X6390000Y-10780000D02*
X7210000Y-10780000D01*
X6390000Y-10620000D02*
X7210000Y-10620000D01*
X7210000Y-10780000D02*
G75*
G03*
X7210000Y-10620000I0J80000D01*
G01*
X6390000Y-10620000D02*
G75*
G03*
X6390000Y-10780000I0J-80000D01*
G01*
D14*
X9300000Y-3810000D02*
X9300000Y-3990000D01*
X9210000Y-3900000D02*
X9390000Y-3900000D01*
D11*
X8390000Y-3980000D02*
X10210000Y-3980000D01*
X8390000Y-3820000D02*
X10210000Y-3820000D01*
X10210000Y-3980000D02*
G75*
G03*
X10210000Y-3820000I0J80000D01*
G01*
X8390000Y-3820000D02*
G75*
G03*
X8390000Y-3980000I0J-80000D01*
G01*
D14*
X9300000Y-4310000D02*
X9300000Y-4490000D01*
X9210000Y-4400000D02*
X9390000Y-4400000D01*
D11*
X9380000Y-4810000D02*
X9380000Y-3990000D01*
X9220000Y-4810000D02*
X9220000Y-3990000D01*
X9380000Y-3990000D02*
G75*
G03*
X9220000Y-3990000I-80000J0D01*
G01*
X9220000Y-4810000D02*
G75*
G03*
X9380000Y-4810000I80000J0D01*
G01*
D14*
X9300000Y-7210000D02*
X9300000Y-7390000D01*
X9210000Y-7300000D02*
X9390000Y-7300000D01*
D11*
X8390000Y-7380000D02*
X10210000Y-7380000D01*
X8390000Y-7220000D02*
X10210000Y-7220000D01*
X10210000Y-7380000D02*
G75*
G03*
X10210000Y-7220000I0J80000D01*
G01*
X8390000Y-7220000D02*
G75*
G03*
X8390000Y-7380000I0J-80000D01*
G01*
D14*
X9300000Y-7210000D02*
X9300000Y-7390000D01*
X9210000Y-7300000D02*
X9390000Y-7300000D01*
D11*
X9380000Y-8210000D02*
X9380000Y-6390000D01*
X9220000Y-8210000D02*
X9220000Y-6390000D01*
X9380000Y-6390000D02*
G75*
G03*
X9220000Y-6390000I-80000J0D01*
G01*
X9220000Y-8210000D02*
G75*
G03*
X9380000Y-8210000I80000J0D01*
G01*
D14*
X9300000Y-10110000D02*
X9300000Y-10290000D01*
X9210000Y-10200000D02*
X9390000Y-10200000D01*
D11*
X9380000Y-10610000D02*
X9380000Y-9790000D01*
X9220000Y-10610000D02*
X9220000Y-9790000D01*
X9380000Y-9790000D02*
G75*
G03*
X9220000Y-9790000I-80000J0D01*
G01*
X9220000Y-10610000D02*
G75*
G03*
X9380000Y-10610000I80000J0D01*
G01*
D14*
X9300000Y-10610000D02*
X9300000Y-10790000D01*
X9210000Y-10700000D02*
X9390000Y-10700000D01*
D11*
X8390000Y-10780000D02*
X10210000Y-10780000D01*
X8390000Y-10620000D02*
X10210000Y-10620000D01*
X10210000Y-10780000D02*
G75*
G03*
X10210000Y-10620000I0J80000D01*
G01*
X8390000Y-10620000D02*
G75*
G03*
X8390000Y-10780000I0J-80000D01*
G01*
D14*
X11900000Y-3810000D02*
X11900000Y-3990000D01*
X11810000Y-3900000D02*
X11990000Y-3900000D01*
D11*
X11490000Y-3980000D02*
X12310000Y-3980000D01*
X11490000Y-3820000D02*
X12310000Y-3820000D01*
X12310000Y-3980000D02*
G75*
G03*
X12310000Y-3820000I0J80000D01*
G01*
X11490000Y-3820000D02*
G75*
G03*
X11490000Y-3980000I0J-80000D01*
G01*
D14*
X11900000Y-7210000D02*
X11900000Y-7390000D01*
X11810000Y-7300000D02*
X11990000Y-7300000D01*
D11*
X12310000Y-7220000D02*
X11490000Y-7220000D01*
X12310000Y-7380000D02*
X11490000Y-7380000D01*
X11490000Y-7220000D02*
G75*
G03*
X11490000Y-7380000I0J-80000D01*
G01*
X12310000Y-7380000D02*
G75*
G03*
X12310000Y-7220000I0J80000D01*
G01*
D14*
X11900000Y-10610000D02*
X11900000Y-10790000D01*
X11810000Y-10700000D02*
X11990000Y-10700000D01*
D11*
X11490000Y-10780000D02*
X12310000Y-10780000D01*
X11490000Y-10620000D02*
X12310000Y-10620000D01*
X12310000Y-10780000D02*
G75*
G03*
X12310000Y-10620000I0J80000D01*
G01*
X11490000Y-10620000D02*
G75*
G03*
X11490000Y-10780000I0J-80000D01*
G01*
X6255119Y-11712976D02*
X6255119Y-11512976D01*
X6302738Y-11512976D01*
X6331309Y-11522500D01*
X6350357Y-11541548D01*
X6359881Y-11560595D01*
X6369405Y-11598690D01*
X6369405Y-11627262D01*
X6359881Y-11665357D01*
X6350357Y-11684405D01*
X6331309Y-11703452D01*
X6302738Y-11712976D01*
X6255119Y-11712976D01*
X6455119Y-11712976D02*
X6455119Y-11579643D01*
X6455119Y-11617738D02*
X6464643Y-11598690D01*
X6474167Y-11589167D01*
X6493214Y-11579643D01*
X6512262Y-11579643D01*
X6578928Y-11712976D02*
X6578928Y-11579643D01*
X6578928Y-11512976D02*
X6569405Y-11522500D01*
X6578928Y-11532024D01*
X6588452Y-11522500D01*
X6578928Y-11512976D01*
X6578928Y-11532024D01*
X6702738Y-11712976D02*
X6683690Y-11703452D01*
X6674167Y-11684405D01*
X6674167Y-11512976D01*
X6807500Y-11712976D02*
X6788452Y-11703452D01*
X6778928Y-11684405D01*
X6778928Y-11512976D01*
X7036071Y-11712976D02*
X7036071Y-11512976D01*
X7102738Y-11655833D01*
X7169405Y-11512976D01*
X7169405Y-11712976D01*
X7350357Y-11712976D02*
X7350357Y-11608214D01*
X7340833Y-11589167D01*
X7321786Y-11579643D01*
X7283690Y-11579643D01*
X7264643Y-11589167D01*
X7350357Y-11703452D02*
X7331309Y-11712976D01*
X7283690Y-11712976D01*
X7264643Y-11703452D01*
X7255119Y-11684405D01*
X7255119Y-11665357D01*
X7264643Y-11646309D01*
X7283690Y-11636786D01*
X7331309Y-11636786D01*
X7350357Y-11627262D01*
X7445595Y-11579643D02*
X7445595Y-11779643D01*
X7445595Y-11589167D02*
X7464643Y-11579643D01*
X7502738Y-11579643D01*
X7521786Y-11589167D01*
X7531309Y-11598690D01*
X7540833Y-11617738D01*
X7540833Y-11674881D01*
X7531309Y-11693928D01*
X7521786Y-11703452D01*
X7502738Y-11712976D01*
X7464643Y-11712976D01*
X7445595Y-11703452D01*
X7626548Y-11693928D02*
X7636071Y-11703452D01*
X7626548Y-11712976D01*
X7617024Y-11703452D01*
X7626548Y-11693928D01*
X7626548Y-11712976D01*
X7626548Y-11589167D02*
X7636071Y-11598690D01*
X7626548Y-11608214D01*
X7617024Y-11598690D01*
X7626548Y-11589167D01*
X7626548Y-11608214D01*
D12*
X5957500Y-12022500D02*
X5997500Y-12062500D01*
X5997500Y-12022500D02*
X5957500Y-12062500D01*
D11*
X6293214Y-11932976D02*
X6312262Y-11932976D01*
X6331309Y-11942500D01*
X6340833Y-11952024D01*
X6350357Y-11971071D01*
X6359881Y-12009167D01*
X6359881Y-12056786D01*
X6350357Y-12094881D01*
X6340833Y-12113928D01*
X6331309Y-12123452D01*
X6312262Y-12132976D01*
X6293214Y-12132976D01*
X6274167Y-12123452D01*
X6264643Y-12113928D01*
X6255119Y-12094881D01*
X6245595Y-12056786D01*
X6245595Y-12009167D01*
X6255119Y-11971071D01*
X6264643Y-11952024D01*
X6274167Y-11942500D01*
X6293214Y-11932976D01*
X6445595Y-12113928D02*
X6455119Y-12123452D01*
X6445595Y-12132976D01*
X6436071Y-12123452D01*
X6445595Y-12113928D01*
X6445595Y-12132976D01*
X6626548Y-11999643D02*
X6626548Y-12132976D01*
X6578928Y-11923452D02*
X6531309Y-12066309D01*
X6655119Y-12066309D01*
X6769405Y-11932976D02*
X6788452Y-11932976D01*
X6807500Y-11942500D01*
X6817024Y-11952024D01*
X6826548Y-11971071D01*
X6836071Y-12009167D01*
X6836071Y-12056786D01*
X6826548Y-12094881D01*
X6817024Y-12113928D01*
X6807500Y-12123452D01*
X6788452Y-12132976D01*
X6769405Y-12132976D01*
X6750357Y-12123452D01*
X6740833Y-12113928D01*
X6731309Y-12094881D01*
X6721786Y-12056786D01*
X6721786Y-12009167D01*
X6731309Y-11971071D01*
X6740833Y-11952024D01*
X6750357Y-11942500D01*
X6769405Y-11932976D01*
X6959881Y-11932976D02*
X6978928Y-11932976D01*
X6997976Y-11942500D01*
X7007500Y-11952024D01*
X7017024Y-11971071D01*
X7026548Y-12009167D01*
X7026548Y-12056786D01*
X7017024Y-12094881D01*
X7007500Y-12113928D01*
X6997976Y-12123452D01*
X6978928Y-12132976D01*
X6959881Y-12132976D01*
X6940833Y-12123452D01*
X6931309Y-12113928D01*
X6921786Y-12094881D01*
X6912262Y-12056786D01*
X6912262Y-12009167D01*
X6921786Y-11971071D01*
X6931309Y-11952024D01*
X6940833Y-11942500D01*
X6959881Y-11932976D01*
X7112262Y-12132976D02*
X7112262Y-11999643D01*
X7112262Y-12018690D02*
X7121786Y-12009167D01*
X7140833Y-11999643D01*
X7169405Y-11999643D01*
X7188452Y-12009167D01*
X7197976Y-12028214D01*
X7197976Y-12132976D01*
X7197976Y-12028214D02*
X7207500Y-12009167D01*
X7226548Y-11999643D01*
X7255119Y-11999643D01*
X7274167Y-12009167D01*
X7283690Y-12028214D01*
X7283690Y-12132976D01*
X7378928Y-12132976D02*
X7378928Y-11999643D01*
X7378928Y-12018690D02*
X7388452Y-12009167D01*
X7407500Y-11999643D01*
X7436071Y-11999643D01*
X7455119Y-12009167D01*
X7464643Y-12028214D01*
X7464643Y-12132976D01*
X7464643Y-12028214D02*
X7474167Y-12009167D01*
X7493214Y-11999643D01*
X7521786Y-11999643D01*
X7540833Y-12009167D01*
X7550357Y-12028214D01*
X7550357Y-12132976D01*
X7940833Y-11923452D02*
X7769405Y-12180595D01*
X8197976Y-11932976D02*
X8217024Y-11932976D01*
X8236071Y-11942500D01*
X8245595Y-11952024D01*
X8255119Y-11971071D01*
X8264643Y-12009167D01*
X8264643Y-12056786D01*
X8255119Y-12094881D01*
X8245595Y-12113928D01*
X8236071Y-12123452D01*
X8217024Y-12132976D01*
X8197976Y-12132976D01*
X8178928Y-12123452D01*
X8169405Y-12113928D01*
X8159881Y-12094881D01*
X8150357Y-12056786D01*
X8150357Y-12009167D01*
X8159881Y-11971071D01*
X8169405Y-11952024D01*
X8178928Y-11942500D01*
X8197976Y-11932976D01*
X8350357Y-12113928D02*
X8359881Y-12123452D01*
X8350357Y-12132976D01*
X8340833Y-12123452D01*
X8350357Y-12113928D01*
X8350357Y-12132976D01*
X8483690Y-11932976D02*
X8502738Y-11932976D01*
X8521786Y-11942500D01*
X8531310Y-11952024D01*
X8540833Y-11971071D01*
X8550357Y-12009167D01*
X8550357Y-12056786D01*
X8540833Y-12094881D01*
X8531310Y-12113928D01*
X8521786Y-12123452D01*
X8502738Y-12132976D01*
X8483690Y-12132976D01*
X8464643Y-12123452D01*
X8455119Y-12113928D01*
X8445595Y-12094881D01*
X8436071Y-12056786D01*
X8436071Y-12009167D01*
X8445595Y-11971071D01*
X8455119Y-11952024D01*
X8464643Y-11942500D01*
X8483690Y-11932976D01*
X8740833Y-12132976D02*
X8626548Y-12132976D01*
X8683690Y-12132976D02*
X8683690Y-11932976D01*
X8664643Y-11961548D01*
X8645595Y-11980595D01*
X8626548Y-11990119D01*
X8921786Y-11932976D02*
X8826548Y-11932976D01*
X8817024Y-12028214D01*
X8826548Y-12018690D01*
X8845595Y-12009167D01*
X8893214Y-12009167D01*
X8912262Y-12018690D01*
X8921786Y-12028214D01*
X8931310Y-12047262D01*
X8931310Y-12094881D01*
X8921786Y-12113928D01*
X8912262Y-12123452D01*
X8893214Y-12132976D01*
X8845595Y-12132976D01*
X8826548Y-12123452D01*
X8817024Y-12113928D01*
X8997976Y-11932976D02*
X9131310Y-11932976D01*
X9045595Y-12132976D01*
X9197976Y-11932976D02*
X9197976Y-11971071D01*
X9274167Y-11932976D02*
X9274167Y-11971071D01*
X9569405Y-12209167D02*
X9559881Y-12199643D01*
X9540833Y-12171071D01*
X9531310Y-12152024D01*
X9521786Y-12123452D01*
X9512262Y-12075833D01*
X9512262Y-12037738D01*
X9521786Y-11990119D01*
X9531310Y-11961548D01*
X9540833Y-11942500D01*
X9559881Y-11913928D01*
X9569405Y-11904405D01*
X9626548Y-11932976D02*
X9750357Y-11932976D01*
X9683690Y-12009167D01*
X9712262Y-12009167D01*
X9731310Y-12018690D01*
X9740833Y-12028214D01*
X9750357Y-12047262D01*
X9750357Y-12094881D01*
X9740833Y-12113928D01*
X9731310Y-12123452D01*
X9712262Y-12132976D01*
X9655119Y-12132976D01*
X9636071Y-12123452D01*
X9626548Y-12113928D01*
X9921786Y-11932976D02*
X9883690Y-11932976D01*
X9864643Y-11942500D01*
X9855119Y-11952024D01*
X9836071Y-11980595D01*
X9826548Y-12018690D01*
X9826548Y-12094881D01*
X9836071Y-12113928D01*
X9845595Y-12123452D01*
X9864643Y-12132976D01*
X9902738Y-12132976D01*
X9921786Y-12123452D01*
X9931310Y-12113928D01*
X9940833Y-12094881D01*
X9940833Y-12047262D01*
X9931310Y-12028214D01*
X9921786Y-12018690D01*
X9902738Y-12009167D01*
X9864643Y-12009167D01*
X9845595Y-12018690D01*
X9836071Y-12028214D01*
X9826548Y-12047262D01*
X10112262Y-11999643D02*
X10112262Y-12132976D01*
X10064643Y-11923452D02*
X10017024Y-12066309D01*
X10140833Y-12066309D01*
X10369405Y-12132976D02*
X10369405Y-11932976D01*
X10455119Y-12132976D02*
X10455119Y-12028214D01*
X10445595Y-12009167D01*
X10426548Y-11999643D01*
X10397976Y-11999643D01*
X10378929Y-12009167D01*
X10369405Y-12018690D01*
X10578929Y-12132976D02*
X10559881Y-12123452D01*
X10550357Y-12113928D01*
X10540833Y-12094881D01*
X10540833Y-12037738D01*
X10550357Y-12018690D01*
X10559881Y-12009167D01*
X10578929Y-11999643D01*
X10607500Y-11999643D01*
X10626548Y-12009167D01*
X10636071Y-12018690D01*
X10645595Y-12037738D01*
X10645595Y-12094881D01*
X10636071Y-12113928D01*
X10626548Y-12123452D01*
X10607500Y-12132976D01*
X10578929Y-12132976D01*
X10759881Y-12132976D02*
X10740833Y-12123452D01*
X10731310Y-12104405D01*
X10731310Y-11932976D01*
X10912262Y-12123452D02*
X10893214Y-12132976D01*
X10855119Y-12132976D01*
X10836071Y-12123452D01*
X10826548Y-12104405D01*
X10826548Y-12028214D01*
X10836071Y-12009167D01*
X10855119Y-11999643D01*
X10893214Y-11999643D01*
X10912262Y-12009167D01*
X10921786Y-12028214D01*
X10921786Y-12047262D01*
X10826548Y-12066309D01*
X10997976Y-12123452D02*
X11017024Y-12132976D01*
X11055119Y-12132976D01*
X11074167Y-12123452D01*
X11083690Y-12104405D01*
X11083690Y-12094881D01*
X11074167Y-12075833D01*
X11055119Y-12066309D01*
X11026548Y-12066309D01*
X11007500Y-12056786D01*
X10997976Y-12037738D01*
X10997976Y-12028214D01*
X11007500Y-12009167D01*
X11026548Y-11999643D01*
X11055119Y-11999643D01*
X11074167Y-12009167D01*
X11150357Y-12209167D02*
X11159881Y-12199643D01*
X11178929Y-12171071D01*
X11188452Y-12152024D01*
X11197976Y-12123452D01*
X11207500Y-12075833D01*
X11207500Y-12037738D01*
X11197976Y-11990119D01*
X11188452Y-11961548D01*
X11178929Y-11942500D01*
X11159881Y-11913928D01*
X11150357Y-11904405D01*
D13*
X5997500Y-12306500D02*
G75*
G03*
X5997500Y-12306500I-60000J0D01*
G01*
D11*
X6359881Y-12396976D02*
X6245595Y-12396976D01*
X6302738Y-12396976D02*
X6302738Y-12196976D01*
X6283690Y-12225548D01*
X6264643Y-12244595D01*
X6245595Y-12254119D01*
X6445595Y-12377928D02*
X6455119Y-12387452D01*
X6445595Y-12396976D01*
X6436071Y-12387452D01*
X6445595Y-12377928D01*
X6445595Y-12396976D01*
X6531309Y-12216024D02*
X6540833Y-12206500D01*
X6559881Y-12196976D01*
X6607500Y-12196976D01*
X6626548Y-12206500D01*
X6636071Y-12216024D01*
X6645595Y-12235071D01*
X6645595Y-12254119D01*
X6636071Y-12282690D01*
X6521786Y-12396976D01*
X6645595Y-12396976D01*
X6769405Y-12196976D02*
X6788452Y-12196976D01*
X6807500Y-12206500D01*
X6817024Y-12216024D01*
X6826548Y-12235071D01*
X6836071Y-12273167D01*
X6836071Y-12320786D01*
X6826548Y-12358881D01*
X6817024Y-12377928D01*
X6807500Y-12387452D01*
X6788452Y-12396976D01*
X6769405Y-12396976D01*
X6750357Y-12387452D01*
X6740833Y-12377928D01*
X6731309Y-12358881D01*
X6721786Y-12320786D01*
X6721786Y-12273167D01*
X6731309Y-12235071D01*
X6740833Y-12216024D01*
X6750357Y-12206500D01*
X6769405Y-12196976D01*
X6959881Y-12196976D02*
X6978928Y-12196976D01*
X6997976Y-12206500D01*
X7007500Y-12216024D01*
X7017024Y-12235071D01*
X7026548Y-12273167D01*
X7026548Y-12320786D01*
X7017024Y-12358881D01*
X7007500Y-12377928D01*
X6997976Y-12387452D01*
X6978928Y-12396976D01*
X6959881Y-12396976D01*
X6940833Y-12387452D01*
X6931309Y-12377928D01*
X6921786Y-12358881D01*
X6912262Y-12320786D01*
X6912262Y-12273167D01*
X6921786Y-12235071D01*
X6931309Y-12216024D01*
X6940833Y-12206500D01*
X6959881Y-12196976D01*
X7112262Y-12396976D02*
X7112262Y-12263643D01*
X7112262Y-12282690D02*
X7121786Y-12273167D01*
X7140833Y-12263643D01*
X7169405Y-12263643D01*
X7188452Y-12273167D01*
X7197976Y-12292214D01*
X7197976Y-12396976D01*
X7197976Y-12292214D02*
X7207500Y-12273167D01*
X7226548Y-12263643D01*
X7255119Y-12263643D01*
X7274167Y-12273167D01*
X7283690Y-12292214D01*
X7283690Y-12396976D01*
X7378928Y-12396976D02*
X7378928Y-12263643D01*
X7378928Y-12282690D02*
X7388452Y-12273167D01*
X7407500Y-12263643D01*
X7436071Y-12263643D01*
X7455119Y-12273167D01*
X7464643Y-12292214D01*
X7464643Y-12396976D01*
X7464643Y-12292214D02*
X7474167Y-12273167D01*
X7493214Y-12263643D01*
X7521786Y-12263643D01*
X7540833Y-12273167D01*
X7550357Y-12292214D01*
X7550357Y-12396976D01*
X7940833Y-12187452D02*
X7769405Y-12444595D01*
X8197976Y-12196976D02*
X8217024Y-12196976D01*
X8236071Y-12206500D01*
X8245595Y-12216024D01*
X8255119Y-12235071D01*
X8264643Y-12273167D01*
X8264643Y-12320786D01*
X8255119Y-12358881D01*
X8245595Y-12377928D01*
X8236071Y-12387452D01*
X8217024Y-12396976D01*
X8197976Y-12396976D01*
X8178928Y-12387452D01*
X8169405Y-12377928D01*
X8159881Y-12358881D01*
X8150357Y-12320786D01*
X8150357Y-12273167D01*
X8159881Y-12235071D01*
X8169405Y-12216024D01*
X8178928Y-12206500D01*
X8197976Y-12196976D01*
X8350357Y-12377928D02*
X8359881Y-12387452D01*
X8350357Y-12396976D01*
X8340833Y-12387452D01*
X8350357Y-12377928D01*
X8350357Y-12396976D01*
X8483690Y-12196976D02*
X8502738Y-12196976D01*
X8521786Y-12206500D01*
X8531310Y-12216024D01*
X8540833Y-12235071D01*
X8550357Y-12273167D01*
X8550357Y-12320786D01*
X8540833Y-12358881D01*
X8531310Y-12377928D01*
X8521786Y-12387452D01*
X8502738Y-12396976D01*
X8483690Y-12396976D01*
X8464643Y-12387452D01*
X8455119Y-12377928D01*
X8445595Y-12358881D01*
X8436071Y-12320786D01*
X8436071Y-12273167D01*
X8445595Y-12235071D01*
X8455119Y-12216024D01*
X8464643Y-12206500D01*
X8483690Y-12196976D01*
X8721786Y-12263643D02*
X8721786Y-12396976D01*
X8674167Y-12187452D02*
X8626548Y-12330309D01*
X8750357Y-12330309D01*
X8807500Y-12196976D02*
X8940833Y-12196976D01*
X8855119Y-12396976D01*
X9007500Y-12216024D02*
X9017024Y-12206500D01*
X9036071Y-12196976D01*
X9083690Y-12196976D01*
X9102738Y-12206500D01*
X9112262Y-12216024D01*
X9121786Y-12235071D01*
X9121786Y-12254119D01*
X9112262Y-12282690D01*
X8997976Y-12396976D01*
X9121786Y-12396976D01*
X9197976Y-12196976D02*
X9197976Y-12235071D01*
X9274167Y-12196976D02*
X9274167Y-12235071D01*
X9569405Y-12473167D02*
X9559881Y-12463643D01*
X9540833Y-12435071D01*
X9531310Y-12416024D01*
X9521786Y-12387452D01*
X9512262Y-12339833D01*
X9512262Y-12301738D01*
X9521786Y-12254119D01*
X9531310Y-12225548D01*
X9540833Y-12206500D01*
X9559881Y-12177928D01*
X9569405Y-12168405D01*
X9731310Y-12263643D02*
X9731310Y-12396976D01*
X9683690Y-12187452D02*
X9636071Y-12330309D01*
X9759881Y-12330309D01*
X9988452Y-12396976D02*
X9988452Y-12196976D01*
X10074167Y-12396976D02*
X10074167Y-12292214D01*
X10064643Y-12273167D01*
X10045595Y-12263643D01*
X10017024Y-12263643D01*
X9997976Y-12273167D01*
X9988452Y-12282690D01*
X10197976Y-12396976D02*
X10178929Y-12387452D01*
X10169405Y-12377928D01*
X10159881Y-12358881D01*
X10159881Y-12301738D01*
X10169405Y-12282690D01*
X10178929Y-12273167D01*
X10197976Y-12263643D01*
X10226548Y-12263643D01*
X10245595Y-12273167D01*
X10255119Y-12282690D01*
X10264643Y-12301738D01*
X10264643Y-12358881D01*
X10255119Y-12377928D01*
X10245595Y-12387452D01*
X10226548Y-12396976D01*
X10197976Y-12396976D01*
X10378929Y-12396976D02*
X10359881Y-12387452D01*
X10350357Y-12368405D01*
X10350357Y-12196976D01*
X10531310Y-12387452D02*
X10512262Y-12396976D01*
X10474167Y-12396976D01*
X10455119Y-12387452D01*
X10445595Y-12368405D01*
X10445595Y-12292214D01*
X10455119Y-12273167D01*
X10474167Y-12263643D01*
X10512262Y-12263643D01*
X10531310Y-12273167D01*
X10540833Y-12292214D01*
X10540833Y-12311262D01*
X10445595Y-12330309D01*
X10617024Y-12387452D02*
X10636071Y-12396976D01*
X10674167Y-12396976D01*
X10693214Y-12387452D01*
X10702738Y-12368405D01*
X10702738Y-12358881D01*
X10693214Y-12339833D01*
X10674167Y-12330309D01*
X10645595Y-12330309D01*
X10626548Y-12320786D01*
X10617024Y-12301738D01*
X10617024Y-12292214D01*
X10626548Y-12273167D01*
X10645595Y-12263643D01*
X10674167Y-12263643D01*
X10693214Y-12273167D01*
X10769405Y-12473167D02*
X10778929Y-12463643D01*
X10797976Y-12435071D01*
X10807500Y-12416024D01*
X10817024Y-12387452D01*
X10826548Y-12339833D01*
X10826548Y-12301738D01*
X10817024Y-12254119D01*
X10807500Y-12225548D01*
X10797976Y-12206500D01*
X10778929Y-12177928D01*
X10769405Y-12168405D01*
D14*
X5907500Y-12480500D02*
X5907500Y-12660500D01*
X5817500Y-12570500D02*
X5997500Y-12570500D01*
D11*
X6359881Y-12660976D02*
X6245595Y-12660976D01*
X6302738Y-12660976D02*
X6302738Y-12460976D01*
X6283690Y-12489548D01*
X6264643Y-12508595D01*
X6245595Y-12518119D01*
X6445595Y-12641928D02*
X6455119Y-12651452D01*
X6445595Y-12660976D01*
X6436071Y-12651452D01*
X6445595Y-12641928D01*
X6445595Y-12660976D01*
X6569405Y-12546690D02*
X6550357Y-12537167D01*
X6540833Y-12527643D01*
X6531309Y-12508595D01*
X6531309Y-12499071D01*
X6540833Y-12480024D01*
X6550357Y-12470500D01*
X6569405Y-12460976D01*
X6607500Y-12460976D01*
X6626548Y-12470500D01*
X6636071Y-12480024D01*
X6645595Y-12499071D01*
X6645595Y-12508595D01*
X6636071Y-12527643D01*
X6626548Y-12537167D01*
X6607500Y-12546690D01*
X6569405Y-12546690D01*
X6550357Y-12556214D01*
X6540833Y-12565738D01*
X6531309Y-12584786D01*
X6531309Y-12622881D01*
X6540833Y-12641928D01*
X6550357Y-12651452D01*
X6569405Y-12660976D01*
X6607500Y-12660976D01*
X6626548Y-12651452D01*
X6636071Y-12641928D01*
X6645595Y-12622881D01*
X6645595Y-12584786D01*
X6636071Y-12565738D01*
X6626548Y-12556214D01*
X6607500Y-12546690D01*
X6769405Y-12460976D02*
X6788452Y-12460976D01*
X6807500Y-12470500D01*
X6817024Y-12480024D01*
X6826548Y-12499071D01*
X6836071Y-12537167D01*
X6836071Y-12584786D01*
X6826548Y-12622881D01*
X6817024Y-12641928D01*
X6807500Y-12651452D01*
X6788452Y-12660976D01*
X6769405Y-12660976D01*
X6750357Y-12651452D01*
X6740833Y-12641928D01*
X6731309Y-12622881D01*
X6721786Y-12584786D01*
X6721786Y-12537167D01*
X6731309Y-12499071D01*
X6740833Y-12480024D01*
X6750357Y-12470500D01*
X6769405Y-12460976D01*
X6959881Y-12460976D02*
X6978928Y-12460976D01*
X6997976Y-12470500D01*
X7007500Y-12480024D01*
X7017024Y-12499071D01*
X7026548Y-12537167D01*
X7026548Y-12584786D01*
X7017024Y-12622881D01*
X7007500Y-12641928D01*
X6997976Y-12651452D01*
X6978928Y-12660976D01*
X6959881Y-12660976D01*
X6940833Y-12651452D01*
X6931309Y-12641928D01*
X6921786Y-12622881D01*
X6912262Y-12584786D01*
X6912262Y-12537167D01*
X6921786Y-12499071D01*
X6931309Y-12480024D01*
X6940833Y-12470500D01*
X6959881Y-12460976D01*
X7112262Y-12660976D02*
X7112262Y-12527643D01*
X7112262Y-12546690D02*
X7121786Y-12537167D01*
X7140833Y-12527643D01*
X7169405Y-12527643D01*
X7188452Y-12537167D01*
X7197976Y-12556214D01*
X7197976Y-12660976D01*
X7197976Y-12556214D02*
X7207500Y-12537167D01*
X7226548Y-12527643D01*
X7255119Y-12527643D01*
X7274167Y-12537167D01*
X7283690Y-12556214D01*
X7283690Y-12660976D01*
X7378928Y-12660976D02*
X7378928Y-12527643D01*
X7378928Y-12546690D02*
X7388452Y-12537167D01*
X7407500Y-12527643D01*
X7436071Y-12527643D01*
X7455119Y-12537167D01*
X7464643Y-12556214D01*
X7464643Y-12660976D01*
X7464643Y-12556214D02*
X7474167Y-12537167D01*
X7493214Y-12527643D01*
X7521786Y-12527643D01*
X7540833Y-12537167D01*
X7550357Y-12556214D01*
X7550357Y-12660976D01*
X7940833Y-12451452D02*
X7769405Y-12708595D01*
X8197976Y-12460976D02*
X8217024Y-12460976D01*
X8236071Y-12470500D01*
X8245595Y-12480024D01*
X8255119Y-12499071D01*
X8264643Y-12537167D01*
X8264643Y-12584786D01*
X8255119Y-12622881D01*
X8245595Y-12641928D01*
X8236071Y-12651452D01*
X8217024Y-12660976D01*
X8197976Y-12660976D01*
X8178928Y-12651452D01*
X8169405Y-12641928D01*
X8159881Y-12622881D01*
X8150357Y-12584786D01*
X8150357Y-12537167D01*
X8159881Y-12499071D01*
X8169405Y-12480024D01*
X8178928Y-12470500D01*
X8197976Y-12460976D01*
X8350357Y-12641928D02*
X8359881Y-12651452D01*
X8350357Y-12660976D01*
X8340833Y-12651452D01*
X8350357Y-12641928D01*
X8350357Y-12660976D01*
X8483690Y-12460976D02*
X8502738Y-12460976D01*
X8521786Y-12470500D01*
X8531310Y-12480024D01*
X8540833Y-12499071D01*
X8550357Y-12537167D01*
X8550357Y-12584786D01*
X8540833Y-12622881D01*
X8531310Y-12641928D01*
X8521786Y-12651452D01*
X8502738Y-12660976D01*
X8483690Y-12660976D01*
X8464643Y-12651452D01*
X8455119Y-12641928D01*
X8445595Y-12622881D01*
X8436071Y-12584786D01*
X8436071Y-12537167D01*
X8445595Y-12499071D01*
X8455119Y-12480024D01*
X8464643Y-12470500D01*
X8483690Y-12460976D01*
X8617024Y-12460976D02*
X8750357Y-12460976D01*
X8664643Y-12660976D01*
X8864643Y-12460976D02*
X8883690Y-12460976D01*
X8902738Y-12470500D01*
X8912262Y-12480024D01*
X8921786Y-12499071D01*
X8931310Y-12537167D01*
X8931310Y-12584786D01*
X8921786Y-12622881D01*
X8912262Y-12641928D01*
X8902738Y-12651452D01*
X8883690Y-12660976D01*
X8864643Y-12660976D01*
X8845595Y-12651452D01*
X8836071Y-12641928D01*
X8826548Y-12622881D01*
X8817024Y-12584786D01*
X8817024Y-12537167D01*
X8826548Y-12499071D01*
X8836071Y-12480024D01*
X8845595Y-12470500D01*
X8864643Y-12460976D01*
X9026548Y-12660976D02*
X9064643Y-12660976D01*
X9083690Y-12651452D01*
X9093214Y-12641928D01*
X9112262Y-12613357D01*
X9121786Y-12575262D01*
X9121786Y-12499071D01*
X9112262Y-12480024D01*
X9102738Y-12470500D01*
X9083690Y-12460976D01*
X9045595Y-12460976D01*
X9026548Y-12470500D01*
X9017024Y-12480024D01*
X9007500Y-12499071D01*
X9007500Y-12546690D01*
X9017024Y-12565738D01*
X9026548Y-12575262D01*
X9045595Y-12584786D01*
X9083690Y-12584786D01*
X9102738Y-12575262D01*
X9112262Y-12565738D01*
X9121786Y-12546690D01*
X9197976Y-12460976D02*
X9197976Y-12499071D01*
X9274167Y-12460976D02*
X9274167Y-12499071D01*
X9569405Y-12737167D02*
X9559881Y-12727643D01*
X9540833Y-12699071D01*
X9531310Y-12680024D01*
X9521786Y-12651452D01*
X9512262Y-12603833D01*
X9512262Y-12565738D01*
X9521786Y-12518119D01*
X9531310Y-12489548D01*
X9540833Y-12470500D01*
X9559881Y-12441928D01*
X9569405Y-12432405D01*
X9683690Y-12460976D02*
X9702738Y-12460976D01*
X9721786Y-12470500D01*
X9731310Y-12480024D01*
X9740833Y-12499071D01*
X9750357Y-12537167D01*
X9750357Y-12584786D01*
X9740833Y-12622881D01*
X9731310Y-12641928D01*
X9721786Y-12651452D01*
X9702738Y-12660976D01*
X9683690Y-12660976D01*
X9664643Y-12651452D01*
X9655119Y-12641928D01*
X9645595Y-12622881D01*
X9636071Y-12584786D01*
X9636071Y-12537167D01*
X9645595Y-12499071D01*
X9655119Y-12480024D01*
X9664643Y-12470500D01*
X9683690Y-12460976D01*
X9988452Y-12660976D02*
X9988452Y-12460976D01*
X10074167Y-12660976D02*
X10074167Y-12556214D01*
X10064643Y-12537167D01*
X10045595Y-12527643D01*
X10017024Y-12527643D01*
X9997976Y-12537167D01*
X9988452Y-12546690D01*
X10197976Y-12660976D02*
X10178929Y-12651452D01*
X10169405Y-12641928D01*
X10159881Y-12622881D01*
X10159881Y-12565738D01*
X10169405Y-12546690D01*
X10178929Y-12537167D01*
X10197976Y-12527643D01*
X10226548Y-12527643D01*
X10245595Y-12537167D01*
X10255119Y-12546690D01*
X10264643Y-12565738D01*
X10264643Y-12622881D01*
X10255119Y-12641928D01*
X10245595Y-12651452D01*
X10226548Y-12660976D01*
X10197976Y-12660976D01*
X10378929Y-12660976D02*
X10359881Y-12651452D01*
X10350357Y-12632405D01*
X10350357Y-12460976D01*
X10531310Y-12651452D02*
X10512262Y-12660976D01*
X10474167Y-12660976D01*
X10455119Y-12651452D01*
X10445595Y-12632405D01*
X10445595Y-12556214D01*
X10455119Y-12537167D01*
X10474167Y-12527643D01*
X10512262Y-12527643D01*
X10531310Y-12537167D01*
X10540833Y-12556214D01*
X10540833Y-12575262D01*
X10445595Y-12594309D01*
X10617024Y-12651452D02*
X10636071Y-12660976D01*
X10674167Y-12660976D01*
X10693214Y-12651452D01*
X10702738Y-12632405D01*
X10702738Y-12622881D01*
X10693214Y-12603833D01*
X10674167Y-12594309D01*
X10645595Y-12594309D01*
X10626548Y-12584786D01*
X10617024Y-12565738D01*
X10617024Y-12556214D01*
X10626548Y-12537167D01*
X10645595Y-12527643D01*
X10674167Y-12527643D01*
X10693214Y-12537167D01*
X10940833Y-12584786D02*
X11093214Y-12584786D01*
X11017024Y-12660976D02*
X11017024Y-12508595D01*
X11445595Y-12660976D02*
X11331309Y-12660976D01*
X11388452Y-12660976D02*
X11388452Y-12460976D01*
X11369405Y-12489548D01*
X11350357Y-12508595D01*
X11331309Y-12518119D01*
X11521786Y-12480024D02*
X11531309Y-12470500D01*
X11550357Y-12460976D01*
X11597976Y-12460976D01*
X11617024Y-12470500D01*
X11626548Y-12480024D01*
X11636071Y-12499071D01*
X11636071Y-12518119D01*
X11626548Y-12546690D01*
X11512262Y-12660976D01*
X11636071Y-12660976D01*
X11864643Y-12651452D02*
X11883690Y-12660976D01*
X11921786Y-12660976D01*
X11940833Y-12651452D01*
X11950357Y-12632405D01*
X11950357Y-12622881D01*
X11940833Y-12603833D01*
X11921786Y-12594309D01*
X11893214Y-12594309D01*
X11874167Y-12584786D01*
X11864643Y-12565738D01*
X11864643Y-12556214D01*
X11874167Y-12537167D01*
X11893214Y-12527643D01*
X11921786Y-12527643D01*
X11940833Y-12537167D01*
X12064643Y-12660976D02*
X12045595Y-12651452D01*
X12036071Y-12632405D01*
X12036071Y-12460976D01*
X12169405Y-12660976D02*
X12150357Y-12651452D01*
X12140833Y-12641928D01*
X12131309Y-12622881D01*
X12131309Y-12565738D01*
X12140833Y-12546690D01*
X12150357Y-12537167D01*
X12169405Y-12527643D01*
X12197976Y-12527643D01*
X12217024Y-12537167D01*
X12226548Y-12546690D01*
X12236071Y-12565738D01*
X12236071Y-12622881D01*
X12226548Y-12641928D01*
X12217024Y-12651452D01*
X12197976Y-12660976D01*
X12169405Y-12660976D01*
X12293214Y-12527643D02*
X12369405Y-12527643D01*
X12321786Y-12460976D02*
X12321786Y-12632405D01*
X12331309Y-12651452D01*
X12350357Y-12660976D01*
X12369405Y-12660976D01*
X12426548Y-12651452D02*
X12445595Y-12660976D01*
X12483690Y-12660976D01*
X12502738Y-12651452D01*
X12512262Y-12632405D01*
X12512262Y-12622881D01*
X12502738Y-12603833D01*
X12483690Y-12594309D01*
X12455119Y-12594309D01*
X12436071Y-12584786D01*
X12426548Y-12565738D01*
X12426548Y-12556214D01*
X12436071Y-12537167D01*
X12455119Y-12527643D01*
X12483690Y-12527643D01*
X12502738Y-12537167D01*
X12578928Y-12737167D02*
X12588452Y-12727643D01*
X12607500Y-12699071D01*
X12617024Y-12680024D01*
X12626548Y-12651452D01*
X12636071Y-12603833D01*
X12636071Y-12565738D01*
X12626548Y-12518119D01*
X12617024Y-12489548D01*
X12607500Y-12470500D01*
X12588452Y-12441928D01*
X12578928Y-12432405D01*
X12940833Y-12737167D02*
X12931309Y-12727643D01*
X12912262Y-12699071D01*
X12902738Y-12680024D01*
X12893214Y-12651452D01*
X12883690Y-12603833D01*
X12883690Y-12565738D01*
X12893214Y-12518119D01*
X12902738Y-12489548D01*
X12912262Y-12470500D01*
X12931309Y-12441928D01*
X12940833Y-12432405D01*
X13017024Y-12527643D02*
X13017024Y-12660976D01*
X13017024Y-12546690D02*
X13026548Y-12537167D01*
X13045595Y-12527643D01*
X13074167Y-12527643D01*
X13093214Y-12537167D01*
X13102738Y-12556214D01*
X13102738Y-12660976D01*
X13226548Y-12660976D02*
X13207500Y-12651452D01*
X13197976Y-12641928D01*
X13188452Y-12622881D01*
X13188452Y-12565738D01*
X13197976Y-12546690D01*
X13207500Y-12537167D01*
X13226548Y-12527643D01*
X13255119Y-12527643D01*
X13274167Y-12537167D01*
X13283690Y-12546690D01*
X13293214Y-12565738D01*
X13293214Y-12622881D01*
X13283690Y-12641928D01*
X13274167Y-12651452D01*
X13255119Y-12660976D01*
X13226548Y-12660976D01*
X13350357Y-12527643D02*
X13426548Y-12527643D01*
X13378928Y-12460976D02*
X13378928Y-12632405D01*
X13388452Y-12651452D01*
X13407500Y-12660976D01*
X13426548Y-12660976D01*
X13645595Y-12527643D02*
X13645595Y-12727643D01*
X13645595Y-12537167D02*
X13664643Y-12527643D01*
X13702738Y-12527643D01*
X13721786Y-12537167D01*
X13731309Y-12546690D01*
X13740833Y-12565738D01*
X13740833Y-12622881D01*
X13731309Y-12641928D01*
X13721786Y-12651452D01*
X13702738Y-12660976D01*
X13664643Y-12660976D01*
X13645595Y-12651452D01*
X13855119Y-12660976D02*
X13836071Y-12651452D01*
X13826548Y-12632405D01*
X13826548Y-12460976D01*
X14017024Y-12660976D02*
X14017024Y-12556214D01*
X14007500Y-12537167D01*
X13988452Y-12527643D01*
X13950357Y-12527643D01*
X13931309Y-12537167D01*
X14017024Y-12651452D02*
X13997976Y-12660976D01*
X13950357Y-12660976D01*
X13931309Y-12651452D01*
X13921786Y-12632405D01*
X13921786Y-12613357D01*
X13931309Y-12594309D01*
X13950357Y-12584786D01*
X13997976Y-12584786D01*
X14017024Y-12575262D01*
X14083690Y-12527643D02*
X14159881Y-12527643D01*
X14112262Y-12460976D02*
X14112262Y-12632405D01*
X14121786Y-12651452D01*
X14140833Y-12660976D01*
X14159881Y-12660976D01*
X14302738Y-12651452D02*
X14283690Y-12660976D01*
X14245595Y-12660976D01*
X14226548Y-12651452D01*
X14217024Y-12632405D01*
X14217024Y-12556214D01*
X14226548Y-12537167D01*
X14245595Y-12527643D01*
X14283690Y-12527643D01*
X14302738Y-12537167D01*
X14312262Y-12556214D01*
X14312262Y-12575262D01*
X14217024Y-12594309D01*
X14483690Y-12660976D02*
X14483690Y-12460976D01*
X14483690Y-12651452D02*
X14464643Y-12660976D01*
X14426548Y-12660976D01*
X14407500Y-12651452D01*
X14397976Y-12641928D01*
X14388452Y-12622881D01*
X14388452Y-12565738D01*
X14397976Y-12546690D01*
X14407500Y-12537167D01*
X14426548Y-12527643D01*
X14464643Y-12527643D01*
X14483690Y-12537167D01*
X14559881Y-12737167D02*
X14569405Y-12727643D01*
X14588452Y-12699071D01*
X14597976Y-12680024D01*
X14607500Y-12651452D01*
X14617024Y-12603833D01*
X14617024Y-12565738D01*
X14607500Y-12518119D01*
X14597976Y-12489548D01*
X14588452Y-12470500D01*
X14569405Y-12441928D01*
X14559881Y-12432405D01*
M02*
