M48
; DRILL file {KiCad (6.0.4)} date Tue Dec  6 00:43:41 2022
; FORMAT={-:-/ absolute / metric / decimal}
; #@! TF.CreationDate,2022-12-06T00:43:41+09:00
; #@! TF.GenerationSoftware,Kicad,Pcbnew,(6.0.4)
; #@! TF.FileFunction,MixedPlating,1,4
FMAT,2
METRIC
; #@! TA.AperFunction,Plated,PTH,ViaDrill
T1C0.400
; #@! TA.AperFunction,Plated,PTH,ComponentDrill
T2C1.200
; #@! TA.AperFunction,NonPlated,NPTH,ComponentDrill
T3C1.800
%
G90
G05
T1
X62.0Y-55.0
X62.0Y-60.0
X62.0Y-65.0
X62.0Y-70.0
X62.0Y-89.0
X62.0Y-94.0
X62.0Y-99.0
X62.0Y-104.0
X64.949Y-41.981
X64.949Y-75.981
X64.951Y-49.996
X64.951Y-83.996
X65.0Y-45.0
X65.0Y-55.0
X65.0Y-60.0
X65.0Y-65.0
X65.0Y-70.0
X65.0Y-79.0
X65.0Y-89.0
X65.0Y-94.0
X65.0Y-99.0
X65.0Y-104.0
X69.8Y-53.0
X69.8Y-87.0
X69.949Y-54.994
X69.949Y-88.994
X70.0Y-42.0
X70.0Y-45.0
X70.0Y-60.0
X70.0Y-65.0
X70.0Y-70.0
X70.0Y-76.0
X70.0Y-79.0
X70.0Y-94.0
X70.0Y-99.0
X70.0Y-104.0
X73.3Y-58.5
X73.3Y-92.5
X73.6Y-59.8
X73.6Y-93.8
X73.7Y-57.2
X73.7Y-91.2
X74.0Y-60.8
X74.0Y-94.8
X74.5Y-56.2
X74.5Y-90.2
X74.6Y-62.1
X74.6Y-69.6
X74.6Y-96.1
X74.6Y-103.6
X74.7Y-63.4
X74.7Y-64.8
X74.7Y-66.2
X74.7Y-67.4
X74.7Y-97.4
X74.7Y-98.8
X74.7Y-100.2
X74.7Y-101.4
X74.947Y-49.996
X74.947Y-54.994
X74.947Y-83.996
X74.947Y-88.994
X75.0Y-42.0
X75.0Y-45.0
X75.0Y-76.0
X75.0Y-79.0
X75.8Y-70.8
X75.8Y-104.8
X75.9Y-55.9
X75.9Y-89.9
X77.3Y-60.9
X77.3Y-62.2
X77.3Y-94.9
X77.3Y-96.2
X77.4Y-56.2
X77.4Y-63.6
X77.4Y-64.9
X77.4Y-66.1
X77.4Y-90.2
X77.4Y-97.6
X77.4Y-98.9
X77.4Y-100.1
X77.9Y-59.8
X77.9Y-93.8
X78.1Y-57.4
X78.1Y-91.4
X78.4Y-70.8
X78.4Y-104.8
X78.5Y-58.7
X78.5Y-92.7
X79.5Y-61.6
X79.5Y-95.6
X79.6Y-64.6
X79.6Y-98.6
X79.8Y-44.4
X79.8Y-46.4
X79.8Y-78.4
X79.8Y-80.4
X80.0Y-42.0
X80.0Y-56.5
X80.0Y-58.5
X80.0Y-76.0
X80.0Y-90.5
X80.0Y-92.5
X80.2Y-70.8
X80.2Y-104.8
X80.4Y-63.2
X80.4Y-66.2
X80.4Y-67.4
X80.4Y-68.6
X80.4Y-97.2
X80.4Y-100.2
X80.4Y-101.4
X80.4Y-102.6
X81.0Y-50.8
X81.0Y-84.8
X81.4Y-70.8
X81.4Y-104.8
X82.0Y-56.5
X82.0Y-58.5
X82.0Y-90.5
X82.0Y-92.5
X82.7Y-70.8
X82.7Y-104.8
X82.8Y-44.4
X82.8Y-78.4
X82.9Y-63.2
X82.9Y-97.2
X83.0Y-68.1
X83.0Y-102.1
X84.0Y-56.5
X84.0Y-58.5
X84.0Y-64.4
X84.0Y-65.8
X84.0Y-67.0
X84.0Y-90.5
X84.0Y-92.5
X84.0Y-98.4
X84.0Y-99.8
X84.0Y-101.0
X84.4Y-68.1
X84.4Y-102.1
X85.0Y-42.0
X85.0Y-76.0
X85.2Y-63.2
X85.2Y-97.2
X85.8Y-69.6
X85.8Y-103.6
X86.0Y-55.0
X86.0Y-59.0
X86.0Y-89.0
X86.0Y-93.0
X86.4Y-44.4
X86.4Y-78.4
X87.5Y-70.0
X87.5Y-104.0
X88.0Y-55.0
X88.0Y-59.0
X88.0Y-89.0
X88.0Y-93.0
X89.6Y-50.8
X89.6Y-63.2
X89.6Y-84.8
X89.6Y-97.2
X90.0Y-42.0
X90.0Y-55.0
X90.0Y-59.0
X90.0Y-66.4
X90.0Y-68.2
X90.0Y-70.0
X90.0Y-76.0
X90.0Y-89.0
X90.0Y-93.0
X90.0Y-100.4
X90.0Y-102.2
X90.0Y-104.0
X90.2Y-44.4
X90.2Y-46.8
X90.2Y-78.4
X90.2Y-80.8
X90.8Y-52.4
X90.8Y-86.4
X96.0Y-55.0
X96.0Y-60.0
X96.0Y-65.0
X96.0Y-70.0
X96.0Y-89.0
X96.0Y-94.0
X96.0Y-99.0
X96.0Y-104.0
X98.949Y-41.981
X98.949Y-75.981
X98.951Y-49.996
X98.951Y-83.996
X99.0Y-45.0
X99.0Y-55.0
X99.0Y-60.0
X99.0Y-65.0
X99.0Y-70.0
X99.0Y-79.0
X99.0Y-89.0
X99.0Y-94.0
X99.0Y-99.0
X99.0Y-104.0
X103.8Y-53.0
X103.8Y-87.0
X103.949Y-54.994
X103.949Y-88.994
X104.0Y-42.0
X104.0Y-45.0
X104.0Y-60.0
X104.0Y-65.0
X104.0Y-70.0
X104.0Y-76.0
X104.0Y-79.0
X104.0Y-94.0
X104.0Y-99.0
X104.0Y-104.0
X107.3Y-58.5
X107.3Y-92.5
X107.6Y-59.8
X107.6Y-93.8
X107.7Y-57.2
X107.7Y-91.2
X108.0Y-60.8
X108.0Y-94.8
X108.5Y-56.2
X108.5Y-90.2
X108.6Y-62.1
X108.6Y-69.6
X108.6Y-96.1
X108.6Y-103.6
X108.7Y-63.4
X108.7Y-64.8
X108.7Y-66.2
X108.7Y-67.4
X108.7Y-97.4
X108.7Y-98.8
X108.7Y-100.2
X108.7Y-101.4
X108.947Y-49.996
X108.947Y-54.994
X108.947Y-83.996
X108.947Y-88.994
X109.0Y-42.0
X109.0Y-45.0
X109.0Y-76.0
X109.0Y-79.0
X109.8Y-70.8
X109.8Y-104.8
X109.9Y-55.9
X109.9Y-89.9
X111.3Y-60.9
X111.3Y-62.2
X111.3Y-94.9
X111.3Y-96.2
X111.4Y-56.2
X111.4Y-63.6
X111.4Y-64.9
X111.4Y-66.1
X111.4Y-90.2
X111.4Y-97.6
X111.4Y-98.9
X111.4Y-100.1
X111.9Y-59.8
X111.9Y-93.8
X112.1Y-57.4
X112.1Y-91.4
X112.4Y-70.8
X112.4Y-104.8
X112.5Y-58.7
X112.5Y-92.7
X113.5Y-61.6
X113.5Y-95.6
X113.6Y-64.6
X113.6Y-98.6
X113.8Y-44.4
X113.8Y-46.4
X113.8Y-78.4
X113.8Y-80.4
X114.0Y-42.0
X114.0Y-56.5
X114.0Y-58.5
X114.0Y-76.0
X114.0Y-90.5
X114.0Y-92.5
X114.2Y-70.8
X114.2Y-104.8
X114.4Y-63.2
X114.4Y-66.2
X114.4Y-67.4
X114.4Y-68.6
X114.4Y-97.2
X114.4Y-100.2
X114.4Y-101.4
X114.4Y-102.6
X115.0Y-50.8
X115.0Y-84.8
X115.4Y-70.8
X115.4Y-104.8
X116.0Y-56.5
X116.0Y-58.5
X116.0Y-90.5
X116.0Y-92.5
X116.7Y-70.8
X116.7Y-104.8
X116.8Y-44.4
X116.8Y-78.4
X116.9Y-63.2
X116.9Y-97.2
X117.0Y-68.1
X117.0Y-102.1
X118.0Y-56.5
X118.0Y-58.5
X118.0Y-64.4
X118.0Y-65.8
X118.0Y-67.0
X118.0Y-90.5
X118.0Y-92.5
X118.0Y-98.4
X118.0Y-99.8
X118.0Y-101.0
X118.4Y-68.1
X118.4Y-102.1
X119.0Y-42.0
X119.0Y-76.0
X119.2Y-63.2
X119.2Y-97.2
X119.8Y-69.6
X119.8Y-103.6
X120.0Y-55.0
X120.0Y-59.0
X120.0Y-89.0
X120.0Y-93.0
X120.4Y-44.4
X120.4Y-78.4
X121.5Y-70.0
X121.5Y-104.0
X122.0Y-55.0
X122.0Y-59.0
X122.0Y-89.0
X122.0Y-93.0
X123.6Y-50.8
X123.6Y-63.2
X123.6Y-84.8
X123.6Y-97.2
X124.0Y-42.0
X124.0Y-55.0
X124.0Y-59.0
X124.0Y-66.4
X124.0Y-68.2
X124.0Y-70.0
X124.0Y-76.0
X124.0Y-89.0
X124.0Y-93.0
X124.0Y-100.4
X124.0Y-102.2
X124.0Y-104.0
X124.2Y-44.4
X124.2Y-46.8
X124.2Y-78.4
X124.2Y-80.8
X124.8Y-52.4
X124.8Y-86.4
T2
X76.0Y-58.5
X76.0Y-92.5
X110.0Y-58.5
X110.0Y-92.5
T3
G00X62.9Y-39.0
M15
G01X71.1Y-39.0
M16
G05
G00X63.9Y-73.0
M15
G01X72.1Y-73.0
M16
G05
G00X63.9Y-107.0
M15
G01X72.1Y-107.0
M16
G05
G00X83.9Y-39.0
M15
G01X102.1Y-39.0
M16
G05
G00X93.0Y-48.1
M15
G01X93.0Y-39.9
M16
G05
G00X83.9Y-73.0
M15
G01X102.1Y-73.0
M16
G05
G00X93.0Y-82.1
M15
G01X93.0Y-63.9
M16
G05
G00X93.0Y-106.1
M15
G01X93.0Y-97.9
M16
G05
G00X83.9Y-107.0
M15
G01X102.1Y-107.0
M16
G05
G00X114.9Y-39.0
M15
G01X123.1Y-39.0
M16
G05
G00X123.1Y-73.0
M15
G01X114.9Y-73.0
M16
G05
G00X114.9Y-107.0
M15
G01X123.1Y-107.0
M16
G05
T0
M30
