%TF.GenerationSoftware,KiCad,Pcbnew,(6.0.4)*%
%TF.CreationDate,2022-12-06T00:22:49+09:00*%
%TF.ProjectId,gps-teseo-p,6770732d-7465-4736-956f-2d702e6b6963,rev?*%
%TF.SameCoordinates,Original*%
%TF.FileFunction,Legend,Top*%
%TF.FilePolarity,Positive*%
%FSLAX46Y46*%
G04 Gerber Fmt 4.6, Leading zero omitted, Abs format (unit mm)*
G04 Created by KiCad (PCBNEW (6.0.4)) date 2022-12-06 00:22:49*
%MOMM*%
%LPD*%
G01*
G04 APERTURE LIST*
%ADD10C,0.150000*%
%ADD11C,0.100000*%
%ADD12C,0.200000*%
%ADD13C,0.254000*%
%ADD14C,0.125000*%
%ADD15C,0.120000*%
%ADD16C,0.250000*%
G04 APERTURE END LIST*
D10*
X120654761Y-76702380D02*
X120654761Y-77511904D01*
X120702380Y-77607142D01*
X120750000Y-77654761D01*
X120845238Y-77702380D01*
X121035714Y-77702380D01*
X121130952Y-77654761D01*
X121178571Y-77607142D01*
X121226190Y-77511904D01*
X121226190Y-76702380D01*
X121654761Y-77416666D02*
X122130952Y-77416666D01*
X121559523Y-77702380D02*
X121892857Y-76702380D01*
X122226190Y-77702380D01*
X123130952Y-77702380D02*
X122797619Y-77226190D01*
X122559523Y-77702380D02*
X122559523Y-76702380D01*
X122940476Y-76702380D01*
X123035714Y-76750000D01*
X123083333Y-76797619D01*
X123130952Y-76892857D01*
X123130952Y-77035714D01*
X123083333Y-77130952D01*
X123035714Y-77178571D01*
X122940476Y-77226190D01*
X122559523Y-77226190D01*
X123416666Y-76702380D02*
X123988095Y-76702380D01*
X123702380Y-77702380D02*
X123702380Y-76702380D01*
X97535595Y-92073904D02*
X97535595Y-91273904D01*
X97773690Y-91273904D01*
X97916547Y-91312000D01*
X98011785Y-91388190D01*
X98059404Y-91464380D01*
X98107023Y-91616761D01*
X98107023Y-91731047D01*
X98059404Y-91883428D01*
X98011785Y-91959619D01*
X97916547Y-92035809D01*
X97773690Y-92073904D01*
X97535595Y-92073904D01*
X98535595Y-91654857D02*
X98868928Y-91654857D01*
X99011785Y-92073904D02*
X98535595Y-92073904D01*
X98535595Y-91273904D01*
X99011785Y-91273904D01*
X100011785Y-92073904D02*
X99678452Y-91692952D01*
X99440357Y-92073904D02*
X99440357Y-91273904D01*
X99821309Y-91273904D01*
X99916547Y-91312000D01*
X99964166Y-91350095D01*
X100011785Y-91426285D01*
X100011785Y-91540571D01*
X99964166Y-91616761D01*
X99916547Y-91654857D01*
X99821309Y-91692952D01*
X99440357Y-91692952D01*
X101011785Y-91997714D02*
X100964166Y-92035809D01*
X100821309Y-92073904D01*
X100726071Y-92073904D01*
X100583214Y-92035809D01*
X100487976Y-91959619D01*
X100440357Y-91883428D01*
X100392738Y-91731047D01*
X100392738Y-91616761D01*
X100440357Y-91464380D01*
X100487976Y-91388190D01*
X100583214Y-91312000D01*
X100726071Y-91273904D01*
X100821309Y-91273904D01*
X100964166Y-91312000D01*
X101011785Y-91350095D01*
X98107023Y-93285714D02*
X98059404Y-93323809D01*
X97916547Y-93361904D01*
X97821309Y-93361904D01*
X97678452Y-93323809D01*
X97583214Y-93247619D01*
X97535595Y-93171428D01*
X97487976Y-93019047D01*
X97487976Y-92904761D01*
X97535595Y-92752380D01*
X97583214Y-92676190D01*
X97678452Y-92600000D01*
X97821309Y-92561904D01*
X97916547Y-92561904D01*
X98059404Y-92600000D01*
X98107023Y-92638095D01*
X98964166Y-93361904D02*
X98964166Y-92942857D01*
X98916547Y-92866666D01*
X98821309Y-92828571D01*
X98630833Y-92828571D01*
X98535595Y-92866666D01*
X98964166Y-93323809D02*
X98868928Y-93361904D01*
X98630833Y-93361904D01*
X98535595Y-93323809D01*
X98487976Y-93247619D01*
X98487976Y-93171428D01*
X98535595Y-93095238D01*
X98630833Y-93057142D01*
X98868928Y-93057142D01*
X98964166Y-93019047D01*
X99440357Y-92828571D02*
X99440357Y-93361904D01*
X99440357Y-92904761D02*
X99487976Y-92866666D01*
X99583214Y-92828571D01*
X99726071Y-92828571D01*
X99821309Y-92866666D01*
X99868928Y-92942857D01*
X99868928Y-93361904D01*
X100297500Y-93323809D02*
X100440357Y-93361904D01*
X100678452Y-93361904D01*
X100773690Y-93323809D01*
X100821309Y-93285714D01*
X100868928Y-93209523D01*
X100868928Y-93133333D01*
X100821309Y-93057142D01*
X100773690Y-93019047D01*
X100678452Y-92980952D01*
X100487976Y-92942857D01*
X100392738Y-92904761D01*
X100345119Y-92866666D01*
X100297500Y-92790476D01*
X100297500Y-92714285D01*
X100345119Y-92638095D01*
X100392738Y-92600000D01*
X100487976Y-92561904D01*
X100726071Y-92561904D01*
X100868928Y-92600000D01*
X101726071Y-93361904D02*
X101726071Y-92942857D01*
X101678452Y-92866666D01*
X101583214Y-92828571D01*
X101392738Y-92828571D01*
X101297500Y-92866666D01*
X101726071Y-93323809D02*
X101630833Y-93361904D01*
X101392738Y-93361904D01*
X101297500Y-93323809D01*
X101249880Y-93247619D01*
X101249880Y-93171428D01*
X101297500Y-93095238D01*
X101392738Y-93057142D01*
X101630833Y-93057142D01*
X101726071Y-93019047D01*
X102059404Y-92828571D02*
X102440357Y-92828571D01*
X102202261Y-92561904D02*
X102202261Y-93247619D01*
X102249880Y-93323809D01*
X102345119Y-93361904D01*
X102440357Y-93361904D01*
X97535595Y-94649904D02*
X97535595Y-93849904D01*
X97916547Y-93849904D01*
X98011785Y-93888000D01*
X98059404Y-93926095D01*
X98107023Y-94002285D01*
X98107023Y-94116571D01*
X98059404Y-94192761D01*
X98011785Y-94230857D01*
X97916547Y-94268952D01*
X97535595Y-94268952D01*
X98535595Y-94649904D02*
X98535595Y-94116571D01*
X98535595Y-94268952D02*
X98583214Y-94192761D01*
X98630833Y-94154666D01*
X98726071Y-94116571D01*
X98821309Y-94116571D01*
X99297500Y-94649904D02*
X99202261Y-94611809D01*
X99154642Y-94573714D01*
X99107023Y-94497523D01*
X99107023Y-94268952D01*
X99154642Y-94192761D01*
X99202261Y-94154666D01*
X99297500Y-94116571D01*
X99440357Y-94116571D01*
X99535595Y-94154666D01*
X99583214Y-94192761D01*
X99630833Y-94268952D01*
X99630833Y-94497523D01*
X99583214Y-94573714D01*
X99535595Y-94611809D01*
X99440357Y-94649904D01*
X99297500Y-94649904D01*
X100059404Y-94116571D02*
X100059404Y-94802285D01*
X100011785Y-94878476D01*
X99916547Y-94916571D01*
X99868928Y-94916571D01*
X100059404Y-93849904D02*
X100011785Y-93888000D01*
X100059404Y-93926095D01*
X100107023Y-93888000D01*
X100059404Y-93849904D01*
X100059404Y-93926095D01*
X100916547Y-94611809D02*
X100821309Y-94649904D01*
X100630833Y-94649904D01*
X100535595Y-94611809D01*
X100487976Y-94535619D01*
X100487976Y-94230857D01*
X100535595Y-94154666D01*
X100630833Y-94116571D01*
X100821309Y-94116571D01*
X100916547Y-94154666D01*
X100964166Y-94230857D01*
X100964166Y-94307047D01*
X100487976Y-94383238D01*
X101821309Y-94611809D02*
X101726071Y-94649904D01*
X101535595Y-94649904D01*
X101440357Y-94611809D01*
X101392738Y-94573714D01*
X101345119Y-94497523D01*
X101345119Y-94268952D01*
X101392738Y-94192761D01*
X101440357Y-94154666D01*
X101535595Y-94116571D01*
X101726071Y-94116571D01*
X101821309Y-94154666D01*
X102107023Y-94116571D02*
X102487976Y-94116571D01*
X102249880Y-93849904D02*
X102249880Y-94535619D01*
X102297500Y-94611809D01*
X102392738Y-94649904D01*
X102487976Y-94649904D01*
X119652380Y-80790476D02*
X119652380Y-81361904D01*
X119652380Y-81076190D02*
X118652380Y-81076190D01*
X118795238Y-81171428D01*
X118890476Y-81266666D01*
X118938095Y-81361904D01*
X119652380Y-80361904D02*
X118652380Y-80361904D01*
X118652380Y-79980952D01*
X118700000Y-79885714D01*
X118747619Y-79838095D01*
X118842857Y-79790476D01*
X118985714Y-79790476D01*
X119080952Y-79838095D01*
X119128571Y-79885714D01*
X119176190Y-79980952D01*
X119176190Y-80361904D01*
X119652380Y-79361904D02*
X118652380Y-79361904D01*
X118652380Y-78980952D01*
X118700000Y-78885714D01*
X118747619Y-78838095D01*
X118842857Y-78790476D01*
X118985714Y-78790476D01*
X119080952Y-78838095D01*
X119128571Y-78885714D01*
X119176190Y-78980952D01*
X119176190Y-79361904D01*
X119604761Y-78409523D02*
X119652380Y-78266666D01*
X119652380Y-78028571D01*
X119604761Y-77933333D01*
X119557142Y-77885714D01*
X119461904Y-77838095D01*
X119366666Y-77838095D01*
X119271428Y-77885714D01*
X119223809Y-77933333D01*
X119176190Y-78028571D01*
X119128571Y-78219047D01*
X119080952Y-78314285D01*
X119033333Y-78361904D01*
X118938095Y-78409523D01*
X118842857Y-78409523D01*
X118747619Y-78361904D01*
X118700000Y-78314285D01*
X118652380Y-78219047D01*
X118652380Y-77980952D01*
X118700000Y-77838095D01*
X120604761Y-103014285D02*
X120652380Y-102871428D01*
X120652380Y-102633333D01*
X120604761Y-102538095D01*
X120557142Y-102490476D01*
X120461904Y-102442857D01*
X120366666Y-102442857D01*
X120271428Y-102490476D01*
X120223809Y-102538095D01*
X120176190Y-102633333D01*
X120128571Y-102823809D01*
X120080952Y-102919047D01*
X120033333Y-102966666D01*
X119938095Y-103014285D01*
X119842857Y-103014285D01*
X119747619Y-102966666D01*
X119700000Y-102919047D01*
X119652380Y-102823809D01*
X119652380Y-102585714D01*
X119700000Y-102442857D01*
X120652380Y-102014285D02*
X119652380Y-102014285D01*
X119652380Y-101776190D01*
X119700000Y-101633333D01*
X119795238Y-101538095D01*
X119890476Y-101490476D01*
X120080952Y-101442857D01*
X120223809Y-101442857D01*
X120414285Y-101490476D01*
X120509523Y-101538095D01*
X120604761Y-101633333D01*
X120652380Y-101776190D01*
X120652380Y-102014285D01*
X120366666Y-101061904D02*
X120366666Y-100585714D01*
X120652380Y-101157142D02*
X119652380Y-100823809D01*
X120652380Y-100490476D01*
X97735595Y-99873904D02*
X97735595Y-99073904D01*
X97973690Y-99073904D01*
X98116547Y-99112000D01*
X98211785Y-99188190D01*
X98259404Y-99264380D01*
X98307023Y-99416761D01*
X98307023Y-99531047D01*
X98259404Y-99683428D01*
X98211785Y-99759619D01*
X98116547Y-99835809D01*
X97973690Y-99873904D01*
X97735595Y-99873904D01*
X99116547Y-99835809D02*
X99021309Y-99873904D01*
X98830833Y-99873904D01*
X98735595Y-99835809D01*
X98687976Y-99759619D01*
X98687976Y-99454857D01*
X98735595Y-99378666D01*
X98830833Y-99340571D01*
X99021309Y-99340571D01*
X99116547Y-99378666D01*
X99164166Y-99454857D01*
X99164166Y-99531047D01*
X98687976Y-99607238D01*
X99545119Y-99835809D02*
X99640357Y-99873904D01*
X99830833Y-99873904D01*
X99926071Y-99835809D01*
X99973690Y-99759619D01*
X99973690Y-99721523D01*
X99926071Y-99645333D01*
X99830833Y-99607238D01*
X99687976Y-99607238D01*
X99592738Y-99569142D01*
X99545119Y-99492952D01*
X99545119Y-99454857D01*
X99592738Y-99378666D01*
X99687976Y-99340571D01*
X99830833Y-99340571D01*
X99926071Y-99378666D01*
X100402261Y-99873904D02*
X100402261Y-99340571D01*
X100402261Y-99073904D02*
X100354642Y-99112000D01*
X100402261Y-99150095D01*
X100449880Y-99112000D01*
X100402261Y-99073904D01*
X100402261Y-99150095D01*
X101307023Y-99340571D02*
X101307023Y-99988190D01*
X101259404Y-100064380D01*
X101211785Y-100102476D01*
X101116547Y-100140571D01*
X100973690Y-100140571D01*
X100878452Y-100102476D01*
X101307023Y-99835809D02*
X101211785Y-99873904D01*
X101021309Y-99873904D01*
X100926071Y-99835809D01*
X100878452Y-99797714D01*
X100830833Y-99721523D01*
X100830833Y-99492952D01*
X100878452Y-99416761D01*
X100926071Y-99378666D01*
X101021309Y-99340571D01*
X101211785Y-99340571D01*
X101307023Y-99378666D01*
X101783214Y-99340571D02*
X101783214Y-99873904D01*
X101783214Y-99416761D02*
X101830833Y-99378666D01*
X101926071Y-99340571D01*
X102068928Y-99340571D01*
X102164166Y-99378666D01*
X102211785Y-99454857D01*
X102211785Y-99873904D01*
X102687976Y-99797714D02*
X102735595Y-99835809D01*
X102687976Y-99873904D01*
X102640357Y-99835809D01*
X102687976Y-99797714D01*
X102687976Y-99873904D01*
X102687976Y-99378666D02*
X102735595Y-99416761D01*
X102687976Y-99454857D01*
X102640357Y-99416761D01*
X102687976Y-99378666D01*
X102687976Y-99454857D01*
X97687976Y-100933333D02*
X98164166Y-100933333D01*
X97592738Y-101161904D02*
X97926071Y-100361904D01*
X98259404Y-101161904D01*
X98592738Y-101161904D02*
X98592738Y-100361904D01*
X98687976Y-100857142D02*
X98973690Y-101161904D01*
X98973690Y-100628571D02*
X98592738Y-100933333D01*
X99402261Y-101161904D02*
X99402261Y-100628571D01*
X99402261Y-100361904D02*
X99354642Y-100400000D01*
X99402261Y-100438095D01*
X99449880Y-100400000D01*
X99402261Y-100361904D01*
X99402261Y-100438095D01*
X100021309Y-101161904D02*
X99926071Y-101123809D01*
X99878452Y-101085714D01*
X99830833Y-101009523D01*
X99830833Y-100780952D01*
X99878452Y-100704761D01*
X99926071Y-100666666D01*
X100021309Y-100628571D01*
X100164166Y-100628571D01*
X100259404Y-100666666D01*
X100307023Y-100704761D01*
X100354642Y-100780952D01*
X100354642Y-101009523D01*
X100307023Y-101085714D01*
X100259404Y-101123809D01*
X100164166Y-101161904D01*
X100021309Y-101161904D01*
X101545119Y-101161904D02*
X101545119Y-100361904D01*
X101878452Y-100933333D01*
X102211785Y-100361904D01*
X102211785Y-101161904D01*
X97687976Y-101726095D02*
X97735595Y-101688000D01*
X97830833Y-101649904D01*
X98068928Y-101649904D01*
X98164166Y-101688000D01*
X98211785Y-101726095D01*
X98259404Y-101802285D01*
X98259404Y-101878476D01*
X98211785Y-101992761D01*
X97640357Y-102449904D01*
X98259404Y-102449904D01*
X98878452Y-101649904D02*
X98973690Y-101649904D01*
X99068928Y-101688000D01*
X99116547Y-101726095D01*
X99164166Y-101802285D01*
X99211785Y-101954666D01*
X99211785Y-102145142D01*
X99164166Y-102297523D01*
X99116547Y-102373714D01*
X99068928Y-102411809D01*
X98973690Y-102449904D01*
X98878452Y-102449904D01*
X98783214Y-102411809D01*
X98735595Y-102373714D01*
X98687976Y-102297523D01*
X98640357Y-102145142D01*
X98640357Y-101954666D01*
X98687976Y-101802285D01*
X98735595Y-101726095D01*
X98783214Y-101688000D01*
X98878452Y-101649904D01*
X99592738Y-101726095D02*
X99640357Y-101688000D01*
X99735595Y-101649904D01*
X99973690Y-101649904D01*
X100068928Y-101688000D01*
X100116547Y-101726095D01*
X100164166Y-101802285D01*
X100164166Y-101878476D01*
X100116547Y-101992761D01*
X99545119Y-102449904D01*
X100164166Y-102449904D01*
X100545119Y-101726095D02*
X100592738Y-101688000D01*
X100687976Y-101649904D01*
X100926071Y-101649904D01*
X101021309Y-101688000D01*
X101068928Y-101726095D01*
X101116547Y-101802285D01*
X101116547Y-101878476D01*
X101068928Y-101992761D01*
X100497500Y-102449904D01*
X101116547Y-102449904D01*
X101545119Y-102373714D02*
X101592738Y-102411809D01*
X101545119Y-102449904D01*
X101497500Y-102411809D01*
X101545119Y-102373714D01*
X101545119Y-102449904D01*
X102545119Y-102449904D02*
X101973690Y-102449904D01*
X102259404Y-102449904D02*
X102259404Y-101649904D01*
X102164166Y-101764190D01*
X102068928Y-101840380D01*
X101973690Y-101878476D01*
X102926071Y-101726095D02*
X102973690Y-101688000D01*
X103068928Y-101649904D01*
X103307023Y-101649904D01*
X103402261Y-101688000D01*
X103449880Y-101726095D01*
X103497500Y-101802285D01*
X103497500Y-101878476D01*
X103449880Y-101992761D01*
X102878452Y-102449904D01*
X103497500Y-102449904D01*
X123128571Y-79180952D02*
X123128571Y-78419047D01*
X122938095Y-78609523D02*
X123128571Y-78419047D01*
X123319047Y-78609523D01*
X98259404Y-95956000D02*
X98164166Y-95917904D01*
X98021309Y-95917904D01*
X97878452Y-95956000D01*
X97783214Y-96032190D01*
X97735595Y-96108380D01*
X97687976Y-96260761D01*
X97687976Y-96375047D01*
X97735595Y-96527428D01*
X97783214Y-96603619D01*
X97878452Y-96679809D01*
X98021309Y-96717904D01*
X98116547Y-96717904D01*
X98259404Y-96679809D01*
X98307023Y-96641714D01*
X98307023Y-96375047D01*
X98116547Y-96375047D01*
X98735595Y-96717904D02*
X98735595Y-95917904D01*
X99307023Y-96717904D01*
X99307023Y-95917904D01*
X99735595Y-96679809D02*
X99878452Y-96717904D01*
X100116547Y-96717904D01*
X100211785Y-96679809D01*
X100259404Y-96641714D01*
X100307023Y-96565523D01*
X100307023Y-96489333D01*
X100259404Y-96413142D01*
X100211785Y-96375047D01*
X100116547Y-96336952D01*
X99926071Y-96298857D01*
X99830833Y-96260761D01*
X99783214Y-96222666D01*
X99735595Y-96146476D01*
X99735595Y-96070285D01*
X99783214Y-95994095D01*
X99830833Y-95956000D01*
X99926071Y-95917904D01*
X100164166Y-95917904D01*
X100307023Y-95956000D01*
X100687976Y-96679809D02*
X100830833Y-96717904D01*
X101068928Y-96717904D01*
X101164166Y-96679809D01*
X101211785Y-96641714D01*
X101259404Y-96565523D01*
X101259404Y-96489333D01*
X101211785Y-96413142D01*
X101164166Y-96375047D01*
X101068928Y-96336952D01*
X100878452Y-96298857D01*
X100783214Y-96260761D01*
X100735595Y-96222666D01*
X100687976Y-96146476D01*
X100687976Y-96070285D01*
X100735595Y-95994095D01*
X100783214Y-95956000D01*
X100878452Y-95917904D01*
X101116547Y-95917904D01*
X101259404Y-95956000D01*
X102783214Y-96298857D02*
X102926071Y-96336952D01*
X102973690Y-96375047D01*
X103021309Y-96451238D01*
X103021309Y-96565523D01*
X102973690Y-96641714D01*
X102926071Y-96679809D01*
X102830833Y-96717904D01*
X102449880Y-96717904D01*
X102449880Y-95917904D01*
X102783214Y-95917904D01*
X102878452Y-95956000D01*
X102926071Y-95994095D01*
X102973690Y-96070285D01*
X102973690Y-96146476D01*
X102926071Y-96222666D01*
X102878452Y-96260761D01*
X102783214Y-96298857D01*
X102449880Y-96298857D01*
X103592738Y-96717904D02*
X103497500Y-96679809D01*
X103449880Y-96641714D01*
X103402261Y-96565523D01*
X103402261Y-96336952D01*
X103449880Y-96260761D01*
X103497500Y-96222666D01*
X103592738Y-96184571D01*
X103735595Y-96184571D01*
X103830833Y-96222666D01*
X103878452Y-96260761D01*
X103926071Y-96336952D01*
X103926071Y-96565523D01*
X103878452Y-96641714D01*
X103830833Y-96679809D01*
X103735595Y-96717904D01*
X103592738Y-96717904D01*
X104783214Y-96717904D02*
X104783214Y-96298857D01*
X104735595Y-96222666D01*
X104640357Y-96184571D01*
X104449880Y-96184571D01*
X104354642Y-96222666D01*
X104783214Y-96679809D02*
X104687976Y-96717904D01*
X104449880Y-96717904D01*
X104354642Y-96679809D01*
X104307023Y-96603619D01*
X104307023Y-96527428D01*
X104354642Y-96451238D01*
X104449880Y-96413142D01*
X104687976Y-96413142D01*
X104783214Y-96375047D01*
X105259404Y-96717904D02*
X105259404Y-96184571D01*
X105259404Y-96336952D02*
X105307023Y-96260761D01*
X105354642Y-96222666D01*
X105449880Y-96184571D01*
X105545119Y-96184571D01*
X106307023Y-96717904D02*
X106307023Y-95917904D01*
X106307023Y-96679809D02*
X106211785Y-96717904D01*
X106021309Y-96717904D01*
X105926071Y-96679809D01*
X105878452Y-96641714D01*
X105830833Y-96565523D01*
X105830833Y-96336952D01*
X105878452Y-96260761D01*
X105926071Y-96222666D01*
X106021309Y-96184571D01*
X106211785Y-96184571D01*
X106307023Y-96222666D01*
X97735595Y-97701142D02*
X98497500Y-97701142D01*
X98973690Y-98005904D02*
X98973690Y-97472571D01*
X98973690Y-97624952D02*
X99021309Y-97548761D01*
X99068928Y-97510666D01*
X99164166Y-97472571D01*
X99259404Y-97472571D01*
X99973690Y-97967809D02*
X99878452Y-98005904D01*
X99687976Y-98005904D01*
X99592738Y-97967809D01*
X99545119Y-97891619D01*
X99545119Y-97586857D01*
X99592738Y-97510666D01*
X99687976Y-97472571D01*
X99878452Y-97472571D01*
X99973690Y-97510666D01*
X100021309Y-97586857D01*
X100021309Y-97663047D01*
X99545119Y-97739238D01*
X100354642Y-97472571D02*
X100592738Y-98005904D01*
X100830833Y-97472571D01*
X101211785Y-97929714D02*
X101259404Y-97967809D01*
X101211785Y-98005904D01*
X101164166Y-97967809D01*
X101211785Y-97929714D01*
X101211785Y-98005904D01*
X101640357Y-97282095D02*
X101687976Y-97244000D01*
X101783214Y-97205904D01*
X102021309Y-97205904D01*
X102116547Y-97244000D01*
X102164166Y-97282095D01*
X102211785Y-97358285D01*
X102211785Y-97434476D01*
X102164166Y-97548761D01*
X101592738Y-98005904D01*
X102211785Y-98005904D01*
X122652380Y-81361904D02*
X122652380Y-80790476D01*
X123652380Y-81076190D02*
X122652380Y-81076190D01*
X122652380Y-80552380D02*
X123652380Y-79885714D01*
X122652380Y-79885714D02*
X123652380Y-80552380D01*
X121071428Y-78419047D02*
X121071428Y-79180952D01*
X121261904Y-78990476D02*
X121071428Y-79180952D01*
X120880952Y-78990476D01*
X124702380Y-99976190D02*
X123702380Y-99976190D01*
X123797619Y-99547619D02*
X123750000Y-99500000D01*
X123702380Y-99404761D01*
X123702380Y-99166666D01*
X123750000Y-99071428D01*
X123797619Y-99023809D01*
X123892857Y-98976190D01*
X123988095Y-98976190D01*
X124130952Y-99023809D01*
X124702380Y-99595238D01*
X124702380Y-98976190D01*
X124607142Y-97976190D02*
X124654761Y-98023809D01*
X124702380Y-98166666D01*
X124702380Y-98261904D01*
X124654761Y-98404761D01*
X124559523Y-98500000D01*
X124464285Y-98547619D01*
X124273809Y-98595238D01*
X124130952Y-98595238D01*
X123940476Y-98547619D01*
X123845238Y-98500000D01*
X123750000Y-98404761D01*
X123702380Y-98261904D01*
X123702380Y-98166666D01*
X123750000Y-98023809D01*
X123797619Y-97976190D01*
X114700000Y-80961904D02*
X114652380Y-81057142D01*
X114652380Y-81200000D01*
X114700000Y-81342857D01*
X114795238Y-81438095D01*
X114890476Y-81485714D01*
X115080952Y-81533333D01*
X115223809Y-81533333D01*
X115414285Y-81485714D01*
X115509523Y-81438095D01*
X115604761Y-81342857D01*
X115652380Y-81200000D01*
X115652380Y-81104761D01*
X115604761Y-80961904D01*
X115557142Y-80914285D01*
X115223809Y-80914285D01*
X115223809Y-81104761D01*
X115652380Y-80485714D02*
X114652380Y-80485714D01*
X115652380Y-79914285D01*
X114652380Y-79914285D01*
X115652380Y-79438095D02*
X114652380Y-79438095D01*
X114652380Y-79200000D01*
X114700000Y-79057142D01*
X114795238Y-78961904D01*
X114890476Y-78914285D01*
X115080952Y-78866666D01*
X115223809Y-78866666D01*
X115414285Y-78914285D01*
X115509523Y-78961904D01*
X115604761Y-79057142D01*
X115652380Y-79200000D01*
X115652380Y-79438095D01*
X116652380Y-81438095D02*
X116652380Y-80819047D01*
X117033333Y-81152380D01*
X117033333Y-81009523D01*
X117080952Y-80914285D01*
X117128571Y-80866666D01*
X117223809Y-80819047D01*
X117461904Y-80819047D01*
X117557142Y-80866666D01*
X117604761Y-80914285D01*
X117652380Y-81009523D01*
X117652380Y-81295238D01*
X117604761Y-81390476D01*
X117557142Y-81438095D01*
X116652380Y-80533333D02*
X117652380Y-80200000D01*
X116652380Y-79866666D01*
X116652380Y-79628571D02*
X116652380Y-79009523D01*
X117033333Y-79342857D01*
X117033333Y-79200000D01*
X117080952Y-79104761D01*
X117128571Y-79057142D01*
X117223809Y-79009523D01*
X117461904Y-79009523D01*
X117557142Y-79057142D01*
X117604761Y-79104761D01*
X117652380Y-79200000D01*
X117652380Y-79485714D01*
X117604761Y-79580952D01*
X117557142Y-79628571D01*
X121652380Y-80766666D02*
X121176190Y-81100000D01*
X121652380Y-81338095D02*
X120652380Y-81338095D01*
X120652380Y-80957142D01*
X120700000Y-80861904D01*
X120747619Y-80814285D01*
X120842857Y-80766666D01*
X120985714Y-80766666D01*
X121080952Y-80814285D01*
X121128571Y-80861904D01*
X121176190Y-80957142D01*
X121176190Y-81338095D01*
X120652380Y-80433333D02*
X121652380Y-79766666D01*
X120652380Y-79766666D02*
X121652380Y-80433333D01*
X122604761Y-102990476D02*
X122652380Y-102847619D01*
X122652380Y-102609523D01*
X122604761Y-102514285D01*
X122557142Y-102466666D01*
X122461904Y-102419047D01*
X122366666Y-102419047D01*
X122271428Y-102466666D01*
X122223809Y-102514285D01*
X122176190Y-102609523D01*
X122128571Y-102800000D01*
X122080952Y-102895238D01*
X122033333Y-102942857D01*
X121938095Y-102990476D01*
X121842857Y-102990476D01*
X121747619Y-102942857D01*
X121700000Y-102895238D01*
X121652380Y-102800000D01*
X121652380Y-102561904D01*
X121700000Y-102419047D01*
X122557142Y-101419047D02*
X122604761Y-101466666D01*
X122652380Y-101609523D01*
X122652380Y-101704761D01*
X122604761Y-101847619D01*
X122509523Y-101942857D01*
X122414285Y-101990476D01*
X122223809Y-102038095D01*
X122080952Y-102038095D01*
X121890476Y-101990476D01*
X121795238Y-101942857D01*
X121700000Y-101847619D01*
X121652380Y-101704761D01*
X121652380Y-101609523D01*
X121700000Y-101466666D01*
X121747619Y-101419047D01*
X122652380Y-100514285D02*
X122652380Y-100990476D01*
X121652380Y-100990476D01*
X110420000Y-88919662D02*
X97680000Y-88919662D01*
X97680000Y-88919662D02*
X97680000Y-86100000D01*
X97680000Y-86100000D02*
X110420000Y-86100000D01*
X110420000Y-86100000D02*
X110420000Y-88919662D01*
G36*
X110420000Y-88919662D02*
G01*
X97680000Y-88919662D01*
X97680000Y-86100000D01*
X110420000Y-86100000D01*
X110420000Y-88919662D01*
G37*
X113950000Y-87575000D02*
X124050000Y-87575000D01*
X124050000Y-87575000D02*
X124050000Y-94425000D01*
X124050000Y-94425000D02*
X113950000Y-94425000D01*
X113950000Y-94425000D02*
X113950000Y-87575000D01*
G36*
X113950000Y-87575000D02*
G01*
X124050000Y-87575000D01*
X124050000Y-94425000D01*
X113950000Y-94425000D01*
X113950000Y-87575000D01*
G37*
X97000000Y-91250000D02*
X97000000Y-103000000D01*
X97000000Y-103000000D02*
X107000000Y-103000000D01*
X97650000Y-76780338D02*
X110350000Y-76780338D01*
X110350000Y-76780338D02*
X110350000Y-79640338D01*
X110350000Y-79640338D02*
X97650000Y-79640338D01*
X97650000Y-79640338D02*
X97650000Y-76780338D01*
G36*
X97650000Y-76780338D02*
G01*
X110350000Y-76780338D01*
X110350000Y-79640338D01*
X97650000Y-79640338D01*
X97650000Y-76780338D01*
G37*
X107230338Y-86080338D02*
X110350000Y-86080338D01*
X110350000Y-86080338D02*
X110350000Y-79640338D01*
X110350000Y-79640338D02*
X107230338Y-79640338D01*
X107230338Y-79640338D02*
X107230338Y-86080338D01*
G36*
X107230338Y-86080338D02*
G01*
X110350000Y-86080338D01*
X110350000Y-79640338D01*
X107230338Y-79640338D01*
X107230338Y-86080338D01*
G37*
X97680338Y-86070000D02*
X100500000Y-86070000D01*
X100500000Y-86070000D02*
X100500000Y-79630000D01*
X100500000Y-79630000D02*
X97680338Y-79630000D01*
X97680338Y-79630000D02*
X97680338Y-86070000D01*
G36*
X97680338Y-86070000D02*
G01*
X100500000Y-86070000D01*
X100500000Y-79630000D01*
X97680338Y-79630000D01*
X97680338Y-86070000D01*
G37*
D11*
X94000000Y-74000000D02*
X126000000Y-74000000D01*
X126000000Y-74000000D02*
X126000000Y-106000000D01*
X126000000Y-106000000D02*
X94000000Y-106000000D01*
X94000000Y-106000000D02*
X94000000Y-74000000D01*
D10*
X86654761Y-76702380D02*
X86654761Y-77511904D01*
X86702380Y-77607142D01*
X86750000Y-77654761D01*
X86845238Y-77702380D01*
X87035714Y-77702380D01*
X87130952Y-77654761D01*
X87178571Y-77607142D01*
X87226190Y-77511904D01*
X87226190Y-76702380D01*
X87654761Y-77416666D02*
X88130952Y-77416666D01*
X87559523Y-77702380D02*
X87892857Y-76702380D01*
X88226190Y-77702380D01*
X89130952Y-77702380D02*
X88797619Y-77226190D01*
X88559523Y-77702380D02*
X88559523Y-76702380D01*
X88940476Y-76702380D01*
X89035714Y-76750000D01*
X89083333Y-76797619D01*
X89130952Y-76892857D01*
X89130952Y-77035714D01*
X89083333Y-77130952D01*
X89035714Y-77178571D01*
X88940476Y-77226190D01*
X88559523Y-77226190D01*
X89416666Y-76702380D02*
X89988095Y-76702380D01*
X89702380Y-77702380D02*
X89702380Y-76702380D01*
X63535595Y-92073904D02*
X63535595Y-91273904D01*
X63773690Y-91273904D01*
X63916547Y-91312000D01*
X64011785Y-91388190D01*
X64059404Y-91464380D01*
X64107023Y-91616761D01*
X64107023Y-91731047D01*
X64059404Y-91883428D01*
X64011785Y-91959619D01*
X63916547Y-92035809D01*
X63773690Y-92073904D01*
X63535595Y-92073904D01*
X64535595Y-91654857D02*
X64868928Y-91654857D01*
X65011785Y-92073904D02*
X64535595Y-92073904D01*
X64535595Y-91273904D01*
X65011785Y-91273904D01*
X66011785Y-92073904D02*
X65678452Y-91692952D01*
X65440357Y-92073904D02*
X65440357Y-91273904D01*
X65821309Y-91273904D01*
X65916547Y-91312000D01*
X65964166Y-91350095D01*
X66011785Y-91426285D01*
X66011785Y-91540571D01*
X65964166Y-91616761D01*
X65916547Y-91654857D01*
X65821309Y-91692952D01*
X65440357Y-91692952D01*
X67011785Y-91997714D02*
X66964166Y-92035809D01*
X66821309Y-92073904D01*
X66726071Y-92073904D01*
X66583214Y-92035809D01*
X66487976Y-91959619D01*
X66440357Y-91883428D01*
X66392738Y-91731047D01*
X66392738Y-91616761D01*
X66440357Y-91464380D01*
X66487976Y-91388190D01*
X66583214Y-91312000D01*
X66726071Y-91273904D01*
X66821309Y-91273904D01*
X66964166Y-91312000D01*
X67011785Y-91350095D01*
X64107023Y-93285714D02*
X64059404Y-93323809D01*
X63916547Y-93361904D01*
X63821309Y-93361904D01*
X63678452Y-93323809D01*
X63583214Y-93247619D01*
X63535595Y-93171428D01*
X63487976Y-93019047D01*
X63487976Y-92904761D01*
X63535595Y-92752380D01*
X63583214Y-92676190D01*
X63678452Y-92600000D01*
X63821309Y-92561904D01*
X63916547Y-92561904D01*
X64059404Y-92600000D01*
X64107023Y-92638095D01*
X64964166Y-93361904D02*
X64964166Y-92942857D01*
X64916547Y-92866666D01*
X64821309Y-92828571D01*
X64630833Y-92828571D01*
X64535595Y-92866666D01*
X64964166Y-93323809D02*
X64868928Y-93361904D01*
X64630833Y-93361904D01*
X64535595Y-93323809D01*
X64487976Y-93247619D01*
X64487976Y-93171428D01*
X64535595Y-93095238D01*
X64630833Y-93057142D01*
X64868928Y-93057142D01*
X64964166Y-93019047D01*
X65440357Y-92828571D02*
X65440357Y-93361904D01*
X65440357Y-92904761D02*
X65487976Y-92866666D01*
X65583214Y-92828571D01*
X65726071Y-92828571D01*
X65821309Y-92866666D01*
X65868928Y-92942857D01*
X65868928Y-93361904D01*
X66297500Y-93323809D02*
X66440357Y-93361904D01*
X66678452Y-93361904D01*
X66773690Y-93323809D01*
X66821309Y-93285714D01*
X66868928Y-93209523D01*
X66868928Y-93133333D01*
X66821309Y-93057142D01*
X66773690Y-93019047D01*
X66678452Y-92980952D01*
X66487976Y-92942857D01*
X66392738Y-92904761D01*
X66345119Y-92866666D01*
X66297500Y-92790476D01*
X66297500Y-92714285D01*
X66345119Y-92638095D01*
X66392738Y-92600000D01*
X66487976Y-92561904D01*
X66726071Y-92561904D01*
X66868928Y-92600000D01*
X67726071Y-93361904D02*
X67726071Y-92942857D01*
X67678452Y-92866666D01*
X67583214Y-92828571D01*
X67392738Y-92828571D01*
X67297500Y-92866666D01*
X67726071Y-93323809D02*
X67630833Y-93361904D01*
X67392738Y-93361904D01*
X67297500Y-93323809D01*
X67249880Y-93247619D01*
X67249880Y-93171428D01*
X67297500Y-93095238D01*
X67392738Y-93057142D01*
X67630833Y-93057142D01*
X67726071Y-93019047D01*
X68059404Y-92828571D02*
X68440357Y-92828571D01*
X68202261Y-92561904D02*
X68202261Y-93247619D01*
X68249880Y-93323809D01*
X68345119Y-93361904D01*
X68440357Y-93361904D01*
X63535595Y-94649904D02*
X63535595Y-93849904D01*
X63916547Y-93849904D01*
X64011785Y-93888000D01*
X64059404Y-93926095D01*
X64107023Y-94002285D01*
X64107023Y-94116571D01*
X64059404Y-94192761D01*
X64011785Y-94230857D01*
X63916547Y-94268952D01*
X63535595Y-94268952D01*
X64535595Y-94649904D02*
X64535595Y-94116571D01*
X64535595Y-94268952D02*
X64583214Y-94192761D01*
X64630833Y-94154666D01*
X64726071Y-94116571D01*
X64821309Y-94116571D01*
X65297500Y-94649904D02*
X65202261Y-94611809D01*
X65154642Y-94573714D01*
X65107023Y-94497523D01*
X65107023Y-94268952D01*
X65154642Y-94192761D01*
X65202261Y-94154666D01*
X65297500Y-94116571D01*
X65440357Y-94116571D01*
X65535595Y-94154666D01*
X65583214Y-94192761D01*
X65630833Y-94268952D01*
X65630833Y-94497523D01*
X65583214Y-94573714D01*
X65535595Y-94611809D01*
X65440357Y-94649904D01*
X65297500Y-94649904D01*
X66059404Y-94116571D02*
X66059404Y-94802285D01*
X66011785Y-94878476D01*
X65916547Y-94916571D01*
X65868928Y-94916571D01*
X66059404Y-93849904D02*
X66011785Y-93888000D01*
X66059404Y-93926095D01*
X66107023Y-93888000D01*
X66059404Y-93849904D01*
X66059404Y-93926095D01*
X66916547Y-94611809D02*
X66821309Y-94649904D01*
X66630833Y-94649904D01*
X66535595Y-94611809D01*
X66487976Y-94535619D01*
X66487976Y-94230857D01*
X66535595Y-94154666D01*
X66630833Y-94116571D01*
X66821309Y-94116571D01*
X66916547Y-94154666D01*
X66964166Y-94230857D01*
X66964166Y-94307047D01*
X66487976Y-94383238D01*
X67821309Y-94611809D02*
X67726071Y-94649904D01*
X67535595Y-94649904D01*
X67440357Y-94611809D01*
X67392738Y-94573714D01*
X67345119Y-94497523D01*
X67345119Y-94268952D01*
X67392738Y-94192761D01*
X67440357Y-94154666D01*
X67535595Y-94116571D01*
X67726071Y-94116571D01*
X67821309Y-94154666D01*
X68107023Y-94116571D02*
X68487976Y-94116571D01*
X68249880Y-93849904D02*
X68249880Y-94535619D01*
X68297500Y-94611809D01*
X68392738Y-94649904D01*
X68487976Y-94649904D01*
X85652380Y-80790476D02*
X85652380Y-81361904D01*
X85652380Y-81076190D02*
X84652380Y-81076190D01*
X84795238Y-81171428D01*
X84890476Y-81266666D01*
X84938095Y-81361904D01*
X85652380Y-80361904D02*
X84652380Y-80361904D01*
X84652380Y-79980952D01*
X84700000Y-79885714D01*
X84747619Y-79838095D01*
X84842857Y-79790476D01*
X84985714Y-79790476D01*
X85080952Y-79838095D01*
X85128571Y-79885714D01*
X85176190Y-79980952D01*
X85176190Y-80361904D01*
X85652380Y-79361904D02*
X84652380Y-79361904D01*
X84652380Y-78980952D01*
X84700000Y-78885714D01*
X84747619Y-78838095D01*
X84842857Y-78790476D01*
X84985714Y-78790476D01*
X85080952Y-78838095D01*
X85128571Y-78885714D01*
X85176190Y-78980952D01*
X85176190Y-79361904D01*
X85604761Y-78409523D02*
X85652380Y-78266666D01*
X85652380Y-78028571D01*
X85604761Y-77933333D01*
X85557142Y-77885714D01*
X85461904Y-77838095D01*
X85366666Y-77838095D01*
X85271428Y-77885714D01*
X85223809Y-77933333D01*
X85176190Y-78028571D01*
X85128571Y-78219047D01*
X85080952Y-78314285D01*
X85033333Y-78361904D01*
X84938095Y-78409523D01*
X84842857Y-78409523D01*
X84747619Y-78361904D01*
X84700000Y-78314285D01*
X84652380Y-78219047D01*
X84652380Y-77980952D01*
X84700000Y-77838095D01*
X86604761Y-103014285D02*
X86652380Y-102871428D01*
X86652380Y-102633333D01*
X86604761Y-102538095D01*
X86557142Y-102490476D01*
X86461904Y-102442857D01*
X86366666Y-102442857D01*
X86271428Y-102490476D01*
X86223809Y-102538095D01*
X86176190Y-102633333D01*
X86128571Y-102823809D01*
X86080952Y-102919047D01*
X86033333Y-102966666D01*
X85938095Y-103014285D01*
X85842857Y-103014285D01*
X85747619Y-102966666D01*
X85700000Y-102919047D01*
X85652380Y-102823809D01*
X85652380Y-102585714D01*
X85700000Y-102442857D01*
X86652380Y-102014285D02*
X85652380Y-102014285D01*
X85652380Y-101776190D01*
X85700000Y-101633333D01*
X85795238Y-101538095D01*
X85890476Y-101490476D01*
X86080952Y-101442857D01*
X86223809Y-101442857D01*
X86414285Y-101490476D01*
X86509523Y-101538095D01*
X86604761Y-101633333D01*
X86652380Y-101776190D01*
X86652380Y-102014285D01*
X86366666Y-101061904D02*
X86366666Y-100585714D01*
X86652380Y-101157142D02*
X85652380Y-100823809D01*
X86652380Y-100490476D01*
X63735595Y-99873904D02*
X63735595Y-99073904D01*
X63973690Y-99073904D01*
X64116547Y-99112000D01*
X64211785Y-99188190D01*
X64259404Y-99264380D01*
X64307023Y-99416761D01*
X64307023Y-99531047D01*
X64259404Y-99683428D01*
X64211785Y-99759619D01*
X64116547Y-99835809D01*
X63973690Y-99873904D01*
X63735595Y-99873904D01*
X65116547Y-99835809D02*
X65021309Y-99873904D01*
X64830833Y-99873904D01*
X64735595Y-99835809D01*
X64687976Y-99759619D01*
X64687976Y-99454857D01*
X64735595Y-99378666D01*
X64830833Y-99340571D01*
X65021309Y-99340571D01*
X65116547Y-99378666D01*
X65164166Y-99454857D01*
X65164166Y-99531047D01*
X64687976Y-99607238D01*
X65545119Y-99835809D02*
X65640357Y-99873904D01*
X65830833Y-99873904D01*
X65926071Y-99835809D01*
X65973690Y-99759619D01*
X65973690Y-99721523D01*
X65926071Y-99645333D01*
X65830833Y-99607238D01*
X65687976Y-99607238D01*
X65592738Y-99569142D01*
X65545119Y-99492952D01*
X65545119Y-99454857D01*
X65592738Y-99378666D01*
X65687976Y-99340571D01*
X65830833Y-99340571D01*
X65926071Y-99378666D01*
X66402261Y-99873904D02*
X66402261Y-99340571D01*
X66402261Y-99073904D02*
X66354642Y-99112000D01*
X66402261Y-99150095D01*
X66449880Y-99112000D01*
X66402261Y-99073904D01*
X66402261Y-99150095D01*
X67307023Y-99340571D02*
X67307023Y-99988190D01*
X67259404Y-100064380D01*
X67211785Y-100102476D01*
X67116547Y-100140571D01*
X66973690Y-100140571D01*
X66878452Y-100102476D01*
X67307023Y-99835809D02*
X67211785Y-99873904D01*
X67021309Y-99873904D01*
X66926071Y-99835809D01*
X66878452Y-99797714D01*
X66830833Y-99721523D01*
X66830833Y-99492952D01*
X66878452Y-99416761D01*
X66926071Y-99378666D01*
X67021309Y-99340571D01*
X67211785Y-99340571D01*
X67307023Y-99378666D01*
X67783214Y-99340571D02*
X67783214Y-99873904D01*
X67783214Y-99416761D02*
X67830833Y-99378666D01*
X67926071Y-99340571D01*
X68068928Y-99340571D01*
X68164166Y-99378666D01*
X68211785Y-99454857D01*
X68211785Y-99873904D01*
X68687976Y-99797714D02*
X68735595Y-99835809D01*
X68687976Y-99873904D01*
X68640357Y-99835809D01*
X68687976Y-99797714D01*
X68687976Y-99873904D01*
X68687976Y-99378666D02*
X68735595Y-99416761D01*
X68687976Y-99454857D01*
X68640357Y-99416761D01*
X68687976Y-99378666D01*
X68687976Y-99454857D01*
X63687976Y-100933333D02*
X64164166Y-100933333D01*
X63592738Y-101161904D02*
X63926071Y-100361904D01*
X64259404Y-101161904D01*
X64592738Y-101161904D02*
X64592738Y-100361904D01*
X64687976Y-100857142D02*
X64973690Y-101161904D01*
X64973690Y-100628571D02*
X64592738Y-100933333D01*
X65402261Y-101161904D02*
X65402261Y-100628571D01*
X65402261Y-100361904D02*
X65354642Y-100400000D01*
X65402261Y-100438095D01*
X65449880Y-100400000D01*
X65402261Y-100361904D01*
X65402261Y-100438095D01*
X66021309Y-101161904D02*
X65926071Y-101123809D01*
X65878452Y-101085714D01*
X65830833Y-101009523D01*
X65830833Y-100780952D01*
X65878452Y-100704761D01*
X65926071Y-100666666D01*
X66021309Y-100628571D01*
X66164166Y-100628571D01*
X66259404Y-100666666D01*
X66307023Y-100704761D01*
X66354642Y-100780952D01*
X66354642Y-101009523D01*
X66307023Y-101085714D01*
X66259404Y-101123809D01*
X66164166Y-101161904D01*
X66021309Y-101161904D01*
X67545119Y-101161904D02*
X67545119Y-100361904D01*
X67878452Y-100933333D01*
X68211785Y-100361904D01*
X68211785Y-101161904D01*
X63687976Y-101726095D02*
X63735595Y-101688000D01*
X63830833Y-101649904D01*
X64068928Y-101649904D01*
X64164166Y-101688000D01*
X64211785Y-101726095D01*
X64259404Y-101802285D01*
X64259404Y-101878476D01*
X64211785Y-101992761D01*
X63640357Y-102449904D01*
X64259404Y-102449904D01*
X64878452Y-101649904D02*
X64973690Y-101649904D01*
X65068928Y-101688000D01*
X65116547Y-101726095D01*
X65164166Y-101802285D01*
X65211785Y-101954666D01*
X65211785Y-102145142D01*
X65164166Y-102297523D01*
X65116547Y-102373714D01*
X65068928Y-102411809D01*
X64973690Y-102449904D01*
X64878452Y-102449904D01*
X64783214Y-102411809D01*
X64735595Y-102373714D01*
X64687976Y-102297523D01*
X64640357Y-102145142D01*
X64640357Y-101954666D01*
X64687976Y-101802285D01*
X64735595Y-101726095D01*
X64783214Y-101688000D01*
X64878452Y-101649904D01*
X65592738Y-101726095D02*
X65640357Y-101688000D01*
X65735595Y-101649904D01*
X65973690Y-101649904D01*
X66068928Y-101688000D01*
X66116547Y-101726095D01*
X66164166Y-101802285D01*
X66164166Y-101878476D01*
X66116547Y-101992761D01*
X65545119Y-102449904D01*
X66164166Y-102449904D01*
X66545119Y-101726095D02*
X66592738Y-101688000D01*
X66687976Y-101649904D01*
X66926071Y-101649904D01*
X67021309Y-101688000D01*
X67068928Y-101726095D01*
X67116547Y-101802285D01*
X67116547Y-101878476D01*
X67068928Y-101992761D01*
X66497500Y-102449904D01*
X67116547Y-102449904D01*
X67545119Y-102373714D02*
X67592738Y-102411809D01*
X67545119Y-102449904D01*
X67497500Y-102411809D01*
X67545119Y-102373714D01*
X67545119Y-102449904D01*
X68545119Y-102449904D02*
X67973690Y-102449904D01*
X68259404Y-102449904D02*
X68259404Y-101649904D01*
X68164166Y-101764190D01*
X68068928Y-101840380D01*
X67973690Y-101878476D01*
X68926071Y-101726095D02*
X68973690Y-101688000D01*
X69068928Y-101649904D01*
X69307023Y-101649904D01*
X69402261Y-101688000D01*
X69449880Y-101726095D01*
X69497500Y-101802285D01*
X69497500Y-101878476D01*
X69449880Y-101992761D01*
X68878452Y-102449904D01*
X69497500Y-102449904D01*
X89128571Y-79180952D02*
X89128571Y-78419047D01*
X88938095Y-78609523D02*
X89128571Y-78419047D01*
X89319047Y-78609523D01*
X64259404Y-95956000D02*
X64164166Y-95917904D01*
X64021309Y-95917904D01*
X63878452Y-95956000D01*
X63783214Y-96032190D01*
X63735595Y-96108380D01*
X63687976Y-96260761D01*
X63687976Y-96375047D01*
X63735595Y-96527428D01*
X63783214Y-96603619D01*
X63878452Y-96679809D01*
X64021309Y-96717904D01*
X64116547Y-96717904D01*
X64259404Y-96679809D01*
X64307023Y-96641714D01*
X64307023Y-96375047D01*
X64116547Y-96375047D01*
X64735595Y-96717904D02*
X64735595Y-95917904D01*
X65307023Y-96717904D01*
X65307023Y-95917904D01*
X65735595Y-96679809D02*
X65878452Y-96717904D01*
X66116547Y-96717904D01*
X66211785Y-96679809D01*
X66259404Y-96641714D01*
X66307023Y-96565523D01*
X66307023Y-96489333D01*
X66259404Y-96413142D01*
X66211785Y-96375047D01*
X66116547Y-96336952D01*
X65926071Y-96298857D01*
X65830833Y-96260761D01*
X65783214Y-96222666D01*
X65735595Y-96146476D01*
X65735595Y-96070285D01*
X65783214Y-95994095D01*
X65830833Y-95956000D01*
X65926071Y-95917904D01*
X66164166Y-95917904D01*
X66307023Y-95956000D01*
X66687976Y-96679809D02*
X66830833Y-96717904D01*
X67068928Y-96717904D01*
X67164166Y-96679809D01*
X67211785Y-96641714D01*
X67259404Y-96565523D01*
X67259404Y-96489333D01*
X67211785Y-96413142D01*
X67164166Y-96375047D01*
X67068928Y-96336952D01*
X66878452Y-96298857D01*
X66783214Y-96260761D01*
X66735595Y-96222666D01*
X66687976Y-96146476D01*
X66687976Y-96070285D01*
X66735595Y-95994095D01*
X66783214Y-95956000D01*
X66878452Y-95917904D01*
X67116547Y-95917904D01*
X67259404Y-95956000D01*
X68783214Y-96298857D02*
X68926071Y-96336952D01*
X68973690Y-96375047D01*
X69021309Y-96451238D01*
X69021309Y-96565523D01*
X68973690Y-96641714D01*
X68926071Y-96679809D01*
X68830833Y-96717904D01*
X68449880Y-96717904D01*
X68449880Y-95917904D01*
X68783214Y-95917904D01*
X68878452Y-95956000D01*
X68926071Y-95994095D01*
X68973690Y-96070285D01*
X68973690Y-96146476D01*
X68926071Y-96222666D01*
X68878452Y-96260761D01*
X68783214Y-96298857D01*
X68449880Y-96298857D01*
X69592738Y-96717904D02*
X69497500Y-96679809D01*
X69449880Y-96641714D01*
X69402261Y-96565523D01*
X69402261Y-96336952D01*
X69449880Y-96260761D01*
X69497500Y-96222666D01*
X69592738Y-96184571D01*
X69735595Y-96184571D01*
X69830833Y-96222666D01*
X69878452Y-96260761D01*
X69926071Y-96336952D01*
X69926071Y-96565523D01*
X69878452Y-96641714D01*
X69830833Y-96679809D01*
X69735595Y-96717904D01*
X69592738Y-96717904D01*
X70783214Y-96717904D02*
X70783214Y-96298857D01*
X70735595Y-96222666D01*
X70640357Y-96184571D01*
X70449880Y-96184571D01*
X70354642Y-96222666D01*
X70783214Y-96679809D02*
X70687976Y-96717904D01*
X70449880Y-96717904D01*
X70354642Y-96679809D01*
X70307023Y-96603619D01*
X70307023Y-96527428D01*
X70354642Y-96451238D01*
X70449880Y-96413142D01*
X70687976Y-96413142D01*
X70783214Y-96375047D01*
X71259404Y-96717904D02*
X71259404Y-96184571D01*
X71259404Y-96336952D02*
X71307023Y-96260761D01*
X71354642Y-96222666D01*
X71449880Y-96184571D01*
X71545119Y-96184571D01*
X72307023Y-96717904D02*
X72307023Y-95917904D01*
X72307023Y-96679809D02*
X72211785Y-96717904D01*
X72021309Y-96717904D01*
X71926071Y-96679809D01*
X71878452Y-96641714D01*
X71830833Y-96565523D01*
X71830833Y-96336952D01*
X71878452Y-96260761D01*
X71926071Y-96222666D01*
X72021309Y-96184571D01*
X72211785Y-96184571D01*
X72307023Y-96222666D01*
X63735595Y-97701142D02*
X64497500Y-97701142D01*
X64973690Y-98005904D02*
X64973690Y-97472571D01*
X64973690Y-97624952D02*
X65021309Y-97548761D01*
X65068928Y-97510666D01*
X65164166Y-97472571D01*
X65259404Y-97472571D01*
X65973690Y-97967809D02*
X65878452Y-98005904D01*
X65687976Y-98005904D01*
X65592738Y-97967809D01*
X65545119Y-97891619D01*
X65545119Y-97586857D01*
X65592738Y-97510666D01*
X65687976Y-97472571D01*
X65878452Y-97472571D01*
X65973690Y-97510666D01*
X66021309Y-97586857D01*
X66021309Y-97663047D01*
X65545119Y-97739238D01*
X66354642Y-97472571D02*
X66592738Y-98005904D01*
X66830833Y-97472571D01*
X67211785Y-97929714D02*
X67259404Y-97967809D01*
X67211785Y-98005904D01*
X67164166Y-97967809D01*
X67211785Y-97929714D01*
X67211785Y-98005904D01*
X67640357Y-97282095D02*
X67687976Y-97244000D01*
X67783214Y-97205904D01*
X68021309Y-97205904D01*
X68116547Y-97244000D01*
X68164166Y-97282095D01*
X68211785Y-97358285D01*
X68211785Y-97434476D01*
X68164166Y-97548761D01*
X67592738Y-98005904D01*
X68211785Y-98005904D01*
X88652380Y-81361904D02*
X88652380Y-80790476D01*
X89652380Y-81076190D02*
X88652380Y-81076190D01*
X88652380Y-80552380D02*
X89652380Y-79885714D01*
X88652380Y-79885714D02*
X89652380Y-80552380D01*
X87071428Y-78419047D02*
X87071428Y-79180952D01*
X87261904Y-78990476D02*
X87071428Y-79180952D01*
X86880952Y-78990476D01*
X90702380Y-99976190D02*
X89702380Y-99976190D01*
X89797619Y-99547619D02*
X89750000Y-99500000D01*
X89702380Y-99404761D01*
X89702380Y-99166666D01*
X89750000Y-99071428D01*
X89797619Y-99023809D01*
X89892857Y-98976190D01*
X89988095Y-98976190D01*
X90130952Y-99023809D01*
X90702380Y-99595238D01*
X90702380Y-98976190D01*
X90607142Y-97976190D02*
X90654761Y-98023809D01*
X90702380Y-98166666D01*
X90702380Y-98261904D01*
X90654761Y-98404761D01*
X90559523Y-98500000D01*
X90464285Y-98547619D01*
X90273809Y-98595238D01*
X90130952Y-98595238D01*
X89940476Y-98547619D01*
X89845238Y-98500000D01*
X89750000Y-98404761D01*
X89702380Y-98261904D01*
X89702380Y-98166666D01*
X89750000Y-98023809D01*
X89797619Y-97976190D01*
X80700000Y-80961904D02*
X80652380Y-81057142D01*
X80652380Y-81200000D01*
X80700000Y-81342857D01*
X80795238Y-81438095D01*
X80890476Y-81485714D01*
X81080952Y-81533333D01*
X81223809Y-81533333D01*
X81414285Y-81485714D01*
X81509523Y-81438095D01*
X81604761Y-81342857D01*
X81652380Y-81200000D01*
X81652380Y-81104761D01*
X81604761Y-80961904D01*
X81557142Y-80914285D01*
X81223809Y-80914285D01*
X81223809Y-81104761D01*
X81652380Y-80485714D02*
X80652380Y-80485714D01*
X81652380Y-79914285D01*
X80652380Y-79914285D01*
X81652380Y-79438095D02*
X80652380Y-79438095D01*
X80652380Y-79200000D01*
X80700000Y-79057142D01*
X80795238Y-78961904D01*
X80890476Y-78914285D01*
X81080952Y-78866666D01*
X81223809Y-78866666D01*
X81414285Y-78914285D01*
X81509523Y-78961904D01*
X81604761Y-79057142D01*
X81652380Y-79200000D01*
X81652380Y-79438095D01*
X82652380Y-81438095D02*
X82652380Y-80819047D01*
X83033333Y-81152380D01*
X83033333Y-81009523D01*
X83080952Y-80914285D01*
X83128571Y-80866666D01*
X83223809Y-80819047D01*
X83461904Y-80819047D01*
X83557142Y-80866666D01*
X83604761Y-80914285D01*
X83652380Y-81009523D01*
X83652380Y-81295238D01*
X83604761Y-81390476D01*
X83557142Y-81438095D01*
X82652380Y-80533333D02*
X83652380Y-80200000D01*
X82652380Y-79866666D01*
X82652380Y-79628571D02*
X82652380Y-79009523D01*
X83033333Y-79342857D01*
X83033333Y-79200000D01*
X83080952Y-79104761D01*
X83128571Y-79057142D01*
X83223809Y-79009523D01*
X83461904Y-79009523D01*
X83557142Y-79057142D01*
X83604761Y-79104761D01*
X83652380Y-79200000D01*
X83652380Y-79485714D01*
X83604761Y-79580952D01*
X83557142Y-79628571D01*
X87652380Y-80766666D02*
X87176190Y-81100000D01*
X87652380Y-81338095D02*
X86652380Y-81338095D01*
X86652380Y-80957142D01*
X86700000Y-80861904D01*
X86747619Y-80814285D01*
X86842857Y-80766666D01*
X86985714Y-80766666D01*
X87080952Y-80814285D01*
X87128571Y-80861904D01*
X87176190Y-80957142D01*
X87176190Y-81338095D01*
X86652380Y-80433333D02*
X87652380Y-79766666D01*
X86652380Y-79766666D02*
X87652380Y-80433333D01*
X88604761Y-102990476D02*
X88652380Y-102847619D01*
X88652380Y-102609523D01*
X88604761Y-102514285D01*
X88557142Y-102466666D01*
X88461904Y-102419047D01*
X88366666Y-102419047D01*
X88271428Y-102466666D01*
X88223809Y-102514285D01*
X88176190Y-102609523D01*
X88128571Y-102800000D01*
X88080952Y-102895238D01*
X88033333Y-102942857D01*
X87938095Y-102990476D01*
X87842857Y-102990476D01*
X87747619Y-102942857D01*
X87700000Y-102895238D01*
X87652380Y-102800000D01*
X87652380Y-102561904D01*
X87700000Y-102419047D01*
X88557142Y-101419047D02*
X88604761Y-101466666D01*
X88652380Y-101609523D01*
X88652380Y-101704761D01*
X88604761Y-101847619D01*
X88509523Y-101942857D01*
X88414285Y-101990476D01*
X88223809Y-102038095D01*
X88080952Y-102038095D01*
X87890476Y-101990476D01*
X87795238Y-101942857D01*
X87700000Y-101847619D01*
X87652380Y-101704761D01*
X87652380Y-101609523D01*
X87700000Y-101466666D01*
X87747619Y-101419047D01*
X88652380Y-100514285D02*
X88652380Y-100990476D01*
X87652380Y-100990476D01*
X76420000Y-88919662D02*
X63680000Y-88919662D01*
X63680000Y-88919662D02*
X63680000Y-86100000D01*
X63680000Y-86100000D02*
X76420000Y-86100000D01*
X76420000Y-86100000D02*
X76420000Y-88919662D01*
G36*
X76420000Y-88919662D02*
G01*
X63680000Y-88919662D01*
X63680000Y-86100000D01*
X76420000Y-86100000D01*
X76420000Y-88919662D01*
G37*
X79950000Y-87575000D02*
X90050000Y-87575000D01*
X90050000Y-87575000D02*
X90050000Y-94425000D01*
X90050000Y-94425000D02*
X79950000Y-94425000D01*
X79950000Y-94425000D02*
X79950000Y-87575000D01*
G36*
X79950000Y-87575000D02*
G01*
X90050000Y-87575000D01*
X90050000Y-94425000D01*
X79950000Y-94425000D01*
X79950000Y-87575000D01*
G37*
X63000000Y-91250000D02*
X63000000Y-103000000D01*
X63000000Y-103000000D02*
X73000000Y-103000000D01*
X63650000Y-76780338D02*
X76350000Y-76780338D01*
X76350000Y-76780338D02*
X76350000Y-79640338D01*
X76350000Y-79640338D02*
X63650000Y-79640338D01*
X63650000Y-79640338D02*
X63650000Y-76780338D01*
G36*
X63650000Y-76780338D02*
G01*
X76350000Y-76780338D01*
X76350000Y-79640338D01*
X63650000Y-79640338D01*
X63650000Y-76780338D01*
G37*
X73230338Y-86080338D02*
X76350000Y-86080338D01*
X76350000Y-86080338D02*
X76350000Y-79640338D01*
X76350000Y-79640338D02*
X73230338Y-79640338D01*
X73230338Y-79640338D02*
X73230338Y-86080338D01*
G36*
X73230338Y-86080338D02*
G01*
X76350000Y-86080338D01*
X76350000Y-79640338D01*
X73230338Y-79640338D01*
X73230338Y-86080338D01*
G37*
X63680338Y-86070000D02*
X66500000Y-86070000D01*
X66500000Y-86070000D02*
X66500000Y-79630000D01*
X66500000Y-79630000D02*
X63680338Y-79630000D01*
X63680338Y-79630000D02*
X63680338Y-86070000D01*
G36*
X63680338Y-86070000D02*
G01*
X66500000Y-86070000D01*
X66500000Y-79630000D01*
X63680338Y-79630000D01*
X63680338Y-86070000D01*
G37*
D11*
X60000000Y-74000000D02*
X92000000Y-74000000D01*
X92000000Y-74000000D02*
X92000000Y-106000000D01*
X92000000Y-106000000D02*
X60000000Y-106000000D01*
X60000000Y-106000000D02*
X60000000Y-74000000D01*
D10*
X120654761Y-42702380D02*
X120654761Y-43511904D01*
X120702380Y-43607142D01*
X120750000Y-43654761D01*
X120845238Y-43702380D01*
X121035714Y-43702380D01*
X121130952Y-43654761D01*
X121178571Y-43607142D01*
X121226190Y-43511904D01*
X121226190Y-42702380D01*
X121654761Y-43416666D02*
X122130952Y-43416666D01*
X121559523Y-43702380D02*
X121892857Y-42702380D01*
X122226190Y-43702380D01*
X123130952Y-43702380D02*
X122797619Y-43226190D01*
X122559523Y-43702380D02*
X122559523Y-42702380D01*
X122940476Y-42702380D01*
X123035714Y-42750000D01*
X123083333Y-42797619D01*
X123130952Y-42892857D01*
X123130952Y-43035714D01*
X123083333Y-43130952D01*
X123035714Y-43178571D01*
X122940476Y-43226190D01*
X122559523Y-43226190D01*
X123416666Y-42702380D02*
X123988095Y-42702380D01*
X123702380Y-43702380D02*
X123702380Y-42702380D01*
X97535595Y-58073904D02*
X97535595Y-57273904D01*
X97773690Y-57273904D01*
X97916547Y-57312000D01*
X98011785Y-57388190D01*
X98059404Y-57464380D01*
X98107023Y-57616761D01*
X98107023Y-57731047D01*
X98059404Y-57883428D01*
X98011785Y-57959619D01*
X97916547Y-58035809D01*
X97773690Y-58073904D01*
X97535595Y-58073904D01*
X98535595Y-57654857D02*
X98868928Y-57654857D01*
X99011785Y-58073904D02*
X98535595Y-58073904D01*
X98535595Y-57273904D01*
X99011785Y-57273904D01*
X100011785Y-58073904D02*
X99678452Y-57692952D01*
X99440357Y-58073904D02*
X99440357Y-57273904D01*
X99821309Y-57273904D01*
X99916547Y-57312000D01*
X99964166Y-57350095D01*
X100011785Y-57426285D01*
X100011785Y-57540571D01*
X99964166Y-57616761D01*
X99916547Y-57654857D01*
X99821309Y-57692952D01*
X99440357Y-57692952D01*
X101011785Y-57997714D02*
X100964166Y-58035809D01*
X100821309Y-58073904D01*
X100726071Y-58073904D01*
X100583214Y-58035809D01*
X100487976Y-57959619D01*
X100440357Y-57883428D01*
X100392738Y-57731047D01*
X100392738Y-57616761D01*
X100440357Y-57464380D01*
X100487976Y-57388190D01*
X100583214Y-57312000D01*
X100726071Y-57273904D01*
X100821309Y-57273904D01*
X100964166Y-57312000D01*
X101011785Y-57350095D01*
X98107023Y-59285714D02*
X98059404Y-59323809D01*
X97916547Y-59361904D01*
X97821309Y-59361904D01*
X97678452Y-59323809D01*
X97583214Y-59247619D01*
X97535595Y-59171428D01*
X97487976Y-59019047D01*
X97487976Y-58904761D01*
X97535595Y-58752380D01*
X97583214Y-58676190D01*
X97678452Y-58600000D01*
X97821309Y-58561904D01*
X97916547Y-58561904D01*
X98059404Y-58600000D01*
X98107023Y-58638095D01*
X98964166Y-59361904D02*
X98964166Y-58942857D01*
X98916547Y-58866666D01*
X98821309Y-58828571D01*
X98630833Y-58828571D01*
X98535595Y-58866666D01*
X98964166Y-59323809D02*
X98868928Y-59361904D01*
X98630833Y-59361904D01*
X98535595Y-59323809D01*
X98487976Y-59247619D01*
X98487976Y-59171428D01*
X98535595Y-59095238D01*
X98630833Y-59057142D01*
X98868928Y-59057142D01*
X98964166Y-59019047D01*
X99440357Y-58828571D02*
X99440357Y-59361904D01*
X99440357Y-58904761D02*
X99487976Y-58866666D01*
X99583214Y-58828571D01*
X99726071Y-58828571D01*
X99821309Y-58866666D01*
X99868928Y-58942857D01*
X99868928Y-59361904D01*
X100297500Y-59323809D02*
X100440357Y-59361904D01*
X100678452Y-59361904D01*
X100773690Y-59323809D01*
X100821309Y-59285714D01*
X100868928Y-59209523D01*
X100868928Y-59133333D01*
X100821309Y-59057142D01*
X100773690Y-59019047D01*
X100678452Y-58980952D01*
X100487976Y-58942857D01*
X100392738Y-58904761D01*
X100345119Y-58866666D01*
X100297500Y-58790476D01*
X100297500Y-58714285D01*
X100345119Y-58638095D01*
X100392738Y-58600000D01*
X100487976Y-58561904D01*
X100726071Y-58561904D01*
X100868928Y-58600000D01*
X101726071Y-59361904D02*
X101726071Y-58942857D01*
X101678452Y-58866666D01*
X101583214Y-58828571D01*
X101392738Y-58828571D01*
X101297500Y-58866666D01*
X101726071Y-59323809D02*
X101630833Y-59361904D01*
X101392738Y-59361904D01*
X101297500Y-59323809D01*
X101249880Y-59247619D01*
X101249880Y-59171428D01*
X101297500Y-59095238D01*
X101392738Y-59057142D01*
X101630833Y-59057142D01*
X101726071Y-59019047D01*
X102059404Y-58828571D02*
X102440357Y-58828571D01*
X102202261Y-58561904D02*
X102202261Y-59247619D01*
X102249880Y-59323809D01*
X102345119Y-59361904D01*
X102440357Y-59361904D01*
X97535595Y-60649904D02*
X97535595Y-59849904D01*
X97916547Y-59849904D01*
X98011785Y-59888000D01*
X98059404Y-59926095D01*
X98107023Y-60002285D01*
X98107023Y-60116571D01*
X98059404Y-60192761D01*
X98011785Y-60230857D01*
X97916547Y-60268952D01*
X97535595Y-60268952D01*
X98535595Y-60649904D02*
X98535595Y-60116571D01*
X98535595Y-60268952D02*
X98583214Y-60192761D01*
X98630833Y-60154666D01*
X98726071Y-60116571D01*
X98821309Y-60116571D01*
X99297500Y-60649904D02*
X99202261Y-60611809D01*
X99154642Y-60573714D01*
X99107023Y-60497523D01*
X99107023Y-60268952D01*
X99154642Y-60192761D01*
X99202261Y-60154666D01*
X99297500Y-60116571D01*
X99440357Y-60116571D01*
X99535595Y-60154666D01*
X99583214Y-60192761D01*
X99630833Y-60268952D01*
X99630833Y-60497523D01*
X99583214Y-60573714D01*
X99535595Y-60611809D01*
X99440357Y-60649904D01*
X99297500Y-60649904D01*
X100059404Y-60116571D02*
X100059404Y-60802285D01*
X100011785Y-60878476D01*
X99916547Y-60916571D01*
X99868928Y-60916571D01*
X100059404Y-59849904D02*
X100011785Y-59888000D01*
X100059404Y-59926095D01*
X100107023Y-59888000D01*
X100059404Y-59849904D01*
X100059404Y-59926095D01*
X100916547Y-60611809D02*
X100821309Y-60649904D01*
X100630833Y-60649904D01*
X100535595Y-60611809D01*
X100487976Y-60535619D01*
X100487976Y-60230857D01*
X100535595Y-60154666D01*
X100630833Y-60116571D01*
X100821309Y-60116571D01*
X100916547Y-60154666D01*
X100964166Y-60230857D01*
X100964166Y-60307047D01*
X100487976Y-60383238D01*
X101821309Y-60611809D02*
X101726071Y-60649904D01*
X101535595Y-60649904D01*
X101440357Y-60611809D01*
X101392738Y-60573714D01*
X101345119Y-60497523D01*
X101345119Y-60268952D01*
X101392738Y-60192761D01*
X101440357Y-60154666D01*
X101535595Y-60116571D01*
X101726071Y-60116571D01*
X101821309Y-60154666D01*
X102107023Y-60116571D02*
X102487976Y-60116571D01*
X102249880Y-59849904D02*
X102249880Y-60535619D01*
X102297500Y-60611809D01*
X102392738Y-60649904D01*
X102487976Y-60649904D01*
X119652380Y-46790476D02*
X119652380Y-47361904D01*
X119652380Y-47076190D02*
X118652380Y-47076190D01*
X118795238Y-47171428D01*
X118890476Y-47266666D01*
X118938095Y-47361904D01*
X119652380Y-46361904D02*
X118652380Y-46361904D01*
X118652380Y-45980952D01*
X118700000Y-45885714D01*
X118747619Y-45838095D01*
X118842857Y-45790476D01*
X118985714Y-45790476D01*
X119080952Y-45838095D01*
X119128571Y-45885714D01*
X119176190Y-45980952D01*
X119176190Y-46361904D01*
X119652380Y-45361904D02*
X118652380Y-45361904D01*
X118652380Y-44980952D01*
X118700000Y-44885714D01*
X118747619Y-44838095D01*
X118842857Y-44790476D01*
X118985714Y-44790476D01*
X119080952Y-44838095D01*
X119128571Y-44885714D01*
X119176190Y-44980952D01*
X119176190Y-45361904D01*
X119604761Y-44409523D02*
X119652380Y-44266666D01*
X119652380Y-44028571D01*
X119604761Y-43933333D01*
X119557142Y-43885714D01*
X119461904Y-43838095D01*
X119366666Y-43838095D01*
X119271428Y-43885714D01*
X119223809Y-43933333D01*
X119176190Y-44028571D01*
X119128571Y-44219047D01*
X119080952Y-44314285D01*
X119033333Y-44361904D01*
X118938095Y-44409523D01*
X118842857Y-44409523D01*
X118747619Y-44361904D01*
X118700000Y-44314285D01*
X118652380Y-44219047D01*
X118652380Y-43980952D01*
X118700000Y-43838095D01*
X120604761Y-69014285D02*
X120652380Y-68871428D01*
X120652380Y-68633333D01*
X120604761Y-68538095D01*
X120557142Y-68490476D01*
X120461904Y-68442857D01*
X120366666Y-68442857D01*
X120271428Y-68490476D01*
X120223809Y-68538095D01*
X120176190Y-68633333D01*
X120128571Y-68823809D01*
X120080952Y-68919047D01*
X120033333Y-68966666D01*
X119938095Y-69014285D01*
X119842857Y-69014285D01*
X119747619Y-68966666D01*
X119700000Y-68919047D01*
X119652380Y-68823809D01*
X119652380Y-68585714D01*
X119700000Y-68442857D01*
X120652380Y-68014285D02*
X119652380Y-68014285D01*
X119652380Y-67776190D01*
X119700000Y-67633333D01*
X119795238Y-67538095D01*
X119890476Y-67490476D01*
X120080952Y-67442857D01*
X120223809Y-67442857D01*
X120414285Y-67490476D01*
X120509523Y-67538095D01*
X120604761Y-67633333D01*
X120652380Y-67776190D01*
X120652380Y-68014285D01*
X120366666Y-67061904D02*
X120366666Y-66585714D01*
X120652380Y-67157142D02*
X119652380Y-66823809D01*
X120652380Y-66490476D01*
X97735595Y-65873904D02*
X97735595Y-65073904D01*
X97973690Y-65073904D01*
X98116547Y-65112000D01*
X98211785Y-65188190D01*
X98259404Y-65264380D01*
X98307023Y-65416761D01*
X98307023Y-65531047D01*
X98259404Y-65683428D01*
X98211785Y-65759619D01*
X98116547Y-65835809D01*
X97973690Y-65873904D01*
X97735595Y-65873904D01*
X99116547Y-65835809D02*
X99021309Y-65873904D01*
X98830833Y-65873904D01*
X98735595Y-65835809D01*
X98687976Y-65759619D01*
X98687976Y-65454857D01*
X98735595Y-65378666D01*
X98830833Y-65340571D01*
X99021309Y-65340571D01*
X99116547Y-65378666D01*
X99164166Y-65454857D01*
X99164166Y-65531047D01*
X98687976Y-65607238D01*
X99545119Y-65835809D02*
X99640357Y-65873904D01*
X99830833Y-65873904D01*
X99926071Y-65835809D01*
X99973690Y-65759619D01*
X99973690Y-65721523D01*
X99926071Y-65645333D01*
X99830833Y-65607238D01*
X99687976Y-65607238D01*
X99592738Y-65569142D01*
X99545119Y-65492952D01*
X99545119Y-65454857D01*
X99592738Y-65378666D01*
X99687976Y-65340571D01*
X99830833Y-65340571D01*
X99926071Y-65378666D01*
X100402261Y-65873904D02*
X100402261Y-65340571D01*
X100402261Y-65073904D02*
X100354642Y-65112000D01*
X100402261Y-65150095D01*
X100449880Y-65112000D01*
X100402261Y-65073904D01*
X100402261Y-65150095D01*
X101307023Y-65340571D02*
X101307023Y-65988190D01*
X101259404Y-66064380D01*
X101211785Y-66102476D01*
X101116547Y-66140571D01*
X100973690Y-66140571D01*
X100878452Y-66102476D01*
X101307023Y-65835809D02*
X101211785Y-65873904D01*
X101021309Y-65873904D01*
X100926071Y-65835809D01*
X100878452Y-65797714D01*
X100830833Y-65721523D01*
X100830833Y-65492952D01*
X100878452Y-65416761D01*
X100926071Y-65378666D01*
X101021309Y-65340571D01*
X101211785Y-65340571D01*
X101307023Y-65378666D01*
X101783214Y-65340571D02*
X101783214Y-65873904D01*
X101783214Y-65416761D02*
X101830833Y-65378666D01*
X101926071Y-65340571D01*
X102068928Y-65340571D01*
X102164166Y-65378666D01*
X102211785Y-65454857D01*
X102211785Y-65873904D01*
X102687976Y-65797714D02*
X102735595Y-65835809D01*
X102687976Y-65873904D01*
X102640357Y-65835809D01*
X102687976Y-65797714D01*
X102687976Y-65873904D01*
X102687976Y-65378666D02*
X102735595Y-65416761D01*
X102687976Y-65454857D01*
X102640357Y-65416761D01*
X102687976Y-65378666D01*
X102687976Y-65454857D01*
X97687976Y-66933333D02*
X98164166Y-66933333D01*
X97592738Y-67161904D02*
X97926071Y-66361904D01*
X98259404Y-67161904D01*
X98592738Y-67161904D02*
X98592738Y-66361904D01*
X98687976Y-66857142D02*
X98973690Y-67161904D01*
X98973690Y-66628571D02*
X98592738Y-66933333D01*
X99402261Y-67161904D02*
X99402261Y-66628571D01*
X99402261Y-66361904D02*
X99354642Y-66400000D01*
X99402261Y-66438095D01*
X99449880Y-66400000D01*
X99402261Y-66361904D01*
X99402261Y-66438095D01*
X100021309Y-67161904D02*
X99926071Y-67123809D01*
X99878452Y-67085714D01*
X99830833Y-67009523D01*
X99830833Y-66780952D01*
X99878452Y-66704761D01*
X99926071Y-66666666D01*
X100021309Y-66628571D01*
X100164166Y-66628571D01*
X100259404Y-66666666D01*
X100307023Y-66704761D01*
X100354642Y-66780952D01*
X100354642Y-67009523D01*
X100307023Y-67085714D01*
X100259404Y-67123809D01*
X100164166Y-67161904D01*
X100021309Y-67161904D01*
X101545119Y-67161904D02*
X101545119Y-66361904D01*
X101878452Y-66933333D01*
X102211785Y-66361904D01*
X102211785Y-67161904D01*
X97687976Y-67726095D02*
X97735595Y-67688000D01*
X97830833Y-67649904D01*
X98068928Y-67649904D01*
X98164166Y-67688000D01*
X98211785Y-67726095D01*
X98259404Y-67802285D01*
X98259404Y-67878476D01*
X98211785Y-67992761D01*
X97640357Y-68449904D01*
X98259404Y-68449904D01*
X98878452Y-67649904D02*
X98973690Y-67649904D01*
X99068928Y-67688000D01*
X99116547Y-67726095D01*
X99164166Y-67802285D01*
X99211785Y-67954666D01*
X99211785Y-68145142D01*
X99164166Y-68297523D01*
X99116547Y-68373714D01*
X99068928Y-68411809D01*
X98973690Y-68449904D01*
X98878452Y-68449904D01*
X98783214Y-68411809D01*
X98735595Y-68373714D01*
X98687976Y-68297523D01*
X98640357Y-68145142D01*
X98640357Y-67954666D01*
X98687976Y-67802285D01*
X98735595Y-67726095D01*
X98783214Y-67688000D01*
X98878452Y-67649904D01*
X99592738Y-67726095D02*
X99640357Y-67688000D01*
X99735595Y-67649904D01*
X99973690Y-67649904D01*
X100068928Y-67688000D01*
X100116547Y-67726095D01*
X100164166Y-67802285D01*
X100164166Y-67878476D01*
X100116547Y-67992761D01*
X99545119Y-68449904D01*
X100164166Y-68449904D01*
X100545119Y-67726095D02*
X100592738Y-67688000D01*
X100687976Y-67649904D01*
X100926071Y-67649904D01*
X101021309Y-67688000D01*
X101068928Y-67726095D01*
X101116547Y-67802285D01*
X101116547Y-67878476D01*
X101068928Y-67992761D01*
X100497500Y-68449904D01*
X101116547Y-68449904D01*
X101545119Y-68373714D02*
X101592738Y-68411809D01*
X101545119Y-68449904D01*
X101497500Y-68411809D01*
X101545119Y-68373714D01*
X101545119Y-68449904D01*
X102545119Y-68449904D02*
X101973690Y-68449904D01*
X102259404Y-68449904D02*
X102259404Y-67649904D01*
X102164166Y-67764190D01*
X102068928Y-67840380D01*
X101973690Y-67878476D01*
X102926071Y-67726095D02*
X102973690Y-67688000D01*
X103068928Y-67649904D01*
X103307023Y-67649904D01*
X103402261Y-67688000D01*
X103449880Y-67726095D01*
X103497500Y-67802285D01*
X103497500Y-67878476D01*
X103449880Y-67992761D01*
X102878452Y-68449904D01*
X103497500Y-68449904D01*
X123128571Y-45180952D02*
X123128571Y-44419047D01*
X122938095Y-44609523D02*
X123128571Y-44419047D01*
X123319047Y-44609523D01*
X98259404Y-61956000D02*
X98164166Y-61917904D01*
X98021309Y-61917904D01*
X97878452Y-61956000D01*
X97783214Y-62032190D01*
X97735595Y-62108380D01*
X97687976Y-62260761D01*
X97687976Y-62375047D01*
X97735595Y-62527428D01*
X97783214Y-62603619D01*
X97878452Y-62679809D01*
X98021309Y-62717904D01*
X98116547Y-62717904D01*
X98259404Y-62679809D01*
X98307023Y-62641714D01*
X98307023Y-62375047D01*
X98116547Y-62375047D01*
X98735595Y-62717904D02*
X98735595Y-61917904D01*
X99307023Y-62717904D01*
X99307023Y-61917904D01*
X99735595Y-62679809D02*
X99878452Y-62717904D01*
X100116547Y-62717904D01*
X100211785Y-62679809D01*
X100259404Y-62641714D01*
X100307023Y-62565523D01*
X100307023Y-62489333D01*
X100259404Y-62413142D01*
X100211785Y-62375047D01*
X100116547Y-62336952D01*
X99926071Y-62298857D01*
X99830833Y-62260761D01*
X99783214Y-62222666D01*
X99735595Y-62146476D01*
X99735595Y-62070285D01*
X99783214Y-61994095D01*
X99830833Y-61956000D01*
X99926071Y-61917904D01*
X100164166Y-61917904D01*
X100307023Y-61956000D01*
X100687976Y-62679809D02*
X100830833Y-62717904D01*
X101068928Y-62717904D01*
X101164166Y-62679809D01*
X101211785Y-62641714D01*
X101259404Y-62565523D01*
X101259404Y-62489333D01*
X101211785Y-62413142D01*
X101164166Y-62375047D01*
X101068928Y-62336952D01*
X100878452Y-62298857D01*
X100783214Y-62260761D01*
X100735595Y-62222666D01*
X100687976Y-62146476D01*
X100687976Y-62070285D01*
X100735595Y-61994095D01*
X100783214Y-61956000D01*
X100878452Y-61917904D01*
X101116547Y-61917904D01*
X101259404Y-61956000D01*
X102783214Y-62298857D02*
X102926071Y-62336952D01*
X102973690Y-62375047D01*
X103021309Y-62451238D01*
X103021309Y-62565523D01*
X102973690Y-62641714D01*
X102926071Y-62679809D01*
X102830833Y-62717904D01*
X102449880Y-62717904D01*
X102449880Y-61917904D01*
X102783214Y-61917904D01*
X102878452Y-61956000D01*
X102926071Y-61994095D01*
X102973690Y-62070285D01*
X102973690Y-62146476D01*
X102926071Y-62222666D01*
X102878452Y-62260761D01*
X102783214Y-62298857D01*
X102449880Y-62298857D01*
X103592738Y-62717904D02*
X103497500Y-62679809D01*
X103449880Y-62641714D01*
X103402261Y-62565523D01*
X103402261Y-62336952D01*
X103449880Y-62260761D01*
X103497500Y-62222666D01*
X103592738Y-62184571D01*
X103735595Y-62184571D01*
X103830833Y-62222666D01*
X103878452Y-62260761D01*
X103926071Y-62336952D01*
X103926071Y-62565523D01*
X103878452Y-62641714D01*
X103830833Y-62679809D01*
X103735595Y-62717904D01*
X103592738Y-62717904D01*
X104783214Y-62717904D02*
X104783214Y-62298857D01*
X104735595Y-62222666D01*
X104640357Y-62184571D01*
X104449880Y-62184571D01*
X104354642Y-62222666D01*
X104783214Y-62679809D02*
X104687976Y-62717904D01*
X104449880Y-62717904D01*
X104354642Y-62679809D01*
X104307023Y-62603619D01*
X104307023Y-62527428D01*
X104354642Y-62451238D01*
X104449880Y-62413142D01*
X104687976Y-62413142D01*
X104783214Y-62375047D01*
X105259404Y-62717904D02*
X105259404Y-62184571D01*
X105259404Y-62336952D02*
X105307023Y-62260761D01*
X105354642Y-62222666D01*
X105449880Y-62184571D01*
X105545119Y-62184571D01*
X106307023Y-62717904D02*
X106307023Y-61917904D01*
X106307023Y-62679809D02*
X106211785Y-62717904D01*
X106021309Y-62717904D01*
X105926071Y-62679809D01*
X105878452Y-62641714D01*
X105830833Y-62565523D01*
X105830833Y-62336952D01*
X105878452Y-62260761D01*
X105926071Y-62222666D01*
X106021309Y-62184571D01*
X106211785Y-62184571D01*
X106307023Y-62222666D01*
X97735595Y-63701142D02*
X98497500Y-63701142D01*
X98973690Y-64005904D02*
X98973690Y-63472571D01*
X98973690Y-63624952D02*
X99021309Y-63548761D01*
X99068928Y-63510666D01*
X99164166Y-63472571D01*
X99259404Y-63472571D01*
X99973690Y-63967809D02*
X99878452Y-64005904D01*
X99687976Y-64005904D01*
X99592738Y-63967809D01*
X99545119Y-63891619D01*
X99545119Y-63586857D01*
X99592738Y-63510666D01*
X99687976Y-63472571D01*
X99878452Y-63472571D01*
X99973690Y-63510666D01*
X100021309Y-63586857D01*
X100021309Y-63663047D01*
X99545119Y-63739238D01*
X100354642Y-63472571D02*
X100592738Y-64005904D01*
X100830833Y-63472571D01*
X101211785Y-63929714D02*
X101259404Y-63967809D01*
X101211785Y-64005904D01*
X101164166Y-63967809D01*
X101211785Y-63929714D01*
X101211785Y-64005904D01*
X101640357Y-63282095D02*
X101687976Y-63244000D01*
X101783214Y-63205904D01*
X102021309Y-63205904D01*
X102116547Y-63244000D01*
X102164166Y-63282095D01*
X102211785Y-63358285D01*
X102211785Y-63434476D01*
X102164166Y-63548761D01*
X101592738Y-64005904D01*
X102211785Y-64005904D01*
X122652380Y-47361904D02*
X122652380Y-46790476D01*
X123652380Y-47076190D02*
X122652380Y-47076190D01*
X122652380Y-46552380D02*
X123652380Y-45885714D01*
X122652380Y-45885714D02*
X123652380Y-46552380D01*
X121071428Y-44419047D02*
X121071428Y-45180952D01*
X121261904Y-44990476D02*
X121071428Y-45180952D01*
X120880952Y-44990476D01*
X124702380Y-65976190D02*
X123702380Y-65976190D01*
X123797619Y-65547619D02*
X123750000Y-65500000D01*
X123702380Y-65404761D01*
X123702380Y-65166666D01*
X123750000Y-65071428D01*
X123797619Y-65023809D01*
X123892857Y-64976190D01*
X123988095Y-64976190D01*
X124130952Y-65023809D01*
X124702380Y-65595238D01*
X124702380Y-64976190D01*
X124607142Y-63976190D02*
X124654761Y-64023809D01*
X124702380Y-64166666D01*
X124702380Y-64261904D01*
X124654761Y-64404761D01*
X124559523Y-64500000D01*
X124464285Y-64547619D01*
X124273809Y-64595238D01*
X124130952Y-64595238D01*
X123940476Y-64547619D01*
X123845238Y-64500000D01*
X123750000Y-64404761D01*
X123702380Y-64261904D01*
X123702380Y-64166666D01*
X123750000Y-64023809D01*
X123797619Y-63976190D01*
X114700000Y-46961904D02*
X114652380Y-47057142D01*
X114652380Y-47200000D01*
X114700000Y-47342857D01*
X114795238Y-47438095D01*
X114890476Y-47485714D01*
X115080952Y-47533333D01*
X115223809Y-47533333D01*
X115414285Y-47485714D01*
X115509523Y-47438095D01*
X115604761Y-47342857D01*
X115652380Y-47200000D01*
X115652380Y-47104761D01*
X115604761Y-46961904D01*
X115557142Y-46914285D01*
X115223809Y-46914285D01*
X115223809Y-47104761D01*
X115652380Y-46485714D02*
X114652380Y-46485714D01*
X115652380Y-45914285D01*
X114652380Y-45914285D01*
X115652380Y-45438095D02*
X114652380Y-45438095D01*
X114652380Y-45200000D01*
X114700000Y-45057142D01*
X114795238Y-44961904D01*
X114890476Y-44914285D01*
X115080952Y-44866666D01*
X115223809Y-44866666D01*
X115414285Y-44914285D01*
X115509523Y-44961904D01*
X115604761Y-45057142D01*
X115652380Y-45200000D01*
X115652380Y-45438095D01*
X116652380Y-47438095D02*
X116652380Y-46819047D01*
X117033333Y-47152380D01*
X117033333Y-47009523D01*
X117080952Y-46914285D01*
X117128571Y-46866666D01*
X117223809Y-46819047D01*
X117461904Y-46819047D01*
X117557142Y-46866666D01*
X117604761Y-46914285D01*
X117652380Y-47009523D01*
X117652380Y-47295238D01*
X117604761Y-47390476D01*
X117557142Y-47438095D01*
X116652380Y-46533333D02*
X117652380Y-46200000D01*
X116652380Y-45866666D01*
X116652380Y-45628571D02*
X116652380Y-45009523D01*
X117033333Y-45342857D01*
X117033333Y-45200000D01*
X117080952Y-45104761D01*
X117128571Y-45057142D01*
X117223809Y-45009523D01*
X117461904Y-45009523D01*
X117557142Y-45057142D01*
X117604761Y-45104761D01*
X117652380Y-45200000D01*
X117652380Y-45485714D01*
X117604761Y-45580952D01*
X117557142Y-45628571D01*
X121652380Y-46766666D02*
X121176190Y-47100000D01*
X121652380Y-47338095D02*
X120652380Y-47338095D01*
X120652380Y-46957142D01*
X120700000Y-46861904D01*
X120747619Y-46814285D01*
X120842857Y-46766666D01*
X120985714Y-46766666D01*
X121080952Y-46814285D01*
X121128571Y-46861904D01*
X121176190Y-46957142D01*
X121176190Y-47338095D01*
X120652380Y-46433333D02*
X121652380Y-45766666D01*
X120652380Y-45766666D02*
X121652380Y-46433333D01*
X122604761Y-68990476D02*
X122652380Y-68847619D01*
X122652380Y-68609523D01*
X122604761Y-68514285D01*
X122557142Y-68466666D01*
X122461904Y-68419047D01*
X122366666Y-68419047D01*
X122271428Y-68466666D01*
X122223809Y-68514285D01*
X122176190Y-68609523D01*
X122128571Y-68800000D01*
X122080952Y-68895238D01*
X122033333Y-68942857D01*
X121938095Y-68990476D01*
X121842857Y-68990476D01*
X121747619Y-68942857D01*
X121700000Y-68895238D01*
X121652380Y-68800000D01*
X121652380Y-68561904D01*
X121700000Y-68419047D01*
X122557142Y-67419047D02*
X122604761Y-67466666D01*
X122652380Y-67609523D01*
X122652380Y-67704761D01*
X122604761Y-67847619D01*
X122509523Y-67942857D01*
X122414285Y-67990476D01*
X122223809Y-68038095D01*
X122080952Y-68038095D01*
X121890476Y-67990476D01*
X121795238Y-67942857D01*
X121700000Y-67847619D01*
X121652380Y-67704761D01*
X121652380Y-67609523D01*
X121700000Y-67466666D01*
X121747619Y-67419047D01*
X122652380Y-66514285D02*
X122652380Y-66990476D01*
X121652380Y-66990476D01*
X110420000Y-54919662D02*
X97680000Y-54919662D01*
X97680000Y-54919662D02*
X97680000Y-52100000D01*
X97680000Y-52100000D02*
X110420000Y-52100000D01*
X110420000Y-52100000D02*
X110420000Y-54919662D01*
G36*
X110420000Y-54919662D02*
G01*
X97680000Y-54919662D01*
X97680000Y-52100000D01*
X110420000Y-52100000D01*
X110420000Y-54919662D01*
G37*
X113950000Y-53575000D02*
X124050000Y-53575000D01*
X124050000Y-53575000D02*
X124050000Y-60425000D01*
X124050000Y-60425000D02*
X113950000Y-60425000D01*
X113950000Y-60425000D02*
X113950000Y-53575000D01*
G36*
X113950000Y-53575000D02*
G01*
X124050000Y-53575000D01*
X124050000Y-60425000D01*
X113950000Y-60425000D01*
X113950000Y-53575000D01*
G37*
X97000000Y-57250000D02*
X97000000Y-69000000D01*
X97000000Y-69000000D02*
X107000000Y-69000000D01*
X97650000Y-42780338D02*
X110350000Y-42780338D01*
X110350000Y-42780338D02*
X110350000Y-45640338D01*
X110350000Y-45640338D02*
X97650000Y-45640338D01*
X97650000Y-45640338D02*
X97650000Y-42780338D01*
G36*
X97650000Y-42780338D02*
G01*
X110350000Y-42780338D01*
X110350000Y-45640338D01*
X97650000Y-45640338D01*
X97650000Y-42780338D01*
G37*
X107230338Y-52080338D02*
X110350000Y-52080338D01*
X110350000Y-52080338D02*
X110350000Y-45640338D01*
X110350000Y-45640338D02*
X107230338Y-45640338D01*
X107230338Y-45640338D02*
X107230338Y-52080338D01*
G36*
X107230338Y-52080338D02*
G01*
X110350000Y-52080338D01*
X110350000Y-45640338D01*
X107230338Y-45640338D01*
X107230338Y-52080338D01*
G37*
X97680338Y-52070000D02*
X100500000Y-52070000D01*
X100500000Y-52070000D02*
X100500000Y-45630000D01*
X100500000Y-45630000D02*
X97680338Y-45630000D01*
X97680338Y-45630000D02*
X97680338Y-52070000D01*
G36*
X97680338Y-52070000D02*
G01*
X100500000Y-52070000D01*
X100500000Y-45630000D01*
X97680338Y-45630000D01*
X97680338Y-52070000D01*
G37*
D11*
X94000000Y-40000000D02*
X126000000Y-40000000D01*
X126000000Y-40000000D02*
X126000000Y-72000000D01*
X126000000Y-72000000D02*
X94000000Y-72000000D01*
X94000000Y-72000000D02*
X94000000Y-40000000D01*
D10*
X63000000Y-57250000D02*
X63000000Y-69000000D01*
X63650000Y-42780338D02*
X76350000Y-42780338D01*
X76350000Y-42780338D02*
X76350000Y-45640338D01*
X76350000Y-45640338D02*
X63650000Y-45640338D01*
X63650000Y-45640338D02*
X63650000Y-42780338D01*
G36*
X63650000Y-42780338D02*
G01*
X76350000Y-42780338D01*
X76350000Y-45640338D01*
X63650000Y-45640338D01*
X63650000Y-42780338D01*
G37*
X63000000Y-69000000D02*
X73000000Y-69000000D01*
X79950000Y-53575000D02*
X90050000Y-53575000D01*
X90050000Y-53575000D02*
X90050000Y-60425000D01*
X90050000Y-60425000D02*
X79950000Y-60425000D01*
X79950000Y-60425000D02*
X79950000Y-53575000D01*
G36*
X79950000Y-53575000D02*
G01*
X90050000Y-53575000D01*
X90050000Y-60425000D01*
X79950000Y-60425000D01*
X79950000Y-53575000D01*
G37*
X76420000Y-54919662D02*
X63680000Y-54919662D01*
X63680000Y-54919662D02*
X63680000Y-52100000D01*
X63680000Y-52100000D02*
X76420000Y-52100000D01*
X76420000Y-52100000D02*
X76420000Y-54919662D01*
G36*
X76420000Y-54919662D02*
G01*
X63680000Y-54919662D01*
X63680000Y-52100000D01*
X76420000Y-52100000D01*
X76420000Y-54919662D01*
G37*
X73230338Y-52080338D02*
X76350000Y-52080338D01*
X76350000Y-52080338D02*
X76350000Y-45640338D01*
X76350000Y-45640338D02*
X73230338Y-45640338D01*
X73230338Y-45640338D02*
X73230338Y-52080338D01*
G36*
X73230338Y-52080338D02*
G01*
X76350000Y-52080338D01*
X76350000Y-45640338D01*
X73230338Y-45640338D01*
X73230338Y-52080338D01*
G37*
X63680338Y-52070000D02*
X66500000Y-52070000D01*
X66500000Y-52070000D02*
X66500000Y-45630000D01*
X66500000Y-45630000D02*
X63680338Y-45630000D01*
X63680338Y-45630000D02*
X63680338Y-52070000D01*
G36*
X63680338Y-52070000D02*
G01*
X66500000Y-52070000D01*
X66500000Y-45630000D01*
X63680338Y-45630000D01*
X63680338Y-52070000D01*
G37*
D11*
X60000000Y-40000000D02*
X92000000Y-40000000D01*
X92000000Y-40000000D02*
X92000000Y-72000000D01*
X92000000Y-72000000D02*
X60000000Y-72000000D01*
X60000000Y-72000000D02*
X60000000Y-40000000D01*
D10*
X63535595Y-58073904D02*
X63535595Y-57273904D01*
X63773690Y-57273904D01*
X63916547Y-57312000D01*
X64011785Y-57388190D01*
X64059404Y-57464380D01*
X64107023Y-57616761D01*
X64107023Y-57731047D01*
X64059404Y-57883428D01*
X64011785Y-57959619D01*
X63916547Y-58035809D01*
X63773690Y-58073904D01*
X63535595Y-58073904D01*
X64535595Y-57654857D02*
X64868928Y-57654857D01*
X65011785Y-58073904D02*
X64535595Y-58073904D01*
X64535595Y-57273904D01*
X65011785Y-57273904D01*
X66011785Y-58073904D02*
X65678452Y-57692952D01*
X65440357Y-58073904D02*
X65440357Y-57273904D01*
X65821309Y-57273904D01*
X65916547Y-57312000D01*
X65964166Y-57350095D01*
X66011785Y-57426285D01*
X66011785Y-57540571D01*
X65964166Y-57616761D01*
X65916547Y-57654857D01*
X65821309Y-57692952D01*
X65440357Y-57692952D01*
X67011785Y-57997714D02*
X66964166Y-58035809D01*
X66821309Y-58073904D01*
X66726071Y-58073904D01*
X66583214Y-58035809D01*
X66487976Y-57959619D01*
X66440357Y-57883428D01*
X66392738Y-57731047D01*
X66392738Y-57616761D01*
X66440357Y-57464380D01*
X66487976Y-57388190D01*
X66583214Y-57312000D01*
X66726071Y-57273904D01*
X66821309Y-57273904D01*
X66964166Y-57312000D01*
X67011785Y-57350095D01*
X64107023Y-59285714D02*
X64059404Y-59323809D01*
X63916547Y-59361904D01*
X63821309Y-59361904D01*
X63678452Y-59323809D01*
X63583214Y-59247619D01*
X63535595Y-59171428D01*
X63487976Y-59019047D01*
X63487976Y-58904761D01*
X63535595Y-58752380D01*
X63583214Y-58676190D01*
X63678452Y-58600000D01*
X63821309Y-58561904D01*
X63916547Y-58561904D01*
X64059404Y-58600000D01*
X64107023Y-58638095D01*
X64964166Y-59361904D02*
X64964166Y-58942857D01*
X64916547Y-58866666D01*
X64821309Y-58828571D01*
X64630833Y-58828571D01*
X64535595Y-58866666D01*
X64964166Y-59323809D02*
X64868928Y-59361904D01*
X64630833Y-59361904D01*
X64535595Y-59323809D01*
X64487976Y-59247619D01*
X64487976Y-59171428D01*
X64535595Y-59095238D01*
X64630833Y-59057142D01*
X64868928Y-59057142D01*
X64964166Y-59019047D01*
X65440357Y-58828571D02*
X65440357Y-59361904D01*
X65440357Y-58904761D02*
X65487976Y-58866666D01*
X65583214Y-58828571D01*
X65726071Y-58828571D01*
X65821309Y-58866666D01*
X65868928Y-58942857D01*
X65868928Y-59361904D01*
X66297500Y-59323809D02*
X66440357Y-59361904D01*
X66678452Y-59361904D01*
X66773690Y-59323809D01*
X66821309Y-59285714D01*
X66868928Y-59209523D01*
X66868928Y-59133333D01*
X66821309Y-59057142D01*
X66773690Y-59019047D01*
X66678452Y-58980952D01*
X66487976Y-58942857D01*
X66392738Y-58904761D01*
X66345119Y-58866666D01*
X66297500Y-58790476D01*
X66297500Y-58714285D01*
X66345119Y-58638095D01*
X66392738Y-58600000D01*
X66487976Y-58561904D01*
X66726071Y-58561904D01*
X66868928Y-58600000D01*
X67726071Y-59361904D02*
X67726071Y-58942857D01*
X67678452Y-58866666D01*
X67583214Y-58828571D01*
X67392738Y-58828571D01*
X67297500Y-58866666D01*
X67726071Y-59323809D02*
X67630833Y-59361904D01*
X67392738Y-59361904D01*
X67297500Y-59323809D01*
X67249880Y-59247619D01*
X67249880Y-59171428D01*
X67297500Y-59095238D01*
X67392738Y-59057142D01*
X67630833Y-59057142D01*
X67726071Y-59019047D01*
X68059404Y-58828571D02*
X68440357Y-58828571D01*
X68202261Y-58561904D02*
X68202261Y-59247619D01*
X68249880Y-59323809D01*
X68345119Y-59361904D01*
X68440357Y-59361904D01*
X63535595Y-60649904D02*
X63535595Y-59849904D01*
X63916547Y-59849904D01*
X64011785Y-59888000D01*
X64059404Y-59926095D01*
X64107023Y-60002285D01*
X64107023Y-60116571D01*
X64059404Y-60192761D01*
X64011785Y-60230857D01*
X63916547Y-60268952D01*
X63535595Y-60268952D01*
X64535595Y-60649904D02*
X64535595Y-60116571D01*
X64535595Y-60268952D02*
X64583214Y-60192761D01*
X64630833Y-60154666D01*
X64726071Y-60116571D01*
X64821309Y-60116571D01*
X65297500Y-60649904D02*
X65202261Y-60611809D01*
X65154642Y-60573714D01*
X65107023Y-60497523D01*
X65107023Y-60268952D01*
X65154642Y-60192761D01*
X65202261Y-60154666D01*
X65297500Y-60116571D01*
X65440357Y-60116571D01*
X65535595Y-60154666D01*
X65583214Y-60192761D01*
X65630833Y-60268952D01*
X65630833Y-60497523D01*
X65583214Y-60573714D01*
X65535595Y-60611809D01*
X65440357Y-60649904D01*
X65297500Y-60649904D01*
X66059404Y-60116571D02*
X66059404Y-60802285D01*
X66011785Y-60878476D01*
X65916547Y-60916571D01*
X65868928Y-60916571D01*
X66059404Y-59849904D02*
X66011785Y-59888000D01*
X66059404Y-59926095D01*
X66107023Y-59888000D01*
X66059404Y-59849904D01*
X66059404Y-59926095D01*
X66916547Y-60611809D02*
X66821309Y-60649904D01*
X66630833Y-60649904D01*
X66535595Y-60611809D01*
X66487976Y-60535619D01*
X66487976Y-60230857D01*
X66535595Y-60154666D01*
X66630833Y-60116571D01*
X66821309Y-60116571D01*
X66916547Y-60154666D01*
X66964166Y-60230857D01*
X66964166Y-60307047D01*
X66487976Y-60383238D01*
X67821309Y-60611809D02*
X67726071Y-60649904D01*
X67535595Y-60649904D01*
X67440357Y-60611809D01*
X67392738Y-60573714D01*
X67345119Y-60497523D01*
X67345119Y-60268952D01*
X67392738Y-60192761D01*
X67440357Y-60154666D01*
X67535595Y-60116571D01*
X67726071Y-60116571D01*
X67821309Y-60154666D01*
X68107023Y-60116571D02*
X68487976Y-60116571D01*
X68249880Y-59849904D02*
X68249880Y-60535619D01*
X68297500Y-60611809D01*
X68392738Y-60649904D01*
X68487976Y-60649904D01*
X88604761Y-68990476D02*
X88652380Y-68847619D01*
X88652380Y-68609523D01*
X88604761Y-68514285D01*
X88557142Y-68466666D01*
X88461904Y-68419047D01*
X88366666Y-68419047D01*
X88271428Y-68466666D01*
X88223809Y-68514285D01*
X88176190Y-68609523D01*
X88128571Y-68800000D01*
X88080952Y-68895238D01*
X88033333Y-68942857D01*
X87938095Y-68990476D01*
X87842857Y-68990476D01*
X87747619Y-68942857D01*
X87700000Y-68895238D01*
X87652380Y-68800000D01*
X87652380Y-68561904D01*
X87700000Y-68419047D01*
X88557142Y-67419047D02*
X88604761Y-67466666D01*
X88652380Y-67609523D01*
X88652380Y-67704761D01*
X88604761Y-67847619D01*
X88509523Y-67942857D01*
X88414285Y-67990476D01*
X88223809Y-68038095D01*
X88080952Y-68038095D01*
X87890476Y-67990476D01*
X87795238Y-67942857D01*
X87700000Y-67847619D01*
X87652380Y-67704761D01*
X87652380Y-67609523D01*
X87700000Y-67466666D01*
X87747619Y-67419047D01*
X88652380Y-66514285D02*
X88652380Y-66990476D01*
X87652380Y-66990476D01*
X90702380Y-65976190D02*
X89702380Y-65976190D01*
X89797619Y-65547619D02*
X89750000Y-65500000D01*
X89702380Y-65404761D01*
X89702380Y-65166666D01*
X89750000Y-65071428D01*
X89797619Y-65023809D01*
X89892857Y-64976190D01*
X89988095Y-64976190D01*
X90130952Y-65023809D01*
X90702380Y-65595238D01*
X90702380Y-64976190D01*
X90607142Y-63976190D02*
X90654761Y-64023809D01*
X90702380Y-64166666D01*
X90702380Y-64261904D01*
X90654761Y-64404761D01*
X90559523Y-64500000D01*
X90464285Y-64547619D01*
X90273809Y-64595238D01*
X90130952Y-64595238D01*
X89940476Y-64547619D01*
X89845238Y-64500000D01*
X89750000Y-64404761D01*
X89702380Y-64261904D01*
X89702380Y-64166666D01*
X89750000Y-64023809D01*
X89797619Y-63976190D01*
X86604761Y-69014285D02*
X86652380Y-68871428D01*
X86652380Y-68633333D01*
X86604761Y-68538095D01*
X86557142Y-68490476D01*
X86461904Y-68442857D01*
X86366666Y-68442857D01*
X86271428Y-68490476D01*
X86223809Y-68538095D01*
X86176190Y-68633333D01*
X86128571Y-68823809D01*
X86080952Y-68919047D01*
X86033333Y-68966666D01*
X85938095Y-69014285D01*
X85842857Y-69014285D01*
X85747619Y-68966666D01*
X85700000Y-68919047D01*
X85652380Y-68823809D01*
X85652380Y-68585714D01*
X85700000Y-68442857D01*
X86652380Y-68014285D02*
X85652380Y-68014285D01*
X85652380Y-67776190D01*
X85700000Y-67633333D01*
X85795238Y-67538095D01*
X85890476Y-67490476D01*
X86080952Y-67442857D01*
X86223809Y-67442857D01*
X86414285Y-67490476D01*
X86509523Y-67538095D01*
X86604761Y-67633333D01*
X86652380Y-67776190D01*
X86652380Y-68014285D01*
X86366666Y-67061904D02*
X86366666Y-66585714D01*
X86652380Y-67157142D02*
X85652380Y-66823809D01*
X86652380Y-66490476D01*
X86654761Y-42702380D02*
X86654761Y-43511904D01*
X86702380Y-43607142D01*
X86750000Y-43654761D01*
X86845238Y-43702380D01*
X87035714Y-43702380D01*
X87130952Y-43654761D01*
X87178571Y-43607142D01*
X87226190Y-43511904D01*
X87226190Y-42702380D01*
X87654761Y-43416666D02*
X88130952Y-43416666D01*
X87559523Y-43702380D02*
X87892857Y-42702380D01*
X88226190Y-43702380D01*
X89130952Y-43702380D02*
X88797619Y-43226190D01*
X88559523Y-43702380D02*
X88559523Y-42702380D01*
X88940476Y-42702380D01*
X89035714Y-42750000D01*
X89083333Y-42797619D01*
X89130952Y-42892857D01*
X89130952Y-43035714D01*
X89083333Y-43130952D01*
X89035714Y-43178571D01*
X88940476Y-43226190D01*
X88559523Y-43226190D01*
X89416666Y-42702380D02*
X89988095Y-42702380D01*
X89702380Y-43702380D02*
X89702380Y-42702380D01*
X63735595Y-65873904D02*
X63735595Y-65073904D01*
X63973690Y-65073904D01*
X64116547Y-65112000D01*
X64211785Y-65188190D01*
X64259404Y-65264380D01*
X64307023Y-65416761D01*
X64307023Y-65531047D01*
X64259404Y-65683428D01*
X64211785Y-65759619D01*
X64116547Y-65835809D01*
X63973690Y-65873904D01*
X63735595Y-65873904D01*
X65116547Y-65835809D02*
X65021309Y-65873904D01*
X64830833Y-65873904D01*
X64735595Y-65835809D01*
X64687976Y-65759619D01*
X64687976Y-65454857D01*
X64735595Y-65378666D01*
X64830833Y-65340571D01*
X65021309Y-65340571D01*
X65116547Y-65378666D01*
X65164166Y-65454857D01*
X65164166Y-65531047D01*
X64687976Y-65607238D01*
X65545119Y-65835809D02*
X65640357Y-65873904D01*
X65830833Y-65873904D01*
X65926071Y-65835809D01*
X65973690Y-65759619D01*
X65973690Y-65721523D01*
X65926071Y-65645333D01*
X65830833Y-65607238D01*
X65687976Y-65607238D01*
X65592738Y-65569142D01*
X65545119Y-65492952D01*
X65545119Y-65454857D01*
X65592738Y-65378666D01*
X65687976Y-65340571D01*
X65830833Y-65340571D01*
X65926071Y-65378666D01*
X66402261Y-65873904D02*
X66402261Y-65340571D01*
X66402261Y-65073904D02*
X66354642Y-65112000D01*
X66402261Y-65150095D01*
X66449880Y-65112000D01*
X66402261Y-65073904D01*
X66402261Y-65150095D01*
X67307023Y-65340571D02*
X67307023Y-65988190D01*
X67259404Y-66064380D01*
X67211785Y-66102476D01*
X67116547Y-66140571D01*
X66973690Y-66140571D01*
X66878452Y-66102476D01*
X67307023Y-65835809D02*
X67211785Y-65873904D01*
X67021309Y-65873904D01*
X66926071Y-65835809D01*
X66878452Y-65797714D01*
X66830833Y-65721523D01*
X66830833Y-65492952D01*
X66878452Y-65416761D01*
X66926071Y-65378666D01*
X67021309Y-65340571D01*
X67211785Y-65340571D01*
X67307023Y-65378666D01*
X67783214Y-65340571D02*
X67783214Y-65873904D01*
X67783214Y-65416761D02*
X67830833Y-65378666D01*
X67926071Y-65340571D01*
X68068928Y-65340571D01*
X68164166Y-65378666D01*
X68211785Y-65454857D01*
X68211785Y-65873904D01*
X68687976Y-65797714D02*
X68735595Y-65835809D01*
X68687976Y-65873904D01*
X68640357Y-65835809D01*
X68687976Y-65797714D01*
X68687976Y-65873904D01*
X68687976Y-65378666D02*
X68735595Y-65416761D01*
X68687976Y-65454857D01*
X68640357Y-65416761D01*
X68687976Y-65378666D01*
X68687976Y-65454857D01*
X63687976Y-66933333D02*
X64164166Y-66933333D01*
X63592738Y-67161904D02*
X63926071Y-66361904D01*
X64259404Y-67161904D01*
X64592738Y-67161904D02*
X64592738Y-66361904D01*
X64687976Y-66857142D02*
X64973690Y-67161904D01*
X64973690Y-66628571D02*
X64592738Y-66933333D01*
X65402261Y-67161904D02*
X65402261Y-66628571D01*
X65402261Y-66361904D02*
X65354642Y-66400000D01*
X65402261Y-66438095D01*
X65449880Y-66400000D01*
X65402261Y-66361904D01*
X65402261Y-66438095D01*
X66021309Y-67161904D02*
X65926071Y-67123809D01*
X65878452Y-67085714D01*
X65830833Y-67009523D01*
X65830833Y-66780952D01*
X65878452Y-66704761D01*
X65926071Y-66666666D01*
X66021309Y-66628571D01*
X66164166Y-66628571D01*
X66259404Y-66666666D01*
X66307023Y-66704761D01*
X66354642Y-66780952D01*
X66354642Y-67009523D01*
X66307023Y-67085714D01*
X66259404Y-67123809D01*
X66164166Y-67161904D01*
X66021309Y-67161904D01*
X67545119Y-67161904D02*
X67545119Y-66361904D01*
X67878452Y-66933333D01*
X68211785Y-66361904D01*
X68211785Y-67161904D01*
X63687976Y-67726095D02*
X63735595Y-67688000D01*
X63830833Y-67649904D01*
X64068928Y-67649904D01*
X64164166Y-67688000D01*
X64211785Y-67726095D01*
X64259404Y-67802285D01*
X64259404Y-67878476D01*
X64211785Y-67992761D01*
X63640357Y-68449904D01*
X64259404Y-68449904D01*
X64878452Y-67649904D02*
X64973690Y-67649904D01*
X65068928Y-67688000D01*
X65116547Y-67726095D01*
X65164166Y-67802285D01*
X65211785Y-67954666D01*
X65211785Y-68145142D01*
X65164166Y-68297523D01*
X65116547Y-68373714D01*
X65068928Y-68411809D01*
X64973690Y-68449904D01*
X64878452Y-68449904D01*
X64783214Y-68411809D01*
X64735595Y-68373714D01*
X64687976Y-68297523D01*
X64640357Y-68145142D01*
X64640357Y-67954666D01*
X64687976Y-67802285D01*
X64735595Y-67726095D01*
X64783214Y-67688000D01*
X64878452Y-67649904D01*
X65592738Y-67726095D02*
X65640357Y-67688000D01*
X65735595Y-67649904D01*
X65973690Y-67649904D01*
X66068928Y-67688000D01*
X66116547Y-67726095D01*
X66164166Y-67802285D01*
X66164166Y-67878476D01*
X66116547Y-67992761D01*
X65545119Y-68449904D01*
X66164166Y-68449904D01*
X66545119Y-67726095D02*
X66592738Y-67688000D01*
X66687976Y-67649904D01*
X66926071Y-67649904D01*
X67021309Y-67688000D01*
X67068928Y-67726095D01*
X67116547Y-67802285D01*
X67116547Y-67878476D01*
X67068928Y-67992761D01*
X66497500Y-68449904D01*
X67116547Y-68449904D01*
X67545119Y-68373714D02*
X67592738Y-68411809D01*
X67545119Y-68449904D01*
X67497500Y-68411809D01*
X67545119Y-68373714D01*
X67545119Y-68449904D01*
X68545119Y-68449904D02*
X67973690Y-68449904D01*
X68259404Y-68449904D02*
X68259404Y-67649904D01*
X68164166Y-67764190D01*
X68068928Y-67840380D01*
X67973690Y-67878476D01*
X68926071Y-67726095D02*
X68973690Y-67688000D01*
X69068928Y-67649904D01*
X69307023Y-67649904D01*
X69402261Y-67688000D01*
X69449880Y-67726095D01*
X69497500Y-67802285D01*
X69497500Y-67878476D01*
X69449880Y-67992761D01*
X68878452Y-68449904D01*
X69497500Y-68449904D01*
X87652380Y-46766666D02*
X87176190Y-47100000D01*
X87652380Y-47338095D02*
X86652380Y-47338095D01*
X86652380Y-46957142D01*
X86700000Y-46861904D01*
X86747619Y-46814285D01*
X86842857Y-46766666D01*
X86985714Y-46766666D01*
X87080952Y-46814285D01*
X87128571Y-46861904D01*
X87176190Y-46957142D01*
X87176190Y-47338095D01*
X86652380Y-46433333D02*
X87652380Y-45766666D01*
X86652380Y-45766666D02*
X87652380Y-46433333D01*
X87071428Y-44419047D02*
X87071428Y-45180952D01*
X87261904Y-44990476D02*
X87071428Y-45180952D01*
X86880952Y-44990476D01*
X88652380Y-47361904D02*
X88652380Y-46790476D01*
X89652380Y-47076190D02*
X88652380Y-47076190D01*
X88652380Y-46552380D02*
X89652380Y-45885714D01*
X88652380Y-45885714D02*
X89652380Y-46552380D01*
X82652380Y-47438095D02*
X82652380Y-46819047D01*
X83033333Y-47152380D01*
X83033333Y-47009523D01*
X83080952Y-46914285D01*
X83128571Y-46866666D01*
X83223809Y-46819047D01*
X83461904Y-46819047D01*
X83557142Y-46866666D01*
X83604761Y-46914285D01*
X83652380Y-47009523D01*
X83652380Y-47295238D01*
X83604761Y-47390476D01*
X83557142Y-47438095D01*
X82652380Y-46533333D02*
X83652380Y-46200000D01*
X82652380Y-45866666D01*
X82652380Y-45628571D02*
X82652380Y-45009523D01*
X83033333Y-45342857D01*
X83033333Y-45200000D01*
X83080952Y-45104761D01*
X83128571Y-45057142D01*
X83223809Y-45009523D01*
X83461904Y-45009523D01*
X83557142Y-45057142D01*
X83604761Y-45104761D01*
X83652380Y-45200000D01*
X83652380Y-45485714D01*
X83604761Y-45580952D01*
X83557142Y-45628571D01*
X89128571Y-45180952D02*
X89128571Y-44419047D01*
X88938095Y-44609523D02*
X89128571Y-44419047D01*
X89319047Y-44609523D01*
X64259404Y-61956000D02*
X64164166Y-61917904D01*
X64021309Y-61917904D01*
X63878452Y-61956000D01*
X63783214Y-62032190D01*
X63735595Y-62108380D01*
X63687976Y-62260761D01*
X63687976Y-62375047D01*
X63735595Y-62527428D01*
X63783214Y-62603619D01*
X63878452Y-62679809D01*
X64021309Y-62717904D01*
X64116547Y-62717904D01*
X64259404Y-62679809D01*
X64307023Y-62641714D01*
X64307023Y-62375047D01*
X64116547Y-62375047D01*
X64735595Y-62717904D02*
X64735595Y-61917904D01*
X65307023Y-62717904D01*
X65307023Y-61917904D01*
X65735595Y-62679809D02*
X65878452Y-62717904D01*
X66116547Y-62717904D01*
X66211785Y-62679809D01*
X66259404Y-62641714D01*
X66307023Y-62565523D01*
X66307023Y-62489333D01*
X66259404Y-62413142D01*
X66211785Y-62375047D01*
X66116547Y-62336952D01*
X65926071Y-62298857D01*
X65830833Y-62260761D01*
X65783214Y-62222666D01*
X65735595Y-62146476D01*
X65735595Y-62070285D01*
X65783214Y-61994095D01*
X65830833Y-61956000D01*
X65926071Y-61917904D01*
X66164166Y-61917904D01*
X66307023Y-61956000D01*
X66687976Y-62679809D02*
X66830833Y-62717904D01*
X67068928Y-62717904D01*
X67164166Y-62679809D01*
X67211785Y-62641714D01*
X67259404Y-62565523D01*
X67259404Y-62489333D01*
X67211785Y-62413142D01*
X67164166Y-62375047D01*
X67068928Y-62336952D01*
X66878452Y-62298857D01*
X66783214Y-62260761D01*
X66735595Y-62222666D01*
X66687976Y-62146476D01*
X66687976Y-62070285D01*
X66735595Y-61994095D01*
X66783214Y-61956000D01*
X66878452Y-61917904D01*
X67116547Y-61917904D01*
X67259404Y-61956000D01*
X68783214Y-62298857D02*
X68926071Y-62336952D01*
X68973690Y-62375047D01*
X69021309Y-62451238D01*
X69021309Y-62565523D01*
X68973690Y-62641714D01*
X68926071Y-62679809D01*
X68830833Y-62717904D01*
X68449880Y-62717904D01*
X68449880Y-61917904D01*
X68783214Y-61917904D01*
X68878452Y-61956000D01*
X68926071Y-61994095D01*
X68973690Y-62070285D01*
X68973690Y-62146476D01*
X68926071Y-62222666D01*
X68878452Y-62260761D01*
X68783214Y-62298857D01*
X68449880Y-62298857D01*
X69592738Y-62717904D02*
X69497500Y-62679809D01*
X69449880Y-62641714D01*
X69402261Y-62565523D01*
X69402261Y-62336952D01*
X69449880Y-62260761D01*
X69497500Y-62222666D01*
X69592738Y-62184571D01*
X69735595Y-62184571D01*
X69830833Y-62222666D01*
X69878452Y-62260761D01*
X69926071Y-62336952D01*
X69926071Y-62565523D01*
X69878452Y-62641714D01*
X69830833Y-62679809D01*
X69735595Y-62717904D01*
X69592738Y-62717904D01*
X70783214Y-62717904D02*
X70783214Y-62298857D01*
X70735595Y-62222666D01*
X70640357Y-62184571D01*
X70449880Y-62184571D01*
X70354642Y-62222666D01*
X70783214Y-62679809D02*
X70687976Y-62717904D01*
X70449880Y-62717904D01*
X70354642Y-62679809D01*
X70307023Y-62603619D01*
X70307023Y-62527428D01*
X70354642Y-62451238D01*
X70449880Y-62413142D01*
X70687976Y-62413142D01*
X70783214Y-62375047D01*
X71259404Y-62717904D02*
X71259404Y-62184571D01*
X71259404Y-62336952D02*
X71307023Y-62260761D01*
X71354642Y-62222666D01*
X71449880Y-62184571D01*
X71545119Y-62184571D01*
X72307023Y-62717904D02*
X72307023Y-61917904D01*
X72307023Y-62679809D02*
X72211785Y-62717904D01*
X72021309Y-62717904D01*
X71926071Y-62679809D01*
X71878452Y-62641714D01*
X71830833Y-62565523D01*
X71830833Y-62336952D01*
X71878452Y-62260761D01*
X71926071Y-62222666D01*
X72021309Y-62184571D01*
X72211785Y-62184571D01*
X72307023Y-62222666D01*
X63735595Y-63701142D02*
X64497500Y-63701142D01*
X64973690Y-64005904D02*
X64973690Y-63472571D01*
X64973690Y-63624952D02*
X65021309Y-63548761D01*
X65068928Y-63510666D01*
X65164166Y-63472571D01*
X65259404Y-63472571D01*
X65973690Y-63967809D02*
X65878452Y-64005904D01*
X65687976Y-64005904D01*
X65592738Y-63967809D01*
X65545119Y-63891619D01*
X65545119Y-63586857D01*
X65592738Y-63510666D01*
X65687976Y-63472571D01*
X65878452Y-63472571D01*
X65973690Y-63510666D01*
X66021309Y-63586857D01*
X66021309Y-63663047D01*
X65545119Y-63739238D01*
X66354642Y-63472571D02*
X66592738Y-64005904D01*
X66830833Y-63472571D01*
X67211785Y-63929714D02*
X67259404Y-63967809D01*
X67211785Y-64005904D01*
X67164166Y-63967809D01*
X67211785Y-63929714D01*
X67211785Y-64005904D01*
X67640357Y-63282095D02*
X67687976Y-63244000D01*
X67783214Y-63205904D01*
X68021309Y-63205904D01*
X68116547Y-63244000D01*
X68164166Y-63282095D01*
X68211785Y-63358285D01*
X68211785Y-63434476D01*
X68164166Y-63548761D01*
X67592738Y-64005904D01*
X68211785Y-64005904D01*
X85652380Y-46790476D02*
X85652380Y-47361904D01*
X85652380Y-47076190D02*
X84652380Y-47076190D01*
X84795238Y-47171428D01*
X84890476Y-47266666D01*
X84938095Y-47361904D01*
X85652380Y-46361904D02*
X84652380Y-46361904D01*
X84652380Y-45980952D01*
X84700000Y-45885714D01*
X84747619Y-45838095D01*
X84842857Y-45790476D01*
X84985714Y-45790476D01*
X85080952Y-45838095D01*
X85128571Y-45885714D01*
X85176190Y-45980952D01*
X85176190Y-46361904D01*
X85652380Y-45361904D02*
X84652380Y-45361904D01*
X84652380Y-44980952D01*
X84700000Y-44885714D01*
X84747619Y-44838095D01*
X84842857Y-44790476D01*
X84985714Y-44790476D01*
X85080952Y-44838095D01*
X85128571Y-44885714D01*
X85176190Y-44980952D01*
X85176190Y-45361904D01*
X85604761Y-44409523D02*
X85652380Y-44266666D01*
X85652380Y-44028571D01*
X85604761Y-43933333D01*
X85557142Y-43885714D01*
X85461904Y-43838095D01*
X85366666Y-43838095D01*
X85271428Y-43885714D01*
X85223809Y-43933333D01*
X85176190Y-44028571D01*
X85128571Y-44219047D01*
X85080952Y-44314285D01*
X85033333Y-44361904D01*
X84938095Y-44409523D01*
X84842857Y-44409523D01*
X84747619Y-44361904D01*
X84700000Y-44314285D01*
X84652380Y-44219047D01*
X84652380Y-43980952D01*
X84700000Y-43838095D01*
X80700000Y-46961904D02*
X80652380Y-47057142D01*
X80652380Y-47200000D01*
X80700000Y-47342857D01*
X80795238Y-47438095D01*
X80890476Y-47485714D01*
X81080952Y-47533333D01*
X81223809Y-47533333D01*
X81414285Y-47485714D01*
X81509523Y-47438095D01*
X81604761Y-47342857D01*
X81652380Y-47200000D01*
X81652380Y-47104761D01*
X81604761Y-46961904D01*
X81557142Y-46914285D01*
X81223809Y-46914285D01*
X81223809Y-47104761D01*
X81652380Y-46485714D02*
X80652380Y-46485714D01*
X81652380Y-45914285D01*
X80652380Y-45914285D01*
X81652380Y-45438095D02*
X80652380Y-45438095D01*
X80652380Y-45200000D01*
X80700000Y-45057142D01*
X80795238Y-44961904D01*
X80890476Y-44914285D01*
X81080952Y-44866666D01*
X81223809Y-44866666D01*
X81414285Y-44914285D01*
X81509523Y-44961904D01*
X81604761Y-45057142D01*
X81652380Y-45200000D01*
X81652380Y-45438095D01*
%TO.C,*%
%TO.C,U5*%
X95488095Y-79202380D02*
X95488095Y-80011904D01*
X95535714Y-80107142D01*
X95583333Y-80154761D01*
X95678571Y-80202380D01*
X95869047Y-80202380D01*
X95964285Y-80154761D01*
X96011904Y-80107142D01*
X96059523Y-80011904D01*
X96059523Y-79202380D01*
X97011904Y-79202380D02*
X96535714Y-79202380D01*
X96488095Y-79678571D01*
X96535714Y-79630952D01*
X96630952Y-79583333D01*
X96869047Y-79583333D01*
X96964285Y-79630952D01*
X97011904Y-79678571D01*
X97059523Y-79773809D01*
X97059523Y-80011904D01*
X97011904Y-80107142D01*
X96964285Y-80154761D01*
X96869047Y-80202380D01*
X96630952Y-80202380D01*
X96535714Y-80154761D01*
X96488095Y-80107142D01*
%TO.C,C23*%
X114825714Y-98214285D02*
X114863809Y-98252380D01*
X114901904Y-98366666D01*
X114901904Y-98442857D01*
X114863809Y-98557142D01*
X114787619Y-98633333D01*
X114711428Y-98671428D01*
X114559047Y-98709523D01*
X114444761Y-98709523D01*
X114292380Y-98671428D01*
X114216190Y-98633333D01*
X114140000Y-98557142D01*
X114101904Y-98442857D01*
X114101904Y-98366666D01*
X114140000Y-98252380D01*
X114178095Y-98214285D01*
X114178095Y-97909523D02*
X114140000Y-97871428D01*
X114101904Y-97795238D01*
X114101904Y-97604761D01*
X114140000Y-97528571D01*
X114178095Y-97490476D01*
X114254285Y-97452380D01*
X114330476Y-97452380D01*
X114444761Y-97490476D01*
X114901904Y-97947619D01*
X114901904Y-97452380D01*
X114101904Y-97185714D02*
X114101904Y-96690476D01*
X114406666Y-96957142D01*
X114406666Y-96842857D01*
X114444761Y-96766666D01*
X114482857Y-96728571D01*
X114559047Y-96690476D01*
X114749523Y-96690476D01*
X114825714Y-96728571D01*
X114863809Y-96766666D01*
X114901904Y-96842857D01*
X114901904Y-97071428D01*
X114863809Y-97147619D01*
X114825714Y-97185714D01*
%TO.C,C24*%
X114185714Y-102885714D02*
X114147619Y-102923809D01*
X114033333Y-102961904D01*
X113957142Y-102961904D01*
X113842857Y-102923809D01*
X113766666Y-102847619D01*
X113728571Y-102771428D01*
X113690476Y-102619047D01*
X113690476Y-102504761D01*
X113728571Y-102352380D01*
X113766666Y-102276190D01*
X113842857Y-102200000D01*
X113957142Y-102161904D01*
X114033333Y-102161904D01*
X114147619Y-102200000D01*
X114185714Y-102238095D01*
X114490476Y-102238095D02*
X114528571Y-102200000D01*
X114604761Y-102161904D01*
X114795238Y-102161904D01*
X114871428Y-102200000D01*
X114909523Y-102238095D01*
X114947619Y-102314285D01*
X114947619Y-102390476D01*
X114909523Y-102504761D01*
X114452380Y-102961904D01*
X114947619Y-102961904D01*
X115633333Y-102428571D02*
X115633333Y-102961904D01*
X115442857Y-102123809D02*
X115252380Y-102695238D01*
X115747619Y-102695238D01*
D12*
%TO.C,IC15*%
X110038095Y-105361904D02*
X110038095Y-104561904D01*
X110876190Y-105285714D02*
X110838095Y-105323809D01*
X110723809Y-105361904D01*
X110647619Y-105361904D01*
X110533333Y-105323809D01*
X110457142Y-105247619D01*
X110419047Y-105171428D01*
X110380952Y-105019047D01*
X110380952Y-104904761D01*
X110419047Y-104752380D01*
X110457142Y-104676190D01*
X110533333Y-104600000D01*
X110647619Y-104561904D01*
X110723809Y-104561904D01*
X110838095Y-104600000D01*
X110876190Y-104638095D01*
X111638095Y-105361904D02*
X111180952Y-105361904D01*
X111409523Y-105361904D02*
X111409523Y-104561904D01*
X111333333Y-104676190D01*
X111257142Y-104752380D01*
X111180952Y-104790476D01*
X112361904Y-104561904D02*
X111980952Y-104561904D01*
X111942857Y-104942857D01*
X111980952Y-104904761D01*
X112057142Y-104866666D01*
X112247619Y-104866666D01*
X112323809Y-104904761D01*
X112361904Y-104942857D01*
X112400000Y-105019047D01*
X112400000Y-105209523D01*
X112361904Y-105285714D01*
X112323809Y-105323809D01*
X112247619Y-105361904D01*
X112057142Y-105361904D01*
X111980952Y-105323809D01*
X111942857Y-105285714D01*
D10*
%TO.C,C21*%
X107485714Y-95085714D02*
X107447619Y-95123809D01*
X107333333Y-95161904D01*
X107257142Y-95161904D01*
X107142857Y-95123809D01*
X107066666Y-95047619D01*
X107028571Y-94971428D01*
X106990476Y-94819047D01*
X106990476Y-94704761D01*
X107028571Y-94552380D01*
X107066666Y-94476190D01*
X107142857Y-94400000D01*
X107257142Y-94361904D01*
X107333333Y-94361904D01*
X107447619Y-94400000D01*
X107485714Y-94438095D01*
X107790476Y-94438095D02*
X107828571Y-94400000D01*
X107904761Y-94361904D01*
X108095238Y-94361904D01*
X108171428Y-94400000D01*
X108209523Y-94438095D01*
X108247619Y-94514285D01*
X108247619Y-94590476D01*
X108209523Y-94704761D01*
X107752380Y-95161904D01*
X108247619Y-95161904D01*
X109009523Y-95161904D02*
X108552380Y-95161904D01*
X108780952Y-95161904D02*
X108780952Y-94361904D01*
X108704761Y-94476190D01*
X108628571Y-94552380D01*
X108552380Y-94590476D01*
%TO.C,L10*%
X118085714Y-105161904D02*
X117704761Y-105161904D01*
X117704761Y-104361904D01*
X118771428Y-105161904D02*
X118314285Y-105161904D01*
X118542857Y-105161904D02*
X118542857Y-104361904D01*
X118466666Y-104476190D01*
X118390476Y-104552380D01*
X118314285Y-104590476D01*
X119266666Y-104361904D02*
X119342857Y-104361904D01*
X119419047Y-104400000D01*
X119457142Y-104438095D01*
X119495238Y-104514285D01*
X119533333Y-104666666D01*
X119533333Y-104857142D01*
X119495238Y-105009523D01*
X119457142Y-105085714D01*
X119419047Y-105123809D01*
X119342857Y-105161904D01*
X119266666Y-105161904D01*
X119190476Y-105123809D01*
X119152380Y-105085714D01*
X119114285Y-105009523D01*
X119076190Y-104857142D01*
X119076190Y-104666666D01*
X119114285Y-104514285D01*
X119152380Y-104438095D01*
X119190476Y-104400000D01*
X119266666Y-104361904D01*
%TO.C,C22*%
X111485714Y-96714285D02*
X111523809Y-96752380D01*
X111561904Y-96866666D01*
X111561904Y-96942857D01*
X111523809Y-97057142D01*
X111447619Y-97133333D01*
X111371428Y-97171428D01*
X111219047Y-97209523D01*
X111104761Y-97209523D01*
X110952380Y-97171428D01*
X110876190Y-97133333D01*
X110800000Y-97057142D01*
X110761904Y-96942857D01*
X110761904Y-96866666D01*
X110800000Y-96752380D01*
X110838095Y-96714285D01*
X110838095Y-96409523D02*
X110800000Y-96371428D01*
X110761904Y-96295238D01*
X110761904Y-96104761D01*
X110800000Y-96028571D01*
X110838095Y-95990476D01*
X110914285Y-95952380D01*
X110990476Y-95952380D01*
X111104761Y-95990476D01*
X111561904Y-96447619D01*
X111561904Y-95952380D01*
X110838095Y-95647619D02*
X110800000Y-95609523D01*
X110761904Y-95533333D01*
X110761904Y-95342857D01*
X110800000Y-95266666D01*
X110838095Y-95228571D01*
X110914285Y-95190476D01*
X110990476Y-95190476D01*
X111104761Y-95228571D01*
X111561904Y-95685714D01*
X111561904Y-95190476D01*
%TO.C,C25*%
X112585714Y-99225714D02*
X112547619Y-99263809D01*
X112433333Y-99301904D01*
X112357142Y-99301904D01*
X112242857Y-99263809D01*
X112166666Y-99187619D01*
X112128571Y-99111428D01*
X112090476Y-98959047D01*
X112090476Y-98844761D01*
X112128571Y-98692380D01*
X112166666Y-98616190D01*
X112242857Y-98540000D01*
X112357142Y-98501904D01*
X112433333Y-98501904D01*
X112547619Y-98540000D01*
X112585714Y-98578095D01*
X112890476Y-98578095D02*
X112928571Y-98540000D01*
X113004761Y-98501904D01*
X113195238Y-98501904D01*
X113271428Y-98540000D01*
X113309523Y-98578095D01*
X113347619Y-98654285D01*
X113347619Y-98730476D01*
X113309523Y-98844761D01*
X112852380Y-99301904D01*
X113347619Y-99301904D01*
X114071428Y-98501904D02*
X113690476Y-98501904D01*
X113652380Y-98882857D01*
X113690476Y-98844761D01*
X113766666Y-98806666D01*
X113957142Y-98806666D01*
X114033333Y-98844761D01*
X114071428Y-98882857D01*
X114109523Y-98959047D01*
X114109523Y-99149523D01*
X114071428Y-99225714D01*
X114033333Y-99263809D01*
X113957142Y-99301904D01*
X113766666Y-99301904D01*
X113690476Y-99263809D01*
X113652380Y-99225714D01*
D13*
%TO.C,IC13*%
X119574523Y-92844523D02*
X118304523Y-92844523D01*
X119453571Y-91514047D02*
X119514047Y-91574523D01*
X119574523Y-91755952D01*
X119574523Y-91876904D01*
X119514047Y-92058333D01*
X119393095Y-92179285D01*
X119272142Y-92239761D01*
X119030238Y-92300238D01*
X118848809Y-92300238D01*
X118606904Y-92239761D01*
X118485952Y-92179285D01*
X118365000Y-92058333D01*
X118304523Y-91876904D01*
X118304523Y-91755952D01*
X118365000Y-91574523D01*
X118425476Y-91514047D01*
X119574523Y-90304523D02*
X119574523Y-91030238D01*
X119574523Y-90667380D02*
X118304523Y-90667380D01*
X118485952Y-90788333D01*
X118606904Y-90909285D01*
X118667380Y-91030238D01*
X118304523Y-89881190D02*
X118304523Y-89095000D01*
X118788333Y-89518333D01*
X118788333Y-89336904D01*
X118848809Y-89215952D01*
X118909285Y-89155476D01*
X119030238Y-89095000D01*
X119332619Y-89095000D01*
X119453571Y-89155476D01*
X119514047Y-89215952D01*
X119574523Y-89336904D01*
X119574523Y-89699761D01*
X119514047Y-89820714D01*
X119453571Y-89881190D01*
D14*
%TO.C,FL5*%
X116964285Y-98569047D02*
X116964285Y-98735714D01*
X117226190Y-98735714D02*
X116726190Y-98735714D01*
X116726190Y-98497619D01*
X117226190Y-98069047D02*
X117226190Y-98307142D01*
X116726190Y-98307142D01*
X116726190Y-97664285D02*
X116726190Y-97902380D01*
X116964285Y-97926190D01*
X116940476Y-97902380D01*
X116916666Y-97854761D01*
X116916666Y-97735714D01*
X116940476Y-97688095D01*
X116964285Y-97664285D01*
X117011904Y-97640476D01*
X117130952Y-97640476D01*
X117178571Y-97664285D01*
X117202380Y-97688095D01*
X117226190Y-97735714D01*
X117226190Y-97854761D01*
X117202380Y-97902380D01*
X117178571Y-97926190D01*
D10*
%TO.C,L9*%
X111761904Y-99133333D02*
X111761904Y-99514285D01*
X110961904Y-99514285D01*
X111761904Y-98828571D02*
X111761904Y-98676190D01*
X111723809Y-98600000D01*
X111685714Y-98561904D01*
X111571428Y-98485714D01*
X111419047Y-98447619D01*
X111114285Y-98447619D01*
X111038095Y-98485714D01*
X111000000Y-98523809D01*
X110961904Y-98600000D01*
X110961904Y-98752380D01*
X111000000Y-98828571D01*
X111038095Y-98866666D01*
X111114285Y-98904761D01*
X111304761Y-98904761D01*
X111380952Y-98866666D01*
X111419047Y-98828571D01*
X111457142Y-98752380D01*
X111457142Y-98600000D01*
X111419047Y-98523809D01*
X111380952Y-98485714D01*
X111304761Y-98447619D01*
%TO.C,U4*%
X61488095Y-79202380D02*
X61488095Y-80011904D01*
X61535714Y-80107142D01*
X61583333Y-80154761D01*
X61678571Y-80202380D01*
X61869047Y-80202380D01*
X61964285Y-80154761D01*
X62011904Y-80107142D01*
X62059523Y-80011904D01*
X62059523Y-79202380D01*
X62964285Y-79535714D02*
X62964285Y-80202380D01*
X62726190Y-79154761D02*
X62488095Y-79869047D01*
X63107142Y-79869047D01*
%TO.C,C18*%
X80825714Y-98214285D02*
X80863809Y-98252380D01*
X80901904Y-98366666D01*
X80901904Y-98442857D01*
X80863809Y-98557142D01*
X80787619Y-98633333D01*
X80711428Y-98671428D01*
X80559047Y-98709523D01*
X80444761Y-98709523D01*
X80292380Y-98671428D01*
X80216190Y-98633333D01*
X80140000Y-98557142D01*
X80101904Y-98442857D01*
X80101904Y-98366666D01*
X80140000Y-98252380D01*
X80178095Y-98214285D01*
X80901904Y-97452380D02*
X80901904Y-97909523D01*
X80901904Y-97680952D02*
X80101904Y-97680952D01*
X80216190Y-97757142D01*
X80292380Y-97833333D01*
X80330476Y-97909523D01*
X80444761Y-96995238D02*
X80406666Y-97071428D01*
X80368571Y-97109523D01*
X80292380Y-97147619D01*
X80254285Y-97147619D01*
X80178095Y-97109523D01*
X80140000Y-97071428D01*
X80101904Y-96995238D01*
X80101904Y-96842857D01*
X80140000Y-96766666D01*
X80178095Y-96728571D01*
X80254285Y-96690476D01*
X80292380Y-96690476D01*
X80368571Y-96728571D01*
X80406666Y-96766666D01*
X80444761Y-96842857D01*
X80444761Y-96995238D01*
X80482857Y-97071428D01*
X80520952Y-97109523D01*
X80597142Y-97147619D01*
X80749523Y-97147619D01*
X80825714Y-97109523D01*
X80863809Y-97071428D01*
X80901904Y-96995238D01*
X80901904Y-96842857D01*
X80863809Y-96766666D01*
X80825714Y-96728571D01*
X80749523Y-96690476D01*
X80597142Y-96690476D01*
X80520952Y-96728571D01*
X80482857Y-96766666D01*
X80444761Y-96842857D01*
%TO.C,C19*%
X80185714Y-102885714D02*
X80147619Y-102923809D01*
X80033333Y-102961904D01*
X79957142Y-102961904D01*
X79842857Y-102923809D01*
X79766666Y-102847619D01*
X79728571Y-102771428D01*
X79690476Y-102619047D01*
X79690476Y-102504761D01*
X79728571Y-102352380D01*
X79766666Y-102276190D01*
X79842857Y-102200000D01*
X79957142Y-102161904D01*
X80033333Y-102161904D01*
X80147619Y-102200000D01*
X80185714Y-102238095D01*
X80947619Y-102961904D02*
X80490476Y-102961904D01*
X80719047Y-102961904D02*
X80719047Y-102161904D01*
X80642857Y-102276190D01*
X80566666Y-102352380D01*
X80490476Y-102390476D01*
X81328571Y-102961904D02*
X81480952Y-102961904D01*
X81557142Y-102923809D01*
X81595238Y-102885714D01*
X81671428Y-102771428D01*
X81709523Y-102619047D01*
X81709523Y-102314285D01*
X81671428Y-102238095D01*
X81633333Y-102200000D01*
X81557142Y-102161904D01*
X81404761Y-102161904D01*
X81328571Y-102200000D01*
X81290476Y-102238095D01*
X81252380Y-102314285D01*
X81252380Y-102504761D01*
X81290476Y-102580952D01*
X81328571Y-102619047D01*
X81404761Y-102657142D01*
X81557142Y-102657142D01*
X81633333Y-102619047D01*
X81671428Y-102580952D01*
X81709523Y-102504761D01*
D12*
%TO.C,IC12*%
X76038095Y-105361904D02*
X76038095Y-104561904D01*
X76876190Y-105285714D02*
X76838095Y-105323809D01*
X76723809Y-105361904D01*
X76647619Y-105361904D01*
X76533333Y-105323809D01*
X76457142Y-105247619D01*
X76419047Y-105171428D01*
X76380952Y-105019047D01*
X76380952Y-104904761D01*
X76419047Y-104752380D01*
X76457142Y-104676190D01*
X76533333Y-104600000D01*
X76647619Y-104561904D01*
X76723809Y-104561904D01*
X76838095Y-104600000D01*
X76876190Y-104638095D01*
X77638095Y-105361904D02*
X77180952Y-105361904D01*
X77409523Y-105361904D02*
X77409523Y-104561904D01*
X77333333Y-104676190D01*
X77257142Y-104752380D01*
X77180952Y-104790476D01*
X77942857Y-104638095D02*
X77980952Y-104600000D01*
X78057142Y-104561904D01*
X78247619Y-104561904D01*
X78323809Y-104600000D01*
X78361904Y-104638095D01*
X78400000Y-104714285D01*
X78400000Y-104790476D01*
X78361904Y-104904761D01*
X77904761Y-105361904D01*
X78400000Y-105361904D01*
D10*
%TO.C,C16*%
X73485714Y-95085714D02*
X73447619Y-95123809D01*
X73333333Y-95161904D01*
X73257142Y-95161904D01*
X73142857Y-95123809D01*
X73066666Y-95047619D01*
X73028571Y-94971428D01*
X72990476Y-94819047D01*
X72990476Y-94704761D01*
X73028571Y-94552380D01*
X73066666Y-94476190D01*
X73142857Y-94400000D01*
X73257142Y-94361904D01*
X73333333Y-94361904D01*
X73447619Y-94400000D01*
X73485714Y-94438095D01*
X74247619Y-95161904D02*
X73790476Y-95161904D01*
X74019047Y-95161904D02*
X74019047Y-94361904D01*
X73942857Y-94476190D01*
X73866666Y-94552380D01*
X73790476Y-94590476D01*
X74933333Y-94361904D02*
X74780952Y-94361904D01*
X74704761Y-94400000D01*
X74666666Y-94438095D01*
X74590476Y-94552380D01*
X74552380Y-94704761D01*
X74552380Y-95009523D01*
X74590476Y-95085714D01*
X74628571Y-95123809D01*
X74704761Y-95161904D01*
X74857142Y-95161904D01*
X74933333Y-95123809D01*
X74971428Y-95085714D01*
X75009523Y-95009523D01*
X75009523Y-94819047D01*
X74971428Y-94742857D01*
X74933333Y-94704761D01*
X74857142Y-94666666D01*
X74704761Y-94666666D01*
X74628571Y-94704761D01*
X74590476Y-94742857D01*
X74552380Y-94819047D01*
%TO.C,L8*%
X84466666Y-105161904D02*
X84085714Y-105161904D01*
X84085714Y-104361904D01*
X84847619Y-104704761D02*
X84771428Y-104666666D01*
X84733333Y-104628571D01*
X84695238Y-104552380D01*
X84695238Y-104514285D01*
X84733333Y-104438095D01*
X84771428Y-104400000D01*
X84847619Y-104361904D01*
X85000000Y-104361904D01*
X85076190Y-104400000D01*
X85114285Y-104438095D01*
X85152380Y-104514285D01*
X85152380Y-104552380D01*
X85114285Y-104628571D01*
X85076190Y-104666666D01*
X85000000Y-104704761D01*
X84847619Y-104704761D01*
X84771428Y-104742857D01*
X84733333Y-104780952D01*
X84695238Y-104857142D01*
X84695238Y-105009523D01*
X84733333Y-105085714D01*
X84771428Y-105123809D01*
X84847619Y-105161904D01*
X85000000Y-105161904D01*
X85076190Y-105123809D01*
X85114285Y-105085714D01*
X85152380Y-105009523D01*
X85152380Y-104857142D01*
X85114285Y-104780952D01*
X85076190Y-104742857D01*
X85000000Y-104704761D01*
%TO.C,C17*%
X77485714Y-96714285D02*
X77523809Y-96752380D01*
X77561904Y-96866666D01*
X77561904Y-96942857D01*
X77523809Y-97057142D01*
X77447619Y-97133333D01*
X77371428Y-97171428D01*
X77219047Y-97209523D01*
X77104761Y-97209523D01*
X76952380Y-97171428D01*
X76876190Y-97133333D01*
X76800000Y-97057142D01*
X76761904Y-96942857D01*
X76761904Y-96866666D01*
X76800000Y-96752380D01*
X76838095Y-96714285D01*
X77561904Y-95952380D02*
X77561904Y-96409523D01*
X77561904Y-96180952D02*
X76761904Y-96180952D01*
X76876190Y-96257142D01*
X76952380Y-96333333D01*
X76990476Y-96409523D01*
X76761904Y-95685714D02*
X76761904Y-95152380D01*
X77561904Y-95495238D01*
%TO.C,C20*%
X78585714Y-99225714D02*
X78547619Y-99263809D01*
X78433333Y-99301904D01*
X78357142Y-99301904D01*
X78242857Y-99263809D01*
X78166666Y-99187619D01*
X78128571Y-99111428D01*
X78090476Y-98959047D01*
X78090476Y-98844761D01*
X78128571Y-98692380D01*
X78166666Y-98616190D01*
X78242857Y-98540000D01*
X78357142Y-98501904D01*
X78433333Y-98501904D01*
X78547619Y-98540000D01*
X78585714Y-98578095D01*
X78890476Y-98578095D02*
X78928571Y-98540000D01*
X79004761Y-98501904D01*
X79195238Y-98501904D01*
X79271428Y-98540000D01*
X79309523Y-98578095D01*
X79347619Y-98654285D01*
X79347619Y-98730476D01*
X79309523Y-98844761D01*
X78852380Y-99301904D01*
X79347619Y-99301904D01*
X79842857Y-98501904D02*
X79919047Y-98501904D01*
X79995238Y-98540000D01*
X80033333Y-98578095D01*
X80071428Y-98654285D01*
X80109523Y-98806666D01*
X80109523Y-98997142D01*
X80071428Y-99149523D01*
X80033333Y-99225714D01*
X79995238Y-99263809D01*
X79919047Y-99301904D01*
X79842857Y-99301904D01*
X79766666Y-99263809D01*
X79728571Y-99225714D01*
X79690476Y-99149523D01*
X79652380Y-98997142D01*
X79652380Y-98806666D01*
X79690476Y-98654285D01*
X79728571Y-98578095D01*
X79766666Y-98540000D01*
X79842857Y-98501904D01*
D13*
%TO.C,IC10*%
X85574523Y-92844523D02*
X84304523Y-92844523D01*
X85453571Y-91514047D02*
X85514047Y-91574523D01*
X85574523Y-91755952D01*
X85574523Y-91876904D01*
X85514047Y-92058333D01*
X85393095Y-92179285D01*
X85272142Y-92239761D01*
X85030238Y-92300238D01*
X84848809Y-92300238D01*
X84606904Y-92239761D01*
X84485952Y-92179285D01*
X84365000Y-92058333D01*
X84304523Y-91876904D01*
X84304523Y-91755952D01*
X84365000Y-91574523D01*
X84425476Y-91514047D01*
X85574523Y-90304523D02*
X85574523Y-91030238D01*
X85574523Y-90667380D02*
X84304523Y-90667380D01*
X84485952Y-90788333D01*
X84606904Y-90909285D01*
X84667380Y-91030238D01*
X84304523Y-89518333D02*
X84304523Y-89397380D01*
X84365000Y-89276428D01*
X84425476Y-89215952D01*
X84546428Y-89155476D01*
X84788333Y-89095000D01*
X85090714Y-89095000D01*
X85332619Y-89155476D01*
X85453571Y-89215952D01*
X85514047Y-89276428D01*
X85574523Y-89397380D01*
X85574523Y-89518333D01*
X85514047Y-89639285D01*
X85453571Y-89699761D01*
X85332619Y-89760238D01*
X85090714Y-89820714D01*
X84788333Y-89820714D01*
X84546428Y-89760238D01*
X84425476Y-89699761D01*
X84365000Y-89639285D01*
X84304523Y-89518333D01*
D14*
%TO.C,FL4*%
X82964285Y-98569047D02*
X82964285Y-98735714D01*
X83226190Y-98735714D02*
X82726190Y-98735714D01*
X82726190Y-98497619D01*
X83226190Y-98069047D02*
X83226190Y-98307142D01*
X82726190Y-98307142D01*
X82892857Y-97688095D02*
X83226190Y-97688095D01*
X82702380Y-97807142D02*
X83059523Y-97926190D01*
X83059523Y-97616666D01*
D10*
%TO.C,L7*%
X77761904Y-99133333D02*
X77761904Y-99514285D01*
X76961904Y-99514285D01*
X76961904Y-98942857D02*
X76961904Y-98409523D01*
X77761904Y-98752380D01*
%TO.C,U2*%
X95488095Y-45202380D02*
X95488095Y-46011904D01*
X95535714Y-46107142D01*
X95583333Y-46154761D01*
X95678571Y-46202380D01*
X95869047Y-46202380D01*
X95964285Y-46154761D01*
X96011904Y-46107142D01*
X96059523Y-46011904D01*
X96059523Y-45202380D01*
X96488095Y-45297619D02*
X96535714Y-45250000D01*
X96630952Y-45202380D01*
X96869047Y-45202380D01*
X96964285Y-45250000D01*
X97011904Y-45297619D01*
X97059523Y-45392857D01*
X97059523Y-45488095D01*
X97011904Y-45630952D01*
X96440476Y-46202380D01*
X97059523Y-46202380D01*
%TO.C,C8*%
X114825714Y-63833333D02*
X114863809Y-63871428D01*
X114901904Y-63985714D01*
X114901904Y-64061904D01*
X114863809Y-64176190D01*
X114787619Y-64252380D01*
X114711428Y-64290476D01*
X114559047Y-64328571D01*
X114444761Y-64328571D01*
X114292380Y-64290476D01*
X114216190Y-64252380D01*
X114140000Y-64176190D01*
X114101904Y-64061904D01*
X114101904Y-63985714D01*
X114140000Y-63871428D01*
X114178095Y-63833333D01*
X114444761Y-63376190D02*
X114406666Y-63452380D01*
X114368571Y-63490476D01*
X114292380Y-63528571D01*
X114254285Y-63528571D01*
X114178095Y-63490476D01*
X114140000Y-63452380D01*
X114101904Y-63376190D01*
X114101904Y-63223809D01*
X114140000Y-63147619D01*
X114178095Y-63109523D01*
X114254285Y-63071428D01*
X114292380Y-63071428D01*
X114368571Y-63109523D01*
X114406666Y-63147619D01*
X114444761Y-63223809D01*
X114444761Y-63376190D01*
X114482857Y-63452380D01*
X114520952Y-63490476D01*
X114597142Y-63528571D01*
X114749523Y-63528571D01*
X114825714Y-63490476D01*
X114863809Y-63452380D01*
X114901904Y-63376190D01*
X114901904Y-63223809D01*
X114863809Y-63147619D01*
X114825714Y-63109523D01*
X114749523Y-63071428D01*
X114597142Y-63071428D01*
X114520952Y-63109523D01*
X114482857Y-63147619D01*
X114444761Y-63223809D01*
%TO.C,C9*%
X114566666Y-68885714D02*
X114528571Y-68923809D01*
X114414285Y-68961904D01*
X114338095Y-68961904D01*
X114223809Y-68923809D01*
X114147619Y-68847619D01*
X114109523Y-68771428D01*
X114071428Y-68619047D01*
X114071428Y-68504761D01*
X114109523Y-68352380D01*
X114147619Y-68276190D01*
X114223809Y-68200000D01*
X114338095Y-68161904D01*
X114414285Y-68161904D01*
X114528571Y-68200000D01*
X114566666Y-68238095D01*
X114947619Y-68961904D02*
X115100000Y-68961904D01*
X115176190Y-68923809D01*
X115214285Y-68885714D01*
X115290476Y-68771428D01*
X115328571Y-68619047D01*
X115328571Y-68314285D01*
X115290476Y-68238095D01*
X115252380Y-68200000D01*
X115176190Y-68161904D01*
X115023809Y-68161904D01*
X114947619Y-68200000D01*
X114909523Y-68238095D01*
X114871428Y-68314285D01*
X114871428Y-68504761D01*
X114909523Y-68580952D01*
X114947619Y-68619047D01*
X115023809Y-68657142D01*
X115176190Y-68657142D01*
X115252380Y-68619047D01*
X115290476Y-68580952D01*
X115328571Y-68504761D01*
D12*
%TO.C,IC6*%
X110419047Y-71361904D02*
X110419047Y-70561904D01*
X111257142Y-71285714D02*
X111219047Y-71323809D01*
X111104761Y-71361904D01*
X111028571Y-71361904D01*
X110914285Y-71323809D01*
X110838095Y-71247619D01*
X110800000Y-71171428D01*
X110761904Y-71019047D01*
X110761904Y-70904761D01*
X110800000Y-70752380D01*
X110838095Y-70676190D01*
X110914285Y-70600000D01*
X111028571Y-70561904D01*
X111104761Y-70561904D01*
X111219047Y-70600000D01*
X111257142Y-70638095D01*
X111942857Y-70561904D02*
X111790476Y-70561904D01*
X111714285Y-70600000D01*
X111676190Y-70638095D01*
X111600000Y-70752380D01*
X111561904Y-70904761D01*
X111561904Y-71209523D01*
X111600000Y-71285714D01*
X111638095Y-71323809D01*
X111714285Y-71361904D01*
X111866666Y-71361904D01*
X111942857Y-71323809D01*
X111980952Y-71285714D01*
X112019047Y-71209523D01*
X112019047Y-71019047D01*
X111980952Y-70942857D01*
X111942857Y-70904761D01*
X111866666Y-70866666D01*
X111714285Y-70866666D01*
X111638095Y-70904761D01*
X111600000Y-70942857D01*
X111561904Y-71019047D01*
D10*
%TO.C,C6*%
X107866666Y-61085714D02*
X107828571Y-61123809D01*
X107714285Y-61161904D01*
X107638095Y-61161904D01*
X107523809Y-61123809D01*
X107447619Y-61047619D01*
X107409523Y-60971428D01*
X107371428Y-60819047D01*
X107371428Y-60704761D01*
X107409523Y-60552380D01*
X107447619Y-60476190D01*
X107523809Y-60400000D01*
X107638095Y-60361904D01*
X107714285Y-60361904D01*
X107828571Y-60400000D01*
X107866666Y-60438095D01*
X108552380Y-60361904D02*
X108400000Y-60361904D01*
X108323809Y-60400000D01*
X108285714Y-60438095D01*
X108209523Y-60552380D01*
X108171428Y-60704761D01*
X108171428Y-61009523D01*
X108209523Y-61085714D01*
X108247619Y-61123809D01*
X108323809Y-61161904D01*
X108476190Y-61161904D01*
X108552380Y-61123809D01*
X108590476Y-61085714D01*
X108628571Y-61009523D01*
X108628571Y-60819047D01*
X108590476Y-60742857D01*
X108552380Y-60704761D01*
X108476190Y-60666666D01*
X108323809Y-60666666D01*
X108247619Y-60704761D01*
X108209523Y-60742857D01*
X108171428Y-60819047D01*
%TO.C,L4*%
X118466666Y-71161904D02*
X118085714Y-71161904D01*
X118085714Y-70361904D01*
X119076190Y-70628571D02*
X119076190Y-71161904D01*
X118885714Y-70323809D02*
X118695238Y-70895238D01*
X119190476Y-70895238D01*
%TO.C,C7*%
X111485714Y-62333333D02*
X111523809Y-62371428D01*
X111561904Y-62485714D01*
X111561904Y-62561904D01*
X111523809Y-62676190D01*
X111447619Y-62752380D01*
X111371428Y-62790476D01*
X111219047Y-62828571D01*
X111104761Y-62828571D01*
X110952380Y-62790476D01*
X110876190Y-62752380D01*
X110800000Y-62676190D01*
X110761904Y-62561904D01*
X110761904Y-62485714D01*
X110800000Y-62371428D01*
X110838095Y-62333333D01*
X110761904Y-62066666D02*
X110761904Y-61533333D01*
X111561904Y-61876190D01*
%TO.C,C10*%
X112585714Y-65225714D02*
X112547619Y-65263809D01*
X112433333Y-65301904D01*
X112357142Y-65301904D01*
X112242857Y-65263809D01*
X112166666Y-65187619D01*
X112128571Y-65111428D01*
X112090476Y-64959047D01*
X112090476Y-64844761D01*
X112128571Y-64692380D01*
X112166666Y-64616190D01*
X112242857Y-64540000D01*
X112357142Y-64501904D01*
X112433333Y-64501904D01*
X112547619Y-64540000D01*
X112585714Y-64578095D01*
X113347619Y-65301904D02*
X112890476Y-65301904D01*
X113119047Y-65301904D02*
X113119047Y-64501904D01*
X113042857Y-64616190D01*
X112966666Y-64692380D01*
X112890476Y-64730476D01*
X113842857Y-64501904D02*
X113919047Y-64501904D01*
X113995238Y-64540000D01*
X114033333Y-64578095D01*
X114071428Y-64654285D01*
X114109523Y-64806666D01*
X114109523Y-64997142D01*
X114071428Y-65149523D01*
X114033333Y-65225714D01*
X113995238Y-65263809D01*
X113919047Y-65301904D01*
X113842857Y-65301904D01*
X113766666Y-65263809D01*
X113728571Y-65225714D01*
X113690476Y-65149523D01*
X113652380Y-64997142D01*
X113652380Y-64806666D01*
X113690476Y-64654285D01*
X113728571Y-64578095D01*
X113766666Y-64540000D01*
X113842857Y-64501904D01*
D13*
%TO.C,IC4*%
X119574523Y-58239761D02*
X118304523Y-58239761D01*
X119453571Y-56909285D02*
X119514047Y-56969761D01*
X119574523Y-57151190D01*
X119574523Y-57272142D01*
X119514047Y-57453571D01*
X119393095Y-57574523D01*
X119272142Y-57635000D01*
X119030238Y-57695476D01*
X118848809Y-57695476D01*
X118606904Y-57635000D01*
X118485952Y-57574523D01*
X118365000Y-57453571D01*
X118304523Y-57272142D01*
X118304523Y-57151190D01*
X118365000Y-56969761D01*
X118425476Y-56909285D01*
X118727857Y-55820714D02*
X119574523Y-55820714D01*
X118244047Y-56123095D02*
X119151190Y-56425476D01*
X119151190Y-55639285D01*
D14*
%TO.C,FL2*%
X116964285Y-64569047D02*
X116964285Y-64735714D01*
X117226190Y-64735714D02*
X116726190Y-64735714D01*
X116726190Y-64497619D01*
X117226190Y-64069047D02*
X117226190Y-64307142D01*
X116726190Y-64307142D01*
X116773809Y-63926190D02*
X116750000Y-63902380D01*
X116726190Y-63854761D01*
X116726190Y-63735714D01*
X116750000Y-63688095D01*
X116773809Y-63664285D01*
X116821428Y-63640476D01*
X116869047Y-63640476D01*
X116940476Y-63664285D01*
X117226190Y-63950000D01*
X117226190Y-63640476D01*
D10*
%TO.C,L3*%
X111761904Y-65133333D02*
X111761904Y-65514285D01*
X110961904Y-65514285D01*
X110961904Y-64942857D02*
X110961904Y-64447619D01*
X111266666Y-64714285D01*
X111266666Y-64600000D01*
X111304761Y-64523809D01*
X111342857Y-64485714D01*
X111419047Y-64447619D01*
X111609523Y-64447619D01*
X111685714Y-64485714D01*
X111723809Y-64523809D01*
X111761904Y-64600000D01*
X111761904Y-64828571D01*
X111723809Y-64904761D01*
X111685714Y-64942857D01*
D13*
%TO.C,IC1*%
X85574523Y-58239761D02*
X84304523Y-58239761D01*
X85453571Y-56909285D02*
X85514047Y-56969761D01*
X85574523Y-57151190D01*
X85574523Y-57272142D01*
X85514047Y-57453571D01*
X85393095Y-57574523D01*
X85272142Y-57635000D01*
X85030238Y-57695476D01*
X84848809Y-57695476D01*
X84606904Y-57635000D01*
X84485952Y-57574523D01*
X84365000Y-57453571D01*
X84304523Y-57272142D01*
X84304523Y-57151190D01*
X84365000Y-56969761D01*
X84425476Y-56909285D01*
X85574523Y-55699761D02*
X85574523Y-56425476D01*
X85574523Y-56062619D02*
X84304523Y-56062619D01*
X84485952Y-56183571D01*
X84606904Y-56304523D01*
X84667380Y-56425476D01*
D10*
%TO.C,C5*%
X78966666Y-65225714D02*
X78928571Y-65263809D01*
X78814285Y-65301904D01*
X78738095Y-65301904D01*
X78623809Y-65263809D01*
X78547619Y-65187619D01*
X78509523Y-65111428D01*
X78471428Y-64959047D01*
X78471428Y-64844761D01*
X78509523Y-64692380D01*
X78547619Y-64616190D01*
X78623809Y-64540000D01*
X78738095Y-64501904D01*
X78814285Y-64501904D01*
X78928571Y-64540000D01*
X78966666Y-64578095D01*
X79690476Y-64501904D02*
X79309523Y-64501904D01*
X79271428Y-64882857D01*
X79309523Y-64844761D01*
X79385714Y-64806666D01*
X79576190Y-64806666D01*
X79652380Y-64844761D01*
X79690476Y-64882857D01*
X79728571Y-64959047D01*
X79728571Y-65149523D01*
X79690476Y-65225714D01*
X79652380Y-65263809D01*
X79576190Y-65301904D01*
X79385714Y-65301904D01*
X79309523Y-65263809D01*
X79271428Y-65225714D01*
%TO.C,C2*%
X77485714Y-62333333D02*
X77523809Y-62371428D01*
X77561904Y-62485714D01*
X77561904Y-62561904D01*
X77523809Y-62676190D01*
X77447619Y-62752380D01*
X77371428Y-62790476D01*
X77219047Y-62828571D01*
X77104761Y-62828571D01*
X76952380Y-62790476D01*
X76876190Y-62752380D01*
X76800000Y-62676190D01*
X76761904Y-62561904D01*
X76761904Y-62485714D01*
X76800000Y-62371428D01*
X76838095Y-62333333D01*
X76838095Y-62028571D02*
X76800000Y-61990476D01*
X76761904Y-61914285D01*
X76761904Y-61723809D01*
X76800000Y-61647619D01*
X76838095Y-61609523D01*
X76914285Y-61571428D01*
X76990476Y-61571428D01*
X77104761Y-61609523D01*
X77561904Y-62066666D01*
X77561904Y-61571428D01*
%TO.C,L2*%
X84466666Y-71161904D02*
X84085714Y-71161904D01*
X84085714Y-70361904D01*
X84695238Y-70438095D02*
X84733333Y-70400000D01*
X84809523Y-70361904D01*
X85000000Y-70361904D01*
X85076190Y-70400000D01*
X85114285Y-70438095D01*
X85152380Y-70514285D01*
X85152380Y-70590476D01*
X85114285Y-70704761D01*
X84657142Y-71161904D01*
X85152380Y-71161904D01*
%TO.C,C1*%
X73866666Y-61085714D02*
X73828571Y-61123809D01*
X73714285Y-61161904D01*
X73638095Y-61161904D01*
X73523809Y-61123809D01*
X73447619Y-61047619D01*
X73409523Y-60971428D01*
X73371428Y-60819047D01*
X73371428Y-60704761D01*
X73409523Y-60552380D01*
X73447619Y-60476190D01*
X73523809Y-60400000D01*
X73638095Y-60361904D01*
X73714285Y-60361904D01*
X73828571Y-60400000D01*
X73866666Y-60438095D01*
X74628571Y-61161904D02*
X74171428Y-61161904D01*
X74400000Y-61161904D02*
X74400000Y-60361904D01*
X74323809Y-60476190D01*
X74247619Y-60552380D01*
X74171428Y-60590476D01*
D12*
%TO.C,IC3*%
X76419047Y-71361904D02*
X76419047Y-70561904D01*
X77257142Y-71285714D02*
X77219047Y-71323809D01*
X77104761Y-71361904D01*
X77028571Y-71361904D01*
X76914285Y-71323809D01*
X76838095Y-71247619D01*
X76800000Y-71171428D01*
X76761904Y-71019047D01*
X76761904Y-70904761D01*
X76800000Y-70752380D01*
X76838095Y-70676190D01*
X76914285Y-70600000D01*
X77028571Y-70561904D01*
X77104761Y-70561904D01*
X77219047Y-70600000D01*
X77257142Y-70638095D01*
X77523809Y-70561904D02*
X78019047Y-70561904D01*
X77752380Y-70866666D01*
X77866666Y-70866666D01*
X77942857Y-70904761D01*
X77980952Y-70942857D01*
X78019047Y-71019047D01*
X78019047Y-71209523D01*
X77980952Y-71285714D01*
X77942857Y-71323809D01*
X77866666Y-71361904D01*
X77638095Y-71361904D01*
X77561904Y-71323809D01*
X77523809Y-71285714D01*
D14*
%TO.C,FL1*%
X82964285Y-64569047D02*
X82964285Y-64735714D01*
X83226190Y-64735714D02*
X82726190Y-64735714D01*
X82726190Y-64497619D01*
X83226190Y-64069047D02*
X83226190Y-64307142D01*
X82726190Y-64307142D01*
X83226190Y-63640476D02*
X83226190Y-63926190D01*
X83226190Y-63783333D02*
X82726190Y-63783333D01*
X82797619Y-63830952D01*
X82845238Y-63878571D01*
X82869047Y-63926190D01*
D10*
%TO.C,L1*%
X77761904Y-65133333D02*
X77761904Y-65514285D01*
X76961904Y-65514285D01*
X77761904Y-64447619D02*
X77761904Y-64904761D01*
X77761904Y-64676190D02*
X76961904Y-64676190D01*
X77076190Y-64752380D01*
X77152380Y-64828571D01*
X77190476Y-64904761D01*
%TO.C,C4*%
X80566666Y-68885714D02*
X80528571Y-68923809D01*
X80414285Y-68961904D01*
X80338095Y-68961904D01*
X80223809Y-68923809D01*
X80147619Y-68847619D01*
X80109523Y-68771428D01*
X80071428Y-68619047D01*
X80071428Y-68504761D01*
X80109523Y-68352380D01*
X80147619Y-68276190D01*
X80223809Y-68200000D01*
X80338095Y-68161904D01*
X80414285Y-68161904D01*
X80528571Y-68200000D01*
X80566666Y-68238095D01*
X81252380Y-68428571D02*
X81252380Y-68961904D01*
X81061904Y-68123809D02*
X80871428Y-68695238D01*
X81366666Y-68695238D01*
%TO.C,C3*%
X80825714Y-63833333D02*
X80863809Y-63871428D01*
X80901904Y-63985714D01*
X80901904Y-64061904D01*
X80863809Y-64176190D01*
X80787619Y-64252380D01*
X80711428Y-64290476D01*
X80559047Y-64328571D01*
X80444761Y-64328571D01*
X80292380Y-64290476D01*
X80216190Y-64252380D01*
X80140000Y-64176190D01*
X80101904Y-64061904D01*
X80101904Y-63985714D01*
X80140000Y-63871428D01*
X80178095Y-63833333D01*
X80101904Y-63566666D02*
X80101904Y-63071428D01*
X80406666Y-63338095D01*
X80406666Y-63223809D01*
X80444761Y-63147619D01*
X80482857Y-63109523D01*
X80559047Y-63071428D01*
X80749523Y-63071428D01*
X80825714Y-63109523D01*
X80863809Y-63147619D01*
X80901904Y-63223809D01*
X80901904Y-63452380D01*
X80863809Y-63528571D01*
X80825714Y-63566666D01*
%TO.C,U1*%
X61488095Y-45202380D02*
X61488095Y-46011904D01*
X61535714Y-46107142D01*
X61583333Y-46154761D01*
X61678571Y-46202380D01*
X61869047Y-46202380D01*
X61964285Y-46154761D01*
X62011904Y-46107142D01*
X62059523Y-46011904D01*
X62059523Y-45202380D01*
X63059523Y-46202380D02*
X62488095Y-46202380D01*
X62773809Y-46202380D02*
X62773809Y-45202380D01*
X62678571Y-45345238D01*
X62583333Y-45440476D01*
X62488095Y-45488095D01*
D15*
%TO.C,U5*%
X108900000Y-82830338D02*
G75*
G03*
X108900000Y-82830338I-5000000J0D01*
G01*
X112200676Y-76780338D02*
G75*
G03*
X112200676Y-76780338I-1850676J0D01*
G01*
X99500000Y-76780338D02*
G75*
G03*
X99500000Y-76780338I-1850000J0D01*
G01*
X97650000Y-88880338D02*
X110350000Y-88880338D01*
X110350000Y-88880338D02*
X110350000Y-76780338D01*
X110350000Y-76780338D02*
X97650000Y-76780338D01*
X97650000Y-76780338D02*
X97650000Y-88880338D01*
%TO.C,C23*%
X115340000Y-97807836D02*
X115340000Y-97592164D01*
X116060000Y-97807836D02*
X116060000Y-97592164D01*
%TO.C,C24*%
X114592164Y-103240000D02*
X114807836Y-103240000D01*
X114592164Y-103960000D02*
X114807836Y-103960000D01*
D12*
%TO.C,IC15*%
X111575000Y-101150000D02*
X111575000Y-104050000D01*
X111575000Y-104050000D02*
X111025000Y-104050000D01*
X111025000Y-101150000D02*
X111575000Y-101150000D01*
X111025000Y-104050000D02*
X111025000Y-101150000D01*
X109425000Y-101000000D02*
X110675000Y-101000000D01*
D15*
%TO.C,C21*%
X109607836Y-95160000D02*
X109392164Y-95160000D01*
X109607836Y-94440000D02*
X109392164Y-94440000D01*
%TO.C,L10*%
X117428733Y-104010000D02*
X117771267Y-104010000D01*
X117428733Y-102990000D02*
X117771267Y-102990000D01*
%TO.C,C22*%
X109640000Y-96192164D02*
X109640000Y-96407836D01*
X110360000Y-96192164D02*
X110360000Y-96407836D01*
%TO.C,C25*%
X112992164Y-99740000D02*
X113207836Y-99740000D01*
X112992164Y-100460000D02*
X113207836Y-100460000D01*
D16*
%TO.C,IC13*%
X124450000Y-85775000D02*
G75*
G03*
X124450000Y-85775000I-125000J0D01*
G01*
D12*
X113950000Y-87575000D02*
X124050000Y-87575000D01*
X124050000Y-87575000D02*
X124050000Y-94425000D01*
X124050000Y-94425000D02*
X113950000Y-94425000D01*
X113950000Y-94425000D02*
X113950000Y-87575000D01*
%TO.C,FL5*%
X116013000Y-101488000D02*
G75*
G03*
X115813000Y-101488000I-100000J0D01*
G01*
X115813000Y-101488000D02*
G75*
G03*
X116013000Y-101488000I100000J0D01*
G01*
X115813000Y-101488000D02*
X115813000Y-101488000D01*
D11*
X116313000Y-100863000D02*
X116438000Y-100863000D01*
X116438000Y-100863000D02*
X116438000Y-100588000D01*
D12*
X116013000Y-101488000D02*
X116013000Y-101488000D01*
D11*
X115388000Y-100863000D02*
X115388000Y-100588000D01*
X115513000Y-100863000D02*
X115388000Y-100863000D01*
D15*
%TO.C,L9*%
X110510000Y-98828733D02*
X110510000Y-99171267D01*
X109490000Y-98828733D02*
X109490000Y-99171267D01*
%TO.C,J9*%
X114040000Y-81840000D02*
X114040000Y-83960000D01*
X122100000Y-81840000D02*
X114040000Y-81840000D01*
X124160000Y-81840000D02*
X124160000Y-82900000D01*
X123100000Y-81840000D02*
X124160000Y-81840000D01*
X122100000Y-83960000D02*
X114040000Y-83960000D01*
X122100000Y-81840000D02*
X122100000Y-83960000D01*
%TO.C,J10*%
X121200000Y-97840000D02*
X121200000Y-99960000D01*
X122200000Y-97840000D02*
X123260000Y-97840000D01*
X121200000Y-99960000D02*
X119140000Y-99960000D01*
X119140000Y-97840000D02*
X119140000Y-99960000D01*
X123260000Y-97840000D02*
X123260000Y-98900000D01*
X121200000Y-97840000D02*
X119140000Y-97840000D01*
%TO.C,U4*%
X74900000Y-82830338D02*
G75*
G03*
X74900000Y-82830338I-5000000J0D01*
G01*
X78200676Y-76780338D02*
G75*
G03*
X78200676Y-76780338I-1850676J0D01*
G01*
X65500000Y-76780338D02*
G75*
G03*
X65500000Y-76780338I-1850000J0D01*
G01*
X63650000Y-88880338D02*
X76350000Y-88880338D01*
X76350000Y-88880338D02*
X76350000Y-76780338D01*
X76350000Y-76780338D02*
X63650000Y-76780338D01*
X63650000Y-76780338D02*
X63650000Y-88880338D01*
%TO.C,C18*%
X81340000Y-97807836D02*
X81340000Y-97592164D01*
X82060000Y-97807836D02*
X82060000Y-97592164D01*
%TO.C,C19*%
X80592164Y-103240000D02*
X80807836Y-103240000D01*
X80592164Y-103960000D02*
X80807836Y-103960000D01*
D12*
%TO.C,IC12*%
X77575000Y-101150000D02*
X77575000Y-104050000D01*
X77575000Y-104050000D02*
X77025000Y-104050000D01*
X77025000Y-101150000D02*
X77575000Y-101150000D01*
X77025000Y-104050000D02*
X77025000Y-101150000D01*
X75425000Y-101000000D02*
X76675000Y-101000000D01*
D15*
%TO.C,C16*%
X75607836Y-95160000D02*
X75392164Y-95160000D01*
X75607836Y-94440000D02*
X75392164Y-94440000D01*
%TO.C,L8*%
X83428733Y-104010000D02*
X83771267Y-104010000D01*
X83428733Y-102990000D02*
X83771267Y-102990000D01*
%TO.C,C17*%
X75640000Y-96192164D02*
X75640000Y-96407836D01*
X76360000Y-96192164D02*
X76360000Y-96407836D01*
%TO.C,C20*%
X78992164Y-99740000D02*
X79207836Y-99740000D01*
X78992164Y-100460000D02*
X79207836Y-100460000D01*
D16*
%TO.C,IC10*%
X90450000Y-85775000D02*
G75*
G03*
X90450000Y-85775000I-125000J0D01*
G01*
D12*
X79950000Y-87575000D02*
X90050000Y-87575000D01*
X90050000Y-87575000D02*
X90050000Y-94425000D01*
X90050000Y-94425000D02*
X79950000Y-94425000D01*
X79950000Y-94425000D02*
X79950000Y-87575000D01*
%TO.C,FL4*%
X82013000Y-101488000D02*
G75*
G03*
X81813000Y-101488000I-100000J0D01*
G01*
X81813000Y-101488000D02*
G75*
G03*
X82013000Y-101488000I100000J0D01*
G01*
X81813000Y-101488000D02*
X81813000Y-101488000D01*
D11*
X82313000Y-100863000D02*
X82438000Y-100863000D01*
X82438000Y-100863000D02*
X82438000Y-100588000D01*
D12*
X82013000Y-101488000D02*
X82013000Y-101488000D01*
D11*
X81388000Y-100863000D02*
X81388000Y-100588000D01*
X81513000Y-100863000D02*
X81388000Y-100863000D01*
D15*
%TO.C,L7*%
X76510000Y-98828733D02*
X76510000Y-99171267D01*
X75490000Y-98828733D02*
X75490000Y-99171267D01*
%TO.C,J7*%
X80040000Y-81840000D02*
X80040000Y-83960000D01*
X88100000Y-81840000D02*
X80040000Y-81840000D01*
X90160000Y-81840000D02*
X90160000Y-82900000D01*
X89100000Y-81840000D02*
X90160000Y-81840000D01*
X88100000Y-83960000D02*
X80040000Y-83960000D01*
X88100000Y-81840000D02*
X88100000Y-83960000D01*
%TO.C,J8*%
X87200000Y-97840000D02*
X87200000Y-99960000D01*
X88200000Y-97840000D02*
X89260000Y-97840000D01*
X87200000Y-99960000D02*
X85140000Y-99960000D01*
X85140000Y-97840000D02*
X85140000Y-99960000D01*
X89260000Y-97840000D02*
X89260000Y-98900000D01*
X87200000Y-97840000D02*
X85140000Y-97840000D01*
%TO.C,U2*%
X108900000Y-48830338D02*
G75*
G03*
X108900000Y-48830338I-5000000J0D01*
G01*
X112200676Y-42780338D02*
G75*
G03*
X112200676Y-42780338I-1850676J0D01*
G01*
X99500000Y-42780338D02*
G75*
G03*
X99500000Y-42780338I-1850000J0D01*
G01*
X97650000Y-54880338D02*
X110350000Y-54880338D01*
X110350000Y-54880338D02*
X110350000Y-42780338D01*
X110350000Y-42780338D02*
X97650000Y-42780338D01*
X97650000Y-42780338D02*
X97650000Y-54880338D01*
%TO.C,C8*%
X115340000Y-63807836D02*
X115340000Y-63592164D01*
X116060000Y-63807836D02*
X116060000Y-63592164D01*
%TO.C,C9*%
X114592164Y-69240000D02*
X114807836Y-69240000D01*
X114592164Y-69960000D02*
X114807836Y-69960000D01*
D12*
%TO.C,IC6*%
X111575000Y-67150000D02*
X111575000Y-70050000D01*
X111575000Y-70050000D02*
X111025000Y-70050000D01*
X111025000Y-67150000D02*
X111575000Y-67150000D01*
X111025000Y-70050000D02*
X111025000Y-67150000D01*
X109425000Y-67000000D02*
X110675000Y-67000000D01*
D15*
%TO.C,C6*%
X109607836Y-61160000D02*
X109392164Y-61160000D01*
X109607836Y-60440000D02*
X109392164Y-60440000D01*
%TO.C,L4*%
X117428733Y-70010000D02*
X117771267Y-70010000D01*
X117428733Y-68990000D02*
X117771267Y-68990000D01*
%TO.C,C7*%
X109640000Y-62192164D02*
X109640000Y-62407836D01*
X110360000Y-62192164D02*
X110360000Y-62407836D01*
%TO.C,C10*%
X112992164Y-65740000D02*
X113207836Y-65740000D01*
X112992164Y-66460000D02*
X113207836Y-66460000D01*
D16*
%TO.C,IC4*%
X124450000Y-51775000D02*
G75*
G03*
X124450000Y-51775000I-125000J0D01*
G01*
D12*
X113950000Y-53575000D02*
X124050000Y-53575000D01*
X124050000Y-53575000D02*
X124050000Y-60425000D01*
X124050000Y-60425000D02*
X113950000Y-60425000D01*
X113950000Y-60425000D02*
X113950000Y-53575000D01*
%TO.C,FL2*%
X116013000Y-67488000D02*
G75*
G03*
X115813000Y-67488000I-100000J0D01*
G01*
X115813000Y-67488000D02*
G75*
G03*
X116013000Y-67488000I100000J0D01*
G01*
X115813000Y-67488000D02*
X115813000Y-67488000D01*
D11*
X116313000Y-66863000D02*
X116438000Y-66863000D01*
X116438000Y-66863000D02*
X116438000Y-66588000D01*
D12*
X116013000Y-67488000D02*
X116013000Y-67488000D01*
D11*
X115388000Y-66863000D02*
X115388000Y-66588000D01*
X115513000Y-66863000D02*
X115388000Y-66863000D01*
D15*
%TO.C,L3*%
X110510000Y-64828733D02*
X110510000Y-65171267D01*
X109490000Y-64828733D02*
X109490000Y-65171267D01*
%TO.C,J3*%
X114040000Y-47840000D02*
X114040000Y-49960000D01*
X122100000Y-47840000D02*
X114040000Y-47840000D01*
X124160000Y-47840000D02*
X124160000Y-48900000D01*
X123100000Y-47840000D02*
X124160000Y-47840000D01*
X122100000Y-49960000D02*
X114040000Y-49960000D01*
X122100000Y-47840000D02*
X122100000Y-49960000D01*
%TO.C,J4*%
X121200000Y-63840000D02*
X121200000Y-65960000D01*
X122200000Y-63840000D02*
X123260000Y-63840000D01*
X121200000Y-65960000D02*
X119140000Y-65960000D01*
X119140000Y-63840000D02*
X119140000Y-65960000D01*
X123260000Y-63840000D02*
X123260000Y-64900000D01*
X121200000Y-63840000D02*
X119140000Y-63840000D01*
D16*
%TO.C,IC1*%
X90450000Y-51775000D02*
G75*
G03*
X90450000Y-51775000I-125000J0D01*
G01*
D12*
X79950000Y-53575000D02*
X90050000Y-53575000D01*
X90050000Y-53575000D02*
X90050000Y-60425000D01*
X90050000Y-60425000D02*
X79950000Y-60425000D01*
X79950000Y-60425000D02*
X79950000Y-53575000D01*
D15*
%TO.C,C5*%
X78992164Y-65740000D02*
X79207836Y-65740000D01*
X78992164Y-66460000D02*
X79207836Y-66460000D01*
%TO.C,C2*%
X75640000Y-62192164D02*
X75640000Y-62407836D01*
X76360000Y-62192164D02*
X76360000Y-62407836D01*
%TO.C,L2*%
X83428733Y-70010000D02*
X83771267Y-70010000D01*
X83428733Y-68990000D02*
X83771267Y-68990000D01*
%TO.C,C1*%
X75607836Y-61160000D02*
X75392164Y-61160000D01*
X75607836Y-60440000D02*
X75392164Y-60440000D01*
D12*
%TO.C,IC3*%
X77575000Y-67150000D02*
X77575000Y-70050000D01*
X77575000Y-70050000D02*
X77025000Y-70050000D01*
X77025000Y-67150000D02*
X77575000Y-67150000D01*
X77025000Y-70050000D02*
X77025000Y-67150000D01*
X75425000Y-67000000D02*
X76675000Y-67000000D01*
D15*
%TO.C,J1*%
X80040000Y-47840000D02*
X80040000Y-49960000D01*
X88100000Y-47840000D02*
X80040000Y-47840000D01*
X90160000Y-47840000D02*
X90160000Y-48900000D01*
X89100000Y-47840000D02*
X90160000Y-47840000D01*
X88100000Y-49960000D02*
X80040000Y-49960000D01*
X88100000Y-47840000D02*
X88100000Y-49960000D01*
D12*
%TO.C,FL1*%
X82013000Y-67488000D02*
G75*
G03*
X81813000Y-67488000I-100000J0D01*
G01*
X81813000Y-67488000D02*
G75*
G03*
X82013000Y-67488000I100000J0D01*
G01*
X81813000Y-67488000D02*
X81813000Y-67488000D01*
D11*
X82313000Y-66863000D02*
X82438000Y-66863000D01*
X82438000Y-66863000D02*
X82438000Y-66588000D01*
D12*
X82013000Y-67488000D02*
X82013000Y-67488000D01*
D11*
X81388000Y-66863000D02*
X81388000Y-66588000D01*
X81513000Y-66863000D02*
X81388000Y-66863000D01*
D15*
%TO.C,L1*%
X76510000Y-64828733D02*
X76510000Y-65171267D01*
X75490000Y-64828733D02*
X75490000Y-65171267D01*
%TO.C,C4*%
X80592164Y-69240000D02*
X80807836Y-69240000D01*
X80592164Y-69960000D02*
X80807836Y-69960000D01*
%TO.C,J2*%
X87200000Y-63840000D02*
X87200000Y-65960000D01*
X88200000Y-63840000D02*
X89260000Y-63840000D01*
X87200000Y-65960000D02*
X85140000Y-65960000D01*
X85140000Y-63840000D02*
X85140000Y-65960000D01*
X89260000Y-63840000D02*
X89260000Y-64900000D01*
X87200000Y-63840000D02*
X85140000Y-63840000D01*
%TO.C,C3*%
X81340000Y-63807836D02*
X81340000Y-63592164D01*
X82060000Y-63807836D02*
X82060000Y-63592164D01*
%TO.C,U1*%
X74900000Y-48830338D02*
G75*
G03*
X74900000Y-48830338I-5000000J0D01*
G01*
X78200676Y-42780338D02*
G75*
G03*
X78200676Y-42780338I-1850676J0D01*
G01*
X65500000Y-42780338D02*
G75*
G03*
X65500000Y-42780338I-1850000J0D01*
G01*
X63650000Y-54880338D02*
X76350000Y-54880338D01*
X76350000Y-54880338D02*
X76350000Y-42780338D01*
X76350000Y-42780338D02*
X63650000Y-42780338D01*
X63650000Y-42780338D02*
X63650000Y-54880338D01*
%TD*%
M02*
