%TF.GenerationSoftware,KiCad,Pcbnew,(6.0.4)*%
%TF.CreationDate,2022-12-06T00:22:49+09:00*%
%TF.ProjectId,gps-teseo-p,6770732d-7465-4736-956f-2d702e6b6963,rev?*%
%TF.SameCoordinates,Original*%
%TF.FileFunction,Paste,Top*%
%TF.FilePolarity,Positive*%
%FSLAX46Y46*%
G04 Gerber Fmt 4.6, Leading zero omitted, Abs format (unit mm)*
G04 Created by KiCad (PCBNEW (6.0.4)) date 2022-12-06 00:22:49*
%MOMM*%
%LPD*%
G01*
G04 APERTURE LIST*
G04 Aperture macros list*
%AMRoundRect*
0 Rectangle with rounded corners*
0 $1 Rounding radius*
0 $2 $3 $4 $5 $6 $7 $8 $9 X,Y pos of 4 corners*
0 Add a 4 corners polygon primitive as box body*
4,1,4,$2,$3,$4,$5,$6,$7,$8,$9,$2,$3,0*
0 Add four circle primitives for the rounded corners*
1,1,$1+$1,$2,$3*
1,1,$1+$1,$4,$5*
1,1,$1+$1,$6,$7*
1,1,$1+$1,$8,$9*
0 Add four rect primitives between the rounded corners*
20,1,$1+$1,$2,$3,$4,$5,0*
20,1,$1+$1,$4,$5,$6,$7,0*
20,1,$1+$1,$6,$7,$8,$9,0*
20,1,$1+$1,$8,$9,$2,$3,0*%
G04 Aperture macros list end*
%ADD10RoundRect,0.750000X-0.750000X-1.550000X0.750000X-1.550000X0.750000X1.550000X-0.750000X1.550000X0*%
%ADD11RoundRect,1.375000X-1.375000X-1.375000X1.375000X-1.375000X1.375000X1.375000X-1.375000X1.375000X0*%
%ADD12RoundRect,0.140000X0.170000X-0.140000X0.170000X0.140000X-0.170000X0.140000X-0.170000X-0.140000X0*%
%ADD13RoundRect,0.140000X-0.140000X-0.170000X0.140000X-0.170000X0.140000X0.170000X-0.140000X0.170000X0*%
%ADD14R,1.250000X0.600000*%
%ADD15RoundRect,0.140000X0.140000X0.170000X-0.140000X0.170000X-0.140000X-0.170000X0.140000X-0.170000X0*%
%ADD16RoundRect,0.237500X-0.287500X-0.237500X0.287500X-0.237500X0.287500X0.237500X-0.287500X0.237500X0*%
%ADD17RoundRect,0.140000X-0.170000X0.140000X-0.170000X-0.140000X0.170000X-0.140000X0.170000X0.140000X0*%
%ADD18R,0.850000X1.450000*%
%ADD19R,0.525000X0.250000*%
%ADD20R,0.325000X0.425000*%
%ADD21RoundRect,0.237500X-0.237500X0.287500X-0.237500X-0.287500X0.237500X-0.287500X0.237500X0.287500X0*%
%ADD22O,1.350000X2.000000*%
%ADD23R,1.350000X2.000000*%
G04 APERTURE END LIST*
D10*
%TO.C,U5*%
X111850000Y-83280338D03*
X96150000Y-83280338D03*
D11*
X103900000Y-82880338D03*
%TD*%
D12*
%TO.C,C23*%
X115700000Y-97220000D03*
X115700000Y-98180000D03*
%TD*%
D13*
%TO.C,C24*%
X115180000Y-103600000D03*
X114220000Y-103600000D03*
%TD*%
D14*
%TO.C,IC15*%
X112550000Y-101650000D03*
X112550000Y-102600000D03*
X112550000Y-103550000D03*
X110050000Y-103550000D03*
X110050000Y-102600000D03*
X110050000Y-101650000D03*
%TD*%
D15*
%TO.C,C21*%
X109020000Y-94800000D03*
X109980000Y-94800000D03*
%TD*%
D16*
%TO.C,L10*%
X118475000Y-103500000D03*
X116725000Y-103500000D03*
%TD*%
D17*
%TO.C,C22*%
X110000000Y-96780000D03*
X110000000Y-95820000D03*
%TD*%
D13*
%TO.C,C25*%
X113580000Y-100100000D03*
X112620000Y-100100000D03*
%TD*%
D18*
%TO.C,IC13*%
X123400000Y-95500000D03*
X122300000Y-95500000D03*
X121200000Y-95500000D03*
X120100000Y-95500000D03*
X119000000Y-95500000D03*
X117900000Y-95500000D03*
X116800000Y-95500000D03*
X115700000Y-95500000D03*
X114600000Y-95500000D03*
X114600000Y-86500000D03*
X115700000Y-86500000D03*
X116800000Y-86500000D03*
X117900000Y-86500000D03*
X119000000Y-86500000D03*
X120100000Y-86500000D03*
X121200000Y-86500000D03*
X122300000Y-86500000D03*
X123400000Y-86500000D03*
%TD*%
D19*
%TO.C,FL5*%
X115526000Y-100188000D03*
D20*
X115626000Y-99600000D03*
X116200000Y-99600000D03*
D19*
X116300000Y-100188000D03*
D20*
X115913000Y-100776000D03*
%TD*%
D21*
%TO.C,L9*%
X110000000Y-99875000D03*
X110000000Y-98125000D03*
%TD*%
D22*
%TO.C,J9*%
X115100000Y-82900000D03*
X117100000Y-82900000D03*
X119100000Y-82900000D03*
X121100000Y-82900000D03*
D23*
X123100000Y-82900000D03*
%TD*%
D22*
%TO.C,J10*%
X120200000Y-98900000D03*
D23*
X122200000Y-98900000D03*
%TD*%
D10*
%TO.C,U4*%
X77850000Y-83280338D03*
X62150000Y-83280338D03*
D11*
X69900000Y-82880338D03*
%TD*%
D12*
%TO.C,C18*%
X81700000Y-97220000D03*
X81700000Y-98180000D03*
%TD*%
D13*
%TO.C,C19*%
X81180000Y-103600000D03*
X80220000Y-103600000D03*
%TD*%
D14*
%TO.C,IC12*%
X78550000Y-101650000D03*
X78550000Y-102600000D03*
X78550000Y-103550000D03*
X76050000Y-103550000D03*
X76050000Y-102600000D03*
X76050000Y-101650000D03*
%TD*%
D15*
%TO.C,C16*%
X75020000Y-94800000D03*
X75980000Y-94800000D03*
%TD*%
D16*
%TO.C,L8*%
X84475000Y-103500000D03*
X82725000Y-103500000D03*
%TD*%
D17*
%TO.C,C17*%
X76000000Y-96780000D03*
X76000000Y-95820000D03*
%TD*%
D13*
%TO.C,C20*%
X79580000Y-100100000D03*
X78620000Y-100100000D03*
%TD*%
D18*
%TO.C,IC10*%
X89400000Y-95500000D03*
X88300000Y-95500000D03*
X87200000Y-95500000D03*
X86100000Y-95500000D03*
X85000000Y-95500000D03*
X83900000Y-95500000D03*
X82800000Y-95500000D03*
X81700000Y-95500000D03*
X80600000Y-95500000D03*
X80600000Y-86500000D03*
X81700000Y-86500000D03*
X82800000Y-86500000D03*
X83900000Y-86500000D03*
X85000000Y-86500000D03*
X86100000Y-86500000D03*
X87200000Y-86500000D03*
X88300000Y-86500000D03*
X89400000Y-86500000D03*
%TD*%
D19*
%TO.C,FL4*%
X81526000Y-100188000D03*
D20*
X81626000Y-99600000D03*
X82200000Y-99600000D03*
D19*
X82300000Y-100188000D03*
D20*
X81913000Y-100776000D03*
%TD*%
D21*
%TO.C,L7*%
X76000000Y-99875000D03*
X76000000Y-98125000D03*
%TD*%
D22*
%TO.C,J7*%
X81100000Y-82900000D03*
X83100000Y-82900000D03*
X85100000Y-82900000D03*
X87100000Y-82900000D03*
D23*
X89100000Y-82900000D03*
%TD*%
D22*
%TO.C,J8*%
X86200000Y-98900000D03*
D23*
X88200000Y-98900000D03*
%TD*%
D10*
%TO.C,U2*%
X111850000Y-49280338D03*
X96150000Y-49280338D03*
D11*
X103900000Y-48880338D03*
%TD*%
D12*
%TO.C,C8*%
X115700000Y-63220000D03*
X115700000Y-64180000D03*
%TD*%
D13*
%TO.C,C9*%
X115180000Y-69600000D03*
X114220000Y-69600000D03*
%TD*%
D14*
%TO.C,IC6*%
X112550000Y-67650000D03*
X112550000Y-68600000D03*
X112550000Y-69550000D03*
X110050000Y-69550000D03*
X110050000Y-68600000D03*
X110050000Y-67650000D03*
%TD*%
D15*
%TO.C,C6*%
X109020000Y-60800000D03*
X109980000Y-60800000D03*
%TD*%
D16*
%TO.C,L4*%
X118475000Y-69500000D03*
X116725000Y-69500000D03*
%TD*%
D17*
%TO.C,C7*%
X110000000Y-62780000D03*
X110000000Y-61820000D03*
%TD*%
D13*
%TO.C,C10*%
X113580000Y-66100000D03*
X112620000Y-66100000D03*
%TD*%
D18*
%TO.C,IC4*%
X123400000Y-61500000D03*
X122300000Y-61500000D03*
X121200000Y-61500000D03*
X120100000Y-61500000D03*
X119000000Y-61500000D03*
X117900000Y-61500000D03*
X116800000Y-61500000D03*
X115700000Y-61500000D03*
X114600000Y-61500000D03*
X114600000Y-52500000D03*
X115700000Y-52500000D03*
X116800000Y-52500000D03*
X117900000Y-52500000D03*
X119000000Y-52500000D03*
X120100000Y-52500000D03*
X121200000Y-52500000D03*
X122300000Y-52500000D03*
X123400000Y-52500000D03*
%TD*%
D19*
%TO.C,FL2*%
X115526000Y-66188000D03*
D20*
X115626000Y-65600000D03*
X116200000Y-65600000D03*
D19*
X116300000Y-66188000D03*
D20*
X115913000Y-66776000D03*
%TD*%
D21*
%TO.C,L3*%
X110000000Y-65875000D03*
X110000000Y-64125000D03*
%TD*%
D22*
%TO.C,J3*%
X115100000Y-48900000D03*
X117100000Y-48900000D03*
X119100000Y-48900000D03*
X121100000Y-48900000D03*
D23*
X123100000Y-48900000D03*
%TD*%
D22*
%TO.C,J4*%
X120200000Y-64900000D03*
D23*
X122200000Y-64900000D03*
%TD*%
D18*
%TO.C,IC1*%
X89400000Y-61500000D03*
X88300000Y-61500000D03*
X87200000Y-61500000D03*
X86100000Y-61500000D03*
X85000000Y-61500000D03*
X83900000Y-61500000D03*
X82800000Y-61500000D03*
X81700000Y-61500000D03*
X80600000Y-61500000D03*
X80600000Y-52500000D03*
X81700000Y-52500000D03*
X82800000Y-52500000D03*
X83900000Y-52500000D03*
X85000000Y-52500000D03*
X86100000Y-52500000D03*
X87200000Y-52500000D03*
X88300000Y-52500000D03*
X89400000Y-52500000D03*
%TD*%
D13*
%TO.C,C5*%
X79580000Y-66100000D03*
X78620000Y-66100000D03*
%TD*%
D17*
%TO.C,C2*%
X76000000Y-62780000D03*
X76000000Y-61820000D03*
%TD*%
D16*
%TO.C,L2*%
X84475000Y-69500000D03*
X82725000Y-69500000D03*
%TD*%
D15*
%TO.C,C1*%
X75020000Y-60800000D03*
X75980000Y-60800000D03*
%TD*%
D14*
%TO.C,IC3*%
X78550000Y-67650000D03*
X78550000Y-68600000D03*
X78550000Y-69550000D03*
X76050000Y-69550000D03*
X76050000Y-68600000D03*
X76050000Y-67650000D03*
%TD*%
D22*
%TO.C,J1*%
X81100000Y-48900000D03*
X83100000Y-48900000D03*
X85100000Y-48900000D03*
X87100000Y-48900000D03*
D23*
X89100000Y-48900000D03*
%TD*%
D19*
%TO.C,FL1*%
X81526000Y-66188000D03*
D20*
X81626000Y-65600000D03*
X82200000Y-65600000D03*
D19*
X82300000Y-66188000D03*
D20*
X81913000Y-66776000D03*
%TD*%
D21*
%TO.C,L1*%
X76000000Y-65875000D03*
X76000000Y-64125000D03*
%TD*%
D13*
%TO.C,C4*%
X81180000Y-69600000D03*
X80220000Y-69600000D03*
%TD*%
D22*
%TO.C,J2*%
X86200000Y-64900000D03*
D23*
X88200000Y-64900000D03*
%TD*%
D12*
%TO.C,C3*%
X81700000Y-63220000D03*
X81700000Y-64180000D03*
%TD*%
D10*
%TO.C,U1*%
X77850000Y-49280338D03*
X62150000Y-49280338D03*
D11*
X69900000Y-48880338D03*
%TD*%
M02*
