M48
; DRILL file {KiCad (6.0.4)} date Tue Sep 20 04:44:28 2022
; FORMAT={-:-/ absolute / metric / decimal}
; #@! TF.CreationDate,2022-09-20T04:44:28+09:00
; #@! TF.GenerationSoftware,Kicad,Pcbnew,(6.0.4)
; #@! TF.FileFunction,MixedPlating,1,2
FMAT,2
METRIC
; #@! TA.AperFunction,Plated,PTH,ViaDrill
T1C0.200
; #@! TA.AperFunction,Plated,PTH,ComponentDrill
T2C0.350
; #@! TA.AperFunction,Plated,PTH,ViaDrill
T3C0.400
; #@! TA.AperFunction,Plated,PTH,ComponentDrill
T4C0.750
; #@! TA.AperFunction,Plated,PTH,ComponentDrill
T5C1.010
; #@! TA.AperFunction,Plated,PTH,ComponentDrill
T6C1.250
; #@! TA.AperFunction,NonPlated,NPTH,ComponentDrill
T7C2.200
%
G90
G05
T1
X172.588Y-93.883
X172.588Y-129.883
X175.1Y-93.818
X175.1Y-129.818
X178.536Y-97.034
X178.536Y-133.034
X178.65Y-100.183
X178.65Y-136.183
X179.293Y-96.107
X179.293Y-132.107
X180.211Y-99.781
X180.211Y-135.781
X180.5Y-101.032
X180.5Y-137.032
X182.892Y-102.621
X182.892Y-138.621
X185.178Y-104.577
X185.178Y-140.577
X186.007Y-101.805
X186.007Y-137.805
X216.587Y-93.883
X216.587Y-129.883
X219.1Y-93.818
X219.1Y-129.818
X222.536Y-97.034
X222.536Y-133.034
X222.65Y-100.183
X222.65Y-136.183
X223.293Y-96.107
X223.293Y-132.107
X224.211Y-99.781
X224.211Y-135.781
X224.5Y-101.032
X224.5Y-137.032
X226.892Y-102.621
X226.892Y-138.621
X229.178Y-104.577
X229.178Y-140.577
X230.007Y-101.805
X230.007Y-137.805
T2
X173.013Y-97.019
X173.013Y-98.294
X173.013Y-99.569
X173.013Y-133.019
X173.013Y-134.294
X173.013Y-135.57
X174.288Y-97.019
X174.288Y-98.294
X174.288Y-99.569
X174.288Y-133.019
X174.288Y-134.294
X174.288Y-135.57
X175.563Y-97.019
X175.563Y-98.294
X175.563Y-99.569
X175.563Y-133.019
X175.563Y-134.294
X175.563Y-135.57
X217.013Y-97.019
X217.013Y-98.294
X217.013Y-99.569
X217.013Y-133.019
X217.013Y-134.294
X217.013Y-135.57
X218.288Y-97.019
X218.288Y-98.294
X218.288Y-99.569
X218.288Y-133.019
X218.288Y-134.294
X218.288Y-135.57
X219.563Y-97.019
X219.563Y-98.294
X219.563Y-99.569
X219.563Y-133.019
X219.563Y-134.294
X219.563Y-135.57
T3
X150.3Y-101.018
X150.3Y-137.018
X150.5Y-92.818
X150.5Y-94.018
X150.5Y-128.818
X150.5Y-130.018
X150.9Y-83.618
X150.9Y-89.618
X150.9Y-96.618
X150.9Y-104.118
X150.9Y-105.618
X150.9Y-107.618
X150.9Y-111.618
X150.9Y-116.618
X150.9Y-119.618
X150.9Y-125.618
X150.9Y-132.618
X150.9Y-140.118
X150.9Y-141.618
X150.9Y-143.618
X150.9Y-147.618
X150.9Y-152.618
X151.4Y-84.618
X151.4Y-88.118
X151.4Y-91.118
X151.4Y-120.618
X151.4Y-124.118
X151.4Y-127.118
X151.5Y-92.018
X151.5Y-128.018
X151.7Y-86.618
X151.7Y-122.618
X151.879Y-106.71
X151.879Y-142.71
X151.9Y-94.218
X151.9Y-113.118
X151.9Y-115.118
X151.9Y-130.218
X151.9Y-149.118
X151.9Y-151.118
X152.31Y-88.422
X152.31Y-124.422
X152.387Y-107.168
X152.387Y-143.168
X152.691Y-83.342
X152.691Y-84.663
X152.691Y-119.342
X152.691Y-120.663
X152.7Y-110.618
X152.7Y-146.618
X152.92Y-106.736
X152.92Y-142.736
X153.222Y-116.618
X153.222Y-152.618
X153.281Y-85.528
X153.281Y-121.528
X153.3Y-94.218
X153.3Y-130.218
X153.397Y-97.108
X153.397Y-133.108
X153.4Y-99.118
X153.4Y-100.118
X153.4Y-102.118
X153.4Y-104.118
X153.4Y-135.118
X153.4Y-136.118
X153.4Y-138.118
X153.4Y-140.118
X153.492Y-83.419
X153.492Y-119.419
X153.7Y-92.418
X153.7Y-95.818
X153.7Y-128.418
X153.7Y-131.818
X153.9Y-115.118
X153.9Y-151.118
X154.024Y-112.492
X154.024Y-148.492
X154.317Y-90.404
X154.317Y-126.404
X155.132Y-83.301
X155.132Y-119.301
X155.142Y-83.977
X155.142Y-119.977
X155.181Y-84.739
X155.181Y-120.739
X155.3Y-109.618
X155.3Y-145.618
X155.4Y-116.596
X155.4Y-152.596
X155.638Y-90.404
X155.638Y-126.404
X156.15Y-104.118
X156.15Y-115.618
X156.15Y-140.118
X156.15Y-151.618
X156.4Y-96.618
X156.4Y-114.618
X156.4Y-132.618
X156.4Y-150.618
X156.622Y-92.233
X156.622Y-128.233
X156.65Y-97.868
X156.65Y-133.868
X156.9Y-87.0
X156.9Y-123.0
X157.1Y-95.218
X157.1Y-131.218
X157.289Y-84.968
X157.289Y-120.968
X157.366Y-116.563
X157.366Y-152.563
X157.467Y-84.282
X157.467Y-120.282
X157.492Y-83.622
X157.492Y-119.622
X157.5Y-93.018
X157.5Y-129.018
X157.65Y-96.618
X157.65Y-132.618
X157.7Y-109.618
X157.7Y-145.618
X157.9Y-88.618
X157.9Y-90.118
X157.9Y-124.618
X157.9Y-126.118
X158.0Y-87.0
X158.0Y-123.0
X158.1Y-102.618
X158.1Y-138.618
X158.279Y-93.985
X158.279Y-129.985
X158.3Y-104.218
X158.3Y-140.218
X159.1Y-87.018
X159.1Y-123.018
X159.15Y-103.368
X159.15Y-104.868
X159.15Y-139.368
X159.15Y-140.868
X159.346Y-89.997
X159.346Y-125.997
X159.4Y-98.118
X159.4Y-134.118
X159.727Y-95.484
X159.727Y-131.484
X159.778Y-107.904
X159.778Y-143.904
X159.88Y-108.819
X159.88Y-144.819
X160.4Y-97.118
X160.4Y-113.118
X160.4Y-133.118
X160.4Y-149.118
X160.405Y-107.195
X160.405Y-143.195
X160.9Y-115.118
X160.9Y-151.118
X161.023Y-98.303
X161.023Y-134.303
X161.391Y-86.613
X161.391Y-122.613
X161.4Y-83.618
X161.4Y-85.118
X161.4Y-89.618
X161.4Y-119.618
X161.4Y-121.118
X161.4Y-125.618
X161.429Y-103.789
X161.429Y-139.789
X161.454Y-104.45
X161.454Y-140.45
X161.48Y-106.34
X161.48Y-142.34
X161.505Y-100.157
X161.505Y-136.157
X161.9Y-91.618
X161.9Y-127.618
X162.15Y-96.368
X162.15Y-132.368
X162.3Y-93.018
X162.3Y-129.018
X162.445Y-113.694
X162.445Y-149.694
X162.674Y-107.971
X162.674Y-143.971
X162.75Y-110.216
X162.75Y-146.216
X162.9Y-83.618
X162.9Y-88.118
X162.9Y-89.618
X162.9Y-119.618
X162.9Y-124.118
X162.9Y-125.618
X163.1Y-103.818
X163.1Y-139.818
X163.7Y-91.818
X163.7Y-127.818
X163.791Y-107.98
X163.791Y-143.98
X164.03Y-101.717
X164.03Y-137.717
X164.034Y-103.375
X164.034Y-139.375
X164.121Y-97.246
X164.121Y-133.246
X164.635Y-93.858
X164.635Y-129.858
X164.655Y-100.005
X164.655Y-136.005
X164.664Y-92.555
X164.664Y-128.555
X164.68Y-101.732
X164.68Y-137.732
X164.731Y-103.307
X164.731Y-139.307
X164.822Y-94.635
X164.822Y-130.635
X164.9Y-117.137
X164.9Y-153.137
X165.1Y-108.418
X165.1Y-144.418
X165.239Y-97.77
X165.239Y-133.77
X165.5Y-86.435
X165.5Y-122.435
X165.547Y-93.118
X165.547Y-129.118
X165.9Y-101.868
X165.9Y-137.868
X166.3Y-85.018
X166.3Y-91.018
X166.3Y-121.018
X166.3Y-127.018
X166.7Y-100.218
X166.7Y-136.218
X167.225Y-111.917
X167.225Y-147.917
X167.271Y-101.783
X167.271Y-137.783
X167.65Y-89.118
X167.65Y-125.118
X167.7Y-107.018
X167.7Y-143.018
X167.713Y-97.427
X167.713Y-133.427
X167.9Y-87.894
X167.9Y-113.618
X167.9Y-115.618
X167.9Y-123.894
X167.9Y-149.618
X167.9Y-151.618
X167.906Y-107.879
X167.906Y-143.879
X168.079Y-95.919
X168.079Y-131.919
X168.209Y-101.112
X168.209Y-137.112
X168.236Y-94.976
X168.236Y-130.976
X168.486Y-83.914
X168.486Y-119.914
X168.566Y-109.618
X168.566Y-145.618
X168.65Y-88.868
X168.65Y-124.868
X168.663Y-96.54
X168.663Y-132.54
X168.7Y-93.218
X168.7Y-129.218
X168.753Y-104.888
X168.753Y-140.888
X169.095Y-98.665
X169.095Y-134.665
X169.1Y-103.018
X169.1Y-139.018
X169.392Y-116.612
X169.392Y-152.612
X169.472Y-85.645
X169.472Y-121.645
X169.5Y-94.418
X169.5Y-130.418
X169.608Y-93.096
X169.608Y-129.096
X169.65Y-88.368
X169.65Y-124.368
X169.755Y-95.372
X169.755Y-131.372
X169.9Y-91.218
X169.9Y-106.618
X169.9Y-110.618
X169.9Y-127.218
X169.9Y-142.618
X169.9Y-146.618
X169.913Y-98.695
X169.913Y-134.695
X170.15Y-101.868
X170.15Y-137.868
X170.348Y-89.248
X170.348Y-125.248
X170.4Y-86.118
X170.4Y-122.118
X170.744Y-93.764
X170.744Y-129.764
X170.802Y-109.301
X170.802Y-145.301
X170.9Y-116.618
X170.9Y-152.618
X171.3Y-102.818
X171.3Y-138.818
X171.4Y-106.618
X171.4Y-142.618
X171.65Y-108.868
X171.65Y-110.118
X171.65Y-144.868
X171.65Y-146.118
X171.9Y-85.618
X171.9Y-121.618
X172.7Y-89.418
X172.7Y-125.418
X172.9Y-84.818
X172.9Y-116.618
X172.9Y-120.818
X172.9Y-152.618
X173.138Y-100.494
X173.138Y-136.494
X173.4Y-86.118
X173.4Y-122.118
X173.446Y-93.889
X173.446Y-129.889
X173.494Y-87.77
X173.494Y-123.77
X173.672Y-96.22
X173.672Y-132.22
X173.9Y-85.118
X173.9Y-121.118
X174.1Y-83.218
X174.1Y-119.218
X174.152Y-91.614
X174.152Y-127.614
X174.189Y-103.002
X174.189Y-139.002
X174.5Y-110.418
X174.5Y-146.418
X174.9Y-84.118
X174.9Y-85.618
X174.9Y-116.618
X174.9Y-120.118
X174.9Y-121.618
X174.9Y-152.618
X175.145Y-91.94
X175.145Y-127.94
X175.4Y-87.118
X175.4Y-123.118
X175.781Y-106.862
X175.781Y-142.862
X176.369Y-92.867
X176.369Y-128.867
X176.387Y-109.141
X176.387Y-145.141
X176.394Y-86.611
X176.394Y-122.611
X176.4Y-83.618
X176.4Y-85.118
X176.4Y-88.118
X176.4Y-107.618
X176.4Y-119.618
X176.4Y-121.118
X176.4Y-124.118
X176.4Y-143.618
X176.771Y-95.865
X176.771Y-131.865
X176.9Y-116.618
X176.9Y-152.618
X177.7Y-110.018
X177.7Y-111.618
X177.7Y-146.018
X177.7Y-147.618
X177.9Y-102.118
X177.9Y-138.118
X178.068Y-93.295
X178.068Y-129.295
X178.5Y-115.418
X178.5Y-151.418
X178.7Y-87.418
X178.7Y-88.418
X178.7Y-92.418
X178.7Y-123.418
X178.7Y-124.418
X178.7Y-128.418
X178.701Y-101.656
X178.701Y-137.656
X178.9Y-83.118
X178.9Y-84.118
X178.9Y-85.618
X178.9Y-90.218
X178.9Y-91.218
X178.9Y-113.418
X178.9Y-119.118
X178.9Y-120.118
X178.9Y-121.618
X178.9Y-126.218
X178.9Y-127.218
X178.9Y-149.418
X179.234Y-110.863
X179.234Y-146.863
X179.636Y-97.206
X179.636Y-133.206
X179.7Y-106.418
X179.7Y-108.418
X179.7Y-142.418
X179.7Y-144.418
X179.819Y-84.943
X179.819Y-120.943
X180.022Y-86.06
X180.022Y-122.06
X180.073Y-90.226
X180.073Y-126.226
X180.4Y-95.052
X180.4Y-131.052
X180.441Y-83.495
X180.441Y-84.231
X180.441Y-119.495
X180.441Y-120.231
X180.7Y-115.018
X180.7Y-151.018
X180.896Y-107.098
X180.896Y-143.098
X180.9Y-105.618
X180.9Y-108.618
X180.9Y-141.618
X180.9Y-144.618
X181.7Y-113.818
X181.7Y-116.618
X181.7Y-149.818
X181.7Y-152.618
X182.09Y-83.618
X182.09Y-84.333
X182.09Y-119.618
X182.09Y-120.333
X182.191Y-92.996
X182.191Y-128.996
X182.4Y-84.924
X182.4Y-120.924
X182.9Y-105.618
X182.9Y-107.118
X182.9Y-108.618
X182.9Y-115.018
X182.9Y-141.618
X182.9Y-143.118
X182.9Y-144.618
X182.9Y-151.018
X184.3Y-84.418
X184.3Y-120.418
X184.4Y-94.118
X184.4Y-130.118
X184.587Y-99.719
X184.587Y-135.719
X184.822Y-83.622
X184.822Y-119.622
X185.028Y-84.399
X185.028Y-120.399
X185.102Y-113.518
X185.102Y-149.518
X185.4Y-88.118
X185.4Y-124.118
X185.9Y-84.618
X185.9Y-86.118
X185.9Y-115.118
X185.9Y-120.618
X185.9Y-122.118
X185.9Y-151.118
X186.092Y-97.719
X186.092Y-133.719
X186.4Y-89.618
X186.4Y-110.118
X186.4Y-116.618
X186.4Y-125.618
X186.4Y-146.118
X186.4Y-152.618
X186.9Y-83.618
X186.9Y-119.618
X194.3Y-101.018
X194.3Y-137.018
X194.5Y-92.818
X194.5Y-94.018
X194.5Y-128.818
X194.5Y-130.018
X194.9Y-83.618
X194.9Y-89.618
X194.9Y-96.618
X194.9Y-104.118
X194.9Y-105.618
X194.9Y-107.618
X194.9Y-111.618
X194.9Y-116.618
X194.9Y-119.618
X194.9Y-125.618
X194.9Y-132.618
X194.9Y-140.118
X194.9Y-141.618
X194.9Y-143.618
X194.9Y-147.618
X194.9Y-152.618
X195.4Y-84.618
X195.4Y-88.118
X195.4Y-91.118
X195.4Y-120.618
X195.4Y-124.118
X195.4Y-127.118
X195.5Y-92.018
X195.5Y-128.018
X195.7Y-86.618
X195.7Y-122.618
X195.879Y-106.71
X195.879Y-142.71
X195.9Y-94.218
X195.9Y-113.118
X195.9Y-115.118
X195.9Y-130.218
X195.9Y-149.118
X195.9Y-151.118
X196.31Y-88.422
X196.31Y-124.422
X196.387Y-107.168
X196.387Y-143.168
X196.691Y-83.342
X196.691Y-84.663
X196.691Y-119.342
X196.691Y-120.663
X196.7Y-110.618
X196.7Y-146.618
X196.92Y-106.736
X196.92Y-142.736
X197.222Y-116.618
X197.222Y-152.618
X197.281Y-85.528
X197.281Y-121.528
X197.3Y-94.218
X197.3Y-130.218
X197.397Y-97.108
X197.397Y-133.108
X197.4Y-99.118
X197.4Y-100.118
X197.4Y-102.118
X197.4Y-104.118
X197.4Y-135.118
X197.4Y-136.118
X197.4Y-138.118
X197.4Y-140.118
X197.492Y-83.419
X197.492Y-119.419
X197.7Y-92.418
X197.7Y-95.818
X197.7Y-128.418
X197.7Y-131.818
X197.9Y-115.118
X197.9Y-151.118
X198.024Y-112.492
X198.024Y-148.492
X198.317Y-90.404
X198.317Y-126.404
X199.132Y-83.301
X199.132Y-119.301
X199.142Y-83.977
X199.142Y-119.977
X199.181Y-84.739
X199.181Y-120.739
X199.3Y-109.618
X199.3Y-145.618
X199.4Y-116.596
X199.4Y-152.596
X199.638Y-90.404
X199.638Y-126.404
X200.15Y-104.118
X200.15Y-115.618
X200.15Y-140.118
X200.15Y-151.618
X200.4Y-96.618
X200.4Y-114.618
X200.4Y-132.618
X200.4Y-150.618
X200.622Y-92.233
X200.622Y-128.233
X200.65Y-97.868
X200.65Y-133.868
X200.9Y-87.0
X200.9Y-123.0
X201.1Y-95.218
X201.1Y-131.218
X201.289Y-84.968
X201.289Y-120.968
X201.366Y-116.563
X201.366Y-152.563
X201.467Y-84.282
X201.467Y-120.282
X201.492Y-83.622
X201.492Y-119.622
X201.5Y-93.018
X201.5Y-129.018
X201.65Y-96.618
X201.65Y-132.618
X201.7Y-109.618
X201.7Y-145.618
X201.9Y-88.618
X201.9Y-90.118
X201.9Y-124.618
X201.9Y-126.118
X202.0Y-87.0
X202.0Y-123.0
X202.1Y-102.618
X202.1Y-138.618
X202.279Y-93.985
X202.279Y-129.985
X202.3Y-104.218
X202.3Y-140.218
X203.1Y-87.018
X203.1Y-123.018
X203.15Y-103.368
X203.15Y-104.868
X203.15Y-139.368
X203.15Y-140.868
X203.346Y-89.997
X203.346Y-125.997
X203.4Y-98.118
X203.4Y-134.118
X203.727Y-95.484
X203.727Y-131.484
X203.778Y-107.904
X203.778Y-143.904
X203.88Y-108.819
X203.88Y-144.819
X204.4Y-97.118
X204.4Y-113.118
X204.4Y-133.118
X204.4Y-149.118
X204.405Y-107.195
X204.405Y-143.195
X204.9Y-115.118
X204.9Y-151.118
X205.023Y-98.303
X205.023Y-134.303
X205.391Y-86.613
X205.391Y-122.613
X205.4Y-83.618
X205.4Y-85.118
X205.4Y-89.618
X205.4Y-119.618
X205.4Y-121.118
X205.4Y-125.618
X205.429Y-103.789
X205.429Y-139.789
X205.454Y-104.45
X205.454Y-140.45
X205.48Y-106.34
X205.48Y-142.34
X205.505Y-100.157
X205.505Y-136.157
X205.9Y-91.618
X205.9Y-127.618
X206.15Y-96.368
X206.15Y-132.368
X206.3Y-93.018
X206.3Y-129.018
X206.445Y-113.694
X206.445Y-149.694
X206.674Y-107.971
X206.674Y-143.971
X206.75Y-110.216
X206.75Y-146.216
X206.9Y-83.618
X206.9Y-88.118
X206.9Y-89.618
X206.9Y-119.618
X206.9Y-124.118
X206.9Y-125.618
X207.1Y-103.818
X207.1Y-139.818
X207.7Y-91.818
X207.7Y-127.818
X207.791Y-107.98
X207.791Y-143.98
X208.03Y-101.717
X208.03Y-137.717
X208.034Y-103.375
X208.034Y-139.375
X208.121Y-97.246
X208.121Y-133.246
X208.635Y-93.858
X208.635Y-129.858
X208.655Y-100.005
X208.655Y-136.005
X208.664Y-92.555
X208.664Y-128.555
X208.68Y-101.732
X208.68Y-137.732
X208.731Y-103.307
X208.731Y-139.307
X208.822Y-94.635
X208.822Y-130.635
X208.9Y-117.137
X208.9Y-153.137
X209.1Y-108.418
X209.1Y-144.418
X209.239Y-97.77
X209.239Y-133.77
X209.5Y-86.435
X209.5Y-122.435
X209.547Y-93.118
X209.547Y-129.118
X209.9Y-101.868
X209.9Y-137.868
X210.3Y-85.018
X210.3Y-91.018
X210.3Y-121.018
X210.3Y-127.018
X210.7Y-100.218
X210.7Y-136.218
X211.225Y-111.917
X211.225Y-147.917
X211.271Y-101.783
X211.271Y-137.783
X211.65Y-89.118
X211.65Y-125.118
X211.7Y-107.018
X211.7Y-143.018
X211.713Y-97.427
X211.713Y-133.427
X211.9Y-87.894
X211.9Y-113.618
X211.9Y-115.618
X211.9Y-123.894
X211.9Y-149.618
X211.9Y-151.618
X211.906Y-107.879
X211.906Y-143.879
X212.079Y-95.919
X212.079Y-131.919
X212.209Y-101.112
X212.209Y-137.112
X212.236Y-94.976
X212.236Y-130.976
X212.486Y-83.914
X212.486Y-119.914
X212.566Y-109.618
X212.566Y-145.618
X212.65Y-88.868
X212.65Y-124.868
X212.663Y-96.54
X212.663Y-132.54
X212.7Y-93.218
X212.7Y-129.218
X212.753Y-104.888
X212.753Y-140.888
X213.095Y-98.665
X213.095Y-134.665
X213.1Y-103.018
X213.1Y-139.018
X213.392Y-116.612
X213.392Y-152.612
X213.472Y-85.645
X213.472Y-121.645
X213.5Y-94.418
X213.5Y-130.418
X213.608Y-93.096
X213.608Y-129.096
X213.65Y-88.368
X213.65Y-124.368
X213.755Y-95.372
X213.755Y-131.372
X213.9Y-91.218
X213.9Y-106.618
X213.9Y-110.618
X213.9Y-127.218
X213.9Y-142.618
X213.9Y-146.618
X213.913Y-98.695
X213.913Y-134.695
X214.15Y-101.868
X214.15Y-137.868
X214.348Y-89.248
X214.348Y-125.248
X214.4Y-86.118
X214.4Y-122.118
X214.744Y-93.764
X214.744Y-129.764
X214.802Y-109.301
X214.802Y-145.301
X214.9Y-116.618
X214.9Y-152.618
X215.3Y-102.818
X215.3Y-138.818
X215.4Y-106.618
X215.4Y-142.618
X215.65Y-108.868
X215.65Y-110.118
X215.65Y-144.868
X215.65Y-146.118
X215.9Y-85.618
X215.9Y-121.618
X216.7Y-89.418
X216.7Y-125.418
X216.9Y-84.818
X216.9Y-116.618
X216.9Y-120.818
X216.9Y-152.618
X217.138Y-100.494
X217.138Y-136.494
X217.4Y-86.118
X217.4Y-122.118
X217.446Y-93.889
X217.446Y-129.889
X217.494Y-87.77
X217.494Y-123.77
X217.672Y-96.22
X217.672Y-132.22
X217.9Y-85.118
X217.9Y-121.118
X218.1Y-83.218
X218.1Y-119.218
X218.152Y-91.614
X218.152Y-127.614
X218.188Y-103.002
X218.188Y-139.002
X218.5Y-110.418
X218.5Y-146.418
X218.9Y-84.118
X218.9Y-85.618
X218.9Y-116.618
X218.9Y-120.118
X218.9Y-121.618
X218.9Y-152.618
X219.145Y-91.94
X219.145Y-127.94
X219.4Y-87.118
X219.4Y-123.118
X219.781Y-106.862
X219.781Y-142.862
X220.369Y-92.867
X220.369Y-128.867
X220.387Y-109.141
X220.387Y-145.141
X220.394Y-86.611
X220.394Y-122.611
X220.4Y-83.618
X220.4Y-85.118
X220.4Y-88.118
X220.4Y-107.618
X220.4Y-119.618
X220.4Y-121.118
X220.4Y-124.118
X220.4Y-143.618
X220.771Y-95.865
X220.771Y-131.865
X220.9Y-116.618
X220.9Y-152.618
X221.7Y-110.018
X221.7Y-111.618
X221.7Y-146.018
X221.7Y-147.618
X221.9Y-102.118
X221.9Y-138.118
X222.068Y-93.295
X222.068Y-129.295
X222.5Y-115.418
X222.5Y-151.418
X222.7Y-87.418
X222.7Y-88.418
X222.7Y-92.418
X222.7Y-123.418
X222.7Y-124.418
X222.7Y-128.418
X222.701Y-101.656
X222.701Y-137.656
X222.9Y-83.118
X222.9Y-84.118
X222.9Y-85.618
X222.9Y-90.218
X222.9Y-91.218
X222.9Y-113.418
X222.9Y-119.118
X222.9Y-120.118
X222.9Y-121.618
X222.9Y-126.218
X222.9Y-127.218
X222.9Y-149.418
X223.234Y-110.863
X223.234Y-146.863
X223.636Y-97.206
X223.636Y-133.206
X223.7Y-106.418
X223.7Y-108.418
X223.7Y-142.418
X223.7Y-144.418
X223.819Y-84.943
X223.819Y-120.943
X224.022Y-86.06
X224.022Y-122.06
X224.073Y-90.226
X224.073Y-126.226
X224.4Y-95.052
X224.4Y-131.052
X224.441Y-83.495
X224.441Y-84.231
X224.441Y-119.495
X224.441Y-120.231
X224.7Y-115.018
X224.7Y-151.018
X224.896Y-107.098
X224.896Y-143.098
X224.9Y-105.618
X224.9Y-108.618
X224.9Y-141.618
X224.9Y-144.618
X225.7Y-113.818
X225.7Y-116.618
X225.7Y-149.818
X225.7Y-152.618
X226.09Y-83.618
X226.09Y-84.333
X226.09Y-119.618
X226.09Y-120.333
X226.191Y-92.996
X226.191Y-128.996
X226.4Y-84.924
X226.4Y-120.924
X226.9Y-105.618
X226.9Y-107.118
X226.9Y-108.618
X226.9Y-115.018
X226.9Y-141.618
X226.9Y-143.118
X226.9Y-144.618
X226.9Y-151.018
X228.3Y-84.418
X228.3Y-120.418
X228.4Y-94.118
X228.4Y-130.118
X228.587Y-99.719
X228.587Y-135.719
X228.822Y-83.622
X228.822Y-119.622
X229.028Y-84.399
X229.028Y-120.399
X229.102Y-113.518
X229.102Y-149.518
X229.4Y-88.118
X229.4Y-124.118
X229.9Y-84.618
X229.9Y-86.118
X229.9Y-115.118
X229.9Y-120.618
X229.9Y-122.118
X229.9Y-151.118
X230.092Y-97.719
X230.092Y-133.719
X230.4Y-89.618
X230.4Y-110.118
X230.4Y-116.618
X230.4Y-125.618
X230.4Y-146.118
X230.4Y-152.618
X230.9Y-83.618
X230.9Y-119.618
T4
X154.737Y-110.927
X154.737Y-146.927
X156.737Y-110.927
X156.737Y-146.927
X158.737Y-110.927
X158.737Y-146.927
X198.737Y-110.927
X198.737Y-146.927
X200.737Y-110.927
X200.737Y-146.927
X202.737Y-110.927
X202.737Y-146.927
T5
X170.938Y-111.898
X170.938Y-147.898
X175.938Y-111.898
X175.938Y-147.898
X214.938Y-111.898
X214.938Y-147.898
X219.938Y-111.898
X219.938Y-147.898
T6
X169.938Y-114.598
X169.938Y-150.598
X176.938Y-114.598
X176.938Y-150.598
X213.938Y-114.598
X213.938Y-150.598
X220.938Y-114.598
X220.938Y-150.598
T7
X149.9Y-86.618
X149.9Y-113.618
X149.9Y-122.618
X149.9Y-149.618
X187.9Y-86.543
X187.9Y-113.618
X187.9Y-113.618
X187.9Y-122.543
X187.9Y-149.618
X187.9Y-149.618
X193.9Y-86.618
X193.9Y-113.618
X193.9Y-122.618
X193.9Y-149.618
X231.9Y-86.543
X231.9Y-113.618
X231.9Y-113.618
X231.9Y-122.543
X231.9Y-149.618
X231.9Y-149.618
T0
M30
