%TF.GenerationSoftware,KiCad,Pcbnew,(6.0.4)*%
%TF.CreationDate,2022-09-20T04:44:20+09:00*%
%TF.ProjectId,mainboard_p,6d61696e-626f-4617-9264-5f702e6b6963,rev?*%
%TF.SameCoordinates,Original*%
%TF.FileFunction,Soldermask,Bot*%
%TF.FilePolarity,Negative*%
%FSLAX46Y46*%
G04 Gerber Fmt 4.6, Leading zero omitted, Abs format (unit mm)*
G04 Created by KiCad (PCBNEW (6.0.4)) date 2022-09-20 04:44:20*
%MOMM*%
%LPD*%
G01*
G04 APERTURE LIST*
G04 Aperture macros list*
%AMRoundRect*
0 Rectangle with rounded corners*
0 $1 Rounding radius*
0 $2 $3 $4 $5 $6 $7 $8 $9 X,Y pos of 4 corners*
0 Add a 4 corners polygon primitive as box body*
4,1,4,$2,$3,$4,$5,$6,$7,$8,$9,$2,$3,0*
0 Add four circle primitives for the rounded corners*
1,1,$1+$1,$2,$3*
1,1,$1+$1,$4,$5*
1,1,$1+$1,$6,$7*
1,1,$1+$1,$8,$9*
0 Add four rect primitives between the rounded corners*
20,1,$1+$1,$2,$3,$4,$5,0*
20,1,$1+$1,$4,$5,$6,$7,0*
20,1,$1+$1,$6,$7,$8,$9,0*
20,1,$1+$1,$8,$9,$2,$3,0*%
G04 Aperture macros list end*
%ADD10C,2.200000*%
%ADD11RoundRect,0.250000X-0.325000X-0.650000X0.325000X-0.650000X0.325000X0.650000X-0.325000X0.650000X0*%
%ADD12R,1.200000X0.900000*%
%ADD13RoundRect,0.250000X-0.650000X0.325000X-0.650000X-0.325000X0.650000X-0.325000X0.650000X0.325000X0*%
%ADD14O,2.000000X1.350000*%
%ADD15R,2.000000X1.350000*%
%ADD16RoundRect,0.225000X0.225000X0.250000X-0.225000X0.250000X-0.225000X-0.250000X0.225000X-0.250000X0*%
%ADD17O,1.200000X1.750000*%
%ADD18RoundRect,0.250000X0.350000X0.625000X-0.350000X0.625000X-0.350000X-0.625000X0.350000X-0.625000X0*%
%ADD19RoundRect,0.225000X-0.225000X-0.250000X0.225000X-0.250000X0.225000X0.250000X-0.225000X0.250000X0*%
%ADD20O,1.350000X2.000000*%
%ADD21R,1.350000X2.000000*%
%ADD22R,1.300000X0.600000*%
%ADD23R,3.200000X1.750000*%
%ADD24R,0.950000X1.750000*%
%ADD25RoundRect,0.237500X0.237500X-0.250000X0.237500X0.250000X-0.237500X0.250000X-0.237500X-0.250000X0*%
%ADD26R,1.700000X1.700000*%
%ADD27RoundRect,0.250000X0.325000X0.650000X-0.325000X0.650000X-0.325000X-0.650000X0.325000X-0.650000X0*%
%ADD28RoundRect,0.250000X0.650000X-0.325000X0.650000X0.325000X-0.650000X0.325000X-0.650000X-0.325000X0*%
%ADD29RoundRect,0.225000X-0.250000X0.225000X-0.250000X-0.225000X0.250000X-0.225000X0.250000X0.225000X0*%
%ADD30C,1.875000*%
%ADD31C,1.515000*%
%ADD32RoundRect,0.225000X0.250000X-0.225000X0.250000X0.225000X-0.250000X0.225000X-0.250000X-0.225000X0*%
G04 APERTURE END LIST*
D10*
%TO.C,REF\u002A\u002A16*%
X231900400Y-122542800D03*
%TD*%
D11*
%TO.C,C116*%
X227579600Y-128994400D03*
X224629600Y-128994400D03*
%TD*%
D12*
%TO.C,D7*%
X214446000Y-144004800D03*
X214446000Y-140704800D03*
%TD*%
D13*
%TO.C,C112*%
X202000000Y-124475000D03*
X202000000Y-121525000D03*
%TD*%
%TO.C,C110*%
X206445000Y-147995400D03*
X206445000Y-145045400D03*
%TD*%
D14*
%TO.C,J31*%
X209645400Y-149787600D03*
D15*
X209645400Y-151787600D03*
%TD*%
D16*
%TO.C,C105*%
X216084000Y-127267200D03*
X217634000Y-127267200D03*
%TD*%
D14*
%TO.C,J33*%
X198977400Y-134071600D03*
X198977400Y-136071600D03*
X198977400Y-138071600D03*
D15*
X198977400Y-140071600D03*
%TD*%
D17*
%TO.C,J28*%
X198736600Y-146926800D03*
X200736600Y-146926800D03*
D18*
X202736600Y-146926800D03*
%TD*%
D14*
%TO.C,J32*%
X195853200Y-134117600D03*
X195853200Y-136117600D03*
X195853200Y-138117600D03*
D15*
X195853200Y-140117600D03*
%TD*%
D19*
%TO.C,C103*%
X224796800Y-131051800D03*
X223246800Y-131051800D03*
%TD*%
D20*
%TO.C,M8*%
X199190000Y-120028200D03*
D21*
X197190000Y-120028200D03*
%TD*%
D22*
%TO.C,Q12*%
X208478600Y-146215600D03*
X210578600Y-147165600D03*
X210578600Y-145265600D03*
%TD*%
D23*
%TO.C,IC14*%
X205479800Y-136664800D03*
D24*
X203179800Y-142964800D03*
X205479800Y-142964800D03*
X207779800Y-142964800D03*
%TD*%
D25*
%TO.C,R79*%
X225037800Y-122646300D03*
X225037800Y-124471300D03*
%TD*%
D19*
%TO.C,C99*%
X211309400Y-139281400D03*
X209759400Y-139281400D03*
%TD*%
D26*
%TO.C,REF\u002A\u002A18*%
X228400400Y-120117600D03*
%TD*%
%TO.C,REF\u002A\u002A17*%
X202050800Y-120206000D03*
%TD*%
D25*
%TO.C,R81*%
X223539200Y-122646300D03*
X223539200Y-124471300D03*
%TD*%
D19*
%TO.C,C96*%
X224720600Y-137681200D03*
X223170600Y-137681200D03*
%TD*%
D25*
%TO.C,R80*%
X198672600Y-122189100D03*
X198672600Y-124014100D03*
%TD*%
D27*
%TO.C,C109*%
X197756400Y-142913600D03*
X200706400Y-142913600D03*
%TD*%
D28*
%TO.C,C108*%
X206445000Y-149693600D03*
X206445000Y-152643600D03*
%TD*%
D19*
%TO.C,R75*%
X206991400Y-133845800D03*
X205441400Y-133845800D03*
%TD*%
D28*
%TO.C,C107*%
X212769600Y-145604200D03*
X212769600Y-148554200D03*
%TD*%
D19*
%TO.C,R70*%
X224771400Y-136157200D03*
X223221400Y-136157200D03*
%TD*%
D29*
%TO.C,C98*%
X228873200Y-148463800D03*
X228873200Y-146913800D03*
%TD*%
D13*
%TO.C,C113*%
X228543000Y-138443200D03*
X228543000Y-135493200D03*
%TD*%
D10*
%TO.C,5*%
X231900400Y-149617600D03*
%TD*%
D26*
%TO.C,6*%
X202025400Y-144209000D03*
%TD*%
D10*
%TO.C,REF\u002A\u002A13*%
X193900400Y-149617600D03*
%TD*%
%TO.C,REF\u002A\u002A15*%
X193900400Y-122617600D03*
%TD*%
D30*
%TO.C,J29*%
X220938100Y-150598350D03*
X213938100Y-150598350D03*
D31*
X219938100Y-147898350D03*
X214938100Y-147898350D03*
%TD*%
D32*
%TO.C,C92*%
X219094200Y-126504600D03*
X219094200Y-128054600D03*
%TD*%
D25*
%TO.C,R82*%
X197199400Y-122189100D03*
X197199400Y-124014100D03*
%TD*%
D16*
%TO.C,C93*%
X216109400Y-128740400D03*
X217659400Y-128740400D03*
%TD*%
D20*
%TO.C,M7*%
X226306800Y-120231400D03*
D21*
X224306800Y-120231400D03*
%TD*%
D15*
%TO.C,J36*%
X230067000Y-129747000D03*
D14*
X230067000Y-131747000D03*
%TD*%
D13*
%TO.C,C95*%
X227908000Y-125592600D03*
X227908000Y-122642600D03*
%TD*%
D32*
%TO.C,C101*%
X219195800Y-143586400D03*
X219195800Y-145136400D03*
%TD*%
D10*
%TO.C,REF\u002A\u002A14*%
X231900400Y-149617600D03*
%TD*%
%TO.C,REF\u002A\u002A10*%
X187900400Y-122542800D03*
%TD*%
D11*
%TO.C,C86*%
X183579600Y-128994400D03*
X180629600Y-128994400D03*
%TD*%
D12*
%TO.C,D5*%
X170446000Y-144004800D03*
X170446000Y-140704800D03*
%TD*%
D13*
%TO.C,C82*%
X158000000Y-124475000D03*
X158000000Y-121525000D03*
%TD*%
%TO.C,C80*%
X162445000Y-147995400D03*
X162445000Y-145045400D03*
%TD*%
D14*
%TO.C,J22*%
X165645400Y-149787600D03*
D15*
X165645400Y-151787600D03*
%TD*%
D16*
%TO.C,C75*%
X172084000Y-127267200D03*
X173634000Y-127267200D03*
%TD*%
D14*
%TO.C,J24*%
X154977400Y-134071600D03*
X154977400Y-136071600D03*
X154977400Y-138071600D03*
D15*
X154977400Y-140071600D03*
%TD*%
D17*
%TO.C,J19*%
X154736600Y-146926800D03*
X156736600Y-146926800D03*
D18*
X158736600Y-146926800D03*
%TD*%
D14*
%TO.C,J23*%
X151853200Y-134117600D03*
X151853200Y-136117600D03*
X151853200Y-138117600D03*
D15*
X151853200Y-140117600D03*
%TD*%
D19*
%TO.C,C73*%
X180796800Y-131051800D03*
X179246800Y-131051800D03*
%TD*%
D20*
%TO.C,M6*%
X155190000Y-120028200D03*
D21*
X153190000Y-120028200D03*
%TD*%
D22*
%TO.C,Q9*%
X164478600Y-146215600D03*
X166578600Y-147165600D03*
X166578600Y-145265600D03*
%TD*%
D23*
%TO.C,IC6*%
X161479800Y-136664800D03*
D24*
X159179800Y-142964800D03*
X161479800Y-142964800D03*
X163779800Y-142964800D03*
%TD*%
D25*
%TO.C,R58*%
X181037800Y-122646300D03*
X181037800Y-124471300D03*
%TD*%
D19*
%TO.C,C69*%
X167309400Y-139281400D03*
X165759400Y-139281400D03*
%TD*%
D26*
%TO.C,REF\u002A\u002A12*%
X184400400Y-120117600D03*
%TD*%
%TO.C,REF\u002A\u002A11*%
X158050800Y-120206000D03*
%TD*%
D25*
%TO.C,R60*%
X179539200Y-122646300D03*
X179539200Y-124471300D03*
%TD*%
D19*
%TO.C,C66*%
X180720600Y-137681200D03*
X179170600Y-137681200D03*
%TD*%
D25*
%TO.C,R59*%
X154672600Y-122189100D03*
X154672600Y-124014100D03*
%TD*%
D27*
%TO.C,C79*%
X153756400Y-142913600D03*
X156706400Y-142913600D03*
%TD*%
D28*
%TO.C,C78*%
X162445000Y-149693600D03*
X162445000Y-152643600D03*
%TD*%
D19*
%TO.C,R54*%
X162991400Y-133845800D03*
X161441400Y-133845800D03*
%TD*%
D28*
%TO.C,C77*%
X168769600Y-145604200D03*
X168769600Y-148554200D03*
%TD*%
D19*
%TO.C,R49*%
X180771400Y-136157200D03*
X179221400Y-136157200D03*
%TD*%
D29*
%TO.C,C68*%
X184873200Y-148463800D03*
X184873200Y-146913800D03*
%TD*%
D13*
%TO.C,C83*%
X184543000Y-138443200D03*
X184543000Y-135493200D03*
%TD*%
D10*
%TO.C,3*%
X187900400Y-149617600D03*
%TD*%
D26*
%TO.C,4*%
X158025400Y-144209000D03*
%TD*%
D10*
%TO.C,REF\u002A\u002A7*%
X149900400Y-149617600D03*
%TD*%
%TO.C,REF\u002A\u002A9*%
X149900400Y-122617600D03*
%TD*%
D30*
%TO.C,J20*%
X176938100Y-150598350D03*
X169938100Y-150598350D03*
D31*
X175938100Y-147898350D03*
X170938100Y-147898350D03*
%TD*%
D32*
%TO.C,C62*%
X175094200Y-126504600D03*
X175094200Y-128054600D03*
%TD*%
D25*
%TO.C,R61*%
X153199400Y-122189100D03*
X153199400Y-124014100D03*
%TD*%
D16*
%TO.C,C63*%
X172109400Y-128740400D03*
X173659400Y-128740400D03*
%TD*%
D20*
%TO.C,M5*%
X182306800Y-120231400D03*
D21*
X180306800Y-120231400D03*
%TD*%
D15*
%TO.C,J27*%
X186067000Y-129747000D03*
D14*
X186067000Y-131747000D03*
%TD*%
D13*
%TO.C,C65*%
X183908000Y-125592600D03*
X183908000Y-122642600D03*
%TD*%
D32*
%TO.C,C71*%
X175195800Y-143586400D03*
X175195800Y-145136400D03*
%TD*%
D10*
%TO.C,REF\u002A\u002A8*%
X187900400Y-149617600D03*
%TD*%
%TO.C,REF\u002A\u002A4*%
X231900400Y-86542800D03*
%TD*%
D11*
%TO.C,C56*%
X227579600Y-92994400D03*
X224629600Y-92994400D03*
%TD*%
D12*
%TO.C,D2*%
X214446000Y-108004800D03*
X214446000Y-104704800D03*
%TD*%
D13*
%TO.C,C52*%
X202000000Y-88475000D03*
X202000000Y-85525000D03*
%TD*%
%TO.C,C50*%
X206445000Y-111995400D03*
X206445000Y-109045400D03*
%TD*%
D14*
%TO.C,J13*%
X209645400Y-113787600D03*
D15*
X209645400Y-115787600D03*
%TD*%
D16*
%TO.C,C45*%
X216084000Y-91267200D03*
X217634000Y-91267200D03*
%TD*%
D14*
%TO.C,J15*%
X198977400Y-98071600D03*
X198977400Y-100071600D03*
X198977400Y-102071600D03*
D15*
X198977400Y-104071600D03*
%TD*%
D17*
%TO.C,J8*%
X198736600Y-110926800D03*
X200736600Y-110926800D03*
D18*
X202736600Y-110926800D03*
%TD*%
D14*
%TO.C,J14*%
X195853200Y-98117600D03*
X195853200Y-100117600D03*
X195853200Y-102117600D03*
D15*
X195853200Y-104117600D03*
%TD*%
D19*
%TO.C,C43*%
X224796800Y-95051800D03*
X223246800Y-95051800D03*
%TD*%
D20*
%TO.C,M4*%
X199190000Y-84028200D03*
D21*
X197190000Y-84028200D03*
%TD*%
D22*
%TO.C,Q8*%
X208478600Y-110215600D03*
X210578600Y-111165600D03*
X210578600Y-109265600D03*
%TD*%
D23*
%TO.C,IC4*%
X205479800Y-100664800D03*
D24*
X203179800Y-106964800D03*
X205479800Y-106964800D03*
X207779800Y-106964800D03*
%TD*%
D25*
%TO.C,R37*%
X225037800Y-86646300D03*
X225037800Y-88471300D03*
%TD*%
D19*
%TO.C,C39*%
X211309400Y-103281400D03*
X209759400Y-103281400D03*
%TD*%
D26*
%TO.C,REF\u002A\u002A6*%
X228400400Y-84117600D03*
%TD*%
%TO.C,REF\u002A\u002A5*%
X202050800Y-84206000D03*
%TD*%
D25*
%TO.C,R39*%
X223539200Y-86646300D03*
X223539200Y-88471300D03*
%TD*%
D19*
%TO.C,C31*%
X224720600Y-101681200D03*
X223170600Y-101681200D03*
%TD*%
D25*
%TO.C,R38*%
X198672600Y-86189100D03*
X198672600Y-88014100D03*
%TD*%
D27*
%TO.C,C49*%
X197756400Y-106913600D03*
X200706400Y-106913600D03*
%TD*%
D28*
%TO.C,C48*%
X206445000Y-113693600D03*
X206445000Y-116643600D03*
%TD*%
D19*
%TO.C,R33*%
X206991400Y-97845800D03*
X205441400Y-97845800D03*
%TD*%
D28*
%TO.C,C47*%
X212769600Y-109604200D03*
X212769600Y-112554200D03*
%TD*%
D19*
%TO.C,R28*%
X224771400Y-100157200D03*
X223221400Y-100157200D03*
%TD*%
D29*
%TO.C,C38*%
X228873200Y-112463800D03*
X228873200Y-110913800D03*
%TD*%
D13*
%TO.C,C53*%
X228543000Y-102443200D03*
X228543000Y-99493200D03*
%TD*%
D10*
%TO.C,1*%
X231900400Y-113617600D03*
%TD*%
D26*
%TO.C,2*%
X202025400Y-108209000D03*
%TD*%
D10*
%TO.C,REF\u002A\u002A1*%
X193900400Y-113617600D03*
%TD*%
%TO.C,REF\u002A\u002A3*%
X193900400Y-86617600D03*
%TD*%
D30*
%TO.C,J9*%
X220938100Y-114598350D03*
X213938100Y-114598350D03*
D31*
X219938100Y-111898350D03*
X214938100Y-111898350D03*
%TD*%
D32*
%TO.C,C25*%
X219094200Y-90504600D03*
X219094200Y-92054600D03*
%TD*%
D25*
%TO.C,R40*%
X197199400Y-86189100D03*
X197199400Y-88014100D03*
%TD*%
D16*
%TO.C,C27*%
X216109400Y-92740400D03*
X217659400Y-92740400D03*
%TD*%
D20*
%TO.C,M3*%
X226306800Y-84231400D03*
D21*
X224306800Y-84231400D03*
%TD*%
D15*
%TO.C,J18*%
X230067000Y-93747000D03*
D14*
X230067000Y-95747000D03*
%TD*%
D13*
%TO.C,C29*%
X227908000Y-89592600D03*
X227908000Y-86642600D03*
%TD*%
D32*
%TO.C,C41*%
X219195800Y-107586400D03*
X219195800Y-109136400D03*
%TD*%
D10*
%TO.C,REF\u002A\u002A2*%
X231900400Y-113617600D03*
%TD*%
%TO.C,REF\u002A\u002A*%
X187900400Y-113617600D03*
%TD*%
%TO.C,REF\u002A\u002A*%
X187900400Y-86542800D03*
%TD*%
%TO.C,REF\u002A\u002A*%
X149900400Y-113617600D03*
%TD*%
D30*
%TO.C,J2*%
X176938100Y-114598350D03*
X169938100Y-114598350D03*
D31*
X175938100Y-111898350D03*
X170938100Y-111898350D03*
%TD*%
D10*
%TO.C,REF\u002A\u002A*%
X149900400Y-86617600D03*
%TD*%
D26*
%TO.C,*%
X158025400Y-108209000D03*
%TD*%
D10*
%TO.C,*%
X187900400Y-113617600D03*
%TD*%
D11*
%TO.C,C33*%
X183579600Y-92994400D03*
X180629600Y-92994400D03*
%TD*%
D13*
%TO.C,C22*%
X158000000Y-88475000D03*
X158000000Y-85525000D03*
%TD*%
D12*
%TO.C,D1*%
X170446000Y-108004800D03*
X170446000Y-104704800D03*
%TD*%
D13*
%TO.C,C20*%
X162445000Y-111995400D03*
X162445000Y-109045400D03*
%TD*%
D16*
%TO.C,C15*%
X172084000Y-91267200D03*
X173634000Y-91267200D03*
%TD*%
D14*
%TO.C,J4*%
X165645400Y-113787600D03*
D15*
X165645400Y-115787600D03*
%TD*%
D14*
%TO.C,J6*%
X154977400Y-98071600D03*
X154977400Y-100071600D03*
X154977400Y-102071600D03*
D15*
X154977400Y-104071600D03*
%TD*%
D19*
%TO.C,C9*%
X167309400Y-103281400D03*
X165759400Y-103281400D03*
%TD*%
%TO.C,R7*%
X180771400Y-100157200D03*
X179221400Y-100157200D03*
%TD*%
D17*
%TO.C,J1*%
X154736600Y-110926800D03*
X156736600Y-110926800D03*
D18*
X158736600Y-110926800D03*
%TD*%
D19*
%TO.C,C13*%
X180796800Y-95051800D03*
X179246800Y-95051800D03*
%TD*%
D25*
%TO.C,R18*%
X181037800Y-86646300D03*
X181037800Y-88471300D03*
%TD*%
D23*
%TO.C,IC2*%
X161479800Y-100664800D03*
D24*
X159179800Y-106964800D03*
X161479800Y-106964800D03*
X163779800Y-106964800D03*
%TD*%
D22*
%TO.C,Q7*%
X164478600Y-110215600D03*
X166578600Y-111165600D03*
X166578600Y-109265600D03*
%TD*%
D28*
%TO.C,C17*%
X168769600Y-109604200D03*
X168769600Y-112554200D03*
%TD*%
D25*
%TO.C,R19*%
X154672600Y-86189100D03*
X154672600Y-88014100D03*
%TD*%
D26*
%TO.C,REF\u002A\u002A*%
X184400400Y-84117600D03*
%TD*%
D19*
%TO.C,C6*%
X180720600Y-101681200D03*
X179170600Y-101681200D03*
%TD*%
D20*
%TO.C,M2*%
X155190000Y-84028200D03*
D21*
X153190000Y-84028200D03*
%TD*%
D14*
%TO.C,J5*%
X151853200Y-98117600D03*
X151853200Y-100117600D03*
X151853200Y-102117600D03*
D15*
X151853200Y-104117600D03*
%TD*%
D13*
%TO.C,C23*%
X184543000Y-102443200D03*
X184543000Y-99493200D03*
%TD*%
D29*
%TO.C,C8*%
X184873200Y-112463800D03*
X184873200Y-110913800D03*
%TD*%
D19*
%TO.C,R12*%
X162991400Y-97845800D03*
X161441400Y-97845800D03*
%TD*%
D28*
%TO.C,C18*%
X162445000Y-113693600D03*
X162445000Y-116643600D03*
%TD*%
D27*
%TO.C,C19*%
X153756400Y-106913600D03*
X156706400Y-106913600D03*
%TD*%
D25*
%TO.C,R20*%
X179539200Y-86646300D03*
X179539200Y-88471300D03*
%TD*%
D26*
%TO.C,REF\u002A\u002A*%
X158050800Y-84206000D03*
%TD*%
D13*
%TO.C,C5*%
X183908000Y-89592600D03*
X183908000Y-86642600D03*
%TD*%
D20*
%TO.C,M1*%
X182306800Y-84231400D03*
D21*
X180306800Y-84231400D03*
%TD*%
D25*
%TO.C,R21*%
X153199400Y-86189100D03*
X153199400Y-88014100D03*
%TD*%
D15*
%TO.C,J11*%
X186067000Y-93747000D03*
D14*
X186067000Y-95747000D03*
%TD*%
D32*
%TO.C,C11*%
X175195800Y-107586400D03*
X175195800Y-109136400D03*
%TD*%
D16*
%TO.C,C3*%
X172109400Y-92740400D03*
X173659400Y-92740400D03*
%TD*%
D32*
%TO.C,C2*%
X175094200Y-90504600D03*
X175094200Y-92054600D03*
%TD*%
M02*
