%TF.GenerationSoftware,KiCad,Pcbnew,(6.0.4)*%
%TF.CreationDate,2022-09-20T04:44:20+09:00*%
%TF.ProjectId,mainboard_p,6d61696e-626f-4617-9264-5f702e6b6963,rev?*%
%TF.SameCoordinates,Original*%
%TF.FileFunction,Legend,Bot*%
%TF.FilePolarity,Positive*%
%FSLAX46Y46*%
G04 Gerber Fmt 4.6, Leading zero omitted, Abs format (unit mm)*
G04 Created by KiCad (PCBNEW (6.0.4)) date 2022-09-20 04:44:20*
%MOMM*%
%LPD*%
G01*
G04 APERTURE LIST*
%ADD10C,0.150000*%
%ADD11C,0.254000*%
%ADD12C,0.120000*%
%ADD13C,0.200000*%
G04 APERTURE END LIST*
D10*
%TO.C,C116*%
X227223647Y-131201542D02*
X227271266Y-131249161D01*
X227414123Y-131296780D01*
X227509361Y-131296780D01*
X227652219Y-131249161D01*
X227747457Y-131153923D01*
X227795076Y-131058685D01*
X227842695Y-130868209D01*
X227842695Y-130725352D01*
X227795076Y-130534876D01*
X227747457Y-130439638D01*
X227652219Y-130344400D01*
X227509361Y-130296780D01*
X227414123Y-130296780D01*
X227271266Y-130344400D01*
X227223647Y-130392019D01*
X226271266Y-131296780D02*
X226842695Y-131296780D01*
X226556980Y-131296780D02*
X226556980Y-130296780D01*
X226652219Y-130439638D01*
X226747457Y-130534876D01*
X226842695Y-130582495D01*
X225318885Y-131296780D02*
X225890314Y-131296780D01*
X225604600Y-131296780D02*
X225604600Y-130296780D01*
X225699838Y-130439638D01*
X225795076Y-130534876D01*
X225890314Y-130582495D01*
X224461742Y-130296780D02*
X224652219Y-130296780D01*
X224747457Y-130344400D01*
X224795076Y-130392019D01*
X224890314Y-130534876D01*
X224937933Y-130725352D01*
X224937933Y-131106304D01*
X224890314Y-131201542D01*
X224842695Y-131249161D01*
X224747457Y-131296780D01*
X224556980Y-131296780D01*
X224461742Y-131249161D01*
X224414123Y-131201542D01*
X224366504Y-131106304D01*
X224366504Y-130868209D01*
X224414123Y-130772971D01*
X224461742Y-130725352D01*
X224556980Y-130677733D01*
X224747457Y-130677733D01*
X224842695Y-130725352D01*
X224890314Y-130772971D01*
X224937933Y-130868209D01*
%TO.C,D7*%
X212898380Y-141616704D02*
X211898380Y-141616704D01*
X211898380Y-141854800D01*
X211946000Y-141997657D01*
X212041238Y-142092895D01*
X212136476Y-142140514D01*
X212326952Y-142188133D01*
X212469809Y-142188133D01*
X212660285Y-142140514D01*
X212755523Y-142092895D01*
X212850761Y-141997657D01*
X212898380Y-141854800D01*
X212898380Y-141616704D01*
X211898380Y-142521466D02*
X211898380Y-143188133D01*
X212898380Y-142759561D01*
%TO.C,C112*%
X200507142Y-121880952D02*
X200554761Y-121833333D01*
X200602380Y-121690476D01*
X200602380Y-121595238D01*
X200554761Y-121452380D01*
X200459523Y-121357142D01*
X200364285Y-121309523D01*
X200173809Y-121261904D01*
X200030952Y-121261904D01*
X199840476Y-121309523D01*
X199745238Y-121357142D01*
X199650000Y-121452380D01*
X199602380Y-121595238D01*
X199602380Y-121690476D01*
X199650000Y-121833333D01*
X199697619Y-121880952D01*
X200602380Y-122833333D02*
X200602380Y-122261904D01*
X200602380Y-122547619D02*
X199602380Y-122547619D01*
X199745238Y-122452380D01*
X199840476Y-122357142D01*
X199888095Y-122261904D01*
X200602380Y-123785714D02*
X200602380Y-123214285D01*
X200602380Y-123500000D02*
X199602380Y-123500000D01*
X199745238Y-123404761D01*
X199840476Y-123309523D01*
X199888095Y-123214285D01*
X199697619Y-124166666D02*
X199650000Y-124214285D01*
X199602380Y-124309523D01*
X199602380Y-124547619D01*
X199650000Y-124642857D01*
X199697619Y-124690476D01*
X199792857Y-124738095D01*
X199888095Y-124738095D01*
X200030952Y-124690476D01*
X200602380Y-124119047D01*
X200602380Y-124738095D01*
%TO.C,C110*%
X204952142Y-145401352D02*
X204999761Y-145353733D01*
X205047380Y-145210876D01*
X205047380Y-145115638D01*
X204999761Y-144972780D01*
X204904523Y-144877542D01*
X204809285Y-144829923D01*
X204618809Y-144782304D01*
X204475952Y-144782304D01*
X204285476Y-144829923D01*
X204190238Y-144877542D01*
X204095000Y-144972780D01*
X204047380Y-145115638D01*
X204047380Y-145210876D01*
X204095000Y-145353733D01*
X204142619Y-145401352D01*
X205047380Y-146353733D02*
X205047380Y-145782304D01*
X205047380Y-146068019D02*
X204047380Y-146068019D01*
X204190238Y-145972780D01*
X204285476Y-145877542D01*
X204333095Y-145782304D01*
X205047380Y-147306114D02*
X205047380Y-146734685D01*
X205047380Y-147020400D02*
X204047380Y-147020400D01*
X204190238Y-146925161D01*
X204285476Y-146829923D01*
X204333095Y-146734685D01*
X204047380Y-147925161D02*
X204047380Y-148020400D01*
X204095000Y-148115638D01*
X204142619Y-148163257D01*
X204237857Y-148210876D01*
X204428333Y-148258495D01*
X204666428Y-148258495D01*
X204856904Y-148210876D01*
X204952142Y-148163257D01*
X204999761Y-148115638D01*
X205047380Y-148020400D01*
X205047380Y-147925161D01*
X204999761Y-147829923D01*
X204952142Y-147782304D01*
X204856904Y-147734685D01*
X204666428Y-147687066D01*
X204428333Y-147687066D01*
X204237857Y-147734685D01*
X204142619Y-147782304D01*
X204095000Y-147829923D01*
X204047380Y-147925161D01*
%TO.C,J31*%
X210454923Y-153299980D02*
X210454923Y-154014266D01*
X210502542Y-154157123D01*
X210597780Y-154252361D01*
X210740638Y-154299980D01*
X210835876Y-154299980D01*
X210073971Y-153299980D02*
X209454923Y-153299980D01*
X209788257Y-153680933D01*
X209645400Y-153680933D01*
X209550161Y-153728552D01*
X209502542Y-153776171D01*
X209454923Y-153871409D01*
X209454923Y-154109504D01*
X209502542Y-154204742D01*
X209550161Y-154252361D01*
X209645400Y-154299980D01*
X209931114Y-154299980D01*
X210026352Y-154252361D01*
X210073971Y-154204742D01*
X208502542Y-154299980D02*
X209073971Y-154299980D01*
X208788257Y-154299980D02*
X208788257Y-153299980D01*
X208883495Y-153442838D01*
X208978733Y-153538076D01*
X209073971Y-153585695D01*
X211099400Y-153377600D02*
X210566066Y-153377600D01*
X210832733Y-153644266D02*
X210832733Y-153110933D01*
X210232733Y-153644266D02*
X210232733Y-152944266D01*
X209832733Y-153644266D01*
X209832733Y-152944266D01*
X209499400Y-153644266D02*
X209499400Y-153177600D01*
X209499400Y-153310933D02*
X209466066Y-153244266D01*
X209432733Y-153210933D01*
X209366066Y-153177600D01*
X209299400Y-153177600D01*
X208832733Y-153277600D02*
X208732733Y-153310933D01*
X208699400Y-153344266D01*
X208666066Y-153410933D01*
X208666066Y-153510933D01*
X208699400Y-153577600D01*
X208732733Y-153610933D01*
X208799400Y-153644266D01*
X209066066Y-153644266D01*
X209066066Y-152944266D01*
X208832733Y-152944266D01*
X208766066Y-152977600D01*
X208732733Y-153010933D01*
X208699400Y-153077600D01*
X208699400Y-153144266D01*
X208732733Y-153210933D01*
X208766066Y-153244266D01*
X208832733Y-153277600D01*
X209066066Y-153277600D01*
%TO.C,C105*%
X217978047Y-126194342D02*
X218025666Y-126241961D01*
X218168523Y-126289580D01*
X218263761Y-126289580D01*
X218406619Y-126241961D01*
X218501857Y-126146723D01*
X218549476Y-126051485D01*
X218597095Y-125861009D01*
X218597095Y-125718152D01*
X218549476Y-125527676D01*
X218501857Y-125432438D01*
X218406619Y-125337200D01*
X218263761Y-125289580D01*
X218168523Y-125289580D01*
X218025666Y-125337200D01*
X217978047Y-125384819D01*
X217025666Y-126289580D02*
X217597095Y-126289580D01*
X217311380Y-126289580D02*
X217311380Y-125289580D01*
X217406619Y-125432438D01*
X217501857Y-125527676D01*
X217597095Y-125575295D01*
X216406619Y-125289580D02*
X216311380Y-125289580D01*
X216216142Y-125337200D01*
X216168523Y-125384819D01*
X216120904Y-125480057D01*
X216073285Y-125670533D01*
X216073285Y-125908628D01*
X216120904Y-126099104D01*
X216168523Y-126194342D01*
X216216142Y-126241961D01*
X216311380Y-126289580D01*
X216406619Y-126289580D01*
X216501857Y-126241961D01*
X216549476Y-126194342D01*
X216597095Y-126099104D01*
X216644714Y-125908628D01*
X216644714Y-125670533D01*
X216597095Y-125480057D01*
X216549476Y-125384819D01*
X216501857Y-125337200D01*
X216406619Y-125289580D01*
X215168523Y-125289580D02*
X215644714Y-125289580D01*
X215692333Y-125765771D01*
X215644714Y-125718152D01*
X215549476Y-125670533D01*
X215311380Y-125670533D01*
X215216142Y-125718152D01*
X215168523Y-125765771D01*
X215120904Y-125861009D01*
X215120904Y-126099104D01*
X215168523Y-126194342D01*
X215216142Y-126241961D01*
X215311380Y-126289580D01*
X215549476Y-126289580D01*
X215644714Y-126241961D01*
X215692333Y-126194342D01*
%TO.C,J33*%
X199786923Y-141583980D02*
X199786923Y-142298266D01*
X199834542Y-142441123D01*
X199929780Y-142536361D01*
X200072638Y-142583980D01*
X200167876Y-142583980D01*
X199405971Y-141583980D02*
X198786923Y-141583980D01*
X199120257Y-141964933D01*
X198977400Y-141964933D01*
X198882161Y-142012552D01*
X198834542Y-142060171D01*
X198786923Y-142155409D01*
X198786923Y-142393504D01*
X198834542Y-142488742D01*
X198882161Y-142536361D01*
X198977400Y-142583980D01*
X199263114Y-142583980D01*
X199358352Y-142536361D01*
X199405971Y-142488742D01*
X198453590Y-141583980D02*
X197834542Y-141583980D01*
X198167876Y-141964933D01*
X198025019Y-141964933D01*
X197929780Y-142012552D01*
X197882161Y-142060171D01*
X197834542Y-142155409D01*
X197834542Y-142393504D01*
X197882161Y-142488742D01*
X197929780Y-142536361D01*
X198025019Y-142583980D01*
X198310733Y-142583980D01*
X198405971Y-142536361D01*
X198453590Y-142488742D01*
%TO.C,J28*%
X195209923Y-144069980D02*
X195209923Y-144784266D01*
X195257542Y-144927123D01*
X195352780Y-145022361D01*
X195495638Y-145069980D01*
X195590876Y-145069980D01*
X194781352Y-144165219D02*
X194733733Y-144117600D01*
X194638495Y-144069980D01*
X194400400Y-144069980D01*
X194305161Y-144117600D01*
X194257542Y-144165219D01*
X194209923Y-144260457D01*
X194209923Y-144355695D01*
X194257542Y-144498552D01*
X194828971Y-145069980D01*
X194209923Y-145069980D01*
X193638495Y-144498552D02*
X193733733Y-144450933D01*
X193781352Y-144403314D01*
X193828971Y-144308076D01*
X193828971Y-144260457D01*
X193781352Y-144165219D01*
X193733733Y-144117600D01*
X193638495Y-144069980D01*
X193448019Y-144069980D01*
X193352780Y-144117600D01*
X193305161Y-144165219D01*
X193257542Y-144260457D01*
X193257542Y-144308076D01*
X193305161Y-144403314D01*
X193352780Y-144450933D01*
X193448019Y-144498552D01*
X193638495Y-144498552D01*
X193733733Y-144546171D01*
X193781352Y-144593790D01*
X193828971Y-144689028D01*
X193828971Y-144879504D01*
X193781352Y-144974742D01*
X193733733Y-145022361D01*
X193638495Y-145069980D01*
X193448019Y-145069980D01*
X193352780Y-145022361D01*
X193305161Y-144974742D01*
X193257542Y-144879504D01*
X193257542Y-144689028D01*
X193305161Y-144593790D01*
X193352780Y-144546171D01*
X193448019Y-144498552D01*
%TO.C,J32*%
X196662723Y-141629980D02*
X196662723Y-142344266D01*
X196710342Y-142487123D01*
X196805580Y-142582361D01*
X196948438Y-142629980D01*
X197043676Y-142629980D01*
X196281771Y-141629980D02*
X195662723Y-141629980D01*
X195996057Y-142010933D01*
X195853200Y-142010933D01*
X195757961Y-142058552D01*
X195710342Y-142106171D01*
X195662723Y-142201409D01*
X195662723Y-142439504D01*
X195710342Y-142534742D01*
X195757961Y-142582361D01*
X195853200Y-142629980D01*
X196138914Y-142629980D01*
X196234152Y-142582361D01*
X196281771Y-142534742D01*
X195281771Y-141725219D02*
X195234152Y-141677600D01*
X195138914Y-141629980D01*
X194900819Y-141629980D01*
X194805580Y-141677600D01*
X194757961Y-141725219D01*
X194710342Y-141820457D01*
X194710342Y-141915695D01*
X194757961Y-142058552D01*
X195329390Y-142629980D01*
X194710342Y-142629980D01*
%TO.C,C103*%
X225140847Y-132838942D02*
X225188466Y-132886561D01*
X225331323Y-132934180D01*
X225426561Y-132934180D01*
X225569419Y-132886561D01*
X225664657Y-132791323D01*
X225712276Y-132696085D01*
X225759895Y-132505609D01*
X225759895Y-132362752D01*
X225712276Y-132172276D01*
X225664657Y-132077038D01*
X225569419Y-131981800D01*
X225426561Y-131934180D01*
X225331323Y-131934180D01*
X225188466Y-131981800D01*
X225140847Y-132029419D01*
X224188466Y-132934180D02*
X224759895Y-132934180D01*
X224474180Y-132934180D02*
X224474180Y-131934180D01*
X224569419Y-132077038D01*
X224664657Y-132172276D01*
X224759895Y-132219895D01*
X223569419Y-131934180D02*
X223474180Y-131934180D01*
X223378942Y-131981800D01*
X223331323Y-132029419D01*
X223283704Y-132124657D01*
X223236085Y-132315133D01*
X223236085Y-132553228D01*
X223283704Y-132743704D01*
X223331323Y-132838942D01*
X223378942Y-132886561D01*
X223474180Y-132934180D01*
X223569419Y-132934180D01*
X223664657Y-132886561D01*
X223712276Y-132838942D01*
X223759895Y-132743704D01*
X223807514Y-132553228D01*
X223807514Y-132315133D01*
X223759895Y-132124657D01*
X223712276Y-132029419D01*
X223664657Y-131981800D01*
X223569419Y-131934180D01*
X222902752Y-131934180D02*
X222283704Y-131934180D01*
X222617038Y-132315133D01*
X222474180Y-132315133D01*
X222378942Y-132362752D01*
X222331323Y-132410371D01*
X222283704Y-132505609D01*
X222283704Y-132743704D01*
X222331323Y-132838942D01*
X222378942Y-132886561D01*
X222474180Y-132934180D01*
X222759895Y-132934180D01*
X222855133Y-132886561D01*
X222902752Y-132838942D01*
%TO.C,M8*%
X195582380Y-119218676D02*
X194582380Y-119218676D01*
X195296666Y-119552009D01*
X194582380Y-119885342D01*
X195582380Y-119885342D01*
X195010952Y-120504390D02*
X194963333Y-120409152D01*
X194915714Y-120361533D01*
X194820476Y-120313914D01*
X194772857Y-120313914D01*
X194677619Y-120361533D01*
X194630000Y-120409152D01*
X194582380Y-120504390D01*
X194582380Y-120694866D01*
X194630000Y-120790104D01*
X194677619Y-120837723D01*
X194772857Y-120885342D01*
X194820476Y-120885342D01*
X194915714Y-120837723D01*
X194963333Y-120790104D01*
X195010952Y-120694866D01*
X195010952Y-120504390D01*
X195058571Y-120409152D01*
X195106190Y-120361533D01*
X195201428Y-120313914D01*
X195391904Y-120313914D01*
X195487142Y-120361533D01*
X195534761Y-120409152D01*
X195582380Y-120504390D01*
X195582380Y-120694866D01*
X195534761Y-120790104D01*
X195487142Y-120837723D01*
X195391904Y-120885342D01*
X195201428Y-120885342D01*
X195106190Y-120837723D01*
X195058571Y-120790104D01*
X195010952Y-120694866D01*
D11*
%TO.C,Q12*%
X210254314Y-146911076D02*
X210375266Y-146850600D01*
X210496219Y-146729647D01*
X210677647Y-146548219D01*
X210798600Y-146487742D01*
X210919552Y-146487742D01*
X210859076Y-146790123D02*
X210980028Y-146729647D01*
X211100980Y-146608695D01*
X211161457Y-146366790D01*
X211161457Y-145943457D01*
X211100980Y-145701552D01*
X210980028Y-145580600D01*
X210859076Y-145520123D01*
X210617171Y-145520123D01*
X210496219Y-145580600D01*
X210375266Y-145701552D01*
X210314790Y-145943457D01*
X210314790Y-146366790D01*
X210375266Y-146608695D01*
X210496219Y-146729647D01*
X210617171Y-146790123D01*
X210859076Y-146790123D01*
X209105266Y-146790123D02*
X209830980Y-146790123D01*
X209468123Y-146790123D02*
X209468123Y-145520123D01*
X209589076Y-145701552D01*
X209710028Y-145822504D01*
X209830980Y-145882980D01*
X208621457Y-145641076D02*
X208560980Y-145580600D01*
X208440028Y-145520123D01*
X208137647Y-145520123D01*
X208016695Y-145580600D01*
X207956219Y-145641076D01*
X207895742Y-145762028D01*
X207895742Y-145882980D01*
X207956219Y-146064409D01*
X208681933Y-146790123D01*
X207895742Y-146790123D01*
%TO.C,IC14*%
X206054323Y-137970276D02*
X204784323Y-137970276D01*
X205933371Y-139300752D02*
X205993847Y-139240276D01*
X206054323Y-139058847D01*
X206054323Y-138937895D01*
X205993847Y-138756466D01*
X205872895Y-138635514D01*
X205751942Y-138575038D01*
X205510038Y-138514561D01*
X205328609Y-138514561D01*
X205086704Y-138575038D01*
X204965752Y-138635514D01*
X204844800Y-138756466D01*
X204784323Y-138937895D01*
X204784323Y-139058847D01*
X204844800Y-139240276D01*
X204905276Y-139300752D01*
X206054323Y-140510276D02*
X206054323Y-139784561D01*
X206054323Y-140147419D02*
X204784323Y-140147419D01*
X204965752Y-140026466D01*
X205086704Y-139905514D01*
X205147180Y-139784561D01*
X205207657Y-141598847D02*
X206054323Y-141598847D01*
X204723847Y-141296466D02*
X205630990Y-140994085D01*
X205630990Y-141780276D01*
D10*
%TO.C,R79*%
X226920180Y-122915942D02*
X226443990Y-122582609D01*
X226920180Y-122344514D02*
X225920180Y-122344514D01*
X225920180Y-122725466D01*
X225967800Y-122820704D01*
X226015419Y-122868323D01*
X226110657Y-122915942D01*
X226253514Y-122915942D01*
X226348752Y-122868323D01*
X226396371Y-122820704D01*
X226443990Y-122725466D01*
X226443990Y-122344514D01*
X225920180Y-123249276D02*
X225920180Y-123915942D01*
X226920180Y-123487371D01*
X226920180Y-124344514D02*
X226920180Y-124534990D01*
X226872561Y-124630228D01*
X226824942Y-124677847D01*
X226682085Y-124773085D01*
X226491609Y-124820704D01*
X226110657Y-124820704D01*
X226015419Y-124773085D01*
X225967800Y-124725466D01*
X225920180Y-124630228D01*
X225920180Y-124439752D01*
X225967800Y-124344514D01*
X226015419Y-124296895D01*
X226110657Y-124249276D01*
X226348752Y-124249276D01*
X226443990Y-124296895D01*
X226491609Y-124344514D01*
X226539228Y-124439752D01*
X226539228Y-124630228D01*
X226491609Y-124725466D01*
X226443990Y-124773085D01*
X226348752Y-124820704D01*
%TO.C,C99*%
X211177257Y-141068542D02*
X211224876Y-141116161D01*
X211367733Y-141163780D01*
X211462971Y-141163780D01*
X211605828Y-141116161D01*
X211701066Y-141020923D01*
X211748685Y-140925685D01*
X211796304Y-140735209D01*
X211796304Y-140592352D01*
X211748685Y-140401876D01*
X211701066Y-140306638D01*
X211605828Y-140211400D01*
X211462971Y-140163780D01*
X211367733Y-140163780D01*
X211224876Y-140211400D01*
X211177257Y-140259019D01*
X210701066Y-141163780D02*
X210510590Y-141163780D01*
X210415352Y-141116161D01*
X210367733Y-141068542D01*
X210272495Y-140925685D01*
X210224876Y-140735209D01*
X210224876Y-140354257D01*
X210272495Y-140259019D01*
X210320114Y-140211400D01*
X210415352Y-140163780D01*
X210605828Y-140163780D01*
X210701066Y-140211400D01*
X210748685Y-140259019D01*
X210796304Y-140354257D01*
X210796304Y-140592352D01*
X210748685Y-140687590D01*
X210701066Y-140735209D01*
X210605828Y-140782828D01*
X210415352Y-140782828D01*
X210320114Y-140735209D01*
X210272495Y-140687590D01*
X210224876Y-140592352D01*
X209748685Y-141163780D02*
X209558209Y-141163780D01*
X209462971Y-141116161D01*
X209415352Y-141068542D01*
X209320114Y-140925685D01*
X209272495Y-140735209D01*
X209272495Y-140354257D01*
X209320114Y-140259019D01*
X209367733Y-140211400D01*
X209462971Y-140163780D01*
X209653447Y-140163780D01*
X209748685Y-140211400D01*
X209796304Y-140259019D01*
X209843923Y-140354257D01*
X209843923Y-140592352D01*
X209796304Y-140687590D01*
X209748685Y-140735209D01*
X209653447Y-140782828D01*
X209462971Y-140782828D01*
X209367733Y-140735209D01*
X209320114Y-140687590D01*
X209272495Y-140592352D01*
%TO.C,R81*%
X225421580Y-122915942D02*
X224945390Y-122582609D01*
X225421580Y-122344514D02*
X224421580Y-122344514D01*
X224421580Y-122725466D01*
X224469200Y-122820704D01*
X224516819Y-122868323D01*
X224612057Y-122915942D01*
X224754914Y-122915942D01*
X224850152Y-122868323D01*
X224897771Y-122820704D01*
X224945390Y-122725466D01*
X224945390Y-122344514D01*
X224850152Y-123487371D02*
X224802533Y-123392133D01*
X224754914Y-123344514D01*
X224659676Y-123296895D01*
X224612057Y-123296895D01*
X224516819Y-123344514D01*
X224469200Y-123392133D01*
X224421580Y-123487371D01*
X224421580Y-123677847D01*
X224469200Y-123773085D01*
X224516819Y-123820704D01*
X224612057Y-123868323D01*
X224659676Y-123868323D01*
X224754914Y-123820704D01*
X224802533Y-123773085D01*
X224850152Y-123677847D01*
X224850152Y-123487371D01*
X224897771Y-123392133D01*
X224945390Y-123344514D01*
X225040628Y-123296895D01*
X225231104Y-123296895D01*
X225326342Y-123344514D01*
X225373961Y-123392133D01*
X225421580Y-123487371D01*
X225421580Y-123677847D01*
X225373961Y-123773085D01*
X225326342Y-123820704D01*
X225231104Y-123868323D01*
X225040628Y-123868323D01*
X224945390Y-123820704D01*
X224897771Y-123773085D01*
X224850152Y-123677847D01*
X225421580Y-124820704D02*
X225421580Y-124249276D01*
X225421580Y-124534990D02*
X224421580Y-124534990D01*
X224564438Y-124439752D01*
X224659676Y-124344514D01*
X224707295Y-124249276D01*
%TO.C,C96*%
X224588457Y-139468342D02*
X224636076Y-139515961D01*
X224778933Y-139563580D01*
X224874171Y-139563580D01*
X225017028Y-139515961D01*
X225112266Y-139420723D01*
X225159885Y-139325485D01*
X225207504Y-139135009D01*
X225207504Y-138992152D01*
X225159885Y-138801676D01*
X225112266Y-138706438D01*
X225017028Y-138611200D01*
X224874171Y-138563580D01*
X224778933Y-138563580D01*
X224636076Y-138611200D01*
X224588457Y-138658819D01*
X224112266Y-139563580D02*
X223921790Y-139563580D01*
X223826552Y-139515961D01*
X223778933Y-139468342D01*
X223683695Y-139325485D01*
X223636076Y-139135009D01*
X223636076Y-138754057D01*
X223683695Y-138658819D01*
X223731314Y-138611200D01*
X223826552Y-138563580D01*
X224017028Y-138563580D01*
X224112266Y-138611200D01*
X224159885Y-138658819D01*
X224207504Y-138754057D01*
X224207504Y-138992152D01*
X224159885Y-139087390D01*
X224112266Y-139135009D01*
X224017028Y-139182628D01*
X223826552Y-139182628D01*
X223731314Y-139135009D01*
X223683695Y-139087390D01*
X223636076Y-138992152D01*
X222778933Y-138563580D02*
X222969409Y-138563580D01*
X223064647Y-138611200D01*
X223112266Y-138658819D01*
X223207504Y-138801676D01*
X223255123Y-138992152D01*
X223255123Y-139373104D01*
X223207504Y-139468342D01*
X223159885Y-139515961D01*
X223064647Y-139563580D01*
X222874171Y-139563580D01*
X222778933Y-139515961D01*
X222731314Y-139468342D01*
X222683695Y-139373104D01*
X222683695Y-139135009D01*
X222731314Y-139039771D01*
X222778933Y-138992152D01*
X222874171Y-138944533D01*
X223064647Y-138944533D01*
X223159885Y-138992152D01*
X223207504Y-139039771D01*
X223255123Y-139135009D01*
%TO.C,R80*%
X200554980Y-122458742D02*
X200078790Y-122125409D01*
X200554980Y-121887314D02*
X199554980Y-121887314D01*
X199554980Y-122268266D01*
X199602600Y-122363504D01*
X199650219Y-122411123D01*
X199745457Y-122458742D01*
X199888314Y-122458742D01*
X199983552Y-122411123D01*
X200031171Y-122363504D01*
X200078790Y-122268266D01*
X200078790Y-121887314D01*
X199983552Y-123030171D02*
X199935933Y-122934933D01*
X199888314Y-122887314D01*
X199793076Y-122839695D01*
X199745457Y-122839695D01*
X199650219Y-122887314D01*
X199602600Y-122934933D01*
X199554980Y-123030171D01*
X199554980Y-123220647D01*
X199602600Y-123315885D01*
X199650219Y-123363504D01*
X199745457Y-123411123D01*
X199793076Y-123411123D01*
X199888314Y-123363504D01*
X199935933Y-123315885D01*
X199983552Y-123220647D01*
X199983552Y-123030171D01*
X200031171Y-122934933D01*
X200078790Y-122887314D01*
X200174028Y-122839695D01*
X200364504Y-122839695D01*
X200459742Y-122887314D01*
X200507361Y-122934933D01*
X200554980Y-123030171D01*
X200554980Y-123220647D01*
X200507361Y-123315885D01*
X200459742Y-123363504D01*
X200364504Y-123411123D01*
X200174028Y-123411123D01*
X200078790Y-123363504D01*
X200031171Y-123315885D01*
X199983552Y-123220647D01*
X199554980Y-124030171D02*
X199554980Y-124125409D01*
X199602600Y-124220647D01*
X199650219Y-124268266D01*
X199745457Y-124315885D01*
X199935933Y-124363504D01*
X200174028Y-124363504D01*
X200364504Y-124315885D01*
X200459742Y-124268266D01*
X200507361Y-124220647D01*
X200554980Y-124125409D01*
X200554980Y-124030171D01*
X200507361Y-123934933D01*
X200459742Y-123887314D01*
X200364504Y-123839695D01*
X200174028Y-123792076D01*
X199935933Y-123792076D01*
X199745457Y-123839695D01*
X199650219Y-123887314D01*
X199602600Y-123934933D01*
X199554980Y-124030171D01*
%TO.C,C109*%
X200350447Y-141420742D02*
X200398066Y-141468361D01*
X200540923Y-141515980D01*
X200636161Y-141515980D01*
X200779019Y-141468361D01*
X200874257Y-141373123D01*
X200921876Y-141277885D01*
X200969495Y-141087409D01*
X200969495Y-140944552D01*
X200921876Y-140754076D01*
X200874257Y-140658838D01*
X200779019Y-140563600D01*
X200636161Y-140515980D01*
X200540923Y-140515980D01*
X200398066Y-140563600D01*
X200350447Y-140611219D01*
X199398066Y-141515980D02*
X199969495Y-141515980D01*
X199683780Y-141515980D02*
X199683780Y-140515980D01*
X199779019Y-140658838D01*
X199874257Y-140754076D01*
X199969495Y-140801695D01*
X198779019Y-140515980D02*
X198683780Y-140515980D01*
X198588542Y-140563600D01*
X198540923Y-140611219D01*
X198493304Y-140706457D01*
X198445685Y-140896933D01*
X198445685Y-141135028D01*
X198493304Y-141325504D01*
X198540923Y-141420742D01*
X198588542Y-141468361D01*
X198683780Y-141515980D01*
X198779019Y-141515980D01*
X198874257Y-141468361D01*
X198921876Y-141420742D01*
X198969495Y-141325504D01*
X199017114Y-141135028D01*
X199017114Y-140896933D01*
X198969495Y-140706457D01*
X198921876Y-140611219D01*
X198874257Y-140563600D01*
X198779019Y-140515980D01*
X197969495Y-141515980D02*
X197779019Y-141515980D01*
X197683780Y-141468361D01*
X197636161Y-141420742D01*
X197540923Y-141277885D01*
X197493304Y-141087409D01*
X197493304Y-140706457D01*
X197540923Y-140611219D01*
X197588542Y-140563600D01*
X197683780Y-140515980D01*
X197874257Y-140515980D01*
X197969495Y-140563600D01*
X198017114Y-140611219D01*
X198064733Y-140706457D01*
X198064733Y-140944552D01*
X198017114Y-141039790D01*
X197969495Y-141087409D01*
X197874257Y-141135028D01*
X197683780Y-141135028D01*
X197588542Y-141087409D01*
X197540923Y-141039790D01*
X197493304Y-140944552D01*
%TO.C,C108*%
X208652142Y-150049552D02*
X208699761Y-150001933D01*
X208747380Y-149859076D01*
X208747380Y-149763838D01*
X208699761Y-149620980D01*
X208604523Y-149525742D01*
X208509285Y-149478123D01*
X208318809Y-149430504D01*
X208175952Y-149430504D01*
X207985476Y-149478123D01*
X207890238Y-149525742D01*
X207795000Y-149620980D01*
X207747380Y-149763838D01*
X207747380Y-149859076D01*
X207795000Y-150001933D01*
X207842619Y-150049552D01*
X208747380Y-151001933D02*
X208747380Y-150430504D01*
X208747380Y-150716219D02*
X207747380Y-150716219D01*
X207890238Y-150620980D01*
X207985476Y-150525742D01*
X208033095Y-150430504D01*
X207747380Y-151620980D02*
X207747380Y-151716219D01*
X207795000Y-151811457D01*
X207842619Y-151859076D01*
X207937857Y-151906695D01*
X208128333Y-151954314D01*
X208366428Y-151954314D01*
X208556904Y-151906695D01*
X208652142Y-151859076D01*
X208699761Y-151811457D01*
X208747380Y-151716219D01*
X208747380Y-151620980D01*
X208699761Y-151525742D01*
X208652142Y-151478123D01*
X208556904Y-151430504D01*
X208366428Y-151382885D01*
X208128333Y-151382885D01*
X207937857Y-151430504D01*
X207842619Y-151478123D01*
X207795000Y-151525742D01*
X207747380Y-151620980D01*
X208175952Y-152525742D02*
X208128333Y-152430504D01*
X208080714Y-152382885D01*
X207985476Y-152335266D01*
X207937857Y-152335266D01*
X207842619Y-152382885D01*
X207795000Y-152430504D01*
X207747380Y-152525742D01*
X207747380Y-152716219D01*
X207795000Y-152811457D01*
X207842619Y-152859076D01*
X207937857Y-152906695D01*
X207985476Y-152906695D01*
X208080714Y-152859076D01*
X208128333Y-152811457D01*
X208175952Y-152716219D01*
X208175952Y-152525742D01*
X208223571Y-152430504D01*
X208271190Y-152382885D01*
X208366428Y-152335266D01*
X208556904Y-152335266D01*
X208652142Y-152382885D01*
X208699761Y-152430504D01*
X208747380Y-152525742D01*
X208747380Y-152716219D01*
X208699761Y-152811457D01*
X208652142Y-152859076D01*
X208556904Y-152906695D01*
X208366428Y-152906695D01*
X208271190Y-152859076D01*
X208223571Y-152811457D01*
X208175952Y-152716219D01*
%TO.C,R75*%
X206859257Y-135728180D02*
X207192590Y-135251990D01*
X207430685Y-135728180D02*
X207430685Y-134728180D01*
X207049733Y-134728180D01*
X206954495Y-134775800D01*
X206906876Y-134823419D01*
X206859257Y-134918657D01*
X206859257Y-135061514D01*
X206906876Y-135156752D01*
X206954495Y-135204371D01*
X207049733Y-135251990D01*
X207430685Y-135251990D01*
X206525923Y-134728180D02*
X205859257Y-134728180D01*
X206287828Y-135728180D01*
X205002114Y-134728180D02*
X205478304Y-134728180D01*
X205525923Y-135204371D01*
X205478304Y-135156752D01*
X205383066Y-135109133D01*
X205144971Y-135109133D01*
X205049733Y-135156752D01*
X205002114Y-135204371D01*
X204954495Y-135299609D01*
X204954495Y-135537704D01*
X205002114Y-135632942D01*
X205049733Y-135680561D01*
X205144971Y-135728180D01*
X205383066Y-135728180D01*
X205478304Y-135680561D01*
X205525923Y-135632942D01*
%TO.C,C107*%
X214976742Y-145960152D02*
X215024361Y-145912533D01*
X215071980Y-145769676D01*
X215071980Y-145674438D01*
X215024361Y-145531580D01*
X214929123Y-145436342D01*
X214833885Y-145388723D01*
X214643409Y-145341104D01*
X214500552Y-145341104D01*
X214310076Y-145388723D01*
X214214838Y-145436342D01*
X214119600Y-145531580D01*
X214071980Y-145674438D01*
X214071980Y-145769676D01*
X214119600Y-145912533D01*
X214167219Y-145960152D01*
X215071980Y-146912533D02*
X215071980Y-146341104D01*
X215071980Y-146626819D02*
X214071980Y-146626819D01*
X214214838Y-146531580D01*
X214310076Y-146436342D01*
X214357695Y-146341104D01*
X214071980Y-147531580D02*
X214071980Y-147626819D01*
X214119600Y-147722057D01*
X214167219Y-147769676D01*
X214262457Y-147817295D01*
X214452933Y-147864914D01*
X214691028Y-147864914D01*
X214881504Y-147817295D01*
X214976742Y-147769676D01*
X215024361Y-147722057D01*
X215071980Y-147626819D01*
X215071980Y-147531580D01*
X215024361Y-147436342D01*
X214976742Y-147388723D01*
X214881504Y-147341104D01*
X214691028Y-147293485D01*
X214452933Y-147293485D01*
X214262457Y-147341104D01*
X214167219Y-147388723D01*
X214119600Y-147436342D01*
X214071980Y-147531580D01*
X214071980Y-148198247D02*
X214071980Y-148864914D01*
X215071980Y-148436342D01*
%TO.C,R70*%
X224639257Y-138039580D02*
X224972590Y-137563390D01*
X225210685Y-138039580D02*
X225210685Y-137039580D01*
X224829733Y-137039580D01*
X224734495Y-137087200D01*
X224686876Y-137134819D01*
X224639257Y-137230057D01*
X224639257Y-137372914D01*
X224686876Y-137468152D01*
X224734495Y-137515771D01*
X224829733Y-137563390D01*
X225210685Y-137563390D01*
X224305923Y-137039580D02*
X223639257Y-137039580D01*
X224067828Y-138039580D01*
X223067828Y-137039580D02*
X222972590Y-137039580D01*
X222877352Y-137087200D01*
X222829733Y-137134819D01*
X222782114Y-137230057D01*
X222734495Y-137420533D01*
X222734495Y-137658628D01*
X222782114Y-137849104D01*
X222829733Y-137944342D01*
X222877352Y-137991961D01*
X222972590Y-138039580D01*
X223067828Y-138039580D01*
X223163066Y-137991961D01*
X223210685Y-137944342D01*
X223258304Y-137849104D01*
X223305923Y-137658628D01*
X223305923Y-137420533D01*
X223258304Y-137230057D01*
X223210685Y-137134819D01*
X223163066Y-137087200D01*
X223067828Y-137039580D01*
%TO.C,C98*%
X227800342Y-147045942D02*
X227847961Y-146998323D01*
X227895580Y-146855466D01*
X227895580Y-146760228D01*
X227847961Y-146617371D01*
X227752723Y-146522133D01*
X227657485Y-146474514D01*
X227467009Y-146426895D01*
X227324152Y-146426895D01*
X227133676Y-146474514D01*
X227038438Y-146522133D01*
X226943200Y-146617371D01*
X226895580Y-146760228D01*
X226895580Y-146855466D01*
X226943200Y-146998323D01*
X226990819Y-147045942D01*
X227895580Y-147522133D02*
X227895580Y-147712609D01*
X227847961Y-147807847D01*
X227800342Y-147855466D01*
X227657485Y-147950704D01*
X227467009Y-147998323D01*
X227086057Y-147998323D01*
X226990819Y-147950704D01*
X226943200Y-147903085D01*
X226895580Y-147807847D01*
X226895580Y-147617371D01*
X226943200Y-147522133D01*
X226990819Y-147474514D01*
X227086057Y-147426895D01*
X227324152Y-147426895D01*
X227419390Y-147474514D01*
X227467009Y-147522133D01*
X227514628Y-147617371D01*
X227514628Y-147807847D01*
X227467009Y-147903085D01*
X227419390Y-147950704D01*
X227324152Y-147998323D01*
X227324152Y-148569752D02*
X227276533Y-148474514D01*
X227228914Y-148426895D01*
X227133676Y-148379276D01*
X227086057Y-148379276D01*
X226990819Y-148426895D01*
X226943200Y-148474514D01*
X226895580Y-148569752D01*
X226895580Y-148760228D01*
X226943200Y-148855466D01*
X226990819Y-148903085D01*
X227086057Y-148950704D01*
X227133676Y-148950704D01*
X227228914Y-148903085D01*
X227276533Y-148855466D01*
X227324152Y-148760228D01*
X227324152Y-148569752D01*
X227371771Y-148474514D01*
X227419390Y-148426895D01*
X227514628Y-148379276D01*
X227705104Y-148379276D01*
X227800342Y-148426895D01*
X227847961Y-148474514D01*
X227895580Y-148569752D01*
X227895580Y-148760228D01*
X227847961Y-148855466D01*
X227800342Y-148903085D01*
X227705104Y-148950704D01*
X227514628Y-148950704D01*
X227419390Y-148903085D01*
X227371771Y-148855466D01*
X227324152Y-148760228D01*
%TO.C,C113*%
X227050142Y-135849152D02*
X227097761Y-135801533D01*
X227145380Y-135658676D01*
X227145380Y-135563438D01*
X227097761Y-135420580D01*
X227002523Y-135325342D01*
X226907285Y-135277723D01*
X226716809Y-135230104D01*
X226573952Y-135230104D01*
X226383476Y-135277723D01*
X226288238Y-135325342D01*
X226193000Y-135420580D01*
X226145380Y-135563438D01*
X226145380Y-135658676D01*
X226193000Y-135801533D01*
X226240619Y-135849152D01*
X227145380Y-136801533D02*
X227145380Y-136230104D01*
X227145380Y-136515819D02*
X226145380Y-136515819D01*
X226288238Y-136420580D01*
X226383476Y-136325342D01*
X226431095Y-136230104D01*
X227145380Y-137753914D02*
X227145380Y-137182485D01*
X227145380Y-137468200D02*
X226145380Y-137468200D01*
X226288238Y-137372961D01*
X226383476Y-137277723D01*
X226431095Y-137182485D01*
X226145380Y-138087247D02*
X226145380Y-138706295D01*
X226526333Y-138372961D01*
X226526333Y-138515819D01*
X226573952Y-138611057D01*
X226621571Y-138658676D01*
X226716809Y-138706295D01*
X226954904Y-138706295D01*
X227050142Y-138658676D01*
X227097761Y-138611057D01*
X227145380Y-138515819D01*
X227145380Y-138230104D01*
X227097761Y-138134866D01*
X227050142Y-138087247D01*
%TO.C,C92*%
X220881342Y-126636742D02*
X220928961Y-126589123D01*
X220976580Y-126446266D01*
X220976580Y-126351028D01*
X220928961Y-126208171D01*
X220833723Y-126112933D01*
X220738485Y-126065314D01*
X220548009Y-126017695D01*
X220405152Y-126017695D01*
X220214676Y-126065314D01*
X220119438Y-126112933D01*
X220024200Y-126208171D01*
X219976580Y-126351028D01*
X219976580Y-126446266D01*
X220024200Y-126589123D01*
X220071819Y-126636742D01*
X220976580Y-127112933D02*
X220976580Y-127303409D01*
X220928961Y-127398647D01*
X220881342Y-127446266D01*
X220738485Y-127541504D01*
X220548009Y-127589123D01*
X220167057Y-127589123D01*
X220071819Y-127541504D01*
X220024200Y-127493885D01*
X219976580Y-127398647D01*
X219976580Y-127208171D01*
X220024200Y-127112933D01*
X220071819Y-127065314D01*
X220167057Y-127017695D01*
X220405152Y-127017695D01*
X220500390Y-127065314D01*
X220548009Y-127112933D01*
X220595628Y-127208171D01*
X220595628Y-127398647D01*
X220548009Y-127493885D01*
X220500390Y-127541504D01*
X220405152Y-127589123D01*
X220071819Y-127970076D02*
X220024200Y-128017695D01*
X219976580Y-128112933D01*
X219976580Y-128351028D01*
X220024200Y-128446266D01*
X220071819Y-128493885D01*
X220167057Y-128541504D01*
X220262295Y-128541504D01*
X220405152Y-128493885D01*
X220976580Y-127922457D01*
X220976580Y-128541504D01*
%TO.C,R82*%
X199081780Y-122458742D02*
X198605590Y-122125409D01*
X199081780Y-121887314D02*
X198081780Y-121887314D01*
X198081780Y-122268266D01*
X198129400Y-122363504D01*
X198177019Y-122411123D01*
X198272257Y-122458742D01*
X198415114Y-122458742D01*
X198510352Y-122411123D01*
X198557971Y-122363504D01*
X198605590Y-122268266D01*
X198605590Y-121887314D01*
X198510352Y-123030171D02*
X198462733Y-122934933D01*
X198415114Y-122887314D01*
X198319876Y-122839695D01*
X198272257Y-122839695D01*
X198177019Y-122887314D01*
X198129400Y-122934933D01*
X198081780Y-123030171D01*
X198081780Y-123220647D01*
X198129400Y-123315885D01*
X198177019Y-123363504D01*
X198272257Y-123411123D01*
X198319876Y-123411123D01*
X198415114Y-123363504D01*
X198462733Y-123315885D01*
X198510352Y-123220647D01*
X198510352Y-123030171D01*
X198557971Y-122934933D01*
X198605590Y-122887314D01*
X198700828Y-122839695D01*
X198891304Y-122839695D01*
X198986542Y-122887314D01*
X199034161Y-122934933D01*
X199081780Y-123030171D01*
X199081780Y-123220647D01*
X199034161Y-123315885D01*
X198986542Y-123363504D01*
X198891304Y-123411123D01*
X198700828Y-123411123D01*
X198605590Y-123363504D01*
X198557971Y-123315885D01*
X198510352Y-123220647D01*
X198177019Y-123792076D02*
X198129400Y-123839695D01*
X198081780Y-123934933D01*
X198081780Y-124173028D01*
X198129400Y-124268266D01*
X198177019Y-124315885D01*
X198272257Y-124363504D01*
X198367495Y-124363504D01*
X198510352Y-124315885D01*
X199081780Y-123744457D01*
X199081780Y-124363504D01*
%TO.C,C93*%
X217527257Y-127667542D02*
X217574876Y-127715161D01*
X217717733Y-127762780D01*
X217812971Y-127762780D01*
X217955828Y-127715161D01*
X218051066Y-127619923D01*
X218098685Y-127524685D01*
X218146304Y-127334209D01*
X218146304Y-127191352D01*
X218098685Y-127000876D01*
X218051066Y-126905638D01*
X217955828Y-126810400D01*
X217812971Y-126762780D01*
X217717733Y-126762780D01*
X217574876Y-126810400D01*
X217527257Y-126858019D01*
X217051066Y-127762780D02*
X216860590Y-127762780D01*
X216765352Y-127715161D01*
X216717733Y-127667542D01*
X216622495Y-127524685D01*
X216574876Y-127334209D01*
X216574876Y-126953257D01*
X216622495Y-126858019D01*
X216670114Y-126810400D01*
X216765352Y-126762780D01*
X216955828Y-126762780D01*
X217051066Y-126810400D01*
X217098685Y-126858019D01*
X217146304Y-126953257D01*
X217146304Y-127191352D01*
X217098685Y-127286590D01*
X217051066Y-127334209D01*
X216955828Y-127381828D01*
X216765352Y-127381828D01*
X216670114Y-127334209D01*
X216622495Y-127286590D01*
X216574876Y-127191352D01*
X216241542Y-126762780D02*
X215622495Y-126762780D01*
X215955828Y-127143733D01*
X215812971Y-127143733D01*
X215717733Y-127191352D01*
X215670114Y-127238971D01*
X215622495Y-127334209D01*
X215622495Y-127572304D01*
X215670114Y-127667542D01*
X215717733Y-127715161D01*
X215812971Y-127762780D01*
X216098685Y-127762780D01*
X216193923Y-127715161D01*
X216241542Y-127667542D01*
%TO.C,M7*%
X222699180Y-119421876D02*
X221699180Y-119421876D01*
X222413466Y-119755209D01*
X221699180Y-120088542D01*
X222699180Y-120088542D01*
X221699180Y-120469495D02*
X221699180Y-121136161D01*
X222699180Y-120707590D01*
%TO.C,J36*%
X230876523Y-127139380D02*
X230876523Y-127853666D01*
X230924142Y-127996523D01*
X231019380Y-128091761D01*
X231162238Y-128139380D01*
X231257476Y-128139380D01*
X230495571Y-127139380D02*
X229876523Y-127139380D01*
X230209857Y-127520333D01*
X230067000Y-127520333D01*
X229971761Y-127567952D01*
X229924142Y-127615571D01*
X229876523Y-127710809D01*
X229876523Y-127948904D01*
X229924142Y-128044142D01*
X229971761Y-128091761D01*
X230067000Y-128139380D01*
X230352714Y-128139380D01*
X230447952Y-128091761D01*
X230495571Y-128044142D01*
X229019380Y-127139380D02*
X229209857Y-127139380D01*
X229305095Y-127187000D01*
X229352714Y-127234619D01*
X229447952Y-127377476D01*
X229495571Y-127567952D01*
X229495571Y-127948904D01*
X229447952Y-128044142D01*
X229400333Y-128091761D01*
X229305095Y-128139380D01*
X229114619Y-128139380D01*
X229019380Y-128091761D01*
X228971761Y-128044142D01*
X228924142Y-127948904D01*
X228924142Y-127710809D01*
X228971761Y-127615571D01*
X229019380Y-127567952D01*
X229114619Y-127520333D01*
X229305095Y-127520333D01*
X229400333Y-127567952D01*
X229447952Y-127615571D01*
X229495571Y-127710809D01*
%TO.C,C95*%
X226415142Y-123474742D02*
X226462761Y-123427123D01*
X226510380Y-123284266D01*
X226510380Y-123189028D01*
X226462761Y-123046171D01*
X226367523Y-122950933D01*
X226272285Y-122903314D01*
X226081809Y-122855695D01*
X225938952Y-122855695D01*
X225748476Y-122903314D01*
X225653238Y-122950933D01*
X225558000Y-123046171D01*
X225510380Y-123189028D01*
X225510380Y-123284266D01*
X225558000Y-123427123D01*
X225605619Y-123474742D01*
X226510380Y-123950933D02*
X226510380Y-124141409D01*
X226462761Y-124236647D01*
X226415142Y-124284266D01*
X226272285Y-124379504D01*
X226081809Y-124427123D01*
X225700857Y-124427123D01*
X225605619Y-124379504D01*
X225558000Y-124331885D01*
X225510380Y-124236647D01*
X225510380Y-124046171D01*
X225558000Y-123950933D01*
X225605619Y-123903314D01*
X225700857Y-123855695D01*
X225938952Y-123855695D01*
X226034190Y-123903314D01*
X226081809Y-123950933D01*
X226129428Y-124046171D01*
X226129428Y-124236647D01*
X226081809Y-124331885D01*
X226034190Y-124379504D01*
X225938952Y-124427123D01*
X225510380Y-125331885D02*
X225510380Y-124855695D01*
X225986571Y-124808076D01*
X225938952Y-124855695D01*
X225891333Y-124950933D01*
X225891333Y-125189028D01*
X225938952Y-125284266D01*
X225986571Y-125331885D01*
X226081809Y-125379504D01*
X226319904Y-125379504D01*
X226415142Y-125331885D01*
X226462761Y-125284266D01*
X226510380Y-125189028D01*
X226510380Y-124950933D01*
X226462761Y-124855695D01*
X226415142Y-124808076D01*
%TO.C,C101*%
X220982942Y-143242352D02*
X221030561Y-143194733D01*
X221078180Y-143051876D01*
X221078180Y-142956638D01*
X221030561Y-142813780D01*
X220935323Y-142718542D01*
X220840085Y-142670923D01*
X220649609Y-142623304D01*
X220506752Y-142623304D01*
X220316276Y-142670923D01*
X220221038Y-142718542D01*
X220125800Y-142813780D01*
X220078180Y-142956638D01*
X220078180Y-143051876D01*
X220125800Y-143194733D01*
X220173419Y-143242352D01*
X221078180Y-144194733D02*
X221078180Y-143623304D01*
X221078180Y-143909019D02*
X220078180Y-143909019D01*
X220221038Y-143813780D01*
X220316276Y-143718542D01*
X220363895Y-143623304D01*
X220078180Y-144813780D02*
X220078180Y-144909019D01*
X220125800Y-145004257D01*
X220173419Y-145051876D01*
X220268657Y-145099495D01*
X220459133Y-145147114D01*
X220697228Y-145147114D01*
X220887704Y-145099495D01*
X220982942Y-145051876D01*
X221030561Y-145004257D01*
X221078180Y-144909019D01*
X221078180Y-144813780D01*
X221030561Y-144718542D01*
X220982942Y-144670923D01*
X220887704Y-144623304D01*
X220697228Y-144575685D01*
X220459133Y-144575685D01*
X220268657Y-144623304D01*
X220173419Y-144670923D01*
X220125800Y-144718542D01*
X220078180Y-144813780D01*
X221078180Y-146099495D02*
X221078180Y-145528066D01*
X221078180Y-145813780D02*
X220078180Y-145813780D01*
X220221038Y-145718542D01*
X220316276Y-145623304D01*
X220363895Y-145528066D01*
%TO.C,C86*%
X182747457Y-131201542D02*
X182795076Y-131249161D01*
X182937933Y-131296780D01*
X183033171Y-131296780D01*
X183176028Y-131249161D01*
X183271266Y-131153923D01*
X183318885Y-131058685D01*
X183366504Y-130868209D01*
X183366504Y-130725352D01*
X183318885Y-130534876D01*
X183271266Y-130439638D01*
X183176028Y-130344400D01*
X183033171Y-130296780D01*
X182937933Y-130296780D01*
X182795076Y-130344400D01*
X182747457Y-130392019D01*
X182176028Y-130725352D02*
X182271266Y-130677733D01*
X182318885Y-130630114D01*
X182366504Y-130534876D01*
X182366504Y-130487257D01*
X182318885Y-130392019D01*
X182271266Y-130344400D01*
X182176028Y-130296780D01*
X181985552Y-130296780D01*
X181890314Y-130344400D01*
X181842695Y-130392019D01*
X181795076Y-130487257D01*
X181795076Y-130534876D01*
X181842695Y-130630114D01*
X181890314Y-130677733D01*
X181985552Y-130725352D01*
X182176028Y-130725352D01*
X182271266Y-130772971D01*
X182318885Y-130820590D01*
X182366504Y-130915828D01*
X182366504Y-131106304D01*
X182318885Y-131201542D01*
X182271266Y-131249161D01*
X182176028Y-131296780D01*
X181985552Y-131296780D01*
X181890314Y-131249161D01*
X181842695Y-131201542D01*
X181795076Y-131106304D01*
X181795076Y-130915828D01*
X181842695Y-130820590D01*
X181890314Y-130772971D01*
X181985552Y-130725352D01*
X180937933Y-130296780D02*
X181128409Y-130296780D01*
X181223647Y-130344400D01*
X181271266Y-130392019D01*
X181366504Y-130534876D01*
X181414123Y-130725352D01*
X181414123Y-131106304D01*
X181366504Y-131201542D01*
X181318885Y-131249161D01*
X181223647Y-131296780D01*
X181033171Y-131296780D01*
X180937933Y-131249161D01*
X180890314Y-131201542D01*
X180842695Y-131106304D01*
X180842695Y-130868209D01*
X180890314Y-130772971D01*
X180937933Y-130725352D01*
X181033171Y-130677733D01*
X181223647Y-130677733D01*
X181318885Y-130725352D01*
X181366504Y-130772971D01*
X181414123Y-130868209D01*
%TO.C,D5*%
X168898380Y-141616704D02*
X167898380Y-141616704D01*
X167898380Y-141854800D01*
X167946000Y-141997657D01*
X168041238Y-142092895D01*
X168136476Y-142140514D01*
X168326952Y-142188133D01*
X168469809Y-142188133D01*
X168660285Y-142140514D01*
X168755523Y-142092895D01*
X168850761Y-141997657D01*
X168898380Y-141854800D01*
X168898380Y-141616704D01*
X167898380Y-143092895D02*
X167898380Y-142616704D01*
X168374571Y-142569085D01*
X168326952Y-142616704D01*
X168279333Y-142711942D01*
X168279333Y-142950038D01*
X168326952Y-143045276D01*
X168374571Y-143092895D01*
X168469809Y-143140514D01*
X168707904Y-143140514D01*
X168803142Y-143092895D01*
X168850761Y-143045276D01*
X168898380Y-142950038D01*
X168898380Y-142711942D01*
X168850761Y-142616704D01*
X168803142Y-142569085D01*
%TO.C,C82*%
X156507142Y-122357142D02*
X156554761Y-122309523D01*
X156602380Y-122166666D01*
X156602380Y-122071428D01*
X156554761Y-121928571D01*
X156459523Y-121833333D01*
X156364285Y-121785714D01*
X156173809Y-121738095D01*
X156030952Y-121738095D01*
X155840476Y-121785714D01*
X155745238Y-121833333D01*
X155650000Y-121928571D01*
X155602380Y-122071428D01*
X155602380Y-122166666D01*
X155650000Y-122309523D01*
X155697619Y-122357142D01*
X156030952Y-122928571D02*
X155983333Y-122833333D01*
X155935714Y-122785714D01*
X155840476Y-122738095D01*
X155792857Y-122738095D01*
X155697619Y-122785714D01*
X155650000Y-122833333D01*
X155602380Y-122928571D01*
X155602380Y-123119047D01*
X155650000Y-123214285D01*
X155697619Y-123261904D01*
X155792857Y-123309523D01*
X155840476Y-123309523D01*
X155935714Y-123261904D01*
X155983333Y-123214285D01*
X156030952Y-123119047D01*
X156030952Y-122928571D01*
X156078571Y-122833333D01*
X156126190Y-122785714D01*
X156221428Y-122738095D01*
X156411904Y-122738095D01*
X156507142Y-122785714D01*
X156554761Y-122833333D01*
X156602380Y-122928571D01*
X156602380Y-123119047D01*
X156554761Y-123214285D01*
X156507142Y-123261904D01*
X156411904Y-123309523D01*
X156221428Y-123309523D01*
X156126190Y-123261904D01*
X156078571Y-123214285D01*
X156030952Y-123119047D01*
X155697619Y-123690476D02*
X155650000Y-123738095D01*
X155602380Y-123833333D01*
X155602380Y-124071428D01*
X155650000Y-124166666D01*
X155697619Y-124214285D01*
X155792857Y-124261904D01*
X155888095Y-124261904D01*
X156030952Y-124214285D01*
X156602380Y-123642857D01*
X156602380Y-124261904D01*
%TO.C,C80*%
X160952142Y-145877542D02*
X160999761Y-145829923D01*
X161047380Y-145687066D01*
X161047380Y-145591828D01*
X160999761Y-145448971D01*
X160904523Y-145353733D01*
X160809285Y-145306114D01*
X160618809Y-145258495D01*
X160475952Y-145258495D01*
X160285476Y-145306114D01*
X160190238Y-145353733D01*
X160095000Y-145448971D01*
X160047380Y-145591828D01*
X160047380Y-145687066D01*
X160095000Y-145829923D01*
X160142619Y-145877542D01*
X160475952Y-146448971D02*
X160428333Y-146353733D01*
X160380714Y-146306114D01*
X160285476Y-146258495D01*
X160237857Y-146258495D01*
X160142619Y-146306114D01*
X160095000Y-146353733D01*
X160047380Y-146448971D01*
X160047380Y-146639447D01*
X160095000Y-146734685D01*
X160142619Y-146782304D01*
X160237857Y-146829923D01*
X160285476Y-146829923D01*
X160380714Y-146782304D01*
X160428333Y-146734685D01*
X160475952Y-146639447D01*
X160475952Y-146448971D01*
X160523571Y-146353733D01*
X160571190Y-146306114D01*
X160666428Y-146258495D01*
X160856904Y-146258495D01*
X160952142Y-146306114D01*
X160999761Y-146353733D01*
X161047380Y-146448971D01*
X161047380Y-146639447D01*
X160999761Y-146734685D01*
X160952142Y-146782304D01*
X160856904Y-146829923D01*
X160666428Y-146829923D01*
X160571190Y-146782304D01*
X160523571Y-146734685D01*
X160475952Y-146639447D01*
X160047380Y-147448971D02*
X160047380Y-147544209D01*
X160095000Y-147639447D01*
X160142619Y-147687066D01*
X160237857Y-147734685D01*
X160428333Y-147782304D01*
X160666428Y-147782304D01*
X160856904Y-147734685D01*
X160952142Y-147687066D01*
X160999761Y-147639447D01*
X161047380Y-147544209D01*
X161047380Y-147448971D01*
X160999761Y-147353733D01*
X160952142Y-147306114D01*
X160856904Y-147258495D01*
X160666428Y-147210876D01*
X160428333Y-147210876D01*
X160237857Y-147258495D01*
X160142619Y-147306114D01*
X160095000Y-147353733D01*
X160047380Y-147448971D01*
%TO.C,J22*%
X166454923Y-153299980D02*
X166454923Y-154014266D01*
X166502542Y-154157123D01*
X166597780Y-154252361D01*
X166740638Y-154299980D01*
X166835876Y-154299980D01*
X166026352Y-153395219D02*
X165978733Y-153347600D01*
X165883495Y-153299980D01*
X165645400Y-153299980D01*
X165550161Y-153347600D01*
X165502542Y-153395219D01*
X165454923Y-153490457D01*
X165454923Y-153585695D01*
X165502542Y-153728552D01*
X166073971Y-154299980D01*
X165454923Y-154299980D01*
X165073971Y-153395219D02*
X165026352Y-153347600D01*
X164931114Y-153299980D01*
X164693019Y-153299980D01*
X164597780Y-153347600D01*
X164550161Y-153395219D01*
X164502542Y-153490457D01*
X164502542Y-153585695D01*
X164550161Y-153728552D01*
X165121590Y-154299980D01*
X164502542Y-154299980D01*
X167099400Y-153377600D02*
X166566066Y-153377600D01*
X166832733Y-153644266D02*
X166832733Y-153110933D01*
X166232733Y-153644266D02*
X166232733Y-152944266D01*
X165832733Y-153644266D01*
X165832733Y-152944266D01*
X165499400Y-153644266D02*
X165499400Y-153177600D01*
X165499400Y-153310933D02*
X165466066Y-153244266D01*
X165432733Y-153210933D01*
X165366066Y-153177600D01*
X165299400Y-153177600D01*
X164832733Y-153277600D02*
X164732733Y-153310933D01*
X164699400Y-153344266D01*
X164666066Y-153410933D01*
X164666066Y-153510933D01*
X164699400Y-153577600D01*
X164732733Y-153610933D01*
X164799400Y-153644266D01*
X165066066Y-153644266D01*
X165066066Y-152944266D01*
X164832733Y-152944266D01*
X164766066Y-152977600D01*
X164732733Y-153010933D01*
X164699400Y-153077600D01*
X164699400Y-153144266D01*
X164732733Y-153210933D01*
X164766066Y-153244266D01*
X164832733Y-153277600D01*
X165066066Y-153277600D01*
%TO.C,C75*%
X173501857Y-126194342D02*
X173549476Y-126241961D01*
X173692333Y-126289580D01*
X173787571Y-126289580D01*
X173930428Y-126241961D01*
X174025666Y-126146723D01*
X174073285Y-126051485D01*
X174120904Y-125861009D01*
X174120904Y-125718152D01*
X174073285Y-125527676D01*
X174025666Y-125432438D01*
X173930428Y-125337200D01*
X173787571Y-125289580D01*
X173692333Y-125289580D01*
X173549476Y-125337200D01*
X173501857Y-125384819D01*
X173168523Y-125289580D02*
X172501857Y-125289580D01*
X172930428Y-126289580D01*
X171644714Y-125289580D02*
X172120904Y-125289580D01*
X172168523Y-125765771D01*
X172120904Y-125718152D01*
X172025666Y-125670533D01*
X171787571Y-125670533D01*
X171692333Y-125718152D01*
X171644714Y-125765771D01*
X171597095Y-125861009D01*
X171597095Y-126099104D01*
X171644714Y-126194342D01*
X171692333Y-126241961D01*
X171787571Y-126289580D01*
X172025666Y-126289580D01*
X172120904Y-126241961D01*
X172168523Y-126194342D01*
%TO.C,J24*%
X155786923Y-141583980D02*
X155786923Y-142298266D01*
X155834542Y-142441123D01*
X155929780Y-142536361D01*
X156072638Y-142583980D01*
X156167876Y-142583980D01*
X155358352Y-141679219D02*
X155310733Y-141631600D01*
X155215495Y-141583980D01*
X154977400Y-141583980D01*
X154882161Y-141631600D01*
X154834542Y-141679219D01*
X154786923Y-141774457D01*
X154786923Y-141869695D01*
X154834542Y-142012552D01*
X155405971Y-142583980D01*
X154786923Y-142583980D01*
X153929780Y-141917314D02*
X153929780Y-142583980D01*
X154167876Y-141536361D02*
X154405971Y-142250647D01*
X153786923Y-142250647D01*
%TO.C,J19*%
X151209923Y-144069980D02*
X151209923Y-144784266D01*
X151257542Y-144927123D01*
X151352780Y-145022361D01*
X151495638Y-145069980D01*
X151590876Y-145069980D01*
X150209923Y-145069980D02*
X150781352Y-145069980D01*
X150495638Y-145069980D02*
X150495638Y-144069980D01*
X150590876Y-144212838D01*
X150686114Y-144308076D01*
X150781352Y-144355695D01*
X149733733Y-145069980D02*
X149543257Y-145069980D01*
X149448019Y-145022361D01*
X149400400Y-144974742D01*
X149305161Y-144831885D01*
X149257542Y-144641409D01*
X149257542Y-144260457D01*
X149305161Y-144165219D01*
X149352780Y-144117600D01*
X149448019Y-144069980D01*
X149638495Y-144069980D01*
X149733733Y-144117600D01*
X149781352Y-144165219D01*
X149828971Y-144260457D01*
X149828971Y-144498552D01*
X149781352Y-144593790D01*
X149733733Y-144641409D01*
X149638495Y-144689028D01*
X149448019Y-144689028D01*
X149352780Y-144641409D01*
X149305161Y-144593790D01*
X149257542Y-144498552D01*
%TO.C,J23*%
X152662723Y-141629980D02*
X152662723Y-142344266D01*
X152710342Y-142487123D01*
X152805580Y-142582361D01*
X152948438Y-142629980D01*
X153043676Y-142629980D01*
X152234152Y-141725219D02*
X152186533Y-141677600D01*
X152091295Y-141629980D01*
X151853200Y-141629980D01*
X151757961Y-141677600D01*
X151710342Y-141725219D01*
X151662723Y-141820457D01*
X151662723Y-141915695D01*
X151710342Y-142058552D01*
X152281771Y-142629980D01*
X151662723Y-142629980D01*
X151329390Y-141629980D02*
X150710342Y-141629980D01*
X151043676Y-142010933D01*
X150900819Y-142010933D01*
X150805580Y-142058552D01*
X150757961Y-142106171D01*
X150710342Y-142201409D01*
X150710342Y-142439504D01*
X150757961Y-142534742D01*
X150805580Y-142582361D01*
X150900819Y-142629980D01*
X151186533Y-142629980D01*
X151281771Y-142582361D01*
X151329390Y-142534742D01*
%TO.C,C73*%
X180664657Y-132838942D02*
X180712276Y-132886561D01*
X180855133Y-132934180D01*
X180950371Y-132934180D01*
X181093228Y-132886561D01*
X181188466Y-132791323D01*
X181236085Y-132696085D01*
X181283704Y-132505609D01*
X181283704Y-132362752D01*
X181236085Y-132172276D01*
X181188466Y-132077038D01*
X181093228Y-131981800D01*
X180950371Y-131934180D01*
X180855133Y-131934180D01*
X180712276Y-131981800D01*
X180664657Y-132029419D01*
X180331323Y-131934180D02*
X179664657Y-131934180D01*
X180093228Y-132934180D01*
X179378942Y-131934180D02*
X178759895Y-131934180D01*
X179093228Y-132315133D01*
X178950371Y-132315133D01*
X178855133Y-132362752D01*
X178807514Y-132410371D01*
X178759895Y-132505609D01*
X178759895Y-132743704D01*
X178807514Y-132838942D01*
X178855133Y-132886561D01*
X178950371Y-132934180D01*
X179236085Y-132934180D01*
X179331323Y-132886561D01*
X179378942Y-132838942D01*
%TO.C,M6*%
X151582380Y-119218676D02*
X150582380Y-119218676D01*
X151296666Y-119552009D01*
X150582380Y-119885342D01*
X151582380Y-119885342D01*
X150582380Y-120790104D02*
X150582380Y-120599628D01*
X150630000Y-120504390D01*
X150677619Y-120456771D01*
X150820476Y-120361533D01*
X151010952Y-120313914D01*
X151391904Y-120313914D01*
X151487142Y-120361533D01*
X151534761Y-120409152D01*
X151582380Y-120504390D01*
X151582380Y-120694866D01*
X151534761Y-120790104D01*
X151487142Y-120837723D01*
X151391904Y-120885342D01*
X151153809Y-120885342D01*
X151058571Y-120837723D01*
X151010952Y-120790104D01*
X150963333Y-120694866D01*
X150963333Y-120504390D01*
X151010952Y-120409152D01*
X151058571Y-120361533D01*
X151153809Y-120313914D01*
D11*
%TO.C,Q9*%
X165649552Y-146911076D02*
X165770504Y-146850600D01*
X165891457Y-146729647D01*
X166072885Y-146548219D01*
X166193838Y-146487742D01*
X166314790Y-146487742D01*
X166254314Y-146790123D02*
X166375266Y-146729647D01*
X166496219Y-146608695D01*
X166556695Y-146366790D01*
X166556695Y-145943457D01*
X166496219Y-145701552D01*
X166375266Y-145580600D01*
X166254314Y-145520123D01*
X166012409Y-145520123D01*
X165891457Y-145580600D01*
X165770504Y-145701552D01*
X165710028Y-145943457D01*
X165710028Y-146366790D01*
X165770504Y-146608695D01*
X165891457Y-146729647D01*
X166012409Y-146790123D01*
X166254314Y-146790123D01*
X165105266Y-146790123D02*
X164863361Y-146790123D01*
X164742409Y-146729647D01*
X164681933Y-146669171D01*
X164560980Y-146487742D01*
X164500504Y-146245838D01*
X164500504Y-145762028D01*
X164560980Y-145641076D01*
X164621457Y-145580600D01*
X164742409Y-145520123D01*
X164984314Y-145520123D01*
X165105266Y-145580600D01*
X165165742Y-145641076D01*
X165226219Y-145762028D01*
X165226219Y-146064409D01*
X165165742Y-146185361D01*
X165105266Y-146245838D01*
X164984314Y-146306314D01*
X164742409Y-146306314D01*
X164621457Y-146245838D01*
X164560980Y-146185361D01*
X164500504Y-146064409D01*
%TO.C,IC6*%
X162054323Y-138575038D02*
X160784323Y-138575038D01*
X161933371Y-139905514D02*
X161993847Y-139845038D01*
X162054323Y-139663609D01*
X162054323Y-139542657D01*
X161993847Y-139361228D01*
X161872895Y-139240276D01*
X161751942Y-139179800D01*
X161510038Y-139119323D01*
X161328609Y-139119323D01*
X161086704Y-139179800D01*
X160965752Y-139240276D01*
X160844800Y-139361228D01*
X160784323Y-139542657D01*
X160784323Y-139663609D01*
X160844800Y-139845038D01*
X160905276Y-139905514D01*
X160784323Y-140994085D02*
X160784323Y-140752180D01*
X160844800Y-140631228D01*
X160905276Y-140570752D01*
X161086704Y-140449800D01*
X161328609Y-140389323D01*
X161812419Y-140389323D01*
X161933371Y-140449800D01*
X161993847Y-140510276D01*
X162054323Y-140631228D01*
X162054323Y-140873133D01*
X161993847Y-140994085D01*
X161933371Y-141054561D01*
X161812419Y-141115038D01*
X161510038Y-141115038D01*
X161389085Y-141054561D01*
X161328609Y-140994085D01*
X161268133Y-140873133D01*
X161268133Y-140631228D01*
X161328609Y-140510276D01*
X161389085Y-140449800D01*
X161510038Y-140389323D01*
D10*
%TO.C,R58*%
X182920180Y-122915942D02*
X182443990Y-122582609D01*
X182920180Y-122344514D02*
X181920180Y-122344514D01*
X181920180Y-122725466D01*
X181967800Y-122820704D01*
X182015419Y-122868323D01*
X182110657Y-122915942D01*
X182253514Y-122915942D01*
X182348752Y-122868323D01*
X182396371Y-122820704D01*
X182443990Y-122725466D01*
X182443990Y-122344514D01*
X181920180Y-123820704D02*
X181920180Y-123344514D01*
X182396371Y-123296895D01*
X182348752Y-123344514D01*
X182301133Y-123439752D01*
X182301133Y-123677847D01*
X182348752Y-123773085D01*
X182396371Y-123820704D01*
X182491609Y-123868323D01*
X182729704Y-123868323D01*
X182824942Y-123820704D01*
X182872561Y-123773085D01*
X182920180Y-123677847D01*
X182920180Y-123439752D01*
X182872561Y-123344514D01*
X182824942Y-123296895D01*
X182348752Y-124439752D02*
X182301133Y-124344514D01*
X182253514Y-124296895D01*
X182158276Y-124249276D01*
X182110657Y-124249276D01*
X182015419Y-124296895D01*
X181967800Y-124344514D01*
X181920180Y-124439752D01*
X181920180Y-124630228D01*
X181967800Y-124725466D01*
X182015419Y-124773085D01*
X182110657Y-124820704D01*
X182158276Y-124820704D01*
X182253514Y-124773085D01*
X182301133Y-124725466D01*
X182348752Y-124630228D01*
X182348752Y-124439752D01*
X182396371Y-124344514D01*
X182443990Y-124296895D01*
X182539228Y-124249276D01*
X182729704Y-124249276D01*
X182824942Y-124296895D01*
X182872561Y-124344514D01*
X182920180Y-124439752D01*
X182920180Y-124630228D01*
X182872561Y-124725466D01*
X182824942Y-124773085D01*
X182729704Y-124820704D01*
X182539228Y-124820704D01*
X182443990Y-124773085D01*
X182396371Y-124725466D01*
X182348752Y-124630228D01*
%TO.C,C69*%
X167177257Y-141068542D02*
X167224876Y-141116161D01*
X167367733Y-141163780D01*
X167462971Y-141163780D01*
X167605828Y-141116161D01*
X167701066Y-141020923D01*
X167748685Y-140925685D01*
X167796304Y-140735209D01*
X167796304Y-140592352D01*
X167748685Y-140401876D01*
X167701066Y-140306638D01*
X167605828Y-140211400D01*
X167462971Y-140163780D01*
X167367733Y-140163780D01*
X167224876Y-140211400D01*
X167177257Y-140259019D01*
X166320114Y-140163780D02*
X166510590Y-140163780D01*
X166605828Y-140211400D01*
X166653447Y-140259019D01*
X166748685Y-140401876D01*
X166796304Y-140592352D01*
X166796304Y-140973304D01*
X166748685Y-141068542D01*
X166701066Y-141116161D01*
X166605828Y-141163780D01*
X166415352Y-141163780D01*
X166320114Y-141116161D01*
X166272495Y-141068542D01*
X166224876Y-140973304D01*
X166224876Y-140735209D01*
X166272495Y-140639971D01*
X166320114Y-140592352D01*
X166415352Y-140544733D01*
X166605828Y-140544733D01*
X166701066Y-140592352D01*
X166748685Y-140639971D01*
X166796304Y-140735209D01*
X165748685Y-141163780D02*
X165558209Y-141163780D01*
X165462971Y-141116161D01*
X165415352Y-141068542D01*
X165320114Y-140925685D01*
X165272495Y-140735209D01*
X165272495Y-140354257D01*
X165320114Y-140259019D01*
X165367733Y-140211400D01*
X165462971Y-140163780D01*
X165653447Y-140163780D01*
X165748685Y-140211400D01*
X165796304Y-140259019D01*
X165843923Y-140354257D01*
X165843923Y-140592352D01*
X165796304Y-140687590D01*
X165748685Y-140735209D01*
X165653447Y-140782828D01*
X165462971Y-140782828D01*
X165367733Y-140735209D01*
X165320114Y-140687590D01*
X165272495Y-140592352D01*
%TO.C,R60*%
X181421580Y-122915942D02*
X180945390Y-122582609D01*
X181421580Y-122344514D02*
X180421580Y-122344514D01*
X180421580Y-122725466D01*
X180469200Y-122820704D01*
X180516819Y-122868323D01*
X180612057Y-122915942D01*
X180754914Y-122915942D01*
X180850152Y-122868323D01*
X180897771Y-122820704D01*
X180945390Y-122725466D01*
X180945390Y-122344514D01*
X180421580Y-123773085D02*
X180421580Y-123582609D01*
X180469200Y-123487371D01*
X180516819Y-123439752D01*
X180659676Y-123344514D01*
X180850152Y-123296895D01*
X181231104Y-123296895D01*
X181326342Y-123344514D01*
X181373961Y-123392133D01*
X181421580Y-123487371D01*
X181421580Y-123677847D01*
X181373961Y-123773085D01*
X181326342Y-123820704D01*
X181231104Y-123868323D01*
X180993009Y-123868323D01*
X180897771Y-123820704D01*
X180850152Y-123773085D01*
X180802533Y-123677847D01*
X180802533Y-123487371D01*
X180850152Y-123392133D01*
X180897771Y-123344514D01*
X180993009Y-123296895D01*
X180421580Y-124487371D02*
X180421580Y-124582609D01*
X180469200Y-124677847D01*
X180516819Y-124725466D01*
X180612057Y-124773085D01*
X180802533Y-124820704D01*
X181040628Y-124820704D01*
X181231104Y-124773085D01*
X181326342Y-124725466D01*
X181373961Y-124677847D01*
X181421580Y-124582609D01*
X181421580Y-124487371D01*
X181373961Y-124392133D01*
X181326342Y-124344514D01*
X181231104Y-124296895D01*
X181040628Y-124249276D01*
X180802533Y-124249276D01*
X180612057Y-124296895D01*
X180516819Y-124344514D01*
X180469200Y-124392133D01*
X180421580Y-124487371D01*
%TO.C,C66*%
X180588457Y-139468342D02*
X180636076Y-139515961D01*
X180778933Y-139563580D01*
X180874171Y-139563580D01*
X181017028Y-139515961D01*
X181112266Y-139420723D01*
X181159885Y-139325485D01*
X181207504Y-139135009D01*
X181207504Y-138992152D01*
X181159885Y-138801676D01*
X181112266Y-138706438D01*
X181017028Y-138611200D01*
X180874171Y-138563580D01*
X180778933Y-138563580D01*
X180636076Y-138611200D01*
X180588457Y-138658819D01*
X179731314Y-138563580D02*
X179921790Y-138563580D01*
X180017028Y-138611200D01*
X180064647Y-138658819D01*
X180159885Y-138801676D01*
X180207504Y-138992152D01*
X180207504Y-139373104D01*
X180159885Y-139468342D01*
X180112266Y-139515961D01*
X180017028Y-139563580D01*
X179826552Y-139563580D01*
X179731314Y-139515961D01*
X179683695Y-139468342D01*
X179636076Y-139373104D01*
X179636076Y-139135009D01*
X179683695Y-139039771D01*
X179731314Y-138992152D01*
X179826552Y-138944533D01*
X180017028Y-138944533D01*
X180112266Y-138992152D01*
X180159885Y-139039771D01*
X180207504Y-139135009D01*
X178778933Y-138563580D02*
X178969409Y-138563580D01*
X179064647Y-138611200D01*
X179112266Y-138658819D01*
X179207504Y-138801676D01*
X179255123Y-138992152D01*
X179255123Y-139373104D01*
X179207504Y-139468342D01*
X179159885Y-139515961D01*
X179064647Y-139563580D01*
X178874171Y-139563580D01*
X178778933Y-139515961D01*
X178731314Y-139468342D01*
X178683695Y-139373104D01*
X178683695Y-139135009D01*
X178731314Y-139039771D01*
X178778933Y-138992152D01*
X178874171Y-138944533D01*
X179064647Y-138944533D01*
X179159885Y-138992152D01*
X179207504Y-139039771D01*
X179255123Y-139135009D01*
%TO.C,R59*%
X156554980Y-122458742D02*
X156078790Y-122125409D01*
X156554980Y-121887314D02*
X155554980Y-121887314D01*
X155554980Y-122268266D01*
X155602600Y-122363504D01*
X155650219Y-122411123D01*
X155745457Y-122458742D01*
X155888314Y-122458742D01*
X155983552Y-122411123D01*
X156031171Y-122363504D01*
X156078790Y-122268266D01*
X156078790Y-121887314D01*
X155554980Y-123363504D02*
X155554980Y-122887314D01*
X156031171Y-122839695D01*
X155983552Y-122887314D01*
X155935933Y-122982552D01*
X155935933Y-123220647D01*
X155983552Y-123315885D01*
X156031171Y-123363504D01*
X156126409Y-123411123D01*
X156364504Y-123411123D01*
X156459742Y-123363504D01*
X156507361Y-123315885D01*
X156554980Y-123220647D01*
X156554980Y-122982552D01*
X156507361Y-122887314D01*
X156459742Y-122839695D01*
X156554980Y-123887314D02*
X156554980Y-124077790D01*
X156507361Y-124173028D01*
X156459742Y-124220647D01*
X156316885Y-124315885D01*
X156126409Y-124363504D01*
X155745457Y-124363504D01*
X155650219Y-124315885D01*
X155602600Y-124268266D01*
X155554980Y-124173028D01*
X155554980Y-123982552D01*
X155602600Y-123887314D01*
X155650219Y-123839695D01*
X155745457Y-123792076D01*
X155983552Y-123792076D01*
X156078790Y-123839695D01*
X156126409Y-123887314D01*
X156174028Y-123982552D01*
X156174028Y-124173028D01*
X156126409Y-124268266D01*
X156078790Y-124315885D01*
X155983552Y-124363504D01*
%TO.C,C79*%
X155874257Y-141420742D02*
X155921876Y-141468361D01*
X156064733Y-141515980D01*
X156159971Y-141515980D01*
X156302828Y-141468361D01*
X156398066Y-141373123D01*
X156445685Y-141277885D01*
X156493304Y-141087409D01*
X156493304Y-140944552D01*
X156445685Y-140754076D01*
X156398066Y-140658838D01*
X156302828Y-140563600D01*
X156159971Y-140515980D01*
X156064733Y-140515980D01*
X155921876Y-140563600D01*
X155874257Y-140611219D01*
X155540923Y-140515980D02*
X154874257Y-140515980D01*
X155302828Y-141515980D01*
X154445685Y-141515980D02*
X154255209Y-141515980D01*
X154159971Y-141468361D01*
X154112352Y-141420742D01*
X154017114Y-141277885D01*
X153969495Y-141087409D01*
X153969495Y-140706457D01*
X154017114Y-140611219D01*
X154064733Y-140563600D01*
X154159971Y-140515980D01*
X154350447Y-140515980D01*
X154445685Y-140563600D01*
X154493304Y-140611219D01*
X154540923Y-140706457D01*
X154540923Y-140944552D01*
X154493304Y-141039790D01*
X154445685Y-141087409D01*
X154350447Y-141135028D01*
X154159971Y-141135028D01*
X154064733Y-141087409D01*
X154017114Y-141039790D01*
X153969495Y-140944552D01*
%TO.C,C78*%
X164652142Y-150525742D02*
X164699761Y-150478123D01*
X164747380Y-150335266D01*
X164747380Y-150240028D01*
X164699761Y-150097171D01*
X164604523Y-150001933D01*
X164509285Y-149954314D01*
X164318809Y-149906695D01*
X164175952Y-149906695D01*
X163985476Y-149954314D01*
X163890238Y-150001933D01*
X163795000Y-150097171D01*
X163747380Y-150240028D01*
X163747380Y-150335266D01*
X163795000Y-150478123D01*
X163842619Y-150525742D01*
X163747380Y-150859076D02*
X163747380Y-151525742D01*
X164747380Y-151097171D01*
X164175952Y-152049552D02*
X164128333Y-151954314D01*
X164080714Y-151906695D01*
X163985476Y-151859076D01*
X163937857Y-151859076D01*
X163842619Y-151906695D01*
X163795000Y-151954314D01*
X163747380Y-152049552D01*
X163747380Y-152240028D01*
X163795000Y-152335266D01*
X163842619Y-152382885D01*
X163937857Y-152430504D01*
X163985476Y-152430504D01*
X164080714Y-152382885D01*
X164128333Y-152335266D01*
X164175952Y-152240028D01*
X164175952Y-152049552D01*
X164223571Y-151954314D01*
X164271190Y-151906695D01*
X164366428Y-151859076D01*
X164556904Y-151859076D01*
X164652142Y-151906695D01*
X164699761Y-151954314D01*
X164747380Y-152049552D01*
X164747380Y-152240028D01*
X164699761Y-152335266D01*
X164652142Y-152382885D01*
X164556904Y-152430504D01*
X164366428Y-152430504D01*
X164271190Y-152382885D01*
X164223571Y-152335266D01*
X164175952Y-152240028D01*
%TO.C,R54*%
X162859257Y-135728180D02*
X163192590Y-135251990D01*
X163430685Y-135728180D02*
X163430685Y-134728180D01*
X163049733Y-134728180D01*
X162954495Y-134775800D01*
X162906876Y-134823419D01*
X162859257Y-134918657D01*
X162859257Y-135061514D01*
X162906876Y-135156752D01*
X162954495Y-135204371D01*
X163049733Y-135251990D01*
X163430685Y-135251990D01*
X161954495Y-134728180D02*
X162430685Y-134728180D01*
X162478304Y-135204371D01*
X162430685Y-135156752D01*
X162335447Y-135109133D01*
X162097352Y-135109133D01*
X162002114Y-135156752D01*
X161954495Y-135204371D01*
X161906876Y-135299609D01*
X161906876Y-135537704D01*
X161954495Y-135632942D01*
X162002114Y-135680561D01*
X162097352Y-135728180D01*
X162335447Y-135728180D01*
X162430685Y-135680561D01*
X162478304Y-135632942D01*
X161049733Y-135061514D02*
X161049733Y-135728180D01*
X161287828Y-134680561D02*
X161525923Y-135394847D01*
X160906876Y-135394847D01*
%TO.C,C77*%
X170976742Y-146436342D02*
X171024361Y-146388723D01*
X171071980Y-146245866D01*
X171071980Y-146150628D01*
X171024361Y-146007771D01*
X170929123Y-145912533D01*
X170833885Y-145864914D01*
X170643409Y-145817295D01*
X170500552Y-145817295D01*
X170310076Y-145864914D01*
X170214838Y-145912533D01*
X170119600Y-146007771D01*
X170071980Y-146150628D01*
X170071980Y-146245866D01*
X170119600Y-146388723D01*
X170167219Y-146436342D01*
X170071980Y-146769676D02*
X170071980Y-147436342D01*
X171071980Y-147007771D01*
X170071980Y-147722057D02*
X170071980Y-148388723D01*
X171071980Y-147960152D01*
%TO.C,R49*%
X180639257Y-138039580D02*
X180972590Y-137563390D01*
X181210685Y-138039580D02*
X181210685Y-137039580D01*
X180829733Y-137039580D01*
X180734495Y-137087200D01*
X180686876Y-137134819D01*
X180639257Y-137230057D01*
X180639257Y-137372914D01*
X180686876Y-137468152D01*
X180734495Y-137515771D01*
X180829733Y-137563390D01*
X181210685Y-137563390D01*
X179782114Y-137372914D02*
X179782114Y-138039580D01*
X180020209Y-136991961D02*
X180258304Y-137706247D01*
X179639257Y-137706247D01*
X179210685Y-138039580D02*
X179020209Y-138039580D01*
X178924971Y-137991961D01*
X178877352Y-137944342D01*
X178782114Y-137801485D01*
X178734495Y-137611009D01*
X178734495Y-137230057D01*
X178782114Y-137134819D01*
X178829733Y-137087200D01*
X178924971Y-137039580D01*
X179115447Y-137039580D01*
X179210685Y-137087200D01*
X179258304Y-137134819D01*
X179305923Y-137230057D01*
X179305923Y-137468152D01*
X179258304Y-137563390D01*
X179210685Y-137611009D01*
X179115447Y-137658628D01*
X178924971Y-137658628D01*
X178829733Y-137611009D01*
X178782114Y-137563390D01*
X178734495Y-137468152D01*
%TO.C,C68*%
X183800342Y-147045942D02*
X183847961Y-146998323D01*
X183895580Y-146855466D01*
X183895580Y-146760228D01*
X183847961Y-146617371D01*
X183752723Y-146522133D01*
X183657485Y-146474514D01*
X183467009Y-146426895D01*
X183324152Y-146426895D01*
X183133676Y-146474514D01*
X183038438Y-146522133D01*
X182943200Y-146617371D01*
X182895580Y-146760228D01*
X182895580Y-146855466D01*
X182943200Y-146998323D01*
X182990819Y-147045942D01*
X182895580Y-147903085D02*
X182895580Y-147712609D01*
X182943200Y-147617371D01*
X182990819Y-147569752D01*
X183133676Y-147474514D01*
X183324152Y-147426895D01*
X183705104Y-147426895D01*
X183800342Y-147474514D01*
X183847961Y-147522133D01*
X183895580Y-147617371D01*
X183895580Y-147807847D01*
X183847961Y-147903085D01*
X183800342Y-147950704D01*
X183705104Y-147998323D01*
X183467009Y-147998323D01*
X183371771Y-147950704D01*
X183324152Y-147903085D01*
X183276533Y-147807847D01*
X183276533Y-147617371D01*
X183324152Y-147522133D01*
X183371771Y-147474514D01*
X183467009Y-147426895D01*
X183324152Y-148569752D02*
X183276533Y-148474514D01*
X183228914Y-148426895D01*
X183133676Y-148379276D01*
X183086057Y-148379276D01*
X182990819Y-148426895D01*
X182943200Y-148474514D01*
X182895580Y-148569752D01*
X182895580Y-148760228D01*
X182943200Y-148855466D01*
X182990819Y-148903085D01*
X183086057Y-148950704D01*
X183133676Y-148950704D01*
X183228914Y-148903085D01*
X183276533Y-148855466D01*
X183324152Y-148760228D01*
X183324152Y-148569752D01*
X183371771Y-148474514D01*
X183419390Y-148426895D01*
X183514628Y-148379276D01*
X183705104Y-148379276D01*
X183800342Y-148426895D01*
X183847961Y-148474514D01*
X183895580Y-148569752D01*
X183895580Y-148760228D01*
X183847961Y-148855466D01*
X183800342Y-148903085D01*
X183705104Y-148950704D01*
X183514628Y-148950704D01*
X183419390Y-148903085D01*
X183371771Y-148855466D01*
X183324152Y-148760228D01*
%TO.C,C83*%
X183050142Y-136325342D02*
X183097761Y-136277723D01*
X183145380Y-136134866D01*
X183145380Y-136039628D01*
X183097761Y-135896771D01*
X183002523Y-135801533D01*
X182907285Y-135753914D01*
X182716809Y-135706295D01*
X182573952Y-135706295D01*
X182383476Y-135753914D01*
X182288238Y-135801533D01*
X182193000Y-135896771D01*
X182145380Y-136039628D01*
X182145380Y-136134866D01*
X182193000Y-136277723D01*
X182240619Y-136325342D01*
X182573952Y-136896771D02*
X182526333Y-136801533D01*
X182478714Y-136753914D01*
X182383476Y-136706295D01*
X182335857Y-136706295D01*
X182240619Y-136753914D01*
X182193000Y-136801533D01*
X182145380Y-136896771D01*
X182145380Y-137087247D01*
X182193000Y-137182485D01*
X182240619Y-137230104D01*
X182335857Y-137277723D01*
X182383476Y-137277723D01*
X182478714Y-137230104D01*
X182526333Y-137182485D01*
X182573952Y-137087247D01*
X182573952Y-136896771D01*
X182621571Y-136801533D01*
X182669190Y-136753914D01*
X182764428Y-136706295D01*
X182954904Y-136706295D01*
X183050142Y-136753914D01*
X183097761Y-136801533D01*
X183145380Y-136896771D01*
X183145380Y-137087247D01*
X183097761Y-137182485D01*
X183050142Y-137230104D01*
X182954904Y-137277723D01*
X182764428Y-137277723D01*
X182669190Y-137230104D01*
X182621571Y-137182485D01*
X182573952Y-137087247D01*
X182145380Y-137611057D02*
X182145380Y-138230104D01*
X182526333Y-137896771D01*
X182526333Y-138039628D01*
X182573952Y-138134866D01*
X182621571Y-138182485D01*
X182716809Y-138230104D01*
X182954904Y-138230104D01*
X183050142Y-138182485D01*
X183097761Y-138134866D01*
X183145380Y-138039628D01*
X183145380Y-137753914D01*
X183097761Y-137658676D01*
X183050142Y-137611057D01*
%TO.C,C62*%
X176881342Y-126636742D02*
X176928961Y-126589123D01*
X176976580Y-126446266D01*
X176976580Y-126351028D01*
X176928961Y-126208171D01*
X176833723Y-126112933D01*
X176738485Y-126065314D01*
X176548009Y-126017695D01*
X176405152Y-126017695D01*
X176214676Y-126065314D01*
X176119438Y-126112933D01*
X176024200Y-126208171D01*
X175976580Y-126351028D01*
X175976580Y-126446266D01*
X176024200Y-126589123D01*
X176071819Y-126636742D01*
X175976580Y-127493885D02*
X175976580Y-127303409D01*
X176024200Y-127208171D01*
X176071819Y-127160552D01*
X176214676Y-127065314D01*
X176405152Y-127017695D01*
X176786104Y-127017695D01*
X176881342Y-127065314D01*
X176928961Y-127112933D01*
X176976580Y-127208171D01*
X176976580Y-127398647D01*
X176928961Y-127493885D01*
X176881342Y-127541504D01*
X176786104Y-127589123D01*
X176548009Y-127589123D01*
X176452771Y-127541504D01*
X176405152Y-127493885D01*
X176357533Y-127398647D01*
X176357533Y-127208171D01*
X176405152Y-127112933D01*
X176452771Y-127065314D01*
X176548009Y-127017695D01*
X176071819Y-127970076D02*
X176024200Y-128017695D01*
X175976580Y-128112933D01*
X175976580Y-128351028D01*
X176024200Y-128446266D01*
X176071819Y-128493885D01*
X176167057Y-128541504D01*
X176262295Y-128541504D01*
X176405152Y-128493885D01*
X176976580Y-127922457D01*
X176976580Y-128541504D01*
%TO.C,R61*%
X155081780Y-122458742D02*
X154605590Y-122125409D01*
X155081780Y-121887314D02*
X154081780Y-121887314D01*
X154081780Y-122268266D01*
X154129400Y-122363504D01*
X154177019Y-122411123D01*
X154272257Y-122458742D01*
X154415114Y-122458742D01*
X154510352Y-122411123D01*
X154557971Y-122363504D01*
X154605590Y-122268266D01*
X154605590Y-121887314D01*
X154081780Y-123315885D02*
X154081780Y-123125409D01*
X154129400Y-123030171D01*
X154177019Y-122982552D01*
X154319876Y-122887314D01*
X154510352Y-122839695D01*
X154891304Y-122839695D01*
X154986542Y-122887314D01*
X155034161Y-122934933D01*
X155081780Y-123030171D01*
X155081780Y-123220647D01*
X155034161Y-123315885D01*
X154986542Y-123363504D01*
X154891304Y-123411123D01*
X154653209Y-123411123D01*
X154557971Y-123363504D01*
X154510352Y-123315885D01*
X154462733Y-123220647D01*
X154462733Y-123030171D01*
X154510352Y-122934933D01*
X154557971Y-122887314D01*
X154653209Y-122839695D01*
X155081780Y-124363504D02*
X155081780Y-123792076D01*
X155081780Y-124077790D02*
X154081780Y-124077790D01*
X154224638Y-123982552D01*
X154319876Y-123887314D01*
X154367495Y-123792076D01*
%TO.C,C63*%
X173527257Y-127667542D02*
X173574876Y-127715161D01*
X173717733Y-127762780D01*
X173812971Y-127762780D01*
X173955828Y-127715161D01*
X174051066Y-127619923D01*
X174098685Y-127524685D01*
X174146304Y-127334209D01*
X174146304Y-127191352D01*
X174098685Y-127000876D01*
X174051066Y-126905638D01*
X173955828Y-126810400D01*
X173812971Y-126762780D01*
X173717733Y-126762780D01*
X173574876Y-126810400D01*
X173527257Y-126858019D01*
X172670114Y-126762780D02*
X172860590Y-126762780D01*
X172955828Y-126810400D01*
X173003447Y-126858019D01*
X173098685Y-127000876D01*
X173146304Y-127191352D01*
X173146304Y-127572304D01*
X173098685Y-127667542D01*
X173051066Y-127715161D01*
X172955828Y-127762780D01*
X172765352Y-127762780D01*
X172670114Y-127715161D01*
X172622495Y-127667542D01*
X172574876Y-127572304D01*
X172574876Y-127334209D01*
X172622495Y-127238971D01*
X172670114Y-127191352D01*
X172765352Y-127143733D01*
X172955828Y-127143733D01*
X173051066Y-127191352D01*
X173098685Y-127238971D01*
X173146304Y-127334209D01*
X172241542Y-126762780D02*
X171622495Y-126762780D01*
X171955828Y-127143733D01*
X171812971Y-127143733D01*
X171717733Y-127191352D01*
X171670114Y-127238971D01*
X171622495Y-127334209D01*
X171622495Y-127572304D01*
X171670114Y-127667542D01*
X171717733Y-127715161D01*
X171812971Y-127762780D01*
X172098685Y-127762780D01*
X172193923Y-127715161D01*
X172241542Y-127667542D01*
%TO.C,M5*%
X178699180Y-119421876D02*
X177699180Y-119421876D01*
X178413466Y-119755209D01*
X177699180Y-120088542D01*
X178699180Y-120088542D01*
X177699180Y-121040923D02*
X177699180Y-120564733D01*
X178175371Y-120517114D01*
X178127752Y-120564733D01*
X178080133Y-120659971D01*
X178080133Y-120898066D01*
X178127752Y-120993304D01*
X178175371Y-121040923D01*
X178270609Y-121088542D01*
X178508704Y-121088542D01*
X178603942Y-121040923D01*
X178651561Y-120993304D01*
X178699180Y-120898066D01*
X178699180Y-120659971D01*
X178651561Y-120564733D01*
X178603942Y-120517114D01*
%TO.C,J27*%
X186876523Y-127139380D02*
X186876523Y-127853666D01*
X186924142Y-127996523D01*
X187019380Y-128091761D01*
X187162238Y-128139380D01*
X187257476Y-128139380D01*
X186447952Y-127234619D02*
X186400333Y-127187000D01*
X186305095Y-127139380D01*
X186067000Y-127139380D01*
X185971761Y-127187000D01*
X185924142Y-127234619D01*
X185876523Y-127329857D01*
X185876523Y-127425095D01*
X185924142Y-127567952D01*
X186495571Y-128139380D01*
X185876523Y-128139380D01*
X185543190Y-127139380D02*
X184876523Y-127139380D01*
X185305095Y-128139380D01*
%TO.C,C65*%
X182415142Y-123474742D02*
X182462761Y-123427123D01*
X182510380Y-123284266D01*
X182510380Y-123189028D01*
X182462761Y-123046171D01*
X182367523Y-122950933D01*
X182272285Y-122903314D01*
X182081809Y-122855695D01*
X181938952Y-122855695D01*
X181748476Y-122903314D01*
X181653238Y-122950933D01*
X181558000Y-123046171D01*
X181510380Y-123189028D01*
X181510380Y-123284266D01*
X181558000Y-123427123D01*
X181605619Y-123474742D01*
X181510380Y-124331885D02*
X181510380Y-124141409D01*
X181558000Y-124046171D01*
X181605619Y-123998552D01*
X181748476Y-123903314D01*
X181938952Y-123855695D01*
X182319904Y-123855695D01*
X182415142Y-123903314D01*
X182462761Y-123950933D01*
X182510380Y-124046171D01*
X182510380Y-124236647D01*
X182462761Y-124331885D01*
X182415142Y-124379504D01*
X182319904Y-124427123D01*
X182081809Y-124427123D01*
X181986571Y-124379504D01*
X181938952Y-124331885D01*
X181891333Y-124236647D01*
X181891333Y-124046171D01*
X181938952Y-123950933D01*
X181986571Y-123903314D01*
X182081809Y-123855695D01*
X181510380Y-125331885D02*
X181510380Y-124855695D01*
X181986571Y-124808076D01*
X181938952Y-124855695D01*
X181891333Y-124950933D01*
X181891333Y-125189028D01*
X181938952Y-125284266D01*
X181986571Y-125331885D01*
X182081809Y-125379504D01*
X182319904Y-125379504D01*
X182415142Y-125331885D01*
X182462761Y-125284266D01*
X182510380Y-125189028D01*
X182510380Y-124950933D01*
X182462761Y-124855695D01*
X182415142Y-124808076D01*
%TO.C,C71*%
X176982942Y-143718542D02*
X177030561Y-143670923D01*
X177078180Y-143528066D01*
X177078180Y-143432828D01*
X177030561Y-143289971D01*
X176935323Y-143194733D01*
X176840085Y-143147114D01*
X176649609Y-143099495D01*
X176506752Y-143099495D01*
X176316276Y-143147114D01*
X176221038Y-143194733D01*
X176125800Y-143289971D01*
X176078180Y-143432828D01*
X176078180Y-143528066D01*
X176125800Y-143670923D01*
X176173419Y-143718542D01*
X176078180Y-144051876D02*
X176078180Y-144718542D01*
X177078180Y-144289971D01*
X177078180Y-145623304D02*
X177078180Y-145051876D01*
X177078180Y-145337590D02*
X176078180Y-145337590D01*
X176221038Y-145242352D01*
X176316276Y-145147114D01*
X176363895Y-145051876D01*
%TO.C,C56*%
X226747457Y-95201542D02*
X226795076Y-95249161D01*
X226937933Y-95296780D01*
X227033171Y-95296780D01*
X227176028Y-95249161D01*
X227271266Y-95153923D01*
X227318885Y-95058685D01*
X227366504Y-94868209D01*
X227366504Y-94725352D01*
X227318885Y-94534876D01*
X227271266Y-94439638D01*
X227176028Y-94344400D01*
X227033171Y-94296780D01*
X226937933Y-94296780D01*
X226795076Y-94344400D01*
X226747457Y-94392019D01*
X225842695Y-94296780D02*
X226318885Y-94296780D01*
X226366504Y-94772971D01*
X226318885Y-94725352D01*
X226223647Y-94677733D01*
X225985552Y-94677733D01*
X225890314Y-94725352D01*
X225842695Y-94772971D01*
X225795076Y-94868209D01*
X225795076Y-95106304D01*
X225842695Y-95201542D01*
X225890314Y-95249161D01*
X225985552Y-95296780D01*
X226223647Y-95296780D01*
X226318885Y-95249161D01*
X226366504Y-95201542D01*
X224937933Y-94296780D02*
X225128409Y-94296780D01*
X225223647Y-94344400D01*
X225271266Y-94392019D01*
X225366504Y-94534876D01*
X225414123Y-94725352D01*
X225414123Y-95106304D01*
X225366504Y-95201542D01*
X225318885Y-95249161D01*
X225223647Y-95296780D01*
X225033171Y-95296780D01*
X224937933Y-95249161D01*
X224890314Y-95201542D01*
X224842695Y-95106304D01*
X224842695Y-94868209D01*
X224890314Y-94772971D01*
X224937933Y-94725352D01*
X225033171Y-94677733D01*
X225223647Y-94677733D01*
X225318885Y-94725352D01*
X225366504Y-94772971D01*
X225414123Y-94868209D01*
%TO.C,D2*%
X212898380Y-105616704D02*
X211898380Y-105616704D01*
X211898380Y-105854800D01*
X211946000Y-105997657D01*
X212041238Y-106092895D01*
X212136476Y-106140514D01*
X212326952Y-106188133D01*
X212469809Y-106188133D01*
X212660285Y-106140514D01*
X212755523Y-106092895D01*
X212850761Y-105997657D01*
X212898380Y-105854800D01*
X212898380Y-105616704D01*
X211993619Y-106569085D02*
X211946000Y-106616704D01*
X211898380Y-106711942D01*
X211898380Y-106950038D01*
X211946000Y-107045276D01*
X211993619Y-107092895D01*
X212088857Y-107140514D01*
X212184095Y-107140514D01*
X212326952Y-107092895D01*
X212898380Y-106521466D01*
X212898380Y-107140514D01*
%TO.C,C52*%
X200507142Y-86357142D02*
X200554761Y-86309523D01*
X200602380Y-86166666D01*
X200602380Y-86071428D01*
X200554761Y-85928571D01*
X200459523Y-85833333D01*
X200364285Y-85785714D01*
X200173809Y-85738095D01*
X200030952Y-85738095D01*
X199840476Y-85785714D01*
X199745238Y-85833333D01*
X199650000Y-85928571D01*
X199602380Y-86071428D01*
X199602380Y-86166666D01*
X199650000Y-86309523D01*
X199697619Y-86357142D01*
X199602380Y-87261904D02*
X199602380Y-86785714D01*
X200078571Y-86738095D01*
X200030952Y-86785714D01*
X199983333Y-86880952D01*
X199983333Y-87119047D01*
X200030952Y-87214285D01*
X200078571Y-87261904D01*
X200173809Y-87309523D01*
X200411904Y-87309523D01*
X200507142Y-87261904D01*
X200554761Y-87214285D01*
X200602380Y-87119047D01*
X200602380Y-86880952D01*
X200554761Y-86785714D01*
X200507142Y-86738095D01*
X199697619Y-87690476D02*
X199650000Y-87738095D01*
X199602380Y-87833333D01*
X199602380Y-88071428D01*
X199650000Y-88166666D01*
X199697619Y-88214285D01*
X199792857Y-88261904D01*
X199888095Y-88261904D01*
X200030952Y-88214285D01*
X200602380Y-87642857D01*
X200602380Y-88261904D01*
%TO.C,C50*%
X204952142Y-109877542D02*
X204999761Y-109829923D01*
X205047380Y-109687066D01*
X205047380Y-109591828D01*
X204999761Y-109448971D01*
X204904523Y-109353733D01*
X204809285Y-109306114D01*
X204618809Y-109258495D01*
X204475952Y-109258495D01*
X204285476Y-109306114D01*
X204190238Y-109353733D01*
X204095000Y-109448971D01*
X204047380Y-109591828D01*
X204047380Y-109687066D01*
X204095000Y-109829923D01*
X204142619Y-109877542D01*
X204047380Y-110782304D02*
X204047380Y-110306114D01*
X204523571Y-110258495D01*
X204475952Y-110306114D01*
X204428333Y-110401352D01*
X204428333Y-110639447D01*
X204475952Y-110734685D01*
X204523571Y-110782304D01*
X204618809Y-110829923D01*
X204856904Y-110829923D01*
X204952142Y-110782304D01*
X204999761Y-110734685D01*
X205047380Y-110639447D01*
X205047380Y-110401352D01*
X204999761Y-110306114D01*
X204952142Y-110258495D01*
X204047380Y-111448971D02*
X204047380Y-111544209D01*
X204095000Y-111639447D01*
X204142619Y-111687066D01*
X204237857Y-111734685D01*
X204428333Y-111782304D01*
X204666428Y-111782304D01*
X204856904Y-111734685D01*
X204952142Y-111687066D01*
X204999761Y-111639447D01*
X205047380Y-111544209D01*
X205047380Y-111448971D01*
X204999761Y-111353733D01*
X204952142Y-111306114D01*
X204856904Y-111258495D01*
X204666428Y-111210876D01*
X204428333Y-111210876D01*
X204237857Y-111258495D01*
X204142619Y-111306114D01*
X204095000Y-111353733D01*
X204047380Y-111448971D01*
%TO.C,J13*%
X210454923Y-117299980D02*
X210454923Y-118014266D01*
X210502542Y-118157123D01*
X210597780Y-118252361D01*
X210740638Y-118299980D01*
X210835876Y-118299980D01*
X209454923Y-118299980D02*
X210026352Y-118299980D01*
X209740638Y-118299980D02*
X209740638Y-117299980D01*
X209835876Y-117442838D01*
X209931114Y-117538076D01*
X210026352Y-117585695D01*
X209121590Y-117299980D02*
X208502542Y-117299980D01*
X208835876Y-117680933D01*
X208693019Y-117680933D01*
X208597780Y-117728552D01*
X208550161Y-117776171D01*
X208502542Y-117871409D01*
X208502542Y-118109504D01*
X208550161Y-118204742D01*
X208597780Y-118252361D01*
X208693019Y-118299980D01*
X208978733Y-118299980D01*
X209073971Y-118252361D01*
X209121590Y-118204742D01*
X211099400Y-117377600D02*
X210566066Y-117377600D01*
X210832733Y-117644266D02*
X210832733Y-117110933D01*
X210232733Y-117644266D02*
X210232733Y-116944266D01*
X209832733Y-117644266D01*
X209832733Y-116944266D01*
X209499400Y-117644266D02*
X209499400Y-117177600D01*
X209499400Y-117310933D02*
X209466066Y-117244266D01*
X209432733Y-117210933D01*
X209366066Y-117177600D01*
X209299400Y-117177600D01*
X208832733Y-117277600D02*
X208732733Y-117310933D01*
X208699400Y-117344266D01*
X208666066Y-117410933D01*
X208666066Y-117510933D01*
X208699400Y-117577600D01*
X208732733Y-117610933D01*
X208799400Y-117644266D01*
X209066066Y-117644266D01*
X209066066Y-116944266D01*
X208832733Y-116944266D01*
X208766066Y-116977600D01*
X208732733Y-117010933D01*
X208699400Y-117077600D01*
X208699400Y-117144266D01*
X208732733Y-117210933D01*
X208766066Y-117244266D01*
X208832733Y-117277600D01*
X209066066Y-117277600D01*
%TO.C,C45*%
X217501857Y-90194342D02*
X217549476Y-90241961D01*
X217692333Y-90289580D01*
X217787571Y-90289580D01*
X217930428Y-90241961D01*
X218025666Y-90146723D01*
X218073285Y-90051485D01*
X218120904Y-89861009D01*
X218120904Y-89718152D01*
X218073285Y-89527676D01*
X218025666Y-89432438D01*
X217930428Y-89337200D01*
X217787571Y-89289580D01*
X217692333Y-89289580D01*
X217549476Y-89337200D01*
X217501857Y-89384819D01*
X216644714Y-89622914D02*
X216644714Y-90289580D01*
X216882809Y-89241961D02*
X217120904Y-89956247D01*
X216501857Y-89956247D01*
X215644714Y-89289580D02*
X216120904Y-89289580D01*
X216168523Y-89765771D01*
X216120904Y-89718152D01*
X216025666Y-89670533D01*
X215787571Y-89670533D01*
X215692333Y-89718152D01*
X215644714Y-89765771D01*
X215597095Y-89861009D01*
X215597095Y-90099104D01*
X215644714Y-90194342D01*
X215692333Y-90241961D01*
X215787571Y-90289580D01*
X216025666Y-90289580D01*
X216120904Y-90241961D01*
X216168523Y-90194342D01*
%TO.C,J15*%
X199786923Y-105583980D02*
X199786923Y-106298266D01*
X199834542Y-106441123D01*
X199929780Y-106536361D01*
X200072638Y-106583980D01*
X200167876Y-106583980D01*
X198786923Y-106583980D02*
X199358352Y-106583980D01*
X199072638Y-106583980D02*
X199072638Y-105583980D01*
X199167876Y-105726838D01*
X199263114Y-105822076D01*
X199358352Y-105869695D01*
X197882161Y-105583980D02*
X198358352Y-105583980D01*
X198405971Y-106060171D01*
X198358352Y-106012552D01*
X198263114Y-105964933D01*
X198025019Y-105964933D01*
X197929780Y-106012552D01*
X197882161Y-106060171D01*
X197834542Y-106155409D01*
X197834542Y-106393504D01*
X197882161Y-106488742D01*
X197929780Y-106536361D01*
X198025019Y-106583980D01*
X198263114Y-106583980D01*
X198358352Y-106536361D01*
X198405971Y-106488742D01*
%TO.C,J8*%
X194733733Y-108069980D02*
X194733733Y-108784266D01*
X194781352Y-108927123D01*
X194876590Y-109022361D01*
X195019447Y-109069980D01*
X195114685Y-109069980D01*
X194114685Y-108498552D02*
X194209923Y-108450933D01*
X194257542Y-108403314D01*
X194305161Y-108308076D01*
X194305161Y-108260457D01*
X194257542Y-108165219D01*
X194209923Y-108117600D01*
X194114685Y-108069980D01*
X193924209Y-108069980D01*
X193828971Y-108117600D01*
X193781352Y-108165219D01*
X193733733Y-108260457D01*
X193733733Y-108308076D01*
X193781352Y-108403314D01*
X193828971Y-108450933D01*
X193924209Y-108498552D01*
X194114685Y-108498552D01*
X194209923Y-108546171D01*
X194257542Y-108593790D01*
X194305161Y-108689028D01*
X194305161Y-108879504D01*
X194257542Y-108974742D01*
X194209923Y-109022361D01*
X194114685Y-109069980D01*
X193924209Y-109069980D01*
X193828971Y-109022361D01*
X193781352Y-108974742D01*
X193733733Y-108879504D01*
X193733733Y-108689028D01*
X193781352Y-108593790D01*
X193828971Y-108546171D01*
X193924209Y-108498552D01*
%TO.C,J14*%
X196662723Y-105629980D02*
X196662723Y-106344266D01*
X196710342Y-106487123D01*
X196805580Y-106582361D01*
X196948438Y-106629980D01*
X197043676Y-106629980D01*
X195662723Y-106629980D02*
X196234152Y-106629980D01*
X195948438Y-106629980D02*
X195948438Y-105629980D01*
X196043676Y-105772838D01*
X196138914Y-105868076D01*
X196234152Y-105915695D01*
X194805580Y-105963314D02*
X194805580Y-106629980D01*
X195043676Y-105582361D02*
X195281771Y-106296647D01*
X194662723Y-106296647D01*
%TO.C,C43*%
X224664657Y-96838942D02*
X224712276Y-96886561D01*
X224855133Y-96934180D01*
X224950371Y-96934180D01*
X225093228Y-96886561D01*
X225188466Y-96791323D01*
X225236085Y-96696085D01*
X225283704Y-96505609D01*
X225283704Y-96362752D01*
X225236085Y-96172276D01*
X225188466Y-96077038D01*
X225093228Y-95981800D01*
X224950371Y-95934180D01*
X224855133Y-95934180D01*
X224712276Y-95981800D01*
X224664657Y-96029419D01*
X223807514Y-96267514D02*
X223807514Y-96934180D01*
X224045609Y-95886561D02*
X224283704Y-96600847D01*
X223664657Y-96600847D01*
X223378942Y-95934180D02*
X222759895Y-95934180D01*
X223093228Y-96315133D01*
X222950371Y-96315133D01*
X222855133Y-96362752D01*
X222807514Y-96410371D01*
X222759895Y-96505609D01*
X222759895Y-96743704D01*
X222807514Y-96838942D01*
X222855133Y-96886561D01*
X222950371Y-96934180D01*
X223236085Y-96934180D01*
X223331323Y-96886561D01*
X223378942Y-96838942D01*
%TO.C,M4*%
X195582380Y-83218676D02*
X194582380Y-83218676D01*
X195296666Y-83552009D01*
X194582380Y-83885342D01*
X195582380Y-83885342D01*
X194915714Y-84790104D02*
X195582380Y-84790104D01*
X194534761Y-84552009D02*
X195249047Y-84313914D01*
X195249047Y-84932961D01*
D11*
%TO.C,Q8*%
X209649552Y-110911076D02*
X209770504Y-110850600D01*
X209891457Y-110729647D01*
X210072885Y-110548219D01*
X210193838Y-110487742D01*
X210314790Y-110487742D01*
X210254314Y-110790123D02*
X210375266Y-110729647D01*
X210496219Y-110608695D01*
X210556695Y-110366790D01*
X210556695Y-109943457D01*
X210496219Y-109701552D01*
X210375266Y-109580600D01*
X210254314Y-109520123D01*
X210012409Y-109520123D01*
X209891457Y-109580600D01*
X209770504Y-109701552D01*
X209710028Y-109943457D01*
X209710028Y-110366790D01*
X209770504Y-110608695D01*
X209891457Y-110729647D01*
X210012409Y-110790123D01*
X210254314Y-110790123D01*
X208984314Y-110064409D02*
X209105266Y-110003933D01*
X209165742Y-109943457D01*
X209226219Y-109822504D01*
X209226219Y-109762028D01*
X209165742Y-109641076D01*
X209105266Y-109580600D01*
X208984314Y-109520123D01*
X208742409Y-109520123D01*
X208621457Y-109580600D01*
X208560980Y-109641076D01*
X208500504Y-109762028D01*
X208500504Y-109822504D01*
X208560980Y-109943457D01*
X208621457Y-110003933D01*
X208742409Y-110064409D01*
X208984314Y-110064409D01*
X209105266Y-110124885D01*
X209165742Y-110185361D01*
X209226219Y-110306314D01*
X209226219Y-110548219D01*
X209165742Y-110669171D01*
X209105266Y-110729647D01*
X208984314Y-110790123D01*
X208742409Y-110790123D01*
X208621457Y-110729647D01*
X208560980Y-110669171D01*
X208500504Y-110548219D01*
X208500504Y-110306314D01*
X208560980Y-110185361D01*
X208621457Y-110124885D01*
X208742409Y-110064409D01*
%TO.C,IC4*%
X206054323Y-102575038D02*
X204784323Y-102575038D01*
X205933371Y-103905514D02*
X205993847Y-103845038D01*
X206054323Y-103663609D01*
X206054323Y-103542657D01*
X205993847Y-103361228D01*
X205872895Y-103240276D01*
X205751942Y-103179800D01*
X205510038Y-103119323D01*
X205328609Y-103119323D01*
X205086704Y-103179800D01*
X204965752Y-103240276D01*
X204844800Y-103361228D01*
X204784323Y-103542657D01*
X204784323Y-103663609D01*
X204844800Y-103845038D01*
X204905276Y-103905514D01*
X205207657Y-104994085D02*
X206054323Y-104994085D01*
X204723847Y-104691704D02*
X205630990Y-104389323D01*
X205630990Y-105175514D01*
D10*
%TO.C,R37*%
X226920180Y-86915942D02*
X226443990Y-86582609D01*
X226920180Y-86344514D02*
X225920180Y-86344514D01*
X225920180Y-86725466D01*
X225967800Y-86820704D01*
X226015419Y-86868323D01*
X226110657Y-86915942D01*
X226253514Y-86915942D01*
X226348752Y-86868323D01*
X226396371Y-86820704D01*
X226443990Y-86725466D01*
X226443990Y-86344514D01*
X225920180Y-87249276D02*
X225920180Y-87868323D01*
X226301133Y-87534990D01*
X226301133Y-87677847D01*
X226348752Y-87773085D01*
X226396371Y-87820704D01*
X226491609Y-87868323D01*
X226729704Y-87868323D01*
X226824942Y-87820704D01*
X226872561Y-87773085D01*
X226920180Y-87677847D01*
X226920180Y-87392133D01*
X226872561Y-87296895D01*
X226824942Y-87249276D01*
X225920180Y-88201657D02*
X225920180Y-88868323D01*
X226920180Y-88439752D01*
%TO.C,C39*%
X211177257Y-105068542D02*
X211224876Y-105116161D01*
X211367733Y-105163780D01*
X211462971Y-105163780D01*
X211605828Y-105116161D01*
X211701066Y-105020923D01*
X211748685Y-104925685D01*
X211796304Y-104735209D01*
X211796304Y-104592352D01*
X211748685Y-104401876D01*
X211701066Y-104306638D01*
X211605828Y-104211400D01*
X211462971Y-104163780D01*
X211367733Y-104163780D01*
X211224876Y-104211400D01*
X211177257Y-104259019D01*
X210843923Y-104163780D02*
X210224876Y-104163780D01*
X210558209Y-104544733D01*
X210415352Y-104544733D01*
X210320114Y-104592352D01*
X210272495Y-104639971D01*
X210224876Y-104735209D01*
X210224876Y-104973304D01*
X210272495Y-105068542D01*
X210320114Y-105116161D01*
X210415352Y-105163780D01*
X210701066Y-105163780D01*
X210796304Y-105116161D01*
X210843923Y-105068542D01*
X209748685Y-105163780D02*
X209558209Y-105163780D01*
X209462971Y-105116161D01*
X209415352Y-105068542D01*
X209320114Y-104925685D01*
X209272495Y-104735209D01*
X209272495Y-104354257D01*
X209320114Y-104259019D01*
X209367733Y-104211400D01*
X209462971Y-104163780D01*
X209653447Y-104163780D01*
X209748685Y-104211400D01*
X209796304Y-104259019D01*
X209843923Y-104354257D01*
X209843923Y-104592352D01*
X209796304Y-104687590D01*
X209748685Y-104735209D01*
X209653447Y-104782828D01*
X209462971Y-104782828D01*
X209367733Y-104735209D01*
X209320114Y-104687590D01*
X209272495Y-104592352D01*
%TO.C,R39*%
X225421580Y-86915942D02*
X224945390Y-86582609D01*
X225421580Y-86344514D02*
X224421580Y-86344514D01*
X224421580Y-86725466D01*
X224469200Y-86820704D01*
X224516819Y-86868323D01*
X224612057Y-86915942D01*
X224754914Y-86915942D01*
X224850152Y-86868323D01*
X224897771Y-86820704D01*
X224945390Y-86725466D01*
X224945390Y-86344514D01*
X224421580Y-87249276D02*
X224421580Y-87868323D01*
X224802533Y-87534990D01*
X224802533Y-87677847D01*
X224850152Y-87773085D01*
X224897771Y-87820704D01*
X224993009Y-87868323D01*
X225231104Y-87868323D01*
X225326342Y-87820704D01*
X225373961Y-87773085D01*
X225421580Y-87677847D01*
X225421580Y-87392133D01*
X225373961Y-87296895D01*
X225326342Y-87249276D01*
X225421580Y-88344514D02*
X225421580Y-88534990D01*
X225373961Y-88630228D01*
X225326342Y-88677847D01*
X225183485Y-88773085D01*
X224993009Y-88820704D01*
X224612057Y-88820704D01*
X224516819Y-88773085D01*
X224469200Y-88725466D01*
X224421580Y-88630228D01*
X224421580Y-88439752D01*
X224469200Y-88344514D01*
X224516819Y-88296895D01*
X224612057Y-88249276D01*
X224850152Y-88249276D01*
X224945390Y-88296895D01*
X224993009Y-88344514D01*
X225040628Y-88439752D01*
X225040628Y-88630228D01*
X224993009Y-88725466D01*
X224945390Y-88773085D01*
X224850152Y-88820704D01*
%TO.C,C31*%
X224588457Y-103468342D02*
X224636076Y-103515961D01*
X224778933Y-103563580D01*
X224874171Y-103563580D01*
X225017028Y-103515961D01*
X225112266Y-103420723D01*
X225159885Y-103325485D01*
X225207504Y-103135009D01*
X225207504Y-102992152D01*
X225159885Y-102801676D01*
X225112266Y-102706438D01*
X225017028Y-102611200D01*
X224874171Y-102563580D01*
X224778933Y-102563580D01*
X224636076Y-102611200D01*
X224588457Y-102658819D01*
X224255123Y-102563580D02*
X223636076Y-102563580D01*
X223969409Y-102944533D01*
X223826552Y-102944533D01*
X223731314Y-102992152D01*
X223683695Y-103039771D01*
X223636076Y-103135009D01*
X223636076Y-103373104D01*
X223683695Y-103468342D01*
X223731314Y-103515961D01*
X223826552Y-103563580D01*
X224112266Y-103563580D01*
X224207504Y-103515961D01*
X224255123Y-103468342D01*
X222683695Y-103563580D02*
X223255123Y-103563580D01*
X222969409Y-103563580D02*
X222969409Y-102563580D01*
X223064647Y-102706438D01*
X223159885Y-102801676D01*
X223255123Y-102849295D01*
%TO.C,R38*%
X200554980Y-86458742D02*
X200078790Y-86125409D01*
X200554980Y-85887314D02*
X199554980Y-85887314D01*
X199554980Y-86268266D01*
X199602600Y-86363504D01*
X199650219Y-86411123D01*
X199745457Y-86458742D01*
X199888314Y-86458742D01*
X199983552Y-86411123D01*
X200031171Y-86363504D01*
X200078790Y-86268266D01*
X200078790Y-85887314D01*
X199554980Y-86792076D02*
X199554980Y-87411123D01*
X199935933Y-87077790D01*
X199935933Y-87220647D01*
X199983552Y-87315885D01*
X200031171Y-87363504D01*
X200126409Y-87411123D01*
X200364504Y-87411123D01*
X200459742Y-87363504D01*
X200507361Y-87315885D01*
X200554980Y-87220647D01*
X200554980Y-86934933D01*
X200507361Y-86839695D01*
X200459742Y-86792076D01*
X199983552Y-87982552D02*
X199935933Y-87887314D01*
X199888314Y-87839695D01*
X199793076Y-87792076D01*
X199745457Y-87792076D01*
X199650219Y-87839695D01*
X199602600Y-87887314D01*
X199554980Y-87982552D01*
X199554980Y-88173028D01*
X199602600Y-88268266D01*
X199650219Y-88315885D01*
X199745457Y-88363504D01*
X199793076Y-88363504D01*
X199888314Y-88315885D01*
X199935933Y-88268266D01*
X199983552Y-88173028D01*
X199983552Y-87982552D01*
X200031171Y-87887314D01*
X200078790Y-87839695D01*
X200174028Y-87792076D01*
X200364504Y-87792076D01*
X200459742Y-87839695D01*
X200507361Y-87887314D01*
X200554980Y-87982552D01*
X200554980Y-88173028D01*
X200507361Y-88268266D01*
X200459742Y-88315885D01*
X200364504Y-88363504D01*
X200174028Y-88363504D01*
X200078790Y-88315885D01*
X200031171Y-88268266D01*
X199983552Y-88173028D01*
%TO.C,C49*%
X199874257Y-105420742D02*
X199921876Y-105468361D01*
X200064733Y-105515980D01*
X200159971Y-105515980D01*
X200302828Y-105468361D01*
X200398066Y-105373123D01*
X200445685Y-105277885D01*
X200493304Y-105087409D01*
X200493304Y-104944552D01*
X200445685Y-104754076D01*
X200398066Y-104658838D01*
X200302828Y-104563600D01*
X200159971Y-104515980D01*
X200064733Y-104515980D01*
X199921876Y-104563600D01*
X199874257Y-104611219D01*
X199017114Y-104849314D02*
X199017114Y-105515980D01*
X199255209Y-104468361D02*
X199493304Y-105182647D01*
X198874257Y-105182647D01*
X198445685Y-105515980D02*
X198255209Y-105515980D01*
X198159971Y-105468361D01*
X198112352Y-105420742D01*
X198017114Y-105277885D01*
X197969495Y-105087409D01*
X197969495Y-104706457D01*
X198017114Y-104611219D01*
X198064733Y-104563600D01*
X198159971Y-104515980D01*
X198350447Y-104515980D01*
X198445685Y-104563600D01*
X198493304Y-104611219D01*
X198540923Y-104706457D01*
X198540923Y-104944552D01*
X198493304Y-105039790D01*
X198445685Y-105087409D01*
X198350447Y-105135028D01*
X198159971Y-105135028D01*
X198064733Y-105087409D01*
X198017114Y-105039790D01*
X197969495Y-104944552D01*
%TO.C,C48*%
X208652142Y-114525742D02*
X208699761Y-114478123D01*
X208747380Y-114335266D01*
X208747380Y-114240028D01*
X208699761Y-114097171D01*
X208604523Y-114001933D01*
X208509285Y-113954314D01*
X208318809Y-113906695D01*
X208175952Y-113906695D01*
X207985476Y-113954314D01*
X207890238Y-114001933D01*
X207795000Y-114097171D01*
X207747380Y-114240028D01*
X207747380Y-114335266D01*
X207795000Y-114478123D01*
X207842619Y-114525742D01*
X208080714Y-115382885D02*
X208747380Y-115382885D01*
X207699761Y-115144790D02*
X208414047Y-114906695D01*
X208414047Y-115525742D01*
X208175952Y-116049552D02*
X208128333Y-115954314D01*
X208080714Y-115906695D01*
X207985476Y-115859076D01*
X207937857Y-115859076D01*
X207842619Y-115906695D01*
X207795000Y-115954314D01*
X207747380Y-116049552D01*
X207747380Y-116240028D01*
X207795000Y-116335266D01*
X207842619Y-116382885D01*
X207937857Y-116430504D01*
X207985476Y-116430504D01*
X208080714Y-116382885D01*
X208128333Y-116335266D01*
X208175952Y-116240028D01*
X208175952Y-116049552D01*
X208223571Y-115954314D01*
X208271190Y-115906695D01*
X208366428Y-115859076D01*
X208556904Y-115859076D01*
X208652142Y-115906695D01*
X208699761Y-115954314D01*
X208747380Y-116049552D01*
X208747380Y-116240028D01*
X208699761Y-116335266D01*
X208652142Y-116382885D01*
X208556904Y-116430504D01*
X208366428Y-116430504D01*
X208271190Y-116382885D01*
X208223571Y-116335266D01*
X208175952Y-116240028D01*
%TO.C,R33*%
X206859257Y-99728180D02*
X207192590Y-99251990D01*
X207430685Y-99728180D02*
X207430685Y-98728180D01*
X207049733Y-98728180D01*
X206954495Y-98775800D01*
X206906876Y-98823419D01*
X206859257Y-98918657D01*
X206859257Y-99061514D01*
X206906876Y-99156752D01*
X206954495Y-99204371D01*
X207049733Y-99251990D01*
X207430685Y-99251990D01*
X206525923Y-98728180D02*
X205906876Y-98728180D01*
X206240209Y-99109133D01*
X206097352Y-99109133D01*
X206002114Y-99156752D01*
X205954495Y-99204371D01*
X205906876Y-99299609D01*
X205906876Y-99537704D01*
X205954495Y-99632942D01*
X206002114Y-99680561D01*
X206097352Y-99728180D01*
X206383066Y-99728180D01*
X206478304Y-99680561D01*
X206525923Y-99632942D01*
X205573542Y-98728180D02*
X204954495Y-98728180D01*
X205287828Y-99109133D01*
X205144971Y-99109133D01*
X205049733Y-99156752D01*
X205002114Y-99204371D01*
X204954495Y-99299609D01*
X204954495Y-99537704D01*
X205002114Y-99632942D01*
X205049733Y-99680561D01*
X205144971Y-99728180D01*
X205430685Y-99728180D01*
X205525923Y-99680561D01*
X205573542Y-99632942D01*
%TO.C,C47*%
X214976742Y-110436342D02*
X215024361Y-110388723D01*
X215071980Y-110245866D01*
X215071980Y-110150628D01*
X215024361Y-110007771D01*
X214929123Y-109912533D01*
X214833885Y-109864914D01*
X214643409Y-109817295D01*
X214500552Y-109817295D01*
X214310076Y-109864914D01*
X214214838Y-109912533D01*
X214119600Y-110007771D01*
X214071980Y-110150628D01*
X214071980Y-110245866D01*
X214119600Y-110388723D01*
X214167219Y-110436342D01*
X214405314Y-111293485D02*
X215071980Y-111293485D01*
X214024361Y-111055390D02*
X214738647Y-110817295D01*
X214738647Y-111436342D01*
X214071980Y-111722057D02*
X214071980Y-112388723D01*
X215071980Y-111960152D01*
%TO.C,R28*%
X224639257Y-102039580D02*
X224972590Y-101563390D01*
X225210685Y-102039580D02*
X225210685Y-101039580D01*
X224829733Y-101039580D01*
X224734495Y-101087200D01*
X224686876Y-101134819D01*
X224639257Y-101230057D01*
X224639257Y-101372914D01*
X224686876Y-101468152D01*
X224734495Y-101515771D01*
X224829733Y-101563390D01*
X225210685Y-101563390D01*
X224258304Y-101134819D02*
X224210685Y-101087200D01*
X224115447Y-101039580D01*
X223877352Y-101039580D01*
X223782114Y-101087200D01*
X223734495Y-101134819D01*
X223686876Y-101230057D01*
X223686876Y-101325295D01*
X223734495Y-101468152D01*
X224305923Y-102039580D01*
X223686876Y-102039580D01*
X223115447Y-101468152D02*
X223210685Y-101420533D01*
X223258304Y-101372914D01*
X223305923Y-101277676D01*
X223305923Y-101230057D01*
X223258304Y-101134819D01*
X223210685Y-101087200D01*
X223115447Y-101039580D01*
X222924971Y-101039580D01*
X222829733Y-101087200D01*
X222782114Y-101134819D01*
X222734495Y-101230057D01*
X222734495Y-101277676D01*
X222782114Y-101372914D01*
X222829733Y-101420533D01*
X222924971Y-101468152D01*
X223115447Y-101468152D01*
X223210685Y-101515771D01*
X223258304Y-101563390D01*
X223305923Y-101658628D01*
X223305923Y-101849104D01*
X223258304Y-101944342D01*
X223210685Y-101991961D01*
X223115447Y-102039580D01*
X222924971Y-102039580D01*
X222829733Y-101991961D01*
X222782114Y-101944342D01*
X222734495Y-101849104D01*
X222734495Y-101658628D01*
X222782114Y-101563390D01*
X222829733Y-101515771D01*
X222924971Y-101468152D01*
%TO.C,C38*%
X227800342Y-111045942D02*
X227847961Y-110998323D01*
X227895580Y-110855466D01*
X227895580Y-110760228D01*
X227847961Y-110617371D01*
X227752723Y-110522133D01*
X227657485Y-110474514D01*
X227467009Y-110426895D01*
X227324152Y-110426895D01*
X227133676Y-110474514D01*
X227038438Y-110522133D01*
X226943200Y-110617371D01*
X226895580Y-110760228D01*
X226895580Y-110855466D01*
X226943200Y-110998323D01*
X226990819Y-111045942D01*
X226895580Y-111379276D02*
X226895580Y-111998323D01*
X227276533Y-111664990D01*
X227276533Y-111807847D01*
X227324152Y-111903085D01*
X227371771Y-111950704D01*
X227467009Y-111998323D01*
X227705104Y-111998323D01*
X227800342Y-111950704D01*
X227847961Y-111903085D01*
X227895580Y-111807847D01*
X227895580Y-111522133D01*
X227847961Y-111426895D01*
X227800342Y-111379276D01*
X227324152Y-112569752D02*
X227276533Y-112474514D01*
X227228914Y-112426895D01*
X227133676Y-112379276D01*
X227086057Y-112379276D01*
X226990819Y-112426895D01*
X226943200Y-112474514D01*
X226895580Y-112569752D01*
X226895580Y-112760228D01*
X226943200Y-112855466D01*
X226990819Y-112903085D01*
X227086057Y-112950704D01*
X227133676Y-112950704D01*
X227228914Y-112903085D01*
X227276533Y-112855466D01*
X227324152Y-112760228D01*
X227324152Y-112569752D01*
X227371771Y-112474514D01*
X227419390Y-112426895D01*
X227514628Y-112379276D01*
X227705104Y-112379276D01*
X227800342Y-112426895D01*
X227847961Y-112474514D01*
X227895580Y-112569752D01*
X227895580Y-112760228D01*
X227847961Y-112855466D01*
X227800342Y-112903085D01*
X227705104Y-112950704D01*
X227514628Y-112950704D01*
X227419390Y-112903085D01*
X227371771Y-112855466D01*
X227324152Y-112760228D01*
%TO.C,C53*%
X227050142Y-100325342D02*
X227097761Y-100277723D01*
X227145380Y-100134866D01*
X227145380Y-100039628D01*
X227097761Y-99896771D01*
X227002523Y-99801533D01*
X226907285Y-99753914D01*
X226716809Y-99706295D01*
X226573952Y-99706295D01*
X226383476Y-99753914D01*
X226288238Y-99801533D01*
X226193000Y-99896771D01*
X226145380Y-100039628D01*
X226145380Y-100134866D01*
X226193000Y-100277723D01*
X226240619Y-100325342D01*
X226145380Y-101230104D02*
X226145380Y-100753914D01*
X226621571Y-100706295D01*
X226573952Y-100753914D01*
X226526333Y-100849152D01*
X226526333Y-101087247D01*
X226573952Y-101182485D01*
X226621571Y-101230104D01*
X226716809Y-101277723D01*
X226954904Y-101277723D01*
X227050142Y-101230104D01*
X227097761Y-101182485D01*
X227145380Y-101087247D01*
X227145380Y-100849152D01*
X227097761Y-100753914D01*
X227050142Y-100706295D01*
X226145380Y-101611057D02*
X226145380Y-102230104D01*
X226526333Y-101896771D01*
X226526333Y-102039628D01*
X226573952Y-102134866D01*
X226621571Y-102182485D01*
X226716809Y-102230104D01*
X226954904Y-102230104D01*
X227050142Y-102182485D01*
X227097761Y-102134866D01*
X227145380Y-102039628D01*
X227145380Y-101753914D01*
X227097761Y-101658676D01*
X227050142Y-101611057D01*
%TO.C,C25*%
X220881342Y-90636742D02*
X220928961Y-90589123D01*
X220976580Y-90446266D01*
X220976580Y-90351028D01*
X220928961Y-90208171D01*
X220833723Y-90112933D01*
X220738485Y-90065314D01*
X220548009Y-90017695D01*
X220405152Y-90017695D01*
X220214676Y-90065314D01*
X220119438Y-90112933D01*
X220024200Y-90208171D01*
X219976580Y-90351028D01*
X219976580Y-90446266D01*
X220024200Y-90589123D01*
X220071819Y-90636742D01*
X220071819Y-91017695D02*
X220024200Y-91065314D01*
X219976580Y-91160552D01*
X219976580Y-91398647D01*
X220024200Y-91493885D01*
X220071819Y-91541504D01*
X220167057Y-91589123D01*
X220262295Y-91589123D01*
X220405152Y-91541504D01*
X220976580Y-90970076D01*
X220976580Y-91589123D01*
X219976580Y-92493885D02*
X219976580Y-92017695D01*
X220452771Y-91970076D01*
X220405152Y-92017695D01*
X220357533Y-92112933D01*
X220357533Y-92351028D01*
X220405152Y-92446266D01*
X220452771Y-92493885D01*
X220548009Y-92541504D01*
X220786104Y-92541504D01*
X220881342Y-92493885D01*
X220928961Y-92446266D01*
X220976580Y-92351028D01*
X220976580Y-92112933D01*
X220928961Y-92017695D01*
X220881342Y-91970076D01*
%TO.C,R40*%
X199081780Y-86458742D02*
X198605590Y-86125409D01*
X199081780Y-85887314D02*
X198081780Y-85887314D01*
X198081780Y-86268266D01*
X198129400Y-86363504D01*
X198177019Y-86411123D01*
X198272257Y-86458742D01*
X198415114Y-86458742D01*
X198510352Y-86411123D01*
X198557971Y-86363504D01*
X198605590Y-86268266D01*
X198605590Y-85887314D01*
X198415114Y-87315885D02*
X199081780Y-87315885D01*
X198034161Y-87077790D02*
X198748447Y-86839695D01*
X198748447Y-87458742D01*
X198081780Y-88030171D02*
X198081780Y-88125409D01*
X198129400Y-88220647D01*
X198177019Y-88268266D01*
X198272257Y-88315885D01*
X198462733Y-88363504D01*
X198700828Y-88363504D01*
X198891304Y-88315885D01*
X198986542Y-88268266D01*
X199034161Y-88220647D01*
X199081780Y-88125409D01*
X199081780Y-88030171D01*
X199034161Y-87934933D01*
X198986542Y-87887314D01*
X198891304Y-87839695D01*
X198700828Y-87792076D01*
X198462733Y-87792076D01*
X198272257Y-87839695D01*
X198177019Y-87887314D01*
X198129400Y-87934933D01*
X198081780Y-88030171D01*
%TO.C,C27*%
X217527257Y-91667542D02*
X217574876Y-91715161D01*
X217717733Y-91762780D01*
X217812971Y-91762780D01*
X217955828Y-91715161D01*
X218051066Y-91619923D01*
X218098685Y-91524685D01*
X218146304Y-91334209D01*
X218146304Y-91191352D01*
X218098685Y-91000876D01*
X218051066Y-90905638D01*
X217955828Y-90810400D01*
X217812971Y-90762780D01*
X217717733Y-90762780D01*
X217574876Y-90810400D01*
X217527257Y-90858019D01*
X217146304Y-90858019D02*
X217098685Y-90810400D01*
X217003447Y-90762780D01*
X216765352Y-90762780D01*
X216670114Y-90810400D01*
X216622495Y-90858019D01*
X216574876Y-90953257D01*
X216574876Y-91048495D01*
X216622495Y-91191352D01*
X217193923Y-91762780D01*
X216574876Y-91762780D01*
X216241542Y-90762780D02*
X215574876Y-90762780D01*
X216003447Y-91762780D01*
%TO.C,M3*%
X222699180Y-83421876D02*
X221699180Y-83421876D01*
X222413466Y-83755209D01*
X221699180Y-84088542D01*
X222699180Y-84088542D01*
X221699180Y-84469495D02*
X221699180Y-85088542D01*
X222080133Y-84755209D01*
X222080133Y-84898066D01*
X222127752Y-84993304D01*
X222175371Y-85040923D01*
X222270609Y-85088542D01*
X222508704Y-85088542D01*
X222603942Y-85040923D01*
X222651561Y-84993304D01*
X222699180Y-84898066D01*
X222699180Y-84612352D01*
X222651561Y-84517114D01*
X222603942Y-84469495D01*
%TO.C,J18*%
X230876523Y-91139380D02*
X230876523Y-91853666D01*
X230924142Y-91996523D01*
X231019380Y-92091761D01*
X231162238Y-92139380D01*
X231257476Y-92139380D01*
X229876523Y-92139380D02*
X230447952Y-92139380D01*
X230162238Y-92139380D02*
X230162238Y-91139380D01*
X230257476Y-91282238D01*
X230352714Y-91377476D01*
X230447952Y-91425095D01*
X229305095Y-91567952D02*
X229400333Y-91520333D01*
X229447952Y-91472714D01*
X229495571Y-91377476D01*
X229495571Y-91329857D01*
X229447952Y-91234619D01*
X229400333Y-91187000D01*
X229305095Y-91139380D01*
X229114619Y-91139380D01*
X229019380Y-91187000D01*
X228971761Y-91234619D01*
X228924142Y-91329857D01*
X228924142Y-91377476D01*
X228971761Y-91472714D01*
X229019380Y-91520333D01*
X229114619Y-91567952D01*
X229305095Y-91567952D01*
X229400333Y-91615571D01*
X229447952Y-91663190D01*
X229495571Y-91758428D01*
X229495571Y-91948904D01*
X229447952Y-92044142D01*
X229400333Y-92091761D01*
X229305095Y-92139380D01*
X229114619Y-92139380D01*
X229019380Y-92091761D01*
X228971761Y-92044142D01*
X228924142Y-91948904D01*
X228924142Y-91758428D01*
X228971761Y-91663190D01*
X229019380Y-91615571D01*
X229114619Y-91567952D01*
%TO.C,C29*%
X226415142Y-87474742D02*
X226462761Y-87427123D01*
X226510380Y-87284266D01*
X226510380Y-87189028D01*
X226462761Y-87046171D01*
X226367523Y-86950933D01*
X226272285Y-86903314D01*
X226081809Y-86855695D01*
X225938952Y-86855695D01*
X225748476Y-86903314D01*
X225653238Y-86950933D01*
X225558000Y-87046171D01*
X225510380Y-87189028D01*
X225510380Y-87284266D01*
X225558000Y-87427123D01*
X225605619Y-87474742D01*
X225605619Y-87855695D02*
X225558000Y-87903314D01*
X225510380Y-87998552D01*
X225510380Y-88236647D01*
X225558000Y-88331885D01*
X225605619Y-88379504D01*
X225700857Y-88427123D01*
X225796095Y-88427123D01*
X225938952Y-88379504D01*
X226510380Y-87808076D01*
X226510380Y-88427123D01*
X226510380Y-88903314D02*
X226510380Y-89093790D01*
X226462761Y-89189028D01*
X226415142Y-89236647D01*
X226272285Y-89331885D01*
X226081809Y-89379504D01*
X225700857Y-89379504D01*
X225605619Y-89331885D01*
X225558000Y-89284266D01*
X225510380Y-89189028D01*
X225510380Y-88998552D01*
X225558000Y-88903314D01*
X225605619Y-88855695D01*
X225700857Y-88808076D01*
X225938952Y-88808076D01*
X226034190Y-88855695D01*
X226081809Y-88903314D01*
X226129428Y-88998552D01*
X226129428Y-89189028D01*
X226081809Y-89284266D01*
X226034190Y-89331885D01*
X225938952Y-89379504D01*
%TO.C,C41*%
X220982942Y-107718542D02*
X221030561Y-107670923D01*
X221078180Y-107528066D01*
X221078180Y-107432828D01*
X221030561Y-107289971D01*
X220935323Y-107194733D01*
X220840085Y-107147114D01*
X220649609Y-107099495D01*
X220506752Y-107099495D01*
X220316276Y-107147114D01*
X220221038Y-107194733D01*
X220125800Y-107289971D01*
X220078180Y-107432828D01*
X220078180Y-107528066D01*
X220125800Y-107670923D01*
X220173419Y-107718542D01*
X220411514Y-108575685D02*
X221078180Y-108575685D01*
X220030561Y-108337590D02*
X220744847Y-108099495D01*
X220744847Y-108718542D01*
X221078180Y-109623304D02*
X221078180Y-109051876D01*
X221078180Y-109337590D02*
X220078180Y-109337590D01*
X220221038Y-109242352D01*
X220316276Y-109147114D01*
X220363895Y-109051876D01*
%TO.C,C33*%
X182747457Y-95201542D02*
X182795076Y-95249161D01*
X182937933Y-95296780D01*
X183033171Y-95296780D01*
X183176028Y-95249161D01*
X183271266Y-95153923D01*
X183318885Y-95058685D01*
X183366504Y-94868209D01*
X183366504Y-94725352D01*
X183318885Y-94534876D01*
X183271266Y-94439638D01*
X183176028Y-94344400D01*
X183033171Y-94296780D01*
X182937933Y-94296780D01*
X182795076Y-94344400D01*
X182747457Y-94392019D01*
X182414123Y-94296780D02*
X181795076Y-94296780D01*
X182128409Y-94677733D01*
X181985552Y-94677733D01*
X181890314Y-94725352D01*
X181842695Y-94772971D01*
X181795076Y-94868209D01*
X181795076Y-95106304D01*
X181842695Y-95201542D01*
X181890314Y-95249161D01*
X181985552Y-95296780D01*
X182271266Y-95296780D01*
X182366504Y-95249161D01*
X182414123Y-95201542D01*
X181461742Y-94296780D02*
X180842695Y-94296780D01*
X181176028Y-94677733D01*
X181033171Y-94677733D01*
X180937933Y-94725352D01*
X180890314Y-94772971D01*
X180842695Y-94868209D01*
X180842695Y-95106304D01*
X180890314Y-95201542D01*
X180937933Y-95249161D01*
X181033171Y-95296780D01*
X181318885Y-95296780D01*
X181414123Y-95249161D01*
X181461742Y-95201542D01*
%TO.C,C22*%
X156507142Y-86357142D02*
X156554761Y-86309523D01*
X156602380Y-86166666D01*
X156602380Y-86071428D01*
X156554761Y-85928571D01*
X156459523Y-85833333D01*
X156364285Y-85785714D01*
X156173809Y-85738095D01*
X156030952Y-85738095D01*
X155840476Y-85785714D01*
X155745238Y-85833333D01*
X155650000Y-85928571D01*
X155602380Y-86071428D01*
X155602380Y-86166666D01*
X155650000Y-86309523D01*
X155697619Y-86357142D01*
X155697619Y-86738095D02*
X155650000Y-86785714D01*
X155602380Y-86880952D01*
X155602380Y-87119047D01*
X155650000Y-87214285D01*
X155697619Y-87261904D01*
X155792857Y-87309523D01*
X155888095Y-87309523D01*
X156030952Y-87261904D01*
X156602380Y-86690476D01*
X156602380Y-87309523D01*
X155697619Y-87690476D02*
X155650000Y-87738095D01*
X155602380Y-87833333D01*
X155602380Y-88071428D01*
X155650000Y-88166666D01*
X155697619Y-88214285D01*
X155792857Y-88261904D01*
X155888095Y-88261904D01*
X156030952Y-88214285D01*
X156602380Y-87642857D01*
X156602380Y-88261904D01*
%TO.C,D1*%
X168898380Y-105616704D02*
X167898380Y-105616704D01*
X167898380Y-105854800D01*
X167946000Y-105997657D01*
X168041238Y-106092895D01*
X168136476Y-106140514D01*
X168326952Y-106188133D01*
X168469809Y-106188133D01*
X168660285Y-106140514D01*
X168755523Y-106092895D01*
X168850761Y-105997657D01*
X168898380Y-105854800D01*
X168898380Y-105616704D01*
X168898380Y-107140514D02*
X168898380Y-106569085D01*
X168898380Y-106854800D02*
X167898380Y-106854800D01*
X168041238Y-106759561D01*
X168136476Y-106664323D01*
X168184095Y-106569085D01*
%TO.C,C20*%
X160952142Y-109877542D02*
X160999761Y-109829923D01*
X161047380Y-109687066D01*
X161047380Y-109591828D01*
X160999761Y-109448971D01*
X160904523Y-109353733D01*
X160809285Y-109306114D01*
X160618809Y-109258495D01*
X160475952Y-109258495D01*
X160285476Y-109306114D01*
X160190238Y-109353733D01*
X160095000Y-109448971D01*
X160047380Y-109591828D01*
X160047380Y-109687066D01*
X160095000Y-109829923D01*
X160142619Y-109877542D01*
X160142619Y-110258495D02*
X160095000Y-110306114D01*
X160047380Y-110401352D01*
X160047380Y-110639447D01*
X160095000Y-110734685D01*
X160142619Y-110782304D01*
X160237857Y-110829923D01*
X160333095Y-110829923D01*
X160475952Y-110782304D01*
X161047380Y-110210876D01*
X161047380Y-110829923D01*
X160047380Y-111448971D02*
X160047380Y-111544209D01*
X160095000Y-111639447D01*
X160142619Y-111687066D01*
X160237857Y-111734685D01*
X160428333Y-111782304D01*
X160666428Y-111782304D01*
X160856904Y-111734685D01*
X160952142Y-111687066D01*
X160999761Y-111639447D01*
X161047380Y-111544209D01*
X161047380Y-111448971D01*
X160999761Y-111353733D01*
X160952142Y-111306114D01*
X160856904Y-111258495D01*
X160666428Y-111210876D01*
X160428333Y-111210876D01*
X160237857Y-111258495D01*
X160142619Y-111306114D01*
X160095000Y-111353733D01*
X160047380Y-111448971D01*
%TO.C,C15*%
X173501857Y-90194342D02*
X173549476Y-90241961D01*
X173692333Y-90289580D01*
X173787571Y-90289580D01*
X173930428Y-90241961D01*
X174025666Y-90146723D01*
X174073285Y-90051485D01*
X174120904Y-89861009D01*
X174120904Y-89718152D01*
X174073285Y-89527676D01*
X174025666Y-89432438D01*
X173930428Y-89337200D01*
X173787571Y-89289580D01*
X173692333Y-89289580D01*
X173549476Y-89337200D01*
X173501857Y-89384819D01*
X172549476Y-90289580D02*
X173120904Y-90289580D01*
X172835190Y-90289580D02*
X172835190Y-89289580D01*
X172930428Y-89432438D01*
X173025666Y-89527676D01*
X173120904Y-89575295D01*
X171644714Y-89289580D02*
X172120904Y-89289580D01*
X172168523Y-89765771D01*
X172120904Y-89718152D01*
X172025666Y-89670533D01*
X171787571Y-89670533D01*
X171692333Y-89718152D01*
X171644714Y-89765771D01*
X171597095Y-89861009D01*
X171597095Y-90099104D01*
X171644714Y-90194342D01*
X171692333Y-90241961D01*
X171787571Y-90289580D01*
X172025666Y-90289580D01*
X172120904Y-90241961D01*
X172168523Y-90194342D01*
%TO.C,J4*%
X165978733Y-117299980D02*
X165978733Y-118014266D01*
X166026352Y-118157123D01*
X166121590Y-118252361D01*
X166264447Y-118299980D01*
X166359685Y-118299980D01*
X165073971Y-117633314D02*
X165073971Y-118299980D01*
X165312066Y-117252361D02*
X165550161Y-117966647D01*
X164931114Y-117966647D01*
X167099400Y-117377600D02*
X166566066Y-117377600D01*
X166832733Y-117644266D02*
X166832733Y-117110933D01*
X166232733Y-117644266D02*
X166232733Y-116944266D01*
X165832733Y-117644266D01*
X165832733Y-116944266D01*
X165499400Y-117644266D02*
X165499400Y-117177600D01*
X165499400Y-117310933D02*
X165466066Y-117244266D01*
X165432733Y-117210933D01*
X165366066Y-117177600D01*
X165299400Y-117177600D01*
X164832733Y-117277600D02*
X164732733Y-117310933D01*
X164699400Y-117344266D01*
X164666066Y-117410933D01*
X164666066Y-117510933D01*
X164699400Y-117577600D01*
X164732733Y-117610933D01*
X164799400Y-117644266D01*
X165066066Y-117644266D01*
X165066066Y-116944266D01*
X164832733Y-116944266D01*
X164766066Y-116977600D01*
X164732733Y-117010933D01*
X164699400Y-117077600D01*
X164699400Y-117144266D01*
X164732733Y-117210933D01*
X164766066Y-117244266D01*
X164832733Y-117277600D01*
X165066066Y-117277600D01*
%TO.C,J6*%
X155310733Y-105583980D02*
X155310733Y-106298266D01*
X155358352Y-106441123D01*
X155453590Y-106536361D01*
X155596447Y-106583980D01*
X155691685Y-106583980D01*
X154405971Y-105583980D02*
X154596447Y-105583980D01*
X154691685Y-105631600D01*
X154739304Y-105679219D01*
X154834542Y-105822076D01*
X154882161Y-106012552D01*
X154882161Y-106393504D01*
X154834542Y-106488742D01*
X154786923Y-106536361D01*
X154691685Y-106583980D01*
X154501209Y-106583980D01*
X154405971Y-106536361D01*
X154358352Y-106488742D01*
X154310733Y-106393504D01*
X154310733Y-106155409D01*
X154358352Y-106060171D01*
X154405971Y-106012552D01*
X154501209Y-105964933D01*
X154691685Y-105964933D01*
X154786923Y-106012552D01*
X154834542Y-106060171D01*
X154882161Y-106155409D01*
%TO.C,C9*%
X166701066Y-105068542D02*
X166748685Y-105116161D01*
X166891542Y-105163780D01*
X166986780Y-105163780D01*
X167129638Y-105116161D01*
X167224876Y-105020923D01*
X167272495Y-104925685D01*
X167320114Y-104735209D01*
X167320114Y-104592352D01*
X167272495Y-104401876D01*
X167224876Y-104306638D01*
X167129638Y-104211400D01*
X166986780Y-104163780D01*
X166891542Y-104163780D01*
X166748685Y-104211400D01*
X166701066Y-104259019D01*
X166224876Y-105163780D02*
X166034400Y-105163780D01*
X165939161Y-105116161D01*
X165891542Y-105068542D01*
X165796304Y-104925685D01*
X165748685Y-104735209D01*
X165748685Y-104354257D01*
X165796304Y-104259019D01*
X165843923Y-104211400D01*
X165939161Y-104163780D01*
X166129638Y-104163780D01*
X166224876Y-104211400D01*
X166272495Y-104259019D01*
X166320114Y-104354257D01*
X166320114Y-104592352D01*
X166272495Y-104687590D01*
X166224876Y-104735209D01*
X166129638Y-104782828D01*
X165939161Y-104782828D01*
X165843923Y-104735209D01*
X165796304Y-104687590D01*
X165748685Y-104592352D01*
%TO.C,R7*%
X180163066Y-102039580D02*
X180496400Y-101563390D01*
X180734495Y-102039580D02*
X180734495Y-101039580D01*
X180353542Y-101039580D01*
X180258304Y-101087200D01*
X180210685Y-101134819D01*
X180163066Y-101230057D01*
X180163066Y-101372914D01*
X180210685Y-101468152D01*
X180258304Y-101515771D01*
X180353542Y-101563390D01*
X180734495Y-101563390D01*
X179829733Y-101039580D02*
X179163066Y-101039580D01*
X179591638Y-102039580D01*
%TO.C,J1*%
X150733733Y-108069980D02*
X150733733Y-108784266D01*
X150781352Y-108927123D01*
X150876590Y-109022361D01*
X151019447Y-109069980D01*
X151114685Y-109069980D01*
X149733733Y-109069980D02*
X150305161Y-109069980D01*
X150019447Y-109069980D02*
X150019447Y-108069980D01*
X150114685Y-108212838D01*
X150209923Y-108308076D01*
X150305161Y-108355695D01*
%TO.C,C13*%
X180664657Y-96838942D02*
X180712276Y-96886561D01*
X180855133Y-96934180D01*
X180950371Y-96934180D01*
X181093228Y-96886561D01*
X181188466Y-96791323D01*
X181236085Y-96696085D01*
X181283704Y-96505609D01*
X181283704Y-96362752D01*
X181236085Y-96172276D01*
X181188466Y-96077038D01*
X181093228Y-95981800D01*
X180950371Y-95934180D01*
X180855133Y-95934180D01*
X180712276Y-95981800D01*
X180664657Y-96029419D01*
X179712276Y-96934180D02*
X180283704Y-96934180D01*
X179997990Y-96934180D02*
X179997990Y-95934180D01*
X180093228Y-96077038D01*
X180188466Y-96172276D01*
X180283704Y-96219895D01*
X179378942Y-95934180D02*
X178759895Y-95934180D01*
X179093228Y-96315133D01*
X178950371Y-96315133D01*
X178855133Y-96362752D01*
X178807514Y-96410371D01*
X178759895Y-96505609D01*
X178759895Y-96743704D01*
X178807514Y-96838942D01*
X178855133Y-96886561D01*
X178950371Y-96934180D01*
X179236085Y-96934180D01*
X179331323Y-96886561D01*
X179378942Y-96838942D01*
%TO.C,R18*%
X182920180Y-86915942D02*
X182443990Y-86582609D01*
X182920180Y-86344514D02*
X181920180Y-86344514D01*
X181920180Y-86725466D01*
X181967800Y-86820704D01*
X182015419Y-86868323D01*
X182110657Y-86915942D01*
X182253514Y-86915942D01*
X182348752Y-86868323D01*
X182396371Y-86820704D01*
X182443990Y-86725466D01*
X182443990Y-86344514D01*
X182920180Y-87868323D02*
X182920180Y-87296895D01*
X182920180Y-87582609D02*
X181920180Y-87582609D01*
X182063038Y-87487371D01*
X182158276Y-87392133D01*
X182205895Y-87296895D01*
X182348752Y-88439752D02*
X182301133Y-88344514D01*
X182253514Y-88296895D01*
X182158276Y-88249276D01*
X182110657Y-88249276D01*
X182015419Y-88296895D01*
X181967800Y-88344514D01*
X181920180Y-88439752D01*
X181920180Y-88630228D01*
X181967800Y-88725466D01*
X182015419Y-88773085D01*
X182110657Y-88820704D01*
X182158276Y-88820704D01*
X182253514Y-88773085D01*
X182301133Y-88725466D01*
X182348752Y-88630228D01*
X182348752Y-88439752D01*
X182396371Y-88344514D01*
X182443990Y-88296895D01*
X182539228Y-88249276D01*
X182729704Y-88249276D01*
X182824942Y-88296895D01*
X182872561Y-88344514D01*
X182920180Y-88439752D01*
X182920180Y-88630228D01*
X182872561Y-88725466D01*
X182824942Y-88773085D01*
X182729704Y-88820704D01*
X182539228Y-88820704D01*
X182443990Y-88773085D01*
X182396371Y-88725466D01*
X182348752Y-88630228D01*
D11*
%TO.C,IC2*%
X162054323Y-102575038D02*
X160784323Y-102575038D01*
X161933371Y-103905514D02*
X161993847Y-103845038D01*
X162054323Y-103663609D01*
X162054323Y-103542657D01*
X161993847Y-103361228D01*
X161872895Y-103240276D01*
X161751942Y-103179800D01*
X161510038Y-103119323D01*
X161328609Y-103119323D01*
X161086704Y-103179800D01*
X160965752Y-103240276D01*
X160844800Y-103361228D01*
X160784323Y-103542657D01*
X160784323Y-103663609D01*
X160844800Y-103845038D01*
X160905276Y-103905514D01*
X160905276Y-104389323D02*
X160844800Y-104449800D01*
X160784323Y-104570752D01*
X160784323Y-104873133D01*
X160844800Y-104994085D01*
X160905276Y-105054561D01*
X161026228Y-105115038D01*
X161147180Y-105115038D01*
X161328609Y-105054561D01*
X162054323Y-104328847D01*
X162054323Y-105115038D01*
%TO.C,Q7*%
X165649552Y-110911076D02*
X165770504Y-110850600D01*
X165891457Y-110729647D01*
X166072885Y-110548219D01*
X166193838Y-110487742D01*
X166314790Y-110487742D01*
X166254314Y-110790123D02*
X166375266Y-110729647D01*
X166496219Y-110608695D01*
X166556695Y-110366790D01*
X166556695Y-109943457D01*
X166496219Y-109701552D01*
X166375266Y-109580600D01*
X166254314Y-109520123D01*
X166012409Y-109520123D01*
X165891457Y-109580600D01*
X165770504Y-109701552D01*
X165710028Y-109943457D01*
X165710028Y-110366790D01*
X165770504Y-110608695D01*
X165891457Y-110729647D01*
X166012409Y-110790123D01*
X166254314Y-110790123D01*
X165286695Y-109520123D02*
X164440028Y-109520123D01*
X164984314Y-110790123D01*
D10*
%TO.C,C17*%
X170976742Y-110436342D02*
X171024361Y-110388723D01*
X171071980Y-110245866D01*
X171071980Y-110150628D01*
X171024361Y-110007771D01*
X170929123Y-109912533D01*
X170833885Y-109864914D01*
X170643409Y-109817295D01*
X170500552Y-109817295D01*
X170310076Y-109864914D01*
X170214838Y-109912533D01*
X170119600Y-110007771D01*
X170071980Y-110150628D01*
X170071980Y-110245866D01*
X170119600Y-110388723D01*
X170167219Y-110436342D01*
X171071980Y-111388723D02*
X171071980Y-110817295D01*
X171071980Y-111103009D02*
X170071980Y-111103009D01*
X170214838Y-111007771D01*
X170310076Y-110912533D01*
X170357695Y-110817295D01*
X170071980Y-111722057D02*
X170071980Y-112388723D01*
X171071980Y-111960152D01*
%TO.C,R19*%
X156554980Y-86458742D02*
X156078790Y-86125409D01*
X156554980Y-85887314D02*
X155554980Y-85887314D01*
X155554980Y-86268266D01*
X155602600Y-86363504D01*
X155650219Y-86411123D01*
X155745457Y-86458742D01*
X155888314Y-86458742D01*
X155983552Y-86411123D01*
X156031171Y-86363504D01*
X156078790Y-86268266D01*
X156078790Y-85887314D01*
X156554980Y-87411123D02*
X156554980Y-86839695D01*
X156554980Y-87125409D02*
X155554980Y-87125409D01*
X155697838Y-87030171D01*
X155793076Y-86934933D01*
X155840695Y-86839695D01*
X156554980Y-87887314D02*
X156554980Y-88077790D01*
X156507361Y-88173028D01*
X156459742Y-88220647D01*
X156316885Y-88315885D01*
X156126409Y-88363504D01*
X155745457Y-88363504D01*
X155650219Y-88315885D01*
X155602600Y-88268266D01*
X155554980Y-88173028D01*
X155554980Y-87982552D01*
X155602600Y-87887314D01*
X155650219Y-87839695D01*
X155745457Y-87792076D01*
X155983552Y-87792076D01*
X156078790Y-87839695D01*
X156126409Y-87887314D01*
X156174028Y-87982552D01*
X156174028Y-88173028D01*
X156126409Y-88268266D01*
X156078790Y-88315885D01*
X155983552Y-88363504D01*
%TO.C,C6*%
X180112266Y-103468342D02*
X180159885Y-103515961D01*
X180302742Y-103563580D01*
X180397980Y-103563580D01*
X180540838Y-103515961D01*
X180636076Y-103420723D01*
X180683695Y-103325485D01*
X180731314Y-103135009D01*
X180731314Y-102992152D01*
X180683695Y-102801676D01*
X180636076Y-102706438D01*
X180540838Y-102611200D01*
X180397980Y-102563580D01*
X180302742Y-102563580D01*
X180159885Y-102611200D01*
X180112266Y-102658819D01*
X179255123Y-102563580D02*
X179445600Y-102563580D01*
X179540838Y-102611200D01*
X179588457Y-102658819D01*
X179683695Y-102801676D01*
X179731314Y-102992152D01*
X179731314Y-103373104D01*
X179683695Y-103468342D01*
X179636076Y-103515961D01*
X179540838Y-103563580D01*
X179350361Y-103563580D01*
X179255123Y-103515961D01*
X179207504Y-103468342D01*
X179159885Y-103373104D01*
X179159885Y-103135009D01*
X179207504Y-103039771D01*
X179255123Y-102992152D01*
X179350361Y-102944533D01*
X179540838Y-102944533D01*
X179636076Y-102992152D01*
X179683695Y-103039771D01*
X179731314Y-103135009D01*
%TO.C,M2*%
X151582380Y-83218676D02*
X150582380Y-83218676D01*
X151296666Y-83552009D01*
X150582380Y-83885342D01*
X151582380Y-83885342D01*
X150677619Y-84313914D02*
X150630000Y-84361533D01*
X150582380Y-84456771D01*
X150582380Y-84694866D01*
X150630000Y-84790104D01*
X150677619Y-84837723D01*
X150772857Y-84885342D01*
X150868095Y-84885342D01*
X151010952Y-84837723D01*
X151582380Y-84266295D01*
X151582380Y-84885342D01*
%TO.C,J5*%
X152186533Y-105629980D02*
X152186533Y-106344266D01*
X152234152Y-106487123D01*
X152329390Y-106582361D01*
X152472247Y-106629980D01*
X152567485Y-106629980D01*
X151234152Y-105629980D02*
X151710342Y-105629980D01*
X151757961Y-106106171D01*
X151710342Y-106058552D01*
X151615104Y-106010933D01*
X151377009Y-106010933D01*
X151281771Y-106058552D01*
X151234152Y-106106171D01*
X151186533Y-106201409D01*
X151186533Y-106439504D01*
X151234152Y-106534742D01*
X151281771Y-106582361D01*
X151377009Y-106629980D01*
X151615104Y-106629980D01*
X151710342Y-106582361D01*
X151757961Y-106534742D01*
%TO.C,C23*%
X183050142Y-100325342D02*
X183097761Y-100277723D01*
X183145380Y-100134866D01*
X183145380Y-100039628D01*
X183097761Y-99896771D01*
X183002523Y-99801533D01*
X182907285Y-99753914D01*
X182716809Y-99706295D01*
X182573952Y-99706295D01*
X182383476Y-99753914D01*
X182288238Y-99801533D01*
X182193000Y-99896771D01*
X182145380Y-100039628D01*
X182145380Y-100134866D01*
X182193000Y-100277723D01*
X182240619Y-100325342D01*
X182240619Y-100706295D02*
X182193000Y-100753914D01*
X182145380Y-100849152D01*
X182145380Y-101087247D01*
X182193000Y-101182485D01*
X182240619Y-101230104D01*
X182335857Y-101277723D01*
X182431095Y-101277723D01*
X182573952Y-101230104D01*
X183145380Y-100658676D01*
X183145380Y-101277723D01*
X182145380Y-101611057D02*
X182145380Y-102230104D01*
X182526333Y-101896771D01*
X182526333Y-102039628D01*
X182573952Y-102134866D01*
X182621571Y-102182485D01*
X182716809Y-102230104D01*
X182954904Y-102230104D01*
X183050142Y-102182485D01*
X183097761Y-102134866D01*
X183145380Y-102039628D01*
X183145380Y-101753914D01*
X183097761Y-101658676D01*
X183050142Y-101611057D01*
%TO.C,C8*%
X183800342Y-111522133D02*
X183847961Y-111474514D01*
X183895580Y-111331657D01*
X183895580Y-111236419D01*
X183847961Y-111093561D01*
X183752723Y-110998323D01*
X183657485Y-110950704D01*
X183467009Y-110903085D01*
X183324152Y-110903085D01*
X183133676Y-110950704D01*
X183038438Y-110998323D01*
X182943200Y-111093561D01*
X182895580Y-111236419D01*
X182895580Y-111331657D01*
X182943200Y-111474514D01*
X182990819Y-111522133D01*
X183324152Y-112093561D02*
X183276533Y-111998323D01*
X183228914Y-111950704D01*
X183133676Y-111903085D01*
X183086057Y-111903085D01*
X182990819Y-111950704D01*
X182943200Y-111998323D01*
X182895580Y-112093561D01*
X182895580Y-112284038D01*
X182943200Y-112379276D01*
X182990819Y-112426895D01*
X183086057Y-112474514D01*
X183133676Y-112474514D01*
X183228914Y-112426895D01*
X183276533Y-112379276D01*
X183324152Y-112284038D01*
X183324152Y-112093561D01*
X183371771Y-111998323D01*
X183419390Y-111950704D01*
X183514628Y-111903085D01*
X183705104Y-111903085D01*
X183800342Y-111950704D01*
X183847961Y-111998323D01*
X183895580Y-112093561D01*
X183895580Y-112284038D01*
X183847961Y-112379276D01*
X183800342Y-112426895D01*
X183705104Y-112474514D01*
X183514628Y-112474514D01*
X183419390Y-112426895D01*
X183371771Y-112379276D01*
X183324152Y-112284038D01*
%TO.C,R12*%
X162859257Y-99728180D02*
X163192590Y-99251990D01*
X163430685Y-99728180D02*
X163430685Y-98728180D01*
X163049733Y-98728180D01*
X162954495Y-98775800D01*
X162906876Y-98823419D01*
X162859257Y-98918657D01*
X162859257Y-99061514D01*
X162906876Y-99156752D01*
X162954495Y-99204371D01*
X163049733Y-99251990D01*
X163430685Y-99251990D01*
X161906876Y-99728180D02*
X162478304Y-99728180D01*
X162192590Y-99728180D02*
X162192590Y-98728180D01*
X162287828Y-98871038D01*
X162383066Y-98966276D01*
X162478304Y-99013895D01*
X161525923Y-98823419D02*
X161478304Y-98775800D01*
X161383066Y-98728180D01*
X161144971Y-98728180D01*
X161049733Y-98775800D01*
X161002114Y-98823419D01*
X160954495Y-98918657D01*
X160954495Y-99013895D01*
X161002114Y-99156752D01*
X161573542Y-99728180D01*
X160954495Y-99728180D01*
%TO.C,C18*%
X164652142Y-114525742D02*
X164699761Y-114478123D01*
X164747380Y-114335266D01*
X164747380Y-114240028D01*
X164699761Y-114097171D01*
X164604523Y-114001933D01*
X164509285Y-113954314D01*
X164318809Y-113906695D01*
X164175952Y-113906695D01*
X163985476Y-113954314D01*
X163890238Y-114001933D01*
X163795000Y-114097171D01*
X163747380Y-114240028D01*
X163747380Y-114335266D01*
X163795000Y-114478123D01*
X163842619Y-114525742D01*
X164747380Y-115478123D02*
X164747380Y-114906695D01*
X164747380Y-115192409D02*
X163747380Y-115192409D01*
X163890238Y-115097171D01*
X163985476Y-115001933D01*
X164033095Y-114906695D01*
X164175952Y-116049552D02*
X164128333Y-115954314D01*
X164080714Y-115906695D01*
X163985476Y-115859076D01*
X163937857Y-115859076D01*
X163842619Y-115906695D01*
X163795000Y-115954314D01*
X163747380Y-116049552D01*
X163747380Y-116240028D01*
X163795000Y-116335266D01*
X163842619Y-116382885D01*
X163937857Y-116430504D01*
X163985476Y-116430504D01*
X164080714Y-116382885D01*
X164128333Y-116335266D01*
X164175952Y-116240028D01*
X164175952Y-116049552D01*
X164223571Y-115954314D01*
X164271190Y-115906695D01*
X164366428Y-115859076D01*
X164556904Y-115859076D01*
X164652142Y-115906695D01*
X164699761Y-115954314D01*
X164747380Y-116049552D01*
X164747380Y-116240028D01*
X164699761Y-116335266D01*
X164652142Y-116382885D01*
X164556904Y-116430504D01*
X164366428Y-116430504D01*
X164271190Y-116382885D01*
X164223571Y-116335266D01*
X164175952Y-116240028D01*
%TO.C,C19*%
X155874257Y-105420742D02*
X155921876Y-105468361D01*
X156064733Y-105515980D01*
X156159971Y-105515980D01*
X156302828Y-105468361D01*
X156398066Y-105373123D01*
X156445685Y-105277885D01*
X156493304Y-105087409D01*
X156493304Y-104944552D01*
X156445685Y-104754076D01*
X156398066Y-104658838D01*
X156302828Y-104563600D01*
X156159971Y-104515980D01*
X156064733Y-104515980D01*
X155921876Y-104563600D01*
X155874257Y-104611219D01*
X154921876Y-105515980D02*
X155493304Y-105515980D01*
X155207590Y-105515980D02*
X155207590Y-104515980D01*
X155302828Y-104658838D01*
X155398066Y-104754076D01*
X155493304Y-104801695D01*
X154445685Y-105515980D02*
X154255209Y-105515980D01*
X154159971Y-105468361D01*
X154112352Y-105420742D01*
X154017114Y-105277885D01*
X153969495Y-105087409D01*
X153969495Y-104706457D01*
X154017114Y-104611219D01*
X154064733Y-104563600D01*
X154159971Y-104515980D01*
X154350447Y-104515980D01*
X154445685Y-104563600D01*
X154493304Y-104611219D01*
X154540923Y-104706457D01*
X154540923Y-104944552D01*
X154493304Y-105039790D01*
X154445685Y-105087409D01*
X154350447Y-105135028D01*
X154159971Y-105135028D01*
X154064733Y-105087409D01*
X154017114Y-105039790D01*
X153969495Y-104944552D01*
%TO.C,R20*%
X181421580Y-86915942D02*
X180945390Y-86582609D01*
X181421580Y-86344514D02*
X180421580Y-86344514D01*
X180421580Y-86725466D01*
X180469200Y-86820704D01*
X180516819Y-86868323D01*
X180612057Y-86915942D01*
X180754914Y-86915942D01*
X180850152Y-86868323D01*
X180897771Y-86820704D01*
X180945390Y-86725466D01*
X180945390Y-86344514D01*
X180516819Y-87296895D02*
X180469200Y-87344514D01*
X180421580Y-87439752D01*
X180421580Y-87677847D01*
X180469200Y-87773085D01*
X180516819Y-87820704D01*
X180612057Y-87868323D01*
X180707295Y-87868323D01*
X180850152Y-87820704D01*
X181421580Y-87249276D01*
X181421580Y-87868323D01*
X180421580Y-88487371D02*
X180421580Y-88582609D01*
X180469200Y-88677847D01*
X180516819Y-88725466D01*
X180612057Y-88773085D01*
X180802533Y-88820704D01*
X181040628Y-88820704D01*
X181231104Y-88773085D01*
X181326342Y-88725466D01*
X181373961Y-88677847D01*
X181421580Y-88582609D01*
X181421580Y-88487371D01*
X181373961Y-88392133D01*
X181326342Y-88344514D01*
X181231104Y-88296895D01*
X181040628Y-88249276D01*
X180802533Y-88249276D01*
X180612057Y-88296895D01*
X180516819Y-88344514D01*
X180469200Y-88392133D01*
X180421580Y-88487371D01*
%TO.C,C5*%
X182415142Y-87950933D02*
X182462761Y-87903314D01*
X182510380Y-87760457D01*
X182510380Y-87665219D01*
X182462761Y-87522361D01*
X182367523Y-87427123D01*
X182272285Y-87379504D01*
X182081809Y-87331885D01*
X181938952Y-87331885D01*
X181748476Y-87379504D01*
X181653238Y-87427123D01*
X181558000Y-87522361D01*
X181510380Y-87665219D01*
X181510380Y-87760457D01*
X181558000Y-87903314D01*
X181605619Y-87950933D01*
X181510380Y-88855695D02*
X181510380Y-88379504D01*
X181986571Y-88331885D01*
X181938952Y-88379504D01*
X181891333Y-88474742D01*
X181891333Y-88712838D01*
X181938952Y-88808076D01*
X181986571Y-88855695D01*
X182081809Y-88903314D01*
X182319904Y-88903314D01*
X182415142Y-88855695D01*
X182462761Y-88808076D01*
X182510380Y-88712838D01*
X182510380Y-88474742D01*
X182462761Y-88379504D01*
X182415142Y-88331885D01*
%TO.C,M1*%
X178699180Y-83421876D02*
X177699180Y-83421876D01*
X178413466Y-83755209D01*
X177699180Y-84088542D01*
X178699180Y-84088542D01*
X178699180Y-85088542D02*
X178699180Y-84517114D01*
X178699180Y-84802828D02*
X177699180Y-84802828D01*
X177842038Y-84707590D01*
X177937276Y-84612352D01*
X177984895Y-84517114D01*
%TO.C,R21*%
X155081780Y-86458742D02*
X154605590Y-86125409D01*
X155081780Y-85887314D02*
X154081780Y-85887314D01*
X154081780Y-86268266D01*
X154129400Y-86363504D01*
X154177019Y-86411123D01*
X154272257Y-86458742D01*
X154415114Y-86458742D01*
X154510352Y-86411123D01*
X154557971Y-86363504D01*
X154605590Y-86268266D01*
X154605590Y-85887314D01*
X154177019Y-86839695D02*
X154129400Y-86887314D01*
X154081780Y-86982552D01*
X154081780Y-87220647D01*
X154129400Y-87315885D01*
X154177019Y-87363504D01*
X154272257Y-87411123D01*
X154367495Y-87411123D01*
X154510352Y-87363504D01*
X155081780Y-86792076D01*
X155081780Y-87411123D01*
X155081780Y-88363504D02*
X155081780Y-87792076D01*
X155081780Y-88077790D02*
X154081780Y-88077790D01*
X154224638Y-87982552D01*
X154319876Y-87887314D01*
X154367495Y-87792076D01*
%TO.C,J11*%
X186876523Y-91139380D02*
X186876523Y-91853666D01*
X186924142Y-91996523D01*
X187019380Y-92091761D01*
X187162238Y-92139380D01*
X187257476Y-92139380D01*
X185876523Y-92139380D02*
X186447952Y-92139380D01*
X186162238Y-92139380D02*
X186162238Y-91139380D01*
X186257476Y-91282238D01*
X186352714Y-91377476D01*
X186447952Y-91425095D01*
X184924142Y-92139380D02*
X185495571Y-92139380D01*
X185209857Y-92139380D02*
X185209857Y-91139380D01*
X185305095Y-91282238D01*
X185400333Y-91377476D01*
X185495571Y-91425095D01*
%TO.C,C11*%
X176982942Y-107718542D02*
X177030561Y-107670923D01*
X177078180Y-107528066D01*
X177078180Y-107432828D01*
X177030561Y-107289971D01*
X176935323Y-107194733D01*
X176840085Y-107147114D01*
X176649609Y-107099495D01*
X176506752Y-107099495D01*
X176316276Y-107147114D01*
X176221038Y-107194733D01*
X176125800Y-107289971D01*
X176078180Y-107432828D01*
X176078180Y-107528066D01*
X176125800Y-107670923D01*
X176173419Y-107718542D01*
X177078180Y-108670923D02*
X177078180Y-108099495D01*
X177078180Y-108385209D02*
X176078180Y-108385209D01*
X176221038Y-108289971D01*
X176316276Y-108194733D01*
X176363895Y-108099495D01*
X177078180Y-109623304D02*
X177078180Y-109051876D01*
X177078180Y-109337590D02*
X176078180Y-109337590D01*
X176221038Y-109242352D01*
X176316276Y-109147114D01*
X176363895Y-109051876D01*
%TO.C,C3*%
X173051066Y-91667542D02*
X173098685Y-91715161D01*
X173241542Y-91762780D01*
X173336780Y-91762780D01*
X173479638Y-91715161D01*
X173574876Y-91619923D01*
X173622495Y-91524685D01*
X173670114Y-91334209D01*
X173670114Y-91191352D01*
X173622495Y-91000876D01*
X173574876Y-90905638D01*
X173479638Y-90810400D01*
X173336780Y-90762780D01*
X173241542Y-90762780D01*
X173098685Y-90810400D01*
X173051066Y-90858019D01*
X172717733Y-90762780D02*
X172098685Y-90762780D01*
X172432019Y-91143733D01*
X172289161Y-91143733D01*
X172193923Y-91191352D01*
X172146304Y-91238971D01*
X172098685Y-91334209D01*
X172098685Y-91572304D01*
X172146304Y-91667542D01*
X172193923Y-91715161D01*
X172289161Y-91762780D01*
X172574876Y-91762780D01*
X172670114Y-91715161D01*
X172717733Y-91667542D01*
%TO.C,C2*%
X176881342Y-91112933D02*
X176928961Y-91065314D01*
X176976580Y-90922457D01*
X176976580Y-90827219D01*
X176928961Y-90684361D01*
X176833723Y-90589123D01*
X176738485Y-90541504D01*
X176548009Y-90493885D01*
X176405152Y-90493885D01*
X176214676Y-90541504D01*
X176119438Y-90589123D01*
X176024200Y-90684361D01*
X175976580Y-90827219D01*
X175976580Y-90922457D01*
X176024200Y-91065314D01*
X176071819Y-91112933D01*
X176071819Y-91493885D02*
X176024200Y-91541504D01*
X175976580Y-91636742D01*
X175976580Y-91874838D01*
X176024200Y-91970076D01*
X176071819Y-92017695D01*
X176167057Y-92065314D01*
X176262295Y-92065314D01*
X176405152Y-92017695D01*
X176976580Y-91446266D01*
X176976580Y-92065314D01*
D12*
%TO.C,C116*%
X225393348Y-128084400D02*
X226815852Y-128084400D01*
X225393348Y-129904400D02*
X226815852Y-129904400D01*
%TO.C,D7*%
X213446000Y-140104800D02*
X213446000Y-144004800D01*
X213446000Y-140104800D02*
X215446000Y-140104800D01*
X215446000Y-140104800D02*
X215446000Y-144004800D01*
%TO.C,C112*%
X202910000Y-122288748D02*
X202910000Y-123711252D01*
X201090000Y-122288748D02*
X201090000Y-123711252D01*
%TO.C,C110*%
X205535000Y-145809148D02*
X205535000Y-147231652D01*
X207355000Y-145809148D02*
X207355000Y-147231652D01*
%TO.C,J31*%
X208585400Y-150787600D02*
X210705400Y-150787600D01*
X208585400Y-151787600D02*
X208585400Y-152847600D01*
X208585400Y-148727600D02*
X210705400Y-148727600D01*
X210705400Y-150787600D02*
X210705400Y-148727600D01*
X208585400Y-152847600D02*
X209645400Y-152847600D01*
X208585400Y-150787600D02*
X208585400Y-148727600D01*
%TO.C,C105*%
X216999580Y-127777200D02*
X216718420Y-127777200D01*
X216999580Y-126757200D02*
X216718420Y-126757200D01*
%TO.C,J33*%
X197917400Y-139071600D02*
X200037400Y-139071600D01*
X197917400Y-139071600D02*
X197917400Y-133011600D01*
X200037400Y-139071600D02*
X200037400Y-133011600D01*
X197917400Y-140071600D02*
X197917400Y-141131600D01*
X197917400Y-141131600D02*
X198977400Y-141131600D01*
X197917400Y-133011600D02*
X200037400Y-133011600D01*
%TO.C,J28*%
X204796600Y-153286800D02*
X196676600Y-153286800D01*
X203536600Y-151026800D02*
X203536600Y-153286800D01*
X196676600Y-147066800D02*
X197596600Y-147066800D01*
X198436600Y-149426800D02*
X197436600Y-149426800D01*
X198436600Y-151026800D02*
X198436600Y-149426800D01*
X203876600Y-147066800D02*
X203876600Y-145466800D01*
X196676600Y-153286800D02*
X196676600Y-145466800D01*
X203036600Y-149426800D02*
X204036600Y-149426800D01*
X197436600Y-149426800D02*
X197436600Y-151026800D01*
X204796600Y-147066800D02*
X203876600Y-147066800D01*
X203596600Y-147066800D02*
X203876600Y-147066800D01*
X203876600Y-145466800D02*
X204796600Y-145466800D01*
X204796600Y-145466800D02*
X204796600Y-153286800D01*
X202236600Y-153286800D02*
X202236600Y-148926800D01*
X197596600Y-145466800D02*
X197596600Y-147066800D01*
X204036600Y-151026800D02*
X203036600Y-151026800D01*
X199236600Y-148926800D02*
X199236600Y-153286800D01*
X204036600Y-149426800D02*
X204036600Y-151026800D01*
X197436600Y-151026800D02*
X198436600Y-151026800D01*
X203596600Y-147066800D02*
X203596600Y-145851800D01*
X203036600Y-151026800D02*
X203036600Y-149426800D01*
X197596600Y-147066800D02*
X197876600Y-147066800D01*
X203036600Y-151026800D02*
X203036600Y-153286800D01*
X196676600Y-145466800D02*
X197596600Y-145466800D01*
X202236600Y-148926800D02*
X199236600Y-148926800D01*
%TO.C,J32*%
X194793200Y-140117600D02*
X194793200Y-141177600D01*
X196913200Y-139117600D02*
X196913200Y-133057600D01*
X194793200Y-133057600D02*
X196913200Y-133057600D01*
X194793200Y-139117600D02*
X194793200Y-133057600D01*
X194793200Y-141177600D02*
X195853200Y-141177600D01*
X194793200Y-139117600D02*
X196913200Y-139117600D01*
%TO.C,C103*%
X223881220Y-131561800D02*
X224162380Y-131561800D01*
X223881220Y-130541800D02*
X224162380Y-130541800D01*
%TO.C,M8*%
X197190000Y-118968200D02*
X196130000Y-118968200D01*
X196130000Y-118968200D02*
X196130000Y-120028200D01*
X198190000Y-121088200D02*
X200250000Y-121088200D01*
X198190000Y-118968200D02*
X198190000Y-121088200D01*
X200250000Y-118968200D02*
X200250000Y-121088200D01*
X198190000Y-118968200D02*
X200250000Y-118968200D01*
D13*
%TO.C,Q12*%
X209578600Y-144755600D02*
X209478600Y-144755600D01*
X209578600Y-147675600D02*
X209578600Y-144755600D01*
X209478600Y-147675600D02*
X209578600Y-147675600D01*
X209478600Y-144755600D02*
X209478600Y-147675600D01*
X211228600Y-144715600D02*
X209928600Y-144715600D01*
%TO.C,IC14*%
X208729800Y-141564800D02*
X208729800Y-138064800D01*
X202229800Y-138064800D02*
X202229800Y-141564800D01*
X208604800Y-143839800D02*
X208604800Y-142089800D01*
X202229800Y-141564800D02*
X208729800Y-141564800D01*
X208729800Y-138064800D02*
X202229800Y-138064800D01*
D12*
%TO.C,R79*%
X225560300Y-123813524D02*
X225560300Y-123304076D01*
X224515300Y-123813524D02*
X224515300Y-123304076D01*
%TO.C,C99*%
X210393820Y-139791400D02*
X210674980Y-139791400D01*
X210393820Y-138771400D02*
X210674980Y-138771400D01*
%TO.C,REF\u002A\u002A18*%
X229730400Y-120117600D02*
X229730400Y-118787600D01*
X229730400Y-121387600D02*
X229730400Y-121447600D01*
X229730400Y-118787600D02*
X228400400Y-118787600D01*
X229730400Y-121387600D02*
X227070400Y-121387600D01*
X229730400Y-121447600D02*
X227070400Y-121447600D01*
X227070400Y-121387600D02*
X227070400Y-121447600D01*
%TO.C,REF\u002A\u002A17*%
X203380800Y-121536000D02*
X200720800Y-121536000D01*
X203380800Y-121476000D02*
X200720800Y-121476000D01*
X200720800Y-121476000D02*
X200720800Y-121536000D01*
X203380800Y-120206000D02*
X203380800Y-118876000D01*
X203380800Y-121476000D02*
X203380800Y-121536000D01*
X203380800Y-118876000D02*
X202050800Y-118876000D01*
%TO.C,R81*%
X223016700Y-123813524D02*
X223016700Y-123304076D01*
X224061700Y-123813524D02*
X224061700Y-123304076D01*
%TO.C,C96*%
X223805020Y-137171200D02*
X224086180Y-137171200D01*
X223805020Y-138191200D02*
X224086180Y-138191200D01*
%TO.C,R80*%
X199195100Y-123356324D02*
X199195100Y-122846876D01*
X198150100Y-123356324D02*
X198150100Y-122846876D01*
%TO.C,C109*%
X199942652Y-142003600D02*
X198520148Y-142003600D01*
X199942652Y-143823600D02*
X198520148Y-143823600D01*
%TO.C,C108*%
X205535000Y-151879852D02*
X205535000Y-150457348D01*
X207355000Y-151879852D02*
X207355000Y-150457348D01*
%TO.C,R75*%
X206075820Y-133335800D02*
X206356980Y-133335800D01*
X206075820Y-134355800D02*
X206356980Y-134355800D01*
%TO.C,C107*%
X211859600Y-147790452D02*
X211859600Y-146367948D01*
X213679600Y-147790452D02*
X213679600Y-146367948D01*
%TO.C,R70*%
X223855820Y-135647200D02*
X224136980Y-135647200D01*
X223855820Y-136667200D02*
X224136980Y-136667200D01*
%TO.C,C98*%
X229383200Y-147548220D02*
X229383200Y-147829380D01*
X228363200Y-147548220D02*
X228363200Y-147829380D01*
%TO.C,C113*%
X227633000Y-136256948D02*
X227633000Y-137679452D01*
X229453000Y-136256948D02*
X229453000Y-137679452D01*
%TO.C,C92*%
X219604200Y-127420180D02*
X219604200Y-127139020D01*
X218584200Y-127420180D02*
X218584200Y-127139020D01*
%TO.C,R82*%
X197721900Y-123356324D02*
X197721900Y-122846876D01*
X196676900Y-123356324D02*
X196676900Y-122846876D01*
%TO.C,C93*%
X217024980Y-129250400D02*
X216743820Y-129250400D01*
X217024980Y-128230400D02*
X216743820Y-128230400D01*
%TO.C,M7*%
X225306800Y-119171400D02*
X225306800Y-121291400D01*
X224306800Y-119171400D02*
X223246800Y-119171400D01*
X227366800Y-119171400D02*
X227366800Y-121291400D01*
X223246800Y-119171400D02*
X223246800Y-120231400D01*
X225306800Y-119171400D02*
X227366800Y-119171400D01*
X225306800Y-121291400D02*
X227366800Y-121291400D01*
%TO.C,J36*%
X231127000Y-130747000D02*
X231127000Y-132807000D01*
X231127000Y-128687000D02*
X230067000Y-128687000D01*
X231127000Y-130747000D02*
X229007000Y-130747000D01*
X231127000Y-132807000D02*
X229007000Y-132807000D01*
X229007000Y-130747000D02*
X229007000Y-132807000D01*
X231127000Y-129747000D02*
X231127000Y-128687000D01*
%TO.C,C95*%
X228818000Y-123406348D02*
X228818000Y-124828852D01*
X226998000Y-123406348D02*
X226998000Y-124828852D01*
%TO.C,C101*%
X219705800Y-144501980D02*
X219705800Y-144220820D01*
X218685800Y-144501980D02*
X218685800Y-144220820D01*
%TO.C,C86*%
X181393348Y-128084400D02*
X182815852Y-128084400D01*
X181393348Y-129904400D02*
X182815852Y-129904400D01*
%TO.C,D5*%
X169446000Y-140104800D02*
X169446000Y-144004800D01*
X169446000Y-140104800D02*
X171446000Y-140104800D01*
X171446000Y-140104800D02*
X171446000Y-144004800D01*
%TO.C,C82*%
X158910000Y-122288748D02*
X158910000Y-123711252D01*
X157090000Y-122288748D02*
X157090000Y-123711252D01*
%TO.C,C80*%
X161535000Y-145809148D02*
X161535000Y-147231652D01*
X163355000Y-145809148D02*
X163355000Y-147231652D01*
%TO.C,J22*%
X164585400Y-150787600D02*
X166705400Y-150787600D01*
X164585400Y-151787600D02*
X164585400Y-152847600D01*
X164585400Y-148727600D02*
X166705400Y-148727600D01*
X166705400Y-150787600D02*
X166705400Y-148727600D01*
X164585400Y-152847600D02*
X165645400Y-152847600D01*
X164585400Y-150787600D02*
X164585400Y-148727600D01*
%TO.C,C75*%
X172999580Y-127777200D02*
X172718420Y-127777200D01*
X172999580Y-126757200D02*
X172718420Y-126757200D01*
%TO.C,J24*%
X153917400Y-139071600D02*
X156037400Y-139071600D01*
X153917400Y-139071600D02*
X153917400Y-133011600D01*
X156037400Y-139071600D02*
X156037400Y-133011600D01*
X153917400Y-140071600D02*
X153917400Y-141131600D01*
X153917400Y-141131600D02*
X154977400Y-141131600D01*
X153917400Y-133011600D02*
X156037400Y-133011600D01*
%TO.C,J19*%
X160796600Y-153286800D02*
X152676600Y-153286800D01*
X159536600Y-151026800D02*
X159536600Y-153286800D01*
X152676600Y-147066800D02*
X153596600Y-147066800D01*
X154436600Y-149426800D02*
X153436600Y-149426800D01*
X154436600Y-151026800D02*
X154436600Y-149426800D01*
X159876600Y-147066800D02*
X159876600Y-145466800D01*
X152676600Y-153286800D02*
X152676600Y-145466800D01*
X159036600Y-149426800D02*
X160036600Y-149426800D01*
X153436600Y-149426800D02*
X153436600Y-151026800D01*
X160796600Y-147066800D02*
X159876600Y-147066800D01*
X159596600Y-147066800D02*
X159876600Y-147066800D01*
X159876600Y-145466800D02*
X160796600Y-145466800D01*
X160796600Y-145466800D02*
X160796600Y-153286800D01*
X158236600Y-153286800D02*
X158236600Y-148926800D01*
X153596600Y-145466800D02*
X153596600Y-147066800D01*
X160036600Y-151026800D02*
X159036600Y-151026800D01*
X155236600Y-148926800D02*
X155236600Y-153286800D01*
X160036600Y-149426800D02*
X160036600Y-151026800D01*
X153436600Y-151026800D02*
X154436600Y-151026800D01*
X159596600Y-147066800D02*
X159596600Y-145851800D01*
X159036600Y-151026800D02*
X159036600Y-149426800D01*
X153596600Y-147066800D02*
X153876600Y-147066800D01*
X159036600Y-151026800D02*
X159036600Y-153286800D01*
X152676600Y-145466800D02*
X153596600Y-145466800D01*
X158236600Y-148926800D02*
X155236600Y-148926800D01*
%TO.C,J23*%
X150793200Y-140117600D02*
X150793200Y-141177600D01*
X152913200Y-139117600D02*
X152913200Y-133057600D01*
X150793200Y-133057600D02*
X152913200Y-133057600D01*
X150793200Y-139117600D02*
X150793200Y-133057600D01*
X150793200Y-141177600D02*
X151853200Y-141177600D01*
X150793200Y-139117600D02*
X152913200Y-139117600D01*
%TO.C,C73*%
X179881220Y-131561800D02*
X180162380Y-131561800D01*
X179881220Y-130541800D02*
X180162380Y-130541800D01*
%TO.C,M6*%
X153190000Y-118968200D02*
X152130000Y-118968200D01*
X152130000Y-118968200D02*
X152130000Y-120028200D01*
X154190000Y-121088200D02*
X156250000Y-121088200D01*
X154190000Y-118968200D02*
X154190000Y-121088200D01*
X156250000Y-118968200D02*
X156250000Y-121088200D01*
X154190000Y-118968200D02*
X156250000Y-118968200D01*
D13*
%TO.C,Q9*%
X165578600Y-144755600D02*
X165478600Y-144755600D01*
X165578600Y-147675600D02*
X165578600Y-144755600D01*
X165478600Y-147675600D02*
X165578600Y-147675600D01*
X165478600Y-144755600D02*
X165478600Y-147675600D01*
X167228600Y-144715600D02*
X165928600Y-144715600D01*
%TO.C,IC6*%
X164729800Y-141564800D02*
X164729800Y-138064800D01*
X158229800Y-138064800D02*
X158229800Y-141564800D01*
X164604800Y-143839800D02*
X164604800Y-142089800D01*
X158229800Y-141564800D02*
X164729800Y-141564800D01*
X164729800Y-138064800D02*
X158229800Y-138064800D01*
D12*
%TO.C,R58*%
X181560300Y-123813524D02*
X181560300Y-123304076D01*
X180515300Y-123813524D02*
X180515300Y-123304076D01*
%TO.C,C69*%
X166393820Y-139791400D02*
X166674980Y-139791400D01*
X166393820Y-138771400D02*
X166674980Y-138771400D01*
%TO.C,REF\u002A\u002A12*%
X185730400Y-120117600D02*
X185730400Y-118787600D01*
X185730400Y-121387600D02*
X185730400Y-121447600D01*
X185730400Y-118787600D02*
X184400400Y-118787600D01*
X185730400Y-121387600D02*
X183070400Y-121387600D01*
X185730400Y-121447600D02*
X183070400Y-121447600D01*
X183070400Y-121387600D02*
X183070400Y-121447600D01*
%TO.C,REF\u002A\u002A11*%
X159380800Y-121536000D02*
X156720800Y-121536000D01*
X159380800Y-121476000D02*
X156720800Y-121476000D01*
X156720800Y-121476000D02*
X156720800Y-121536000D01*
X159380800Y-120206000D02*
X159380800Y-118876000D01*
X159380800Y-121476000D02*
X159380800Y-121536000D01*
X159380800Y-118876000D02*
X158050800Y-118876000D01*
%TO.C,R60*%
X179016700Y-123813524D02*
X179016700Y-123304076D01*
X180061700Y-123813524D02*
X180061700Y-123304076D01*
%TO.C,C66*%
X179805020Y-137171200D02*
X180086180Y-137171200D01*
X179805020Y-138191200D02*
X180086180Y-138191200D01*
%TO.C,R59*%
X155195100Y-123356324D02*
X155195100Y-122846876D01*
X154150100Y-123356324D02*
X154150100Y-122846876D01*
%TO.C,C79*%
X155942652Y-142003600D02*
X154520148Y-142003600D01*
X155942652Y-143823600D02*
X154520148Y-143823600D01*
%TO.C,C78*%
X161535000Y-151879852D02*
X161535000Y-150457348D01*
X163355000Y-151879852D02*
X163355000Y-150457348D01*
%TO.C,R54*%
X162075820Y-133335800D02*
X162356980Y-133335800D01*
X162075820Y-134355800D02*
X162356980Y-134355800D01*
%TO.C,C77*%
X167859600Y-147790452D02*
X167859600Y-146367948D01*
X169679600Y-147790452D02*
X169679600Y-146367948D01*
%TO.C,R49*%
X179855820Y-135647200D02*
X180136980Y-135647200D01*
X179855820Y-136667200D02*
X180136980Y-136667200D01*
%TO.C,C68*%
X185383200Y-147548220D02*
X185383200Y-147829380D01*
X184363200Y-147548220D02*
X184363200Y-147829380D01*
%TO.C,C83*%
X183633000Y-136256948D02*
X183633000Y-137679452D01*
X185453000Y-136256948D02*
X185453000Y-137679452D01*
%TO.C,C62*%
X175604200Y-127420180D02*
X175604200Y-127139020D01*
X174584200Y-127420180D02*
X174584200Y-127139020D01*
%TO.C,R61*%
X153721900Y-123356324D02*
X153721900Y-122846876D01*
X152676900Y-123356324D02*
X152676900Y-122846876D01*
%TO.C,C63*%
X173024980Y-129250400D02*
X172743820Y-129250400D01*
X173024980Y-128230400D02*
X172743820Y-128230400D01*
%TO.C,M5*%
X181306800Y-119171400D02*
X181306800Y-121291400D01*
X180306800Y-119171400D02*
X179246800Y-119171400D01*
X183366800Y-119171400D02*
X183366800Y-121291400D01*
X179246800Y-119171400D02*
X179246800Y-120231400D01*
X181306800Y-119171400D02*
X183366800Y-119171400D01*
X181306800Y-121291400D02*
X183366800Y-121291400D01*
%TO.C,J27*%
X187127000Y-130747000D02*
X187127000Y-132807000D01*
X187127000Y-128687000D02*
X186067000Y-128687000D01*
X187127000Y-130747000D02*
X185007000Y-130747000D01*
X187127000Y-132807000D02*
X185007000Y-132807000D01*
X185007000Y-130747000D02*
X185007000Y-132807000D01*
X187127000Y-129747000D02*
X187127000Y-128687000D01*
%TO.C,C65*%
X184818000Y-123406348D02*
X184818000Y-124828852D01*
X182998000Y-123406348D02*
X182998000Y-124828852D01*
%TO.C,C71*%
X175705800Y-144501980D02*
X175705800Y-144220820D01*
X174685800Y-144501980D02*
X174685800Y-144220820D01*
%TO.C,C56*%
X225393348Y-92084400D02*
X226815852Y-92084400D01*
X225393348Y-93904400D02*
X226815852Y-93904400D01*
%TO.C,D2*%
X213446000Y-104104800D02*
X213446000Y-108004800D01*
X213446000Y-104104800D02*
X215446000Y-104104800D01*
X215446000Y-104104800D02*
X215446000Y-108004800D01*
%TO.C,C52*%
X202910000Y-86288748D02*
X202910000Y-87711252D01*
X201090000Y-86288748D02*
X201090000Y-87711252D01*
%TO.C,C50*%
X205535000Y-109809148D02*
X205535000Y-111231652D01*
X207355000Y-109809148D02*
X207355000Y-111231652D01*
%TO.C,J13*%
X208585400Y-114787600D02*
X210705400Y-114787600D01*
X208585400Y-115787600D02*
X208585400Y-116847600D01*
X208585400Y-112727600D02*
X210705400Y-112727600D01*
X210705400Y-114787600D02*
X210705400Y-112727600D01*
X208585400Y-116847600D02*
X209645400Y-116847600D01*
X208585400Y-114787600D02*
X208585400Y-112727600D01*
%TO.C,C45*%
X216999580Y-91777200D02*
X216718420Y-91777200D01*
X216999580Y-90757200D02*
X216718420Y-90757200D01*
%TO.C,J15*%
X197917400Y-103071600D02*
X200037400Y-103071600D01*
X197917400Y-103071600D02*
X197917400Y-97011600D01*
X200037400Y-103071600D02*
X200037400Y-97011600D01*
X197917400Y-104071600D02*
X197917400Y-105131600D01*
X197917400Y-105131600D02*
X198977400Y-105131600D01*
X197917400Y-97011600D02*
X200037400Y-97011600D01*
%TO.C,J8*%
X204796600Y-117286800D02*
X196676600Y-117286800D01*
X203536600Y-115026800D02*
X203536600Y-117286800D01*
X196676600Y-111066800D02*
X197596600Y-111066800D01*
X198436600Y-113426800D02*
X197436600Y-113426800D01*
X198436600Y-115026800D02*
X198436600Y-113426800D01*
X203876600Y-111066800D02*
X203876600Y-109466800D01*
X196676600Y-117286800D02*
X196676600Y-109466800D01*
X203036600Y-113426800D02*
X204036600Y-113426800D01*
X197436600Y-113426800D02*
X197436600Y-115026800D01*
X204796600Y-111066800D02*
X203876600Y-111066800D01*
X203596600Y-111066800D02*
X203876600Y-111066800D01*
X203876600Y-109466800D02*
X204796600Y-109466800D01*
X204796600Y-109466800D02*
X204796600Y-117286800D01*
X202236600Y-117286800D02*
X202236600Y-112926800D01*
X197596600Y-109466800D02*
X197596600Y-111066800D01*
X204036600Y-115026800D02*
X203036600Y-115026800D01*
X199236600Y-112926800D02*
X199236600Y-117286800D01*
X204036600Y-113426800D02*
X204036600Y-115026800D01*
X197436600Y-115026800D02*
X198436600Y-115026800D01*
X203596600Y-111066800D02*
X203596600Y-109851800D01*
X203036600Y-115026800D02*
X203036600Y-113426800D01*
X197596600Y-111066800D02*
X197876600Y-111066800D01*
X203036600Y-115026800D02*
X203036600Y-117286800D01*
X196676600Y-109466800D02*
X197596600Y-109466800D01*
X202236600Y-112926800D02*
X199236600Y-112926800D01*
%TO.C,J14*%
X194793200Y-104117600D02*
X194793200Y-105177600D01*
X196913200Y-103117600D02*
X196913200Y-97057600D01*
X194793200Y-97057600D02*
X196913200Y-97057600D01*
X194793200Y-103117600D02*
X194793200Y-97057600D01*
X194793200Y-105177600D02*
X195853200Y-105177600D01*
X194793200Y-103117600D02*
X196913200Y-103117600D01*
%TO.C,C43*%
X223881220Y-95561800D02*
X224162380Y-95561800D01*
X223881220Y-94541800D02*
X224162380Y-94541800D01*
%TO.C,M4*%
X197190000Y-82968200D02*
X196130000Y-82968200D01*
X196130000Y-82968200D02*
X196130000Y-84028200D01*
X198190000Y-85088200D02*
X200250000Y-85088200D01*
X198190000Y-82968200D02*
X198190000Y-85088200D01*
X200250000Y-82968200D02*
X200250000Y-85088200D01*
X198190000Y-82968200D02*
X200250000Y-82968200D01*
D13*
%TO.C,Q8*%
X209578600Y-108755600D02*
X209478600Y-108755600D01*
X209578600Y-111675600D02*
X209578600Y-108755600D01*
X209478600Y-111675600D02*
X209578600Y-111675600D01*
X209478600Y-108755600D02*
X209478600Y-111675600D01*
X211228600Y-108715600D02*
X209928600Y-108715600D01*
%TO.C,IC4*%
X208729800Y-105564800D02*
X208729800Y-102064800D01*
X202229800Y-102064800D02*
X202229800Y-105564800D01*
X208604800Y-107839800D02*
X208604800Y-106089800D01*
X202229800Y-105564800D02*
X208729800Y-105564800D01*
X208729800Y-102064800D02*
X202229800Y-102064800D01*
D12*
%TO.C,R37*%
X225560300Y-87813524D02*
X225560300Y-87304076D01*
X224515300Y-87813524D02*
X224515300Y-87304076D01*
%TO.C,C39*%
X210393820Y-103791400D02*
X210674980Y-103791400D01*
X210393820Y-102771400D02*
X210674980Y-102771400D01*
%TO.C,REF\u002A\u002A6*%
X229730400Y-84117600D02*
X229730400Y-82787600D01*
X229730400Y-85387600D02*
X229730400Y-85447600D01*
X229730400Y-82787600D02*
X228400400Y-82787600D01*
X229730400Y-85387600D02*
X227070400Y-85387600D01*
X229730400Y-85447600D02*
X227070400Y-85447600D01*
X227070400Y-85387600D02*
X227070400Y-85447600D01*
%TO.C,REF\u002A\u002A5*%
X203380800Y-85536000D02*
X200720800Y-85536000D01*
X203380800Y-85476000D02*
X200720800Y-85476000D01*
X200720800Y-85476000D02*
X200720800Y-85536000D01*
X203380800Y-84206000D02*
X203380800Y-82876000D01*
X203380800Y-85476000D02*
X203380800Y-85536000D01*
X203380800Y-82876000D02*
X202050800Y-82876000D01*
%TO.C,R39*%
X223016700Y-87813524D02*
X223016700Y-87304076D01*
X224061700Y-87813524D02*
X224061700Y-87304076D01*
%TO.C,C31*%
X223805020Y-101171200D02*
X224086180Y-101171200D01*
X223805020Y-102191200D02*
X224086180Y-102191200D01*
%TO.C,R38*%
X199195100Y-87356324D02*
X199195100Y-86846876D01*
X198150100Y-87356324D02*
X198150100Y-86846876D01*
%TO.C,C49*%
X199942652Y-106003600D02*
X198520148Y-106003600D01*
X199942652Y-107823600D02*
X198520148Y-107823600D01*
%TO.C,C48*%
X205535000Y-115879852D02*
X205535000Y-114457348D01*
X207355000Y-115879852D02*
X207355000Y-114457348D01*
%TO.C,R33*%
X206075820Y-97335800D02*
X206356980Y-97335800D01*
X206075820Y-98355800D02*
X206356980Y-98355800D01*
%TO.C,C47*%
X211859600Y-111790452D02*
X211859600Y-110367948D01*
X213679600Y-111790452D02*
X213679600Y-110367948D01*
%TO.C,R28*%
X223855820Y-99647200D02*
X224136980Y-99647200D01*
X223855820Y-100667200D02*
X224136980Y-100667200D01*
%TO.C,C38*%
X229383200Y-111548220D02*
X229383200Y-111829380D01*
X228363200Y-111548220D02*
X228363200Y-111829380D01*
%TO.C,C53*%
X227633000Y-100256948D02*
X227633000Y-101679452D01*
X229453000Y-100256948D02*
X229453000Y-101679452D01*
%TO.C,C25*%
X219604200Y-91420180D02*
X219604200Y-91139020D01*
X218584200Y-91420180D02*
X218584200Y-91139020D01*
%TO.C,R40*%
X197721900Y-87356324D02*
X197721900Y-86846876D01*
X196676900Y-87356324D02*
X196676900Y-86846876D01*
%TO.C,C27*%
X217024980Y-93250400D02*
X216743820Y-93250400D01*
X217024980Y-92230400D02*
X216743820Y-92230400D01*
%TO.C,M3*%
X225306800Y-83171400D02*
X225306800Y-85291400D01*
X224306800Y-83171400D02*
X223246800Y-83171400D01*
X227366800Y-83171400D02*
X227366800Y-85291400D01*
X223246800Y-83171400D02*
X223246800Y-84231400D01*
X225306800Y-83171400D02*
X227366800Y-83171400D01*
X225306800Y-85291400D02*
X227366800Y-85291400D01*
%TO.C,J18*%
X231127000Y-94747000D02*
X231127000Y-96807000D01*
X231127000Y-92687000D02*
X230067000Y-92687000D01*
X231127000Y-94747000D02*
X229007000Y-94747000D01*
X231127000Y-96807000D02*
X229007000Y-96807000D01*
X229007000Y-94747000D02*
X229007000Y-96807000D01*
X231127000Y-93747000D02*
X231127000Y-92687000D01*
%TO.C,C29*%
X228818000Y-87406348D02*
X228818000Y-88828852D01*
X226998000Y-87406348D02*
X226998000Y-88828852D01*
%TO.C,C41*%
X219705800Y-108501980D02*
X219705800Y-108220820D01*
X218685800Y-108501980D02*
X218685800Y-108220820D01*
%TO.C,C33*%
X181393348Y-92084400D02*
X182815852Y-92084400D01*
X181393348Y-93904400D02*
X182815852Y-93904400D01*
%TO.C,C22*%
X158910000Y-86288748D02*
X158910000Y-87711252D01*
X157090000Y-86288748D02*
X157090000Y-87711252D01*
%TO.C,D1*%
X169446000Y-104104800D02*
X169446000Y-108004800D01*
X169446000Y-104104800D02*
X171446000Y-104104800D01*
X171446000Y-104104800D02*
X171446000Y-108004800D01*
%TO.C,C20*%
X161535000Y-109809148D02*
X161535000Y-111231652D01*
X163355000Y-109809148D02*
X163355000Y-111231652D01*
%TO.C,C15*%
X172999580Y-91777200D02*
X172718420Y-91777200D01*
X172999580Y-90757200D02*
X172718420Y-90757200D01*
%TO.C,J4*%
X164585400Y-114787600D02*
X166705400Y-114787600D01*
X164585400Y-115787600D02*
X164585400Y-116847600D01*
X164585400Y-112727600D02*
X166705400Y-112727600D01*
X166705400Y-114787600D02*
X166705400Y-112727600D01*
X164585400Y-116847600D02*
X165645400Y-116847600D01*
X164585400Y-114787600D02*
X164585400Y-112727600D01*
%TO.C,J6*%
X153917400Y-103071600D02*
X156037400Y-103071600D01*
X153917400Y-103071600D02*
X153917400Y-97011600D01*
X156037400Y-103071600D02*
X156037400Y-97011600D01*
X153917400Y-104071600D02*
X153917400Y-105131600D01*
X153917400Y-105131600D02*
X154977400Y-105131600D01*
X153917400Y-97011600D02*
X156037400Y-97011600D01*
%TO.C,C9*%
X166393820Y-103791400D02*
X166674980Y-103791400D01*
X166393820Y-102771400D02*
X166674980Y-102771400D01*
%TO.C,R7*%
X179855820Y-99647200D02*
X180136980Y-99647200D01*
X179855820Y-100667200D02*
X180136980Y-100667200D01*
%TO.C,J1*%
X160796600Y-117286800D02*
X152676600Y-117286800D01*
X159536600Y-115026800D02*
X159536600Y-117286800D01*
X152676600Y-111066800D02*
X153596600Y-111066800D01*
X154436600Y-113426800D02*
X153436600Y-113426800D01*
X154436600Y-115026800D02*
X154436600Y-113426800D01*
X159876600Y-111066800D02*
X159876600Y-109466800D01*
X152676600Y-117286800D02*
X152676600Y-109466800D01*
X159036600Y-113426800D02*
X160036600Y-113426800D01*
X153436600Y-113426800D02*
X153436600Y-115026800D01*
X160796600Y-111066800D02*
X159876600Y-111066800D01*
X159596600Y-111066800D02*
X159876600Y-111066800D01*
X159876600Y-109466800D02*
X160796600Y-109466800D01*
X160796600Y-109466800D02*
X160796600Y-117286800D01*
X158236600Y-117286800D02*
X158236600Y-112926800D01*
X153596600Y-109466800D02*
X153596600Y-111066800D01*
X160036600Y-115026800D02*
X159036600Y-115026800D01*
X155236600Y-112926800D02*
X155236600Y-117286800D01*
X160036600Y-113426800D02*
X160036600Y-115026800D01*
X153436600Y-115026800D02*
X154436600Y-115026800D01*
X159596600Y-111066800D02*
X159596600Y-109851800D01*
X159036600Y-115026800D02*
X159036600Y-113426800D01*
X153596600Y-111066800D02*
X153876600Y-111066800D01*
X159036600Y-115026800D02*
X159036600Y-117286800D01*
X152676600Y-109466800D02*
X153596600Y-109466800D01*
X158236600Y-112926800D02*
X155236600Y-112926800D01*
%TO.C,C13*%
X179881220Y-95561800D02*
X180162380Y-95561800D01*
X179881220Y-94541800D02*
X180162380Y-94541800D01*
%TO.C,R18*%
X181560300Y-87813524D02*
X181560300Y-87304076D01*
X180515300Y-87813524D02*
X180515300Y-87304076D01*
D13*
%TO.C,IC2*%
X164729800Y-105564800D02*
X164729800Y-102064800D01*
X158229800Y-102064800D02*
X158229800Y-105564800D01*
X164604800Y-107839800D02*
X164604800Y-106089800D01*
X158229800Y-105564800D02*
X164729800Y-105564800D01*
X164729800Y-102064800D02*
X158229800Y-102064800D01*
%TO.C,Q7*%
X165578600Y-108755600D02*
X165478600Y-108755600D01*
X165578600Y-111675600D02*
X165578600Y-108755600D01*
X165478600Y-111675600D02*
X165578600Y-111675600D01*
X165478600Y-108755600D02*
X165478600Y-111675600D01*
X167228600Y-108715600D02*
X165928600Y-108715600D01*
D12*
%TO.C,C17*%
X167859600Y-111790452D02*
X167859600Y-110367948D01*
X169679600Y-111790452D02*
X169679600Y-110367948D01*
%TO.C,R19*%
X155195100Y-87356324D02*
X155195100Y-86846876D01*
X154150100Y-87356324D02*
X154150100Y-86846876D01*
%TO.C,REF\u002A\u002A*%
X185730400Y-84117600D02*
X185730400Y-82787600D01*
X185730400Y-85387600D02*
X185730400Y-85447600D01*
X185730400Y-82787600D02*
X184400400Y-82787600D01*
X185730400Y-85387600D02*
X183070400Y-85387600D01*
X185730400Y-85447600D02*
X183070400Y-85447600D01*
X183070400Y-85387600D02*
X183070400Y-85447600D01*
%TO.C,C6*%
X179805020Y-101171200D02*
X180086180Y-101171200D01*
X179805020Y-102191200D02*
X180086180Y-102191200D01*
%TO.C,M2*%
X153190000Y-82968200D02*
X152130000Y-82968200D01*
X152130000Y-82968200D02*
X152130000Y-84028200D01*
X154190000Y-85088200D02*
X156250000Y-85088200D01*
X154190000Y-82968200D02*
X154190000Y-85088200D01*
X156250000Y-82968200D02*
X156250000Y-85088200D01*
X154190000Y-82968200D02*
X156250000Y-82968200D01*
%TO.C,J5*%
X150793200Y-104117600D02*
X150793200Y-105177600D01*
X152913200Y-103117600D02*
X152913200Y-97057600D01*
X150793200Y-97057600D02*
X152913200Y-97057600D01*
X150793200Y-103117600D02*
X150793200Y-97057600D01*
X150793200Y-105177600D02*
X151853200Y-105177600D01*
X150793200Y-103117600D02*
X152913200Y-103117600D01*
%TO.C,C23*%
X183633000Y-100256948D02*
X183633000Y-101679452D01*
X185453000Y-100256948D02*
X185453000Y-101679452D01*
%TO.C,C8*%
X185383200Y-111548220D02*
X185383200Y-111829380D01*
X184363200Y-111548220D02*
X184363200Y-111829380D01*
%TO.C,R12*%
X162075820Y-97335800D02*
X162356980Y-97335800D01*
X162075820Y-98355800D02*
X162356980Y-98355800D01*
%TO.C,C18*%
X161535000Y-115879852D02*
X161535000Y-114457348D01*
X163355000Y-115879852D02*
X163355000Y-114457348D01*
%TO.C,C19*%
X155942652Y-106003600D02*
X154520148Y-106003600D01*
X155942652Y-107823600D02*
X154520148Y-107823600D01*
%TO.C,R20*%
X179016700Y-87813524D02*
X179016700Y-87304076D01*
X180061700Y-87813524D02*
X180061700Y-87304076D01*
%TO.C,REF\u002A\u002A*%
X159380800Y-85536000D02*
X156720800Y-85536000D01*
X159380800Y-85476000D02*
X156720800Y-85476000D01*
X156720800Y-85476000D02*
X156720800Y-85536000D01*
X159380800Y-84206000D02*
X159380800Y-82876000D01*
X159380800Y-85476000D02*
X159380800Y-85536000D01*
X159380800Y-82876000D02*
X158050800Y-82876000D01*
%TO.C,C5*%
X184818000Y-87406348D02*
X184818000Y-88828852D01*
X182998000Y-87406348D02*
X182998000Y-88828852D01*
%TO.C,M1*%
X181306800Y-83171400D02*
X181306800Y-85291400D01*
X180306800Y-83171400D02*
X179246800Y-83171400D01*
X183366800Y-83171400D02*
X183366800Y-85291400D01*
X179246800Y-83171400D02*
X179246800Y-84231400D01*
X181306800Y-83171400D02*
X183366800Y-83171400D01*
X181306800Y-85291400D02*
X183366800Y-85291400D01*
%TO.C,R21*%
X153721900Y-87356324D02*
X153721900Y-86846876D01*
X152676900Y-87356324D02*
X152676900Y-86846876D01*
%TO.C,J11*%
X187127000Y-94747000D02*
X187127000Y-96807000D01*
X187127000Y-92687000D02*
X186067000Y-92687000D01*
X187127000Y-94747000D02*
X185007000Y-94747000D01*
X187127000Y-96807000D02*
X185007000Y-96807000D01*
X185007000Y-94747000D02*
X185007000Y-96807000D01*
X187127000Y-93747000D02*
X187127000Y-92687000D01*
%TO.C,C11*%
X175705800Y-108501980D02*
X175705800Y-108220820D01*
X174685800Y-108501980D02*
X174685800Y-108220820D01*
%TO.C,C3*%
X173024980Y-93250400D02*
X172743820Y-93250400D01*
X173024980Y-92230400D02*
X172743820Y-92230400D01*
%TO.C,C2*%
X175604200Y-91420180D02*
X175604200Y-91139020D01*
X174584200Y-91420180D02*
X174584200Y-91139020D01*
%TD*%
M02*
